<?xml version="1.0" encoding="UTF-8" standalone="no"?>
<!DOCTYPE svg PUBLIC "-//W3C//DTD SVG 1.1//EN"
 "http://www.w3.org/Graphics/SVG/1.1/DTD/svg11.dtd">
<!-- Generated by graphviz version 2.36.0 (20140111.2315)
 -->
<!-- Title: view.panes.PenPane Pages: 1 -->
<!--zoomable 164 -->
<svg id="main" version="1.1" xmlns="http://www.w3.org/2000/svg" xmlns:xlink="http://www.w3.org/1999/xlink" xml:space="preserve" onload="init(evt)">
<style type="text/css"><![CDATA[
.edge:hover path { stroke: red; }
.edge:hover polygon { stroke: red; fill: red; }
]]></style>
<script type="text/javascript"><![CDATA[
var edges = document.getElementsByTagName('g');
if (edges && edges.length) {
  for (var i=0;i<edges.length;i++) {
    if (edges[i].id.substr(0,4)=='edge') {
      edges[i].setAttribute('class','edge');
    }
  }
}
]]></script>
        <defs>
                <circle id="rim" cx="0" cy="0" r="7"/>
                <circle id="rim2" cx="0" cy="0" r="3.5"/>
                <g id="zoomPlus">
                        <use xlink:href="#rim" fill="#404040">
                                <set attributeName="fill" to="#808080" begin="zoomplus.mouseover" end="zoomplus.mouseout"/>
                        </use>
                        <path d="M-4,0h8M0,-4v8" fill="none" stroke="white" stroke-width="1.5" pointer-events="none"/>
                </g>
                <g id="zoomMin">
                        <use xlink:href="#rim" fill="#404040">
                                <set attributeName="fill" to="#808080" begin="zoomminus.mouseover" end="zoomminus.mouseout"/>
                        </use>
                        <path d="M-4,0h8" fill="none" stroke="white" stroke-width="1.5" pointer-events="none"/>
                </g>
                <g id="dirArrow">
                        <path fill="none" stroke="white" stroke-width="1.5" d="M0,-3.0v7 M-2.5,-0.5L0,-3.0L2.5,-0.5"/>
                </g>
               <g id="resetDef">
                       <use xlink:href="#rim2" fill="#404040">
                               <set attributeName="fill" to="#808080" begin="reset.mouseover" end="reset.mouseout"/>
                       </use>
               </g>
        </defs>

<script type="text/javascript">
var viewWidth = 635;
var viewHeight = 164;
var sectionId = 'dynsection-0';
</script>
<script xlink:href="../../svgpan.js"/>
<svg id="graph" class="graph">
<g id="viewport">
<title>view.panes.PenPane</title>
<polygon fill="white" stroke="none" points="-4,4 -4,-160 631,-160 631,4 -4,4"/>
<!-- Node1 -->
<g id="node1" class="node"><title>Node1</title>
<polygon fill="#bfbfbf" stroke="black" points="215.5,-0.5 215.5,-19.5 328.5,-19.5 328.5,-0.5 215.5,-0.5"/>
<text text-anchor="middle" x="272" y="-7.5" font-family="Helvetica,sans-Serif" font-size="10.00">view.panes.PenPane</text>
</g>
<!-- Node2 -->
<g id="node2" class="node"><title>Node2</title>
<polygon fill="white" stroke="#bfbfbf" points="-0.5,-78.5 -0.5,-97.5 40.5,-97.5 40.5,-78.5 -0.5,-78.5"/>
<text text-anchor="middle" x="20" y="-85.5" font-family="Helvetica,sans-Serif" font-size="10.00">VBox</text>
</g>
<!-- Node2&#45;&gt;Node1 -->
<g id="edge1" class="edge"><title>Node2&#45;&gt;Node1</title>
<path fill="none" stroke="#9a32cd" stroke-dasharray="5,2" d="M36.1225,-71.6676C48.8963,-60.4524 67.7425,-45.8751 87,-38 127.859,-21.2912 177.517,-14.7154 215.094,-12.2219"/>
<polygon fill="#9a32cd" stroke="#9a32cd" points="33.7084,-69.1321 28.6619,-78.4478 38.4163,-74.3124 33.7084,-69.1321"/>
<text text-anchor="middle" x="108.5" y="-46.5" font-family="Helvetica,sans-Serif" font-size="10.00"> myVbox</text>
</g>
<!-- Node3 -->
<g id="node3" class="node"><title>Node3</title>
<polygon fill="white" stroke="#bfbfbf" points="59,-78.5 59,-97.5 177,-97.5 177,-78.5 59,-78.5"/>
<text text-anchor="middle" x="118" y="-85.5" font-family="Helvetica,sans-Serif" font-size="10.00">ChoiceBox&lt; String &gt;</text>
</g>
<!-- Node3&#45;&gt;Node1 -->
<g id="edge2" class="edge"><title>Node3&#45;&gt;Node1</title>
<path fill="none" stroke="#9a32cd" stroke-dasharray="5,2" d="M126.788,-69.3244C132.976,-58.6736 142.245,-45.7191 154,-38 172.094,-26.1184 194.729,-19.427 215.323,-15.6727"/>
<polygon fill="#9a32cd" stroke="#9a32cd" points="123.646,-67.7773 121.989,-78.2417 129.81,-71.0946 123.646,-67.7773"/>
<text text-anchor="middle" x="187" y="-46.5" font-family="Helvetica,sans-Serif" font-size="10.00"> myPenStyles</text>
</g>
<!-- Node4 -->
<g id="node4" class="node"><title>Node4</title>
<polygon fill="white" stroke="#bfbfbf" points="195,-78.5 195,-97.5 259,-97.5 259,-78.5 195,-78.5"/>
<text text-anchor="middle" x="227" y="-85.5" font-family="Helvetica,sans-Serif" font-size="10.00">CheckBox</text>
</g>
<!-- Node4&#45;&gt;Node1 -->
<g id="edge3" class="edge"><title>Node4&#45;&gt;Node1</title>
<path fill="none" stroke="#9a32cd" stroke-dasharray="5,2" d="M223.791,-68.209C223.089,-58.5711 223.782,-46.9997 229,-38 233.687,-29.9167 241.865,-23.8983 249.839,-19.6206"/>
<polygon fill="#9a32cd" stroke="#9a32cd" points="220.348,-68.8797 225.067,-78.3651 227.293,-68.0066 220.348,-68.8797"/>
<text text-anchor="middle" x="262.5" y="-46.5" font-family="Helvetica,sans-Serif" font-size="10.00"> myPenToggle</text>
</g>
<!-- Node5 -->
<g id="node5" class="node"><title>Node5</title>
<g id="a_node5"><a xlink:href="../../d8/dd2/classview_1_1_command_string.html" target="_top" xlink:title="view.CommandString">
<polygon fill="white" stroke="black" points="277,-78.5 277,-97.5 395,-97.5 395,-78.5 277,-78.5"/>
<text text-anchor="middle" x="336" y="-85.5" font-family="Helvetica,sans-Serif" font-size="10.00">view.CommandString</text>
</a>
</g>
</g>
<!-- Node5&#45;&gt;Node1 -->
<g id="edge4" class="edge"><title>Node5&#45;&gt;Node1</title>
<path fill="none" stroke="#9a32cd" stroke-dasharray="5,2" d="M322.672,-70.321C314.974,-60.7763 305.051,-48.624 296,-38 290.794,-31.8893 284.794,-25.1393 280.095,-19.9169"/>
<polygon fill="#9a32cd" stroke="#9a32cd" points="320.037,-72.6295 329.028,-78.2348 325.495,-68.2463 320.037,-72.6295"/>
<text text-anchor="middle" x="362.5" y="-46.5" font-family="Helvetica,sans-Serif" font-size="10.00"> myCommandString</text>
</g>
<!-- Node6 -->
<g id="node6" class="node"><title>Node6</title>
<polygon fill="white" stroke="#bfbfbf" points="300.5,-136.5 300.5,-155.5 371.5,-155.5 371.5,-136.5 300.5,-136.5"/>
<text text-anchor="middle" x="336" y="-143.5" font-family="Helvetica,sans-Serif" font-size="10.00">Observable</text>
</g>
<!-- Node6&#45;&gt;Node5 -->
<g id="edge5" class="edge"><title>Node6&#45;&gt;Node5</title>
<path fill="none" stroke="midnightblue" d="M336,-125.953C336,-116.287 336,-105.031 336,-97.5052"/>
<polygon fill="midnightblue" stroke="midnightblue" points="332.5,-126.25 336,-136.25 339.5,-126.25 332.5,-126.25"/>
</g>
<!-- Node7 -->
<g id="node7" class="node"><title>Node7</title>
<polygon fill="white" stroke="#bfbfbf" points="413,-78.5 413,-97.5 469,-97.5 469,-78.5 413,-78.5"/>
<text text-anchor="middle" x="441" y="-85.5" font-family="Helvetica,sans-Serif" font-size="10.00">TextField</text>
</g>
<!-- Node7&#45;&gt;Node1 -->
<g id="edge6" class="edge"><title>Node7&#45;&gt;Node1</title>
<path fill="none" stroke="#9a32cd" stroke-dasharray="5,2" d="M435.677,-68.591C431.678,-58.0403 425.119,-45.4527 415,-38 401.319,-27.9244 362.541,-20.9831 328.813,-16.6638"/>
<polygon fill="#9a32cd" stroke="#9a32cd" points="432.392,-69.8051 438.859,-78.197 439.037,-67.6037 432.392,-69.8051"/>
<text text-anchor="middle" x="482.5" y="-52" font-family="Helvetica,sans-Serif" font-size="10.00"> myPenDashTextField</text>
<text text-anchor="middle" x="482.5" y="-41" font-family="Helvetica,sans-Serif" font-size="10.00">myPenWidthTextField</text>
</g>
<!-- Node8 -->
<g id="node8" class="node"><title>Node8</title>
<polygon fill="white" stroke="#bfbfbf" points="529,-78.5 529,-97.5 599,-97.5 599,-78.5 529,-78.5"/>
<text text-anchor="middle" x="564" y="-85.5" font-family="Helvetica,sans-Serif" font-size="10.00">ColorPicker</text>
</g>
<!-- Node8&#45;&gt;Node1 -->
<g id="edge7" class="edge"><title>Node8&#45;&gt;Node1</title>
<path fill="none" stroke="#9a32cd" stroke-dasharray="5,2" d="M558.659,-68.6263C554.538,-57.8794 547.694,-45.0729 537,-38 503.925,-16.1238 396.234,-11.4408 328.746,-10.7328"/>
<polygon fill="#9a32cd" stroke="#9a32cd" points="555.434,-70.0171 561.915,-78.3981 562.075,-67.8045 555.434,-70.0171"/>
<text text-anchor="middle" x="591" y="-46.5" font-family="Helvetica,sans-Serif" font-size="10.00"> myColorPicker</text>
</g>
</g>
</svg>
        <g id="navigator" transform="translate(0 0)" fill="#404254">
                <rect fill="#f2f5e9" fill-opacity="0.5" stroke="#606060" stroke-width=".5" x="0" y="0" width="60" height="60"/>
                <use id="zoomplus" xlink:href="#zoomPlus" x="17" y="9" onmousedown="handleZoom(evt,'in')"/>
                <use id="zoomminus" xlink:href="#zoomMin" x="42" y="9" onmousedown="handleZoom(evt,'out')"/>
                <use id="reset" xlink:href="#resetDef" x="30" y="36" onmousedown="handleReset()"/>
                <g id="arrowUp" xlink:href="#dirArrow" transform="translate(30 24)" onmousedown="handlePan(0,-1)">
                  <use xlink:href="#rim" fill="#404040">
                        <set attributeName="fill" to="#808080" begin="arrowUp.mouseover" end="arrowUp.mouseout"/>
                  </use>
                  <path fill="none" stroke="white" stroke-width="1.5" d="M0,-3.0v7 M-2.5,-0.5L0,-3.0L2.5,-0.5"/>
                </g>
                <g id="arrowRight" xlink:href="#dirArrow" transform="rotate(90) translate(36 -43)" onmousedown="handlePan(1,0)">
                  <use xlink:href="#rim" fill="#404040">
                        <set attributeName="fill" to="#808080" begin="arrowRight.mouseover" end="arrowRight.mouseout"/>
                  </use>
                  <path fill="none" stroke="white" stroke-width="1.5" d="M0,-3.0v7 M-2.5,-0.5L0,-3.0L2.5,-0.5"/>
                </g>
                <g id="arrowDown" xlink:href="#dirArrow" transform="rotate(180) translate(-30 -48)" onmousedown="handlePan(0,1)">
                  <use xlink:href="#rim" fill="#404040">
                        <set attributeName="fill" to="#808080" begin="arrowDown.mouseover" end="arrowDown.mouseout"/>
                  </use>
                  <path fill="none" stroke="white" stroke-width="1.5" d="M0,-3.0v7 M-2.5,-0.5L0,-3.0L2.5,-0.5"/>
                </g>
                <g id="arrowLeft" xlink:href="#dirArrow" transform="rotate(270) translate(-36 17)" onmousedown="handlePan(-1,0)">
                  <use xlink:href="#rim" fill="#404040">
                        <set attributeName="fill" to="#808080" begin="arrowLeft.mouseover" end="arrowLeft.mouseout"/>
                  </use>
                  <path fill="none" stroke="white" stroke-width="1.5" d="M0,-3.0v7 M-2.5,-0.5L0,-3.0L2.5,-0.5"/>
                </g>
        </g>
        <svg viewBox="0 0 15 15" width="100%" height="30px" preserveAspectRatio="xMaxYMin meet">
         <g id="arrow_out" transform="scale(0.3 0.3)">
          <a xlink:href="classview_1_1panes_1_1_pen_pane__coll__graph_org.svg" target="_base">
           <rect id="button" ry="5" rx="5" y="6" x="6" height="38" width="38"
                fill="#f2f5e9" fill-opacity="0.5" stroke="#606060" stroke-width="1.0"/>
           <path id="arrow"
             d="M 11.500037,31.436501 C 11.940474,20.09759 22.043105,11.32322 32.158766,21.979434 L 37.068811,17.246167 C 37.068811,17.246167 37.088388,32 37.088388,32 L 22.160133,31.978069 C 22.160133,31.978069 26.997745,27.140456 26.997745,27.140456 C 18.528582,18.264221 13.291696,25.230495 11.500037,31.436501 z"
             style="fill:#404040;"/>
          </a>
         </g>
        </svg>
</svg>
