<?xml version="1.0" encoding="UTF-8" standalone="no"?>
<!DOCTYPE svg PUBLIC "-//W3C//DTD SVG 1.1//EN"
 "http://www.w3.org/Graphics/SVG/1.1/DTD/svg11.dtd">
<!-- Generated by graphviz version 2.36.0 (20140111.2315)
 -->
<!-- Title: commands.AskWithCommand.executeCommand Pages: 1 -->
<svg width="1540pt" height="618pt"
 viewBox="0.00 0.00 1540.00 618.00" xmlns="http://www.w3.org/2000/svg" xmlns:xlink="http://www.w3.org/1999/xlink">
<g id="graph0" class="graph" transform="scale(1 1) rotate(0) translate(4 614)">
<title>commands.AskWithCommand.executeCommand</title>
<polygon fill="white" stroke="none" points="-4,4 -4,-614 1536,-614 1536,4 -4,4"/>
<!-- Node1 -->
<g id="node1" class="node"><title>Node1</title>
<polygon fill="#bfbfbf" stroke="black" points="0.5,-417 0.5,-447 203.5,-447 203.5,-417 0.5,-417"/>
<text text-anchor="start" x="8.5" y="-435" font-family="Helvetica,sans-Serif" font-size="10.00">commands.AskWithCommand.execute</text>
<text text-anchor="middle" x="102" y="-424" font-family="Helvetica,sans-Serif" font-size="10.00">Command</text>
</g>
<!-- Node2 -->
<g id="node2" class="node"><title>Node2</title>
<g id="a_node2"><a xlink:href="../../da/d64/classcommands_1_1_list_command.html#a7bfa4c3d38789c1a67c09ac5eb8629f6" target="_top" xlink:title="commands.ListCommand.add\lParameter">
<polygon fill="white" stroke="black" points="258.5,-579 258.5,-609 419.5,-609 419.5,-579 258.5,-579"/>
<text text-anchor="start" x="266.5" y="-597" font-family="Helvetica,sans-Serif" font-size="10.00">commands.ListCommand.add</text>
<text text-anchor="middle" x="339" y="-586" font-family="Helvetica,sans-Serif" font-size="10.00">Parameter</text>
</a>
</g>
</g>
<!-- Node1&#45;&gt;Node2 -->
<g id="edge1" class="edge"><title>Node1&#45;&gt;Node2</title>
<path fill="none" stroke="midnightblue" d="M114.496,-447.02C136.129,-474.273 185.632,-532.003 240,-564 247.465,-568.393 255.634,-572.2 263.971,-575.486"/>
<polygon fill="midnightblue" stroke="midnightblue" points="262.831,-578.796 273.425,-578.976 265.256,-572.229 262.831,-578.796"/>
</g>
<!-- Node3 -->
<g id="node3" class="node"><title>Node3</title>
<g id="a_node3"><a xlink:href="../../d1/d53/classcommands_1_1_tell_command.html#a516b9cdfe48014e8b0d8b9275a886b8f" target="_top" xlink:title="commands.TellCommand.execute\lCommand">
<polygon fill="white" stroke="black" points="711.5,-491 711.5,-521 890.5,-521 890.5,-491 711.5,-491"/>
<text text-anchor="start" x="719.5" y="-509" font-family="Helvetica,sans-Serif" font-size="10.00">commands.TellCommand.execute</text>
<text text-anchor="middle" x="801" y="-498" font-family="Helvetica,sans-Serif" font-size="10.00">Command</text>
</a>
</g>
</g>
<!-- Node1&#45;&gt;Node3 -->
<g id="edge2" class="edge"><title>Node1&#45;&gt;Node3</title>
<path fill="none" stroke="midnightblue" d="M140.709,-447.013C167.856,-457.1 205.605,-469.665 240,-476 399.474,-505.372 588.472,-509.224 701.079,-508.33"/>
<polygon fill="midnightblue" stroke="midnightblue" points="701.432,-511.827 711.399,-508.233 701.366,-504.827 701.432,-511.827"/>
</g>
<!-- Node4 -->
<g id="node4" class="node"><title>Node4</title>
<g id="a_node4"><a xlink:href="../../d3/d42/classmodel_1_1_model.html#a1a683ba5e58fcb3c8882c8e61df20dc0" target="_top" xlink:title="model.Model.getTurtleManager">
<polygon fill="white" stroke="black" points="954,-496.5 954,-515.5 1118,-515.5 1118,-496.5 954,-496.5"/>
<text text-anchor="middle" x="1036" y="-503.5" font-family="Helvetica,sans-Serif" font-size="10.00">model.Model.getTurtleManager</text>
</a>
</g>
</g>
<!-- Node1&#45;&gt;Node4 -->
<g id="edge48" class="edge"><title>Node1&#45;&gt;Node4</title>
<path fill="none" stroke="midnightblue" d="M125.083,-447.064C151.223,-464.011 196.69,-490.765 240,-503 525.085,-583.538 611.009,-557.208 906,-530 920.041,-528.705 950.669,-523.05 978.558,-517.555"/>
<polygon fill="midnightblue" stroke="midnightblue" points="979.546,-520.927 988.673,-515.546 978.183,-514.061 979.546,-520.927"/>
</g>
<!-- Node5 -->
<g id="node5" class="node"><title>Node5</title>
<g id="a_node5"><a xlink:href="../../df/d50/classmodel_1_1_turtle_set_manager.html#a9e215e93eccbed2ab9ebec6119cfe305" target="_top" xlink:title="model.TurtleSetManager.get\lAllTurtles">
<polygon fill="white" stroke="black" points="960,-447 960,-477 1112,-477 1112,-447 960,-447"/>
<text text-anchor="start" x="968" y="-465" font-family="Helvetica,sans-Serif" font-size="10.00">model.TurtleSetManager.get</text>
<text text-anchor="middle" x="1036" y="-454" font-family="Helvetica,sans-Serif" font-size="10.00">AllTurtles</text>
</a>
</g>
</g>
<!-- Node1&#45;&gt;Node5 -->
<g id="edge46" class="edge"><title>Node1&#45;&gt;Node5</title>
<path fill="none" stroke="midnightblue" d="M203.626,-435.239C388.11,-441.177 777.337,-453.706 949.732,-459.255"/>
<polygon fill="midnightblue" stroke="midnightblue" points="949.665,-462.755 959.773,-459.579 949.89,-455.759 949.665,-462.755"/>
</g>
<!-- Node7 -->
<g id="node7" class="node"><title>Node7</title>
<g id="a_node7"><a xlink:href="../../dd/dd6/classcommands_1_1_command.html#abafa69601e87c34d4453cf84349d6f9c" target="_top" xlink:title="commands.Command.execute\lCommand">
<polygon fill="white" stroke="black" points="256.5,-387 256.5,-417 421.5,-417 421.5,-387 256.5,-387"/>
<text text-anchor="start" x="264.5" y="-405" font-family="Helvetica,sans-Serif" font-size="10.00">commands.Command.execute</text>
<text text-anchor="middle" x="339" y="-394" font-family="Helvetica,sans-Serif" font-size="10.00">Command</text>
</a>
</g>
</g>
<!-- Node1&#45;&gt;Node7 -->
<g id="edge6" class="edge"><title>Node1&#45;&gt;Node7</title>
<path fill="none" stroke="midnightblue" d="M203.684,-419.147C217.818,-417.342 232.284,-415.496 246.241,-413.714"/>
<polygon fill="midnightblue" stroke="midnightblue" points="246.825,-417.168 256.301,-412.43 245.938,-410.224 246.825,-417.168"/>
</g>
<!-- Node38 -->
<g id="node38" class="node"><title>Node38</title>
<g id="a_node38"><a xlink:href="../../df/d50/classmodel_1_1_turtle_set_manager.html#a4ad0ac2e4d298151e399d379309fd520" target="_top" xlink:title="model.TurtleSetManager.get\lStackLength">
<polygon fill="white" stroke="black" points="491,-251 491,-281 643,-281 643,-251 491,-251"/>
<text text-anchor="start" x="499" y="-269" font-family="Helvetica,sans-Serif" font-size="10.00">model.TurtleSetManager.get</text>
<text text-anchor="middle" x="567" y="-258" font-family="Helvetica,sans-Serif" font-size="10.00">StackLength</text>
</a>
</g>
</g>
<!-- Node1&#45;&gt;Node38 -->
<g id="edge47" class="edge"><title>Node1&#45;&gt;Node38</title>
<path fill="none" stroke="midnightblue" d="M135.604,-416.894C162.983,-404.703 203.386,-387.851 240,-377 325.994,-351.514 361.811,-385.324 438,-338 460.352,-324.116 452.154,-305.666 474,-291 477.066,-288.942 480.297,-287.052 483.64,-285.317"/>
<polygon fill="midnightblue" stroke="midnightblue" points="485.136,-288.482 492.716,-281.079 482.174,-282.139 485.136,-288.482"/>
</g>
<!-- Node39 -->
<g id="node39" class="node"><title>Node39</title>
<g id="a_node39"><a xlink:href="../../df/d50/classmodel_1_1_turtle_set_manager.html#afda0d203a1b72aa246aadb8c2efaef8d" target="_top" xlink:title="model.TurtleSetManager.regulate\lTurtleDepth">
<polygon fill="white" stroke="black" points="251,-299 251,-329 427,-329 427,-299 251,-299"/>
<text text-anchor="start" x="259" y="-317" font-family="Helvetica,sans-Serif" font-size="10.00">model.TurtleSetManager.regulate</text>
<text text-anchor="middle" x="339" y="-306" font-family="Helvetica,sans-Serif" font-size="10.00">TurtleDepth</text>
</a>
</g>
</g>
<!-- Node1&#45;&gt;Node39 -->
<g id="edge49" class="edge"><title>Node1&#45;&gt;Node39</title>
<path fill="none" stroke="midnightblue" d="M122.873,-416.733C148.663,-397.523 195.629,-364.565 240,-344 249.42,-339.634 259.637,-335.7 269.799,-332.227"/>
<polygon fill="midnightblue" stroke="midnightblue" points="271.089,-335.487 279.497,-329.04 268.904,-328.837 271.089,-335.487"/>
</g>
<!-- Node40 -->
<g id="node40" class="node"><title>Node40</title>
<g id="a_node40"><a xlink:href="../../dd/dd6/classcommands_1_1_command.html#a97daed7994c540f9a74bfbb0d7312c3c" target="_top" xlink:title="commands.Command.setParameters">
<polygon fill="white" stroke="black" points="240.5,-260.5 240.5,-279.5 437.5,-279.5 437.5,-260.5 240.5,-260.5"/>
<text text-anchor="middle" x="339" y="-267.5" font-family="Helvetica,sans-Serif" font-size="10.00">commands.Command.setParameters</text>
</a>
</g>
</g>
<!-- Node1&#45;&gt;Node40 -->
<g id="edge51" class="edge"><title>Node1&#45;&gt;Node40</title>
<path fill="none" stroke="midnightblue" d="M112.602,-416.978C132.459,-387.265 181.137,-321.093 240,-289 244.246,-286.685 248.731,-284.649 253.353,-282.858"/>
<polygon fill="midnightblue" stroke="midnightblue" points="254.693,-286.098 262.997,-279.517 252.402,-279.483 254.693,-286.098"/>
</g>
<!-- Node3&#45;&gt;Node4 -->
<g id="edge3" class="edge"><title>Node3&#45;&gt;Node4</title>
<path fill="none" stroke="midnightblue" d="M890.752,-506C908.06,-506 926.236,-506 943.628,-506"/>
<polygon fill="midnightblue" stroke="midnightblue" points="943.765,-509.5 953.765,-506 943.765,-502.5 943.765,-509.5"/>
</g>
<!-- Node3&#45;&gt;Node5 -->
<g id="edge4" class="edge"><title>Node3&#45;&gt;Node5</title>
<path fill="none" stroke="midnightblue" d="M881.534,-490.981C903.484,-486.836 927.387,-482.322 949.652,-478.117"/>
<polygon fill="midnightblue" stroke="midnightblue" points="950.577,-481.505 959.754,-476.21 949.278,-474.626 950.577,-481.505"/>
</g>
<!-- Node6 -->
<g id="node6" class="node"><title>Node6</title>
<g id="a_node6"><a xlink:href="../../df/d50/classmodel_1_1_turtle_set_manager.html#a6bbf5e2e01b397d36664d44a90b3ae55" target="_top" xlink:title="model.TurtleSetManager.add\lTurtleCollection">
<polygon fill="white" stroke="black" points="959,-535 959,-565 1113,-565 1113,-535 959,-535"/>
<text text-anchor="start" x="967" y="-553" font-family="Helvetica,sans-Serif" font-size="10.00">model.TurtleSetManager.add</text>
<text text-anchor="middle" x="1036" y="-542" font-family="Helvetica,sans-Serif" font-size="10.00">TurtleCollection</text>
</a>
</g>
</g>
<!-- Node3&#45;&gt;Node6 -->
<g id="edge5" class="edge"><title>Node3&#45;&gt;Node6</title>
<path fill="none" stroke="midnightblue" d="M881.534,-521.019C903.255,-525.121 926.889,-529.584 948.956,-533.751"/>
<polygon fill="midnightblue" stroke="midnightblue" points="948.496,-537.226 958.972,-535.643 949.795,-530.348 948.496,-537.226"/>
</g>
<!-- Node7&#45;&gt;Node4 -->
<g id="edge7" class="edge"><title>Node7&#45;&gt;Node4</title>
<path fill="none" stroke="midnightblue" d="M421.751,-412.035C531.974,-425.879 734.242,-452.391 906,-481 929.905,-484.982 956.183,-489.964 978.749,-494.43"/>
<polygon fill="midnightblue" stroke="midnightblue" points="978.343,-497.918 988.834,-496.441 979.712,-491.053 978.343,-497.918"/>
</g>
<!-- Node8 -->
<g id="node8" class="node"><title>Node8</title>
<g id="a_node8"><a xlink:href="../../df/d50/classmodel_1_1_turtle_set_manager.html#a9a65c0be3b9c21abaf0ebaa54e5b8484" target="_top" xlink:title="model.TurtleSetManager.get\lActiveTurtles">
<polygon fill="white" stroke="black" points="960,-398 960,-428 1112,-428 1112,-398 960,-398"/>
<text text-anchor="start" x="968" y="-416" font-family="Helvetica,sans-Serif" font-size="10.00">model.TurtleSetManager.get</text>
<text text-anchor="middle" x="1036" y="-405" font-family="Helvetica,sans-Serif" font-size="10.00">ActiveTurtles</text>
</a>
</g>
</g>
<!-- Node7&#45;&gt;Node8 -->
<g id="edge8" class="edge"><title>Node7&#45;&gt;Node8</title>
<path fill="none" stroke="midnightblue" d="M421.549,-402.919C531.546,-404.213 733.56,-406.776 906,-410 920.195,-410.265 935.267,-410.583 949.913,-410.911"/>
<polygon fill="midnightblue" stroke="midnightblue" points="949.891,-414.412 959.968,-411.139 950.05,-407.413 949.891,-414.412"/>
</g>
<!-- Node9 -->
<g id="node9" class="node"><title>Node9</title>
<g id="a_node9"><a xlink:href="../../dd/dd6/classcommands_1_1_command.html#aec3e0f888945b1811fd739ecea212324" target="_top" xlink:title="commands.Command.updateTurtle">
<polygon fill="white" stroke="black" points="474,-338.5 474,-357.5 660,-357.5 660,-338.5 474,-338.5"/>
<text text-anchor="middle" x="567" y="-345.5" font-family="Helvetica,sans-Serif" font-size="10.00">commands.Command.updateTurtle</text>
</a>
</g>
</g>
<!-- Node7&#45;&gt;Node9 -->
<g id="edge9" class="edge"><title>Node7&#45;&gt;Node9</title>
<path fill="none" stroke="midnightblue" d="M402.954,-386.958C438.7,-378.417 482.819,-367.875 516.145,-359.912"/>
<polygon fill="midnightblue" stroke="midnightblue" points="517.207,-363.257 526.12,-357.529 515.58,-356.449 517.207,-363.257"/>
</g>
<!-- Node10 -->
<g id="node10" class="node"><title>Node10</title>
<g id="a_node10"><a xlink:href="../../d3/d42/classmodel_1_1_model.html#a76160d002c1e68b566307ac44356f6e5" target="_top" xlink:title="model.Model.notifyView">
<polygon fill="white" stroke="black" points="502.5,-300.5 502.5,-319.5 631.5,-319.5 631.5,-300.5 502.5,-300.5"/>
<text text-anchor="middle" x="567" y="-307.5" font-family="Helvetica,sans-Serif" font-size="10.00">model.Model.notifyView</text>
</a>
</g>
</g>
<!-- Node7&#45;&gt;Node10 -->
<g id="edge10" class="edge"><title>Node7&#45;&gt;Node10</title>
<path fill="none" stroke="midnightblue" d="M407.699,-386.928C418.316,-382.998 428.805,-378.096 438,-372 458.774,-358.228 452.606,-341.787 474,-329 479.738,-325.571 485.996,-322.753 492.461,-320.438"/>
<polygon fill="midnightblue" stroke="midnightblue" points="493.574,-323.756 502.046,-317.393 491.455,-317.085 493.574,-323.756"/>
</g>
<!-- Node11 -->
<g id="node11" class="node"><title>Node11</title>
<g id="a_node11"><a xlink:href="../../db/db5/classview_1_1panes_1_1_view_pane_module.html#aa2a1bf15bc036ee4237bf63749d85baf" target="_top" xlink:title="view.panes.ViewPaneModule.updateView">
<polygon fill="white" stroke="black" points="696.5,-280.5 696.5,-299.5 905.5,-299.5 905.5,-280.5 696.5,-280.5"/>
<text text-anchor="middle" x="801" y="-287.5" font-family="Helvetica,sans-Serif" font-size="10.00">view.panes.ViewPaneModule.updateView</text>
</a>
</g>
</g>
<!-- Node10&#45;&gt;Node11 -->
<g id="edge11" class="edge"><title>Node10&#45;&gt;Node11</title>
<path fill="none" stroke="midnightblue" d="M631.702,-304.508C648.644,-303.048 667.469,-301.425 686.217,-299.809"/>
<polygon fill="midnightblue" stroke="midnightblue" points="686.644,-303.285 696.306,-298.939 686.042,-296.311 686.644,-303.285"/>
</g>
<!-- Node11&#45;&gt;Node4 -->
<g id="edge15" class="edge"><title>Node11&#45;&gt;Node4</title>
<path fill="none" stroke="midnightblue" d="M811.896,-299.525C831.655,-318.92 876.618,-364.981 906,-410 926.427,-441.299 912.707,-462.787 942,-486 944.803,-488.221 947.797,-490.21 950.931,-491.989"/>
<polygon fill="midnightblue" stroke="midnightblue" points="949.564,-495.217 960.085,-496.47 952.641,-488.93 949.564,-495.217"/>
</g>
<!-- Node11&#45;&gt;Node5 -->
<g id="edge17" class="edge"><title>Node11&#45;&gt;Node5</title>
<path fill="none" stroke="midnightblue" d="M810.139,-299.843C834.95,-329.628 909.885,-417.915 942,-437 945.638,-439.162 949.466,-441.141 953.41,-442.952"/>
<polygon fill="midnightblue" stroke="midnightblue" points="952.216,-446.246 962.792,-446.879 954.919,-439.789 952.216,-446.246"/>
</g>
<!-- Node11&#45;&gt;Node8 -->
<g id="edge16" class="edge"><title>Node11&#45;&gt;Node8</title>
<path fill="none" stroke="midnightblue" d="M812.783,-299.574C835.234,-319.026 889.306,-363.407 942,-388 947.241,-390.446 952.764,-392.688 958.397,-394.735"/>
<polygon fill="midnightblue" stroke="midnightblue" points="957.355,-398.078 967.949,-398 959.619,-391.454 957.355,-398.078"/>
</g>
<!-- Node12 -->
<g id="node12" class="node"><title>Node12</title>
<g id="a_node12"><a xlink:href="../../d3/d42/classmodel_1_1_model.html#a54936407d7df5ab8ef3c0ae54bcdc0ed" target="_top" xlink:title="model.Model.getBackground\lColor">
<polygon fill="white" stroke="black" points="959,-212 959,-242 1113,-242 1113,-212 959,-212"/>
<text text-anchor="start" x="967" y="-230" font-family="Helvetica,sans-Serif" font-size="10.00">model.Model.getBackground</text>
<text text-anchor="middle" x="1036" y="-219" font-family="Helvetica,sans-Serif" font-size="10.00">Color</text>
</a>
</g>
</g>
<!-- Node11&#45;&gt;Node12 -->
<g id="edge12" class="edge"><title>Node11&#45;&gt;Node12</title>
<path fill="none" stroke="midnightblue" d="M837.09,-280.45C865.403,-272.751 906.259,-261.654 942,-252 950.771,-249.631 960.01,-247.141 969.121,-244.688"/>
<polygon fill="midnightblue" stroke="midnightblue" points="970.183,-248.027 978.931,-242.049 968.365,-241.267 970.183,-248.027"/>
</g>
<!-- Node13 -->
<g id="node13" class="node"><title>Node13</title>
<g id="a_node13"><a xlink:href="../../db/db5/classview_1_1panes_1_1_view_pane_module.html#ac94ee444587349ddad19b8caee500c9c" target="_top" xlink:title="view.panes.ViewPaneModule.update\lBGColor">
<polygon fill="white" stroke="black" points="942,-163 942,-193 1130,-193 1130,-163 942,-163"/>
<text text-anchor="start" x="950" y="-181" font-family="Helvetica,sans-Serif" font-size="10.00">view.panes.ViewPaneModule.update</text>
<text text-anchor="middle" x="1036" y="-170" font-family="Helvetica,sans-Serif" font-size="10.00">BGColor</text>
</a>
</g>
</g>
<!-- Node11&#45;&gt;Node13 -->
<g id="edge13" class="edge"><title>Node11&#45;&gt;Node13</title>
<path fill="none" stroke="midnightblue" d="M814.384,-280.34C837.94,-262.406 891.379,-223.812 942,-202 946.759,-199.949 951.733,-198.043 956.8,-196.276"/>
<polygon fill="midnightblue" stroke="midnightblue" points="958.218,-199.494 966.627,-193.048 956.034,-192.843 958.218,-199.494"/>
</g>
<!-- Node14 -->
<g id="node14" class="node"><title>Node14</title>
<g id="a_node14"><a xlink:href="../../db/db5/classview_1_1panes_1_1_view_pane_module.html#abe91f8bb732e99d762bdaba51ceae04b" target="_top" xlink:title="view.panes.ViewPaneModule.toRGB">
<polygon fill="white" stroke="black" points="944,-124.5 944,-143.5 1128,-143.5 1128,-124.5 944,-124.5"/>
<text text-anchor="middle" x="1036" y="-131.5" font-family="Helvetica,sans-Serif" font-size="10.00">view.panes.ViewPaneModule.toRGB</text>
</a>
</g>
</g>
<!-- Node11&#45;&gt;Node14 -->
<g id="edge14" class="edge"><title>Node11&#45;&gt;Node14</title>
<path fill="none" stroke="midnightblue" d="M808.59,-280.492C826.663,-255.21 879.824,-186.008 942,-153 946.321,-150.706 950.891,-148.689 955.593,-146.914"/>
<polygon fill="midnightblue" stroke="midnightblue" points="957.041,-150.12 965.395,-143.603 954.8,-143.488 957.041,-150.12"/>
</g>
<!-- Node15 -->
<g id="node15" class="node"><title>Node15</title>
<g id="a_node15"><a xlink:href="../../d3/d42/classmodel_1_1_model.html#af73e838aed2c068e8f7d31bfa1cc88d7" target="_top" xlink:title="model.Model.getStamp">
<polygon fill="white" stroke="black" points="971.5,-86.5 971.5,-105.5 1100.5,-105.5 1100.5,-86.5 971.5,-86.5"/>
<text text-anchor="middle" x="1036" y="-93.5" font-family="Helvetica,sans-Serif" font-size="10.00">model.Model.getStamp</text>
</a>
</g>
</g>
<!-- Node11&#45;&gt;Node15 -->
<g id="edge18" class="edge"><title>Node11&#45;&gt;Node15</title>
<path fill="none" stroke="midnightblue" d="M806.749,-280.081C821.799,-249.805 871.628,-158.029 942,-115 947.951,-111.361 954.477,-108.406 961.224,-106.009"/>
<polygon fill="midnightblue" stroke="midnightblue" points="962.729,-109.205 971.228,-102.88 960.639,-102.525 962.729,-109.205"/>
</g>
<!-- Node16 -->
<g id="node16" class="node"><title>Node16</title>
<g id="a_node16"><a xlink:href="../../db/db5/classview_1_1panes_1_1_view_pane_module.html#a44db6ae832af3ce470baa9406142b8cb" target="_top" xlink:title="view.panes.ViewPaneModule.make\lStamps">
<polygon fill="white" stroke="black" points="945.5,-37 945.5,-67 1126.5,-67 1126.5,-37 945.5,-37"/>
<text text-anchor="start" x="953.5" y="-55" font-family="Helvetica,sans-Serif" font-size="10.00">view.panes.ViewPaneModule.make</text>
<text text-anchor="middle" x="1036" y="-44" font-family="Helvetica,sans-Serif" font-size="10.00">Stamps</text>
</a>
</g>
</g>
<!-- Node11&#45;&gt;Node16 -->
<g id="edge19" class="edge"><title>Node11&#45;&gt;Node16</title>
<path fill="none" stroke="midnightblue" d="M805.512,-280.126C818.125,-246.138 864.539,-133.001 942,-77 944.56,-75.1496 947.248,-73.4362 950.032,-71.8495"/>
<polygon fill="midnightblue" stroke="midnightblue" points="951.869,-74.8425 959.208,-67.2015 948.705,-68.5979 951.869,-74.8425"/>
</g>
<!-- Node23 -->
<g id="node23" class="node"><title>Node23</title>
<g id="a_node23"><a xlink:href="../../d3/d42/classmodel_1_1_model.html#a0a457f31350a460e11dc864463e0d8ff" target="_top" xlink:title="model.Model.setStamp">
<polygon fill="white" stroke="black" points="972,-261.5 972,-280.5 1100,-280.5 1100,-261.5 972,-261.5"/>
<text text-anchor="middle" x="1036" y="-268.5" font-family="Helvetica,sans-Serif" font-size="10.00">model.Model.setStamp</text>
</a>
</g>
</g>
<!-- Node11&#45;&gt;Node23 -->
<g id="edge26" class="edge"><title>Node11&#45;&gt;Node23</title>
<path fill="none" stroke="midnightblue" d="M905.554,-281.556C924.452,-280.015 943.809,-278.436 961.605,-276.985"/>
<polygon fill="midnightblue" stroke="midnightblue" points="962.204,-280.448 971.887,-276.147 961.635,-273.471 962.204,-280.448"/>
</g>
<!-- Node24 -->
<g id="node24" class="node"><title>Node24</title>
<g id="a_node24"><a xlink:href="../../db/db5/classview_1_1panes_1_1_view_pane_module.html#a7ad9ad27137ffdf0ea96753a22da236b" target="_top" xlink:title="view.panes.ViewPaneModule.erase\lStamps">
<polygon fill="white" stroke="black" points="945.5,-349 945.5,-379 1126.5,-379 1126.5,-349 945.5,-349"/>
<text text-anchor="start" x="953.5" y="-367" font-family="Helvetica,sans-Serif" font-size="10.00">view.panes.ViewPaneModule.erase</text>
<text text-anchor="middle" x="1036" y="-356" font-family="Helvetica,sans-Serif" font-size="10.00">Stamps</text>
</a>
</g>
</g>
<!-- Node11&#45;&gt;Node24 -->
<g id="edge27" class="edge"><title>Node11&#45;&gt;Node24</title>
<path fill="none" stroke="midnightblue" d="M827.359,-299.512C855.261,-309.829 901.527,-326.496 942,-339 949.922,-341.447 958.265,-343.885 966.568,-346.224"/>
<polygon fill="midnightblue" stroke="midnightblue" points="965.698,-349.615 976.27,-348.92 967.572,-342.871 965.698,-349.615"/>
</g>
<!-- Node26 -->
<g id="node26" class="node"><title>Node26</title>
<g id="a_node26"><a xlink:href="../../db/db5/classview_1_1panes_1_1_view_pane_module.html#ab55ce3511929b88a2cd1235eb694868f" target="_top" xlink:title="view.panes.ViewPaneModule.update\lTurtle">
<polygon fill="white" stroke="black" points="942,-300 942,-330 1130,-330 1130,-300 942,-300"/>
<text text-anchor="start" x="950" y="-318" font-family="Helvetica,sans-Serif" font-size="10.00">view.panes.ViewPaneModule.update</text>
<text text-anchor="middle" x="1036" y="-307" font-family="Helvetica,sans-Serif" font-size="10.00">Turtle</text>
</a>
</g>
</g>
<!-- Node11&#45;&gt;Node26 -->
<g id="edge29" class="edge"><title>Node11&#45;&gt;Node26</title>
<path fill="none" stroke="midnightblue" d="M890.752,-299.523C904.075,-300.952 917.911,-302.437 931.509,-303.896"/>
<polygon fill="midnightblue" stroke="midnightblue" points="931.531,-307.418 941.848,-305.005 932.278,-300.458 931.531,-307.418"/>
</g>
<!-- Node17 -->
<g id="node17" class="node"><title>Node17</title>
<g id="a_node17"><a xlink:href="../../d7/da6/classview_1_1_turtle_draw.html#a939f4fdbdb66457c9dcee82eb4ae6d9c" target="_top" xlink:title="view.TurtleDraw.drawTurtle">
<polygon fill="white" stroke="black" points="1174.5,-22.5 1174.5,-41.5 1313.5,-41.5 1313.5,-22.5 1174.5,-22.5"/>
<text text-anchor="middle" x="1244" y="-29.5" font-family="Helvetica,sans-Serif" font-size="10.00">view.TurtleDraw.drawTurtle</text>
</a>
</g>
</g>
<!-- Node16&#45;&gt;Node17 -->
<g id="edge20" class="edge"><title>Node16&#45;&gt;Node17</title>
<path fill="none" stroke="midnightblue" d="M1126.76,-43.2859C1139.21,-42.077 1151.92,-40.8426 1164.15,-39.6549"/>
<polygon fill="midnightblue" stroke="midnightblue" points="1164.68,-43.12 1174.3,-38.6699 1164.01,-36.1527 1164.68,-43.12"/>
</g>
<!-- Node20 -->
<g id="node20" class="node"><title>Node20</title>
<g id="a_node20"><a xlink:href="../../d7/da6/classview_1_1_turtle_draw.html#a14678068d3fc9d3b6e1067bc372f6030" target="_top" xlink:title="view.TurtleDraw.showTurtle">
<polygon fill="white" stroke="black" points="1174,-136.5 1174,-155.5 1314,-155.5 1314,-136.5 1174,-136.5"/>
<text text-anchor="middle" x="1244" y="-143.5" font-family="Helvetica,sans-Serif" font-size="10.00">view.TurtleDraw.showTurtle</text>
</a>
</g>
</g>
<!-- Node16&#45;&gt;Node20 -->
<g id="edge23" class="edge"><title>Node16&#45;&gt;Node20</title>
<path fill="none" stroke="midnightblue" d="M1111.67,-67.0355C1118.14,-69.813 1124.36,-73.103 1130,-77 1152.53,-92.5674 1143.31,-111.666 1166,-127 1168.94,-128.988 1172.07,-130.768 1175.32,-132.362"/>
<polygon fill="midnightblue" stroke="midnightblue" points="1174.17,-135.677 1184.74,-136.38 1176.92,-129.238 1174.17,-135.677"/>
</g>
<!-- Node21 -->
<g id="node21" class="node"><title>Node21</title>
<g id="a_node21"><a xlink:href="../../d7/da6/classview_1_1_turtle_draw.html#a8c2cab38eb294b26aea1ae17595ba2a6" target="_top" xlink:title="view.TurtleDraw.moveTurtle">
<polygon fill="white" stroke="black" points="1172.5,-98.5 1172.5,-117.5 1315.5,-117.5 1315.5,-98.5 1172.5,-98.5"/>
<text text-anchor="middle" x="1244" y="-105.5" font-family="Helvetica,sans-Serif" font-size="10.00">view.TurtleDraw.moveTurtle</text>
</a>
</g>
</g>
<!-- Node16&#45;&gt;Node21 -->
<g id="edge24" class="edge"><title>Node16&#45;&gt;Node21</title>
<path fill="none" stroke="midnightblue" d="M1095.19,-67.076C1106.76,-70.2323 1118.79,-73.629 1130,-77 1146.15,-81.8579 1149.8,-84.3094 1166,-89 1174.27,-91.3946 1183.09,-93.753 1191.71,-95.95"/>
<polygon fill="midnightblue" stroke="midnightblue" points="1191.13,-99.4125 1201.68,-98.4475 1192.83,-92.6223 1191.13,-99.4125"/>
</g>
<!-- Node22 -->
<g id="node22" class="node"><title>Node22</title>
<g id="a_node22"><a xlink:href="../../d7/da6/classview_1_1_turtle_draw.html#a5004a16526a67f090d7da45474b5136e" target="_top" xlink:title="view.TurtleDraw.setAngle">
<polygon fill="white" stroke="black" points="1177.5,-60.5 1177.5,-79.5 1310.5,-79.5 1310.5,-60.5 1177.5,-60.5"/>
<text text-anchor="middle" x="1244" y="-67.5" font-family="Helvetica,sans-Serif" font-size="10.00">view.TurtleDraw.setAngle</text>
</a>
</g>
</g>
<!-- Node16&#45;&gt;Node22 -->
<g id="edge25" class="edge"><title>Node16&#45;&gt;Node22</title>
<path fill="none" stroke="midnightblue" d="M1126.76,-59.8427C1140.32,-61.028 1154.2,-62.2405 1167.42,-63.3961"/>
<polygon fill="midnightblue" stroke="midnightblue" points="1167.13,-66.8835 1177.39,-64.2674 1167.74,-59.9101 1167.13,-66.8835"/>
</g>
<!-- Node18 -->
<g id="node18" class="node"><title>Node18</title>
<g id="a_node18"><a xlink:href="../../d6/d34/classmodel_1_1_turtle.html#a942dbeb1d7e2bc19b6870538c2c3a7d2" target="_top" xlink:title="model.Turtle.getShape">
<polygon fill="white" stroke="black" points="1382.5,-0.5 1382.5,-19.5 1507.5,-19.5 1507.5,-0.5 1382.5,-0.5"/>
<text text-anchor="middle" x="1445" y="-7.5" font-family="Helvetica,sans-Serif" font-size="10.00">model.Turtle.getShape</text>
</a>
</g>
</g>
<!-- Node17&#45;&gt;Node18 -->
<g id="edge21" class="edge"><title>Node17&#45;&gt;Node18</title>
<path fill="none" stroke="midnightblue" d="M1313.76,-24.398C1332.62,-22.3135 1353.11,-20.0485 1372.13,-17.9453"/>
<polygon fill="midnightblue" stroke="midnightblue" points="1372.67,-21.4067 1382.23,-16.8289 1371.91,-14.4491 1372.67,-21.4067"/>
</g>
<!-- Node19 -->
<g id="node19" class="node"><title>Node19</title>
<g id="a_node19"><a xlink:href="../../d3/db7/classview_1_1controllers_1_1_image_palette.html#a8a6620714bc12d5a00b97e99299a7040" target="_top" xlink:title="view.controllers.ImagePalette.get\lImage">
<polygon fill="white" stroke="black" points="1358,-39 1358,-69 1532,-69 1532,-39 1358,-39"/>
<text text-anchor="start" x="1366" y="-57" font-family="Helvetica,sans-Serif" font-size="10.00">view.controllers.ImagePalette.get</text>
<text text-anchor="middle" x="1445" y="-46" font-family="Helvetica,sans-Serif" font-size="10.00">Image</text>
</a>
</g>
</g>
<!-- Node17&#45;&gt;Node19 -->
<g id="edge22" class="edge"><title>Node17&#45;&gt;Node19</title>
<path fill="none" stroke="midnightblue" d="M1313.76,-39.602C1324.71,-40.8123 1336.21,-42.0835 1347.65,-43.3486"/>
<polygon fill="midnightblue" stroke="midnightblue" points="1347.36,-46.837 1357.68,-44.4571 1348.13,-39.8794 1347.36,-46.837"/>
</g>
<!-- Node25 -->
<g id="node25" class="node"><title>Node25</title>
<g id="a_node25"><a xlink:href="../../d7/da6/classview_1_1_turtle_draw.html#acb97dedda080cb5ed17031d2b31adc2c" target="_top" xlink:title="view.TurtleDraw.hideTurtle">
<polygon fill="white" stroke="black" points="1175.5,-478.5 1175.5,-497.5 1312.5,-497.5 1312.5,-478.5 1175.5,-478.5"/>
<text text-anchor="middle" x="1244" y="-485.5" font-family="Helvetica,sans-Serif" font-size="10.00">view.TurtleDraw.hideTurtle</text>
</a>
</g>
</g>
<!-- Node24&#45;&gt;Node25 -->
<g id="edge28" class="edge"><title>Node24&#45;&gt;Node25</title>
<path fill="none" stroke="midnightblue" d="M1116.65,-379.049C1121.42,-381.591 1125.93,-384.552 1130,-388 1160.07,-413.456 1135.8,-443.704 1166,-469 1168.03,-470.702 1170.19,-472.255 1172.45,-473.673"/>
<polygon fill="midnightblue" stroke="midnightblue" points="1171.12,-476.926 1181.6,-478.494 1174.38,-470.734 1171.12,-476.926"/>
</g>
<!-- Node26&#45;&gt;Node17 -->
<g id="edge31" class="edge"><title>Node26&#45;&gt;Node17</title>
<path fill="none" stroke="midnightblue" d="M1118.24,-299.971C1122.57,-297.163 1126.55,-293.866 1130,-290 1201.54,-209.87 1093.63,-130.385 1166,-51 1167.07,-49.8235 1168.21,-48.7144 1169.39,-47.6692"/>
<polygon fill="midnightblue" stroke="midnightblue" points="1171.75,-50.2881 1177.9,-41.6582 1167.71,-44.5716 1171.75,-50.2881"/>
</g>
<!-- Node26&#45;&gt;Node20 -->
<g id="edge32" class="edge"><title>Node26&#45;&gt;Node20</title>
<path fill="none" stroke="midnightblue" d="M1116.8,-299.941C1121.6,-297.151 1126.06,-293.866 1130,-290 1171.24,-249.485 1124.34,-205.086 1166,-165 1167.49,-163.568 1169.07,-162.238 1170.72,-161.005"/>
<polygon fill="midnightblue" stroke="midnightblue" points="1172.84,-163.812 1179.53,-155.597 1169.17,-157.846 1172.84,-163.812"/>
</g>
<!-- Node26&#45;&gt;Node21 -->
<g id="edge45" class="edge"><title>Node26&#45;&gt;Node21</title>
<path fill="none" stroke="midnightblue" d="M1117.51,-299.958C1122.08,-297.159 1126.3,-293.868 1130,-290 1181.26,-236.366 1114.19,-180.1 1166,-127 1167.41,-125.559 1168.9,-124.22 1170.48,-122.977"/>
<polygon fill="midnightblue" stroke="midnightblue" points="1172.41,-125.897 1178.9,-117.527 1168.6,-120.02 1172.41,-125.897"/>
</g>
<!-- Node26&#45;&gt;Node22 -->
<g id="edge43" class="edge"><title>Node26&#45;&gt;Node22</title>
<path fill="none" stroke="midnightblue" d="M1118.12,-299.859C1122.47,-297.078 1126.49,-293.818 1130,-290 1191.38,-223.146 1103.94,-155.215 1166,-89 1167.23,-87.6877 1168.53,-86.4599 1169.9,-85.3114"/>
<polygon fill="midnightblue" stroke="midnightblue" points="1172.06,-88.0762 1178.37,-79.5636 1168.13,-82.2848 1172.06,-88.0762"/>
</g>
<!-- Node26&#45;&gt;Node25 -->
<g id="edge33" class="edge"><title>Node26&#45;&gt;Node25</title>
<path fill="none" stroke="midnightblue" d="M1118.55,-330.152C1122.69,-332.682 1126.55,-335.611 1130,-339 1172.76,-381.018 1123.01,-427.21 1166,-469 1167.48,-470.44 1169.05,-471.776 1170.7,-473.016"/>
<polygon fill="midnightblue" stroke="midnightblue" points="1169.14,-476.166 1179.49,-478.446 1172.82,-470.212 1169.14,-476.166"/>
</g>
<!-- Node27 -->
<g id="node27" class="node"><title>Node27</title>
<g id="a_node27"><a xlink:href="../../d6/d34/classmodel_1_1_turtle.html#ae79a1eae7eed55d121c3b85299ae14ba" target="_top" xlink:title="model.Turtle.getID">
<polygon fill="white" stroke="black" points="1192,-326.5 1192,-345.5 1296,-345.5 1296,-326.5 1192,-326.5"/>
<text text-anchor="middle" x="1244" y="-333.5" font-family="Helvetica,sans-Serif" font-size="10.00">model.Turtle.getID</text>
</a>
</g>
</g>
<!-- Node26&#45;&gt;Node27 -->
<g id="edge30" class="edge"><title>Node26&#45;&gt;Node27</title>
<path fill="none" stroke="midnightblue" d="M1130.06,-324.486C1147.46,-326.261 1165.25,-328.074 1181.41,-329.721"/>
<polygon fill="midnightblue" stroke="midnightblue" points="1181.46,-333.245 1191.77,-330.777 1182.17,-326.281 1181.46,-333.245"/>
</g>
<!-- Node28 -->
<g id="node28" class="node"><title>Node28</title>
<g id="a_node28"><a xlink:href="../../d6/d34/classmodel_1_1_turtle.html#a279f2bdb3fa955acdd52b7824ec3cd04" target="_top" xlink:title="model.Turtle.getPenStatus">
<polygon fill="white" stroke="black" points="1172.5,-288.5 1172.5,-307.5 1315.5,-307.5 1315.5,-288.5 1172.5,-288.5"/>
<text text-anchor="middle" x="1244" y="-295.5" font-family="Helvetica,sans-Serif" font-size="10.00">model.Turtle.getPenStatus</text>
</a>
</g>
</g>
<!-- Node26&#45;&gt;Node28 -->
<g id="edge34" class="edge"><title>Node26&#45;&gt;Node28</title>
<path fill="none" stroke="midnightblue" d="M1130.06,-307.321C1140.8,-306.434 1151.69,-305.535 1162.26,-304.663"/>
<polygon fill="midnightblue" stroke="midnightblue" points="1162.59,-308.148 1172.27,-303.837 1162.02,-301.171 1162.59,-308.148"/>
</g>
<!-- Node30 -->
<g id="node30" class="node"><title>Node30</title>
<g id="a_node30"><a xlink:href="../../d7/da6/classview_1_1_turtle_draw.html#a1325ca376115619f15f5014eb4c5ad2a" target="_top" xlink:title="view.TurtleDraw.drawLine">
<polygon fill="white" stroke="black" points="1177.5,-250.5 1177.5,-269.5 1310.5,-269.5 1310.5,-250.5 1177.5,-250.5"/>
<text text-anchor="middle" x="1244" y="-257.5" font-family="Helvetica,sans-Serif" font-size="10.00">view.TurtleDraw.drawLine</text>
</a>
</g>
</g>
<!-- Node26&#45;&gt;Node30 -->
<g id="edge36" class="edge"><title>Node26&#45;&gt;Node30</title>
<path fill="none" stroke="midnightblue" d="M1094.14,-299.968C1106.01,-296.753 1118.43,-293.322 1130,-290 1146.08,-285.383 1149.87,-283.45 1166,-279 1174.58,-276.632 1183.74,-274.248 1192.64,-272.007"/>
<polygon fill="midnightblue" stroke="midnightblue" points="1193.67,-275.357 1202.53,-269.546 1191.98,-268.564 1193.67,-275.357"/>
</g>
<!-- Node31 -->
<g id="node31" class="node"><title>Node31</title>
<g id="a_node31"><a xlink:href="../../d6/d34/classmodel_1_1_turtle.html#a832234461564763f8330181b3c1163ff" target="_top" xlink:title="model.Turtle.getPrevLocation">
<polygon fill="white" stroke="black" points="1166.5,-212.5 1166.5,-231.5 1321.5,-231.5 1321.5,-212.5 1166.5,-212.5"/>
<text text-anchor="middle" x="1244" y="-219.5" font-family="Helvetica,sans-Serif" font-size="10.00">model.Turtle.getPrevLocation</text>
</a>
</g>
</g>
<!-- Node26&#45;&gt;Node31 -->
<g id="edge37" class="edge"><title>Node26&#45;&gt;Node31</title>
<path fill="none" stroke="midnightblue" d="M1111.64,-299.907C1118.11,-297.141 1124.34,-293.87 1130,-290 1152.31,-274.744 1143.54,-256.025 1166,-241 1169.1,-238.926 1172.41,-237.078 1175.84,-235.432"/>
<polygon fill="midnightblue" stroke="midnightblue" points="1177.3,-238.615 1185.18,-231.528 1174.6,-232.156 1177.3,-238.615"/>
</g>
<!-- Node32 -->
<g id="node32" class="node"><title>Node32</title>
<g id="a_node32"><a xlink:href="../../d6/d34/classmodel_1_1_turtle.html#a2470b9b4ef48a261324047de8ebdc242" target="_top" xlink:title="model.Turtle.getNewLocation">
<polygon fill="white" stroke="black" points="1166.5,-174.5 1166.5,-193.5 1321.5,-193.5 1321.5,-174.5 1166.5,-174.5"/>
<text text-anchor="middle" x="1244" y="-181.5" font-family="Helvetica,sans-Serif" font-size="10.00">model.Turtle.getNewLocation</text>
</a>
</g>
</g>
<!-- Node26&#45;&gt;Node32 -->
<g id="edge38" class="edge"><title>Node26&#45;&gt;Node32</title>
<path fill="none" stroke="midnightblue" d="M1115.43,-299.906C1120.67,-297.133 1125.6,-293.861 1130,-290 1161.45,-262.39 1134.27,-230.283 1166,-203 1167.96,-201.311 1170.06,-199.768 1172.24,-198.358"/>
<polygon fill="midnightblue" stroke="midnightblue" points="1173.99,-201.396 1181.11,-193.555 1170.65,-195.241 1173.99,-201.396"/>
</g>
<!-- Node33 -->
<g id="node33" class="node"><title>Node33</title>
<g id="a_node33"><a xlink:href="../../d6/d34/classmodel_1_1_turtle.html#a19c059b1cbfbd4e8f046ec2403de3fb9" target="_top" xlink:title="model.Turtle.getPenDash">
<polygon fill="white" stroke="black" points="1175.5,-440.5 1175.5,-459.5 1312.5,-459.5 1312.5,-440.5 1175.5,-440.5"/>
<text text-anchor="middle" x="1244" y="-447.5" font-family="Helvetica,sans-Serif" font-size="10.00">model.Turtle.getPenDash</text>
</a>
</g>
</g>
<!-- Node26&#45;&gt;Node33 -->
<g id="edge39" class="edge"><title>Node26&#45;&gt;Node33</title>
<path fill="none" stroke="midnightblue" d="M1117.27,-330.084C1121.84,-332.621 1126.13,-335.571 1130,-339 1162.86,-368.123 1132.99,-402.052 1166,-431 1167.77,-432.549 1169.64,-433.976 1171.6,-435.29"/>
<polygon fill="midnightblue" stroke="midnightblue" points="1170.22,-438.529 1180.65,-440.359 1173.64,-432.42 1170.22,-438.529"/>
</g>
<!-- Node35 -->
<g id="node35" class="node"><title>Node35</title>
<g id="a_node35"><a xlink:href="../../d6/d34/classmodel_1_1_turtle.html#a193c156784f783064ae533b619b6be6e" target="_top" xlink:title="model.Turtle.getPenColor">
<polygon fill="white" stroke="black" points="1175.5,-402.5 1175.5,-421.5 1312.5,-421.5 1312.5,-402.5 1175.5,-402.5"/>
<text text-anchor="middle" x="1244" y="-409.5" font-family="Helvetica,sans-Serif" font-size="10.00">model.Turtle.getPenColor</text>
</a>
</g>
</g>
<!-- Node26&#45;&gt;Node35 -->
<g id="edge41" class="edge"><title>Node26&#45;&gt;Node35</title>
<path fill="none" stroke="midnightblue" d="M1114.16,-330.007C1119.75,-332.55 1125.11,-335.523 1130,-339 1153.51,-355.705 1142.4,-376.42 1166,-393 1168.85,-395 1171.88,-396.79 1175.04,-398.392"/>
<polygon fill="midnightblue" stroke="midnightblue" points="1173.65,-401.604 1184.21,-402.428 1176.47,-395.197 1173.65,-401.604"/>
</g>
<!-- Node37 -->
<g id="node37" class="node"><title>Node37</title>
<g id="a_node37"><a xlink:href="../../d6/d34/classmodel_1_1_turtle.html#a1c5d07962ede5fbfacc59413274d4300" target="_top" xlink:title="model.Turtle.getHeading">
<polygon fill="white" stroke="black" points="1177,-364.5 1177,-383.5 1311,-383.5 1311,-364.5 1177,-364.5"/>
<text text-anchor="middle" x="1244" y="-371.5" font-family="Helvetica,sans-Serif" font-size="10.00">model.Turtle.getHeading</text>
</a>
</g>
</g>
<!-- Node26&#45;&gt;Node37 -->
<g id="edge44" class="edge"><title>Node26&#45;&gt;Node37</title>
<path fill="none" stroke="midnightblue" d="M1100.95,-330.011C1110.76,-332.742 1120.71,-335.762 1130,-339 1146.53,-344.763 1149.44,-349.325 1166,-355 1173.33,-357.51 1181.15,-359.835 1188.9,-361.934"/>
<polygon fill="midnightblue" stroke="midnightblue" points="1188.08,-365.335 1198.63,-364.469 1189.84,-358.561 1188.08,-365.335"/>
</g>
<!-- Node29 -->
<g id="node29" class="node"><title>Node29</title>
<g id="a_node29"><a xlink:href="../../de/ded/classmodel_1_1_pen.html#afad4fb3e51847cacab72c036ddaa108f" target="_top" xlink:title="model.Pen.getStatus">
<polygon fill="white" stroke="black" points="1386,-288.5 1386,-307.5 1504,-307.5 1504,-288.5 1386,-288.5"/>
<text text-anchor="middle" x="1445" y="-295.5" font-family="Helvetica,sans-Serif" font-size="10.00">model.Pen.getStatus</text>
</a>
</g>
</g>
<!-- Node28&#45;&gt;Node29 -->
<g id="edge35" class="edge"><title>Node28&#45;&gt;Node29</title>
<path fill="none" stroke="midnightblue" d="M1315.72,-298C1335.23,-298 1356.35,-298 1375.72,-298"/>
<polygon fill="midnightblue" stroke="midnightblue" points="1375.97,-301.5 1385.97,-298 1375.97,-294.5 1375.97,-301.5"/>
</g>
<!-- Node34 -->
<g id="node34" class="node"><title>Node34</title>
<g id="a_node34"><a xlink:href="../../de/ded/classmodel_1_1_pen.html#a6999f4af56377415621f193ef8600e27" target="_top" xlink:title="model.Pen.getDash">
<polygon fill="white" stroke="black" points="1389.5,-440.5 1389.5,-459.5 1500.5,-459.5 1500.5,-440.5 1389.5,-440.5"/>
<text text-anchor="middle" x="1445" y="-447.5" font-family="Helvetica,sans-Serif" font-size="10.00">model.Pen.getDash</text>
</a>
</g>
</g>
<!-- Node33&#45;&gt;Node34 -->
<g id="edge40" class="edge"><title>Node33&#45;&gt;Node34</title>
<path fill="none" stroke="midnightblue" d="M1312.65,-450C1334.15,-450 1357.86,-450 1379.15,-450"/>
<polygon fill="midnightblue" stroke="midnightblue" points="1379.39,-453.5 1389.39,-450 1379.39,-446.5 1379.39,-453.5"/>
</g>
<!-- Node36 -->
<g id="node36" class="node"><title>Node36</title>
<g id="a_node36"><a xlink:href="../../de/ded/classmodel_1_1_pen.html#a704af31474b10d17caf40773b7971826" target="_top" xlink:title="model.Pen.getPenColor">
<polygon fill="white" stroke="black" points="1380.5,-402.5 1380.5,-421.5 1509.5,-421.5 1509.5,-402.5 1380.5,-402.5"/>
<text text-anchor="middle" x="1445" y="-409.5" font-family="Helvetica,sans-Serif" font-size="10.00">model.Pen.getPenColor</text>
</a>
</g>
</g>
<!-- Node35&#45;&gt;Node36 -->
<g id="edge42" class="edge"><title>Node35&#45;&gt;Node36</title>
<path fill="none" stroke="midnightblue" d="M1312.65,-412C1331.18,-412 1351.36,-412 1370.21,-412"/>
<polygon fill="midnightblue" stroke="midnightblue" points="1370.23,-415.5 1380.23,-412 1370.23,-408.5 1370.23,-415.5"/>
</g>
<!-- Node39&#45;&gt;Node38 -->
<g id="edge50" class="edge"><title>Node39&#45;&gt;Node38</title>
<path fill="none" stroke="midnightblue" d="M410.888,-298.944C434.553,-293.918 461.093,-288.281 485.439,-283.11"/>
<polygon fill="midnightblue" stroke="midnightblue" points="486.309,-286.504 495.364,-281.002 484.855,-279.656 486.309,-286.504"/>
</g>
</g>
</svg>
