<?xml version="1.0" encoding="UTF-8" standalone="no"?>
<!DOCTYPE svg PUBLIC "-//W3C//DTD SVG 1.1//EN"
 "http://www.w3.org/Graphics/SVG/1.1/DTD/svg11.dtd">
<!-- Generated by graphviz version 2.36.0 (20140111.2315)
 -->
<!-- Title: commands.SetBackgroundCommand Pages: 1 -->
<svg width="260pt" height="144pt"
 viewBox="0.00 0.00 260.00 144.00" xmlns="http://www.w3.org/2000/svg" xmlns:xlink="http://www.w3.org/1999/xlink">
<g id="graph0" class="graph" transform="scale(1 1) rotate(0) translate(4 140)">
<title>commands.SetBackgroundCommand</title>
<polygon fill="white" stroke="none" points="-4,4 -4,-140 256,-140 256,4 -4,4"/>
<!-- Node1 -->
<g id="node1" class="node"><title>Node1</title>
<polygon fill="#bfbfbf" stroke="black" points="-0.5,-0.5 -0.5,-19.5 196.5,-19.5 196.5,-0.5 -0.5,-0.5"/>
<text text-anchor="middle" x="98" y="-7.5" font-family="Helvetica,sans-Serif" font-size="10.00">commands.SetBackgroundCommand</text>
</g>
<!-- Node2 -->
<g id="node2" class="node"><title>Node2</title>
<g id="a_node2"><a xlink:href="../../d1/d86/classcommands_1_1_three_input_command.html" target="_top" xlink:title="commands.ThreeInputCommand">
<polygon fill="white" stroke="black" points="10.5,-58.5 10.5,-77.5 185.5,-77.5 185.5,-58.5 10.5,-58.5"/>
<text text-anchor="middle" x="98" y="-65.5" font-family="Helvetica,sans-Serif" font-size="10.00">commands.ThreeInputCommand</text>
</a>
</g>
</g>
<!-- Node2&#45;&gt;Node1 -->
<g id="edge1" class="edge"><title>Node2&#45;&gt;Node1</title>
<path fill="none" stroke="midnightblue" d="M98,-47.953C98,-38.2875 98,-27.0312 98,-19.5052"/>
<polygon fill="midnightblue" stroke="midnightblue" points="94.5001,-48.25 98,-58.25 101.5,-48.25 94.5001,-48.25"/>
</g>
<!-- Node3 -->
<g id="node3" class="node"><title>Node3</title>
<g id="a_node3"><a xlink:href="../../dd/dd6/classcommands_1_1_command.html" target="_top" xlink:title="commands.Command">
<polygon fill="white" stroke="black" points="36,-116.5 36,-135.5 160,-135.5 160,-116.5 36,-116.5"/>
<text text-anchor="middle" x="98" y="-123.5" font-family="Helvetica,sans-Serif" font-size="10.00">commands.Command</text>
</a>
</g>
</g>
<!-- Node3&#45;&gt;Node2 -->
<g id="edge2" class="edge"><title>Node3&#45;&gt;Node2</title>
<path fill="none" stroke="midnightblue" d="M98,-105.953C98,-96.2875 98,-85.0312 98,-77.5052"/>
<polygon fill="midnightblue" stroke="midnightblue" points="94.5001,-106.25 98,-116.25 101.5,-106.25 94.5001,-106.25"/>
</g>
<!-- Node3&#45;&gt;Node3 -->
<g id="edge3" class="edge"><title>Node3&#45;&gt;Node3</title>
<path fill="none" stroke="#9a32cd" stroke-dasharray="5,2" d="M170.252,-129.592C174.474,-128.73 177,-127.533 177,-126 177,-123.484 170.198,-121.873 160.261,-121.165"/>
<polygon fill="#9a32cd" stroke="#9a32cd" points="169.752,-126.127 160.261,-130.835 170.617,-133.073 169.752,-126.127"/>
<text text-anchor="middle" x="214" y="-123.5" font-family="Helvetica,sans-Serif" font-size="10.00"> myParameters</text>
</g>
</g>
</svg>
