<?xml version="1.0" encoding="UTF-8" standalone="no"?>
<!DOCTYPE svg PUBLIC "-//W3C//DTD SVG 1.1//EN"
 "http://www.w3.org/Graphics/SVG/1.1/DTD/svg11.dtd">
<!-- Generated by graphviz version 2.36.0 (20140111.2315)
 -->
<!-- Title: view.panes.ButtonPaneModule.backgroundColor Pages: 1 -->
<svg width="662pt" height="38pt"
 viewBox="0.00 0.00 662.00 38.00" xmlns="http://www.w3.org/2000/svg" xmlns:xlink="http://www.w3.org/1999/xlink">
<g id="graph0" class="graph" transform="scale(1 1) rotate(0) translate(4 34)">
<title>view.panes.ButtonPaneModule.backgroundColor</title>
<polygon fill="white" stroke="none" points="-4,4 -4,-34 658,-34 658,4 -4,4"/>
<!-- Node1 -->
<g id="node1" class="node"><title>Node1</title>
<polygon fill="#bfbfbf" stroke="black" points="0.5,-0 0.5,-30 221.5,-30 221.5,-0 0.5,-0"/>
<text text-anchor="start" x="8.5" y="-18" font-family="Helvetica,sans-Serif" font-size="10.00">view.panes.ButtonPaneModule.background</text>
<text text-anchor="middle" x="111" y="-7" font-family="Helvetica,sans-Serif" font-size="10.00">Color</text>
</g>
<!-- Node2 -->
<g id="node2" class="node"><title>Node2</title>
<g id="a_node2"><a xlink:href="../../d0/d18/classview_1_1panes_1_1_button_pane_module.html#a5d69a336ac95020bfde0507bb018790d" target="_top" xlink:title="view.panes.ButtonPaneModule.create\lPropertiesMenu">
<polygon fill="white" stroke="black" points="258.5,-0 258.5,-30 453.5,-30 453.5,-0 258.5,-0"/>
<text text-anchor="start" x="266.5" y="-18" font-family="Helvetica,sans-Serif" font-size="10.00">view.panes.ButtonPaneModule.create</text>
<text text-anchor="middle" x="356" y="-7" font-family="Helvetica,sans-Serif" font-size="10.00">PropertiesMenu</text>
</a>
</g>
</g>
<!-- Node1&#45;&gt;Node2 -->
<g id="edge1" class="edge"><title>Node1&#45;&gt;Node2</title>
<path fill="none" stroke="midnightblue" d="M231.803,-15C240.704,-15 249.616,-15 258.35,-15"/>
<polygon fill="midnightblue" stroke="midnightblue" points="231.77,-11.5001 221.77,-15 231.77,-18.5001 231.77,-11.5001"/>
</g>
<!-- Node3 -->
<g id="node3" class="node"><title>Node3</title>
<g id="a_node3"><a xlink:href="../../d0/d18/classview_1_1panes_1_1_button_pane_module.html#aa101ed48e3d2a504329a82dc7bea4795" target="_top" xlink:title="view.panes.ButtonPaneModule.\lButtonPaneModule">
<polygon fill="white" stroke="black" points="490,-0 490,-30 654,-30 654,-0 490,-0"/>
<text text-anchor="start" x="498" y="-18" font-family="Helvetica,sans-Serif" font-size="10.00">view.panes.ButtonPaneModule.</text>
<text text-anchor="middle" x="572" y="-7" font-family="Helvetica,sans-Serif" font-size="10.00">ButtonPaneModule</text>
</a>
</g>
</g>
<!-- Node2&#45;&gt;Node3 -->
<g id="edge2" class="edge"><title>Node2&#45;&gt;Node3</title>
<path fill="none" stroke="midnightblue" d="M463.885,-15C472.599,-15 481.314,-15 489.798,-15"/>
<polygon fill="midnightblue" stroke="midnightblue" points="463.67,-11.5001 453.67,-15 463.67,-18.5001 463.67,-11.5001"/>
</g>
</g>
</svg>
