<?xml version="1.0" encoding="UTF-8" standalone="no"?>
<!DOCTYPE svg PUBLIC "-//W3C//DTD SVG 1.1//EN"
 "http://www.w3.org/Graphics/SVG/1.1/DTD/svg11.dtd">
<!-- Generated by graphviz version 2.36.0 (20140111.2315)
 -->
<!-- Title: view.panes.ButtonPaneModule.createPropertiesMenu Pages: 1 -->
<!--zoomable 271 -->
<svg id="main" version="1.1" xmlns="http://www.w3.org/2000/svg" xmlns:xlink="http://www.w3.org/1999/xlink" xml:space="preserve" onload="init(evt)">
<style type="text/css"><![CDATA[
.edge:hover path { stroke: red; }
.edge:hover polygon { stroke: red; fill: red; }
]]></style>
<script type="text/javascript"><![CDATA[
var edges = document.getElementsByTagName('g');
if (edges && edges.length) {
  for (var i=0;i<edges.length;i++) {
    if (edges[i].id.substr(0,4)=='edge') {
      edges[i].setAttribute('class','edge');
    }
  }
}
]]></script>
        <defs>
                <circle id="rim" cx="0" cy="0" r="7"/>
                <circle id="rim2" cx="0" cy="0" r="3.5"/>
                <g id="zoomPlus">
                        <use xlink:href="#rim" fill="#404040">
                                <set attributeName="fill" to="#808080" begin="zoomplus.mouseover" end="zoomplus.mouseout"/>
                        </use>
                        <path d="M-4,0h8M0,-4v8" fill="none" stroke="white" stroke-width="1.5" pointer-events="none"/>
                </g>
                <g id="zoomMin">
                        <use xlink:href="#rim" fill="#404040">
                                <set attributeName="fill" to="#808080" begin="zoomminus.mouseover" end="zoomminus.mouseout"/>
                        </use>
                        <path d="M-4,0h8" fill="none" stroke="white" stroke-width="1.5" pointer-events="none"/>
                </g>
                <g id="dirArrow">
                        <path fill="none" stroke="white" stroke-width="1.5" d="M0,-3.0v7 M-2.5,-0.5L0,-3.0L2.5,-0.5"/>
                </g>
               <g id="resetDef">
                       <use xlink:href="#rim2" fill="#404040">
                               <set attributeName="fill" to="#808080" begin="reset.mouseover" end="reset.mouseout"/>
                       </use>
               </g>
        </defs>

<script type="text/javascript">
var viewWidth = 1160;
var viewHeight = 271;
var sectionId = 'dynsection-5';
</script>
<script xlink:href="../../svgpan.js"/>
<svg id="graph" class="graph">
<g id="viewport">
<title>view.panes.ButtonPaneModule.createPropertiesMenu</title>
<polygon fill="white" stroke="none" points="-4,4 -4,-267 1156,-267 1156,4 -4,4"/>
<!-- Node1 -->
<g id="node1" class="node"><title>Node1</title>
<polygon fill="#bfbfbf" stroke="black" points="0.5,-120 0.5,-150 195.5,-150 195.5,-120 0.5,-120"/>
<text text-anchor="start" x="8.5" y="-138" font-family="Helvetica,sans-Serif" font-size="10.00">view.panes.ButtonPaneModule.create</text>
<text text-anchor="middle" x="98" y="-127" font-family="Helvetica,sans-Serif" font-size="10.00">PropertiesMenu</text>
</g>
<!-- Node2 -->
<g id="node2" class="node"><title>Node2</title>
<g id="a_node2"><a xlink:href="../../d0/d18/classview_1_1panes_1_1_button_pane_module.html#a9383ad9a84c4c7db217f61cb1f64203a" target="_top" xlink:title="view.panes.ButtonPaneModule.background\lColor">
<polygon fill="white" stroke="black" points="232.5,-233 232.5,-263 453.5,-263 453.5,-233 232.5,-233"/>
<text text-anchor="start" x="240.5" y="-251" font-family="Helvetica,sans-Serif" font-size="10.00">view.panes.ButtonPaneModule.background</text>
<text text-anchor="middle" x="343" y="-240" font-family="Helvetica,sans-Serif" font-size="10.00">Color</text>
</a>
</g>
</g>
<!-- Node1&#45;&gt;Node2 -->
<g id="edge1" class="edge"><title>Node1&#45;&gt;Node2</title>
<path fill="none" stroke="midnightblue" d="M117.139,-150.134C141.656,-169.825 187.448,-203.953 232,-223 237.909,-225.526 244.11,-227.815 250.432,-229.887"/>
<polygon fill="midnightblue" stroke="midnightblue" points="249.853,-233.371 260.44,-232.966 251.911,-226.68 249.853,-233.371"/>
</g>
<!-- Node4 -->
<g id="node4" class="node"><title>Node4</title>
<g id="a_node4"><a xlink:href="../../d0/d18/classview_1_1panes_1_1_button_pane_module.html#a3e50d0cb477a2bf165675601da051a0f" target="_top" xlink:title="view.panes.ButtonPaneModule.help">
<polygon fill="white" stroke="black" points="250.5,-194.5 250.5,-213.5 435.5,-213.5 435.5,-194.5 250.5,-194.5"/>
<text text-anchor="middle" x="343" y="-201.5" font-family="Helvetica,sans-Serif" font-size="10.00">view.panes.ButtonPaneModule.help</text>
</a>
</g>
</g>
<!-- Node1&#45;&gt;Node4 -->
<g id="edge3" class="edge"><title>Node1&#45;&gt;Node4</title>
<path fill="none" stroke="midnightblue" d="M134.579,-150.023C161.056,-160.73 198.29,-174.8 232,-184 243.894,-187.246 256.658,-190.113 269.128,-192.588"/>
<polygon fill="midnightblue" stroke="midnightblue" points="268.563,-196.043 279.043,-194.489 269.881,-189.169 268.563,-196.043"/>
</g>
<!-- Node5 -->
<g id="node5" class="node"><title>Node5</title>
<g id="a_node5"><a xlink:href="../../d0/d18/classview_1_1panes_1_1_button_pane_module.html#ae7f97b47d1d5a4783bf03011d5c27bf4" target="_top" xlink:title="view.panes.ButtonPaneModule.make\lButton">
<polygon fill="white" stroke="black" points="247.5,-145 247.5,-175 438.5,-175 438.5,-145 247.5,-145"/>
<text text-anchor="start" x="255.5" y="-163" font-family="Helvetica,sans-Serif" font-size="10.00">view.panes.ButtonPaneModule.make</text>
<text text-anchor="middle" x="343" y="-152" font-family="Helvetica,sans-Serif" font-size="10.00">Button</text>
</a>
</g>
</g>
<!-- Node1&#45;&gt;Node5 -->
<g id="edge4" class="edge"><title>Node1&#45;&gt;Node5</title>
<path fill="none" stroke="midnightblue" d="M195.738,-144.952C209.371,-146.355 223.437,-147.802 237.212,-149.219"/>
<polygon fill="midnightblue" stroke="midnightblue" points="236.874,-152.703 247.18,-150.245 237.591,-145.74 236.874,-152.703"/>
</g>
<!-- Node6 -->
<g id="node6" class="node"><title>Node6</title>
<g id="a_node6"><a xlink:href="../../d0/d18/classview_1_1panes_1_1_button_pane_module.html#a27a76a99c2eb4b96efa1c8cf8a03915f" target="_top" xlink:title="view.panes.ButtonPaneModule.make\lColorPicker">
<polygon fill="white" stroke="black" points="247.5,-96 247.5,-126 438.5,-126 438.5,-96 247.5,-96"/>
<text text-anchor="start" x="255.5" y="-114" font-family="Helvetica,sans-Serif" font-size="10.00">view.panes.ButtonPaneModule.make</text>
<text text-anchor="middle" x="343" y="-103" font-family="Helvetica,sans-Serif" font-size="10.00">ColorPicker</text>
</a>
</g>
</g>
<!-- Node1&#45;&gt;Node6 -->
<g id="edge5" class="edge"><title>Node1&#45;&gt;Node6</title>
<path fill="none" stroke="midnightblue" d="M195.738,-125.446C209.371,-124.099 223.437,-122.71 237.212,-121.349"/>
<polygon fill="midnightblue" stroke="midnightblue" points="237.572,-124.831 247.18,-120.365 236.884,-117.865 237.572,-124.831"/>
</g>
<!-- Node7 -->
<g id="node7" class="node"><title>Node7</title>
<g id="a_node7"><a xlink:href="../../df/d94/classview_1_1controllers_1_1_language_controller.html#a007ceb59189fb624bb31d77fd1b5ed8f" target="_top" xlink:title="view.controllers.Language\lController.makeMenu">
<polygon fill="white" stroke="black" points="273,-47 273,-77 413,-77 413,-47 273,-47"/>
<text text-anchor="start" x="281" y="-65" font-family="Helvetica,sans-Serif" font-size="10.00">view.controllers.Language</text>
<text text-anchor="middle" x="343" y="-54" font-family="Helvetica,sans-Serif" font-size="10.00">Controller.makeMenu</text>
</a>
</g>
</g>
<!-- Node1&#45;&gt;Node7 -->
<g id="edge6" class="edge"><title>Node1&#45;&gt;Node7</title>
<path fill="none" stroke="midnightblue" d="M135.522,-119.991C161.99,-109.498 198.81,-95.6842 232,-86 241.954,-83.0957 252.506,-80.3644 262.98,-77.8593"/>
<polygon fill="midnightblue" stroke="midnightblue" points="264.033,-81.2078 272.977,-75.5285 262.443,-74.3906 264.033,-81.2078"/>
</g>
<!-- Node12 -->
<g id="node12" class="node"><title>Node12</title>
<g id="a_node12"><a xlink:href="../../d0/d18/classview_1_1panes_1_1_button_pane_module.html#a586a2a6d5f1fd895ac7c5c8c106b08d0" target="_top" xlink:title="view.panes.ButtonPaneModule.toggleGrid">
<polygon fill="white" stroke="black" points="236,-7.5 236,-26.5 450,-26.5 450,-7.5 236,-7.5"/>
<text text-anchor="middle" x="343" y="-14.5" font-family="Helvetica,sans-Serif" font-size="10.00">view.panes.ButtonPaneModule.toggleGrid</text>
</a>
</g>
</g>
<!-- Node1&#45;&gt;Node12 -->
<g id="edge11" class="edge"><title>Node1&#45;&gt;Node12</title>
<path fill="none" stroke="midnightblue" d="M114.285,-119.991C137.586,-98.043 184.336,-57.5713 232,-37 239.142,-33.9174 246.745,-31.3098 254.487,-29.104"/>
<polygon fill="midnightblue" stroke="midnightblue" points="255.561,-32.441 264.346,-26.5194 253.785,-25.6698 255.561,-32.441"/>
</g>
<!-- Node3 -->
<g id="node3" class="node"><title>Node3</title>
<g id="a_node3"><a xlink:href="../../d8/dd2/classview_1_1_command_string.html#a666bbe4a67f0516444f5ee29cbb5e588" target="_top" xlink:title="view.CommandString.setCommand">
<polygon fill="white" stroke="black" points="492,-238.5 492,-257.5 678,-257.5 678,-238.5 492,-238.5"/>
<text text-anchor="middle" x="585" y="-245.5" font-family="Helvetica,sans-Serif" font-size="10.00">view.CommandString.setCommand</text>
</a>
</g>
</g>
<!-- Node2&#45;&gt;Node3 -->
<g id="edge2" class="edge"><title>Node2&#45;&gt;Node3</title>
<path fill="none" stroke="midnightblue" d="M453.816,-248C463.052,-248 472.37,-248 481.548,-248"/>
<polygon fill="midnightblue" stroke="midnightblue" points="481.839,-251.5 491.839,-248 481.839,-244.5 481.839,-251.5"/>
</g>
<!-- Node8 -->
<g id="node8" class="node"><title>Node8</title>
<g id="a_node8"><a xlink:href="../../df/d94/classview_1_1controllers_1_1_language_controller.html#a28320ec7a669cf479a5a141b76805b1d" target="_top" xlink:title="view.controllers.Language\lController.setLanguage">
<polygon fill="white" stroke="black" points="515,-49 515,-79 655,-79 655,-49 515,-49"/>
<text text-anchor="start" x="523" y="-67" font-family="Helvetica,sans-Serif" font-size="10.00">view.controllers.Language</text>
<text text-anchor="middle" x="585" y="-56" font-family="Helvetica,sans-Serif" font-size="10.00">Controller.setLanguage</text>
</a>
</g>
</g>
<!-- Node7&#45;&gt;Node8 -->
<g id="edge7" class="edge"><title>Node7&#45;&gt;Node8</title>
<path fill="none" stroke="midnightblue" d="M413.096,-62.5758C441.711,-62.8143 475.066,-63.0922 504.674,-63.3389"/>
<polygon fill="midnightblue" stroke="midnightblue" points="504.947,-66.8413 514.976,-63.4248 505.006,-59.8415 504.947,-66.8413"/>
</g>
<!-- Node9 -->
<g id="node9" class="node"><title>Node9</title>
<g id="a_node9"><a xlink:href="../../d8/dce/classcontroller_1_1_master_controller.html#ab5fbb9e4dc0f267847333f3d8c9ba5ea" target="_top" xlink:title="controller.MasterController.construct\lMasterController">
<polygon fill="white" stroke="black" points="716.5,-49 716.5,-79 907.5,-79 907.5,-49 716.5,-49"/>
<text text-anchor="start" x="724.5" y="-67" font-family="Helvetica,sans-Serif" font-size="10.00">controller.MasterController.construct</text>
<text text-anchor="middle" x="812" y="-56" font-family="Helvetica,sans-Serif" font-size="10.00">MasterController</text>
</a>
</g>
</g>
<!-- Node8&#45;&gt;Node9 -->
<g id="edge8" class="edge"><title>Node8&#45;&gt;Node9</title>
<path fill="none" stroke="midnightblue" d="M655.037,-64C671.234,-64 688.853,-64 706.224,-64"/>
<polygon fill="midnightblue" stroke="midnightblue" points="706.411,-67.5001 716.411,-64 706.411,-60.5001 706.411,-67.5001"/>
</g>
<!-- Node10 -->
<g id="node10" class="node"><title>Node10</title>
<g id="a_node10"><a xlink:href="../../d8/dce/classcontroller_1_1_master_controller.html#a6872efed0600910c8ae37491e0f59a0e" target="_top" xlink:title="controller.MasterController.constructSet">
<polygon fill="white" stroke="black" points="944.5,-73.5 944.5,-92.5 1151.5,-92.5 1151.5,-73.5 944.5,-73.5"/>
<text text-anchor="middle" x="1048" y="-80.5" font-family="Helvetica,sans-Serif" font-size="10.00">controller.MasterController.constructSet</text>
</a>
</g>
</g>
<!-- Node9&#45;&gt;Node10 -->
<g id="edge9" class="edge"><title>Node9&#45;&gt;Node10</title>
<path fill="none" stroke="midnightblue" d="M907.502,-71.6733C916.35,-72.3916 925.375,-73.1245 934.366,-73.8545"/>
<polygon fill="midnightblue" stroke="midnightblue" points="934.241,-77.3558 944.492,-74.6767 934.808,-70.3788 934.241,-77.3558"/>
</g>
<!-- Node11 -->
<g id="node11" class="node"><title>Node11</title>
<g id="a_node11"><a xlink:href="../../d6/d95/classparser_1_1_parser.html#a4f1e7ee432eb4d4377de4ce4202b139d" target="_top" xlink:title="parser.Parser.resetParser">
<polygon fill="white" stroke="black" points="979.5,-35.5 979.5,-54.5 1116.5,-54.5 1116.5,-35.5 979.5,-35.5"/>
<text text-anchor="middle" x="1048" y="-42.5" font-family="Helvetica,sans-Serif" font-size="10.00">parser.Parser.resetParser</text>
</a>
</g>
</g>
<!-- Node9&#45;&gt;Node11 -->
<g id="edge10" class="edge"><title>Node9&#45;&gt;Node11</title>
<path fill="none" stroke="midnightblue" d="M907.502,-56.3267C928.025,-54.6604 949.508,-52.9161 969.294,-51.3095"/>
<polygon fill="midnightblue" stroke="midnightblue" points="969.788,-54.7809 979.472,-50.483 969.222,-47.8039 969.788,-54.7809"/>
</g>
<!-- Node13 -->
<g id="node13" class="node"><title>Node13</title>
<g id="a_node13"><a xlink:href="../../db/db5/classview_1_1panes_1_1_view_pane_module.html#a7f8c12f243a5720a7e412dad9226f14c" target="_top" xlink:title="view.panes.ViewPaneModule.change\lGridVisibility">
<polygon fill="white" stroke="black" points="490.5,-0 490.5,-30 679.5,-30 679.5,-0 490.5,-0"/>
<text text-anchor="start" x="498.5" y="-18" font-family="Helvetica,sans-Serif" font-size="10.00">view.panes.ViewPaneModule.change</text>
<text text-anchor="middle" x="585" y="-7" font-family="Helvetica,sans-Serif" font-size="10.00">GridVisibility</text>
</a>
</g>
</g>
<!-- Node12&#45;&gt;Node13 -->
<g id="edge12" class="edge"><title>Node12&#45;&gt;Node13</title>
<path fill="none" stroke="midnightblue" d="M450.316,-16.114C460.18,-16.0318 470.169,-15.9486 480.011,-15.8666"/>
<polygon fill="midnightblue" stroke="midnightblue" points="480.234,-19.3649 490.204,-15.7816 480.175,-12.3652 480.234,-19.3649"/>
</g>
</g>
</svg>
        <g id="navigator" transform="translate(0 0)" fill="#404254">
                <rect fill="#f2f5e9" fill-opacity="0.5" stroke="#606060" stroke-width=".5" x="0" y="0" width="60" height="60"/>
                <use id="zoomplus" xlink:href="#zoomPlus" x="17" y="9" onmousedown="handleZoom(evt,'in')"/>
                <use id="zoomminus" xlink:href="#zoomMin" x="42" y="9" onmousedown="handleZoom(evt,'out')"/>
                <use id="reset" xlink:href="#resetDef" x="30" y="36" onmousedown="handleReset()"/>
                <g id="arrowUp" xlink:href="#dirArrow" transform="translate(30 24)" onmousedown="handlePan(0,-1)">
                  <use xlink:href="#rim" fill="#404040">
                        <set attributeName="fill" to="#808080" begin="arrowUp.mouseover" end="arrowUp.mouseout"/>
                  </use>
                  <path fill="none" stroke="white" stroke-width="1.5" d="M0,-3.0v7 M-2.5,-0.5L0,-3.0L2.5,-0.5"/>
                </g>
                <g id="arrowRight" xlink:href="#dirArrow" transform="rotate(90) translate(36 -43)" onmousedown="handlePan(1,0)">
                  <use xlink:href="#rim" fill="#404040">
                        <set attributeName="fill" to="#808080" begin="arrowRight.mouseover" end="arrowRight.mouseout"/>
                  </use>
                  <path fill="none" stroke="white" stroke-width="1.5" d="M0,-3.0v7 M-2.5,-0.5L0,-3.0L2.5,-0.5"/>
                </g>
                <g id="arrowDown" xlink:href="#dirArrow" transform="rotate(180) translate(-30 -48)" onmousedown="handlePan(0,1)">
                  <use xlink:href="#rim" fill="#404040">
                        <set attributeName="fill" to="#808080" begin="arrowDown.mouseover" end="arrowDown.mouseout"/>
                  </use>
                  <path fill="none" stroke="white" stroke-width="1.5" d="M0,-3.0v7 M-2.5,-0.5L0,-3.0L2.5,-0.5"/>
                </g>
                <g id="arrowLeft" xlink:href="#dirArrow" transform="rotate(270) translate(-36 17)" onmousedown="handlePan(-1,0)">
                  <use xlink:href="#rim" fill="#404040">
                        <set attributeName="fill" to="#808080" begin="arrowLeft.mouseover" end="arrowLeft.mouseout"/>
                  </use>
                  <path fill="none" stroke="white" stroke-width="1.5" d="M0,-3.0v7 M-2.5,-0.5L0,-3.0L2.5,-0.5"/>
                </g>
        </g>
        <svg viewBox="0 0 15 15" width="100%" height="30px" preserveAspectRatio="xMaxYMin meet">
         <g id="arrow_out" transform="scale(0.3 0.3)">
          <a xlink:href="classview_1_1panes_1_1_button_pane_module_a5d69a336ac95020bfde0507bb018790d_cgraph_org.svg" target="_base">
           <rect id="button" ry="5" rx="5" y="6" x="6" height="38" width="38"
                fill="#f2f5e9" fill-opacity="0.5" stroke="#606060" stroke-width="1.0"/>
           <path id="arrow"
             d="M 11.500037,31.436501 C 11.940474,20.09759 22.043105,11.32322 32.158766,21.979434 L 37.068811,17.246167 C 37.068811,17.246167 37.088388,32 37.088388,32 L 22.160133,31.978069 C 22.160133,31.978069 26.997745,27.140456 26.997745,27.140456 C 18.528582,18.264221 13.291696,25.230495 11.500037,31.436501 z"
             style="fill:#404040;"/>
          </a>
         </g>
        </svg>
</svg>
