<?xml version="1.0" encoding="UTF-8" standalone="no"?>
<!DOCTYPE svg PUBLIC "-//W3C//DTD SVG 1.1//EN"
 "http://www.w3.org/Graphics/SVG/1.1/DTD/svg11.dtd">
<!-- Generated by graphviz version 2.36.0 (20140111.2315)
 -->
<!-- Title: view.panes.ButtonPaneModule.createPropertiesMenu Pages: 1 -->
<svg width="404pt" height="38pt"
 viewBox="0.00 0.00 404.00 38.00" xmlns="http://www.w3.org/2000/svg" xmlns:xlink="http://www.w3.org/1999/xlink">
<g id="graph0" class="graph" transform="scale(1 1) rotate(0) translate(4 34)">
<title>view.panes.ButtonPaneModule.createPropertiesMenu</title>
<polygon fill="white" stroke="none" points="-4,4 -4,-34 400,-34 400,4 -4,4"/>
<!-- Node1 -->
<g id="node1" class="node"><title>Node1</title>
<polygon fill="#bfbfbf" stroke="black" points="0.5,-0 0.5,-30 195.5,-30 195.5,-0 0.5,-0"/>
<text text-anchor="start" x="8.5" y="-18" font-family="Helvetica,sans-Serif" font-size="10.00">view.panes.ButtonPaneModule.create</text>
<text text-anchor="middle" x="98" y="-7" font-family="Helvetica,sans-Serif" font-size="10.00">PropertiesMenu</text>
</g>
<!-- Node2 -->
<g id="node2" class="node"><title>Node2</title>
<g id="a_node2"><a xlink:href="../../d0/d18/classview_1_1panes_1_1_button_pane_module.html#aa101ed48e3d2a504329a82dc7bea4795" target="_top" xlink:title="view.panes.ButtonPaneModule.\lButtonPaneModule">
<polygon fill="white" stroke="black" points="232,-0 232,-30 396,-30 396,-0 232,-0"/>
<text text-anchor="start" x="240" y="-18" font-family="Helvetica,sans-Serif" font-size="10.00">view.panes.ButtonPaneModule.</text>
<text text-anchor="middle" x="314" y="-7" font-family="Helvetica,sans-Serif" font-size="10.00">ButtonPaneModule</text>
</a>
</g>
</g>
<!-- Node1&#45;&gt;Node2 -->
<g id="edge1" class="edge"><title>Node1&#45;&gt;Node2</title>
<path fill="none" stroke="midnightblue" d="M205.885,-15C214.599,-15 223.314,-15 231.798,-15"/>
<polygon fill="midnightblue" stroke="midnightblue" points="205.67,-11.5001 195.67,-15 205.67,-18.5001 205.67,-11.5001"/>
</g>
</g>
</svg>
