<?xml version="1.0" encoding="UTF-8" standalone="no"?>
<!DOCTYPE svg PUBLIC "-//W3C//DTD SVG 1.1//EN"
 "http://www.w3.org/Graphics/SVG/1.1/DTD/svg11.dtd">
<!-- Generated by graphviz version 2.36.0 (20140111.2315)
 -->
<!-- Title: view.panes.ButtonPaneModule.ButtonPaneModule Pages: 1 -->
<svg width="1360pt" height="276pt"
 viewBox="0.00 0.00 1360.00 276.00" xmlns="http://www.w3.org/2000/svg" xmlns:xlink="http://www.w3.org/1999/xlink">
<g id="graph0" class="graph" transform="scale(1 1) rotate(0) translate(4 272)">
<title>view.panes.ButtonPaneModule.ButtonPaneModule</title>
<polygon fill="white" stroke="none" points="-4,4 -4,-272 1356,-272 1356,4 -4,4"/>
<!-- Node1 -->
<g id="node1" class="node"><title>Node1</title>
<polygon fill="#bfbfbf" stroke="black" points="0,-118 0,-148 164,-148 164,-118 0,-118"/>
<text text-anchor="start" x="8" y="-136" font-family="Helvetica,sans-Serif" font-size="10.00">view.panes.ButtonPaneModule.</text>
<text text-anchor="middle" x="82" y="-125" font-family="Helvetica,sans-Serif" font-size="10.00">ButtonPaneModule</text>
</g>
<!-- Node2 -->
<g id="node2" class="node"><title>Node2</title>
<g id="a_node2"><a xlink:href="../../d0/d18/classview_1_1panes_1_1_button_pane_module.html#a5d69a336ac95020bfde0507bb018790d" target="_top" xlink:title="view.panes.ButtonPaneModule.create\lPropertiesMenu">
<polygon fill="white" stroke="black" points="200.5,-118 200.5,-148 395.5,-148 395.5,-118 200.5,-118"/>
<text text-anchor="start" x="208.5" y="-136" font-family="Helvetica,sans-Serif" font-size="10.00">view.panes.ButtonPaneModule.create</text>
<text text-anchor="middle" x="298" y="-125" font-family="Helvetica,sans-Serif" font-size="10.00">PropertiesMenu</text>
</a>
</g>
</g>
<!-- Node1&#45;&gt;Node2 -->
<g id="edge1" class="edge"><title>Node1&#45;&gt;Node2</title>
<path fill="none" stroke="midnightblue" d="M164.209,-133C172.708,-133 181.437,-133 190.165,-133"/>
<polygon fill="midnightblue" stroke="midnightblue" points="190.396,-136.5 200.396,-133 190.396,-129.5 190.396,-136.5"/>
</g>
<!-- Node3 -->
<g id="node3" class="node"><title>Node3</title>
<g id="a_node3"><a xlink:href="../../d0/d18/classview_1_1panes_1_1_button_pane_module.html#a27a76a99c2eb4b96efa1c8cf8a03915f" target="_top" xlink:title="view.panes.ButtonPaneModule.make\lColorPicker">
<polygon fill="white" stroke="black" points="447.5,-238 447.5,-268 638.5,-268 638.5,-238 447.5,-238"/>
<text text-anchor="start" x="455.5" y="-256" font-family="Helvetica,sans-Serif" font-size="10.00">view.panes.ButtonPaneModule.make</text>
<text text-anchor="middle" x="543" y="-245" font-family="Helvetica,sans-Serif" font-size="10.00">ColorPicker</text>
</a>
</g>
</g>
<!-- Node2&#45;&gt;Node3 -->
<g id="edge2" class="edge"><title>Node2&#45;&gt;Node3</title>
<path fill="none" stroke="midnightblue" d="M315.683,-148.324C339.62,-169.469 385.919,-207.319 432,-228 437.628,-230.526 443.537,-232.809 449.572,-234.87"/>
<polygon fill="midnightblue" stroke="midnightblue" points="448.545,-238.217 459.136,-237.93 450.678,-231.549 448.545,-238.217"/>
</g>
<!-- Node4 -->
<g id="node4" class="node"><title>Node4</title>
<g id="a_node4"><a xlink:href="../../d0/d18/classview_1_1panes_1_1_button_pane_module.html#a9383ad9a84c4c7db217f61cb1f64203a" target="_top" xlink:title="view.panes.ButtonPaneModule.background\lColor">
<polygon fill="white" stroke="black" points="432.5,-189 432.5,-219 653.5,-219 653.5,-189 432.5,-189"/>
<text text-anchor="start" x="440.5" y="-207" font-family="Helvetica,sans-Serif" font-size="10.00">view.panes.ButtonPaneModule.background</text>
<text text-anchor="middle" x="543" y="-196" font-family="Helvetica,sans-Serif" font-size="10.00">Color</text>
</a>
</g>
</g>
<!-- Node2&#45;&gt;Node4 -->
<g id="edge3" class="edge"><title>Node2&#45;&gt;Node4</title>
<path fill="none" stroke="midnightblue" d="M338.794,-148.044C365.033,-157.644 400.285,-169.941 432,-179 441.321,-181.663 451.151,-184.23 460.943,-186.64"/>
<polygon fill="midnightblue" stroke="midnightblue" points="460.161,-190.052 470.703,-188.995 461.803,-183.247 460.161,-190.052"/>
</g>
<!-- Node6 -->
<g id="node6" class="node"><title>Node6</title>
<g id="a_node6"><a xlink:href="../../d0/d18/classview_1_1panes_1_1_button_pane_module.html#ae7f97b47d1d5a4783bf03011d5c27bf4" target="_top" xlink:title="view.panes.ButtonPaneModule.make\lButton">
<polygon fill="white" stroke="black" points="447.5,-140 447.5,-170 638.5,-170 638.5,-140 447.5,-140"/>
<text text-anchor="start" x="455.5" y="-158" font-family="Helvetica,sans-Serif" font-size="10.00">view.panes.ButtonPaneModule.make</text>
<text text-anchor="middle" x="543" y="-147" font-family="Helvetica,sans-Serif" font-size="10.00">Button</text>
</a>
</g>
</g>
<!-- Node2&#45;&gt;Node6 -->
<g id="edge5" class="edge"><title>Node2&#45;&gt;Node6</title>
<path fill="none" stroke="midnightblue" d="M395.738,-141.758C409.371,-142.992 423.437,-144.266 437.212,-145.513"/>
<polygon fill="midnightblue" stroke="midnightblue" points="436.905,-148.999 447.18,-146.415 437.536,-142.028 436.905,-148.999"/>
</g>
<!-- Node7 -->
<g id="node7" class="node"><title>Node7</title>
<g id="a_node7"><a xlink:href="../../d0/d18/classview_1_1panes_1_1_button_pane_module.html#a586a2a6d5f1fd895ac7c5c8c106b08d0" target="_top" xlink:title="view.panes.ButtonPaneModule.toggleGrid">
<polygon fill="white" stroke="black" points="436,-101.5 436,-120.5 650,-120.5 650,-101.5 436,-101.5"/>
<text text-anchor="middle" x="543" y="-108.5" font-family="Helvetica,sans-Serif" font-size="10.00">view.panes.ButtonPaneModule.toggleGrid</text>
</a>
</g>
</g>
<!-- Node2&#45;&gt;Node7 -->
<g id="edge6" class="edge"><title>Node2&#45;&gt;Node7</title>
<path fill="none" stroke="midnightblue" d="M395.738,-124.242C405.863,-123.325 416.228,-122.387 426.534,-121.454"/>
<polygon fill="midnightblue" stroke="midnightblue" points="427.167,-124.911 436.811,-120.523 426.536,-117.939 427.167,-124.911"/>
</g>
<!-- Node9 -->
<g id="node9" class="node"><title>Node9</title>
<g id="a_node9"><a xlink:href="../../d0/d18/classview_1_1panes_1_1_button_pane_module.html#a3e50d0cb477a2bf165675601da051a0f" target="_top" xlink:title="view.panes.ButtonPaneModule.help">
<polygon fill="white" stroke="black" points="450.5,-63.5 450.5,-82.5 635.5,-82.5 635.5,-63.5 450.5,-63.5"/>
<text text-anchor="middle" x="543" y="-70.5" font-family="Helvetica,sans-Serif" font-size="10.00">view.panes.ButtonPaneModule.help</text>
</a>
</g>
</g>
<!-- Node2&#45;&gt;Node9 -->
<g id="edge8" class="edge"><title>Node2&#45;&gt;Node9</title>
<path fill="none" stroke="midnightblue" d="M342.942,-117.902C368.672,-109.452 401.922,-99.2024 432,-92 443.706,-89.1969 456.207,-86.6356 468.427,-84.3637"/>
<polygon fill="midnightblue" stroke="midnightblue" points="469.385,-87.7474 478.603,-82.5245 468.14,-80.859 469.385,-87.7474"/>
</g>
<!-- Node10 -->
<g id="node10" class="node"><title>Node10</title>
<g id="a_node10"><a xlink:href="../../df/d94/classview_1_1controllers_1_1_language_controller.html#a007ceb59189fb624bb31d77fd1b5ed8f" target="_top" xlink:title="view.controllers.Language\lController.makeMenu">
<polygon fill="white" stroke="black" points="473,-14 473,-44 613,-44 613,-14 473,-14"/>
<text text-anchor="start" x="481" y="-32" font-family="Helvetica,sans-Serif" font-size="10.00">view.controllers.Language</text>
<text text-anchor="middle" x="543" y="-21" font-family="Helvetica,sans-Serif" font-size="10.00">Controller.makeMenu</text>
</a>
</g>
</g>
<!-- Node2&#45;&gt;Node10 -->
<g id="edge9" class="edge"><title>Node2&#45;&gt;Node10</title>
<path fill="none" stroke="midnightblue" d="M319.588,-117.973C344.86,-100.208 389.596,-70.9233 432,-54 441.887,-50.0539 452.536,-46.6564 463.176,-43.7525"/>
<polygon fill="midnightblue" stroke="midnightblue" points="464.123,-47.1227 472.923,-41.2228 462.364,-40.3472 464.123,-47.1227"/>
</g>
<!-- Node5 -->
<g id="node5" class="node"><title>Node5</title>
<g id="a_node5"><a xlink:href="../../d8/dd2/classview_1_1_command_string.html#a666bbe4a67f0516444f5ee29cbb5e588" target="_top" xlink:title="view.CommandString.setCommand">
<polygon fill="white" stroke="black" points="692,-194.5 692,-213.5 878,-213.5 878,-194.5 692,-194.5"/>
<text text-anchor="middle" x="785" y="-201.5" font-family="Helvetica,sans-Serif" font-size="10.00">view.CommandString.setCommand</text>
</a>
</g>
</g>
<!-- Node4&#45;&gt;Node5 -->
<g id="edge4" class="edge"><title>Node4&#45;&gt;Node5</title>
<path fill="none" stroke="midnightblue" d="M653.816,-204C663.052,-204 672.37,-204 681.548,-204"/>
<polygon fill="midnightblue" stroke="midnightblue" points="681.839,-207.5 691.839,-204 681.839,-200.5 681.839,-207.5"/>
</g>
<!-- Node8 -->
<g id="node8" class="node"><title>Node8</title>
<g id="a_node8"><a xlink:href="../../db/db5/classview_1_1panes_1_1_view_pane_module.html#a7f8c12f243a5720a7e412dad9226f14c" target="_top" xlink:title="view.panes.ViewPaneModule.change\lGridVisibility">
<polygon fill="white" stroke="black" points="690.5,-96 690.5,-126 879.5,-126 879.5,-96 690.5,-96"/>
<text text-anchor="start" x="698.5" y="-114" font-family="Helvetica,sans-Serif" font-size="10.00">view.panes.ViewPaneModule.change</text>
<text text-anchor="middle" x="785" y="-103" font-family="Helvetica,sans-Serif" font-size="10.00">GridVisibility</text>
</a>
</g>
</g>
<!-- Node7&#45;&gt;Node8 -->
<g id="edge7" class="edge"><title>Node7&#45;&gt;Node8</title>
<path fill="none" stroke="midnightblue" d="M650.316,-111C660.18,-111 670.169,-111 680.011,-111"/>
<polygon fill="midnightblue" stroke="midnightblue" points="680.204,-114.5 690.204,-111 680.204,-107.5 680.204,-114.5"/>
</g>
<!-- Node11 -->
<g id="node11" class="node"><title>Node11</title>
<g id="a_node11"><a xlink:href="../../df/d94/classview_1_1controllers_1_1_language_controller.html#a28320ec7a669cf479a5a141b76805b1d" target="_top" xlink:title="view.controllers.Language\lController.setLanguage">
<polygon fill="white" stroke="black" points="715,-14 715,-44 855,-44 855,-14 715,-14"/>
<text text-anchor="start" x="723" y="-32" font-family="Helvetica,sans-Serif" font-size="10.00">view.controllers.Language</text>
<text text-anchor="middle" x="785" y="-21" font-family="Helvetica,sans-Serif" font-size="10.00">Controller.setLanguage</text>
</a>
</g>
</g>
<!-- Node10&#45;&gt;Node11 -->
<g id="edge10" class="edge"><title>Node10&#45;&gt;Node11</title>
<path fill="none" stroke="midnightblue" d="M613.096,-29C641.711,-29 675.066,-29 704.674,-29"/>
<polygon fill="midnightblue" stroke="midnightblue" points="704.976,-32.5001 714.976,-29 704.976,-25.5001 704.976,-32.5001"/>
</g>
<!-- Node12 -->
<g id="node12" class="node"><title>Node12</title>
<g id="a_node12"><a xlink:href="../../d8/dce/classcontroller_1_1_master_controller.html#ab5fbb9e4dc0f267847333f3d8c9ba5ea" target="_top" xlink:title="controller.MasterController.construct\lMasterController">
<polygon fill="white" stroke="black" points="916.5,-14 916.5,-44 1107.5,-44 1107.5,-14 916.5,-14"/>
<text text-anchor="start" x="924.5" y="-32" font-family="Helvetica,sans-Serif" font-size="10.00">controller.MasterController.construct</text>
<text text-anchor="middle" x="1012" y="-21" font-family="Helvetica,sans-Serif" font-size="10.00">MasterController</text>
</a>
</g>
</g>
<!-- Node11&#45;&gt;Node12 -->
<g id="edge11" class="edge"><title>Node11&#45;&gt;Node12</title>
<path fill="none" stroke="midnightblue" d="M855.037,-29C871.234,-29 888.853,-29 906.224,-29"/>
<polygon fill="midnightblue" stroke="midnightblue" points="906.411,-32.5001 916.411,-29 906.411,-25.5001 906.411,-32.5001"/>
</g>
<!-- Node13 -->
<g id="node13" class="node"><title>Node13</title>
<g id="a_node13"><a xlink:href="../../d8/dce/classcontroller_1_1_master_controller.html#a6872efed0600910c8ae37491e0f59a0e" target="_top" xlink:title="controller.MasterController.constructSet">
<polygon fill="white" stroke="black" points="1144.5,-38.5 1144.5,-57.5 1351.5,-57.5 1351.5,-38.5 1144.5,-38.5"/>
<text text-anchor="middle" x="1248" y="-45.5" font-family="Helvetica,sans-Serif" font-size="10.00">controller.MasterController.constructSet</text>
</a>
</g>
</g>
<!-- Node12&#45;&gt;Node13 -->
<g id="edge12" class="edge"><title>Node12&#45;&gt;Node13</title>
<path fill="none" stroke="midnightblue" d="M1107.5,-36.6733C1116.35,-37.3916 1125.38,-38.1245 1134.37,-38.8545"/>
<polygon fill="midnightblue" stroke="midnightblue" points="1134.24,-42.3558 1144.49,-39.6767 1134.81,-35.3788 1134.24,-42.3558"/>
</g>
<!-- Node14 -->
<g id="node14" class="node"><title>Node14</title>
<g id="a_node14"><a xlink:href="../../d6/d95/classparser_1_1_parser.html#a4f1e7ee432eb4d4377de4ce4202b139d" target="_top" xlink:title="parser.Parser.resetParser">
<polygon fill="white" stroke="black" points="1179.5,-0.5 1179.5,-19.5 1316.5,-19.5 1316.5,-0.5 1179.5,-0.5"/>
<text text-anchor="middle" x="1248" y="-7.5" font-family="Helvetica,sans-Serif" font-size="10.00">parser.Parser.resetParser</text>
</a>
</g>
</g>
<!-- Node12&#45;&gt;Node14 -->
<g id="edge13" class="edge"><title>Node12&#45;&gt;Node14</title>
<path fill="none" stroke="midnightblue" d="M1107.5,-21.3267C1128.03,-19.6604 1149.51,-17.9161 1169.29,-16.3095"/>
<polygon fill="midnightblue" stroke="midnightblue" points="1169.79,-19.7809 1179.47,-15.483 1169.22,-12.8039 1169.79,-19.7809"/>
</g>
</g>
</svg>
