<?xml version="1.0" encoding="UTF-8" standalone="no"?>
<!DOCTYPE svg PUBLIC "-//W3C//DTD SVG 1.1//EN"
 "http://www.w3.org/Graphics/SVG/1.1/DTD/svg11.dtd">
<!-- Generated by graphviz version 2.36.0 (20140111.2315)
 -->
<!-- Title: commands.IfCommand.executeCommand Pages: 1 -->
<svg width="1708pt" height="513pt"
 viewBox="0.00 0.00 1708.00 513.00" xmlns="http://www.w3.org/2000/svg" xmlns:xlink="http://www.w3.org/1999/xlink">
<g id="graph0" class="graph" transform="scale(1 1) rotate(0) translate(4 509)">
<title>commands.IfCommand.executeCommand</title>
<polygon fill="white" stroke="none" points="-4,4 -4,-509 1704,-509 1704,4 -4,4"/>
<!-- Node1 -->
<g id="node1" class="node"><title>Node1</title>
<polygon fill="#bfbfbf" stroke="black" points="0,-365 0,-395 170,-395 170,-365 0,-365"/>
<text text-anchor="start" x="8" y="-383" font-family="Helvetica,sans-Serif" font-size="10.00">commands.IfCommand.execute</text>
<text text-anchor="middle" x="85" y="-372" font-family="Helvetica,sans-Serif" font-size="10.00">Command</text>
</g>
<!-- Node2 -->
<g id="node2" class="node"><title>Node2</title>
<g id="a_node2"><a xlink:href="../../d3/d49/classcommands_1_1_if_else_command.html#a3b3d15925117d366a69f8ebd1dbc2dbc" target="_top" xlink:title="commands.IfElseCommand.execute\lCommand">
<polygon fill="white" stroke="black" points="210,-387 210,-417 400,-417 400,-387 210,-387"/>
<text text-anchor="start" x="218" y="-405" font-family="Helvetica,sans-Serif" font-size="10.00">commands.IfElseCommand.execute</text>
<text text-anchor="middle" x="305" y="-394" font-family="Helvetica,sans-Serif" font-size="10.00">Command</text>
</a>
</g>
</g>
<!-- Node1&#45;&gt;Node2 -->
<g id="edge1" class="edge"><title>Node1&#45;&gt;Node2</title>
<path fill="none" stroke="midnightblue" d="M170.284,-388.506C179.888,-389.475 189.763,-390.471 199.587,-391.463"/>
<polygon fill="midnightblue" stroke="midnightblue" points="199.493,-394.971 209.793,-392.493 200.195,-388.006 199.493,-394.971"/>
</g>
<!-- Node36 -->
<g id="node36" class="node"><title>Node36</title>
<g id="a_node36"><a xlink:href="../../dd/dd6/classcommands_1_1_command.html#a97daed7994c540f9a74bfbb0d7312c3c" target="_top" xlink:title="commands.Command.setParameters">
<polygon fill="white" stroke="black" points="206.5,-348.5 206.5,-367.5 403.5,-367.5 403.5,-348.5 206.5,-348.5"/>
<text text-anchor="middle" x="305" y="-355.5" font-family="Helvetica,sans-Serif" font-size="10.00">commands.Command.setParameters</text>
</a>
</g>
</g>
<!-- Node1&#45;&gt;Node36 -->
<g id="edge42" class="edge"><title>Node1&#45;&gt;Node36</title>
<path fill="none" stroke="midnightblue" d="M170.284,-371.494C179.888,-370.525 189.763,-369.529 199.587,-368.537"/>
<polygon fill="midnightblue" stroke="midnightblue" points="200.195,-371.994 209.793,-367.507 199.493,-365.029 200.195,-371.994"/>
</g>
<!-- Node3 -->
<g id="node3" class="node"><title>Node3</title>
<g id="a_node3"><a xlink:href="../../dd/dd6/classcommands_1_1_command.html#abafa69601e87c34d4453cf84349d6f9c" target="_top" xlink:title="commands.Command.execute\lCommand">
<polygon fill="white" stroke="black" points="440.5,-387 440.5,-417 605.5,-417 605.5,-387 440.5,-387"/>
<text text-anchor="start" x="448.5" y="-405" font-family="Helvetica,sans-Serif" font-size="10.00">commands.Command.execute</text>
<text text-anchor="middle" x="523" y="-394" font-family="Helvetica,sans-Serif" font-size="10.00">Command</text>
</a>
</g>
</g>
<!-- Node2&#45;&gt;Node3 -->
<g id="edge2" class="edge"><title>Node2&#45;&gt;Node3</title>
<path fill="none" stroke="midnightblue" d="M400.112,-402C410.069,-402 420.185,-402 430.116,-402"/>
<polygon fill="midnightblue" stroke="midnightblue" points="430.383,-405.5 440.383,-402 430.383,-398.5 430.383,-405.5"/>
</g>
<!-- Node4 -->
<g id="node4" class="node"><title>Node4</title>
<g id="a_node4"><a xlink:href="../../df/d50/classmodel_1_1_turtle_set_manager.html#a9a65c0be3b9c21abaf0ebaa54e5b8484" target="_top" xlink:title="model.TurtleSetManager.get\lActiveTurtles">
<polygon fill="white" stroke="black" points="1128,-450 1128,-480 1280,-480 1280,-450 1128,-450"/>
<text text-anchor="start" x="1136" y="-468" font-family="Helvetica,sans-Serif" font-size="10.00">model.TurtleSetManager.get</text>
<text text-anchor="middle" x="1204" y="-457" font-family="Helvetica,sans-Serif" font-size="10.00">ActiveTurtles</text>
</a>
</g>
</g>
<!-- Node3&#45;&gt;Node4 -->
<g id="edge3" class="edge"><title>Node3&#45;&gt;Node4</title>
<path fill="none" stroke="midnightblue" d="M605.745,-416.85C617.874,-418.764 630.245,-420.556 642,-422 810.057,-442.639 1007.73,-455.043 1117.87,-460.901"/>
<polygon fill="midnightblue" stroke="midnightblue" points="1117.75,-464.4 1127.92,-461.431 1118.12,-457.409 1117.75,-464.4"/>
</g>
<!-- Node5 -->
<g id="node5" class="node"><title>Node5</title>
<g id="a_node5"><a xlink:href="../../d3/d42/classmodel_1_1_model.html#a1a683ba5e58fcb3c8882c8e61df20dc0" target="_top" xlink:title="model.Model.getTurtleManager">
<polygon fill="white" stroke="black" points="1122,-411.5 1122,-430.5 1286,-430.5 1286,-411.5 1122,-411.5"/>
<text text-anchor="middle" x="1204" y="-418.5" font-family="Helvetica,sans-Serif" font-size="10.00">model.Model.getTurtleManager</text>
</a>
</g>
</g>
<!-- Node3&#45;&gt;Node5 -->
<g id="edge4" class="edge"><title>Node3&#45;&gt;Node5</title>
<path fill="none" stroke="midnightblue" d="M605.566,-404.282C732.974,-407.848 978.389,-414.715 1111.59,-418.442"/>
<polygon fill="midnightblue" stroke="midnightblue" points="1111.68,-421.946 1121.77,-418.727 1111.87,-414.949 1111.68,-421.946"/>
</g>
<!-- Node6 -->
<g id="node6" class="node"><title>Node6</title>
<g id="a_node6"><a xlink:href="../../d3/d42/classmodel_1_1_model.html#a76160d002c1e68b566307ac44356f6e5" target="_top" xlink:title="model.Model.notifyView">
<polygon fill="white" stroke="black" points="670.5,-373.5 670.5,-392.5 799.5,-392.5 799.5,-373.5 670.5,-373.5"/>
<text text-anchor="middle" x="735" y="-380.5" font-family="Helvetica,sans-Serif" font-size="10.00">model.Model.notifyView</text>
</a>
</g>
</g>
<!-- Node3&#45;&gt;Node6 -->
<g id="edge5" class="edge"><title>Node3&#45;&gt;Node6</title>
<path fill="none" stroke="midnightblue" d="M605.793,-394.6C623.699,-392.98 642.553,-391.274 660.128,-389.684"/>
<polygon fill="midnightblue" stroke="midnightblue" points="660.668,-393.149 670.312,-388.762 660.037,-386.178 660.668,-393.149"/>
</g>
<!-- Node35 -->
<g id="node35" class="node"><title>Node35</title>
<g id="a_node35"><a xlink:href="../../dd/dd6/classcommands_1_1_command.html#aec3e0f888945b1811fd739ecea212324" target="_top" xlink:title="commands.Command.updateTurtle">
<polygon fill="white" stroke="black" points="642,-335.5 642,-354.5 828,-354.5 828,-335.5 642,-335.5"/>
<text text-anchor="middle" x="735" y="-342.5" font-family="Helvetica,sans-Serif" font-size="10.00">commands.Command.updateTurtle</text>
</a>
</g>
</g>
<!-- Node3&#45;&gt;Node35 -->
<g id="edge41" class="edge"><title>Node3&#45;&gt;Node35</title>
<path fill="none" stroke="midnightblue" d="M566.826,-386.978C589.079,-379.487 616.817,-370.634 642,-364 651.92,-361.387 662.519,-358.91 672.865,-356.662"/>
<polygon fill="midnightblue" stroke="midnightblue" points="673.621,-360.079 682.675,-354.579 672.167,-353.232 673.621,-360.079"/>
</g>
<!-- Node7 -->
<g id="node7" class="node"><title>Node7</title>
<g id="a_node7"><a xlink:href="../../db/db5/classview_1_1panes_1_1_view_pane_module.html#aa2a1bf15bc036ee4237bf63749d85baf" target="_top" xlink:title="view.panes.ViewPaneModule.updateView">
<polygon fill="white" stroke="black" points="864.5,-244.5 864.5,-263.5 1073.5,-263.5 1073.5,-244.5 864.5,-244.5"/>
<text text-anchor="middle" x="969" y="-251.5" font-family="Helvetica,sans-Serif" font-size="10.00">view.panes.ViewPaneModule.updateView</text>
</a>
</g>
</g>
<!-- Node6&#45;&gt;Node7 -->
<g id="edge6" class="edge"><title>Node6&#45;&gt;Node7</title>
<path fill="none" stroke="midnightblue" d="M799.601,-373.891C809.356,-371.356 819.125,-368.122 828,-364 878.593,-340.501 927.429,-295.468 951.843,-270.94"/>
<polygon fill="midnightblue" stroke="midnightblue" points="954.387,-273.344 958.882,-263.75 949.385,-268.447 954.387,-273.344"/>
</g>
<!-- Node7&#45;&gt;Node4 -->
<g id="edge11" class="edge"><title>Node7&#45;&gt;Node4</title>
<path fill="none" stroke="midnightblue" d="M974.485,-263.902C989.117,-295.048 1038.66,-391.812 1110,-440 1112.93,-441.978 1116.01,-443.801 1119.19,-445.479"/>
<polygon fill="midnightblue" stroke="midnightblue" points="1117.88,-448.727 1128.41,-449.838 1120.87,-442.399 1117.88,-448.727"/>
</g>
<!-- Node7&#45;&gt;Node5 -->
<g id="edge10" class="edge"><title>Node7&#45;&gt;Node5</title>
<path fill="none" stroke="midnightblue" d="M976.175,-263.786C993.598,-290.518 1046.05,-365.162 1110,-401 1114.86,-403.725 1120.06,-406.079 1125.42,-408.113"/>
<polygon fill="midnightblue" stroke="midnightblue" points="1124.61,-411.533 1135.2,-411.438 1126.86,-404.906 1124.61,-411.533"/>
</g>
<!-- Node8 -->
<g id="node8" class="node"><title>Node8</title>
<g id="a_node8"><a xlink:href="../../d3/d42/classmodel_1_1_model.html#a54936407d7df5ab8ef3c0ae54bcdc0ed" target="_top" xlink:title="model.Model.getBackground\lColor">
<polygon fill="white" stroke="black" points="1127,-264 1127,-294 1281,-294 1281,-264 1127,-264"/>
<text text-anchor="start" x="1135" y="-282" font-family="Helvetica,sans-Serif" font-size="10.00">model.Model.getBackground</text>
<text text-anchor="middle" x="1204" y="-271" font-family="Helvetica,sans-Serif" font-size="10.00">Color</text>
</a>
</g>
</g>
<!-- Node7&#45;&gt;Node8 -->
<g id="edge7" class="edge"><title>Node7&#45;&gt;Node8</title>
<path fill="none" stroke="midnightblue" d="M1058.75,-263.523C1077.72,-265.558 1097.73,-267.705 1116.61,-269.73"/>
<polygon fill="midnightblue" stroke="midnightblue" points="1116.35,-273.223 1126.66,-270.809 1117.09,-266.263 1116.35,-273.223"/>
</g>
<!-- Node9 -->
<g id="node9" class="node"><title>Node9</title>
<g id="a_node9"><a xlink:href="../../db/db5/classview_1_1panes_1_1_view_pane_module.html#ac94ee444587349ddad19b8caee500c9c" target="_top" xlink:title="view.panes.ViewPaneModule.update\lBGColor">
<polygon fill="white" stroke="black" points="1110,-215 1110,-245 1298,-245 1298,-215 1110,-215"/>
<text text-anchor="start" x="1118" y="-233" font-family="Helvetica,sans-Serif" font-size="10.00">view.panes.ViewPaneModule.update</text>
<text text-anchor="middle" x="1204" y="-222" font-family="Helvetica,sans-Serif" font-size="10.00">BGColor</text>
</a>
</g>
</g>
<!-- Node7&#45;&gt;Node9 -->
<g id="edge8" class="edge"><title>Node7&#45;&gt;Node9</title>
<path fill="none" stroke="midnightblue" d="M1062.42,-244.48C1074.75,-243.21 1087.46,-241.901 1099.96,-240.614"/>
<polygon fill="midnightblue" stroke="midnightblue" points="1100.34,-244.093 1109.93,-239.587 1099.62,-237.13 1100.34,-244.093"/>
</g>
<!-- Node10 -->
<g id="node10" class="node"><title>Node10</title>
<g id="a_node10"><a xlink:href="../../db/db5/classview_1_1panes_1_1_view_pane_module.html#abe91f8bb732e99d762bdaba51ceae04b" target="_top" xlink:title="view.panes.ViewPaneModule.toRGB">
<polygon fill="white" stroke="black" points="1112,-176.5 1112,-195.5 1296,-195.5 1296,-176.5 1112,-176.5"/>
<text text-anchor="middle" x="1204" y="-183.5" font-family="Helvetica,sans-Serif" font-size="10.00">view.panes.ViewPaneModule.toRGB</text>
</a>
</g>
</g>
<!-- Node7&#45;&gt;Node10 -->
<g id="edge9" class="edge"><title>Node7&#45;&gt;Node10</title>
<path fill="none" stroke="midnightblue" d="M993.966,-244.496C1021.6,-233.802 1068.54,-216.433 1110,-205 1119.65,-202.338 1129.96,-199.87 1140.07,-197.653"/>
<polygon fill="midnightblue" stroke="midnightblue" points="1141.03,-201.027 1150.08,-195.522 1139.57,-194.181 1141.03,-201.027"/>
</g>
<!-- Node11 -->
<g id="node11" class="node"><title>Node11</title>
<g id="a_node11"><a xlink:href="../../df/d50/classmodel_1_1_turtle_set_manager.html#a9e215e93eccbed2ab9ebec6119cfe305" target="_top" xlink:title="model.TurtleSetManager.get\lAllTurtles">
<polygon fill="white" stroke="black" points="1128,-127 1128,-157 1280,-157 1280,-127 1128,-127"/>
<text text-anchor="start" x="1136" y="-145" font-family="Helvetica,sans-Serif" font-size="10.00">model.TurtleSetManager.get</text>
<text text-anchor="middle" x="1204" y="-134" font-family="Helvetica,sans-Serif" font-size="10.00">AllTurtles</text>
</a>
</g>
</g>
<!-- Node7&#45;&gt;Node11 -->
<g id="edge12" class="edge"><title>Node7&#45;&gt;Node11</title>
<path fill="none" stroke="midnightblue" d="M982.796,-244.229C1006.61,-226.475 1059.86,-188.753 1110,-167 1115.64,-164.555 1121.57,-162.296 1127.6,-160.221"/>
<polygon fill="midnightblue" stroke="midnightblue" points="1128.71,-163.542 1137.13,-157.112 1126.54,-156.887 1128.71,-163.542"/>
</g>
<!-- Node12 -->
<g id="node12" class="node"><title>Node12</title>
<g id="a_node12"><a xlink:href="../../d3/d42/classmodel_1_1_model.html#af73e838aed2c068e8f7d31bfa1cc88d7" target="_top" xlink:title="model.Model.getStamp">
<polygon fill="white" stroke="black" points="1139.5,-88.5 1139.5,-107.5 1268.5,-107.5 1268.5,-88.5 1139.5,-88.5"/>
<text text-anchor="middle" x="1204" y="-95.5" font-family="Helvetica,sans-Serif" font-size="10.00">model.Model.getStamp</text>
</a>
</g>
</g>
<!-- Node7&#45;&gt;Node12 -->
<g id="edge13" class="edge"><title>Node7&#45;&gt;Node12</title>
<path fill="none" stroke="midnightblue" d="M976.59,-244.492C994.663,-219.21 1047.82,-150.008 1110,-117 1116.06,-113.781 1122.62,-111.107 1129.34,-108.885"/>
<polygon fill="midnightblue" stroke="midnightblue" points="1130.68,-112.139 1139.27,-105.943 1128.69,-105.427 1130.68,-112.139"/>
</g>
<!-- Node13 -->
<g id="node13" class="node"><title>Node13</title>
<g id="a_node13"><a xlink:href="../../db/db5/classview_1_1panes_1_1_view_pane_module.html#a44db6ae832af3ce470baa9406142b8cb" target="_top" xlink:title="view.panes.ViewPaneModule.make\lStamps">
<polygon fill="white" stroke="black" points="1113.5,-39 1113.5,-69 1294.5,-69 1294.5,-39 1113.5,-39"/>
<text text-anchor="start" x="1121.5" y="-57" font-family="Helvetica,sans-Serif" font-size="10.00">view.panes.ViewPaneModule.make</text>
<text text-anchor="middle" x="1204" y="-46" font-family="Helvetica,sans-Serif" font-size="10.00">Stamps</text>
</a>
</g>
</g>
<!-- Node7&#45;&gt;Node13 -->
<g id="edge14" class="edge"><title>Node7&#45;&gt;Node13</title>
<path fill="none" stroke="midnightblue" d="M974.868,-244.27C990.262,-214.536 1040.97,-124.158 1110,-79 1113.12,-76.9577 1116.41,-75.0815 1119.8,-73.358"/>
<polygon fill="midnightblue" stroke="midnightblue" points="1121.37,-76.488 1129.01,-69.143 1118.46,-70.1233 1121.37,-76.488"/>
</g>
<!-- Node20 -->
<g id="node20" class="node"><title>Node20</title>
<g id="a_node20"><a xlink:href="../../d3/d42/classmodel_1_1_model.html#a0a457f31350a460e11dc864463e0d8ff" target="_top" xlink:title="model.Model.setStamp">
<polygon fill="white" stroke="black" points="1140,-0.5 1140,-19.5 1268,-19.5 1268,-0.5 1140,-0.5"/>
<text text-anchor="middle" x="1204" y="-7.5" font-family="Helvetica,sans-Serif" font-size="10.00">model.Model.setStamp</text>
</a>
</g>
</g>
<!-- Node7&#45;&gt;Node20 -->
<g id="edge21" class="edge"><title>Node7&#45;&gt;Node20</title>
<path fill="none" stroke="midnightblue" d="M972.896,-244.385C984.036,-209.166 1027.67,-86.28 1110,-29 1116.05,-24.7942 1122.81,-21.4778 1129.87,-18.8684"/>
<polygon fill="midnightblue" stroke="midnightblue" points="1131.18,-22.1242 1139.63,-15.7312 1129.03,-15.4602 1131.18,-22.1242"/>
</g>
<!-- Node21 -->
<g id="node21" class="node"><title>Node21</title>
<g id="a_node21"><a xlink:href="../../db/db5/classview_1_1panes_1_1_view_pane_module.html#a7ad9ad27137ffdf0ea96753a22da236b" target="_top" xlink:title="view.panes.ViewPaneModule.erase\lStamps">
<polygon fill="white" stroke="black" points="1113.5,-362 1113.5,-392 1294.5,-392 1294.5,-362 1113.5,-362"/>
<text text-anchor="start" x="1121.5" y="-380" font-family="Helvetica,sans-Serif" font-size="10.00">view.panes.ViewPaneModule.erase</text>
<text text-anchor="middle" x="1204" y="-369" font-family="Helvetica,sans-Serif" font-size="10.00">Stamps</text>
</a>
</g>
</g>
<!-- Node7&#45;&gt;Node21 -->
<g id="edge22" class="edge"><title>Node7&#45;&gt;Node21</title>
<path fill="none" stroke="midnightblue" d="M980.783,-263.574C1003.23,-283.026 1057.31,-327.407 1110,-352 1115.24,-354.446 1120.76,-356.688 1126.4,-358.735"/>
<polygon fill="midnightblue" stroke="midnightblue" points="1125.35,-362.078 1135.95,-362 1127.62,-355.454 1125.35,-362.078"/>
</g>
<!-- Node23 -->
<g id="node23" class="node"><title>Node23</title>
<g id="a_node23"><a xlink:href="../../db/db5/classview_1_1panes_1_1_view_pane_module.html#ab55ce3511929b88a2cd1235eb694868f" target="_top" xlink:title="view.panes.ViewPaneModule.update\lTurtle">
<polygon fill="white" stroke="black" points="1110,-313 1110,-343 1298,-343 1298,-313 1110,-313"/>
<text text-anchor="start" x="1118" y="-331" font-family="Helvetica,sans-Serif" font-size="10.00">view.panes.ViewPaneModule.update</text>
<text text-anchor="middle" x="1204" y="-320" font-family="Helvetica,sans-Serif" font-size="10.00">Turtle</text>
</a>
</g>
</g>
<!-- Node7&#45;&gt;Node23 -->
<g id="edge24" class="edge"><title>Node7&#45;&gt;Node23</title>
<path fill="none" stroke="midnightblue" d="M995.359,-263.512C1023.26,-273.829 1069.53,-290.496 1110,-303 1117.92,-305.447 1126.27,-307.885 1134.57,-310.224"/>
<polygon fill="midnightblue" stroke="midnightblue" points="1133.7,-313.615 1144.27,-312.92 1135.57,-306.871 1133.7,-313.615"/>
</g>
<!-- Node14 -->
<g id="node14" class="node"><title>Node14</title>
<g id="a_node14"><a xlink:href="../../d7/da6/classview_1_1_turtle_draw.html#a939f4fdbdb66457c9dcee82eb4ae6d9c" target="_top" xlink:title="view.TurtleDraw.drawTurtle">
<polygon fill="white" stroke="black" points="1342.5,-67.5 1342.5,-86.5 1481.5,-86.5 1481.5,-67.5 1342.5,-67.5"/>
<text text-anchor="middle" x="1412" y="-74.5" font-family="Helvetica,sans-Serif" font-size="10.00">view.TurtleDraw.drawTurtle</text>
</a>
</g>
</g>
<!-- Node13&#45;&gt;Node14 -->
<g id="edge15" class="edge"><title>Node13&#45;&gt;Node14</title>
<path fill="none" stroke="midnightblue" d="M1294.76,-64.0212C1307.21,-65.4115 1319.92,-66.831 1332.15,-68.1968"/>
<polygon fill="midnightblue" stroke="midnightblue" points="1331.97,-71.6983 1342.3,-69.3296 1332.75,-64.7415 1331.97,-71.6983"/>
</g>
<!-- Node17 -->
<g id="node17" class="node"><title>Node17</title>
<g id="a_node17"><a xlink:href="../../d7/da6/classview_1_1_turtle_draw.html#a14678068d3fc9d3b6e1067bc372f6030" target="_top" xlink:title="view.TurtleDraw.showTurtle">
<polygon fill="white" stroke="black" points="1342,-29.5 1342,-48.5 1482,-48.5 1482,-29.5 1342,-29.5"/>
<text text-anchor="middle" x="1412" y="-36.5" font-family="Helvetica,sans-Serif" font-size="10.00">view.TurtleDraw.showTurtle</text>
</a>
</g>
</g>
<!-- Node13&#45;&gt;Node17 -->
<g id="edge18" class="edge"><title>Node13&#45;&gt;Node17</title>
<path fill="none" stroke="midnightblue" d="M1294.76,-47.4644C1307.12,-46.5639 1319.75,-45.6445 1331.9,-44.7594"/>
<polygon fill="midnightblue" stroke="midnightblue" points="1332.27,-48.2422 1341.99,-44.0251 1331.76,-41.2607 1332.27,-48.2422"/>
</g>
<!-- Node18 -->
<g id="node18" class="node"><title>Node18</title>
<g id="a_node18"><a xlink:href="../../d7/da6/classview_1_1_turtle_draw.html#a8c2cab38eb294b26aea1ae17595ba2a6" target="_top" xlink:title="view.TurtleDraw.moveTurtle">
<polygon fill="white" stroke="black" points="1340.5,-143.5 1340.5,-162.5 1483.5,-162.5 1483.5,-143.5 1340.5,-143.5"/>
<text text-anchor="middle" x="1412" y="-150.5" font-family="Helvetica,sans-Serif" font-size="10.00">view.TurtleDraw.moveTurtle</text>
</a>
</g>
</g>
<!-- Node13&#45;&gt;Node18 -->
<g id="edge19" class="edge"><title>Node13&#45;&gt;Node18</title>
<path fill="none" stroke="midnightblue" d="M1280.8,-69.1906C1286.89,-71.9348 1292.72,-75.1748 1298,-79 1321.66,-96.1392 1310.16,-117.106 1334,-134 1336.84,-136.012 1339.87,-137.811 1343.02,-139.421"/>
<polygon fill="midnightblue" stroke="midnightblue" points="1341.62,-142.629 1352.18,-143.474 1344.45,-136.227 1341.62,-142.629"/>
</g>
<!-- Node19 -->
<g id="node19" class="node"><title>Node19</title>
<g id="a_node19"><a xlink:href="../../d7/da6/classview_1_1_turtle_draw.html#a5004a16526a67f090d7da45474b5136e" target="_top" xlink:title="view.TurtleDraw.setAngle">
<polygon fill="white" stroke="black" points="1345.5,-105.5 1345.5,-124.5 1478.5,-124.5 1478.5,-105.5 1345.5,-105.5"/>
<text text-anchor="middle" x="1412" y="-112.5" font-family="Helvetica,sans-Serif" font-size="10.00">view.TurtleDraw.setAngle</text>
</a>
</g>
</g>
<!-- Node13&#45;&gt;Node19 -->
<g id="edge20" class="edge"><title>Node13&#45;&gt;Node19</title>
<path fill="none" stroke="midnightblue" d="M1267.02,-69.0126C1277.46,-72.0119 1288.11,-75.3695 1298,-79 1314.61,-85.0988 1317.33,-90.0733 1334,-96 1341.04,-98.5012 1348.55,-100.795 1356.02,-102.858"/>
<polygon fill="midnightblue" stroke="midnightblue" points="1355.2,-106.264 1365.77,-105.434 1356.99,-99.4958 1355.2,-106.264"/>
</g>
<!-- Node15 -->
<g id="node15" class="node"><title>Node15</title>
<g id="a_node15"><a xlink:href="../../d6/d34/classmodel_1_1_turtle.html#a942dbeb1d7e2bc19b6870538c2c3a7d2" target="_top" xlink:title="model.Turtle.getShape">
<polygon fill="white" stroke="black" points="1550.5,-89.5 1550.5,-108.5 1675.5,-108.5 1675.5,-89.5 1550.5,-89.5"/>
<text text-anchor="middle" x="1613" y="-96.5" font-family="Helvetica,sans-Serif" font-size="10.00">model.Turtle.getShape</text>
</a>
</g>
</g>
<!-- Node14&#45;&gt;Node15 -->
<g id="edge16" class="edge"><title>Node14&#45;&gt;Node15</title>
<path fill="none" stroke="midnightblue" d="M1481.76,-84.602C1500.62,-86.6865 1521.11,-88.9515 1540.13,-91.0547"/>
<polygon fill="midnightblue" stroke="midnightblue" points="1539.91,-94.5509 1550.23,-92.1711 1540.67,-87.5933 1539.91,-94.5509"/>
</g>
<!-- Node16 -->
<g id="node16" class="node"><title>Node16</title>
<g id="a_node16"><a xlink:href="../../d3/db7/classview_1_1controllers_1_1_image_palette.html#a8a6620714bc12d5a00b97e99299a7040" target="_top" xlink:title="view.controllers.ImagePalette.get\lImage">
<polygon fill="white" stroke="black" points="1526,-40 1526,-70 1700,-70 1700,-40 1526,-40"/>
<text text-anchor="start" x="1534" y="-58" font-family="Helvetica,sans-Serif" font-size="10.00">view.controllers.ImagePalette.get</text>
<text text-anchor="middle" x="1613" y="-47" font-family="Helvetica,sans-Serif" font-size="10.00">Image</text>
</a>
</g>
</g>
<!-- Node14&#45;&gt;Node16 -->
<g id="edge17" class="edge"><title>Node14&#45;&gt;Node16</title>
<path fill="none" stroke="midnightblue" d="M1481.76,-69.398C1492.71,-68.1877 1504.21,-66.9165 1515.65,-65.6514"/>
<polygon fill="midnightblue" stroke="midnightblue" points="1516.13,-69.1206 1525.68,-64.5429 1515.36,-62.163 1516.13,-69.1206"/>
</g>
<!-- Node22 -->
<g id="node22" class="node"><title>Node22</title>
<g id="a_node22"><a xlink:href="../../d7/da6/classview_1_1_turtle_draw.html#acb97dedda080cb5ed17031d2b31adc2c" target="_top" xlink:title="view.TurtleDraw.hideTurtle">
<polygon fill="white" stroke="black" points="1343.5,-485.5 1343.5,-504.5 1480.5,-504.5 1480.5,-485.5 1343.5,-485.5"/>
<text text-anchor="middle" x="1412" y="-492.5" font-family="Helvetica,sans-Serif" font-size="10.00">view.TurtleDraw.hideTurtle</text>
</a>
</g>
</g>
<!-- Node21&#45;&gt;Node22 -->
<g id="edge23" class="edge"><title>Node21&#45;&gt;Node22</title>
<path fill="none" stroke="midnightblue" d="M1282.72,-392.164C1288.18,-394.918 1293.36,-398.167 1298,-402 1326.2,-425.29 1305.56,-453.003 1334,-476 1336.26,-477.826 1338.67,-479.48 1341.19,-480.979"/>
<polygon fill="midnightblue" stroke="midnightblue" points="1339.62,-484.107 1350.12,-485.495 1342.77,-477.86 1339.62,-484.107"/>
</g>
<!-- Node23&#45;&gt;Node14 -->
<g id="edge26" class="edge"><title>Node23&#45;&gt;Node14</title>
<path fill="none" stroke="midnightblue" d="M1286.14,-312.879C1290.49,-310.093 1294.5,-306.827 1298,-303 1360.98,-234.053 1270.31,-164.292 1334,-96 1335.23,-94.6847 1336.53,-93.4541 1337.9,-92.303"/>
<polygon fill="midnightblue" stroke="midnightblue" points="1340.06,-95.0665 1346.35,-86.544 1336.11,-89.2813 1340.06,-95.0665"/>
</g>
<!-- Node23&#45;&gt;Node17 -->
<g id="edge27" class="edge"><title>Node23&#45;&gt;Node17</title>
<path fill="none" stroke="midnightblue" d="M1286.26,-312.985C1290.58,-310.173 1294.56,-306.872 1298,-303 1371.15,-220.771 1260,-139.468 1334,-58 1335.07,-56.8215 1336.2,-55.7107 1337.38,-54.6639"/>
<polygon fill="midnightblue" stroke="midnightblue" points="1339.74,-57.2816 1345.88,-48.6446 1335.7,-51.5698 1339.74,-57.2816"/>
</g>
<!-- Node23&#45;&gt;Node18 -->
<g id="edge40" class="edge"><title>Node23&#45;&gt;Node18</title>
<path fill="none" stroke="midnightblue" d="M1284.86,-312.995C1289.64,-310.193 1294.09,-306.89 1298,-303 1340.81,-260.424 1290.75,-214.131 1334,-172 1335.48,-170.559 1337.05,-169.221 1338.7,-167.98"/>
<polygon fill="midnightblue" stroke="midnightblue" points="1340.82,-170.784 1347.48,-162.546 1337.13,-164.832 1340.82,-170.784"/>
</g>
<!-- Node23&#45;&gt;Node19 -->
<g id="edge38" class="edge"><title>Node23&#45;&gt;Node19</title>
<path fill="none" stroke="midnightblue" d="M1285.55,-312.99C1290.1,-310.183 1294.32,-306.881 1298,-303 1350.85,-247.284 1280.57,-189.166 1334,-134 1335.25,-132.708 1336.58,-131.498 1337.96,-130.366"/>
<polygon fill="midnightblue" stroke="midnightblue" points="1340.11,-133.14 1346.5,-124.692 1336.24,-127.309 1340.11,-133.14"/>
</g>
<!-- Node23&#45;&gt;Node22 -->
<g id="edge28" class="edge"><title>Node23&#45;&gt;Node22</title>
<path fill="none" stroke="midnightblue" d="M1286.5,-343.202C1290.65,-345.72 1294.53,-348.632 1298,-352 1339.18,-391.965 1292.61,-436.254 1334,-476 1335.49,-477.43 1337.07,-478.759 1338.72,-479.991"/>
<polygon fill="midnightblue" stroke="midnightblue" points="1337.18,-483.152 1347.54,-485.394 1340.84,-477.184 1337.18,-483.152"/>
</g>
<!-- Node24 -->
<g id="node24" class="node"><title>Node24</title>
<g id="a_node24"><a xlink:href="../../d6/d34/classmodel_1_1_turtle.html#ae79a1eae7eed55d121c3b85299ae14ba" target="_top" xlink:title="model.Turtle.getID">
<polygon fill="white" stroke="black" points="1360,-257.5 1360,-276.5 1464,-276.5 1464,-257.5 1360,-257.5"/>
<text text-anchor="middle" x="1412" y="-264.5" font-family="Helvetica,sans-Serif" font-size="10.00">model.Turtle.getID</text>
</a>
</g>
</g>
<!-- Node23&#45;&gt;Node24 -->
<g id="edge25" class="edge"><title>Node23&#45;&gt;Node24</title>
<path fill="none" stroke="midnightblue" d="M1267.02,-312.987C1277.46,-309.988 1288.11,-306.63 1298,-303 1314.61,-296.901 1317.33,-291.927 1334,-286 1341.04,-283.499 1348.55,-281.205 1356.02,-279.142"/>
<polygon fill="midnightblue" stroke="midnightblue" points="1356.99,-282.504 1365.77,-276.566 1355.2,-275.736 1356.99,-282.504"/>
</g>
<!-- Node25 -->
<g id="node25" class="node"><title>Node25</title>
<g id="a_node25"><a xlink:href="../../d6/d34/classmodel_1_1_turtle.html#a279f2bdb3fa955acdd52b7824ec3cd04" target="_top" xlink:title="model.Turtle.getPenStatus">
<polygon fill="white" stroke="black" points="1340.5,-219.5 1340.5,-238.5 1483.5,-238.5 1483.5,-219.5 1340.5,-219.5"/>
<text text-anchor="middle" x="1412" y="-226.5" font-family="Helvetica,sans-Serif" font-size="10.00">model.Turtle.getPenStatus</text>
</a>
</g>
</g>
<!-- Node23&#45;&gt;Node25 -->
<g id="edge29" class="edge"><title>Node23&#45;&gt;Node25</title>
<path fill="none" stroke="midnightblue" d="M1280.8,-312.809C1286.89,-310.065 1292.72,-306.825 1298,-303 1321.66,-285.861 1310.16,-264.894 1334,-248 1336.84,-245.988 1339.87,-244.189 1343.02,-242.579"/>
<polygon fill="midnightblue" stroke="midnightblue" points="1344.45,-245.773 1352.18,-238.526 1341.62,-239.371 1344.45,-245.773"/>
</g>
<!-- Node27 -->
<g id="node27" class="node"><title>Node27</title>
<g id="a_node27"><a xlink:href="../../d7/da6/classview_1_1_turtle_draw.html#a1325ca376115619f15f5014eb4c5ad2a" target="_top" xlink:title="view.TurtleDraw.drawLine">
<polygon fill="white" stroke="black" points="1345.5,-181.5 1345.5,-200.5 1478.5,-200.5 1478.5,-181.5 1345.5,-181.5"/>
<text text-anchor="middle" x="1412" y="-188.5" font-family="Helvetica,sans-Serif" font-size="10.00">view.TurtleDraw.drawLine</text>
</a>
</g>
</g>
<!-- Node23&#45;&gt;Node27 -->
<g id="edge31" class="edge"><title>Node23&#45;&gt;Node27</title>
<path fill="none" stroke="midnightblue" d="M1283.98,-312.777C1289.03,-310.031 1293.77,-306.799 1298,-303 1330.97,-273.376 1300.73,-239.282 1334,-210 1335.76,-208.448 1337.63,-207.018 1339.59,-205.702"/>
<polygon fill="midnightblue" stroke="midnightblue" points="1341.63,-208.57 1348.64,-200.624 1338.2,-202.465 1341.63,-208.57"/>
</g>
<!-- Node28 -->
<g id="node28" class="node"><title>Node28</title>
<g id="a_node28"><a xlink:href="../../d6/d34/classmodel_1_1_turtle.html#a832234461564763f8330181b3c1163ff" target="_top" xlink:title="model.Turtle.getPrevLocation">
<polygon fill="white" stroke="black" points="1334.5,-447.5 1334.5,-466.5 1489.5,-466.5 1489.5,-447.5 1334.5,-447.5"/>
<text text-anchor="middle" x="1412" y="-454.5" font-family="Helvetica,sans-Serif" font-size="10.00">model.Turtle.getPrevLocation</text>
</a>
</g>
</g>
<!-- Node23&#45;&gt;Node28 -->
<g id="edge32" class="edge"><title>Node23&#45;&gt;Node28</title>
<path fill="none" stroke="midnightblue" d="M1285.18,-343.19C1289.77,-345.701 1294.09,-348.617 1298,-352 1329.33,-379.118 1302.53,-411.049 1334,-438 1335.97,-439.685 1338.06,-441.225 1340.25,-442.632"/>
<polygon fill="midnightblue" stroke="midnightblue" points="1338.67,-445.752 1349.13,-447.426 1341.99,-439.593 1338.67,-445.752"/>
</g>
<!-- Node29 -->
<g id="node29" class="node"><title>Node29</title>
<g id="a_node29"><a xlink:href="../../d6/d34/classmodel_1_1_turtle.html#a2470b9b4ef48a261324047de8ebdc242" target="_top" xlink:title="model.Turtle.getNewLocation">
<polygon fill="white" stroke="black" points="1334.5,-409.5 1334.5,-428.5 1489.5,-428.5 1489.5,-409.5 1334.5,-409.5"/>
<text text-anchor="middle" x="1412" y="-416.5" font-family="Helvetica,sans-Serif" font-size="10.00">model.Turtle.getNewLocation</text>
</a>
</g>
</g>
<!-- Node23&#45;&gt;Node29 -->
<g id="edge33" class="edge"><title>Node23&#45;&gt;Node29</title>
<path fill="none" stroke="midnightblue" d="M1281.48,-343.106C1287.29,-345.626 1292.87,-348.568 1298,-352 1320.16,-366.835 1311.76,-385.283 1334,-400 1337.11,-402.059 1340.43,-403.895 1343.87,-405.532"/>
<polygon fill="midnightblue" stroke="midnightblue" points="1342.64,-408.811 1353.22,-409.417 1345.32,-402.347 1342.64,-408.811"/>
</g>
<!-- Node30 -->
<g id="node30" class="node"><title>Node30</title>
<g id="a_node30"><a xlink:href="../../d6/d34/classmodel_1_1_turtle.html#a19c059b1cbfbd4e8f046ec2403de3fb9" target="_top" xlink:title="model.Turtle.getPenDash">
<polygon fill="white" stroke="black" points="1343.5,-371.5 1343.5,-390.5 1480.5,-390.5 1480.5,-371.5 1343.5,-371.5"/>
<text text-anchor="middle" x="1412" y="-378.5" font-family="Helvetica,sans-Serif" font-size="10.00">model.Turtle.getPenDash</text>
</a>
</g>
</g>
<!-- Node23&#45;&gt;Node30 -->
<g id="edge34" class="edge"><title>Node23&#45;&gt;Node30</title>
<path fill="none" stroke="midnightblue" d="M1264.08,-343.072C1275.35,-345.997 1287.05,-349.066 1298,-352 1314.04,-356.297 1317.94,-357.788 1334,-362 1342.9,-364.334 1352.4,-366.744 1361.58,-369.031"/>
<polygon fill="midnightblue" stroke="midnightblue" points="1360.83,-372.45 1371.38,-371.456 1362.51,-365.655 1360.83,-372.45"/>
</g>
<!-- Node32 -->
<g id="node32" class="node"><title>Node32</title>
<g id="a_node32"><a xlink:href="../../d6/d34/classmodel_1_1_turtle.html#a193c156784f783064ae533b619b6be6e" target="_top" xlink:title="model.Turtle.getPenColor">
<polygon fill="white" stroke="black" points="1343.5,-333.5 1343.5,-352.5 1480.5,-352.5 1480.5,-333.5 1343.5,-333.5"/>
<text text-anchor="middle" x="1412" y="-340.5" font-family="Helvetica,sans-Serif" font-size="10.00">model.Turtle.getPenColor</text>
</a>
</g>
</g>
<!-- Node23&#45;&gt;Node32 -->
<g id="edge36" class="edge"><title>Node23&#45;&gt;Node32</title>
<path fill="none" stroke="midnightblue" d="M1298.06,-334.776C1309.85,-335.635 1321.82,-336.506 1333.33,-337.345"/>
<polygon fill="midnightblue" stroke="midnightblue" points="1333.1,-340.837 1343.32,-338.072 1333.61,-333.855 1333.1,-340.837"/>
</g>
<!-- Node34 -->
<g id="node34" class="node"><title>Node34</title>
<g id="a_node34"><a xlink:href="../../d6/d34/classmodel_1_1_turtle.html#a1c5d07962ede5fbfacc59413274d4300" target="_top" xlink:title="model.Turtle.getHeading">
<polygon fill="white" stroke="black" points="1345,-295.5 1345,-314.5 1479,-314.5 1479,-295.5 1345,-295.5"/>
<text text-anchor="middle" x="1412" y="-302.5" font-family="Helvetica,sans-Serif" font-size="10.00">model.Turtle.getHeading</text>
</a>
</g>
</g>
<!-- Node23&#45;&gt;Node34 -->
<g id="edge39" class="edge"><title>Node23&#45;&gt;Node34</title>
<path fill="none" stroke="midnightblue" d="M1298.06,-317.61C1310.38,-316.234 1322.9,-314.836 1334.9,-313.496"/>
<polygon fill="midnightblue" stroke="midnightblue" points="1335.29,-316.975 1344.84,-312.387 1334.51,-310.018 1335.29,-316.975"/>
</g>
<!-- Node26 -->
<g id="node26" class="node"><title>Node26</title>
<g id="a_node26"><a xlink:href="../../de/ded/classmodel_1_1_pen.html#afad4fb3e51847cacab72c036ddaa108f" target="_top" xlink:title="model.Pen.getStatus">
<polygon fill="white" stroke="black" points="1554,-219.5 1554,-238.5 1672,-238.5 1672,-219.5 1554,-219.5"/>
<text text-anchor="middle" x="1613" y="-226.5" font-family="Helvetica,sans-Serif" font-size="10.00">model.Pen.getStatus</text>
</a>
</g>
</g>
<!-- Node25&#45;&gt;Node26 -->
<g id="edge30" class="edge"><title>Node25&#45;&gt;Node26</title>
<path fill="none" stroke="midnightblue" d="M1483.72,-229C1503.23,-229 1524.35,-229 1543.72,-229"/>
<polygon fill="midnightblue" stroke="midnightblue" points="1543.97,-232.5 1553.97,-229 1543.97,-225.5 1543.97,-232.5"/>
</g>
<!-- Node31 -->
<g id="node31" class="node"><title>Node31</title>
<g id="a_node31"><a xlink:href="../../de/ded/classmodel_1_1_pen.html#a6999f4af56377415621f193ef8600e27" target="_top" xlink:title="model.Pen.getDash">
<polygon fill="white" stroke="black" points="1557.5,-371.5 1557.5,-390.5 1668.5,-390.5 1668.5,-371.5 1557.5,-371.5"/>
<text text-anchor="middle" x="1613" y="-378.5" font-family="Helvetica,sans-Serif" font-size="10.00">model.Pen.getDash</text>
</a>
</g>
</g>
<!-- Node30&#45;&gt;Node31 -->
<g id="edge35" class="edge"><title>Node30&#45;&gt;Node31</title>
<path fill="none" stroke="midnightblue" d="M1480.65,-381C1502.15,-381 1525.86,-381 1547.15,-381"/>
<polygon fill="midnightblue" stroke="midnightblue" points="1547.39,-384.5 1557.39,-381 1547.39,-377.5 1547.39,-384.5"/>
</g>
<!-- Node33 -->
<g id="node33" class="node"><title>Node33</title>
<g id="a_node33"><a xlink:href="../../de/ded/classmodel_1_1_pen.html#a704af31474b10d17caf40773b7971826" target="_top" xlink:title="model.Pen.getPenColor">
<polygon fill="white" stroke="black" points="1548.5,-333.5 1548.5,-352.5 1677.5,-352.5 1677.5,-333.5 1548.5,-333.5"/>
<text text-anchor="middle" x="1613" y="-340.5" font-family="Helvetica,sans-Serif" font-size="10.00">model.Pen.getPenColor</text>
</a>
</g>
</g>
<!-- Node32&#45;&gt;Node33 -->
<g id="edge37" class="edge"><title>Node32&#45;&gt;Node33</title>
<path fill="none" stroke="midnightblue" d="M1480.65,-343C1499.18,-343 1519.36,-343 1538.21,-343"/>
<polygon fill="midnightblue" stroke="midnightblue" points="1538.23,-346.5 1548.23,-343 1538.23,-339.5 1538.23,-346.5"/>
</g>
</g>
</svg>
