<?xml version="1.0" encoding="UTF-8" standalone="no"?>
<!DOCTYPE svg PUBLIC "-//W3C//DTD SVG 1.1//EN"
 "http://www.w3.org/Graphics/SVG/1.1/DTD/svg11.dtd">
<!-- Generated by graphviz version 2.36.0 (20140111.2315)
 -->
<!-- Title: view.panes.TurtleSelectorPane Pages: 1 -->
<svg width="1282pt" height="715pt"
 viewBox="0.00 0.00 1282.00 714.74" xmlns="http://www.w3.org/2000/svg" xmlns:xlink="http://www.w3.org/1999/xlink">
<g id="graph0" class="graph" transform="scale(1 1) rotate(0) translate(4 710.742)">
<title>view.panes.TurtleSelectorPane</title>
<polygon fill="white" stroke="none" points="-4,4 -4,-710.742 1278,-710.742 1278,4 -4,4"/>
<!-- Node1 -->
<g id="node1" class="node"><title>Node1</title>
<polygon fill="#bfbfbf" stroke="black" points="1114,-548.242 1114,-567.242 1274,-567.242 1274,-548.242 1114,-548.242"/>
<text text-anchor="middle" x="1194" y="-555.242" font-family="Helvetica,sans-Serif" font-size="10.00">view.panes.TurtleSelectorPane</text>
</g>
<!-- Node2 -->
<g id="node2" class="node"><title>Node2</title>
<polygon fill="white" stroke="#bfbfbf" points="881.5,-492.242 881.5,-511.242 922.5,-511.242 922.5,-492.242 881.5,-492.242"/>
<text text-anchor="middle" x="902" y="-499.242" font-family="Helvetica,sans-Serif" font-size="10.00">VBox</text>
</g>
<!-- Node2&#45;&gt;Node1 -->
<g id="edge1" class="edge"><title>Node2&#45;&gt;Node1</title>
<path fill="none" stroke="#9a32cd" stroke-dasharray="5,2" d="M933.123,-503.089C971.399,-505.276 1039.31,-510.747 1096,-523.742 1122.09,-529.722 1150.91,-540.367 1170.3,-548.157"/>
<polygon fill="#9a32cd" stroke="#9a32cd" points="932.866,-499.571 922.694,-502.534 932.494,-506.561 932.866,-499.571"/>
<text text-anchor="middle" x="1046" y="-526.742" font-family="Helvetica,sans-Serif" font-size="10.00"> myVBox</text>
</g>
<!-- Node3 -->
<g id="node3" class="node"><title>Node3</title>
<polygon fill="white" stroke="#bfbfbf" points="829,-454.242 829,-473.242 975,-473.242 975,-454.242 829,-454.242"/>
<text text-anchor="middle" x="902" y="-461.242" font-family="Helvetica,sans-Serif" font-size="10.00">Map&lt; CheckBox, Integer &gt;</text>
</g>
<!-- Node3&#45;&gt;Node1 -->
<g id="edge2" class="edge"><title>Node3&#45;&gt;Node1</title>
<path fill="none" stroke="#9a32cd" stroke-dasharray="5,2" d="M985.216,-468.702C1020.25,-472.79 1061.02,-480.226 1096,-493.742 1130.25,-506.976 1164.83,-533.74 1181.96,-548.108"/>
<polygon fill="#9a32cd" stroke="#9a32cd" points="985.341,-465.195 975.019,-467.586 984.58,-472.153 985.341,-465.195"/>
<text text-anchor="middle" x="1046" y="-496.742" font-family="Helvetica,sans-Serif" font-size="10.00"> myIDs</text>
</g>
<!-- Node4 -->
<g id="node4" class="node"><title>Node4</title>
<polygon fill="white" stroke="#bfbfbf" points="870,-687.242 870,-706.242 934,-706.242 934,-687.242 870,-687.242"/>
<text text-anchor="middle" x="902" y="-694.242" font-family="Helvetica,sans-Serif" font-size="10.00">CheckBox</text>
</g>
<!-- Node4&#45;&gt;Node1 -->
<g id="edge3" class="edge"><title>Node4&#45;&gt;Node1</title>
<path fill="none" stroke="#9a32cd" stroke-dasharray="5,2" d="M944.306,-699.112C985.253,-699.662 1048.56,-695.537 1096,-669.742 1141.65,-644.921 1175.65,-589.537 1187.97,-567.276"/>
<polygon fill="#9a32cd" stroke="#9a32cd" points="944.225,-695.609 934.146,-698.873 944.061,-702.607 944.225,-695.609"/>
<text text-anchor="middle" x="1046" y="-698.742" font-family="Helvetica,sans-Serif" font-size="10.00"> myToggle</text>
</g>
<!-- Node5 -->
<g id="node5" class="node"><title>Node5</title>
<polygon fill="white" stroke="#bfbfbf" points="857.5,-644.242 857.5,-663.242 946.5,-663.242 946.5,-644.242 857.5,-644.242"/>
<text text-anchor="middle" x="902" y="-651.242" font-family="Helvetica,sans-Serif" font-size="10.00">Set&lt; Integer &gt;</text>
</g>
<!-- Node5&#45;&gt;Node1 -->
<g id="edge4" class="edge"><title>Node5&#45;&gt;Node1</title>
<path fill="none" stroke="#9a32cd" stroke-dasharray="5,2" d="M956.808,-649.526C996.373,-645.115 1050.88,-636.261 1096,-618.742 1129.38,-605.78 1163.77,-580.888 1181.25,-567.251"/>
<polygon fill="#9a32cd" stroke="#9a32cd" points="956.408,-646.049 946.831,-650.58 957.143,-653.01 956.408,-646.049"/>
<text text-anchor="middle" x="1046" y="-657.742" font-family="Helvetica,sans-Serif" font-size="10.00"> myTurtles</text>
<text text-anchor="middle" x="1046" y="-646.742" font-family="Helvetica,sans-Serif" font-size="10.00">myActiveTurtles</text>
</g>
<!-- Node6 -->
<g id="node6" class="node"><title>Node6</title>
<polygon fill="white" stroke="#bfbfbf" points="869,-606.242 869,-625.242 935,-625.242 935,-606.242 869,-606.242"/>
<text text-anchor="middle" x="902" y="-613.242" font-family="Helvetica,sans-Serif" font-size="10.00">ScrollPane</text>
</g>
<!-- Node6&#45;&gt;Node1 -->
<g id="edge5" class="edge"><title>Node6&#45;&gt;Node1</title>
<path fill="none" stroke="#9a32cd" stroke-dasharray="5,2" d="M945.033,-611.163C984.343,-606.472 1044.55,-598.238 1096,-586.742 1119.5,-581.491 1145.63,-573.554 1164.84,-567.311"/>
<polygon fill="#9a32cd" stroke="#9a32cd" points="944.541,-607.697 935.016,-612.336 945.355,-614.649 944.541,-607.697"/>
<text text-anchor="middle" x="1046" y="-606.742" font-family="Helvetica,sans-Serif" font-size="10.00"> myTurtleScroll</text>
</g>
<!-- Node7 -->
<g id="node7" class="node"><title>Node7</title>
<g id="a_node7"><a xlink:href="../../d8/dd2/classview_1_1_command_string.html" target="_top" xlink:title="view.CommandString">
<polygon fill="white" stroke="black" points="843,-568.242 843,-587.242 961,-587.242 961,-568.242 843,-568.242"/>
<text text-anchor="middle" x="902" y="-575.242" font-family="Helvetica,sans-Serif" font-size="10.00">view.CommandString</text>
</a>
</g>
</g>
<!-- Node7&#45;&gt;Node1 -->
<g id="edge6" class="edge"><title>Node7&#45;&gt;Node1</title>
<path fill="none" stroke="#9a32cd" stroke-dasharray="5,2" d="M971.36,-573.027C1014.08,-570.081 1069.26,-566.275 1113.88,-563.198"/>
<polygon fill="#9a32cd" stroke="#9a32cd" points="971.072,-569.538 961.337,-573.718 971.554,-576.522 971.072,-569.538"/>
<text text-anchor="middle" x="1046" y="-574.742" font-family="Helvetica,sans-Serif" font-size="10.00"> myCommandString</text>
</g>
<!-- Node8 -->
<g id="node8" class="node"><title>Node8</title>
<polygon fill="white" stroke="#bfbfbf" points="580.5,-629.242 580.5,-648.242 651.5,-648.242 651.5,-629.242 580.5,-629.242"/>
<text text-anchor="middle" x="616" y="-636.242" font-family="Helvetica,sans-Serif" font-size="10.00">Observable</text>
</g>
<!-- Node8&#45;&gt;Node7 -->
<g id="edge7" class="edge"><title>Node8&#45;&gt;Node7</title>
<path fill="none" stroke="midnightblue" d="M661.579,-640.523C701.744,-640.404 761.455,-635.853 808,-613.742 817.939,-609.02 816.356,-602.041 826,-596.742 833.063,-592.86 840.935,-589.755 848.849,-587.274"/>
<polygon fill="midnightblue" stroke="midnightblue" points="661.578,-637.023 651.556,-640.462 661.535,-644.023 661.578,-637.023"/>
</g>
<!-- Node9 -->
<g id="node9" class="node"><title>Node9</title>
<polygon fill="white" stroke="#bfbfbf" points="850.5,-530.242 850.5,-549.242 953.5,-549.242 953.5,-530.242 850.5,-530.242"/>
<text text-anchor="middle" x="902" y="-537.242" font-family="Helvetica,sans-Serif" font-size="10.00">Set&lt; CheckBox &gt;</text>
</g>
<!-- Node9&#45;&gt;Node1 -->
<g id="edge8" class="edge"><title>Node9&#45;&gt;Node1</title>
<path fill="none" stroke="#9a32cd" stroke-dasharray="5,2" d="M964.279,-538.542C1002.27,-538.332 1052.05,-539.019 1096,-542.742 1110.43,-543.964 1125.97,-546.028 1140.3,-548.24"/>
<polygon fill="#9a32cd" stroke="#9a32cd" points="963.862,-535.045 953.89,-538.624 963.917,-542.045 963.862,-535.045"/>
<text text-anchor="middle" x="1046" y="-545.742" font-family="Helvetica,sans-Serif" font-size="10.00"> myBoxes</text>
</g>
<!-- Node10 -->
<g id="node10" class="node"><title>Node10</title>
<g id="a_node10"><a xlink:href="../../db/db5/classview_1_1panes_1_1_view_pane_module.html" target="_top" xlink:title="view.panes.ViewPaneModule">
<polygon fill="white" stroke="black" points="826.5,-401.242 826.5,-420.242 977.5,-420.242 977.5,-401.242 826.5,-401.242"/>
<text text-anchor="middle" x="902" y="-408.242" font-family="Helvetica,sans-Serif" font-size="10.00">view.panes.ViewPaneModule</text>
</a>
</g>
</g>
<!-- Node10&#45;&gt;Node1 -->
<g id="edge9" class="edge"><title>Node10&#45;&gt;Node1</title>
<path fill="none" stroke="#9a32cd" stroke-dasharray="5,2" d="M987.983,-419.67C1023.14,-426.056 1063.25,-436.999 1096,-455.742 1138,-479.775 1173.05,-527.649 1186.79,-548.108"/>
<polygon fill="#9a32cd" stroke="#9a32cd" points="988.177,-416.153 977.729,-417.909 986.992,-423.052 988.177,-416.153"/>
<text text-anchor="middle" x="1046" y="-458.742" font-family="Helvetica,sans-Serif" font-size="10.00"> myViewPane</text>
</g>
<!-- Node12 -->
<g id="node12" class="node"><title>Node12</title>
<g id="a_node12"><a xlink:href="../../d3/d42/classmodel_1_1_model.html" target="_top" xlink:title="model.Model">
<polygon fill="white" stroke="black" points="1155,-146.242 1155,-165.242 1233,-165.242 1233,-146.242 1155,-146.242"/>
<text text-anchor="middle" x="1194" y="-153.242" font-family="Helvetica,sans-Serif" font-size="10.00">model.Model</text>
</a>
</g>
</g>
<!-- Node10&#45;&gt;Node12 -->
<g id="edge16" class="edge"><title>Node10&#45;&gt;Node12</title>
<path fill="none" stroke="#9a32cd" stroke-dasharray="5,2" d="M908.712,-391.067C919.896,-355.772 947.881,-281.326 996,-237.742 1021.67,-214.488 1114.96,-181.453 1163.38,-165.334"/>
<polygon fill="#9a32cd" stroke="#9a32cd" points="905.233,-390.476 905.667,-401.062 911.93,-392.516 905.233,-390.476"/>
<text text-anchor="middle" x="1046" y="-240.742" font-family="Helvetica,sans-Serif" font-size="10.00"> myView</text>
</g>
<!-- Node11 -->
<g id="node11" class="node"><title>Node11</title>
<g id="a_node11"><a xlink:href="../../df/dd6/classview_1_1panes_1_1_pane_module.html" target="_top" xlink:title="view.panes.PaneModule">
<polygon fill="white" stroke="black" points="551.5,-553.242 551.5,-572.242 680.5,-572.242 680.5,-553.242 551.5,-553.242"/>
<text text-anchor="middle" x="616" y="-560.242" font-family="Helvetica,sans-Serif" font-size="10.00">view.panes.PaneModule</text>
</a>
</g>
</g>
<!-- Node11&#45;&gt;Node10 -->
<g id="edge10" class="edge"><title>Node11&#45;&gt;Node10</title>
<path fill="none" stroke="midnightblue" d="M684.663,-572.935C725.452,-575.08 775.61,-570.019 808,-539.742 839.394,-510.396 799.442,-478.526 826,-444.742 835.1,-433.165 849.019,-425.4 862.405,-420.254"/>
<polygon fill="midnightblue" stroke="midnightblue" points="684.726,-569.431 674.512,-572.246 684.252,-576.415 684.726,-569.431"/>
</g>
<!-- Node12&#45;&gt;Node10 -->
<g id="edge11" class="edge"><title>Node12&#45;&gt;Node10</title>
<path fill="none" stroke="#9a32cd" stroke-dasharray="5,2" d="M1176.97,-172.774C1158.12,-192.558 1125.64,-225.911 1096,-252.742 1030.51,-312.026 946.838,-377.157 915.548,-401.171"/>
<polygon fill="#9a32cd" stroke="#9a32cd" points="1179.6,-175.087 1183.94,-165.422 1174.52,-170.27 1179.6,-175.087"/>
<text text-anchor="middle" x="1046" y="-339.742" font-family="Helvetica,sans-Serif" font-size="10.00"> myModel</text>
</g>
<!-- Node13 -->
<g id="node13" class="node"><title>Node13</title>
<polygon fill="white" stroke="#bfbfbf" points="559,-161.242 559,-180.242 673,-180.242 673,-161.242 559,-161.242"/>
<text text-anchor="middle" x="616" y="-168.242" font-family="Helvetica,sans-Serif" font-size="10.00">Set&lt; model.Turtle &gt;</text>
</g>
<!-- Node13&#45;&gt;Node10 -->
<g id="edge21" class="edge"><title>Node13&#45;&gt;Node10</title>
<path fill="none" stroke="#9a32cd" stroke-dasharray="5,2" d="M683.252,-179.975C736.39,-187.622 802.938,-197.841 808,-201.742 875.952,-254.101 895.443,-366.894 899.875,-400.863"/>
<polygon fill="#9a32cd" stroke="#9a32cd" points="683.56,-176.484 673.165,-178.532 682.568,-183.413 683.56,-176.484"/>
<text text-anchor="middle" x="762" y="-215.742" font-family="Helvetica,sans-Serif" font-size="10.00"> myTurtles</text>
<text text-anchor="middle" x="762" y="-204.742" font-family="Helvetica,sans-Serif" font-size="10.00">myActiveTurtles</text>
</g>
<!-- Node13&#45;&gt;Node12 -->
<g id="edge12" class="edge"><title>Node13&#45;&gt;Node12</title>
<path fill="none" stroke="#9a32cd" stroke-dasharray="5,2" d="M683.317,-161.164C724.324,-155.731 778.099,-149.483 826,-146.742 945.943,-139.877 1088.23,-148.001 1154.93,-152.763"/>
<polygon fill="#9a32cd" stroke="#9a32cd" points="682.623,-157.726 673.178,-162.525 683.555,-164.664 682.623,-157.726"/>
<text text-anchor="middle" x="902" y="-149.742" font-family="Helvetica,sans-Serif" font-size="10.00"> myFullSet</text>
</g>
<!-- Node17 -->
<g id="node17" class="node"><title>Node17</title>
<g id="a_node17"><a xlink:href="../../df/d50/classmodel_1_1_turtle_set_manager.html" target="_top" xlink:title="model.TurtleSetManager">
<polygon fill="white" stroke="black" points="835,-167.242 835,-186.242 969,-186.242 969,-167.242 835,-167.242"/>
<text text-anchor="middle" x="902" y="-174.242" font-family="Helvetica,sans-Serif" font-size="10.00">model.TurtleSetManager</text>
</a>
</g>
</g>
<!-- Node13&#45;&gt;Node17 -->
<g id="edge18" class="edge"><title>Node13&#45;&gt;Node17</title>
<path fill="none" stroke="#9a32cd" stroke-dasharray="5,2" d="M683.109,-170.3C719.89,-170.252 766.493,-170.518 808,-171.742 816.728,-171.999 825.911,-172.37 834.97,-172.796"/>
<polygon fill="#9a32cd" stroke="#9a32cd" points="683.001,-166.8 673.008,-170.321 683.015,-173.8 683.001,-166.8"/>
<text text-anchor="middle" x="762" y="-174.742" font-family="Helvetica,sans-Serif" font-size="10.00"> mySet</text>
</g>
<!-- Node14 -->
<g id="node14" class="node"><title>Node14</title>
<g id="a_node14"><a xlink:href="../../d3/d62/classmodel_1_1_variable_manager.html" target="_top" xlink:title="model.VariableManager">
<polygon fill="white" stroke="black" points="837,-82.2415 837,-101.242 967,-101.242 967,-82.2415 837,-82.2415"/>
<text text-anchor="middle" x="902" y="-89.2415" font-family="Helvetica,sans-Serif" font-size="10.00">model.VariableManager</text>
</a>
</g>
</g>
<!-- Node14&#45;&gt;Node12 -->
<g id="edge13" class="edge"><title>Node14&#45;&gt;Node12</title>
<path fill="none" stroke="#9a32cd" stroke-dasharray="5,2" d="M977.384,-94.4674C1013.65,-97.1472 1057.62,-102.416 1096,-112.742 1125.17,-120.59 1156.78,-136.03 1175.72,-146.114"/>
<polygon fill="#9a32cd" stroke="#9a32cd" points="977.587,-90.9731 967.37,-93.7781 977.106,-97.9566 977.587,-90.9731"/>
<text text-anchor="middle" x="1046" y="-115.742" font-family="Helvetica,sans-Serif" font-size="10.00"> myVariableManager</text>
</g>
<!-- Node15 -->
<g id="node15" class="node"><title>Node15</title>
<polygon fill="white" stroke="#bfbfbf" points="557,-106.742 557,-136.742 675,-136.742 675,-106.742 557,-106.742"/>
<text text-anchor="start" x="565" y="-124.742" font-family="Helvetica,sans-Serif" font-size="10.00">Stack&lt; Map&lt; String,</text>
<text text-anchor="middle" x="616" y="-113.742" font-family="Helvetica,sans-Serif" font-size="10.00"> Double &gt; &gt;</text>
</g>
<!-- Node15&#45;&gt;Node14 -->
<g id="edge14" class="edge"><title>Node15&#45;&gt;Node14</title>
<path fill="none" stroke="#9a32cd" stroke-dasharray="5,2" d="M685.355,-114.521C731.441,-109.653 791.837,-103.273 836.985,-98.5036"/>
<polygon fill="#9a32cd" stroke="#9a32cd" points="684.734,-111.067 675.157,-115.598 685.469,-118.028 684.734,-111.067"/>
<text text-anchor="middle" x="762" y="-114.742" font-family="Helvetica,sans-Serif" font-size="10.00"> myLocalVariables</text>
</g>
<!-- Node16 -->
<g id="node16" class="node"><title>Node16</title>
<polygon fill="white" stroke="#bfbfbf" points="552,-68.2415 552,-87.2415 680,-87.2415 680,-68.2415 552,-68.2415"/>
<text text-anchor="middle" x="616" y="-75.2415" font-family="Helvetica,sans-Serif" font-size="10.00">Map&lt; String, Double &gt;</text>
</g>
<!-- Node16&#45;&gt;Node14 -->
<g id="edge15" class="edge"><title>Node16&#45;&gt;Node14</title>
<path fill="none" stroke="#9a32cd" stroke-dasharray="5,2" d="M690.596,-75.8349C726.115,-75.4996 769.318,-75.9493 808,-78.7415 818.895,-79.5279 830.457,-80.7932 841.591,-82.2327"/>
<polygon fill="#9a32cd" stroke="#9a32cd" points="690.272,-72.3383 680.314,-75.9556 690.354,-79.3379 690.272,-72.3383"/>
<text text-anchor="middle" x="762" y="-81.7415" font-family="Helvetica,sans-Serif" font-size="10.00"> myGlobalVariables</text>
</g>
<!-- Node17&#45;&gt;Node12 -->
<g id="edge17" class="edge"><title>Node17&#45;&gt;Node12</title>
<path fill="none" stroke="#9a32cd" stroke-dasharray="5,2" d="M979.479,-171.203C1035.88,-167.119 1110.24,-161.734 1154.68,-158.516"/>
<polygon fill="#9a32cd" stroke="#9a32cd" points="978.889,-167.737 969.168,-171.95 979.395,-174.719 978.889,-167.737"/>
<text text-anchor="middle" x="1046" y="-173.742" font-family="Helvetica,sans-Serif" font-size="10.00"> myTurtleManager</text>
</g>
<!-- Node18 -->
<g id="node18" class="node"><title>Node18</title>
<polygon fill="white" stroke="#bfbfbf" points="534,-220.242 534,-239.242 698,-239.242 698,-220.242 534,-220.242"/>
<text text-anchor="middle" x="616" y="-227.242" font-family="Helvetica,sans-Serif" font-size="10.00">Stack&lt; Set&lt; model.Turtle &gt; &gt;</text>
</g>
<!-- Node18&#45;&gt;Node17 -->
<g id="edge19" class="edge"><title>Node18&#45;&gt;Node17</title>
<path fill="none" stroke="#9a32cd" stroke-dasharray="5,2" d="M708.315,-237.785C740.294,-238.25 776.158,-236.077 808,-227.742 839.174,-219.581 871.187,-198.745 888.323,-186.377"/>
<polygon fill="#9a32cd" stroke="#9a32cd" points="708.157,-234.281 698.078,-237.546 707.994,-241.279 708.157,-234.281"/>
<text text-anchor="middle" x="762" y="-241.742" font-family="Helvetica,sans-Serif" font-size="10.00"> myStack</text>
</g>
<!-- Node19 -->
<g id="node19" class="node"><title>Node19</title>
<polygon fill="white" stroke="#bfbfbf" points="317.5,-266.242 317.5,-285.242 358.5,-285.242 358.5,-266.242 317.5,-266.242"/>
<text text-anchor="middle" x="338" y="-273.242" font-family="Helvetica,sans-Serif" font-size="10.00">Color</text>
</g>
<!-- Node19&#45;&gt;Node10 -->
<g id="edge37" class="edge"><title>Node19&#45;&gt;Node10</title>
<path fill="none" stroke="#9a32cd" stroke-dasharray="5,2" d="M369.034,-273.67C446.405,-269.628 657.04,-266.9 808,-342.742 840.528,-359.084 873.811,-386.559 890.334,-401.077"/>
<polygon fill="#9a32cd" stroke="#9a32cd" points="368.392,-270.201 358.608,-274.267 368.792,-277.19 368.392,-270.201"/>
<text text-anchor="middle" x="616" y="-315.742" font-family="Helvetica,sans-Serif" font-size="10.00"> defColor</text>
<text text-anchor="middle" x="616" y="-304.742" font-family="Helvetica,sans-Serif" font-size="10.00">myBackColor</text>
</g>
<!-- Node19&#45;&gt;Node12 -->
<g id="edge20" class="edge"><title>Node19&#45;&gt;Node12</title>
<path fill="none" stroke="#9a32cd" stroke-dasharray="5,2" d="M348.655,-256.857C372.718,-212.165 440.242,-100.541 534,-58.7415 762.55,43.1509 862.877,-1.79709 1096,-92.7415 1129.86,-105.951 1164.33,-131.975 1181.62,-146.089"/>
<polygon fill="#9a32cd" stroke="#9a32cd" points="345.513,-255.31 343.948,-265.789 351.706,-258.574 345.513,-255.31"/>
<text text-anchor="middle" x="762" y="-6.74151" font-family="Helvetica,sans-Serif" font-size="10.00"> myBackground</text>
</g>
<!-- Node30 -->
<g id="node30" class="node"><title>Node30</title>
<g id="a_node30"><a xlink:href="../../d7/da6/classview_1_1_turtle_draw.html" target="_top" xlink:title="view.TurtleDraw">
<polygon fill="white" stroke="black" points="571.5,-591.242 571.5,-610.242 660.5,-610.242 660.5,-591.242 571.5,-591.242"/>
<text text-anchor="middle" x="616" y="-598.242" font-family="Helvetica,sans-Serif" font-size="10.00">view.TurtleDraw</text>
</a>
</g>
</g>
<!-- Node19&#45;&gt;Node30 -->
<g id="edge36" class="edge"><title>Node19&#45;&gt;Node30</title>
<path fill="none" stroke="#9a32cd" stroke-dasharray="5,2" d="M357.304,-292.216C393.733,-326.105 475.299,-407.704 516,-493.742 533.071,-529.828 506.179,-553.112 534,-581.742 543.764,-591.79 557.758,-596.951 571.375,-599.486"/>
<polygon fill="#9a32cd" stroke="#9a32cd" points="359.581,-289.555 349.85,-285.364 354.844,-294.708 359.581,-289.555"/>
<text text-anchor="middle" x="475" y="-496.742" font-family="Helvetica,sans-Serif" font-size="10.00"> myLineColor</text>
</g>
<!-- Node20 -->
<g id="node20" class="node"><title>Node20</title>
<polygon fill="white" stroke="#bfbfbf" points="596,-515.242 596,-534.242 636,-534.242 636,-515.242 596,-515.242"/>
<text text-anchor="middle" x="616" y="-522.242" font-family="Helvetica,sans-Serif" font-size="10.00">Pane</text>
</g>
<!-- Node20&#45;&gt;Node10 -->
<g id="edge22" class="edge"><title>Node20&#45;&gt;Node10</title>
<path fill="none" stroke="#9a32cd" stroke-dasharray="5,2" d="M646.369,-527.324C687.229,-529.288 761.44,-526.732 808,-488.742 824.371,-475.384 811.341,-459.958 826,-444.742 836.911,-433.416 852.292,-425.546 866.288,-420.253"/>
<polygon fill="#9a32cd" stroke="#9a32cd" points="646.451,-523.823 636.258,-526.712 646.028,-530.81 646.451,-523.823"/>
<text text-anchor="middle" x="762" y="-527.742" font-family="Helvetica,sans-Serif" font-size="10.00"> myPane</text>
</g>
<!-- Node21 -->
<g id="node21" class="node"><title>Node21</title>
<polygon fill="white" stroke="#bfbfbf" points="562.5,-477.242 562.5,-496.242 669.5,-496.242 669.5,-477.242 562.5,-477.242"/>
<text text-anchor="middle" x="616" y="-484.242" font-family="Helvetica,sans-Serif" font-size="10.00">List&lt; ImageView &gt;</text>
</g>
<!-- Node21&#45;&gt;Node10 -->
<g id="edge23" class="edge"><title>Node21&#45;&gt;Node10</title>
<path fill="none" stroke="#9a32cd" stroke-dasharray="5,2" d="M680.041,-479.524C717.724,-474.227 766.238,-465.668 808,-452.742 808.931,-452.453 852.539,-432.71 879.703,-420.398"/>
<polygon fill="#9a32cd" stroke="#9a32cd" points="679.149,-476.113 669.714,-480.933 680.095,-483.049 679.149,-476.113"/>
<text text-anchor="middle" x="762" y="-476.742" font-family="Helvetica,sans-Serif" font-size="10.00"> myStamps</text>
</g>
<!-- Node22 -->
<g id="node22" class="node"><title>Node22</title>
<polygon fill="white" stroke="#bfbfbf" points="578.5,-439.242 578.5,-458.242 653.5,-458.242 653.5,-439.242 578.5,-439.242"/>
<text text-anchor="middle" x="616" y="-446.242" font-family="Helvetica,sans-Serif" font-size="10.00">List&lt; Line &gt;</text>
</g>
<!-- Node22&#45;&gt;Node10 -->
<g id="edge24" class="edge"><title>Node22&#45;&gt;Node10</title>
<path fill="none" stroke="#9a32cd" stroke-dasharray="5,2" d="M664.103,-443.602C702.803,-439.251 759.026,-432.637 808,-425.742 819.66,-424.1 832.118,-422.195 844.002,-420.305"/>
<polygon fill="#9a32cd" stroke="#9a32cd" points="663.222,-440.178 653.673,-444.767 664,-447.135 663.222,-440.178"/>
<text text-anchor="middle" x="762" y="-440.742" font-family="Helvetica,sans-Serif" font-size="10.00"> myGrid</text>
</g>
<!-- Node23 -->
<g id="node23" class="node"><title>Node23</title>
<polygon fill="white" stroke="#bfbfbf" points="589,-401.242 589,-420.242 643,-420.242 643,-401.242 589,-401.242"/>
<text text-anchor="middle" x="616" y="-408.242" font-family="Helvetica,sans-Serif" font-size="10.00">Point2D</text>
</g>
<!-- Node23&#45;&gt;Node10 -->
<g id="edge25" class="edge"><title>Node23&#45;&gt;Node10</title>
<path fill="none" stroke="#9a32cd" stroke-dasharray="5,2" d="M653.314,-410.742C696.785,-410.742 770.701,-410.742 826.498,-410.742"/>
<polygon fill="#9a32cd" stroke="#9a32cd" points="653.209,-407.242 643.209,-410.742 653.209,-414.242 653.209,-407.242"/>
<text text-anchor="middle" x="762" y="-413.742" font-family="Helvetica,sans-Serif" font-size="10.00"> myCurrentPoint</text>
</g>
<!-- Node24 -->
<g id="node24" class="node"><title>Node24</title>
<polygon fill="white" stroke="#bfbfbf" points="540.5,-363.242 540.5,-382.242 691.5,-382.242 691.5,-363.242 540.5,-363.242"/>
<text text-anchor="middle" x="616" y="-370.242" font-family="Helvetica,sans-Serif" font-size="10.00">Map&lt; Integer, ImageView &gt;</text>
</g>
<!-- Node24&#45;&gt;Node10 -->
<g id="edge26" class="edge"><title>Node24&#45;&gt;Node10</title>
<path fill="none" stroke="#9a32cd" stroke-dasharray="5,2" d="M702.029,-382.241C735.142,-386.134 773.382,-390.867 808,-395.742 819.66,-397.383 832.118,-399.288 844.002,-401.178"/>
<polygon fill="#9a32cd" stroke="#9a32cd" points="702.265,-378.745 691.926,-381.061 701.453,-385.698 702.265,-378.745"/>
<text text-anchor="middle" x="762" y="-398.742" font-family="Helvetica,sans-Serif" font-size="10.00"> myIcons</text>
</g>
<!-- Node25 -->
<g id="node25" class="node"><title>Node25</title>
<g id="a_node25"><a xlink:href="../../d3/db7/classview_1_1controllers_1_1_image_palette.html" target="_top" xlink:title="view.controllers.ImagePalette">
<polygon fill="white" stroke="black" points="260.5,-391.242 260.5,-410.242 415.5,-410.242 415.5,-391.242 260.5,-391.242"/>
<text text-anchor="middle" x="338" y="-398.242" font-family="Helvetica,sans-Serif" font-size="10.00">view.controllers.ImagePalette</text>
</a>
</g>
</g>
<!-- Node25&#45;&gt;Node10 -->
<g id="edge27" class="edge"><title>Node25&#45;&gt;Node10</title>
<path fill="none" stroke="#9a32cd" stroke-dasharray="5,2" d="M372.422,-387.566C410.736,-373.229 475.767,-351.218 534,-342.742 606.129,-332.242 626.061,-331.013 698,-342.742 766.781,-353.955 843.707,-385.221 879.949,-401.15"/>
<polygon fill="#9a32cd" stroke="#9a32cd" points="370.923,-384.391 362.814,-391.211 373.406,-390.936 370.923,-384.391"/>
<text text-anchor="middle" x="616" y="-345.742" font-family="Helvetica,sans-Serif" font-size="10.00"> myImagePalette</text>
</g>
<!-- Node25&#45;&gt;Node30 -->
<g id="edge34" class="edge"><title>Node25&#45;&gt;Node30</title>
<path fill="none" stroke="#9a32cd" stroke-dasharray="5,2" d="M352.784,-418.695C381.973,-455.391 453.943,-539.113 534,-581.742 545.474,-587.851 558.892,-592.014 571.469,-594.842"/>
<polygon fill="#9a32cd" stroke="#9a32cd" points="355.231,-416.142 346.306,-410.432 349.722,-420.461 355.231,-416.142"/>
<text text-anchor="middle" x="475" y="-574.742" font-family="Helvetica,sans-Serif" font-size="10.00"> myImagePalette</text>
</g>
<!-- Node26 -->
<g id="node26" class="node"><title>Node26</title>
<polygon fill="white" stroke="#bfbfbf" points="10,-448.242 10,-467.242 128,-467.242 128,-448.242 10,-448.242"/>
<text text-anchor="middle" x="69" y="-455.242" font-family="Helvetica,sans-Serif" font-size="10.00">ChoiceBox&lt; String &gt;</text>
</g>
<!-- Node26&#45;&gt;Node25 -->
<g id="edge28" class="edge"><title>Node26&#45;&gt;Node25</title>
<path fill="none" stroke="#9a32cd" stroke-dasharray="5,2" d="M138.134,-448.174C169.879,-443.226 208.053,-436.577 242,-428.742 264.283,-423.599 289.054,-416.242 307.714,-410.36"/>
<polygon fill="#9a32cd" stroke="#9a32cd" points="137.42,-444.742 128.067,-449.72 138.482,-451.661 137.42,-444.742"/>
<text text-anchor="middle" x="199" y="-448.742" font-family="Helvetica,sans-Serif" font-size="10.00"> myChoiceImages</text>
</g>
<!-- Node27 -->
<g id="node27" class="node"><title>Node27</title>
<polygon fill="white" stroke="#bfbfbf" points="27,-410.242 27,-429.242 111,-429.242 111,-410.242 27,-410.242"/>
<text text-anchor="middle" x="69" y="-417.242" font-family="Helvetica,sans-Serif" font-size="10.00">List&lt; String &gt;</text>
</g>
<!-- Node27&#45;&gt;Node25 -->
<g id="edge29" class="edge"><title>Node27&#45;&gt;Node25</title>
<path fill="none" stroke="#9a32cd" stroke-dasharray="5,2" d="M121.301,-416.091C160.693,-413.288 215.717,-409.372 260.331,-406.197"/>
<polygon fill="#9a32cd" stroke="#9a32cd" points="120.86,-412.613 111.134,-416.814 121.357,-419.596 120.86,-412.613"/>
<text text-anchor="middle" x="199" y="-416.742" font-family="Helvetica,sans-Serif" font-size="10.00"> myChoices</text>
</g>
<!-- Node28 -->
<g id="node28" class="node"><title>Node28</title>
<polygon fill="white" stroke="#bfbfbf" points="5,-372.242 5,-391.242 133,-391.242 133,-372.242 5,-372.242"/>
<text text-anchor="middle" x="69" y="-379.242" font-family="Helvetica,sans-Serif" font-size="10.00">Map&lt; Integer, String &gt;</text>
</g>
<!-- Node28&#45;&gt;Node25 -->
<g id="edge30" class="edge"><title>Node28&#45;&gt;Node25</title>
<path fill="none" stroke="#9a32cd" stroke-dasharray="5,2" d="M143.439,-386.802C173.931,-388.919 209.676,-391.423 242,-393.742 247.938,-394.167 254.085,-394.612 260.264,-395.062"/>
<polygon fill="#9a32cd" stroke="#9a32cd" points="143.53,-383.3 133.312,-386.099 143.046,-390.283 143.53,-383.3"/>
<text text-anchor="middle" x="199" y="-396.742" font-family="Helvetica,sans-Serif" font-size="10.00"> myImages</text>
</g>
<!-- Node29 -->
<g id="node29" class="node"><title>Node29</title>
<polygon fill="white" stroke="#bfbfbf" points="0,-334.242 0,-353.242 138,-353.242 138,-334.242 0,-334.242"/>
<text text-anchor="middle" x="69" y="-341.242" font-family="Helvetica,sans-Serif" font-size="10.00">ObservableList&lt; String &gt;</text>
</g>
<!-- Node29&#45;&gt;Node25 -->
<g id="edge31" class="edge"><title>Node29&#45;&gt;Node25</title>
<path fill="none" stroke="#9a32cd" stroke-dasharray="5,2" d="M144.152,-354.938C174.612,-359.987 210.142,-366.457 242,-373.742 263.729,-378.71 287.888,-385.595 306.405,-391.169"/>
<polygon fill="#9a32cd" stroke="#9a32cd" points="144.464,-351.442 134.029,-353.281 143.333,-358.351 144.464,-351.442"/>
<text text-anchor="middle" x="199" y="-376.742" font-family="Helvetica,sans-Serif" font-size="10.00"> myObservable</text>
</g>
<!-- Node30&#45;&gt;Node10 -->
<g id="edge32" class="edge"><title>Node30&#45;&gt;Node10</title>
<path fill="none" stroke="#9a32cd" stroke-dasharray="5,2" d="M671.125,-599.231C720.777,-596.646 789.351,-589.651 808,-570.742 847.721,-530.465 792.057,-489.995 826,-444.742 834.664,-433.19 848.166,-425.462 861.339,-420.337"/>
<polygon fill="#9a32cd" stroke="#9a32cd" points="670.664,-595.749 660.841,-599.718 670.996,-602.741 670.664,-595.749"/>
<text text-anchor="middle" x="762" y="-597.742" font-family="Helvetica,sans-Serif" font-size="10.00"> myDraw</text>
</g>
<!-- Node31 -->
<g id="node31" class="node"><title>Node31</title>
<polygon fill="white" stroke="#bfbfbf" points="320,-610.242 320,-629.242 356,-629.242 356,-610.242 320,-610.242"/>
<text text-anchor="middle" x="338" y="-617.242" font-family="Helvetica,sans-Serif" font-size="10.00">Line</text>
</g>
<!-- Node31&#45;&gt;Node30 -->
<g id="edge33" class="edge"><title>Node31&#45;&gt;Node30</title>
<path fill="none" stroke="#9a32cd" stroke-dasharray="5,2" d="M366.5,-617.848C414.489,-614.545 513.883,-607.702 571.362,-603.746"/>
<polygon fill="#9a32cd" stroke="#9a32cd" points="366.001,-614.374 356.265,-618.553 366.482,-621.358 366.001,-614.374"/>
<text text-anchor="middle" x="475" y="-615.742" font-family="Helvetica,sans-Serif" font-size="10.00"> myPath</text>
</g>
<!-- Node32 -->
<g id="node32" class="node"><title>Node32</title>
<polygon fill="white" stroke="#bfbfbf" points="322,-572.242 322,-591.242 354,-591.242 354,-572.242 322,-572.242"/>
<text text-anchor="middle" x="338" y="-579.242" font-family="Helvetica,sans-Serif" font-size="10.00">File</text>
</g>
<!-- Node32&#45;&gt;Node30 -->
<g id="edge35" class="edge"><title>Node32&#45;&gt;Node30</title>
<path fill="none" stroke="#9a32cd" stroke-dasharray="5,2" d="M364.243,-583.162C398.59,-585.13 461.963,-588.879 516,-592.742 534.06,-594.032 553.959,-595.61 571.151,-597.022"/>
<polygon fill="#9a32cd" stroke="#9a32cd" points="364.342,-579.663 354.159,-582.589 363.944,-586.651 364.342,-579.663"/>
<text text-anchor="middle" x="475" y="-595.742" font-family="Helvetica,sans-Serif" font-size="10.00"> myImage</text>
</g>
</g>
</svg>
