<?xml version="1.0" encoding="UTF-8" standalone="no"?>
<!DOCTYPE svg PUBLIC "-//W3C//DTD SVG 1.1//EN"
 "http://www.w3.org/Graphics/SVG/1.1/DTD/svg11.dtd">
<!-- Generated by graphviz version 2.36.0 (20140111.2315)
 -->
<!-- Title: commands.DifferenceCommand.executeCommand Pages: 1 -->
<!--zoomable 513 -->
<svg id="main" version="1.1" xmlns="http://www.w3.org/2000/svg" xmlns:xlink="http://www.w3.org/1999/xlink" xml:space="preserve" onload="init(evt)">
<style type="text/css"><![CDATA[
.edge:hover path { stroke: red; }
.edge:hover polygon { stroke: red; fill: red; }
]]></style>
<script type="text/javascript"><![CDATA[
var edges = document.getElementsByTagName('g');
if (edges && edges.length) {
  for (var i=0;i<edges.length;i++) {
    if (edges[i].id.substr(0,4)=='edge') {
      edges[i].setAttribute('class','edge');
    }
  }
}
]]></script>
        <defs>
                <circle id="rim" cx="0" cy="0" r="7"/>
                <circle id="rim2" cx="0" cy="0" r="3.5"/>
                <g id="zoomPlus">
                        <use xlink:href="#rim" fill="#404040">
                                <set attributeName="fill" to="#808080" begin="zoomplus.mouseover" end="zoomplus.mouseout"/>
                        </use>
                        <path d="M-4,0h8M0,-4v8" fill="none" stroke="white" stroke-width="1.5" pointer-events="none"/>
                </g>
                <g id="zoomMin">
                        <use xlink:href="#rim" fill="#404040">
                                <set attributeName="fill" to="#808080" begin="zoomminus.mouseover" end="zoomminus.mouseout"/>
                        </use>
                        <path d="M-4,0h8" fill="none" stroke="white" stroke-width="1.5" pointer-events="none"/>
                </g>
                <g id="dirArrow">
                        <path fill="none" stroke="white" stroke-width="1.5" d="M0,-3.0v7 M-2.5,-0.5L0,-3.0L2.5,-0.5"/>
                </g>
               <g id="resetDef">
                       <use xlink:href="#rim2" fill="#404040">
                               <set attributeName="fill" to="#808080" begin="reset.mouseover" end="reset.mouseout"/>
                       </use>
               </g>
        </defs>

<script type="text/javascript">
var viewWidth = 1518;
var viewHeight = 513;
var sectionId = 'dynsection-2';
</script>
<script xlink:href="../../svgpan.js"/>
<svg id="graph" class="graph">
<g id="viewport">
<title>commands.DifferenceCommand.executeCommand</title>
<polygon fill="white" stroke="none" points="-4,4 -4,-509 1514,-509 1514,4 -4,4"/>
<!-- Node1 -->
<g id="node1" class="node"><title>Node1</title>
<polygon fill="#bfbfbf" stroke="black" points="0,-387 0,-417 214,-417 214,-387 0,-387"/>
<text text-anchor="start" x="8" y="-405" font-family="Helvetica,sans-Serif" font-size="10.00">commands.DifferenceCommand.execute</text>
<text text-anchor="middle" x="107" y="-394" font-family="Helvetica,sans-Serif" font-size="10.00">Command</text>
</g>
<!-- Node2 -->
<g id="node2" class="node"><title>Node2</title>
<g id="a_node2"><a xlink:href="../../dd/dd6/classcommands_1_1_command.html#abafa69601e87c34d4453cf84349d6f9c" target="_top" xlink:title="commands.Command.execute\lCommand">
<polygon fill="white" stroke="black" points="250.5,-387 250.5,-417 415.5,-417 415.5,-387 250.5,-387"/>
<text text-anchor="start" x="258.5" y="-405" font-family="Helvetica,sans-Serif" font-size="10.00">commands.Command.execute</text>
<text text-anchor="middle" x="333" y="-394" font-family="Helvetica,sans-Serif" font-size="10.00">Command</text>
</a>
</g>
</g>
<!-- Node1&#45;&gt;Node2 -->
<g id="edge1" class="edge"><title>Node1&#45;&gt;Node2</title>
<path fill="none" stroke="midnightblue" d="M214.096,-402C222.874,-402 231.7,-402 240.359,-402"/>
<polygon fill="midnightblue" stroke="midnightblue" points="240.433,-405.5 250.433,-402 240.433,-398.5 240.433,-405.5"/>
</g>
<!-- Node3 -->
<g id="node3" class="node"><title>Node3</title>
<g id="a_node3"><a xlink:href="../../df/d50/classmodel_1_1_turtle_set_manager.html#a9a65c0be3b9c21abaf0ebaa54e5b8484" target="_top" xlink:title="model.TurtleSetManager.get\lActiveTurtles">
<polygon fill="white" stroke="black" points="938,-450 938,-480 1090,-480 1090,-450 938,-450"/>
<text text-anchor="start" x="946" y="-468" font-family="Helvetica,sans-Serif" font-size="10.00">model.TurtleSetManager.get</text>
<text text-anchor="middle" x="1014" y="-457" font-family="Helvetica,sans-Serif" font-size="10.00">ActiveTurtles</text>
</a>
</g>
</g>
<!-- Node2&#45;&gt;Node3 -->
<g id="edge2" class="edge"><title>Node2&#45;&gt;Node3</title>
<path fill="none" stroke="midnightblue" d="M415.745,-416.85C427.874,-418.764 440.245,-420.556 452,-422 620.057,-442.639 817.732,-455.043 927.866,-460.901"/>
<polygon fill="midnightblue" stroke="midnightblue" points="927.751,-464.4 937.921,-461.431 928.119,-457.409 927.751,-464.4"/>
</g>
<!-- Node4 -->
<g id="node4" class="node"><title>Node4</title>
<g id="a_node4"><a xlink:href="../../d3/d42/classmodel_1_1_model.html#a1a683ba5e58fcb3c8882c8e61df20dc0" target="_top" xlink:title="model.Model.getTurtleManager">
<polygon fill="white" stroke="black" points="932,-411.5 932,-430.5 1096,-430.5 1096,-411.5 932,-411.5"/>
<text text-anchor="middle" x="1014" y="-418.5" font-family="Helvetica,sans-Serif" font-size="10.00">model.Model.getTurtleManager</text>
</a>
</g>
</g>
<!-- Node2&#45;&gt;Node4 -->
<g id="edge3" class="edge"><title>Node2&#45;&gt;Node4</title>
<path fill="none" stroke="midnightblue" d="M415.566,-404.282C542.974,-407.848 788.389,-414.715 921.592,-418.442"/>
<polygon fill="midnightblue" stroke="midnightblue" points="921.676,-421.946 931.771,-418.727 921.872,-414.949 921.676,-421.946"/>
</g>
<!-- Node5 -->
<g id="node5" class="node"><title>Node5</title>
<g id="a_node5"><a xlink:href="../../d3/d42/classmodel_1_1_model.html#a76160d002c1e68b566307ac44356f6e5" target="_top" xlink:title="model.Model.notifyView">
<polygon fill="white" stroke="black" points="480.5,-373.5 480.5,-392.5 609.5,-392.5 609.5,-373.5 480.5,-373.5"/>
<text text-anchor="middle" x="545" y="-380.5" font-family="Helvetica,sans-Serif" font-size="10.00">model.Model.notifyView</text>
</a>
</g>
</g>
<!-- Node2&#45;&gt;Node5 -->
<g id="edge4" class="edge"><title>Node2&#45;&gt;Node5</title>
<path fill="none" stroke="midnightblue" d="M415.793,-394.6C433.699,-392.98 452.553,-391.274 470.128,-389.684"/>
<polygon fill="midnightblue" stroke="midnightblue" points="470.668,-393.149 480.312,-388.762 470.037,-386.178 470.668,-393.149"/>
</g>
<!-- Node34 -->
<g id="node34" class="node"><title>Node34</title>
<g id="a_node34"><a xlink:href="../../dd/dd6/classcommands_1_1_command.html#aec3e0f888945b1811fd739ecea212324" target="_top" xlink:title="commands.Command.updateTurtle">
<polygon fill="white" stroke="black" points="452,-335.5 452,-354.5 638,-354.5 638,-335.5 452,-335.5"/>
<text text-anchor="middle" x="545" y="-342.5" font-family="Helvetica,sans-Serif" font-size="10.00">commands.Command.updateTurtle</text>
</a>
</g>
</g>
<!-- Node2&#45;&gt;Node34 -->
<g id="edge40" class="edge"><title>Node2&#45;&gt;Node34</title>
<path fill="none" stroke="midnightblue" d="M376.826,-386.978C399.079,-379.487 426.817,-370.634 452,-364 461.92,-361.387 472.519,-358.91 482.865,-356.662"/>
<polygon fill="midnightblue" stroke="midnightblue" points="483.621,-360.079 492.675,-354.579 482.167,-353.232 483.621,-360.079"/>
</g>
<!-- Node6 -->
<g id="node6" class="node"><title>Node6</title>
<g id="a_node6"><a xlink:href="../../db/db5/classview_1_1panes_1_1_view_pane_module.html#aa2a1bf15bc036ee4237bf63749d85baf" target="_top" xlink:title="view.panes.ViewPaneModule.updateView">
<polygon fill="white" stroke="black" points="674.5,-244.5 674.5,-263.5 883.5,-263.5 883.5,-244.5 674.5,-244.5"/>
<text text-anchor="middle" x="779" y="-251.5" font-family="Helvetica,sans-Serif" font-size="10.00">view.panes.ViewPaneModule.updateView</text>
</a>
</g>
</g>
<!-- Node5&#45;&gt;Node6 -->
<g id="edge5" class="edge"><title>Node5&#45;&gt;Node6</title>
<path fill="none" stroke="midnightblue" d="M609.601,-373.891C619.356,-371.356 629.125,-368.122 638,-364 688.593,-340.501 737.429,-295.468 761.843,-270.94"/>
<polygon fill="midnightblue" stroke="midnightblue" points="764.387,-273.344 768.882,-263.75 759.385,-268.447 764.387,-273.344"/>
</g>
<!-- Node6&#45;&gt;Node3 -->
<g id="edge10" class="edge"><title>Node6&#45;&gt;Node3</title>
<path fill="none" stroke="midnightblue" d="M784.485,-263.902C799.117,-295.048 848.663,-391.812 920,-440 922.929,-441.978 926.008,-443.801 929.193,-445.479"/>
<polygon fill="midnightblue" stroke="midnightblue" points="927.875,-448.727 938.412,-449.838 930.867,-442.399 927.875,-448.727"/>
</g>
<!-- Node6&#45;&gt;Node4 -->
<g id="edge9" class="edge"><title>Node6&#45;&gt;Node4</title>
<path fill="none" stroke="midnightblue" d="M786.175,-263.786C803.598,-290.518 856.052,-365.162 920,-401 924.862,-403.725 930.059,-406.079 935.417,-408.113"/>
<polygon fill="midnightblue" stroke="midnightblue" points="934.605,-411.533 945.2,-411.438 936.858,-404.906 934.605,-411.533"/>
</g>
<!-- Node7 -->
<g id="node7" class="node"><title>Node7</title>
<g id="a_node7"><a xlink:href="../../d3/d42/classmodel_1_1_model.html#a54936407d7df5ab8ef3c0ae54bcdc0ed" target="_top" xlink:title="model.Model.getBackground\lColor">
<polygon fill="white" stroke="black" points="937,-264 937,-294 1091,-294 1091,-264 937,-264"/>
<text text-anchor="start" x="945" y="-282" font-family="Helvetica,sans-Serif" font-size="10.00">model.Model.getBackground</text>
<text text-anchor="middle" x="1014" y="-271" font-family="Helvetica,sans-Serif" font-size="10.00">Color</text>
</a>
</g>
</g>
<!-- Node6&#45;&gt;Node7 -->
<g id="edge6" class="edge"><title>Node6&#45;&gt;Node7</title>
<path fill="none" stroke="midnightblue" d="M868.752,-263.523C887.72,-265.558 907.73,-267.705 926.608,-269.73"/>
<polygon fill="midnightblue" stroke="midnightblue" points="926.348,-273.223 936.664,-270.809 927.095,-266.263 926.348,-273.223"/>
</g>
<!-- Node8 -->
<g id="node8" class="node"><title>Node8</title>
<g id="a_node8"><a xlink:href="../../db/db5/classview_1_1panes_1_1_view_pane_module.html#ac94ee444587349ddad19b8caee500c9c" target="_top" xlink:title="view.panes.ViewPaneModule.update\lBGColor">
<polygon fill="white" stroke="black" points="920,-215 920,-245 1108,-245 1108,-215 920,-215"/>
<text text-anchor="start" x="928" y="-233" font-family="Helvetica,sans-Serif" font-size="10.00">view.panes.ViewPaneModule.update</text>
<text text-anchor="middle" x="1014" y="-222" font-family="Helvetica,sans-Serif" font-size="10.00">BGColor</text>
</a>
</g>
</g>
<!-- Node6&#45;&gt;Node8 -->
<g id="edge7" class="edge"><title>Node6&#45;&gt;Node8</title>
<path fill="none" stroke="midnightblue" d="M872.422,-244.48C884.754,-243.21 897.461,-241.901 909.96,-240.614"/>
<polygon fill="midnightblue" stroke="midnightblue" points="910.338,-244.093 919.927,-239.587 909.621,-237.13 910.338,-244.093"/>
</g>
<!-- Node9 -->
<g id="node9" class="node"><title>Node9</title>
<g id="a_node9"><a xlink:href="../../db/db5/classview_1_1panes_1_1_view_pane_module.html#abe91f8bb732e99d762bdaba51ceae04b" target="_top" xlink:title="view.panes.ViewPaneModule.toRGB">
<polygon fill="white" stroke="black" points="922,-176.5 922,-195.5 1106,-195.5 1106,-176.5 922,-176.5"/>
<text text-anchor="middle" x="1014" y="-183.5" font-family="Helvetica,sans-Serif" font-size="10.00">view.panes.ViewPaneModule.toRGB</text>
</a>
</g>
</g>
<!-- Node6&#45;&gt;Node9 -->
<g id="edge8" class="edge"><title>Node6&#45;&gt;Node9</title>
<path fill="none" stroke="midnightblue" d="M803.966,-244.496C831.597,-233.802 878.543,-216.433 920,-205 929.651,-202.338 939.959,-199.87 950.068,-197.653"/>
<polygon fill="midnightblue" stroke="midnightblue" points="951.027,-201.027 960.079,-195.522 949.57,-194.181 951.027,-201.027"/>
</g>
<!-- Node10 -->
<g id="node10" class="node"><title>Node10</title>
<g id="a_node10"><a xlink:href="../../df/d50/classmodel_1_1_turtle_set_manager.html#a9e215e93eccbed2ab9ebec6119cfe305" target="_top" xlink:title="model.TurtleSetManager.get\lAllTurtles">
<polygon fill="white" stroke="black" points="938,-127 938,-157 1090,-157 1090,-127 938,-127"/>
<text text-anchor="start" x="946" y="-145" font-family="Helvetica,sans-Serif" font-size="10.00">model.TurtleSetManager.get</text>
<text text-anchor="middle" x="1014" y="-134" font-family="Helvetica,sans-Serif" font-size="10.00">AllTurtles</text>
</a>
</g>
</g>
<!-- Node6&#45;&gt;Node10 -->
<g id="edge11" class="edge"><title>Node6&#45;&gt;Node10</title>
<path fill="none" stroke="midnightblue" d="M792.796,-244.229C816.605,-226.475 869.858,-188.753 920,-167 925.637,-164.555 931.572,-162.296 937.603,-160.221"/>
<polygon fill="midnightblue" stroke="midnightblue" points="938.71,-163.542 947.131,-157.112 936.539,-156.887 938.71,-163.542"/>
</g>
<!-- Node11 -->
<g id="node11" class="node"><title>Node11</title>
<g id="a_node11"><a xlink:href="../../d3/d42/classmodel_1_1_model.html#af73e838aed2c068e8f7d31bfa1cc88d7" target="_top" xlink:title="model.Model.getStamp">
<polygon fill="white" stroke="black" points="949.5,-88.5 949.5,-107.5 1078.5,-107.5 1078.5,-88.5 949.5,-88.5"/>
<text text-anchor="middle" x="1014" y="-95.5" font-family="Helvetica,sans-Serif" font-size="10.00">model.Model.getStamp</text>
</a>
</g>
</g>
<!-- Node6&#45;&gt;Node11 -->
<g id="edge12" class="edge"><title>Node6&#45;&gt;Node11</title>
<path fill="none" stroke="midnightblue" d="M786.59,-244.492C804.663,-219.21 857.824,-150.008 920,-117 926.063,-113.781 932.616,-111.107 939.338,-108.885"/>
<polygon fill="midnightblue" stroke="midnightblue" points="940.676,-112.139 949.27,-105.943 938.688,-105.427 940.676,-112.139"/>
</g>
<!-- Node12 -->
<g id="node12" class="node"><title>Node12</title>
<g id="a_node12"><a xlink:href="../../db/db5/classview_1_1panes_1_1_view_pane_module.html#a44db6ae832af3ce470baa9406142b8cb" target="_top" xlink:title="view.panes.ViewPaneModule.make\lStamps">
<polygon fill="white" stroke="black" points="923.5,-39 923.5,-69 1104.5,-69 1104.5,-39 923.5,-39"/>
<text text-anchor="start" x="931.5" y="-57" font-family="Helvetica,sans-Serif" font-size="10.00">view.panes.ViewPaneModule.make</text>
<text text-anchor="middle" x="1014" y="-46" font-family="Helvetica,sans-Serif" font-size="10.00">Stamps</text>
</a>
</g>
</g>
<!-- Node6&#45;&gt;Node12 -->
<g id="edge13" class="edge"><title>Node6&#45;&gt;Node12</title>
<path fill="none" stroke="midnightblue" d="M784.868,-244.27C800.262,-214.536 850.974,-124.158 920,-79 923.122,-76.9577 926.406,-75.0815 929.8,-73.358"/>
<polygon fill="midnightblue" stroke="midnightblue" points="931.372,-76.488 939.007,-69.143 928.458,-70.1233 931.372,-76.488"/>
</g>
<!-- Node19 -->
<g id="node19" class="node"><title>Node19</title>
<g id="a_node19"><a xlink:href="../../d3/d42/classmodel_1_1_model.html#a0a457f31350a460e11dc864463e0d8ff" target="_top" xlink:title="model.Model.setStamp">
<polygon fill="white" stroke="black" points="950,-0.5 950,-19.5 1078,-19.5 1078,-0.5 950,-0.5"/>
<text text-anchor="middle" x="1014" y="-7.5" font-family="Helvetica,sans-Serif" font-size="10.00">model.Model.setStamp</text>
</a>
</g>
</g>
<!-- Node6&#45;&gt;Node19 -->
<g id="edge20" class="edge"><title>Node6&#45;&gt;Node19</title>
<path fill="none" stroke="midnightblue" d="M782.896,-244.385C794.036,-209.166 837.671,-86.28 920,-29 926.045,-24.7942 932.814,-21.4778 939.869,-18.8684"/>
<polygon fill="midnightblue" stroke="midnightblue" points="941.177,-22.1242 949.626,-15.7312 939.034,-15.4602 941.177,-22.1242"/>
</g>
<!-- Node20 -->
<g id="node20" class="node"><title>Node20</title>
<g id="a_node20"><a xlink:href="../../db/db5/classview_1_1panes_1_1_view_pane_module.html#a7ad9ad27137ffdf0ea96753a22da236b" target="_top" xlink:title="view.panes.ViewPaneModule.erase\lStamps">
<polygon fill="white" stroke="black" points="923.5,-362 923.5,-392 1104.5,-392 1104.5,-362 923.5,-362"/>
<text text-anchor="start" x="931.5" y="-380" font-family="Helvetica,sans-Serif" font-size="10.00">view.panes.ViewPaneModule.erase</text>
<text text-anchor="middle" x="1014" y="-369" font-family="Helvetica,sans-Serif" font-size="10.00">Stamps</text>
</a>
</g>
</g>
<!-- Node6&#45;&gt;Node20 -->
<g id="edge21" class="edge"><title>Node6&#45;&gt;Node20</title>
<path fill="none" stroke="midnightblue" d="M790.783,-263.574C813.234,-283.026 867.306,-327.407 920,-352 925.241,-354.446 930.764,-356.688 936.397,-358.735"/>
<polygon fill="midnightblue" stroke="midnightblue" points="935.355,-362.078 945.949,-362 937.619,-355.454 935.355,-362.078"/>
</g>
<!-- Node22 -->
<g id="node22" class="node"><title>Node22</title>
<g id="a_node22"><a xlink:href="../../db/db5/classview_1_1panes_1_1_view_pane_module.html#ab55ce3511929b88a2cd1235eb694868f" target="_top" xlink:title="view.panes.ViewPaneModule.update\lTurtle">
<polygon fill="white" stroke="black" points="920,-313 920,-343 1108,-343 1108,-313 920,-313"/>
<text text-anchor="start" x="928" y="-331" font-family="Helvetica,sans-Serif" font-size="10.00">view.panes.ViewPaneModule.update</text>
<text text-anchor="middle" x="1014" y="-320" font-family="Helvetica,sans-Serif" font-size="10.00">Turtle</text>
</a>
</g>
</g>
<!-- Node6&#45;&gt;Node22 -->
<g id="edge23" class="edge"><title>Node6&#45;&gt;Node22</title>
<path fill="none" stroke="midnightblue" d="M805.359,-263.512C833.261,-273.829 879.527,-290.496 920,-303 927.922,-305.447 936.265,-307.885 944.568,-310.224"/>
<polygon fill="midnightblue" stroke="midnightblue" points="943.698,-313.615 954.27,-312.92 945.572,-306.871 943.698,-313.615"/>
</g>
<!-- Node13 -->
<g id="node13" class="node"><title>Node13</title>
<g id="a_node13"><a xlink:href="../../d7/da6/classview_1_1_turtle_draw.html#a939f4fdbdb66457c9dcee82eb4ae6d9c" target="_top" xlink:title="view.TurtleDraw.drawTurtle">
<polygon fill="white" stroke="black" points="1152.5,-67.5 1152.5,-86.5 1291.5,-86.5 1291.5,-67.5 1152.5,-67.5"/>
<text text-anchor="middle" x="1222" y="-74.5" font-family="Helvetica,sans-Serif" font-size="10.00">view.TurtleDraw.drawTurtle</text>
</a>
</g>
</g>
<!-- Node12&#45;&gt;Node13 -->
<g id="edge14" class="edge"><title>Node12&#45;&gt;Node13</title>
<path fill="none" stroke="midnightblue" d="M1104.76,-64.0212C1117.21,-65.4115 1129.92,-66.831 1142.15,-68.1968"/>
<polygon fill="midnightblue" stroke="midnightblue" points="1141.97,-71.6983 1152.3,-69.3296 1142.75,-64.7415 1141.97,-71.6983"/>
</g>
<!-- Node16 -->
<g id="node16" class="node"><title>Node16</title>
<g id="a_node16"><a xlink:href="../../d7/da6/classview_1_1_turtle_draw.html#a14678068d3fc9d3b6e1067bc372f6030" target="_top" xlink:title="view.TurtleDraw.showTurtle">
<polygon fill="white" stroke="black" points="1152,-29.5 1152,-48.5 1292,-48.5 1292,-29.5 1152,-29.5"/>
<text text-anchor="middle" x="1222" y="-36.5" font-family="Helvetica,sans-Serif" font-size="10.00">view.TurtleDraw.showTurtle</text>
</a>
</g>
</g>
<!-- Node12&#45;&gt;Node16 -->
<g id="edge17" class="edge"><title>Node12&#45;&gt;Node16</title>
<path fill="none" stroke="midnightblue" d="M1104.76,-47.4644C1117.12,-46.5639 1129.75,-45.6445 1141.9,-44.7594"/>
<polygon fill="midnightblue" stroke="midnightblue" points="1142.27,-48.2422 1151.99,-44.0251 1141.76,-41.2607 1142.27,-48.2422"/>
</g>
<!-- Node17 -->
<g id="node17" class="node"><title>Node17</title>
<g id="a_node17"><a xlink:href="../../d7/da6/classview_1_1_turtle_draw.html#a8c2cab38eb294b26aea1ae17595ba2a6" target="_top" xlink:title="view.TurtleDraw.moveTurtle">
<polygon fill="white" stroke="black" points="1150.5,-143.5 1150.5,-162.5 1293.5,-162.5 1293.5,-143.5 1150.5,-143.5"/>
<text text-anchor="middle" x="1222" y="-150.5" font-family="Helvetica,sans-Serif" font-size="10.00">view.TurtleDraw.moveTurtle</text>
</a>
</g>
</g>
<!-- Node12&#45;&gt;Node17 -->
<g id="edge18" class="edge"><title>Node12&#45;&gt;Node17</title>
<path fill="none" stroke="midnightblue" d="M1090.8,-69.1906C1096.89,-71.9348 1102.72,-75.1748 1108,-79 1131.66,-96.1392 1120.16,-117.106 1144,-134 1146.84,-136.012 1149.87,-137.811 1153.02,-139.421"/>
<polygon fill="midnightblue" stroke="midnightblue" points="1151.62,-142.629 1162.18,-143.474 1154.45,-136.227 1151.62,-142.629"/>
</g>
<!-- Node18 -->
<g id="node18" class="node"><title>Node18</title>
<g id="a_node18"><a xlink:href="../../d7/da6/classview_1_1_turtle_draw.html#a5004a16526a67f090d7da45474b5136e" target="_top" xlink:title="view.TurtleDraw.setAngle">
<polygon fill="white" stroke="black" points="1155.5,-105.5 1155.5,-124.5 1288.5,-124.5 1288.5,-105.5 1155.5,-105.5"/>
<text text-anchor="middle" x="1222" y="-112.5" font-family="Helvetica,sans-Serif" font-size="10.00">view.TurtleDraw.setAngle</text>
</a>
</g>
</g>
<!-- Node12&#45;&gt;Node18 -->
<g id="edge19" class="edge"><title>Node12&#45;&gt;Node18</title>
<path fill="none" stroke="midnightblue" d="M1077.02,-69.0126C1087.46,-72.0119 1098.11,-75.3695 1108,-79 1124.61,-85.0988 1127.33,-90.0733 1144,-96 1151.04,-98.5012 1158.55,-100.795 1166.02,-102.858"/>
<polygon fill="midnightblue" stroke="midnightblue" points="1165.2,-106.264 1175.77,-105.434 1166.99,-99.4958 1165.2,-106.264"/>
</g>
<!-- Node14 -->
<g id="node14" class="node"><title>Node14</title>
<g id="a_node14"><a xlink:href="../../d6/d34/classmodel_1_1_turtle.html#a942dbeb1d7e2bc19b6870538c2c3a7d2" target="_top" xlink:title="model.Turtle.getShape">
<polygon fill="white" stroke="black" points="1360.5,-89.5 1360.5,-108.5 1485.5,-108.5 1485.5,-89.5 1360.5,-89.5"/>
<text text-anchor="middle" x="1423" y="-96.5" font-family="Helvetica,sans-Serif" font-size="10.00">model.Turtle.getShape</text>
</a>
</g>
</g>
<!-- Node13&#45;&gt;Node14 -->
<g id="edge15" class="edge"><title>Node13&#45;&gt;Node14</title>
<path fill="none" stroke="midnightblue" d="M1291.76,-84.602C1310.62,-86.6865 1331.11,-88.9515 1350.13,-91.0547"/>
<polygon fill="midnightblue" stroke="midnightblue" points="1349.91,-94.5509 1360.23,-92.1711 1350.67,-87.5933 1349.91,-94.5509"/>
</g>
<!-- Node15 -->
<g id="node15" class="node"><title>Node15</title>
<g id="a_node15"><a xlink:href="../../d3/db7/classview_1_1controllers_1_1_image_palette.html#a8a6620714bc12d5a00b97e99299a7040" target="_top" xlink:title="view.controllers.ImagePalette.get\lImage">
<polygon fill="white" stroke="black" points="1336,-40 1336,-70 1510,-70 1510,-40 1336,-40"/>
<text text-anchor="start" x="1344" y="-58" font-family="Helvetica,sans-Serif" font-size="10.00">view.controllers.ImagePalette.get</text>
<text text-anchor="middle" x="1423" y="-47" font-family="Helvetica,sans-Serif" font-size="10.00">Image</text>
</a>
</g>
</g>
<!-- Node13&#45;&gt;Node15 -->
<g id="edge16" class="edge"><title>Node13&#45;&gt;Node15</title>
<path fill="none" stroke="midnightblue" d="M1291.76,-69.398C1302.71,-68.1877 1314.21,-66.9165 1325.65,-65.6514"/>
<polygon fill="midnightblue" stroke="midnightblue" points="1326.13,-69.1206 1335.68,-64.5429 1325.36,-62.163 1326.13,-69.1206"/>
</g>
<!-- Node21 -->
<g id="node21" class="node"><title>Node21</title>
<g id="a_node21"><a xlink:href="../../d7/da6/classview_1_1_turtle_draw.html#acb97dedda080cb5ed17031d2b31adc2c" target="_top" xlink:title="view.TurtleDraw.hideTurtle">
<polygon fill="white" stroke="black" points="1153.5,-485.5 1153.5,-504.5 1290.5,-504.5 1290.5,-485.5 1153.5,-485.5"/>
<text text-anchor="middle" x="1222" y="-492.5" font-family="Helvetica,sans-Serif" font-size="10.00">view.TurtleDraw.hideTurtle</text>
</a>
</g>
</g>
<!-- Node20&#45;&gt;Node21 -->
<g id="edge22" class="edge"><title>Node20&#45;&gt;Node21</title>
<path fill="none" stroke="midnightblue" d="M1092.72,-392.164C1098.18,-394.918 1103.36,-398.167 1108,-402 1136.2,-425.29 1115.56,-453.003 1144,-476 1146.26,-477.826 1148.67,-479.48 1151.19,-480.979"/>
<polygon fill="midnightblue" stroke="midnightblue" points="1149.62,-484.107 1160.12,-485.495 1152.77,-477.86 1149.62,-484.107"/>
</g>
<!-- Node22&#45;&gt;Node13 -->
<g id="edge25" class="edge"><title>Node22&#45;&gt;Node13</title>
<path fill="none" stroke="midnightblue" d="M1096.14,-312.879C1100.49,-310.093 1104.5,-306.827 1108,-303 1170.98,-234.053 1080.31,-164.292 1144,-96 1145.23,-94.6847 1146.53,-93.4541 1147.9,-92.303"/>
<polygon fill="midnightblue" stroke="midnightblue" points="1150.06,-95.0665 1156.35,-86.544 1146.11,-89.2813 1150.06,-95.0665"/>
</g>
<!-- Node22&#45;&gt;Node16 -->
<g id="edge26" class="edge"><title>Node22&#45;&gt;Node16</title>
<path fill="none" stroke="midnightblue" d="M1096.26,-312.985C1100.58,-310.173 1104.56,-306.872 1108,-303 1181.15,-220.771 1070,-139.468 1144,-58 1145.07,-56.8215 1146.2,-55.7107 1147.38,-54.6639"/>
<polygon fill="midnightblue" stroke="midnightblue" points="1149.74,-57.2816 1155.88,-48.6446 1145.7,-51.5698 1149.74,-57.2816"/>
</g>
<!-- Node22&#45;&gt;Node17 -->
<g id="edge39" class="edge"><title>Node22&#45;&gt;Node17</title>
<path fill="none" stroke="midnightblue" d="M1094.86,-312.995C1099.64,-310.193 1104.09,-306.89 1108,-303 1150.81,-260.424 1100.75,-214.131 1144,-172 1145.48,-170.559 1147.05,-169.221 1148.7,-167.98"/>
<polygon fill="midnightblue" stroke="midnightblue" points="1150.82,-170.784 1157.48,-162.546 1147.13,-164.832 1150.82,-170.784"/>
</g>
<!-- Node22&#45;&gt;Node18 -->
<g id="edge37" class="edge"><title>Node22&#45;&gt;Node18</title>
<path fill="none" stroke="midnightblue" d="M1095.55,-312.99C1100.1,-310.183 1104.32,-306.881 1108,-303 1160.85,-247.284 1090.57,-189.166 1144,-134 1145.25,-132.708 1146.58,-131.498 1147.96,-130.366"/>
<polygon fill="midnightblue" stroke="midnightblue" points="1150.11,-133.14 1156.5,-124.692 1146.24,-127.309 1150.11,-133.14"/>
</g>
<!-- Node22&#45;&gt;Node21 -->
<g id="edge27" class="edge"><title>Node22&#45;&gt;Node21</title>
<path fill="none" stroke="midnightblue" d="M1096.5,-343.202C1100.65,-345.72 1104.53,-348.632 1108,-352 1149.18,-391.965 1102.61,-436.254 1144,-476 1145.49,-477.43 1147.07,-478.759 1148.72,-479.991"/>
<polygon fill="midnightblue" stroke="midnightblue" points="1147.18,-483.152 1157.54,-485.394 1150.84,-477.184 1147.18,-483.152"/>
</g>
<!-- Node23 -->
<g id="node23" class="node"><title>Node23</title>
<g id="a_node23"><a xlink:href="../../d6/d34/classmodel_1_1_turtle.html#ae79a1eae7eed55d121c3b85299ae14ba" target="_top" xlink:title="model.Turtle.getID">
<polygon fill="white" stroke="black" points="1170,-257.5 1170,-276.5 1274,-276.5 1274,-257.5 1170,-257.5"/>
<text text-anchor="middle" x="1222" y="-264.5" font-family="Helvetica,sans-Serif" font-size="10.00">model.Turtle.getID</text>
</a>
</g>
</g>
<!-- Node22&#45;&gt;Node23 -->
<g id="edge24" class="edge"><title>Node22&#45;&gt;Node23</title>
<path fill="none" stroke="midnightblue" d="M1077.02,-312.987C1087.46,-309.988 1098.11,-306.63 1108,-303 1124.61,-296.901 1127.33,-291.927 1144,-286 1151.04,-283.499 1158.55,-281.205 1166.02,-279.142"/>
<polygon fill="midnightblue" stroke="midnightblue" points="1166.99,-282.504 1175.77,-276.566 1165.2,-275.736 1166.99,-282.504"/>
</g>
<!-- Node24 -->
<g id="node24" class="node"><title>Node24</title>
<g id="a_node24"><a xlink:href="../../d6/d34/classmodel_1_1_turtle.html#a279f2bdb3fa955acdd52b7824ec3cd04" target="_top" xlink:title="model.Turtle.getPenStatus">
<polygon fill="white" stroke="black" points="1150.5,-219.5 1150.5,-238.5 1293.5,-238.5 1293.5,-219.5 1150.5,-219.5"/>
<text text-anchor="middle" x="1222" y="-226.5" font-family="Helvetica,sans-Serif" font-size="10.00">model.Turtle.getPenStatus</text>
</a>
</g>
</g>
<!-- Node22&#45;&gt;Node24 -->
<g id="edge28" class="edge"><title>Node22&#45;&gt;Node24</title>
<path fill="none" stroke="midnightblue" d="M1090.8,-312.809C1096.89,-310.065 1102.72,-306.825 1108,-303 1131.66,-285.861 1120.16,-264.894 1144,-248 1146.84,-245.988 1149.87,-244.189 1153.02,-242.579"/>
<polygon fill="midnightblue" stroke="midnightblue" points="1154.45,-245.773 1162.18,-238.526 1151.62,-239.371 1154.45,-245.773"/>
</g>
<!-- Node26 -->
<g id="node26" class="node"><title>Node26</title>
<g id="a_node26"><a xlink:href="../../d7/da6/classview_1_1_turtle_draw.html#a1325ca376115619f15f5014eb4c5ad2a" target="_top" xlink:title="view.TurtleDraw.drawLine">
<polygon fill="white" stroke="black" points="1155.5,-181.5 1155.5,-200.5 1288.5,-200.5 1288.5,-181.5 1155.5,-181.5"/>
<text text-anchor="middle" x="1222" y="-188.5" font-family="Helvetica,sans-Serif" font-size="10.00">view.TurtleDraw.drawLine</text>
</a>
</g>
</g>
<!-- Node22&#45;&gt;Node26 -->
<g id="edge30" class="edge"><title>Node22&#45;&gt;Node26</title>
<path fill="none" stroke="midnightblue" d="M1093.98,-312.777C1099.03,-310.031 1103.77,-306.799 1108,-303 1140.97,-273.376 1110.73,-239.282 1144,-210 1145.76,-208.448 1147.63,-207.018 1149.59,-205.702"/>
<polygon fill="midnightblue" stroke="midnightblue" points="1151.63,-208.57 1158.64,-200.624 1148.2,-202.465 1151.63,-208.57"/>
</g>
<!-- Node27 -->
<g id="node27" class="node"><title>Node27</title>
<g id="a_node27"><a xlink:href="../../d6/d34/classmodel_1_1_turtle.html#a832234461564763f8330181b3c1163ff" target="_top" xlink:title="model.Turtle.getPrevLocation">
<polygon fill="white" stroke="black" points="1144.5,-447.5 1144.5,-466.5 1299.5,-466.5 1299.5,-447.5 1144.5,-447.5"/>
<text text-anchor="middle" x="1222" y="-454.5" font-family="Helvetica,sans-Serif" font-size="10.00">model.Turtle.getPrevLocation</text>
</a>
</g>
</g>
<!-- Node22&#45;&gt;Node27 -->
<g id="edge31" class="edge"><title>Node22&#45;&gt;Node27</title>
<path fill="none" stroke="midnightblue" d="M1095.18,-343.19C1099.77,-345.701 1104.09,-348.617 1108,-352 1139.33,-379.118 1112.53,-411.049 1144,-438 1145.97,-439.685 1148.06,-441.225 1150.25,-442.632"/>
<polygon fill="midnightblue" stroke="midnightblue" points="1148.67,-445.752 1159.13,-447.426 1151.99,-439.593 1148.67,-445.752"/>
</g>
<!-- Node28 -->
<g id="node28" class="node"><title>Node28</title>
<g id="a_node28"><a xlink:href="../../d6/d34/classmodel_1_1_turtle.html#a2470b9b4ef48a261324047de8ebdc242" target="_top" xlink:title="model.Turtle.getNewLocation">
<polygon fill="white" stroke="black" points="1144.5,-409.5 1144.5,-428.5 1299.5,-428.5 1299.5,-409.5 1144.5,-409.5"/>
<text text-anchor="middle" x="1222" y="-416.5" font-family="Helvetica,sans-Serif" font-size="10.00">model.Turtle.getNewLocation</text>
</a>
</g>
</g>
<!-- Node22&#45;&gt;Node28 -->
<g id="edge32" class="edge"><title>Node22&#45;&gt;Node28</title>
<path fill="none" stroke="midnightblue" d="M1091.48,-343.106C1097.29,-345.626 1102.87,-348.568 1108,-352 1130.16,-366.835 1121.76,-385.283 1144,-400 1147.11,-402.059 1150.43,-403.895 1153.87,-405.532"/>
<polygon fill="midnightblue" stroke="midnightblue" points="1152.64,-408.811 1163.22,-409.417 1155.32,-402.347 1152.64,-408.811"/>
</g>
<!-- Node29 -->
<g id="node29" class="node"><title>Node29</title>
<g id="a_node29"><a xlink:href="../../d6/d34/classmodel_1_1_turtle.html#a19c059b1cbfbd4e8f046ec2403de3fb9" target="_top" xlink:title="model.Turtle.getPenDash">
<polygon fill="white" stroke="black" points="1153.5,-371.5 1153.5,-390.5 1290.5,-390.5 1290.5,-371.5 1153.5,-371.5"/>
<text text-anchor="middle" x="1222" y="-378.5" font-family="Helvetica,sans-Serif" font-size="10.00">model.Turtle.getPenDash</text>
</a>
</g>
</g>
<!-- Node22&#45;&gt;Node29 -->
<g id="edge33" class="edge"><title>Node22&#45;&gt;Node29</title>
<path fill="none" stroke="midnightblue" d="M1074.08,-343.072C1085.35,-345.997 1097.05,-349.066 1108,-352 1124.04,-356.297 1127.94,-357.788 1144,-362 1152.9,-364.334 1162.4,-366.744 1171.58,-369.031"/>
<polygon fill="midnightblue" stroke="midnightblue" points="1170.83,-372.45 1181.38,-371.456 1172.51,-365.655 1170.83,-372.45"/>
</g>
<!-- Node31 -->
<g id="node31" class="node"><title>Node31</title>
<g id="a_node31"><a xlink:href="../../d6/d34/classmodel_1_1_turtle.html#a193c156784f783064ae533b619b6be6e" target="_top" xlink:title="model.Turtle.getPenColor">
<polygon fill="white" stroke="black" points="1153.5,-333.5 1153.5,-352.5 1290.5,-352.5 1290.5,-333.5 1153.5,-333.5"/>
<text text-anchor="middle" x="1222" y="-340.5" font-family="Helvetica,sans-Serif" font-size="10.00">model.Turtle.getPenColor</text>
</a>
</g>
</g>
<!-- Node22&#45;&gt;Node31 -->
<g id="edge35" class="edge"><title>Node22&#45;&gt;Node31</title>
<path fill="none" stroke="midnightblue" d="M1108.06,-334.776C1119.85,-335.635 1131.82,-336.506 1143.33,-337.345"/>
<polygon fill="midnightblue" stroke="midnightblue" points="1143.1,-340.837 1153.32,-338.072 1143.61,-333.855 1143.1,-340.837"/>
</g>
<!-- Node33 -->
<g id="node33" class="node"><title>Node33</title>
<g id="a_node33"><a xlink:href="../../d6/d34/classmodel_1_1_turtle.html#a1c5d07962ede5fbfacc59413274d4300" target="_top" xlink:title="model.Turtle.getHeading">
<polygon fill="white" stroke="black" points="1155,-295.5 1155,-314.5 1289,-314.5 1289,-295.5 1155,-295.5"/>
<text text-anchor="middle" x="1222" y="-302.5" font-family="Helvetica,sans-Serif" font-size="10.00">model.Turtle.getHeading</text>
</a>
</g>
</g>
<!-- Node22&#45;&gt;Node33 -->
<g id="edge38" class="edge"><title>Node22&#45;&gt;Node33</title>
<path fill="none" stroke="midnightblue" d="M1108.06,-317.61C1120.38,-316.234 1132.9,-314.836 1144.9,-313.496"/>
<polygon fill="midnightblue" stroke="midnightblue" points="1145.29,-316.975 1154.84,-312.387 1144.51,-310.018 1145.29,-316.975"/>
</g>
<!-- Node25 -->
<g id="node25" class="node"><title>Node25</title>
<g id="a_node25"><a xlink:href="../../de/ded/classmodel_1_1_pen.html#afad4fb3e51847cacab72c036ddaa108f" target="_top" xlink:title="model.Pen.getStatus">
<polygon fill="white" stroke="black" points="1364,-219.5 1364,-238.5 1482,-238.5 1482,-219.5 1364,-219.5"/>
<text text-anchor="middle" x="1423" y="-226.5" font-family="Helvetica,sans-Serif" font-size="10.00">model.Pen.getStatus</text>
</a>
</g>
</g>
<!-- Node24&#45;&gt;Node25 -->
<g id="edge29" class="edge"><title>Node24&#45;&gt;Node25</title>
<path fill="none" stroke="midnightblue" d="M1293.72,-229C1313.23,-229 1334.35,-229 1353.72,-229"/>
<polygon fill="midnightblue" stroke="midnightblue" points="1353.97,-232.5 1363.97,-229 1353.97,-225.5 1353.97,-232.5"/>
</g>
<!-- Node30 -->
<g id="node30" class="node"><title>Node30</title>
<g id="a_node30"><a xlink:href="../../de/ded/classmodel_1_1_pen.html#a6999f4af56377415621f193ef8600e27" target="_top" xlink:title="model.Pen.getDash">
<polygon fill="white" stroke="black" points="1367.5,-371.5 1367.5,-390.5 1478.5,-390.5 1478.5,-371.5 1367.5,-371.5"/>
<text text-anchor="middle" x="1423" y="-378.5" font-family="Helvetica,sans-Serif" font-size="10.00">model.Pen.getDash</text>
</a>
</g>
</g>
<!-- Node29&#45;&gt;Node30 -->
<g id="edge34" class="edge"><title>Node29&#45;&gt;Node30</title>
<path fill="none" stroke="midnightblue" d="M1290.65,-381C1312.15,-381 1335.86,-381 1357.15,-381"/>
<polygon fill="midnightblue" stroke="midnightblue" points="1357.39,-384.5 1367.39,-381 1357.39,-377.5 1357.39,-384.5"/>
</g>
<!-- Node32 -->
<g id="node32" class="node"><title>Node32</title>
<g id="a_node32"><a xlink:href="../../de/ded/classmodel_1_1_pen.html#a704af31474b10d17caf40773b7971826" target="_top" xlink:title="model.Pen.getPenColor">
<polygon fill="white" stroke="black" points="1358.5,-333.5 1358.5,-352.5 1487.5,-352.5 1487.5,-333.5 1358.5,-333.5"/>
<text text-anchor="middle" x="1423" y="-340.5" font-family="Helvetica,sans-Serif" font-size="10.00">model.Pen.getPenColor</text>
</a>
</g>
</g>
<!-- Node31&#45;&gt;Node32 -->
<g id="edge36" class="edge"><title>Node31&#45;&gt;Node32</title>
<path fill="none" stroke="midnightblue" d="M1290.65,-343C1309.18,-343 1329.36,-343 1348.21,-343"/>
<polygon fill="midnightblue" stroke="midnightblue" points="1348.23,-346.5 1358.23,-343 1348.23,-339.5 1348.23,-346.5"/>
</g>
</g>
</svg>
        <g id="navigator" transform="translate(0 0)" fill="#404254">
                <rect fill="#f2f5e9" fill-opacity="0.5" stroke="#606060" stroke-width=".5" x="0" y="0" width="60" height="60"/>
                <use id="zoomplus" xlink:href="#zoomPlus" x="17" y="9" onmousedown="handleZoom(evt,'in')"/>
                <use id="zoomminus" xlink:href="#zoomMin" x="42" y="9" onmousedown="handleZoom(evt,'out')"/>
                <use id="reset" xlink:href="#resetDef" x="30" y="36" onmousedown="handleReset()"/>
                <g id="arrowUp" xlink:href="#dirArrow" transform="translate(30 24)" onmousedown="handlePan(0,-1)">
                  <use xlink:href="#rim" fill="#404040">
                        <set attributeName="fill" to="#808080" begin="arrowUp.mouseover" end="arrowUp.mouseout"/>
                  </use>
                  <path fill="none" stroke="white" stroke-width="1.5" d="M0,-3.0v7 M-2.5,-0.5L0,-3.0L2.5,-0.5"/>
                </g>
                <g id="arrowRight" xlink:href="#dirArrow" transform="rotate(90) translate(36 -43)" onmousedown="handlePan(1,0)">
                  <use xlink:href="#rim" fill="#404040">
                        <set attributeName="fill" to="#808080" begin="arrowRight.mouseover" end="arrowRight.mouseout"/>
                  </use>
                  <path fill="none" stroke="white" stroke-width="1.5" d="M0,-3.0v7 M-2.5,-0.5L0,-3.0L2.5,-0.5"/>
                </g>
                <g id="arrowDown" xlink:href="#dirArrow" transform="rotate(180) translate(-30 -48)" onmousedown="handlePan(0,1)">
                  <use xlink:href="#rim" fill="#404040">
                        <set attributeName="fill" to="#808080" begin="arrowDown.mouseover" end="arrowDown.mouseout"/>
                  </use>
                  <path fill="none" stroke="white" stroke-width="1.5" d="M0,-3.0v7 M-2.5,-0.5L0,-3.0L2.5,-0.5"/>
                </g>
                <g id="arrowLeft" xlink:href="#dirArrow" transform="rotate(270) translate(-36 17)" onmousedown="handlePan(-1,0)">
                  <use xlink:href="#rim" fill="#404040">
                        <set attributeName="fill" to="#808080" begin="arrowLeft.mouseover" end="arrowLeft.mouseout"/>
                  </use>
                  <path fill="none" stroke="white" stroke-width="1.5" d="M0,-3.0v7 M-2.5,-0.5L0,-3.0L2.5,-0.5"/>
                </g>
        </g>
        <svg viewBox="0 0 15 15" width="100%" height="30px" preserveAspectRatio="xMaxYMin meet">
         <g id="arrow_out" transform="scale(0.3 0.3)">
          <a xlink:href="classcommands_1_1_difference_command_a0c34c43d3bb266ef3e48ae27be938a0f_cgraph_org.svg" target="_base">
           <rect id="button" ry="5" rx="5" y="6" x="6" height="38" width="38"
                fill="#f2f5e9" fill-opacity="0.5" stroke="#606060" stroke-width="1.0"/>
           <path id="arrow"
             d="M 11.500037,31.436501 C 11.940474,20.09759 22.043105,11.32322 32.158766,21.979434 L 37.068811,17.246167 C 37.068811,17.246167 37.088388,32 37.088388,32 L 22.160133,31.978069 C 22.160133,31.978069 26.997745,27.140456 26.997745,27.140456 C 18.528582,18.264221 13.291696,25.230495 11.500037,31.436501 z"
             style="fill:#404040;"/>
          </a>
         </g>
        </svg>
</svg>
