<?xml version="1.0" encoding="UTF-8" standalone="no"?>
<!DOCTYPE svg PUBLIC "-//W3C//DTD SVG 1.1//EN"
 "http://www.w3.org/Graphics/SVG/1.1/DTD/svg11.dtd">
<!-- Generated by graphviz version 2.36.0 (20140111.2315)
 -->
<!-- Title: commands.PenDownCommand.updateTurtle Pages: 1 -->
<svg width="554pt" height="66pt"
 viewBox="0.00 0.00 554.00 66.00" xmlns="http://www.w3.org/2000/svg" xmlns:xlink="http://www.w3.org/1999/xlink">
<g id="graph0" class="graph" transform="scale(1 1) rotate(0) translate(4 62)">
<title>commands.PenDownCommand.updateTurtle</title>
<polygon fill="white" stroke="none" points="-4,4 -4,-62 550,-62 550,4 -4,4"/>
<!-- Node1 -->
<g id="node1" class="node"><title>Node1</title>
<polygon fill="#bfbfbf" stroke="black" points="0.5,-14 0.5,-44 205.5,-44 205.5,-14 0.5,-14"/>
<text text-anchor="start" x="8.5" y="-32" font-family="Helvetica,sans-Serif" font-size="10.00">commands.PenDownCommand.update</text>
<text text-anchor="middle" x="103" y="-21" font-family="Helvetica,sans-Serif" font-size="10.00">Turtle</text>
</g>
<!-- Node2 -->
<g id="node2" class="node"><title>Node2</title>
<g id="a_node2"><a xlink:href="../../d6/d34/classmodel_1_1_turtle.html#a2b9bbcfb9693e75c3f78e9f607684790" target="_top" xlink:title="model.Turtle.changePen">
<polygon fill="white" stroke="black" points="242.5,-19.5 242.5,-38.5 373.5,-38.5 373.5,-19.5 242.5,-19.5"/>
<text text-anchor="middle" x="308" y="-26.5" font-family="Helvetica,sans-Serif" font-size="10.00">model.Turtle.changePen</text>
</a>
</g>
</g>
<!-- Node1&#45;&gt;Node2 -->
<g id="edge1" class="edge"><title>Node1&#45;&gt;Node2</title>
<path fill="none" stroke="midnightblue" d="M205.797,-29C214.756,-29 223.712,-29 232.386,-29"/>
<polygon fill="midnightblue" stroke="midnightblue" points="232.422,-32.5001 242.422,-29 232.422,-25.5001 232.422,-32.5001"/>
</g>
<!-- Node3 -->
<g id="node3" class="node"><title>Node3</title>
<g id="a_node3"><a xlink:href="../../de/ded/classmodel_1_1_pen.html#a849a2fe88fc37fd44086d94e7d09a4c3" target="_top" xlink:title="model.Pen.setPenStatus">
<polygon fill="white" stroke="black" points="410.5,-38.5 410.5,-57.5 545.5,-57.5 545.5,-38.5 410.5,-38.5"/>
<text text-anchor="middle" x="478" y="-45.5" font-family="Helvetica,sans-Serif" font-size="10.00">model.Pen.setPenStatus</text>
</a>
</g>
</g>
<!-- Node2&#45;&gt;Node3 -->
<g id="edge2" class="edge"><title>Node2&#45;&gt;Node3</title>
<path fill="none" stroke="midnightblue" d="M373.953,-36.3459C382.514,-37.3141 391.354,-38.3139 400.091,-39.3019"/>
<polygon fill="midnightblue" stroke="midnightblue" points="399.947,-42.8079 410.277,-40.4539 400.733,-35.8522 399.947,-42.8079"/>
</g>
<!-- Node4 -->
<g id="node4" class="node"><title>Node4</title>
<g id="a_node4"><a xlink:href="../../de/ded/classmodel_1_1_pen.html#afad4fb3e51847cacab72c036ddaa108f" target="_top" xlink:title="model.Pen.getStatus">
<polygon fill="white" stroke="black" points="419,-0.5 419,-19.5 537,-19.5 537,-0.5 419,-0.5"/>
<text text-anchor="middle" x="478" y="-7.5" font-family="Helvetica,sans-Serif" font-size="10.00">model.Pen.getStatus</text>
</a>
</g>
</g>
<!-- Node2&#45;&gt;Node4 -->
<g id="edge3" class="edge"><title>Node2&#45;&gt;Node4</title>
<path fill="none" stroke="midnightblue" d="M373.953,-21.6541C385.38,-20.3618 397.302,-19.0134 408.814,-17.7115"/>
<polygon fill="midnightblue" stroke="midnightblue" points="409.258,-21.1837 418.802,-16.582 408.472,-14.228 409.258,-21.1837"/>
</g>
</g>
</svg>
