<?xml version="1.0" encoding="UTF-8" standalone="no"?>
<!DOCTYPE svg PUBLIC "-//W3C//DTD SVG 1.1//EN"
 "http://www.w3.org/Graphics/SVG/1.1/DTD/svg11.dtd">
<!-- Generated by graphviz version 2.36.0 (20140111.2315)
 -->
<!-- Title: commands.IDCommand.executeCommand Pages: 1 -->
<svg width="582pt" height="99pt"
 viewBox="0.00 0.00 582.00 99.00" xmlns="http://www.w3.org/2000/svg" xmlns:xlink="http://www.w3.org/1999/xlink">
<g id="graph0" class="graph" transform="scale(1 1) rotate(0) translate(4 95)">
<title>commands.IDCommand.executeCommand</title>
<polygon fill="white" stroke="none" points="-4,4 -4,-95 578,-95 578,4 -4,4"/>
<!-- Node1 -->
<g id="node1" class="node"><title>Node1</title>
<polygon fill="#bfbfbf" stroke="black" points="0.5,-17 0.5,-47 175.5,-47 175.5,-17 0.5,-17"/>
<text text-anchor="start" x="8.5" y="-35" font-family="Helvetica,sans-Serif" font-size="10.00">commands.IDCommand.execute</text>
<text text-anchor="middle" x="88" y="-24" font-family="Helvetica,sans-Serif" font-size="10.00">Command</text>
</g>
<!-- Node2 -->
<g id="node2" class="node"><title>Node2</title>
<g id="a_node2"><a xlink:href="../../dd/dd6/classcommands_1_1_command.html#a761bd86c36bd6e2d0c4145647c7a4a17" target="_top" xlink:title="commands.Command.getFirst\lTurtle">
<polygon fill="white" stroke="black" points="212,-39 212,-69 374,-69 374,-39 212,-39"/>
<text text-anchor="start" x="220" y="-57" font-family="Helvetica,sans-Serif" font-size="10.00">commands.Command.getFirst</text>
<text text-anchor="middle" x="293" y="-46" font-family="Helvetica,sans-Serif" font-size="10.00">Turtle</text>
</a>
</g>
</g>
<!-- Node1&#45;&gt;Node2 -->
<g id="edge1" class="edge"><title>Node1&#45;&gt;Node2</title>
<path fill="none" stroke="midnightblue" d="M175.679,-41.3938C184.277,-42.3255 193.019,-43.273 201.653,-44.2087"/>
<polygon fill="midnightblue" stroke="midnightblue" points="201.403,-47.7021 211.722,-45.3 202.158,-40.7428 201.403,-47.7021"/>
</g>
<!-- Node5 -->
<g id="node5" class="node"><title>Node5</title>
<g id="a_node5"><a xlink:href="../../d6/d34/classmodel_1_1_turtle.html#ae79a1eae7eed55d121c3b85299ae14ba" target="_top" xlink:title="model.Turtle.getID">
<polygon fill="white" stroke="black" points="241,-0.5 241,-19.5 345,-19.5 345,-0.5 241,-0.5"/>
<text text-anchor="middle" x="293" y="-7.5" font-family="Helvetica,sans-Serif" font-size="10.00">model.Turtle.getID</text>
</a>
</g>
</g>
<!-- Node1&#45;&gt;Node5 -->
<g id="edge4" class="edge"><title>Node1&#45;&gt;Node5</title>
<path fill="none" stroke="midnightblue" d="M175.679,-22.6062C194.236,-20.5951 213.469,-18.5108 230.823,-16.63"/>
<polygon fill="midnightblue" stroke="midnightblue" points="231.241,-20.1053 240.805,-15.5482 230.486,-13.1461 231.241,-20.1053"/>
</g>
<!-- Node3 -->
<g id="node3" class="node"><title>Node3</title>
<g id="a_node3"><a xlink:href="../../df/d50/classmodel_1_1_turtle_set_manager.html#a9a65c0be3b9c21abaf0ebaa54e5b8484" target="_top" xlink:title="model.TurtleSetManager.get\lActiveTurtles">
<polygon fill="white" stroke="black" points="416,-61 416,-91 568,-91 568,-61 416,-61"/>
<text text-anchor="start" x="424" y="-79" font-family="Helvetica,sans-Serif" font-size="10.00">model.TurtleSetManager.get</text>
<text text-anchor="middle" x="492" y="-68" font-family="Helvetica,sans-Serif" font-size="10.00">ActiveTurtles</text>
</a>
</g>
</g>
<!-- Node2&#45;&gt;Node3 -->
<g id="edge2" class="edge"><title>Node2&#45;&gt;Node3</title>
<path fill="none" stroke="midnightblue" d="M374.127,-62.9482C384.541,-64.1112 395.239,-65.3058 405.732,-66.4777"/>
<polygon fill="midnightblue" stroke="midnightblue" points="405.388,-69.9609 415.715,-67.5925 406.165,-63.0042 405.388,-69.9609"/>
</g>
<!-- Node4 -->
<g id="node4" class="node"><title>Node4</title>
<g id="a_node4"><a xlink:href="../../d3/d42/classmodel_1_1_model.html#a1a683ba5e58fcb3c8882c8e61df20dc0" target="_top" xlink:title="model.Model.getTurtleManager">
<polygon fill="white" stroke="black" points="410,-22.5 410,-41.5 574,-41.5 574,-22.5 410,-22.5"/>
<text text-anchor="middle" x="492" y="-29.5" font-family="Helvetica,sans-Serif" font-size="10.00">model.Model.getTurtleManager</text>
</a>
</g>
</g>
<!-- Node2&#45;&gt;Node4 -->
<g id="edge3" class="edge"><title>Node2&#45;&gt;Node4</title>
<path fill="none" stroke="midnightblue" d="M374.127,-45.0518C382.626,-44.1027 391.314,-43.1325 399.926,-42.1707"/>
<polygon fill="midnightblue" stroke="midnightblue" points="400.434,-45.6358 409.984,-41.0475 399.657,-38.679 400.434,-45.6358"/>
</g>
</g>
</svg>
