<?xml version="1.0" encoding="UTF-8" standalone="no"?>
<!DOCTYPE svg PUBLIC "-//W3C//DTD SVG 1.1//EN"
 "http://www.w3.org/Graphics/SVG/1.1/DTD/svg11.dtd">
<!-- Generated by graphviz version 2.36.0 (20140111.2315)
 -->
<!-- Title: commands.ClearScreenCommand.executeCommand Pages: 1 -->
<svg width="1528pt" height="513pt"
 viewBox="0.00 0.00 1528.00 513.00" xmlns="http://www.w3.org/2000/svg" xmlns:xlink="http://www.w3.org/1999/xlink">
<g id="graph0" class="graph" transform="scale(1 1) rotate(0) translate(4 509)">
<title>commands.ClearScreenCommand.executeCommand</title>
<polygon fill="white" stroke="none" points="-4,4 -4,-509 1524,-509 1524,4 -4,4"/>
<!-- Node1 -->
<g id="node1" class="node"><title>Node1</title>
<polygon fill="#bfbfbf" stroke="black" points="0,-392 0,-422 224,-422 224,-392 0,-392"/>
<text text-anchor="start" x="8" y="-410" font-family="Helvetica,sans-Serif" font-size="10.00">commands.ClearScreenCommand.execute</text>
<text text-anchor="middle" x="112" y="-399" font-family="Helvetica,sans-Serif" font-size="10.00">Command</text>
</g>
<!-- Node2 -->
<g id="node2" class="node"><title>Node2</title>
<g id="a_node2"><a xlink:href="../../dd/dd6/classcommands_1_1_command.html#abafa69601e87c34d4453cf84349d6f9c" target="_top" xlink:title="commands.Command.execute\lCommand">
<polygon fill="white" stroke="black" points="260.5,-392 260.5,-422 425.5,-422 425.5,-392 260.5,-392"/>
<text text-anchor="start" x="268.5" y="-410" font-family="Helvetica,sans-Serif" font-size="10.00">commands.Command.execute</text>
<text text-anchor="middle" x="343" y="-399" font-family="Helvetica,sans-Serif" font-size="10.00">Command</text>
</a>
</g>
</g>
<!-- Node1&#45;&gt;Node2 -->
<g id="edge1" class="edge"><title>Node1&#45;&gt;Node2</title>
<path fill="none" stroke="midnightblue" d="M224.146,-407C232.91,-407 241.7,-407 250.311,-407"/>
<polygon fill="midnightblue" stroke="midnightblue" points="250.325,-410.5 260.325,-407 250.325,-403.5 250.325,-410.5"/>
</g>
<!-- Node3 -->
<g id="node3" class="node"><title>Node3</title>
<g id="a_node3"><a xlink:href="../../d3/d42/classmodel_1_1_model.html#a1a683ba5e58fcb3c8882c8e61df20dc0" target="_top" xlink:title="model.Model.getTurtleManager">
<polygon fill="white" stroke="black" points="942,-460.5 942,-479.5 1106,-479.5 1106,-460.5 942,-460.5"/>
<text text-anchor="middle" x="1024" y="-467.5" font-family="Helvetica,sans-Serif" font-size="10.00">model.Model.getTurtleManager</text>
</a>
</g>
</g>
<!-- Node2&#45;&gt;Node3 -->
<g id="edge2" class="edge"><title>Node2&#45;&gt;Node3</title>
<path fill="none" stroke="midnightblue" d="M425.745,-421.85C437.874,-423.764 450.245,-425.556 462,-427 627.002,-447.264 820.553,-459.589 931.773,-465.575"/>
<polygon fill="midnightblue" stroke="midnightblue" points="931.773,-469.08 941.945,-466.117 932.145,-462.09 931.773,-469.08"/>
</g>
<!-- Node4 -->
<g id="node4" class="node"><title>Node4</title>
<g id="a_node4"><a xlink:href="../../df/d50/classmodel_1_1_turtle_set_manager.html#a9a65c0be3b9c21abaf0ebaa54e5b8484" target="_top" xlink:title="model.TurtleSetManager.get\lActiveTurtles">
<polygon fill="white" stroke="black" points="948,-411 948,-441 1100,-441 1100,-411 948,-411"/>
<text text-anchor="start" x="956" y="-429" font-family="Helvetica,sans-Serif" font-size="10.00">model.TurtleSetManager.get</text>
<text text-anchor="middle" x="1024" y="-418" font-family="Helvetica,sans-Serif" font-size="10.00">ActiveTurtles</text>
</a>
</g>
</g>
<!-- Node2&#45;&gt;Node4 -->
<g id="edge3" class="edge"><title>Node2&#45;&gt;Node4</title>
<path fill="none" stroke="midnightblue" d="M425.566,-409.282C554.949,-412.903 806.025,-419.929 937.704,-423.613"/>
<polygon fill="midnightblue" stroke="midnightblue" points="937.654,-427.113 947.748,-423.894 937.85,-420.116 937.654,-427.113"/>
</g>
<!-- Node5 -->
<g id="node5" class="node"><title>Node5</title>
<g id="a_node5"><a xlink:href="../../dd/dd6/classcommands_1_1_command.html#aec3e0f888945b1811fd739ecea212324" target="_top" xlink:title="commands.Command.updateTurtle">
<polygon fill="white" stroke="black" points="462,-378.5 462,-397.5 648,-397.5 648,-378.5 462,-378.5"/>
<text text-anchor="middle" x="555" y="-385.5" font-family="Helvetica,sans-Serif" font-size="10.00">commands.Command.updateTurtle</text>
</a>
</g>
</g>
<!-- Node2&#45;&gt;Node5 -->
<g id="edge4" class="edge"><title>Node2&#45;&gt;Node5</title>
<path fill="none" stroke="midnightblue" d="M425.793,-399.6C434.319,-398.828 443.059,-398.037 451.775,-397.249"/>
<polygon fill="midnightblue" stroke="midnightblue" points="452.335,-400.713 461.979,-396.326 451.705,-393.741 452.335,-400.713"/>
</g>
<!-- Node6 -->
<g id="node6" class="node"><title>Node6</title>
<g id="a_node6"><a xlink:href="../../d3/d42/classmodel_1_1_model.html#a76160d002c1e68b566307ac44356f6e5" target="_top" xlink:title="model.Model.notifyView">
<polygon fill="white" stroke="black" points="490.5,-280.5 490.5,-299.5 619.5,-299.5 619.5,-280.5 490.5,-280.5"/>
<text text-anchor="middle" x="555" y="-287.5" font-family="Helvetica,sans-Serif" font-size="10.00">model.Model.notifyView</text>
</a>
</g>
</g>
<!-- Node2&#45;&gt;Node6 -->
<g id="edge5" class="edge"><title>Node2&#45;&gt;Node6</title>
<path fill="none" stroke="midnightblue" d="M371.024,-391.944C411.636,-369.317 487.901,-326.826 527.94,-304.519"/>
<polygon fill="midnightblue" stroke="midnightblue" points="529.802,-307.488 536.834,-299.564 526.395,-301.373 529.802,-307.488"/>
</g>
<!-- Node7 -->
<g id="node7" class="node"><title>Node7</title>
<g id="a_node7"><a xlink:href="../../db/db5/classview_1_1panes_1_1_view_pane_module.html#aa2a1bf15bc036ee4237bf63749d85baf" target="_top" xlink:title="view.panes.ViewPaneModule.updateView">
<polygon fill="white" stroke="black" points="684.5,-244.5 684.5,-263.5 893.5,-263.5 893.5,-244.5 684.5,-244.5"/>
<text text-anchor="middle" x="789" y="-251.5" font-family="Helvetica,sans-Serif" font-size="10.00">view.panes.ViewPaneModule.updateView</text>
</a>
</g>
</g>
<!-- Node6&#45;&gt;Node7 -->
<g id="edge6" class="edge"><title>Node6&#45;&gt;Node7</title>
<path fill="none" stroke="midnightblue" d="M617.259,-280.494C647.664,-275.776 684.58,-270.048 716.297,-265.126"/>
<polygon fill="midnightblue" stroke="midnightblue" points="717.053,-268.551 726.398,-263.559 715.979,-261.634 717.053,-268.551"/>
</g>
<!-- Node7&#45;&gt;Node3 -->
<g id="edge10" class="edge"><title>Node7&#45;&gt;Node3</title>
<path fill="none" stroke="midnightblue" d="M793.84,-263.674C807.183,-295.943 854.855,-400.64 930,-450 933.83,-452.516 937.923,-454.722 942.176,-456.655"/>
<polygon fill="midnightblue" stroke="midnightblue" points="941.12,-460.001 951.704,-460.465 943.719,-453.502 941.12,-460.001"/>
</g>
<!-- Node7&#45;&gt;Node4 -->
<g id="edge11" class="edge"><title>Node7&#45;&gt;Node4</title>
<path fill="none" stroke="midnightblue" d="M796.274,-263.616C813.946,-289.913 866.982,-363.55 930,-401 933.638,-403.162 937.466,-405.141 941.41,-406.952"/>
<polygon fill="midnightblue" stroke="midnightblue" points="940.216,-410.246 950.792,-410.879 942.919,-403.789 940.216,-410.246"/>
</g>
<!-- Node8 -->
<g id="node8" class="node"><title>Node8</title>
<g id="a_node8"><a xlink:href="../../d3/d42/classmodel_1_1_model.html#a54936407d7df5ab8ef3c0ae54bcdc0ed" target="_top" xlink:title="model.Model.getBackground\lColor">
<polygon fill="white" stroke="black" points="947,-264 947,-294 1101,-294 1101,-264 947,-264"/>
<text text-anchor="start" x="955" y="-282" font-family="Helvetica,sans-Serif" font-size="10.00">model.Model.getBackground</text>
<text text-anchor="middle" x="1024" y="-271" font-family="Helvetica,sans-Serif" font-size="10.00">Color</text>
</a>
</g>
</g>
<!-- Node7&#45;&gt;Node8 -->
<g id="edge7" class="edge"><title>Node7&#45;&gt;Node8</title>
<path fill="none" stroke="midnightblue" d="M878.752,-263.523C897.72,-265.558 917.73,-267.705 936.608,-269.73"/>
<polygon fill="midnightblue" stroke="midnightblue" points="936.348,-273.223 946.664,-270.809 937.095,-266.263 936.348,-273.223"/>
</g>
<!-- Node9 -->
<g id="node9" class="node"><title>Node9</title>
<g id="a_node9"><a xlink:href="../../db/db5/classview_1_1panes_1_1_view_pane_module.html#ac94ee444587349ddad19b8caee500c9c" target="_top" xlink:title="view.panes.ViewPaneModule.update\lBGColor">
<polygon fill="white" stroke="black" points="930,-215 930,-245 1118,-245 1118,-215 930,-215"/>
<text text-anchor="start" x="938" y="-233" font-family="Helvetica,sans-Serif" font-size="10.00">view.panes.ViewPaneModule.update</text>
<text text-anchor="middle" x="1024" y="-222" font-family="Helvetica,sans-Serif" font-size="10.00">BGColor</text>
</a>
</g>
</g>
<!-- Node7&#45;&gt;Node9 -->
<g id="edge8" class="edge"><title>Node7&#45;&gt;Node9</title>
<path fill="none" stroke="midnightblue" d="M882.422,-244.48C894.754,-243.21 907.461,-241.901 919.96,-240.614"/>
<polygon fill="midnightblue" stroke="midnightblue" points="920.338,-244.093 929.927,-239.587 919.621,-237.13 920.338,-244.093"/>
</g>
<!-- Node10 -->
<g id="node10" class="node"><title>Node10</title>
<g id="a_node10"><a xlink:href="../../db/db5/classview_1_1panes_1_1_view_pane_module.html#abe91f8bb732e99d762bdaba51ceae04b" target="_top" xlink:title="view.panes.ViewPaneModule.toRGB">
<polygon fill="white" stroke="black" points="932,-176.5 932,-195.5 1116,-195.5 1116,-176.5 932,-176.5"/>
<text text-anchor="middle" x="1024" y="-183.5" font-family="Helvetica,sans-Serif" font-size="10.00">view.panes.ViewPaneModule.toRGB</text>
</a>
</g>
</g>
<!-- Node7&#45;&gt;Node10 -->
<g id="edge9" class="edge"><title>Node7&#45;&gt;Node10</title>
<path fill="none" stroke="midnightblue" d="M813.966,-244.496C841.597,-233.802 888.543,-216.433 930,-205 939.651,-202.338 949.959,-199.87 960.068,-197.653"/>
<polygon fill="midnightblue" stroke="midnightblue" points="961.027,-201.027 970.079,-195.522 959.57,-194.181 961.027,-201.027"/>
</g>
<!-- Node11 -->
<g id="node11" class="node"><title>Node11</title>
<g id="a_node11"><a xlink:href="../../df/d50/classmodel_1_1_turtle_set_manager.html#a9e215e93eccbed2ab9ebec6119cfe305" target="_top" xlink:title="model.TurtleSetManager.get\lAllTurtles">
<polygon fill="white" stroke="black" points="948,-127 948,-157 1100,-157 1100,-127 948,-127"/>
<text text-anchor="start" x="956" y="-145" font-family="Helvetica,sans-Serif" font-size="10.00">model.TurtleSetManager.get</text>
<text text-anchor="middle" x="1024" y="-134" font-family="Helvetica,sans-Serif" font-size="10.00">AllTurtles</text>
</a>
</g>
</g>
<!-- Node7&#45;&gt;Node11 -->
<g id="edge12" class="edge"><title>Node7&#45;&gt;Node11</title>
<path fill="none" stroke="midnightblue" d="M802.796,-244.229C826.605,-226.475 879.858,-188.753 930,-167 935.637,-164.555 941.572,-162.296 947.603,-160.221"/>
<polygon fill="midnightblue" stroke="midnightblue" points="948.71,-163.542 957.131,-157.112 946.539,-156.887 948.71,-163.542"/>
</g>
<!-- Node12 -->
<g id="node12" class="node"><title>Node12</title>
<g id="a_node12"><a xlink:href="../../d3/d42/classmodel_1_1_model.html#af73e838aed2c068e8f7d31bfa1cc88d7" target="_top" xlink:title="model.Model.getStamp">
<polygon fill="white" stroke="black" points="959.5,-88.5 959.5,-107.5 1088.5,-107.5 1088.5,-88.5 959.5,-88.5"/>
<text text-anchor="middle" x="1024" y="-95.5" font-family="Helvetica,sans-Serif" font-size="10.00">model.Model.getStamp</text>
</a>
</g>
</g>
<!-- Node7&#45;&gt;Node12 -->
<g id="edge13" class="edge"><title>Node7&#45;&gt;Node12</title>
<path fill="none" stroke="midnightblue" d="M796.59,-244.492C814.663,-219.21 867.824,-150.008 930,-117 936.063,-113.781 942.616,-111.107 949.338,-108.885"/>
<polygon fill="midnightblue" stroke="midnightblue" points="950.676,-112.139 959.27,-105.943 948.688,-105.427 950.676,-112.139"/>
</g>
<!-- Node13 -->
<g id="node13" class="node"><title>Node13</title>
<g id="a_node13"><a xlink:href="../../db/db5/classview_1_1panes_1_1_view_pane_module.html#a44db6ae832af3ce470baa9406142b8cb" target="_top" xlink:title="view.panes.ViewPaneModule.make\lStamps">
<polygon fill="white" stroke="black" points="933.5,-39 933.5,-69 1114.5,-69 1114.5,-39 933.5,-39"/>
<text text-anchor="start" x="941.5" y="-57" font-family="Helvetica,sans-Serif" font-size="10.00">view.panes.ViewPaneModule.make</text>
<text text-anchor="middle" x="1024" y="-46" font-family="Helvetica,sans-Serif" font-size="10.00">Stamps</text>
</a>
</g>
</g>
<!-- Node7&#45;&gt;Node13 -->
<g id="edge14" class="edge"><title>Node7&#45;&gt;Node13</title>
<path fill="none" stroke="midnightblue" d="M794.868,-244.27C810.262,-214.536 860.974,-124.158 930,-79 933.122,-76.9577 936.406,-75.0815 939.8,-73.358"/>
<polygon fill="midnightblue" stroke="midnightblue" points="941.372,-76.488 949.007,-69.143 938.458,-70.1233 941.372,-76.488"/>
</g>
<!-- Node20 -->
<g id="node20" class="node"><title>Node20</title>
<g id="a_node20"><a xlink:href="../../d3/d42/classmodel_1_1_model.html#a0a457f31350a460e11dc864463e0d8ff" target="_top" xlink:title="model.Model.setStamp">
<polygon fill="white" stroke="black" points="960,-0.5 960,-19.5 1088,-19.5 1088,-0.5 960,-0.5"/>
<text text-anchor="middle" x="1024" y="-7.5" font-family="Helvetica,sans-Serif" font-size="10.00">model.Model.setStamp</text>
</a>
</g>
</g>
<!-- Node7&#45;&gt;Node20 -->
<g id="edge21" class="edge"><title>Node7&#45;&gt;Node20</title>
<path fill="none" stroke="midnightblue" d="M792.896,-244.385C804.036,-209.166 847.671,-86.28 930,-29 936.045,-24.7942 942.814,-21.4778 949.869,-18.8684"/>
<polygon fill="midnightblue" stroke="midnightblue" points="951.177,-22.1242 959.626,-15.7312 949.034,-15.4602 951.177,-22.1242"/>
</g>
<!-- Node21 -->
<g id="node21" class="node"><title>Node21</title>
<g id="a_node21"><a xlink:href="../../db/db5/classview_1_1panes_1_1_view_pane_module.html#a7ad9ad27137ffdf0ea96753a22da236b" target="_top" xlink:title="view.panes.ViewPaneModule.erase\lStamps">
<polygon fill="white" stroke="black" points="933.5,-362 933.5,-392 1114.5,-392 1114.5,-362 933.5,-362"/>
<text text-anchor="start" x="941.5" y="-380" font-family="Helvetica,sans-Serif" font-size="10.00">view.panes.ViewPaneModule.erase</text>
<text text-anchor="middle" x="1024" y="-369" font-family="Helvetica,sans-Serif" font-size="10.00">Stamps</text>
</a>
</g>
</g>
<!-- Node7&#45;&gt;Node21 -->
<g id="edge22" class="edge"><title>Node7&#45;&gt;Node21</title>
<path fill="none" stroke="midnightblue" d="M800.783,-263.574C823.234,-283.026 877.306,-327.407 930,-352 935.241,-354.446 940.764,-356.688 946.397,-358.735"/>
<polygon fill="midnightblue" stroke="midnightblue" points="945.355,-362.078 955.949,-362 947.619,-355.454 945.355,-362.078"/>
</g>
<!-- Node23 -->
<g id="node23" class="node"><title>Node23</title>
<g id="a_node23"><a xlink:href="../../db/db5/classview_1_1panes_1_1_view_pane_module.html#ab55ce3511929b88a2cd1235eb694868f" target="_top" xlink:title="view.panes.ViewPaneModule.update\lTurtle">
<polygon fill="white" stroke="black" points="930,-313 930,-343 1118,-343 1118,-313 930,-313"/>
<text text-anchor="start" x="938" y="-331" font-family="Helvetica,sans-Serif" font-size="10.00">view.panes.ViewPaneModule.update</text>
<text text-anchor="middle" x="1024" y="-320" font-family="Helvetica,sans-Serif" font-size="10.00">Turtle</text>
</a>
</g>
</g>
<!-- Node7&#45;&gt;Node23 -->
<g id="edge24" class="edge"><title>Node7&#45;&gt;Node23</title>
<path fill="none" stroke="midnightblue" d="M815.359,-263.512C843.261,-273.829 889.527,-290.496 930,-303 937.922,-305.447 946.265,-307.885 954.568,-310.224"/>
<polygon fill="midnightblue" stroke="midnightblue" points="953.698,-313.615 964.27,-312.92 955.572,-306.871 953.698,-313.615"/>
</g>
<!-- Node14 -->
<g id="node14" class="node"><title>Node14</title>
<g id="a_node14"><a xlink:href="../../d7/da6/classview_1_1_turtle_draw.html#a939f4fdbdb66457c9dcee82eb4ae6d9c" target="_top" xlink:title="view.TurtleDraw.drawTurtle">
<polygon fill="white" stroke="black" points="1162.5,-67.5 1162.5,-86.5 1301.5,-86.5 1301.5,-67.5 1162.5,-67.5"/>
<text text-anchor="middle" x="1232" y="-74.5" font-family="Helvetica,sans-Serif" font-size="10.00">view.TurtleDraw.drawTurtle</text>
</a>
</g>
</g>
<!-- Node13&#45;&gt;Node14 -->
<g id="edge15" class="edge"><title>Node13&#45;&gt;Node14</title>
<path fill="none" stroke="midnightblue" d="M1114.76,-64.0212C1127.21,-65.4115 1139.92,-66.831 1152.15,-68.1968"/>
<polygon fill="midnightblue" stroke="midnightblue" points="1151.97,-71.6983 1162.3,-69.3296 1152.75,-64.7415 1151.97,-71.6983"/>
</g>
<!-- Node17 -->
<g id="node17" class="node"><title>Node17</title>
<g id="a_node17"><a xlink:href="../../d7/da6/classview_1_1_turtle_draw.html#a14678068d3fc9d3b6e1067bc372f6030" target="_top" xlink:title="view.TurtleDraw.showTurtle">
<polygon fill="white" stroke="black" points="1162,-29.5 1162,-48.5 1302,-48.5 1302,-29.5 1162,-29.5"/>
<text text-anchor="middle" x="1232" y="-36.5" font-family="Helvetica,sans-Serif" font-size="10.00">view.TurtleDraw.showTurtle</text>
</a>
</g>
</g>
<!-- Node13&#45;&gt;Node17 -->
<g id="edge18" class="edge"><title>Node13&#45;&gt;Node17</title>
<path fill="none" stroke="midnightblue" d="M1114.76,-47.4644C1127.12,-46.5639 1139.75,-45.6445 1151.9,-44.7594"/>
<polygon fill="midnightblue" stroke="midnightblue" points="1152.27,-48.2422 1161.99,-44.0251 1151.76,-41.2607 1152.27,-48.2422"/>
</g>
<!-- Node18 -->
<g id="node18" class="node"><title>Node18</title>
<g id="a_node18"><a xlink:href="../../d7/da6/classview_1_1_turtle_draw.html#a8c2cab38eb294b26aea1ae17595ba2a6" target="_top" xlink:title="view.TurtleDraw.moveTurtle">
<polygon fill="white" stroke="black" points="1160.5,-143.5 1160.5,-162.5 1303.5,-162.5 1303.5,-143.5 1160.5,-143.5"/>
<text text-anchor="middle" x="1232" y="-150.5" font-family="Helvetica,sans-Serif" font-size="10.00">view.TurtleDraw.moveTurtle</text>
</a>
</g>
</g>
<!-- Node13&#45;&gt;Node18 -->
<g id="edge19" class="edge"><title>Node13&#45;&gt;Node18</title>
<path fill="none" stroke="midnightblue" d="M1100.8,-69.1906C1106.89,-71.9348 1112.72,-75.1748 1118,-79 1141.66,-96.1392 1130.16,-117.106 1154,-134 1156.84,-136.012 1159.87,-137.811 1163.02,-139.421"/>
<polygon fill="midnightblue" stroke="midnightblue" points="1161.62,-142.629 1172.18,-143.474 1164.45,-136.227 1161.62,-142.629"/>
</g>
<!-- Node19 -->
<g id="node19" class="node"><title>Node19</title>
<g id="a_node19"><a xlink:href="../../d7/da6/classview_1_1_turtle_draw.html#a5004a16526a67f090d7da45474b5136e" target="_top" xlink:title="view.TurtleDraw.setAngle">
<polygon fill="white" stroke="black" points="1165.5,-105.5 1165.5,-124.5 1298.5,-124.5 1298.5,-105.5 1165.5,-105.5"/>
<text text-anchor="middle" x="1232" y="-112.5" font-family="Helvetica,sans-Serif" font-size="10.00">view.TurtleDraw.setAngle</text>
</a>
</g>
</g>
<!-- Node13&#45;&gt;Node19 -->
<g id="edge20" class="edge"><title>Node13&#45;&gt;Node19</title>
<path fill="none" stroke="midnightblue" d="M1087.02,-69.0126C1097.46,-72.0119 1108.11,-75.3695 1118,-79 1134.61,-85.0988 1137.33,-90.0733 1154,-96 1161.04,-98.5012 1168.55,-100.795 1176.02,-102.858"/>
<polygon fill="midnightblue" stroke="midnightblue" points="1175.2,-106.264 1185.77,-105.434 1176.99,-99.4958 1175.2,-106.264"/>
</g>
<!-- Node15 -->
<g id="node15" class="node"><title>Node15</title>
<g id="a_node15"><a xlink:href="../../d6/d34/classmodel_1_1_turtle.html#a942dbeb1d7e2bc19b6870538c2c3a7d2" target="_top" xlink:title="model.Turtle.getShape">
<polygon fill="white" stroke="black" points="1370.5,-89.5 1370.5,-108.5 1495.5,-108.5 1495.5,-89.5 1370.5,-89.5"/>
<text text-anchor="middle" x="1433" y="-96.5" font-family="Helvetica,sans-Serif" font-size="10.00">model.Turtle.getShape</text>
</a>
</g>
</g>
<!-- Node14&#45;&gt;Node15 -->
<g id="edge16" class="edge"><title>Node14&#45;&gt;Node15</title>
<path fill="none" stroke="midnightblue" d="M1301.76,-84.602C1320.62,-86.6865 1341.11,-88.9515 1360.13,-91.0547"/>
<polygon fill="midnightblue" stroke="midnightblue" points="1359.91,-94.5509 1370.23,-92.1711 1360.67,-87.5933 1359.91,-94.5509"/>
</g>
<!-- Node16 -->
<g id="node16" class="node"><title>Node16</title>
<g id="a_node16"><a xlink:href="../../d3/db7/classview_1_1controllers_1_1_image_palette.html#a8a6620714bc12d5a00b97e99299a7040" target="_top" xlink:title="view.controllers.ImagePalette.get\lImage">
<polygon fill="white" stroke="black" points="1346,-40 1346,-70 1520,-70 1520,-40 1346,-40"/>
<text text-anchor="start" x="1354" y="-58" font-family="Helvetica,sans-Serif" font-size="10.00">view.controllers.ImagePalette.get</text>
<text text-anchor="middle" x="1433" y="-47" font-family="Helvetica,sans-Serif" font-size="10.00">Image</text>
</a>
</g>
</g>
<!-- Node14&#45;&gt;Node16 -->
<g id="edge17" class="edge"><title>Node14&#45;&gt;Node16</title>
<path fill="none" stroke="midnightblue" d="M1301.76,-69.398C1312.71,-68.1877 1324.21,-66.9165 1335.65,-65.6514"/>
<polygon fill="midnightblue" stroke="midnightblue" points="1336.13,-69.1206 1345.68,-64.5429 1335.36,-62.163 1336.13,-69.1206"/>
</g>
<!-- Node22 -->
<g id="node22" class="node"><title>Node22</title>
<g id="a_node22"><a xlink:href="../../d7/da6/classview_1_1_turtle_draw.html#acb97dedda080cb5ed17031d2b31adc2c" target="_top" xlink:title="view.TurtleDraw.hideTurtle">
<polygon fill="white" stroke="black" points="1163.5,-485.5 1163.5,-504.5 1300.5,-504.5 1300.5,-485.5 1163.5,-485.5"/>
<text text-anchor="middle" x="1232" y="-492.5" font-family="Helvetica,sans-Serif" font-size="10.00">view.TurtleDraw.hideTurtle</text>
</a>
</g>
</g>
<!-- Node21&#45;&gt;Node22 -->
<g id="edge23" class="edge"><title>Node21&#45;&gt;Node22</title>
<path fill="none" stroke="midnightblue" d="M1104.54,-392.187C1109.33,-394.696 1113.88,-397.612 1118,-401 1146.57,-424.476 1125.31,-452.676 1154,-476 1156.06,-477.672 1158.24,-479.2 1160.52,-480.596"/>
<polygon fill="midnightblue" stroke="midnightblue" points="1159.22,-483.867 1169.71,-485.354 1162.44,-477.65 1159.22,-483.867"/>
</g>
<!-- Node23&#45;&gt;Node14 -->
<g id="edge26" class="edge"><title>Node23&#45;&gt;Node14</title>
<path fill="none" stroke="midnightblue" d="M1106.14,-312.879C1110.49,-310.093 1114.5,-306.827 1118,-303 1180.98,-234.053 1090.31,-164.292 1154,-96 1155.23,-94.6847 1156.53,-93.4541 1157.9,-92.303"/>
<polygon fill="midnightblue" stroke="midnightblue" points="1160.06,-95.0665 1166.35,-86.544 1156.11,-89.2813 1160.06,-95.0665"/>
</g>
<!-- Node23&#45;&gt;Node17 -->
<g id="edge27" class="edge"><title>Node23&#45;&gt;Node17</title>
<path fill="none" stroke="midnightblue" d="M1106.26,-312.985C1110.58,-310.173 1114.56,-306.872 1118,-303 1191.15,-220.771 1080,-139.468 1154,-58 1155.07,-56.8215 1156.2,-55.7107 1157.38,-54.6639"/>
<polygon fill="midnightblue" stroke="midnightblue" points="1159.74,-57.2816 1165.88,-48.6446 1155.7,-51.5698 1159.74,-57.2816"/>
</g>
<!-- Node23&#45;&gt;Node18 -->
<g id="edge40" class="edge"><title>Node23&#45;&gt;Node18</title>
<path fill="none" stroke="midnightblue" d="M1104.86,-312.995C1109.64,-310.193 1114.09,-306.89 1118,-303 1160.81,-260.424 1110.75,-214.131 1154,-172 1155.48,-170.559 1157.05,-169.221 1158.7,-167.98"/>
<polygon fill="midnightblue" stroke="midnightblue" points="1160.82,-170.784 1167.48,-162.546 1157.13,-164.832 1160.82,-170.784"/>
</g>
<!-- Node23&#45;&gt;Node19 -->
<g id="edge38" class="edge"><title>Node23&#45;&gt;Node19</title>
<path fill="none" stroke="midnightblue" d="M1105.55,-312.99C1110.1,-310.183 1114.32,-306.881 1118,-303 1170.85,-247.284 1100.57,-189.166 1154,-134 1155.25,-132.708 1156.58,-131.498 1157.96,-130.366"/>
<polygon fill="midnightblue" stroke="midnightblue" points="1160.11,-133.14 1166.5,-124.692 1156.24,-127.309 1160.11,-133.14"/>
</g>
<!-- Node23&#45;&gt;Node22 -->
<g id="edge28" class="edge"><title>Node23&#45;&gt;Node22</title>
<path fill="none" stroke="midnightblue" d="M1106.5,-343.202C1110.65,-345.72 1114.53,-348.632 1118,-352 1159.18,-391.965 1112.61,-436.254 1154,-476 1155.49,-477.43 1157.07,-478.759 1158.72,-479.991"/>
<polygon fill="midnightblue" stroke="midnightblue" points="1157.18,-483.152 1167.54,-485.394 1160.84,-477.184 1157.18,-483.152"/>
</g>
<!-- Node24 -->
<g id="node24" class="node"><title>Node24</title>
<g id="a_node24"><a xlink:href="../../d6/d34/classmodel_1_1_turtle.html#ae79a1eae7eed55d121c3b85299ae14ba" target="_top" xlink:title="model.Turtle.getID">
<polygon fill="white" stroke="black" points="1180,-257.5 1180,-276.5 1284,-276.5 1284,-257.5 1180,-257.5"/>
<text text-anchor="middle" x="1232" y="-264.5" font-family="Helvetica,sans-Serif" font-size="10.00">model.Turtle.getID</text>
</a>
</g>
</g>
<!-- Node23&#45;&gt;Node24 -->
<g id="edge25" class="edge"><title>Node23&#45;&gt;Node24</title>
<path fill="none" stroke="midnightblue" d="M1087.02,-312.987C1097.46,-309.988 1108.11,-306.63 1118,-303 1134.61,-296.901 1137.33,-291.927 1154,-286 1161.04,-283.499 1168.55,-281.205 1176.02,-279.142"/>
<polygon fill="midnightblue" stroke="midnightblue" points="1176.99,-282.504 1185.77,-276.566 1175.2,-275.736 1176.99,-282.504"/>
</g>
<!-- Node25 -->
<g id="node25" class="node"><title>Node25</title>
<g id="a_node25"><a xlink:href="../../d6/d34/classmodel_1_1_turtle.html#a279f2bdb3fa955acdd52b7824ec3cd04" target="_top" xlink:title="model.Turtle.getPenStatus">
<polygon fill="white" stroke="black" points="1160.5,-219.5 1160.5,-238.5 1303.5,-238.5 1303.5,-219.5 1160.5,-219.5"/>
<text text-anchor="middle" x="1232" y="-226.5" font-family="Helvetica,sans-Serif" font-size="10.00">model.Turtle.getPenStatus</text>
</a>
</g>
</g>
<!-- Node23&#45;&gt;Node25 -->
<g id="edge29" class="edge"><title>Node23&#45;&gt;Node25</title>
<path fill="none" stroke="midnightblue" d="M1100.8,-312.809C1106.89,-310.065 1112.72,-306.825 1118,-303 1141.66,-285.861 1130.16,-264.894 1154,-248 1156.84,-245.988 1159.87,-244.189 1163.02,-242.579"/>
<polygon fill="midnightblue" stroke="midnightblue" points="1164.45,-245.773 1172.18,-238.526 1161.62,-239.371 1164.45,-245.773"/>
</g>
<!-- Node27 -->
<g id="node27" class="node"><title>Node27</title>
<g id="a_node27"><a xlink:href="../../d7/da6/classview_1_1_turtle_draw.html#a1325ca376115619f15f5014eb4c5ad2a" target="_top" xlink:title="view.TurtleDraw.drawLine">
<polygon fill="white" stroke="black" points="1165.5,-181.5 1165.5,-200.5 1298.5,-200.5 1298.5,-181.5 1165.5,-181.5"/>
<text text-anchor="middle" x="1232" y="-188.5" font-family="Helvetica,sans-Serif" font-size="10.00">view.TurtleDraw.drawLine</text>
</a>
</g>
</g>
<!-- Node23&#45;&gt;Node27 -->
<g id="edge31" class="edge"><title>Node23&#45;&gt;Node27</title>
<path fill="none" stroke="midnightblue" d="M1103.98,-312.777C1109.03,-310.031 1113.77,-306.799 1118,-303 1150.97,-273.376 1120.73,-239.282 1154,-210 1155.76,-208.448 1157.63,-207.018 1159.59,-205.702"/>
<polygon fill="midnightblue" stroke="midnightblue" points="1161.63,-208.57 1168.64,-200.624 1158.2,-202.465 1161.63,-208.57"/>
</g>
<!-- Node28 -->
<g id="node28" class="node"><title>Node28</title>
<g id="a_node28"><a xlink:href="../../d6/d34/classmodel_1_1_turtle.html#a832234461564763f8330181b3c1163ff" target="_top" xlink:title="model.Turtle.getPrevLocation">
<polygon fill="white" stroke="black" points="1154.5,-447.5 1154.5,-466.5 1309.5,-466.5 1309.5,-447.5 1154.5,-447.5"/>
<text text-anchor="middle" x="1232" y="-454.5" font-family="Helvetica,sans-Serif" font-size="10.00">model.Turtle.getPrevLocation</text>
</a>
</g>
</g>
<!-- Node23&#45;&gt;Node28 -->
<g id="edge32" class="edge"><title>Node23&#45;&gt;Node28</title>
<path fill="none" stroke="midnightblue" d="M1105.18,-343.19C1109.77,-345.701 1114.09,-348.617 1118,-352 1149.33,-379.118 1122.53,-411.049 1154,-438 1155.97,-439.685 1158.06,-441.225 1160.25,-442.632"/>
<polygon fill="midnightblue" stroke="midnightblue" points="1158.67,-445.752 1169.13,-447.426 1161.99,-439.593 1158.67,-445.752"/>
</g>
<!-- Node29 -->
<g id="node29" class="node"><title>Node29</title>
<g id="a_node29"><a xlink:href="../../d6/d34/classmodel_1_1_turtle.html#a2470b9b4ef48a261324047de8ebdc242" target="_top" xlink:title="model.Turtle.getNewLocation">
<polygon fill="white" stroke="black" points="1154.5,-409.5 1154.5,-428.5 1309.5,-428.5 1309.5,-409.5 1154.5,-409.5"/>
<text text-anchor="middle" x="1232" y="-416.5" font-family="Helvetica,sans-Serif" font-size="10.00">model.Turtle.getNewLocation</text>
</a>
</g>
</g>
<!-- Node23&#45;&gt;Node29 -->
<g id="edge33" class="edge"><title>Node23&#45;&gt;Node29</title>
<path fill="none" stroke="midnightblue" d="M1101.48,-343.106C1107.29,-345.626 1112.87,-348.568 1118,-352 1140.16,-366.835 1131.76,-385.283 1154,-400 1157.11,-402.059 1160.43,-403.895 1163.87,-405.532"/>
<polygon fill="midnightblue" stroke="midnightblue" points="1162.64,-408.811 1173.22,-409.417 1165.32,-402.347 1162.64,-408.811"/>
</g>
<!-- Node30 -->
<g id="node30" class="node"><title>Node30</title>
<g id="a_node30"><a xlink:href="../../d6/d34/classmodel_1_1_turtle.html#a19c059b1cbfbd4e8f046ec2403de3fb9" target="_top" xlink:title="model.Turtle.getPenDash">
<polygon fill="white" stroke="black" points="1163.5,-371.5 1163.5,-390.5 1300.5,-390.5 1300.5,-371.5 1163.5,-371.5"/>
<text text-anchor="middle" x="1232" y="-378.5" font-family="Helvetica,sans-Serif" font-size="10.00">model.Turtle.getPenDash</text>
</a>
</g>
</g>
<!-- Node23&#45;&gt;Node30 -->
<g id="edge34" class="edge"><title>Node23&#45;&gt;Node30</title>
<path fill="none" stroke="midnightblue" d="M1084.08,-343.072C1095.35,-345.997 1107.05,-349.066 1118,-352 1134.04,-356.297 1137.94,-357.788 1154,-362 1162.9,-364.334 1172.4,-366.744 1181.58,-369.031"/>
<polygon fill="midnightblue" stroke="midnightblue" points="1180.83,-372.45 1191.38,-371.456 1182.51,-365.655 1180.83,-372.45"/>
</g>
<!-- Node32 -->
<g id="node32" class="node"><title>Node32</title>
<g id="a_node32"><a xlink:href="../../d6/d34/classmodel_1_1_turtle.html#a193c156784f783064ae533b619b6be6e" target="_top" xlink:title="model.Turtle.getPenColor">
<polygon fill="white" stroke="black" points="1163.5,-333.5 1163.5,-352.5 1300.5,-352.5 1300.5,-333.5 1163.5,-333.5"/>
<text text-anchor="middle" x="1232" y="-340.5" font-family="Helvetica,sans-Serif" font-size="10.00">model.Turtle.getPenColor</text>
</a>
</g>
</g>
<!-- Node23&#45;&gt;Node32 -->
<g id="edge36" class="edge"><title>Node23&#45;&gt;Node32</title>
<path fill="none" stroke="midnightblue" d="M1118.06,-334.776C1129.85,-335.635 1141.82,-336.506 1153.33,-337.345"/>
<polygon fill="midnightblue" stroke="midnightblue" points="1153.1,-340.837 1163.32,-338.072 1153.61,-333.855 1153.1,-340.837"/>
</g>
<!-- Node34 -->
<g id="node34" class="node"><title>Node34</title>
<g id="a_node34"><a xlink:href="../../d6/d34/classmodel_1_1_turtle.html#a1c5d07962ede5fbfacc59413274d4300" target="_top" xlink:title="model.Turtle.getHeading">
<polygon fill="white" stroke="black" points="1165,-295.5 1165,-314.5 1299,-314.5 1299,-295.5 1165,-295.5"/>
<text text-anchor="middle" x="1232" y="-302.5" font-family="Helvetica,sans-Serif" font-size="10.00">model.Turtle.getHeading</text>
</a>
</g>
</g>
<!-- Node23&#45;&gt;Node34 -->
<g id="edge39" class="edge"><title>Node23&#45;&gt;Node34</title>
<path fill="none" stroke="midnightblue" d="M1118.06,-317.61C1130.38,-316.234 1142.9,-314.836 1154.9,-313.496"/>
<polygon fill="midnightblue" stroke="midnightblue" points="1155.29,-316.975 1164.84,-312.387 1154.51,-310.018 1155.29,-316.975"/>
</g>
<!-- Node26 -->
<g id="node26" class="node"><title>Node26</title>
<g id="a_node26"><a xlink:href="../../de/ded/classmodel_1_1_pen.html#afad4fb3e51847cacab72c036ddaa108f" target="_top" xlink:title="model.Pen.getStatus">
<polygon fill="white" stroke="black" points="1374,-219.5 1374,-238.5 1492,-238.5 1492,-219.5 1374,-219.5"/>
<text text-anchor="middle" x="1433" y="-226.5" font-family="Helvetica,sans-Serif" font-size="10.00">model.Pen.getStatus</text>
</a>
</g>
</g>
<!-- Node25&#45;&gt;Node26 -->
<g id="edge30" class="edge"><title>Node25&#45;&gt;Node26</title>
<path fill="none" stroke="midnightblue" d="M1303.72,-229C1323.23,-229 1344.35,-229 1363.72,-229"/>
<polygon fill="midnightblue" stroke="midnightblue" points="1363.97,-232.5 1373.97,-229 1363.97,-225.5 1363.97,-232.5"/>
</g>
<!-- Node31 -->
<g id="node31" class="node"><title>Node31</title>
<g id="a_node31"><a xlink:href="../../de/ded/classmodel_1_1_pen.html#a6999f4af56377415621f193ef8600e27" target="_top" xlink:title="model.Pen.getDash">
<polygon fill="white" stroke="black" points="1377.5,-371.5 1377.5,-390.5 1488.5,-390.5 1488.5,-371.5 1377.5,-371.5"/>
<text text-anchor="middle" x="1433" y="-378.5" font-family="Helvetica,sans-Serif" font-size="10.00">model.Pen.getDash</text>
</a>
</g>
</g>
<!-- Node30&#45;&gt;Node31 -->
<g id="edge35" class="edge"><title>Node30&#45;&gt;Node31</title>
<path fill="none" stroke="midnightblue" d="M1300.65,-381C1322.15,-381 1345.86,-381 1367.15,-381"/>
<polygon fill="midnightblue" stroke="midnightblue" points="1367.39,-384.5 1377.39,-381 1367.39,-377.5 1367.39,-384.5"/>
</g>
<!-- Node33 -->
<g id="node33" class="node"><title>Node33</title>
<g id="a_node33"><a xlink:href="../../de/ded/classmodel_1_1_pen.html#a704af31474b10d17caf40773b7971826" target="_top" xlink:title="model.Pen.getPenColor">
<polygon fill="white" stroke="black" points="1368.5,-333.5 1368.5,-352.5 1497.5,-352.5 1497.5,-333.5 1368.5,-333.5"/>
<text text-anchor="middle" x="1433" y="-340.5" font-family="Helvetica,sans-Serif" font-size="10.00">model.Pen.getPenColor</text>
</a>
</g>
</g>
<!-- Node32&#45;&gt;Node33 -->
<g id="edge37" class="edge"><title>Node32&#45;&gt;Node33</title>
<path fill="none" stroke="midnightblue" d="M1300.65,-343C1319.18,-343 1339.36,-343 1358.21,-343"/>
<polygon fill="midnightblue" stroke="midnightblue" points="1358.23,-346.5 1368.23,-343 1358.23,-339.5 1358.23,-346.5"/>
</g>
</g>
</svg>
