<?xml version="1.0" encoding="UTF-8" standalone="no"?>
<!DOCTYPE svg PUBLIC "-//W3C//DTD SVG 1.1//EN"
 "http://www.w3.org/Graphics/SVG/1.1/DTD/svg11.dtd">
<!-- Generated by graphviz version 2.36.0 (20140111.2315)
 -->
<!-- Title: view.controllers.ImagePalette.addImage Pages: 1 -->
<svg width="786pt" height="48pt"
 viewBox="0.00 0.00 786.00 48.00" xmlns="http://www.w3.org/2000/svg" xmlns:xlink="http://www.w3.org/1999/xlink">
<g id="graph0" class="graph" transform="scale(1 1) rotate(0) translate(4 44)">
<title>view.controllers.ImagePalette.addImage</title>
<polygon fill="white" stroke="none" points="-4,4 -4,-44 782,-44 782,4 -4,4"/>
<!-- Node1 -->
<g id="node1" class="node"><title>Node1</title>
<polygon fill="#bfbfbf" stroke="black" points="0,-5 0,-35 176,-35 176,-5 0,-5"/>
<text text-anchor="start" x="8" y="-23" font-family="Helvetica,sans-Serif" font-size="10.00">view.controllers.ImagePalette.add</text>
<text text-anchor="middle" x="88" y="-12" font-family="Helvetica,sans-Serif" font-size="10.00">Image</text>
</g>
<!-- Node2 -->
<g id="node2" class="node"><title>Node2</title>
<g id="a_node2"><a xlink:href="../../d0/d06/classview_1_1panes_1_1_turtle_controller_pane_module.html#a5d0d2db4864df8e55ce12229fe554e6a" target="_top" xlink:title="view.panes.TurtleController\lPaneModule.doChoose">
<polygon fill="white" stroke="black" points="212.5,-5 212.5,-35 355.5,-35 355.5,-5 212.5,-5"/>
<text text-anchor="start" x="220.5" y="-23" font-family="Helvetica,sans-Serif" font-size="10.00">view.panes.TurtleController</text>
<text text-anchor="middle" x="284" y="-12" font-family="Helvetica,sans-Serif" font-size="10.00">PaneModule.doChoose</text>
</a>
</g>
</g>
<!-- Node1&#45;&gt;Node2 -->
<g id="edge1" class="edge"><title>Node1&#45;&gt;Node2</title>
<path fill="none" stroke="midnightblue" d="M186.099,-20C194.996,-20 203.892,-20 212.487,-20"/>
<polygon fill="midnightblue" stroke="midnightblue" points="186.069,-16.5001 176.069,-20 186.069,-23.5001 186.069,-16.5001"/>
</g>
<!-- Node3 -->
<g id="node3" class="node"><title>Node3</title>
<g id="a_node3"><a xlink:href="../../d0/d06/classview_1_1panes_1_1_turtle_controller_pane_module.html#a714ad68e313bb0c547d8db1ec5f8c755" target="_top" xlink:title="view.panes.TurtleController\lPaneModule.imageSelectorMaker">
<polygon fill="white" stroke="black" points="392,-5 392,-35 568,-35 568,-5 392,-5"/>
<text text-anchor="start" x="400" y="-23" font-family="Helvetica,sans-Serif" font-size="10.00">view.panes.TurtleController</text>
<text text-anchor="middle" x="480" y="-12" font-family="Helvetica,sans-Serif" font-size="10.00">PaneModule.imageSelectorMaker</text>
</a>
</g>
</g>
<!-- Node2&#45;&gt;Node3 -->
<g id="edge2" class="edge"><title>Node2&#45;&gt;Node3</title>
<path fill="none" stroke="midnightblue" d="M365.668,-20C374.34,-20 383.191,-20 391.934,-20"/>
<polygon fill="midnightblue" stroke="midnightblue" points="365.587,-16.5001 355.587,-20 365.587,-23.5001 365.587,-16.5001"/>
</g>
<!-- Node4 -->
<g id="node4" class="node"><title>Node4</title>
<g id="a_node4"><a xlink:href="../../d0/d06/classview_1_1panes_1_1_turtle_controller_pane_module.html#a8b42010a92159b57095b40a80de1dfc7" target="_top" xlink:title="view.panes.TurtleController\lPaneModule.TurtleControllerPane\lModule">
<polygon fill="white" stroke="black" points="604.5,0.5 604.5,-40.5 777.5,-40.5 777.5,0.5 604.5,0.5"/>
<text text-anchor="start" x="612.5" y="-28.5" font-family="Helvetica,sans-Serif" font-size="10.00">view.panes.TurtleController</text>
<text text-anchor="start" x="612.5" y="-17.5" font-family="Helvetica,sans-Serif" font-size="10.00">PaneModule.TurtleControllerPane</text>
<text text-anchor="middle" x="691" y="-6.5" font-family="Helvetica,sans-Serif" font-size="10.00">Module</text>
</a>
</g>
</g>
<!-- Node3&#45;&gt;Node4 -->
<g id="edge3" class="edge"><title>Node3&#45;&gt;Node4</title>
<path fill="none" stroke="midnightblue" d="M578.293,-20C586.997,-20 595.768,-20 604.362,-20"/>
<polygon fill="midnightblue" stroke="midnightblue" points="578.121,-16.5001 568.121,-20 578.121,-23.5001 578.121,-16.5001"/>
</g>
</g>
</svg>
