<?xml version="1.0" encoding="UTF-8" standalone="no"?>
<!DOCTYPE svg PUBLIC "-//W3C//DTD SVG 1.1//EN"
 "http://www.w3.org/Graphics/SVG/1.1/DTD/svg11.dtd">
<!-- Generated by graphviz version 2.36.0 (20140111.2315)
 -->
<!-- Title: view.controllers.ImagePalette.getBox Pages: 1 -->
<svg width="622pt" height="48pt"
 viewBox="0.00 0.00 622.00 48.00" xmlns="http://www.w3.org/2000/svg" xmlns:xlink="http://www.w3.org/1999/xlink">
<g id="graph0" class="graph" transform="scale(1 1) rotate(0) translate(4 44)">
<title>view.controllers.ImagePalette.getBox</title>
<polygon fill="white" stroke="none" points="-4,4 -4,-44 618,-44 618,4 -4,4"/>
<!-- Node1 -->
<g id="node1" class="node"><title>Node1</title>
<polygon fill="#bfbfbf" stroke="black" points="0,-10.5 0,-29.5 192,-29.5 192,-10.5 0,-10.5"/>
<text text-anchor="middle" x="96" y="-17.5" font-family="Helvetica,sans-Serif" font-size="10.00">view.controllers.ImagePalette.getBox</text>
</g>
<!-- Node2 -->
<g id="node2" class="node"><title>Node2</title>
<g id="a_node2"><a xlink:href="../../d0/d06/classview_1_1panes_1_1_turtle_controller_pane_module.html#a714ad68e313bb0c547d8db1ec5f8c755" target="_top" xlink:title="view.panes.TurtleController\lPaneModule.imageSelectorMaker">
<polygon fill="white" stroke="black" points="228,-5 228,-35 404,-35 404,-5 228,-5"/>
<text text-anchor="start" x="236" y="-23" font-family="Helvetica,sans-Serif" font-size="10.00">view.panes.TurtleController</text>
<text text-anchor="middle" x="316" y="-12" font-family="Helvetica,sans-Serif" font-size="10.00">PaneModule.imageSelectorMaker</text>
</a>
</g>
</g>
<!-- Node1&#45;&gt;Node2 -->
<g id="edge1" class="edge"><title>Node1&#45;&gt;Node2</title>
<path fill="none" stroke="midnightblue" d="M202.575,-20C211.021,-20 219.494,-20 227.791,-20"/>
<polygon fill="midnightblue" stroke="midnightblue" points="202.301,-16.5001 192.301,-20 202.301,-23.5001 202.301,-16.5001"/>
</g>
<!-- Node3 -->
<g id="node3" class="node"><title>Node3</title>
<g id="a_node3"><a xlink:href="../../d0/d06/classview_1_1panes_1_1_turtle_controller_pane_module.html#a8b42010a92159b57095b40a80de1dfc7" target="_top" xlink:title="view.panes.TurtleController\lPaneModule.TurtleControllerPane\lModule">
<polygon fill="white" stroke="black" points="440.5,0.5 440.5,-40.5 613.5,-40.5 613.5,0.5 440.5,0.5"/>
<text text-anchor="start" x="448.5" y="-28.5" font-family="Helvetica,sans-Serif" font-size="10.00">view.panes.TurtleController</text>
<text text-anchor="start" x="448.5" y="-17.5" font-family="Helvetica,sans-Serif" font-size="10.00">PaneModule.TurtleControllerPane</text>
<text text-anchor="middle" x="527" y="-6.5" font-family="Helvetica,sans-Serif" font-size="10.00">Module</text>
</a>
</g>
</g>
<!-- Node2&#45;&gt;Node3 -->
<g id="edge2" class="edge"><title>Node2&#45;&gt;Node3</title>
<path fill="none" stroke="midnightblue" d="M414.293,-20C422.997,-20 431.768,-20 440.362,-20"/>
<polygon fill="midnightblue" stroke="midnightblue" points="414.121,-16.5001 404.121,-20 414.121,-23.5001 414.121,-16.5001"/>
</g>
</g>
</svg>
