<?xml version="1.0" encoding="UTF-8" standalone="no"?>
<!DOCTYPE svg PUBLIC "-//W3C//DTD SVG 1.1//EN"
 "http://www.w3.org/Graphics/SVG/1.1/DTD/svg11.dtd">
<!-- Generated by graphviz version 2.36.0 (20140111.2315)
 -->
<!-- Title: view.controllers.ImagePalette.getImage Pages: 1 -->
<svg width="1966pt" height="1361pt"
 viewBox="0.00 0.00 1966.00 1361.00" xmlns="http://www.w3.org/2000/svg" xmlns:xlink="http://www.w3.org/1999/xlink">
<g id="graph0" class="graph" transform="scale(1 1) rotate(0) translate(4 1357)">
<title>view.controllers.ImagePalette.getImage</title>
<polygon fill="white" stroke="none" points="-4,4 -4,-1357 1962,-1357 1962,4 -4,4"/>
<!-- Node1 -->
<g id="node1" class="node"><title>Node1</title>
<polygon fill="#bfbfbf" stroke="black" points="0,-286 0,-316 174,-316 174,-286 0,-286"/>
<text text-anchor="start" x="8" y="-304" font-family="Helvetica,sans-Serif" font-size="10.00">view.controllers.ImagePalette.get</text>
<text text-anchor="middle" x="87" y="-293" font-family="Helvetica,sans-Serif" font-size="10.00">Image</text>
</g>
<!-- Node2 -->
<g id="node2" class="node"><title>Node2</title>
<g id="a_node2"><a xlink:href="../../d7/da6/classview_1_1_turtle_draw.html#a939f4fdbdb66457c9dcee82eb4ae6d9c" target="_top" xlink:title="view.TurtleDraw.drawTurtle">
<polygon fill="white" stroke="black" points="210.5,-291.5 210.5,-310.5 349.5,-310.5 349.5,-291.5 210.5,-291.5"/>
<text text-anchor="middle" x="280" y="-298.5" font-family="Helvetica,sans-Serif" font-size="10.00">view.TurtleDraw.drawTurtle</text>
</a>
</g>
</g>
<!-- Node1&#45;&gt;Node2 -->
<g id="edge1" class="edge"><title>Node1&#45;&gt;Node2</title>
<path fill="none" stroke="midnightblue" d="M184.022,-301C192.91,-301 201.792,-301 210.36,-301"/>
<polygon fill="midnightblue" stroke="midnightblue" points="184.001,-297.5 174.001,-301 184.001,-304.5 184.001,-297.5"/>
</g>
<!-- Node3 -->
<g id="node3" class="node"><title>Node3</title>
<g id="a_node3"><a xlink:href="../../db/db5/classview_1_1panes_1_1_view_pane_module.html#a44db6ae832af3ce470baa9406142b8cb" target="_top" xlink:title="view.panes.ViewPaneModule.make\lStamps">
<polygon fill="white" stroke="black" points="389.5,-311 389.5,-341 570.5,-341 570.5,-311 389.5,-311"/>
<text text-anchor="start" x="397.5" y="-329" font-family="Helvetica,sans-Serif" font-size="10.00">view.panes.ViewPaneModule.make</text>
<text text-anchor="middle" x="480" y="-318" font-family="Helvetica,sans-Serif" font-size="10.00">Stamps</text>
</a>
</g>
</g>
<!-- Node2&#45;&gt;Node3 -->
<g id="edge2" class="edge"><title>Node2&#45;&gt;Node3</title>
<path fill="none" stroke="midnightblue" d="M359.674,-310.934C369.361,-312.157 379.318,-313.414 389.154,-314.656"/>
<polygon fill="midnightblue" stroke="midnightblue" points="360.055,-307.454 349.695,-309.674 359.178,-314.399 360.055,-307.454"/>
</g>
<!-- Node41 -->
<g id="node41" class="node"><title>Node41</title>
<g id="a_node41"><a xlink:href="../../db/db5/classview_1_1panes_1_1_view_pane_module.html#ab55ce3511929b88a2cd1235eb694868f" target="_top" xlink:title="view.panes.ViewPaneModule.update\lTurtle">
<polygon fill="white" stroke="black" points="386,-262 386,-292 574,-292 574,-262 386,-262"/>
<text text-anchor="start" x="394" y="-280" font-family="Helvetica,sans-Serif" font-size="10.00">view.panes.ViewPaneModule.update</text>
<text text-anchor="middle" x="480" y="-269" font-family="Helvetica,sans-Serif" font-size="10.00">Turtle</text>
</a>
</g>
</g>
<!-- Node2&#45;&gt;Node41 -->
<g id="edge40" class="edge"><title>Node2&#45;&gt;Node41</title>
<path fill="none" stroke="midnightblue" d="M359.626,-291.47C368.183,-290.432 376.952,-289.369 385.662,-288.314"/>
<polygon fill="midnightblue" stroke="midnightblue" points="359.201,-287.995 349.695,-292.673 360.044,-294.944 359.201,-287.995"/>
</g>
<!-- Node4 -->
<g id="node4" class="node"><title>Node4</title>
<g id="a_node4"><a xlink:href="../../db/db5/classview_1_1panes_1_1_view_pane_module.html#aa2a1bf15bc036ee4237bf63749d85baf" target="_top" xlink:title="view.panes.ViewPaneModule.updateView">
<polygon fill="white" stroke="black" points="610.5,-291.5 610.5,-310.5 819.5,-310.5 819.5,-291.5 610.5,-291.5"/>
<text text-anchor="middle" x="715" y="-298.5" font-family="Helvetica,sans-Serif" font-size="10.00">view.panes.ViewPaneModule.updateView</text>
</a>
</g>
</g>
<!-- Node3&#45;&gt;Node4 -->
<g id="edge3" class="edge"><title>Node3&#45;&gt;Node4</title>
<path fill="none" stroke="midnightblue" d="M580.928,-315.278C595.731,-313.69 610.899,-312.062 625.448,-310.501"/>
<polygon fill="midnightblue" stroke="midnightblue" points="580.32,-311.823 570.751,-316.37 581.067,-318.783 580.32,-311.823"/>
</g>
<!-- Node5 -->
<g id="node5" class="node"><title>Node5</title>
<g id="a_node5"><a xlink:href="../../d3/d42/classmodel_1_1_model.html#a76160d002c1e68b566307ac44356f6e5" target="_top" xlink:title="model.Model.notifyView">
<polygon fill="white" stroke="black" points="883.5,-313.5 883.5,-332.5 1012.5,-332.5 1012.5,-313.5 883.5,-313.5"/>
<text text-anchor="middle" x="948" y="-320.5" font-family="Helvetica,sans-Serif" font-size="10.00">model.Model.notifyView</text>
</a>
</g>
</g>
<!-- Node4&#45;&gt;Node5 -->
<g id="edge4" class="edge"><title>Node4&#45;&gt;Node5</title>
<path fill="none" stroke="midnightblue" d="M826.173,-311.493C845.729,-313.355 865.49,-315.237 883.206,-316.924"/>
<polygon fill="midnightblue" stroke="midnightblue" points="826.263,-307.986 815.976,-310.522 825.6,-314.954 826.263,-307.986"/>
</g>
<!-- Node39 -->
<g id="node39" class="node"><title>Node39</title>
<g id="a_node39"><a xlink:href="../../db/db5/classview_1_1panes_1_1_view_pane_module.html#a200bd9d0cb7f1fb3482afb7f085939cd" target="_top" xlink:title="view.panes.ViewPaneModule.toggle\lActive">
<polygon fill="white" stroke="black" points="856,-264 856,-294 1040,-294 1040,-264 856,-264"/>
<text text-anchor="start" x="864" y="-282" font-family="Helvetica,sans-Serif" font-size="10.00">view.panes.ViewPaneModule.toggle</text>
<text text-anchor="middle" x="948" y="-271" font-family="Helvetica,sans-Serif" font-size="10.00">Active</text>
</a>
</g>
</g>
<!-- Node4&#45;&gt;Node39 -->
<g id="edge38" class="edge"><title>Node4&#45;&gt;Node39</title>
<path fill="none" stroke="midnightblue" d="M825.986,-290.525C836.025,-289.569 846.12,-288.608 855.966,-287.67"/>
<polygon fill="midnightblue" stroke="midnightblue" points="825.6,-287.046 815.976,-291.478 826.263,-294.014 825.6,-287.046"/>
</g>
<!-- Node6 -->
<g id="node6" class="node"><title>Node6</title>
<g id="a_node6"><a xlink:href="../../dd/dd6/classcommands_1_1_command.html#abafa69601e87c34d4453cf84349d6f9c" target="_top" xlink:title="commands.Command.execute\lCommand">
<polygon fill="white" stroke="black" points="1076.5,-661 1076.5,-691 1241.5,-691 1241.5,-661 1076.5,-661"/>
<text text-anchor="start" x="1084.5" y="-679" font-family="Helvetica,sans-Serif" font-size="10.00">commands.Command.execute</text>
<text text-anchor="middle" x="1159" y="-668" font-family="Helvetica,sans-Serif" font-size="10.00">Command</text>
</a>
</g>
</g>
<!-- Node5&#45;&gt;Node6 -->
<g id="edge5" class="edge"><title>Node5&#45;&gt;Node6</title>
<path fill="none" stroke="midnightblue" d="M959.99,-341.563C996.815,-403.76 1115.42,-604.075 1149.04,-660.865"/>
<polygon fill="midnightblue" stroke="midnightblue" points="962.914,-339.631 954.808,-332.81 956.891,-343.198 962.914,-339.631"/>
</g>
<!-- Node35 -->
<g id="node35" class="node"><title>Node35</title>
<g id="a_node35"><a xlink:href="../../d3/d42/classmodel_1_1_model.html#a73435cc7a2b6100031bbdd2cf6d6b4e8" target="_top" xlink:title="model.Model.updateModel">
<polygon fill="white" stroke="black" points="1087.5,-313.5 1087.5,-332.5 1230.5,-332.5 1230.5,-313.5 1087.5,-313.5"/>
<text text-anchor="middle" x="1159" y="-320.5" font-family="Helvetica,sans-Serif" font-size="10.00">model.Model.updateModel</text>
</a>
</g>
</g>
<!-- Node5&#45;&gt;Node35 -->
<g id="edge34" class="edge"><title>Node5&#45;&gt;Node35</title>
<path fill="none" stroke="midnightblue" d="M1022.72,-323C1043.75,-323 1066.61,-323 1087.45,-323"/>
<polygon fill="midnightblue" stroke="midnightblue" points="1022.56,-319.5 1012.56,-323 1022.56,-326.5 1022.56,-319.5"/>
</g>
<!-- Node7 -->
<g id="node7" class="node"><title>Node7</title>
<g id="a_node7"><a xlink:href="../../d1/d79/classcommands_1_1_sum_command.html#a792945436d0c3ff1f58301fcc50f5ae1" target="_top" xlink:title="commands.SumCommand.execute\lCommand">
<polygon fill="white" stroke="black" points="1304,-1323 1304,-1353 1492,-1353 1492,-1323 1304,-1323"/>
<text text-anchor="start" x="1312" y="-1341" font-family="Helvetica,sans-Serif" font-size="10.00">commands.SumCommand.execute</text>
<text text-anchor="middle" x="1398" y="-1330" font-family="Helvetica,sans-Serif" font-size="10.00">Command</text>
</a>
</g>
</g>
<!-- Node6&#45;&gt;Node7 -->
<g id="edge6" class="edge"><title>Node6&#45;&gt;Node7</title>
<path fill="none" stroke="midnightblue" d="M1161.05,-701.444C1166.01,-808.823 1190.63,-1223.52 1278,-1313 1285.3,-1320.48 1294.23,-1326 1303.88,-1330.04"/>
<polygon fill="midnightblue" stroke="midnightblue" points="1164.54,-701.061 1160.6,-691.226 1157.54,-701.372 1164.54,-701.061"/>
</g>
<!-- Node8 -->
<g id="node8" class="node"><title>Node8</title>
<g id="a_node8"><a xlink:href="../../d6/dc0/classcommands_1_1_repeat_command.html#a40fb82831e8b2beaa7e31913e46e15eb" target="_top" xlink:title="commands.RepeatCommand.execute\lCommand">
<polygon fill="white" stroke="black" points="1299,-1274 1299,-1304 1497,-1304 1497,-1274 1299,-1274"/>
<text text-anchor="start" x="1307" y="-1292" font-family="Helvetica,sans-Serif" font-size="10.00">commands.RepeatCommand.execute</text>
<text text-anchor="middle" x="1398" y="-1281" font-family="Helvetica,sans-Serif" font-size="10.00">Command</text>
</a>
</g>
</g>
<!-- Node6&#45;&gt;Node8 -->
<g id="edge7" class="edge"><title>Node6&#45;&gt;Node8</title>
<path fill="none" stroke="midnightblue" d="M1161.48,-701.431C1167.92,-803.56 1197.03,-1182.29 1278,-1264 1284.02,-1270.07 1291.11,-1274.85 1298.79,-1278.59"/>
<polygon fill="midnightblue" stroke="midnightblue" points="1164.95,-700.909 1160.84,-691.142 1157.96,-701.338 1164.95,-700.909"/>
</g>
<!-- Node9 -->
<g id="node9" class="node"><title>Node9</title>
<g id="a_node9"><a xlink:href="../../dd/d82/classcommands_1_1_remainder_command.html#a99d4baf3f1b4a3c8d0cd69274380a2cf" target="_top" xlink:title="commands.RemainderCommand.execute\lCommand">
<polygon fill="white" stroke="black" points="1290,-1225 1290,-1255 1506,-1255 1506,-1225 1290,-1225"/>
<text text-anchor="start" x="1298" y="-1243" font-family="Helvetica,sans-Serif" font-size="10.00">commands.RemainderCommand.execute</text>
<text text-anchor="middle" x="1398" y="-1232" font-family="Helvetica,sans-Serif" font-size="10.00">Command</text>
</a>
</g>
</g>
<!-- Node6&#45;&gt;Node9 -->
<g id="edge8" class="edge"><title>Node6&#45;&gt;Node9</title>
<path fill="none" stroke="midnightblue" d="M1161.96,-701.181C1169.95,-797.511 1203.33,-1140.96 1278,-1215 1281.82,-1218.79 1286.06,-1222.07 1290.6,-1224.91"/>
<polygon fill="midnightblue" stroke="midnightblue" points="1165.44,-700.858 1161.14,-691.174 1158.46,-701.424 1165.44,-700.858"/>
</g>
<!-- Node10 -->
<g id="node10" class="node"><title>Node10</title>
<g id="a_node10"><a xlink:href="../../df/df5/classcommands_1_1_minus_command.html#a82548bbb25a73194469e1ff81b19cf27" target="_top" xlink:title="commands.MinusCommand.execute\lCommand">
<polygon fill="white" stroke="black" points="1301.5,-1176 1301.5,-1206 1494.5,-1206 1494.5,-1176 1301.5,-1176"/>
<text text-anchor="start" x="1309.5" y="-1194" font-family="Helvetica,sans-Serif" font-size="10.00">commands.MinusCommand.execute</text>
<text text-anchor="middle" x="1398" y="-1183" font-family="Helvetica,sans-Serif" font-size="10.00">Command</text>
</a>
</g>
</g>
<!-- Node6&#45;&gt;Node10 -->
<g id="edge9" class="edge"><title>Node6&#45;&gt;Node10</title>
<path fill="none" stroke="midnightblue" d="M1162.55,-701.225C1172.24,-791.929 1209.69,-1099.66 1278,-1166 1284.74,-1172.54 1292.73,-1177.57 1301.34,-1181.41"/>
<polygon fill="midnightblue" stroke="midnightblue" points="1166.03,-700.851 1161.51,-691.27 1159.07,-701.581 1166.03,-700.851"/>
</g>
<!-- Node11 -->
<g id="node11" class="node"><title>Node11</title>
<g id="a_node11"><a xlink:href="../../d3/d37/classcommands_1_1_set_background_command.html#a91dc8e21948a301c55af1cef90b77962" target="_top" xlink:title="commands.SetBackgroundCommand.execute\lCommand">
<polygon fill="white" stroke="black" points="1278.5,-1127 1278.5,-1157 1517.5,-1157 1517.5,-1127 1278.5,-1127"/>
<text text-anchor="start" x="1286.5" y="-1145" font-family="Helvetica,sans-Serif" font-size="10.00">commands.SetBackgroundCommand.execute</text>
<text text-anchor="middle" x="1398" y="-1134" font-family="Helvetica,sans-Serif" font-size="10.00">Command</text>
</a>
</g>
</g>
<!-- Node6&#45;&gt;Node11 -->
<g id="edge10" class="edge"><title>Node6&#45;&gt;Node11</title>
<path fill="none" stroke="midnightblue" d="M1163.26,-701.15C1174.74,-785.787 1215.98,-1058.26 1278,-1117 1281.99,-1120.77 1286.39,-1124.04 1291.08,-1126.86"/>
<polygon fill="midnightblue" stroke="midnightblue" points="1166.72,-700.585 1161.92,-691.137 1159.78,-701.512 1166.72,-700.585"/>
</g>
<!-- Node12 -->
<g id="node12" class="node"><title>Node12</title>
<g id="a_node12"><a xlink:href="../../d8/dba/classcommands_1_1_product_command.html#a8bc20bc7c21a944405f599dbcfa57e67" target="_top" xlink:title="commands.ProductCommand.execute\lCommand">
<polygon fill="white" stroke="black" points="1297,-1078 1297,-1108 1499,-1108 1499,-1078 1297,-1078"/>
<text text-anchor="start" x="1305" y="-1096" font-family="Helvetica,sans-Serif" font-size="10.00">commands.ProductCommand.execute</text>
<text text-anchor="middle" x="1398" y="-1085" font-family="Helvetica,sans-Serif" font-size="10.00">Command</text>
</a>
</g>
</g>
<!-- Node6&#45;&gt;Node12 -->
<g id="edge11" class="edge"><title>Node6&#45;&gt;Node12</title>
<path fill="none" stroke="midnightblue" d="M1159.41,-701.275C1159.23,-771.059 1168.92,-967.852 1278,-1068 1283.6,-1073.14 1289.98,-1077.33 1296.8,-1080.73"/>
<polygon fill="midnightblue" stroke="midnightblue" points="1162.91,-701.233 1159.5,-691.2 1155.91,-701.165 1162.91,-701.233"/>
</g>
<!-- Node13 -->
<g id="node13" class="node"><title>Node13</title>
<g id="a_node13"><a xlink:href="../../dd/d40/classcommands_1_1_quotient_command.html#a7e23b237cc68512dcbe6a65feb7c39e8" target="_top" xlink:title="commands.QuotientCommand.execute\lCommand">
<polygon fill="white" stroke="black" points="1295,-1029 1295,-1059 1501,-1059 1501,-1029 1295,-1029"/>
<text text-anchor="start" x="1303" y="-1047" font-family="Helvetica,sans-Serif" font-size="10.00">commands.QuotientCommand.execute</text>
<text text-anchor="middle" x="1398" y="-1036" font-family="Helvetica,sans-Serif" font-size="10.00">Command</text>
</a>
</g>
</g>
<!-- Node6&#45;&gt;Node13 -->
<g id="edge12" class="edge"><title>Node6&#45;&gt;Node13</title>
<path fill="none" stroke="midnightblue" d="M1160.67,-701.514C1163.82,-765.487 1181.36,-933.681 1278,-1019 1283.06,-1023.47 1288.72,-1027.21 1294.75,-1030.34"/>
<polygon fill="midnightblue" stroke="midnightblue" points="1164.16,-701.007 1160.25,-691.159 1157.16,-701.294 1164.16,-701.007"/>
</g>
<!-- Node14 -->
<g id="node14" class="node"><title>Node14</title>
<g id="a_node14"><a xlink:href="../../dc/d68/classcommands_1_1_make_variable_command.html#ad0e0974744cc969c12c67805c2460ef4" target="_top" xlink:title="commands.MakeVariableCommand.execute\lCommand">
<polygon fill="white" stroke="black" points="1283.5,-980 1283.5,-1010 1512.5,-1010 1512.5,-980 1283.5,-980"/>
<text text-anchor="start" x="1291.5" y="-998" font-family="Helvetica,sans-Serif" font-size="10.00">commands.MakeVariableCommand.execute</text>
<text text-anchor="middle" x="1398" y="-987" font-family="Helvetica,sans-Serif" font-size="10.00">Command</text>
</a>
</g>
</g>
<!-- Node6&#45;&gt;Node14 -->
<g id="edge13" class="edge"><title>Node6&#45;&gt;Node14</title>
<path fill="none" stroke="midnightblue" d="M1162.27,-701.004C1168.86,-758.166 1193.29,-898.929 1278,-970 1282.53,-973.799 1287.49,-977.067 1292.73,-979.873"/>
<polygon fill="midnightblue" stroke="midnightblue" points="1165.75,-700.607 1161.21,-691.035 1158.79,-701.35 1165.75,-700.607"/>
</g>
<!-- Node15 -->
<g id="node15" class="node"><title>Node15</title>
<g id="a_node15"><a xlink:href="../../d8/ded/classcommands_1_1_difference_command.html#a0c34c43d3bb266ef3e48ae27be938a0f" target="_top" xlink:title="commands.DifferenceCommand.execute\lCommand">
<polygon fill="white" stroke="black" points="1291,-931 1291,-961 1505,-961 1505,-931 1291,-931"/>
<text text-anchor="start" x="1299" y="-949" font-family="Helvetica,sans-Serif" font-size="10.00">commands.DifferenceCommand.execute</text>
<text text-anchor="middle" x="1398" y="-938" font-family="Helvetica,sans-Serif" font-size="10.00">Command</text>
</a>
</g>
</g>
<!-- Node6&#45;&gt;Node15 -->
<g id="edge14" class="edge"><title>Node6&#45;&gt;Node15</title>
<path fill="none" stroke="midnightblue" d="M1164.53,-701.294C1174.94,-751.586 1205.46,-864.176 1278,-921 1282.9,-924.84 1288.26,-928.128 1293.89,-930.938"/>
<polygon fill="midnightblue" stroke="midnightblue" points="1167.93,-700.411 1162.56,-691.276 1161.06,-701.765 1167.93,-700.411"/>
</g>
<!-- Node16 -->
<g id="node16" class="node"><title>Node16</title>
<g id="a_node16"><a xlink:href="../../dd/d29/classcommands_1_1_clear_screen_command.html#a87e5eb0f4c3bb48ec0737da2aa431db3" target="_top" xlink:title="commands.ClearScreenCommand.execute\lCommand">
<polygon fill="white" stroke="black" points="1286,-882 1286,-912 1510,-912 1510,-882 1286,-882"/>
<text text-anchor="start" x="1294" y="-900" font-family="Helvetica,sans-Serif" font-size="10.00">commands.ClearScreenCommand.execute</text>
<text text-anchor="middle" x="1398" y="-889" font-family="Helvetica,sans-Serif" font-size="10.00">Command</text>
</a>
</g>
</g>
<!-- Node6&#45;&gt;Node16 -->
<g id="edge15" class="edge"><title>Node6&#45;&gt;Node16</title>
<path fill="none" stroke="midnightblue" d="M1167.57,-700.672C1181.86,-742.893 1216.99,-828.631 1278,-872 1283.42,-875.853 1289.31,-879.136 1295.47,-881.931"/>
<polygon fill="midnightblue" stroke="midnightblue" points="1170.89,-699.579 1164.45,-691.165 1164.24,-701.757 1170.89,-699.579"/>
</g>
<!-- Node17 -->
<g id="node17" class="node"><title>Node17</title>
<g id="a_node17"><a xlink:href="../../d9/d35/classcommands_1_1_ask_command.html#ae4ba28c73ce0b5112e4032bd21a951f5" target="_top" xlink:title="commands.AskCommand.execute\lCommand">
<polygon fill="white" stroke="black" points="1307,-833 1307,-863 1489,-863 1489,-833 1307,-833"/>
<text text-anchor="start" x="1315" y="-851" font-family="Helvetica,sans-Serif" font-size="10.00">commands.AskCommand.execute</text>
<text text-anchor="middle" x="1398" y="-840" font-family="Helvetica,sans-Serif" font-size="10.00">Command</text>
</a>
</g>
</g>
<!-- Node6&#45;&gt;Node17 -->
<g id="edge16" class="edge"><title>Node6&#45;&gt;Node17</title>
<path fill="none" stroke="midnightblue" d="M1172.52,-700.426C1190.92,-733.7 1228.51,-792.605 1278,-823 1286.81,-828.413 1296.61,-832.67 1306.7,-836.015"/>
<polygon fill="midnightblue" stroke="midnightblue" points="1175.47,-698.514 1167.64,-691.373 1169.31,-701.836 1175.47,-698.514"/>
</g>
<!-- Node18 -->
<g id="node18" class="node"><title>Node18</title>
<g id="a_node18"><a xlink:href="../../d3/d49/classcommands_1_1_if_else_command.html#a3b3d15925117d366a69f8ebd1dbc2dbc" target="_top" xlink:title="commands.IfElseCommand.execute\lCommand">
<polygon fill="white" stroke="black" points="1303,-784 1303,-814 1493,-814 1493,-784 1303,-784"/>
<text text-anchor="start" x="1311" y="-802" font-family="Helvetica,sans-Serif" font-size="10.00">commands.IfElseCommand.execute</text>
<text text-anchor="middle" x="1398" y="-791" font-family="Helvetica,sans-Serif" font-size="10.00">Command</text>
</a>
</g>
</g>
<!-- Node6&#45;&gt;Node18 -->
<g id="edge17" class="edge"><title>Node6&#45;&gt;Node18</title>
<path fill="none" stroke="midnightblue" d="M1180.73,-698.758C1202.67,-721.389 1239.39,-755.347 1278,-774 1286.08,-777.903 1294.75,-781.199 1303.61,-783.982"/>
<polygon fill="midnightblue" stroke="midnightblue" points="1183.04,-696.105 1173.61,-691.27 1177.97,-700.928 1183.04,-696.105"/>
</g>
<!-- Node20 -->
<g id="node20" class="node"><title>Node20</title>
<g id="a_node20"><a xlink:href="../../d8/d57/classcommands_1_1_for_command.html#aeb06a37d7f9845eb546425bae6ea9f58" target="_top" xlink:title="commands.ForCommand.execute\lCommand">
<polygon fill="white" stroke="black" points="1308,-735 1308,-765 1488,-765 1488,-735 1308,-735"/>
<text text-anchor="start" x="1316" y="-753" font-family="Helvetica,sans-Serif" font-size="10.00">commands.ForCommand.execute</text>
<text text-anchor="middle" x="1398" y="-742" font-family="Helvetica,sans-Serif" font-size="10.00">Command</text>
</a>
</g>
</g>
<!-- Node6&#45;&gt;Node20 -->
<g id="edge19" class="edge"><title>Node6&#45;&gt;Node20</title>
<path fill="none" stroke="midnightblue" d="M1201.15,-695.308C1223.51,-705.231 1251.86,-716.904 1278,-725 1290,-728.716 1302.85,-732.055 1315.5,-734.992"/>
<polygon fill="midnightblue" stroke="midnightblue" points="1202.51,-692.084 1191.96,-691.179 1199.64,-698.47 1202.51,-692.084"/>
</g>
<!-- Node21 -->
<g id="node21" class="node"><title>Node21</title>
<g id="a_node21"><a xlink:href="../../db/d38/classcommands_1_1_ask_with_command.html#a5ee6a090e94729d84ef423a454d446eb" target="_top" xlink:title="commands.AskWithCommand.execute\lCommand">
<polygon fill="white" stroke="black" points="1296.5,-686 1296.5,-716 1499.5,-716 1499.5,-686 1296.5,-686"/>
<text text-anchor="start" x="1304.5" y="-704" font-family="Helvetica,sans-Serif" font-size="10.00">commands.AskWithCommand.execute</text>
<text text-anchor="middle" x="1398" y="-693" font-family="Helvetica,sans-Serif" font-size="10.00">Command</text>
</a>
</g>
</g>
<!-- Node6&#45;&gt;Node21 -->
<g id="edge20" class="edge"><title>Node6&#45;&gt;Node21</title>
<path fill="none" stroke="midnightblue" d="M1251.62,-685.665C1266.3,-687.213 1281.56,-688.823 1296.44,-690.392"/>
<polygon fill="midnightblue" stroke="midnightblue" points="1251.87,-682.172 1241.56,-684.604 1251.14,-689.133 1251.87,-682.172"/>
</g>
<!-- Node22 -->
<g id="node22" class="node"><title>Node22</title>
<g id="a_node22"><a xlink:href="../../d4/d02/classcommands_1_1_do_times_command.html#a1dd20e90975d905a1bce8f018e9f7f0a" target="_top" xlink:title="commands.DoTimesCommand.execute\lCommand">
<polygon fill="white" stroke="black" points="1294.5,-637 1294.5,-667 1501.5,-667 1501.5,-637 1294.5,-637"/>
<text text-anchor="start" x="1302.5" y="-655" font-family="Helvetica,sans-Serif" font-size="10.00">commands.DoTimesCommand.execute</text>
<text text-anchor="middle" x="1398" y="-644" font-family="Helvetica,sans-Serif" font-size="10.00">Command</text>
</a>
</g>
</g>
<!-- Node6&#45;&gt;Node22 -->
<g id="edge21" class="edge"><title>Node6&#45;&gt;Node22</title>
<path fill="none" stroke="midnightblue" d="M1251.64,-666.72C1265.63,-665.303 1280.15,-663.833 1294.35,-662.395"/>
<polygon fill="midnightblue" stroke="midnightblue" points="1251.16,-663.251 1241.56,-667.741 1251.86,-670.215 1251.16,-663.251"/>
</g>
<!-- Node23 -->
<g id="node23" class="node"><title>Node23</title>
<g id="a_node23"><a xlink:href="../../dd/de4/classcommands_1_1_custom_command.html#a5ad25438a49d3e4eeba835fefe8b730a" target="_top" xlink:title="commands.CustomCommand.execute\lCommand">
<polygon fill="white" stroke="black" points="1296.5,-588 1296.5,-618 1499.5,-618 1499.5,-588 1296.5,-588"/>
<text text-anchor="start" x="1304.5" y="-606" font-family="Helvetica,sans-Serif" font-size="10.00">commands.CustomCommand.execute</text>
<text text-anchor="middle" x="1398" y="-595" font-family="Helvetica,sans-Serif" font-size="10.00">Command</text>
</a>
</g>
</g>
<!-- Node6&#45;&gt;Node23 -->
<g id="edge22" class="edge"><title>Node6&#45;&gt;Node23</title>
<path fill="none" stroke="midnightblue" d="M1201.66,-656.916C1223.96,-647.252 1252.09,-635.921 1278,-628 1290.11,-624.297 1303.08,-620.956 1315.85,-618.011"/>
<polygon fill="midnightblue" stroke="midnightblue" points="1200.24,-653.719 1192.49,-660.941 1203.05,-660.129 1200.24,-653.719"/>
</g>
<!-- Node24 -->
<g id="node24" class="node"><title>Node24</title>
<g id="a_node24"><a xlink:href="../../d6/daf/classcommands_1_1_set_shape_command.html#a59c440316cf9e732b5aa2f46def94e10" target="_top" xlink:title="commands.SetShapeCommand.update\lTurtle">
<polygon fill="white" stroke="black" points="1294,-539 1294,-569 1502,-569 1502,-539 1294,-539"/>
<text text-anchor="start" x="1302" y="-557" font-family="Helvetica,sans-Serif" font-size="10.00">commands.SetShapeCommand.update</text>
<text text-anchor="middle" x="1398" y="-546" font-family="Helvetica,sans-Serif" font-size="10.00">Turtle</text>
</a>
</g>
</g>
<!-- Node6&#45;&gt;Node24 -->
<g id="edge23" class="edge"><title>Node6&#45;&gt;Node24</title>
<path fill="none" stroke="midnightblue" d="M1180.78,-653.48C1202.75,-631.086 1239.51,-597.479 1278,-579 1286.09,-575.117 1294.77,-571.835 1303.63,-569.06"/>
<polygon fill="midnightblue" stroke="midnightblue" points="1178.06,-651.259 1173.65,-660.891 1183.1,-656.114 1178.06,-651.259"/>
</g>
<!-- Node25 -->
<g id="node25" class="node"><title>Node25</title>
<g id="a_node25"><a xlink:href="../../d6/d11/classcommands_1_1_set_pen_dash_command.html#a320f3b8248e3e89b2338dfefbe73f8c7" target="_top" xlink:title="commands.SetPenDashCommand.update\lTurtle">
<polygon fill="white" stroke="black" points="1288,-490 1288,-520 1508,-520 1508,-490 1288,-490"/>
<text text-anchor="start" x="1296" y="-508" font-family="Helvetica,sans-Serif" font-size="10.00">commands.SetPenDashCommand.update</text>
<text text-anchor="middle" x="1398" y="-497" font-family="Helvetica,sans-Serif" font-size="10.00">Turtle</text>
</a>
</g>
</g>
<!-- Node6&#45;&gt;Node25 -->
<g id="edge24" class="edge"><title>Node6&#45;&gt;Node25</title>
<path fill="none" stroke="midnightblue" d="M1172.57,-651.74C1191.02,-618.692 1228.66,-560.188 1278,-530 1284.3,-526.144 1291.11,-522.875 1298.16,-520.104"/>
<polygon fill="midnightblue" stroke="midnightblue" points="1169.38,-650.275 1167.67,-660.731 1175.53,-653.622 1169.38,-650.275"/>
</g>
<!-- Node26 -->
<g id="node26" class="node"><title>Node26</title>
<g id="a_node26"><a xlink:href="../../dc/df3/classcommands_1_1_set_towards_command.html#ad82abd7dcaed57b3bdb3a4b87a91815a" target="_top" xlink:title="commands.SetTowardsCommand.update\lTurtle">
<polygon fill="white" stroke="black" points="1290.5,-441 1290.5,-471 1505.5,-471 1505.5,-441 1290.5,-441"/>
<text text-anchor="start" x="1298.5" y="-459" font-family="Helvetica,sans-Serif" font-size="10.00">commands.SetTowardsCommand.update</text>
<text text-anchor="middle" x="1398" y="-448" font-family="Helvetica,sans-Serif" font-size="10.00">Turtle</text>
</a>
</g>
</g>
<!-- Node6&#45;&gt;Node26 -->
<g id="edge25" class="edge"><title>Node6&#45;&gt;Node26</title>
<path fill="none" stroke="midnightblue" d="M1167.7,-651.184C1182.1,-609.082 1217.3,-524.047 1278,-481 1283.42,-477.153 1289.32,-473.875 1295.48,-471.083"/>
<polygon fill="midnightblue" stroke="midnightblue" points="1164.3,-650.318 1164.48,-660.911 1170.94,-652.517 1164.3,-650.318"/>
</g>
<!-- Node27 -->
<g id="node27" class="node"><title>Node27</title>
<g id="a_node27"><a xlink:href="../../d9/db5/classcommands_1_1_set_position_command.html#aba31c4887974831a6c0d9feac8316ee6" target="_top" xlink:title="commands.SetPositionCommand.update\lTurtle">
<polygon fill="white" stroke="black" points="1290.5,-392 1290.5,-422 1505.5,-422 1505.5,-392 1290.5,-392"/>
<text text-anchor="start" x="1298.5" y="-410" font-family="Helvetica,sans-Serif" font-size="10.00">commands.SetPositionCommand.update</text>
<text text-anchor="middle" x="1398" y="-399" font-family="Helvetica,sans-Serif" font-size="10.00">Turtle</text>
</a>
</g>
</g>
<!-- Node6&#45;&gt;Node27 -->
<g id="edge26" class="edge"><title>Node6&#45;&gt;Node27</title>
<path fill="none" stroke="midnightblue" d="M1164.57,-650.807C1175.03,-600.716 1205.66,-488.578 1278,-432 1282.91,-428.163 1288.26,-424.879 1293.9,-422.071"/>
<polygon fill="midnightblue" stroke="midnightblue" points="1161.1,-650.293 1162.58,-660.784 1167.97,-651.661 1161.1,-650.293"/>
</g>
<!-- Node28 -->
<g id="node28" class="node"><title>Node28</title>
<g id="a_node28"><a xlink:href="../../dd/db2/classcommands_1_1_right_command.html#ae16ecb0da3e0a2049a7382d74f315cb6" target="_top" xlink:title="commands.RightCommand.update\lTurtle">
<polygon fill="white" stroke="black" points="1305.5,-343 1305.5,-373 1490.5,-373 1490.5,-343 1305.5,-343"/>
<text text-anchor="start" x="1313.5" y="-361" font-family="Helvetica,sans-Serif" font-size="10.00">commands.RightCommand.update</text>
<text text-anchor="middle" x="1398" y="-350" font-family="Helvetica,sans-Serif" font-size="10.00">Turtle</text>
</a>
</g>
</g>
<!-- Node6&#45;&gt;Node28 -->
<g id="edge27" class="edge"><title>Node6&#45;&gt;Node28</title>
<path fill="none" stroke="midnightblue" d="M1162.34,-650.678C1169.06,-593.452 1193.7,-453.648 1278,-383 1286.01,-376.288 1295.37,-371.237 1305.26,-367.456"/>
<polygon fill="midnightblue" stroke="midnightblue" points="1158.86,-650.353 1161.26,-660.673 1165.82,-651.11 1158.86,-650.353"/>
</g>
<!-- Node29 -->
<g id="node29" class="node"><title>Node29</title>
<g id="a_node29"><a xlink:href="../../dc/db3/classcommands_1_1_set_heading_command.html#a064fae1a815349b9efc6bd43f2371339" target="_top" xlink:title="commands.SetHeadingCommand.update\lTurtle">
<polygon fill="white" stroke="black" points="1289.5,-294 1289.5,-324 1506.5,-324 1506.5,-294 1289.5,-294"/>
<text text-anchor="start" x="1297.5" y="-312" font-family="Helvetica,sans-Serif" font-size="10.00">commands.SetHeadingCommand.update</text>
<text text-anchor="middle" x="1398" y="-301" font-family="Helvetica,sans-Serif" font-size="10.00">Turtle</text>
</a>
</g>
</g>
<!-- Node6&#45;&gt;Node29 -->
<g id="edge28" class="edge"><title>Node6&#45;&gt;Node29</title>
<path fill="none" stroke="midnightblue" d="M1160.63,-650.439C1163.68,-586.357 1181.02,-417.929 1278,-333 1281.88,-329.598 1286.12,-326.628 1290.59,-324.037"/>
<polygon fill="midnightblue" stroke="midnightblue" points="1157.12,-650.682 1160.22,-660.812 1164.12,-650.958 1157.12,-650.682"/>
</g>
<!-- Node30 -->
<g id="node30" class="node"><title>Node30</title>
<g id="a_node30"><a xlink:href="../../d2/dbb/classcommands_1_1_set_pen_size_command.html#aa8dbbb22c72842b2d6f50aa169a8404e" target="_top" xlink:title="commands.SetPenSizeCommand.update\lTurtle">
<polygon fill="white" stroke="black" points="1290.5,-245 1290.5,-275 1505.5,-275 1505.5,-245 1290.5,-245"/>
<text text-anchor="start" x="1298.5" y="-263" font-family="Helvetica,sans-Serif" font-size="10.00">commands.SetPenSizeCommand.update</text>
<text text-anchor="middle" x="1398" y="-252" font-family="Helvetica,sans-Serif" font-size="10.00">Turtle</text>
</a>
</g>
</g>
<!-- Node6&#45;&gt;Node30 -->
<g id="edge29" class="edge"><title>Node6&#45;&gt;Node30</title>
<path fill="none" stroke="midnightblue" d="M1164.14,-650.831C1177.52,-572.454 1222.04,-334.962 1278,-284 1281.82,-280.523 1285.99,-277.492 1290.43,-274.853"/>
<polygon fill="midnightblue" stroke="midnightblue" points="1160.67,-650.355 1162.46,-660.798 1167.57,-651.519 1160.67,-650.355"/>
</g>
<!-- Node31 -->
<g id="node31" class="node"><title>Node31</title>
<g id="a_node31"><a xlink:href="../../d5/d21/classcommands_1_1_set_pen_color_command.html#a69a9c0161b8910c8fecc5ace219aeeb8" target="_top" xlink:title="commands.SetPenColorCommand.update\lTurtle">
<polygon fill="white" stroke="black" points="1288,-196 1288,-226 1508,-226 1508,-196 1288,-196"/>
<text text-anchor="start" x="1296" y="-214" font-family="Helvetica,sans-Serif" font-size="10.00">commands.SetPenColorCommand.update</text>
<text text-anchor="middle" x="1398" y="-203" font-family="Helvetica,sans-Serif" font-size="10.00">Turtle</text>
</a>
</g>
</g>
<!-- Node6&#45;&gt;Node31 -->
<g id="edge30" class="edge"><title>Node6&#45;&gt;Node31</title>
<path fill="none" stroke="midnightblue" d="M1165.88,-651.156C1187.52,-560.192 1262.23,-249.811 1278,-235 1281.61,-231.609 1285.56,-228.638 1289.76,-226.039"/>
<polygon fill="midnightblue" stroke="midnightblue" points="1162.47,-650.359 1163.57,-660.897 1169.28,-651.977 1162.47,-650.359"/>
</g>
<!-- Node32 -->
<g id="node32" class="node"><title>Node32</title>
<g id="a_node32"><a xlink:href="../../dc/d65/classcommands_1_1_left_command.html#abd466facd4b16e1c04a6578b4bf8e203" target="_top" xlink:title="commands.LeftCommand.update\lTurtle">
<polygon fill="white" stroke="black" points="1308.5,-147 1308.5,-177 1487.5,-177 1487.5,-147 1308.5,-147"/>
<text text-anchor="start" x="1316.5" y="-165" font-family="Helvetica,sans-Serif" font-size="10.00">commands.LeftCommand.update</text>
<text text-anchor="middle" x="1398" y="-154" font-family="Helvetica,sans-Serif" font-size="10.00">Turtle</text>
</a>
</g>
</g>
<!-- Node6&#45;&gt;Node32 -->
<g id="edge31" class="edge"><title>Node6&#45;&gt;Node32</title>
<path fill="none" stroke="midnightblue" d="M1166.34,-650.68C1180.28,-594.95 1214.51,-457.442 1242,-342 1258.48,-272.78 1226.99,-235.611 1278,-186 1286.54,-177.698 1297.1,-171.891 1308.38,-167.883"/>
<polygon fill="midnightblue" stroke="midnightblue" points="1162.87,-650.154 1163.84,-660.704 1169.66,-651.853 1162.87,-650.154"/>
</g>
<!-- Node33 -->
<g id="node33" class="node"><title>Node33</title>
<g id="a_node33"><a xlink:href="../../d6/ddc/classcommands_1_1_backward_command.html#af0c4c6ac04bea1aa34b069a01c53888f" target="_top" xlink:title="commands.BackwardCommand.update\lTurtle">
<polygon fill="white" stroke="black" points="1295,-98 1295,-128 1501,-128 1501,-98 1295,-98"/>
<text text-anchor="start" x="1303" y="-116" font-family="Helvetica,sans-Serif" font-size="10.00">commands.BackwardCommand.update</text>
<text text-anchor="middle" x="1398" y="-105" font-family="Helvetica,sans-Serif" font-size="10.00">Turtle</text>
</a>
</g>
</g>
<!-- Node6&#45;&gt;Node33 -->
<g id="edge32" class="edge"><title>Node6&#45;&gt;Node33</title>
<path fill="none" stroke="midnightblue" d="M1166.8,-650.783C1181.65,-595.258 1217.58,-458.129 1242,-342 1261.04,-251.475 1213.42,-203.229 1278,-137 1282.93,-131.945 1288.61,-127.802 1294.75,-124.419"/>
<polygon fill="midnightblue" stroke="midnightblue" points="1163.34,-650.204 1164.13,-660.769 1170.1,-652.018 1163.34,-650.204"/>
</g>
<!-- Node34 -->
<g id="node34" class="node"><title>Node34</title>
<g id="a_node34"><a xlink:href="../../da/d4f/classcommands_1_1_forward_command.html#afe19b644a8fe0d46f3dbf19aef135364" target="_top" xlink:title="commands.ForwardCommand.update\lTurtle">
<polygon fill="white" stroke="black" points="1299,-49 1299,-79 1497,-79 1497,-49 1299,-49"/>
<text text-anchor="start" x="1307" y="-67" font-family="Helvetica,sans-Serif" font-size="10.00">commands.ForwardCommand.update</text>
<text text-anchor="middle" x="1398" y="-56" font-family="Helvetica,sans-Serif" font-size="10.00">Turtle</text>
</a>
</g>
</g>
<!-- Node6&#45;&gt;Node34 -->
<g id="edge33" class="edge"><title>Node6&#45;&gt;Node34</title>
<path fill="none" stroke="midnightblue" d="M1167.09,-650.841C1182.51,-595.431 1219.5,-458.517 1242,-342 1252.81,-286.026 1238.88,-129.467 1278,-88 1283.93,-81.7146 1291.01,-76.8269 1298.73,-73.0504"/>
<polygon fill="midnightblue" stroke="midnightblue" points="1163.63,-650.233 1164.31,-660.806 1170.37,-652.117 1163.63,-650.233"/>
</g>
<!-- Node19 -->
<g id="node19" class="node"><title>Node19</title>
<g id="a_node19"><a xlink:href="../../d5/dad/classcommands_1_1_if_command.html#a0d92f20941c1e79cfb1e02e77f463e68" target="_top" xlink:title="commands.IfCommand.execute\lCommand">
<polygon fill="white" stroke="black" points="1554,-784 1554,-814 1724,-814 1724,-784 1554,-784"/>
<text text-anchor="start" x="1562" y="-802" font-family="Helvetica,sans-Serif" font-size="10.00">commands.IfCommand.execute</text>
<text text-anchor="middle" x="1639" y="-791" font-family="Helvetica,sans-Serif" font-size="10.00">Command</text>
</a>
</g>
</g>
<!-- Node18&#45;&gt;Node19 -->
<g id="edge18" class="edge"><title>Node18&#45;&gt;Node19</title>
<path fill="none" stroke="midnightblue" d="M1503.5,-799C1520.27,-799 1537.45,-799 1553.68,-799"/>
<polygon fill="midnightblue" stroke="midnightblue" points="1503.12,-795.5 1493.12,-799 1503.12,-802.5 1503.12,-795.5"/>
</g>
<!-- Node36 -->
<g id="node36" class="node"><title>Node36</title>
<g id="a_node36"><a xlink:href="../../d9/df7/classcontroller_1_1_controller.html#a81fea06b52aed0a26625c5b30b490afb" target="_top" xlink:title="controller.Controller.run\lCommand">
<polygon fill="white" stroke="black" points="1334,-0 1334,-30 1462,-30 1462,-0 1334,-0"/>
<text text-anchor="start" x="1342" y="-18" font-family="Helvetica,sans-Serif" font-size="10.00">controller.Controller.run</text>
<text text-anchor="middle" x="1398" y="-7" font-family="Helvetica,sans-Serif" font-size="10.00">Command</text>
</a>
</g>
</g>
<!-- Node35&#45;&gt;Node36 -->
<g id="edge35" class="edge"><title>Node35&#45;&gt;Node36</title>
<path fill="none" stroke="midnightblue" d="M1236.99,-307.773C1238.77,-306.312 1240.45,-304.725 1242,-303 1321.28,-215.038 1196.96,-125.35 1278,-39 1292.28,-23.7855 1313.31,-16.7492 1333.74,-13.8411"/>
<polygon fill="midnightblue" stroke="midnightblue" points="1234.97,-304.917 1228.62,-313.401 1238.87,-310.726 1234.97,-304.917"/>
</g>
<!-- Node37 -->
<g id="node37" class="node"><title>Node37</title>
<g id="a_node37"><a xlink:href="../../d9/df7/classcontroller_1_1_controller.html#afdfa7f9e9a3fb5f6b73a6b8e2b2be8b5" target="_top" xlink:title="controller.Controller.get\lInput">
<polygon fill="white" stroke="black" points="1575,-0 1575,-30 1703,-30 1703,-0 1575,-0"/>
<text text-anchor="start" x="1583" y="-18" font-family="Helvetica,sans-Serif" font-size="10.00">controller.Controller.get</text>
<text text-anchor="middle" x="1639" y="-7" font-family="Helvetica,sans-Serif" font-size="10.00">Input</text>
</a>
</g>
</g>
<!-- Node36&#45;&gt;Node37 -->
<g id="edge36" class="edge"><title>Node36&#45;&gt;Node37</title>
<path fill="none" stroke="midnightblue" d="M1472.11,-15C1504.98,-15 1543.38,-15 1574.95,-15"/>
<polygon fill="midnightblue" stroke="midnightblue" points="1472.11,-11.5001 1462.11,-15 1472.11,-18.5001 1472.11,-11.5001"/>
</g>
<!-- Node38 -->
<g id="node38" class="node"><title>Node38</title>
<g id="a_node38"><a xlink:href="../../d3/dc7/classview_1_1controllers_1_1_pane_controller.html#a7e6154aecb60d8f3bcb056a11e842764" target="_top" xlink:title="view.controllers.PaneController.update">
<polygon fill="white" stroke="black" points="1760,-5.5 1760,-24.5 1958,-24.5 1958,-5.5 1760,-5.5"/>
<text text-anchor="middle" x="1859" y="-12.5" font-family="Helvetica,sans-Serif" font-size="10.00">view.controllers.PaneController.update</text>
</a>
</g>
</g>
<!-- Node37&#45;&gt;Node38 -->
<g id="edge37" class="edge"><title>Node37&#45;&gt;Node38</title>
<path fill="none" stroke="midnightblue" d="M1713.22,-15C1728.16,-15 1744.11,-15 1759.76,-15"/>
<polygon fill="midnightblue" stroke="midnightblue" points="1713.05,-11.5001 1703.05,-15 1713.05,-18.5001 1713.05,-11.5001"/>
</g>
<!-- Node40 -->
<g id="node40" class="node"><title>Node40</title>
<g id="a_node40"><a xlink:href="../../d8/daa/classview_1_1panes_1_1_turtle_selector_pane.html#a14e3fbe35c7447dcdf2f0910333cedcc" target="_top" xlink:title="view.panes.TurtleSelector\lPane.TurtleSelectorPane">
<polygon fill="white" stroke="black" points="1090.5,-264 1090.5,-294 1227.5,-294 1227.5,-264 1090.5,-264"/>
<text text-anchor="start" x="1098.5" y="-282" font-family="Helvetica,sans-Serif" font-size="10.00">view.panes.TurtleSelector</text>
<text text-anchor="middle" x="1159" y="-271" font-family="Helvetica,sans-Serif" font-size="10.00">Pane.TurtleSelectorPane</text>
</a>
</g>
</g>
<!-- Node39&#45;&gt;Node40 -->
<g id="edge39" class="edge"><title>Node39&#45;&gt;Node40</title>
<path fill="none" stroke="midnightblue" d="M1050.43,-279C1064.02,-279 1077.69,-279 1090.5,-279"/>
<polygon fill="midnightblue" stroke="midnightblue" points="1050.06,-275.5 1040.06,-279 1050.06,-282.5 1050.06,-275.5"/>
</g>
<!-- Node41&#45;&gt;Node4 -->
<g id="edge41" class="edge"><title>Node41&#45;&gt;Node4</title>
<path fill="none" stroke="midnightblue" d="M584.395,-287.65C596.731,-288.921 609.266,-290.212 621.436,-291.465"/>
<polygon fill="midnightblue" stroke="midnightblue" points="584.398,-284.132 574.092,-286.589 583.681,-291.095 584.398,-284.132"/>
</g>
</g>
</svg>
