<?xml version="1.0" encoding="UTF-8" standalone="no"?>
<!DOCTYPE svg PUBLIC "-//W3C//DTD SVG 1.1//EN"
 "http://www.w3.org/Graphics/SVG/1.1/DTD/svg11.dtd">
<!-- Generated by graphviz version 2.36.0 (20140111.2315)
 -->
<!-- Title: view.panes.ButtonPaneModule Pages: 1 -->
<svg width="1378pt" height="848pt"
 viewBox="0.00 0.00 1378.00 848.00" xmlns="http://www.w3.org/2000/svg" xmlns:xlink="http://www.w3.org/1999/xlink">
<g id="graph0" class="graph" transform="scale(1 1) rotate(0) translate(4 844)">
<title>view.panes.ButtonPaneModule</title>
<polygon fill="white" stroke="none" points="-4,4 -4,-844 1374,-844 1374,4 -4,4"/>
<!-- Node1 -->
<g id="node1" class="node"><title>Node1</title>
<polygon fill="#bfbfbf" stroke="black" points="1208.5,-689.5 1208.5,-708.5 1369.5,-708.5 1369.5,-689.5 1208.5,-689.5"/>
<text text-anchor="middle" x="1289" y="-696.5" font-family="Helvetica,sans-Serif" font-size="10.00">view.panes.ButtonPaneModule</text>
</g>
<!-- Node2 -->
<g id="node2" class="node"><title>Node2</title>
<g id="a_node2"><a xlink:href="../../df/dd6/classview_1_1panes_1_1_pane_module.html" target="_top" xlink:title="view.panes.PaneModule">
<polygon fill="white" stroke="black" points="627.5,-615.5 627.5,-634.5 756.5,-634.5 756.5,-615.5 627.5,-615.5"/>
<text text-anchor="middle" x="692" y="-622.5" font-family="Helvetica,sans-Serif" font-size="10.00">view.panes.PaneModule</text>
</a>
</g>
</g>
<!-- Node2&#45;&gt;Node1 -->
<g id="edge1" class="edge"><title>Node2&#45;&gt;Node1</title>
<path fill="none" stroke="midnightblue" d="M766.837,-625.87C841.205,-627.578 959.068,-632.565 1060,-647 1129.93,-657.002 1210.13,-677.43 1254.33,-689.491"/>
<polygon fill="midnightblue" stroke="midnightblue" points="766.712,-622.366 756.639,-625.649 766.561,-629.364 766.712,-622.366"/>
</g>
<!-- Node7 -->
<g id="node7" class="node"><title>Node7</title>
<g id="a_node7"><a xlink:href="../../db/db5/classview_1_1panes_1_1_view_pane_module.html" target="_top" xlink:title="view.panes.ViewPaneModule">
<polygon fill="white" stroke="black" points="908.5,-421.5 908.5,-440.5 1059.5,-440.5 1059.5,-421.5 908.5,-421.5"/>
<text text-anchor="middle" x="984" y="-428.5" font-family="Helvetica,sans-Serif" font-size="10.00">view.panes.ViewPaneModule</text>
</a>
</g>
</g>
<!-- Node2&#45;&gt;Node7 -->
<g id="edge7" class="edge"><title>Node2&#45;&gt;Node7</title>
<path fill="none" stroke="midnightblue" d="M766.791,-617.941C814.108,-612.213 870.243,-602.802 890,-589 917.92,-569.496 964.149,-472.191 978.566,-440.788"/>
<polygon fill="midnightblue" stroke="midnightblue" points="766.368,-614.467 756.844,-619.108 767.184,-621.419 766.368,-614.467"/>
</g>
<!-- Node3 -->
<g id="node3" class="node"><title>Node3</title>
<polygon fill="white" stroke="#bfbfbf" points="963.5,-580.5 963.5,-599.5 1004.5,-599.5 1004.5,-580.5 963.5,-580.5"/>
<text text-anchor="middle" x="984" y="-587.5" font-family="Helvetica,sans-Serif" font-size="10.00">VBox</text>
</g>
<!-- Node3&#45;&gt;Node1 -->
<g id="edge2" class="edge"><title>Node3&#45;&gt;Node1</title>
<path fill="none" stroke="#9a32cd" stroke-dasharray="5,2" d="M1014.66,-585.653C1055.95,-580.951 1132.17,-577.228 1190,-603 1233.07,-622.195 1268.14,-669.125 1281.82,-689.406"/>
<polygon fill="#9a32cd" stroke="#9a32cd" points="1014.21,-582.183 1004.71,-586.884 1015.07,-589.13 1014.21,-582.183"/>
<text text-anchor="middle" x="1134" y="-606" font-family="Helvetica,sans-Serif" font-size="10.00"> myVBox</text>
</g>
<!-- Node4 -->
<g id="node4" class="node"><title>Node4</title>
<g id="a_node4"><a xlink:href="../../d8/dd2/classview_1_1_command_string.html" target="_top" xlink:title="view.CommandString">
<polygon fill="white" stroke="black" points="925,-820.5 925,-839.5 1043,-839.5 1043,-820.5 925,-820.5"/>
<text text-anchor="middle" x="984" y="-827.5" font-family="Helvetica,sans-Serif" font-size="10.00">view.CommandString</text>
</a>
</g>
</g>
<!-- Node4&#45;&gt;Node1 -->
<g id="edge3" class="edge"><title>Node4&#45;&gt;Node1</title>
<path fill="none" stroke="#9a32cd" stroke-dasharray="5,2" d="M1053.28,-830.908C1094.83,-828.886 1147.84,-821.567 1190,-800 1233.07,-777.967 1268.14,-729.597 1281.82,-708.811"/>
<polygon fill="#9a32cd" stroke="#9a32cd" points="1053.1,-827.412 1043.25,-831.305 1053.38,-834.406 1053.1,-827.412"/>
<text text-anchor="middle" x="1134" y="-832" font-family="Helvetica,sans-Serif" font-size="10.00"> myCommandString</text>
</g>
<!-- Node5 -->
<g id="node5" class="node"><title>Node5</title>
<polygon fill="white" stroke="#bfbfbf" points="656.5,-820.5 656.5,-839.5 727.5,-839.5 727.5,-820.5 656.5,-820.5"/>
<text text-anchor="middle" x="692" y="-827.5" font-family="Helvetica,sans-Serif" font-size="10.00">Observable</text>
</g>
<!-- Node5&#45;&gt;Node4 -->
<g id="edge4" class="edge"><title>Node5&#45;&gt;Node4</title>
<path fill="none" stroke="midnightblue" d="M737.93,-830C788.231,-830 869.897,-830 924.988,-830"/>
<polygon fill="midnightblue" stroke="midnightblue" points="737.693,-826.5 727.693,-830 737.693,-833.5 737.693,-826.5"/>
</g>
<!-- Node6 -->
<g id="node6" class="node"><title>Node6</title>
<polygon fill="white" stroke="#bfbfbf" points="958.5,-782.5 958.5,-801.5 1009.5,-801.5 1009.5,-782.5 958.5,-782.5"/>
<text text-anchor="middle" x="984" y="-789.5" font-family="Helvetica,sans-Serif" font-size="10.00">ToolBar</text>
</g>
<!-- Node6&#45;&gt;Node1 -->
<g id="edge5" class="edge"><title>Node6&#45;&gt;Node1</title>
<path fill="none" stroke="#9a32cd" stroke-dasharray="5,2" d="M1019.94,-790.496C1061.6,-787.779 1132.78,-780.18 1190,-759 1223.49,-746.605 1258.06,-722.209 1275.82,-708.655"/>
<polygon fill="#9a32cd" stroke="#9a32cd" points="1019.54,-787.014 1009.76,-791.101 1019.95,-794.002 1019.54,-787.014"/>
<text text-anchor="middle" x="1134" y="-788" font-family="Helvetica,sans-Serif" font-size="10.00"> myToolBar</text>
</g>
<!-- Node7&#45;&gt;Node1 -->
<g id="edge6" class="edge"><title>Node7&#45;&gt;Node1</title>
<path fill="none" stroke="#9a32cd" stroke-dasharray="5,2" d="M1012.43,-445.347C1053.85,-467.849 1133.52,-514.443 1190,-568 1231.63,-607.477 1268.58,-666.218 1282.32,-689.242"/>
<polygon fill="#9a32cd" stroke="#9a32cd" points="1013.94,-442.186 1003.47,-440.536 1010.62,-448.352 1013.94,-442.186"/>
<text text-anchor="middle" x="1134" y="-571" font-family="Helvetica,sans-Serif" font-size="10.00"> myView</text>
</g>
<!-- Node8 -->
<g id="node8" class="node"><title>Node8</title>
<g id="a_node8"><a xlink:href="../../d3/d42/classmodel_1_1_model.html" target="_top" xlink:title="model.Model">
<polygon fill="white" stroke="black" points="1250,-186.5 1250,-205.5 1328,-205.5 1328,-186.5 1250,-186.5"/>
<text text-anchor="middle" x="1289" y="-193.5" font-family="Helvetica,sans-Serif" font-size="10.00">model.Model</text>
</a>
</g>
</g>
<!-- Node7&#45;&gt;Node8 -->
<g id="edge13" class="edge"><title>Node7&#45;&gt;Node8</title>
<path fill="none" stroke="#9a32cd" stroke-dasharray="5,2" d="M997.994,-413.125C1014.8,-390.787 1045.76,-352.193 1078,-325 1111.69,-296.583 1227.14,-230.369 1270.95,-205.589"/>
<polygon fill="#9a32cd" stroke="#9a32cd" points="995.032,-411.243 991.887,-421.36 1000.66,-415.412 995.032,-411.243"/>
<text text-anchor="middle" x="1134" y="-328" font-family="Helvetica,sans-Serif" font-size="10.00"> myView</text>
</g>
<!-- Node8&#45;&gt;Node7 -->
<g id="edge8" class="edge"><title>Node8&#45;&gt;Node7</title>
<path fill="none" stroke="#9a32cd" stroke-dasharray="5,2" d="M1279.31,-215.169C1264.75,-245.379 1232.78,-304.293 1190,-340 1139.18,-382.417 1065.45,-408.628 1021.66,-421.452"/>
<polygon fill="#9a32cd" stroke="#9a32cd" points="1282.64,-216.305 1283.72,-205.766 1276.3,-213.332 1282.64,-216.305"/>
<text text-anchor="middle" x="1134" y="-405" font-family="Helvetica,sans-Serif" font-size="10.00"> myModel</text>
</g>
<!-- Node9 -->
<g id="node9" class="node"><title>Node9</title>
<polygon fill="white" stroke="#bfbfbf" points="635,-147.5 635,-166.5 749,-166.5 749,-147.5 635,-147.5"/>
<text text-anchor="middle" x="692" y="-154.5" font-family="Helvetica,sans-Serif" font-size="10.00">Set&lt; model.Turtle &gt;</text>
</g>
<!-- Node9&#45;&gt;Node7 -->
<g id="edge18" class="edge"><title>Node9&#45;&gt;Node7</title>
<path fill="none" stroke="#9a32cd" stroke-dasharray="5,2" d="M759.114,-165.144C812.297,-172.232 879.798,-182.648 890,-191 965.723,-252.991 979.949,-384.558 982.479,-421.294"/>
<polygon fill="#9a32cd" stroke="#9a32cd" points="759.401,-161.652 749.029,-163.817 758.487,-168.592 759.401,-161.652"/>
<text text-anchor="middle" x="841" y="-205" font-family="Helvetica,sans-Serif" font-size="10.00"> myTurtles</text>
<text text-anchor="middle" x="841" y="-194" font-family="Helvetica,sans-Serif" font-size="10.00">myActiveTurtles</text>
</g>
<!-- Node9&#45;&gt;Node8 -->
<g id="edge9" class="edge"><title>Node9&#45;&gt;Node8</title>
<path fill="none" stroke="#9a32cd" stroke-dasharray="5,2" d="M759.443,-161.355C884.432,-169.548 1150.86,-187.011 1249.89,-193.502"/>
<polygon fill="#9a32cd" stroke="#9a32cd" points="759.452,-157.848 749.244,-160.687 758.994,-164.833 759.452,-157.848"/>
<text text-anchor="middle" x="984" y="-185" font-family="Helvetica,sans-Serif" font-size="10.00"> myFullSet</text>
</g>
<!-- Node13 -->
<g id="node13" class="node"><title>Node13</title>
<g id="a_node13"><a xlink:href="../../df/d50/classmodel_1_1_turtle_set_manager.html" target="_top" xlink:title="model.TurtleSetManager">
<polygon fill="white" stroke="black" points="917,-101.5 917,-120.5 1051,-120.5 1051,-101.5 917,-101.5"/>
<text text-anchor="middle" x="984" y="-108.5" font-family="Helvetica,sans-Serif" font-size="10.00">model.TurtleSetManager</text>
</a>
</g>
</g>
<!-- Node9&#45;&gt;Node13 -->
<g id="edge15" class="edge"><title>Node9&#45;&gt;Node13</title>
<path fill="none" stroke="#9a32cd" stroke-dasharray="5,2" d="M736.009,-144.765C753.294,-140.21 773.479,-135.34 792,-132 833.202,-124.569 879.909,-119.377 916.823,-116.015"/>
<polygon fill="#9a32cd" stroke="#9a32cd" points="734.953,-141.425 726.202,-147.397 736.768,-148.185 734.953,-141.425"/>
<text text-anchor="middle" x="841" y="-135" font-family="Helvetica,sans-Serif" font-size="10.00"> mySet</text>
</g>
<!-- Node10 -->
<g id="node10" class="node"><title>Node10</title>
<g id="a_node10"><a xlink:href="../../d3/d62/classmodel_1_1_variable_manager.html" target="_top" xlink:title="model.VariableManager">
<polygon fill="white" stroke="black" points="919,-49.5 919,-68.5 1049,-68.5 1049,-49.5 919,-49.5"/>
<text text-anchor="middle" x="984" y="-56.5" font-family="Helvetica,sans-Serif" font-size="10.00">model.VariableManager</text>
</a>
</g>
</g>
<!-- Node10&#45;&gt;Node8 -->
<g id="edge10" class="edge"><title>Node10&#45;&gt;Node8</title>
<path fill="none" stroke="#9a32cd" stroke-dasharray="5,2" d="M1059.33,-62.0001C1099.9,-66.2176 1149.89,-75.7674 1190,-97 1232.11,-119.291 1267.44,-165.9 1281.49,-186.2"/>
<polygon fill="#9a32cd" stroke="#9a32cd" points="1059.51,-58.502 1049.22,-61.0388 1058.85,-65.4705 1059.51,-58.502"/>
<text text-anchor="middle" x="1134" y="-100" font-family="Helvetica,sans-Serif" font-size="10.00"> myVariableManager</text>
</g>
<!-- Node11 -->
<g id="node11" class="node"><title>Node11</title>
<polygon fill="white" stroke="#bfbfbf" points="633,-0 633,-30 751,-30 751,-0 633,-0"/>
<text text-anchor="start" x="641" y="-18" font-family="Helvetica,sans-Serif" font-size="10.00">Stack&lt; Map&lt; String,</text>
<text text-anchor="middle" x="692" y="-7" font-family="Helvetica,sans-Serif" font-size="10.00"> Double &gt; &gt;</text>
</g>
<!-- Node11&#45;&gt;Node10 -->
<g id="edge11" class="edge"><title>Node11&#45;&gt;Node10</title>
<path fill="none" stroke="#9a32cd" stroke-dasharray="5,2" d="M761.137,-24.7949C799.091,-30.31 847.189,-37.3968 890,-44 901.153,-45.7202 913.05,-47.6028 924.479,-49.4353"/>
<polygon fill="#9a32cd" stroke="#9a32cd" points="761.616,-21.3277 751.217,-23.3555 760.61,-28.2552 761.616,-21.3277"/>
<text text-anchor="middle" x="841" y="-47" font-family="Helvetica,sans-Serif" font-size="10.00"> myLocalVariables</text>
</g>
<!-- Node12 -->
<g id="node12" class="node"><title>Node12</title>
<polygon fill="white" stroke="#bfbfbf" points="628,-49.5 628,-68.5 756,-68.5 756,-49.5 628,-49.5"/>
<text text-anchor="middle" x="692" y="-56.5" font-family="Helvetica,sans-Serif" font-size="10.00">Map&lt; String, Double &gt;</text>
</g>
<!-- Node12&#45;&gt;Node10 -->
<g id="edge12" class="edge"><title>Node12&#45;&gt;Node10</title>
<path fill="none" stroke="#9a32cd" stroke-dasharray="5,2" d="M766.4,-59C813.392,-59 873.78,-59 918.85,-59"/>
<polygon fill="#9a32cd" stroke="#9a32cd" points="766.283,-55.5001 756.283,-59 766.283,-62.5001 766.283,-55.5001"/>
<text text-anchor="middle" x="841" y="-62" font-family="Helvetica,sans-Serif" font-size="10.00"> myGlobalVariables</text>
</g>
<!-- Node13&#45;&gt;Node8 -->
<g id="edge14" class="edge"><title>Node13&#45;&gt;Node8</title>
<path fill="none" stroke="#9a32cd" stroke-dasharray="5,2" d="M1061.44,-110.287C1100.82,-112.031 1149.05,-117.5 1190,-132 1225.05,-144.412 1260.07,-171.783 1277.19,-186.383"/>
<polygon fill="#9a32cd" stroke="#9a32cd" points="1061.49,-106.787 1051.36,-109.913 1061.23,-113.782 1061.49,-106.787"/>
<text text-anchor="middle" x="1134" y="-135" font-family="Helvetica,sans-Serif" font-size="10.00"> myTurtleManager</text>
</g>
<!-- Node14 -->
<g id="node14" class="node"><title>Node14</title>
<polygon fill="white" stroke="#bfbfbf" points="610,-87.5 610,-106.5 774,-106.5 774,-87.5 610,-87.5"/>
<text text-anchor="middle" x="692" y="-94.5" font-family="Helvetica,sans-Serif" font-size="10.00">Stack&lt; Set&lt; model.Turtle &gt; &gt;</text>
</g>
<!-- Node14&#45;&gt;Node13 -->
<g id="edge16" class="edge"><title>Node14&#45;&gt;Node13</title>
<path fill="none" stroke="#9a32cd" stroke-dasharray="5,2" d="M784.265,-94.9238C817.579,-94.8353 855.53,-95.5145 890,-98 900.895,-98.7856 912.457,-100.05 923.591,-101.49"/>
<polygon fill="#9a32cd" stroke="#9a32cd" points="784.067,-91.4246 774.084,-94.9747 784.102,-98.4245 784.067,-91.4246"/>
<text text-anchor="middle" x="841" y="-101" font-family="Helvetica,sans-Serif" font-size="10.00"> myStack</text>
</g>
<!-- Node15 -->
<g id="node15" class="node"><title>Node15</title>
<polygon fill="white" stroke="#bfbfbf" points="393.5,-250.5 393.5,-269.5 434.5,-269.5 434.5,-250.5 393.5,-250.5"/>
<text text-anchor="middle" x="414" y="-257.5" font-family="Helvetica,sans-Serif" font-size="10.00">Color</text>
</g>
<!-- Node15&#45;&gt;Node7 -->
<g id="edge34" class="edge"><title>Node15&#45;&gt;Node7</title>
<path fill="none" stroke="#9a32cd" stroke-dasharray="5,2" d="M444.988,-258.255C523.939,-255.064 741.661,-255.442 890,-344 926.449,-365.76 960.537,-403.817 975.303,-421.486"/>
<polygon fill="#9a32cd" stroke="#9a32cd" points="444.62,-254.768 434.79,-258.72 444.939,-261.761 444.62,-254.768"/>
<text text-anchor="middle" x="692" y="-308" font-family="Helvetica,sans-Serif" font-size="10.00"> defColor</text>
<text text-anchor="middle" x="692" y="-297" font-family="Helvetica,sans-Serif" font-size="10.00">myBackColor</text>
</g>
<!-- Node15&#45;&gt;Node8 -->
<g id="edge17" class="edge"><title>Node15&#45;&gt;Node8</title>
<path fill="none" stroke="#9a32cd" stroke-dasharray="5,2" d="M445.026,-257.799C576.69,-248.146 1102.97,-209.565 1249.79,-198.801"/>
<polygon fill="#9a32cd" stroke="#9a32cd" points="444.591,-254.321 434.874,-258.543 445.103,-261.302 444.591,-254.321"/>
<text text-anchor="middle" x="841" y="-235" font-family="Helvetica,sans-Serif" font-size="10.00"> myBackground</text>
</g>
<!-- Node26 -->
<g id="node26" class="node"><title>Node26</title>
<g id="a_node26"><a xlink:href="../../d7/da6/classview_1_1_turtle_draw.html" target="_top" xlink:title="view.TurtleDraw">
<polygon fill="white" stroke="black" points="647.5,-336.5 647.5,-355.5 736.5,-355.5 736.5,-336.5 647.5,-336.5"/>
<text text-anchor="middle" x="692" y="-343.5" font-family="Helvetica,sans-Serif" font-size="10.00">view.TurtleDraw</text>
</a>
</g>
</g>
<!-- Node15&#45;&gt;Node26 -->
<g id="edge33" class="edge"><title>Node15&#45;&gt;Node26</title>
<path fill="none" stroke="#9a32cd" stroke-dasharray="5,2" d="M444.597,-269.222C497.294,-285.642 606.857,-319.782 660.321,-336.441"/>
<polygon fill="#9a32cd" stroke="#9a32cd" points="445.438,-265.818 434.849,-266.185 443.355,-272.501 445.438,-265.818"/>
<text text-anchor="middle" x="551" y="-317" font-family="Helvetica,sans-Serif" font-size="10.00"> myLineColor</text>
</g>
<!-- Node16 -->
<g id="node16" class="node"><title>Node16</title>
<polygon fill="white" stroke="#bfbfbf" points="672,-573.5 672,-592.5 712,-592.5 712,-573.5 672,-573.5"/>
<text text-anchor="middle" x="692" y="-580.5" font-family="Helvetica,sans-Serif" font-size="10.00">Pane</text>
</g>
<!-- Node16&#45;&gt;Node7 -->
<g id="edge19" class="edge"><title>Node16&#45;&gt;Node7</title>
<path fill="none" stroke="#9a32cd" stroke-dasharray="5,2" d="M722.258,-581.226C770.017,-577.89 862.198,-569.488 890,-553 936.731,-525.286 968.04,-464.27 978.832,-440.626"/>
<polygon fill="#9a32cd" stroke="#9a32cd" points="721.975,-577.737 712.231,-581.897 722.442,-584.721 721.975,-577.737"/>
<text text-anchor="middle" x="841" y="-578" font-family="Helvetica,sans-Serif" font-size="10.00"> myPane</text>
</g>
<!-- Node17 -->
<g id="node17" class="node"><title>Node17</title>
<polygon fill="white" stroke="#bfbfbf" points="638.5,-535.5 638.5,-554.5 745.5,-554.5 745.5,-535.5 638.5,-535.5"/>
<text text-anchor="middle" x="692" y="-542.5" font-family="Helvetica,sans-Serif" font-size="10.00">List&lt; ImageView &gt;</text>
</g>
<!-- Node17&#45;&gt;Node7 -->
<g id="edge20" class="edge"><title>Node17&#45;&gt;Node7</title>
<path fill="none" stroke="#9a32cd" stroke-dasharray="5,2" d="M756.055,-542.698C796.049,-539.203 847.983,-530.814 890,-511 926.6,-493.74 960.1,-458.033 974.941,-440.769"/>
<polygon fill="#9a32cd" stroke="#9a32cd" points="755.588,-539.224 745.896,-543.504 756.142,-546.202 755.588,-539.224"/>
<text text-anchor="middle" x="841" y="-541" font-family="Helvetica,sans-Serif" font-size="10.00"> myStamps</text>
</g>
<!-- Node18 -->
<g id="node18" class="node"><title>Node18</title>
<polygon fill="white" stroke="#bfbfbf" points="654.5,-497.5 654.5,-516.5 729.5,-516.5 729.5,-497.5 654.5,-497.5"/>
<text text-anchor="middle" x="692" y="-504.5" font-family="Helvetica,sans-Serif" font-size="10.00">List&lt; Line &gt;</text>
</g>
<!-- Node18&#45;&gt;Node7 -->
<g id="edge21" class="edge"><title>Node18&#45;&gt;Node7</title>
<path fill="none" stroke="#9a32cd" stroke-dasharray="5,2" d="M739.724,-502.727C780.161,-498.194 839.859,-489.485 890,-474 917.704,-465.444 947.832,-450.351 966.065,-440.514"/>
<polygon fill="#9a32cd" stroke="#9a32cd" points="739.188,-499.264 729.621,-503.817 739.939,-506.224 739.188,-499.264"/>
<text text-anchor="middle" x="841" y="-499" font-family="Helvetica,sans-Serif" font-size="10.00"> myGrid</text>
</g>
<!-- Node19 -->
<g id="node19" class="node"><title>Node19</title>
<polygon fill="white" stroke="#bfbfbf" points="665,-459.5 665,-478.5 719,-478.5 719,-459.5 665,-459.5"/>
<text text-anchor="middle" x="692" y="-466.5" font-family="Helvetica,sans-Serif" font-size="10.00">Point2D</text>
</g>
<!-- Node19&#45;&gt;Node7 -->
<g id="edge22" class="edge"><title>Node19&#45;&gt;Node7</title>
<path fill="none" stroke="#9a32cd" stroke-dasharray="5,2" d="M729.141,-465.259C768.697,-461.053 833.958,-453.787 890,-446 901.825,-444.357 914.469,-442.431 926.502,-440.518"/>
<polygon fill="#9a32cd" stroke="#9a32cd" points="728.754,-461.781 719.177,-466.312 729.489,-468.742 728.754,-461.781"/>
<text text-anchor="middle" x="841" y="-462" font-family="Helvetica,sans-Serif" font-size="10.00"> myCurrentPoint</text>
</g>
<!-- Node20 -->
<g id="node20" class="node"><title>Node20</title>
<polygon fill="white" stroke="#bfbfbf" points="616.5,-421.5 616.5,-440.5 767.5,-440.5 767.5,-421.5 616.5,-421.5"/>
<text text-anchor="middle" x="692" y="-428.5" font-family="Helvetica,sans-Serif" font-size="10.00">Map&lt; Integer, ImageView &gt;</text>
</g>
<!-- Node20&#45;&gt;Node7 -->
<g id="edge23" class="edge"><title>Node20&#45;&gt;Node7</title>
<path fill="none" stroke="#9a32cd" stroke-dasharray="5,2" d="M777.739,-431C819.091,-431 868.397,-431 908.319,-431"/>
<polygon fill="#9a32cd" stroke="#9a32cd" points="777.682,-427.5 767.682,-431 777.682,-434.5 777.682,-427.5"/>
<text text-anchor="middle" x="841" y="-434" font-family="Helvetica,sans-Serif" font-size="10.00"> myIcons</text>
</g>
<!-- Node21 -->
<g id="node21" class="node"><title>Node21</title>
<g id="a_node21"><a xlink:href="../../d3/db7/classview_1_1controllers_1_1_image_palette.html" target="_top" xlink:title="view.controllers.ImagePalette">
<polygon fill="white" stroke="black" points="336.5,-400.5 336.5,-419.5 491.5,-419.5 491.5,-400.5 336.5,-400.5"/>
<text text-anchor="middle" x="414" y="-407.5" font-family="Helvetica,sans-Serif" font-size="10.00">view.controllers.ImagePalette</text>
</a>
</g>
</g>
<!-- Node21&#45;&gt;Node7 -->
<g id="edge24" class="edge"><title>Node21&#45;&gt;Node7</title>
<path fill="none" stroke="#9a32cd" stroke-dasharray="5,2" d="M501.643,-412.324C530.513,-411.962 562.76,-410.323 592,-406 600.214,-404.786 601.773,-402.121 610,-401 682.221,-391.156 701.296,-395.809 774,-401 827.931,-404.851 889.098,-414.223 931.258,-421.476"/>
<polygon fill="#9a32cd" stroke="#9a32cd" points="501.555,-408.825 491.582,-412.402 501.609,-415.825 501.555,-408.825"/>
<text text-anchor="middle" x="692" y="-404" font-family="Helvetica,sans-Serif" font-size="10.00"> myImagePalette</text>
</g>
<!-- Node21&#45;&gt;Node26 -->
<g id="edge31" class="edge"><title>Node21&#45;&gt;Node26</title>
<path fill="none" stroke="#9a32cd" stroke-dasharray="5,2" d="M474.667,-398.458C509.081,-391.568 553.108,-382.359 592,-373 613.997,-367.706 638.534,-361.02 657.677,-355.626"/>
<polygon fill="#9a32cd" stroke="#9a32cd" points="473.894,-395.043 464.77,-400.428 475.261,-401.908 473.894,-395.043"/>
<text text-anchor="middle" x="551" y="-394" font-family="Helvetica,sans-Serif" font-size="10.00"> myImagePalette</text>
</g>
<!-- Node22 -->
<g id="node22" class="node"><title>Node22</title>
<polygon fill="white" stroke="#bfbfbf" points="30,-457.5 30,-476.5 148,-476.5 148,-457.5 30,-457.5"/>
<text text-anchor="middle" x="89" y="-464.5" font-family="Helvetica,sans-Serif" font-size="10.00">ChoiceBox&lt; String &gt;</text>
</g>
<!-- Node22&#45;&gt;Node21 -->
<g id="edge25" class="edge"><title>Node22&#45;&gt;Node21</title>
<path fill="none" stroke="#9a32cd" stroke-dasharray="5,2" d="M158.115,-461.215C203.68,-456.641 264.809,-449.147 318,-438 340.887,-433.204 366.268,-425.601 385.034,-419.528"/>
<polygon fill="#9a32cd" stroke="#9a32cd" points="157.664,-457.742 148.054,-462.202 158.348,-464.708 157.664,-457.742"/>
<text text-anchor="middle" x="257" y="-460" font-family="Helvetica,sans-Serif" font-size="10.00"> myChoiceImages</text>
</g>
<!-- Node23 -->
<g id="node23" class="node"><title>Node23</title>
<polygon fill="white" stroke="#bfbfbf" points="47,-419.5 47,-438.5 131,-438.5 131,-419.5 47,-419.5"/>
<text text-anchor="middle" x="89" y="-426.5" font-family="Helvetica,sans-Serif" font-size="10.00">List&lt; String &gt;</text>
</g>
<!-- Node23&#45;&gt;Node21 -->
<g id="edge26" class="edge"><title>Node23&#45;&gt;Node21</title>
<path fill="none" stroke="#9a32cd" stroke-dasharray="5,2" d="M141.325,-425.981C193.823,-422.893 276.003,-418.059 336.24,-414.515"/>
<polygon fill="#9a32cd" stroke="#9a32cd" points="141.013,-422.493 131.236,-426.574 141.425,-429.481 141.013,-422.493"/>
<text text-anchor="middle" x="257" y="-426" font-family="Helvetica,sans-Serif" font-size="10.00"> myChoices</text>
</g>
<!-- Node24 -->
<g id="node24" class="node"><title>Node24</title>
<polygon fill="white" stroke="#bfbfbf" points="25,-381.5 25,-400.5 153,-400.5 153,-381.5 25,-381.5"/>
<text text-anchor="middle" x="89" y="-388.5" font-family="Helvetica,sans-Serif" font-size="10.00">Map&lt; Integer, String &gt;</text>
</g>
<!-- Node24&#45;&gt;Node21 -->
<g id="edge27" class="edge"><title>Node24&#45;&gt;Node21</title>
<path fill="none" stroke="#9a32cd" stroke-dasharray="5,2" d="M163.628,-393.284C208.314,-394.905 266.478,-397.432 318,-401 323.95,-401.412 330.105,-401.886 336.29,-402.397"/>
<polygon fill="#9a32cd" stroke="#9a32cd" points="163.559,-389.779 153.44,-392.921 163.31,-396.775 163.559,-389.779"/>
<text text-anchor="middle" x="257" y="-404" font-family="Helvetica,sans-Serif" font-size="10.00"> myImages</text>
</g>
<!-- Node25 -->
<g id="node25" class="node"><title>Node25</title>
<polygon fill="white" stroke="#bfbfbf" points="20,-343.5 20,-362.5 158,-362.5 158,-343.5 20,-343.5"/>
<text text-anchor="middle" x="89" y="-350.5" font-family="Helvetica,sans-Serif" font-size="10.00">ObservableList&lt; String &gt;</text>
</g>
<!-- Node25&#45;&gt;Node21 -->
<g id="edge28" class="edge"><title>Node25&#45;&gt;Node21</title>
<path fill="none" stroke="#9a32cd" stroke-dasharray="5,2" d="M168.262,-358.606C212.541,-362.69 268.742,-369.404 318,-380 341.842,-385.128 368.24,-393.708 387.145,-400.382"/>
<polygon fill="#9a32cd" stroke="#9a32cd" points="168.413,-355.106 158.141,-357.7 167.788,-362.078 168.413,-355.106"/>
<text text-anchor="middle" x="257" y="-383" font-family="Helvetica,sans-Serif" font-size="10.00"> myObservable</text>
</g>
<!-- Node26&#45;&gt;Node7 -->
<g id="edge29" class="edge"><title>Node26&#45;&gt;Node7</title>
<path fill="none" stroke="#9a32cd" stroke-dasharray="5,2" d="M746.872,-344.677C787.411,-345.344 843.709,-349.868 890,-367 923.637,-379.449 956.707,-406.804 972.832,-421.393"/>
<polygon fill="#9a32cd" stroke="#9a32cd" points="746.692,-341.175 736.66,-344.584 746.628,-348.175 746.692,-341.175"/>
<text text-anchor="middle" x="841" y="-370" font-family="Helvetica,sans-Serif" font-size="10.00"> myDraw</text>
</g>
<!-- Node27 -->
<g id="node27" class="node"><title>Node27</title>
<polygon fill="white" stroke="#bfbfbf" points="396,-353.5 396,-372.5 432,-372.5 432,-353.5 396,-353.5"/>
<text text-anchor="middle" x="414" y="-360.5" font-family="Helvetica,sans-Serif" font-size="10.00">Line</text>
</g>
<!-- Node27&#45;&gt;Node26 -->
<g id="edge30" class="edge"><title>Node27&#45;&gt;Node26</title>
<path fill="none" stroke="#9a32cd" stroke-dasharray="5,2" d="M442.5,-361.306C490.489,-358.35 589.883,-352.228 647.362,-348.688"/>
<polygon fill="#9a32cd" stroke="#9a32cd" points="442.031,-357.828 432.265,-361.937 442.461,-364.815 442.031,-357.828"/>
<text text-anchor="middle" x="551" y="-361" font-family="Helvetica,sans-Serif" font-size="10.00"> myPath</text>
</g>
<!-- Node28 -->
<g id="node28" class="node"><title>Node28</title>
<polygon fill="white" stroke="#bfbfbf" points="398,-315.5 398,-334.5 430,-334.5 430,-315.5 398,-315.5"/>
<text text-anchor="middle" x="414" y="-322.5" font-family="Helvetica,sans-Serif" font-size="10.00">File</text>
</g>
<!-- Node28&#45;&gt;Node26 -->
<g id="edge32" class="edge"><title>Node28&#45;&gt;Node26</title>
<path fill="none" stroke="#9a32cd" stroke-dasharray="5,2" d="M440.237,-326.795C474.578,-329.251 537.945,-333.831 592,-338 610.052,-339.392 629.95,-340.988 647.144,-342.387"/>
<polygon fill="#9a32cd" stroke="#9a32cd" points="440.38,-323.297 430.156,-326.076 439.881,-330.279 440.38,-323.297"/>
<text text-anchor="middle" x="551" y="-341" font-family="Helvetica,sans-Serif" font-size="10.00"> myImage</text>
</g>
<!-- Node29 -->
<g id="node29" class="node"><title>Node29</title>
<g id="a_node29"><a xlink:href="../../df/d94/classview_1_1controllers_1_1_language_controller.html" target="_top" xlink:title="view.controllers.Language\lController">
<polygon fill="white" stroke="black" points="914,-657 914,-687 1054,-687 1054,-657 914,-657"/>
<text text-anchor="start" x="922" y="-675" font-family="Helvetica,sans-Serif" font-size="10.00">view.controllers.Language</text>
<text text-anchor="middle" x="984" y="-664" font-family="Helvetica,sans-Serif" font-size="10.00">Controller</text>
</a>
</g>
</g>
<!-- Node29&#45;&gt;Node1 -->
<g id="edge35" class="edge"><title>Node29&#45;&gt;Node1</title>
<path fill="none" stroke="#9a32cd" stroke-dasharray="5,2" d="M1064.27,-678.886C1102.3,-682.208 1148.52,-686.274 1190,-690 1195.96,-690.535 1202.12,-691.092 1208.31,-691.655"/>
<polygon fill="#9a32cd" stroke="#9a32cd" points="1064.54,-675.396 1054.28,-678.013 1063.93,-682.37 1064.54,-675.396"/>
<text text-anchor="middle" x="1134" y="-693" font-family="Helvetica,sans-Serif" font-size="10.00"> myLanguageController</text>
</g>
<!-- Node30 -->
<g id="node30" class="node"><title>Node30</title>
<g id="a_node30"><a xlink:href="../../d8/dce/classcontroller_1_1_master_controller.html" target="_top" xlink:title="controller.MasterController">
<polygon fill="white" stroke="black" points="620.5,-662.5 620.5,-681.5 763.5,-681.5 763.5,-662.5 620.5,-662.5"/>
<text text-anchor="middle" x="692" y="-669.5" font-family="Helvetica,sans-Serif" font-size="10.00">controller.MasterController</text>
</a>
</g>
</g>
<!-- Node30&#45;&gt;Node29 -->
<g id="edge36" class="edge"><title>Node30&#45;&gt;Node29</title>
<path fill="none" stroke="#9a32cd" stroke-dasharray="5,2" d="M773.659,-672C817.641,-672 871.531,-672 913.618,-672"/>
<polygon fill="#9a32cd" stroke="#9a32cd" points="773.571,-668.5 763.571,-672 773.571,-675.5 773.571,-668.5"/>
<text text-anchor="middle" x="841" y="-675" font-family="Helvetica,sans-Serif" font-size="10.00"> myMasterController</text>
</g>
<!-- Node31 -->
<g id="node31" class="node"><title>Node31</title>
<g id="a_node31"><a xlink:href="../../d6/d95/classparser_1_1_parser.html" target="_top" xlink:title="parser.Parser">
<polygon fill="white" stroke="black" points="374,-642.5 374,-661.5 454,-661.5 454,-642.5 374,-642.5"/>
<text text-anchor="middle" x="414" y="-649.5" font-family="Helvetica,sans-Serif" font-size="10.00">parser.Parser</text>
</a>
</g>
</g>
<!-- Node31&#45;&gt;Node30 -->
<g id="edge37" class="edge"><title>Node31&#45;&gt;Node30</title>
<path fill="none" stroke="#9a32cd" stroke-dasharray="5,2" d="M464.134,-655.16C499.662,-657.487 548.809,-660.791 592,-664 601.2,-664.684 610.878,-665.431 620.433,-666.185"/>
<polygon fill="#9a32cd" stroke="#9a32cd" points="464.236,-651.659 454.03,-654.501 463.78,-658.644 464.236,-651.659"/>
<text text-anchor="middle" x="551" y="-667" font-family="Helvetica,sans-Serif" font-size="10.00"> myParser</text>
</g>
<!-- Node32 -->
<g id="node32" class="node"><title>Node32</title>
<polygon fill="white" stroke="#bfbfbf" points="28,-642.5 28,-661.5 150,-661.5 150,-642.5 28,-642.5"/>
<text text-anchor="middle" x="89" y="-649.5" font-family="Helvetica,sans-Serif" font-size="10.00">Map&lt; String, String &gt;</text>
</g>
<!-- Node32&#45;&gt;Node31 -->
<g id="edge38" class="edge"><title>Node32&#45;&gt;Node31</title>
<path fill="none" stroke="#9a32cd" stroke-dasharray="5,2" d="M160.609,-652C226.018,-652 320.924,-652 373.756,-652"/>
<polygon fill="#9a32cd" stroke="#9a32cd" points="160.375,-648.5 150.375,-652 160.375,-655.5 160.375,-648.5"/>
<text text-anchor="middle" x="257" y="-666" font-family="Helvetica,sans-Serif" font-size="10.00"> myRegularExpressions</text>
<text text-anchor="middle" x="257" y="-655" font-family="Helvetica,sans-Serif" font-size="10.00">myCommandMap</text>
</g>
<!-- Node33 -->
<g id="node33" class="node"><title>Node33</title>
<polygon fill="white" stroke="#bfbfbf" points="0.5,-593 0.5,-623 177.5,-623 177.5,-593 0.5,-593"/>
<text text-anchor="start" x="8.5" y="-611" font-family="Helvetica,sans-Serif" font-size="10.00">Map&lt; String, commands.Custom</text>
<text text-anchor="middle" x="89" y="-600" font-family="Helvetica,sans-Serif" font-size="10.00">Command &gt;</text>
</g>
<!-- Node33&#45;&gt;Node31 -->
<g id="edge39" class="edge"><title>Node33&#45;&gt;Node31</title>
<path fill="none" stroke="#9a32cd" stroke-dasharray="5,2" d="M187.623,-619.762C228.013,-624.798 275.301,-630.915 318,-637 336.349,-639.615 356.646,-642.782 373.752,-645.531"/>
<polygon fill="#9a32cd" stroke="#9a32cd" points="187.865,-616.265 177.51,-618.505 187.002,-623.212 187.865,-616.265"/>
<text text-anchor="middle" x="257" y="-640" font-family="Helvetica,sans-Serif" font-size="10.00"> myUserInputCommands</text>
</g>
<!-- Node34 -->
<g id="node34" class="node"><title>Node34</title>
<polygon fill="white" stroke="#bfbfbf" points="41.5,-687.5 41.5,-706.5 136.5,-706.5 136.5,-687.5 41.5,-687.5"/>
<text text-anchor="middle" x="89" y="-694.5" font-family="Helvetica,sans-Serif" font-size="10.00">Stack&lt; String &gt;</text>
</g>
<!-- Node34&#45;&gt;Node31 -->
<g id="edge40" class="edge"><title>Node34&#45;&gt;Node31</title>
<path fill="none" stroke="#9a32cd" stroke-dasharray="5,2" d="M146.679,-693.765C192.989,-690.587 260.033,-684.763 318,-675 323.773,-674.028 350.928,-667.42 374.735,-661.535"/>
<polygon fill="#9a32cd" stroke="#9a32cd" points="146.285,-690.283 136.54,-694.441 146.751,-697.268 146.285,-690.283"/>
<text text-anchor="middle" x="257" y="-693" font-family="Helvetica,sans-Serif" font-size="10.00"> myCommandStack</text>
</g>
<!-- Node35 -->
<g id="node35" class="node"><title>Node35</title>
<polygon fill="white" stroke="#bfbfbf" points="386,-680.5 386,-699.5 442,-699.5 442,-680.5 386,-680.5"/>
<text text-anchor="middle" x="414" y="-687.5" font-family="Helvetica,sans-Serif" font-size="10.00">Random</text>
</g>
<!-- Node35&#45;&gt;Node30 -->
<g id="edge41" class="edge"><title>Node35&#45;&gt;Node30</title>
<path fill="none" stroke="#9a32cd" stroke-dasharray="5,2" d="M452.224,-687.572C495.133,-684.774 566.622,-680.112 620.215,-676.616"/>
<polygon fill="#9a32cd" stroke="#9a32cd" points="451.97,-684.081 442.219,-688.225 452.426,-691.067 451.97,-684.081"/>
<text text-anchor="middle" x="551" y="-687" font-family="Helvetica,sans-Serif" font-size="10.00"> myRandom</text>
</g>
<!-- Node36 -->
<g id="node36" class="node"><title>Node36</title>
<polygon fill="white" stroke="#bfbfbf" points="949,-744.5 949,-763.5 1019,-763.5 1019,-744.5 949,-744.5"/>
<text text-anchor="middle" x="984" y="-751.5" font-family="Helvetica,sans-Serif" font-size="10.00">ColorPicker</text>
</g>
<!-- Node36&#45;&gt;Node1 -->
<g id="edge42" class="edge"><title>Node36&#45;&gt;Node1</title>
<path fill="none" stroke="#9a32cd" stroke-dasharray="5,2" d="M1029.44,-749.657C1071.16,-745.173 1135.18,-737.244 1190,-726 1212.82,-721.32 1238.16,-714.287 1257.36,-708.573"/>
<polygon fill="#9a32cd" stroke="#9a32cd" points="1028.91,-746.193 1019.33,-750.722 1029.64,-753.154 1028.91,-746.193"/>
<text text-anchor="middle" x="1134" y="-747" font-family="Helvetica,sans-Serif" font-size="10.00"> myColorPicker</text>
</g>
<!-- Node37 -->
<g id="node37" class="node"><title>Node37</title>
<polygon fill="white" stroke="#bfbfbf" points="963,-706.5 963,-725.5 1005,-725.5 1005,-706.5 963,-706.5"/>
<text text-anchor="middle" x="984" y="-713.5" font-family="Helvetica,sans-Serif" font-size="10.00">HBox</text>
</g>
<!-- Node37&#45;&gt;Node1 -->
<g id="edge43" class="edge"><title>Node37&#45;&gt;Node1</title>
<path fill="none" stroke="#9a32cd" stroke-dasharray="5,2" d="M1015.56,-714.285C1060.29,-711.776 1145.11,-707.017 1208.27,-703.473"/>
<polygon fill="#9a32cd" stroke="#9a32cd" points="1015.14,-710.803 1005.35,-714.858 1015.53,-717.792 1015.14,-710.803"/>
<text text-anchor="middle" x="1134" y="-714" font-family="Helvetica,sans-Serif" font-size="10.00"> myHbox</text>
</g>
</g>
</svg>
