<?xml version="1.0" encoding="UTF-8" standalone="no"?>
<!DOCTYPE svg PUBLIC "-//W3C//DTD SVG 1.1//EN"
 "http://www.w3.org/Graphics/SVG/1.1/DTD/svg11.dtd">
<!-- Generated by graphviz version 2.36.0 (20140111.2315)
 -->
<!-- Title: model.VariableManager Pages: 1 -->
<svg width="286pt" height="108pt"
 viewBox="0.00 0.00 286.00 108.00" xmlns="http://www.w3.org/2000/svg" xmlns:xlink="http://www.w3.org/1999/xlink">
<g id="graph0" class="graph" transform="scale(1 1) rotate(0) translate(4 104)">
<title>model.VariableManager</title>
<polygon fill="white" stroke="none" points="-4,4 -4,-104 282,-104 282,4 -4,4"/>
<!-- Node1 -->
<g id="node1" class="node"><title>Node1</title>
<polygon fill="#bfbfbf" stroke="black" points="64,-0.5 64,-19.5 194,-19.5 194,-0.5 64,-0.5"/>
<text text-anchor="middle" x="129" y="-7.5" font-family="Helvetica,sans-Serif" font-size="10.00">model.VariableManager</text>
</g>
<!-- Node2 -->
<g id="node2" class="node"><title>Node2</title>
<polygon fill="white" stroke="#bfbfbf" points="0,-69 0,-99 118,-99 118,-69 0,-69"/>
<text text-anchor="start" x="8" y="-87" font-family="Helvetica,sans-Serif" font-size="10.00">Stack&lt; Map&lt; String,</text>
<text text-anchor="middle" x="59" y="-76" font-family="Helvetica,sans-Serif" font-size="10.00"> Double &gt; &gt;</text>
</g>
<!-- Node2&#45;&gt;Node1 -->
<g id="edge1" class="edge"><title>Node2&#45;&gt;Node1</title>
<path fill="none" stroke="#9a32cd" stroke-dasharray="5,2" d="M72.9688,-60.267C78.1408,-52.7514 84.3726,-44.6248 91,-38 97.9829,-31.0198 106.94,-24.5606 114.405,-19.7111"/>
<polygon fill="#9a32cd" stroke="#9a32cd" points="70.0033,-58.4063 67.4238,-68.6824 75.8485,-62.2578 70.0033,-58.4063"/>
<text text-anchor="middle" x="134.5" y="-41.5" font-family="Helvetica,sans-Serif" font-size="10.00"> myLocalVariables</text>
</g>
<!-- Node3 -->
<g id="node3" class="node"><title>Node3</title>
<polygon fill="white" stroke="#bfbfbf" points="136,-74.5 136,-93.5 264,-93.5 264,-74.5 136,-74.5"/>
<text text-anchor="middle" x="200" y="-81.5" font-family="Helvetica,sans-Serif" font-size="10.00">Map&lt; String, Double &gt;</text>
</g>
<!-- Node3&#45;&gt;Node1 -->
<g id="edge2" class="edge"><title>Node3&#45;&gt;Node1</title>
<path fill="none" stroke="#9a32cd" stroke-dasharray="5,2" d="M194.13,-64.9581C190.546,-56.0468 185.241,-45.6044 178,-38 170.498,-30.122 160.182,-23.9693 150.949,-19.5401"/>
<polygon fill="#9a32cd" stroke="#9a32cd" points="190.871,-66.2378 197.56,-74.4541 197.455,-63.8598 190.871,-66.2378"/>
<text text-anchor="middle" x="232" y="-41.5" font-family="Helvetica,sans-Serif" font-size="10.00"> myGlobalVariables</text>
</g>
</g>
</svg>
