<?xml version="1.0" encoding="UTF-8" standalone="no"?>
<!DOCTYPE svg PUBLIC "-//W3C//DTD SVG 1.1//EN"
 "http://www.w3.org/Graphics/SVG/1.1/DTD/svg11.dtd">
<!-- Generated by graphviz version 2.36.0 (20140111.2315)
 -->
<!-- Title: commands.RightCommand.updateTurtle Pages: 1 -->
<svg width="1490pt" height="513pt"
 viewBox="0.00 0.00 1490.00 513.00" xmlns="http://www.w3.org/2000/svg" xmlns:xlink="http://www.w3.org/1999/xlink">
<g id="graph0" class="graph" transform="scale(1 1) rotate(0) translate(4 509)">
<title>commands.RightCommand.updateTurtle</title>
<polygon fill="white" stroke="none" points="-4,4 -4,-509 1486,-509 1486,4 -4,4"/>
<!-- Node1 -->
<g id="node1" class="node"><title>Node1</title>
<polygon fill="#bfbfbf" stroke="black" points="0.5,-365 0.5,-395 185.5,-395 185.5,-365 0.5,-365"/>
<text text-anchor="start" x="8.5" y="-383" font-family="Helvetica,sans-Serif" font-size="10.00">commands.RightCommand.update</text>
<text text-anchor="middle" x="93" y="-372" font-family="Helvetica,sans-Serif" font-size="10.00">Turtle</text>
</g>
<!-- Node2 -->
<g id="node2" class="node"><title>Node2</title>
<g id="a_node2"><a xlink:href="../../dd/dd6/classcommands_1_1_command.html#abafa69601e87c34d4453cf84349d6f9c" target="_top" xlink:title="commands.Command.execute\lCommand">
<polygon fill="white" stroke="black" points="222.5,-387 222.5,-417 387.5,-417 387.5,-387 222.5,-387"/>
<text text-anchor="start" x="230.5" y="-405" font-family="Helvetica,sans-Serif" font-size="10.00">commands.Command.execute</text>
<text text-anchor="middle" x="305" y="-394" font-family="Helvetica,sans-Serif" font-size="10.00">Command</text>
</a>
</g>
</g>
<!-- Node1&#45;&gt;Node2 -->
<g id="edge1" class="edge"><title>Node1&#45;&gt;Node2</title>
<path fill="none" stroke="midnightblue" d="M185.804,-389.618C194.529,-390.532 203.379,-391.459 212.106,-392.373"/>
<polygon fill="midnightblue" stroke="midnightblue" points="211.969,-395.878 222.279,-393.439 212.698,-388.916 211.969,-395.878"/>
</g>
<!-- Node35 -->
<g id="node35" class="node"><title>Node35</title>
<g id="a_node35"><a xlink:href="../../d6/d34/classmodel_1_1_turtle.html#a130789c0a15bfa6bcb60b73adbc43895" target="_top" xlink:title="model.Turtle.updateHeading">
<polygon fill="white" stroke="black" points="229,-348.5 229,-367.5 381,-367.5 381,-348.5 229,-348.5"/>
<text text-anchor="middle" x="305" y="-355.5" font-family="Helvetica,sans-Serif" font-size="10.00">model.Turtle.updateHeading</text>
</a>
</g>
</g>
<!-- Node1&#45;&gt;Node35 -->
<g id="edge41" class="edge"><title>Node1&#45;&gt;Node35</title>
<path fill="none" stroke="midnightblue" d="M185.804,-370.382C196.676,-369.243 207.741,-368.084 218.521,-366.955"/>
<polygon fill="midnightblue" stroke="midnightblue" points="219.173,-370.406 228.754,-365.883 218.444,-363.444 219.173,-370.406"/>
</g>
<!-- Node3 -->
<g id="node3" class="node"><title>Node3</title>
<g id="a_node3"><a xlink:href="../../df/d50/classmodel_1_1_turtle_set_manager.html#a9a65c0be3b9c21abaf0ebaa54e5b8484" target="_top" xlink:title="model.TurtleSetManager.get\lActiveTurtles">
<polygon fill="white" stroke="black" points="910,-450 910,-480 1062,-480 1062,-450 910,-450"/>
<text text-anchor="start" x="918" y="-468" font-family="Helvetica,sans-Serif" font-size="10.00">model.TurtleSetManager.get</text>
<text text-anchor="middle" x="986" y="-457" font-family="Helvetica,sans-Serif" font-size="10.00">ActiveTurtles</text>
</a>
</g>
</g>
<!-- Node2&#45;&gt;Node3 -->
<g id="edge2" class="edge"><title>Node2&#45;&gt;Node3</title>
<path fill="none" stroke="midnightblue" d="M387.766,-416.049C399.892,-417.876 412.256,-419.596 424,-421 592.146,-441.097 789.789,-454.151 899.894,-460.486"/>
<polygon fill="midnightblue" stroke="midnightblue" points="899.763,-463.984 909.946,-461.06 900.162,-456.996 899.763,-463.984"/>
</g>
<!-- Node4 -->
<g id="node4" class="node"><title>Node4</title>
<g id="a_node4"><a xlink:href="../../d3/d42/classmodel_1_1_model.html#a1a683ba5e58fcb3c8882c8e61df20dc0" target="_top" xlink:title="model.Model.getTurtleManager">
<polygon fill="white" stroke="black" points="904,-411.5 904,-430.5 1068,-430.5 1068,-411.5 904,-411.5"/>
<text text-anchor="middle" x="986" y="-418.5" font-family="Helvetica,sans-Serif" font-size="10.00">model.Model.getTurtleManager</text>
</a>
</g>
</g>
<!-- Node2&#45;&gt;Node4 -->
<g id="edge3" class="edge"><title>Node2&#45;&gt;Node4</title>
<path fill="none" stroke="midnightblue" d="M387.566,-404.282C514.974,-407.848 760.389,-414.715 893.592,-418.442"/>
<polygon fill="midnightblue" stroke="midnightblue" points="893.676,-421.946 903.771,-418.727 893.872,-414.949 893.676,-421.946"/>
</g>
<!-- Node5 -->
<g id="node5" class="node"><title>Node5</title>
<g id="a_node5"><a xlink:href="../../d3/d42/classmodel_1_1_model.html#a76160d002c1e68b566307ac44356f6e5" target="_top" xlink:title="model.Model.notifyView">
<polygon fill="white" stroke="black" points="452.5,-373.5 452.5,-392.5 581.5,-392.5 581.5,-373.5 452.5,-373.5"/>
<text text-anchor="middle" x="517" y="-380.5" font-family="Helvetica,sans-Serif" font-size="10.00">model.Model.notifyView</text>
</a>
</g>
</g>
<!-- Node2&#45;&gt;Node5 -->
<g id="edge4" class="edge"><title>Node2&#45;&gt;Node5</title>
<path fill="none" stroke="midnightblue" d="M387.793,-394.6C405.699,-392.98 424.553,-391.274 442.128,-389.684"/>
<polygon fill="midnightblue" stroke="midnightblue" points="442.668,-393.149 452.312,-388.762 442.037,-386.178 442.668,-393.149"/>
</g>
<!-- Node34 -->
<g id="node34" class="node"><title>Node34</title>
<g id="a_node34"><a xlink:href="../../dd/dd6/classcommands_1_1_command.html#aec3e0f888945b1811fd739ecea212324" target="_top" xlink:title="commands.Command.updateTurtle">
<polygon fill="white" stroke="black" points="424,-335.5 424,-354.5 610,-354.5 610,-335.5 424,-335.5"/>
<text text-anchor="middle" x="517" y="-342.5" font-family="Helvetica,sans-Serif" font-size="10.00">commands.Command.updateTurtle</text>
</a>
</g>
</g>
<!-- Node2&#45;&gt;Node34 -->
<g id="edge40" class="edge"><title>Node2&#45;&gt;Node34</title>
<path fill="none" stroke="midnightblue" d="M356.868,-386.929C367.201,-383.745 377.974,-380.336 388,-377 404.141,-371.629 407.628,-368.621 424,-364 433.418,-361.342 443.474,-358.886 453.354,-356.684"/>
<polygon fill="midnightblue" stroke="midnightblue" points="454.108,-360.101 463.143,-354.568 452.629,-353.259 454.108,-360.101"/>
</g>
<!-- Node6 -->
<g id="node6" class="node"><title>Node6</title>
<g id="a_node6"><a xlink:href="../../db/db5/classview_1_1panes_1_1_view_pane_module.html#aa2a1bf15bc036ee4237bf63749d85baf" target="_top" xlink:title="view.panes.ViewPaneModule.updateView">
<polygon fill="white" stroke="black" points="646.5,-244.5 646.5,-263.5 855.5,-263.5 855.5,-244.5 646.5,-244.5"/>
<text text-anchor="middle" x="751" y="-251.5" font-family="Helvetica,sans-Serif" font-size="10.00">view.panes.ViewPaneModule.updateView</text>
</a>
</g>
</g>
<!-- Node5&#45;&gt;Node6 -->
<g id="edge5" class="edge"><title>Node5&#45;&gt;Node6</title>
<path fill="none" stroke="midnightblue" d="M581.601,-373.891C591.356,-371.356 601.125,-368.122 610,-364 660.593,-340.501 709.429,-295.468 733.843,-270.94"/>
<polygon fill="midnightblue" stroke="midnightblue" points="736.387,-273.344 740.882,-263.75 731.385,-268.447 736.387,-273.344"/>
</g>
<!-- Node6&#45;&gt;Node3 -->
<g id="edge10" class="edge"><title>Node6&#45;&gt;Node3</title>
<path fill="none" stroke="midnightblue" d="M756.485,-263.902C771.117,-295.048 820.663,-391.812 892,-440 894.929,-441.978 898.008,-443.801 901.193,-445.479"/>
<polygon fill="midnightblue" stroke="midnightblue" points="899.875,-448.727 910.412,-449.838 902.867,-442.399 899.875,-448.727"/>
</g>
<!-- Node6&#45;&gt;Node4 -->
<g id="edge9" class="edge"><title>Node6&#45;&gt;Node4</title>
<path fill="none" stroke="midnightblue" d="M758.175,-263.786C775.598,-290.518 828.052,-365.162 892,-401 896.862,-403.725 902.059,-406.079 907.417,-408.113"/>
<polygon fill="midnightblue" stroke="midnightblue" points="906.605,-411.533 917.2,-411.438 908.858,-404.906 906.605,-411.533"/>
</g>
<!-- Node7 -->
<g id="node7" class="node"><title>Node7</title>
<g id="a_node7"><a xlink:href="../../d3/d42/classmodel_1_1_model.html#a54936407d7df5ab8ef3c0ae54bcdc0ed" target="_top" xlink:title="model.Model.getBackground\lColor">
<polygon fill="white" stroke="black" points="909,-264 909,-294 1063,-294 1063,-264 909,-264"/>
<text text-anchor="start" x="917" y="-282" font-family="Helvetica,sans-Serif" font-size="10.00">model.Model.getBackground</text>
<text text-anchor="middle" x="986" y="-271" font-family="Helvetica,sans-Serif" font-size="10.00">Color</text>
</a>
</g>
</g>
<!-- Node6&#45;&gt;Node7 -->
<g id="edge6" class="edge"><title>Node6&#45;&gt;Node7</title>
<path fill="none" stroke="midnightblue" d="M840.752,-263.523C859.72,-265.558 879.73,-267.705 898.608,-269.73"/>
<polygon fill="midnightblue" stroke="midnightblue" points="898.348,-273.223 908.664,-270.809 899.095,-266.263 898.348,-273.223"/>
</g>
<!-- Node8 -->
<g id="node8" class="node"><title>Node8</title>
<g id="a_node8"><a xlink:href="../../db/db5/classview_1_1panes_1_1_view_pane_module.html#ac94ee444587349ddad19b8caee500c9c" target="_top" xlink:title="view.panes.ViewPaneModule.update\lBGColor">
<polygon fill="white" stroke="black" points="892,-215 892,-245 1080,-245 1080,-215 892,-215"/>
<text text-anchor="start" x="900" y="-233" font-family="Helvetica,sans-Serif" font-size="10.00">view.panes.ViewPaneModule.update</text>
<text text-anchor="middle" x="986" y="-222" font-family="Helvetica,sans-Serif" font-size="10.00">BGColor</text>
</a>
</g>
</g>
<!-- Node6&#45;&gt;Node8 -->
<g id="edge7" class="edge"><title>Node6&#45;&gt;Node8</title>
<path fill="none" stroke="midnightblue" d="M844.422,-244.48C856.754,-243.21 869.461,-241.901 881.96,-240.614"/>
<polygon fill="midnightblue" stroke="midnightblue" points="882.338,-244.093 891.927,-239.587 881.621,-237.13 882.338,-244.093"/>
</g>
<!-- Node9 -->
<g id="node9" class="node"><title>Node9</title>
<g id="a_node9"><a xlink:href="../../db/db5/classview_1_1panes_1_1_view_pane_module.html#abe91f8bb732e99d762bdaba51ceae04b" target="_top" xlink:title="view.panes.ViewPaneModule.toRGB">
<polygon fill="white" stroke="black" points="894,-176.5 894,-195.5 1078,-195.5 1078,-176.5 894,-176.5"/>
<text text-anchor="middle" x="986" y="-183.5" font-family="Helvetica,sans-Serif" font-size="10.00">view.panes.ViewPaneModule.toRGB</text>
</a>
</g>
</g>
<!-- Node6&#45;&gt;Node9 -->
<g id="edge8" class="edge"><title>Node6&#45;&gt;Node9</title>
<path fill="none" stroke="midnightblue" d="M775.966,-244.496C803.597,-233.802 850.543,-216.433 892,-205 901.651,-202.338 911.959,-199.87 922.068,-197.653"/>
<polygon fill="midnightblue" stroke="midnightblue" points="923.027,-201.027 932.079,-195.522 921.57,-194.181 923.027,-201.027"/>
</g>
<!-- Node10 -->
<g id="node10" class="node"><title>Node10</title>
<g id="a_node10"><a xlink:href="../../df/d50/classmodel_1_1_turtle_set_manager.html#a9e215e93eccbed2ab9ebec6119cfe305" target="_top" xlink:title="model.TurtleSetManager.get\lAllTurtles">
<polygon fill="white" stroke="black" points="910,-127 910,-157 1062,-157 1062,-127 910,-127"/>
<text text-anchor="start" x="918" y="-145" font-family="Helvetica,sans-Serif" font-size="10.00">model.TurtleSetManager.get</text>
<text text-anchor="middle" x="986" y="-134" font-family="Helvetica,sans-Serif" font-size="10.00">AllTurtles</text>
</a>
</g>
</g>
<!-- Node6&#45;&gt;Node10 -->
<g id="edge11" class="edge"><title>Node6&#45;&gt;Node10</title>
<path fill="none" stroke="midnightblue" d="M764.796,-244.229C788.605,-226.475 841.858,-188.753 892,-167 897.637,-164.555 903.572,-162.296 909.603,-160.221"/>
<polygon fill="midnightblue" stroke="midnightblue" points="910.71,-163.542 919.131,-157.112 908.539,-156.887 910.71,-163.542"/>
</g>
<!-- Node11 -->
<g id="node11" class="node"><title>Node11</title>
<g id="a_node11"><a xlink:href="../../d3/d42/classmodel_1_1_model.html#af73e838aed2c068e8f7d31bfa1cc88d7" target="_top" xlink:title="model.Model.getStamp">
<polygon fill="white" stroke="black" points="921.5,-88.5 921.5,-107.5 1050.5,-107.5 1050.5,-88.5 921.5,-88.5"/>
<text text-anchor="middle" x="986" y="-95.5" font-family="Helvetica,sans-Serif" font-size="10.00">model.Model.getStamp</text>
</a>
</g>
</g>
<!-- Node6&#45;&gt;Node11 -->
<g id="edge12" class="edge"><title>Node6&#45;&gt;Node11</title>
<path fill="none" stroke="midnightblue" d="M758.59,-244.492C776.663,-219.21 829.824,-150.008 892,-117 898.063,-113.781 904.616,-111.107 911.338,-108.885"/>
<polygon fill="midnightblue" stroke="midnightblue" points="912.676,-112.139 921.27,-105.943 910.688,-105.427 912.676,-112.139"/>
</g>
<!-- Node12 -->
<g id="node12" class="node"><title>Node12</title>
<g id="a_node12"><a xlink:href="../../db/db5/classview_1_1panes_1_1_view_pane_module.html#a44db6ae832af3ce470baa9406142b8cb" target="_top" xlink:title="view.panes.ViewPaneModule.make\lStamps">
<polygon fill="white" stroke="black" points="895.5,-39 895.5,-69 1076.5,-69 1076.5,-39 895.5,-39"/>
<text text-anchor="start" x="903.5" y="-57" font-family="Helvetica,sans-Serif" font-size="10.00">view.panes.ViewPaneModule.make</text>
<text text-anchor="middle" x="986" y="-46" font-family="Helvetica,sans-Serif" font-size="10.00">Stamps</text>
</a>
</g>
</g>
<!-- Node6&#45;&gt;Node12 -->
<g id="edge13" class="edge"><title>Node6&#45;&gt;Node12</title>
<path fill="none" stroke="midnightblue" d="M756.868,-244.27C772.262,-214.536 822.974,-124.158 892,-79 895.122,-76.9577 898.406,-75.0815 901.8,-73.358"/>
<polygon fill="midnightblue" stroke="midnightblue" points="903.372,-76.488 911.007,-69.143 900.458,-70.1233 903.372,-76.488"/>
</g>
<!-- Node19 -->
<g id="node19" class="node"><title>Node19</title>
<g id="a_node19"><a xlink:href="../../d3/d42/classmodel_1_1_model.html#a0a457f31350a460e11dc864463e0d8ff" target="_top" xlink:title="model.Model.setStamp">
<polygon fill="white" stroke="black" points="922,-0.5 922,-19.5 1050,-19.5 1050,-0.5 922,-0.5"/>
<text text-anchor="middle" x="986" y="-7.5" font-family="Helvetica,sans-Serif" font-size="10.00">model.Model.setStamp</text>
</a>
</g>
</g>
<!-- Node6&#45;&gt;Node19 -->
<g id="edge20" class="edge"><title>Node6&#45;&gt;Node19</title>
<path fill="none" stroke="midnightblue" d="M754.896,-244.385C766.036,-209.166 809.671,-86.28 892,-29 898.045,-24.7942 904.814,-21.4778 911.869,-18.8684"/>
<polygon fill="midnightblue" stroke="midnightblue" points="913.177,-22.1242 921.626,-15.7312 911.034,-15.4602 913.177,-22.1242"/>
</g>
<!-- Node20 -->
<g id="node20" class="node"><title>Node20</title>
<g id="a_node20"><a xlink:href="../../db/db5/classview_1_1panes_1_1_view_pane_module.html#a7ad9ad27137ffdf0ea96753a22da236b" target="_top" xlink:title="view.panes.ViewPaneModule.erase\lStamps">
<polygon fill="white" stroke="black" points="895.5,-362 895.5,-392 1076.5,-392 1076.5,-362 895.5,-362"/>
<text text-anchor="start" x="903.5" y="-380" font-family="Helvetica,sans-Serif" font-size="10.00">view.panes.ViewPaneModule.erase</text>
<text text-anchor="middle" x="986" y="-369" font-family="Helvetica,sans-Serif" font-size="10.00">Stamps</text>
</a>
</g>
</g>
<!-- Node6&#45;&gt;Node20 -->
<g id="edge21" class="edge"><title>Node6&#45;&gt;Node20</title>
<path fill="none" stroke="midnightblue" d="M762.783,-263.574C785.234,-283.026 839.306,-327.407 892,-352 897.241,-354.446 902.764,-356.688 908.397,-358.735"/>
<polygon fill="midnightblue" stroke="midnightblue" points="907.355,-362.078 917.949,-362 909.619,-355.454 907.355,-362.078"/>
</g>
<!-- Node22 -->
<g id="node22" class="node"><title>Node22</title>
<g id="a_node22"><a xlink:href="../../db/db5/classview_1_1panes_1_1_view_pane_module.html#ab55ce3511929b88a2cd1235eb694868f" target="_top" xlink:title="view.panes.ViewPaneModule.update\lTurtle">
<polygon fill="white" stroke="black" points="892,-313 892,-343 1080,-343 1080,-313 892,-313"/>
<text text-anchor="start" x="900" y="-331" font-family="Helvetica,sans-Serif" font-size="10.00">view.panes.ViewPaneModule.update</text>
<text text-anchor="middle" x="986" y="-320" font-family="Helvetica,sans-Serif" font-size="10.00">Turtle</text>
</a>
</g>
</g>
<!-- Node6&#45;&gt;Node22 -->
<g id="edge23" class="edge"><title>Node6&#45;&gt;Node22</title>
<path fill="none" stroke="midnightblue" d="M777.359,-263.512C805.261,-273.829 851.527,-290.496 892,-303 899.922,-305.447 908.265,-307.885 916.568,-310.224"/>
<polygon fill="midnightblue" stroke="midnightblue" points="915.698,-313.615 926.27,-312.92 917.572,-306.871 915.698,-313.615"/>
</g>
<!-- Node13 -->
<g id="node13" class="node"><title>Node13</title>
<g id="a_node13"><a xlink:href="../../d7/da6/classview_1_1_turtle_draw.html#a939f4fdbdb66457c9dcee82eb4ae6d9c" target="_top" xlink:title="view.TurtleDraw.drawTurtle">
<polygon fill="white" stroke="black" points="1124.5,-67.5 1124.5,-86.5 1263.5,-86.5 1263.5,-67.5 1124.5,-67.5"/>
<text text-anchor="middle" x="1194" y="-74.5" font-family="Helvetica,sans-Serif" font-size="10.00">view.TurtleDraw.drawTurtle</text>
</a>
</g>
</g>
<!-- Node12&#45;&gt;Node13 -->
<g id="edge14" class="edge"><title>Node12&#45;&gt;Node13</title>
<path fill="none" stroke="midnightblue" d="M1076.76,-64.0212C1089.21,-65.4115 1101.92,-66.831 1114.15,-68.1968"/>
<polygon fill="midnightblue" stroke="midnightblue" points="1113.97,-71.6983 1124.3,-69.3296 1114.75,-64.7415 1113.97,-71.6983"/>
</g>
<!-- Node16 -->
<g id="node16" class="node"><title>Node16</title>
<g id="a_node16"><a xlink:href="../../d7/da6/classview_1_1_turtle_draw.html#a14678068d3fc9d3b6e1067bc372f6030" target="_top" xlink:title="view.TurtleDraw.showTurtle">
<polygon fill="white" stroke="black" points="1124,-29.5 1124,-48.5 1264,-48.5 1264,-29.5 1124,-29.5"/>
<text text-anchor="middle" x="1194" y="-36.5" font-family="Helvetica,sans-Serif" font-size="10.00">view.TurtleDraw.showTurtle</text>
</a>
</g>
</g>
<!-- Node12&#45;&gt;Node16 -->
<g id="edge17" class="edge"><title>Node12&#45;&gt;Node16</title>
<path fill="none" stroke="midnightblue" d="M1076.76,-47.4644C1089.12,-46.5639 1101.75,-45.6445 1113.9,-44.7594"/>
<polygon fill="midnightblue" stroke="midnightblue" points="1114.27,-48.2422 1123.99,-44.0251 1113.76,-41.2607 1114.27,-48.2422"/>
</g>
<!-- Node17 -->
<g id="node17" class="node"><title>Node17</title>
<g id="a_node17"><a xlink:href="../../d7/da6/classview_1_1_turtle_draw.html#a8c2cab38eb294b26aea1ae17595ba2a6" target="_top" xlink:title="view.TurtleDraw.moveTurtle">
<polygon fill="white" stroke="black" points="1122.5,-143.5 1122.5,-162.5 1265.5,-162.5 1265.5,-143.5 1122.5,-143.5"/>
<text text-anchor="middle" x="1194" y="-150.5" font-family="Helvetica,sans-Serif" font-size="10.00">view.TurtleDraw.moveTurtle</text>
</a>
</g>
</g>
<!-- Node12&#45;&gt;Node17 -->
<g id="edge18" class="edge"><title>Node12&#45;&gt;Node17</title>
<path fill="none" stroke="midnightblue" d="M1062.8,-69.1906C1068.89,-71.9348 1074.72,-75.1748 1080,-79 1103.66,-96.1392 1092.16,-117.106 1116,-134 1118.84,-136.012 1121.87,-137.811 1125.02,-139.421"/>
<polygon fill="midnightblue" stroke="midnightblue" points="1123.62,-142.629 1134.18,-143.474 1126.45,-136.227 1123.62,-142.629"/>
</g>
<!-- Node18 -->
<g id="node18" class="node"><title>Node18</title>
<g id="a_node18"><a xlink:href="../../d7/da6/classview_1_1_turtle_draw.html#a5004a16526a67f090d7da45474b5136e" target="_top" xlink:title="view.TurtleDraw.setAngle">
<polygon fill="white" stroke="black" points="1127.5,-105.5 1127.5,-124.5 1260.5,-124.5 1260.5,-105.5 1127.5,-105.5"/>
<text text-anchor="middle" x="1194" y="-112.5" font-family="Helvetica,sans-Serif" font-size="10.00">view.TurtleDraw.setAngle</text>
</a>
</g>
</g>
<!-- Node12&#45;&gt;Node18 -->
<g id="edge19" class="edge"><title>Node12&#45;&gt;Node18</title>
<path fill="none" stroke="midnightblue" d="M1049.02,-69.0126C1059.46,-72.0119 1070.11,-75.3695 1080,-79 1096.61,-85.0988 1099.33,-90.0733 1116,-96 1123.04,-98.5012 1130.55,-100.795 1138.02,-102.858"/>
<polygon fill="midnightblue" stroke="midnightblue" points="1137.2,-106.264 1147.77,-105.434 1138.99,-99.4958 1137.2,-106.264"/>
</g>
<!-- Node14 -->
<g id="node14" class="node"><title>Node14</title>
<g id="a_node14"><a xlink:href="../../d6/d34/classmodel_1_1_turtle.html#a942dbeb1d7e2bc19b6870538c2c3a7d2" target="_top" xlink:title="model.Turtle.getShape">
<polygon fill="white" stroke="black" points="1332.5,-89.5 1332.5,-108.5 1457.5,-108.5 1457.5,-89.5 1332.5,-89.5"/>
<text text-anchor="middle" x="1395" y="-96.5" font-family="Helvetica,sans-Serif" font-size="10.00">model.Turtle.getShape</text>
</a>
</g>
</g>
<!-- Node13&#45;&gt;Node14 -->
<g id="edge15" class="edge"><title>Node13&#45;&gt;Node14</title>
<path fill="none" stroke="midnightblue" d="M1263.76,-84.602C1282.62,-86.6865 1303.11,-88.9515 1322.13,-91.0547"/>
<polygon fill="midnightblue" stroke="midnightblue" points="1321.91,-94.5509 1332.23,-92.1711 1322.67,-87.5933 1321.91,-94.5509"/>
</g>
<!-- Node15 -->
<g id="node15" class="node"><title>Node15</title>
<g id="a_node15"><a xlink:href="../../d3/db7/classview_1_1controllers_1_1_image_palette.html#a8a6620714bc12d5a00b97e99299a7040" target="_top" xlink:title="view.controllers.ImagePalette.get\lImage">
<polygon fill="white" stroke="black" points="1308,-40 1308,-70 1482,-70 1482,-40 1308,-40"/>
<text text-anchor="start" x="1316" y="-58" font-family="Helvetica,sans-Serif" font-size="10.00">view.controllers.ImagePalette.get</text>
<text text-anchor="middle" x="1395" y="-47" font-family="Helvetica,sans-Serif" font-size="10.00">Image</text>
</a>
</g>
</g>
<!-- Node13&#45;&gt;Node15 -->
<g id="edge16" class="edge"><title>Node13&#45;&gt;Node15</title>
<path fill="none" stroke="midnightblue" d="M1263.76,-69.398C1274.71,-68.1877 1286.21,-66.9165 1297.65,-65.6514"/>
<polygon fill="midnightblue" stroke="midnightblue" points="1298.13,-69.1206 1307.68,-64.5429 1297.36,-62.163 1298.13,-69.1206"/>
</g>
<!-- Node21 -->
<g id="node21" class="node"><title>Node21</title>
<g id="a_node21"><a xlink:href="../../d7/da6/classview_1_1_turtle_draw.html#acb97dedda080cb5ed17031d2b31adc2c" target="_top" xlink:title="view.TurtleDraw.hideTurtle">
<polygon fill="white" stroke="black" points="1125.5,-485.5 1125.5,-504.5 1262.5,-504.5 1262.5,-485.5 1125.5,-485.5"/>
<text text-anchor="middle" x="1194" y="-492.5" font-family="Helvetica,sans-Serif" font-size="10.00">view.TurtleDraw.hideTurtle</text>
</a>
</g>
</g>
<!-- Node20&#45;&gt;Node21 -->
<g id="edge22" class="edge"><title>Node20&#45;&gt;Node21</title>
<path fill="none" stroke="midnightblue" d="M1064.72,-392.164C1070.18,-394.918 1075.36,-398.167 1080,-402 1108.2,-425.29 1087.56,-453.003 1116,-476 1118.26,-477.826 1120.67,-479.48 1123.19,-480.979"/>
<polygon fill="midnightblue" stroke="midnightblue" points="1121.62,-484.107 1132.12,-485.495 1124.77,-477.86 1121.62,-484.107"/>
</g>
<!-- Node22&#45;&gt;Node13 -->
<g id="edge25" class="edge"><title>Node22&#45;&gt;Node13</title>
<path fill="none" stroke="midnightblue" d="M1068.14,-312.879C1072.49,-310.093 1076.5,-306.827 1080,-303 1142.98,-234.053 1052.31,-164.292 1116,-96 1117.23,-94.6847 1118.53,-93.4541 1119.9,-92.303"/>
<polygon fill="midnightblue" stroke="midnightblue" points="1122.06,-95.0665 1128.35,-86.544 1118.11,-89.2813 1122.06,-95.0665"/>
</g>
<!-- Node22&#45;&gt;Node16 -->
<g id="edge26" class="edge"><title>Node22&#45;&gt;Node16</title>
<path fill="none" stroke="midnightblue" d="M1068.26,-312.985C1072.58,-310.173 1076.56,-306.872 1080,-303 1153.15,-220.771 1042,-139.468 1116,-58 1117.07,-56.8215 1118.2,-55.7107 1119.38,-54.6639"/>
<polygon fill="midnightblue" stroke="midnightblue" points="1121.74,-57.2816 1127.88,-48.6446 1117.7,-51.5698 1121.74,-57.2816"/>
</g>
<!-- Node22&#45;&gt;Node17 -->
<g id="edge39" class="edge"><title>Node22&#45;&gt;Node17</title>
<path fill="none" stroke="midnightblue" d="M1066.86,-312.995C1071.64,-310.193 1076.09,-306.89 1080,-303 1122.81,-260.424 1072.75,-214.131 1116,-172 1117.48,-170.559 1119.05,-169.221 1120.7,-167.98"/>
<polygon fill="midnightblue" stroke="midnightblue" points="1122.82,-170.784 1129.48,-162.546 1119.13,-164.832 1122.82,-170.784"/>
</g>
<!-- Node22&#45;&gt;Node18 -->
<g id="edge37" class="edge"><title>Node22&#45;&gt;Node18</title>
<path fill="none" stroke="midnightblue" d="M1067.55,-312.99C1072.1,-310.183 1076.32,-306.881 1080,-303 1132.85,-247.284 1062.57,-189.166 1116,-134 1117.25,-132.708 1118.58,-131.498 1119.96,-130.366"/>
<polygon fill="midnightblue" stroke="midnightblue" points="1122.11,-133.14 1128.5,-124.692 1118.24,-127.309 1122.11,-133.14"/>
</g>
<!-- Node22&#45;&gt;Node21 -->
<g id="edge27" class="edge"><title>Node22&#45;&gt;Node21</title>
<path fill="none" stroke="midnightblue" d="M1066.78,-343.079C1071.58,-345.863 1076.06,-349.142 1080,-353 1120.72,-392.829 1074.87,-436.594 1116,-476 1117.49,-477.429 1119.07,-478.755 1120.73,-479.987"/>
<polygon fill="midnightblue" stroke="midnightblue" points="1119.19,-483.149 1129.55,-485.384 1122.84,-477.179 1119.19,-483.149"/>
</g>
<!-- Node23 -->
<g id="node23" class="node"><title>Node23</title>
<g id="a_node23"><a xlink:href="../../d6/d34/classmodel_1_1_turtle.html#ae79a1eae7eed55d121c3b85299ae14ba" target="_top" xlink:title="model.Turtle.getID">
<polygon fill="white" stroke="black" points="1142,-257.5 1142,-276.5 1246,-276.5 1246,-257.5 1142,-257.5"/>
<text text-anchor="middle" x="1194" y="-264.5" font-family="Helvetica,sans-Serif" font-size="10.00">model.Turtle.getID</text>
</a>
</g>
</g>
<!-- Node22&#45;&gt;Node23 -->
<g id="edge24" class="edge"><title>Node22&#45;&gt;Node23</title>
<path fill="none" stroke="midnightblue" d="M1049.02,-312.987C1059.46,-309.988 1070.11,-306.63 1080,-303 1096.61,-296.901 1099.33,-291.927 1116,-286 1123.04,-283.499 1130.55,-281.205 1138.02,-279.142"/>
<polygon fill="midnightblue" stroke="midnightblue" points="1138.99,-282.504 1147.77,-276.566 1137.2,-275.736 1138.99,-282.504"/>
</g>
<!-- Node24 -->
<g id="node24" class="node"><title>Node24</title>
<g id="a_node24"><a xlink:href="../../d6/d34/classmodel_1_1_turtle.html#a279f2bdb3fa955acdd52b7824ec3cd04" target="_top" xlink:title="model.Turtle.getPenStatus">
<polygon fill="white" stroke="black" points="1122.5,-219.5 1122.5,-238.5 1265.5,-238.5 1265.5,-219.5 1122.5,-219.5"/>
<text text-anchor="middle" x="1194" y="-226.5" font-family="Helvetica,sans-Serif" font-size="10.00">model.Turtle.getPenStatus</text>
</a>
</g>
</g>
<!-- Node22&#45;&gt;Node24 -->
<g id="edge28" class="edge"><title>Node22&#45;&gt;Node24</title>
<path fill="none" stroke="midnightblue" d="M1062.8,-312.809C1068.89,-310.065 1074.72,-306.825 1080,-303 1103.66,-285.861 1092.16,-264.894 1116,-248 1118.84,-245.988 1121.87,-244.189 1125.02,-242.579"/>
<polygon fill="midnightblue" stroke="midnightblue" points="1126.45,-245.773 1134.18,-238.526 1123.62,-239.371 1126.45,-245.773"/>
</g>
<!-- Node26 -->
<g id="node26" class="node"><title>Node26</title>
<g id="a_node26"><a xlink:href="../../d7/da6/classview_1_1_turtle_draw.html#a1325ca376115619f15f5014eb4c5ad2a" target="_top" xlink:title="view.TurtleDraw.drawLine">
<polygon fill="white" stroke="black" points="1127.5,-181.5 1127.5,-200.5 1260.5,-200.5 1260.5,-181.5 1127.5,-181.5"/>
<text text-anchor="middle" x="1194" y="-188.5" font-family="Helvetica,sans-Serif" font-size="10.00">view.TurtleDraw.drawLine</text>
</a>
</g>
</g>
<!-- Node22&#45;&gt;Node26 -->
<g id="edge30" class="edge"><title>Node22&#45;&gt;Node26</title>
<path fill="none" stroke="midnightblue" d="M1065.98,-312.777C1071.03,-310.031 1075.77,-306.799 1080,-303 1112.97,-273.376 1082.73,-239.282 1116,-210 1117.76,-208.448 1119.63,-207.018 1121.59,-205.702"/>
<polygon fill="midnightblue" stroke="midnightblue" points="1123.63,-208.57 1130.64,-200.624 1120.2,-202.465 1123.63,-208.57"/>
</g>
<!-- Node27 -->
<g id="node27" class="node"><title>Node27</title>
<g id="a_node27"><a xlink:href="../../d6/d34/classmodel_1_1_turtle.html#a832234461564763f8330181b3c1163ff" target="_top" xlink:title="model.Turtle.getPrevLocation">
<polygon fill="white" stroke="black" points="1116.5,-447.5 1116.5,-466.5 1271.5,-466.5 1271.5,-447.5 1116.5,-447.5"/>
<text text-anchor="middle" x="1194" y="-454.5" font-family="Helvetica,sans-Serif" font-size="10.00">model.Turtle.getPrevLocation</text>
</a>
</g>
</g>
<!-- Node22&#45;&gt;Node27 -->
<g id="edge31" class="edge"><title>Node22&#45;&gt;Node27</title>
<path fill="none" stroke="midnightblue" d="M1065.39,-343.135C1070.64,-345.898 1075.59,-349.157 1080,-353 1110.94,-379.941 1084.78,-411.381 1116,-438 1117.97,-439.681 1120.07,-441.217 1122.26,-442.621"/>
<polygon fill="midnightblue" stroke="midnightblue" points="1120.68,-445.744 1131.14,-447.406 1124,-439.582 1120.68,-445.744"/>
</g>
<!-- Node28 -->
<g id="node28" class="node"><title>Node28</title>
<g id="a_node28"><a xlink:href="../../d6/d34/classmodel_1_1_turtle.html#a2470b9b4ef48a261324047de8ebdc242" target="_top" xlink:title="model.Turtle.getNewLocation">
<polygon fill="white" stroke="black" points="1116.5,-409.5 1116.5,-428.5 1271.5,-428.5 1271.5,-409.5 1116.5,-409.5"/>
<text text-anchor="middle" x="1194" y="-416.5" font-family="Helvetica,sans-Serif" font-size="10.00">model.Turtle.getNewLocation</text>
</a>
</g>
</g>
<!-- Node22&#45;&gt;Node28 -->
<g id="edge32" class="edge"><title>Node22&#45;&gt;Node28</title>
<path fill="none" stroke="midnightblue" d="M1061.08,-343.013C1067.74,-345.797 1074.16,-349.094 1080,-353 1101.87,-367.637 1093.98,-385.59 1116,-400 1119.12,-402.043 1122.44,-403.866 1125.89,-405.494"/>
<polygon fill="midnightblue" stroke="midnightblue" points="1124.67,-408.778 1135.25,-409.36 1127.35,-402.308 1124.67,-408.778"/>
</g>
<!-- Node29 -->
<g id="node29" class="node"><title>Node29</title>
<g id="a_node29"><a xlink:href="../../d6/d34/classmodel_1_1_turtle.html#a19c059b1cbfbd4e8f046ec2403de3fb9" target="_top" xlink:title="model.Turtle.getPenDash">
<polygon fill="white" stroke="black" points="1125.5,-371.5 1125.5,-390.5 1262.5,-390.5 1262.5,-371.5 1125.5,-371.5"/>
<text text-anchor="middle" x="1194" y="-378.5" font-family="Helvetica,sans-Serif" font-size="10.00">model.Turtle.getPenDash</text>
</a>
</g>
</g>
<!-- Node22&#45;&gt;Node29 -->
<g id="edge33" class="edge"><title>Node22&#45;&gt;Node29</title>
<path fill="none" stroke="midnightblue" d="M1043.15,-343.004C1065.76,-348.993 1092.1,-355.902 1116,-362 1125.01,-364.3 1134.63,-366.709 1143.91,-369.01"/>
<polygon fill="midnightblue" stroke="midnightblue" points="1143.25,-372.452 1153.8,-371.454 1144.93,-365.657 1143.25,-372.452"/>
</g>
<!-- Node31 -->
<g id="node31" class="node"><title>Node31</title>
<g id="a_node31"><a xlink:href="../../d6/d34/classmodel_1_1_turtle.html#a193c156784f783064ae533b619b6be6e" target="_top" xlink:title="model.Turtle.getPenColor">
<polygon fill="white" stroke="black" points="1125.5,-333.5 1125.5,-352.5 1262.5,-352.5 1262.5,-333.5 1125.5,-333.5"/>
<text text-anchor="middle" x="1194" y="-340.5" font-family="Helvetica,sans-Serif" font-size="10.00">model.Turtle.getPenColor</text>
</a>
</g>
</g>
<!-- Node22&#45;&gt;Node31 -->
<g id="edge35" class="edge"><title>Node22&#45;&gt;Node31</title>
<path fill="none" stroke="midnightblue" d="M1080.06,-334.776C1091.85,-335.635 1103.82,-336.506 1115.33,-337.345"/>
<polygon fill="midnightblue" stroke="midnightblue" points="1115.1,-340.837 1125.32,-338.072 1115.61,-333.855 1115.1,-340.837"/>
</g>
<!-- Node33 -->
<g id="node33" class="node"><title>Node33</title>
<g id="a_node33"><a xlink:href="../../d6/d34/classmodel_1_1_turtle.html#a1c5d07962ede5fbfacc59413274d4300" target="_top" xlink:title="model.Turtle.getHeading">
<polygon fill="white" stroke="black" points="1127,-295.5 1127,-314.5 1261,-314.5 1261,-295.5 1127,-295.5"/>
<text text-anchor="middle" x="1194" y="-302.5" font-family="Helvetica,sans-Serif" font-size="10.00">model.Turtle.getHeading</text>
</a>
</g>
</g>
<!-- Node22&#45;&gt;Node33 -->
<g id="edge38" class="edge"><title>Node22&#45;&gt;Node33</title>
<path fill="none" stroke="midnightblue" d="M1080.06,-317.61C1092.38,-316.234 1104.9,-314.836 1116.9,-313.496"/>
<polygon fill="midnightblue" stroke="midnightblue" points="1117.29,-316.975 1126.84,-312.387 1116.51,-310.018 1117.29,-316.975"/>
</g>
<!-- Node25 -->
<g id="node25" class="node"><title>Node25</title>
<g id="a_node25"><a xlink:href="../../de/ded/classmodel_1_1_pen.html#afad4fb3e51847cacab72c036ddaa108f" target="_top" xlink:title="model.Pen.getStatus">
<polygon fill="white" stroke="black" points="1336,-219.5 1336,-238.5 1454,-238.5 1454,-219.5 1336,-219.5"/>
<text text-anchor="middle" x="1395" y="-226.5" font-family="Helvetica,sans-Serif" font-size="10.00">model.Pen.getStatus</text>
</a>
</g>
</g>
<!-- Node24&#45;&gt;Node25 -->
<g id="edge29" class="edge"><title>Node24&#45;&gt;Node25</title>
<path fill="none" stroke="midnightblue" d="M1265.72,-229C1285.23,-229 1306.35,-229 1325.72,-229"/>
<polygon fill="midnightblue" stroke="midnightblue" points="1325.97,-232.5 1335.97,-229 1325.97,-225.5 1325.97,-232.5"/>
</g>
<!-- Node30 -->
<g id="node30" class="node"><title>Node30</title>
<g id="a_node30"><a xlink:href="../../de/ded/classmodel_1_1_pen.html#a6999f4af56377415621f193ef8600e27" target="_top" xlink:title="model.Pen.getDash">
<polygon fill="white" stroke="black" points="1339.5,-371.5 1339.5,-390.5 1450.5,-390.5 1450.5,-371.5 1339.5,-371.5"/>
<text text-anchor="middle" x="1395" y="-378.5" font-family="Helvetica,sans-Serif" font-size="10.00">model.Pen.getDash</text>
</a>
</g>
</g>
<!-- Node29&#45;&gt;Node30 -->
<g id="edge34" class="edge"><title>Node29&#45;&gt;Node30</title>
<path fill="none" stroke="midnightblue" d="M1262.65,-381C1284.15,-381 1307.86,-381 1329.15,-381"/>
<polygon fill="midnightblue" stroke="midnightblue" points="1329.39,-384.5 1339.39,-381 1329.39,-377.5 1329.39,-384.5"/>
</g>
<!-- Node32 -->
<g id="node32" class="node"><title>Node32</title>
<g id="a_node32"><a xlink:href="../../de/ded/classmodel_1_1_pen.html#a704af31474b10d17caf40773b7971826" target="_top" xlink:title="model.Pen.getPenColor">
<polygon fill="white" stroke="black" points="1330.5,-333.5 1330.5,-352.5 1459.5,-352.5 1459.5,-333.5 1330.5,-333.5"/>
<text text-anchor="middle" x="1395" y="-340.5" font-family="Helvetica,sans-Serif" font-size="10.00">model.Pen.getPenColor</text>
</a>
</g>
</g>
<!-- Node31&#45;&gt;Node32 -->
<g id="edge36" class="edge"><title>Node31&#45;&gt;Node32</title>
<path fill="none" stroke="midnightblue" d="M1262.65,-343C1281.18,-343 1301.36,-343 1320.21,-343"/>
<polygon fill="midnightblue" stroke="midnightblue" points="1320.23,-346.5 1330.23,-343 1320.23,-339.5 1320.23,-346.5"/>
</g>
</g>
</svg>
