<?xml version="1.0" encoding="UTF-8" standalone="no"?>
<!DOCTYPE svg PUBLIC "-//W3C//DTD SVG 1.1//EN"
 "http://www.w3.org/Graphics/SVG/1.1/DTD/svg11.dtd">
<!-- Generated by graphviz version 2.36.0 (20140111.2315)
 -->
<!-- Title: view.panes.PaneModule Pages: 1 -->
<svg width="338pt" height="192pt"
 viewBox="0.00 0.00 338.00 192.00" xmlns="http://www.w3.org/2000/svg" xmlns:xlink="http://www.w3.org/1999/xlink">
<g id="graph0" class="graph" transform="scale(1 1) rotate(0) translate(4 188)">
<title>view.panes.PaneModule</title>
<polygon fill="white" stroke="none" points="-4,4 -4,-188 334,-188 334,4 -4,4"/>
<!-- Node1 -->
<g id="node1" class="node"><title>Node1</title>
<polygon fill="#bfbfbf" stroke="black" points="0.5,-88.5 0.5,-107.5 129.5,-107.5 129.5,-88.5 0.5,-88.5"/>
<text text-anchor="middle" x="65" y="-95.5" font-family="Helvetica,sans-Serif" font-size="10.00">view.panes.PaneModule</text>
</g>
<!-- Node2 -->
<g id="node2" class="node"><title>Node2</title>
<g id="a_node2"><a xlink:href="../../d0/d18/classview_1_1panes_1_1_button_pane_module.html" target="_top" xlink:title="view.panes.ButtonPaneModule">
<polygon fill="white" stroke="black" points="167.5,-164.5 167.5,-183.5 328.5,-183.5 328.5,-164.5 167.5,-164.5"/>
<text text-anchor="middle" x="248" y="-171.5" font-family="Helvetica,sans-Serif" font-size="10.00">view.panes.ButtonPaneModule</text>
</a>
</g>
</g>
<!-- Node1&#45;&gt;Node2 -->
<g id="edge1" class="edge"><title>Node1&#45;&gt;Node2</title>
<path fill="none" stroke="midnightblue" d="M88.4647,-113.315C108.14,-126.103 137.9,-143.964 166,-155 175.546,-158.749 186.027,-161.88 196.19,-164.447"/>
<polygon fill="midnightblue" stroke="midnightblue" points="90.1947,-110.263 79.9224,-107.669 86.3347,-116.103 90.1947,-110.263"/>
</g>
<!-- Node3 -->
<g id="node3" class="node"><title>Node3</title>
<g id="a_node3"><a xlink:href="../../d0/d5e/classview_1_1panes_1_1_history_pane_module.html" target="_top" xlink:title="view.panes.HistoryPaneModule">
<polygon fill="white" stroke="black" points="166.5,-126.5 166.5,-145.5 329.5,-145.5 329.5,-126.5 166.5,-126.5"/>
<text text-anchor="middle" x="248" y="-133.5" font-family="Helvetica,sans-Serif" font-size="10.00">view.panes.HistoryPaneModule</text>
</a>
</g>
</g>
<!-- Node1&#45;&gt;Node3 -->
<g id="edge2" class="edge"><title>Node1&#45;&gt;Node3</title>
<path fill="none" stroke="midnightblue" d="M121.638,-109.681C147.307,-115.07 177.391,-121.386 201.654,-126.48"/>
<polygon fill="midnightblue" stroke="midnightblue" points="122.18,-106.218 111.674,-107.589 120.741,-113.069 122.18,-106.218"/>
</g>
<!-- Node4 -->
<g id="node4" class="node"><title>Node4</title>
<g id="a_node4"><a xlink:href="../../d3/d9f/classview_1_1panes_1_1_input_pane_module.html" target="_top" xlink:title="view.panes.InputPaneModule">
<polygon fill="white" stroke="black" points="171.5,-88.5 171.5,-107.5 324.5,-107.5 324.5,-88.5 171.5,-88.5"/>
<text text-anchor="middle" x="248" y="-95.5" font-family="Helvetica,sans-Serif" font-size="10.00">view.panes.InputPaneModule</text>
</a>
</g>
</g>
<!-- Node1&#45;&gt;Node4 -->
<g id="edge3" class="edge"><title>Node1&#45;&gt;Node4</title>
<path fill="none" stroke="midnightblue" d="M139.865,-98C150.293,-98 161.027,-98 171.486,-98"/>
<polygon fill="midnightblue" stroke="midnightblue" points="139.559,-94.5001 129.559,-98 139.559,-101.5 139.559,-94.5001"/>
</g>
<!-- Node5 -->
<g id="node5" class="node"><title>Node5</title>
<g id="a_node5"><a xlink:href="../../d0/d06/classview_1_1panes_1_1_turtle_controller_pane_module.html" target="_top" xlink:title="view.panes.TurtleController\lPaneModule">
<polygon fill="white" stroke="black" points="176.5,-39 176.5,-69 319.5,-69 319.5,-39 176.5,-39"/>
<text text-anchor="start" x="184.5" y="-57" font-family="Helvetica,sans-Serif" font-size="10.00">view.panes.TurtleController</text>
<text text-anchor="middle" x="248" y="-46" font-family="Helvetica,sans-Serif" font-size="10.00">PaneModule</text>
</a>
</g>
</g>
<!-- Node1&#45;&gt;Node5 -->
<g id="edge4" class="edge"><title>Node1&#45;&gt;Node5</title>
<path fill="none" stroke="midnightblue" d="M115.179,-86.045C136.71,-80.8108 162.215,-74.6107 185.027,-69.0654"/>
<polygon fill="midnightblue" stroke="midnightblue" points="114.165,-82.6895 105.274,-88.4527 115.818,-89.4914 114.165,-82.6895"/>
</g>
<!-- Node6 -->
<g id="node6" class="node"><title>Node6</title>
<g id="a_node6"><a xlink:href="../../db/db5/classview_1_1panes_1_1_view_pane_module.html" target="_top" xlink:title="view.panes.ViewPaneModule">
<polygon fill="white" stroke="black" points="172.5,-0.5 172.5,-19.5 323.5,-19.5 323.5,-0.5 172.5,-0.5"/>
<text text-anchor="middle" x="248" y="-7.5" font-family="Helvetica,sans-Serif" font-size="10.00">view.panes.ViewPaneModule</text>
</a>
</g>
</g>
<!-- Node1&#45;&gt;Node6 -->
<g id="edge5" class="edge"><title>Node1&#45;&gt;Node6</title>
<path fill="none" stroke="midnightblue" d="M85.1715,-81.879C104.441,-66.4501 135.573,-43.5742 166,-30 175.524,-25.751 186.098,-22.3101 196.378,-19.5587"/>
<polygon fill="midnightblue" stroke="midnightblue" points="82.734,-79.3506 77.1976,-88.3838 87.1588,-84.7748 82.734,-79.3506"/>
</g>
</g>
</svg>
