<?xml version="1.0" encoding="UTF-8" standalone="no"?>
<!DOCTYPE svg PUBLIC "-//W3C//DTD SVG 1.1//EN"
 "http://www.w3.org/Graphics/SVG/1.1/DTD/svg11.dtd">
<!-- Generated by graphviz version 2.36.0 (20140111.2315)
 -->
<!-- Title: controller.MasterController Pages: 1 -->
<svg width="475pt" height="186pt"
 viewBox="0.00 0.00 475.00 186.00" xmlns="http://www.w3.org/2000/svg" xmlns:xlink="http://www.w3.org/1999/xlink">
<g id="graph0" class="graph" transform="scale(1 1) rotate(0) translate(4 182)">
<title>controller.MasterController</title>
<polygon fill="white" stroke="none" points="-4,4 -4,-182 471,-182 471,4 -4,4"/>
<!-- Node1 -->
<g id="node1" class="node"><title>Node1</title>
<polygon fill="#bfbfbf" stroke="black" points="207.5,-0.5 207.5,-19.5 350.5,-19.5 350.5,-0.5 207.5,-0.5"/>
<text text-anchor="middle" x="279" y="-7.5" font-family="Helvetica,sans-Serif" font-size="10.00">controller.MasterController</text>
</g>
<!-- Node2 -->
<g id="node2" class="node"><title>Node2</title>
<g id="a_node2"><a xlink:href="../../d6/d95/classparser_1_1_parser.html" target="_top" xlink:title="parser.Parser">
<polygon fill="white" stroke="black" points="189,-68.5 189,-87.5 269,-87.5 269,-68.5 189,-68.5"/>
<text text-anchor="middle" x="229" y="-75.5" font-family="Helvetica,sans-Serif" font-size="10.00">parser.Parser</text>
</a>
</g>
</g>
<!-- Node2&#45;&gt;Node1 -->
<g id="edge1" class="edge"><title>Node2&#45;&gt;Node1</title>
<path fill="none" stroke="#9a32cd" stroke-dasharray="5,2" d="M232.12,-58.3334C233.912,-51.4822 236.698,-43.9535 241,-38 246.499,-30.391 254.816,-24.134 262.269,-19.566"/>
<polygon fill="#9a32cd" stroke="#9a32cd" points="228.674,-57.7128 230.047,-68.2183 235.525,-59.1496 228.674,-57.7128"/>
<text text-anchor="middle" x="265.5" y="-41.5" font-family="Helvetica,sans-Serif" font-size="10.00"> myParser</text>
</g>
<!-- Node3 -->
<g id="node3" class="node"><title>Node3</title>
<polygon fill="white" stroke="#bfbfbf" points="0,-152.5 0,-171.5 122,-171.5 122,-152.5 0,-152.5"/>
<text text-anchor="middle" x="61" y="-159.5" font-family="Helvetica,sans-Serif" font-size="10.00">Map&lt; String, String &gt;</text>
</g>
<!-- Node3&#45;&gt;Node2 -->
<g id="edge2" class="edge"><title>Node3&#45;&gt;Node2</title>
<path fill="none" stroke="#9a32cd" stroke-dasharray="5,2" d="M72.8571,-144.269C82.5359,-131.855 97.3057,-115.498 114,-106 136.905,-92.9684 165.791,-86.2165 188.882,-82.7234"/>
<polygon fill="#9a32cd" stroke="#9a32cd" points="69.9242,-142.347 66.7545,-152.457 75.5368,-146.53 69.9242,-142.347"/>
<text text-anchor="middle" x="169.5" y="-120" font-family="Helvetica,sans-Serif" font-size="10.00"> myRegularExpressions</text>
<text text-anchor="middle" x="169.5" y="-109" font-family="Helvetica,sans-Serif" font-size="10.00">myCommandMap</text>
</g>
<!-- Node4 -->
<g id="node4" class="node"><title>Node4</title>
<polygon fill="white" stroke="#bfbfbf" points="140.5,-147 140.5,-177 317.5,-177 317.5,-147 140.5,-147"/>
<text text-anchor="start" x="148.5" y="-165" font-family="Helvetica,sans-Serif" font-size="10.00">Map&lt; String, commands.Custom</text>
<text text-anchor="middle" x="229" y="-154" font-family="Helvetica,sans-Serif" font-size="10.00">Command &gt;</text>
</g>
<!-- Node4&#45;&gt;Node2 -->
<g id="edge3" class="edge"><title>Node4&#45;&gt;Node2</title>
<path fill="none" stroke="#9a32cd" stroke-dasharray="5,2" d="M229,-136.6C229,-120.031 229,-99.1113 229,-87.5915"/>
<polygon fill="#9a32cd" stroke="#9a32cd" points="225.5,-136.717 229,-146.717 232.5,-136.717 225.5,-136.717"/>
<text text-anchor="middle" x="289.5" y="-114.5" font-family="Helvetica,sans-Serif" font-size="10.00"> myUserInputCommands</text>
</g>
<!-- Node5 -->
<g id="node5" class="node"><title>Node5</title>
<polygon fill="white" stroke="#bfbfbf" points="335.5,-152.5 335.5,-171.5 430.5,-171.5 430.5,-152.5 335.5,-152.5"/>
<text text-anchor="middle" x="383" y="-159.5" font-family="Helvetica,sans-Serif" font-size="10.00">Stack&lt; String &gt;</text>
</g>
<!-- Node5&#45;&gt;Node2 -->
<g id="edge4" class="edge"><title>Node5&#45;&gt;Node2</title>
<path fill="none" stroke="#9a32cd" stroke-dasharray="5,2" d="M377.875,-142.778C373.499,-130.554 365.971,-115.085 354,-106 350.529,-103.366 304.301,-93.8078 269.066,-86.8089"/>
<polygon fill="#9a32cd" stroke="#9a32cd" points="374.581,-143.969 380.942,-152.442 381.253,-141.851 374.581,-143.969"/>
<text text-anchor="middle" x="419" y="-114.5" font-family="Helvetica,sans-Serif" font-size="10.00"> myCommandStack</text>
</g>
<!-- Node6 -->
<g id="node6" class="node"><title>Node6</title>
<polygon fill="white" stroke="#bfbfbf" points="287,-68.5 287,-87.5 343,-87.5 343,-68.5 287,-68.5"/>
<text text-anchor="middle" x="315" y="-75.5" font-family="Helvetica,sans-Serif" font-size="10.00">Random</text>
</g>
<!-- Node6&#45;&gt;Node1 -->
<g id="edge5" class="edge"><title>Node6&#45;&gt;Node1</title>
<path fill="none" stroke="#9a32cd" stroke-dasharray="5,2" d="M305.489,-59.563C298.517,-46.7815 289.342,-29.9599 283.822,-19.8411"/>
<polygon fill="#9a32cd" stroke="#9a32cd" points="302.432,-61.2687 310.294,-68.3717 308.578,-57.9167 302.432,-61.2687"/>
<text text-anchor="middle" x="330" y="-41.5" font-family="Helvetica,sans-Serif" font-size="10.00"> myRandom</text>
</g>
</g>
</svg>
