<?xml version="1.0" encoding="UTF-8" standalone="no"?>
<!DOCTYPE svg PUBLIC "-//W3C//DTD SVG 1.1//EN"
 "http://www.w3.org/Graphics/SVG/1.1/DTD/svg11.dtd">
<!-- Generated by graphviz version 2.36.0 (20140111.2315)
 -->
<!-- Title: commands.MakeUserInstructionCommand Pages: 1 -->
<svg width="249pt" height="156pt"
 viewBox="0.00 0.00 249.00 156.00" xmlns="http://www.w3.org/2000/svg" xmlns:xlink="http://www.w3.org/1999/xlink">
<g id="graph0" class="graph" transform="scale(1 1) rotate(0) translate(4 152)">
<title>commands.MakeUserInstructionCommand</title>
<polygon fill="white" stroke="none" points="-4,4 -4,-152 245,-152 245,4 -4,4"/>
<!-- Node1 -->
<g id="node1" class="node"><title>Node1</title>
<polygon fill="#bfbfbf" stroke="black" points="1,-1 1,-31 173,-31 173,-1 1,-1"/>
<text text-anchor="start" x="9" y="-19" font-family="Helvetica,sans-Serif" font-size="10.00">commands.MakeUserInstruction</text>
<text text-anchor="middle" x="87" y="-8" font-family="Helvetica,sans-Serif" font-size="10.00">Command</text>
</g>
<!-- Node2 -->
<g id="node2" class="node"><title>Node2</title>
<g id="a_node2"><a xlink:href="../../d1/d86/classcommands_1_1_three_input_command.html" target="_top" xlink:title="commands.ThreeInputCommand">
<polygon fill="white" stroke="black" points="-0.5,-70.5 -0.5,-89.5 174.5,-89.5 174.5,-70.5 -0.5,-70.5"/>
<text text-anchor="middle" x="87" y="-77.5" font-family="Helvetica,sans-Serif" font-size="10.00">commands.ThreeInputCommand</text>
</a>
</g>
</g>
<!-- Node2&#45;&gt;Node1 -->
<g id="edge1" class="edge"><title>Node2&#45;&gt;Node1</title>
<path fill="none" stroke="midnightblue" d="M87,-60.1826C87,-50.8859 87,-39.8507 87,-31.263"/>
<polygon fill="midnightblue" stroke="midnightblue" points="83.5001,-60.3791 87,-70.3792 90.5001,-60.3792 83.5001,-60.3791"/>
</g>
<!-- Node3 -->
<g id="node3" class="node"><title>Node3</title>
<g id="a_node3"><a xlink:href="../../dd/dd6/classcommands_1_1_command.html" target="_top" xlink:title="commands.Command">
<polygon fill="white" stroke="black" points="25,-128.5 25,-147.5 149,-147.5 149,-128.5 25,-128.5"/>
<text text-anchor="middle" x="87" y="-135.5" font-family="Helvetica,sans-Serif" font-size="10.00">commands.Command</text>
</a>
</g>
</g>
<!-- Node3&#45;&gt;Node2 -->
<g id="edge2" class="edge"><title>Node3&#45;&gt;Node2</title>
<path fill="none" stroke="midnightblue" d="M87,-117.953C87,-108.287 87,-97.0312 87,-89.5052"/>
<polygon fill="midnightblue" stroke="midnightblue" points="83.5001,-118.25 87,-128.25 90.5001,-118.25 83.5001,-118.25"/>
</g>
<!-- Node3&#45;&gt;Node3 -->
<g id="edge3" class="edge"><title>Node3&#45;&gt;Node3</title>
<path fill="none" stroke="#9a32cd" stroke-dasharray="5,2" d="M159.252,-141.592C163.474,-140.73 166,-139.533 166,-138 166,-135.484 159.198,-133.873 149.261,-133.165"/>
<polygon fill="#9a32cd" stroke="#9a32cd" points="158.752,-138.127 149.261,-142.835 159.617,-145.073 158.752,-138.127"/>
<text text-anchor="middle" x="203" y="-135.5" font-family="Helvetica,sans-Serif" font-size="10.00"> myParameters</text>
</g>
</g>
</svg>
