<?xml version="1.0" encoding="UTF-8" standalone="no"?>
<!DOCTYPE svg PUBLIC "-//W3C//DTD SVG 1.1//EN"
 "http://www.w3.org/Graphics/SVG/1.1/DTD/svg11.dtd">
<!-- Generated by graphviz version 2.36.0 (20140111.2315)
 -->
<!-- Title: commands.Command.updateTurtle Pages: 1 -->
<svg width="878pt" height="1312pt"
 viewBox="0.00 0.00 878.00 1312.00" xmlns="http://www.w3.org/2000/svg" xmlns:xlink="http://www.w3.org/1999/xlink">
<g id="graph0" class="graph" transform="scale(1 1) rotate(0) translate(4 1308)">
<title>commands.Command.updateTurtle</title>
<polygon fill="white" stroke="none" points="-4,4 -4,-1308 874,-1308 874,4 -4,4"/>
<!-- Node1 -->
<g id="node1" class="node"><title>Node1</title>
<polygon fill="#bfbfbf" stroke="black" points="0,-642.5 0,-661.5 186,-661.5 186,-642.5 0,-642.5"/>
<text text-anchor="middle" x="93" y="-649.5" font-family="Helvetica,sans-Serif" font-size="10.00">commands.Command.updateTurtle</text>
</g>
<!-- Node2 -->
<g id="node2" class="node"><title>Node2</title>
<g id="a_node2"><a xlink:href="../../dd/dd6/classcommands_1_1_command.html#abafa69601e87c34d4453cf84349d6f9c" target="_top" xlink:title="commands.Command.execute\lCommand">
<polygon fill="white" stroke="black" points="222.5,-637 222.5,-667 387.5,-667 387.5,-637 222.5,-637"/>
<text text-anchor="start" x="230.5" y="-655" font-family="Helvetica,sans-Serif" font-size="10.00">commands.Command.execute</text>
<text text-anchor="middle" x="305" y="-644" font-family="Helvetica,sans-Serif" font-size="10.00">Command</text>
</a>
</g>
</g>
<!-- Node1&#45;&gt;Node2 -->
<g id="edge1" class="edge"><title>Node1&#45;&gt;Node2</title>
<path fill="none" stroke="midnightblue" d="M196.284,-652C204.974,-652 213.689,-652 222.19,-652"/>
<polygon fill="midnightblue" stroke="midnightblue" points="196.109,-648.5 186.109,-652 196.109,-655.5 196.109,-648.5"/>
</g>
<!-- Node3 -->
<g id="node3" class="node"><title>Node3</title>
<g id="a_node3"><a xlink:href="../../d1/d79/classcommands_1_1_sum_command.html#a792945436d0c3ff1f58301fcc50f5ae1" target="_top" xlink:title="commands.SumCommand.execute\lCommand">
<polygon fill="white" stroke="black" points="450,-1274 450,-1304 638,-1304 638,-1274 450,-1274"/>
<text text-anchor="start" x="458" y="-1292" font-family="Helvetica,sans-Serif" font-size="10.00">commands.SumCommand.execute</text>
<text text-anchor="middle" x="544" y="-1281" font-family="Helvetica,sans-Serif" font-size="10.00">Command</text>
</a>
</g>
</g>
<!-- Node2&#45;&gt;Node3 -->
<g id="edge2" class="edge"><title>Node2&#45;&gt;Node3</title>
<path fill="none" stroke="midnightblue" d="M307.26,-677.448C312.97,-782.192 339.902,-1178.49 424,-1264 431.328,-1271.45 440.271,-1276.95 449.93,-1280.99"/>
<polygon fill="midnightblue" stroke="midnightblue" points="310.74,-676.991 306.718,-667.189 303.75,-677.36 310.74,-676.991"/>
</g>
<!-- Node4 -->
<g id="node4" class="node"><title>Node4</title>
<g id="a_node4"><a xlink:href="../../d6/dc0/classcommands_1_1_repeat_command.html#a40fb82831e8b2beaa7e31913e46e15eb" target="_top" xlink:title="commands.RepeatCommand.execute\lCommand">
<polygon fill="white" stroke="black" points="445,-1225 445,-1255 643,-1255 643,-1225 445,-1225"/>
<text text-anchor="start" x="453" y="-1243" font-family="Helvetica,sans-Serif" font-size="10.00">commands.RepeatCommand.execute</text>
<text text-anchor="middle" x="544" y="-1232" font-family="Helvetica,sans-Serif" font-size="10.00">Command</text>
</a>
</g>
</g>
<!-- Node2&#45;&gt;Node4 -->
<g id="edge3" class="edge"><title>Node2&#45;&gt;Node4</title>
<path fill="none" stroke="midnightblue" d="M307.711,-677.306C314.938,-776.503 346.248,-1137.21 424,-1215 430.044,-1221.05 437.154,-1225.81 444.842,-1229.53"/>
<polygon fill="midnightblue" stroke="midnightblue" points="311.181,-676.76 306.982,-667.033 304.199,-677.256 311.181,-676.76"/>
</g>
<!-- Node5 -->
<g id="node5" class="node"><title>Node5</title>
<g id="a_node5"><a xlink:href="../../dd/d82/classcommands_1_1_remainder_command.html#a99d4baf3f1b4a3c8d0cd69274380a2cf" target="_top" xlink:title="commands.RemainderCommand.execute\lCommand">
<polygon fill="white" stroke="black" points="436,-1176 436,-1206 652,-1206 652,-1176 436,-1176"/>
<text text-anchor="start" x="444" y="-1194" font-family="Helvetica,sans-Serif" font-size="10.00">commands.RemainderCommand.execute</text>
<text text-anchor="middle" x="544" y="-1183" font-family="Helvetica,sans-Serif" font-size="10.00">Command</text>
</a>
</g>
</g>
<!-- Node2&#45;&gt;Node5 -->
<g id="edge4" class="edge"><title>Node2&#45;&gt;Node5</title>
<path fill="none" stroke="midnightblue" d="M308.247,-677.224C317.094,-770.746 352.585,-1095.9 424,-1166 427.842,-1169.77 432.099,-1173.04 436.65,-1175.87"/>
<polygon fill="midnightblue" stroke="midnightblue" points="311.73,-676.869 307.321,-667.235 304.76,-677.515 311.73,-676.869"/>
</g>
<!-- Node6 -->
<g id="node6" class="node"><title>Node6</title>
<g id="a_node6"><a xlink:href="../../df/df5/classcommands_1_1_minus_command.html#a82548bbb25a73194469e1ff81b19cf27" target="_top" xlink:title="commands.MinusCommand.execute\lCommand">
<polygon fill="white" stroke="black" points="447.5,-1127 447.5,-1157 640.5,-1157 640.5,-1127 447.5,-1127"/>
<text text-anchor="start" x="455.5" y="-1145" font-family="Helvetica,sans-Serif" font-size="10.00">commands.MinusCommand.execute</text>
<text text-anchor="middle" x="544" y="-1134" font-family="Helvetica,sans-Serif" font-size="10.00">Command</text>
</a>
</g>
</g>
<!-- Node2&#45;&gt;Node6 -->
<g id="edge5" class="edge"><title>Node2&#45;&gt;Node6</title>
<path fill="none" stroke="midnightblue" d="M308.951,-677.641C319.619,-765.829 359.015,-1054.65 424,-1117 430.779,-1123.5 438.797,-1128.5 447.418,-1132.32"/>
<polygon fill="midnightblue" stroke="midnightblue" points="312.397,-676.977 307.74,-667.46 305.446,-677.804 312.397,-676.977"/>
</g>
<!-- Node7 -->
<g id="node7" class="node"><title>Node7</title>
<g id="a_node7"><a xlink:href="../../d3/d37/classcommands_1_1_set_background_command.html#a91dc8e21948a301c55af1cef90b77962" target="_top" xlink:title="commands.SetBackgroundCommand.execute\lCommand">
<polygon fill="white" stroke="black" points="424.5,-1078 424.5,-1108 663.5,-1108 663.5,-1078 424.5,-1078"/>
<text text-anchor="start" x="432.5" y="-1096" font-family="Helvetica,sans-Serif" font-size="10.00">commands.SetBackgroundCommand.execute</text>
<text text-anchor="middle" x="544" y="-1085" font-family="Helvetica,sans-Serif" font-size="10.00">Command</text>
</a>
</g>
</g>
<!-- Node2&#45;&gt;Node7 -->
<g id="edge6" class="edge"><title>Node2&#45;&gt;Node7</title>
<path fill="none" stroke="midnightblue" d="M309.716,-677.314C322.208,-758.952 365.224,-1013.16 424,-1068 428.091,-1071.82 432.609,-1075.11 437.424,-1077.95"/>
<polygon fill="midnightblue" stroke="midnightblue" points="313.141,-676.552 308.189,-667.186 306.219,-677.597 313.141,-676.552"/>
</g>
<!-- Node8 -->
<g id="node8" class="node"><title>Node8</title>
<g id="a_node8"><a xlink:href="../../d8/dba/classcommands_1_1_product_command.html#a8bc20bc7c21a944405f599dbcfa57e67" target="_top" xlink:title="commands.ProductCommand.execute\lCommand">
<polygon fill="white" stroke="black" points="443,-1029 443,-1059 645,-1059 645,-1029 443,-1029"/>
<text text-anchor="start" x="451" y="-1047" font-family="Helvetica,sans-Serif" font-size="10.00">commands.ProductCommand.execute</text>
<text text-anchor="middle" x="544" y="-1036" font-family="Helvetica,sans-Serif" font-size="10.00">Command</text>
</a>
</g>
</g>
<!-- Node2&#45;&gt;Node8 -->
<g id="edge7" class="edge"><title>Node2&#45;&gt;Node8</title>
<path fill="none" stroke="midnightblue" d="M306.003,-677.018C307.452,-743.585 321.088,-926.272 424,-1019 429.646,-1024.09 436.057,-1028.24 442.907,-1031.62"/>
<polygon fill="midnightblue" stroke="midnightblue" points="309.502,-676.966 305.861,-667.016 302.503,-677.065 309.502,-676.966"/>
</g>
<!-- Node9 -->
<g id="node9" class="node"><title>Node9</title>
<g id="a_node9"><a xlink:href="../../dd/d40/classcommands_1_1_quotient_command.html#a7e23b237cc68512dcbe6a65feb7c39e8" target="_top" xlink:title="commands.QuotientCommand.execute\lCommand">
<polygon fill="white" stroke="black" points="441,-980 441,-1010 647,-1010 647,-980 441,-980"/>
<text text-anchor="start" x="449" y="-998" font-family="Helvetica,sans-Serif" font-size="10.00">commands.QuotientCommand.execute</text>
<text text-anchor="middle" x="544" y="-987" font-family="Helvetica,sans-Serif" font-size="10.00">Command</text>
</a>
</g>
</g>
<!-- Node2&#45;&gt;Node9 -->
<g id="edge8" class="edge"><title>Node2&#45;&gt;Node9</title>
<path fill="none" stroke="midnightblue" d="M307.444,-677.326C312.333,-737.923 333.501,-892.013 424,-970 429.117,-974.41 434.815,-978.108 440.867,-981.203"/>
<polygon fill="midnightblue" stroke="midnightblue" points="310.92,-676.86 306.708,-667.139 303.938,-677.365 310.92,-676.86"/>
</g>
<!-- Node10 -->
<g id="node10" class="node"><title>Node10</title>
<g id="a_node10"><a xlink:href="../../dc/d68/classcommands_1_1_make_variable_command.html#ad0e0974744cc969c12c67805c2460ef4" target="_top" xlink:title="commands.MakeVariableCommand.execute\lCommand">
<polygon fill="white" stroke="black" points="429.5,-931 429.5,-961 658.5,-961 658.5,-931 429.5,-931"/>
<text text-anchor="start" x="437.5" y="-949" font-family="Helvetica,sans-Serif" font-size="10.00">commands.MakeVariableCommand.execute</text>
<text text-anchor="middle" x="544" y="-938" font-family="Helvetica,sans-Serif" font-size="10.00">Command</text>
</a>
</g>
</g>
<!-- Node2&#45;&gt;Node10 -->
<g id="edge9" class="edge"><title>Node2&#45;&gt;Node10</title>
<path fill="none" stroke="midnightblue" d="M309.314,-677.089C317.805,-730.805 345.495,-857.224 424,-921 428.752,-924.86 433.954,-928.167 439.444,-930.995"/>
<polygon fill="midnightblue" stroke="midnightblue" points="312.757,-676.442 307.823,-667.067 305.833,-677.473 312.757,-676.442"/>
</g>
<!-- Node11 -->
<g id="node11" class="node"><title>Node11</title>
<g id="a_node11"><a xlink:href="../../d8/ded/classcommands_1_1_difference_command.html#a0c34c43d3bb266ef3e48ae27be938a0f" target="_top" xlink:title="commands.DifferenceCommand.execute\lCommand">
<polygon fill="white" stroke="black" points="437,-882 437,-912 651,-912 651,-882 437,-882"/>
<text text-anchor="start" x="445" y="-900" font-family="Helvetica,sans-Serif" font-size="10.00">commands.DifferenceCommand.execute</text>
<text text-anchor="middle" x="544" y="-889" font-family="Helvetica,sans-Serif" font-size="10.00">Command</text>
</a>
</g>
</g>
<!-- Node2&#45;&gt;Node11 -->
<g id="edge10" class="edge"><title>Node2&#45;&gt;Node11</title>
<path fill="none" stroke="midnightblue" d="M311.94,-676.993C324.306,-723.267 357.377,-822.108 424,-872 429.154,-875.86 434.769,-879.154 440.662,-881.964"/>
<polygon fill="midnightblue" stroke="midnightblue" points="315.299,-675.999 309.421,-667.184 308.519,-677.74 315.299,-675.999"/>
</g>
<!-- Node12 -->
<g id="node12" class="node"><title>Node12</title>
<g id="a_node12"><a xlink:href="../../dd/d29/classcommands_1_1_clear_screen_command.html#a87e5eb0f4c3bb48ec0737da2aa431db3" target="_top" xlink:title="commands.ClearScreenCommand.execute\lCommand">
<polygon fill="white" stroke="black" points="432,-833 432,-863 656,-863 656,-833 432,-833"/>
<text text-anchor="start" x="440" y="-851" font-family="Helvetica,sans-Serif" font-size="10.00">commands.ClearScreenCommand.execute</text>
<text text-anchor="middle" x="544" y="-840" font-family="Helvetica,sans-Serif" font-size="10.00">Command</text>
</a>
</g>
</g>
<!-- Node2&#45;&gt;Node12 -->
<g id="edge11" class="edge"><title>Node2&#45;&gt;Node12</title>
<path fill="none" stroke="midnightblue" d="M315.746,-676.499C332.119,-714.305 368.86,-786.326 424,-823 429.801,-826.858 436.083,-830.137 442.627,-832.922"/>
<polygon fill="midnightblue" stroke="midnightblue" points="318.951,-675.092 311.846,-667.233 312.5,-677.807 318.951,-675.092"/>
</g>
<!-- Node13 -->
<g id="node13" class="node"><title>Node13</title>
<g id="a_node13"><a xlink:href="../../d9/d35/classcommands_1_1_ask_command.html#ae4ba28c73ce0b5112e4032bd21a951f5" target="_top" xlink:title="commands.AskCommand.execute\lCommand">
<polygon fill="white" stroke="black" points="453,-784 453,-814 635,-814 635,-784 453,-784"/>
<text text-anchor="start" x="461" y="-802" font-family="Helvetica,sans-Serif" font-size="10.00">commands.AskCommand.execute</text>
<text text-anchor="middle" x="544" y="-791" font-family="Helvetica,sans-Serif" font-size="10.00">Command</text>
</a>
</g>
</g>
<!-- Node2&#45;&gt;Node13 -->
<g id="edge12" class="edge"><title>Node2&#45;&gt;Node13</title>
<path fill="none" stroke="midnightblue" d="M321.962,-675.587C342.262,-703.637 380.009,-749.706 424,-774 432.963,-778.95 442.801,-782.921 452.861,-786.108"/>
<polygon fill="midnightblue" stroke="midnightblue" points="324.634,-673.303 315.999,-667.163 318.92,-677.347 324.634,-673.303"/>
</g>
<!-- Node14 -->
<g id="node14" class="node"><title>Node14</title>
<g id="a_node14"><a xlink:href="../../d3/d49/classcommands_1_1_if_else_command.html#a3b3d15925117d366a69f8ebd1dbc2dbc" target="_top" xlink:title="commands.IfElseCommand.execute\lCommand">
<polygon fill="white" stroke="black" points="449,-735 449,-765 639,-765 639,-735 449,-735"/>
<text text-anchor="start" x="457" y="-753" font-family="Helvetica,sans-Serif" font-size="10.00">commands.IfElseCommand.execute</text>
<text text-anchor="middle" x="544" y="-742" font-family="Helvetica,sans-Serif" font-size="10.00">Command</text>
</a>
</g>
</g>
<!-- Node2&#45;&gt;Node14 -->
<g id="edge13" class="edge"><title>Node2&#45;&gt;Node14</title>
<path fill="none" stroke="midnightblue" d="M333.987,-673.214C357.004,-689.671 391.078,-711.83 424,-725 433.604,-728.842 443.892,-732.129 454.249,-734.933"/>
<polygon fill="midnightblue" stroke="midnightblue" points="335.879,-670.263 325.732,-667.216 331.765,-675.926 335.879,-670.263"/>
</g>
<!-- Node16 -->
<g id="node16" class="node"><title>Node16</title>
<g id="a_node16"><a xlink:href="../../d8/d57/classcommands_1_1_for_command.html#aeb06a37d7f9845eb546425bae6ea9f58" target="_top" xlink:title="commands.ForCommand.execute\lCommand">
<polygon fill="white" stroke="black" points="454,-686 454,-716 634,-716 634,-686 454,-686"/>
<text text-anchor="start" x="462" y="-704" font-family="Helvetica,sans-Serif" font-size="10.00">commands.ForCommand.execute</text>
<text text-anchor="middle" x="544" y="-693" font-family="Helvetica,sans-Serif" font-size="10.00">Command</text>
</a>
</g>
</g>
<!-- Node2&#45;&gt;Node16 -->
<g id="edge15" class="edge"><title>Node2&#45;&gt;Node16</title>
<path fill="none" stroke="midnightblue" d="M388.769,-669.113C415.366,-674.611 444.611,-680.658 470.419,-685.994"/>
<polygon fill="midnightblue" stroke="midnightblue" points="389.22,-665.632 378.718,-667.035 387.803,-672.487 389.22,-665.632"/>
</g>
<!-- Node17 -->
<g id="node17" class="node"><title>Node17</title>
<g id="a_node17"><a xlink:href="../../db/d38/classcommands_1_1_ask_with_command.html#a5ee6a090e94729d84ef423a454d446eb" target="_top" xlink:title="commands.AskWithCommand.execute\lCommand">
<polygon fill="white" stroke="black" points="442.5,-637 442.5,-667 645.5,-667 645.5,-637 442.5,-637"/>
<text text-anchor="start" x="450.5" y="-655" font-family="Helvetica,sans-Serif" font-size="10.00">commands.AskWithCommand.execute</text>
<text text-anchor="middle" x="544" y="-644" font-family="Helvetica,sans-Serif" font-size="10.00">Command</text>
</a>
</g>
</g>
<!-- Node2&#45;&gt;Node17 -->
<g id="edge16" class="edge"><title>Node2&#45;&gt;Node17</title>
<path fill="none" stroke="midnightblue" d="M397.62,-652C412.301,-652 427.562,-652 442.437,-652"/>
<polygon fill="midnightblue" stroke="midnightblue" points="397.562,-648.5 387.562,-652 397.562,-655.5 397.562,-648.5"/>
</g>
<!-- Node18 -->
<g id="node18" class="node"><title>Node18</title>
<g id="a_node18"><a xlink:href="../../d4/d02/classcommands_1_1_do_times_command.html#a1dd20e90975d905a1bce8f018e9f7f0a" target="_top" xlink:title="commands.DoTimesCommand.execute\lCommand">
<polygon fill="white" stroke="black" points="440.5,-588 440.5,-618 647.5,-618 647.5,-588 440.5,-588"/>
<text text-anchor="start" x="448.5" y="-606" font-family="Helvetica,sans-Serif" font-size="10.00">commands.DoTimesCommand.execute</text>
<text text-anchor="middle" x="544" y="-595" font-family="Helvetica,sans-Serif" font-size="10.00">Command</text>
</a>
</g>
</g>
<!-- Node2&#45;&gt;Node18 -->
<g id="edge17" class="edge"><title>Node2&#45;&gt;Node18</title>
<path fill="none" stroke="midnightblue" d="M388.769,-634.887C415.366,-629.389 444.611,-623.342 470.419,-618.006"/>
<polygon fill="midnightblue" stroke="midnightblue" points="387.803,-631.513 378.718,-636.965 389.22,-638.368 387.803,-631.513"/>
</g>
<!-- Node19 -->
<g id="node19" class="node"><title>Node19</title>
<g id="a_node19"><a xlink:href="../../dd/de4/classcommands_1_1_custom_command.html#a5ad25438a49d3e4eeba835fefe8b730a" target="_top" xlink:title="commands.CustomCommand.execute\lCommand">
<polygon fill="white" stroke="black" points="442.5,-539 442.5,-569 645.5,-569 645.5,-539 442.5,-539"/>
<text text-anchor="start" x="450.5" y="-557" font-family="Helvetica,sans-Serif" font-size="10.00">commands.CustomCommand.execute</text>
<text text-anchor="middle" x="544" y="-546" font-family="Helvetica,sans-Serif" font-size="10.00">Command</text>
</a>
</g>
</g>
<!-- Node2&#45;&gt;Node19 -->
<g id="edge18" class="edge"><title>Node2&#45;&gt;Node19</title>
<path fill="none" stroke="midnightblue" d="M333.987,-630.786C357.004,-614.329 391.078,-592.17 424,-579 433.604,-575.158 443.892,-571.871 454.249,-569.067"/>
<polygon fill="midnightblue" stroke="midnightblue" points="331.765,-628.074 325.732,-636.784 335.879,-633.737 331.765,-628.074"/>
</g>
<!-- Node20 -->
<g id="node20" class="node"><title>Node20</title>
<g id="a_node20"><a xlink:href="../../d6/daf/classcommands_1_1_set_shape_command.html#a59c440316cf9e732b5aa2f46def94e10" target="_top" xlink:title="commands.SetShapeCommand.update\lTurtle">
<polygon fill="white" stroke="black" points="440,-490 440,-520 648,-520 648,-490 440,-490"/>
<text text-anchor="start" x="448" y="-508" font-family="Helvetica,sans-Serif" font-size="10.00">commands.SetShapeCommand.update</text>
<text text-anchor="middle" x="544" y="-497" font-family="Helvetica,sans-Serif" font-size="10.00">Turtle</text>
</a>
</g>
</g>
<!-- Node2&#45;&gt;Node20 -->
<g id="edge19" class="edge"><title>Node2&#45;&gt;Node20</title>
<path fill="none" stroke="midnightblue" d="M321.962,-628.413C342.262,-600.363 380.009,-554.294 424,-530 431.022,-526.122 438.582,-522.844 446.365,-520.074"/>
<polygon fill="midnightblue" stroke="midnightblue" points="318.92,-626.653 315.999,-636.837 324.634,-630.697 318.92,-626.653"/>
</g>
<!-- Node21 -->
<g id="node21" class="node"><title>Node21</title>
<g id="a_node21"><a xlink:href="../../d6/d11/classcommands_1_1_set_pen_dash_command.html#a320f3b8248e3e89b2338dfefbe73f8c7" target="_top" xlink:title="commands.SetPenDashCommand.update\lTurtle">
<polygon fill="white" stroke="black" points="434,-441 434,-471 654,-471 654,-441 434,-441"/>
<text text-anchor="start" x="442" y="-459" font-family="Helvetica,sans-Serif" font-size="10.00">commands.SetPenDashCommand.update</text>
<text text-anchor="middle" x="544" y="-448" font-family="Helvetica,sans-Serif" font-size="10.00">Turtle</text>
</a>
</g>
</g>
<!-- Node2&#45;&gt;Node21 -->
<g id="edge20" class="edge"><title>Node2&#45;&gt;Node21</title>
<path fill="none" stroke="midnightblue" d="M315.746,-627.501C332.119,-589.695 368.86,-517.674 424,-481 429.801,-477.142 436.083,-473.863 442.627,-471.078"/>
<polygon fill="midnightblue" stroke="midnightblue" points="312.5,-626.193 311.846,-636.767 318.951,-628.908 312.5,-626.193"/>
</g>
<!-- Node22 -->
<g id="node22" class="node"><title>Node22</title>
<g id="a_node22"><a xlink:href="../../dc/df3/classcommands_1_1_set_towards_command.html#ad82abd7dcaed57b3bdb3a4b87a91815a" target="_top" xlink:title="commands.SetTowardsCommand.update\lTurtle">
<polygon fill="white" stroke="black" points="436.5,-392 436.5,-422 651.5,-422 651.5,-392 436.5,-392"/>
<text text-anchor="start" x="444.5" y="-410" font-family="Helvetica,sans-Serif" font-size="10.00">commands.SetTowardsCommand.update</text>
<text text-anchor="middle" x="544" y="-399" font-family="Helvetica,sans-Serif" font-size="10.00">Turtle</text>
</a>
</g>
</g>
<!-- Node2&#45;&gt;Node22 -->
<g id="edge21" class="edge"><title>Node2&#45;&gt;Node22</title>
<path fill="none" stroke="midnightblue" d="M311.94,-627.007C324.306,-580.733 357.377,-481.892 424,-432 429.154,-428.14 434.769,-424.846 440.662,-422.036"/>
<polygon fill="midnightblue" stroke="midnightblue" points="308.519,-626.26 309.421,-636.816 315.299,-628.001 308.519,-626.26"/>
</g>
<!-- Node23 -->
<g id="node23" class="node"><title>Node23</title>
<g id="a_node23"><a xlink:href="../../d9/db5/classcommands_1_1_set_position_command.html#aba31c4887974831a6c0d9feac8316ee6" target="_top" xlink:title="commands.SetPositionCommand.update\lTurtle">
<polygon fill="white" stroke="black" points="436.5,-343 436.5,-373 651.5,-373 651.5,-343 436.5,-343"/>
<text text-anchor="start" x="444.5" y="-361" font-family="Helvetica,sans-Serif" font-size="10.00">commands.SetPositionCommand.update</text>
<text text-anchor="middle" x="544" y="-350" font-family="Helvetica,sans-Serif" font-size="10.00">Turtle</text>
</a>
</g>
</g>
<!-- Node2&#45;&gt;Node23 -->
<g id="edge22" class="edge"><title>Node2&#45;&gt;Node23</title>
<path fill="none" stroke="midnightblue" d="M309.314,-626.911C317.805,-573.195 345.495,-446.776 424,-383 428.752,-379.14 433.954,-375.833 439.444,-373.005"/>
<polygon fill="midnightblue" stroke="midnightblue" points="305.833,-626.527 307.823,-636.933 312.757,-627.558 305.833,-626.527"/>
</g>
<!-- Node24 -->
<g id="node24" class="node"><title>Node24</title>
<g id="a_node24"><a xlink:href="../../dd/db2/classcommands_1_1_right_command.html#ae16ecb0da3e0a2049a7382d74f315cb6" target="_top" xlink:title="commands.RightCommand.update\lTurtle">
<polygon fill="white" stroke="black" points="451.5,-294 451.5,-324 636.5,-324 636.5,-294 451.5,-294"/>
<text text-anchor="start" x="459.5" y="-312" font-family="Helvetica,sans-Serif" font-size="10.00">commands.RightCommand.update</text>
<text text-anchor="middle" x="544" y="-301" font-family="Helvetica,sans-Serif" font-size="10.00">Turtle</text>
</a>
</g>
</g>
<!-- Node2&#45;&gt;Node24 -->
<g id="edge23" class="edge"><title>Node2&#45;&gt;Node24</title>
<path fill="none" stroke="midnightblue" d="M307.444,-626.674C312.333,-566.077 333.501,-411.987 424,-334 431.996,-327.109 441.408,-321.957 451.378,-318.126"/>
<polygon fill="midnightblue" stroke="midnightblue" points="303.938,-626.635 306.708,-636.861 310.92,-627.14 303.938,-626.635"/>
</g>
<!-- Node25 -->
<g id="node25" class="node"><title>Node25</title>
<g id="a_node25"><a xlink:href="../../dc/db3/classcommands_1_1_set_heading_command.html#a064fae1a815349b9efc6bd43f2371339" target="_top" xlink:title="commands.SetHeadingCommand.update\lTurtle">
<polygon fill="white" stroke="black" points="435.5,-245 435.5,-275 652.5,-275 652.5,-245 435.5,-245"/>
<text text-anchor="start" x="443.5" y="-263" font-family="Helvetica,sans-Serif" font-size="10.00">commands.SetHeadingCommand.update</text>
<text text-anchor="middle" x="544" y="-252" font-family="Helvetica,sans-Serif" font-size="10.00">Turtle</text>
</a>
</g>
</g>
<!-- Node2&#45;&gt;Node25 -->
<g id="edge24" class="edge"><title>Node2&#45;&gt;Node25</title>
<path fill="none" stroke="midnightblue" d="M306.003,-626.982C307.452,-560.415 321.088,-377.728 424,-285 428.234,-281.185 432.899,-277.896 437.857,-275.065"/>
<polygon fill="midnightblue" stroke="midnightblue" points="302.503,-626.935 305.861,-636.984 309.502,-627.034 302.503,-626.935"/>
</g>
<!-- Node26 -->
<g id="node26" class="node"><title>Node26</title>
<g id="a_node26"><a xlink:href="../../d2/dbb/classcommands_1_1_set_pen_size_command.html#aa8dbbb22c72842b2d6f50aa169a8404e" target="_top" xlink:title="commands.SetPenSizeCommand.update\lTurtle">
<polygon fill="white" stroke="black" points="436.5,-196 436.5,-226 651.5,-226 651.5,-196 436.5,-196"/>
<text text-anchor="start" x="444.5" y="-214" font-family="Helvetica,sans-Serif" font-size="10.00">commands.SetPenSizeCommand.update</text>
<text text-anchor="middle" x="544" y="-203" font-family="Helvetica,sans-Serif" font-size="10.00">Turtle</text>
</a>
</g>
</g>
<!-- Node2&#45;&gt;Node26 -->
<g id="edge25" class="edge"><title>Node2&#45;&gt;Node26</title>
<path fill="none" stroke="midnightblue" d="M309.716,-626.686C322.208,-545.048 365.224,-290.837 424,-236 428.091,-232.184 432.609,-228.89 437.424,-226.05"/>
<polygon fill="midnightblue" stroke="midnightblue" points="306.219,-626.403 308.189,-636.814 313.141,-627.448 306.219,-626.403"/>
</g>
<!-- Node27 -->
<g id="node27" class="node"><title>Node27</title>
<g id="a_node27"><a xlink:href="../../d5/d21/classcommands_1_1_set_pen_color_command.html#a69a9c0161b8910c8fecc5ace219aeeb8" target="_top" xlink:title="commands.SetPenColorCommand.update\lTurtle">
<polygon fill="white" stroke="black" points="434,-147 434,-177 654,-177 654,-147 434,-147"/>
<text text-anchor="start" x="442" y="-165" font-family="Helvetica,sans-Serif" font-size="10.00">commands.SetPenColorCommand.update</text>
<text text-anchor="middle" x="544" y="-154" font-family="Helvetica,sans-Serif" font-size="10.00">Turtle</text>
</a>
</g>
</g>
<!-- Node2&#45;&gt;Node27 -->
<g id="edge26" class="edge"><title>Node2&#45;&gt;Node27</title>
<path fill="none" stroke="midnightblue" d="M308.951,-626.359C319.619,-538.171 359.015,-249.346 424,-187 427.961,-183.2 432.344,-179.914 437.024,-177.077"/>
<polygon fill="midnightblue" stroke="midnightblue" points="305.446,-626.196 307.74,-636.54 312.397,-627.023 305.446,-626.196"/>
</g>
<!-- Node28 -->
<g id="node28" class="node"><title>Node28</title>
<g id="a_node28"><a xlink:href="../../dc/d65/classcommands_1_1_left_command.html#abd466facd4b16e1c04a6578b4bf8e203" target="_top" xlink:title="commands.LeftCommand.update\lTurtle">
<polygon fill="white" stroke="black" points="454.5,-98 454.5,-128 633.5,-128 633.5,-98 454.5,-98"/>
<text text-anchor="start" x="462.5" y="-116" font-family="Helvetica,sans-Serif" font-size="10.00">commands.LeftCommand.update</text>
<text text-anchor="middle" x="544" y="-105" font-family="Helvetica,sans-Serif" font-size="10.00">Turtle</text>
</a>
</g>
</g>
<!-- Node2&#45;&gt;Node28 -->
<g id="edge27" class="edge"><title>Node2&#45;&gt;Node28</title>
<path fill="none" stroke="midnightblue" d="M308.247,-626.776C317.094,-533.254 352.585,-208.099 424,-138 432.512,-129.645 443.063,-123.76 454.339,-119.662"/>
<polygon fill="midnightblue" stroke="midnightblue" points="304.76,-626.485 307.321,-636.765 311.73,-627.131 304.76,-626.485"/>
</g>
<!-- Node29 -->
<g id="node29" class="node"><title>Node29</title>
<g id="a_node29"><a xlink:href="../../d6/ddc/classcommands_1_1_backward_command.html#af0c4c6ac04bea1aa34b069a01c53888f" target="_top" xlink:title="commands.BackwardCommand.update\lTurtle">
<polygon fill="white" stroke="black" points="441,-49 441,-79 647,-79 647,-49 441,-49"/>
<text text-anchor="start" x="449" y="-67" font-family="Helvetica,sans-Serif" font-size="10.00">commands.BackwardCommand.update</text>
<text text-anchor="middle" x="544" y="-56" font-family="Helvetica,sans-Serif" font-size="10.00">Turtle</text>
</a>
</g>
</g>
<!-- Node2&#45;&gt;Node29 -->
<g id="edge28" class="edge"><title>Node2&#45;&gt;Node29</title>
<path fill="none" stroke="midnightblue" d="M307.711,-626.694C314.938,-527.497 346.248,-166.789 424,-89 429,-83.9981 434.728,-79.8772 440.91,-76.4923"/>
<polygon fill="midnightblue" stroke="midnightblue" points="304.199,-626.744 306.982,-636.967 311.181,-627.24 304.199,-626.744"/>
</g>
<!-- Node30 -->
<g id="node30" class="node"><title>Node30</title>
<g id="a_node30"><a xlink:href="../../da/d4f/classcommands_1_1_forward_command.html#afe19b644a8fe0d46f3dbf19aef135364" target="_top" xlink:title="commands.ForwardCommand.update\lTurtle">
<polygon fill="white" stroke="black" points="445,-0 445,-30 643,-30 643,-0 445,-0"/>
<text text-anchor="start" x="453" y="-18" font-family="Helvetica,sans-Serif" font-size="10.00">commands.ForwardCommand.update</text>
<text text-anchor="middle" x="544" y="-7" font-family="Helvetica,sans-Serif" font-size="10.00">Turtle</text>
</a>
</g>
</g>
<!-- Node2&#45;&gt;Node30 -->
<g id="edge29" class="edge"><title>Node2&#45;&gt;Node30</title>
<path fill="none" stroke="midnightblue" d="M307.26,-626.552C312.97,-521.808 339.902,-125.506 424,-40 429.995,-33.9044 437.072,-29.1118 444.738,-25.3624"/>
<polygon fill="midnightblue" stroke="midnightblue" points="303.75,-626.64 306.718,-636.811 310.74,-627.009 303.75,-626.64"/>
</g>
<!-- Node15 -->
<g id="node15" class="node"><title>Node15</title>
<g id="a_node15"><a xlink:href="../../d5/dad/classcommands_1_1_if_command.html#a0d92f20941c1e79cfb1e02e77f463e68" target="_top" xlink:title="commands.IfCommand.execute\lCommand">
<polygon fill="white" stroke="black" points="700,-735 700,-765 870,-765 870,-735 700,-735"/>
<text text-anchor="start" x="708" y="-753" font-family="Helvetica,sans-Serif" font-size="10.00">commands.IfCommand.execute</text>
<text text-anchor="middle" x="785" y="-742" font-family="Helvetica,sans-Serif" font-size="10.00">Command</text>
</a>
</g>
</g>
<!-- Node14&#45;&gt;Node15 -->
<g id="edge14" class="edge"><title>Node14&#45;&gt;Node15</title>
<path fill="none" stroke="midnightblue" d="M649.497,-750C666.273,-750 683.449,-750 699.675,-750"/>
<polygon fill="midnightblue" stroke="midnightblue" points="649.116,-746.5 639.116,-750 649.116,-753.5 649.116,-746.5"/>
</g>
</g>
</svg>
