<?xml version="1.0" encoding="UTF-8" standalone="no"?>
<!DOCTYPE svg PUBLIC "-//W3C//DTD SVG 1.1//EN"
 "http://www.w3.org/Graphics/SVG/1.1/DTD/svg11.dtd">
<!-- Generated by graphviz version 2.36.0 (20140111.2315)
 -->
<!-- Title: commands.Command.setParameters Pages: 1 -->
<svg width="1056pt" height="175pt"
 viewBox="0.00 0.00 1056.00 175.00" xmlns="http://www.w3.org/2000/svg" xmlns:xlink="http://www.w3.org/1999/xlink">
<g id="graph0" class="graph" transform="scale(1 1) rotate(0) translate(4 171)">
<title>commands.Command.setParameters</title>
<polygon fill="white" stroke="none" points="-4,4 -4,-171 1052,-171 1052,4 -4,4"/>
<!-- Node1 -->
<g id="node1" class="node"><title>Node1</title>
<polygon fill="#bfbfbf" stroke="black" points="0.5,-68.5 0.5,-87.5 197.5,-87.5 197.5,-68.5 0.5,-68.5"/>
<text text-anchor="middle" x="99" y="-75.5" font-family="Helvetica,sans-Serif" font-size="10.00">commands.Command.setParameters</text>
</g>
<!-- Node2 -->
<g id="node2" class="node"><title>Node2</title>
<g id="a_node2"><a xlink:href="../../d9/d35/classcommands_1_1_ask_command.html#ae4ba28c73ce0b5112e4032bd21a951f5" target="_top" xlink:title="commands.AskCommand.execute\lCommand">
<polygon fill="white" stroke="black" points="245,-137 245,-167 427,-167 427,-137 245,-137"/>
<text text-anchor="start" x="253" y="-155" font-family="Helvetica,sans-Serif" font-size="10.00">commands.AskCommand.execute</text>
<text text-anchor="middle" x="336" y="-144" font-family="Helvetica,sans-Serif" font-size="10.00">Command</text>
</a>
</g>
</g>
<!-- Node1&#45;&gt;Node2 -->
<g id="edge1" class="edge"><title>Node1&#45;&gt;Node2</title>
<path fill="none" stroke="midnightblue" d="M133.278,-91.3068C160.188,-101.79 199.189,-116.361 234,-127 245.488,-130.511 257.823,-133.885 269.789,-136.956"/>
<polygon fill="midnightblue" stroke="midnightblue" points="134.529,-88.0379 123.942,-87.6445 131.973,-94.5545 134.529,-88.0379"/>
</g>
<!-- Node3 -->
<g id="node3" class="node"><title>Node3</title>
<g id="a_node3"><a xlink:href="../../d5/dad/classcommands_1_1_if_command.html#a0d92f20941c1e79cfb1e02e77f463e68" target="_top" xlink:title="commands.IfCommand.execute\lCommand">
<polygon fill="white" stroke="black" points="251,-88 251,-118 421,-118 421,-88 251,-88"/>
<text text-anchor="start" x="259" y="-106" font-family="Helvetica,sans-Serif" font-size="10.00">commands.IfCommand.execute</text>
<text text-anchor="middle" x="336" y="-95" font-family="Helvetica,sans-Serif" font-size="10.00">Command</text>
</a>
</g>
</g>
<!-- Node1&#45;&gt;Node3 -->
<g id="edge2" class="edge"><title>Node1&#45;&gt;Node3</title>
<path fill="none" stroke="midnightblue" d="M199.492,-88.5842C216.559,-90.3999 234.146,-92.2708 250.765,-94.0388"/>
<polygon fill="midnightblue" stroke="midnightblue" points="199.828,-85.1003 189.514,-87.5227 199.087,-92.0611 199.828,-85.1003"/>
</g>
<!-- Node4 -->
<g id="node4" class="node"><title>Node4</title>
<g id="a_node4"><a xlink:href="../../db/d38/classcommands_1_1_ask_with_command.html#a5ee6a090e94729d84ef423a454d446eb" target="_top" xlink:title="commands.AskWithCommand.execute\lCommand">
<polygon fill="white" stroke="black" points="234.5,-39 234.5,-69 437.5,-69 437.5,-39 234.5,-39"/>
<text text-anchor="start" x="242.5" y="-57" font-family="Helvetica,sans-Serif" font-size="10.00">commands.AskWithCommand.execute</text>
<text text-anchor="middle" x="336" y="-46" font-family="Helvetica,sans-Serif" font-size="10.00">Command</text>
</a>
</g>
</g>
<!-- Node1&#45;&gt;Node4 -->
<g id="edge3" class="edge"><title>Node1&#45;&gt;Node4</title>
<path fill="none" stroke="midnightblue" d="M203.379,-67.4422C213.602,-66.3981 223.97,-65.3393 234.166,-64.2979"/>
<polygon fill="midnightblue" stroke="midnightblue" points="202.808,-63.9821 193.216,-68.4801 203.52,-70.9459 202.808,-63.9821"/>
</g>
<!-- Node5 -->
<g id="node5" class="node"><title>Node5</title>
<g id="a_node5"><a xlink:href="../../d6/d95/classparser_1_1_parser.html#a62065d5ce26384c5dc62d3bb3242cd6e" target="_top" xlink:title="parser.Parser.getCommand">
<polygon fill="white" stroke="black" points="262,-0.5 262,-19.5 410,-19.5 410,-0.5 262,-0.5"/>
<text text-anchor="middle" x="336" y="-7.5" font-family="Helvetica,sans-Serif" font-size="10.00">parser.Parser.getCommand</text>
</a>
</g>
</g>
<!-- Node1&#45;&gt;Node5 -->
<g id="edge4" class="edge"><title>Node1&#45;&gt;Node5</title>
<path fill="none" stroke="midnightblue" d="M132.688,-64.7494C159.554,-54.2352 198.787,-39.7353 234,-30 248.472,-25.9989 264.321,-22.4702 279.086,-19.5347"/>
<polygon fill="midnightblue" stroke="midnightblue" points="131.395,-61.4971 123.38,-68.4266 133.967,-68.0074 131.395,-61.4971"/>
</g>
<!-- Node6 -->
<g id="node6" class="node"><title>Node6</title>
<g id="a_node6"><a xlink:href="../../d6/d95/classparser_1_1_parser.html#aacbac8270cf4817504ddb495ba67863f" target="_top" xlink:title="parser.Parser.parseInput">
<polygon fill="white" stroke="black" points="495.5,-38.5 495.5,-57.5 628.5,-57.5 628.5,-38.5 495.5,-38.5"/>
<text text-anchor="middle" x="562" y="-45.5" font-family="Helvetica,sans-Serif" font-size="10.00">parser.Parser.parseInput</text>
</a>
</g>
</g>
<!-- Node5&#45;&gt;Node6 -->
<g id="edge5" class="edge"><title>Node5&#45;&gt;Node6</title>
<path fill="none" stroke="midnightblue" d="M403.468,-21.2759C435.695,-26.7429 473.982,-33.2381 504.741,-38.4561"/>
<polygon fill="midnightblue" stroke="midnightblue" points="403.68,-17.7619 393.236,-19.54 402.509,-24.6633 403.68,-17.7619"/>
</g>
<!-- Node9 -->
<g id="node9" class="node"><title>Node9</title>
<g id="a_node9"><a xlink:href="../../d6/d95/classparser_1_1_parser.html#a5746ee23ade69654bd86c83981eb1e25" target="_top" xlink:title="parser.Parser.makeListCommand">
<polygon fill="white" stroke="black" points="474,-0.5 474,-19.5 650,-19.5 650,-0.5 474,-0.5"/>
<text text-anchor="middle" x="562" y="-7.5" font-family="Helvetica,sans-Serif" font-size="10.00">parser.Parser.makeListCommand</text>
</a>
</g>
</g>
<!-- Node5&#45;&gt;Node9 -->
<g id="edge8" class="edge"><title>Node5&#45;&gt;Node9</title>
<path fill="none" stroke="midnightblue" d="M420.171,-3.45281C437.604,-3.20247 456.037,-3.18389 473.618,-3.39707"/>
<polygon fill="midnightblue" stroke="midnightblue" points="419.974,0.0444265 410.036,-3.62699 420.095,-6.95454 419.974,0.0444265"/>
</g>
<!-- Node7 -->
<g id="node7" class="node"><title>Node7</title>
<g id="a_node7"><a xlink:href="../../d9/df7/classcontroller_1_1_controller.html#afdfa7f9e9a3fb5f6b73a6b8e2b2be8b5" target="_top" xlink:title="controller.Controller.get\lInput">
<polygon fill="white" stroke="black" points="686,-33 686,-63 814,-63 814,-33 686,-33"/>
<text text-anchor="start" x="694" y="-51" font-family="Helvetica,sans-Serif" font-size="10.00">controller.Controller.get</text>
<text text-anchor="middle" x="750" y="-40" font-family="Helvetica,sans-Serif" font-size="10.00">Input</text>
</a>
</g>
</g>
<!-- Node6&#45;&gt;Node7 -->
<g id="edge6" class="edge"><title>Node6&#45;&gt;Node7</title>
<path fill="none" stroke="midnightblue" d="M638.749,-48C654.406,-48 670.74,-48 685.889,-48"/>
<polygon fill="midnightblue" stroke="midnightblue" points="638.577,-44.5001 628.577,-48 638.577,-51.5001 638.577,-44.5001"/>
</g>
<!-- Node8 -->
<g id="node8" class="node"><title>Node8</title>
<g id="a_node8"><a xlink:href="../../d3/dc7/classview_1_1controllers_1_1_pane_controller.html#a7e6154aecb60d8f3bcb056a11e842764" target="_top" xlink:title="view.controllers.PaneController.update">
<polygon fill="white" stroke="black" points="850,-38.5 850,-57.5 1048,-57.5 1048,-38.5 850,-38.5"/>
<text text-anchor="middle" x="949" y="-45.5" font-family="Helvetica,sans-Serif" font-size="10.00">view.controllers.PaneController.update</text>
</a>
</g>
</g>
<!-- Node7&#45;&gt;Node8 -->
<g id="edge7" class="edge"><title>Node7&#45;&gt;Node8</title>
<path fill="none" stroke="midnightblue" d="M824.166,-48C832.501,-48 841.097,-48 849.69,-48"/>
<polygon fill="midnightblue" stroke="midnightblue" points="824.145,-44.5001 814.145,-48 824.145,-51.5001 824.145,-44.5001"/>
</g>
<!-- Node9&#45;&gt;Node5 -->
<g id="edge9" class="edge"><title>Node9&#45;&gt;Node5</title>
<path fill="none" stroke="midnightblue" d="M463.432,-16.6999C445.509,-16.8249 427.085,-16.7159 410.036,-16.373"/>
<polygon fill="midnightblue" stroke="midnightblue" points="463.652,-20.1981 473.618,-16.6029 463.585,-13.1984 463.652,-20.1981"/>
</g>
</g>
</svg>
