<?xml version="1.0" encoding="UTF-8" standalone="no"?>
<!DOCTYPE svg PUBLIC "-//W3C//DTD SVG 1.1//EN"
 "http://www.w3.org/Graphics/SVG/1.1/DTD/svg11.dtd">
<!-- Generated by graphviz version 2.36.0 (20140111.2315)
 -->
<!-- Title: commands.Command.getClassName Pages: 1 -->
<svg width="844pt" height="131pt"
 viewBox="0.00 0.00 844.00 131.00" xmlns="http://www.w3.org/2000/svg" xmlns:xlink="http://www.w3.org/1999/xlink">
<g id="graph0" class="graph" transform="scale(1 1) rotate(0) translate(4 127)">
<title>commands.Command.getClassName</title>
<polygon fill="white" stroke="none" points="-4,4 -4,-127 840,-127 840,4 -4,4"/>
<!-- Node1 -->
<g id="node1" class="node"><title>Node1</title>
<polygon fill="#bfbfbf" stroke="black" points="0.5,-49.5 0.5,-68.5 197.5,-68.5 197.5,-49.5 0.5,-49.5"/>
<text text-anchor="middle" x="99" y="-56.5" font-family="Helvetica,sans-Serif" font-size="10.00">commands.Command.getClassName</text>
</g>
<!-- Node2 -->
<g id="node2" class="node"><title>Node2</title>
<g id="a_node2"><a xlink:href="../../dc/d1e/classcommands_1_1_make_user_instruction_command.html#a48f002dce2435b1da4d1ce961b8c9499" target="_top" xlink:title="commands.MakeUserInstruction\lCommand.executeCommand">
<polygon fill="white" stroke="black" points="250,-93 250,-123 422,-123 422,-93 250,-93"/>
<text text-anchor="start" x="258" y="-111" font-family="Helvetica,sans-Serif" font-size="10.00">commands.MakeUserInstruction</text>
<text text-anchor="middle" x="336" y="-100" font-family="Helvetica,sans-Serif" font-size="10.00">Command.executeCommand</text>
</a>
</g>
</g>
<!-- Node1&#45;&gt;Node2 -->
<g id="edge1" class="edge"><title>Node1&#45;&gt;Node2</title>
<path fill="none" stroke="midnightblue" d="M155.664,-70.6066C187.68,-77.2822 228.261,-85.7438 262.719,-92.9287"/>
<polygon fill="midnightblue" stroke="midnightblue" points="156.093,-67.1208 145.589,-68.5058 154.664,-73.9734 156.093,-67.1208"/>
</g>
<!-- Node3 -->
<g id="node3" class="node"><title>Node3</title>
<g id="a_node3"><a xlink:href="../../dd/de4/classcommands_1_1_custom_command.html#a5ad25438a49d3e4eeba835fefe8b730a" target="_top" xlink:title="commands.CustomCommand.execute\lCommand">
<polygon fill="white" stroke="black" points="234.5,-44 234.5,-74 437.5,-74 437.5,-44 234.5,-44"/>
<text text-anchor="start" x="242.5" y="-62" font-family="Helvetica,sans-Serif" font-size="10.00">commands.CustomCommand.execute</text>
<text text-anchor="middle" x="336" y="-51" font-family="Helvetica,sans-Serif" font-size="10.00">Command</text>
</a>
</g>
</g>
<!-- Node1&#45;&gt;Node3 -->
<g id="edge2" class="edge"><title>Node1&#45;&gt;Node3</title>
<path fill="none" stroke="midnightblue" d="M207.891,-59C216.679,-59 225.539,-59 234.274,-59"/>
<polygon fill="midnightblue" stroke="midnightblue" points="207.62,-55.5001 197.62,-59 207.62,-62.5001 207.62,-55.5001"/>
</g>
<!-- Node4 -->
<g id="node4" class="node"><title>Node4</title>
<g id="a_node4"><a xlink:href="../../d6/d95/classparser_1_1_parser.html#aacbac8270cf4817504ddb495ba67863f" target="_top" xlink:title="parser.Parser.parseInput">
<polygon fill="white" stroke="black" points="269.5,-5.5 269.5,-24.5 402.5,-24.5 402.5,-5.5 269.5,-5.5"/>
<text text-anchor="middle" x="336" y="-12.5" font-family="Helvetica,sans-Serif" font-size="10.00">parser.Parser.parseInput</text>
</a>
</g>
</g>
<!-- Node1&#45;&gt;Node4 -->
<g id="edge3" class="edge"><title>Node1&#45;&gt;Node4</title>
<path fill="none" stroke="midnightblue" d="M160.976,-47.5832C199.218,-40.423 247.947,-31.2993 284.108,-24.5287"/>
<polygon fill="midnightblue" stroke="midnightblue" points="160.177,-44.172 150.992,-49.4527 161.465,-51.0524 160.177,-44.172"/>
</g>
<!-- Node5 -->
<g id="node5" class="node"><title>Node5</title>
<g id="a_node5"><a xlink:href="../../d9/df7/classcontroller_1_1_controller.html#afdfa7f9e9a3fb5f6b73a6b8e2b2be8b5" target="_top" xlink:title="controller.Controller.get\lInput">
<polygon fill="white" stroke="black" points="474,-0 474,-30 602,-30 602,-0 474,-0"/>
<text text-anchor="start" x="482" y="-18" font-family="Helvetica,sans-Serif" font-size="10.00">controller.Controller.get</text>
<text text-anchor="middle" x="538" y="-7" font-family="Helvetica,sans-Serif" font-size="10.00">Input</text>
</a>
</g>
</g>
<!-- Node4&#45;&gt;Node5 -->
<g id="edge4" class="edge"><title>Node4&#45;&gt;Node5</title>
<path fill="none" stroke="midnightblue" d="M412.84,-15C432.989,-15 454.529,-15 473.916,-15"/>
<polygon fill="midnightblue" stroke="midnightblue" points="412.765,-11.5001 402.764,-15 412.764,-18.5001 412.765,-11.5001"/>
</g>
<!-- Node6 -->
<g id="node6" class="node"><title>Node6</title>
<g id="a_node6"><a xlink:href="../../d3/dc7/classview_1_1controllers_1_1_pane_controller.html#a7e6154aecb60d8f3bcb056a11e842764" target="_top" xlink:title="view.controllers.PaneController.update">
<polygon fill="white" stroke="black" points="638,-5.5 638,-24.5 836,-24.5 836,-5.5 638,-5.5"/>
<text text-anchor="middle" x="737" y="-12.5" font-family="Helvetica,sans-Serif" font-size="10.00">view.controllers.PaneController.update</text>
</a>
</g>
</g>
<!-- Node5&#45;&gt;Node6 -->
<g id="edge5" class="edge"><title>Node5&#45;&gt;Node6</title>
<path fill="none" stroke="midnightblue" d="M612.166,-15C620.501,-15 629.097,-15 637.69,-15"/>
<polygon fill="midnightblue" stroke="midnightblue" points="612.145,-11.5001 602.145,-15 612.145,-18.5001 612.145,-11.5001"/>
</g>
</g>
</svg>
