<?xml version="1.0" encoding="UTF-8" standalone="no"?>
<!DOCTYPE svg PUBLIC "-//W3C//DTD SVG 1.1//EN"
 "http://www.w3.org/Graphics/SVG/1.1/DTD/svg11.dtd">
<!-- Generated by graphviz version 2.36.0 (20140111.2315)
 -->
<!-- Title: commands.Command.executeCommand Pages: 1 -->
<svg width="1268pt" height="513pt"
 viewBox="0.00 0.00 1268.00 513.00" xmlns="http://www.w3.org/2000/svg" xmlns:xlink="http://www.w3.org/1999/xlink">
<g id="graph0" class="graph" transform="scale(1 1) rotate(0) translate(4 509)">
<title>commands.Command.executeCommand</title>
<polygon fill="white" stroke="none" points="-4,4 -4,-509 1264,-509 1264,4 -4,4"/>
<!-- Node1 -->
<g id="node1" class="node"><title>Node1</title>
<polygon fill="#bfbfbf" stroke="black" points="0.5,-387 0.5,-417 165.5,-417 165.5,-387 0.5,-387"/>
<text text-anchor="start" x="8.5" y="-405" font-family="Helvetica,sans-Serif" font-size="10.00">commands.Command.execute</text>
<text text-anchor="middle" x="83" y="-394" font-family="Helvetica,sans-Serif" font-size="10.00">Command</text>
</g>
<!-- Node2 -->
<g id="node2" class="node"><title>Node2</title>
<g id="a_node2"><a xlink:href="../../df/d50/classmodel_1_1_turtle_set_manager.html#a9a65c0be3b9c21abaf0ebaa54e5b8484" target="_top" xlink:title="model.TurtleSetManager.get\lActiveTurtles">
<polygon fill="white" stroke="black" points="688,-450 688,-480 840,-480 840,-450 688,-450"/>
<text text-anchor="start" x="696" y="-468" font-family="Helvetica,sans-Serif" font-size="10.00">model.TurtleSetManager.get</text>
<text text-anchor="middle" x="764" y="-457" font-family="Helvetica,sans-Serif" font-size="10.00">ActiveTurtles</text>
</a>
</g>
</g>
<!-- Node1&#45;&gt;Node2 -->
<g id="edge1" class="edge"><title>Node1&#45;&gt;Node2</title>
<path fill="none" stroke="midnightblue" d="M165.745,-416.85C177.874,-418.764 190.245,-420.556 202,-422 370.057,-442.639 567.732,-455.043 677.866,-460.901"/>
<polygon fill="midnightblue" stroke="midnightblue" points="677.751,-464.4 687.921,-461.431 678.119,-457.409 677.751,-464.4"/>
</g>
<!-- Node3 -->
<g id="node3" class="node"><title>Node3</title>
<g id="a_node3"><a xlink:href="../../d3/d42/classmodel_1_1_model.html#a1a683ba5e58fcb3c8882c8e61df20dc0" target="_top" xlink:title="model.Model.getTurtleManager">
<polygon fill="white" stroke="black" points="682,-411.5 682,-430.5 846,-430.5 846,-411.5 682,-411.5"/>
<text text-anchor="middle" x="764" y="-418.5" font-family="Helvetica,sans-Serif" font-size="10.00">model.Model.getTurtleManager</text>
</a>
</g>
</g>
<!-- Node1&#45;&gt;Node3 -->
<g id="edge2" class="edge"><title>Node1&#45;&gt;Node3</title>
<path fill="none" stroke="midnightblue" d="M165.566,-404.282C292.974,-407.848 538.389,-414.715 671.592,-418.442"/>
<polygon fill="midnightblue" stroke="midnightblue" points="671.676,-421.946 681.771,-418.727 671.872,-414.949 671.676,-421.946"/>
</g>
<!-- Node4 -->
<g id="node4" class="node"><title>Node4</title>
<g id="a_node4"><a xlink:href="../../d3/d42/classmodel_1_1_model.html#a76160d002c1e68b566307ac44356f6e5" target="_top" xlink:title="model.Model.notifyView">
<polygon fill="white" stroke="black" points="230.5,-373.5 230.5,-392.5 359.5,-392.5 359.5,-373.5 230.5,-373.5"/>
<text text-anchor="middle" x="295" y="-380.5" font-family="Helvetica,sans-Serif" font-size="10.00">model.Model.notifyView</text>
</a>
</g>
</g>
<!-- Node1&#45;&gt;Node4 -->
<g id="edge3" class="edge"><title>Node1&#45;&gt;Node4</title>
<path fill="none" stroke="midnightblue" d="M165.793,-394.6C183.699,-392.98 202.553,-391.274 220.128,-389.684"/>
<polygon fill="midnightblue" stroke="midnightblue" points="220.668,-393.149 230.312,-388.762 220.037,-386.178 220.668,-393.149"/>
</g>
<!-- Node33 -->
<g id="node33" class="node"><title>Node33</title>
<g id="a_node33"><a xlink:href="../../dd/dd6/classcommands_1_1_command.html#aec3e0f888945b1811fd739ecea212324" target="_top" xlink:title="commands.Command.updateTurtle">
<polygon fill="white" stroke="black" points="202,-335.5 202,-354.5 388,-354.5 388,-335.5 202,-335.5"/>
<text text-anchor="middle" x="295" y="-342.5" font-family="Helvetica,sans-Serif" font-size="10.00">commands.Command.updateTurtle</text>
</a>
</g>
</g>
<!-- Node1&#45;&gt;Node33 -->
<g id="edge39" class="edge"><title>Node1&#45;&gt;Node33</title>
<path fill="none" stroke="midnightblue" d="M126.826,-386.978C149.079,-379.487 176.817,-370.634 202,-364 211.92,-361.387 222.519,-358.91 232.865,-356.662"/>
<polygon fill="midnightblue" stroke="midnightblue" points="233.621,-360.079 242.675,-354.579 232.167,-353.232 233.621,-360.079"/>
</g>
<!-- Node5 -->
<g id="node5" class="node"><title>Node5</title>
<g id="a_node5"><a xlink:href="../../db/db5/classview_1_1panes_1_1_view_pane_module.html#aa2a1bf15bc036ee4237bf63749d85baf" target="_top" xlink:title="view.panes.ViewPaneModule.updateView">
<polygon fill="white" stroke="black" points="424.5,-244.5 424.5,-263.5 633.5,-263.5 633.5,-244.5 424.5,-244.5"/>
<text text-anchor="middle" x="529" y="-251.5" font-family="Helvetica,sans-Serif" font-size="10.00">view.panes.ViewPaneModule.updateView</text>
</a>
</g>
</g>
<!-- Node4&#45;&gt;Node5 -->
<g id="edge4" class="edge"><title>Node4&#45;&gt;Node5</title>
<path fill="none" stroke="midnightblue" d="M359.601,-373.891C369.356,-371.356 379.125,-368.122 388,-364 438.593,-340.501 487.429,-295.468 511.843,-270.94"/>
<polygon fill="midnightblue" stroke="midnightblue" points="514.387,-273.344 518.882,-263.75 509.385,-268.447 514.387,-273.344"/>
</g>
<!-- Node5&#45;&gt;Node2 -->
<g id="edge9" class="edge"><title>Node5&#45;&gt;Node2</title>
<path fill="none" stroke="midnightblue" d="M534.485,-263.902C549.117,-295.048 598.663,-391.812 670,-440 672.929,-441.978 676.008,-443.801 679.193,-445.479"/>
<polygon fill="midnightblue" stroke="midnightblue" points="677.875,-448.727 688.412,-449.838 680.867,-442.399 677.875,-448.727"/>
</g>
<!-- Node5&#45;&gt;Node3 -->
<g id="edge8" class="edge"><title>Node5&#45;&gt;Node3</title>
<path fill="none" stroke="midnightblue" d="M536.175,-263.786C553.598,-290.518 606.052,-365.162 670,-401 674.862,-403.725 680.059,-406.079 685.417,-408.113"/>
<polygon fill="midnightblue" stroke="midnightblue" points="684.605,-411.533 695.2,-411.438 686.858,-404.906 684.605,-411.533"/>
</g>
<!-- Node6 -->
<g id="node6" class="node"><title>Node6</title>
<g id="a_node6"><a xlink:href="../../d3/d42/classmodel_1_1_model.html#a54936407d7df5ab8ef3c0ae54bcdc0ed" target="_top" xlink:title="model.Model.getBackground\lColor">
<polygon fill="white" stroke="black" points="687,-264 687,-294 841,-294 841,-264 687,-264"/>
<text text-anchor="start" x="695" y="-282" font-family="Helvetica,sans-Serif" font-size="10.00">model.Model.getBackground</text>
<text text-anchor="middle" x="764" y="-271" font-family="Helvetica,sans-Serif" font-size="10.00">Color</text>
</a>
</g>
</g>
<!-- Node5&#45;&gt;Node6 -->
<g id="edge5" class="edge"><title>Node5&#45;&gt;Node6</title>
<path fill="none" stroke="midnightblue" d="M618.752,-263.523C637.72,-265.558 657.73,-267.705 676.608,-269.73"/>
<polygon fill="midnightblue" stroke="midnightblue" points="676.348,-273.223 686.664,-270.809 677.095,-266.263 676.348,-273.223"/>
</g>
<!-- Node7 -->
<g id="node7" class="node"><title>Node7</title>
<g id="a_node7"><a xlink:href="../../db/db5/classview_1_1panes_1_1_view_pane_module.html#ac94ee444587349ddad19b8caee500c9c" target="_top" xlink:title="view.panes.ViewPaneModule.update\lBGColor">
<polygon fill="white" stroke="black" points="670,-215 670,-245 858,-245 858,-215 670,-215"/>
<text text-anchor="start" x="678" y="-233" font-family="Helvetica,sans-Serif" font-size="10.00">view.panes.ViewPaneModule.update</text>
<text text-anchor="middle" x="764" y="-222" font-family="Helvetica,sans-Serif" font-size="10.00">BGColor</text>
</a>
</g>
</g>
<!-- Node5&#45;&gt;Node7 -->
<g id="edge6" class="edge"><title>Node5&#45;&gt;Node7</title>
<path fill="none" stroke="midnightblue" d="M622.422,-244.48C634.754,-243.21 647.461,-241.901 659.96,-240.614"/>
<polygon fill="midnightblue" stroke="midnightblue" points="660.338,-244.093 669.927,-239.587 659.621,-237.13 660.338,-244.093"/>
</g>
<!-- Node8 -->
<g id="node8" class="node"><title>Node8</title>
<g id="a_node8"><a xlink:href="../../db/db5/classview_1_1panes_1_1_view_pane_module.html#abe91f8bb732e99d762bdaba51ceae04b" target="_top" xlink:title="view.panes.ViewPaneModule.toRGB">
<polygon fill="white" stroke="black" points="672,-176.5 672,-195.5 856,-195.5 856,-176.5 672,-176.5"/>
<text text-anchor="middle" x="764" y="-183.5" font-family="Helvetica,sans-Serif" font-size="10.00">view.panes.ViewPaneModule.toRGB</text>
</a>
</g>
</g>
<!-- Node5&#45;&gt;Node8 -->
<g id="edge7" class="edge"><title>Node5&#45;&gt;Node8</title>
<path fill="none" stroke="midnightblue" d="M553.966,-244.496C581.597,-233.802 628.543,-216.433 670,-205 679.651,-202.338 689.959,-199.87 700.068,-197.653"/>
<polygon fill="midnightblue" stroke="midnightblue" points="701.027,-201.027 710.079,-195.522 699.57,-194.181 701.027,-201.027"/>
</g>
<!-- Node9 -->
<g id="node9" class="node"><title>Node9</title>
<g id="a_node9"><a xlink:href="../../df/d50/classmodel_1_1_turtle_set_manager.html#a9e215e93eccbed2ab9ebec6119cfe305" target="_top" xlink:title="model.TurtleSetManager.get\lAllTurtles">
<polygon fill="white" stroke="black" points="688,-127 688,-157 840,-157 840,-127 688,-127"/>
<text text-anchor="start" x="696" y="-145" font-family="Helvetica,sans-Serif" font-size="10.00">model.TurtleSetManager.get</text>
<text text-anchor="middle" x="764" y="-134" font-family="Helvetica,sans-Serif" font-size="10.00">AllTurtles</text>
</a>
</g>
</g>
<!-- Node5&#45;&gt;Node9 -->
<g id="edge10" class="edge"><title>Node5&#45;&gt;Node9</title>
<path fill="none" stroke="midnightblue" d="M542.796,-244.229C566.605,-226.475 619.858,-188.753 670,-167 675.637,-164.555 681.572,-162.296 687.603,-160.221"/>
<polygon fill="midnightblue" stroke="midnightblue" points="688.71,-163.542 697.131,-157.112 686.539,-156.887 688.71,-163.542"/>
</g>
<!-- Node10 -->
<g id="node10" class="node"><title>Node10</title>
<g id="a_node10"><a xlink:href="../../d3/d42/classmodel_1_1_model.html#af73e838aed2c068e8f7d31bfa1cc88d7" target="_top" xlink:title="model.Model.getStamp">
<polygon fill="white" stroke="black" points="699.5,-88.5 699.5,-107.5 828.5,-107.5 828.5,-88.5 699.5,-88.5"/>
<text text-anchor="middle" x="764" y="-95.5" font-family="Helvetica,sans-Serif" font-size="10.00">model.Model.getStamp</text>
</a>
</g>
</g>
<!-- Node5&#45;&gt;Node10 -->
<g id="edge11" class="edge"><title>Node5&#45;&gt;Node10</title>
<path fill="none" stroke="midnightblue" d="M536.59,-244.492C554.663,-219.21 607.824,-150.008 670,-117 676.063,-113.781 682.616,-111.107 689.338,-108.885"/>
<polygon fill="midnightblue" stroke="midnightblue" points="690.676,-112.139 699.27,-105.943 688.688,-105.427 690.676,-112.139"/>
</g>
<!-- Node11 -->
<g id="node11" class="node"><title>Node11</title>
<g id="a_node11"><a xlink:href="../../db/db5/classview_1_1panes_1_1_view_pane_module.html#a44db6ae832af3ce470baa9406142b8cb" target="_top" xlink:title="view.panes.ViewPaneModule.make\lStamps">
<polygon fill="white" stroke="black" points="673.5,-39 673.5,-69 854.5,-69 854.5,-39 673.5,-39"/>
<text text-anchor="start" x="681.5" y="-57" font-family="Helvetica,sans-Serif" font-size="10.00">view.panes.ViewPaneModule.make</text>
<text text-anchor="middle" x="764" y="-46" font-family="Helvetica,sans-Serif" font-size="10.00">Stamps</text>
</a>
</g>
</g>
<!-- Node5&#45;&gt;Node11 -->
<g id="edge12" class="edge"><title>Node5&#45;&gt;Node11</title>
<path fill="none" stroke="midnightblue" d="M534.868,-244.27C550.262,-214.536 600.974,-124.158 670,-79 673.122,-76.9577 676.406,-75.0815 679.8,-73.358"/>
<polygon fill="midnightblue" stroke="midnightblue" points="681.372,-76.488 689.007,-69.143 678.458,-70.1233 681.372,-76.488"/>
</g>
<!-- Node18 -->
<g id="node18" class="node"><title>Node18</title>
<g id="a_node18"><a xlink:href="../../d3/d42/classmodel_1_1_model.html#a0a457f31350a460e11dc864463e0d8ff" target="_top" xlink:title="model.Model.setStamp">
<polygon fill="white" stroke="black" points="700,-0.5 700,-19.5 828,-19.5 828,-0.5 700,-0.5"/>
<text text-anchor="middle" x="764" y="-7.5" font-family="Helvetica,sans-Serif" font-size="10.00">model.Model.setStamp</text>
</a>
</g>
</g>
<!-- Node5&#45;&gt;Node18 -->
<g id="edge19" class="edge"><title>Node5&#45;&gt;Node18</title>
<path fill="none" stroke="midnightblue" d="M532.896,-244.385C544.036,-209.166 587.671,-86.28 670,-29 676.045,-24.7942 682.814,-21.4778 689.869,-18.8684"/>
<polygon fill="midnightblue" stroke="midnightblue" points="691.177,-22.1242 699.626,-15.7312 689.034,-15.4602 691.177,-22.1242"/>
</g>
<!-- Node19 -->
<g id="node19" class="node"><title>Node19</title>
<g id="a_node19"><a xlink:href="../../db/db5/classview_1_1panes_1_1_view_pane_module.html#a7ad9ad27137ffdf0ea96753a22da236b" target="_top" xlink:title="view.panes.ViewPaneModule.erase\lStamps">
<polygon fill="white" stroke="black" points="673.5,-362 673.5,-392 854.5,-392 854.5,-362 673.5,-362"/>
<text text-anchor="start" x="681.5" y="-380" font-family="Helvetica,sans-Serif" font-size="10.00">view.panes.ViewPaneModule.erase</text>
<text text-anchor="middle" x="764" y="-369" font-family="Helvetica,sans-Serif" font-size="10.00">Stamps</text>
</a>
</g>
</g>
<!-- Node5&#45;&gt;Node19 -->
<g id="edge20" class="edge"><title>Node5&#45;&gt;Node19</title>
<path fill="none" stroke="midnightblue" d="M540.783,-263.574C563.234,-283.026 617.306,-327.407 670,-352 675.241,-354.446 680.764,-356.688 686.397,-358.735"/>
<polygon fill="midnightblue" stroke="midnightblue" points="685.355,-362.078 695.949,-362 687.619,-355.454 685.355,-362.078"/>
</g>
<!-- Node21 -->
<g id="node21" class="node"><title>Node21</title>
<g id="a_node21"><a xlink:href="../../db/db5/classview_1_1panes_1_1_view_pane_module.html#ab55ce3511929b88a2cd1235eb694868f" target="_top" xlink:title="view.panes.ViewPaneModule.update\lTurtle">
<polygon fill="white" stroke="black" points="670,-313 670,-343 858,-343 858,-313 670,-313"/>
<text text-anchor="start" x="678" y="-331" font-family="Helvetica,sans-Serif" font-size="10.00">view.panes.ViewPaneModule.update</text>
<text text-anchor="middle" x="764" y="-320" font-family="Helvetica,sans-Serif" font-size="10.00">Turtle</text>
</a>
</g>
</g>
<!-- Node5&#45;&gt;Node21 -->
<g id="edge22" class="edge"><title>Node5&#45;&gt;Node21</title>
<path fill="none" stroke="midnightblue" d="M555.359,-263.512C583.261,-273.829 629.527,-290.496 670,-303 677.922,-305.447 686.265,-307.885 694.568,-310.224"/>
<polygon fill="midnightblue" stroke="midnightblue" points="693.698,-313.615 704.27,-312.92 695.572,-306.871 693.698,-313.615"/>
</g>
<!-- Node12 -->
<g id="node12" class="node"><title>Node12</title>
<g id="a_node12"><a xlink:href="../../d7/da6/classview_1_1_turtle_draw.html#a939f4fdbdb66457c9dcee82eb4ae6d9c" target="_top" xlink:title="view.TurtleDraw.drawTurtle">
<polygon fill="white" stroke="black" points="902.5,-67.5 902.5,-86.5 1041.5,-86.5 1041.5,-67.5 902.5,-67.5"/>
<text text-anchor="middle" x="972" y="-74.5" font-family="Helvetica,sans-Serif" font-size="10.00">view.TurtleDraw.drawTurtle</text>
</a>
</g>
</g>
<!-- Node11&#45;&gt;Node12 -->
<g id="edge13" class="edge"><title>Node11&#45;&gt;Node12</title>
<path fill="none" stroke="midnightblue" d="M854.755,-64.0212C867.207,-65.4115 879.921,-66.831 892.154,-68.1968"/>
<polygon fill="midnightblue" stroke="midnightblue" points="891.973,-71.6983 902.3,-69.3296 892.75,-64.7415 891.973,-71.6983"/>
</g>
<!-- Node15 -->
<g id="node15" class="node"><title>Node15</title>
<g id="a_node15"><a xlink:href="../../d7/da6/classview_1_1_turtle_draw.html#a14678068d3fc9d3b6e1067bc372f6030" target="_top" xlink:title="view.TurtleDraw.showTurtle">
<polygon fill="white" stroke="black" points="902,-29.5 902,-48.5 1042,-48.5 1042,-29.5 902,-29.5"/>
<text text-anchor="middle" x="972" y="-36.5" font-family="Helvetica,sans-Serif" font-size="10.00">view.TurtleDraw.showTurtle</text>
</a>
</g>
</g>
<!-- Node11&#45;&gt;Node15 -->
<g id="edge16" class="edge"><title>Node11&#45;&gt;Node15</title>
<path fill="none" stroke="midnightblue" d="M854.755,-47.4644C867.122,-46.5639 879.748,-45.6445 891.904,-44.7594"/>
<polygon fill="midnightblue" stroke="midnightblue" points="892.269,-48.2422 901.989,-44.0251 891.761,-41.2607 892.269,-48.2422"/>
</g>
<!-- Node16 -->
<g id="node16" class="node"><title>Node16</title>
<g id="a_node16"><a xlink:href="../../d7/da6/classview_1_1_turtle_draw.html#a8c2cab38eb294b26aea1ae17595ba2a6" target="_top" xlink:title="view.TurtleDraw.moveTurtle">
<polygon fill="white" stroke="black" points="900.5,-143.5 900.5,-162.5 1043.5,-162.5 1043.5,-143.5 900.5,-143.5"/>
<text text-anchor="middle" x="972" y="-150.5" font-family="Helvetica,sans-Serif" font-size="10.00">view.TurtleDraw.moveTurtle</text>
</a>
</g>
</g>
<!-- Node11&#45;&gt;Node16 -->
<g id="edge17" class="edge"><title>Node11&#45;&gt;Node16</title>
<path fill="none" stroke="midnightblue" d="M840.8,-69.1906C846.89,-71.9348 852.72,-75.1748 858,-79 881.66,-96.1392 870.164,-117.106 894,-134 896.838,-136.012 899.866,-137.811 903.019,-139.421"/>
<polygon fill="midnightblue" stroke="midnightblue" points="901.619,-142.629 912.18,-143.474 904.451,-136.227 901.619,-142.629"/>
</g>
<!-- Node17 -->
<g id="node17" class="node"><title>Node17</title>
<g id="a_node17"><a xlink:href="../../d7/da6/classview_1_1_turtle_draw.html#a5004a16526a67f090d7da45474b5136e" target="_top" xlink:title="view.TurtleDraw.setAngle">
<polygon fill="white" stroke="black" points="905.5,-105.5 905.5,-124.5 1038.5,-124.5 1038.5,-105.5 905.5,-105.5"/>
<text text-anchor="middle" x="972" y="-112.5" font-family="Helvetica,sans-Serif" font-size="10.00">view.TurtleDraw.setAngle</text>
</a>
</g>
</g>
<!-- Node11&#45;&gt;Node17 -->
<g id="edge18" class="edge"><title>Node11&#45;&gt;Node17</title>
<path fill="none" stroke="midnightblue" d="M827.016,-69.0126C837.459,-72.0119 848.112,-75.3695 858,-79 874.61,-85.0988 877.328,-90.0733 894,-96 901.036,-98.5012 908.547,-100.795 916.016,-102.858"/>
<polygon fill="midnightblue" stroke="midnightblue" points="915.204,-106.264 925.766,-105.434 916.992,-99.4958 915.204,-106.264"/>
</g>
<!-- Node13 -->
<g id="node13" class="node"><title>Node13</title>
<g id="a_node13"><a xlink:href="../../d6/d34/classmodel_1_1_turtle.html#a942dbeb1d7e2bc19b6870538c2c3a7d2" target="_top" xlink:title="model.Turtle.getShape">
<polygon fill="white" stroke="black" points="1110.5,-89.5 1110.5,-108.5 1235.5,-108.5 1235.5,-89.5 1110.5,-89.5"/>
<text text-anchor="middle" x="1173" y="-96.5" font-family="Helvetica,sans-Serif" font-size="10.00">model.Turtle.getShape</text>
</a>
</g>
</g>
<!-- Node12&#45;&gt;Node13 -->
<g id="edge14" class="edge"><title>Node12&#45;&gt;Node13</title>
<path fill="none" stroke="midnightblue" d="M1041.76,-84.602C1060.62,-86.6865 1081.11,-88.9515 1100.13,-91.0547"/>
<polygon fill="midnightblue" stroke="midnightblue" points="1099.91,-94.5509 1110.23,-92.1711 1100.67,-87.5933 1099.91,-94.5509"/>
</g>
<!-- Node14 -->
<g id="node14" class="node"><title>Node14</title>
<g id="a_node14"><a xlink:href="../../d3/db7/classview_1_1controllers_1_1_image_palette.html#a8a6620714bc12d5a00b97e99299a7040" target="_top" xlink:title="view.controllers.ImagePalette.get\lImage">
<polygon fill="white" stroke="black" points="1086,-40 1086,-70 1260,-70 1260,-40 1086,-40"/>
<text text-anchor="start" x="1094" y="-58" font-family="Helvetica,sans-Serif" font-size="10.00">view.controllers.ImagePalette.get</text>
<text text-anchor="middle" x="1173" y="-47" font-family="Helvetica,sans-Serif" font-size="10.00">Image</text>
</a>
</g>
</g>
<!-- Node12&#45;&gt;Node14 -->
<g id="edge15" class="edge"><title>Node12&#45;&gt;Node14</title>
<path fill="none" stroke="midnightblue" d="M1041.76,-69.398C1052.71,-68.1877 1064.21,-66.9165 1075.65,-65.6514"/>
<polygon fill="midnightblue" stroke="midnightblue" points="1076.13,-69.1206 1085.68,-64.5429 1075.36,-62.163 1076.13,-69.1206"/>
</g>
<!-- Node20 -->
<g id="node20" class="node"><title>Node20</title>
<g id="a_node20"><a xlink:href="../../d7/da6/classview_1_1_turtle_draw.html#acb97dedda080cb5ed17031d2b31adc2c" target="_top" xlink:title="view.TurtleDraw.hideTurtle">
<polygon fill="white" stroke="black" points="903.5,-485.5 903.5,-504.5 1040.5,-504.5 1040.5,-485.5 903.5,-485.5"/>
<text text-anchor="middle" x="972" y="-492.5" font-family="Helvetica,sans-Serif" font-size="10.00">view.TurtleDraw.hideTurtle</text>
</a>
</g>
</g>
<!-- Node19&#45;&gt;Node20 -->
<g id="edge21" class="edge"><title>Node19&#45;&gt;Node20</title>
<path fill="none" stroke="midnightblue" d="M842.718,-392.164C848.184,-394.918 853.359,-398.167 858,-402 886.2,-425.29 865.56,-453.003 894,-476 896.258,-477.826 898.667,-479.48 901.187,-480.979"/>
<polygon fill="midnightblue" stroke="midnightblue" points="899.617,-484.107 910.12,-485.495 902.775,-477.86 899.617,-484.107"/>
</g>
<!-- Node21&#45;&gt;Node12 -->
<g id="edge24" class="edge"><title>Node21&#45;&gt;Node12</title>
<path fill="none" stroke="midnightblue" d="M846.139,-312.879C850.492,-310.093 854.505,-306.827 858,-303 920.979,-234.053 830.312,-164.292 894,-96 895.227,-94.6847 896.529,-93.4541 897.895,-92.303"/>
<polygon fill="midnightblue" stroke="midnightblue" points="900.055,-95.0665 906.349,-86.544 896.114,-89.2813 900.055,-95.0665"/>
</g>
<!-- Node21&#45;&gt;Node15 -->
<g id="edge25" class="edge"><title>Node21&#45;&gt;Node15</title>
<path fill="none" stroke="midnightblue" d="M846.256,-312.985C850.581,-310.173 854.555,-306.872 858,-303 931.151,-220.771 820.002,-139.468 894,-58 895.07,-56.8215 896.201,-55.7107 897.385,-54.6639"/>
<polygon fill="midnightblue" stroke="midnightblue" points="899.744,-57.2816 905.881,-48.6446 895.698,-51.5698 899.744,-57.2816"/>
</g>
<!-- Node21&#45;&gt;Node16 -->
<g id="edge38" class="edge"><title>Node21&#45;&gt;Node16</title>
<path fill="none" stroke="midnightblue" d="M844.857,-312.995C849.639,-310.193 854.088,-306.89 858,-303 900.815,-260.424 850.747,-214.131 894,-172 895.479,-170.559 897.05,-169.221 898.696,-167.98"/>
<polygon fill="midnightblue" stroke="midnightblue" points="900.816,-170.784 907.478,-162.546 897.133,-164.832 900.816,-170.784"/>
</g>
<!-- Node21&#45;&gt;Node17 -->
<g id="edge36" class="edge"><title>Node21&#45;&gt;Node17</title>
<path fill="none" stroke="midnightblue" d="M845.547,-312.99C850.103,-310.183 854.318,-306.881 858,-303 910.853,-247.284 840.574,-189.166 894,-134 895.251,-132.708 896.575,-131.498 897.961,-130.366"/>
<polygon fill="midnightblue" stroke="midnightblue" points="900.111,-133.14 906.505,-124.692 896.238,-127.309 900.111,-133.14"/>
</g>
<!-- Node21&#45;&gt;Node20 -->
<g id="edge26" class="edge"><title>Node21&#45;&gt;Node20</title>
<path fill="none" stroke="midnightblue" d="M846.504,-343.202C850.652,-345.72 854.53,-348.632 858,-352 899.183,-391.965 852.605,-436.254 894,-476 895.49,-477.43 897.069,-478.759 898.723,-479.991"/>
<polygon fill="midnightblue" stroke="midnightblue" points="897.182,-483.152 907.537,-485.394 900.84,-477.184 897.182,-483.152"/>
</g>
<!-- Node22 -->
<g id="node22" class="node"><title>Node22</title>
<g id="a_node22"><a xlink:href="../../d6/d34/classmodel_1_1_turtle.html#ae79a1eae7eed55d121c3b85299ae14ba" target="_top" xlink:title="model.Turtle.getID">
<polygon fill="white" stroke="black" points="920,-257.5 920,-276.5 1024,-276.5 1024,-257.5 920,-257.5"/>
<text text-anchor="middle" x="972" y="-264.5" font-family="Helvetica,sans-Serif" font-size="10.00">model.Turtle.getID</text>
</a>
</g>
</g>
<!-- Node21&#45;&gt;Node22 -->
<g id="edge23" class="edge"><title>Node21&#45;&gt;Node22</title>
<path fill="none" stroke="midnightblue" d="M827.016,-312.987C837.459,-309.988 848.112,-306.63 858,-303 874.61,-296.901 877.328,-291.927 894,-286 901.036,-283.499 908.547,-281.205 916.016,-279.142"/>
<polygon fill="midnightblue" stroke="midnightblue" points="916.992,-282.504 925.766,-276.566 915.204,-275.736 916.992,-282.504"/>
</g>
<!-- Node23 -->
<g id="node23" class="node"><title>Node23</title>
<g id="a_node23"><a xlink:href="../../d6/d34/classmodel_1_1_turtle.html#a279f2bdb3fa955acdd52b7824ec3cd04" target="_top" xlink:title="model.Turtle.getPenStatus">
<polygon fill="white" stroke="black" points="900.5,-219.5 900.5,-238.5 1043.5,-238.5 1043.5,-219.5 900.5,-219.5"/>
<text text-anchor="middle" x="972" y="-226.5" font-family="Helvetica,sans-Serif" font-size="10.00">model.Turtle.getPenStatus</text>
</a>
</g>
</g>
<!-- Node21&#45;&gt;Node23 -->
<g id="edge27" class="edge"><title>Node21&#45;&gt;Node23</title>
<path fill="none" stroke="midnightblue" d="M840.8,-312.809C846.89,-310.065 852.72,-306.825 858,-303 881.66,-285.861 870.164,-264.894 894,-248 896.838,-245.988 899.866,-244.189 903.019,-242.579"/>
<polygon fill="midnightblue" stroke="midnightblue" points="904.451,-245.773 912.18,-238.526 901.619,-239.371 904.451,-245.773"/>
</g>
<!-- Node25 -->
<g id="node25" class="node"><title>Node25</title>
<g id="a_node25"><a xlink:href="../../d7/da6/classview_1_1_turtle_draw.html#a1325ca376115619f15f5014eb4c5ad2a" target="_top" xlink:title="view.TurtleDraw.drawLine">
<polygon fill="white" stroke="black" points="905.5,-181.5 905.5,-200.5 1038.5,-200.5 1038.5,-181.5 905.5,-181.5"/>
<text text-anchor="middle" x="972" y="-188.5" font-family="Helvetica,sans-Serif" font-size="10.00">view.TurtleDraw.drawLine</text>
</a>
</g>
</g>
<!-- Node21&#45;&gt;Node25 -->
<g id="edge29" class="edge"><title>Node21&#45;&gt;Node25</title>
<path fill="none" stroke="midnightblue" d="M843.975,-312.777C849.026,-310.031 853.772,-306.799 858,-303 890.967,-273.376 860.728,-239.282 894,-210 895.764,-208.448 897.634,-207.018 899.59,-205.702"/>
<polygon fill="midnightblue" stroke="midnightblue" points="901.63,-208.57 908.638,-200.624 898.205,-202.465 901.63,-208.57"/>
</g>
<!-- Node26 -->
<g id="node26" class="node"><title>Node26</title>
<g id="a_node26"><a xlink:href="../../d6/d34/classmodel_1_1_turtle.html#a832234461564763f8330181b3c1163ff" target="_top" xlink:title="model.Turtle.getPrevLocation">
<polygon fill="white" stroke="black" points="894.5,-447.5 894.5,-466.5 1049.5,-466.5 1049.5,-447.5 894.5,-447.5"/>
<text text-anchor="middle" x="972" y="-454.5" font-family="Helvetica,sans-Serif" font-size="10.00">model.Turtle.getPrevLocation</text>
</a>
</g>
</g>
<!-- Node21&#45;&gt;Node26 -->
<g id="edge30" class="edge"><title>Node21&#45;&gt;Node26</title>
<path fill="none" stroke="midnightblue" d="M845.182,-343.19C849.766,-345.701 854.092,-348.617 858,-352 889.33,-379.118 862.526,-411.049 894,-438 895.968,-439.685 898.062,-441.225 900.253,-442.632"/>
<polygon fill="midnightblue" stroke="midnightblue" points="898.666,-445.752 909.127,-447.426 901.993,-439.593 898.666,-445.752"/>
</g>
<!-- Node27 -->
<g id="node27" class="node"><title>Node27</title>
<g id="a_node27"><a xlink:href="../../d6/d34/classmodel_1_1_turtle.html#a2470b9b4ef48a261324047de8ebdc242" target="_top" xlink:title="model.Turtle.getNewLocation">
<polygon fill="white" stroke="black" points="894.5,-409.5 894.5,-428.5 1049.5,-428.5 1049.5,-409.5 894.5,-409.5"/>
<text text-anchor="middle" x="972" y="-416.5" font-family="Helvetica,sans-Serif" font-size="10.00">model.Turtle.getNewLocation</text>
</a>
</g>
</g>
<!-- Node21&#45;&gt;Node27 -->
<g id="edge31" class="edge"><title>Node21&#45;&gt;Node27</title>
<path fill="none" stroke="midnightblue" d="M841.477,-343.106C847.286,-345.626 852.873,-348.568 858,-352 880.16,-366.835 871.762,-385.283 894,-400 897.111,-402.059 900.426,-403.895 903.867,-405.532"/>
<polygon fill="midnightblue" stroke="midnightblue" points="902.638,-408.811 913.216,-409.417 905.325,-402.347 902.638,-408.811"/>
</g>
<!-- Node28 -->
<g id="node28" class="node"><title>Node28</title>
<g id="a_node28"><a xlink:href="../../d6/d34/classmodel_1_1_turtle.html#a19c059b1cbfbd4e8f046ec2403de3fb9" target="_top" xlink:title="model.Turtle.getPenDash">
<polygon fill="white" stroke="black" points="903.5,-371.5 903.5,-390.5 1040.5,-390.5 1040.5,-371.5 903.5,-371.5"/>
<text text-anchor="middle" x="972" y="-378.5" font-family="Helvetica,sans-Serif" font-size="10.00">model.Turtle.getPenDash</text>
</a>
</g>
</g>
<!-- Node21&#45;&gt;Node28 -->
<g id="edge32" class="edge"><title>Node21&#45;&gt;Node28</title>
<path fill="none" stroke="midnightblue" d="M824.08,-343.072C835.352,-345.997 847.047,-349.066 858,-352 874.04,-356.297 877.937,-357.788 894,-362 902.901,-364.334 912.402,-366.744 921.583,-369.031"/>
<polygon fill="midnightblue" stroke="midnightblue" points="920.828,-372.45 931.376,-371.456 922.511,-365.655 920.828,-372.45"/>
</g>
<!-- Node30 -->
<g id="node30" class="node"><title>Node30</title>
<g id="a_node30"><a xlink:href="../../d6/d34/classmodel_1_1_turtle.html#a193c156784f783064ae533b619b6be6e" target="_top" xlink:title="model.Turtle.getPenColor">
<polygon fill="white" stroke="black" points="903.5,-333.5 903.5,-352.5 1040.5,-352.5 1040.5,-333.5 903.5,-333.5"/>
<text text-anchor="middle" x="972" y="-340.5" font-family="Helvetica,sans-Serif" font-size="10.00">model.Turtle.getPenColor</text>
</a>
</g>
</g>
<!-- Node21&#45;&gt;Node30 -->
<g id="edge34" class="edge"><title>Node21&#45;&gt;Node30</title>
<path fill="none" stroke="midnightblue" d="M858.056,-334.776C869.849,-335.635 881.817,-336.506 893.335,-337.345"/>
<polygon fill="midnightblue" stroke="midnightblue" points="893.097,-340.837 903.324,-338.072 893.605,-333.855 893.097,-340.837"/>
</g>
<!-- Node32 -->
<g id="node32" class="node"><title>Node32</title>
<g id="a_node32"><a xlink:href="../../d6/d34/classmodel_1_1_turtle.html#a1c5d07962ede5fbfacc59413274d4300" target="_top" xlink:title="model.Turtle.getHeading">
<polygon fill="white" stroke="black" points="905,-295.5 905,-314.5 1039,-314.5 1039,-295.5 905,-295.5"/>
<text text-anchor="middle" x="972" y="-302.5" font-family="Helvetica,sans-Serif" font-size="10.00">model.Turtle.getHeading</text>
</a>
</g>
</g>
<!-- Node21&#45;&gt;Node32 -->
<g id="edge37" class="edge"><title>Node21&#45;&gt;Node32</title>
<path fill="none" stroke="midnightblue" d="M858.056,-317.61C870.384,-316.234 882.904,-314.836 894.901,-313.496"/>
<polygon fill="midnightblue" stroke="midnightblue" points="895.29,-316.975 904.839,-312.387 894.513,-310.018 895.29,-316.975"/>
</g>
<!-- Node24 -->
<g id="node24" class="node"><title>Node24</title>
<g id="a_node24"><a xlink:href="../../de/ded/classmodel_1_1_pen.html#afad4fb3e51847cacab72c036ddaa108f" target="_top" xlink:title="model.Pen.getStatus">
<polygon fill="white" stroke="black" points="1114,-219.5 1114,-238.5 1232,-238.5 1232,-219.5 1114,-219.5"/>
<text text-anchor="middle" x="1173" y="-226.5" font-family="Helvetica,sans-Serif" font-size="10.00">model.Pen.getStatus</text>
</a>
</g>
</g>
<!-- Node23&#45;&gt;Node24 -->
<g id="edge28" class="edge"><title>Node23&#45;&gt;Node24</title>
<path fill="none" stroke="midnightblue" d="M1043.72,-229C1063.23,-229 1084.35,-229 1103.72,-229"/>
<polygon fill="midnightblue" stroke="midnightblue" points="1103.97,-232.5 1113.97,-229 1103.97,-225.5 1103.97,-232.5"/>
</g>
<!-- Node29 -->
<g id="node29" class="node"><title>Node29</title>
<g id="a_node29"><a xlink:href="../../de/ded/classmodel_1_1_pen.html#a6999f4af56377415621f193ef8600e27" target="_top" xlink:title="model.Pen.getDash">
<polygon fill="white" stroke="black" points="1117.5,-371.5 1117.5,-390.5 1228.5,-390.5 1228.5,-371.5 1117.5,-371.5"/>
<text text-anchor="middle" x="1173" y="-378.5" font-family="Helvetica,sans-Serif" font-size="10.00">model.Pen.getDash</text>
</a>
</g>
</g>
<!-- Node28&#45;&gt;Node29 -->
<g id="edge33" class="edge"><title>Node28&#45;&gt;Node29</title>
<path fill="none" stroke="midnightblue" d="M1040.65,-381C1062.15,-381 1085.86,-381 1107.15,-381"/>
<polygon fill="midnightblue" stroke="midnightblue" points="1107.39,-384.5 1117.39,-381 1107.39,-377.5 1107.39,-384.5"/>
</g>
<!-- Node31 -->
<g id="node31" class="node"><title>Node31</title>
<g id="a_node31"><a xlink:href="../../de/ded/classmodel_1_1_pen.html#a704af31474b10d17caf40773b7971826" target="_top" xlink:title="model.Pen.getPenColor">
<polygon fill="white" stroke="black" points="1108.5,-333.5 1108.5,-352.5 1237.5,-352.5 1237.5,-333.5 1108.5,-333.5"/>
<text text-anchor="middle" x="1173" y="-340.5" font-family="Helvetica,sans-Serif" font-size="10.00">model.Pen.getPenColor</text>
</a>
</g>
</g>
<!-- Node30&#45;&gt;Node31 -->
<g id="edge35" class="edge"><title>Node30&#45;&gt;Node31</title>
<path fill="none" stroke="midnightblue" d="M1040.65,-343C1059.18,-343 1079.36,-343 1098.21,-343"/>
<polygon fill="midnightblue" stroke="midnightblue" points="1098.23,-346.5 1108.23,-343 1098.23,-339.5 1098.23,-346.5"/>
</g>
</g>
</svg>
