<?xml version="1.0" encoding="UTF-8" standalone="no"?>
<!DOCTYPE svg PUBLIC "-//W3C//DTD SVG 1.1//EN"
 "http://www.w3.org/Graphics/SVG/1.1/DTD/svg11.dtd">
<!-- Generated by graphviz version 2.36.0 (20140111.2315)
 -->
<!-- Title: commands.Command.getParameter Pages: 1 -->
<svg width="442pt" height="87pt"
 viewBox="0.00 0.00 442.00 87.00" xmlns="http://www.w3.org/2000/svg" xmlns:xlink="http://www.w3.org/1999/xlink">
<g id="graph0" class="graph" transform="scale(1 1) rotate(0) translate(4 83)">
<title>commands.Command.getParameter</title>
<polygon fill="white" stroke="none" points="-4,4 -4,-83 438,-83 438,4 -4,4"/>
<!-- Node1 -->
<g id="node1" class="node"><title>Node1</title>
<polygon fill="#bfbfbf" stroke="black" points="0.5,-29.5 0.5,-48.5 193.5,-48.5 193.5,-29.5 0.5,-29.5"/>
<text text-anchor="middle" x="97" y="-36.5" font-family="Helvetica,sans-Serif" font-size="10.00">commands.Command.getParameter</text>
</g>
<!-- Node2 -->
<g id="node2" class="node"><title>Node2</title>
<g id="a_node2"><a xlink:href="../../dc/d1e/classcommands_1_1_make_user_instruction_command.html#a48f002dce2435b1da4d1ce961b8c9499" target="_top" xlink:title="commands.MakeUserInstruction\lCommand.executeCommand">
<polygon fill="white" stroke="black" points="246,-49 246,-79 418,-79 418,-49 246,-49"/>
<text text-anchor="start" x="254" y="-67" font-family="Helvetica,sans-Serif" font-size="10.00">commands.MakeUserInstruction</text>
<text text-anchor="middle" x="332" y="-56" font-family="Helvetica,sans-Serif" font-size="10.00">Command.executeCommand</text>
</a>
</g>
</g>
<!-- Node1&#45;&gt;Node2 -->
<g id="edge1" class="edge"><title>Node1&#45;&gt;Node2</title>
<path fill="none" stroke="midnightblue" d="M196.85,-49.6062C213.185,-51.359 229.995,-53.1625 245.953,-54.8748"/>
<polygon fill="midnightblue" stroke="midnightblue" points="197.068,-46.1096 186.752,-48.5227 196.321,-53.0697 197.068,-46.1096"/>
</g>
<!-- Node3 -->
<g id="node3" class="node"><title>Node3</title>
<g id="a_node3"><a xlink:href="../../dd/de4/classcommands_1_1_custom_command.html#a5ad25438a49d3e4eeba835fefe8b730a" target="_top" xlink:title="commands.CustomCommand.execute\lCommand">
<polygon fill="white" stroke="black" points="230.5,-0 230.5,-30 433.5,-30 433.5,-0 230.5,-0"/>
<text text-anchor="start" x="238.5" y="-18" font-family="Helvetica,sans-Serif" font-size="10.00">commands.CustomCommand.execute</text>
<text text-anchor="middle" x="332" y="-7" font-family="Helvetica,sans-Serif" font-size="10.00">Command</text>
</a>
</g>
</g>
<!-- Node1&#45;&gt;Node3 -->
<g id="edge2" class="edge"><title>Node1&#45;&gt;Node3</title>
<path fill="none" stroke="midnightblue" d="M200.617,-28.43C210.457,-27.4164 220.432,-26.389 230.254,-25.3773"/>
<polygon fill="midnightblue" stroke="midnightblue" points="200.011,-24.9738 190.422,-29.4801 200.728,-31.937 200.011,-24.9738"/>
</g>
</g>
</svg>
