<?xml version="1.0" encoding="UTF-8" standalone="no"?>
<!DOCTYPE svg PUBLIC "-//W3C//DTD SVG 1.1//EN"
 "http://www.w3.org/Graphics/SVG/1.1/DTD/svg11.dtd">
<!-- Generated by graphviz version 2.36.0 (20140111.2315)
 -->
<!-- Title: commands.Command.getFirstTurtle Pages: 1 -->
<svg width="432pt" height="381pt"
 viewBox="0.00 0.00 432.00 381.00" xmlns="http://www.w3.org/2000/svg" xmlns:xlink="http://www.w3.org/1999/xlink">
<g id="graph0" class="graph" transform="scale(1 1) rotate(0) translate(4 377)">
<title>commands.Command.getFirstTurtle</title>
<polygon fill="white" stroke="none" points="-4,4 -4,-377 428,-377 428,4 -4,4"/>
<!-- Node1 -->
<g id="node1" class="node"><title>Node1</title>
<polygon fill="#bfbfbf" stroke="black" points="0,-171 0,-201 162,-201 162,-171 0,-171"/>
<text text-anchor="start" x="8" y="-189" font-family="Helvetica,sans-Serif" font-size="10.00">commands.Command.getFirst</text>
<text text-anchor="middle" x="81" y="-178" font-family="Helvetica,sans-Serif" font-size="10.00">Turtle</text>
</g>
<!-- Node2 -->
<g id="node2" class="node"><title>Node2</title>
<g id="a_node2"><a xlink:href="../../df/d28/classcommands_1_1_y_coordinate_command.html#a53ce041f5df4b5e51b0bf982067a7f8e" target="_top" xlink:title="commands.YCoordinateCommand.execute\lCommand">
<polygon fill="white" stroke="black" points="200,-343 200,-373 422,-373 422,-343 200,-343"/>
<text text-anchor="start" x="208" y="-361" font-family="Helvetica,sans-Serif" font-size="10.00">commands.YCoordinateCommand.execute</text>
<text text-anchor="middle" x="311" y="-350" font-family="Helvetica,sans-Serif" font-size="10.00">Command</text>
</a>
</g>
</g>
<!-- Node1&#45;&gt;Node2 -->
<g id="edge1" class="edge"><title>Node1&#45;&gt;Node2</title>
<path fill="none" stroke="midnightblue" d="M94.2574,-210.338C112.28,-243.51 149.151,-302.294 198,-333 204.157,-336.87 210.834,-340.145 217.76,-342.915"/>
<polygon fill="midnightblue" stroke="midnightblue" points="97.2517,-208.513 89.4779,-201.315 91.0659,-211.79 97.2517,-208.513"/>
</g>
<!-- Node3 -->
<g id="node3" class="node"><title>Node3</title>
<g id="a_node3"><a xlink:href="../../da/dcf/classcommands_1_1_x_coordinate_command.html#a3e3312833c4c9d8ca0c99efd8e373a33" target="_top" xlink:title="commands.XCoordinateCommand.execute\lCommand">
<polygon fill="white" stroke="black" points="199.5,-294 199.5,-324 422.5,-324 422.5,-294 199.5,-294"/>
<text text-anchor="start" x="207.5" y="-312" font-family="Helvetica,sans-Serif" font-size="10.00">commands.XCoordinateCommand.execute</text>
<text text-anchor="middle" x="311" y="-301" font-family="Helvetica,sans-Serif" font-size="10.00">Command</text>
</a>
</g>
</g>
<!-- Node1&#45;&gt;Node3 -->
<g id="edge2" class="edge"><title>Node1&#45;&gt;Node3</title>
<path fill="none" stroke="midnightblue" d="M102.352,-208.671C123.892,-231.231 159.973,-265.134 198,-284 205.853,-287.896 214.315,-291.191 222.944,-293.977"/>
<polygon fill="midnightblue" stroke="midnightblue" points="104.752,-206.112 95.3607,-201.207 99.6429,-210.898 104.752,-206.112"/>
</g>
<!-- Node4 -->
<g id="node4" class="node"><title>Node4</title>
<g id="a_node4"><a xlink:href="../../d3/d1a/classcommands_1_1_heading_command.html#ac43dc3035aaa877f858022adf192d464" target="_top" xlink:title="commands.HeadingCommand.execute\lCommand">
<polygon fill="white" stroke="black" points="208.5,-245 208.5,-275 413.5,-275 413.5,-245 208.5,-245"/>
<text text-anchor="start" x="216.5" y="-263" font-family="Helvetica,sans-Serif" font-size="10.00">commands.HeadingCommand.execute</text>
<text text-anchor="middle" x="311" y="-252" font-family="Helvetica,sans-Serif" font-size="10.00">Command</text>
</a>
</g>
</g>
<!-- Node1&#45;&gt;Node4 -->
<g id="edge3" class="edge"><title>Node1&#45;&gt;Node4</title>
<path fill="none" stroke="midnightblue" d="M122.752,-205.342C144.689,-215.207 172.425,-226.818 198,-235 209.48,-238.673 221.789,-242.006 233.895,-244.955"/>
<polygon fill="midnightblue" stroke="midnightblue" points="123.972,-202.052 113.421,-201.094 121.072,-208.423 123.972,-202.052"/>
</g>
<!-- Node5 -->
<g id="node5" class="node"><title>Node5</title>
<g id="a_node5"><a xlink:href="../../de/d65/classcommands_1_1_is_showing_command.html#af2ed66a904379343ee62fe1650f79867" target="_top" xlink:title="commands.IsShowingCommand.execute\lCommand">
<polygon fill="white" stroke="black" points="205,-196 205,-226 417,-226 417,-196 205,-196"/>
<text text-anchor="start" x="213" y="-214" font-family="Helvetica,sans-Serif" font-size="10.00">commands.IsShowingCommand.execute</text>
<text text-anchor="middle" x="311" y="-203" font-family="Helvetica,sans-Serif" font-size="10.00">Command</text>
</a>
</g>
</g>
<!-- Node1&#45;&gt;Node5 -->
<g id="edge4" class="edge"><title>Node1&#45;&gt;Node5</title>
<path fill="none" stroke="midnightblue" d="M172.249,-195.896C182.979,-197.072 194.003,-198.281 204.918,-199.478"/>
<polygon fill="midnightblue" stroke="midnightblue" points="172.386,-192.39 162.064,-194.779 171.623,-199.348 172.386,-192.39"/>
</g>
<!-- Node6 -->
<g id="node6" class="node"><title>Node6</title>
<g id="a_node6"><a xlink:href="../../d8/dc0/classcommands_1_1_is_pen_down_command.html#ab3c897909c384a8b9917a2924f058561" target="_top" xlink:title="commands.IsPenDownCommand.execute\lCommand">
<polygon fill="white" stroke="black" points="202.5,-147 202.5,-177 419.5,-177 419.5,-147 202.5,-147"/>
<text text-anchor="start" x="210.5" y="-165" font-family="Helvetica,sans-Serif" font-size="10.00">commands.IsPenDownCommand.execute</text>
<text text-anchor="middle" x="311" y="-154" font-family="Helvetica,sans-Serif" font-size="10.00">Command</text>
</a>
</g>
</g>
<!-- Node1&#45;&gt;Node6 -->
<g id="edge5" class="edge"><title>Node1&#45;&gt;Node6</title>
<path fill="none" stroke="midnightblue" d="M172.202,-176.505C182.03,-175.471 192.104,-174.41 202.115,-173.356"/>
<polygon fill="midnightblue" stroke="midnightblue" points="171.642,-173.045 162.064,-177.572 172.375,-180.006 171.642,-173.045"/>
</g>
<!-- Node7 -->
<g id="node7" class="node"><title>Node7</title>
<g id="a_node7"><a xlink:href="../../d9/dce/classcommands_1_1_i_d_command.html#a2a8914f441564332596790a640ebca58" target="_top" xlink:title="commands.IDCommand.execute\lCommand">
<polygon fill="white" stroke="black" points="223.5,-98 223.5,-128 398.5,-128 398.5,-98 223.5,-98"/>
<text text-anchor="start" x="231.5" y="-116" font-family="Helvetica,sans-Serif" font-size="10.00">commands.IDCommand.execute</text>
<text text-anchor="middle" x="311" y="-105" font-family="Helvetica,sans-Serif" font-size="10.00">Command</text>
</a>
</g>
</g>
<!-- Node1&#45;&gt;Node7 -->
<g id="edge6" class="edge"><title>Node1&#45;&gt;Node7</title>
<path fill="none" stroke="midnightblue" d="M123.729,-166.68C145.526,-157.117 172.836,-145.949 198,-138 209.589,-134.339 222.014,-131.004 234.218,-128.046"/>
<polygon fill="midnightblue" stroke="midnightblue" points="122.159,-163.548 114.44,-170.805 125,-169.945 122.159,-163.548"/>
</g>
<!-- Node8 -->
<g id="node8" class="node"><title>Node8</title>
<g id="a_node8"><a xlink:href="../../df/d59/classcommands_1_1_get_shape_command.html#a0403bbf22c64cbc96b97787ea28259ce" target="_top" xlink:title="commands.GetShapeCommand.execute\lCommand">
<polygon fill="white" stroke="black" points="204.5,-49 204.5,-79 417.5,-79 417.5,-49 204.5,-49"/>
<text text-anchor="start" x="212.5" y="-67" font-family="Helvetica,sans-Serif" font-size="10.00">commands.GetShapeCommand.execute</text>
<text text-anchor="middle" x="311" y="-56" font-family="Helvetica,sans-Serif" font-size="10.00">Command</text>
</a>
</g>
</g>
<!-- Node1&#45;&gt;Node8 -->
<g id="edge7" class="edge"><title>Node1&#45;&gt;Node8</title>
<path fill="none" stroke="midnightblue" d="M102.399,-163.568C123.976,-141.243 160.087,-107.691 198,-89 205.863,-85.1238 214.331,-81.8416 222.965,-79.0636"/>
<polygon fill="midnightblue" stroke="midnightblue" points="99.7366,-161.289 95.3943,-170.953 104.815,-166.106 99.7366,-161.289"/>
</g>
<!-- Node9 -->
<g id="node9" class="node"><title>Node9</title>
<g id="a_node9"><a xlink:href="../../d7/d4f/classcommands_1_1_get_pen_color_command.html#a323244d5f0b999d912f8c2e0ae86d97a" target="_top" xlink:title="commands.GetPenColorCommand.execute\lCommand">
<polygon fill="white" stroke="black" points="198.5,-0 198.5,-30 423.5,-30 423.5,-0 198.5,-0"/>
<text text-anchor="start" x="206.5" y="-18" font-family="Helvetica,sans-Serif" font-size="10.00">commands.GetPenColorCommand.execute</text>
<text text-anchor="middle" x="311" y="-7" font-family="Helvetica,sans-Serif" font-size="10.00">Command</text>
</a>
</g>
</g>
<!-- Node1&#45;&gt;Node9 -->
<g id="edge8" class="edge"><title>Node1&#45;&gt;Node9</title>
<path fill="none" stroke="midnightblue" d="M94.3008,-161.827C112.374,-128.881 149.304,-70.4965 198,-40 204.163,-36.1403 210.845,-32.873 217.774,-30.1076"/>
<polygon fill="midnightblue" stroke="midnightblue" points="91.1376,-160.321 89.5067,-170.789 97.3099,-163.622 91.1376,-160.321"/>
</g>
</g>
</svg>
