<?xml version="1.0" encoding="UTF-8" standalone="no"?>
<!DOCTYPE svg PUBLIC "-//W3C//DTD SVG 1.1//EN"
 "http://www.w3.org/Graphics/SVG/1.1/DTD/svg11.dtd">
<!-- Generated by graphviz version 2.36.0 (20140111.2315)
 -->
<!-- Title: commands.Command.getNumParameters Pages: 1 -->
<svg width="1024pt" height="71pt"
 viewBox="0.00 0.00 1024.00 71.00" xmlns="http://www.w3.org/2000/svg" xmlns:xlink="http://www.w3.org/1999/xlink">
<g id="graph0" class="graph" transform="scale(1 1) rotate(0) translate(4 67)">
<title>commands.Command.getNumParameters</title>
<polygon fill="white" stroke="none" points="-4,4 -4,-67 1020,-67 1020,4 -4,4"/>
<!-- Node1 -->
<g id="node1" class="node"><title>Node1</title>
<polygon fill="#bfbfbf" stroke="black" points="0.5,-0.5 0.5,-19.5 221.5,-19.5 221.5,-0.5 0.5,-0.5"/>
<text text-anchor="middle" x="111" y="-7.5" font-family="Helvetica,sans-Serif" font-size="10.00">commands.Command.getNumParameters</text>
</g>
<!-- Node2 -->
<g id="node2" class="node"><title>Node2</title>
<g id="a_node2"><a xlink:href="../../d6/d95/classparser_1_1_parser.html#a62065d5ce26384c5dc62d3bb3242cd6e" target="_top" xlink:title="parser.Parser.getCommand">
<polygon fill="white" stroke="black" points="258,-0.5 258,-19.5 406,-19.5 406,-0.5 258,-0.5"/>
<text text-anchor="middle" x="332" y="-7.5" font-family="Helvetica,sans-Serif" font-size="10.00">parser.Parser.getCommand</text>
</a>
</g>
</g>
<!-- Node1&#45;&gt;Node2 -->
<g id="edge1" class="edge"><title>Node1&#45;&gt;Node2</title>
<path fill="none" stroke="midnightblue" d="M232.072,-10C240.78,-10 249.399,-10 257.704,-10"/>
<polygon fill="midnightblue" stroke="midnightblue" points="231.821,-6.5001 221.821,-10 231.821,-13.5001 231.821,-6.5001"/>
</g>
<!-- Node3 -->
<g id="node3" class="node"><title>Node3</title>
<g id="a_node3"><a xlink:href="../../d6/d95/classparser_1_1_parser.html#aacbac8270cf4817504ddb495ba67863f" target="_top" xlink:title="parser.Parser.parseInput">
<polygon fill="white" stroke="black" points="463.5,-38.5 463.5,-57.5 596.5,-57.5 596.5,-38.5 463.5,-38.5"/>
<text text-anchor="middle" x="530" y="-45.5" font-family="Helvetica,sans-Serif" font-size="10.00">parser.Parser.parseInput</text>
</a>
</g>
</g>
<!-- Node2&#45;&gt;Node3 -->
<g id="edge2" class="edge"><title>Node2&#45;&gt;Node3</title>
<path fill="none" stroke="midnightblue" d="M392.261,-21.4894C420.227,-26.9114 453.209,-33.3058 479.774,-38.4561"/>
<polygon fill="midnightblue" stroke="midnightblue" points="392.689,-18.0073 382.206,-19.54 391.357,-24.8794 392.689,-18.0073"/>
</g>
<!-- Node6 -->
<g id="node6" class="node"><title>Node6</title>
<g id="a_node6"><a xlink:href="../../d6/d95/classparser_1_1_parser.html#a5746ee23ade69654bd86c83981eb1e25" target="_top" xlink:title="parser.Parser.makeListCommand">
<polygon fill="white" stroke="black" points="442,-0.5 442,-19.5 618,-19.5 618,-0.5 442,-0.5"/>
<text text-anchor="middle" x="530" y="-7.5" font-family="Helvetica,sans-Serif" font-size="10.00">parser.Parser.makeListCommand</text>
</a>
</g>
</g>
<!-- Node2&#45;&gt;Node6 -->
<g id="edge5" class="edge"><title>Node2&#45;&gt;Node6</title>
<path fill="none" stroke="midnightblue" d="M416.459,-3.31649C424.892,-3.23886 433.472,-3.22921 441.942,-3.28754"/>
<polygon fill="midnightblue" stroke="midnightblue" points="416.217,0.180845 406.262,-3.4449 416.305,-6.8186 416.217,0.180845"/>
</g>
<!-- Node4 -->
<g id="node4" class="node"><title>Node4</title>
<g id="a_node4"><a xlink:href="../../d9/df7/classcontroller_1_1_controller.html#afdfa7f9e9a3fb5f6b73a6b8e2b2be8b5" target="_top" xlink:title="controller.Controller.get\lInput">
<polygon fill="white" stroke="black" points="654,-33 654,-63 782,-63 782,-33 654,-33"/>
<text text-anchor="start" x="662" y="-51" font-family="Helvetica,sans-Serif" font-size="10.00">controller.Controller.get</text>
<text text-anchor="middle" x="718" y="-40" font-family="Helvetica,sans-Serif" font-size="10.00">Input</text>
</a>
</g>
</g>
<!-- Node3&#45;&gt;Node4 -->
<g id="edge3" class="edge"><title>Node3&#45;&gt;Node4</title>
<path fill="none" stroke="midnightblue" d="M606.749,-48C622.406,-48 638.74,-48 653.889,-48"/>
<polygon fill="midnightblue" stroke="midnightblue" points="606.577,-44.5001 596.577,-48 606.577,-51.5001 606.577,-44.5001"/>
</g>
<!-- Node5 -->
<g id="node5" class="node"><title>Node5</title>
<g id="a_node5"><a xlink:href="../../d3/dc7/classview_1_1controllers_1_1_pane_controller.html#a7e6154aecb60d8f3bcb056a11e842764" target="_top" xlink:title="view.controllers.PaneController.update">
<polygon fill="white" stroke="black" points="818,-38.5 818,-57.5 1016,-57.5 1016,-38.5 818,-38.5"/>
<text text-anchor="middle" x="917" y="-45.5" font-family="Helvetica,sans-Serif" font-size="10.00">view.controllers.PaneController.update</text>
</a>
</g>
</g>
<!-- Node4&#45;&gt;Node5 -->
<g id="edge4" class="edge"><title>Node4&#45;&gt;Node5</title>
<path fill="none" stroke="midnightblue" d="M792.166,-48C800.501,-48 809.097,-48 817.69,-48"/>
<polygon fill="midnightblue" stroke="midnightblue" points="792.145,-44.5001 782.145,-48 792.145,-51.5001 792.145,-44.5001"/>
</g>
<!-- Node6&#45;&gt;Node2 -->
<g id="edge6" class="edge"><title>Node6&#45;&gt;Node2</title>
<path fill="none" stroke="midnightblue" d="M431.854,-16.7498C423.243,-16.7544 414.624,-16.6895 406.262,-16.5551"/>
<polygon fill="midnightblue" stroke="midnightblue" points="431.955,-20.2495 441.942,-16.7125 431.929,-13.2496 431.955,-20.2495"/>
</g>
</g>
</svg>
