<?xml version="1.0" encoding="UTF-8" standalone="no"?>
<!DOCTYPE svg PUBLIC "-//W3C//DTD SVG 1.1//EN"
 "http://www.w3.org/Graphics/SVG/1.1/DTD/svg11.dtd">
<!-- Generated by graphviz version 2.36.0 (20140111.2315)
 -->
<!-- Title: commands.SetHeadingCommand.updateTurtle Pages: 1 -->
<svg width="1522pt" height="513pt"
 viewBox="0.00 0.00 1522.00 513.00" xmlns="http://www.w3.org/2000/svg" xmlns:xlink="http://www.w3.org/1999/xlink">
<g id="graph0" class="graph" transform="scale(1 1) rotate(0) translate(4 509)">
<title>commands.SetHeadingCommand.updateTurtle</title>
<polygon fill="white" stroke="none" points="-4,4 -4,-509 1518,-509 1518,4 -4,4"/>
<!-- Node1 -->
<g id="node1" class="node"><title>Node1</title>
<polygon fill="#bfbfbf" stroke="black" points="0.5,-365 0.5,-395 217.5,-395 217.5,-365 0.5,-365"/>
<text text-anchor="start" x="8.5" y="-383" font-family="Helvetica,sans-Serif" font-size="10.00">commands.SetHeadingCommand.update</text>
<text text-anchor="middle" x="109" y="-372" font-family="Helvetica,sans-Serif" font-size="10.00">Turtle</text>
</g>
<!-- Node2 -->
<g id="node2" class="node"><title>Node2</title>
<g id="a_node2"><a xlink:href="../../dd/dd6/classcommands_1_1_command.html#abafa69601e87c34d4453cf84349d6f9c" target="_top" xlink:title="commands.Command.execute\lCommand">
<polygon fill="white" stroke="black" points="254.5,-387 254.5,-417 419.5,-417 419.5,-387 254.5,-387"/>
<text text-anchor="start" x="262.5" y="-405" font-family="Helvetica,sans-Serif" font-size="10.00">commands.Command.execute</text>
<text text-anchor="middle" x="337" y="-394" font-family="Helvetica,sans-Serif" font-size="10.00">Command</text>
</a>
</g>
</g>
<!-- Node1&#45;&gt;Node2 -->
<g id="edge1" class="edge"><title>Node1&#45;&gt;Node2</title>
<path fill="none" stroke="midnightblue" d="M217.705,-390.485C226.53,-391.344 235.398,-392.207 244.094,-393.053"/>
<polygon fill="midnightblue" stroke="midnightblue" points="243.917,-396.553 254.209,-394.038 244.595,-389.586 243.917,-396.553"/>
</g>
<!-- Node35 -->
<g id="node35" class="node"><title>Node35</title>
<g id="a_node35"><a xlink:href="../../d6/d34/classmodel_1_1_turtle.html#aee8b0206df9c97984b711cf6c50656d0" target="_top" xlink:title="model.Turtle.setHeading">
<polygon fill="white" stroke="black" points="270.5,-348.5 270.5,-367.5 403.5,-367.5 403.5,-348.5 270.5,-348.5"/>
<text text-anchor="middle" x="337" y="-355.5" font-family="Helvetica,sans-Serif" font-size="10.00">model.Turtle.setHeading</text>
</a>
</g>
</g>
<!-- Node1&#45;&gt;Node35 -->
<g id="edge41" class="edge"><title>Node1&#45;&gt;Node35</title>
<path fill="none" stroke="midnightblue" d="M217.705,-369.515C232.019,-368.122 246.447,-366.718 260.066,-365.392"/>
<polygon fill="midnightblue" stroke="midnightblue" points="260.695,-368.847 270.309,-364.395 260.017,-361.88 260.695,-368.847"/>
</g>
<!-- Node3 -->
<g id="node3" class="node"><title>Node3</title>
<g id="a_node3"><a xlink:href="../../df/d50/classmodel_1_1_turtle_set_manager.html#a9a65c0be3b9c21abaf0ebaa54e5b8484" target="_top" xlink:title="model.TurtleSetManager.get\lActiveTurtles">
<polygon fill="white" stroke="black" points="942,-450 942,-480 1094,-480 1094,-450 942,-450"/>
<text text-anchor="start" x="950" y="-468" font-family="Helvetica,sans-Serif" font-size="10.00">model.TurtleSetManager.get</text>
<text text-anchor="middle" x="1018" y="-457" font-family="Helvetica,sans-Serif" font-size="10.00">ActiveTurtles</text>
</a>
</g>
</g>
<!-- Node2&#45;&gt;Node3 -->
<g id="edge2" class="edge"><title>Node2&#45;&gt;Node3</title>
<path fill="none" stroke="midnightblue" d="M419.766,-416.049C431.892,-417.876 444.256,-419.596 456,-421 624.146,-441.097 821.789,-454.151 931.894,-460.486"/>
<polygon fill="midnightblue" stroke="midnightblue" points="931.763,-463.984 941.946,-461.06 932.162,-456.996 931.763,-463.984"/>
</g>
<!-- Node4 -->
<g id="node4" class="node"><title>Node4</title>
<g id="a_node4"><a xlink:href="../../d3/d42/classmodel_1_1_model.html#a1a683ba5e58fcb3c8882c8e61df20dc0" target="_top" xlink:title="model.Model.getTurtleManager">
<polygon fill="white" stroke="black" points="936,-411.5 936,-430.5 1100,-430.5 1100,-411.5 936,-411.5"/>
<text text-anchor="middle" x="1018" y="-418.5" font-family="Helvetica,sans-Serif" font-size="10.00">model.Model.getTurtleManager</text>
</a>
</g>
</g>
<!-- Node2&#45;&gt;Node4 -->
<g id="edge3" class="edge"><title>Node2&#45;&gt;Node4</title>
<path fill="none" stroke="midnightblue" d="M419.566,-404.282C546.974,-407.848 792.389,-414.715 925.592,-418.442"/>
<polygon fill="midnightblue" stroke="midnightblue" points="925.676,-421.946 935.771,-418.727 925.872,-414.949 925.676,-421.946"/>
</g>
<!-- Node5 -->
<g id="node5" class="node"><title>Node5</title>
<g id="a_node5"><a xlink:href="../../d3/d42/classmodel_1_1_model.html#a76160d002c1e68b566307ac44356f6e5" target="_top" xlink:title="model.Model.notifyView">
<polygon fill="white" stroke="black" points="484.5,-373.5 484.5,-392.5 613.5,-392.5 613.5,-373.5 484.5,-373.5"/>
<text text-anchor="middle" x="549" y="-380.5" font-family="Helvetica,sans-Serif" font-size="10.00">model.Model.notifyView</text>
</a>
</g>
</g>
<!-- Node2&#45;&gt;Node5 -->
<g id="edge4" class="edge"><title>Node2&#45;&gt;Node5</title>
<path fill="none" stroke="midnightblue" d="M419.793,-394.6C437.699,-392.98 456.553,-391.274 474.128,-389.684"/>
<polygon fill="midnightblue" stroke="midnightblue" points="474.668,-393.149 484.312,-388.762 474.037,-386.178 474.668,-393.149"/>
</g>
<!-- Node34 -->
<g id="node34" class="node"><title>Node34</title>
<g id="a_node34"><a xlink:href="../../dd/dd6/classcommands_1_1_command.html#aec3e0f888945b1811fd739ecea212324" target="_top" xlink:title="commands.Command.updateTurtle">
<polygon fill="white" stroke="black" points="456,-335.5 456,-354.5 642,-354.5 642,-335.5 456,-335.5"/>
<text text-anchor="middle" x="549" y="-342.5" font-family="Helvetica,sans-Serif" font-size="10.00">commands.Command.updateTurtle</text>
</a>
</g>
</g>
<!-- Node2&#45;&gt;Node34 -->
<g id="edge40" class="edge"><title>Node2&#45;&gt;Node34</title>
<path fill="none" stroke="midnightblue" d="M388.868,-386.929C399.201,-383.745 409.974,-380.336 420,-377 436.141,-371.629 439.628,-368.621 456,-364 465.418,-361.342 475.474,-358.886 485.354,-356.684"/>
<polygon fill="midnightblue" stroke="midnightblue" points="486.108,-360.101 495.143,-354.568 484.629,-353.259 486.108,-360.101"/>
</g>
<!-- Node6 -->
<g id="node6" class="node"><title>Node6</title>
<g id="a_node6"><a xlink:href="../../db/db5/classview_1_1panes_1_1_view_pane_module.html#aa2a1bf15bc036ee4237bf63749d85baf" target="_top" xlink:title="view.panes.ViewPaneModule.updateView">
<polygon fill="white" stroke="black" points="678.5,-244.5 678.5,-263.5 887.5,-263.5 887.5,-244.5 678.5,-244.5"/>
<text text-anchor="middle" x="783" y="-251.5" font-family="Helvetica,sans-Serif" font-size="10.00">view.panes.ViewPaneModule.updateView</text>
</a>
</g>
</g>
<!-- Node5&#45;&gt;Node6 -->
<g id="edge5" class="edge"><title>Node5&#45;&gt;Node6</title>
<path fill="none" stroke="midnightblue" d="M613.601,-373.891C623.356,-371.356 633.125,-368.122 642,-364 692.593,-340.501 741.429,-295.468 765.843,-270.94"/>
<polygon fill="midnightblue" stroke="midnightblue" points="768.387,-273.344 772.882,-263.75 763.385,-268.447 768.387,-273.344"/>
</g>
<!-- Node6&#45;&gt;Node3 -->
<g id="edge10" class="edge"><title>Node6&#45;&gt;Node3</title>
<path fill="none" stroke="midnightblue" d="M788.485,-263.902C803.117,-295.048 852.663,-391.812 924,-440 926.929,-441.978 930.008,-443.801 933.193,-445.479"/>
<polygon fill="midnightblue" stroke="midnightblue" points="931.875,-448.727 942.412,-449.838 934.867,-442.399 931.875,-448.727"/>
</g>
<!-- Node6&#45;&gt;Node4 -->
<g id="edge9" class="edge"><title>Node6&#45;&gt;Node4</title>
<path fill="none" stroke="midnightblue" d="M790.175,-263.786C807.598,-290.518 860.052,-365.162 924,-401 928.862,-403.725 934.059,-406.079 939.417,-408.113"/>
<polygon fill="midnightblue" stroke="midnightblue" points="938.605,-411.533 949.2,-411.438 940.858,-404.906 938.605,-411.533"/>
</g>
<!-- Node7 -->
<g id="node7" class="node"><title>Node7</title>
<g id="a_node7"><a xlink:href="../../d3/d42/classmodel_1_1_model.html#a54936407d7df5ab8ef3c0ae54bcdc0ed" target="_top" xlink:title="model.Model.getBackground\lColor">
<polygon fill="white" stroke="black" points="941,-264 941,-294 1095,-294 1095,-264 941,-264"/>
<text text-anchor="start" x="949" y="-282" font-family="Helvetica,sans-Serif" font-size="10.00">model.Model.getBackground</text>
<text text-anchor="middle" x="1018" y="-271" font-family="Helvetica,sans-Serif" font-size="10.00">Color</text>
</a>
</g>
</g>
<!-- Node6&#45;&gt;Node7 -->
<g id="edge6" class="edge"><title>Node6&#45;&gt;Node7</title>
<path fill="none" stroke="midnightblue" d="M872.752,-263.523C891.72,-265.558 911.73,-267.705 930.608,-269.73"/>
<polygon fill="midnightblue" stroke="midnightblue" points="930.348,-273.223 940.664,-270.809 931.095,-266.263 930.348,-273.223"/>
</g>
<!-- Node8 -->
<g id="node8" class="node"><title>Node8</title>
<g id="a_node8"><a xlink:href="../../db/db5/classview_1_1panes_1_1_view_pane_module.html#ac94ee444587349ddad19b8caee500c9c" target="_top" xlink:title="view.panes.ViewPaneModule.update\lBGColor">
<polygon fill="white" stroke="black" points="924,-215 924,-245 1112,-245 1112,-215 924,-215"/>
<text text-anchor="start" x="932" y="-233" font-family="Helvetica,sans-Serif" font-size="10.00">view.panes.ViewPaneModule.update</text>
<text text-anchor="middle" x="1018" y="-222" font-family="Helvetica,sans-Serif" font-size="10.00">BGColor</text>
</a>
</g>
</g>
<!-- Node6&#45;&gt;Node8 -->
<g id="edge7" class="edge"><title>Node6&#45;&gt;Node8</title>
<path fill="none" stroke="midnightblue" d="M876.422,-244.48C888.754,-243.21 901.461,-241.901 913.96,-240.614"/>
<polygon fill="midnightblue" stroke="midnightblue" points="914.338,-244.093 923.927,-239.587 913.621,-237.13 914.338,-244.093"/>
</g>
<!-- Node9 -->
<g id="node9" class="node"><title>Node9</title>
<g id="a_node9"><a xlink:href="../../db/db5/classview_1_1panes_1_1_view_pane_module.html#abe91f8bb732e99d762bdaba51ceae04b" target="_top" xlink:title="view.panes.ViewPaneModule.toRGB">
<polygon fill="white" stroke="black" points="926,-176.5 926,-195.5 1110,-195.5 1110,-176.5 926,-176.5"/>
<text text-anchor="middle" x="1018" y="-183.5" font-family="Helvetica,sans-Serif" font-size="10.00">view.panes.ViewPaneModule.toRGB</text>
</a>
</g>
</g>
<!-- Node6&#45;&gt;Node9 -->
<g id="edge8" class="edge"><title>Node6&#45;&gt;Node9</title>
<path fill="none" stroke="midnightblue" d="M807.966,-244.496C835.597,-233.802 882.543,-216.433 924,-205 933.651,-202.338 943.959,-199.87 954.068,-197.653"/>
<polygon fill="midnightblue" stroke="midnightblue" points="955.027,-201.027 964.079,-195.522 953.57,-194.181 955.027,-201.027"/>
</g>
<!-- Node10 -->
<g id="node10" class="node"><title>Node10</title>
<g id="a_node10"><a xlink:href="../../df/d50/classmodel_1_1_turtle_set_manager.html#a9e215e93eccbed2ab9ebec6119cfe305" target="_top" xlink:title="model.TurtleSetManager.get\lAllTurtles">
<polygon fill="white" stroke="black" points="942,-127 942,-157 1094,-157 1094,-127 942,-127"/>
<text text-anchor="start" x="950" y="-145" font-family="Helvetica,sans-Serif" font-size="10.00">model.TurtleSetManager.get</text>
<text text-anchor="middle" x="1018" y="-134" font-family="Helvetica,sans-Serif" font-size="10.00">AllTurtles</text>
</a>
</g>
</g>
<!-- Node6&#45;&gt;Node10 -->
<g id="edge11" class="edge"><title>Node6&#45;&gt;Node10</title>
<path fill="none" stroke="midnightblue" d="M796.796,-244.229C820.605,-226.475 873.858,-188.753 924,-167 929.637,-164.555 935.572,-162.296 941.603,-160.221"/>
<polygon fill="midnightblue" stroke="midnightblue" points="942.71,-163.542 951.131,-157.112 940.539,-156.887 942.71,-163.542"/>
</g>
<!-- Node11 -->
<g id="node11" class="node"><title>Node11</title>
<g id="a_node11"><a xlink:href="../../d3/d42/classmodel_1_1_model.html#af73e838aed2c068e8f7d31bfa1cc88d7" target="_top" xlink:title="model.Model.getStamp">
<polygon fill="white" stroke="black" points="953.5,-88.5 953.5,-107.5 1082.5,-107.5 1082.5,-88.5 953.5,-88.5"/>
<text text-anchor="middle" x="1018" y="-95.5" font-family="Helvetica,sans-Serif" font-size="10.00">model.Model.getStamp</text>
</a>
</g>
</g>
<!-- Node6&#45;&gt;Node11 -->
<g id="edge12" class="edge"><title>Node6&#45;&gt;Node11</title>
<path fill="none" stroke="midnightblue" d="M790.59,-244.492C808.663,-219.21 861.824,-150.008 924,-117 930.063,-113.781 936.616,-111.107 943.338,-108.885"/>
<polygon fill="midnightblue" stroke="midnightblue" points="944.676,-112.139 953.27,-105.943 942.688,-105.427 944.676,-112.139"/>
</g>
<!-- Node12 -->
<g id="node12" class="node"><title>Node12</title>
<g id="a_node12"><a xlink:href="../../db/db5/classview_1_1panes_1_1_view_pane_module.html#a44db6ae832af3ce470baa9406142b8cb" target="_top" xlink:title="view.panes.ViewPaneModule.make\lStamps">
<polygon fill="white" stroke="black" points="927.5,-39 927.5,-69 1108.5,-69 1108.5,-39 927.5,-39"/>
<text text-anchor="start" x="935.5" y="-57" font-family="Helvetica,sans-Serif" font-size="10.00">view.panes.ViewPaneModule.make</text>
<text text-anchor="middle" x="1018" y="-46" font-family="Helvetica,sans-Serif" font-size="10.00">Stamps</text>
</a>
</g>
</g>
<!-- Node6&#45;&gt;Node12 -->
<g id="edge13" class="edge"><title>Node6&#45;&gt;Node12</title>
<path fill="none" stroke="midnightblue" d="M788.868,-244.27C804.262,-214.536 854.974,-124.158 924,-79 927.122,-76.9577 930.406,-75.0815 933.8,-73.358"/>
<polygon fill="midnightblue" stroke="midnightblue" points="935.372,-76.488 943.007,-69.143 932.458,-70.1233 935.372,-76.488"/>
</g>
<!-- Node19 -->
<g id="node19" class="node"><title>Node19</title>
<g id="a_node19"><a xlink:href="../../d3/d42/classmodel_1_1_model.html#a0a457f31350a460e11dc864463e0d8ff" target="_top" xlink:title="model.Model.setStamp">
<polygon fill="white" stroke="black" points="954,-0.5 954,-19.5 1082,-19.5 1082,-0.5 954,-0.5"/>
<text text-anchor="middle" x="1018" y="-7.5" font-family="Helvetica,sans-Serif" font-size="10.00">model.Model.setStamp</text>
</a>
</g>
</g>
<!-- Node6&#45;&gt;Node19 -->
<g id="edge20" class="edge"><title>Node6&#45;&gt;Node19</title>
<path fill="none" stroke="midnightblue" d="M786.896,-244.385C798.036,-209.166 841.671,-86.28 924,-29 930.045,-24.7942 936.814,-21.4778 943.869,-18.8684"/>
<polygon fill="midnightblue" stroke="midnightblue" points="945.177,-22.1242 953.626,-15.7312 943.034,-15.4602 945.177,-22.1242"/>
</g>
<!-- Node20 -->
<g id="node20" class="node"><title>Node20</title>
<g id="a_node20"><a xlink:href="../../db/db5/classview_1_1panes_1_1_view_pane_module.html#a7ad9ad27137ffdf0ea96753a22da236b" target="_top" xlink:title="view.panes.ViewPaneModule.erase\lStamps">
<polygon fill="white" stroke="black" points="927.5,-362 927.5,-392 1108.5,-392 1108.5,-362 927.5,-362"/>
<text text-anchor="start" x="935.5" y="-380" font-family="Helvetica,sans-Serif" font-size="10.00">view.panes.ViewPaneModule.erase</text>
<text text-anchor="middle" x="1018" y="-369" font-family="Helvetica,sans-Serif" font-size="10.00">Stamps</text>
</a>
</g>
</g>
<!-- Node6&#45;&gt;Node20 -->
<g id="edge21" class="edge"><title>Node6&#45;&gt;Node20</title>
<path fill="none" stroke="midnightblue" d="M794.783,-263.574C817.234,-283.026 871.306,-327.407 924,-352 929.241,-354.446 934.764,-356.688 940.397,-358.735"/>
<polygon fill="midnightblue" stroke="midnightblue" points="939.355,-362.078 949.949,-362 941.619,-355.454 939.355,-362.078"/>
</g>
<!-- Node22 -->
<g id="node22" class="node"><title>Node22</title>
<g id="a_node22"><a xlink:href="../../db/db5/classview_1_1panes_1_1_view_pane_module.html#ab55ce3511929b88a2cd1235eb694868f" target="_top" xlink:title="view.panes.ViewPaneModule.update\lTurtle">
<polygon fill="white" stroke="black" points="924,-313 924,-343 1112,-343 1112,-313 924,-313"/>
<text text-anchor="start" x="932" y="-331" font-family="Helvetica,sans-Serif" font-size="10.00">view.panes.ViewPaneModule.update</text>
<text text-anchor="middle" x="1018" y="-320" font-family="Helvetica,sans-Serif" font-size="10.00">Turtle</text>
</a>
</g>
</g>
<!-- Node6&#45;&gt;Node22 -->
<g id="edge23" class="edge"><title>Node6&#45;&gt;Node22</title>
<path fill="none" stroke="midnightblue" d="M809.359,-263.512C837.261,-273.829 883.527,-290.496 924,-303 931.922,-305.447 940.265,-307.885 948.568,-310.224"/>
<polygon fill="midnightblue" stroke="midnightblue" points="947.698,-313.615 958.27,-312.92 949.572,-306.871 947.698,-313.615"/>
</g>
<!-- Node13 -->
<g id="node13" class="node"><title>Node13</title>
<g id="a_node13"><a xlink:href="../../d7/da6/classview_1_1_turtle_draw.html#a939f4fdbdb66457c9dcee82eb4ae6d9c" target="_top" xlink:title="view.TurtleDraw.drawTurtle">
<polygon fill="white" stroke="black" points="1156.5,-67.5 1156.5,-86.5 1295.5,-86.5 1295.5,-67.5 1156.5,-67.5"/>
<text text-anchor="middle" x="1226" y="-74.5" font-family="Helvetica,sans-Serif" font-size="10.00">view.TurtleDraw.drawTurtle</text>
</a>
</g>
</g>
<!-- Node12&#45;&gt;Node13 -->
<g id="edge14" class="edge"><title>Node12&#45;&gt;Node13</title>
<path fill="none" stroke="midnightblue" d="M1108.76,-64.0212C1121.21,-65.4115 1133.92,-66.831 1146.15,-68.1968"/>
<polygon fill="midnightblue" stroke="midnightblue" points="1145.97,-71.6983 1156.3,-69.3296 1146.75,-64.7415 1145.97,-71.6983"/>
</g>
<!-- Node16 -->
<g id="node16" class="node"><title>Node16</title>
<g id="a_node16"><a xlink:href="../../d7/da6/classview_1_1_turtle_draw.html#a14678068d3fc9d3b6e1067bc372f6030" target="_top" xlink:title="view.TurtleDraw.showTurtle">
<polygon fill="white" stroke="black" points="1156,-29.5 1156,-48.5 1296,-48.5 1296,-29.5 1156,-29.5"/>
<text text-anchor="middle" x="1226" y="-36.5" font-family="Helvetica,sans-Serif" font-size="10.00">view.TurtleDraw.showTurtle</text>
</a>
</g>
</g>
<!-- Node12&#45;&gt;Node16 -->
<g id="edge17" class="edge"><title>Node12&#45;&gt;Node16</title>
<path fill="none" stroke="midnightblue" d="M1108.76,-47.4644C1121.12,-46.5639 1133.75,-45.6445 1145.9,-44.7594"/>
<polygon fill="midnightblue" stroke="midnightblue" points="1146.27,-48.2422 1155.99,-44.0251 1145.76,-41.2607 1146.27,-48.2422"/>
</g>
<!-- Node17 -->
<g id="node17" class="node"><title>Node17</title>
<g id="a_node17"><a xlink:href="../../d7/da6/classview_1_1_turtle_draw.html#a8c2cab38eb294b26aea1ae17595ba2a6" target="_top" xlink:title="view.TurtleDraw.moveTurtle">
<polygon fill="white" stroke="black" points="1154.5,-143.5 1154.5,-162.5 1297.5,-162.5 1297.5,-143.5 1154.5,-143.5"/>
<text text-anchor="middle" x="1226" y="-150.5" font-family="Helvetica,sans-Serif" font-size="10.00">view.TurtleDraw.moveTurtle</text>
</a>
</g>
</g>
<!-- Node12&#45;&gt;Node17 -->
<g id="edge18" class="edge"><title>Node12&#45;&gt;Node17</title>
<path fill="none" stroke="midnightblue" d="M1094.8,-69.1906C1100.89,-71.9348 1106.72,-75.1748 1112,-79 1135.66,-96.1392 1124.16,-117.106 1148,-134 1150.84,-136.012 1153.87,-137.811 1157.02,-139.421"/>
<polygon fill="midnightblue" stroke="midnightblue" points="1155.62,-142.629 1166.18,-143.474 1158.45,-136.227 1155.62,-142.629"/>
</g>
<!-- Node18 -->
<g id="node18" class="node"><title>Node18</title>
<g id="a_node18"><a xlink:href="../../d7/da6/classview_1_1_turtle_draw.html#a5004a16526a67f090d7da45474b5136e" target="_top" xlink:title="view.TurtleDraw.setAngle">
<polygon fill="white" stroke="black" points="1159.5,-105.5 1159.5,-124.5 1292.5,-124.5 1292.5,-105.5 1159.5,-105.5"/>
<text text-anchor="middle" x="1226" y="-112.5" font-family="Helvetica,sans-Serif" font-size="10.00">view.TurtleDraw.setAngle</text>
</a>
</g>
</g>
<!-- Node12&#45;&gt;Node18 -->
<g id="edge19" class="edge"><title>Node12&#45;&gt;Node18</title>
<path fill="none" stroke="midnightblue" d="M1081.02,-69.0126C1091.46,-72.0119 1102.11,-75.3695 1112,-79 1128.61,-85.0988 1131.33,-90.0733 1148,-96 1155.04,-98.5012 1162.55,-100.795 1170.02,-102.858"/>
<polygon fill="midnightblue" stroke="midnightblue" points="1169.2,-106.264 1179.77,-105.434 1170.99,-99.4958 1169.2,-106.264"/>
</g>
<!-- Node14 -->
<g id="node14" class="node"><title>Node14</title>
<g id="a_node14"><a xlink:href="../../d6/d34/classmodel_1_1_turtle.html#a942dbeb1d7e2bc19b6870538c2c3a7d2" target="_top" xlink:title="model.Turtle.getShape">
<polygon fill="white" stroke="black" points="1364.5,-89.5 1364.5,-108.5 1489.5,-108.5 1489.5,-89.5 1364.5,-89.5"/>
<text text-anchor="middle" x="1427" y="-96.5" font-family="Helvetica,sans-Serif" font-size="10.00">model.Turtle.getShape</text>
</a>
</g>
</g>
<!-- Node13&#45;&gt;Node14 -->
<g id="edge15" class="edge"><title>Node13&#45;&gt;Node14</title>
<path fill="none" stroke="midnightblue" d="M1295.76,-84.602C1314.62,-86.6865 1335.11,-88.9515 1354.13,-91.0547"/>
<polygon fill="midnightblue" stroke="midnightblue" points="1353.91,-94.5509 1364.23,-92.1711 1354.67,-87.5933 1353.91,-94.5509"/>
</g>
<!-- Node15 -->
<g id="node15" class="node"><title>Node15</title>
<g id="a_node15"><a xlink:href="../../d3/db7/classview_1_1controllers_1_1_image_palette.html#a8a6620714bc12d5a00b97e99299a7040" target="_top" xlink:title="view.controllers.ImagePalette.get\lImage">
<polygon fill="white" stroke="black" points="1340,-40 1340,-70 1514,-70 1514,-40 1340,-40"/>
<text text-anchor="start" x="1348" y="-58" font-family="Helvetica,sans-Serif" font-size="10.00">view.controllers.ImagePalette.get</text>
<text text-anchor="middle" x="1427" y="-47" font-family="Helvetica,sans-Serif" font-size="10.00">Image</text>
</a>
</g>
</g>
<!-- Node13&#45;&gt;Node15 -->
<g id="edge16" class="edge"><title>Node13&#45;&gt;Node15</title>
<path fill="none" stroke="midnightblue" d="M1295.76,-69.398C1306.71,-68.1877 1318.21,-66.9165 1329.65,-65.6514"/>
<polygon fill="midnightblue" stroke="midnightblue" points="1330.13,-69.1206 1339.68,-64.5429 1329.36,-62.163 1330.13,-69.1206"/>
</g>
<!-- Node21 -->
<g id="node21" class="node"><title>Node21</title>
<g id="a_node21"><a xlink:href="../../d7/da6/classview_1_1_turtle_draw.html#acb97dedda080cb5ed17031d2b31adc2c" target="_top" xlink:title="view.TurtleDraw.hideTurtle">
<polygon fill="white" stroke="black" points="1157.5,-485.5 1157.5,-504.5 1294.5,-504.5 1294.5,-485.5 1157.5,-485.5"/>
<text text-anchor="middle" x="1226" y="-492.5" font-family="Helvetica,sans-Serif" font-size="10.00">view.TurtleDraw.hideTurtle</text>
</a>
</g>
</g>
<!-- Node20&#45;&gt;Node21 -->
<g id="edge22" class="edge"><title>Node20&#45;&gt;Node21</title>
<path fill="none" stroke="midnightblue" d="M1096.72,-392.164C1102.18,-394.918 1107.36,-398.167 1112,-402 1140.2,-425.29 1119.56,-453.003 1148,-476 1150.26,-477.826 1152.67,-479.48 1155.19,-480.979"/>
<polygon fill="midnightblue" stroke="midnightblue" points="1153.62,-484.107 1164.12,-485.495 1156.77,-477.86 1153.62,-484.107"/>
</g>
<!-- Node22&#45;&gt;Node13 -->
<g id="edge25" class="edge"><title>Node22&#45;&gt;Node13</title>
<path fill="none" stroke="midnightblue" d="M1100.14,-312.879C1104.49,-310.093 1108.5,-306.827 1112,-303 1174.98,-234.053 1084.31,-164.292 1148,-96 1149.23,-94.6847 1150.53,-93.4541 1151.9,-92.303"/>
<polygon fill="midnightblue" stroke="midnightblue" points="1154.06,-95.0665 1160.35,-86.544 1150.11,-89.2813 1154.06,-95.0665"/>
</g>
<!-- Node22&#45;&gt;Node16 -->
<g id="edge26" class="edge"><title>Node22&#45;&gt;Node16</title>
<path fill="none" stroke="midnightblue" d="M1100.26,-312.985C1104.58,-310.173 1108.56,-306.872 1112,-303 1185.15,-220.771 1074,-139.468 1148,-58 1149.07,-56.8215 1150.2,-55.7107 1151.38,-54.6639"/>
<polygon fill="midnightblue" stroke="midnightblue" points="1153.74,-57.2816 1159.88,-48.6446 1149.7,-51.5698 1153.74,-57.2816"/>
</g>
<!-- Node22&#45;&gt;Node17 -->
<g id="edge39" class="edge"><title>Node22&#45;&gt;Node17</title>
<path fill="none" stroke="midnightblue" d="M1098.86,-312.995C1103.64,-310.193 1108.09,-306.89 1112,-303 1154.81,-260.424 1104.75,-214.131 1148,-172 1149.48,-170.559 1151.05,-169.221 1152.7,-167.98"/>
<polygon fill="midnightblue" stroke="midnightblue" points="1154.82,-170.784 1161.48,-162.546 1151.13,-164.832 1154.82,-170.784"/>
</g>
<!-- Node22&#45;&gt;Node18 -->
<g id="edge37" class="edge"><title>Node22&#45;&gt;Node18</title>
<path fill="none" stroke="midnightblue" d="M1099.55,-312.99C1104.1,-310.183 1108.32,-306.881 1112,-303 1164.85,-247.284 1094.57,-189.166 1148,-134 1149.25,-132.708 1150.58,-131.498 1151.96,-130.366"/>
<polygon fill="midnightblue" stroke="midnightblue" points="1154.11,-133.14 1160.5,-124.692 1150.24,-127.309 1154.11,-133.14"/>
</g>
<!-- Node22&#45;&gt;Node21 -->
<g id="edge27" class="edge"><title>Node22&#45;&gt;Node21</title>
<path fill="none" stroke="midnightblue" d="M1098.78,-343.079C1103.58,-345.863 1108.06,-349.142 1112,-353 1152.72,-392.829 1106.87,-436.594 1148,-476 1149.49,-477.429 1151.07,-478.755 1152.73,-479.987"/>
<polygon fill="midnightblue" stroke="midnightblue" points="1151.19,-483.149 1161.55,-485.384 1154.84,-477.179 1151.19,-483.149"/>
</g>
<!-- Node23 -->
<g id="node23" class="node"><title>Node23</title>
<g id="a_node23"><a xlink:href="../../d6/d34/classmodel_1_1_turtle.html#ae79a1eae7eed55d121c3b85299ae14ba" target="_top" xlink:title="model.Turtle.getID">
<polygon fill="white" stroke="black" points="1174,-257.5 1174,-276.5 1278,-276.5 1278,-257.5 1174,-257.5"/>
<text text-anchor="middle" x="1226" y="-264.5" font-family="Helvetica,sans-Serif" font-size="10.00">model.Turtle.getID</text>
</a>
</g>
</g>
<!-- Node22&#45;&gt;Node23 -->
<g id="edge24" class="edge"><title>Node22&#45;&gt;Node23</title>
<path fill="none" stroke="midnightblue" d="M1081.02,-312.987C1091.46,-309.988 1102.11,-306.63 1112,-303 1128.61,-296.901 1131.33,-291.927 1148,-286 1155.04,-283.499 1162.55,-281.205 1170.02,-279.142"/>
<polygon fill="midnightblue" stroke="midnightblue" points="1170.99,-282.504 1179.77,-276.566 1169.2,-275.736 1170.99,-282.504"/>
</g>
<!-- Node24 -->
<g id="node24" class="node"><title>Node24</title>
<g id="a_node24"><a xlink:href="../../d6/d34/classmodel_1_1_turtle.html#a279f2bdb3fa955acdd52b7824ec3cd04" target="_top" xlink:title="model.Turtle.getPenStatus">
<polygon fill="white" stroke="black" points="1154.5,-219.5 1154.5,-238.5 1297.5,-238.5 1297.5,-219.5 1154.5,-219.5"/>
<text text-anchor="middle" x="1226" y="-226.5" font-family="Helvetica,sans-Serif" font-size="10.00">model.Turtle.getPenStatus</text>
</a>
</g>
</g>
<!-- Node22&#45;&gt;Node24 -->
<g id="edge28" class="edge"><title>Node22&#45;&gt;Node24</title>
<path fill="none" stroke="midnightblue" d="M1094.8,-312.809C1100.89,-310.065 1106.72,-306.825 1112,-303 1135.66,-285.861 1124.16,-264.894 1148,-248 1150.84,-245.988 1153.87,-244.189 1157.02,-242.579"/>
<polygon fill="midnightblue" stroke="midnightblue" points="1158.45,-245.773 1166.18,-238.526 1155.62,-239.371 1158.45,-245.773"/>
</g>
<!-- Node26 -->
<g id="node26" class="node"><title>Node26</title>
<g id="a_node26"><a xlink:href="../../d7/da6/classview_1_1_turtle_draw.html#a1325ca376115619f15f5014eb4c5ad2a" target="_top" xlink:title="view.TurtleDraw.drawLine">
<polygon fill="white" stroke="black" points="1159.5,-181.5 1159.5,-200.5 1292.5,-200.5 1292.5,-181.5 1159.5,-181.5"/>
<text text-anchor="middle" x="1226" y="-188.5" font-family="Helvetica,sans-Serif" font-size="10.00">view.TurtleDraw.drawLine</text>
</a>
</g>
</g>
<!-- Node22&#45;&gt;Node26 -->
<g id="edge30" class="edge"><title>Node22&#45;&gt;Node26</title>
<path fill="none" stroke="midnightblue" d="M1097.98,-312.777C1103.03,-310.031 1107.77,-306.799 1112,-303 1144.97,-273.376 1114.73,-239.282 1148,-210 1149.76,-208.448 1151.63,-207.018 1153.59,-205.702"/>
<polygon fill="midnightblue" stroke="midnightblue" points="1155.63,-208.57 1162.64,-200.624 1152.2,-202.465 1155.63,-208.57"/>
</g>
<!-- Node27 -->
<g id="node27" class="node"><title>Node27</title>
<g id="a_node27"><a xlink:href="../../d6/d34/classmodel_1_1_turtle.html#a832234461564763f8330181b3c1163ff" target="_top" xlink:title="model.Turtle.getPrevLocation">
<polygon fill="white" stroke="black" points="1148.5,-447.5 1148.5,-466.5 1303.5,-466.5 1303.5,-447.5 1148.5,-447.5"/>
<text text-anchor="middle" x="1226" y="-454.5" font-family="Helvetica,sans-Serif" font-size="10.00">model.Turtle.getPrevLocation</text>
</a>
</g>
</g>
<!-- Node22&#45;&gt;Node27 -->
<g id="edge31" class="edge"><title>Node22&#45;&gt;Node27</title>
<path fill="none" stroke="midnightblue" d="M1097.39,-343.135C1102.64,-345.898 1107.59,-349.157 1112,-353 1142.94,-379.941 1116.78,-411.381 1148,-438 1149.97,-439.681 1152.07,-441.217 1154.26,-442.621"/>
<polygon fill="midnightblue" stroke="midnightblue" points="1152.68,-445.744 1163.14,-447.406 1156,-439.582 1152.68,-445.744"/>
</g>
<!-- Node28 -->
<g id="node28" class="node"><title>Node28</title>
<g id="a_node28"><a xlink:href="../../d6/d34/classmodel_1_1_turtle.html#a2470b9b4ef48a261324047de8ebdc242" target="_top" xlink:title="model.Turtle.getNewLocation">
<polygon fill="white" stroke="black" points="1148.5,-409.5 1148.5,-428.5 1303.5,-428.5 1303.5,-409.5 1148.5,-409.5"/>
<text text-anchor="middle" x="1226" y="-416.5" font-family="Helvetica,sans-Serif" font-size="10.00">model.Turtle.getNewLocation</text>
</a>
</g>
</g>
<!-- Node22&#45;&gt;Node28 -->
<g id="edge32" class="edge"><title>Node22&#45;&gt;Node28</title>
<path fill="none" stroke="midnightblue" d="M1093.08,-343.013C1099.74,-345.797 1106.16,-349.094 1112,-353 1133.87,-367.637 1125.98,-385.59 1148,-400 1151.12,-402.043 1154.44,-403.866 1157.89,-405.494"/>
<polygon fill="midnightblue" stroke="midnightblue" points="1156.67,-408.778 1167.25,-409.36 1159.35,-402.308 1156.67,-408.778"/>
</g>
<!-- Node29 -->
<g id="node29" class="node"><title>Node29</title>
<g id="a_node29"><a xlink:href="../../d6/d34/classmodel_1_1_turtle.html#a19c059b1cbfbd4e8f046ec2403de3fb9" target="_top" xlink:title="model.Turtle.getPenDash">
<polygon fill="white" stroke="black" points="1157.5,-371.5 1157.5,-390.5 1294.5,-390.5 1294.5,-371.5 1157.5,-371.5"/>
<text text-anchor="middle" x="1226" y="-378.5" font-family="Helvetica,sans-Serif" font-size="10.00">model.Turtle.getPenDash</text>
</a>
</g>
</g>
<!-- Node22&#45;&gt;Node29 -->
<g id="edge33" class="edge"><title>Node22&#45;&gt;Node29</title>
<path fill="none" stroke="midnightblue" d="M1075.15,-343.004C1097.76,-348.993 1124.1,-355.902 1148,-362 1157.01,-364.3 1166.63,-366.709 1175.91,-369.01"/>
<polygon fill="midnightblue" stroke="midnightblue" points="1175.25,-372.452 1185.8,-371.454 1176.93,-365.657 1175.25,-372.452"/>
</g>
<!-- Node31 -->
<g id="node31" class="node"><title>Node31</title>
<g id="a_node31"><a xlink:href="../../d6/d34/classmodel_1_1_turtle.html#a193c156784f783064ae533b619b6be6e" target="_top" xlink:title="model.Turtle.getPenColor">
<polygon fill="white" stroke="black" points="1157.5,-333.5 1157.5,-352.5 1294.5,-352.5 1294.5,-333.5 1157.5,-333.5"/>
<text text-anchor="middle" x="1226" y="-340.5" font-family="Helvetica,sans-Serif" font-size="10.00">model.Turtle.getPenColor</text>
</a>
</g>
</g>
<!-- Node22&#45;&gt;Node31 -->
<g id="edge35" class="edge"><title>Node22&#45;&gt;Node31</title>
<path fill="none" stroke="midnightblue" d="M1112.06,-334.776C1123.85,-335.635 1135.82,-336.506 1147.33,-337.345"/>
<polygon fill="midnightblue" stroke="midnightblue" points="1147.1,-340.837 1157.32,-338.072 1147.61,-333.855 1147.1,-340.837"/>
</g>
<!-- Node33 -->
<g id="node33" class="node"><title>Node33</title>
<g id="a_node33"><a xlink:href="../../d6/d34/classmodel_1_1_turtle.html#a1c5d07962ede5fbfacc59413274d4300" target="_top" xlink:title="model.Turtle.getHeading">
<polygon fill="white" stroke="black" points="1159,-295.5 1159,-314.5 1293,-314.5 1293,-295.5 1159,-295.5"/>
<text text-anchor="middle" x="1226" y="-302.5" font-family="Helvetica,sans-Serif" font-size="10.00">model.Turtle.getHeading</text>
</a>
</g>
</g>
<!-- Node22&#45;&gt;Node33 -->
<g id="edge38" class="edge"><title>Node22&#45;&gt;Node33</title>
<path fill="none" stroke="midnightblue" d="M1112.06,-317.61C1124.38,-316.234 1136.9,-314.836 1148.9,-313.496"/>
<polygon fill="midnightblue" stroke="midnightblue" points="1149.29,-316.975 1158.84,-312.387 1148.51,-310.018 1149.29,-316.975"/>
</g>
<!-- Node25 -->
<g id="node25" class="node"><title>Node25</title>
<g id="a_node25"><a xlink:href="../../de/ded/classmodel_1_1_pen.html#afad4fb3e51847cacab72c036ddaa108f" target="_top" xlink:title="model.Pen.getStatus">
<polygon fill="white" stroke="black" points="1368,-219.5 1368,-238.5 1486,-238.5 1486,-219.5 1368,-219.5"/>
<text text-anchor="middle" x="1427" y="-226.5" font-family="Helvetica,sans-Serif" font-size="10.00">model.Pen.getStatus</text>
</a>
</g>
</g>
<!-- Node24&#45;&gt;Node25 -->
<g id="edge29" class="edge"><title>Node24&#45;&gt;Node25</title>
<path fill="none" stroke="midnightblue" d="M1297.72,-229C1317.23,-229 1338.35,-229 1357.72,-229"/>
<polygon fill="midnightblue" stroke="midnightblue" points="1357.97,-232.5 1367.97,-229 1357.97,-225.5 1357.97,-232.5"/>
</g>
<!-- Node30 -->
<g id="node30" class="node"><title>Node30</title>
<g id="a_node30"><a xlink:href="../../de/ded/classmodel_1_1_pen.html#a6999f4af56377415621f193ef8600e27" target="_top" xlink:title="model.Pen.getDash">
<polygon fill="white" stroke="black" points="1371.5,-371.5 1371.5,-390.5 1482.5,-390.5 1482.5,-371.5 1371.5,-371.5"/>
<text text-anchor="middle" x="1427" y="-378.5" font-family="Helvetica,sans-Serif" font-size="10.00">model.Pen.getDash</text>
</a>
</g>
</g>
<!-- Node29&#45;&gt;Node30 -->
<g id="edge34" class="edge"><title>Node29&#45;&gt;Node30</title>
<path fill="none" stroke="midnightblue" d="M1294.65,-381C1316.15,-381 1339.86,-381 1361.15,-381"/>
<polygon fill="midnightblue" stroke="midnightblue" points="1361.39,-384.5 1371.39,-381 1361.39,-377.5 1361.39,-384.5"/>
</g>
<!-- Node32 -->
<g id="node32" class="node"><title>Node32</title>
<g id="a_node32"><a xlink:href="../../de/ded/classmodel_1_1_pen.html#a704af31474b10d17caf40773b7971826" target="_top" xlink:title="model.Pen.getPenColor">
<polygon fill="white" stroke="black" points="1362.5,-333.5 1362.5,-352.5 1491.5,-352.5 1491.5,-333.5 1362.5,-333.5"/>
<text text-anchor="middle" x="1427" y="-340.5" font-family="Helvetica,sans-Serif" font-size="10.00">model.Pen.getPenColor</text>
</a>
</g>
</g>
<!-- Node31&#45;&gt;Node32 -->
<g id="edge36" class="edge"><title>Node31&#45;&gt;Node32</title>
<path fill="none" stroke="midnightblue" d="M1294.65,-343C1313.18,-343 1333.36,-343 1352.21,-343"/>
<polygon fill="midnightblue" stroke="midnightblue" points="1352.23,-346.5 1362.23,-343 1352.23,-339.5 1352.23,-346.5"/>
</g>
</g>
</svg>
