<?xml version="1.0" encoding="UTF-8" standalone="no"?>
<!DOCTYPE svg PUBLIC "-//W3C//DTD SVG 1.1//EN"
 "http://www.w3.org/Graphics/SVG/1.1/DTD/svg11.dtd">
<!-- Generated by graphviz version 2.36.0 (20140111.2315)
 -->
<!-- Title: view.controllers.ImagePalette Pages: 1 -->
<svg width="530pt" height="96pt"
 viewBox="0.00 0.00 530.00 96.00" xmlns="http://www.w3.org/2000/svg" xmlns:xlink="http://www.w3.org/1999/xlink">
<g id="graph0" class="graph" transform="scale(1 1) rotate(0) translate(4 92)">
<title>view.controllers.ImagePalette</title>
<polygon fill="white" stroke="none" points="-4,4 -4,-92 526,-92 526,4 -4,4"/>
<!-- Node1 -->
<g id="node1" class="node"><title>Node1</title>
<polygon fill="#bfbfbf" stroke="black" points="162.5,-0.5 162.5,-19.5 317.5,-19.5 317.5,-0.5 162.5,-0.5"/>
<text text-anchor="middle" x="240" y="-7.5" font-family="Helvetica,sans-Serif" font-size="10.00">view.controllers.ImagePalette</text>
</g>
<!-- Node2 -->
<g id="node2" class="node"><title>Node2</title>
<polygon fill="white" stroke="#bfbfbf" points="0,-68.5 0,-87.5 118,-87.5 118,-68.5 0,-68.5"/>
<text text-anchor="middle" x="59" y="-75.5" font-family="Helvetica,sans-Serif" font-size="10.00">ChoiceBox&lt; String &gt;</text>
</g>
<!-- Node2&#45;&gt;Node1 -->
<g id="edge1" class="edge"><title>Node2&#45;&gt;Node1</title>
<path fill="none" stroke="#9a32cd" stroke-dasharray="5,2" d="M76.1267,-61.7774C86.2128,-53.5759 99.5912,-43.9476 113,-38 132.163,-29.5001 154.163,-23.6127 174.411,-19.5613"/>
<polygon fill="#9a32cd" stroke="#9a32cd" points="73.5669,-59.3585 68.1926,-68.4891 78.0878,-64.7028 73.5669,-59.3585"/>
<text text-anchor="middle" x="156" y="-41.5" font-family="Helvetica,sans-Serif" font-size="10.00"> myChoiceImages</text>
</g>
<!-- Node3 -->
<g id="node3" class="node"><title>Node3</title>
<polygon fill="white" stroke="#bfbfbf" points="136,-68.5 136,-87.5 220,-87.5 220,-68.5 136,-68.5"/>
<text text-anchor="middle" x="178" y="-75.5" font-family="Helvetica,sans-Serif" font-size="10.00">List&lt; String &gt;</text>
</g>
<!-- Node3&#45;&gt;Node1 -->
<g id="edge2" class="edge"><title>Node3&#45;&gt;Node1</title>
<path fill="none" stroke="#9a32cd" stroke-dasharray="5,2" d="M192.986,-61.0474C205.138,-48.1111 221.816,-30.3567 231.695,-19.8411"/>
<polygon fill="#9a32cd" stroke="#9a32cd" points="190.401,-58.6868 186.105,-68.3717 195.503,-63.4795 190.401,-58.6868"/>
<text text-anchor="middle" x="242" y="-41.5" font-family="Helvetica,sans-Serif" font-size="10.00"> myChoices</text>
</g>
<!-- Node4 -->
<g id="node4" class="node"><title>Node4</title>
<polygon fill="white" stroke="#bfbfbf" points="238,-68.5 238,-87.5 366,-87.5 366,-68.5 238,-68.5"/>
<text text-anchor="middle" x="302" y="-75.5" font-family="Helvetica,sans-Serif" font-size="10.00">Map&lt; Integer, String &gt;</text>
</g>
<!-- Node4&#45;&gt;Node1 -->
<g id="edge3" class="edge"><title>Node4&#45;&gt;Node1</title>
<path fill="none" stroke="#9a32cd" stroke-dasharray="5,2" d="M291.055,-59.624C286.232,-52.5695 280.245,-44.5554 274,-38 267.553,-31.2327 259.375,-24.6865 252.654,-19.735"/>
<polygon fill="#9a32cd" stroke="#9a32cd" points="288.414,-61.9797 296.825,-68.422 294.267,-58.1405 288.414,-61.9797"/>
<text text-anchor="middle" x="310" y="-41.5" font-family="Helvetica,sans-Serif" font-size="10.00"> myImages</text>
</g>
<!-- Node5 -->
<g id="node5" class="node"><title>Node5</title>
<polygon fill="white" stroke="#bfbfbf" points="384,-68.5 384,-87.5 522,-87.5 522,-68.5 384,-68.5"/>
<text text-anchor="middle" x="453" y="-75.5" font-family="Helvetica,sans-Serif" font-size="10.00">ObservableList&lt; String &gt;</text>
</g>
<!-- Node5&#45;&gt;Node1 -->
<g id="edge4" class="edge"><title>Node5&#45;&gt;Node1</title>
<path fill="none" stroke="#9a32cd" stroke-dasharray="5,2" d="M420.383,-64.9274C398.15,-56.8752 367.966,-46.287 341,-38 318.966,-31.2287 293.937,-24.5308 274.307,-19.5"/>
<polygon fill="#9a32cd" stroke="#9a32cd" points="419.404,-68.2958 429.998,-68.4312 421.801,-61.7189 419.404,-68.2958"/>
<text text-anchor="middle" x="411.5" y="-41.5" font-family="Helvetica,sans-Serif" font-size="10.00"> myObservable</text>
</g>
</g>
</svg>
