<?xml version="1.0" encoding="UTF-8" standalone="no"?>
<!DOCTYPE svg PUBLIC "-//W3C//DTD SVG 1.1//EN"
 "http://www.w3.org/Graphics/SVG/1.1/DTD/svg11.dtd">
<!-- Generated by graphviz version 2.36.0 (20140111.2315)
 -->
<!-- Title: model.Pen.setPenStatus Pages: 1 -->
<svg width="554pt" height="87pt"
 viewBox="0.00 0.00 554.00 87.00" xmlns="http://www.w3.org/2000/svg" xmlns:xlink="http://www.w3.org/1999/xlink">
<g id="graph0" class="graph" transform="scale(1 1) rotate(0) translate(4 83)">
<title>model.Pen.setPenStatus</title>
<polygon fill="white" stroke="none" points="-4,4 -4,-83 550,-83 550,4 -4,4"/>
<!-- Node1 -->
<g id="node1" class="node"><title>Node1</title>
<polygon fill="#bfbfbf" stroke="black" points="0.5,-29.5 0.5,-48.5 135.5,-48.5 135.5,-29.5 0.5,-29.5"/>
<text text-anchor="middle" x="68" y="-36.5" font-family="Helvetica,sans-Serif" font-size="10.00">model.Pen.setPenStatus</text>
</g>
<!-- Node2 -->
<g id="node2" class="node"><title>Node2</title>
<g id="a_node2"><a xlink:href="../../d6/d34/classmodel_1_1_turtle.html#a2b9bbcfb9693e75c3f78e9f607684790" target="_top" xlink:title="model.Turtle.changePen">
<polygon fill="white" stroke="black" points="172.5,-29.5 172.5,-48.5 303.5,-48.5 303.5,-29.5 172.5,-29.5"/>
<text text-anchor="middle" x="238" y="-36.5" font-family="Helvetica,sans-Serif" font-size="10.00">model.Turtle.changePen</text>
</a>
</g>
</g>
<!-- Node1&#45;&gt;Node2 -->
<g id="edge1" class="edge"><title>Node1&#45;&gt;Node2</title>
<path fill="none" stroke="midnightblue" d="M146.087,-39C154.84,-39 163.694,-39 172.266,-39"/>
<polygon fill="midnightblue" stroke="midnightblue" points="145.881,-35.5001 135.881,-39 145.881,-42.5001 145.881,-35.5001"/>
</g>
<!-- Node3 -->
<g id="node3" class="node"><title>Node3</title>
<g id="a_node3"><a xlink:href="../../d4/d25/classcommands_1_1_pen_down_command.html#ab10d4e831bc5960fc78cc22de4596331" target="_top" xlink:title="commands.PenDownCommand.update\lTurtle">
<polygon fill="white" stroke="black" points="340.5,-49 340.5,-79 545.5,-79 545.5,-49 340.5,-49"/>
<text text-anchor="start" x="348.5" y="-67" font-family="Helvetica,sans-Serif" font-size="10.00">commands.PenDownCommand.update</text>
<text text-anchor="middle" x="443" y="-56" font-family="Helvetica,sans-Serif" font-size="10.00">Turtle</text>
</a>
</g>
</g>
<!-- Node2&#45;&gt;Node3 -->
<g id="edge2" class="edge"><title>Node2&#45;&gt;Node3</title>
<path fill="none" stroke="midnightblue" d="M313.567,-48.1832C322.26,-49.2538 331.238,-50.3594 340.218,-51.4653"/>
<polygon fill="midnightblue" stroke="midnightblue" points="313.862,-44.6931 303.509,-46.9445 313.007,-51.6406 313.862,-44.6931"/>
</g>
<!-- Node4 -->
<g id="node4" class="node"><title>Node4</title>
<g id="a_node4"><a xlink:href="../../d1/d5d/classcommands_1_1_pen_up_command.html#ac5c86fc3bba70a2950d077189e09074a" target="_top" xlink:title="commands.PenUpCommand.update\lTurtle">
<polygon fill="white" stroke="black" points="347,-0 347,-30 539,-30 539,-0 347,-0"/>
<text text-anchor="start" x="355" y="-18" font-family="Helvetica,sans-Serif" font-size="10.00">commands.PenUpCommand.update</text>
<text text-anchor="middle" x="443" y="-7" font-family="Helvetica,sans-Serif" font-size="10.00">Turtle</text>
</a>
</g>
</g>
<!-- Node2&#45;&gt;Node4 -->
<g id="edge3" class="edge"><title>Node2&#45;&gt;Node4</title>
<path fill="none" stroke="midnightblue" d="M313.716,-30.1666C324.519,-28.8893 335.759,-27.5606 346.895,-26.244"/>
<polygon fill="midnightblue" stroke="midnightblue" points="313.029,-26.7233 303.509,-31.3733 313.851,-33.6749 313.029,-26.7233"/>
</g>
</g>
</svg>
