<?xml version="1.0" encoding="UTF-8" standalone="no"?>
<!DOCTYPE svg PUBLIC "-//W3C//DTD SVG 1.1//EN"
 "http://www.w3.org/Graphics/SVG/1.1/DTD/svg11.dtd">
<!-- Generated by graphviz version 2.36.0 (20140111.2315)
 -->
<!-- Title: model.Pen.getStatus Pages: 1 -->
<!--zoomable 1361 -->
<svg id="main" version="1.1" xmlns="http://www.w3.org/2000/svg" xmlns:xlink="http://www.w3.org/1999/xlink" xml:space="preserve" onload="init(evt)">
<style type="text/css"><![CDATA[
.edge:hover path { stroke: red; }
.edge:hover polygon { stroke: red; fill: red; }
]]></style>
<script type="text/javascript"><![CDATA[
var edges = document.getElementsByTagName('g');
if (edges && edges.length) {
  for (var i=0;i<edges.length;i++) {
    if (edges[i].id.substr(0,4)=='edge') {
      edges[i].setAttribute('class','edge');
    }
  }
}
]]></script>
        <defs>
                <circle id="rim" cx="0" cy="0" r="7"/>
                <circle id="rim2" cx="0" cy="0" r="3.5"/>
                <g id="zoomPlus">
                        <use xlink:href="#rim" fill="#404040">
                                <set attributeName="fill" to="#808080" begin="zoomplus.mouseover" end="zoomplus.mouseout"/>
                        </use>
                        <path d="M-4,0h8M0,-4v8" fill="none" stroke="white" stroke-width="1.5" pointer-events="none"/>
                </g>
                <g id="zoomMin">
                        <use xlink:href="#rim" fill="#404040">
                                <set attributeName="fill" to="#808080" begin="zoomminus.mouseover" end="zoomminus.mouseout"/>
                        </use>
                        <path d="M-4,0h8" fill="none" stroke="white" stroke-width="1.5" pointer-events="none"/>
                </g>
                <g id="dirArrow">
                        <path fill="none" stroke="white" stroke-width="1.5" d="M0,-3.0v7 M-2.5,-0.5L0,-3.0L2.5,-0.5"/>
                </g>
               <g id="resetDef">
                       <use xlink:href="#rim2" fill="#404040">
                               <set attributeName="fill" to="#808080" begin="reset.mouseover" end="reset.mouseout"/>
                       </use>
               </g>
        </defs>

<script type="text/javascript">
var viewWidth = 1944;
var viewHeight = 1361;
var sectionId = 'dynsection-4';
</script>
<script xlink:href="../../svgpan.js"/>
<svg id="graph" class="graph">
<g id="viewport">
<title>model.Pen.getStatus</title>
<polygon fill="white" stroke="none" points="-4,4 -4,-1357 1940,-1357 1940,4 -4,4"/>
<!-- Node1 -->
<g id="node1" class="node"><title>Node1</title>
<polygon fill="#bfbfbf" stroke="black" points="0,-364.5 0,-383.5 118,-383.5 118,-364.5 0,-364.5"/>
<text text-anchor="middle" x="59" y="-371.5" font-family="Helvetica,sans-Serif" font-size="10.00">model.Pen.getStatus</text>
</g>
<!-- Node2 -->
<g id="node2" class="node"><title>Node2</title>
<g id="a_node2"><a xlink:href="../../d6/d34/classmodel_1_1_turtle.html#a2b9bbcfb9693e75c3f78e9f607684790" target="_top" xlink:title="model.Turtle.changePen">
<polygon fill="white" stroke="black" points="160.5,-389.5 160.5,-408.5 291.5,-408.5 291.5,-389.5 160.5,-389.5"/>
<text text-anchor="middle" x="226" y="-396.5" font-family="Helvetica,sans-Serif" font-size="10.00">model.Turtle.changePen</text>
</a>
</g>
</g>
<!-- Node1&#45;&gt;Node2 -->
<g id="edge1" class="edge"><title>Node1&#45;&gt;Node2</title>
<path fill="none" stroke="midnightblue" d="M128.304,-384.349C139.471,-386.041 150.996,-387.787 162.028,-389.459"/>
<polygon fill="midnightblue" stroke="midnightblue" points="128.584,-380.852 118.173,-382.814 127.536,-387.773 128.584,-380.852"/>
</g>
<!-- Node5 -->
<g id="node5" class="node"><title>Node5</title>
<g id="a_node5"><a xlink:href="../../d6/d34/classmodel_1_1_turtle.html#a279f2bdb3fa955acdd52b7824ec3cd04" target="_top" xlink:title="model.Turtle.getPenStatus">
<polygon fill="white" stroke="black" points="154.5,-315.5 154.5,-334.5 297.5,-334.5 297.5,-315.5 154.5,-315.5"/>
<text text-anchor="middle" x="226" y="-322.5" font-family="Helvetica,sans-Serif" font-size="10.00">model.Turtle.getPenStatus</text>
</a>
</g>
</g>
<!-- Node1&#45;&gt;Node5 -->
<g id="edge4" class="edge"><title>Node1&#45;&gt;Node5</title>
<path fill="none" stroke="midnightblue" d="M101.822,-361.58C130.104,-353.181 166.891,-342.257 192.876,-334.54"/>
<polygon fill="midnightblue" stroke="midnightblue" points="100.795,-358.234 92.2054,-364.436 102.788,-364.944 100.795,-358.234"/>
</g>
<!-- Node3 -->
<g id="node3" class="node"><title>Node3</title>
<g id="a_node3"><a xlink:href="../../d4/d25/classcommands_1_1_pen_down_command.html#ab10d4e831bc5960fc78cc22de4596331" target="_top" xlink:title="commands.PenDownCommand.update\lTurtle">
<polygon fill="white" stroke="black" points="340.5,-433 340.5,-463 545.5,-463 545.5,-433 340.5,-433"/>
<text text-anchor="start" x="348.5" y="-451" font-family="Helvetica,sans-Serif" font-size="10.00">commands.PenDownCommand.update</text>
<text text-anchor="middle" x="443" y="-440" font-family="Helvetica,sans-Serif" font-size="10.00">Turtle</text>
</a>
</g>
</g>
<!-- Node2&#45;&gt;Node3 -->
<g id="edge2" class="edge"><title>Node2&#45;&gt;Node3</title>
<path fill="none" stroke="midnightblue" d="M278.689,-410.78C307.86,-417.429 344.618,-425.806 375.871,-432.929"/>
<polygon fill="midnightblue" stroke="midnightblue" points="279.237,-407.315 268.709,-408.506 277.681,-414.14 279.237,-407.315"/>
</g>
<!-- Node4 -->
<g id="node4" class="node"><title>Node4</title>
<g id="a_node4"><a xlink:href="../../d1/d5d/classcommands_1_1_pen_up_command.html#ac5c86fc3bba70a2950d077189e09074a" target="_top" xlink:title="commands.PenUpCommand.update\lTurtle">
<polygon fill="white" stroke="black" points="347,-384 347,-414 539,-414 539,-384 347,-384"/>
<text text-anchor="start" x="355" y="-402" font-family="Helvetica,sans-Serif" font-size="10.00">commands.PenUpCommand.update</text>
<text text-anchor="middle" x="443" y="-391" font-family="Helvetica,sans-Serif" font-size="10.00">Turtle</text>
</a>
</g>
</g>
<!-- Node2&#45;&gt;Node4 -->
<g id="edge3" class="edge"><title>Node2&#45;&gt;Node4</title>
<path fill="none" stroke="midnightblue" d="M301.916,-399C316.447,-399 331.855,-399 346.933,-399"/>
<polygon fill="midnightblue" stroke="midnightblue" points="301.507,-395.5 291.507,-399 301.507,-402.5 301.507,-395.5"/>
</g>
<!-- Node6 -->
<g id="node6" class="node"><title>Node6</title>
<g id="a_node6"><a xlink:href="../../d8/dc0/classcommands_1_1_is_pen_down_command.html#ab3c897909c384a8b9917a2924f058561" target="_top" xlink:title="commands.IsPenDownCommand.execute\lCommand">
<polygon fill="white" stroke="black" points="334.5,-335 334.5,-365 551.5,-365 551.5,-335 334.5,-335"/>
<text text-anchor="start" x="342.5" y="-353" font-family="Helvetica,sans-Serif" font-size="10.00">commands.IsPenDownCommand.execute</text>
<text text-anchor="middle" x="443" y="-342" font-family="Helvetica,sans-Serif" font-size="10.00">Command</text>
</a>
</g>
</g>
<!-- Node5&#45;&gt;Node6 -->
<g id="edge5" class="edge"><title>Node5&#45;&gt;Node6</title>
<path fill="none" stroke="midnightblue" d="M307.754,-334.39C316.431,-335.399 325.356,-336.437 334.283,-337.475"/>
<polygon fill="midnightblue" stroke="midnightblue" points="308.034,-330.899 297.697,-333.221 307.226,-337.852 308.034,-330.899"/>
</g>
<!-- Node7 -->
<g id="node7" class="node"><title>Node7</title>
<g id="a_node7"><a xlink:href="../../db/db5/classview_1_1panes_1_1_view_pane_module.html#ab55ce3511929b88a2cd1235eb694868f" target="_top" xlink:title="view.panes.ViewPaneModule.update\lTurtle">
<polygon fill="white" stroke="black" points="349,-286 349,-316 537,-316 537,-286 349,-286"/>
<text text-anchor="start" x="357" y="-304" font-family="Helvetica,sans-Serif" font-size="10.00">view.panes.ViewPaneModule.update</text>
<text text-anchor="middle" x="443" y="-293" font-family="Helvetica,sans-Serif" font-size="10.00">Turtle</text>
</a>
</g>
</g>
<!-- Node5&#45;&gt;Node7 -->
<g id="edge6" class="edge"><title>Node5&#45;&gt;Node7</title>
<path fill="none" stroke="midnightblue" d="M307.837,-315.976C321.267,-314.477 335.29,-312.912 348.993,-311.382"/>
<polygon fill="midnightblue" stroke="midnightblue" points="307.247,-312.52 297.697,-317.108 308.023,-319.477 307.247,-312.52"/>
</g>
<!-- Node45 -->
<g id="node45" class="node"><title>Node45</title>
<g id="a_node45"><a xlink:href="../../db/db5/classview_1_1panes_1_1_view_pane_module.html#a055bc3d50de01b24c9ca90581abf2918" target="_top" xlink:title="view.panes.ViewPaneModule.wrapping">
<polygon fill="white" stroke="black" points="344.5,-247.5 344.5,-266.5 541.5,-266.5 541.5,-247.5 344.5,-247.5"/>
<text text-anchor="middle" x="443" y="-254.5" font-family="Helvetica,sans-Serif" font-size="10.00">view.panes.ViewPaneModule.wrapping</text>
</a>
</g>
</g>
<!-- Node5&#45;&gt;Node45 -->
<g id="edge44" class="edge"><title>Node5&#45;&gt;Node45</title>
<path fill="none" stroke="midnightblue" d="M253.708,-310.864C274.943,-300.159 305.684,-285.834 334,-277 347.562,-272.769 362.377,-269.307 376.567,-266.525"/>
<polygon fill="midnightblue" stroke="midnightblue" points="251.969,-307.822 244.663,-315.495 255.159,-314.053 251.969,-307.822"/>
</g>
<!-- Node8 -->
<g id="node8" class="node"><title>Node8</title>
<g id="a_node8"><a xlink:href="../../db/db5/classview_1_1panes_1_1_view_pane_module.html#aa2a1bf15bc036ee4237bf63749d85baf" target="_top" xlink:title="view.panes.ViewPaneModule.updateView">
<polygon fill="white" stroke="black" points="588.5,-291.5 588.5,-310.5 797.5,-310.5 797.5,-291.5 588.5,-291.5"/>
<text text-anchor="middle" x="693" y="-298.5" font-family="Helvetica,sans-Serif" font-size="10.00">view.panes.ViewPaneModule.updateView</text>
</a>
</g>
</g>
<!-- Node7&#45;&gt;Node8 -->
<g id="edge7" class="edge"><title>Node7&#45;&gt;Node8</title>
<path fill="none" stroke="midnightblue" d="M547.358,-301C560.938,-301 574.857,-301 588.439,-301"/>
<polygon fill="midnightblue" stroke="midnightblue" points="547.052,-297.5 537.052,-301 547.052,-304.5 547.052,-297.5"/>
</g>
<!-- Node9 -->
<g id="node9" class="node"><title>Node9</title>
<g id="a_node9"><a xlink:href="../../d3/d42/classmodel_1_1_model.html#a76160d002c1e68b566307ac44356f6e5" target="_top" xlink:title="model.Model.notifyView">
<polygon fill="white" stroke="black" points="861.5,-313.5 861.5,-332.5 990.5,-332.5 990.5,-313.5 861.5,-313.5"/>
<text text-anchor="middle" x="926" y="-320.5" font-family="Helvetica,sans-Serif" font-size="10.00">model.Model.notifyView</text>
</a>
</g>
</g>
<!-- Node8&#45;&gt;Node9 -->
<g id="edge8" class="edge"><title>Node8&#45;&gt;Node9</title>
<path fill="none" stroke="midnightblue" d="M804.173,-311.493C823.729,-313.355 843.49,-315.237 861.206,-316.924"/>
<polygon fill="midnightblue" stroke="midnightblue" points="804.263,-307.986 793.976,-310.522 803.6,-314.954 804.263,-307.986"/>
</g>
<!-- Node43 -->
<g id="node43" class="node"><title>Node43</title>
<g id="a_node43"><a xlink:href="../../db/db5/classview_1_1panes_1_1_view_pane_module.html#a200bd9d0cb7f1fb3482afb7f085939cd" target="_top" xlink:title="view.panes.ViewPaneModule.toggle\lActive">
<polygon fill="white" stroke="black" points="834,-264 834,-294 1018,-294 1018,-264 834,-264"/>
<text text-anchor="start" x="842" y="-282" font-family="Helvetica,sans-Serif" font-size="10.00">view.panes.ViewPaneModule.toggle</text>
<text text-anchor="middle" x="926" y="-271" font-family="Helvetica,sans-Serif" font-size="10.00">Active</text>
</a>
</g>
</g>
<!-- Node8&#45;&gt;Node43 -->
<g id="edge42" class="edge"><title>Node8&#45;&gt;Node43</title>
<path fill="none" stroke="midnightblue" d="M803.986,-290.525C814.025,-289.569 824.12,-288.608 833.966,-287.67"/>
<polygon fill="midnightblue" stroke="midnightblue" points="803.6,-287.046 793.976,-291.478 804.263,-294.014 803.6,-287.046"/>
</g>
<!-- Node10 -->
<g id="node10" class="node"><title>Node10</title>
<g id="a_node10"><a xlink:href="../../dd/dd6/classcommands_1_1_command.html#abafa69601e87c34d4453cf84349d6f9c" target="_top" xlink:title="commands.Command.execute\lCommand">
<polygon fill="white" stroke="black" points="1054.5,-661 1054.5,-691 1219.5,-691 1219.5,-661 1054.5,-661"/>
<text text-anchor="start" x="1062.5" y="-679" font-family="Helvetica,sans-Serif" font-size="10.00">commands.Command.execute</text>
<text text-anchor="middle" x="1137" y="-668" font-family="Helvetica,sans-Serif" font-size="10.00">Command</text>
</a>
</g>
</g>
<!-- Node9&#45;&gt;Node10 -->
<g id="edge9" class="edge"><title>Node9&#45;&gt;Node10</title>
<path fill="none" stroke="midnightblue" d="M937.99,-341.563C974.815,-403.76 1093.42,-604.075 1127.04,-660.865"/>
<polygon fill="midnightblue" stroke="midnightblue" points="940.914,-339.631 932.808,-332.81 934.891,-343.198 940.914,-339.631"/>
</g>
<!-- Node39 -->
<g id="node39" class="node"><title>Node39</title>
<g id="a_node39"><a xlink:href="../../d3/d42/classmodel_1_1_model.html#a73435cc7a2b6100031bbdd2cf6d6b4e8" target="_top" xlink:title="model.Model.updateModel">
<polygon fill="white" stroke="black" points="1065.5,-313.5 1065.5,-332.5 1208.5,-332.5 1208.5,-313.5 1065.5,-313.5"/>
<text text-anchor="middle" x="1137" y="-320.5" font-family="Helvetica,sans-Serif" font-size="10.00">model.Model.updateModel</text>
</a>
</g>
</g>
<!-- Node9&#45;&gt;Node39 -->
<g id="edge38" class="edge"><title>Node9&#45;&gt;Node39</title>
<path fill="none" stroke="midnightblue" d="M1000.72,-323C1021.75,-323 1044.61,-323 1065.45,-323"/>
<polygon fill="midnightblue" stroke="midnightblue" points="1000.56,-319.5 990.558,-323 1000.56,-326.5 1000.56,-319.5"/>
</g>
<!-- Node11 -->
<g id="node11" class="node"><title>Node11</title>
<g id="a_node11"><a xlink:href="../../d1/d79/classcommands_1_1_sum_command.html#a792945436d0c3ff1f58301fcc50f5ae1" target="_top" xlink:title="commands.SumCommand.execute\lCommand">
<polygon fill="white" stroke="black" points="1282,-1323 1282,-1353 1470,-1353 1470,-1323 1282,-1323"/>
<text text-anchor="start" x="1290" y="-1341" font-family="Helvetica,sans-Serif" font-size="10.00">commands.SumCommand.execute</text>
<text text-anchor="middle" x="1376" y="-1330" font-family="Helvetica,sans-Serif" font-size="10.00">Command</text>
</a>
</g>
</g>
<!-- Node10&#45;&gt;Node11 -->
<g id="edge10" class="edge"><title>Node10&#45;&gt;Node11</title>
<path fill="none" stroke="midnightblue" d="M1139.05,-701.444C1144.01,-808.823 1168.63,-1223.52 1256,-1313 1263.3,-1320.48 1272.23,-1326 1281.88,-1330.04"/>
<polygon fill="midnightblue" stroke="midnightblue" points="1142.54,-701.061 1138.6,-691.226 1135.54,-701.372 1142.54,-701.061"/>
</g>
<!-- Node12 -->
<g id="node12" class="node"><title>Node12</title>
<g id="a_node12"><a xlink:href="../../d6/dc0/classcommands_1_1_repeat_command.html#a40fb82831e8b2beaa7e31913e46e15eb" target="_top" xlink:title="commands.RepeatCommand.execute\lCommand">
<polygon fill="white" stroke="black" points="1277,-1274 1277,-1304 1475,-1304 1475,-1274 1277,-1274"/>
<text text-anchor="start" x="1285" y="-1292" font-family="Helvetica,sans-Serif" font-size="10.00">commands.RepeatCommand.execute</text>
<text text-anchor="middle" x="1376" y="-1281" font-family="Helvetica,sans-Serif" font-size="10.00">Command</text>
</a>
</g>
</g>
<!-- Node10&#45;&gt;Node12 -->
<g id="edge11" class="edge"><title>Node10&#45;&gt;Node12</title>
<path fill="none" stroke="midnightblue" d="M1139.48,-701.431C1145.92,-803.56 1175.03,-1182.29 1256,-1264 1262.02,-1270.07 1269.11,-1274.85 1276.79,-1278.59"/>
<polygon fill="midnightblue" stroke="midnightblue" points="1142.95,-700.909 1138.84,-691.142 1135.96,-701.338 1142.95,-700.909"/>
</g>
<!-- Node13 -->
<g id="node13" class="node"><title>Node13</title>
<g id="a_node13"><a xlink:href="../../dd/d82/classcommands_1_1_remainder_command.html#a99d4baf3f1b4a3c8d0cd69274380a2cf" target="_top" xlink:title="commands.RemainderCommand.execute\lCommand">
<polygon fill="white" stroke="black" points="1268,-1225 1268,-1255 1484,-1255 1484,-1225 1268,-1225"/>
<text text-anchor="start" x="1276" y="-1243" font-family="Helvetica,sans-Serif" font-size="10.00">commands.RemainderCommand.execute</text>
<text text-anchor="middle" x="1376" y="-1232" font-family="Helvetica,sans-Serif" font-size="10.00">Command</text>
</a>
</g>
</g>
<!-- Node10&#45;&gt;Node13 -->
<g id="edge12" class="edge"><title>Node10&#45;&gt;Node13</title>
<path fill="none" stroke="midnightblue" d="M1139.96,-701.181C1147.95,-797.511 1181.33,-1140.96 1256,-1215 1259.82,-1218.79 1264.06,-1222.07 1268.6,-1224.91"/>
<polygon fill="midnightblue" stroke="midnightblue" points="1143.44,-700.858 1139.14,-691.174 1136.46,-701.424 1143.44,-700.858"/>
</g>
<!-- Node14 -->
<g id="node14" class="node"><title>Node14</title>
<g id="a_node14"><a xlink:href="../../df/df5/classcommands_1_1_minus_command.html#a82548bbb25a73194469e1ff81b19cf27" target="_top" xlink:title="commands.MinusCommand.execute\lCommand">
<polygon fill="white" stroke="black" points="1279.5,-1176 1279.5,-1206 1472.5,-1206 1472.5,-1176 1279.5,-1176"/>
<text text-anchor="start" x="1287.5" y="-1194" font-family="Helvetica,sans-Serif" font-size="10.00">commands.MinusCommand.execute</text>
<text text-anchor="middle" x="1376" y="-1183" font-family="Helvetica,sans-Serif" font-size="10.00">Command</text>
</a>
</g>
</g>
<!-- Node10&#45;&gt;Node14 -->
<g id="edge13" class="edge"><title>Node10&#45;&gt;Node14</title>
<path fill="none" stroke="midnightblue" d="M1140.55,-701.225C1150.24,-791.929 1187.69,-1099.66 1256,-1166 1262.74,-1172.54 1270.73,-1177.57 1279.34,-1181.41"/>
<polygon fill="midnightblue" stroke="midnightblue" points="1144.03,-700.851 1139.51,-691.27 1137.07,-701.581 1144.03,-700.851"/>
</g>
<!-- Node15 -->
<g id="node15" class="node"><title>Node15</title>
<g id="a_node15"><a xlink:href="../../d3/d37/classcommands_1_1_set_background_command.html#a91dc8e21948a301c55af1cef90b77962" target="_top" xlink:title="commands.SetBackgroundCommand.execute\lCommand">
<polygon fill="white" stroke="black" points="1256.5,-1127 1256.5,-1157 1495.5,-1157 1495.5,-1127 1256.5,-1127"/>
<text text-anchor="start" x="1264.5" y="-1145" font-family="Helvetica,sans-Serif" font-size="10.00">commands.SetBackgroundCommand.execute</text>
<text text-anchor="middle" x="1376" y="-1134" font-family="Helvetica,sans-Serif" font-size="10.00">Command</text>
</a>
</g>
</g>
<!-- Node10&#45;&gt;Node15 -->
<g id="edge14" class="edge"><title>Node10&#45;&gt;Node15</title>
<path fill="none" stroke="midnightblue" d="M1141.26,-701.15C1152.74,-785.787 1193.98,-1058.26 1256,-1117 1259.99,-1120.77 1264.39,-1124.04 1269.08,-1126.86"/>
<polygon fill="midnightblue" stroke="midnightblue" points="1144.72,-700.585 1139.92,-691.137 1137.78,-701.512 1144.72,-700.585"/>
</g>
<!-- Node16 -->
<g id="node16" class="node"><title>Node16</title>
<g id="a_node16"><a xlink:href="../../d8/dba/classcommands_1_1_product_command.html#a8bc20bc7c21a944405f599dbcfa57e67" target="_top" xlink:title="commands.ProductCommand.execute\lCommand">
<polygon fill="white" stroke="black" points="1275,-1078 1275,-1108 1477,-1108 1477,-1078 1275,-1078"/>
<text text-anchor="start" x="1283" y="-1096" font-family="Helvetica,sans-Serif" font-size="10.00">commands.ProductCommand.execute</text>
<text text-anchor="middle" x="1376" y="-1085" font-family="Helvetica,sans-Serif" font-size="10.00">Command</text>
</a>
</g>
</g>
<!-- Node10&#45;&gt;Node16 -->
<g id="edge15" class="edge"><title>Node10&#45;&gt;Node16</title>
<path fill="none" stroke="midnightblue" d="M1137.41,-701.275C1137.23,-771.059 1146.92,-967.852 1256,-1068 1261.6,-1073.14 1267.98,-1077.33 1274.8,-1080.73"/>
<polygon fill="midnightblue" stroke="midnightblue" points="1140.91,-701.233 1137.5,-691.2 1133.91,-701.165 1140.91,-701.233"/>
</g>
<!-- Node17 -->
<g id="node17" class="node"><title>Node17</title>
<g id="a_node17"><a xlink:href="../../dd/d40/classcommands_1_1_quotient_command.html#a7e23b237cc68512dcbe6a65feb7c39e8" target="_top" xlink:title="commands.QuotientCommand.execute\lCommand">
<polygon fill="white" stroke="black" points="1273,-1029 1273,-1059 1479,-1059 1479,-1029 1273,-1029"/>
<text text-anchor="start" x="1281" y="-1047" font-family="Helvetica,sans-Serif" font-size="10.00">commands.QuotientCommand.execute</text>
<text text-anchor="middle" x="1376" y="-1036" font-family="Helvetica,sans-Serif" font-size="10.00">Command</text>
</a>
</g>
</g>
<!-- Node10&#45;&gt;Node17 -->
<g id="edge16" class="edge"><title>Node10&#45;&gt;Node17</title>
<path fill="none" stroke="midnightblue" d="M1138.67,-701.514C1141.82,-765.487 1159.36,-933.681 1256,-1019 1261.06,-1023.47 1266.72,-1027.21 1272.75,-1030.34"/>
<polygon fill="midnightblue" stroke="midnightblue" points="1142.16,-701.007 1138.25,-691.159 1135.16,-701.294 1142.16,-701.007"/>
</g>
<!-- Node18 -->
<g id="node18" class="node"><title>Node18</title>
<g id="a_node18"><a xlink:href="../../dc/d68/classcommands_1_1_make_variable_command.html#ad0e0974744cc969c12c67805c2460ef4" target="_top" xlink:title="commands.MakeVariableCommand.execute\lCommand">
<polygon fill="white" stroke="black" points="1261.5,-980 1261.5,-1010 1490.5,-1010 1490.5,-980 1261.5,-980"/>
<text text-anchor="start" x="1269.5" y="-998" font-family="Helvetica,sans-Serif" font-size="10.00">commands.MakeVariableCommand.execute</text>
<text text-anchor="middle" x="1376" y="-987" font-family="Helvetica,sans-Serif" font-size="10.00">Command</text>
</a>
</g>
</g>
<!-- Node10&#45;&gt;Node18 -->
<g id="edge17" class="edge"><title>Node10&#45;&gt;Node18</title>
<path fill="none" stroke="midnightblue" d="M1140.27,-701.004C1146.86,-758.166 1171.29,-898.929 1256,-970 1260.53,-973.799 1265.49,-977.067 1270.73,-979.873"/>
<polygon fill="midnightblue" stroke="midnightblue" points="1143.75,-700.607 1139.21,-691.035 1136.79,-701.35 1143.75,-700.607"/>
</g>
<!-- Node19 -->
<g id="node19" class="node"><title>Node19</title>
<g id="a_node19"><a xlink:href="../../d8/ded/classcommands_1_1_difference_command.html#a0c34c43d3bb266ef3e48ae27be938a0f" target="_top" xlink:title="commands.DifferenceCommand.execute\lCommand">
<polygon fill="white" stroke="black" points="1269,-931 1269,-961 1483,-961 1483,-931 1269,-931"/>
<text text-anchor="start" x="1277" y="-949" font-family="Helvetica,sans-Serif" font-size="10.00">commands.DifferenceCommand.execute</text>
<text text-anchor="middle" x="1376" y="-938" font-family="Helvetica,sans-Serif" font-size="10.00">Command</text>
</a>
</g>
</g>
<!-- Node10&#45;&gt;Node19 -->
<g id="edge18" class="edge"><title>Node10&#45;&gt;Node19</title>
<path fill="none" stroke="midnightblue" d="M1142.53,-701.294C1152.94,-751.586 1183.46,-864.176 1256,-921 1260.9,-924.84 1266.26,-928.128 1271.89,-930.938"/>
<polygon fill="midnightblue" stroke="midnightblue" points="1145.93,-700.411 1140.56,-691.276 1139.06,-701.765 1145.93,-700.411"/>
</g>
<!-- Node20 -->
<g id="node20" class="node"><title>Node20</title>
<g id="a_node20"><a xlink:href="../../dd/d29/classcommands_1_1_clear_screen_command.html#a87e5eb0f4c3bb48ec0737da2aa431db3" target="_top" xlink:title="commands.ClearScreenCommand.execute\lCommand">
<polygon fill="white" stroke="black" points="1264,-882 1264,-912 1488,-912 1488,-882 1264,-882"/>
<text text-anchor="start" x="1272" y="-900" font-family="Helvetica,sans-Serif" font-size="10.00">commands.ClearScreenCommand.execute</text>
<text text-anchor="middle" x="1376" y="-889" font-family="Helvetica,sans-Serif" font-size="10.00">Command</text>
</a>
</g>
</g>
<!-- Node10&#45;&gt;Node20 -->
<g id="edge19" class="edge"><title>Node10&#45;&gt;Node20</title>
<path fill="none" stroke="midnightblue" d="M1145.57,-700.672C1159.86,-742.893 1194.99,-828.631 1256,-872 1261.42,-875.853 1267.31,-879.136 1273.47,-881.931"/>
<polygon fill="midnightblue" stroke="midnightblue" points="1148.89,-699.579 1142.45,-691.165 1142.24,-701.757 1148.89,-699.579"/>
</g>
<!-- Node21 -->
<g id="node21" class="node"><title>Node21</title>
<g id="a_node21"><a xlink:href="../../d9/d35/classcommands_1_1_ask_command.html#ae4ba28c73ce0b5112e4032bd21a951f5" target="_top" xlink:title="commands.AskCommand.execute\lCommand">
<polygon fill="white" stroke="black" points="1285,-833 1285,-863 1467,-863 1467,-833 1285,-833"/>
<text text-anchor="start" x="1293" y="-851" font-family="Helvetica,sans-Serif" font-size="10.00">commands.AskCommand.execute</text>
<text text-anchor="middle" x="1376" y="-840" font-family="Helvetica,sans-Serif" font-size="10.00">Command</text>
</a>
</g>
</g>
<!-- Node10&#45;&gt;Node21 -->
<g id="edge20" class="edge"><title>Node10&#45;&gt;Node21</title>
<path fill="none" stroke="midnightblue" d="M1150.52,-700.426C1168.92,-733.7 1206.51,-792.605 1256,-823 1264.81,-828.413 1274.61,-832.67 1284.7,-836.015"/>
<polygon fill="midnightblue" stroke="midnightblue" points="1153.47,-698.514 1145.64,-691.373 1147.31,-701.836 1153.47,-698.514"/>
</g>
<!-- Node22 -->
<g id="node22" class="node"><title>Node22</title>
<g id="a_node22"><a xlink:href="../../d3/d49/classcommands_1_1_if_else_command.html#a3b3d15925117d366a69f8ebd1dbc2dbc" target="_top" xlink:title="commands.IfElseCommand.execute\lCommand">
<polygon fill="white" stroke="black" points="1281,-784 1281,-814 1471,-814 1471,-784 1281,-784"/>
<text text-anchor="start" x="1289" y="-802" font-family="Helvetica,sans-Serif" font-size="10.00">commands.IfElseCommand.execute</text>
<text text-anchor="middle" x="1376" y="-791" font-family="Helvetica,sans-Serif" font-size="10.00">Command</text>
</a>
</g>
</g>
<!-- Node10&#45;&gt;Node22 -->
<g id="edge21" class="edge"><title>Node10&#45;&gt;Node22</title>
<path fill="none" stroke="midnightblue" d="M1158.73,-698.758C1180.67,-721.389 1217.39,-755.347 1256,-774 1264.08,-777.903 1272.75,-781.199 1281.61,-783.982"/>
<polygon fill="midnightblue" stroke="midnightblue" points="1161.04,-696.105 1151.61,-691.27 1155.97,-700.928 1161.04,-696.105"/>
</g>
<!-- Node24 -->
<g id="node24" class="node"><title>Node24</title>
<g id="a_node24"><a xlink:href="../../d8/d57/classcommands_1_1_for_command.html#aeb06a37d7f9845eb546425bae6ea9f58" target="_top" xlink:title="commands.ForCommand.execute\lCommand">
<polygon fill="white" stroke="black" points="1286,-735 1286,-765 1466,-765 1466,-735 1286,-735"/>
<text text-anchor="start" x="1294" y="-753" font-family="Helvetica,sans-Serif" font-size="10.00">commands.ForCommand.execute</text>
<text text-anchor="middle" x="1376" y="-742" font-family="Helvetica,sans-Serif" font-size="10.00">Command</text>
</a>
</g>
</g>
<!-- Node10&#45;&gt;Node24 -->
<g id="edge23" class="edge"><title>Node10&#45;&gt;Node24</title>
<path fill="none" stroke="midnightblue" d="M1179.15,-695.308C1201.51,-705.231 1229.86,-716.904 1256,-725 1268,-728.716 1280.85,-732.055 1293.5,-734.992"/>
<polygon fill="midnightblue" stroke="midnightblue" points="1180.51,-692.084 1169.96,-691.179 1177.64,-698.47 1180.51,-692.084"/>
</g>
<!-- Node25 -->
<g id="node25" class="node"><title>Node25</title>
<g id="a_node25"><a xlink:href="../../db/d38/classcommands_1_1_ask_with_command.html#a5ee6a090e94729d84ef423a454d446eb" target="_top" xlink:title="commands.AskWithCommand.execute\lCommand">
<polygon fill="white" stroke="black" points="1274.5,-686 1274.5,-716 1477.5,-716 1477.5,-686 1274.5,-686"/>
<text text-anchor="start" x="1282.5" y="-704" font-family="Helvetica,sans-Serif" font-size="10.00">commands.AskWithCommand.execute</text>
<text text-anchor="middle" x="1376" y="-693" font-family="Helvetica,sans-Serif" font-size="10.00">Command</text>
</a>
</g>
</g>
<!-- Node10&#45;&gt;Node25 -->
<g id="edge24" class="edge"><title>Node10&#45;&gt;Node25</title>
<path fill="none" stroke="midnightblue" d="M1229.62,-685.665C1244.3,-687.213 1259.56,-688.823 1274.44,-690.392"/>
<polygon fill="midnightblue" stroke="midnightblue" points="1229.87,-682.172 1219.56,-684.604 1229.14,-689.133 1229.87,-682.172"/>
</g>
<!-- Node26 -->
<g id="node26" class="node"><title>Node26</title>
<g id="a_node26"><a xlink:href="../../d4/d02/classcommands_1_1_do_times_command.html#a1dd20e90975d905a1bce8f018e9f7f0a" target="_top" xlink:title="commands.DoTimesCommand.execute\lCommand">
<polygon fill="white" stroke="black" points="1272.5,-637 1272.5,-667 1479.5,-667 1479.5,-637 1272.5,-637"/>
<text text-anchor="start" x="1280.5" y="-655" font-family="Helvetica,sans-Serif" font-size="10.00">commands.DoTimesCommand.execute</text>
<text text-anchor="middle" x="1376" y="-644" font-family="Helvetica,sans-Serif" font-size="10.00">Command</text>
</a>
</g>
</g>
<!-- Node10&#45;&gt;Node26 -->
<g id="edge25" class="edge"><title>Node10&#45;&gt;Node26</title>
<path fill="none" stroke="midnightblue" d="M1229.64,-666.72C1243.63,-665.303 1258.15,-663.833 1272.35,-662.395"/>
<polygon fill="midnightblue" stroke="midnightblue" points="1229.16,-663.251 1219.56,-667.741 1229.86,-670.215 1229.16,-663.251"/>
</g>
<!-- Node27 -->
<g id="node27" class="node"><title>Node27</title>
<g id="a_node27"><a xlink:href="../../dd/de4/classcommands_1_1_custom_command.html#a5ad25438a49d3e4eeba835fefe8b730a" target="_top" xlink:title="commands.CustomCommand.execute\lCommand">
<polygon fill="white" stroke="black" points="1274.5,-588 1274.5,-618 1477.5,-618 1477.5,-588 1274.5,-588"/>
<text text-anchor="start" x="1282.5" y="-606" font-family="Helvetica,sans-Serif" font-size="10.00">commands.CustomCommand.execute</text>
<text text-anchor="middle" x="1376" y="-595" font-family="Helvetica,sans-Serif" font-size="10.00">Command</text>
</a>
</g>
</g>
<!-- Node10&#45;&gt;Node27 -->
<g id="edge26" class="edge"><title>Node10&#45;&gt;Node27</title>
<path fill="none" stroke="midnightblue" d="M1179.66,-656.916C1201.96,-647.252 1230.09,-635.921 1256,-628 1268.11,-624.297 1281.08,-620.956 1293.85,-618.011"/>
<polygon fill="midnightblue" stroke="midnightblue" points="1178.24,-653.719 1170.49,-660.941 1181.05,-660.129 1178.24,-653.719"/>
</g>
<!-- Node28 -->
<g id="node28" class="node"><title>Node28</title>
<g id="a_node28"><a xlink:href="../../d6/daf/classcommands_1_1_set_shape_command.html#a59c440316cf9e732b5aa2f46def94e10" target="_top" xlink:title="commands.SetShapeCommand.update\lTurtle">
<polygon fill="white" stroke="black" points="1272,-539 1272,-569 1480,-569 1480,-539 1272,-539"/>
<text text-anchor="start" x="1280" y="-557" font-family="Helvetica,sans-Serif" font-size="10.00">commands.SetShapeCommand.update</text>
<text text-anchor="middle" x="1376" y="-546" font-family="Helvetica,sans-Serif" font-size="10.00">Turtle</text>
</a>
</g>
</g>
<!-- Node10&#45;&gt;Node28 -->
<g id="edge27" class="edge"><title>Node10&#45;&gt;Node28</title>
<path fill="none" stroke="midnightblue" d="M1158.78,-653.48C1180.75,-631.086 1217.51,-597.479 1256,-579 1264.09,-575.117 1272.77,-571.835 1281.63,-569.06"/>
<polygon fill="midnightblue" stroke="midnightblue" points="1156.06,-651.259 1151.65,-660.891 1161.1,-656.114 1156.06,-651.259"/>
</g>
<!-- Node29 -->
<g id="node29" class="node"><title>Node29</title>
<g id="a_node29"><a xlink:href="../../d6/d11/classcommands_1_1_set_pen_dash_command.html#a320f3b8248e3e89b2338dfefbe73f8c7" target="_top" xlink:title="commands.SetPenDashCommand.update\lTurtle">
<polygon fill="white" stroke="black" points="1266,-490 1266,-520 1486,-520 1486,-490 1266,-490"/>
<text text-anchor="start" x="1274" y="-508" font-family="Helvetica,sans-Serif" font-size="10.00">commands.SetPenDashCommand.update</text>
<text text-anchor="middle" x="1376" y="-497" font-family="Helvetica,sans-Serif" font-size="10.00">Turtle</text>
</a>
</g>
</g>
<!-- Node10&#45;&gt;Node29 -->
<g id="edge28" class="edge"><title>Node10&#45;&gt;Node29</title>
<path fill="none" stroke="midnightblue" d="M1150.57,-651.74C1169.02,-618.692 1206.66,-560.188 1256,-530 1262.3,-526.144 1269.11,-522.875 1276.16,-520.104"/>
<polygon fill="midnightblue" stroke="midnightblue" points="1147.38,-650.275 1145.67,-660.731 1153.53,-653.622 1147.38,-650.275"/>
</g>
<!-- Node30 -->
<g id="node30" class="node"><title>Node30</title>
<g id="a_node30"><a xlink:href="../../dc/df3/classcommands_1_1_set_towards_command.html#ad82abd7dcaed57b3bdb3a4b87a91815a" target="_top" xlink:title="commands.SetTowardsCommand.update\lTurtle">
<polygon fill="white" stroke="black" points="1268.5,-441 1268.5,-471 1483.5,-471 1483.5,-441 1268.5,-441"/>
<text text-anchor="start" x="1276.5" y="-459" font-family="Helvetica,sans-Serif" font-size="10.00">commands.SetTowardsCommand.update</text>
<text text-anchor="middle" x="1376" y="-448" font-family="Helvetica,sans-Serif" font-size="10.00">Turtle</text>
</a>
</g>
</g>
<!-- Node10&#45;&gt;Node30 -->
<g id="edge29" class="edge"><title>Node10&#45;&gt;Node30</title>
<path fill="none" stroke="midnightblue" d="M1145.7,-651.184C1160.1,-609.082 1195.3,-524.047 1256,-481 1261.42,-477.153 1267.32,-473.875 1273.48,-471.083"/>
<polygon fill="midnightblue" stroke="midnightblue" points="1142.3,-650.318 1142.48,-660.911 1148.94,-652.517 1142.3,-650.318"/>
</g>
<!-- Node31 -->
<g id="node31" class="node"><title>Node31</title>
<g id="a_node31"><a xlink:href="../../d9/db5/classcommands_1_1_set_position_command.html#aba31c4887974831a6c0d9feac8316ee6" target="_top" xlink:title="commands.SetPositionCommand.update\lTurtle">
<polygon fill="white" stroke="black" points="1268.5,-392 1268.5,-422 1483.5,-422 1483.5,-392 1268.5,-392"/>
<text text-anchor="start" x="1276.5" y="-410" font-family="Helvetica,sans-Serif" font-size="10.00">commands.SetPositionCommand.update</text>
<text text-anchor="middle" x="1376" y="-399" font-family="Helvetica,sans-Serif" font-size="10.00">Turtle</text>
</a>
</g>
</g>
<!-- Node10&#45;&gt;Node31 -->
<g id="edge30" class="edge"><title>Node10&#45;&gt;Node31</title>
<path fill="none" stroke="midnightblue" d="M1142.57,-650.807C1153.03,-600.716 1183.66,-488.578 1256,-432 1260.91,-428.163 1266.26,-424.879 1271.9,-422.071"/>
<polygon fill="midnightblue" stroke="midnightblue" points="1139.1,-650.293 1140.58,-660.784 1145.97,-651.661 1139.1,-650.293"/>
</g>
<!-- Node32 -->
<g id="node32" class="node"><title>Node32</title>
<g id="a_node32"><a xlink:href="../../dd/db2/classcommands_1_1_right_command.html#ae16ecb0da3e0a2049a7382d74f315cb6" target="_top" xlink:title="commands.RightCommand.update\lTurtle">
<polygon fill="white" stroke="black" points="1283.5,-343 1283.5,-373 1468.5,-373 1468.5,-343 1283.5,-343"/>
<text text-anchor="start" x="1291.5" y="-361" font-family="Helvetica,sans-Serif" font-size="10.00">commands.RightCommand.update</text>
<text text-anchor="middle" x="1376" y="-350" font-family="Helvetica,sans-Serif" font-size="10.00">Turtle</text>
</a>
</g>
</g>
<!-- Node10&#45;&gt;Node32 -->
<g id="edge31" class="edge"><title>Node10&#45;&gt;Node32</title>
<path fill="none" stroke="midnightblue" d="M1140.34,-650.678C1147.06,-593.452 1171.7,-453.648 1256,-383 1264.01,-376.288 1273.37,-371.237 1283.26,-367.456"/>
<polygon fill="midnightblue" stroke="midnightblue" points="1136.86,-650.353 1139.26,-660.673 1143.82,-651.11 1136.86,-650.353"/>
</g>
<!-- Node33 -->
<g id="node33" class="node"><title>Node33</title>
<g id="a_node33"><a xlink:href="../../dc/db3/classcommands_1_1_set_heading_command.html#a064fae1a815349b9efc6bd43f2371339" target="_top" xlink:title="commands.SetHeadingCommand.update\lTurtle">
<polygon fill="white" stroke="black" points="1267.5,-294 1267.5,-324 1484.5,-324 1484.5,-294 1267.5,-294"/>
<text text-anchor="start" x="1275.5" y="-312" font-family="Helvetica,sans-Serif" font-size="10.00">commands.SetHeadingCommand.update</text>
<text text-anchor="middle" x="1376" y="-301" font-family="Helvetica,sans-Serif" font-size="10.00">Turtle</text>
</a>
</g>
</g>
<!-- Node10&#45;&gt;Node33 -->
<g id="edge32" class="edge"><title>Node10&#45;&gt;Node33</title>
<path fill="none" stroke="midnightblue" d="M1138.7,-650.558C1141.91,-586.767 1159.57,-419.054 1256,-334 1260.35,-330.16 1265.15,-326.856 1270.23,-324.018"/>
<polygon fill="midnightblue" stroke="midnightblue" points="1135.19,-650.745 1138.26,-660.884 1142.18,-651.04 1135.19,-650.745"/>
</g>
<!-- Node34 -->
<g id="node34" class="node"><title>Node34</title>
<g id="a_node34"><a xlink:href="../../d2/dbb/classcommands_1_1_set_pen_size_command.html#aa8dbbb22c72842b2d6f50aa169a8404e" target="_top" xlink:title="commands.SetPenSizeCommand.update\lTurtle">
<polygon fill="white" stroke="black" points="1268.5,-245 1268.5,-275 1483.5,-275 1483.5,-245 1268.5,-245"/>
<text text-anchor="start" x="1276.5" y="-263" font-family="Helvetica,sans-Serif" font-size="10.00">commands.SetPenSizeCommand.update</text>
<text text-anchor="middle" x="1376" y="-252" font-family="Helvetica,sans-Serif" font-size="10.00">Turtle</text>
</a>
</g>
</g>
<!-- Node10&#45;&gt;Node34 -->
<g id="edge33" class="edge"><title>Node10&#45;&gt;Node34</title>
<path fill="none" stroke="midnightblue" d="M1142.16,-650.913C1155.63,-572.791 1200.36,-336.047 1256,-285 1260.12,-281.218 1264.67,-277.951 1269.5,-275.133"/>
<polygon fill="midnightblue" stroke="midnightblue" points="1138.7,-650.403 1140.47,-660.848 1145.6,-651.577 1138.7,-650.403"/>
</g>
<!-- Node35 -->
<g id="node35" class="node"><title>Node35</title>
<g id="a_node35"><a xlink:href="../../d5/d21/classcommands_1_1_set_pen_color_command.html#a69a9c0161b8910c8fecc5ace219aeeb8" target="_top" xlink:title="commands.SetPenColorCommand.update\lTurtle">
<polygon fill="white" stroke="black" points="1266,-196 1266,-226 1486,-226 1486,-196 1266,-196"/>
<text text-anchor="start" x="1274" y="-214" font-family="Helvetica,sans-Serif" font-size="10.00">commands.SetPenColorCommand.update</text>
<text text-anchor="middle" x="1376" y="-203" font-family="Helvetica,sans-Serif" font-size="10.00">Turtle</text>
</a>
</g>
</g>
<!-- Node10&#45;&gt;Node35 -->
<g id="edge34" class="edge"><title>Node10&#45;&gt;Node35</title>
<path fill="none" stroke="midnightblue" d="M1143.88,-651.156C1165.52,-560.192 1240.23,-249.811 1256,-235 1259.61,-231.609 1263.56,-228.638 1267.76,-226.039"/>
<polygon fill="midnightblue" stroke="midnightblue" points="1140.47,-650.359 1141.57,-660.897 1147.28,-651.977 1140.47,-650.359"/>
</g>
<!-- Node36 -->
<g id="node36" class="node"><title>Node36</title>
<g id="a_node36"><a xlink:href="../../dc/d65/classcommands_1_1_left_command.html#abd466facd4b16e1c04a6578b4bf8e203" target="_top" xlink:title="commands.LeftCommand.update\lTurtle">
<polygon fill="white" stroke="black" points="1286.5,-147 1286.5,-177 1465.5,-177 1465.5,-147 1286.5,-147"/>
<text text-anchor="start" x="1294.5" y="-165" font-family="Helvetica,sans-Serif" font-size="10.00">commands.LeftCommand.update</text>
<text text-anchor="middle" x="1376" y="-154" font-family="Helvetica,sans-Serif" font-size="10.00">Turtle</text>
</a>
</g>
</g>
<!-- Node10&#45;&gt;Node36 -->
<g id="edge35" class="edge"><title>Node10&#45;&gt;Node36</title>
<path fill="none" stroke="midnightblue" d="M1144.34,-650.68C1158.28,-594.95 1192.51,-457.442 1220,-342 1236.48,-272.78 1204.99,-235.611 1256,-186 1264.54,-177.698 1275.1,-171.891 1286.38,-167.883"/>
<polygon fill="midnightblue" stroke="midnightblue" points="1140.87,-650.154 1141.84,-660.704 1147.66,-651.853 1140.87,-650.154"/>
</g>
<!-- Node37 -->
<g id="node37" class="node"><title>Node37</title>
<g id="a_node37"><a xlink:href="../../d6/ddc/classcommands_1_1_backward_command.html#af0c4c6ac04bea1aa34b069a01c53888f" target="_top" xlink:title="commands.BackwardCommand.update\lTurtle">
<polygon fill="white" stroke="black" points="1273,-98 1273,-128 1479,-128 1479,-98 1273,-98"/>
<text text-anchor="start" x="1281" y="-116" font-family="Helvetica,sans-Serif" font-size="10.00">commands.BackwardCommand.update</text>
<text text-anchor="middle" x="1376" y="-105" font-family="Helvetica,sans-Serif" font-size="10.00">Turtle</text>
</a>
</g>
</g>
<!-- Node10&#45;&gt;Node37 -->
<g id="edge36" class="edge"><title>Node10&#45;&gt;Node37</title>
<path fill="none" stroke="midnightblue" d="M1144.8,-650.783C1159.65,-595.258 1195.58,-458.129 1220,-342 1239.04,-251.475 1191.42,-203.229 1256,-137 1260.93,-131.945 1266.61,-127.802 1272.75,-124.419"/>
<polygon fill="midnightblue" stroke="midnightblue" points="1141.34,-650.204 1142.13,-660.769 1148.1,-652.018 1141.34,-650.204"/>
</g>
<!-- Node38 -->
<g id="node38" class="node"><title>Node38</title>
<g id="a_node38"><a xlink:href="../../da/d4f/classcommands_1_1_forward_command.html#afe19b644a8fe0d46f3dbf19aef135364" target="_top" xlink:title="commands.ForwardCommand.update\lTurtle">
<polygon fill="white" stroke="black" points="1277,-49 1277,-79 1475,-79 1475,-49 1277,-49"/>
<text text-anchor="start" x="1285" y="-67" font-family="Helvetica,sans-Serif" font-size="10.00">commands.ForwardCommand.update</text>
<text text-anchor="middle" x="1376" y="-56" font-family="Helvetica,sans-Serif" font-size="10.00">Turtle</text>
</a>
</g>
</g>
<!-- Node10&#45;&gt;Node38 -->
<g id="edge37" class="edge"><title>Node10&#45;&gt;Node38</title>
<path fill="none" stroke="midnightblue" d="M1145.09,-650.841C1160.51,-595.431 1197.5,-458.517 1220,-342 1230.81,-286.026 1216.88,-129.467 1256,-88 1261.93,-81.7146 1269.01,-76.8269 1276.73,-73.0504"/>
<polygon fill="midnightblue" stroke="midnightblue" points="1141.63,-650.233 1142.31,-660.806 1148.37,-652.117 1141.63,-650.233"/>
</g>
<!-- Node23 -->
<g id="node23" class="node"><title>Node23</title>
<g id="a_node23"><a xlink:href="../../d5/dad/classcommands_1_1_if_command.html#a0d92f20941c1e79cfb1e02e77f463e68" target="_top" xlink:title="commands.IfCommand.execute\lCommand">
<polygon fill="white" stroke="black" points="1532,-784 1532,-814 1702,-814 1702,-784 1532,-784"/>
<text text-anchor="start" x="1540" y="-802" font-family="Helvetica,sans-Serif" font-size="10.00">commands.IfCommand.execute</text>
<text text-anchor="middle" x="1617" y="-791" font-family="Helvetica,sans-Serif" font-size="10.00">Command</text>
</a>
</g>
</g>
<!-- Node22&#45;&gt;Node23 -->
<g id="edge22" class="edge"><title>Node22&#45;&gt;Node23</title>
<path fill="none" stroke="midnightblue" d="M1481.5,-799C1498.27,-799 1515.45,-799 1531.68,-799"/>
<polygon fill="midnightblue" stroke="midnightblue" points="1481.12,-795.5 1471.12,-799 1481.12,-802.5 1481.12,-795.5"/>
</g>
<!-- Node40 -->
<g id="node40" class="node"><title>Node40</title>
<g id="a_node40"><a xlink:href="../../d9/df7/classcontroller_1_1_controller.html#a81fea06b52aed0a26625c5b30b490afb" target="_top" xlink:title="controller.Controller.run\lCommand">
<polygon fill="white" stroke="black" points="1312,-0 1312,-30 1440,-30 1440,-0 1312,-0"/>
<text text-anchor="start" x="1320" y="-18" font-family="Helvetica,sans-Serif" font-size="10.00">controller.Controller.run</text>
<text text-anchor="middle" x="1376" y="-7" font-family="Helvetica,sans-Serif" font-size="10.00">Command</text>
</a>
</g>
</g>
<!-- Node39&#45;&gt;Node40 -->
<g id="edge39" class="edge"><title>Node39&#45;&gt;Node40</title>
<path fill="none" stroke="midnightblue" d="M1214.99,-307.773C1216.77,-306.312 1218.45,-304.725 1220,-303 1299.28,-215.038 1174.96,-125.35 1256,-39 1270.28,-23.7855 1291.31,-16.7492 1311.74,-13.8411"/>
<polygon fill="midnightblue" stroke="midnightblue" points="1212.97,-304.917 1206.62,-313.401 1216.87,-310.726 1212.97,-304.917"/>
</g>
<!-- Node41 -->
<g id="node41" class="node"><title>Node41</title>
<g id="a_node41"><a xlink:href="../../d9/df7/classcontroller_1_1_controller.html#afdfa7f9e9a3fb5f6b73a6b8e2b2be8b5" target="_top" xlink:title="controller.Controller.get\lInput">
<polygon fill="white" stroke="black" points="1553,-0 1553,-30 1681,-30 1681,-0 1553,-0"/>
<text text-anchor="start" x="1561" y="-18" font-family="Helvetica,sans-Serif" font-size="10.00">controller.Controller.get</text>
<text text-anchor="middle" x="1617" y="-7" font-family="Helvetica,sans-Serif" font-size="10.00">Input</text>
</a>
</g>
</g>
<!-- Node40&#45;&gt;Node41 -->
<g id="edge40" class="edge"><title>Node40&#45;&gt;Node41</title>
<path fill="none" stroke="midnightblue" d="M1450.11,-15C1482.98,-15 1521.38,-15 1552.95,-15"/>
<polygon fill="midnightblue" stroke="midnightblue" points="1450.11,-11.5001 1440.11,-15 1450.11,-18.5001 1450.11,-11.5001"/>
</g>
<!-- Node42 -->
<g id="node42" class="node"><title>Node42</title>
<g id="a_node42"><a xlink:href="../../d3/dc7/classview_1_1controllers_1_1_pane_controller.html#a7e6154aecb60d8f3bcb056a11e842764" target="_top" xlink:title="view.controllers.PaneController.update">
<polygon fill="white" stroke="black" points="1738,-5.5 1738,-24.5 1936,-24.5 1936,-5.5 1738,-5.5"/>
<text text-anchor="middle" x="1837" y="-12.5" font-family="Helvetica,sans-Serif" font-size="10.00">view.controllers.PaneController.update</text>
</a>
</g>
</g>
<!-- Node41&#45;&gt;Node42 -->
<g id="edge41" class="edge"><title>Node41&#45;&gt;Node42</title>
<path fill="none" stroke="midnightblue" d="M1691.22,-15C1706.16,-15 1722.11,-15 1737.76,-15"/>
<polygon fill="midnightblue" stroke="midnightblue" points="1691.05,-11.5001 1681.05,-15 1691.05,-18.5001 1691.05,-11.5001"/>
</g>
<!-- Node44 -->
<g id="node44" class="node"><title>Node44</title>
<g id="a_node44"><a xlink:href="../../d8/daa/classview_1_1panes_1_1_turtle_selector_pane.html#a14e3fbe35c7447dcdf2f0910333cedcc" target="_top" xlink:title="view.panes.TurtleSelector\lPane.TurtleSelectorPane">
<polygon fill="white" stroke="black" points="1068.5,-264 1068.5,-294 1205.5,-294 1205.5,-264 1068.5,-264"/>
<text text-anchor="start" x="1076.5" y="-282" font-family="Helvetica,sans-Serif" font-size="10.00">view.panes.TurtleSelector</text>
<text text-anchor="middle" x="1137" y="-271" font-family="Helvetica,sans-Serif" font-size="10.00">Pane.TurtleSelectorPane</text>
</a>
</g>
</g>
<!-- Node43&#45;&gt;Node44 -->
<g id="edge43" class="edge"><title>Node43&#45;&gt;Node44</title>
<path fill="none" stroke="midnightblue" d="M1028.43,-279C1042.02,-279 1055.69,-279 1068.5,-279"/>
<polygon fill="midnightblue" stroke="midnightblue" points="1028.06,-275.5 1018.06,-279 1028.06,-282.5 1028.06,-275.5"/>
</g>
</g>
</svg>
        <g id="navigator" transform="translate(0 0)" fill="#404254">
                <rect fill="#f2f5e9" fill-opacity="0.5" stroke="#606060" stroke-width=".5" x="0" y="0" width="60" height="60"/>
                <use id="zoomplus" xlink:href="#zoomPlus" x="17" y="9" onmousedown="handleZoom(evt,'in')"/>
                <use id="zoomminus" xlink:href="#zoomMin" x="42" y="9" onmousedown="handleZoom(evt,'out')"/>
                <use id="reset" xlink:href="#resetDef" x="30" y="36" onmousedown="handleReset()"/>
                <g id="arrowUp" xlink:href="#dirArrow" transform="translate(30 24)" onmousedown="handlePan(0,-1)">
                  <use xlink:href="#rim" fill="#404040">
                        <set attributeName="fill" to="#808080" begin="arrowUp.mouseover" end="arrowUp.mouseout"/>
                  </use>
                  <path fill="none" stroke="white" stroke-width="1.5" d="M0,-3.0v7 M-2.5,-0.5L0,-3.0L2.5,-0.5"/>
                </g>
                <g id="arrowRight" xlink:href="#dirArrow" transform="rotate(90) translate(36 -43)" onmousedown="handlePan(1,0)">
                  <use xlink:href="#rim" fill="#404040">
                        <set attributeName="fill" to="#808080" begin="arrowRight.mouseover" end="arrowRight.mouseout"/>
                  </use>
                  <path fill="none" stroke="white" stroke-width="1.5" d="M0,-3.0v7 M-2.5,-0.5L0,-3.0L2.5,-0.5"/>
                </g>
                <g id="arrowDown" xlink:href="#dirArrow" transform="rotate(180) translate(-30 -48)" onmousedown="handlePan(0,1)">
                  <use xlink:href="#rim" fill="#404040">
                        <set attributeName="fill" to="#808080" begin="arrowDown.mouseover" end="arrowDown.mouseout"/>
                  </use>
                  <path fill="none" stroke="white" stroke-width="1.5" d="M0,-3.0v7 M-2.5,-0.5L0,-3.0L2.5,-0.5"/>
                </g>
                <g id="arrowLeft" xlink:href="#dirArrow" transform="rotate(270) translate(-36 17)" onmousedown="handlePan(-1,0)">
                  <use xlink:href="#rim" fill="#404040">
                        <set attributeName="fill" to="#808080" begin="arrowLeft.mouseover" end="arrowLeft.mouseout"/>
                  </use>
                  <path fill="none" stroke="white" stroke-width="1.5" d="M0,-3.0v7 M-2.5,-0.5L0,-3.0L2.5,-0.5"/>
                </g>
        </g>
        <svg viewBox="0 0 15 15" width="100%" height="30px" preserveAspectRatio="xMaxYMin meet">
         <g id="arrow_out" transform="scale(0.3 0.3)">
          <a xlink:href="classmodel_1_1_pen_afad4fb3e51847cacab72c036ddaa108f_icgraph_org.svg" target="_base">
           <rect id="button" ry="5" rx="5" y="6" x="6" height="38" width="38"
                fill="#f2f5e9" fill-opacity="0.5" stroke="#606060" stroke-width="1.0"/>
           <path id="arrow"
             d="M 11.500037,31.436501 C 11.940474,20.09759 22.043105,11.32322 32.158766,21.979434 L 37.068811,17.246167 C 37.068811,17.246167 37.088388,32 37.088388,32 L 22.160133,31.978069 C 22.160133,31.978069 26.997745,27.140456 26.997745,27.140456 C 18.528582,18.264221 13.291696,25.230495 11.500037,31.436501 z"
             style="fill:#404040;"/>
          </a>
         </g>
        </svg>
</svg>
