<?xml version="1.0" encoding="UTF-8" standalone="no"?>
<!DOCTYPE svg PUBLIC "-//W3C//DTD SVG 1.1//EN"
 "http://www.w3.org/Graphics/SVG/1.1/DTD/svg11.dtd">
<!-- Generated by graphviz version 2.36.0 (20140111.2315)
 -->
<!-- Title: model.Pen.getPenColor Pages: 1 -->
<!--zoomable 1361 -->
<svg id="main" version="1.1" xmlns="http://www.w3.org/2000/svg" xmlns:xlink="http://www.w3.org/1999/xlink" xml:space="preserve" onload="init(evt)">
<style type="text/css"><![CDATA[
.edge:hover path { stroke: red; }
.edge:hover polygon { stroke: red; fill: red; }
]]></style>
<script type="text/javascript"><![CDATA[
var edges = document.getElementsByTagName('g');
if (edges && edges.length) {
  for (var i=0;i<edges.length;i++) {
    if (edges[i].id.substr(0,4)=='edge') {
      edges[i].setAttribute('class','edge');
    }
  }
}
]]></script>
        <defs>
                <circle id="rim" cx="0" cy="0" r="7"/>
                <circle id="rim2" cx="0" cy="0" r="3.5"/>
                <g id="zoomPlus">
                        <use xlink:href="#rim" fill="#404040">
                                <set attributeName="fill" to="#808080" begin="zoomplus.mouseover" end="zoomplus.mouseout"/>
                        </use>
                        <path d="M-4,0h8M0,-4v8" fill="none" stroke="white" stroke-width="1.5" pointer-events="none"/>
                </g>
                <g id="zoomMin">
                        <use xlink:href="#rim" fill="#404040">
                                <set attributeName="fill" to="#808080" begin="zoomminus.mouseover" end="zoomminus.mouseout"/>
                        </use>
                        <path d="M-4,0h8" fill="none" stroke="white" stroke-width="1.5" pointer-events="none"/>
                </g>
                <g id="dirArrow">
                        <path fill="none" stroke="white" stroke-width="1.5" d="M0,-3.0v7 M-2.5,-0.5L0,-3.0L2.5,-0.5"/>
                </g>
               <g id="resetDef">
                       <use xlink:href="#rim2" fill="#404040">
                               <set attributeName="fill" to="#808080" begin="reset.mouseover" end="reset.mouseout"/>
                       </use>
               </g>
        </defs>

<script type="text/javascript">
var viewWidth = 1958;
var viewHeight = 1361;
var sectionId = 'dynsection-2';
</script>
<script xlink:href="../../svgpan.js"/>
<svg id="graph" class="graph">
<g id="viewport">
<title>model.Pen.getPenColor</title>
<polygon fill="white" stroke="none" points="-4,4 -4,-1357 1954,-1357 1954,4 -4,4"/>
<!-- Node1 -->
<g id="node1" class="node"><title>Node1</title>
<polygon fill="#bfbfbf" stroke="black" points="0.5,-315.5 0.5,-334.5 129.5,-334.5 129.5,-315.5 0.5,-315.5"/>
<text text-anchor="middle" x="65" y="-322.5" font-family="Helvetica,sans-Serif" font-size="10.00">model.Pen.getPenColor</text>
</g>
<!-- Node2 -->
<g id="node2" class="node"><title>Node2</title>
<g id="a_node2"><a xlink:href="../../d6/d34/classmodel_1_1_turtle.html#a193c156784f783064ae533b619b6be6e" target="_top" xlink:title="model.Turtle.getPenColor">
<polygon fill="white" stroke="black" points="166.5,-315.5 166.5,-334.5 303.5,-334.5 303.5,-315.5 166.5,-315.5"/>
<text text-anchor="middle" x="235" y="-322.5" font-family="Helvetica,sans-Serif" font-size="10.00">model.Turtle.getPenColor</text>
</a>
</g>
</g>
<!-- Node1&#45;&gt;Node2 -->
<g id="edge1" class="edge"><title>Node1&#45;&gt;Node2</title>
<path fill="none" stroke="midnightblue" d="M139.535,-325C148.492,-325 157.61,-325 166.474,-325"/>
<polygon fill="midnightblue" stroke="midnightblue" points="139.514,-321.5 129.514,-325 139.514,-328.5 139.514,-321.5"/>
</g>
<!-- Node3 -->
<g id="node3" class="node"><title>Node3</title>
<g id="a_node3"><a xlink:href="../../d7/d4f/classcommands_1_1_get_pen_color_command.html#a323244d5f0b999d912f8c2e0ae86d97a" target="_top" xlink:title="commands.GetPenColorCommand.execute\lCommand">
<polygon fill="white" stroke="black" points="340.5,-335 340.5,-365 565.5,-365 565.5,-335 340.5,-335"/>
<text text-anchor="start" x="348.5" y="-353" font-family="Helvetica,sans-Serif" font-size="10.00">commands.GetPenColorCommand.execute</text>
<text text-anchor="middle" x="453" y="-342" font-family="Helvetica,sans-Serif" font-size="10.00">Command</text>
</a>
</g>
</g>
<!-- Node2&#45;&gt;Node3 -->
<g id="edge2" class="edge"><title>Node2&#45;&gt;Node3</title>
<path fill="none" stroke="midnightblue" d="M313.722,-333.996C322.337,-334.993 331.232,-336.022 340.162,-337.056"/>
<polygon fill="midnightblue" stroke="midnightblue" points="314.087,-330.515 303.751,-332.842 313.282,-337.468 314.087,-330.515"/>
</g>
<!-- Node4 -->
<g id="node4" class="node"><title>Node4</title>
<g id="a_node4"><a xlink:href="../../db/db5/classview_1_1panes_1_1_view_pane_module.html#ab55ce3511929b88a2cd1235eb694868f" target="_top" xlink:title="view.panes.ViewPaneModule.update\lTurtle">
<polygon fill="white" stroke="black" points="359,-286 359,-316 547,-316 547,-286 359,-286"/>
<text text-anchor="start" x="367" y="-304" font-family="Helvetica,sans-Serif" font-size="10.00">view.panes.ViewPaneModule.update</text>
<text text-anchor="middle" x="453" y="-293" font-family="Helvetica,sans-Serif" font-size="10.00">Turtle</text>
</a>
</g>
</g>
<!-- Node2&#45;&gt;Node4 -->
<g id="edge3" class="edge"><title>Node2&#45;&gt;Node4</title>
<path fill="none" stroke="midnightblue" d="M313.722,-316.364C328.33,-314.741 343.743,-313.029 358.767,-311.359"/>
<polygon fill="midnightblue" stroke="midnightblue" points="313.303,-312.889 303.751,-317.472 314.076,-319.846 313.303,-312.889"/>
</g>
<!-- Node5 -->
<g id="node5" class="node"><title>Node5</title>
<g id="a_node5"><a xlink:href="../../db/db5/classview_1_1panes_1_1_view_pane_module.html#aa2a1bf15bc036ee4237bf63749d85baf" target="_top" xlink:title="view.panes.ViewPaneModule.updateView">
<polygon fill="white" stroke="black" points="602.5,-291.5 602.5,-310.5 811.5,-310.5 811.5,-291.5 602.5,-291.5"/>
<text text-anchor="middle" x="707" y="-298.5" font-family="Helvetica,sans-Serif" font-size="10.00">view.panes.ViewPaneModule.updateView</text>
</a>
</g>
</g>
<!-- Node4&#45;&gt;Node5 -->
<g id="edge4" class="edge"><title>Node4&#45;&gt;Node5</title>
<path fill="none" stroke="midnightblue" d="M557.305,-301C572.132,-301 587.393,-301 602.229,-301"/>
<polygon fill="midnightblue" stroke="midnightblue" points="557.12,-297.5 547.12,-301 557.119,-304.5 557.12,-297.5"/>
</g>
<!-- Node6 -->
<g id="node6" class="node"><title>Node6</title>
<g id="a_node6"><a xlink:href="../../d3/d42/classmodel_1_1_model.html#a76160d002c1e68b566307ac44356f6e5" target="_top" xlink:title="model.Model.notifyView">
<polygon fill="white" stroke="black" points="875.5,-313.5 875.5,-332.5 1004.5,-332.5 1004.5,-313.5 875.5,-313.5"/>
<text text-anchor="middle" x="940" y="-320.5" font-family="Helvetica,sans-Serif" font-size="10.00">model.Model.notifyView</text>
</a>
</g>
</g>
<!-- Node5&#45;&gt;Node6 -->
<g id="edge5" class="edge"><title>Node5&#45;&gt;Node6</title>
<path fill="none" stroke="midnightblue" d="M818.173,-311.493C837.729,-313.355 857.49,-315.237 875.206,-316.924"/>
<polygon fill="midnightblue" stroke="midnightblue" points="818.263,-307.986 807.976,-310.522 817.6,-314.954 818.263,-307.986"/>
</g>
<!-- Node40 -->
<g id="node40" class="node"><title>Node40</title>
<g id="a_node40"><a xlink:href="../../db/db5/classview_1_1panes_1_1_view_pane_module.html#a200bd9d0cb7f1fb3482afb7f085939cd" target="_top" xlink:title="view.panes.ViewPaneModule.toggle\lActive">
<polygon fill="white" stroke="black" points="848,-264 848,-294 1032,-294 1032,-264 848,-264"/>
<text text-anchor="start" x="856" y="-282" font-family="Helvetica,sans-Serif" font-size="10.00">view.panes.ViewPaneModule.toggle</text>
<text text-anchor="middle" x="940" y="-271" font-family="Helvetica,sans-Serif" font-size="10.00">Active</text>
</a>
</g>
</g>
<!-- Node5&#45;&gt;Node40 -->
<g id="edge39" class="edge"><title>Node5&#45;&gt;Node40</title>
<path fill="none" stroke="midnightblue" d="M817.986,-290.525C828.025,-289.569 838.12,-288.608 847.966,-287.67"/>
<polygon fill="midnightblue" stroke="midnightblue" points="817.6,-287.046 807.976,-291.478 818.263,-294.014 817.6,-287.046"/>
</g>
<!-- Node7 -->
<g id="node7" class="node"><title>Node7</title>
<g id="a_node7"><a xlink:href="../../dd/dd6/classcommands_1_1_command.html#abafa69601e87c34d4453cf84349d6f9c" target="_top" xlink:title="commands.Command.execute\lCommand">
<polygon fill="white" stroke="black" points="1068.5,-661 1068.5,-691 1233.5,-691 1233.5,-661 1068.5,-661"/>
<text text-anchor="start" x="1076.5" y="-679" font-family="Helvetica,sans-Serif" font-size="10.00">commands.Command.execute</text>
<text text-anchor="middle" x="1151" y="-668" font-family="Helvetica,sans-Serif" font-size="10.00">Command</text>
</a>
</g>
</g>
<!-- Node6&#45;&gt;Node7 -->
<g id="edge6" class="edge"><title>Node6&#45;&gt;Node7</title>
<path fill="none" stroke="midnightblue" d="M951.99,-341.563C988.815,-403.76 1107.42,-604.075 1141.04,-660.865"/>
<polygon fill="midnightblue" stroke="midnightblue" points="954.914,-339.631 946.808,-332.81 948.891,-343.198 954.914,-339.631"/>
</g>
<!-- Node36 -->
<g id="node36" class="node"><title>Node36</title>
<g id="a_node36"><a xlink:href="../../d3/d42/classmodel_1_1_model.html#a73435cc7a2b6100031bbdd2cf6d6b4e8" target="_top" xlink:title="model.Model.updateModel">
<polygon fill="white" stroke="black" points="1079.5,-313.5 1079.5,-332.5 1222.5,-332.5 1222.5,-313.5 1079.5,-313.5"/>
<text text-anchor="middle" x="1151" y="-320.5" font-family="Helvetica,sans-Serif" font-size="10.00">model.Model.updateModel</text>
</a>
</g>
</g>
<!-- Node6&#45;&gt;Node36 -->
<g id="edge35" class="edge"><title>Node6&#45;&gt;Node36</title>
<path fill="none" stroke="midnightblue" d="M1014.72,-323C1035.75,-323 1058.61,-323 1079.45,-323"/>
<polygon fill="midnightblue" stroke="midnightblue" points="1014.56,-319.5 1004.56,-323 1014.56,-326.5 1014.56,-319.5"/>
</g>
<!-- Node8 -->
<g id="node8" class="node"><title>Node8</title>
<g id="a_node8"><a xlink:href="../../d1/d79/classcommands_1_1_sum_command.html#a792945436d0c3ff1f58301fcc50f5ae1" target="_top" xlink:title="commands.SumCommand.execute\lCommand">
<polygon fill="white" stroke="black" points="1296,-1323 1296,-1353 1484,-1353 1484,-1323 1296,-1323"/>
<text text-anchor="start" x="1304" y="-1341" font-family="Helvetica,sans-Serif" font-size="10.00">commands.SumCommand.execute</text>
<text text-anchor="middle" x="1390" y="-1330" font-family="Helvetica,sans-Serif" font-size="10.00">Command</text>
</a>
</g>
</g>
<!-- Node7&#45;&gt;Node8 -->
<g id="edge7" class="edge"><title>Node7&#45;&gt;Node8</title>
<path fill="none" stroke="midnightblue" d="M1153.05,-701.444C1158.01,-808.823 1182.63,-1223.52 1270,-1313 1277.3,-1320.48 1286.23,-1326 1295.88,-1330.04"/>
<polygon fill="midnightblue" stroke="midnightblue" points="1156.54,-701.061 1152.6,-691.226 1149.54,-701.372 1156.54,-701.061"/>
</g>
<!-- Node9 -->
<g id="node9" class="node"><title>Node9</title>
<g id="a_node9"><a xlink:href="../../d6/dc0/classcommands_1_1_repeat_command.html#a40fb82831e8b2beaa7e31913e46e15eb" target="_top" xlink:title="commands.RepeatCommand.execute\lCommand">
<polygon fill="white" stroke="black" points="1291,-1274 1291,-1304 1489,-1304 1489,-1274 1291,-1274"/>
<text text-anchor="start" x="1299" y="-1292" font-family="Helvetica,sans-Serif" font-size="10.00">commands.RepeatCommand.execute</text>
<text text-anchor="middle" x="1390" y="-1281" font-family="Helvetica,sans-Serif" font-size="10.00">Command</text>
</a>
</g>
</g>
<!-- Node7&#45;&gt;Node9 -->
<g id="edge8" class="edge"><title>Node7&#45;&gt;Node9</title>
<path fill="none" stroke="midnightblue" d="M1153.48,-701.431C1159.92,-803.56 1189.03,-1182.29 1270,-1264 1276.02,-1270.07 1283.11,-1274.85 1290.79,-1278.59"/>
<polygon fill="midnightblue" stroke="midnightblue" points="1156.95,-700.909 1152.84,-691.142 1149.96,-701.338 1156.95,-700.909"/>
</g>
<!-- Node10 -->
<g id="node10" class="node"><title>Node10</title>
<g id="a_node10"><a xlink:href="../../dd/d82/classcommands_1_1_remainder_command.html#a99d4baf3f1b4a3c8d0cd69274380a2cf" target="_top" xlink:title="commands.RemainderCommand.execute\lCommand">
<polygon fill="white" stroke="black" points="1282,-1225 1282,-1255 1498,-1255 1498,-1225 1282,-1225"/>
<text text-anchor="start" x="1290" y="-1243" font-family="Helvetica,sans-Serif" font-size="10.00">commands.RemainderCommand.execute</text>
<text text-anchor="middle" x="1390" y="-1232" font-family="Helvetica,sans-Serif" font-size="10.00">Command</text>
</a>
</g>
</g>
<!-- Node7&#45;&gt;Node10 -->
<g id="edge9" class="edge"><title>Node7&#45;&gt;Node10</title>
<path fill="none" stroke="midnightblue" d="M1153.96,-701.181C1161.95,-797.511 1195.33,-1140.96 1270,-1215 1273.82,-1218.79 1278.06,-1222.07 1282.6,-1224.91"/>
<polygon fill="midnightblue" stroke="midnightblue" points="1157.44,-700.858 1153.14,-691.174 1150.46,-701.424 1157.44,-700.858"/>
</g>
<!-- Node11 -->
<g id="node11" class="node"><title>Node11</title>
<g id="a_node11"><a xlink:href="../../df/df5/classcommands_1_1_minus_command.html#a82548bbb25a73194469e1ff81b19cf27" target="_top" xlink:title="commands.MinusCommand.execute\lCommand">
<polygon fill="white" stroke="black" points="1293.5,-1176 1293.5,-1206 1486.5,-1206 1486.5,-1176 1293.5,-1176"/>
<text text-anchor="start" x="1301.5" y="-1194" font-family="Helvetica,sans-Serif" font-size="10.00">commands.MinusCommand.execute</text>
<text text-anchor="middle" x="1390" y="-1183" font-family="Helvetica,sans-Serif" font-size="10.00">Command</text>
</a>
</g>
</g>
<!-- Node7&#45;&gt;Node11 -->
<g id="edge10" class="edge"><title>Node7&#45;&gt;Node11</title>
<path fill="none" stroke="midnightblue" d="M1154.55,-701.225C1164.24,-791.929 1201.69,-1099.66 1270,-1166 1276.74,-1172.54 1284.73,-1177.57 1293.34,-1181.41"/>
<polygon fill="midnightblue" stroke="midnightblue" points="1158.03,-700.851 1153.51,-691.27 1151.07,-701.581 1158.03,-700.851"/>
</g>
<!-- Node12 -->
<g id="node12" class="node"><title>Node12</title>
<g id="a_node12"><a xlink:href="../../d3/d37/classcommands_1_1_set_background_command.html#a91dc8e21948a301c55af1cef90b77962" target="_top" xlink:title="commands.SetBackgroundCommand.execute\lCommand">
<polygon fill="white" stroke="black" points="1270.5,-1127 1270.5,-1157 1509.5,-1157 1509.5,-1127 1270.5,-1127"/>
<text text-anchor="start" x="1278.5" y="-1145" font-family="Helvetica,sans-Serif" font-size="10.00">commands.SetBackgroundCommand.execute</text>
<text text-anchor="middle" x="1390" y="-1134" font-family="Helvetica,sans-Serif" font-size="10.00">Command</text>
</a>
</g>
</g>
<!-- Node7&#45;&gt;Node12 -->
<g id="edge11" class="edge"><title>Node7&#45;&gt;Node12</title>
<path fill="none" stroke="midnightblue" d="M1155.26,-701.15C1166.74,-785.787 1207.98,-1058.26 1270,-1117 1273.99,-1120.77 1278.39,-1124.04 1283.08,-1126.86"/>
<polygon fill="midnightblue" stroke="midnightblue" points="1158.72,-700.585 1153.92,-691.137 1151.78,-701.512 1158.72,-700.585"/>
</g>
<!-- Node13 -->
<g id="node13" class="node"><title>Node13</title>
<g id="a_node13"><a xlink:href="../../d8/dba/classcommands_1_1_product_command.html#a8bc20bc7c21a944405f599dbcfa57e67" target="_top" xlink:title="commands.ProductCommand.execute\lCommand">
<polygon fill="white" stroke="black" points="1289,-1078 1289,-1108 1491,-1108 1491,-1078 1289,-1078"/>
<text text-anchor="start" x="1297" y="-1096" font-family="Helvetica,sans-Serif" font-size="10.00">commands.ProductCommand.execute</text>
<text text-anchor="middle" x="1390" y="-1085" font-family="Helvetica,sans-Serif" font-size="10.00">Command</text>
</a>
</g>
</g>
<!-- Node7&#45;&gt;Node13 -->
<g id="edge12" class="edge"><title>Node7&#45;&gt;Node13</title>
<path fill="none" stroke="midnightblue" d="M1151.41,-701.275C1151.23,-771.059 1160.92,-967.852 1270,-1068 1275.6,-1073.14 1281.98,-1077.33 1288.8,-1080.73"/>
<polygon fill="midnightblue" stroke="midnightblue" points="1154.91,-701.233 1151.5,-691.2 1147.91,-701.165 1154.91,-701.233"/>
</g>
<!-- Node14 -->
<g id="node14" class="node"><title>Node14</title>
<g id="a_node14"><a xlink:href="../../dd/d40/classcommands_1_1_quotient_command.html#a7e23b237cc68512dcbe6a65feb7c39e8" target="_top" xlink:title="commands.QuotientCommand.execute\lCommand">
<polygon fill="white" stroke="black" points="1287,-1029 1287,-1059 1493,-1059 1493,-1029 1287,-1029"/>
<text text-anchor="start" x="1295" y="-1047" font-family="Helvetica,sans-Serif" font-size="10.00">commands.QuotientCommand.execute</text>
<text text-anchor="middle" x="1390" y="-1036" font-family="Helvetica,sans-Serif" font-size="10.00">Command</text>
</a>
</g>
</g>
<!-- Node7&#45;&gt;Node14 -->
<g id="edge13" class="edge"><title>Node7&#45;&gt;Node14</title>
<path fill="none" stroke="midnightblue" d="M1152.67,-701.514C1155.82,-765.487 1173.36,-933.681 1270,-1019 1275.06,-1023.47 1280.72,-1027.21 1286.75,-1030.34"/>
<polygon fill="midnightblue" stroke="midnightblue" points="1156.16,-701.007 1152.25,-691.159 1149.16,-701.294 1156.16,-701.007"/>
</g>
<!-- Node15 -->
<g id="node15" class="node"><title>Node15</title>
<g id="a_node15"><a xlink:href="../../dc/d68/classcommands_1_1_make_variable_command.html#ad0e0974744cc969c12c67805c2460ef4" target="_top" xlink:title="commands.MakeVariableCommand.execute\lCommand">
<polygon fill="white" stroke="black" points="1275.5,-980 1275.5,-1010 1504.5,-1010 1504.5,-980 1275.5,-980"/>
<text text-anchor="start" x="1283.5" y="-998" font-family="Helvetica,sans-Serif" font-size="10.00">commands.MakeVariableCommand.execute</text>
<text text-anchor="middle" x="1390" y="-987" font-family="Helvetica,sans-Serif" font-size="10.00">Command</text>
</a>
</g>
</g>
<!-- Node7&#45;&gt;Node15 -->
<g id="edge14" class="edge"><title>Node7&#45;&gt;Node15</title>
<path fill="none" stroke="midnightblue" d="M1154.27,-701.004C1160.86,-758.166 1185.29,-898.929 1270,-970 1274.53,-973.799 1279.49,-977.067 1284.73,-979.873"/>
<polygon fill="midnightblue" stroke="midnightblue" points="1157.75,-700.607 1153.21,-691.035 1150.79,-701.35 1157.75,-700.607"/>
</g>
<!-- Node16 -->
<g id="node16" class="node"><title>Node16</title>
<g id="a_node16"><a xlink:href="../../d8/ded/classcommands_1_1_difference_command.html#a0c34c43d3bb266ef3e48ae27be938a0f" target="_top" xlink:title="commands.DifferenceCommand.execute\lCommand">
<polygon fill="white" stroke="black" points="1283,-931 1283,-961 1497,-961 1497,-931 1283,-931"/>
<text text-anchor="start" x="1291" y="-949" font-family="Helvetica,sans-Serif" font-size="10.00">commands.DifferenceCommand.execute</text>
<text text-anchor="middle" x="1390" y="-938" font-family="Helvetica,sans-Serif" font-size="10.00">Command</text>
</a>
</g>
</g>
<!-- Node7&#45;&gt;Node16 -->
<g id="edge15" class="edge"><title>Node7&#45;&gt;Node16</title>
<path fill="none" stroke="midnightblue" d="M1156.53,-701.294C1166.94,-751.586 1197.46,-864.176 1270,-921 1274.9,-924.84 1280.26,-928.128 1285.89,-930.938"/>
<polygon fill="midnightblue" stroke="midnightblue" points="1159.93,-700.411 1154.56,-691.276 1153.06,-701.765 1159.93,-700.411"/>
</g>
<!-- Node17 -->
<g id="node17" class="node"><title>Node17</title>
<g id="a_node17"><a xlink:href="../../dd/d29/classcommands_1_1_clear_screen_command.html#a87e5eb0f4c3bb48ec0737da2aa431db3" target="_top" xlink:title="commands.ClearScreenCommand.execute\lCommand">
<polygon fill="white" stroke="black" points="1278,-882 1278,-912 1502,-912 1502,-882 1278,-882"/>
<text text-anchor="start" x="1286" y="-900" font-family="Helvetica,sans-Serif" font-size="10.00">commands.ClearScreenCommand.execute</text>
<text text-anchor="middle" x="1390" y="-889" font-family="Helvetica,sans-Serif" font-size="10.00">Command</text>
</a>
</g>
</g>
<!-- Node7&#45;&gt;Node17 -->
<g id="edge16" class="edge"><title>Node7&#45;&gt;Node17</title>
<path fill="none" stroke="midnightblue" d="M1159.57,-700.672C1173.86,-742.893 1208.99,-828.631 1270,-872 1275.42,-875.853 1281.31,-879.136 1287.47,-881.931"/>
<polygon fill="midnightblue" stroke="midnightblue" points="1162.89,-699.579 1156.45,-691.165 1156.24,-701.757 1162.89,-699.579"/>
</g>
<!-- Node18 -->
<g id="node18" class="node"><title>Node18</title>
<g id="a_node18"><a xlink:href="../../d9/d35/classcommands_1_1_ask_command.html#ae4ba28c73ce0b5112e4032bd21a951f5" target="_top" xlink:title="commands.AskCommand.execute\lCommand">
<polygon fill="white" stroke="black" points="1299,-833 1299,-863 1481,-863 1481,-833 1299,-833"/>
<text text-anchor="start" x="1307" y="-851" font-family="Helvetica,sans-Serif" font-size="10.00">commands.AskCommand.execute</text>
<text text-anchor="middle" x="1390" y="-840" font-family="Helvetica,sans-Serif" font-size="10.00">Command</text>
</a>
</g>
</g>
<!-- Node7&#45;&gt;Node18 -->
<g id="edge17" class="edge"><title>Node7&#45;&gt;Node18</title>
<path fill="none" stroke="midnightblue" d="M1164.52,-700.426C1182.92,-733.7 1220.51,-792.605 1270,-823 1278.81,-828.413 1288.61,-832.67 1298.7,-836.015"/>
<polygon fill="midnightblue" stroke="midnightblue" points="1167.47,-698.514 1159.64,-691.373 1161.31,-701.836 1167.47,-698.514"/>
</g>
<!-- Node19 -->
<g id="node19" class="node"><title>Node19</title>
<g id="a_node19"><a xlink:href="../../d3/d49/classcommands_1_1_if_else_command.html#a3b3d15925117d366a69f8ebd1dbc2dbc" target="_top" xlink:title="commands.IfElseCommand.execute\lCommand">
<polygon fill="white" stroke="black" points="1295,-784 1295,-814 1485,-814 1485,-784 1295,-784"/>
<text text-anchor="start" x="1303" y="-802" font-family="Helvetica,sans-Serif" font-size="10.00">commands.IfElseCommand.execute</text>
<text text-anchor="middle" x="1390" y="-791" font-family="Helvetica,sans-Serif" font-size="10.00">Command</text>
</a>
</g>
</g>
<!-- Node7&#45;&gt;Node19 -->
<g id="edge18" class="edge"><title>Node7&#45;&gt;Node19</title>
<path fill="none" stroke="midnightblue" d="M1172.73,-698.758C1194.67,-721.389 1231.39,-755.347 1270,-774 1278.08,-777.903 1286.75,-781.199 1295.61,-783.982"/>
<polygon fill="midnightblue" stroke="midnightblue" points="1175.04,-696.105 1165.61,-691.27 1169.97,-700.928 1175.04,-696.105"/>
</g>
<!-- Node21 -->
<g id="node21" class="node"><title>Node21</title>
<g id="a_node21"><a xlink:href="../../d8/d57/classcommands_1_1_for_command.html#aeb06a37d7f9845eb546425bae6ea9f58" target="_top" xlink:title="commands.ForCommand.execute\lCommand">
<polygon fill="white" stroke="black" points="1300,-735 1300,-765 1480,-765 1480,-735 1300,-735"/>
<text text-anchor="start" x="1308" y="-753" font-family="Helvetica,sans-Serif" font-size="10.00">commands.ForCommand.execute</text>
<text text-anchor="middle" x="1390" y="-742" font-family="Helvetica,sans-Serif" font-size="10.00">Command</text>
</a>
</g>
</g>
<!-- Node7&#45;&gt;Node21 -->
<g id="edge20" class="edge"><title>Node7&#45;&gt;Node21</title>
<path fill="none" stroke="midnightblue" d="M1193.15,-695.308C1215.51,-705.231 1243.86,-716.904 1270,-725 1282,-728.716 1294.85,-732.055 1307.5,-734.992"/>
<polygon fill="midnightblue" stroke="midnightblue" points="1194.51,-692.084 1183.96,-691.179 1191.64,-698.47 1194.51,-692.084"/>
</g>
<!-- Node22 -->
<g id="node22" class="node"><title>Node22</title>
<g id="a_node22"><a xlink:href="../../db/d38/classcommands_1_1_ask_with_command.html#a5ee6a090e94729d84ef423a454d446eb" target="_top" xlink:title="commands.AskWithCommand.execute\lCommand">
<polygon fill="white" stroke="black" points="1288.5,-686 1288.5,-716 1491.5,-716 1491.5,-686 1288.5,-686"/>
<text text-anchor="start" x="1296.5" y="-704" font-family="Helvetica,sans-Serif" font-size="10.00">commands.AskWithCommand.execute</text>
<text text-anchor="middle" x="1390" y="-693" font-family="Helvetica,sans-Serif" font-size="10.00">Command</text>
</a>
</g>
</g>
<!-- Node7&#45;&gt;Node22 -->
<g id="edge21" class="edge"><title>Node7&#45;&gt;Node22</title>
<path fill="none" stroke="midnightblue" d="M1243.62,-685.665C1258.3,-687.213 1273.56,-688.823 1288.44,-690.392"/>
<polygon fill="midnightblue" stroke="midnightblue" points="1243.87,-682.172 1233.56,-684.604 1243.14,-689.133 1243.87,-682.172"/>
</g>
<!-- Node23 -->
<g id="node23" class="node"><title>Node23</title>
<g id="a_node23"><a xlink:href="../../d4/d02/classcommands_1_1_do_times_command.html#a1dd20e90975d905a1bce8f018e9f7f0a" target="_top" xlink:title="commands.DoTimesCommand.execute\lCommand">
<polygon fill="white" stroke="black" points="1286.5,-637 1286.5,-667 1493.5,-667 1493.5,-637 1286.5,-637"/>
<text text-anchor="start" x="1294.5" y="-655" font-family="Helvetica,sans-Serif" font-size="10.00">commands.DoTimesCommand.execute</text>
<text text-anchor="middle" x="1390" y="-644" font-family="Helvetica,sans-Serif" font-size="10.00">Command</text>
</a>
</g>
</g>
<!-- Node7&#45;&gt;Node23 -->
<g id="edge22" class="edge"><title>Node7&#45;&gt;Node23</title>
<path fill="none" stroke="midnightblue" d="M1243.64,-666.72C1257.63,-665.303 1272.15,-663.833 1286.35,-662.395"/>
<polygon fill="midnightblue" stroke="midnightblue" points="1243.16,-663.251 1233.56,-667.741 1243.86,-670.215 1243.16,-663.251"/>
</g>
<!-- Node24 -->
<g id="node24" class="node"><title>Node24</title>
<g id="a_node24"><a xlink:href="../../dd/de4/classcommands_1_1_custom_command.html#a5ad25438a49d3e4eeba835fefe8b730a" target="_top" xlink:title="commands.CustomCommand.execute\lCommand">
<polygon fill="white" stroke="black" points="1288.5,-588 1288.5,-618 1491.5,-618 1491.5,-588 1288.5,-588"/>
<text text-anchor="start" x="1296.5" y="-606" font-family="Helvetica,sans-Serif" font-size="10.00">commands.CustomCommand.execute</text>
<text text-anchor="middle" x="1390" y="-595" font-family="Helvetica,sans-Serif" font-size="10.00">Command</text>
</a>
</g>
</g>
<!-- Node7&#45;&gt;Node24 -->
<g id="edge23" class="edge"><title>Node7&#45;&gt;Node24</title>
<path fill="none" stroke="midnightblue" d="M1193.66,-656.916C1215.96,-647.252 1244.09,-635.921 1270,-628 1282.11,-624.297 1295.08,-620.956 1307.85,-618.011"/>
<polygon fill="midnightblue" stroke="midnightblue" points="1192.24,-653.719 1184.49,-660.941 1195.05,-660.129 1192.24,-653.719"/>
</g>
<!-- Node25 -->
<g id="node25" class="node"><title>Node25</title>
<g id="a_node25"><a xlink:href="../../d6/daf/classcommands_1_1_set_shape_command.html#a59c440316cf9e732b5aa2f46def94e10" target="_top" xlink:title="commands.SetShapeCommand.update\lTurtle">
<polygon fill="white" stroke="black" points="1286,-539 1286,-569 1494,-569 1494,-539 1286,-539"/>
<text text-anchor="start" x="1294" y="-557" font-family="Helvetica,sans-Serif" font-size="10.00">commands.SetShapeCommand.update</text>
<text text-anchor="middle" x="1390" y="-546" font-family="Helvetica,sans-Serif" font-size="10.00">Turtle</text>
</a>
</g>
</g>
<!-- Node7&#45;&gt;Node25 -->
<g id="edge24" class="edge"><title>Node7&#45;&gt;Node25</title>
<path fill="none" stroke="midnightblue" d="M1172.78,-653.48C1194.75,-631.086 1231.51,-597.479 1270,-579 1278.09,-575.117 1286.77,-571.835 1295.63,-569.06"/>
<polygon fill="midnightblue" stroke="midnightblue" points="1170.06,-651.259 1165.65,-660.891 1175.1,-656.114 1170.06,-651.259"/>
</g>
<!-- Node26 -->
<g id="node26" class="node"><title>Node26</title>
<g id="a_node26"><a xlink:href="../../d6/d11/classcommands_1_1_set_pen_dash_command.html#a320f3b8248e3e89b2338dfefbe73f8c7" target="_top" xlink:title="commands.SetPenDashCommand.update\lTurtle">
<polygon fill="white" stroke="black" points="1280,-490 1280,-520 1500,-520 1500,-490 1280,-490"/>
<text text-anchor="start" x="1288" y="-508" font-family="Helvetica,sans-Serif" font-size="10.00">commands.SetPenDashCommand.update</text>
<text text-anchor="middle" x="1390" y="-497" font-family="Helvetica,sans-Serif" font-size="10.00">Turtle</text>
</a>
</g>
</g>
<!-- Node7&#45;&gt;Node26 -->
<g id="edge25" class="edge"><title>Node7&#45;&gt;Node26</title>
<path fill="none" stroke="midnightblue" d="M1164.57,-651.74C1183.02,-618.692 1220.66,-560.188 1270,-530 1276.3,-526.144 1283.11,-522.875 1290.16,-520.104"/>
<polygon fill="midnightblue" stroke="midnightblue" points="1161.38,-650.275 1159.67,-660.731 1167.53,-653.622 1161.38,-650.275"/>
</g>
<!-- Node27 -->
<g id="node27" class="node"><title>Node27</title>
<g id="a_node27"><a xlink:href="../../dc/df3/classcommands_1_1_set_towards_command.html#ad82abd7dcaed57b3bdb3a4b87a91815a" target="_top" xlink:title="commands.SetTowardsCommand.update\lTurtle">
<polygon fill="white" stroke="black" points="1282.5,-441 1282.5,-471 1497.5,-471 1497.5,-441 1282.5,-441"/>
<text text-anchor="start" x="1290.5" y="-459" font-family="Helvetica,sans-Serif" font-size="10.00">commands.SetTowardsCommand.update</text>
<text text-anchor="middle" x="1390" y="-448" font-family="Helvetica,sans-Serif" font-size="10.00">Turtle</text>
</a>
</g>
</g>
<!-- Node7&#45;&gt;Node27 -->
<g id="edge26" class="edge"><title>Node7&#45;&gt;Node27</title>
<path fill="none" stroke="midnightblue" d="M1159.7,-651.184C1174.1,-609.082 1209.3,-524.047 1270,-481 1275.42,-477.153 1281.32,-473.875 1287.48,-471.083"/>
<polygon fill="midnightblue" stroke="midnightblue" points="1156.3,-650.318 1156.48,-660.911 1162.94,-652.517 1156.3,-650.318"/>
</g>
<!-- Node28 -->
<g id="node28" class="node"><title>Node28</title>
<g id="a_node28"><a xlink:href="../../d9/db5/classcommands_1_1_set_position_command.html#aba31c4887974831a6c0d9feac8316ee6" target="_top" xlink:title="commands.SetPositionCommand.update\lTurtle">
<polygon fill="white" stroke="black" points="1282.5,-392 1282.5,-422 1497.5,-422 1497.5,-392 1282.5,-392"/>
<text text-anchor="start" x="1290.5" y="-410" font-family="Helvetica,sans-Serif" font-size="10.00">commands.SetPositionCommand.update</text>
<text text-anchor="middle" x="1390" y="-399" font-family="Helvetica,sans-Serif" font-size="10.00">Turtle</text>
</a>
</g>
</g>
<!-- Node7&#45;&gt;Node28 -->
<g id="edge27" class="edge"><title>Node7&#45;&gt;Node28</title>
<path fill="none" stroke="midnightblue" d="M1156.57,-650.807C1167.03,-600.716 1197.66,-488.578 1270,-432 1274.91,-428.163 1280.26,-424.879 1285.9,-422.071"/>
<polygon fill="midnightblue" stroke="midnightblue" points="1153.1,-650.293 1154.58,-660.784 1159.97,-651.661 1153.1,-650.293"/>
</g>
<!-- Node29 -->
<g id="node29" class="node"><title>Node29</title>
<g id="a_node29"><a xlink:href="../../dd/db2/classcommands_1_1_right_command.html#ae16ecb0da3e0a2049a7382d74f315cb6" target="_top" xlink:title="commands.RightCommand.update\lTurtle">
<polygon fill="white" stroke="black" points="1297.5,-343 1297.5,-373 1482.5,-373 1482.5,-343 1297.5,-343"/>
<text text-anchor="start" x="1305.5" y="-361" font-family="Helvetica,sans-Serif" font-size="10.00">commands.RightCommand.update</text>
<text text-anchor="middle" x="1390" y="-350" font-family="Helvetica,sans-Serif" font-size="10.00">Turtle</text>
</a>
</g>
</g>
<!-- Node7&#45;&gt;Node29 -->
<g id="edge28" class="edge"><title>Node7&#45;&gt;Node29</title>
<path fill="none" stroke="midnightblue" d="M1154.34,-650.678C1161.06,-593.452 1185.7,-453.648 1270,-383 1278.01,-376.288 1287.37,-371.237 1297.26,-367.456"/>
<polygon fill="midnightblue" stroke="midnightblue" points="1150.86,-650.353 1153.26,-660.673 1157.82,-651.11 1150.86,-650.353"/>
</g>
<!-- Node30 -->
<g id="node30" class="node"><title>Node30</title>
<g id="a_node30"><a xlink:href="../../dc/db3/classcommands_1_1_set_heading_command.html#a064fae1a815349b9efc6bd43f2371339" target="_top" xlink:title="commands.SetHeadingCommand.update\lTurtle">
<polygon fill="white" stroke="black" points="1281.5,-294 1281.5,-324 1498.5,-324 1498.5,-294 1281.5,-294"/>
<text text-anchor="start" x="1289.5" y="-312" font-family="Helvetica,sans-Serif" font-size="10.00">commands.SetHeadingCommand.update</text>
<text text-anchor="middle" x="1390" y="-301" font-family="Helvetica,sans-Serif" font-size="10.00">Turtle</text>
</a>
</g>
</g>
<!-- Node7&#45;&gt;Node30 -->
<g id="edge29" class="edge"><title>Node7&#45;&gt;Node30</title>
<path fill="none" stroke="midnightblue" d="M1152.63,-650.439C1155.68,-586.357 1173.02,-417.929 1270,-333 1273.88,-329.598 1278.12,-326.628 1282.59,-324.037"/>
<polygon fill="midnightblue" stroke="midnightblue" points="1149.12,-650.682 1152.22,-660.812 1156.12,-650.958 1149.12,-650.682"/>
</g>
<!-- Node31 -->
<g id="node31" class="node"><title>Node31</title>
<g id="a_node31"><a xlink:href="../../d2/dbb/classcommands_1_1_set_pen_size_command.html#aa8dbbb22c72842b2d6f50aa169a8404e" target="_top" xlink:title="commands.SetPenSizeCommand.update\lTurtle">
<polygon fill="white" stroke="black" points="1282.5,-245 1282.5,-275 1497.5,-275 1497.5,-245 1282.5,-245"/>
<text text-anchor="start" x="1290.5" y="-263" font-family="Helvetica,sans-Serif" font-size="10.00">commands.SetPenSizeCommand.update</text>
<text text-anchor="middle" x="1390" y="-252" font-family="Helvetica,sans-Serif" font-size="10.00">Turtle</text>
</a>
</g>
</g>
<!-- Node7&#45;&gt;Node31 -->
<g id="edge30" class="edge"><title>Node7&#45;&gt;Node31</title>
<path fill="none" stroke="midnightblue" d="M1156.14,-650.831C1169.52,-572.454 1214.04,-334.962 1270,-284 1273.82,-280.523 1277.99,-277.492 1282.43,-274.853"/>
<polygon fill="midnightblue" stroke="midnightblue" points="1152.67,-650.355 1154.46,-660.798 1159.57,-651.519 1152.67,-650.355"/>
</g>
<!-- Node32 -->
<g id="node32" class="node"><title>Node32</title>
<g id="a_node32"><a xlink:href="../../d5/d21/classcommands_1_1_set_pen_color_command.html#a69a9c0161b8910c8fecc5ace219aeeb8" target="_top" xlink:title="commands.SetPenColorCommand.update\lTurtle">
<polygon fill="white" stroke="black" points="1280,-196 1280,-226 1500,-226 1500,-196 1280,-196"/>
<text text-anchor="start" x="1288" y="-214" font-family="Helvetica,sans-Serif" font-size="10.00">commands.SetPenColorCommand.update</text>
<text text-anchor="middle" x="1390" y="-203" font-family="Helvetica,sans-Serif" font-size="10.00">Turtle</text>
</a>
</g>
</g>
<!-- Node7&#45;&gt;Node32 -->
<g id="edge31" class="edge"><title>Node7&#45;&gt;Node32</title>
<path fill="none" stroke="midnightblue" d="M1157.88,-651.156C1179.52,-560.192 1254.23,-249.811 1270,-235 1273.61,-231.609 1277.56,-228.638 1281.76,-226.039"/>
<polygon fill="midnightblue" stroke="midnightblue" points="1154.47,-650.359 1155.57,-660.897 1161.28,-651.977 1154.47,-650.359"/>
</g>
<!-- Node33 -->
<g id="node33" class="node"><title>Node33</title>
<g id="a_node33"><a xlink:href="../../dc/d65/classcommands_1_1_left_command.html#abd466facd4b16e1c04a6578b4bf8e203" target="_top" xlink:title="commands.LeftCommand.update\lTurtle">
<polygon fill="white" stroke="black" points="1300.5,-147 1300.5,-177 1479.5,-177 1479.5,-147 1300.5,-147"/>
<text text-anchor="start" x="1308.5" y="-165" font-family="Helvetica,sans-Serif" font-size="10.00">commands.LeftCommand.update</text>
<text text-anchor="middle" x="1390" y="-154" font-family="Helvetica,sans-Serif" font-size="10.00">Turtle</text>
</a>
</g>
</g>
<!-- Node7&#45;&gt;Node33 -->
<g id="edge32" class="edge"><title>Node7&#45;&gt;Node33</title>
<path fill="none" stroke="midnightblue" d="M1158.34,-650.68C1172.28,-594.95 1206.51,-457.442 1234,-342 1250.48,-272.78 1218.99,-235.611 1270,-186 1278.54,-177.698 1289.1,-171.891 1300.38,-167.883"/>
<polygon fill="midnightblue" stroke="midnightblue" points="1154.87,-650.154 1155.84,-660.704 1161.66,-651.853 1154.87,-650.154"/>
</g>
<!-- Node34 -->
<g id="node34" class="node"><title>Node34</title>
<g id="a_node34"><a xlink:href="../../d6/ddc/classcommands_1_1_backward_command.html#af0c4c6ac04bea1aa34b069a01c53888f" target="_top" xlink:title="commands.BackwardCommand.update\lTurtle">
<polygon fill="white" stroke="black" points="1287,-98 1287,-128 1493,-128 1493,-98 1287,-98"/>
<text text-anchor="start" x="1295" y="-116" font-family="Helvetica,sans-Serif" font-size="10.00">commands.BackwardCommand.update</text>
<text text-anchor="middle" x="1390" y="-105" font-family="Helvetica,sans-Serif" font-size="10.00">Turtle</text>
</a>
</g>
</g>
<!-- Node7&#45;&gt;Node34 -->
<g id="edge33" class="edge"><title>Node7&#45;&gt;Node34</title>
<path fill="none" stroke="midnightblue" d="M1158.8,-650.783C1173.65,-595.258 1209.58,-458.129 1234,-342 1253.04,-251.475 1205.42,-203.229 1270,-137 1274.93,-131.945 1280.61,-127.802 1286.75,-124.419"/>
<polygon fill="midnightblue" stroke="midnightblue" points="1155.34,-650.204 1156.13,-660.769 1162.1,-652.018 1155.34,-650.204"/>
</g>
<!-- Node35 -->
<g id="node35" class="node"><title>Node35</title>
<g id="a_node35"><a xlink:href="../../da/d4f/classcommands_1_1_forward_command.html#afe19b644a8fe0d46f3dbf19aef135364" target="_top" xlink:title="commands.ForwardCommand.update\lTurtle">
<polygon fill="white" stroke="black" points="1291,-49 1291,-79 1489,-79 1489,-49 1291,-49"/>
<text text-anchor="start" x="1299" y="-67" font-family="Helvetica,sans-Serif" font-size="10.00">commands.ForwardCommand.update</text>
<text text-anchor="middle" x="1390" y="-56" font-family="Helvetica,sans-Serif" font-size="10.00">Turtle</text>
</a>
</g>
</g>
<!-- Node7&#45;&gt;Node35 -->
<g id="edge34" class="edge"><title>Node7&#45;&gt;Node35</title>
<path fill="none" stroke="midnightblue" d="M1159.09,-650.841C1174.51,-595.431 1211.5,-458.517 1234,-342 1244.81,-286.026 1230.88,-129.467 1270,-88 1275.93,-81.7146 1283.01,-76.8269 1290.73,-73.0504"/>
<polygon fill="midnightblue" stroke="midnightblue" points="1155.63,-650.233 1156.31,-660.806 1162.37,-652.117 1155.63,-650.233"/>
</g>
<!-- Node20 -->
<g id="node20" class="node"><title>Node20</title>
<g id="a_node20"><a xlink:href="../../d5/dad/classcommands_1_1_if_command.html#a0d92f20941c1e79cfb1e02e77f463e68" target="_top" xlink:title="commands.IfCommand.execute\lCommand">
<polygon fill="white" stroke="black" points="1546,-784 1546,-814 1716,-814 1716,-784 1546,-784"/>
<text text-anchor="start" x="1554" y="-802" font-family="Helvetica,sans-Serif" font-size="10.00">commands.IfCommand.execute</text>
<text text-anchor="middle" x="1631" y="-791" font-family="Helvetica,sans-Serif" font-size="10.00">Command</text>
</a>
</g>
</g>
<!-- Node19&#45;&gt;Node20 -->
<g id="edge19" class="edge"><title>Node19&#45;&gt;Node20</title>
<path fill="none" stroke="midnightblue" d="M1495.5,-799C1512.27,-799 1529.45,-799 1545.68,-799"/>
<polygon fill="midnightblue" stroke="midnightblue" points="1495.12,-795.5 1485.12,-799 1495.12,-802.5 1495.12,-795.5"/>
</g>
<!-- Node37 -->
<g id="node37" class="node"><title>Node37</title>
<g id="a_node37"><a xlink:href="../../d9/df7/classcontroller_1_1_controller.html#a81fea06b52aed0a26625c5b30b490afb" target="_top" xlink:title="controller.Controller.run\lCommand">
<polygon fill="white" stroke="black" points="1326,-0 1326,-30 1454,-30 1454,-0 1326,-0"/>
<text text-anchor="start" x="1334" y="-18" font-family="Helvetica,sans-Serif" font-size="10.00">controller.Controller.run</text>
<text text-anchor="middle" x="1390" y="-7" font-family="Helvetica,sans-Serif" font-size="10.00">Command</text>
</a>
</g>
</g>
<!-- Node36&#45;&gt;Node37 -->
<g id="edge36" class="edge"><title>Node36&#45;&gt;Node37</title>
<path fill="none" stroke="midnightblue" d="M1228.99,-307.773C1230.77,-306.312 1232.45,-304.725 1234,-303 1313.28,-215.038 1188.96,-125.35 1270,-39 1284.28,-23.7855 1305.31,-16.7492 1325.74,-13.8411"/>
<polygon fill="midnightblue" stroke="midnightblue" points="1226.97,-304.917 1220.62,-313.401 1230.87,-310.726 1226.97,-304.917"/>
</g>
<!-- Node38 -->
<g id="node38" class="node"><title>Node38</title>
<g id="a_node38"><a xlink:href="../../d9/df7/classcontroller_1_1_controller.html#afdfa7f9e9a3fb5f6b73a6b8e2b2be8b5" target="_top" xlink:title="controller.Controller.get\lInput">
<polygon fill="white" stroke="black" points="1567,-0 1567,-30 1695,-30 1695,-0 1567,-0"/>
<text text-anchor="start" x="1575" y="-18" font-family="Helvetica,sans-Serif" font-size="10.00">controller.Controller.get</text>
<text text-anchor="middle" x="1631" y="-7" font-family="Helvetica,sans-Serif" font-size="10.00">Input</text>
</a>
</g>
</g>
<!-- Node37&#45;&gt;Node38 -->
<g id="edge37" class="edge"><title>Node37&#45;&gt;Node38</title>
<path fill="none" stroke="midnightblue" d="M1464.11,-15C1496.98,-15 1535.38,-15 1566.95,-15"/>
<polygon fill="midnightblue" stroke="midnightblue" points="1464.11,-11.5001 1454.11,-15 1464.11,-18.5001 1464.11,-11.5001"/>
</g>
<!-- Node39 -->
<g id="node39" class="node"><title>Node39</title>
<g id="a_node39"><a xlink:href="../../d3/dc7/classview_1_1controllers_1_1_pane_controller.html#a7e6154aecb60d8f3bcb056a11e842764" target="_top" xlink:title="view.controllers.PaneController.update">
<polygon fill="white" stroke="black" points="1752,-5.5 1752,-24.5 1950,-24.5 1950,-5.5 1752,-5.5"/>
<text text-anchor="middle" x="1851" y="-12.5" font-family="Helvetica,sans-Serif" font-size="10.00">view.controllers.PaneController.update</text>
</a>
</g>
</g>
<!-- Node38&#45;&gt;Node39 -->
<g id="edge38" class="edge"><title>Node38&#45;&gt;Node39</title>
<path fill="none" stroke="midnightblue" d="M1705.22,-15C1720.16,-15 1736.11,-15 1751.76,-15"/>
<polygon fill="midnightblue" stroke="midnightblue" points="1705.05,-11.5001 1695.05,-15 1705.05,-18.5001 1705.05,-11.5001"/>
</g>
<!-- Node41 -->
<g id="node41" class="node"><title>Node41</title>
<g id="a_node41"><a xlink:href="../../d8/daa/classview_1_1panes_1_1_turtle_selector_pane.html#a14e3fbe35c7447dcdf2f0910333cedcc" target="_top" xlink:title="view.panes.TurtleSelector\lPane.TurtleSelectorPane">
<polygon fill="white" stroke="black" points="1082.5,-264 1082.5,-294 1219.5,-294 1219.5,-264 1082.5,-264"/>
<text text-anchor="start" x="1090.5" y="-282" font-family="Helvetica,sans-Serif" font-size="10.00">view.panes.TurtleSelector</text>
<text text-anchor="middle" x="1151" y="-271" font-family="Helvetica,sans-Serif" font-size="10.00">Pane.TurtleSelectorPane</text>
</a>
</g>
</g>
<!-- Node40&#45;&gt;Node41 -->
<g id="edge40" class="edge"><title>Node40&#45;&gt;Node41</title>
<path fill="none" stroke="midnightblue" d="M1042.43,-279C1056.02,-279 1069.69,-279 1082.5,-279"/>
<polygon fill="midnightblue" stroke="midnightblue" points="1042.06,-275.5 1032.06,-279 1042.06,-282.5 1042.06,-275.5"/>
</g>
</g>
</svg>
        <g id="navigator" transform="translate(0 0)" fill="#404254">
                <rect fill="#f2f5e9" fill-opacity="0.5" stroke="#606060" stroke-width=".5" x="0" y="0" width="60" height="60"/>
                <use id="zoomplus" xlink:href="#zoomPlus" x="17" y="9" onmousedown="handleZoom(evt,'in')"/>
                <use id="zoomminus" xlink:href="#zoomMin" x="42" y="9" onmousedown="handleZoom(evt,'out')"/>
                <use id="reset" xlink:href="#resetDef" x="30" y="36" onmousedown="handleReset()"/>
                <g id="arrowUp" xlink:href="#dirArrow" transform="translate(30 24)" onmousedown="handlePan(0,-1)">
                  <use xlink:href="#rim" fill="#404040">
                        <set attributeName="fill" to="#808080" begin="arrowUp.mouseover" end="arrowUp.mouseout"/>
                  </use>
                  <path fill="none" stroke="white" stroke-width="1.5" d="M0,-3.0v7 M-2.5,-0.5L0,-3.0L2.5,-0.5"/>
                </g>
                <g id="arrowRight" xlink:href="#dirArrow" transform="rotate(90) translate(36 -43)" onmousedown="handlePan(1,0)">
                  <use xlink:href="#rim" fill="#404040">
                        <set attributeName="fill" to="#808080" begin="arrowRight.mouseover" end="arrowRight.mouseout"/>
                  </use>
                  <path fill="none" stroke="white" stroke-width="1.5" d="M0,-3.0v7 M-2.5,-0.5L0,-3.0L2.5,-0.5"/>
                </g>
                <g id="arrowDown" xlink:href="#dirArrow" transform="rotate(180) translate(-30 -48)" onmousedown="handlePan(0,1)">
                  <use xlink:href="#rim" fill="#404040">
                        <set attributeName="fill" to="#808080" begin="arrowDown.mouseover" end="arrowDown.mouseout"/>
                  </use>
                  <path fill="none" stroke="white" stroke-width="1.5" d="M0,-3.0v7 M-2.5,-0.5L0,-3.0L2.5,-0.5"/>
                </g>
                <g id="arrowLeft" xlink:href="#dirArrow" transform="rotate(270) translate(-36 17)" onmousedown="handlePan(-1,0)">
                  <use xlink:href="#rim" fill="#404040">
                        <set attributeName="fill" to="#808080" begin="arrowLeft.mouseover" end="arrowLeft.mouseout"/>
                  </use>
                  <path fill="none" stroke="white" stroke-width="1.5" d="M0,-3.0v7 M-2.5,-0.5L0,-3.0L2.5,-0.5"/>
                </g>
        </g>
        <svg viewBox="0 0 15 15" width="100%" height="30px" preserveAspectRatio="xMaxYMin meet">
         <g id="arrow_out" transform="scale(0.3 0.3)">
          <a xlink:href="classmodel_1_1_pen_a704af31474b10d17caf40773b7971826_icgraph_org.svg" target="_base">
           <rect id="button" ry="5" rx="5" y="6" x="6" height="38" width="38"
                fill="#f2f5e9" fill-opacity="0.5" stroke="#606060" stroke-width="1.0"/>
           <path id="arrow"
             d="M 11.500037,31.436501 C 11.940474,20.09759 22.043105,11.32322 32.158766,21.979434 L 37.068811,17.246167 C 37.068811,17.246167 37.088388,32 37.088388,32 L 22.160133,31.978069 C 22.160133,31.978069 26.997745,27.140456 26.997745,27.140456 C 18.528582,18.264221 13.291696,25.230495 11.500037,31.436501 z"
             style="fill:#404040;"/>
          </a>
         </g>
        </svg>
</svg>
