<?xml version="1.0" encoding="UTF-8" standalone="no"?>
<!DOCTYPE svg PUBLIC "-//W3C//DTD SVG 1.1//EN"
 "http://www.w3.org/Graphics/SVG/1.1/DTD/svg11.dtd">
<!-- Generated by graphviz version 2.36.0 (20140111.2315)
 -->
<!-- Title: view.panes.InputPaneModule.InputPaneModule Pages: 1 -->
<svg width="612pt" height="66pt"
 viewBox="0.00 0.00 612.00 66.00" xmlns="http://www.w3.org/2000/svg" xmlns:xlink="http://www.w3.org/1999/xlink">
<g id="graph0" class="graph" transform="scale(1 1) rotate(0) translate(4 62)">
<title>view.panes.InputPaneModule.InputPaneModule</title>
<polygon fill="white" stroke="none" points="-4,4 -4,-62 608,-62 608,4 -4,4"/>
<!-- Node1 -->
<g id="node1" class="node"><title>Node1</title>
<polygon fill="#bfbfbf" stroke="black" points="0,-14 0,-44 156,-44 156,-14 0,-14"/>
<text text-anchor="start" x="8" y="-32" font-family="Helvetica,sans-Serif" font-size="10.00">view.panes.InputPaneModule.</text>
<text text-anchor="middle" x="78" y="-21" font-family="Helvetica,sans-Serif" font-size="10.00">InputPaneModule</text>
</g>
<!-- Node2 -->
<g id="node2" class="node"><title>Node2</title>
<g id="a_node2"><a xlink:href="../../d3/d9f/classview_1_1panes_1_1_input_pane_module.html#a1ab2a8da0203b89619af648aec997423" target="_top" xlink:title="view.panes.InputPaneModule.save">
<polygon fill="white" stroke="black" points="197.5,-38.5 197.5,-57.5 376.5,-57.5 376.5,-38.5 197.5,-38.5"/>
<text text-anchor="middle" x="287" y="-45.5" font-family="Helvetica,sans-Serif" font-size="10.00">view.panes.InputPaneModule.save</text>
</a>
</g>
</g>
<!-- Node1&#45;&gt;Node2 -->
<g id="edge1" class="edge"><title>Node1&#45;&gt;Node2</title>
<path fill="none" stroke="midnightblue" d="M156.079,-36.0749C166.271,-37.0104 176.829,-37.9795 187.321,-38.9425"/>
<polygon fill="midnightblue" stroke="midnightblue" points="187.067,-42.4338 197.345,-39.8626 187.707,-35.4632 187.067,-42.4338"/>
</g>
<!-- Node4 -->
<g id="node4" class="node"><title>Node4</title>
<g id="a_node4"><a xlink:href="../../d3/d9f/classview_1_1panes_1_1_input_pane_module.html#af466f43b6cde72051115970753703086" target="_top" xlink:title="view.panes.InputPaneModule.submit">
<polygon fill="white" stroke="black" points="192.5,-0.5 192.5,-19.5 381.5,-19.5 381.5,-0.5 192.5,-0.5"/>
<text text-anchor="middle" x="287" y="-7.5" font-family="Helvetica,sans-Serif" font-size="10.00">view.panes.InputPaneModule.submit</text>
</a>
</g>
</g>
<!-- Node1&#45;&gt;Node4 -->
<g id="edge3" class="edge"><title>Node1&#45;&gt;Node4</title>
<path fill="none" stroke="midnightblue" d="M156.079,-21.9251C164.681,-21.1355 173.544,-20.322 182.409,-19.5084"/>
<polygon fill="midnightblue" stroke="midnightblue" points="182.765,-22.9905 192.403,-18.591 182.125,-16.0198 182.765,-22.9905"/>
</g>
<!-- Node3 -->
<g id="node3" class="node"><title>Node3</title>
<g id="a_node3"><a xlink:href="../../d8/dd2/classview_1_1_command_string.html#a666bbe4a67f0516444f5ee29cbb5e588" target="_top" xlink:title="view.CommandString.setCommand">
<polygon fill="white" stroke="black" points="418,-19.5 418,-38.5 604,-38.5 604,-19.5 418,-19.5"/>
<text text-anchor="middle" x="511" y="-26.5" font-family="Helvetica,sans-Serif" font-size="10.00">view.CommandString.setCommand</text>
</a>
</g>
</g>
<!-- Node2&#45;&gt;Node3 -->
<g id="edge2" class="edge"><title>Node2&#45;&gt;Node3</title>
<path fill="none" stroke="midnightblue" d="M376.697,-40.4088C386.842,-39.5405 397.246,-38.6501 407.552,-37.7681"/>
<polygon fill="midnightblue" stroke="midnightblue" points="408.146,-41.2302 417.811,-36.8901 407.549,-34.2556 408.146,-41.2302"/>
</g>
<!-- Node4&#45;&gt;Node3 -->
<g id="edge4" class="edge"><title>Node4&#45;&gt;Node3</title>
<path fill="none" stroke="midnightblue" d="M381.505,-18.0026C390.107,-18.7389 398.853,-19.4874 407.529,-20.23"/>
<polygon fill="midnightblue" stroke="midnightblue" points="407.407,-23.7322 417.669,-21.0978 408.004,-16.7577 407.407,-23.7322"/>
</g>
</g>
</svg>
