<?xml version="1.0" encoding="UTF-8" standalone="no"?>
<!DOCTYPE svg PUBLIC "-//W3C//DTD SVG 1.1//EN"
 "http://www.w3.org/Graphics/SVG/1.1/DTD/svg11.dtd">
<!-- Generated by graphviz version 2.36.0 (20140111.2315)
 -->
<!-- Title: view.panes.InputPaneModule.submit Pages: 1 -->
<svg width="390pt" height="87pt"
 viewBox="0.00 0.00 390.00 87.00" xmlns="http://www.w3.org/2000/svg" xmlns:xlink="http://www.w3.org/1999/xlink">
<g id="graph0" class="graph" transform="scale(1 1) rotate(0) translate(4 83)">
<title>view.panes.InputPaneModule.submit</title>
<polygon fill="white" stroke="none" points="-4,4 -4,-83 386,-83 386,4 -4,4"/>
<!-- Node1 -->
<g id="node1" class="node"><title>Node1</title>
<polygon fill="#bfbfbf" stroke="black" points="0.5,-29.5 0.5,-48.5 189.5,-48.5 189.5,-29.5 0.5,-29.5"/>
<text text-anchor="middle" x="95" y="-36.5" font-family="Helvetica,sans-Serif" font-size="10.00">view.panes.InputPaneModule.submit</text>
</g>
<!-- Node2 -->
<g id="node2" class="node"><title>Node2</title>
<g id="a_node2"><a xlink:href="../../dd/d35/classview_1_1panes_1_1_input_pane_module_1_1_submit_handler.html#a4d5150ca53334e966f8179c66ca6625b" target="_top" xlink:title="view.panes.InputPaneModule.\lSubmitHandler.handle">
<polygon fill="white" stroke="black" points="226,-49 226,-79 382,-79 382,-49 226,-49"/>
<text text-anchor="start" x="234" y="-67" font-family="Helvetica,sans-Serif" font-size="10.00">view.panes.InputPaneModule.</text>
<text text-anchor="middle" x="304" y="-56" font-family="Helvetica,sans-Serif" font-size="10.00">SubmitHandler.handle</text>
</a>
</g>
</g>
<!-- Node1&#45;&gt;Node2 -->
<g id="edge1" class="edge"><title>Node1&#45;&gt;Node2</title>
<path fill="none" stroke="midnightblue" d="M185.11,-49.7621C198.635,-51.3955 212.494,-53.0693 225.739,-54.669"/>
<polygon fill="midnightblue" stroke="midnightblue" points="185.196,-46.2471 174.848,-48.5227 184.357,-53.1966 185.196,-46.2471"/>
</g>
<!-- Node3 -->
<g id="node3" class="node"><title>Node3</title>
<g id="a_node3"><a xlink:href="../../d3/d9f/classview_1_1panes_1_1_input_pane_module.html#a87801b5117be03d80c2a14b2bf9e5e6d" target="_top" xlink:title="view.panes.InputPaneModule.\lInputPaneModule">
<polygon fill="white" stroke="black" points="226,-0 226,-30 382,-30 382,-0 226,-0"/>
<text text-anchor="start" x="234" y="-18" font-family="Helvetica,sans-Serif" font-size="10.00">view.panes.InputPaneModule.</text>
<text text-anchor="middle" x="304" y="-7" font-family="Helvetica,sans-Serif" font-size="10.00">InputPaneModule</text>
</a>
</g>
</g>
<!-- Node1&#45;&gt;Node3 -->
<g id="edge2" class="edge"><title>Node1&#45;&gt;Node3</title>
<path fill="none" stroke="midnightblue" d="M188.115,-28.32C200.67,-26.8643 213.451,-25.3825 225.708,-23.9614"/>
<polygon fill="midnightblue" stroke="midnightblue" points="187.64,-24.8516 178.109,-29.4801 188.446,-31.805 187.64,-24.8516"/>
</g>
</g>
</svg>
