<?xml version="1.0" encoding="UTF-8" standalone="no"?>
<!DOCTYPE svg PUBLIC "-//W3C//DTD SVG 1.1//EN"
 "http://www.w3.org/Graphics/SVG/1.1/DTD/svg11.dtd">
<!-- Generated by graphviz version 2.36.0 (20140111.2315)
 -->
<!-- Title: commands.TwoInputCommand Pages: 1 -->
<!--zoomable 788 -->
<svg id="main" version="1.1" xmlns="http://www.w3.org/2000/svg" xmlns:xlink="http://www.w3.org/1999/xlink" xml:space="preserve" onload="init(evt)">
<style type="text/css"><![CDATA[
.edge:hover path { stroke: red; }
.edge:hover polygon { stroke: red; fill: red; }
]]></style>
<script type="text/javascript"><![CDATA[
var edges = document.getElementsByTagName('g');
if (edges && edges.length) {
  for (var i=0;i<edges.length;i++) {
    if (edges[i].id.substr(0,4)=='edge') {
      edges[i].setAttribute('class','edge');
    }
  }
}
]]></script>
        <defs>
                <circle id="rim" cx="0" cy="0" r="7"/>
                <circle id="rim2" cx="0" cy="0" r="3.5"/>
                <g id="zoomPlus">
                        <use xlink:href="#rim" fill="#404040">
                                <set attributeName="fill" to="#808080" begin="zoomplus.mouseover" end="zoomplus.mouseout"/>
                        </use>
                        <path d="M-4,0h8M0,-4v8" fill="none" stroke="white" stroke-width="1.5" pointer-events="none"/>
                </g>
                <g id="zoomMin">
                        <use xlink:href="#rim" fill="#404040">
                                <set attributeName="fill" to="#808080" begin="zoomminus.mouseover" end="zoomminus.mouseout"/>
                        </use>
                        <path d="M-4,0h8" fill="none" stroke="white" stroke-width="1.5" pointer-events="none"/>
                </g>
                <g id="dirArrow">
                        <path fill="none" stroke="white" stroke-width="1.5" d="M0,-3.0v7 M-2.5,-0.5L0,-3.0L2.5,-0.5"/>
                </g>
               <g id="resetDef">
                       <use xlink:href="#rim2" fill="#404040">
                               <set attributeName="fill" to="#808080" begin="reset.mouseover" end="reset.mouseout"/>
                       </use>
               </g>
        </defs>

<script type="text/javascript">
var viewWidth = 556;
var viewHeight = 788;
var sectionId = 'dynsection-0';
</script>
<script xlink:href="../../svgpan.js"/>
<svg id="graph" class="graph">
<g id="viewport">
<title>commands.TwoInputCommand</title>
<polygon fill="white" stroke="none" points="-4,4 -4,-784 552,-784 552,4 -4,4"/>
<!-- Node1 -->
<g id="node1" class="node"><title>Node1</title>
<polygon fill="#bfbfbf" stroke="black" points="160,-380.5 160,-399.5 324,-399.5 324,-380.5 160,-380.5"/>
<text text-anchor="middle" x="242" y="-387.5" font-family="Helvetica,sans-Serif" font-size="10.00">commands.TwoInputCommand</text>
</g>
<!-- Node3 -->
<g id="node3" class="node"><title>Node3</title>
<g id="a_node3"><a xlink:href="../../d2/d75/classcommands_1_1_and_command.html" target="_top" xlink:title="commands.AndCommand">
<polygon fill="white" stroke="black" points="382.5,-760.5 382.5,-779.5 525.5,-779.5 525.5,-760.5 382.5,-760.5"/>
<text text-anchor="middle" x="454" y="-767.5" font-family="Helvetica,sans-Serif" font-size="10.00">commands.AndCommand</text>
</a>
</g>
</g>
<!-- Node1&#45;&gt;Node3 -->
<g id="edge2" class="edge"><title>Node1&#45;&gt;Node3</title>
<path fill="none" stroke="midnightblue" d="M242.948,-409.804C243.932,-470.874 255.714,-657.775 360,-751 366.389,-756.711 374.019,-760.886 382.123,-763.913"/>
<polygon fill="midnightblue" stroke="midnightblue" points="246.447,-409.596 242.87,-399.623 239.447,-409.649 246.447,-409.596"/>
</g>
<!-- Node4 -->
<g id="node4" class="node"><title>Node4</title>
<g id="a_node4"><a xlink:href="../../d9/d35/classcommands_1_1_ask_command.html" target="_top" xlink:title="commands.AskCommand">
<polygon fill="white" stroke="black" points="383.5,-722.5 383.5,-741.5 524.5,-741.5 524.5,-722.5 383.5,-722.5"/>
<text text-anchor="middle" x="454" y="-729.5" font-family="Helvetica,sans-Serif" font-size="10.00">commands.AskCommand</text>
</a>
</g>
</g>
<!-- Node1&#45;&gt;Node4 -->
<g id="edge3" class="edge"><title>Node1&#45;&gt;Node4</title>
<path fill="none" stroke="midnightblue" d="M243.816,-409.964C247.28,-466.914 265.41,-631.302 360,-713 366.735,-718.817 374.766,-723.025 383.248,-726.044"/>
<polygon fill="midnightblue" stroke="midnightblue" points="247.301,-409.591 243.288,-399.785 240.31,-409.953 247.301,-409.591"/>
</g>
<!-- Node5 -->
<g id="node5" class="node"><title>Node5</title>
<g id="a_node5"><a xlink:href="../../db/d38/classcommands_1_1_ask_with_command.html" target="_top" xlink:title="commands.AskWithCommand">
<polygon fill="white" stroke="black" points="373.5,-684.5 373.5,-703.5 534.5,-703.5 534.5,-684.5 373.5,-684.5"/>
<text text-anchor="middle" x="454" y="-691.5" font-family="Helvetica,sans-Serif" font-size="10.00">commands.AskWithCommand</text>
</a>
</g>
</g>
<!-- Node1&#45;&gt;Node5 -->
<g id="edge4" class="edge"><title>Node1&#45;&gt;Node5</title>
<path fill="none" stroke="midnightblue" d="M244.859,-409.701C250.892,-461.878 274.781,-604.466 360,-675 364.57,-678.783 369.694,-681.877 375.126,-684.402"/>
<polygon fill="midnightblue" stroke="midnightblue" points="248.338,-409.315 243.803,-399.74 241.377,-410.053 248.338,-409.315"/>
</g>
<!-- Node6 -->
<g id="node6" class="node"><title>Node6</title>
<g id="a_node6"><a xlink:href="../../d8/ded/classcommands_1_1_difference_command.html" target="_top" xlink:title="commands.DifferenceCommand">
<polygon fill="white" stroke="black" points="367.5,-646.5 367.5,-665.5 540.5,-665.5 540.5,-646.5 367.5,-646.5"/>
<text text-anchor="middle" x="454" y="-653.5" font-family="Helvetica,sans-Serif" font-size="10.00">commands.DifferenceCommand</text>
</a>
</g>
</g>
<!-- Node1&#45;&gt;Node6 -->
<g id="edge5" class="edge"><title>Node1&#45;&gt;Node6</title>
<path fill="none" stroke="midnightblue" d="M246.194,-409.589C254.985,-456.829 284.123,-577.504 360,-637 364.798,-640.762 370.152,-643.834 375.801,-646.336"/>
<polygon fill="midnightblue" stroke="midnightblue" points="249.637,-408.956 244.459,-399.712 242.742,-410.167 249.637,-408.956"/>
</g>
<!-- Node7 -->
<g id="node7" class="node"><title>Node7</title>
<g id="a_node7"><a xlink:href="../../d4/d02/classcommands_1_1_do_times_command.html" target="_top" xlink:title="commands.DoTimesCommand">
<polygon fill="white" stroke="black" points="371,-608.5 371,-627.5 537,-627.5 537,-608.5 371,-608.5"/>
<text text-anchor="middle" x="454" y="-615.5" font-family="Helvetica,sans-Serif" font-size="10.00">commands.DoTimesCommand</text>
</a>
</g>
</g>
<!-- Node1&#45;&gt;Node7 -->
<g id="edge6" class="edge"><title>Node1&#45;&gt;Node7</title>
<path fill="none" stroke="midnightblue" d="M248.008,-409.664C259.79,-451.685 293.425,-550.358 360,-599 365.189,-602.792 370.956,-605.869 377.004,-608.361"/>
<polygon fill="midnightblue" stroke="midnightblue" points="251.341,-408.581 245.365,-399.832 244.581,-410.398 251.341,-408.581"/>
</g>
<!-- Node8 -->
<g id="node8" class="node"><title>Node8</title>
<g id="a_node8"><a xlink:href="../../df/df2/classcommands_1_1_equal_command.html" target="_top" xlink:title="commands.EqualCommand">
<polygon fill="white" stroke="black" points="379,-570.5 379,-589.5 529,-589.5 529,-570.5 379,-570.5"/>
<text text-anchor="middle" x="454" y="-577.5" font-family="Helvetica,sans-Serif" font-size="10.00">commands.EqualCommand</text>
</a>
</g>
</g>
<!-- Node1&#45;&gt;Node8 -->
<g id="edge7" class="edge"><title>Node1&#45;&gt;Node8</title>
<path fill="none" stroke="midnightblue" d="M250.272,-409.02C265.052,-444.945 302.177,-522.607 360,-561 365.766,-564.829 372.143,-567.912 378.776,-570.392"/>
<polygon fill="midnightblue" stroke="midnightblue" points="253.504,-407.674 246.551,-399.68 247.001,-410.265 253.504,-407.674"/>
</g>
<!-- Node9 -->
<g id="node9" class="node"><title>Node9</title>
<g id="a_node9"><a xlink:href="../../d8/d57/classcommands_1_1_for_command.html" target="_top" xlink:title="commands.ForCommand">
<polygon fill="white" stroke="black" points="384.5,-532.5 384.5,-551.5 523.5,-551.5 523.5,-532.5 384.5,-532.5"/>
<text text-anchor="middle" x="454" y="-539.5" font-family="Helvetica,sans-Serif" font-size="10.00">commands.ForCommand</text>
</a>
</g>
</g>
<!-- Node1&#45;&gt;Node9 -->
<g id="edge8" class="edge"><title>Node1&#45;&gt;Node9</title>
<path fill="none" stroke="midnightblue" d="M253.626,-408.394C271.564,-437.666 310.76,-494.452 360,-523 367.413,-527.298 375.652,-530.634 384.075,-533.221"/>
<polygon fill="midnightblue" stroke="midnightblue" points="256.507,-406.392 248.374,-399.602 250.498,-409.982 256.507,-406.392"/>
</g>
<!-- Node10 -->
<g id="node10" class="node"><title>Node10</title>
<g id="a_node10"><a xlink:href="../../d2/dce/classcommands_1_1_greater_than_command.html" target="_top" xlink:title="commands.GreaterThanCommand">
<polygon fill="white" stroke="black" points="362,-494.5 362,-513.5 546,-513.5 546,-494.5 362,-494.5"/>
<text text-anchor="middle" x="454" y="-501.5" font-family="Helvetica,sans-Serif" font-size="10.00">commands.GreaterThanCommand</text>
</a>
</g>
</g>
<!-- Node1&#45;&gt;Node10 -->
<g id="edge9" class="edge"><title>Node1&#45;&gt;Node10</title>
<path fill="none" stroke="midnightblue" d="M258.728,-407.082C279.674,-428.729 318.891,-465.558 360,-485 368.194,-488.875 377.159,-491.962 386.187,-494.421"/>
<polygon fill="midnightblue" stroke="midnightblue" points="261.049,-404.443 251.628,-399.596 255.97,-409.26 261.049,-404.443"/>
</g>
<!-- Node11 -->
<g id="node11" class="node"><title>Node11</title>
<g id="a_node11"><a xlink:href="../../d5/dad/classcommands_1_1_if_command.html" target="_top" xlink:title="commands.IfCommand">
<polygon fill="white" stroke="black" points="389.5,-456.5 389.5,-475.5 518.5,-475.5 518.5,-456.5 389.5,-456.5"/>
<text text-anchor="middle" x="454" y="-463.5" font-family="Helvetica,sans-Serif" font-size="10.00">commands.IfCommand</text>
</a>
</g>
</g>
<!-- Node1&#45;&gt;Node11 -->
<g id="edge10" class="edge"><title>Node1&#45;&gt;Node11</title>
<path fill="none" stroke="midnightblue" d="M268.316,-404.654C291.494,-417.501 327.094,-435.823 360,-447 371.079,-450.763 383.166,-453.9 394.85,-456.469"/>
<polygon fill="midnightblue" stroke="midnightblue" points="269.915,-401.538 259.483,-399.689 266.485,-407.64 269.915,-401.538"/>
</g>
<!-- Node12 -->
<g id="node12" class="node"><title>Node12</title>
<g id="a_node12"><a xlink:href="../../d8/d5b/classcommands_1_1_less_than_command.html" target="_top" xlink:title="commands.LessThanCommand">
<polygon fill="white" stroke="black" points="369.5,-418.5 369.5,-437.5 538.5,-437.5 538.5,-418.5 369.5,-418.5"/>
<text text-anchor="middle" x="454" y="-425.5" font-family="Helvetica,sans-Serif" font-size="10.00">commands.LessThanCommand</text>
</a>
</g>
</g>
<!-- Node1&#45;&gt;Node12 -->
<g id="edge11" class="edge"><title>Node1&#45;&gt;Node12</title>
<path fill="none" stroke="midnightblue" d="M305.707,-401.347C335.837,-406.799 371.546,-413.261 400.258,-418.456"/>
<polygon fill="midnightblue" stroke="midnightblue" points="306.184,-397.877 295.721,-399.54 304.938,-404.765 306.184,-397.877"/>
</g>
<!-- Node13 -->
<g id="node13" class="node"><title>Node13</title>
<g id="a_node13"><a xlink:href="../../dc/d68/classcommands_1_1_make_variable_command.html" target="_top" xlink:title="commands.MakeVariableCommand">
<polygon fill="white" stroke="black" points="360,-380.5 360,-399.5 548,-399.5 548,-380.5 360,-380.5"/>
<text text-anchor="middle" x="454" y="-387.5" font-family="Helvetica,sans-Serif" font-size="10.00">commands.MakeVariableCommand</text>
</a>
</g>
</g>
<!-- Node1&#45;&gt;Node13 -->
<g id="edge12" class="edge"><title>Node1&#45;&gt;Node13</title>
<path fill="none" stroke="midnightblue" d="M334.389,-390C342.81,-390 351.35,-390 359.786,-390"/>
<polygon fill="midnightblue" stroke="midnightblue" points="334.192,-386.5 324.191,-390 334.191,-393.5 334.192,-386.5"/>
</g>
<!-- Node14 -->
<g id="node14" class="node"><title>Node14</title>
<g id="a_node14"><a xlink:href="../../de/d64/classcommands_1_1_not_equal_command.html" target="_top" xlink:title="commands.NotEqualCommand">
<polygon fill="white" stroke="black" points="370.5,-342.5 370.5,-361.5 537.5,-361.5 537.5,-342.5 370.5,-342.5"/>
<text text-anchor="middle" x="454" y="-349.5" font-family="Helvetica,sans-Serif" font-size="10.00">commands.NotEqualCommand</text>
</a>
</g>
</g>
<!-- Node1&#45;&gt;Node14 -->
<g id="edge13" class="edge"><title>Node1&#45;&gt;Node14</title>
<path fill="none" stroke="midnightblue" d="M305.707,-378.653C335.837,-373.201 371.546,-366.739 400.258,-361.544"/>
<polygon fill="midnightblue" stroke="midnightblue" points="304.938,-375.235 295.721,-380.46 306.184,-382.123 304.938,-375.235"/>
</g>
<!-- Node15 -->
<g id="node15" class="node"><title>Node15</title>
<g id="a_node15"><a xlink:href="../../d7/d1c/classcommands_1_1_or_command.html" target="_top" xlink:title="commands.OrCommand">
<polygon fill="white" stroke="black" points="386.5,-304.5 386.5,-323.5 521.5,-323.5 521.5,-304.5 386.5,-304.5"/>
<text text-anchor="middle" x="454" y="-311.5" font-family="Helvetica,sans-Serif" font-size="10.00">commands.OrCommand</text>
</a>
</g>
</g>
<!-- Node1&#45;&gt;Node15 -->
<g id="edge14" class="edge"><title>Node1&#45;&gt;Node15</title>
<path fill="none" stroke="midnightblue" d="M268.316,-375.346C291.494,-362.499 327.094,-344.177 360,-333 371.079,-329.237 383.166,-326.1 394.85,-323.531"/>
<polygon fill="midnightblue" stroke="midnightblue" points="266.485,-372.36 259.483,-380.311 269.915,-378.462 266.485,-372.36"/>
</g>
<!-- Node16 -->
<g id="node16" class="node"><title>Node16</title>
<g id="a_node16"><a xlink:href="../../d9/d7f/classcommands_1_1_power_command.html" target="_top" xlink:title="commands.PowerCommand">
<polygon fill="white" stroke="black" points="378,-266.5 378,-285.5 530,-285.5 530,-266.5 378,-266.5"/>
<text text-anchor="middle" x="454" y="-273.5" font-family="Helvetica,sans-Serif" font-size="10.00">commands.PowerCommand</text>
</a>
</g>
</g>
<!-- Node1&#45;&gt;Node16 -->
<g id="edge15" class="edge"><title>Node1&#45;&gt;Node16</title>
<path fill="none" stroke="midnightblue" d="M258.728,-372.918C279.674,-351.271 318.891,-314.442 360,-295 368.194,-291.125 377.159,-288.038 386.187,-285.579"/>
<polygon fill="midnightblue" stroke="midnightblue" points="255.97,-370.74 251.628,-380.404 261.049,-375.557 255.97,-370.74"/>
</g>
<!-- Node17 -->
<g id="node17" class="node"><title>Node17</title>
<g id="a_node17"><a xlink:href="../../d8/dba/classcommands_1_1_product_command.html" target="_top" xlink:title="commands.ProductCommand">
<polygon fill="white" stroke="black" points="373.5,-228.5 373.5,-247.5 534.5,-247.5 534.5,-228.5 373.5,-228.5"/>
<text text-anchor="middle" x="454" y="-235.5" font-family="Helvetica,sans-Serif" font-size="10.00">commands.ProductCommand</text>
</a>
</g>
</g>
<!-- Node1&#45;&gt;Node17 -->
<g id="edge16" class="edge"><title>Node1&#45;&gt;Node17</title>
<path fill="none" stroke="midnightblue" d="M253.626,-371.606C271.564,-342.334 310.76,-285.548 360,-257 366.701,-253.115 374.075,-250.016 381.651,-247.546"/>
<polygon fill="midnightblue" stroke="midnightblue" points="250.498,-370.018 248.374,-380.398 256.507,-373.608 250.498,-370.018"/>
</g>
<!-- Node18 -->
<g id="node18" class="node"><title>Node18</title>
<g id="a_node18"><a xlink:href="../../dd/d40/classcommands_1_1_quotient_command.html" target="_top" xlink:title="commands.QuotientCommand">
<polygon fill="white" stroke="black" points="371.5,-190.5 371.5,-209.5 536.5,-209.5 536.5,-190.5 371.5,-190.5"/>
<text text-anchor="middle" x="454" y="-197.5" font-family="Helvetica,sans-Serif" font-size="10.00">commands.QuotientCommand</text>
</a>
</g>
</g>
<!-- Node1&#45;&gt;Node18 -->
<g id="edge17" class="edge"><title>Node1&#45;&gt;Node18</title>
<path fill="none" stroke="midnightblue" d="M250.272,-370.98C265.052,-335.055 302.177,-257.393 360,-219 365.766,-215.171 372.143,-212.088 378.776,-209.608"/>
<polygon fill="midnightblue" stroke="midnightblue" points="247.001,-369.735 246.551,-380.32 253.504,-372.326 247.001,-369.735"/>
</g>
<!-- Node19 -->
<g id="node19" class="node"><title>Node19</title>
<g id="a_node19"><a xlink:href="../../dd/d82/classcommands_1_1_remainder_command.html" target="_top" xlink:title="commands.RemainderCommand">
<polygon fill="white" stroke="black" points="366.5,-152.5 366.5,-171.5 541.5,-171.5 541.5,-152.5 366.5,-152.5"/>
<text text-anchor="middle" x="454" y="-159.5" font-family="Helvetica,sans-Serif" font-size="10.00">commands.RemainderCommand</text>
</a>
</g>
</g>
<!-- Node1&#45;&gt;Node19 -->
<g id="edge18" class="edge"><title>Node1&#45;&gt;Node19</title>
<path fill="none" stroke="midnightblue" d="M248.008,-370.336C259.79,-328.315 293.425,-229.642 360,-181 365.189,-177.208 370.956,-174.131 377.004,-171.639"/>
<polygon fill="midnightblue" stroke="midnightblue" points="244.581,-369.602 245.365,-380.168 251.341,-371.419 244.581,-369.602"/>
</g>
<!-- Node20 -->
<g id="node20" class="node"><title>Node20</title>
<g id="a_node20"><a xlink:href="../../d6/dc0/classcommands_1_1_repeat_command.html" target="_top" xlink:title="commands.RepeatCommand">
<polygon fill="white" stroke="black" points="375.5,-114.5 375.5,-133.5 532.5,-133.5 532.5,-114.5 375.5,-114.5"/>
<text text-anchor="middle" x="454" y="-121.5" font-family="Helvetica,sans-Serif" font-size="10.00">commands.RepeatCommand</text>
</a>
</g>
</g>
<!-- Node1&#45;&gt;Node20 -->
<g id="edge19" class="edge"><title>Node1&#45;&gt;Node20</title>
<path fill="none" stroke="midnightblue" d="M246.194,-370.411C254.985,-323.171 284.123,-202.496 360,-143 364.798,-139.238 370.152,-136.166 375.801,-133.664"/>
<polygon fill="midnightblue" stroke="midnightblue" points="242.742,-369.833 244.459,-380.288 249.637,-371.044 242.742,-369.833"/>
</g>
<!-- Node21 -->
<g id="node21" class="node"><title>Node21</title>
<g id="a_node21"><a xlink:href="../../d9/db5/classcommands_1_1_set_position_command.html" target="_top" xlink:title="commands.SetPositionCommand">
<polygon fill="white" stroke="black" points="365,-76.5 365,-95.5 543,-95.5 543,-76.5 365,-76.5"/>
<text text-anchor="middle" x="454" y="-83.5" font-family="Helvetica,sans-Serif" font-size="10.00">commands.SetPositionCommand</text>
</a>
</g>
</g>
<!-- Node1&#45;&gt;Node21 -->
<g id="edge20" class="edge"><title>Node1&#45;&gt;Node21</title>
<path fill="none" stroke="midnightblue" d="M244.859,-370.299C250.892,-318.122 274.781,-175.534 360,-105 364.57,-101.217 369.694,-98.1228 375.126,-95.5977"/>
<polygon fill="midnightblue" stroke="midnightblue" points="241.377,-369.947 243.803,-380.26 248.338,-370.685 241.377,-369.947"/>
</g>
<!-- Node22 -->
<g id="node22" class="node"><title>Node22</title>
<g id="a_node22"><a xlink:href="../../dc/df3/classcommands_1_1_set_towards_command.html" target="_top" xlink:title="commands.SetTowardsCommand">
<polygon fill="white" stroke="black" points="365,-38.5 365,-57.5 543,-57.5 543,-38.5 365,-38.5"/>
<text text-anchor="middle" x="454" y="-45.5" font-family="Helvetica,sans-Serif" font-size="10.00">commands.SetTowardsCommand</text>
</a>
</g>
</g>
<!-- Node1&#45;&gt;Node22 -->
<g id="edge21" class="edge"><title>Node1&#45;&gt;Node22</title>
<path fill="none" stroke="midnightblue" d="M243.816,-370.036C247.28,-313.086 265.41,-148.698 360,-67 364.365,-63.2299 369.275,-60.1355 374.499,-57.6026"/>
<polygon fill="midnightblue" stroke="midnightblue" points="240.31,-370.047 243.288,-380.215 247.301,-370.409 240.31,-370.047"/>
</g>
<!-- Node23 -->
<g id="node23" class="node"><title>Node23</title>
<g id="a_node23"><a xlink:href="../../d1/d79/classcommands_1_1_sum_command.html" target="_top" xlink:title="commands.SumCommand">
<polygon fill="white" stroke="black" points="381,-0.5 381,-19.5 527,-19.5 527,-0.5 381,-0.5"/>
<text text-anchor="middle" x="454" y="-7.5" font-family="Helvetica,sans-Serif" font-size="10.00">commands.SumCommand</text>
</a>
</g>
</g>
<!-- Node1&#45;&gt;Node23 -->
<g id="edge22" class="edge"><title>Node1&#45;&gt;Node23</title>
<path fill="none" stroke="midnightblue" d="M242.948,-370.196C243.932,-309.126 255.714,-122.225 360,-29 366.02,-23.6184 373.143,-19.6009 380.726,-16.6223"/>
<polygon fill="midnightblue" stroke="midnightblue" points="239.447,-370.351 242.87,-380.377 246.447,-370.404 239.447,-370.351"/>
</g>
<!-- Node2 -->
<g id="node2" class="node"><title>Node2</title>
<g id="a_node2"><a xlink:href="../../dd/dd6/classcommands_1_1_command.html" target="_top" xlink:title="commands.Command">
<polygon fill="white" stroke="black" points="0,-380.5 0,-399.5 124,-399.5 124,-380.5 0,-380.5"/>
<text text-anchor="middle" x="62" y="-387.5" font-family="Helvetica,sans-Serif" font-size="10.00">commands.Command</text>
</a>
</g>
</g>
<!-- Node2&#45;&gt;Node1 -->
<g id="edge1" class="edge"><title>Node2&#45;&gt;Node1</title>
<path fill="none" stroke="midnightblue" d="M134.349,-390C142.728,-390 151.325,-390 159.825,-390"/>
<polygon fill="midnightblue" stroke="midnightblue" points="134.258,-386.5 124.258,-390 134.257,-393.5 134.258,-386.5"/>
</g>
</g>
</svg>
        <g id="navigator" transform="translate(0 0)" fill="#404254">
                <rect fill="#f2f5e9" fill-opacity="0.5" stroke="#606060" stroke-width=".5" x="0" y="0" width="60" height="60"/>
                <use id="zoomplus" xlink:href="#zoomPlus" x="17" y="9" onmousedown="handleZoom(evt,'in')"/>
                <use id="zoomminus" xlink:href="#zoomMin" x="42" y="9" onmousedown="handleZoom(evt,'out')"/>
                <use id="reset" xlink:href="#resetDef" x="30" y="36" onmousedown="handleReset()"/>
                <g id="arrowUp" xlink:href="#dirArrow" transform="translate(30 24)" onmousedown="handlePan(0,-1)">
                  <use xlink:href="#rim" fill="#404040">
                        <set attributeName="fill" to="#808080" begin="arrowUp.mouseover" end="arrowUp.mouseout"/>
                  </use>
                  <path fill="none" stroke="white" stroke-width="1.5" d="M0,-3.0v7 M-2.5,-0.5L0,-3.0L2.5,-0.5"/>
                </g>
                <g id="arrowRight" xlink:href="#dirArrow" transform="rotate(90) translate(36 -43)" onmousedown="handlePan(1,0)">
                  <use xlink:href="#rim" fill="#404040">
                        <set attributeName="fill" to="#808080" begin="arrowRight.mouseover" end="arrowRight.mouseout"/>
                  </use>
                  <path fill="none" stroke="white" stroke-width="1.5" d="M0,-3.0v7 M-2.5,-0.5L0,-3.0L2.5,-0.5"/>
                </g>
                <g id="arrowDown" xlink:href="#dirArrow" transform="rotate(180) translate(-30 -48)" onmousedown="handlePan(0,1)">
                  <use xlink:href="#rim" fill="#404040">
                        <set attributeName="fill" to="#808080" begin="arrowDown.mouseover" end="arrowDown.mouseout"/>
                  </use>
                  <path fill="none" stroke="white" stroke-width="1.5" d="M0,-3.0v7 M-2.5,-0.5L0,-3.0L2.5,-0.5"/>
                </g>
                <g id="arrowLeft" xlink:href="#dirArrow" transform="rotate(270) translate(-36 17)" onmousedown="handlePan(-1,0)">
                  <use xlink:href="#rim" fill="#404040">
                        <set attributeName="fill" to="#808080" begin="arrowLeft.mouseover" end="arrowLeft.mouseout"/>
                  </use>
                  <path fill="none" stroke="white" stroke-width="1.5" d="M0,-3.0v7 M-2.5,-0.5L0,-3.0L2.5,-0.5"/>
                </g>
        </g>
        <svg viewBox="0 0 15 15" width="100%" height="30px" preserveAspectRatio="xMaxYMin meet">
         <g id="arrow_out" transform="scale(0.3 0.3)">
          <a xlink:href="classcommands_1_1_two_input_command__inherit__graph_org.svg" target="_base">
           <rect id="button" ry="5" rx="5" y="6" x="6" height="38" width="38"
                fill="#f2f5e9" fill-opacity="0.5" stroke="#606060" stroke-width="1.0"/>
           <path id="arrow"
             d="M 11.500037,31.436501 C 11.940474,20.09759 22.043105,11.32322 32.158766,21.979434 L 37.068811,17.246167 C 37.068811,17.246167 37.088388,32 37.088388,32 L 22.160133,31.978069 C 22.160133,31.978069 26.997745,27.140456 26.997745,27.140456 C 18.528582,18.264221 13.291696,25.230495 11.500037,31.436501 z"
             style="fill:#404040;"/>
          </a>
         </g>
        </svg>
</svg>
