<?xml version="1.0" encoding="UTF-8" standalone="no"?>
<!DOCTYPE svg PUBLIC "-//W3C//DTD SVG 1.1//EN"
 "http://www.w3.org/Graphics/SVG/1.1/DTD/svg11.dtd">
<!-- Generated by graphviz version 2.36.0 (20140111.2315)
 -->
<!-- Title: view.controllers.WorkspaceTabsController.WorkspaceTabsController Pages: 1 -->
<svg width="816pt" height="60pt"
 viewBox="0.00 0.00 816.00 60.00" xmlns="http://www.w3.org/2000/svg" xmlns:xlink="http://www.w3.org/1999/xlink">
<g id="graph0" class="graph" transform="scale(1 1) rotate(0) translate(4 56)">
<title>view.controllers.WorkspaceTabsController.WorkspaceTabsController</title>
<polygon fill="white" stroke="none" points="-4,4 -4,-56 812,-56 812,4 -4,4"/>
<!-- Node1 -->
<g id="node1" class="node"><title>Node1</title>
<polygon fill="#bfbfbf" stroke="black" points="0.5,-22 0.5,-52 205.5,-52 205.5,-22 0.5,-22"/>
<text text-anchor="start" x="8.5" y="-40" font-family="Helvetica,sans-Serif" font-size="10.00">view.controllers.Workspace</text>
<text text-anchor="middle" x="103" y="-29" font-family="Helvetica,sans-Serif" font-size="10.00">TabsController.WorkspaceTabsController</text>
</g>
<!-- Node2 -->
<g id="node2" class="node"><title>Node2</title>
<g id="a_node2"><a xlink:href="../../df/d1d/classview_1_1controllers_1_1_workspace_tabs_controller.html#a90f82e11b42fb019467786f3757f99a1" target="_top" xlink:title="view.controllers.Workspace\lTabsController.makeActive">
<polygon fill="white" stroke="black" points="422.5,-22 422.5,-52 565.5,-52 565.5,-22 422.5,-22"/>
<text text-anchor="start" x="430.5" y="-40" font-family="Helvetica,sans-Serif" font-size="10.00">view.controllers.Workspace</text>
<text text-anchor="middle" x="494" y="-29" font-family="Helvetica,sans-Serif" font-size="10.00">TabsController.makeActive</text>
</a>
</g>
</g>
<!-- Node1&#45;&gt;Node2 -->
<g id="edge1" class="edge"><title>Node1&#45;&gt;Node2</title>
<path fill="none" stroke="midnightblue" d="M205.739,-38.6414C217.958,-38.7892 230.259,-38.9149 242,-39 305.998,-39.4637 322.003,-39.5981 386,-39 394.572,-38.9199 403.529,-38.8037 412.455,-38.667"/>
<polygon fill="midnightblue" stroke="midnightblue" points="412.554,-42.166 422.496,-38.5049 412.441,-35.1669 412.554,-42.166"/>
</g>
<!-- Node4 -->
<g id="node4" class="node"><title>Node4</title>
<g id="a_node4"><a xlink:href="../../df/d1d/classview_1_1controllers_1_1_workspace_tabs_controller.html#a22154b5e0f5997f80712d2385f95e016" target="_top" xlink:title="view.controllers.Workspace\lTabsController.newTab">
<polygon fill="white" stroke="black" points="242.5,-0 242.5,-30 385.5,-30 385.5,-0 242.5,-0"/>
<text text-anchor="start" x="250.5" y="-18" font-family="Helvetica,sans-Serif" font-size="10.00">view.controllers.Workspace</text>
<text text-anchor="middle" x="314" y="-7" font-family="Helvetica,sans-Serif" font-size="10.00">TabsController.newTab</text>
</a>
</g>
</g>
<!-- Node1&#45;&gt;Node4 -->
<g id="edge3" class="edge"><title>Node1&#45;&gt;Node4</title>
<path fill="none" stroke="midnightblue" d="M205.745,-26.29C214.624,-25.3554 223.53,-24.4179 232.206,-23.5047"/>
<polygon fill="midnightblue" stroke="midnightblue" points="232.69,-26.9731 242.269,-22.4454 231.957,-20.0115 232.69,-26.9731"/>
</g>
<!-- Node3 -->
<g id="node3" class="node"><title>Node3</title>
<g id="a_node3"><a xlink:href="../../d3/dc7/classview_1_1controllers_1_1_pane_controller.html#a274058b89bf172476b040cf351a854e4" target="_top" xlink:title="view.controllers.PaneController.populate">
<polygon fill="white" stroke="black" points="602,-27.5 602,-46.5 808,-46.5 808,-27.5 602,-27.5"/>
<text text-anchor="middle" x="705" y="-34.5" font-family="Helvetica,sans-Serif" font-size="10.00">view.controllers.PaneController.populate</text>
</a>
</g>
</g>
<!-- Node2&#45;&gt;Node3 -->
<g id="edge2" class="edge"><title>Node2&#45;&gt;Node3</title>
<path fill="none" stroke="midnightblue" d="M565.758,-37C574.099,-37 582.762,-37 591.5,-37"/>
<polygon fill="midnightblue" stroke="midnightblue" points="591.777,-40.5001 601.777,-37 591.777,-33.5001 591.777,-40.5001"/>
</g>
<!-- Node4&#45;&gt;Node2 -->
<g id="edge4" class="edge"><title>Node4&#45;&gt;Node2</title>
<path fill="none" stroke="midnightblue" d="M385.606,-23.7266C394.421,-24.8161 403.488,-25.9368 412.441,-27.0432"/>
<polygon fill="midnightblue" stroke="midnightblue" points="412.126,-30.5308 422.479,-28.284 412.984,-23.5837 412.126,-30.5308"/>
</g>
</g>
</svg>
