<?xml version="1.0" encoding="UTF-8" standalone="no"?>
<!DOCTYPE svg PUBLIC "-//W3C//DTD SVG 1.1//EN"
 "http://www.w3.org/Graphics/SVG/1.1/DTD/svg11.dtd">
<!-- Generated by graphviz version 2.36.0 (20140111.2315)
 -->
<!-- Title: view.controllers.WorkspaceTabsController.makeActive Pages: 1 -->
<svg width="574pt" height="61pt"
 viewBox="0.00 0.00 574.00 61.00" xmlns="http://www.w3.org/2000/svg" xmlns:xlink="http://www.w3.org/1999/xlink">
<g id="graph0" class="graph" transform="scale(1 1) rotate(0) translate(4 57)">
<title>view.controllers.WorkspaceTabsController.makeActive</title>
<polygon fill="white" stroke="none" points="-4,4 -4,-57 570,-57 570,4 -4,4"/>
<!-- Node1 -->
<g id="node1" class="node"><title>Node1</title>
<polygon fill="#bfbfbf" stroke="black" points="0.5,-1 0.5,-31 143.5,-31 143.5,-1 0.5,-1"/>
<text text-anchor="start" x="8.5" y="-19" font-family="Helvetica,sans-Serif" font-size="10.00">view.controllers.Workspace</text>
<text text-anchor="middle" x="72" y="-8" font-family="Helvetica,sans-Serif" font-size="10.00">TabsController.makeActive</text>
</g>
<!-- Node2 -->
<g id="node2" class="node"><title>Node2</title>
<g id="a_node2"><a xlink:href="../../df/d1d/classview_1_1controllers_1_1_workspace_tabs_controller.html#a22154b5e0f5997f80712d2385f95e016" target="_top" xlink:title="view.controllers.Workspace\lTabsController.newTab">
<polygon fill="white" stroke="black" points="180.5,-23 180.5,-53 323.5,-53 323.5,-23 180.5,-23"/>
<text text-anchor="start" x="188.5" y="-41" font-family="Helvetica,sans-Serif" font-size="10.00">view.controllers.Workspace</text>
<text text-anchor="middle" x="252" y="-30" font-family="Helvetica,sans-Serif" font-size="10.00">TabsController.newTab</text>
</a>
</g>
</g>
<!-- Node1&#45;&gt;Node2 -->
<g id="edge1" class="edge"><title>Node1&#45;&gt;Node2</title>
<path fill="none" stroke="midnightblue" d="M153.646,-25.9675C162.599,-27.074 171.666,-28.1946 180.479,-29.284"/>
<polygon fill="midnightblue" stroke="midnightblue" points="153.96,-22.4797 143.606,-24.7266 153.101,-29.4269 153.96,-22.4797"/>
</g>
<!-- Node3 -->
<g id="node3" class="node"><title>Node3</title>
<g id="a_node3"><a xlink:href="../../df/d1d/classview_1_1controllers_1_1_workspace_tabs_controller.html#a5b4c2e9316c7ed40a9e997aa97e55f27" target="_top" xlink:title="view.controllers.Workspace\lTabsController.WorkspaceTabsController">
<polygon fill="white" stroke="black" points="360.5,-1 360.5,-31 565.5,-31 565.5,-1 360.5,-1"/>
<text text-anchor="start" x="368.5" y="-19" font-family="Helvetica,sans-Serif" font-size="10.00">view.controllers.Workspace</text>
<text text-anchor="middle" x="463" y="-8" font-family="Helvetica,sans-Serif" font-size="10.00">TabsController.WorkspaceTabsController</text>
</a>
</g>
</g>
<!-- Node1&#45;&gt;Node3 -->
<g id="edge3" class="edge"><title>Node1&#45;&gt;Node3</title>
<path fill="none" stroke="midnightblue" d="M153.545,-14.333C162.471,-14.1963 171.428,-14.0801 180,-14 243.997,-13.4019 260.002,-13.5363 324,-14 335.741,-14.0851 348.042,-14.2108 360.261,-14.3586"/>
<polygon fill="midnightblue" stroke="midnightblue" points="153.446,-10.834 143.504,-14.4951 153.559,-17.8331 153.446,-10.834"/>
</g>
<!-- Node2&#45;&gt;Node3 -->
<g id="edge2" class="edge"><title>Node2&#45;&gt;Node3</title>
<path fill="none" stroke="midnightblue" d="M333.785,-29.4963C342.43,-28.5864 351.302,-27.6524 360.15,-26.7211"/>
<polygon fill="midnightblue" stroke="midnightblue" points="333.336,-26.0241 323.758,-30.5518 334.069,-32.9856 333.336,-26.0241"/>
</g>
</g>
</svg>
