<?xml version="1.0" encoding="UTF-8" standalone="no"?>
<!DOCTYPE svg PUBLIC "-//W3C//DTD SVG 1.1//EN"
 "http://www.w3.org/Graphics/SVG/1.1/DTD/svg11.dtd">
<!-- Generated by graphviz version 2.36.0 (20140111.2315)
 -->
<!-- Title: view.controllers.WorkspaceTabsController.newTab Pages: 1 -->
<svg width="574pt" height="38pt"
 viewBox="0.00 0.00 574.00 38.00" xmlns="http://www.w3.org/2000/svg" xmlns:xlink="http://www.w3.org/1999/xlink">
<g id="graph0" class="graph" transform="scale(1 1) rotate(0) translate(4 34)">
<title>view.controllers.WorkspaceTabsController.newTab</title>
<polygon fill="white" stroke="none" points="-4,4 -4,-34 570,-34 570,4 -4,4"/>
<!-- Node1 -->
<g id="node1" class="node"><title>Node1</title>
<polygon fill="#bfbfbf" stroke="black" points="0.5,-0 0.5,-30 143.5,-30 143.5,-0 0.5,-0"/>
<text text-anchor="start" x="8.5" y="-18" font-family="Helvetica,sans-Serif" font-size="10.00">view.controllers.Workspace</text>
<text text-anchor="middle" x="72" y="-7" font-family="Helvetica,sans-Serif" font-size="10.00">TabsController.newTab</text>
</g>
<!-- Node2 -->
<g id="node2" class="node"><title>Node2</title>
<g id="a_node2"><a xlink:href="../../df/d1d/classview_1_1controllers_1_1_workspace_tabs_controller.html#a90f82e11b42fb019467786f3757f99a1" target="_top" xlink:title="view.controllers.Workspace\lTabsController.makeActive">
<polygon fill="white" stroke="black" points="180.5,-0 180.5,-30 323.5,-30 323.5,-0 180.5,-0"/>
<text text-anchor="start" x="188.5" y="-18" font-family="Helvetica,sans-Serif" font-size="10.00">view.controllers.Workspace</text>
<text text-anchor="middle" x="252" y="-7" font-family="Helvetica,sans-Serif" font-size="10.00">TabsController.makeActive</text>
</a>
</g>
</g>
<!-- Node1&#45;&gt;Node2 -->
<g id="edge1" class="edge"><title>Node1&#45;&gt;Node2</title>
<path fill="none" stroke="midnightblue" d="M143.606,-15C152.421,-15 161.488,-15 170.441,-15"/>
<polygon fill="midnightblue" stroke="midnightblue" points="170.479,-18.5001 180.479,-15 170.479,-11.5001 170.479,-18.5001"/>
</g>
<!-- Node3 -->
<g id="node3" class="node"><title>Node3</title>
<g id="a_node3"><a xlink:href="../../d3/dc7/classview_1_1controllers_1_1_pane_controller.html#a274058b89bf172476b040cf351a854e4" target="_top" xlink:title="view.controllers.PaneController.populate">
<polygon fill="white" stroke="black" points="360,-5.5 360,-24.5 566,-24.5 566,-5.5 360,-5.5"/>
<text text-anchor="middle" x="463" y="-12.5" font-family="Helvetica,sans-Serif" font-size="10.00">view.controllers.PaneController.populate</text>
</a>
</g>
</g>
<!-- Node2&#45;&gt;Node3 -->
<g id="edge2" class="edge"><title>Node2&#45;&gt;Node3</title>
<path fill="none" stroke="midnightblue" d="M323.758,-15C332.099,-15 340.762,-15 349.5,-15"/>
<polygon fill="midnightblue" stroke="midnightblue" points="349.777,-18.5001 359.777,-15 349.777,-11.5001 349.777,-18.5001"/>
</g>
</g>
</svg>
