<?xml version="1.0" encoding="UTF-8" standalone="no"?>
<!DOCTYPE svg PUBLIC "-//W3C//DTD SVG 1.1//EN"
 "http://www.w3.org/Graphics/SVG/1.1/DTD/svg11.dtd">
<!-- Generated by graphviz version 2.36.0 (20140111.2315)
 -->
<!-- Title: commands.ThreeInputCommand Pages: 1 -->
<svg width="249pt" height="86pt"
 viewBox="0.00 0.00 249.00 86.00" xmlns="http://www.w3.org/2000/svg" xmlns:xlink="http://www.w3.org/1999/xlink">
<g id="graph0" class="graph" transform="scale(1 1) rotate(0) translate(4 82)">
<title>commands.ThreeInputCommand</title>
<polygon fill="white" stroke="none" points="-4,4 -4,-82 245,-82 245,4 -4,4"/>
<!-- Node1 -->
<g id="node1" class="node"><title>Node1</title>
<polygon fill="#bfbfbf" stroke="black" points="-0.5,-0.5 -0.5,-19.5 174.5,-19.5 174.5,-0.5 -0.5,-0.5"/>
<text text-anchor="middle" x="87" y="-7.5" font-family="Helvetica,sans-Serif" font-size="10.00">commands.ThreeInputCommand</text>
</g>
<!-- Node2 -->
<g id="node2" class="node"><title>Node2</title>
<g id="a_node2"><a xlink:href="../../dd/dd6/classcommands_1_1_command.html" target="_top" xlink:title="commands.Command">
<polygon fill="white" stroke="black" points="25,-58.5 25,-77.5 149,-77.5 149,-58.5 25,-58.5"/>
<text text-anchor="middle" x="87" y="-65.5" font-family="Helvetica,sans-Serif" font-size="10.00">commands.Command</text>
</a>
</g>
</g>
<!-- Node2&#45;&gt;Node1 -->
<g id="edge1" class="edge"><title>Node2&#45;&gt;Node1</title>
<path fill="none" stroke="midnightblue" d="M87,-47.953C87,-38.2875 87,-27.0312 87,-19.5052"/>
<polygon fill="midnightblue" stroke="midnightblue" points="83.5001,-48.25 87,-58.25 90.5001,-48.25 83.5001,-48.25"/>
</g>
<!-- Node2&#45;&gt;Node2 -->
<g id="edge2" class="edge"><title>Node2&#45;&gt;Node2</title>
<path fill="none" stroke="#9a32cd" stroke-dasharray="5,2" d="M159.252,-71.5917C163.474,-70.7302 166,-69.533 166,-68 166,-65.4844 159.198,-63.8728 149.261,-63.1653"/>
<polygon fill="#9a32cd" stroke="#9a32cd" points="158.752,-68.1269 149.261,-72.8347 159.617,-75.0733 158.752,-68.1269"/>
<text text-anchor="middle" x="203" y="-65.5" font-family="Helvetica,sans-Serif" font-size="10.00"> myParameters</text>
</g>
</g>
</svg>
