<?xml version="1.0" encoding="UTF-8" standalone="no"?>
<!DOCTYPE svg PUBLIC "-//W3C//DTD SVG 1.1//EN"
 "http://www.w3.org/Graphics/SVG/1.1/DTD/svg11.dtd">
<!-- Generated by graphviz version 2.36.0 (20140111.2315)
 -->
<!-- Title: commands.MakeVariableCommand Pages: 1 -->
<svg width="256pt" height="144pt"
 viewBox="0.00 0.00 256.00 144.00" xmlns="http://www.w3.org/2000/svg" xmlns:xlink="http://www.w3.org/1999/xlink">
<g id="graph0" class="graph" transform="scale(1 1) rotate(0) translate(4 140)">
<title>commands.MakeVariableCommand</title>
<polygon fill="white" stroke="none" points="-4,4 -4,-140 252,-140 252,4 -4,4"/>
<!-- Node1 -->
<g id="node1" class="node"><title>Node1</title>
<polygon fill="#bfbfbf" stroke="black" points="0,-0.5 0,-19.5 188,-19.5 188,-0.5 0,-0.5"/>
<text text-anchor="middle" x="94" y="-7.5" font-family="Helvetica,sans-Serif" font-size="10.00">commands.MakeVariableCommand</text>
</g>
<!-- Node2 -->
<g id="node2" class="node"><title>Node2</title>
<g id="a_node2"><a xlink:href="../../d8/d6c/classcommands_1_1_two_input_command.html" target="_top" xlink:title="commands.TwoInputCommand">
<polygon fill="white" stroke="black" points="12,-58.5 12,-77.5 176,-77.5 176,-58.5 12,-58.5"/>
<text text-anchor="middle" x="94" y="-65.5" font-family="Helvetica,sans-Serif" font-size="10.00">commands.TwoInputCommand</text>
</a>
</g>
</g>
<!-- Node2&#45;&gt;Node1 -->
<g id="edge1" class="edge"><title>Node2&#45;&gt;Node1</title>
<path fill="none" stroke="midnightblue" d="M94,-47.953C94,-38.2875 94,-27.0312 94,-19.5052"/>
<polygon fill="midnightblue" stroke="midnightblue" points="90.5001,-48.25 94,-58.25 97.5001,-48.25 90.5001,-48.25"/>
</g>
<!-- Node3 -->
<g id="node3" class="node"><title>Node3</title>
<g id="a_node3"><a xlink:href="../../dd/dd6/classcommands_1_1_command.html" target="_top" xlink:title="commands.Command">
<polygon fill="white" stroke="black" points="32,-116.5 32,-135.5 156,-135.5 156,-116.5 32,-116.5"/>
<text text-anchor="middle" x="94" y="-123.5" font-family="Helvetica,sans-Serif" font-size="10.00">commands.Command</text>
</a>
</g>
</g>
<!-- Node3&#45;&gt;Node2 -->
<g id="edge2" class="edge"><title>Node3&#45;&gt;Node2</title>
<path fill="none" stroke="midnightblue" d="M94,-105.953C94,-96.2875 94,-85.0312 94,-77.5052"/>
<polygon fill="midnightblue" stroke="midnightblue" points="90.5001,-106.25 94,-116.25 97.5001,-106.25 90.5001,-106.25"/>
</g>
<!-- Node3&#45;&gt;Node3 -->
<g id="edge3" class="edge"><title>Node3&#45;&gt;Node3</title>
<path fill="none" stroke="#9a32cd" stroke-dasharray="5,2" d="M166.252,-129.592C170.474,-128.73 173,-127.533 173,-126 173,-123.484 166.198,-121.873 156.261,-121.165"/>
<polygon fill="#9a32cd" stroke="#9a32cd" points="165.752,-126.127 156.261,-130.835 166.617,-133.073 165.752,-126.127"/>
<text text-anchor="middle" x="210" y="-123.5" font-family="Helvetica,sans-Serif" font-size="10.00"> myParameters</text>
</g>
</g>
</svg>
