<?xml version="1.0" encoding="UTF-8" standalone="no"?>
<!DOCTYPE svg PUBLIC "-//W3C//DTD SVG 1.1//EN"
 "http://www.w3.org/Graphics/SVG/1.1/DTD/svg11.dtd">
<!-- Generated by graphviz version 2.36.0 (20140111.2315)
 -->
<!-- Title: view.controllers.PaneController.update Pages: 1 -->
<svg width="2018pt" height="703pt"
 viewBox="0.00 0.00 2018.00 703.00" xmlns="http://www.w3.org/2000/svg" xmlns:xlink="http://www.w3.org/1999/xlink">
<g id="graph0" class="graph" transform="scale(1 1) rotate(0) translate(4 699)">
<title>view.controllers.PaneController.update</title>
<polygon fill="white" stroke="none" points="-4,4 -4,-699 2014,-699 2014,4 -4,4"/>
<!-- Node1 -->
<g id="node1" class="node"><title>Node1</title>
<polygon fill="#bfbfbf" stroke="black" points="0,-430.5 0,-449.5 198,-449.5 198,-430.5 0,-430.5"/>
<text text-anchor="middle" x="99" y="-437.5" font-family="Helvetica,sans-Serif" font-size="10.00">view.controllers.PaneController.update</text>
</g>
<!-- Node2 -->
<g id="node2" class="node"><title>Node2</title>
<g id="a_node2"><a xlink:href="../../d8/dd2/classview_1_1_command_string.html#aba64e1e52e571253e8896d06de9fc6fa" target="_top" xlink:title="view.CommandString.getCommand">
<polygon fill="white" stroke="black" points="234.5,-474.5 234.5,-493.5 421.5,-493.5 421.5,-474.5 234.5,-474.5"/>
<text text-anchor="middle" x="328" y="-481.5" font-family="Helvetica,sans-Serif" font-size="10.00">view.CommandString.getCommand</text>
</a>
</g>
</g>
<!-- Node1&#45;&gt;Node2 -->
<g id="edge1" class="edge"><title>Node1&#45;&gt;Node2</title>
<path fill="none" stroke="midnightblue" d="M149.256,-449.547C184.059,-456.293 230.879,-465.369 267.729,-472.511"/>
<polygon fill="midnightblue" stroke="midnightblue" points="267.357,-476.004 277.841,-474.471 268.689,-469.132 267.357,-476.004"/>
</g>
<!-- Node3 -->
<g id="node3" class="node"><title>Node3</title>
<g id="a_node3"><a xlink:href="../../d9/df7/classcontroller_1_1_controller.html#afdfa7f9e9a3fb5f6b73a6b8e2b2be8b5" target="_top" xlink:title="controller.Controller.get\lInput">
<polygon fill="white" stroke="black" points="264,-425 264,-455 392,-455 392,-425 264,-425"/>
<text text-anchor="start" x="272" y="-443" font-family="Helvetica,sans-Serif" font-size="10.00">controller.Controller.get</text>
<text text-anchor="middle" x="328" y="-432" font-family="Helvetica,sans-Serif" font-size="10.00">Input</text>
</a>
</g>
</g>
<!-- Node1&#45;&gt;Node3 -->
<g id="edge2" class="edge"><title>Node1&#45;&gt;Node3</title>
<path fill="none" stroke="midnightblue" d="M198.245,-440C216.876,-440 236.065,-440 253.755,-440"/>
<polygon fill="midnightblue" stroke="midnightblue" points="253.982,-443.5 263.982,-440 253.982,-436.5 253.982,-443.5"/>
</g>
<!-- Node47 -->
<g id="node47" class="node"><title>Node47</title>
<g id="a_node47"><a xlink:href="../../d8/dd2/classview_1_1_command_string.html#ab6fe1196d560df0bcdf5bc66e235510e" target="_top" xlink:title="view.CommandString.getType">
<polygon fill="white" stroke="black" points="249,-386.5 249,-405.5 407,-405.5 407,-386.5 249,-386.5"/>
<text text-anchor="middle" x="328" y="-393.5" font-family="Helvetica,sans-Serif" font-size="10.00">view.CommandString.getType</text>
</a>
</g>
</g>
<!-- Node1&#45;&gt;Node47 -->
<g id="edge52" class="edge"><title>Node1&#45;&gt;Node47</title>
<path fill="none" stroke="midnightblue" d="M149.256,-430.453C184.059,-423.707 230.879,-414.631 267.729,-407.489"/>
<polygon fill="midnightblue" stroke="midnightblue" points="268.689,-410.868 277.841,-405.529 267.357,-403.996 268.689,-410.868"/>
</g>
<!-- Node4 -->
<g id="node4" class="node"><title>Node4</title>
<g id="a_node4"><a xlink:href="../../d6/d95/classparser_1_1_parser.html#aacbac8270cf4817504ddb495ba67863f" target="_top" xlink:title="parser.Parser.parseInput">
<polygon fill="white" stroke="black" points="485.5,-514.5 485.5,-533.5 618.5,-533.5 618.5,-514.5 485.5,-514.5"/>
<text text-anchor="middle" x="552" y="-521.5" font-family="Helvetica,sans-Serif" font-size="10.00">parser.Parser.parseInput</text>
</a>
</g>
</g>
<!-- Node3&#45;&gt;Node4 -->
<g id="edge3" class="edge"><title>Node3&#45;&gt;Node4</title>
<path fill="none" stroke="midnightblue" d="M392.434,-454.251C402.505,-457.308 412.669,-460.883 422,-465 439.371,-472.665 441.063,-479.419 458,-488 475.3,-496.765 495.266,-504.752 512.253,-510.964"/>
<polygon fill="midnightblue" stroke="midnightblue" points="511.273,-514.33 521.868,-514.408 513.634,-507.74 511.273,-514.33"/>
</g>
<!-- Node11 -->
<g id="node11" class="node"><title>Node11</title>
<g id="a_node11"><a xlink:href="../../d9/df7/classcontroller_1_1_controller.html#a81fea06b52aed0a26625c5b30b490afb" target="_top" xlink:title="controller.Controller.run\lCommand">
<polygon fill="white" stroke="black" points="488,-449 488,-479 616,-479 616,-449 488,-449"/>
<text text-anchor="start" x="496" y="-467" font-family="Helvetica,sans-Serif" font-size="10.00">controller.Controller.run</text>
<text text-anchor="middle" x="552" y="-456" font-family="Helvetica,sans-Serif" font-size="10.00">Command</text>
</a>
</g>
</g>
<!-- Node3&#45;&gt;Node11 -->
<g id="edge11" class="edge"><title>Node3&#45;&gt;Node11</title>
<path fill="none" stroke="midnightblue" d="M392.022,-446.813C418.738,-449.701 450.045,-453.086 477.779,-456.084"/>
<polygon fill="midnightblue" stroke="midnightblue" points="477.502,-459.575 487.82,-457.17 478.254,-452.615 477.502,-459.575"/>
</g>
<!-- Node44 -->
<g id="node44" class="node"><title>Node44</title>
<g id="a_node44"><a xlink:href="../../de/d95/classcommands_1_1_error_command.html#aa267f7d9885da0e6f1a1fe71d42f5394" target="_top" xlink:title="commands.ErrorCommand.show\lError">
<polygon fill="white" stroke="black" points="465,-400 465,-430 639,-430 639,-400 465,-400"/>
<text text-anchor="start" x="473" y="-418" font-family="Helvetica,sans-Serif" font-size="10.00">commands.ErrorCommand.show</text>
<text text-anchor="middle" x="552" y="-407" font-family="Helvetica,sans-Serif" font-size="10.00">Error</text>
</a>
</g>
</g>
<!-- Node3&#45;&gt;Node44 -->
<g id="edge49" class="edge"><title>Node3&#45;&gt;Node44</title>
<path fill="none" stroke="midnightblue" d="M392.022,-432.903C411.499,-430.71 433.416,-428.241 454.61,-425.855"/>
<polygon fill="midnightblue" stroke="midnightblue" points="455.067,-429.325 464.613,-424.728 454.284,-422.369 455.067,-429.325"/>
</g>
<!-- Node45 -->
<g id="node45" class="node"><title>Node45</title>
<g id="a_node45"><a xlink:href="../../d3/dc7/classview_1_1controllers_1_1_pane_controller.html#a5d1d9a5c7a1635c2c6c26e21862f6d59" target="_top" xlink:title="view.controllers.PaneController.show\lError">
<polygon fill="white" stroke="black" points="458,-351 458,-381 646,-381 646,-351 458,-351"/>
<text text-anchor="start" x="466" y="-369" font-family="Helvetica,sans-Serif" font-size="10.00">view.controllers.PaneController.show</text>
<text text-anchor="middle" x="552" y="-358" font-family="Helvetica,sans-Serif" font-size="10.00">Error</text>
</a>
</g>
</g>
<!-- Node3&#45;&gt;Node45 -->
<g id="edge50" class="edge"><title>Node3&#45;&gt;Node45</title>
<path fill="none" stroke="midnightblue" d="M392.081,-426.211C402.296,-423.084 412.599,-419.366 422,-415 439.667,-406.795 440.292,-398.116 458,-390 462.41,-387.979 467.019,-386.107 471.725,-384.376"/>
<polygon fill="midnightblue" stroke="midnightblue" points="473.167,-387.582 481.486,-381.021 470.892,-380.962 473.167,-387.582"/>
</g>
<!-- Node5 -->
<g id="node5" class="node"><title>Node5</title>
<g id="a_node5"><a xlink:href="../../dd/dd6/classcommands_1_1_command.html#a344968a97c674aa32a5da584142ce491" target="_top" xlink:title="commands.Command.getClassName">
<polygon fill="white" stroke="black" points="682.5,-560.5 682.5,-579.5 879.5,-579.5 879.5,-560.5 682.5,-560.5"/>
<text text-anchor="middle" x="781" y="-567.5" font-family="Helvetica,sans-Serif" font-size="10.00">commands.Command.getClassName</text>
</a>
</g>
</g>
<!-- Node4&#45;&gt;Node5 -->
<g id="edge4" class="edge"><title>Node4&#45;&gt;Node5</title>
<path fill="none" stroke="midnightblue" d="M597.742,-533.535C622.549,-538.778 653.963,-545.348 682,-551 694.333,-553.486 707.552,-556.09 720.162,-558.545"/>
<polygon fill="midnightblue" stroke="midnightblue" points="719.633,-562.008 730.117,-560.477 720.967,-555.136 719.633,-562.008"/>
</g>
<!-- Node6 -->
<g id="node6" class="node"><title>Node6</title>
<g id="a_node6"><a xlink:href="../../d6/d95/classparser_1_1_parser.html#a62065d5ce26384c5dc62d3bb3242cd6e" target="_top" xlink:title="parser.Parser.getCommand">
<polygon fill="white" stroke="black" points="707,-522.5 707,-541.5 855,-541.5 855,-522.5 707,-522.5"/>
<text text-anchor="middle" x="781" y="-529.5" font-family="Helvetica,sans-Serif" font-size="10.00">parser.Parser.getCommand</text>
</a>
</g>
</g>
<!-- Node4&#45;&gt;Node6 -->
<g id="edge5" class="edge"><title>Node4&#45;&gt;Node6</title>
<path fill="none" stroke="midnightblue" d="M618.658,-526.314C643.049,-527.174 671.047,-528.16 696.801,-529.068"/>
<polygon fill="midnightblue" stroke="midnightblue" points="696.807,-532.57 706.924,-529.425 697.053,-525.574 696.807,-532.57"/>
</g>
<!-- Node10 -->
<g id="node10" class="node"><title>Node10</title>
<g id="a_node10"><a xlink:href="../../d6/d95/classparser_1_1_parser.html#ad42a143192068d40cf6dbdf26feaa762" target="_top" xlink:title="parser.Parser.throwError">
<polygon fill="white" stroke="black" points="715.5,-484.5 715.5,-503.5 846.5,-503.5 846.5,-484.5 715.5,-484.5"/>
<text text-anchor="middle" x="781" y="-491.5" font-family="Helvetica,sans-Serif" font-size="10.00">parser.Parser.throwError</text>
</a>
</g>
</g>
<!-- Node4&#45;&gt;Node10 -->
<g id="edge10" class="edge"><title>Node4&#45;&gt;Node10</title>
<path fill="none" stroke="midnightblue" d="M618.658,-515.323C645.713,-511.747 677.209,-507.585 705.154,-503.892"/>
<polygon fill="midnightblue" stroke="midnightblue" points="705.818,-507.334 715.274,-502.554 704.901,-500.395 705.818,-507.334"/>
</g>
<!-- Node7 -->
<g id="node7" class="node"><title>Node7</title>
<g id="a_node7"><a xlink:href="../../dd/dd6/classcommands_1_1_command.html#a2166e30ed210d3219b05e104e1aba9f6" target="_top" xlink:title="commands.Command.getNumParameters">
<polygon fill="white" stroke="black" points="916.5,-560.5 916.5,-579.5 1137.5,-579.5 1137.5,-560.5 916.5,-560.5"/>
<text text-anchor="middle" x="1027" y="-567.5" font-family="Helvetica,sans-Serif" font-size="10.00">commands.Command.getNumParameters</text>
</a>
</g>
</g>
<!-- Node6&#45;&gt;Node7 -->
<g id="edge6" class="edge"><title>Node6&#45;&gt;Node7</title>
<path fill="none" stroke="midnightblue" d="M843.257,-541.54C877.048,-546.803 919.186,-553.365 954.481,-558.862"/>
<polygon fill="midnightblue" stroke="midnightblue" points="954.299,-562.376 964.718,-560.456 955.376,-555.459 954.299,-562.376"/>
</g>
<!-- Node8 -->
<g id="node8" class="node"><title>Node8</title>
<g id="a_node8"><a xlink:href="../../d6/d95/classparser_1_1_parser.html#a5746ee23ade69654bd86c83981eb1e25" target="_top" xlink:title="parser.Parser.makeListCommand">
<polygon fill="white" stroke="black" points="939,-522.5 939,-541.5 1115,-541.5 1115,-522.5 939,-522.5"/>
<text text-anchor="middle" x="1027" y="-529.5" font-family="Helvetica,sans-Serif" font-size="10.00">parser.Parser.makeListCommand</text>
</a>
</g>
</g>
<!-- Node6&#45;&gt;Node8 -->
<g id="edge7" class="edge"><title>Node6&#45;&gt;Node8</title>
<path fill="none" stroke="midnightblue" d="M855.208,-525.755C878.279,-525.252 904.138,-525.125 928.617,-525.374"/>
<polygon fill="midnightblue" stroke="midnightblue" points="928.603,-528.874 938.645,-525.498 928.69,-521.874 928.603,-528.874"/>
</g>
<!-- Node9 -->
<g id="node9" class="node"><title>Node9</title>
<g id="a_node9"><a xlink:href="../../dd/dd6/classcommands_1_1_command.html#a97daed7994c540f9a74bfbb0d7312c3c" target="_top" xlink:title="commands.Command.setParameters">
<polygon fill="white" stroke="black" points="928.5,-484.5 928.5,-503.5 1125.5,-503.5 1125.5,-484.5 928.5,-484.5"/>
<text text-anchor="middle" x="1027" y="-491.5" font-family="Helvetica,sans-Serif" font-size="10.00">commands.Command.setParameters</text>
</a>
</g>
</g>
<!-- Node6&#45;&gt;Node9 -->
<g id="edge9" class="edge"><title>Node6&#45;&gt;Node9</title>
<path fill="none" stroke="midnightblue" d="M843.257,-522.46C877.048,-517.197 919.186,-510.635 954.481,-505.138"/>
<polygon fill="midnightblue" stroke="midnightblue" points="955.376,-508.541 964.718,-503.544 954.299,-501.624 955.376,-508.541"/>
</g>
<!-- Node8&#45;&gt;Node6 -->
<g id="edge8" class="edge"><title>Node8&#45;&gt;Node6</title>
<path fill="none" stroke="midnightblue" d="M938.645,-538.502C914.732,-538.853 888.883,-538.831 865.209,-538.437"/>
<polygon fill="midnightblue" stroke="midnightblue" points="865.273,-534.938 855.208,-538.245 865.139,-541.937 865.273,-534.938"/>
</g>
<!-- Node12 -->
<g id="node12" class="node"><title>Node12</title>
<g id="a_node12"><a xlink:href="../../d3/d42/classmodel_1_1_model.html#a73435cc7a2b6100031bbdd2cf6d6b4e8" target="_top" xlink:title="model.Model.updateModel">
<polygon fill="white" stroke="black" points="709.5,-446.5 709.5,-465.5 852.5,-465.5 852.5,-446.5 709.5,-446.5"/>
<text text-anchor="middle" x="781" y="-453.5" font-family="Helvetica,sans-Serif" font-size="10.00">model.Model.updateModel</text>
</a>
</g>
</g>
<!-- Node11&#45;&gt;Node12 -->
<g id="edge12" class="edge"><title>Node11&#45;&gt;Node12</title>
<path fill="none" stroke="midnightblue" d="M616.232,-461.772C641.824,-460.87 671.688,-459.817 698.854,-458.86"/>
<polygon fill="midnightblue" stroke="midnightblue" points="699.249,-462.348 709.119,-458.498 699.002,-455.352 699.249,-462.348"/>
</g>
<!-- Node13 -->
<g id="node13" class="node"><title>Node13</title>
<g id="a_node13"><a xlink:href="../../d3/d42/classmodel_1_1_model.html#a76160d002c1e68b566307ac44356f6e5" target="_top" xlink:title="model.Model.notifyView">
<polygon fill="white" stroke="black" points="962.5,-446.5 962.5,-465.5 1091.5,-465.5 1091.5,-446.5 962.5,-446.5"/>
<text text-anchor="middle" x="1027" y="-453.5" font-family="Helvetica,sans-Serif" font-size="10.00">model.Model.notifyView</text>
</a>
</g>
</g>
<!-- Node12&#45;&gt;Node13 -->
<g id="edge13" class="edge"><title>Node12&#45;&gt;Node13</title>
<path fill="none" stroke="midnightblue" d="M852.575,-456C883.817,-456 920.567,-456 952.177,-456"/>
<polygon fill="midnightblue" stroke="midnightblue" points="952.245,-459.5 962.245,-456 952.245,-452.5 952.245,-459.5"/>
</g>
<!-- Node14 -->
<g id="node14" class="node"><title>Node14</title>
<g id="a_node14"><a xlink:href="../../db/db5/classview_1_1panes_1_1_view_pane_module.html#aa2a1bf15bc036ee4237bf63749d85baf" target="_top" xlink:title="view.panes.ViewPaneModule.updateView">
<polygon fill="white" stroke="black" points="1174.5,-446.5 1174.5,-465.5 1383.5,-465.5 1383.5,-446.5 1174.5,-446.5"/>
<text text-anchor="middle" x="1279" y="-453.5" font-family="Helvetica,sans-Serif" font-size="10.00">view.panes.ViewPaneModule.updateView</text>
</a>
</g>
</g>
<!-- Node13&#45;&gt;Node14 -->
<g id="edge14" class="edge"><title>Node13&#45;&gt;Node14</title>
<path fill="none" stroke="midnightblue" d="M1091.73,-456C1113.73,-456 1139.09,-456 1163.87,-456"/>
<polygon fill="midnightblue" stroke="midnightblue" points="1164.07,-459.5 1174.07,-456 1164.07,-452.5 1164.07,-459.5"/>
</g>
<!-- Node15 -->
<g id="node15" class="node"><title>Node15</title>
<g id="a_node15"><a xlink:href="../../d3/d42/classmodel_1_1_model.html#a54936407d7df5ab8ef3c0ae54bcdc0ed" target="_top" xlink:title="model.Model.getBackground\lColor">
<polygon fill="white" stroke="black" points="1437,-665 1437,-695 1591,-695 1591,-665 1437,-665"/>
<text text-anchor="start" x="1445" y="-683" font-family="Helvetica,sans-Serif" font-size="10.00">model.Model.getBackground</text>
<text text-anchor="middle" x="1514" y="-672" font-family="Helvetica,sans-Serif" font-size="10.00">Color</text>
</a>
</g>
</g>
<!-- Node14&#45;&gt;Node15 -->
<g id="edge15" class="edge"><title>Node14&#45;&gt;Node15</title>
<path fill="none" stroke="midnightblue" d="M1283.9,-465.674C1297.41,-497.969 1345.57,-602.96 1420,-655 1422.74,-656.916 1425.62,-658.685 1428.6,-660.319"/>
<polygon fill="midnightblue" stroke="midnightblue" points="1427.29,-663.572 1437.81,-664.824 1430.36,-657.285 1427.29,-663.572"/>
</g>
<!-- Node16 -->
<g id="node16" class="node"><title>Node16</title>
<g id="a_node16"><a xlink:href="../../db/db5/classview_1_1panes_1_1_view_pane_module.html#ac94ee444587349ddad19b8caee500c9c" target="_top" xlink:title="view.panes.ViewPaneModule.update\lBGColor">
<polygon fill="white" stroke="black" points="1420,-616 1420,-646 1608,-646 1608,-616 1420,-616"/>
<text text-anchor="start" x="1428" y="-634" font-family="Helvetica,sans-Serif" font-size="10.00">view.panes.ViewPaneModule.update</text>
<text text-anchor="middle" x="1514" y="-623" font-family="Helvetica,sans-Serif" font-size="10.00">BGColor</text>
</a>
</g>
</g>
<!-- Node14&#45;&gt;Node16 -->
<g id="edge16" class="edge"><title>Node14&#45;&gt;Node16</title>
<path fill="none" stroke="midnightblue" d="M1286.22,-465.817C1303.76,-492.662 1356.5,-567.827 1420,-606 1423.63,-608.18 1427.45,-610.174 1431.38,-611.996"/>
<polygon fill="midnightblue" stroke="midnightblue" points="1430.18,-615.286 1440.75,-615.945 1432.9,-608.836 1430.18,-615.286"/>
</g>
<!-- Node17 -->
<g id="node17" class="node"><title>Node17</title>
<g id="a_node17"><a xlink:href="../../db/db5/classview_1_1panes_1_1_view_pane_module.html#abe91f8bb732e99d762bdaba51ceae04b" target="_top" xlink:title="view.panes.ViewPaneModule.toRGB">
<polygon fill="white" stroke="black" points="1422,-577.5 1422,-596.5 1606,-596.5 1606,-577.5 1422,-577.5"/>
<text text-anchor="middle" x="1514" y="-584.5" font-family="Helvetica,sans-Serif" font-size="10.00">view.panes.ViewPaneModule.toRGB</text>
</a>
</g>
</g>
<!-- Node14&#45;&gt;Node17 -->
<g id="edge17" class="edge"><title>Node14&#45;&gt;Node17</title>
<path fill="none" stroke="midnightblue" d="M1288.76,-465.612C1309.35,-487.55 1363.35,-541.457 1420,-568 1425.35,-570.508 1431.03,-572.686 1436.84,-574.578"/>
<polygon fill="midnightblue" stroke="midnightblue" points="1436.12,-578.015 1446.71,-577.499 1438.11,-571.303 1436.12,-578.015"/>
</g>
<!-- Node18 -->
<g id="node18" class="node"><title>Node18</title>
<g id="a_node18"><a xlink:href="../../d3/d42/classmodel_1_1_model.html#a1a683ba5e58fcb3c8882c8e61df20dc0" target="_top" xlink:title="model.Model.getTurtleManager">
<polygon fill="white" stroke="black" points="1432,-539.5 1432,-558.5 1596,-558.5 1596,-539.5 1432,-539.5"/>
<text text-anchor="middle" x="1514" y="-546.5" font-family="Helvetica,sans-Serif" font-size="10.00">model.Model.getTurtleManager</text>
</a>
</g>
</g>
<!-- Node14&#45;&gt;Node18 -->
<g id="edge18" class="edge"><title>Node14&#45;&gt;Node18</title>
<path fill="none" stroke="midnightblue" d="M1294.92,-465.508C1319.87,-481.002 1372.04,-511.698 1420,-529 1428.56,-532.087 1437.74,-534.771 1446.87,-537.083"/>
<polygon fill="midnightblue" stroke="midnightblue" points="1446.2,-540.521 1456.74,-539.448 1447.83,-533.714 1446.2,-540.521"/>
</g>
<!-- Node19 -->
<g id="node19" class="node"><title>Node19</title>
<g id="a_node19"><a xlink:href="../../df/d50/classmodel_1_1_turtle_set_manager.html#a9a65c0be3b9c21abaf0ebaa54e5b8484" target="_top" xlink:title="model.TurtleSetManager.get\lActiveTurtles">
<polygon fill="white" stroke="black" points="1438,-490 1438,-520 1590,-520 1590,-490 1438,-490"/>
<text text-anchor="start" x="1446" y="-508" font-family="Helvetica,sans-Serif" font-size="10.00">model.TurtleSetManager.get</text>
<text text-anchor="middle" x="1514" y="-497" font-family="Helvetica,sans-Serif" font-size="10.00">ActiveTurtles</text>
</a>
</g>
</g>
<!-- Node14&#45;&gt;Node19 -->
<g id="edge19" class="edge"><title>Node14&#45;&gt;Node19</title>
<path fill="none" stroke="midnightblue" d="M1325.2,-465.506C1355.32,-471.84 1395.77,-480.347 1431.42,-487.844"/>
<polygon fill="midnightblue" stroke="midnightblue" points="1430.83,-491.296 1441.33,-489.929 1432.27,-484.446 1430.83,-491.296"/>
</g>
<!-- Node20 -->
<g id="node20" class="node"><title>Node20</title>
<g id="a_node20"><a xlink:href="../../df/d50/classmodel_1_1_turtle_set_manager.html#a9e215e93eccbed2ab9ebec6119cfe305" target="_top" xlink:title="model.TurtleSetManager.get\lAllTurtles">
<polygon fill="white" stroke="black" points="1438,-441 1438,-471 1590,-471 1590,-441 1438,-441"/>
<text text-anchor="start" x="1446" y="-459" font-family="Helvetica,sans-Serif" font-size="10.00">model.TurtleSetManager.get</text>
<text text-anchor="middle" x="1514" y="-448" font-family="Helvetica,sans-Serif" font-size="10.00">AllTurtles</text>
</a>
</g>
</g>
<!-- Node14&#45;&gt;Node20 -->
<g id="edge20" class="edge"><title>Node14&#45;&gt;Node20</title>
<path fill="none" stroke="midnightblue" d="M1383.55,-456C1398.22,-456 1413.17,-456 1427.45,-456"/>
<polygon fill="midnightblue" stroke="midnightblue" points="1427.72,-459.5 1437.72,-456 1427.72,-452.5 1427.72,-459.5"/>
</g>
<!-- Node21 -->
<g id="node21" class="node"><title>Node21</title>
<g id="a_node21"><a xlink:href="../../d3/d42/classmodel_1_1_model.html#af73e838aed2c068e8f7d31bfa1cc88d7" target="_top" xlink:title="model.Model.getStamp">
<polygon fill="white" stroke="black" points="1449.5,-402.5 1449.5,-421.5 1578.5,-421.5 1578.5,-402.5 1449.5,-402.5"/>
<text text-anchor="middle" x="1514" y="-409.5" font-family="Helvetica,sans-Serif" font-size="10.00">model.Model.getStamp</text>
</a>
</g>
</g>
<!-- Node14&#45;&gt;Node21 -->
<g id="edge21" class="edge"><title>Node14&#45;&gt;Node21</title>
<path fill="none" stroke="midnightblue" d="M1330.56,-446.453C1366.43,-439.678 1414.75,-430.554 1452.65,-423.397"/>
<polygon fill="midnightblue" stroke="midnightblue" points="1453.36,-426.824 1462.54,-421.529 1452.07,-419.945 1453.36,-426.824"/>
</g>
<!-- Node22 -->
<g id="node22" class="node"><title>Node22</title>
<g id="a_node22"><a xlink:href="../../db/db5/classview_1_1panes_1_1_view_pane_module.html#a44db6ae832af3ce470baa9406142b8cb" target="_top" xlink:title="view.panes.ViewPaneModule.make\lStamps">
<polygon fill="white" stroke="black" points="1423.5,-353 1423.5,-383 1604.5,-383 1604.5,-353 1423.5,-353"/>
<text text-anchor="start" x="1431.5" y="-371" font-family="Helvetica,sans-Serif" font-size="10.00">view.panes.ViewPaneModule.make</text>
<text text-anchor="middle" x="1514" y="-360" font-family="Helvetica,sans-Serif" font-size="10.00">Stamps</text>
</a>
</g>
</g>
<!-- Node14&#45;&gt;Node22 -->
<g id="edge22" class="edge"><title>Node14&#45;&gt;Node22</title>
<path fill="none" stroke="midnightblue" d="M1298.63,-446.459C1325.09,-433.174 1375.32,-408.944 1420,-393 1426.93,-390.528 1434.22,-388.167 1441.55,-385.952"/>
<polygon fill="midnightblue" stroke="midnightblue" points="1442.93,-389.197 1451.54,-383.026 1440.96,-382.479 1442.93,-389.197"/>
</g>
<!-- Node29 -->
<g id="node29" class="node"><title>Node29</title>
<g id="a_node29"><a xlink:href="../../d3/d42/classmodel_1_1_model.html#a0a457f31350a460e11dc864463e0d8ff" target="_top" xlink:title="model.Model.setStamp">
<polygon fill="white" stroke="black" points="1450,-216.5 1450,-235.5 1578,-235.5 1578,-216.5 1450,-216.5"/>
<text text-anchor="middle" x="1514" y="-223.5" font-family="Helvetica,sans-Serif" font-size="10.00">model.Model.setStamp</text>
</a>
</g>
</g>
<!-- Node14&#45;&gt;Node29 -->
<g id="edge29" class="edge"><title>Node14&#45;&gt;Node29</title>
<path fill="none" stroke="midnightblue" d="M1283.42,-446.044C1295.73,-411.804 1341.27,-298.088 1420,-245 1426.11,-240.883 1432.91,-237.624 1439.99,-235.05"/>
<polygon fill="midnightblue" stroke="midnightblue" points="1441.3,-238.307 1449.77,-231.947 1439.18,-231.635 1441.3,-238.307"/>
</g>
<!-- Node30 -->
<g id="node30" class="node"><title>Node30</title>
<g id="a_node30"><a xlink:href="../../db/db5/classview_1_1panes_1_1_view_pane_module.html#a7ad9ad27137ffdf0ea96753a22da236b" target="_top" xlink:title="view.panes.ViewPaneModule.erase\lStamps">
<polygon fill="white" stroke="black" points="1423.5,-304 1423.5,-334 1604.5,-334 1604.5,-304 1423.5,-304"/>
<text text-anchor="start" x="1431.5" y="-322" font-family="Helvetica,sans-Serif" font-size="10.00">view.panes.ViewPaneModule.erase</text>
<text text-anchor="middle" x="1514" y="-311" font-family="Helvetica,sans-Serif" font-size="10.00">Stamps</text>
</a>
</g>
</g>
<!-- Node14&#45;&gt;Node30 -->
<g id="edge30" class="edge"><title>Node14&#45;&gt;Node30</title>
<path fill="none" stroke="midnightblue" d="M1288.84,-446.498C1309.59,-424.778 1363.91,-371.199 1420,-343 1423.77,-341.104 1427.71,-339.349 1431.73,-337.724"/>
<polygon fill="midnightblue" stroke="midnightblue" points="1433.13,-340.941 1441.27,-334.167 1430.68,-334.382 1433.13,-340.941"/>
</g>
<!-- Node32 -->
<g id="node32" class="node"><title>Node32</title>
<g id="a_node32"><a xlink:href="../../db/db5/classview_1_1panes_1_1_view_pane_module.html#ab55ce3511929b88a2cd1235eb694868f" target="_top" xlink:title="view.panes.ViewPaneModule.update\lTurtle">
<polygon fill="white" stroke="black" points="1420,-255 1420,-285 1608,-285 1608,-255 1420,-255"/>
<text text-anchor="start" x="1428" y="-273" font-family="Helvetica,sans-Serif" font-size="10.00">view.panes.ViewPaneModule.update</text>
<text text-anchor="middle" x="1514" y="-262" font-family="Helvetica,sans-Serif" font-size="10.00">Turtle</text>
</a>
</g>
</g>
<!-- Node14&#45;&gt;Node32 -->
<g id="edge32" class="edge"><title>Node14&#45;&gt;Node32</title>
<path fill="none" stroke="midnightblue" d="M1285.51,-446.174C1301.95,-417.802 1353.67,-335.156 1420,-294 1422.76,-292.286 1425.64,-290.693 1428.61,-289.214"/>
<polygon fill="midnightblue" stroke="midnightblue" points="1430.05,-292.405 1437.73,-285.108 1427.17,-286.023 1430.05,-292.405"/>
</g>
<!-- Node23 -->
<g id="node23" class="node"><title>Node23</title>
<g id="a_node23"><a xlink:href="../../d7/da6/classview_1_1_turtle_draw.html#a939f4fdbdb66457c9dcee82eb4ae6d9c" target="_top" xlink:title="view.TurtleDraw.drawTurtle">
<polygon fill="white" stroke="black" points="1652.5,-418.5 1652.5,-437.5 1791.5,-437.5 1791.5,-418.5 1652.5,-418.5"/>
<text text-anchor="middle" x="1722" y="-425.5" font-family="Helvetica,sans-Serif" font-size="10.00">view.TurtleDraw.drawTurtle</text>
</a>
</g>
</g>
<!-- Node22&#45;&gt;Node23 -->
<g id="edge23" class="edge"><title>Node22&#45;&gt;Node23</title>
<path fill="none" stroke="midnightblue" d="M1576.45,-383.065C1587.06,-386.079 1597.91,-389.427 1608,-393 1624.5,-398.846 1627.44,-403.325 1644,-409 1651.33,-411.51 1659.15,-413.835 1666.9,-415.934"/>
<polygon fill="midnightblue" stroke="midnightblue" points="1666.08,-419.335 1676.63,-418.469 1667.84,-412.561 1666.08,-419.335"/>
</g>
<!-- Node26 -->
<g id="node26" class="node"><title>Node26</title>
<g id="a_node26"><a xlink:href="../../d7/da6/classview_1_1_turtle_draw.html#a14678068d3fc9d3b6e1067bc372f6030" target="_top" xlink:title="view.TurtleDraw.showTurtle">
<polygon fill="white" stroke="black" points="1652,-380.5 1652,-399.5 1792,-399.5 1792,-380.5 1652,-380.5"/>
<text text-anchor="middle" x="1722" y="-387.5" font-family="Helvetica,sans-Serif" font-size="10.00">view.TurtleDraw.showTurtle</text>
</a>
</g>
</g>
<!-- Node22&#45;&gt;Node26 -->
<g id="edge26" class="edge"><title>Node22&#45;&gt;Node26</title>
<path fill="none" stroke="midnightblue" d="M1604.76,-377.586C1617.12,-378.906 1629.75,-380.255 1641.9,-381.553"/>
<polygon fill="midnightblue" stroke="midnightblue" points="1641.67,-385.048 1651.99,-382.63 1642.42,-378.088 1641.67,-385.048"/>
</g>
<!-- Node27 -->
<g id="node27" class="node"><title>Node27</title>
<g id="a_node27"><a xlink:href="../../d7/da6/classview_1_1_turtle_draw.html#a8c2cab38eb294b26aea1ae17595ba2a6" target="_top" xlink:title="view.TurtleDraw.moveTurtle">
<polygon fill="white" stroke="black" points="1650.5,-342.5 1650.5,-361.5 1793.5,-361.5 1793.5,-342.5 1650.5,-342.5"/>
<text text-anchor="middle" x="1722" y="-349.5" font-family="Helvetica,sans-Serif" font-size="10.00">view.TurtleDraw.moveTurtle</text>
</a>
</g>
</g>
<!-- Node22&#45;&gt;Node27 -->
<g id="edge27" class="edge"><title>Node22&#45;&gt;Node27</title>
<path fill="none" stroke="midnightblue" d="M1604.76,-361.029C1616.58,-360.11 1628.64,-359.174 1640.3,-358.268"/>
<polygon fill="midnightblue" stroke="midnightblue" points="1640.73,-361.745 1650.43,-357.481 1640.19,-354.766 1640.73,-361.745"/>
</g>
<!-- Node28 -->
<g id="node28" class="node"><title>Node28</title>
<g id="a_node28"><a xlink:href="../../d7/da6/classview_1_1_turtle_draw.html#a5004a16526a67f090d7da45474b5136e" target="_top" xlink:title="view.TurtleDraw.setAngle">
<polygon fill="white" stroke="black" points="1655.5,-456.5 1655.5,-475.5 1788.5,-475.5 1788.5,-456.5 1655.5,-456.5"/>
<text text-anchor="middle" x="1722" y="-463.5" font-family="Helvetica,sans-Serif" font-size="10.00">view.TurtleDraw.setAngle</text>
</a>
</g>
</g>
<!-- Node22&#45;&gt;Node28 -->
<g id="edge28" class="edge"><title>Node22&#45;&gt;Node28</title>
<path fill="none" stroke="midnightblue" d="M1590.3,-383.029C1596.56,-385.808 1602.57,-389.1 1608,-393 1631.43,-409.823 1620.4,-430.42 1644,-447 1646.85,-449 1649.88,-450.79 1653.04,-452.392"/>
<polygon fill="midnightblue" stroke="midnightblue" points="1651.65,-455.604 1662.21,-456.428 1654.47,-449.197 1651.65,-455.604"/>
</g>
<!-- Node24 -->
<g id="node24" class="node"><title>Node24</title>
<g id="a_node24"><a xlink:href="../../d3/db7/classview_1_1controllers_1_1_image_palette.html#a8a6620714bc12d5a00b97e99299a7040" target="_top" xlink:title="view.controllers.ImagePalette.get\lImage">
<polygon fill="white" stroke="black" points="1836,-391 1836,-421 2010,-421 2010,-391 1836,-391"/>
<text text-anchor="start" x="1844" y="-409" font-family="Helvetica,sans-Serif" font-size="10.00">view.controllers.ImagePalette.get</text>
<text text-anchor="middle" x="1923" y="-398" font-family="Helvetica,sans-Serif" font-size="10.00">Image</text>
</a>
</g>
</g>
<!-- Node23&#45;&gt;Node24 -->
<g id="edge24" class="edge"><title>Node23&#45;&gt;Node24</title>
<path fill="none" stroke="midnightblue" d="M1791.76,-420.398C1802.71,-419.188 1814.21,-417.916 1825.65,-416.651"/>
<polygon fill="midnightblue" stroke="midnightblue" points="1826.13,-420.121 1835.68,-415.543 1825.36,-413.163 1826.13,-420.121"/>
</g>
<!-- Node25 -->
<g id="node25" class="node"><title>Node25</title>
<g id="a_node25"><a xlink:href="../../d6/d34/classmodel_1_1_turtle.html#a942dbeb1d7e2bc19b6870538c2c3a7d2" target="_top" xlink:title="model.Turtle.getShape">
<polygon fill="white" stroke="black" points="1860.5,-440.5 1860.5,-459.5 1985.5,-459.5 1985.5,-440.5 1860.5,-440.5"/>
<text text-anchor="middle" x="1923" y="-447.5" font-family="Helvetica,sans-Serif" font-size="10.00">model.Turtle.getShape</text>
</a>
</g>
</g>
<!-- Node23&#45;&gt;Node25 -->
<g id="edge25" class="edge"><title>Node23&#45;&gt;Node25</title>
<path fill="none" stroke="midnightblue" d="M1791.76,-435.602C1810.62,-437.686 1831.11,-439.952 1850.13,-442.055"/>
<polygon fill="midnightblue" stroke="midnightblue" points="1849.91,-445.551 1860.23,-443.171 1850.67,-438.593 1849.91,-445.551"/>
</g>
<!-- Node31 -->
<g id="node31" class="node"><title>Node31</title>
<g id="a_node31"><a xlink:href="../../d7/da6/classview_1_1_turtle_draw.html#acb97dedda080cb5ed17031d2b31adc2c" target="_top" xlink:title="view.TurtleDraw.hideTurtle">
<polygon fill="white" stroke="black" points="1653.5,-304.5 1653.5,-323.5 1790.5,-323.5 1790.5,-304.5 1653.5,-304.5"/>
<text text-anchor="middle" x="1722" y="-311.5" font-family="Helvetica,sans-Serif" font-size="10.00">view.TurtleDraw.hideTurtle</text>
</a>
</g>
</g>
<!-- Node30&#45;&gt;Node31 -->
<g id="edge31" class="edge"><title>Node30&#45;&gt;Node31</title>
<path fill="none" stroke="midnightblue" d="M1604.76,-316.821C1617.46,-316.513 1630.44,-316.198 1642.9,-315.896"/>
<polygon fill="midnightblue" stroke="midnightblue" points="1643.32,-319.387 1653.23,-315.645 1643.15,-312.389 1643.32,-319.387"/>
</g>
<!-- Node32&#45;&gt;Node23 -->
<g id="edge34" class="edge"><title>Node32&#45;&gt;Node23</title>
<path fill="none" stroke="midnightblue" d="M1595.99,-285.031C1600.32,-287.586 1604.37,-290.554 1608,-294 1646.82,-330.896 1604.98,-372.311 1644,-409 1645.67,-410.571 1647.45,-412.018 1649.32,-413.351"/>
<polygon fill="midnightblue" stroke="midnightblue" points="1647.61,-416.406 1657.99,-418.489 1651.17,-410.382 1647.61,-416.406"/>
</g>
<!-- Node32&#45;&gt;Node26 -->
<g id="edge35" class="edge"><title>Node32&#45;&gt;Node26</title>
<path fill="none" stroke="midnightblue" d="M1594.58,-285.139C1599.36,-287.659 1603.89,-290.591 1608,-294 1637.06,-318.134 1614.81,-347.02 1644,-371 1646.05,-372.682 1648.22,-374.219 1650.5,-375.623"/>
<polygon fill="midnightblue" stroke="midnightblue" points="1649.19,-378.888 1659.67,-380.403 1652.42,-372.679 1649.19,-378.888"/>
</g>
<!-- Node32&#45;&gt;Node27 -->
<g id="edge48" class="edge"><title>Node32&#45;&gt;Node27</title>
<path fill="none" stroke="midnightblue" d="M1589.67,-285.114C1596.07,-287.637 1602.28,-290.577 1608,-294 1628.25,-306.107 1623.69,-321.001 1644,-333 1647.67,-335.167 1651.57,-337.087 1655.61,-338.79"/>
<polygon fill="midnightblue" stroke="midnightblue" points="1654.6,-342.151 1665.19,-342.378 1657.05,-335.595 1654.6,-342.151"/>
</g>
<!-- Node32&#45;&gt;Node28 -->
<g id="edge46" class="edge"><title>Node32&#45;&gt;Node28</title>
<path fill="none" stroke="midnightblue" d="M1597.13,-285.261C1601.07,-287.769 1604.73,-290.663 1608,-294 1656.86,-343.924 1594.87,-397.337 1644,-447 1645.42,-448.432 1646.92,-449.762 1648.5,-450.997"/>
<polygon fill="midnightblue" stroke="midnightblue" points="1646.65,-453.967 1656.96,-456.418 1650.43,-448.074 1646.65,-453.967"/>
</g>
<!-- Node32&#45;&gt;Node31 -->
<g id="edge36" class="edge"><title>Node32&#45;&gt;Node31</title>
<path fill="none" stroke="midnightblue" d="M1585.32,-285.019C1611.85,-290.686 1641.61,-297.043 1666.48,-302.356"/>
<polygon fill="midnightblue" stroke="midnightblue" points="1665.95,-305.821 1676.46,-304.488 1667.42,-298.976 1665.95,-305.821"/>
</g>
<!-- Node33 -->
<g id="node33" class="node"><title>Node33</title>
<g id="a_node33"><a xlink:href="../../d6/d34/classmodel_1_1_turtle.html#ae79a1eae7eed55d121c3b85299ae14ba" target="_top" xlink:title="model.Turtle.getID">
<polygon fill="white" stroke="black" points="1670,-0.5 1670,-19.5 1774,-19.5 1774,-0.5 1670,-0.5"/>
<text text-anchor="middle" x="1722" y="-7.5" font-family="Helvetica,sans-Serif" font-size="10.00">model.Turtle.getID</text>
</a>
</g>
</g>
<!-- Node32&#45;&gt;Node33 -->
<g id="edge33" class="edge"><title>Node32&#45;&gt;Node33</title>
<path fill="none" stroke="midnightblue" d="M1596.17,-254.908C1600.52,-252.115 1604.52,-248.839 1608,-245 1673.38,-172.911 1577.87,-100.409 1644,-29 1648.48,-24.1602 1653.98,-20.4664 1659.96,-17.6592"/>
<polygon fill="midnightblue" stroke="midnightblue" points="1661.59,-20.7833 1669.68,-13.9404 1659.09,-14.2456 1661.59,-20.7833"/>
</g>
<!-- Node34 -->
<g id="node34" class="node"><title>Node34</title>
<g id="a_node34"><a xlink:href="../../d6/d34/classmodel_1_1_turtle.html#a279f2bdb3fa955acdd52b7824ec3cd04" target="_top" xlink:title="model.Turtle.getPenStatus">
<polygon fill="white" stroke="black" points="1650.5,-266.5 1650.5,-285.5 1793.5,-285.5 1793.5,-266.5 1650.5,-266.5"/>
<text text-anchor="middle" x="1722" y="-273.5" font-family="Helvetica,sans-Serif" font-size="10.00">model.Turtle.getPenStatus</text>
</a>
</g>
</g>
<!-- Node32&#45;&gt;Node34 -->
<g id="edge37" class="edge"><title>Node32&#45;&gt;Node34</title>
<path fill="none" stroke="midnightblue" d="M1608.06,-272.71C1618.8,-273.023 1629.69,-273.341 1640.26,-273.648"/>
<polygon fill="midnightblue" stroke="midnightblue" points="1640.17,-277.147 1650.27,-273.94 1640.38,-270.15 1640.17,-277.147"/>
</g>
<!-- Node36 -->
<g id="node36" class="node"><title>Node36</title>
<g id="a_node36"><a xlink:href="../../d7/da6/classview_1_1_turtle_draw.html#a1325ca376115619f15f5014eb4c5ad2a" target="_top" xlink:title="view.TurtleDraw.drawLine">
<polygon fill="white" stroke="black" points="1655.5,-228.5 1655.5,-247.5 1788.5,-247.5 1788.5,-228.5 1655.5,-228.5"/>
<text text-anchor="middle" x="1722" y="-235.5" font-family="Helvetica,sans-Serif" font-size="10.00">view.TurtleDraw.drawLine</text>
</a>
</g>
</g>
<!-- Node32&#45;&gt;Node36 -->
<g id="edge39" class="edge"><title>Node32&#45;&gt;Node36</title>
<path fill="none" stroke="midnightblue" d="M1608.06,-255.545C1621.99,-253.38 1636.17,-251.178 1649.56,-249.097"/>
<polygon fill="midnightblue" stroke="midnightblue" points="1650.29,-252.527 1659.63,-247.533 1649.21,-245.61 1650.29,-252.527"/>
</g>
<!-- Node37 -->
<g id="node37" class="node"><title>Node37</title>
<g id="a_node37"><a xlink:href="../../d6/d34/classmodel_1_1_turtle.html#a832234461564763f8330181b3c1163ff" target="_top" xlink:title="model.Turtle.getPrevLocation">
<polygon fill="white" stroke="black" points="1644.5,-190.5 1644.5,-209.5 1799.5,-209.5 1799.5,-190.5 1644.5,-190.5"/>
<text text-anchor="middle" x="1722" y="-197.5" font-family="Helvetica,sans-Serif" font-size="10.00">model.Turtle.getPrevLocation</text>
</a>
</g>
</g>
<!-- Node32&#45;&gt;Node37 -->
<g id="edge40" class="edge"><title>Node32&#45;&gt;Node37</title>
<path fill="none" stroke="midnightblue" d="M1582.6,-254.952C1591.32,-252.109 1600,-248.807 1608,-245 1625.82,-236.521 1626.09,-227.294 1644,-219 1649.28,-216.554 1654.92,-214.397 1660.65,-212.501"/>
<polygon fill="midnightblue" stroke="midnightblue" points="1661.79,-215.812 1670.34,-209.552 1659.76,-209.116 1661.79,-215.812"/>
</g>
<!-- Node38 -->
<g id="node38" class="node"><title>Node38</title>
<g id="a_node38"><a xlink:href="../../d6/d34/classmodel_1_1_turtle.html#a2470b9b4ef48a261324047de8ebdc242" target="_top" xlink:title="model.Turtle.getNewLocation">
<polygon fill="white" stroke="black" points="1644.5,-152.5 1644.5,-171.5 1799.5,-171.5 1799.5,-152.5 1644.5,-152.5"/>
<text text-anchor="middle" x="1722" y="-159.5" font-family="Helvetica,sans-Serif" font-size="10.00">model.Turtle.getNewLocation</text>
</a>
</g>
</g>
<!-- Node32&#45;&gt;Node38 -->
<g id="edge41" class="edge"><title>Node32&#45;&gt;Node38</title>
<path fill="none" stroke="midnightblue" d="M1591.55,-254.969C1597.41,-252.189 1602.98,-248.898 1608,-245 1633.77,-224.977 1618.02,-200.755 1644,-181 1646.36,-179.203 1648.87,-177.574 1651.49,-176.097"/>
<polygon fill="midnightblue" stroke="midnightblue" points="1653.25,-179.134 1660.74,-171.64 1650.21,-172.828 1653.25,-179.134"/>
</g>
<!-- Node39 -->
<g id="node39" class="node"><title>Node39</title>
<g id="a_node39"><a xlink:href="../../d6/d34/classmodel_1_1_turtle.html#a19c059b1cbfbd4e8f046ec2403de3fb9" target="_top" xlink:title="model.Turtle.getPenDash">
<polygon fill="white" stroke="black" points="1653.5,-114.5 1653.5,-133.5 1790.5,-133.5 1790.5,-114.5 1653.5,-114.5"/>
<text text-anchor="middle" x="1722" y="-121.5" font-family="Helvetica,sans-Serif" font-size="10.00">model.Turtle.getPenDash</text>
</a>
</g>
</g>
<!-- Node32&#45;&gt;Node39 -->
<g id="edge42" class="edge"><title>Node32&#45;&gt;Node39</title>
<path fill="none" stroke="midnightblue" d="M1594.11,-254.92C1599.13,-252.14 1603.83,-248.862 1608,-245 1643.27,-212.335 1608.39,-175.299 1644,-143 1645.7,-141.459 1647.5,-140.038 1649.39,-138.729"/>
<polygon fill="midnightblue" stroke="midnightblue" points="1651.24,-141.704 1658.14,-133.668 1647.73,-135.645 1651.24,-141.704"/>
</g>
<!-- Node41 -->
<g id="node41" class="node"><title>Node41</title>
<g id="a_node41"><a xlink:href="../../d6/d34/classmodel_1_1_turtle.html#a193c156784f783064ae533b619b6be6e" target="_top" xlink:title="model.Turtle.getPenColor">
<polygon fill="white" stroke="black" points="1653.5,-76.5 1653.5,-95.5 1790.5,-95.5 1790.5,-76.5 1653.5,-76.5"/>
<text text-anchor="middle" x="1722" y="-83.5" font-family="Helvetica,sans-Serif" font-size="10.00">model.Turtle.getPenColor</text>
</a>
</g>
</g>
<!-- Node32&#45;&gt;Node41 -->
<g id="edge44" class="edge"><title>Node32&#45;&gt;Node41</title>
<path fill="none" stroke="midnightblue" d="M1595.36,-254.811C1599.96,-252.047 1604.24,-248.804 1608,-245 1653.18,-199.324 1598.35,-150.207 1644,-105 1645.43,-103.583 1646.95,-102.266 1648.54,-101.042"/>
<polygon fill="midnightblue" stroke="midnightblue" points="1650.46,-103.97 1657.04,-95.6666 1646.72,-98.0534 1650.46,-103.97"/>
</g>
<!-- Node43 -->
<g id="node43" class="node"><title>Node43</title>
<g id="a_node43"><a xlink:href="../../d6/d34/classmodel_1_1_turtle.html#a1c5d07962ede5fbfacc59413274d4300" target="_top" xlink:title="model.Turtle.getHeading">
<polygon fill="white" stroke="black" points="1655,-38.5 1655,-57.5 1789,-57.5 1789,-38.5 1655,-38.5"/>
<text text-anchor="middle" x="1722" y="-45.5" font-family="Helvetica,sans-Serif" font-size="10.00">model.Turtle.getHeading</text>
</a>
</g>
</g>
<!-- Node32&#45;&gt;Node43 -->
<g id="edge47" class="edge"><title>Node32&#45;&gt;Node43</title>
<path fill="none" stroke="midnightblue" d="M1596.02,-254.768C1600.4,-252.009 1604.45,-248.779 1608,-245 1663.25,-186.157 1588.15,-125.269 1644,-67 1645.24,-65.7016 1646.56,-64.4862 1647.94,-63.3487"/>
<polygon fill="midnightblue" stroke="midnightblue" points="1650.1,-66.1197 1656.46,-57.651 1646.2,-60.3011 1650.1,-66.1197"/>
</g>
<!-- Node35 -->
<g id="node35" class="node"><title>Node35</title>
<g id="a_node35"><a xlink:href="../../de/ded/classmodel_1_1_pen.html#afad4fb3e51847cacab72c036ddaa108f" target="_top" xlink:title="model.Pen.getStatus">
<polygon fill="white" stroke="black" points="1864,-266.5 1864,-285.5 1982,-285.5 1982,-266.5 1864,-266.5"/>
<text text-anchor="middle" x="1923" y="-273.5" font-family="Helvetica,sans-Serif" font-size="10.00">model.Pen.getStatus</text>
</a>
</g>
</g>
<!-- Node34&#45;&gt;Node35 -->
<g id="edge38" class="edge"><title>Node34&#45;&gt;Node35</title>
<path fill="none" stroke="midnightblue" d="M1793.72,-276C1813.23,-276 1834.35,-276 1853.72,-276"/>
<polygon fill="midnightblue" stroke="midnightblue" points="1853.97,-279.5 1863.97,-276 1853.97,-272.5 1853.97,-279.5"/>
</g>
<!-- Node40 -->
<g id="node40" class="node"><title>Node40</title>
<g id="a_node40"><a xlink:href="../../de/ded/classmodel_1_1_pen.html#a6999f4af56377415621f193ef8600e27" target="_top" xlink:title="model.Pen.getDash">
<polygon fill="white" stroke="black" points="1867.5,-114.5 1867.5,-133.5 1978.5,-133.5 1978.5,-114.5 1867.5,-114.5"/>
<text text-anchor="middle" x="1923" y="-121.5" font-family="Helvetica,sans-Serif" font-size="10.00">model.Pen.getDash</text>
</a>
</g>
</g>
<!-- Node39&#45;&gt;Node40 -->
<g id="edge43" class="edge"><title>Node39&#45;&gt;Node40</title>
<path fill="none" stroke="midnightblue" d="M1790.65,-124C1812.15,-124 1835.86,-124 1857.15,-124"/>
<polygon fill="midnightblue" stroke="midnightblue" points="1857.39,-127.5 1867.39,-124 1857.39,-120.5 1857.39,-127.5"/>
</g>
<!-- Node42 -->
<g id="node42" class="node"><title>Node42</title>
<g id="a_node42"><a xlink:href="../../de/ded/classmodel_1_1_pen.html#a704af31474b10d17caf40773b7971826" target="_top" xlink:title="model.Pen.getPenColor">
<polygon fill="white" stroke="black" points="1858.5,-76.5 1858.5,-95.5 1987.5,-95.5 1987.5,-76.5 1858.5,-76.5"/>
<text text-anchor="middle" x="1923" y="-83.5" font-family="Helvetica,sans-Serif" font-size="10.00">model.Pen.getPenColor</text>
</a>
</g>
</g>
<!-- Node41&#45;&gt;Node42 -->
<g id="edge45" class="edge"><title>Node41&#45;&gt;Node42</title>
<path fill="none" stroke="midnightblue" d="M1790.65,-86C1809.18,-86 1829.36,-86 1848.21,-86"/>
<polygon fill="midnightblue" stroke="midnightblue" points="1848.23,-89.5001 1858.23,-86 1848.23,-82.5001 1848.23,-89.5001"/>
</g>
<!-- Node46 -->
<g id="node46" class="node"><title>Node46</title>
<g id="a_node46"><a xlink:href="../../d8/dd2/classview_1_1_command_string.html#a666bbe4a67f0516444f5ee29cbb5e588" target="_top" xlink:title="view.CommandString.setCommand">
<polygon fill="white" stroke="black" points="688,-356.5 688,-375.5 874,-375.5 874,-356.5 688,-356.5"/>
<text text-anchor="middle" x="781" y="-363.5" font-family="Helvetica,sans-Serif" font-size="10.00">view.CommandString.setCommand</text>
</a>
</g>
</g>
<!-- Node45&#45;&gt;Node46 -->
<g id="edge51" class="edge"><title>Node45&#45;&gt;Node46</title>
<path fill="none" stroke="midnightblue" d="M646.312,-366C656.584,-366 667.084,-366 677.461,-366"/>
<polygon fill="midnightblue" stroke="midnightblue" points="677.783,-369.5 687.783,-366 677.783,-362.5 677.783,-369.5"/>
</g>
</g>
</svg>
