<?xml version="1.0" encoding="UTF-8" standalone="no"?>
<!DOCTYPE svg PUBLIC "-//W3C//DTD SVG 1.1//EN"
 "http://www.w3.org/Graphics/SVG/1.1/DTD/svg11.dtd">
<!-- Generated by graphviz version 2.36.0 (20140111.2315)
 -->
<!-- Title: view.controllers.PaneController.populate Pages: 1 -->
<svg width="836pt" height="87pt"
 viewBox="0.00 0.00 836.00 87.00" xmlns="http://www.w3.org/2000/svg" xmlns:xlink="http://www.w3.org/1999/xlink">
<g id="graph0" class="graph" transform="scale(1 1) rotate(0) translate(4 83)">
<title>view.controllers.PaneController.populate</title>
<polygon fill="white" stroke="none" points="-4,4 -4,-83 832,-83 832,4 -4,4"/>
<!-- Node1 -->
<g id="node1" class="node"><title>Node1</title>
<polygon fill="#bfbfbf" stroke="black" points="0,-29.5 0,-48.5 206,-48.5 206,-29.5 0,-29.5"/>
<text text-anchor="middle" x="103" y="-36.5" font-family="Helvetica,sans-Serif" font-size="10.00">view.controllers.PaneController.populate</text>
</g>
<!-- Node2 -->
<g id="node2" class="node"><title>Node2</title>
<g id="a_node2"><a xlink:href="../../df/d1d/classview_1_1controllers_1_1_workspace_tabs_controller.html#a90f82e11b42fb019467786f3757f99a1" target="_top" xlink:title="view.controllers.Workspace\lTabsController.makeActive">
<polygon fill="white" stroke="black" points="252.5,-49 252.5,-79 395.5,-79 395.5,-49 252.5,-49"/>
<text text-anchor="start" x="260.5" y="-67" font-family="Helvetica,sans-Serif" font-size="10.00">view.controllers.Workspace</text>
<text text-anchor="middle" x="324" y="-56" font-family="Helvetica,sans-Serif" font-size="10.00">TabsController.makeActive</text>
</a>
</g>
</g>
<!-- Node1&#45;&gt;Node2 -->
<g id="edge1" class="edge"><title>Node1&#45;&gt;Node2</title>
<path fill="none" stroke="midnightblue" d="M197.538,-49.6779C215.89,-51.7728 234.852,-53.9375 252.304,-55.9297"/>
<polygon fill="midnightblue" stroke="midnightblue" points="197.752,-46.1796 187.419,-48.5227 196.958,-53.1344 197.752,-46.1796"/>
</g>
<!-- Node5 -->
<g id="node5" class="node"><title>Node5</title>
<g id="a_node5"><a xlink:href="../../d3/dc7/classview_1_1controllers_1_1_pane_controller.html#af883321e21564088e172fd934f7dcc91" target="_top" xlink:title="view.controllers.PaneController.\lPaneController">
<polygon fill="white" stroke="black" points="242,-0 242,-30 406,-30 406,-0 242,-0"/>
<text text-anchor="start" x="250" y="-18" font-family="Helvetica,sans-Serif" font-size="10.00">view.controllers.PaneController.</text>
<text text-anchor="middle" x="324" y="-7" font-family="Helvetica,sans-Serif" font-size="10.00">PaneController</text>
</a>
</g>
</g>
<!-- Node1&#45;&gt;Node5 -->
<g id="edge5" class="edge"><title>Node1&#45;&gt;Node5</title>
<path fill="none" stroke="midnightblue" d="M201.208,-28.347C214.812,-26.8562 228.673,-25.3372 241.936,-23.8838"/>
<polygon fill="midnightblue" stroke="midnightblue" points="200.428,-24.9115 190.869,-29.4801 201.191,-31.8698 200.428,-24.9115"/>
</g>
<!-- Node3 -->
<g id="node3" class="node"><title>Node3</title>
<g id="a_node3"><a xlink:href="../../df/d1d/classview_1_1controllers_1_1_workspace_tabs_controller.html#a5b4c2e9316c7ed40a9e997aa97e55f27" target="_top" xlink:title="view.controllers.Workspace\lTabsController.WorkspaceTabsController">
<polygon fill="white" stroke="black" points="622.5,-49 622.5,-79 827.5,-79 827.5,-49 622.5,-49"/>
<text text-anchor="start" x="630.5" y="-67" font-family="Helvetica,sans-Serif" font-size="10.00">view.controllers.Workspace</text>
<text text-anchor="middle" x="725" y="-56" font-family="Helvetica,sans-Serif" font-size="10.00">TabsController.WorkspaceTabsController</text>
</a>
</g>
</g>
<!-- Node2&#45;&gt;Node3 -->
<g id="edge2" class="edge"><title>Node2&#45;&gt;Node3</title>
<path fill="none" stroke="midnightblue" d="M405.678,-65.5596C417.849,-65.7426 430.256,-65.8996 442,-66 505.998,-66.5469 522.002,-66.4637 586,-66 597.741,-65.9149 610.042,-65.7892 622.261,-65.6414"/>
<polygon fill="midnightblue" stroke="midnightblue" points="405.583,-62.0578 395.529,-65.4005 405.473,-69.0569 405.583,-62.0578"/>
</g>
<!-- Node4 -->
<g id="node4" class="node"><title>Node4</title>
<g id="a_node4"><a xlink:href="../../df/d1d/classview_1_1controllers_1_1_workspace_tabs_controller.html#a22154b5e0f5997f80712d2385f95e016" target="_top" xlink:title="view.controllers.Workspace\lTabsController.newTab">
<polygon fill="white" stroke="black" points="442.5,-27 442.5,-57 585.5,-57 585.5,-27 442.5,-27"/>
<text text-anchor="start" x="450.5" y="-45" font-family="Helvetica,sans-Serif" font-size="10.00">view.controllers.Workspace</text>
<text text-anchor="middle" x="514" y="-34" font-family="Helvetica,sans-Serif" font-size="10.00">TabsController.newTab</text>
</a>
</g>
</g>
<!-- Node2&#45;&gt;Node4 -->
<g id="edge3" class="edge"><title>Node2&#45;&gt;Node4</title>
<path fill="none" stroke="midnightblue" d="M405.699,-54.5565C417.902,-53.1285 430.41,-51.6648 442.378,-50.2642"/>
<polygon fill="midnightblue" stroke="midnightblue" points="405.065,-51.1068 395.539,-55.7454 405.878,-58.0593 405.065,-51.1068"/>
</g>
<!-- Node4&#45;&gt;Node3 -->
<g id="edge4" class="edge"><title>Node4&#45;&gt;Node3</title>
<path fill="none" stroke="midnightblue" d="M595.785,-50.5037C604.43,-51.4136 613.302,-52.3476 622.15,-53.2789"/>
<polygon fill="midnightblue" stroke="midnightblue" points="596.069,-47.0144 585.758,-49.4482 595.336,-53.9759 596.069,-47.0144"/>
</g>
</g>
</svg>
