<?xml version="1.0" encoding="UTF-8" standalone="no"?>
<!DOCTYPE svg PUBLIC "-//W3C//DTD SVG 1.1//EN"
 "http://www.w3.org/Graphics/SVG/1.1/DTD/svg11.dtd">
<!-- Generated by graphviz version 2.36.0 (20140111.2315)
 -->
<!-- Title: view.controllers.PaneController.showError Pages: 1 -->
<svg width="594pt" height="38pt"
 viewBox="0.00 0.00 594.00 38.00" xmlns="http://www.w3.org/2000/svg" xmlns:xlink="http://www.w3.org/1999/xlink">
<g id="graph0" class="graph" transform="scale(1 1) rotate(0) translate(4 34)">
<title>view.controllers.PaneController.showError</title>
<polygon fill="white" stroke="none" points="-4,4 -4,-34 590,-34 590,4 -4,4"/>
<!-- Node1 -->
<g id="node1" class="node"><title>Node1</title>
<polygon fill="#bfbfbf" stroke="black" points="0,-0 0,-30 188,-30 188,-0 0,-0"/>
<text text-anchor="start" x="8" y="-18" font-family="Helvetica,sans-Serif" font-size="10.00">view.controllers.PaneController.show</text>
<text text-anchor="middle" x="94" y="-7" font-family="Helvetica,sans-Serif" font-size="10.00">Error</text>
</g>
<!-- Node2 -->
<g id="node2" class="node"><title>Node2</title>
<g id="a_node2"><a xlink:href="../../d9/df7/classcontroller_1_1_controller.html#afdfa7f9e9a3fb5f6b73a6b8e2b2be8b5" target="_top" xlink:title="controller.Controller.get\lInput">
<polygon fill="white" stroke="black" points="224,-0 224,-30 352,-30 352,-0 224,-0"/>
<text text-anchor="start" x="232" y="-18" font-family="Helvetica,sans-Serif" font-size="10.00">controller.Controller.get</text>
<text text-anchor="middle" x="288" y="-7" font-family="Helvetica,sans-Serif" font-size="10.00">Input</text>
</a>
</g>
</g>
<!-- Node1&#45;&gt;Node2 -->
<g id="edge1" class="edge"><title>Node1&#45;&gt;Node2</title>
<path fill="none" stroke="midnightblue" d="M198.423,-15C207.125,-15 215.744,-15 223.994,-15"/>
<polygon fill="midnightblue" stroke="midnightblue" points="198.188,-11.5001 188.188,-15 198.188,-18.5001 198.188,-11.5001"/>
</g>
<!-- Node3 -->
<g id="node3" class="node"><title>Node3</title>
<g id="a_node3"><a xlink:href="../../d3/dc7/classview_1_1controllers_1_1_pane_controller.html#a7e6154aecb60d8f3bcb056a11e842764" target="_top" xlink:title="view.controllers.PaneController.update">
<polygon fill="white" stroke="black" points="388,-5.5 388,-24.5 586,-24.5 586,-5.5 388,-5.5"/>
<text text-anchor="middle" x="487" y="-12.5" font-family="Helvetica,sans-Serif" font-size="10.00">view.controllers.PaneController.update</text>
</a>
</g>
</g>
<!-- Node2&#45;&gt;Node3 -->
<g id="edge2" class="edge"><title>Node2&#45;&gt;Node3</title>
<path fill="none" stroke="midnightblue" d="M362.166,-15C370.501,-15 379.097,-15 387.69,-15"/>
<polygon fill="midnightblue" stroke="midnightblue" points="362.145,-11.5001 352.145,-15 362.145,-18.5001 362.145,-11.5001"/>
</g>
</g>
</svg>
