<?xml version="1.0" encoding="UTF-8" standalone="no"?>
<!DOCTYPE svg PUBLIC "-//W3C//DTD SVG 1.1//EN"
 "http://www.w3.org/Graphics/SVG/1.1/DTD/svg11.dtd">
<!-- Generated by graphviz version 2.36.0 (20140111.2315)
 -->
<!-- Title: view.controllers.LanguageController.makeMenu Pages: 1 -->
<svg width="796pt" height="66pt"
 viewBox="0.00 0.00 796.00 66.00" xmlns="http://www.w3.org/2000/svg" xmlns:xlink="http://www.w3.org/1999/xlink">
<g id="graph0" class="graph" transform="scale(1 1) rotate(0) translate(4 62)">
<title>view.controllers.LanguageController.makeMenu</title>
<polygon fill="white" stroke="none" points="-4,4 -4,-62 792,-62 792,4 -4,4"/>
<!-- Node1 -->
<g id="node1" class="node"><title>Node1</title>
<polygon fill="#bfbfbf" stroke="black" points="0,-14 0,-44 140,-44 140,-14 0,-14"/>
<text text-anchor="start" x="8" y="-32" font-family="Helvetica,sans-Serif" font-size="10.00">view.controllers.Language</text>
<text text-anchor="middle" x="70" y="-21" font-family="Helvetica,sans-Serif" font-size="10.00">Controller.makeMenu</text>
</g>
<!-- Node2 -->
<g id="node2" class="node"><title>Node2</title>
<g id="a_node2"><a xlink:href="../../df/d94/classview_1_1controllers_1_1_language_controller.html#a28320ec7a669cf479a5a141b76805b1d" target="_top" xlink:title="view.controllers.Language\lController.setLanguage">
<polygon fill="white" stroke="black" points="176,-14 176,-44 316,-44 316,-14 176,-14"/>
<text text-anchor="start" x="184" y="-32" font-family="Helvetica,sans-Serif" font-size="10.00">view.controllers.Language</text>
<text text-anchor="middle" x="246" y="-21" font-family="Helvetica,sans-Serif" font-size="10.00">Controller.setLanguage</text>
</a>
</g>
</g>
<!-- Node1&#45;&gt;Node2 -->
<g id="edge1" class="edge"><title>Node1&#45;&gt;Node2</title>
<path fill="none" stroke="midnightblue" d="M140.019,-29C148.476,-29 157.169,-29 165.761,-29"/>
<polygon fill="midnightblue" stroke="midnightblue" points="165.78,-32.5001 175.779,-29 165.779,-25.5001 165.78,-32.5001"/>
</g>
<!-- Node3 -->
<g id="node3" class="node"><title>Node3</title>
<g id="a_node3"><a xlink:href="../../d8/dce/classcontroller_1_1_master_controller.html#ab5fbb9e4dc0f267847333f3d8c9ba5ea" target="_top" xlink:title="controller.MasterController.construct\lMasterController">
<polygon fill="white" stroke="black" points="352.5,-14 352.5,-44 543.5,-44 543.5,-14 352.5,-14"/>
<text text-anchor="start" x="360.5" y="-32" font-family="Helvetica,sans-Serif" font-size="10.00">controller.MasterController.construct</text>
<text text-anchor="middle" x="448" y="-21" font-family="Helvetica,sans-Serif" font-size="10.00">MasterController</text>
</a>
</g>
</g>
<!-- Node2&#45;&gt;Node3 -->
<g id="edge2" class="edge"><title>Node2&#45;&gt;Node3</title>
<path fill="none" stroke="midnightblue" d="M316.109,-29C324.64,-29 333.505,-29 342.418,-29"/>
<polygon fill="midnightblue" stroke="midnightblue" points="342.486,-32.5001 352.486,-29 342.486,-25.5001 342.486,-32.5001"/>
</g>
<!-- Node4 -->
<g id="node4" class="node"><title>Node4</title>
<g id="a_node4"><a xlink:href="../../d8/dce/classcontroller_1_1_master_controller.html#a6872efed0600910c8ae37491e0f59a0e" target="_top" xlink:title="controller.MasterController.constructSet">
<polygon fill="white" stroke="black" points="580.5,-38.5 580.5,-57.5 787.5,-57.5 787.5,-38.5 580.5,-38.5"/>
<text text-anchor="middle" x="684" y="-45.5" font-family="Helvetica,sans-Serif" font-size="10.00">controller.MasterController.constructSet</text>
</a>
</g>
</g>
<!-- Node3&#45;&gt;Node4 -->
<g id="edge3" class="edge"><title>Node3&#45;&gt;Node4</title>
<path fill="none" stroke="midnightblue" d="M543.502,-36.6733C552.35,-37.3916 561.375,-38.1245 570.366,-38.8545"/>
<polygon fill="midnightblue" stroke="midnightblue" points="570.241,-42.3558 580.492,-39.6767 570.808,-35.3788 570.241,-42.3558"/>
</g>
<!-- Node5 -->
<g id="node5" class="node"><title>Node5</title>
<g id="a_node5"><a xlink:href="../../d6/d95/classparser_1_1_parser.html#a4f1e7ee432eb4d4377de4ce4202b139d" target="_top" xlink:title="parser.Parser.resetParser">
<polygon fill="white" stroke="black" points="615.5,-0.5 615.5,-19.5 752.5,-19.5 752.5,-0.5 615.5,-0.5"/>
<text text-anchor="middle" x="684" y="-7.5" font-family="Helvetica,sans-Serif" font-size="10.00">parser.Parser.resetParser</text>
</a>
</g>
</g>
<!-- Node3&#45;&gt;Node5 -->
<g id="edge4" class="edge"><title>Node3&#45;&gt;Node5</title>
<path fill="none" stroke="midnightblue" d="M543.502,-21.3267C564.025,-19.6604 585.508,-17.9161 605.294,-16.3095"/>
<polygon fill="midnightblue" stroke="midnightblue" points="605.788,-19.7809 615.472,-15.483 605.222,-12.8039 605.788,-19.7809"/>
</g>
</g>
</svg>
