<?xml version="1.0" encoding="UTF-8" standalone="no"?>
<!DOCTYPE svg PUBLIC "-//W3C//DTD SVG 1.1//EN"
 "http://www.w3.org/Graphics/SVG/1.1/DTD/svg11.dtd">
<!-- Generated by graphviz version 2.36.0 (20140111.2315)
 -->
<!-- Title: view.panes.HistoryPaneModule Pages: 1 -->
<svg width="544pt" height="176pt"
 viewBox="0.00 0.00 544.00 176.00" xmlns="http://www.w3.org/2000/svg" xmlns:xlink="http://www.w3.org/1999/xlink">
<g id="graph0" class="graph" transform="scale(1 1) rotate(0) translate(4 172)">
<title>view.panes.HistoryPaneModule</title>
<polygon fill="white" stroke="none" points="-4,4 -4,-172 540,-172 540,4 -4,4"/>
<!-- Node1 -->
<g id="node1" class="node"><title>Node1</title>
<polygon fill="#bfbfbf" stroke="black" points="146.5,-0.5 146.5,-19.5 309.5,-19.5 309.5,-0.5 146.5,-0.5"/>
<text text-anchor="middle" x="228" y="-7.5" font-family="Helvetica,sans-Serif" font-size="10.00">view.panes.HistoryPaneModule</text>
</g>
<!-- Node2 -->
<g id="node2" class="node"><title>Node2</title>
<g id="a_node2"><a xlink:href="../../df/dd6/classview_1_1panes_1_1_pane_module.html" target="_top" xlink:title="view.panes.PaneModule">
<polygon fill="white" stroke="black" points="-0.5,-90.5 -0.5,-109.5 128.5,-109.5 128.5,-90.5 -0.5,-90.5"/>
<text text-anchor="middle" x="64" y="-97.5" font-family="Helvetica,sans-Serif" font-size="10.00">view.panes.PaneModule</text>
</a>
</g>
</g>
<!-- Node2&#45;&gt;Node1 -->
<g id="edge1" class="edge"><title>Node2&#45;&gt;Node1</title>
<path fill="none" stroke="midnightblue" d="M88.9206,-85.628C123.105,-67.2853 183.551,-34.8507 212.153,-19.5034"/>
<polygon fill="midnightblue" stroke="midnightblue" points="87.1803,-82.5897 80.0236,-90.402 90.4901,-88.7578 87.1803,-82.5897"/>
</g>
<!-- Node3 -->
<g id="node3" class="node"><title>Node3</title>
<polygon fill="white" stroke="#bfbfbf" points="147,-90.5 147,-109.5 207,-109.5 207,-90.5 147,-90.5"/>
<text text-anchor="middle" x="177" y="-97.5" font-family="Helvetica,sans-Serif" font-size="10.00">Observer</text>
</g>
<!-- Node3&#45;&gt;Node1 -->
<g id="edge2" class="edge"><title>Node3&#45;&gt;Node1</title>
<path fill="none" stroke="midnightblue" d="M187.118,-81.5415C197.93,-62.8851 214.633,-34.0643 222.944,-19.7241"/>
<polygon fill="midnightblue" stroke="midnightblue" points="184.063,-79.8335 182.077,-90.2405 190.119,-83.3435 184.063,-79.8335"/>
</g>
<!-- Node4 -->
<g id="node4" class="node"><title>Node4</title>
<polygon fill="white" stroke="#bfbfbf" points="225.5,-90.5 225.5,-109.5 266.5,-109.5 266.5,-90.5 225.5,-90.5"/>
<text text-anchor="middle" x="246" y="-97.5" font-family="Helvetica,sans-Serif" font-size="10.00">VBox</text>
</g>
<!-- Node4&#45;&gt;Node1 -->
<g id="edge3" class="edge"><title>Node4&#45;&gt;Node1</title>
<path fill="none" stroke="#9a32cd" stroke-dasharray="5,2" d="M233.196,-81.6551C231.481,-78.5728 229.979,-75.2918 229,-72 223.624,-53.9295 225.241,-31.4972 226.725,-19.5052"/>
<polygon fill="#9a32cd" stroke="#9a32cd" points="230.297,-83.6186 238.664,-90.1185 236.177,-79.8197 230.297,-83.6186"/>
<text text-anchor="middle" x="272.5" y="-63.5" font-family="Helvetica,sans-Serif" font-size="10.00"> myHistoryDisplay</text>
<text text-anchor="middle" x="272.5" y="-52.5" font-family="Helvetica,sans-Serif" font-size="10.00">mySavedDisplay</text>
<text text-anchor="middle" x="272.5" y="-41.5" font-family="Helvetica,sans-Serif" font-size="10.00">myRoot</text>
</g>
<!-- Node5 -->
<g id="node5" class="node"><title>Node5</title>
<polygon fill="white" stroke="#bfbfbf" points="305,-90.5 305,-109.5 371,-109.5 371,-90.5 305,-90.5"/>
<text text-anchor="middle" x="338" y="-97.5" font-family="Helvetica,sans-Serif" font-size="10.00">ScrollPane</text>
</g>
<!-- Node5&#45;&gt;Node1 -->
<g id="edge4" class="edge"><title>Node5&#45;&gt;Node1</title>
<path fill="none" stroke="#9a32cd" stroke-dasharray="5,2" d="M335.694,-80.0973C333.092,-66.6357 327.59,-49.0416 316,-38 306.975,-29.402 295.28,-23.5368 283.38,-19.5374"/>
<polygon fill="#9a32cd" stroke="#9a32cd" points="332.269,-80.8562 337.267,-90.1985 339.186,-79.779 332.269,-80.8562"/>
<text text-anchor="middle" x="372" y="-58" font-family="Helvetica,sans-Serif" font-size="10.00"> mySavedScroll</text>
<text text-anchor="middle" x="372" y="-47" font-family="Helvetica,sans-Serif" font-size="10.00">myHistoryScroll</text>
</g>
<!-- Node6 -->
<g id="node6" class="node"><title>Node6</title>
<g id="a_node6"><a xlink:href="../../d8/dd2/classview_1_1_command_string.html" target="_top" xlink:title="view.CommandString">
<polygon fill="white" stroke="black" points="389,-90.5 389,-109.5 507,-109.5 507,-90.5 389,-90.5"/>
<text text-anchor="middle" x="448" y="-97.5" font-family="Helvetica,sans-Serif" font-size="10.00">view.CommandString</text>
</a>
</g>
</g>
<!-- Node6&#45;&gt;Node1 -->
<g id="edge5" class="edge"><title>Node6&#45;&gt;Node1</title>
<path fill="none" stroke="#9a32cd" stroke-dasharray="5,2" d="M442.701,-80.6328C437.663,-66.6285 428.64,-48.0851 414,-38 397.004,-26.2916 351.388,-19.5617 309.587,-15.749"/>
<polygon fill="#9a32cd" stroke="#9a32cd" points="439.4,-81.8012 445.804,-90.2419 446.062,-79.6502 439.4,-81.8012"/>
<text text-anchor="middle" x="487.5" y="-52.5" font-family="Helvetica,sans-Serif" font-size="10.00"> myCommandString</text>
</g>
<!-- Node7 -->
<g id="node7" class="node"><title>Node7</title>
<polygon fill="white" stroke="#bfbfbf" points="412.5,-148.5 412.5,-167.5 483.5,-167.5 483.5,-148.5 412.5,-148.5"/>
<text text-anchor="middle" x="448" y="-155.5" font-family="Helvetica,sans-Serif" font-size="10.00">Observable</text>
</g>
<!-- Node7&#45;&gt;Node6 -->
<g id="edge6" class="edge"><title>Node7&#45;&gt;Node6</title>
<path fill="none" stroke="midnightblue" d="M448,-137.953C448,-128.287 448,-117.031 448,-109.505"/>
<polygon fill="midnightblue" stroke="midnightblue" points="444.5,-138.25 448,-148.25 451.5,-138.25 444.5,-138.25"/>
</g>
</g>
</svg>
