<?xml version="1.0" encoding="UTF-8" standalone="no"?>
<!DOCTYPE svg PUBLIC "-//W3C//DTD SVG 1.1//EN"
 "http://www.w3.org/Graphics/SVG/1.1/DTD/svg11.dtd">
<!-- Generated by graphviz version 2.36.0 (20140111.2315)
 -->
<!-- Title: commands.MinusCommand.executeCommand Pages: 1 -->
<svg width="1498pt" height="513pt"
 viewBox="0.00 0.00 1498.00 513.00" xmlns="http://www.w3.org/2000/svg" xmlns:xlink="http://www.w3.org/1999/xlink">
<g id="graph0" class="graph" transform="scale(1 1) rotate(0) translate(4 509)">
<title>commands.MinusCommand.executeCommand</title>
<polygon fill="white" stroke="none" points="-4,4 -4,-509 1494,-509 1494,4 -4,4"/>
<!-- Node1 -->
<g id="node1" class="node"><title>Node1</title>
<polygon fill="#bfbfbf" stroke="black" points="0.5,-387 0.5,-417 193.5,-417 193.5,-387 0.5,-387"/>
<text text-anchor="start" x="8.5" y="-405" font-family="Helvetica,sans-Serif" font-size="10.00">commands.MinusCommand.execute</text>
<text text-anchor="middle" x="97" y="-394" font-family="Helvetica,sans-Serif" font-size="10.00">Command</text>
</g>
<!-- Node2 -->
<g id="node2" class="node"><title>Node2</title>
<g id="a_node2"><a xlink:href="../../dd/dd6/classcommands_1_1_command.html#abafa69601e87c34d4453cf84349d6f9c" target="_top" xlink:title="commands.Command.execute\lCommand">
<polygon fill="white" stroke="black" points="230.5,-387 230.5,-417 395.5,-417 395.5,-387 230.5,-387"/>
<text text-anchor="start" x="238.5" y="-405" font-family="Helvetica,sans-Serif" font-size="10.00">commands.Command.execute</text>
<text text-anchor="middle" x="313" y="-394" font-family="Helvetica,sans-Serif" font-size="10.00">Command</text>
</a>
</g>
</g>
<!-- Node1&#45;&gt;Node2 -->
<g id="edge1" class="edge"><title>Node1&#45;&gt;Node2</title>
<path fill="none" stroke="midnightblue" d="M193.733,-402C202.532,-402 211.433,-402 220.196,-402"/>
<polygon fill="midnightblue" stroke="midnightblue" points="220.404,-405.5 230.404,-402 220.404,-398.5 220.404,-405.5"/>
</g>
<!-- Node3 -->
<g id="node3" class="node"><title>Node3</title>
<g id="a_node3"><a xlink:href="../../df/d50/classmodel_1_1_turtle_set_manager.html#a9a65c0be3b9c21abaf0ebaa54e5b8484" target="_top" xlink:title="model.TurtleSetManager.get\lActiveTurtles">
<polygon fill="white" stroke="black" points="918,-450 918,-480 1070,-480 1070,-450 918,-450"/>
<text text-anchor="start" x="926" y="-468" font-family="Helvetica,sans-Serif" font-size="10.00">model.TurtleSetManager.get</text>
<text text-anchor="middle" x="994" y="-457" font-family="Helvetica,sans-Serif" font-size="10.00">ActiveTurtles</text>
</a>
</g>
</g>
<!-- Node2&#45;&gt;Node3 -->
<g id="edge2" class="edge"><title>Node2&#45;&gt;Node3</title>
<path fill="none" stroke="midnightblue" d="M395.745,-416.85C407.874,-418.764 420.245,-420.556 432,-422 600.057,-442.639 797.732,-455.043 907.866,-460.901"/>
<polygon fill="midnightblue" stroke="midnightblue" points="907.751,-464.4 917.921,-461.431 908.119,-457.409 907.751,-464.4"/>
</g>
<!-- Node4 -->
<g id="node4" class="node"><title>Node4</title>
<g id="a_node4"><a xlink:href="../../d3/d42/classmodel_1_1_model.html#a1a683ba5e58fcb3c8882c8e61df20dc0" target="_top" xlink:title="model.Model.getTurtleManager">
<polygon fill="white" stroke="black" points="912,-411.5 912,-430.5 1076,-430.5 1076,-411.5 912,-411.5"/>
<text text-anchor="middle" x="994" y="-418.5" font-family="Helvetica,sans-Serif" font-size="10.00">model.Model.getTurtleManager</text>
</a>
</g>
</g>
<!-- Node2&#45;&gt;Node4 -->
<g id="edge3" class="edge"><title>Node2&#45;&gt;Node4</title>
<path fill="none" stroke="midnightblue" d="M395.566,-404.282C522.974,-407.848 768.389,-414.715 901.592,-418.442"/>
<polygon fill="midnightblue" stroke="midnightblue" points="901.676,-421.946 911.771,-418.727 901.872,-414.949 901.676,-421.946"/>
</g>
<!-- Node5 -->
<g id="node5" class="node"><title>Node5</title>
<g id="a_node5"><a xlink:href="../../d3/d42/classmodel_1_1_model.html#a76160d002c1e68b566307ac44356f6e5" target="_top" xlink:title="model.Model.notifyView">
<polygon fill="white" stroke="black" points="460.5,-373.5 460.5,-392.5 589.5,-392.5 589.5,-373.5 460.5,-373.5"/>
<text text-anchor="middle" x="525" y="-380.5" font-family="Helvetica,sans-Serif" font-size="10.00">model.Model.notifyView</text>
</a>
</g>
</g>
<!-- Node2&#45;&gt;Node5 -->
<g id="edge4" class="edge"><title>Node2&#45;&gt;Node5</title>
<path fill="none" stroke="midnightblue" d="M395.793,-394.6C413.699,-392.98 432.553,-391.274 450.128,-389.684"/>
<polygon fill="midnightblue" stroke="midnightblue" points="450.668,-393.149 460.312,-388.762 450.037,-386.178 450.668,-393.149"/>
</g>
<!-- Node34 -->
<g id="node34" class="node"><title>Node34</title>
<g id="a_node34"><a xlink:href="../../dd/dd6/classcommands_1_1_command.html#aec3e0f888945b1811fd739ecea212324" target="_top" xlink:title="commands.Command.updateTurtle">
<polygon fill="white" stroke="black" points="432,-335.5 432,-354.5 618,-354.5 618,-335.5 432,-335.5"/>
<text text-anchor="middle" x="525" y="-342.5" font-family="Helvetica,sans-Serif" font-size="10.00">commands.Command.updateTurtle</text>
</a>
</g>
</g>
<!-- Node2&#45;&gt;Node34 -->
<g id="edge40" class="edge"><title>Node2&#45;&gt;Node34</title>
<path fill="none" stroke="midnightblue" d="M356.826,-386.978C379.079,-379.487 406.817,-370.634 432,-364 441.92,-361.387 452.519,-358.91 462.865,-356.662"/>
<polygon fill="midnightblue" stroke="midnightblue" points="463.621,-360.079 472.675,-354.579 462.167,-353.232 463.621,-360.079"/>
</g>
<!-- Node6 -->
<g id="node6" class="node"><title>Node6</title>
<g id="a_node6"><a xlink:href="../../db/db5/classview_1_1panes_1_1_view_pane_module.html#aa2a1bf15bc036ee4237bf63749d85baf" target="_top" xlink:title="view.panes.ViewPaneModule.updateView">
<polygon fill="white" stroke="black" points="654.5,-244.5 654.5,-263.5 863.5,-263.5 863.5,-244.5 654.5,-244.5"/>
<text text-anchor="middle" x="759" y="-251.5" font-family="Helvetica,sans-Serif" font-size="10.00">view.panes.ViewPaneModule.updateView</text>
</a>
</g>
</g>
<!-- Node5&#45;&gt;Node6 -->
<g id="edge5" class="edge"><title>Node5&#45;&gt;Node6</title>
<path fill="none" stroke="midnightblue" d="M589.601,-373.891C599.356,-371.356 609.125,-368.122 618,-364 668.593,-340.501 717.429,-295.468 741.843,-270.94"/>
<polygon fill="midnightblue" stroke="midnightblue" points="744.387,-273.344 748.882,-263.75 739.385,-268.447 744.387,-273.344"/>
</g>
<!-- Node6&#45;&gt;Node3 -->
<g id="edge10" class="edge"><title>Node6&#45;&gt;Node3</title>
<path fill="none" stroke="midnightblue" d="M764.485,-263.902C779.117,-295.048 828.663,-391.812 900,-440 902.929,-441.978 906.008,-443.801 909.193,-445.479"/>
<polygon fill="midnightblue" stroke="midnightblue" points="907.875,-448.727 918.412,-449.838 910.867,-442.399 907.875,-448.727"/>
</g>
<!-- Node6&#45;&gt;Node4 -->
<g id="edge9" class="edge"><title>Node6&#45;&gt;Node4</title>
<path fill="none" stroke="midnightblue" d="M766.175,-263.786C783.598,-290.518 836.052,-365.162 900,-401 904.862,-403.725 910.059,-406.079 915.417,-408.113"/>
<polygon fill="midnightblue" stroke="midnightblue" points="914.605,-411.533 925.2,-411.438 916.858,-404.906 914.605,-411.533"/>
</g>
<!-- Node7 -->
<g id="node7" class="node"><title>Node7</title>
<g id="a_node7"><a xlink:href="../../d3/d42/classmodel_1_1_model.html#a54936407d7df5ab8ef3c0ae54bcdc0ed" target="_top" xlink:title="model.Model.getBackground\lColor">
<polygon fill="white" stroke="black" points="917,-264 917,-294 1071,-294 1071,-264 917,-264"/>
<text text-anchor="start" x="925" y="-282" font-family="Helvetica,sans-Serif" font-size="10.00">model.Model.getBackground</text>
<text text-anchor="middle" x="994" y="-271" font-family="Helvetica,sans-Serif" font-size="10.00">Color</text>
</a>
</g>
</g>
<!-- Node6&#45;&gt;Node7 -->
<g id="edge6" class="edge"><title>Node6&#45;&gt;Node7</title>
<path fill="none" stroke="midnightblue" d="M848.752,-263.523C867.72,-265.558 887.73,-267.705 906.608,-269.73"/>
<polygon fill="midnightblue" stroke="midnightblue" points="906.348,-273.223 916.664,-270.809 907.095,-266.263 906.348,-273.223"/>
</g>
<!-- Node8 -->
<g id="node8" class="node"><title>Node8</title>
<g id="a_node8"><a xlink:href="../../db/db5/classview_1_1panes_1_1_view_pane_module.html#ac94ee444587349ddad19b8caee500c9c" target="_top" xlink:title="view.panes.ViewPaneModule.update\lBGColor">
<polygon fill="white" stroke="black" points="900,-215 900,-245 1088,-245 1088,-215 900,-215"/>
<text text-anchor="start" x="908" y="-233" font-family="Helvetica,sans-Serif" font-size="10.00">view.panes.ViewPaneModule.update</text>
<text text-anchor="middle" x="994" y="-222" font-family="Helvetica,sans-Serif" font-size="10.00">BGColor</text>
</a>
</g>
</g>
<!-- Node6&#45;&gt;Node8 -->
<g id="edge7" class="edge"><title>Node6&#45;&gt;Node8</title>
<path fill="none" stroke="midnightblue" d="M852.422,-244.48C864.754,-243.21 877.461,-241.901 889.96,-240.614"/>
<polygon fill="midnightblue" stroke="midnightblue" points="890.338,-244.093 899.927,-239.587 889.621,-237.13 890.338,-244.093"/>
</g>
<!-- Node9 -->
<g id="node9" class="node"><title>Node9</title>
<g id="a_node9"><a xlink:href="../../db/db5/classview_1_1panes_1_1_view_pane_module.html#abe91f8bb732e99d762bdaba51ceae04b" target="_top" xlink:title="view.panes.ViewPaneModule.toRGB">
<polygon fill="white" stroke="black" points="902,-176.5 902,-195.5 1086,-195.5 1086,-176.5 902,-176.5"/>
<text text-anchor="middle" x="994" y="-183.5" font-family="Helvetica,sans-Serif" font-size="10.00">view.panes.ViewPaneModule.toRGB</text>
</a>
</g>
</g>
<!-- Node6&#45;&gt;Node9 -->
<g id="edge8" class="edge"><title>Node6&#45;&gt;Node9</title>
<path fill="none" stroke="midnightblue" d="M783.966,-244.496C811.597,-233.802 858.543,-216.433 900,-205 909.651,-202.338 919.959,-199.87 930.068,-197.653"/>
<polygon fill="midnightblue" stroke="midnightblue" points="931.027,-201.027 940.079,-195.522 929.57,-194.181 931.027,-201.027"/>
</g>
<!-- Node10 -->
<g id="node10" class="node"><title>Node10</title>
<g id="a_node10"><a xlink:href="../../df/d50/classmodel_1_1_turtle_set_manager.html#a9e215e93eccbed2ab9ebec6119cfe305" target="_top" xlink:title="model.TurtleSetManager.get\lAllTurtles">
<polygon fill="white" stroke="black" points="918,-127 918,-157 1070,-157 1070,-127 918,-127"/>
<text text-anchor="start" x="926" y="-145" font-family="Helvetica,sans-Serif" font-size="10.00">model.TurtleSetManager.get</text>
<text text-anchor="middle" x="994" y="-134" font-family="Helvetica,sans-Serif" font-size="10.00">AllTurtles</text>
</a>
</g>
</g>
<!-- Node6&#45;&gt;Node10 -->
<g id="edge11" class="edge"><title>Node6&#45;&gt;Node10</title>
<path fill="none" stroke="midnightblue" d="M772.796,-244.229C796.605,-226.475 849.858,-188.753 900,-167 905.637,-164.555 911.572,-162.296 917.603,-160.221"/>
<polygon fill="midnightblue" stroke="midnightblue" points="918.71,-163.542 927.131,-157.112 916.539,-156.887 918.71,-163.542"/>
</g>
<!-- Node11 -->
<g id="node11" class="node"><title>Node11</title>
<g id="a_node11"><a xlink:href="../../d3/d42/classmodel_1_1_model.html#af73e838aed2c068e8f7d31bfa1cc88d7" target="_top" xlink:title="model.Model.getStamp">
<polygon fill="white" stroke="black" points="929.5,-88.5 929.5,-107.5 1058.5,-107.5 1058.5,-88.5 929.5,-88.5"/>
<text text-anchor="middle" x="994" y="-95.5" font-family="Helvetica,sans-Serif" font-size="10.00">model.Model.getStamp</text>
</a>
</g>
</g>
<!-- Node6&#45;&gt;Node11 -->
<g id="edge12" class="edge"><title>Node6&#45;&gt;Node11</title>
<path fill="none" stroke="midnightblue" d="M766.59,-244.492C784.663,-219.21 837.824,-150.008 900,-117 906.063,-113.781 912.616,-111.107 919.338,-108.885"/>
<polygon fill="midnightblue" stroke="midnightblue" points="920.676,-112.139 929.27,-105.943 918.688,-105.427 920.676,-112.139"/>
</g>
<!-- Node12 -->
<g id="node12" class="node"><title>Node12</title>
<g id="a_node12"><a xlink:href="../../db/db5/classview_1_1panes_1_1_view_pane_module.html#a44db6ae832af3ce470baa9406142b8cb" target="_top" xlink:title="view.panes.ViewPaneModule.make\lStamps">
<polygon fill="white" stroke="black" points="903.5,-39 903.5,-69 1084.5,-69 1084.5,-39 903.5,-39"/>
<text text-anchor="start" x="911.5" y="-57" font-family="Helvetica,sans-Serif" font-size="10.00">view.panes.ViewPaneModule.make</text>
<text text-anchor="middle" x="994" y="-46" font-family="Helvetica,sans-Serif" font-size="10.00">Stamps</text>
</a>
</g>
</g>
<!-- Node6&#45;&gt;Node12 -->
<g id="edge13" class="edge"><title>Node6&#45;&gt;Node12</title>
<path fill="none" stroke="midnightblue" d="M764.868,-244.27C780.262,-214.536 830.974,-124.158 900,-79 903.122,-76.9577 906.406,-75.0815 909.8,-73.358"/>
<polygon fill="midnightblue" stroke="midnightblue" points="911.372,-76.488 919.007,-69.143 908.458,-70.1233 911.372,-76.488"/>
</g>
<!-- Node19 -->
<g id="node19" class="node"><title>Node19</title>
<g id="a_node19"><a xlink:href="../../d3/d42/classmodel_1_1_model.html#a0a457f31350a460e11dc864463e0d8ff" target="_top" xlink:title="model.Model.setStamp">
<polygon fill="white" stroke="black" points="930,-0.5 930,-19.5 1058,-19.5 1058,-0.5 930,-0.5"/>
<text text-anchor="middle" x="994" y="-7.5" font-family="Helvetica,sans-Serif" font-size="10.00">model.Model.setStamp</text>
</a>
</g>
</g>
<!-- Node6&#45;&gt;Node19 -->
<g id="edge20" class="edge"><title>Node6&#45;&gt;Node19</title>
<path fill="none" stroke="midnightblue" d="M762.896,-244.385C774.036,-209.166 817.671,-86.28 900,-29 906.045,-24.7942 912.814,-21.4778 919.869,-18.8684"/>
<polygon fill="midnightblue" stroke="midnightblue" points="921.177,-22.1242 929.626,-15.7312 919.034,-15.4602 921.177,-22.1242"/>
</g>
<!-- Node20 -->
<g id="node20" class="node"><title>Node20</title>
<g id="a_node20"><a xlink:href="../../db/db5/classview_1_1panes_1_1_view_pane_module.html#a7ad9ad27137ffdf0ea96753a22da236b" target="_top" xlink:title="view.panes.ViewPaneModule.erase\lStamps">
<polygon fill="white" stroke="black" points="903.5,-362 903.5,-392 1084.5,-392 1084.5,-362 903.5,-362"/>
<text text-anchor="start" x="911.5" y="-380" font-family="Helvetica,sans-Serif" font-size="10.00">view.panes.ViewPaneModule.erase</text>
<text text-anchor="middle" x="994" y="-369" font-family="Helvetica,sans-Serif" font-size="10.00">Stamps</text>
</a>
</g>
</g>
<!-- Node6&#45;&gt;Node20 -->
<g id="edge21" class="edge"><title>Node6&#45;&gt;Node20</title>
<path fill="none" stroke="midnightblue" d="M770.783,-263.574C793.234,-283.026 847.306,-327.407 900,-352 905.241,-354.446 910.764,-356.688 916.397,-358.735"/>
<polygon fill="midnightblue" stroke="midnightblue" points="915.355,-362.078 925.949,-362 917.619,-355.454 915.355,-362.078"/>
</g>
<!-- Node22 -->
<g id="node22" class="node"><title>Node22</title>
<g id="a_node22"><a xlink:href="../../db/db5/classview_1_1panes_1_1_view_pane_module.html#ab55ce3511929b88a2cd1235eb694868f" target="_top" xlink:title="view.panes.ViewPaneModule.update\lTurtle">
<polygon fill="white" stroke="black" points="900,-313 900,-343 1088,-343 1088,-313 900,-313"/>
<text text-anchor="start" x="908" y="-331" font-family="Helvetica,sans-Serif" font-size="10.00">view.panes.ViewPaneModule.update</text>
<text text-anchor="middle" x="994" y="-320" font-family="Helvetica,sans-Serif" font-size="10.00">Turtle</text>
</a>
</g>
</g>
<!-- Node6&#45;&gt;Node22 -->
<g id="edge23" class="edge"><title>Node6&#45;&gt;Node22</title>
<path fill="none" stroke="midnightblue" d="M785.359,-263.512C813.261,-273.829 859.527,-290.496 900,-303 907.922,-305.447 916.265,-307.885 924.568,-310.224"/>
<polygon fill="midnightblue" stroke="midnightblue" points="923.698,-313.615 934.27,-312.92 925.572,-306.871 923.698,-313.615"/>
</g>
<!-- Node13 -->
<g id="node13" class="node"><title>Node13</title>
<g id="a_node13"><a xlink:href="../../d7/da6/classview_1_1_turtle_draw.html#a939f4fdbdb66457c9dcee82eb4ae6d9c" target="_top" xlink:title="view.TurtleDraw.drawTurtle">
<polygon fill="white" stroke="black" points="1132.5,-67.5 1132.5,-86.5 1271.5,-86.5 1271.5,-67.5 1132.5,-67.5"/>
<text text-anchor="middle" x="1202" y="-74.5" font-family="Helvetica,sans-Serif" font-size="10.00">view.TurtleDraw.drawTurtle</text>
</a>
</g>
</g>
<!-- Node12&#45;&gt;Node13 -->
<g id="edge14" class="edge"><title>Node12&#45;&gt;Node13</title>
<path fill="none" stroke="midnightblue" d="M1084.76,-64.0212C1097.21,-65.4115 1109.92,-66.831 1122.15,-68.1968"/>
<polygon fill="midnightblue" stroke="midnightblue" points="1121.97,-71.6983 1132.3,-69.3296 1122.75,-64.7415 1121.97,-71.6983"/>
</g>
<!-- Node16 -->
<g id="node16" class="node"><title>Node16</title>
<g id="a_node16"><a xlink:href="../../d7/da6/classview_1_1_turtle_draw.html#a14678068d3fc9d3b6e1067bc372f6030" target="_top" xlink:title="view.TurtleDraw.showTurtle">
<polygon fill="white" stroke="black" points="1132,-29.5 1132,-48.5 1272,-48.5 1272,-29.5 1132,-29.5"/>
<text text-anchor="middle" x="1202" y="-36.5" font-family="Helvetica,sans-Serif" font-size="10.00">view.TurtleDraw.showTurtle</text>
</a>
</g>
</g>
<!-- Node12&#45;&gt;Node16 -->
<g id="edge17" class="edge"><title>Node12&#45;&gt;Node16</title>
<path fill="none" stroke="midnightblue" d="M1084.76,-47.4644C1097.12,-46.5639 1109.75,-45.6445 1121.9,-44.7594"/>
<polygon fill="midnightblue" stroke="midnightblue" points="1122.27,-48.2422 1131.99,-44.0251 1121.76,-41.2607 1122.27,-48.2422"/>
</g>
<!-- Node17 -->
<g id="node17" class="node"><title>Node17</title>
<g id="a_node17"><a xlink:href="../../d7/da6/classview_1_1_turtle_draw.html#a8c2cab38eb294b26aea1ae17595ba2a6" target="_top" xlink:title="view.TurtleDraw.moveTurtle">
<polygon fill="white" stroke="black" points="1130.5,-143.5 1130.5,-162.5 1273.5,-162.5 1273.5,-143.5 1130.5,-143.5"/>
<text text-anchor="middle" x="1202" y="-150.5" font-family="Helvetica,sans-Serif" font-size="10.00">view.TurtleDraw.moveTurtle</text>
</a>
</g>
</g>
<!-- Node12&#45;&gt;Node17 -->
<g id="edge18" class="edge"><title>Node12&#45;&gt;Node17</title>
<path fill="none" stroke="midnightblue" d="M1070.8,-69.1906C1076.89,-71.9348 1082.72,-75.1748 1088,-79 1111.66,-96.1392 1100.16,-117.106 1124,-134 1126.84,-136.012 1129.87,-137.811 1133.02,-139.421"/>
<polygon fill="midnightblue" stroke="midnightblue" points="1131.62,-142.629 1142.18,-143.474 1134.45,-136.227 1131.62,-142.629"/>
</g>
<!-- Node18 -->
<g id="node18" class="node"><title>Node18</title>
<g id="a_node18"><a xlink:href="../../d7/da6/classview_1_1_turtle_draw.html#a5004a16526a67f090d7da45474b5136e" target="_top" xlink:title="view.TurtleDraw.setAngle">
<polygon fill="white" stroke="black" points="1135.5,-105.5 1135.5,-124.5 1268.5,-124.5 1268.5,-105.5 1135.5,-105.5"/>
<text text-anchor="middle" x="1202" y="-112.5" font-family="Helvetica,sans-Serif" font-size="10.00">view.TurtleDraw.setAngle</text>
</a>
</g>
</g>
<!-- Node12&#45;&gt;Node18 -->
<g id="edge19" class="edge"><title>Node12&#45;&gt;Node18</title>
<path fill="none" stroke="midnightblue" d="M1057.02,-69.0126C1067.46,-72.0119 1078.11,-75.3695 1088,-79 1104.61,-85.0988 1107.33,-90.0733 1124,-96 1131.04,-98.5012 1138.55,-100.795 1146.02,-102.858"/>
<polygon fill="midnightblue" stroke="midnightblue" points="1145.2,-106.264 1155.77,-105.434 1146.99,-99.4958 1145.2,-106.264"/>
</g>
<!-- Node14 -->
<g id="node14" class="node"><title>Node14</title>
<g id="a_node14"><a xlink:href="../../d6/d34/classmodel_1_1_turtle.html#a942dbeb1d7e2bc19b6870538c2c3a7d2" target="_top" xlink:title="model.Turtle.getShape">
<polygon fill="white" stroke="black" points="1340.5,-89.5 1340.5,-108.5 1465.5,-108.5 1465.5,-89.5 1340.5,-89.5"/>
<text text-anchor="middle" x="1403" y="-96.5" font-family="Helvetica,sans-Serif" font-size="10.00">model.Turtle.getShape</text>
</a>
</g>
</g>
<!-- Node13&#45;&gt;Node14 -->
<g id="edge15" class="edge"><title>Node13&#45;&gt;Node14</title>
<path fill="none" stroke="midnightblue" d="M1271.76,-84.602C1290.62,-86.6865 1311.11,-88.9515 1330.13,-91.0547"/>
<polygon fill="midnightblue" stroke="midnightblue" points="1329.91,-94.5509 1340.23,-92.1711 1330.67,-87.5933 1329.91,-94.5509"/>
</g>
<!-- Node15 -->
<g id="node15" class="node"><title>Node15</title>
<g id="a_node15"><a xlink:href="../../d3/db7/classview_1_1controllers_1_1_image_palette.html#a8a6620714bc12d5a00b97e99299a7040" target="_top" xlink:title="view.controllers.ImagePalette.get\lImage">
<polygon fill="white" stroke="black" points="1316,-40 1316,-70 1490,-70 1490,-40 1316,-40"/>
<text text-anchor="start" x="1324" y="-58" font-family="Helvetica,sans-Serif" font-size="10.00">view.controllers.ImagePalette.get</text>
<text text-anchor="middle" x="1403" y="-47" font-family="Helvetica,sans-Serif" font-size="10.00">Image</text>
</a>
</g>
</g>
<!-- Node13&#45;&gt;Node15 -->
<g id="edge16" class="edge"><title>Node13&#45;&gt;Node15</title>
<path fill="none" stroke="midnightblue" d="M1271.76,-69.398C1282.71,-68.1877 1294.21,-66.9165 1305.65,-65.6514"/>
<polygon fill="midnightblue" stroke="midnightblue" points="1306.13,-69.1206 1315.68,-64.5429 1305.36,-62.163 1306.13,-69.1206"/>
</g>
<!-- Node21 -->
<g id="node21" class="node"><title>Node21</title>
<g id="a_node21"><a xlink:href="../../d7/da6/classview_1_1_turtle_draw.html#acb97dedda080cb5ed17031d2b31adc2c" target="_top" xlink:title="view.TurtleDraw.hideTurtle">
<polygon fill="white" stroke="black" points="1133.5,-485.5 1133.5,-504.5 1270.5,-504.5 1270.5,-485.5 1133.5,-485.5"/>
<text text-anchor="middle" x="1202" y="-492.5" font-family="Helvetica,sans-Serif" font-size="10.00">view.TurtleDraw.hideTurtle</text>
</a>
</g>
</g>
<!-- Node20&#45;&gt;Node21 -->
<g id="edge22" class="edge"><title>Node20&#45;&gt;Node21</title>
<path fill="none" stroke="midnightblue" d="M1072.72,-392.164C1078.18,-394.918 1083.36,-398.167 1088,-402 1116.2,-425.29 1095.56,-453.003 1124,-476 1126.26,-477.826 1128.67,-479.48 1131.19,-480.979"/>
<polygon fill="midnightblue" stroke="midnightblue" points="1129.62,-484.107 1140.12,-485.495 1132.77,-477.86 1129.62,-484.107"/>
</g>
<!-- Node22&#45;&gt;Node13 -->
<g id="edge25" class="edge"><title>Node22&#45;&gt;Node13</title>
<path fill="none" stroke="midnightblue" d="M1076.14,-312.879C1080.49,-310.093 1084.5,-306.827 1088,-303 1150.98,-234.053 1060.31,-164.292 1124,-96 1125.23,-94.6847 1126.53,-93.4541 1127.9,-92.303"/>
<polygon fill="midnightblue" stroke="midnightblue" points="1130.06,-95.0665 1136.35,-86.544 1126.11,-89.2813 1130.06,-95.0665"/>
</g>
<!-- Node22&#45;&gt;Node16 -->
<g id="edge26" class="edge"><title>Node22&#45;&gt;Node16</title>
<path fill="none" stroke="midnightblue" d="M1076.26,-312.985C1080.58,-310.173 1084.56,-306.872 1088,-303 1161.15,-220.771 1050,-139.468 1124,-58 1125.07,-56.8215 1126.2,-55.7107 1127.38,-54.6639"/>
<polygon fill="midnightblue" stroke="midnightblue" points="1129.74,-57.2816 1135.88,-48.6446 1125.7,-51.5698 1129.74,-57.2816"/>
</g>
<!-- Node22&#45;&gt;Node17 -->
<g id="edge39" class="edge"><title>Node22&#45;&gt;Node17</title>
<path fill="none" stroke="midnightblue" d="M1074.86,-312.995C1079.64,-310.193 1084.09,-306.89 1088,-303 1130.81,-260.424 1080.75,-214.131 1124,-172 1125.48,-170.559 1127.05,-169.221 1128.7,-167.98"/>
<polygon fill="midnightblue" stroke="midnightblue" points="1130.82,-170.784 1137.48,-162.546 1127.13,-164.832 1130.82,-170.784"/>
</g>
<!-- Node22&#45;&gt;Node18 -->
<g id="edge37" class="edge"><title>Node22&#45;&gt;Node18</title>
<path fill="none" stroke="midnightblue" d="M1075.55,-312.99C1080.1,-310.183 1084.32,-306.881 1088,-303 1140.85,-247.284 1070.57,-189.166 1124,-134 1125.25,-132.708 1126.58,-131.498 1127.96,-130.366"/>
<polygon fill="midnightblue" stroke="midnightblue" points="1130.11,-133.14 1136.5,-124.692 1126.24,-127.309 1130.11,-133.14"/>
</g>
<!-- Node22&#45;&gt;Node21 -->
<g id="edge27" class="edge"><title>Node22&#45;&gt;Node21</title>
<path fill="none" stroke="midnightblue" d="M1076.5,-343.202C1080.65,-345.72 1084.53,-348.632 1088,-352 1129.18,-391.965 1082.61,-436.254 1124,-476 1125.49,-477.43 1127.07,-478.759 1128.72,-479.991"/>
<polygon fill="midnightblue" stroke="midnightblue" points="1127.18,-483.152 1137.54,-485.394 1130.84,-477.184 1127.18,-483.152"/>
</g>
<!-- Node23 -->
<g id="node23" class="node"><title>Node23</title>
<g id="a_node23"><a xlink:href="../../d6/d34/classmodel_1_1_turtle.html#ae79a1eae7eed55d121c3b85299ae14ba" target="_top" xlink:title="model.Turtle.getID">
<polygon fill="white" stroke="black" points="1150,-257.5 1150,-276.5 1254,-276.5 1254,-257.5 1150,-257.5"/>
<text text-anchor="middle" x="1202" y="-264.5" font-family="Helvetica,sans-Serif" font-size="10.00">model.Turtle.getID</text>
</a>
</g>
</g>
<!-- Node22&#45;&gt;Node23 -->
<g id="edge24" class="edge"><title>Node22&#45;&gt;Node23</title>
<path fill="none" stroke="midnightblue" d="M1057.02,-312.987C1067.46,-309.988 1078.11,-306.63 1088,-303 1104.61,-296.901 1107.33,-291.927 1124,-286 1131.04,-283.499 1138.55,-281.205 1146.02,-279.142"/>
<polygon fill="midnightblue" stroke="midnightblue" points="1146.99,-282.504 1155.77,-276.566 1145.2,-275.736 1146.99,-282.504"/>
</g>
<!-- Node24 -->
<g id="node24" class="node"><title>Node24</title>
<g id="a_node24"><a xlink:href="../../d6/d34/classmodel_1_1_turtle.html#a279f2bdb3fa955acdd52b7824ec3cd04" target="_top" xlink:title="model.Turtle.getPenStatus">
<polygon fill="white" stroke="black" points="1130.5,-219.5 1130.5,-238.5 1273.5,-238.5 1273.5,-219.5 1130.5,-219.5"/>
<text text-anchor="middle" x="1202" y="-226.5" font-family="Helvetica,sans-Serif" font-size="10.00">model.Turtle.getPenStatus</text>
</a>
</g>
</g>
<!-- Node22&#45;&gt;Node24 -->
<g id="edge28" class="edge"><title>Node22&#45;&gt;Node24</title>
<path fill="none" stroke="midnightblue" d="M1070.8,-312.809C1076.89,-310.065 1082.72,-306.825 1088,-303 1111.66,-285.861 1100.16,-264.894 1124,-248 1126.84,-245.988 1129.87,-244.189 1133.02,-242.579"/>
<polygon fill="midnightblue" stroke="midnightblue" points="1134.45,-245.773 1142.18,-238.526 1131.62,-239.371 1134.45,-245.773"/>
</g>
<!-- Node26 -->
<g id="node26" class="node"><title>Node26</title>
<g id="a_node26"><a xlink:href="../../d7/da6/classview_1_1_turtle_draw.html#a1325ca376115619f15f5014eb4c5ad2a" target="_top" xlink:title="view.TurtleDraw.drawLine">
<polygon fill="white" stroke="black" points="1135.5,-181.5 1135.5,-200.5 1268.5,-200.5 1268.5,-181.5 1135.5,-181.5"/>
<text text-anchor="middle" x="1202" y="-188.5" font-family="Helvetica,sans-Serif" font-size="10.00">view.TurtleDraw.drawLine</text>
</a>
</g>
</g>
<!-- Node22&#45;&gt;Node26 -->
<g id="edge30" class="edge"><title>Node22&#45;&gt;Node26</title>
<path fill="none" stroke="midnightblue" d="M1073.98,-312.777C1079.03,-310.031 1083.77,-306.799 1088,-303 1120.97,-273.376 1090.73,-239.282 1124,-210 1125.76,-208.448 1127.63,-207.018 1129.59,-205.702"/>
<polygon fill="midnightblue" stroke="midnightblue" points="1131.63,-208.57 1138.64,-200.624 1128.2,-202.465 1131.63,-208.57"/>
</g>
<!-- Node27 -->
<g id="node27" class="node"><title>Node27</title>
<g id="a_node27"><a xlink:href="../../d6/d34/classmodel_1_1_turtle.html#a832234461564763f8330181b3c1163ff" target="_top" xlink:title="model.Turtle.getPrevLocation">
<polygon fill="white" stroke="black" points="1124.5,-447.5 1124.5,-466.5 1279.5,-466.5 1279.5,-447.5 1124.5,-447.5"/>
<text text-anchor="middle" x="1202" y="-454.5" font-family="Helvetica,sans-Serif" font-size="10.00">model.Turtle.getPrevLocation</text>
</a>
</g>
</g>
<!-- Node22&#45;&gt;Node27 -->
<g id="edge31" class="edge"><title>Node22&#45;&gt;Node27</title>
<path fill="none" stroke="midnightblue" d="M1075.18,-343.19C1079.77,-345.701 1084.09,-348.617 1088,-352 1119.33,-379.118 1092.53,-411.049 1124,-438 1125.97,-439.685 1128.06,-441.225 1130.25,-442.632"/>
<polygon fill="midnightblue" stroke="midnightblue" points="1128.67,-445.752 1139.13,-447.426 1131.99,-439.593 1128.67,-445.752"/>
</g>
<!-- Node28 -->
<g id="node28" class="node"><title>Node28</title>
<g id="a_node28"><a xlink:href="../../d6/d34/classmodel_1_1_turtle.html#a2470b9b4ef48a261324047de8ebdc242" target="_top" xlink:title="model.Turtle.getNewLocation">
<polygon fill="white" stroke="black" points="1124.5,-409.5 1124.5,-428.5 1279.5,-428.5 1279.5,-409.5 1124.5,-409.5"/>
<text text-anchor="middle" x="1202" y="-416.5" font-family="Helvetica,sans-Serif" font-size="10.00">model.Turtle.getNewLocation</text>
</a>
</g>
</g>
<!-- Node22&#45;&gt;Node28 -->
<g id="edge32" class="edge"><title>Node22&#45;&gt;Node28</title>
<path fill="none" stroke="midnightblue" d="M1071.48,-343.106C1077.29,-345.626 1082.87,-348.568 1088,-352 1110.16,-366.835 1101.76,-385.283 1124,-400 1127.11,-402.059 1130.43,-403.895 1133.87,-405.532"/>
<polygon fill="midnightblue" stroke="midnightblue" points="1132.64,-408.811 1143.22,-409.417 1135.32,-402.347 1132.64,-408.811"/>
</g>
<!-- Node29 -->
<g id="node29" class="node"><title>Node29</title>
<g id="a_node29"><a xlink:href="../../d6/d34/classmodel_1_1_turtle.html#a19c059b1cbfbd4e8f046ec2403de3fb9" target="_top" xlink:title="model.Turtle.getPenDash">
<polygon fill="white" stroke="black" points="1133.5,-371.5 1133.5,-390.5 1270.5,-390.5 1270.5,-371.5 1133.5,-371.5"/>
<text text-anchor="middle" x="1202" y="-378.5" font-family="Helvetica,sans-Serif" font-size="10.00">model.Turtle.getPenDash</text>
</a>
</g>
</g>
<!-- Node22&#45;&gt;Node29 -->
<g id="edge33" class="edge"><title>Node22&#45;&gt;Node29</title>
<path fill="none" stroke="midnightblue" d="M1054.08,-343.072C1065.35,-345.997 1077.05,-349.066 1088,-352 1104.04,-356.297 1107.94,-357.788 1124,-362 1132.9,-364.334 1142.4,-366.744 1151.58,-369.031"/>
<polygon fill="midnightblue" stroke="midnightblue" points="1150.83,-372.45 1161.38,-371.456 1152.51,-365.655 1150.83,-372.45"/>
</g>
<!-- Node31 -->
<g id="node31" class="node"><title>Node31</title>
<g id="a_node31"><a xlink:href="../../d6/d34/classmodel_1_1_turtle.html#a193c156784f783064ae533b619b6be6e" target="_top" xlink:title="model.Turtle.getPenColor">
<polygon fill="white" stroke="black" points="1133.5,-333.5 1133.5,-352.5 1270.5,-352.5 1270.5,-333.5 1133.5,-333.5"/>
<text text-anchor="middle" x="1202" y="-340.5" font-family="Helvetica,sans-Serif" font-size="10.00">model.Turtle.getPenColor</text>
</a>
</g>
</g>
<!-- Node22&#45;&gt;Node31 -->
<g id="edge35" class="edge"><title>Node22&#45;&gt;Node31</title>
<path fill="none" stroke="midnightblue" d="M1088.06,-334.776C1099.85,-335.635 1111.82,-336.506 1123.33,-337.345"/>
<polygon fill="midnightblue" stroke="midnightblue" points="1123.1,-340.837 1133.32,-338.072 1123.61,-333.855 1123.1,-340.837"/>
</g>
<!-- Node33 -->
<g id="node33" class="node"><title>Node33</title>
<g id="a_node33"><a xlink:href="../../d6/d34/classmodel_1_1_turtle.html#a1c5d07962ede5fbfacc59413274d4300" target="_top" xlink:title="model.Turtle.getHeading">
<polygon fill="white" stroke="black" points="1135,-295.5 1135,-314.5 1269,-314.5 1269,-295.5 1135,-295.5"/>
<text text-anchor="middle" x="1202" y="-302.5" font-family="Helvetica,sans-Serif" font-size="10.00">model.Turtle.getHeading</text>
</a>
</g>
</g>
<!-- Node22&#45;&gt;Node33 -->
<g id="edge38" class="edge"><title>Node22&#45;&gt;Node33</title>
<path fill="none" stroke="midnightblue" d="M1088.06,-317.61C1100.38,-316.234 1112.9,-314.836 1124.9,-313.496"/>
<polygon fill="midnightblue" stroke="midnightblue" points="1125.29,-316.975 1134.84,-312.387 1124.51,-310.018 1125.29,-316.975"/>
</g>
<!-- Node25 -->
<g id="node25" class="node"><title>Node25</title>
<g id="a_node25"><a xlink:href="../../de/ded/classmodel_1_1_pen.html#afad4fb3e51847cacab72c036ddaa108f" target="_top" xlink:title="model.Pen.getStatus">
<polygon fill="white" stroke="black" points="1344,-219.5 1344,-238.5 1462,-238.5 1462,-219.5 1344,-219.5"/>
<text text-anchor="middle" x="1403" y="-226.5" font-family="Helvetica,sans-Serif" font-size="10.00">model.Pen.getStatus</text>
</a>
</g>
</g>
<!-- Node24&#45;&gt;Node25 -->
<g id="edge29" class="edge"><title>Node24&#45;&gt;Node25</title>
<path fill="none" stroke="midnightblue" d="M1273.72,-229C1293.23,-229 1314.35,-229 1333.72,-229"/>
<polygon fill="midnightblue" stroke="midnightblue" points="1333.97,-232.5 1343.97,-229 1333.97,-225.5 1333.97,-232.5"/>
</g>
<!-- Node30 -->
<g id="node30" class="node"><title>Node30</title>
<g id="a_node30"><a xlink:href="../../de/ded/classmodel_1_1_pen.html#a6999f4af56377415621f193ef8600e27" target="_top" xlink:title="model.Pen.getDash">
<polygon fill="white" stroke="black" points="1347.5,-371.5 1347.5,-390.5 1458.5,-390.5 1458.5,-371.5 1347.5,-371.5"/>
<text text-anchor="middle" x="1403" y="-378.5" font-family="Helvetica,sans-Serif" font-size="10.00">model.Pen.getDash</text>
</a>
</g>
</g>
<!-- Node29&#45;&gt;Node30 -->
<g id="edge34" class="edge"><title>Node29&#45;&gt;Node30</title>
<path fill="none" stroke="midnightblue" d="M1270.65,-381C1292.15,-381 1315.86,-381 1337.15,-381"/>
<polygon fill="midnightblue" stroke="midnightblue" points="1337.39,-384.5 1347.39,-381 1337.39,-377.5 1337.39,-384.5"/>
</g>
<!-- Node32 -->
<g id="node32" class="node"><title>Node32</title>
<g id="a_node32"><a xlink:href="../../de/ded/classmodel_1_1_pen.html#a704af31474b10d17caf40773b7971826" target="_top" xlink:title="model.Pen.getPenColor">
<polygon fill="white" stroke="black" points="1338.5,-333.5 1338.5,-352.5 1467.5,-352.5 1467.5,-333.5 1338.5,-333.5"/>
<text text-anchor="middle" x="1403" y="-340.5" font-family="Helvetica,sans-Serif" font-size="10.00">model.Pen.getPenColor</text>
</a>
</g>
</g>
<!-- Node31&#45;&gt;Node32 -->
<g id="edge36" class="edge"><title>Node31&#45;&gt;Node32</title>
<path fill="none" stroke="midnightblue" d="M1270.65,-343C1289.18,-343 1309.36,-343 1328.21,-343"/>
<polygon fill="midnightblue" stroke="midnightblue" points="1328.23,-346.5 1338.23,-343 1328.23,-339.5 1328.23,-346.5"/>
</g>
</g>
</svg>
