<?xml version="1.0" encoding="UTF-8" standalone="no"?>
<!DOCTYPE svg PUBLIC "-//W3C//DTD SVG 1.1//EN"
 "http://www.w3.org/Graphics/SVG/1.1/DTD/svg11.dtd">
<!-- Generated by graphviz version 2.36.0 (20140111.2315)
 -->
<!-- Title: commands.RemainderCommand.executeCommand Pages: 1 -->
<svg width="1520pt" height="513pt"
 viewBox="0.00 0.00 1520.00 513.00" xmlns="http://www.w3.org/2000/svg" xmlns:xlink="http://www.w3.org/1999/xlink">
<g id="graph0" class="graph" transform="scale(1 1) rotate(0) translate(4 509)">
<title>commands.RemainderCommand.executeCommand</title>
<polygon fill="white" stroke="none" points="-4,4 -4,-509 1516,-509 1516,4 -4,4"/>
<!-- Node1 -->
<g id="node1" class="node"><title>Node1</title>
<polygon fill="#bfbfbf" stroke="black" points="0,-387 0,-417 216,-417 216,-387 0,-387"/>
<text text-anchor="start" x="8" y="-405" font-family="Helvetica,sans-Serif" font-size="10.00">commands.RemainderCommand.execute</text>
<text text-anchor="middle" x="108" y="-394" font-family="Helvetica,sans-Serif" font-size="10.00">Command</text>
</g>
<!-- Node2 -->
<g id="node2" class="node"><title>Node2</title>
<g id="a_node2"><a xlink:href="../../dd/dd6/classcommands_1_1_command.html#abafa69601e87c34d4453cf84349d6f9c" target="_top" xlink:title="commands.Command.execute\lCommand">
<polygon fill="white" stroke="black" points="252.5,-387 252.5,-417 417.5,-417 417.5,-387 252.5,-387"/>
<text text-anchor="start" x="260.5" y="-405" font-family="Helvetica,sans-Serif" font-size="10.00">commands.Command.execute</text>
<text text-anchor="middle" x="335" y="-394" font-family="Helvetica,sans-Serif" font-size="10.00">Command</text>
</a>
</g>
</g>
<!-- Node1&#45;&gt;Node2 -->
<g id="edge1" class="edge"><title>Node1&#45;&gt;Node2</title>
<path fill="none" stroke="midnightblue" d="M216.228,-402C224.838,-402 233.49,-402 241.98,-402"/>
<polygon fill="midnightblue" stroke="midnightblue" points="242.243,-405.5 252.243,-402 242.243,-398.5 242.243,-405.5"/>
</g>
<!-- Node3 -->
<g id="node3" class="node"><title>Node3</title>
<g id="a_node3"><a xlink:href="../../df/d50/classmodel_1_1_turtle_set_manager.html#a9a65c0be3b9c21abaf0ebaa54e5b8484" target="_top" xlink:title="model.TurtleSetManager.get\lActiveTurtles">
<polygon fill="white" stroke="black" points="940,-450 940,-480 1092,-480 1092,-450 940,-450"/>
<text text-anchor="start" x="948" y="-468" font-family="Helvetica,sans-Serif" font-size="10.00">model.TurtleSetManager.get</text>
<text text-anchor="middle" x="1016" y="-457" font-family="Helvetica,sans-Serif" font-size="10.00">ActiveTurtles</text>
</a>
</g>
</g>
<!-- Node2&#45;&gt;Node3 -->
<g id="edge2" class="edge"><title>Node2&#45;&gt;Node3</title>
<path fill="none" stroke="midnightblue" d="M417.745,-416.85C429.874,-418.764 442.245,-420.556 454,-422 622.057,-442.639 819.732,-455.043 929.866,-460.901"/>
<polygon fill="midnightblue" stroke="midnightblue" points="929.751,-464.4 939.921,-461.431 930.119,-457.409 929.751,-464.4"/>
</g>
<!-- Node4 -->
<g id="node4" class="node"><title>Node4</title>
<g id="a_node4"><a xlink:href="../../d3/d42/classmodel_1_1_model.html#a1a683ba5e58fcb3c8882c8e61df20dc0" target="_top" xlink:title="model.Model.getTurtleManager">
<polygon fill="white" stroke="black" points="934,-411.5 934,-430.5 1098,-430.5 1098,-411.5 934,-411.5"/>
<text text-anchor="middle" x="1016" y="-418.5" font-family="Helvetica,sans-Serif" font-size="10.00">model.Model.getTurtleManager</text>
</a>
</g>
</g>
<!-- Node2&#45;&gt;Node4 -->
<g id="edge3" class="edge"><title>Node2&#45;&gt;Node4</title>
<path fill="none" stroke="midnightblue" d="M417.566,-404.282C544.974,-407.848 790.389,-414.715 923.592,-418.442"/>
<polygon fill="midnightblue" stroke="midnightblue" points="923.676,-421.946 933.771,-418.727 923.872,-414.949 923.676,-421.946"/>
</g>
<!-- Node5 -->
<g id="node5" class="node"><title>Node5</title>
<g id="a_node5"><a xlink:href="../../d3/d42/classmodel_1_1_model.html#a76160d002c1e68b566307ac44356f6e5" target="_top" xlink:title="model.Model.notifyView">
<polygon fill="white" stroke="black" points="482.5,-373.5 482.5,-392.5 611.5,-392.5 611.5,-373.5 482.5,-373.5"/>
<text text-anchor="middle" x="547" y="-380.5" font-family="Helvetica,sans-Serif" font-size="10.00">model.Model.notifyView</text>
</a>
</g>
</g>
<!-- Node2&#45;&gt;Node5 -->
<g id="edge4" class="edge"><title>Node2&#45;&gt;Node5</title>
<path fill="none" stroke="midnightblue" d="M417.793,-394.6C435.699,-392.98 454.553,-391.274 472.128,-389.684"/>
<polygon fill="midnightblue" stroke="midnightblue" points="472.668,-393.149 482.312,-388.762 472.037,-386.178 472.668,-393.149"/>
</g>
<!-- Node34 -->
<g id="node34" class="node"><title>Node34</title>
<g id="a_node34"><a xlink:href="../../dd/dd6/classcommands_1_1_command.html#aec3e0f888945b1811fd739ecea212324" target="_top" xlink:title="commands.Command.updateTurtle">
<polygon fill="white" stroke="black" points="454,-335.5 454,-354.5 640,-354.5 640,-335.5 454,-335.5"/>
<text text-anchor="middle" x="547" y="-342.5" font-family="Helvetica,sans-Serif" font-size="10.00">commands.Command.updateTurtle</text>
</a>
</g>
</g>
<!-- Node2&#45;&gt;Node34 -->
<g id="edge40" class="edge"><title>Node2&#45;&gt;Node34</title>
<path fill="none" stroke="midnightblue" d="M378.826,-386.978C401.079,-379.487 428.817,-370.634 454,-364 463.92,-361.387 474.519,-358.91 484.865,-356.662"/>
<polygon fill="midnightblue" stroke="midnightblue" points="485.621,-360.079 494.675,-354.579 484.167,-353.232 485.621,-360.079"/>
</g>
<!-- Node6 -->
<g id="node6" class="node"><title>Node6</title>
<g id="a_node6"><a xlink:href="../../db/db5/classview_1_1panes_1_1_view_pane_module.html#aa2a1bf15bc036ee4237bf63749d85baf" target="_top" xlink:title="view.panes.ViewPaneModule.updateView">
<polygon fill="white" stroke="black" points="676.5,-244.5 676.5,-263.5 885.5,-263.5 885.5,-244.5 676.5,-244.5"/>
<text text-anchor="middle" x="781" y="-251.5" font-family="Helvetica,sans-Serif" font-size="10.00">view.panes.ViewPaneModule.updateView</text>
</a>
</g>
</g>
<!-- Node5&#45;&gt;Node6 -->
<g id="edge5" class="edge"><title>Node5&#45;&gt;Node6</title>
<path fill="none" stroke="midnightblue" d="M611.601,-373.891C621.356,-371.356 631.125,-368.122 640,-364 690.593,-340.501 739.429,-295.468 763.843,-270.94"/>
<polygon fill="midnightblue" stroke="midnightblue" points="766.387,-273.344 770.882,-263.75 761.385,-268.447 766.387,-273.344"/>
</g>
<!-- Node6&#45;&gt;Node3 -->
<g id="edge10" class="edge"><title>Node6&#45;&gt;Node3</title>
<path fill="none" stroke="midnightblue" d="M786.485,-263.902C801.117,-295.048 850.663,-391.812 922,-440 924.929,-441.978 928.008,-443.801 931.193,-445.479"/>
<polygon fill="midnightblue" stroke="midnightblue" points="929.875,-448.727 940.412,-449.838 932.867,-442.399 929.875,-448.727"/>
</g>
<!-- Node6&#45;&gt;Node4 -->
<g id="edge9" class="edge"><title>Node6&#45;&gt;Node4</title>
<path fill="none" stroke="midnightblue" d="M788.175,-263.786C805.598,-290.518 858.052,-365.162 922,-401 926.862,-403.725 932.059,-406.079 937.417,-408.113"/>
<polygon fill="midnightblue" stroke="midnightblue" points="936.605,-411.533 947.2,-411.438 938.858,-404.906 936.605,-411.533"/>
</g>
<!-- Node7 -->
<g id="node7" class="node"><title>Node7</title>
<g id="a_node7"><a xlink:href="../../d3/d42/classmodel_1_1_model.html#a54936407d7df5ab8ef3c0ae54bcdc0ed" target="_top" xlink:title="model.Model.getBackground\lColor">
<polygon fill="white" stroke="black" points="939,-264 939,-294 1093,-294 1093,-264 939,-264"/>
<text text-anchor="start" x="947" y="-282" font-family="Helvetica,sans-Serif" font-size="10.00">model.Model.getBackground</text>
<text text-anchor="middle" x="1016" y="-271" font-family="Helvetica,sans-Serif" font-size="10.00">Color</text>
</a>
</g>
</g>
<!-- Node6&#45;&gt;Node7 -->
<g id="edge6" class="edge"><title>Node6&#45;&gt;Node7</title>
<path fill="none" stroke="midnightblue" d="M870.752,-263.523C889.72,-265.558 909.73,-267.705 928.608,-269.73"/>
<polygon fill="midnightblue" stroke="midnightblue" points="928.348,-273.223 938.664,-270.809 929.095,-266.263 928.348,-273.223"/>
</g>
<!-- Node8 -->
<g id="node8" class="node"><title>Node8</title>
<g id="a_node8"><a xlink:href="../../db/db5/classview_1_1panes_1_1_view_pane_module.html#ac94ee444587349ddad19b8caee500c9c" target="_top" xlink:title="view.panes.ViewPaneModule.update\lBGColor">
<polygon fill="white" stroke="black" points="922,-215 922,-245 1110,-245 1110,-215 922,-215"/>
<text text-anchor="start" x="930" y="-233" font-family="Helvetica,sans-Serif" font-size="10.00">view.panes.ViewPaneModule.update</text>
<text text-anchor="middle" x="1016" y="-222" font-family="Helvetica,sans-Serif" font-size="10.00">BGColor</text>
</a>
</g>
</g>
<!-- Node6&#45;&gt;Node8 -->
<g id="edge7" class="edge"><title>Node6&#45;&gt;Node8</title>
<path fill="none" stroke="midnightblue" d="M874.422,-244.48C886.754,-243.21 899.461,-241.901 911.96,-240.614"/>
<polygon fill="midnightblue" stroke="midnightblue" points="912.338,-244.093 921.927,-239.587 911.621,-237.13 912.338,-244.093"/>
</g>
<!-- Node9 -->
<g id="node9" class="node"><title>Node9</title>
<g id="a_node9"><a xlink:href="../../db/db5/classview_1_1panes_1_1_view_pane_module.html#abe91f8bb732e99d762bdaba51ceae04b" target="_top" xlink:title="view.panes.ViewPaneModule.toRGB">
<polygon fill="white" stroke="black" points="924,-176.5 924,-195.5 1108,-195.5 1108,-176.5 924,-176.5"/>
<text text-anchor="middle" x="1016" y="-183.5" font-family="Helvetica,sans-Serif" font-size="10.00">view.panes.ViewPaneModule.toRGB</text>
</a>
</g>
</g>
<!-- Node6&#45;&gt;Node9 -->
<g id="edge8" class="edge"><title>Node6&#45;&gt;Node9</title>
<path fill="none" stroke="midnightblue" d="M805.966,-244.496C833.597,-233.802 880.543,-216.433 922,-205 931.651,-202.338 941.959,-199.87 952.068,-197.653"/>
<polygon fill="midnightblue" stroke="midnightblue" points="953.027,-201.027 962.079,-195.522 951.57,-194.181 953.027,-201.027"/>
</g>
<!-- Node10 -->
<g id="node10" class="node"><title>Node10</title>
<g id="a_node10"><a xlink:href="../../df/d50/classmodel_1_1_turtle_set_manager.html#a9e215e93eccbed2ab9ebec6119cfe305" target="_top" xlink:title="model.TurtleSetManager.get\lAllTurtles">
<polygon fill="white" stroke="black" points="940,-127 940,-157 1092,-157 1092,-127 940,-127"/>
<text text-anchor="start" x="948" y="-145" font-family="Helvetica,sans-Serif" font-size="10.00">model.TurtleSetManager.get</text>
<text text-anchor="middle" x="1016" y="-134" font-family="Helvetica,sans-Serif" font-size="10.00">AllTurtles</text>
</a>
</g>
</g>
<!-- Node6&#45;&gt;Node10 -->
<g id="edge11" class="edge"><title>Node6&#45;&gt;Node10</title>
<path fill="none" stroke="midnightblue" d="M794.796,-244.229C818.605,-226.475 871.858,-188.753 922,-167 927.637,-164.555 933.572,-162.296 939.603,-160.221"/>
<polygon fill="midnightblue" stroke="midnightblue" points="940.71,-163.542 949.131,-157.112 938.539,-156.887 940.71,-163.542"/>
</g>
<!-- Node11 -->
<g id="node11" class="node"><title>Node11</title>
<g id="a_node11"><a xlink:href="../../d3/d42/classmodel_1_1_model.html#af73e838aed2c068e8f7d31bfa1cc88d7" target="_top" xlink:title="model.Model.getStamp">
<polygon fill="white" stroke="black" points="951.5,-88.5 951.5,-107.5 1080.5,-107.5 1080.5,-88.5 951.5,-88.5"/>
<text text-anchor="middle" x="1016" y="-95.5" font-family="Helvetica,sans-Serif" font-size="10.00">model.Model.getStamp</text>
</a>
</g>
</g>
<!-- Node6&#45;&gt;Node11 -->
<g id="edge12" class="edge"><title>Node6&#45;&gt;Node11</title>
<path fill="none" stroke="midnightblue" d="M788.59,-244.492C806.663,-219.21 859.824,-150.008 922,-117 928.063,-113.781 934.616,-111.107 941.338,-108.885"/>
<polygon fill="midnightblue" stroke="midnightblue" points="942.676,-112.139 951.27,-105.943 940.688,-105.427 942.676,-112.139"/>
</g>
<!-- Node12 -->
<g id="node12" class="node"><title>Node12</title>
<g id="a_node12"><a xlink:href="../../db/db5/classview_1_1panes_1_1_view_pane_module.html#a44db6ae832af3ce470baa9406142b8cb" target="_top" xlink:title="view.panes.ViewPaneModule.make\lStamps">
<polygon fill="white" stroke="black" points="925.5,-39 925.5,-69 1106.5,-69 1106.5,-39 925.5,-39"/>
<text text-anchor="start" x="933.5" y="-57" font-family="Helvetica,sans-Serif" font-size="10.00">view.panes.ViewPaneModule.make</text>
<text text-anchor="middle" x="1016" y="-46" font-family="Helvetica,sans-Serif" font-size="10.00">Stamps</text>
</a>
</g>
</g>
<!-- Node6&#45;&gt;Node12 -->
<g id="edge13" class="edge"><title>Node6&#45;&gt;Node12</title>
<path fill="none" stroke="midnightblue" d="M786.868,-244.27C802.262,-214.536 852.974,-124.158 922,-79 925.122,-76.9577 928.406,-75.0815 931.8,-73.358"/>
<polygon fill="midnightblue" stroke="midnightblue" points="933.372,-76.488 941.007,-69.143 930.458,-70.1233 933.372,-76.488"/>
</g>
<!-- Node19 -->
<g id="node19" class="node"><title>Node19</title>
<g id="a_node19"><a xlink:href="../../d3/d42/classmodel_1_1_model.html#a0a457f31350a460e11dc864463e0d8ff" target="_top" xlink:title="model.Model.setStamp">
<polygon fill="white" stroke="black" points="952,-0.5 952,-19.5 1080,-19.5 1080,-0.5 952,-0.5"/>
<text text-anchor="middle" x="1016" y="-7.5" font-family="Helvetica,sans-Serif" font-size="10.00">model.Model.setStamp</text>
</a>
</g>
</g>
<!-- Node6&#45;&gt;Node19 -->
<g id="edge20" class="edge"><title>Node6&#45;&gt;Node19</title>
<path fill="none" stroke="midnightblue" d="M784.896,-244.385C796.036,-209.166 839.671,-86.28 922,-29 928.045,-24.7942 934.814,-21.4778 941.869,-18.8684"/>
<polygon fill="midnightblue" stroke="midnightblue" points="943.177,-22.1242 951.626,-15.7312 941.034,-15.4602 943.177,-22.1242"/>
</g>
<!-- Node20 -->
<g id="node20" class="node"><title>Node20</title>
<g id="a_node20"><a xlink:href="../../db/db5/classview_1_1panes_1_1_view_pane_module.html#a7ad9ad27137ffdf0ea96753a22da236b" target="_top" xlink:title="view.panes.ViewPaneModule.erase\lStamps">
<polygon fill="white" stroke="black" points="925.5,-362 925.5,-392 1106.5,-392 1106.5,-362 925.5,-362"/>
<text text-anchor="start" x="933.5" y="-380" font-family="Helvetica,sans-Serif" font-size="10.00">view.panes.ViewPaneModule.erase</text>
<text text-anchor="middle" x="1016" y="-369" font-family="Helvetica,sans-Serif" font-size="10.00">Stamps</text>
</a>
</g>
</g>
<!-- Node6&#45;&gt;Node20 -->
<g id="edge21" class="edge"><title>Node6&#45;&gt;Node20</title>
<path fill="none" stroke="midnightblue" d="M792.783,-263.574C815.234,-283.026 869.306,-327.407 922,-352 927.241,-354.446 932.764,-356.688 938.397,-358.735"/>
<polygon fill="midnightblue" stroke="midnightblue" points="937.355,-362.078 947.949,-362 939.619,-355.454 937.355,-362.078"/>
</g>
<!-- Node22 -->
<g id="node22" class="node"><title>Node22</title>
<g id="a_node22"><a xlink:href="../../db/db5/classview_1_1panes_1_1_view_pane_module.html#ab55ce3511929b88a2cd1235eb694868f" target="_top" xlink:title="view.panes.ViewPaneModule.update\lTurtle">
<polygon fill="white" stroke="black" points="922,-313 922,-343 1110,-343 1110,-313 922,-313"/>
<text text-anchor="start" x="930" y="-331" font-family="Helvetica,sans-Serif" font-size="10.00">view.panes.ViewPaneModule.update</text>
<text text-anchor="middle" x="1016" y="-320" font-family="Helvetica,sans-Serif" font-size="10.00">Turtle</text>
</a>
</g>
</g>
<!-- Node6&#45;&gt;Node22 -->
<g id="edge23" class="edge"><title>Node6&#45;&gt;Node22</title>
<path fill="none" stroke="midnightblue" d="M807.359,-263.512C835.261,-273.829 881.527,-290.496 922,-303 929.922,-305.447 938.265,-307.885 946.568,-310.224"/>
<polygon fill="midnightblue" stroke="midnightblue" points="945.698,-313.615 956.27,-312.92 947.572,-306.871 945.698,-313.615"/>
</g>
<!-- Node13 -->
<g id="node13" class="node"><title>Node13</title>
<g id="a_node13"><a xlink:href="../../d7/da6/classview_1_1_turtle_draw.html#a939f4fdbdb66457c9dcee82eb4ae6d9c" target="_top" xlink:title="view.TurtleDraw.drawTurtle">
<polygon fill="white" stroke="black" points="1154.5,-67.5 1154.5,-86.5 1293.5,-86.5 1293.5,-67.5 1154.5,-67.5"/>
<text text-anchor="middle" x="1224" y="-74.5" font-family="Helvetica,sans-Serif" font-size="10.00">view.TurtleDraw.drawTurtle</text>
</a>
</g>
</g>
<!-- Node12&#45;&gt;Node13 -->
<g id="edge14" class="edge"><title>Node12&#45;&gt;Node13</title>
<path fill="none" stroke="midnightblue" d="M1106.76,-64.0212C1119.21,-65.4115 1131.92,-66.831 1144.15,-68.1968"/>
<polygon fill="midnightblue" stroke="midnightblue" points="1143.97,-71.6983 1154.3,-69.3296 1144.75,-64.7415 1143.97,-71.6983"/>
</g>
<!-- Node16 -->
<g id="node16" class="node"><title>Node16</title>
<g id="a_node16"><a xlink:href="../../d7/da6/classview_1_1_turtle_draw.html#a14678068d3fc9d3b6e1067bc372f6030" target="_top" xlink:title="view.TurtleDraw.showTurtle">
<polygon fill="white" stroke="black" points="1154,-29.5 1154,-48.5 1294,-48.5 1294,-29.5 1154,-29.5"/>
<text text-anchor="middle" x="1224" y="-36.5" font-family="Helvetica,sans-Serif" font-size="10.00">view.TurtleDraw.showTurtle</text>
</a>
</g>
</g>
<!-- Node12&#45;&gt;Node16 -->
<g id="edge17" class="edge"><title>Node12&#45;&gt;Node16</title>
<path fill="none" stroke="midnightblue" d="M1106.76,-47.4644C1119.12,-46.5639 1131.75,-45.6445 1143.9,-44.7594"/>
<polygon fill="midnightblue" stroke="midnightblue" points="1144.27,-48.2422 1153.99,-44.0251 1143.76,-41.2607 1144.27,-48.2422"/>
</g>
<!-- Node17 -->
<g id="node17" class="node"><title>Node17</title>
<g id="a_node17"><a xlink:href="../../d7/da6/classview_1_1_turtle_draw.html#a8c2cab38eb294b26aea1ae17595ba2a6" target="_top" xlink:title="view.TurtleDraw.moveTurtle">
<polygon fill="white" stroke="black" points="1152.5,-143.5 1152.5,-162.5 1295.5,-162.5 1295.5,-143.5 1152.5,-143.5"/>
<text text-anchor="middle" x="1224" y="-150.5" font-family="Helvetica,sans-Serif" font-size="10.00">view.TurtleDraw.moveTurtle</text>
</a>
</g>
</g>
<!-- Node12&#45;&gt;Node17 -->
<g id="edge18" class="edge"><title>Node12&#45;&gt;Node17</title>
<path fill="none" stroke="midnightblue" d="M1092.8,-69.1906C1098.89,-71.9348 1104.72,-75.1748 1110,-79 1133.66,-96.1392 1122.16,-117.106 1146,-134 1148.84,-136.012 1151.87,-137.811 1155.02,-139.421"/>
<polygon fill="midnightblue" stroke="midnightblue" points="1153.62,-142.629 1164.18,-143.474 1156.45,-136.227 1153.62,-142.629"/>
</g>
<!-- Node18 -->
<g id="node18" class="node"><title>Node18</title>
<g id="a_node18"><a xlink:href="../../d7/da6/classview_1_1_turtle_draw.html#a5004a16526a67f090d7da45474b5136e" target="_top" xlink:title="view.TurtleDraw.setAngle">
<polygon fill="white" stroke="black" points="1157.5,-105.5 1157.5,-124.5 1290.5,-124.5 1290.5,-105.5 1157.5,-105.5"/>
<text text-anchor="middle" x="1224" y="-112.5" font-family="Helvetica,sans-Serif" font-size="10.00">view.TurtleDraw.setAngle</text>
</a>
</g>
</g>
<!-- Node12&#45;&gt;Node18 -->
<g id="edge19" class="edge"><title>Node12&#45;&gt;Node18</title>
<path fill="none" stroke="midnightblue" d="M1079.02,-69.0126C1089.46,-72.0119 1100.11,-75.3695 1110,-79 1126.61,-85.0988 1129.33,-90.0733 1146,-96 1153.04,-98.5012 1160.55,-100.795 1168.02,-102.858"/>
<polygon fill="midnightblue" stroke="midnightblue" points="1167.2,-106.264 1177.77,-105.434 1168.99,-99.4958 1167.2,-106.264"/>
</g>
<!-- Node14 -->
<g id="node14" class="node"><title>Node14</title>
<g id="a_node14"><a xlink:href="../../d6/d34/classmodel_1_1_turtle.html#a942dbeb1d7e2bc19b6870538c2c3a7d2" target="_top" xlink:title="model.Turtle.getShape">
<polygon fill="white" stroke="black" points="1362.5,-89.5 1362.5,-108.5 1487.5,-108.5 1487.5,-89.5 1362.5,-89.5"/>
<text text-anchor="middle" x="1425" y="-96.5" font-family="Helvetica,sans-Serif" font-size="10.00">model.Turtle.getShape</text>
</a>
</g>
</g>
<!-- Node13&#45;&gt;Node14 -->
<g id="edge15" class="edge"><title>Node13&#45;&gt;Node14</title>
<path fill="none" stroke="midnightblue" d="M1293.76,-84.602C1312.62,-86.6865 1333.11,-88.9515 1352.13,-91.0547"/>
<polygon fill="midnightblue" stroke="midnightblue" points="1351.91,-94.5509 1362.23,-92.1711 1352.67,-87.5933 1351.91,-94.5509"/>
</g>
<!-- Node15 -->
<g id="node15" class="node"><title>Node15</title>
<g id="a_node15"><a xlink:href="../../d3/db7/classview_1_1controllers_1_1_image_palette.html#a8a6620714bc12d5a00b97e99299a7040" target="_top" xlink:title="view.controllers.ImagePalette.get\lImage">
<polygon fill="white" stroke="black" points="1338,-40 1338,-70 1512,-70 1512,-40 1338,-40"/>
<text text-anchor="start" x="1346" y="-58" font-family="Helvetica,sans-Serif" font-size="10.00">view.controllers.ImagePalette.get</text>
<text text-anchor="middle" x="1425" y="-47" font-family="Helvetica,sans-Serif" font-size="10.00">Image</text>
</a>
</g>
</g>
<!-- Node13&#45;&gt;Node15 -->
<g id="edge16" class="edge"><title>Node13&#45;&gt;Node15</title>
<path fill="none" stroke="midnightblue" d="M1293.76,-69.398C1304.71,-68.1877 1316.21,-66.9165 1327.65,-65.6514"/>
<polygon fill="midnightblue" stroke="midnightblue" points="1328.13,-69.1206 1337.68,-64.5429 1327.36,-62.163 1328.13,-69.1206"/>
</g>
<!-- Node21 -->
<g id="node21" class="node"><title>Node21</title>
<g id="a_node21"><a xlink:href="../../d7/da6/classview_1_1_turtle_draw.html#acb97dedda080cb5ed17031d2b31adc2c" target="_top" xlink:title="view.TurtleDraw.hideTurtle">
<polygon fill="white" stroke="black" points="1155.5,-485.5 1155.5,-504.5 1292.5,-504.5 1292.5,-485.5 1155.5,-485.5"/>
<text text-anchor="middle" x="1224" y="-492.5" font-family="Helvetica,sans-Serif" font-size="10.00">view.TurtleDraw.hideTurtle</text>
</a>
</g>
</g>
<!-- Node20&#45;&gt;Node21 -->
<g id="edge22" class="edge"><title>Node20&#45;&gt;Node21</title>
<path fill="none" stroke="midnightblue" d="M1094.72,-392.164C1100.18,-394.918 1105.36,-398.167 1110,-402 1138.2,-425.29 1117.56,-453.003 1146,-476 1148.26,-477.826 1150.67,-479.48 1153.19,-480.979"/>
<polygon fill="midnightblue" stroke="midnightblue" points="1151.62,-484.107 1162.12,-485.495 1154.77,-477.86 1151.62,-484.107"/>
</g>
<!-- Node22&#45;&gt;Node13 -->
<g id="edge25" class="edge"><title>Node22&#45;&gt;Node13</title>
<path fill="none" stroke="midnightblue" d="M1098.14,-312.879C1102.49,-310.093 1106.5,-306.827 1110,-303 1172.98,-234.053 1082.31,-164.292 1146,-96 1147.23,-94.6847 1148.53,-93.4541 1149.9,-92.303"/>
<polygon fill="midnightblue" stroke="midnightblue" points="1152.06,-95.0665 1158.35,-86.544 1148.11,-89.2813 1152.06,-95.0665"/>
</g>
<!-- Node22&#45;&gt;Node16 -->
<g id="edge26" class="edge"><title>Node22&#45;&gt;Node16</title>
<path fill="none" stroke="midnightblue" d="M1098.26,-312.985C1102.58,-310.173 1106.56,-306.872 1110,-303 1183.15,-220.771 1072,-139.468 1146,-58 1147.07,-56.8215 1148.2,-55.7107 1149.38,-54.6639"/>
<polygon fill="midnightblue" stroke="midnightblue" points="1151.74,-57.2816 1157.88,-48.6446 1147.7,-51.5698 1151.74,-57.2816"/>
</g>
<!-- Node22&#45;&gt;Node17 -->
<g id="edge39" class="edge"><title>Node22&#45;&gt;Node17</title>
<path fill="none" stroke="midnightblue" d="M1096.86,-312.995C1101.64,-310.193 1106.09,-306.89 1110,-303 1152.81,-260.424 1102.75,-214.131 1146,-172 1147.48,-170.559 1149.05,-169.221 1150.7,-167.98"/>
<polygon fill="midnightblue" stroke="midnightblue" points="1152.82,-170.784 1159.48,-162.546 1149.13,-164.832 1152.82,-170.784"/>
</g>
<!-- Node22&#45;&gt;Node18 -->
<g id="edge37" class="edge"><title>Node22&#45;&gt;Node18</title>
<path fill="none" stroke="midnightblue" d="M1097.55,-312.99C1102.1,-310.183 1106.32,-306.881 1110,-303 1162.85,-247.284 1092.57,-189.166 1146,-134 1147.25,-132.708 1148.58,-131.498 1149.96,-130.366"/>
<polygon fill="midnightblue" stroke="midnightblue" points="1152.11,-133.14 1158.5,-124.692 1148.24,-127.309 1152.11,-133.14"/>
</g>
<!-- Node22&#45;&gt;Node21 -->
<g id="edge27" class="edge"><title>Node22&#45;&gt;Node21</title>
<path fill="none" stroke="midnightblue" d="M1098.5,-343.202C1102.65,-345.72 1106.53,-348.632 1110,-352 1151.18,-391.965 1104.61,-436.254 1146,-476 1147.49,-477.43 1149.07,-478.759 1150.72,-479.991"/>
<polygon fill="midnightblue" stroke="midnightblue" points="1149.18,-483.152 1159.54,-485.394 1152.84,-477.184 1149.18,-483.152"/>
</g>
<!-- Node23 -->
<g id="node23" class="node"><title>Node23</title>
<g id="a_node23"><a xlink:href="../../d6/d34/classmodel_1_1_turtle.html#ae79a1eae7eed55d121c3b85299ae14ba" target="_top" xlink:title="model.Turtle.getID">
<polygon fill="white" stroke="black" points="1172,-257.5 1172,-276.5 1276,-276.5 1276,-257.5 1172,-257.5"/>
<text text-anchor="middle" x="1224" y="-264.5" font-family="Helvetica,sans-Serif" font-size="10.00">model.Turtle.getID</text>
</a>
</g>
</g>
<!-- Node22&#45;&gt;Node23 -->
<g id="edge24" class="edge"><title>Node22&#45;&gt;Node23</title>
<path fill="none" stroke="midnightblue" d="M1079.02,-312.987C1089.46,-309.988 1100.11,-306.63 1110,-303 1126.61,-296.901 1129.33,-291.927 1146,-286 1153.04,-283.499 1160.55,-281.205 1168.02,-279.142"/>
<polygon fill="midnightblue" stroke="midnightblue" points="1168.99,-282.504 1177.77,-276.566 1167.2,-275.736 1168.99,-282.504"/>
</g>
<!-- Node24 -->
<g id="node24" class="node"><title>Node24</title>
<g id="a_node24"><a xlink:href="../../d6/d34/classmodel_1_1_turtle.html#a279f2bdb3fa955acdd52b7824ec3cd04" target="_top" xlink:title="model.Turtle.getPenStatus">
<polygon fill="white" stroke="black" points="1152.5,-219.5 1152.5,-238.5 1295.5,-238.5 1295.5,-219.5 1152.5,-219.5"/>
<text text-anchor="middle" x="1224" y="-226.5" font-family="Helvetica,sans-Serif" font-size="10.00">model.Turtle.getPenStatus</text>
</a>
</g>
</g>
<!-- Node22&#45;&gt;Node24 -->
<g id="edge28" class="edge"><title>Node22&#45;&gt;Node24</title>
<path fill="none" stroke="midnightblue" d="M1092.8,-312.809C1098.89,-310.065 1104.72,-306.825 1110,-303 1133.66,-285.861 1122.16,-264.894 1146,-248 1148.84,-245.988 1151.87,-244.189 1155.02,-242.579"/>
<polygon fill="midnightblue" stroke="midnightblue" points="1156.45,-245.773 1164.18,-238.526 1153.62,-239.371 1156.45,-245.773"/>
</g>
<!-- Node26 -->
<g id="node26" class="node"><title>Node26</title>
<g id="a_node26"><a xlink:href="../../d7/da6/classview_1_1_turtle_draw.html#a1325ca376115619f15f5014eb4c5ad2a" target="_top" xlink:title="view.TurtleDraw.drawLine">
<polygon fill="white" stroke="black" points="1157.5,-181.5 1157.5,-200.5 1290.5,-200.5 1290.5,-181.5 1157.5,-181.5"/>
<text text-anchor="middle" x="1224" y="-188.5" font-family="Helvetica,sans-Serif" font-size="10.00">view.TurtleDraw.drawLine</text>
</a>
</g>
</g>
<!-- Node22&#45;&gt;Node26 -->
<g id="edge30" class="edge"><title>Node22&#45;&gt;Node26</title>
<path fill="none" stroke="midnightblue" d="M1095.98,-312.777C1101.03,-310.031 1105.77,-306.799 1110,-303 1142.97,-273.376 1112.73,-239.282 1146,-210 1147.76,-208.448 1149.63,-207.018 1151.59,-205.702"/>
<polygon fill="midnightblue" stroke="midnightblue" points="1153.63,-208.57 1160.64,-200.624 1150.2,-202.465 1153.63,-208.57"/>
</g>
<!-- Node27 -->
<g id="node27" class="node"><title>Node27</title>
<g id="a_node27"><a xlink:href="../../d6/d34/classmodel_1_1_turtle.html#a832234461564763f8330181b3c1163ff" target="_top" xlink:title="model.Turtle.getPrevLocation">
<polygon fill="white" stroke="black" points="1146.5,-447.5 1146.5,-466.5 1301.5,-466.5 1301.5,-447.5 1146.5,-447.5"/>
<text text-anchor="middle" x="1224" y="-454.5" font-family="Helvetica,sans-Serif" font-size="10.00">model.Turtle.getPrevLocation</text>
</a>
</g>
</g>
<!-- Node22&#45;&gt;Node27 -->
<g id="edge31" class="edge"><title>Node22&#45;&gt;Node27</title>
<path fill="none" stroke="midnightblue" d="M1097.18,-343.19C1101.77,-345.701 1106.09,-348.617 1110,-352 1141.33,-379.118 1114.53,-411.049 1146,-438 1147.97,-439.685 1150.06,-441.225 1152.25,-442.632"/>
<polygon fill="midnightblue" stroke="midnightblue" points="1150.67,-445.752 1161.13,-447.426 1153.99,-439.593 1150.67,-445.752"/>
</g>
<!-- Node28 -->
<g id="node28" class="node"><title>Node28</title>
<g id="a_node28"><a xlink:href="../../d6/d34/classmodel_1_1_turtle.html#a2470b9b4ef48a261324047de8ebdc242" target="_top" xlink:title="model.Turtle.getNewLocation">
<polygon fill="white" stroke="black" points="1146.5,-409.5 1146.5,-428.5 1301.5,-428.5 1301.5,-409.5 1146.5,-409.5"/>
<text text-anchor="middle" x="1224" y="-416.5" font-family="Helvetica,sans-Serif" font-size="10.00">model.Turtle.getNewLocation</text>
</a>
</g>
</g>
<!-- Node22&#45;&gt;Node28 -->
<g id="edge32" class="edge"><title>Node22&#45;&gt;Node28</title>
<path fill="none" stroke="midnightblue" d="M1093.48,-343.106C1099.29,-345.626 1104.87,-348.568 1110,-352 1132.16,-366.835 1123.76,-385.283 1146,-400 1149.11,-402.059 1152.43,-403.895 1155.87,-405.532"/>
<polygon fill="midnightblue" stroke="midnightblue" points="1154.64,-408.811 1165.22,-409.417 1157.32,-402.347 1154.64,-408.811"/>
</g>
<!-- Node29 -->
<g id="node29" class="node"><title>Node29</title>
<g id="a_node29"><a xlink:href="../../d6/d34/classmodel_1_1_turtle.html#a19c059b1cbfbd4e8f046ec2403de3fb9" target="_top" xlink:title="model.Turtle.getPenDash">
<polygon fill="white" stroke="black" points="1155.5,-371.5 1155.5,-390.5 1292.5,-390.5 1292.5,-371.5 1155.5,-371.5"/>
<text text-anchor="middle" x="1224" y="-378.5" font-family="Helvetica,sans-Serif" font-size="10.00">model.Turtle.getPenDash</text>
</a>
</g>
</g>
<!-- Node22&#45;&gt;Node29 -->
<g id="edge33" class="edge"><title>Node22&#45;&gt;Node29</title>
<path fill="none" stroke="midnightblue" d="M1076.08,-343.072C1087.35,-345.997 1099.05,-349.066 1110,-352 1126.04,-356.297 1129.94,-357.788 1146,-362 1154.9,-364.334 1164.4,-366.744 1173.58,-369.031"/>
<polygon fill="midnightblue" stroke="midnightblue" points="1172.83,-372.45 1183.38,-371.456 1174.51,-365.655 1172.83,-372.45"/>
</g>
<!-- Node31 -->
<g id="node31" class="node"><title>Node31</title>
<g id="a_node31"><a xlink:href="../../d6/d34/classmodel_1_1_turtle.html#a193c156784f783064ae533b619b6be6e" target="_top" xlink:title="model.Turtle.getPenColor">
<polygon fill="white" stroke="black" points="1155.5,-333.5 1155.5,-352.5 1292.5,-352.5 1292.5,-333.5 1155.5,-333.5"/>
<text text-anchor="middle" x="1224" y="-340.5" font-family="Helvetica,sans-Serif" font-size="10.00">model.Turtle.getPenColor</text>
</a>
</g>
</g>
<!-- Node22&#45;&gt;Node31 -->
<g id="edge35" class="edge"><title>Node22&#45;&gt;Node31</title>
<path fill="none" stroke="midnightblue" d="M1110.06,-334.776C1121.85,-335.635 1133.82,-336.506 1145.33,-337.345"/>
<polygon fill="midnightblue" stroke="midnightblue" points="1145.1,-340.837 1155.32,-338.072 1145.61,-333.855 1145.1,-340.837"/>
</g>
<!-- Node33 -->
<g id="node33" class="node"><title>Node33</title>
<g id="a_node33"><a xlink:href="../../d6/d34/classmodel_1_1_turtle.html#a1c5d07962ede5fbfacc59413274d4300" target="_top" xlink:title="model.Turtle.getHeading">
<polygon fill="white" stroke="black" points="1157,-295.5 1157,-314.5 1291,-314.5 1291,-295.5 1157,-295.5"/>
<text text-anchor="middle" x="1224" y="-302.5" font-family="Helvetica,sans-Serif" font-size="10.00">model.Turtle.getHeading</text>
</a>
</g>
</g>
<!-- Node22&#45;&gt;Node33 -->
<g id="edge38" class="edge"><title>Node22&#45;&gt;Node33</title>
<path fill="none" stroke="midnightblue" d="M1110.06,-317.61C1122.38,-316.234 1134.9,-314.836 1146.9,-313.496"/>
<polygon fill="midnightblue" stroke="midnightblue" points="1147.29,-316.975 1156.84,-312.387 1146.51,-310.018 1147.29,-316.975"/>
</g>
<!-- Node25 -->
<g id="node25" class="node"><title>Node25</title>
<g id="a_node25"><a xlink:href="../../de/ded/classmodel_1_1_pen.html#afad4fb3e51847cacab72c036ddaa108f" target="_top" xlink:title="model.Pen.getStatus">
<polygon fill="white" stroke="black" points="1366,-219.5 1366,-238.5 1484,-238.5 1484,-219.5 1366,-219.5"/>
<text text-anchor="middle" x="1425" y="-226.5" font-family="Helvetica,sans-Serif" font-size="10.00">model.Pen.getStatus</text>
</a>
</g>
</g>
<!-- Node24&#45;&gt;Node25 -->
<g id="edge29" class="edge"><title>Node24&#45;&gt;Node25</title>
<path fill="none" stroke="midnightblue" d="M1295.72,-229C1315.23,-229 1336.35,-229 1355.72,-229"/>
<polygon fill="midnightblue" stroke="midnightblue" points="1355.97,-232.5 1365.97,-229 1355.97,-225.5 1355.97,-232.5"/>
</g>
<!-- Node30 -->
<g id="node30" class="node"><title>Node30</title>
<g id="a_node30"><a xlink:href="../../de/ded/classmodel_1_1_pen.html#a6999f4af56377415621f193ef8600e27" target="_top" xlink:title="model.Pen.getDash">
<polygon fill="white" stroke="black" points="1369.5,-371.5 1369.5,-390.5 1480.5,-390.5 1480.5,-371.5 1369.5,-371.5"/>
<text text-anchor="middle" x="1425" y="-378.5" font-family="Helvetica,sans-Serif" font-size="10.00">model.Pen.getDash</text>
</a>
</g>
</g>
<!-- Node29&#45;&gt;Node30 -->
<g id="edge34" class="edge"><title>Node29&#45;&gt;Node30</title>
<path fill="none" stroke="midnightblue" d="M1292.65,-381C1314.15,-381 1337.86,-381 1359.15,-381"/>
<polygon fill="midnightblue" stroke="midnightblue" points="1359.39,-384.5 1369.39,-381 1359.39,-377.5 1359.39,-384.5"/>
</g>
<!-- Node32 -->
<g id="node32" class="node"><title>Node32</title>
<g id="a_node32"><a xlink:href="../../de/ded/classmodel_1_1_pen.html#a704af31474b10d17caf40773b7971826" target="_top" xlink:title="model.Pen.getPenColor">
<polygon fill="white" stroke="black" points="1360.5,-333.5 1360.5,-352.5 1489.5,-352.5 1489.5,-333.5 1360.5,-333.5"/>
<text text-anchor="middle" x="1425" y="-340.5" font-family="Helvetica,sans-Serif" font-size="10.00">model.Pen.getPenColor</text>
</a>
</g>
</g>
<!-- Node31&#45;&gt;Node32 -->
<g id="edge36" class="edge"><title>Node31&#45;&gt;Node32</title>
<path fill="none" stroke="midnightblue" d="M1292.65,-343C1311.18,-343 1331.36,-343 1350.21,-343"/>
<polygon fill="midnightblue" stroke="midnightblue" points="1350.23,-346.5 1360.23,-343 1350.23,-339.5 1350.23,-346.5"/>
</g>
</g>
</svg>
