<?xml version="1.0" encoding="UTF-8" standalone="no"?>
<!DOCTYPE svg PUBLIC "-//W3C//DTD SVG 1.1//EN"
 "http://www.w3.org/Graphics/SVG/1.1/DTD/svg11.dtd">
<!-- Generated by graphviz version 2.36.0 (20140111.2315)
 -->
<!-- Title: commands.XCoordinateCommand.executeCommand Pages: 1 -->
<svg width="630pt" height="99pt"
 viewBox="0.00 0.00 630.00 99.00" xmlns="http://www.w3.org/2000/svg" xmlns:xlink="http://www.w3.org/1999/xlink">
<g id="graph0" class="graph" transform="scale(1 1) rotate(0) translate(4 95)">
<title>commands.XCoordinateCommand.executeCommand</title>
<polygon fill="white" stroke="none" points="-4,4 -4,-95 626,-95 626,4 -4,4"/>
<!-- Node1 -->
<g id="node1" class="node"><title>Node1</title>
<polygon fill="#bfbfbf" stroke="black" points="0.5,-17 0.5,-47 223.5,-47 223.5,-17 0.5,-17"/>
<text text-anchor="start" x="8.5" y="-35" font-family="Helvetica,sans-Serif" font-size="10.00">commands.XCoordinateCommand.execute</text>
<text text-anchor="middle" x="112" y="-24" font-family="Helvetica,sans-Serif" font-size="10.00">Command</text>
</g>
<!-- Node2 -->
<g id="node2" class="node"><title>Node2</title>
<g id="a_node2"><a xlink:href="../../dd/dd6/classcommands_1_1_command.html#a761bd86c36bd6e2d0c4145647c7a4a17" target="_top" xlink:title="commands.Command.getFirst\lTurtle">
<polygon fill="white" stroke="black" points="260,-39 260,-69 422,-69 422,-39 260,-39"/>
<text text-anchor="start" x="268" y="-57" font-family="Helvetica,sans-Serif" font-size="10.00">commands.Command.getFirst</text>
<text text-anchor="middle" x="341" y="-46" font-family="Helvetica,sans-Serif" font-size="10.00">Turtle</text>
</a>
</g>
</g>
<!-- Node1&#45;&gt;Node2 -->
<g id="edge1" class="edge"><title>Node1&#45;&gt;Node2</title>
<path fill="none" stroke="midnightblue" d="M223.508,-42.71C232.341,-43.5661 241.199,-44.4246 249.867,-45.2646"/>
<polygon fill="midnightblue" stroke="midnightblue" points="249.65,-48.76 259.941,-46.241 250.326,-41.7926 249.65,-48.76"/>
</g>
<!-- Node5 -->
<g id="node5" class="node"><title>Node5</title>
<g id="a_node5"><a xlink:href="../../d6/d34/classmodel_1_1_turtle.html#a2470b9b4ef48a261324047de8ebdc242" target="_top" xlink:title="model.Turtle.getNewLocation">
<polygon fill="white" stroke="black" points="263.5,-0.5 263.5,-19.5 418.5,-19.5 418.5,-0.5 263.5,-0.5"/>
<text text-anchor="middle" x="341" y="-7.5" font-family="Helvetica,sans-Serif" font-size="10.00">model.Turtle.getNewLocation</text>
</a>
</g>
</g>
<!-- Node1&#45;&gt;Node5 -->
<g id="edge4" class="edge"><title>Node1&#45;&gt;Node5</title>
<path fill="none" stroke="midnightblue" d="M223.508,-21.29C233.55,-20.3168 243.623,-19.3405 253.413,-18.3917"/>
<polygon fill="midnightblue" stroke="midnightblue" points="253.884,-21.8626 263.499,-17.4142 253.208,-14.8952 253.884,-21.8626"/>
</g>
<!-- Node3 -->
<g id="node3" class="node"><title>Node3</title>
<g id="a_node3"><a xlink:href="../../df/d50/classmodel_1_1_turtle_set_manager.html#a9a65c0be3b9c21abaf0ebaa54e5b8484" target="_top" xlink:title="model.TurtleSetManager.get\lActiveTurtles">
<polygon fill="white" stroke="black" points="464,-61 464,-91 616,-91 616,-61 464,-61"/>
<text text-anchor="start" x="472" y="-79" font-family="Helvetica,sans-Serif" font-size="10.00">model.TurtleSetManager.get</text>
<text text-anchor="middle" x="540" y="-68" font-family="Helvetica,sans-Serif" font-size="10.00">ActiveTurtles</text>
</a>
</g>
</g>
<!-- Node2&#45;&gt;Node3 -->
<g id="edge2" class="edge"><title>Node2&#45;&gt;Node3</title>
<path fill="none" stroke="midnightblue" d="M422.127,-62.9482C432.541,-64.1112 443.239,-65.3058 453.732,-66.4777"/>
<polygon fill="midnightblue" stroke="midnightblue" points="453.388,-69.9609 463.715,-67.5925 454.165,-63.0042 453.388,-69.9609"/>
</g>
<!-- Node4 -->
<g id="node4" class="node"><title>Node4</title>
<g id="a_node4"><a xlink:href="../../d3/d42/classmodel_1_1_model.html#a1a683ba5e58fcb3c8882c8e61df20dc0" target="_top" xlink:title="model.Model.getTurtleManager">
<polygon fill="white" stroke="black" points="458,-22.5 458,-41.5 622,-41.5 622,-22.5 458,-22.5"/>
<text text-anchor="middle" x="540" y="-29.5" font-family="Helvetica,sans-Serif" font-size="10.00">model.Model.getTurtleManager</text>
</a>
</g>
</g>
<!-- Node2&#45;&gt;Node4 -->
<g id="edge3" class="edge"><title>Node2&#45;&gt;Node4</title>
<path fill="none" stroke="midnightblue" d="M422.127,-45.0518C430.626,-44.1027 439.314,-43.1325 447.926,-42.1707"/>
<polygon fill="midnightblue" stroke="midnightblue" points="448.434,-45.6358 457.984,-41.0475 447.657,-38.679 448.434,-45.6358"/>
</g>
</g>
</svg>
