<?xml version="1.0" encoding="UTF-8" standalone="no"?>
<!DOCTYPE svg PUBLIC "-//W3C//DTD SVG 1.1//EN"
 "http://www.w3.org/Graphics/SVG/1.1/DTD/svg11.dtd">
<!-- Generated by graphviz version 2.36.0 (20140111.2315)
 -->
<!-- Title: commands.CustomCommand.executeCommand Pages: 1 -->
<svg width="1540pt" height="523pt"
 viewBox="0.00 0.00 1540.00 523.00" xmlns="http://www.w3.org/2000/svg" xmlns:xlink="http://www.w3.org/1999/xlink">
<g id="graph0" class="graph" transform="scale(1 1) rotate(0) translate(4 519)">
<title>commands.CustomCommand.executeCommand</title>
<polygon fill="white" stroke="none" points="-4,4 -4,-519 1536,-519 1536,4 -4,4"/>
<!-- Node1 -->
<g id="node1" class="node"><title>Node1</title>
<polygon fill="#bfbfbf" stroke="black" points="0.5,-321 0.5,-351 203.5,-351 203.5,-321 0.5,-321"/>
<text text-anchor="start" x="8.5" y="-339" font-family="Helvetica,sans-Serif" font-size="10.00">commands.CustomCommand.execute</text>
<text text-anchor="middle" x="102" y="-328" font-family="Helvetica,sans-Serif" font-size="10.00">Command</text>
</g>
<!-- Node2 -->
<g id="node2" class="node"><title>Node2</title>
<g id="a_node2"><a xlink:href="../../d3/d62/classmodel_1_1_variable_manager.html#ac36ed403ae801b46b19d4e8d9df5a765" target="_top" xlink:title="model.VariableManager.add\lVariableMap">
<polygon fill="white" stroke="black" points="264,-485 264,-515 414,-515 414,-485 264,-485"/>
<text text-anchor="start" x="272" y="-503" font-family="Helvetica,sans-Serif" font-size="10.00">model.VariableManager.add</text>
<text text-anchor="middle" x="339" y="-492" font-family="Helvetica,sans-Serif" font-size="10.00">VariableMap</text>
</a>
</g>
</g>
<!-- Node1&#45;&gt;Node2 -->
<g id="edge1" class="edge"><title>Node1&#45;&gt;Node2</title>
<path fill="none" stroke="midnightblue" d="M113.504,-351.195C134.22,-379.969 183.289,-442.438 240,-475 244.5,-477.584 249.268,-479.905 254.181,-481.988"/>
<polygon fill="midnightblue" stroke="midnightblue" points="253.187,-485.356 263.776,-485.71 255.718,-478.83 253.187,-485.356"/>
</g>
<!-- Node3 -->
<g id="node3" class="node"><title>Node3</title>
<g id="a_node3"><a xlink:href="../../da/d64/classcommands_1_1_list_command.html#a0a58adbe03ea088f762b8a18f1e67b6e" target="_top" xlink:title="commands.ListCommand.execute\lCommand">
<polygon fill="white" stroke="black" points="248,-436 248,-466 430,-466 430,-436 248,-436"/>
<text text-anchor="start" x="256" y="-454" font-family="Helvetica,sans-Serif" font-size="10.00">commands.ListCommand.execute</text>
<text text-anchor="middle" x="339" y="-443" font-family="Helvetica,sans-Serif" font-size="10.00">Command</text>
</a>
</g>
</g>
<!-- Node1&#45;&gt;Node3 -->
<g id="edge2" class="edge"><title>Node1&#45;&gt;Node3</title>
<path fill="none" stroke="midnightblue" d="M121.782,-351.291C147.146,-371.222 194.436,-405.898 240,-426 245.64,-428.488 251.577,-430.765 257.622,-432.84"/>
<polygon fill="midnightblue" stroke="midnightblue" points="256.593,-436.185 267.184,-435.937 258.75,-429.526 256.593,-436.185"/>
</g>
<!-- Node4 -->
<g id="node4" class="node"><title>Node4</title>
<g id="a_node4"><a xlink:href="../../dd/dd6/classcommands_1_1_command.html#abafa69601e87c34d4453cf84349d6f9c" target="_top" xlink:title="commands.Command.execute\lCommand">
<polygon fill="white" stroke="black" points="256.5,-387 256.5,-417 421.5,-417 421.5,-387 256.5,-387"/>
<text text-anchor="start" x="264.5" y="-405" font-family="Helvetica,sans-Serif" font-size="10.00">commands.Command.execute</text>
<text text-anchor="middle" x="339" y="-394" font-family="Helvetica,sans-Serif" font-size="10.00">Command</text>
</a>
</g>
</g>
<!-- Node1&#45;&gt;Node4 -->
<g id="edge3" class="edge"><title>Node1&#45;&gt;Node4</title>
<path fill="none" stroke="midnightblue" d="M151.364,-351.001C177.529,-358.984 210.452,-368.813 240,-377 248.98,-379.488 258.447,-382.019 267.815,-384.467"/>
<polygon fill="midnightblue" stroke="midnightblue" points="266.958,-387.861 277.516,-386.985 268.716,-381.085 266.958,-387.861"/>
</g>
<!-- Node37 -->
<g id="node37" class="node"><title>Node37</title>
<g id="a_node37"><a xlink:href="../../dd/dd6/classcommands_1_1_command.html#a344968a97c674aa32a5da584142ce491" target="_top" xlink:title="commands.Command.getClassName">
<polygon fill="white" stroke="black" points="240.5,-348.5 240.5,-367.5 437.5,-367.5 437.5,-348.5 240.5,-348.5"/>
<text text-anchor="middle" x="339" y="-355.5" font-family="Helvetica,sans-Serif" font-size="10.00">commands.Command.getClassName</text>
</a>
</g>
</g>
<!-- Node1&#45;&gt;Node37 -->
<g id="edge43" class="edge"><title>Node1&#45;&gt;Node37</title>
<path fill="none" stroke="midnightblue" d="M203.684,-345.426C212.369,-346.239 221.18,-347.064 229.92,-347.882"/>
<polygon fill="midnightblue" stroke="midnightblue" points="229.854,-351.391 240.137,-348.838 230.507,-344.421 229.854,-351.391"/>
</g>
<!-- Node38 -->
<g id="node38" class="node"><title>Node38</title>
<g id="a_node38"><a xlink:href="../../da/d64/classcommands_1_1_list_command.html#a56336e5adb210c39d6f2dded76b86055" target="_top" xlink:title="commands.ListCommand.get\lNumParameters">
<polygon fill="white" stroke="black" points="259.5,-299 259.5,-329 418.5,-329 418.5,-299 259.5,-299"/>
<text text-anchor="start" x="267.5" y="-317" font-family="Helvetica,sans-Serif" font-size="10.00">commands.ListCommand.get</text>
<text text-anchor="middle" x="339" y="-306" font-family="Helvetica,sans-Serif" font-size="10.00">NumParameters</text>
</a>
</g>
</g>
<!-- Node1&#45;&gt;Node38 -->
<g id="edge44" class="edge"><title>Node1&#45;&gt;Node38</title>
<path fill="none" stroke="midnightblue" d="M203.684,-326.574C218.765,-325.162 234.224,-323.715 249.039,-322.328"/>
<polygon fill="midnightblue" stroke="midnightblue" points="249.549,-325.796 259.18,-321.379 248.897,-318.826 249.549,-325.796"/>
</g>
<!-- Node39 -->
<g id="node39" class="node"><title>Node39</title>
<g id="a_node39"><a xlink:href="../../dd/dd6/classcommands_1_1_command.html#a276f12d28173928a0d399a6a8939cd4a" target="_top" xlink:title="commands.Command.getParameter">
<polygon fill="white" stroke="black" points="242.5,-260.5 242.5,-279.5 435.5,-279.5 435.5,-260.5 242.5,-260.5"/>
<text text-anchor="middle" x="339" y="-267.5" font-family="Helvetica,sans-Serif" font-size="10.00">commands.Command.getParameter</text>
</a>
</g>
</g>
<!-- Node1&#45;&gt;Node39 -->
<g id="edge45" class="edge"><title>Node1&#45;&gt;Node39</title>
<path fill="none" stroke="midnightblue" d="M143.365,-320.993C170.443,-311.287 207.048,-298.859 240,-290 251.398,-286.936 263.651,-284.089 275.503,-281.56"/>
<polygon fill="midnightblue" stroke="midnightblue" points="276.26,-284.978 285.336,-279.513 274.833,-278.124 276.26,-284.978"/>
</g>
<!-- Node40 -->
<g id="node40" class="node"><title>Node40</title>
<g id="a_node40"><a xlink:href="../../d3/d42/classmodel_1_1_model.html#ac129cb1cf270db69824b85eb0bc528c3" target="_top" xlink:title="model.Model.getVariableManager">
<polygon fill="white" stroke="black" points="250.5,-222.5 250.5,-241.5 427.5,-241.5 427.5,-222.5 250.5,-222.5"/>
<text text-anchor="middle" x="339" y="-229.5" font-family="Helvetica,sans-Serif" font-size="10.00">model.Model.getVariableManager</text>
</a>
</g>
</g>
<!-- Node1&#45;&gt;Node40 -->
<g id="edge46" class="edge"><title>Node1&#45;&gt;Node40</title>
<path fill="none" stroke="midnightblue" d="M122.206,-320.892C147.659,-301.65 194.652,-268.767 240,-251 246.9,-248.297 254.23,-245.966 261.652,-243.96"/>
<polygon fill="midnightblue" stroke="midnightblue" points="262.588,-247.333 271.436,-241.504 260.884,-240.544 262.588,-247.333"/>
</g>
<!-- Node41 -->
<g id="node41" class="node"><title>Node41</title>
<g id="a_node41"><a xlink:href="../../d3/d62/classmodel_1_1_variable_manager.html#a7700aec1336116bd2648dbcf5424d016" target="_top" xlink:title="model.VariableManager.reduce\lVariableScope">
<polygon fill="white" stroke="black" points="256.5,-173 256.5,-203 421.5,-203 421.5,-173 256.5,-173"/>
<text text-anchor="start" x="264.5" y="-191" font-family="Helvetica,sans-Serif" font-size="10.00">model.VariableManager.reduce</text>
<text text-anchor="middle" x="339" y="-180" font-family="Helvetica,sans-Serif" font-size="10.00">VariableScope</text>
</a>
</g>
</g>
<!-- Node1&#45;&gt;Node41 -->
<g id="edge47" class="edge"><title>Node1&#45;&gt;Node41</title>
<path fill="none" stroke="midnightblue" d="M115.291,-320.985C137.436,-294.944 186.716,-241.468 240,-213 244.322,-210.691 248.866,-208.588 253.533,-206.674"/>
<polygon fill="midnightblue" stroke="midnightblue" points="255.132,-209.812 263.251,-203.005 252.66,-203.263 255.132,-209.812"/>
</g>
<!-- Node5 -->
<g id="node5" class="node"><title>Node5</title>
<g id="a_node5"><a xlink:href="../../df/d50/classmodel_1_1_turtle_set_manager.html#a9a65c0be3b9c21abaf0ebaa54e5b8484" target="_top" xlink:title="model.TurtleSetManager.get\lActiveTurtles">
<polygon fill="white" stroke="black" points="960,-450 960,-480 1112,-480 1112,-450 960,-450"/>
<text text-anchor="start" x="968" y="-468" font-family="Helvetica,sans-Serif" font-size="10.00">model.TurtleSetManager.get</text>
<text text-anchor="middle" x="1036" y="-457" font-family="Helvetica,sans-Serif" font-size="10.00">ActiveTurtles</text>
</a>
</g>
</g>
<!-- Node4&#45;&gt;Node5 -->
<g id="edge4" class="edge"><title>Node4&#45;&gt;Node5</title>
<path fill="none" stroke="midnightblue" d="M421.725,-415.15C438.959,-417.656 457.054,-420.088 474,-422 642.253,-440.98 839.858,-453.971 949.927,-460.382"/>
<polygon fill="midnightblue" stroke="midnightblue" points="949.791,-463.88 959.976,-460.963 950.195,-456.892 949.791,-463.88"/>
</g>
<!-- Node6 -->
<g id="node6" class="node"><title>Node6</title>
<g id="a_node6"><a xlink:href="../../d3/d42/classmodel_1_1_model.html#a1a683ba5e58fcb3c8882c8e61df20dc0" target="_top" xlink:title="model.Model.getTurtleManager">
<polygon fill="white" stroke="black" points="954,-411.5 954,-430.5 1118,-430.5 1118,-411.5 954,-411.5"/>
<text text-anchor="middle" x="1036" y="-418.5" font-family="Helvetica,sans-Serif" font-size="10.00">model.Model.getTurtleManager</text>
</a>
</g>
</g>
<!-- Node4&#45;&gt;Node6 -->
<g id="edge5" class="edge"><title>Node4&#45;&gt;Node6</title>
<path fill="none" stroke="midnightblue" d="M421.769,-404.235C552.43,-407.807 807.418,-414.778 943.799,-418.507"/>
<polygon fill="midnightblue" stroke="midnightblue" points="943.719,-422.006 953.811,-418.78 943.91,-415.008 943.719,-422.006"/>
</g>
<!-- Node7 -->
<g id="node7" class="node"><title>Node7</title>
<g id="a_node7"><a xlink:href="../../d3/d42/classmodel_1_1_model.html#a76160d002c1e68b566307ac44356f6e5" target="_top" xlink:title="model.Model.notifyView">
<polygon fill="white" stroke="black" points="502.5,-373.5 502.5,-392.5 631.5,-392.5 631.5,-373.5 502.5,-373.5"/>
<text text-anchor="middle" x="567" y="-380.5" font-family="Helvetica,sans-Serif" font-size="10.00">model.Model.notifyView</text>
</a>
</g>
</g>
<!-- Node4&#45;&gt;Node7 -->
<g id="edge6" class="edge"><title>Node4&#45;&gt;Node7</title>
<path fill="none" stroke="midnightblue" d="M421.591,-395.141C444.616,-393.205 469.531,-391.11 492.079,-389.215"/>
<polygon fill="midnightblue" stroke="midnightblue" points="492.585,-392.684 502.257,-388.359 491.999,-385.709 492.585,-392.684"/>
</g>
<!-- Node36 -->
<g id="node36" class="node"><title>Node36</title>
<g id="a_node36"><a xlink:href="../../dd/dd6/classcommands_1_1_command.html#aec3e0f888945b1811fd739ecea212324" target="_top" xlink:title="commands.Command.updateTurtle">
<polygon fill="white" stroke="black" points="474,-335.5 474,-354.5 660,-354.5 660,-335.5 474,-335.5"/>
<text text-anchor="middle" x="567" y="-342.5" font-family="Helvetica,sans-Serif" font-size="10.00">commands.Command.updateTurtle</text>
</a>
</g>
</g>
<!-- Node4&#45;&gt;Node36 -->
<g id="edge42" class="edge"><title>Node4&#45;&gt;Node36</title>
<path fill="none" stroke="midnightblue" d="M402.726,-386.961C414.503,-383.865 426.671,-380.482 438,-377 454.261,-372.003 457.628,-368.621 474,-364 483.418,-361.342 493.474,-358.886 503.354,-356.684"/>
<polygon fill="midnightblue" stroke="midnightblue" points="504.108,-360.101 513.143,-354.568 502.629,-353.259 504.108,-360.101"/>
</g>
<!-- Node8 -->
<g id="node8" class="node"><title>Node8</title>
<g id="a_node8"><a xlink:href="../../db/db5/classview_1_1panes_1_1_view_pane_module.html#aa2a1bf15bc036ee4237bf63749d85baf" target="_top" xlink:title="view.panes.ViewPaneModule.updateView">
<polygon fill="white" stroke="black" points="696.5,-244.5 696.5,-263.5 905.5,-263.5 905.5,-244.5 696.5,-244.5"/>
<text text-anchor="middle" x="801" y="-251.5" font-family="Helvetica,sans-Serif" font-size="10.00">view.panes.ViewPaneModule.updateView</text>
</a>
</g>
</g>
<!-- Node7&#45;&gt;Node8 -->
<g id="edge7" class="edge"><title>Node7&#45;&gt;Node8</title>
<path fill="none" stroke="midnightblue" d="M631.601,-373.891C641.356,-371.356 651.125,-368.122 660,-364 710.593,-340.501 759.429,-295.468 783.843,-270.94"/>
<polygon fill="midnightblue" stroke="midnightblue" points="786.387,-273.344 790.882,-263.75 781.385,-268.447 786.387,-273.344"/>
</g>
<!-- Node8&#45;&gt;Node5 -->
<g id="edge12" class="edge"><title>Node8&#45;&gt;Node5</title>
<path fill="none" stroke="midnightblue" d="M806.485,-263.902C821.117,-295.048 870.663,-391.812 942,-440 944.929,-441.978 948.008,-443.801 951.193,-445.479"/>
<polygon fill="midnightblue" stroke="midnightblue" points="949.875,-448.727 960.412,-449.838 952.867,-442.399 949.875,-448.727"/>
</g>
<!-- Node8&#45;&gt;Node6 -->
<g id="edge11" class="edge"><title>Node8&#45;&gt;Node6</title>
<path fill="none" stroke="midnightblue" d="M808.175,-263.786C825.598,-290.518 878.052,-365.162 942,-401 946.862,-403.725 952.059,-406.079 957.417,-408.113"/>
<polygon fill="midnightblue" stroke="midnightblue" points="956.605,-411.533 967.2,-411.438 958.858,-404.906 956.605,-411.533"/>
</g>
<!-- Node9 -->
<g id="node9" class="node"><title>Node9</title>
<g id="a_node9"><a xlink:href="../../d3/d42/classmodel_1_1_model.html#a54936407d7df5ab8ef3c0ae54bcdc0ed" target="_top" xlink:title="model.Model.getBackground\lColor">
<polygon fill="white" stroke="black" points="959,-264 959,-294 1113,-294 1113,-264 959,-264"/>
<text text-anchor="start" x="967" y="-282" font-family="Helvetica,sans-Serif" font-size="10.00">model.Model.getBackground</text>
<text text-anchor="middle" x="1036" y="-271" font-family="Helvetica,sans-Serif" font-size="10.00">Color</text>
</a>
</g>
</g>
<!-- Node8&#45;&gt;Node9 -->
<g id="edge8" class="edge"><title>Node8&#45;&gt;Node9</title>
<path fill="none" stroke="midnightblue" d="M890.752,-263.523C909.72,-265.558 929.73,-267.705 948.608,-269.73"/>
<polygon fill="midnightblue" stroke="midnightblue" points="948.348,-273.223 958.664,-270.809 949.095,-266.263 948.348,-273.223"/>
</g>
<!-- Node10 -->
<g id="node10" class="node"><title>Node10</title>
<g id="a_node10"><a xlink:href="../../db/db5/classview_1_1panes_1_1_view_pane_module.html#ac94ee444587349ddad19b8caee500c9c" target="_top" xlink:title="view.panes.ViewPaneModule.update\lBGColor">
<polygon fill="white" stroke="black" points="942,-215 942,-245 1130,-245 1130,-215 942,-215"/>
<text text-anchor="start" x="950" y="-233" font-family="Helvetica,sans-Serif" font-size="10.00">view.panes.ViewPaneModule.update</text>
<text text-anchor="middle" x="1036" y="-222" font-family="Helvetica,sans-Serif" font-size="10.00">BGColor</text>
</a>
</g>
</g>
<!-- Node8&#45;&gt;Node10 -->
<g id="edge9" class="edge"><title>Node8&#45;&gt;Node10</title>
<path fill="none" stroke="midnightblue" d="M894.422,-244.48C906.754,-243.21 919.461,-241.901 931.96,-240.614"/>
<polygon fill="midnightblue" stroke="midnightblue" points="932.338,-244.093 941.927,-239.587 931.621,-237.13 932.338,-244.093"/>
</g>
<!-- Node11 -->
<g id="node11" class="node"><title>Node11</title>
<g id="a_node11"><a xlink:href="../../db/db5/classview_1_1panes_1_1_view_pane_module.html#abe91f8bb732e99d762bdaba51ceae04b" target="_top" xlink:title="view.panes.ViewPaneModule.toRGB">
<polygon fill="white" stroke="black" points="944,-176.5 944,-195.5 1128,-195.5 1128,-176.5 944,-176.5"/>
<text text-anchor="middle" x="1036" y="-183.5" font-family="Helvetica,sans-Serif" font-size="10.00">view.panes.ViewPaneModule.toRGB</text>
</a>
</g>
</g>
<!-- Node8&#45;&gt;Node11 -->
<g id="edge10" class="edge"><title>Node8&#45;&gt;Node11</title>
<path fill="none" stroke="midnightblue" d="M827.009,-244.42C854.801,-234.011 901.152,-217.352 942,-206 952.721,-203.021 964.24,-200.224 975.395,-197.721"/>
<polygon fill="midnightblue" stroke="midnightblue" points="976.484,-201.065 985.504,-195.507 974.987,-194.227 976.484,-201.065"/>
</g>
<!-- Node12 -->
<g id="node12" class="node"><title>Node12</title>
<g id="a_node12"><a xlink:href="../../df/d50/classmodel_1_1_turtle_set_manager.html#a9e215e93eccbed2ab9ebec6119cfe305" target="_top" xlink:title="model.TurtleSetManager.get\lAllTurtles">
<polygon fill="white" stroke="black" points="960,-127 960,-157 1112,-157 1112,-127 960,-127"/>
<text text-anchor="start" x="968" y="-145" font-family="Helvetica,sans-Serif" font-size="10.00">model.TurtleSetManager.get</text>
<text text-anchor="middle" x="1036" y="-134" font-family="Helvetica,sans-Serif" font-size="10.00">AllTurtles</text>
</a>
</g>
</g>
<!-- Node8&#45;&gt;Node12 -->
<g id="edge13" class="edge"><title>Node8&#45;&gt;Node12</title>
<path fill="none" stroke="midnightblue" d="M814.796,-244.229C838.605,-226.475 891.858,-188.753 942,-167 947.637,-164.555 953.572,-162.296 959.603,-160.221"/>
<polygon fill="midnightblue" stroke="midnightblue" points="960.71,-163.542 969.131,-157.112 958.539,-156.887 960.71,-163.542"/>
</g>
<!-- Node13 -->
<g id="node13" class="node"><title>Node13</title>
<g id="a_node13"><a xlink:href="../../d3/d42/classmodel_1_1_model.html#af73e838aed2c068e8f7d31bfa1cc88d7" target="_top" xlink:title="model.Model.getStamp">
<polygon fill="white" stroke="black" points="971.5,-88.5 971.5,-107.5 1100.5,-107.5 1100.5,-88.5 971.5,-88.5"/>
<text text-anchor="middle" x="1036" y="-95.5" font-family="Helvetica,sans-Serif" font-size="10.00">model.Model.getStamp</text>
</a>
</g>
</g>
<!-- Node8&#45;&gt;Node13 -->
<g id="edge14" class="edge"><title>Node8&#45;&gt;Node13</title>
<path fill="none" stroke="midnightblue" d="M808.892,-244.232C827.306,-218.929 880.454,-150.936 942,-118 948.066,-114.754 954.62,-112.035 961.343,-109.757"/>
<polygon fill="midnightblue" stroke="midnightblue" points="962.733,-112.992 971.276,-106.726 960.69,-106.297 962.733,-112.992"/>
</g>
<!-- Node14 -->
<g id="node14" class="node"><title>Node14</title>
<g id="a_node14"><a xlink:href="../../db/db5/classview_1_1panes_1_1_view_pane_module.html#a44db6ae832af3ce470baa9406142b8cb" target="_top" xlink:title="view.panes.ViewPaneModule.make\lStamps">
<polygon fill="white" stroke="black" points="945.5,-39 945.5,-69 1126.5,-69 1126.5,-39 945.5,-39"/>
<text text-anchor="start" x="953.5" y="-57" font-family="Helvetica,sans-Serif" font-size="10.00">view.panes.ViewPaneModule.make</text>
<text text-anchor="middle" x="1036" y="-46" font-family="Helvetica,sans-Serif" font-size="10.00">Stamps</text>
</a>
</g>
</g>
<!-- Node8&#45;&gt;Node14 -->
<g id="edge15" class="edge"><title>Node8&#45;&gt;Node14</title>
<path fill="none" stroke="midnightblue" d="M806.868,-244.27C822.262,-214.536 872.974,-124.158 942,-79 945.122,-76.9577 948.406,-75.0815 951.8,-73.358"/>
<polygon fill="midnightblue" stroke="midnightblue" points="953.372,-76.488 961.007,-69.143 950.458,-70.1233 953.372,-76.488"/>
</g>
<!-- Node21 -->
<g id="node21" class="node"><title>Node21</title>
<g id="a_node21"><a xlink:href="../../d3/d42/classmodel_1_1_model.html#a0a457f31350a460e11dc864463e0d8ff" target="_top" xlink:title="model.Model.setStamp">
<polygon fill="white" stroke="black" points="972,-0.5 972,-19.5 1100,-19.5 1100,-0.5 972,-0.5"/>
<text text-anchor="middle" x="1036" y="-7.5" font-family="Helvetica,sans-Serif" font-size="10.00">model.Model.setStamp</text>
</a>
</g>
</g>
<!-- Node8&#45;&gt;Node21 -->
<g id="edge22" class="edge"><title>Node8&#45;&gt;Node21</title>
<path fill="none" stroke="midnightblue" d="M804.896,-244.385C816.036,-209.166 859.671,-86.28 942,-29 948.045,-24.7942 954.814,-21.4778 961.869,-18.8684"/>
<polygon fill="midnightblue" stroke="midnightblue" points="963.177,-22.1242 971.626,-15.7312 961.034,-15.4602 963.177,-22.1242"/>
</g>
<!-- Node22 -->
<g id="node22" class="node"><title>Node22</title>
<g id="a_node22"><a xlink:href="../../db/db5/classview_1_1panes_1_1_view_pane_module.html#a7ad9ad27137ffdf0ea96753a22da236b" target="_top" xlink:title="view.panes.ViewPaneModule.erase\lStamps">
<polygon fill="white" stroke="black" points="945.5,-362 945.5,-392 1126.5,-392 1126.5,-362 945.5,-362"/>
<text text-anchor="start" x="953.5" y="-380" font-family="Helvetica,sans-Serif" font-size="10.00">view.panes.ViewPaneModule.erase</text>
<text text-anchor="middle" x="1036" y="-369" font-family="Helvetica,sans-Serif" font-size="10.00">Stamps</text>
</a>
</g>
</g>
<!-- Node8&#45;&gt;Node22 -->
<g id="edge23" class="edge"><title>Node8&#45;&gt;Node22</title>
<path fill="none" stroke="midnightblue" d="M812.783,-263.574C835.234,-283.026 889.306,-327.407 942,-352 947.241,-354.446 952.764,-356.688 958.397,-358.735"/>
<polygon fill="midnightblue" stroke="midnightblue" points="957.355,-362.078 967.949,-362 959.619,-355.454 957.355,-362.078"/>
</g>
<!-- Node24 -->
<g id="node24" class="node"><title>Node24</title>
<g id="a_node24"><a xlink:href="../../db/db5/classview_1_1panes_1_1_view_pane_module.html#ab55ce3511929b88a2cd1235eb694868f" target="_top" xlink:title="view.panes.ViewPaneModule.update\lTurtle">
<polygon fill="white" stroke="black" points="942,-313 942,-343 1130,-343 1130,-313 942,-313"/>
<text text-anchor="start" x="950" y="-331" font-family="Helvetica,sans-Serif" font-size="10.00">view.panes.ViewPaneModule.update</text>
<text text-anchor="middle" x="1036" y="-320" font-family="Helvetica,sans-Serif" font-size="10.00">Turtle</text>
</a>
</g>
</g>
<!-- Node8&#45;&gt;Node24 -->
<g id="edge25" class="edge"><title>Node8&#45;&gt;Node24</title>
<path fill="none" stroke="midnightblue" d="M827.359,-263.512C855.261,-273.829 901.527,-290.496 942,-303 949.922,-305.447 958.265,-307.885 966.568,-310.224"/>
<polygon fill="midnightblue" stroke="midnightblue" points="965.698,-313.615 976.27,-312.92 967.572,-306.871 965.698,-313.615"/>
</g>
<!-- Node15 -->
<g id="node15" class="node"><title>Node15</title>
<g id="a_node15"><a xlink:href="../../d7/da6/classview_1_1_turtle_draw.html#a939f4fdbdb66457c9dcee82eb4ae6d9c" target="_top" xlink:title="view.TurtleDraw.drawTurtle">
<polygon fill="white" stroke="black" points="1174.5,-67.5 1174.5,-86.5 1313.5,-86.5 1313.5,-67.5 1174.5,-67.5"/>
<text text-anchor="middle" x="1244" y="-74.5" font-family="Helvetica,sans-Serif" font-size="10.00">view.TurtleDraw.drawTurtle</text>
</a>
</g>
</g>
<!-- Node14&#45;&gt;Node15 -->
<g id="edge16" class="edge"><title>Node14&#45;&gt;Node15</title>
<path fill="none" stroke="midnightblue" d="M1126.76,-64.0212C1139.21,-65.4115 1151.92,-66.831 1164.15,-68.1968"/>
<polygon fill="midnightblue" stroke="midnightblue" points="1163.97,-71.6983 1174.3,-69.3296 1164.75,-64.7415 1163.97,-71.6983"/>
</g>
<!-- Node18 -->
<g id="node18" class="node"><title>Node18</title>
<g id="a_node18"><a xlink:href="../../d7/da6/classview_1_1_turtle_draw.html#a14678068d3fc9d3b6e1067bc372f6030" target="_top" xlink:title="view.TurtleDraw.showTurtle">
<polygon fill="white" stroke="black" points="1174,-29.5 1174,-48.5 1314,-48.5 1314,-29.5 1174,-29.5"/>
<text text-anchor="middle" x="1244" y="-36.5" font-family="Helvetica,sans-Serif" font-size="10.00">view.TurtleDraw.showTurtle</text>
</a>
</g>
</g>
<!-- Node14&#45;&gt;Node18 -->
<g id="edge19" class="edge"><title>Node14&#45;&gt;Node18</title>
<path fill="none" stroke="midnightblue" d="M1126.76,-47.4644C1139.12,-46.5639 1151.75,-45.6445 1163.9,-44.7594"/>
<polygon fill="midnightblue" stroke="midnightblue" points="1164.27,-48.2422 1173.99,-44.0251 1163.76,-41.2607 1164.27,-48.2422"/>
</g>
<!-- Node19 -->
<g id="node19" class="node"><title>Node19</title>
<g id="a_node19"><a xlink:href="../../d7/da6/classview_1_1_turtle_draw.html#a8c2cab38eb294b26aea1ae17595ba2a6" target="_top" xlink:title="view.TurtleDraw.moveTurtle">
<polygon fill="white" stroke="black" points="1172.5,-143.5 1172.5,-162.5 1315.5,-162.5 1315.5,-143.5 1172.5,-143.5"/>
<text text-anchor="middle" x="1244" y="-150.5" font-family="Helvetica,sans-Serif" font-size="10.00">view.TurtleDraw.moveTurtle</text>
</a>
</g>
</g>
<!-- Node14&#45;&gt;Node19 -->
<g id="edge20" class="edge"><title>Node14&#45;&gt;Node19</title>
<path fill="none" stroke="midnightblue" d="M1112.8,-69.1906C1118.89,-71.9348 1124.72,-75.1748 1130,-79 1153.66,-96.1392 1142.16,-117.106 1166,-134 1168.84,-136.012 1171.87,-137.811 1175.02,-139.421"/>
<polygon fill="midnightblue" stroke="midnightblue" points="1173.62,-142.629 1184.18,-143.474 1176.45,-136.227 1173.62,-142.629"/>
</g>
<!-- Node20 -->
<g id="node20" class="node"><title>Node20</title>
<g id="a_node20"><a xlink:href="../../d7/da6/classview_1_1_turtle_draw.html#a5004a16526a67f090d7da45474b5136e" target="_top" xlink:title="view.TurtleDraw.setAngle">
<polygon fill="white" stroke="black" points="1177.5,-105.5 1177.5,-124.5 1310.5,-124.5 1310.5,-105.5 1177.5,-105.5"/>
<text text-anchor="middle" x="1244" y="-112.5" font-family="Helvetica,sans-Serif" font-size="10.00">view.TurtleDraw.setAngle</text>
</a>
</g>
</g>
<!-- Node14&#45;&gt;Node20 -->
<g id="edge21" class="edge"><title>Node14&#45;&gt;Node20</title>
<path fill="none" stroke="midnightblue" d="M1099.02,-69.0126C1109.46,-72.0119 1120.11,-75.3695 1130,-79 1146.61,-85.0988 1149.33,-90.0733 1166,-96 1173.04,-98.5012 1180.55,-100.795 1188.02,-102.858"/>
<polygon fill="midnightblue" stroke="midnightblue" points="1187.2,-106.264 1197.77,-105.434 1188.99,-99.4958 1187.2,-106.264"/>
</g>
<!-- Node16 -->
<g id="node16" class="node"><title>Node16</title>
<g id="a_node16"><a xlink:href="../../d6/d34/classmodel_1_1_turtle.html#a942dbeb1d7e2bc19b6870538c2c3a7d2" target="_top" xlink:title="model.Turtle.getShape">
<polygon fill="white" stroke="black" points="1382.5,-89.5 1382.5,-108.5 1507.5,-108.5 1507.5,-89.5 1382.5,-89.5"/>
<text text-anchor="middle" x="1445" y="-96.5" font-family="Helvetica,sans-Serif" font-size="10.00">model.Turtle.getShape</text>
</a>
</g>
</g>
<!-- Node15&#45;&gt;Node16 -->
<g id="edge17" class="edge"><title>Node15&#45;&gt;Node16</title>
<path fill="none" stroke="midnightblue" d="M1313.76,-84.602C1332.62,-86.6865 1353.11,-88.9515 1372.13,-91.0547"/>
<polygon fill="midnightblue" stroke="midnightblue" points="1371.91,-94.5509 1382.23,-92.1711 1372.67,-87.5933 1371.91,-94.5509"/>
</g>
<!-- Node17 -->
<g id="node17" class="node"><title>Node17</title>
<g id="a_node17"><a xlink:href="../../d3/db7/classview_1_1controllers_1_1_image_palette.html#a8a6620714bc12d5a00b97e99299a7040" target="_top" xlink:title="view.controllers.ImagePalette.get\lImage">
<polygon fill="white" stroke="black" points="1358,-40 1358,-70 1532,-70 1532,-40 1358,-40"/>
<text text-anchor="start" x="1366" y="-58" font-family="Helvetica,sans-Serif" font-size="10.00">view.controllers.ImagePalette.get</text>
<text text-anchor="middle" x="1445" y="-47" font-family="Helvetica,sans-Serif" font-size="10.00">Image</text>
</a>
</g>
</g>
<!-- Node15&#45;&gt;Node17 -->
<g id="edge18" class="edge"><title>Node15&#45;&gt;Node17</title>
<path fill="none" stroke="midnightblue" d="M1313.76,-69.398C1324.71,-68.1877 1336.21,-66.9165 1347.65,-65.6514"/>
<polygon fill="midnightblue" stroke="midnightblue" points="1348.13,-69.1206 1357.68,-64.5429 1347.36,-62.163 1348.13,-69.1206"/>
</g>
<!-- Node23 -->
<g id="node23" class="node"><title>Node23</title>
<g id="a_node23"><a xlink:href="../../d7/da6/classview_1_1_turtle_draw.html#acb97dedda080cb5ed17031d2b31adc2c" target="_top" xlink:title="view.TurtleDraw.hideTurtle">
<polygon fill="white" stroke="black" points="1175.5,-485.5 1175.5,-504.5 1312.5,-504.5 1312.5,-485.5 1175.5,-485.5"/>
<text text-anchor="middle" x="1244" y="-492.5" font-family="Helvetica,sans-Serif" font-size="10.00">view.TurtleDraw.hideTurtle</text>
</a>
</g>
</g>
<!-- Node22&#45;&gt;Node23 -->
<g id="edge24" class="edge"><title>Node22&#45;&gt;Node23</title>
<path fill="none" stroke="midnightblue" d="M1114.72,-392.164C1120.18,-394.918 1125.36,-398.167 1130,-402 1158.2,-425.29 1137.56,-453.003 1166,-476 1168.26,-477.826 1170.67,-479.48 1173.19,-480.979"/>
<polygon fill="midnightblue" stroke="midnightblue" points="1171.62,-484.107 1182.12,-485.495 1174.77,-477.86 1171.62,-484.107"/>
</g>
<!-- Node24&#45;&gt;Node15 -->
<g id="edge27" class="edge"><title>Node24&#45;&gt;Node15</title>
<path fill="none" stroke="midnightblue" d="M1118.14,-312.879C1122.49,-310.093 1126.5,-306.827 1130,-303 1192.98,-234.053 1102.31,-164.292 1166,-96 1167.23,-94.6847 1168.53,-93.4541 1169.9,-92.303"/>
<polygon fill="midnightblue" stroke="midnightblue" points="1172.06,-95.0665 1178.35,-86.544 1168.11,-89.2813 1172.06,-95.0665"/>
</g>
<!-- Node24&#45;&gt;Node18 -->
<g id="edge28" class="edge"><title>Node24&#45;&gt;Node18</title>
<path fill="none" stroke="midnightblue" d="M1118.26,-312.985C1122.58,-310.173 1126.56,-306.872 1130,-303 1203.15,-220.771 1092,-139.468 1166,-58 1167.07,-56.8215 1168.2,-55.7107 1169.38,-54.6639"/>
<polygon fill="midnightblue" stroke="midnightblue" points="1171.74,-57.2816 1177.88,-48.6446 1167.7,-51.5698 1171.74,-57.2816"/>
</g>
<!-- Node24&#45;&gt;Node19 -->
<g id="edge41" class="edge"><title>Node24&#45;&gt;Node19</title>
<path fill="none" stroke="midnightblue" d="M1116.86,-312.995C1121.64,-310.193 1126.09,-306.89 1130,-303 1172.81,-260.424 1122.75,-214.131 1166,-172 1167.48,-170.559 1169.05,-169.221 1170.7,-167.98"/>
<polygon fill="midnightblue" stroke="midnightblue" points="1172.82,-170.784 1179.48,-162.546 1169.13,-164.832 1172.82,-170.784"/>
</g>
<!-- Node24&#45;&gt;Node20 -->
<g id="edge39" class="edge"><title>Node24&#45;&gt;Node20</title>
<path fill="none" stroke="midnightblue" d="M1117.55,-312.99C1122.1,-310.183 1126.32,-306.881 1130,-303 1182.85,-247.284 1112.57,-189.166 1166,-134 1167.25,-132.708 1168.58,-131.498 1169.96,-130.366"/>
<polygon fill="midnightblue" stroke="midnightblue" points="1172.11,-133.14 1178.5,-124.692 1168.24,-127.309 1172.11,-133.14"/>
</g>
<!-- Node24&#45;&gt;Node23 -->
<g id="edge29" class="edge"><title>Node24&#45;&gt;Node23</title>
<path fill="none" stroke="midnightblue" d="M1116.78,-343.079C1121.58,-345.863 1126.06,-349.142 1130,-353 1170.72,-392.829 1124.87,-436.594 1166,-476 1167.49,-477.429 1169.07,-478.755 1170.73,-479.987"/>
<polygon fill="midnightblue" stroke="midnightblue" points="1169.19,-483.149 1179.55,-485.384 1172.84,-477.179 1169.19,-483.149"/>
</g>
<!-- Node25 -->
<g id="node25" class="node"><title>Node25</title>
<g id="a_node25"><a xlink:href="../../d6/d34/classmodel_1_1_turtle.html#ae79a1eae7eed55d121c3b85299ae14ba" target="_top" xlink:title="model.Turtle.getID">
<polygon fill="white" stroke="black" points="1192,-257.5 1192,-276.5 1296,-276.5 1296,-257.5 1192,-257.5"/>
<text text-anchor="middle" x="1244" y="-264.5" font-family="Helvetica,sans-Serif" font-size="10.00">model.Turtle.getID</text>
</a>
</g>
</g>
<!-- Node24&#45;&gt;Node25 -->
<g id="edge26" class="edge"><title>Node24&#45;&gt;Node25</title>
<path fill="none" stroke="midnightblue" d="M1099.02,-312.987C1109.46,-309.988 1120.11,-306.63 1130,-303 1146.61,-296.901 1149.33,-291.927 1166,-286 1173.04,-283.499 1180.55,-281.205 1188.02,-279.142"/>
<polygon fill="midnightblue" stroke="midnightblue" points="1188.99,-282.504 1197.77,-276.566 1187.2,-275.736 1188.99,-282.504"/>
</g>
<!-- Node26 -->
<g id="node26" class="node"><title>Node26</title>
<g id="a_node26"><a xlink:href="../../d6/d34/classmodel_1_1_turtle.html#a279f2bdb3fa955acdd52b7824ec3cd04" target="_top" xlink:title="model.Turtle.getPenStatus">
<polygon fill="white" stroke="black" points="1172.5,-219.5 1172.5,-238.5 1315.5,-238.5 1315.5,-219.5 1172.5,-219.5"/>
<text text-anchor="middle" x="1244" y="-226.5" font-family="Helvetica,sans-Serif" font-size="10.00">model.Turtle.getPenStatus</text>
</a>
</g>
</g>
<!-- Node24&#45;&gt;Node26 -->
<g id="edge30" class="edge"><title>Node24&#45;&gt;Node26</title>
<path fill="none" stroke="midnightblue" d="M1112.8,-312.809C1118.89,-310.065 1124.72,-306.825 1130,-303 1153.66,-285.861 1142.16,-264.894 1166,-248 1168.84,-245.988 1171.87,-244.189 1175.02,-242.579"/>
<polygon fill="midnightblue" stroke="midnightblue" points="1176.45,-245.773 1184.18,-238.526 1173.62,-239.371 1176.45,-245.773"/>
</g>
<!-- Node28 -->
<g id="node28" class="node"><title>Node28</title>
<g id="a_node28"><a xlink:href="../../d7/da6/classview_1_1_turtle_draw.html#a1325ca376115619f15f5014eb4c5ad2a" target="_top" xlink:title="view.TurtleDraw.drawLine">
<polygon fill="white" stroke="black" points="1177.5,-181.5 1177.5,-200.5 1310.5,-200.5 1310.5,-181.5 1177.5,-181.5"/>
<text text-anchor="middle" x="1244" y="-188.5" font-family="Helvetica,sans-Serif" font-size="10.00">view.TurtleDraw.drawLine</text>
</a>
</g>
</g>
<!-- Node24&#45;&gt;Node28 -->
<g id="edge32" class="edge"><title>Node24&#45;&gt;Node28</title>
<path fill="none" stroke="midnightblue" d="M1115.98,-312.777C1121.03,-310.031 1125.77,-306.799 1130,-303 1162.97,-273.376 1132.73,-239.282 1166,-210 1167.76,-208.448 1169.63,-207.018 1171.59,-205.702"/>
<polygon fill="midnightblue" stroke="midnightblue" points="1173.63,-208.57 1180.64,-200.624 1170.2,-202.465 1173.63,-208.57"/>
</g>
<!-- Node29 -->
<g id="node29" class="node"><title>Node29</title>
<g id="a_node29"><a xlink:href="../../d6/d34/classmodel_1_1_turtle.html#a832234461564763f8330181b3c1163ff" target="_top" xlink:title="model.Turtle.getPrevLocation">
<polygon fill="white" stroke="black" points="1166.5,-447.5 1166.5,-466.5 1321.5,-466.5 1321.5,-447.5 1166.5,-447.5"/>
<text text-anchor="middle" x="1244" y="-454.5" font-family="Helvetica,sans-Serif" font-size="10.00">model.Turtle.getPrevLocation</text>
</a>
</g>
</g>
<!-- Node24&#45;&gt;Node29 -->
<g id="edge33" class="edge"><title>Node24&#45;&gt;Node29</title>
<path fill="none" stroke="midnightblue" d="M1115.39,-343.135C1120.64,-345.898 1125.59,-349.157 1130,-353 1160.94,-379.941 1134.78,-411.381 1166,-438 1167.97,-439.681 1170.07,-441.217 1172.26,-442.621"/>
<polygon fill="midnightblue" stroke="midnightblue" points="1170.68,-445.744 1181.14,-447.406 1174,-439.582 1170.68,-445.744"/>
</g>
<!-- Node30 -->
<g id="node30" class="node"><title>Node30</title>
<g id="a_node30"><a xlink:href="../../d6/d34/classmodel_1_1_turtle.html#a2470b9b4ef48a261324047de8ebdc242" target="_top" xlink:title="model.Turtle.getNewLocation">
<polygon fill="white" stroke="black" points="1166.5,-409.5 1166.5,-428.5 1321.5,-428.5 1321.5,-409.5 1166.5,-409.5"/>
<text text-anchor="middle" x="1244" y="-416.5" font-family="Helvetica,sans-Serif" font-size="10.00">model.Turtle.getNewLocation</text>
</a>
</g>
</g>
<!-- Node24&#45;&gt;Node30 -->
<g id="edge34" class="edge"><title>Node24&#45;&gt;Node30</title>
<path fill="none" stroke="midnightblue" d="M1111.08,-343.013C1117.74,-345.797 1124.16,-349.094 1130,-353 1151.87,-367.637 1143.98,-385.59 1166,-400 1169.12,-402.043 1172.44,-403.866 1175.89,-405.494"/>
<polygon fill="midnightblue" stroke="midnightblue" points="1174.67,-408.778 1185.25,-409.36 1177.35,-402.308 1174.67,-408.778"/>
</g>
<!-- Node31 -->
<g id="node31" class="node"><title>Node31</title>
<g id="a_node31"><a xlink:href="../../d6/d34/classmodel_1_1_turtle.html#a19c059b1cbfbd4e8f046ec2403de3fb9" target="_top" xlink:title="model.Turtle.getPenDash">
<polygon fill="white" stroke="black" points="1175.5,-371.5 1175.5,-390.5 1312.5,-390.5 1312.5,-371.5 1175.5,-371.5"/>
<text text-anchor="middle" x="1244" y="-378.5" font-family="Helvetica,sans-Serif" font-size="10.00">model.Turtle.getPenDash</text>
</a>
</g>
</g>
<!-- Node24&#45;&gt;Node31 -->
<g id="edge35" class="edge"><title>Node24&#45;&gt;Node31</title>
<path fill="none" stroke="midnightblue" d="M1093.15,-343.004C1115.76,-348.993 1142.1,-355.902 1166,-362 1175.01,-364.3 1184.63,-366.709 1193.91,-369.01"/>
<polygon fill="midnightblue" stroke="midnightblue" points="1193.25,-372.452 1203.8,-371.454 1194.93,-365.657 1193.25,-372.452"/>
</g>
<!-- Node33 -->
<g id="node33" class="node"><title>Node33</title>
<g id="a_node33"><a xlink:href="../../d6/d34/classmodel_1_1_turtle.html#a193c156784f783064ae533b619b6be6e" target="_top" xlink:title="model.Turtle.getPenColor">
<polygon fill="white" stroke="black" points="1175.5,-333.5 1175.5,-352.5 1312.5,-352.5 1312.5,-333.5 1175.5,-333.5"/>
<text text-anchor="middle" x="1244" y="-340.5" font-family="Helvetica,sans-Serif" font-size="10.00">model.Turtle.getPenColor</text>
</a>
</g>
</g>
<!-- Node24&#45;&gt;Node33 -->
<g id="edge37" class="edge"><title>Node24&#45;&gt;Node33</title>
<path fill="none" stroke="midnightblue" d="M1130.06,-334.776C1141.85,-335.635 1153.82,-336.506 1165.33,-337.345"/>
<polygon fill="midnightblue" stroke="midnightblue" points="1165.1,-340.837 1175.32,-338.072 1165.61,-333.855 1165.1,-340.837"/>
</g>
<!-- Node35 -->
<g id="node35" class="node"><title>Node35</title>
<g id="a_node35"><a xlink:href="../../d6/d34/classmodel_1_1_turtle.html#a1c5d07962ede5fbfacc59413274d4300" target="_top" xlink:title="model.Turtle.getHeading">
<polygon fill="white" stroke="black" points="1177,-295.5 1177,-314.5 1311,-314.5 1311,-295.5 1177,-295.5"/>
<text text-anchor="middle" x="1244" y="-302.5" font-family="Helvetica,sans-Serif" font-size="10.00">model.Turtle.getHeading</text>
</a>
</g>
</g>
<!-- Node24&#45;&gt;Node35 -->
<g id="edge40" class="edge"><title>Node24&#45;&gt;Node35</title>
<path fill="none" stroke="midnightblue" d="M1130.06,-317.61C1142.38,-316.234 1154.9,-314.836 1166.9,-313.496"/>
<polygon fill="midnightblue" stroke="midnightblue" points="1167.29,-316.975 1176.84,-312.387 1166.51,-310.018 1167.29,-316.975"/>
</g>
<!-- Node27 -->
<g id="node27" class="node"><title>Node27</title>
<g id="a_node27"><a xlink:href="../../de/ded/classmodel_1_1_pen.html#afad4fb3e51847cacab72c036ddaa108f" target="_top" xlink:title="model.Pen.getStatus">
<polygon fill="white" stroke="black" points="1386,-219.5 1386,-238.5 1504,-238.5 1504,-219.5 1386,-219.5"/>
<text text-anchor="middle" x="1445" y="-226.5" font-family="Helvetica,sans-Serif" font-size="10.00">model.Pen.getStatus</text>
</a>
</g>
</g>
<!-- Node26&#45;&gt;Node27 -->
<g id="edge31" class="edge"><title>Node26&#45;&gt;Node27</title>
<path fill="none" stroke="midnightblue" d="M1315.72,-229C1335.23,-229 1356.35,-229 1375.72,-229"/>
<polygon fill="midnightblue" stroke="midnightblue" points="1375.97,-232.5 1385.97,-229 1375.97,-225.5 1375.97,-232.5"/>
</g>
<!-- Node32 -->
<g id="node32" class="node"><title>Node32</title>
<g id="a_node32"><a xlink:href="../../de/ded/classmodel_1_1_pen.html#a6999f4af56377415621f193ef8600e27" target="_top" xlink:title="model.Pen.getDash">
<polygon fill="white" stroke="black" points="1389.5,-371.5 1389.5,-390.5 1500.5,-390.5 1500.5,-371.5 1389.5,-371.5"/>
<text text-anchor="middle" x="1445" y="-378.5" font-family="Helvetica,sans-Serif" font-size="10.00">model.Pen.getDash</text>
</a>
</g>
</g>
<!-- Node31&#45;&gt;Node32 -->
<g id="edge36" class="edge"><title>Node31&#45;&gt;Node32</title>
<path fill="none" stroke="midnightblue" d="M1312.65,-381C1334.15,-381 1357.86,-381 1379.15,-381"/>
<polygon fill="midnightblue" stroke="midnightblue" points="1379.39,-384.5 1389.39,-381 1379.39,-377.5 1379.39,-384.5"/>
</g>
<!-- Node34 -->
<g id="node34" class="node"><title>Node34</title>
<g id="a_node34"><a xlink:href="../../de/ded/classmodel_1_1_pen.html#a704af31474b10d17caf40773b7971826" target="_top" xlink:title="model.Pen.getPenColor">
<polygon fill="white" stroke="black" points="1380.5,-333.5 1380.5,-352.5 1509.5,-352.5 1509.5,-333.5 1380.5,-333.5"/>
<text text-anchor="middle" x="1445" y="-340.5" font-family="Helvetica,sans-Serif" font-size="10.00">model.Pen.getPenColor</text>
</a>
</g>
</g>
<!-- Node33&#45;&gt;Node34 -->
<g id="edge38" class="edge"><title>Node33&#45;&gt;Node34</title>
<path fill="none" stroke="midnightblue" d="M1312.65,-343C1331.18,-343 1351.36,-343 1370.21,-343"/>
<polygon fill="midnightblue" stroke="midnightblue" points="1370.23,-346.5 1380.23,-343 1370.23,-339.5 1370.23,-346.5"/>
</g>
</g>
</svg>
