<?xml version="1.0" encoding="UTF-8" standalone="no"?>
<!DOCTYPE svg PUBLIC "-//W3C//DTD SVG 1.1//EN"
 "http://www.w3.org/Graphics/SVG/1.1/DTD/svg11.dtd">
<!-- Generated by graphviz version 2.36.0 (20140111.2315)
 -->
<!-- Title: parser.Parser Pages: 1 -->
<svg width="475pt" height="118pt"
 viewBox="0.00 0.00 475.00 118.00" xmlns="http://www.w3.org/2000/svg" xmlns:xlink="http://www.w3.org/1999/xlink">
<g id="graph0" class="graph" transform="scale(1 1) rotate(0) translate(4 114)">
<title>parser.Parser</title>
<polygon fill="white" stroke="none" points="-4,4 -4,-114 471,-114 471,4 -4,4"/>
<!-- Node1 -->
<g id="node1" class="node"><title>Node1</title>
<polygon fill="#bfbfbf" stroke="black" points="189,-0.5 189,-19.5 269,-19.5 269,-0.5 189,-0.5"/>
<text text-anchor="middle" x="229" y="-7.5" font-family="Helvetica,sans-Serif" font-size="10.00">parser.Parser</text>
</g>
<!-- Node2 -->
<g id="node2" class="node"><title>Node2</title>
<polygon fill="white" stroke="#bfbfbf" points="0,-84.5 0,-103.5 122,-103.5 122,-84.5 0,-84.5"/>
<text text-anchor="middle" x="61" y="-91.5" font-family="Helvetica,sans-Serif" font-size="10.00">Map&lt; String, String &gt;</text>
</g>
<!-- Node2&#45;&gt;Node1 -->
<g id="edge1" class="edge"><title>Node2&#45;&gt;Node1</title>
<path fill="none" stroke="#9a32cd" stroke-dasharray="5,2" d="M72.8571,-76.2688C82.5359,-63.8549 97.3057,-47.4979 114,-38 136.905,-24.9684 165.791,-18.2165 188.882,-14.7234"/>
<polygon fill="#9a32cd" stroke="#9a32cd" points="69.9242,-74.3471 66.7545,-84.4567 75.5368,-78.5303 69.9242,-74.3471"/>
<text text-anchor="middle" x="169.5" y="-52" font-family="Helvetica,sans-Serif" font-size="10.00"> myRegularExpressions</text>
<text text-anchor="middle" x="169.5" y="-41" font-family="Helvetica,sans-Serif" font-size="10.00">myCommandMap</text>
</g>
<!-- Node3 -->
<g id="node3" class="node"><title>Node3</title>
<polygon fill="white" stroke="#bfbfbf" points="140.5,-79 140.5,-109 317.5,-109 317.5,-79 140.5,-79"/>
<text text-anchor="start" x="148.5" y="-97" font-family="Helvetica,sans-Serif" font-size="10.00">Map&lt; String, commands.Custom</text>
<text text-anchor="middle" x="229" y="-86" font-family="Helvetica,sans-Serif" font-size="10.00">Command &gt;</text>
</g>
<!-- Node3&#45;&gt;Node1 -->
<g id="edge2" class="edge"><title>Node3&#45;&gt;Node1</title>
<path fill="none" stroke="#9a32cd" stroke-dasharray="5,2" d="M229,-68.5997C229,-52.0312 229,-31.1113 229,-19.5915"/>
<polygon fill="#9a32cd" stroke="#9a32cd" points="225.5,-68.7167 229,-78.7167 232.5,-68.7167 225.5,-68.7167"/>
<text text-anchor="middle" x="289.5" y="-46.5" font-family="Helvetica,sans-Serif" font-size="10.00"> myUserInputCommands</text>
</g>
<!-- Node4 -->
<g id="node4" class="node"><title>Node4</title>
<polygon fill="white" stroke="#bfbfbf" points="335.5,-84.5 335.5,-103.5 430.5,-103.5 430.5,-84.5 335.5,-84.5"/>
<text text-anchor="middle" x="383" y="-91.5" font-family="Helvetica,sans-Serif" font-size="10.00">Stack&lt; String &gt;</text>
</g>
<!-- Node4&#45;&gt;Node1 -->
<g id="edge3" class="edge"><title>Node4&#45;&gt;Node1</title>
<path fill="none" stroke="#9a32cd" stroke-dasharray="5,2" d="M377.875,-74.7777C373.499,-62.5543 365.971,-47.0847 354,-38 329.77,-19.6129 295.675,-13.1731 269.212,-11.1593"/>
<polygon fill="#9a32cd" stroke="#9a32cd" points="374.581,-75.969 380.942,-84.4416 381.253,-73.8513 374.581,-75.969"/>
<text text-anchor="middle" x="419" y="-46.5" font-family="Helvetica,sans-Serif" font-size="10.00"> myCommandStack</text>
</g>
</g>
</svg>
