<?xml version="1.0" encoding="UTF-8" standalone="no"?>
<!DOCTYPE svg PUBLIC "-//W3C//DTD SVG 1.1//EN"
 "http://www.w3.org/Graphics/SVG/1.1/DTD/svg11.dtd">
<!-- Generated by graphviz version 2.36.0 (20140111.2315)
 -->
<!-- Title: model.Model Pages: 1 -->
<svg width="1012pt" height="617pt"
 viewBox="0.00 0.00 1012.00 617.00" xmlns="http://www.w3.org/2000/svg" xmlns:xlink="http://www.w3.org/1999/xlink">
<g id="graph0" class="graph" transform="scale(1 1) rotate(0) translate(4 613)">
<title>model.Model</title>
<polygon fill="white" stroke="none" points="-4,4 -4,-613 1008,-613 1008,4 -4,4"/>
<!-- Node1 -->
<g id="node1" class="node"><title>Node1</title>
<polygon fill="#bfbfbf" stroke="black" points="621,-483.5 621,-502.5 699,-502.5 699,-483.5 621,-483.5"/>
<text text-anchor="middle" x="660" y="-490.5" font-family="Helvetica,sans-Serif" font-size="10.00">model.Model</text>
</g>
<!-- Node6 -->
<g id="node6" class="node"><title>Node6</title>
<g id="a_node6"><a xlink:href="../../db/db5/classview_1_1panes_1_1_view_pane_module.html" target="_top" xlink:title="view.panes.ViewPaneModule">
<polygon fill="white" stroke="black" points="852.5,-350.5 852.5,-369.5 1003.5,-369.5 1003.5,-350.5 852.5,-350.5"/>
<text text-anchor="middle" x="928" y="-357.5" font-family="Helvetica,sans-Serif" font-size="10.00">view.panes.ViewPaneModule</text>
</a>
</g>
</g>
<!-- Node1&#45;&gt;Node6 -->
<g id="edge7" class="edge"><title>Node1&#45;&gt;Node6</title>
<path fill="none" stroke="#9a32cd" stroke-dasharray="5,2" d="M708.835,-482.156C752.253,-471.828 812.65,-456.106 834,-444 870.149,-423.502 904.126,-386.832 919.049,-369.532"/>
<polygon fill="#9a32cd" stroke="#9a32cd" points="707.955,-478.767 699.024,-484.467 709.56,-485.581 707.955,-478.767"/>
<text text-anchor="middle" x="794" y="-473" font-family="Helvetica,sans-Serif" font-size="10.00"> myModel</text>
</g>
<!-- Node2 -->
<g id="node2" class="node"><title>Node2</title>
<polygon fill="white" stroke="#bfbfbf" points="25,-487.5 25,-506.5 139,-506.5 139,-487.5 25,-487.5"/>
<text text-anchor="middle" x="82" y="-494.5" font-family="Helvetica,sans-Serif" font-size="10.00">Set&lt; model.Turtle &gt;</text>
</g>
<!-- Node2&#45;&gt;Node1 -->
<g id="edge1" class="edge"><title>Node2&#45;&gt;Node1</title>
<path fill="none" stroke="#9a32cd" stroke-dasharray="5,2" d="M144.695,-485.786C186.179,-478.828 242.177,-470.558 292,-467 361.157,-462.062 378.797,-462.752 448,-467 508.601,-470.72 578.444,-480.395 620.628,-486.835"/>
<polygon fill="#9a32cd" stroke="#9a32cd" points="144.014,-482.351 134.742,-487.476 145.187,-489.252 144.014,-482.351"/>
<text text-anchor="middle" x="370" y="-470" font-family="Helvetica,sans-Serif" font-size="10.00"> myFullSet</text>
</g>
<!-- Node2&#45;&gt;Node6 -->
<g id="edge8" class="edge"><title>Node2&#45;&gt;Node6</title>
<path fill="none" stroke="#9a32cd" stroke-dasharray="5,2" d="M117.778,-509.909C230.443,-549.404 592.096,-657.754 834,-519 892.531,-485.427 917.756,-399.182 924.815,-369.9"/>
<polygon fill="#9a32cd" stroke="#9a32cd" points="118.862,-506.58 108.267,-506.53 116.518,-513.176 118.862,-506.58"/>
<text text-anchor="middle" x="516" y="-601" font-family="Helvetica,sans-Serif" font-size="10.00"> myTurtles</text>
<text text-anchor="middle" x="516" y="-590" font-family="Helvetica,sans-Serif" font-size="10.00">myActiveTurtles</text>
</g>
<!-- Node22 -->
<g id="node22" class="node"><title>Node22</title>
<g id="a_node22"><a xlink:href="../../df/d50/classmodel_1_1_turtle_set_manager.html" target="_top" xlink:title="model.TurtleSetManager">
<polygon fill="white" stroke="black" points="303,-487.5 303,-506.5 437,-506.5 437,-487.5 303,-487.5"/>
<text text-anchor="middle" x="370" y="-494.5" font-family="Helvetica,sans-Serif" font-size="10.00">model.TurtleSetManager</text>
</a>
</g>
</g>
<!-- Node2&#45;&gt;Node22 -->
<g id="edge26" class="edge"><title>Node2&#45;&gt;Node22</title>
<path fill="none" stroke="#9a32cd" stroke-dasharray="5,2" d="M149.366,-497C195.535,-497 256.831,-497 302.935,-497"/>
<polygon fill="#9a32cd" stroke="#9a32cd" points="149.163,-493.5 139.163,-497 149.163,-500.5 149.163,-493.5"/>
<text text-anchor="middle" x="228" y="-500" font-family="Helvetica,sans-Serif" font-size="10.00"> mySet</text>
</g>
<!-- Node3 -->
<g id="node3" class="node"><title>Node3</title>
<g id="a_node3"><a xlink:href="../../d3/d62/classmodel_1_1_variable_manager.html" target="_top" xlink:title="model.VariableManager">
<polygon fill="white" stroke="black" points="305,-378.5 305,-397.5 435,-397.5 435,-378.5 305,-378.5"/>
<text text-anchor="middle" x="370" y="-385.5" font-family="Helvetica,sans-Serif" font-size="10.00">model.VariableManager</text>
</a>
</g>
</g>
<!-- Node3&#45;&gt;Node1 -->
<g id="edge2" class="edge"><title>Node3&#45;&gt;Node1</title>
<path fill="none" stroke="#9a32cd" stroke-dasharray="5,2" d="M445.553,-389.511C485.201,-393.892 532.53,-405.266 566,-433 581.324,-445.698 568.812,-461.14 584,-474 594.251,-482.68 607.937,-487.478 620.811,-490.102"/>
<polygon fill="#9a32cd" stroke="#9a32cd" points="445.68,-386.007 435.388,-388.52 445.001,-392.974 445.68,-386.007"/>
<text text-anchor="middle" x="516" y="-436" font-family="Helvetica,sans-Serif" font-size="10.00"> myVariableManager</text>
</g>
<!-- Node4 -->
<g id="node4" class="node"><title>Node4</title>
<polygon fill="white" stroke="#bfbfbf" points="23,-373 23,-403 141,-403 141,-373 23,-373"/>
<text text-anchor="start" x="31" y="-391" font-family="Helvetica,sans-Serif" font-size="10.00">Stack&lt; Map&lt; String,</text>
<text text-anchor="middle" x="82" y="-380" font-family="Helvetica,sans-Serif" font-size="10.00"> Double &gt; &gt;</text>
</g>
<!-- Node4&#45;&gt;Node3 -->
<g id="edge3" class="edge"><title>Node4&#45;&gt;Node3</title>
<path fill="none" stroke="#9a32cd" stroke-dasharray="5,2" d="M151.23,-388C197.836,-388 259.184,-388 304.886,-388"/>
<polygon fill="#9a32cd" stroke="#9a32cd" points="151.221,-384.5 141.221,-388 151.221,-391.5 151.221,-384.5"/>
<text text-anchor="middle" x="228" y="-391" font-family="Helvetica,sans-Serif" font-size="10.00"> myLocalVariables</text>
</g>
<!-- Node5 -->
<g id="node5" class="node"><title>Node5</title>
<polygon fill="white" stroke="#bfbfbf" points="18,-334.5 18,-353.5 146,-353.5 146,-334.5 18,-334.5"/>
<text text-anchor="middle" x="82" y="-341.5" font-family="Helvetica,sans-Serif" font-size="10.00">Map&lt; String, Double &gt;</text>
</g>
<!-- Node5&#45;&gt;Node3 -->
<g id="edge4" class="edge"><title>Node5&#45;&gt;Node3</title>
<path fill="none" stroke="#9a32cd" stroke-dasharray="5,2" d="M156.523,-355.059C192.026,-360.426 235.236,-366.997 274,-373 285.303,-374.75 297.359,-376.638 308.956,-378.464"/>
<polygon fill="#9a32cd" stroke="#9a32cd" points="156.657,-351.54 146.246,-353.507 155.611,-358.461 156.657,-351.54"/>
<text text-anchor="middle" x="228" y="-376" font-family="Helvetica,sans-Serif" font-size="10.00"> myGlobalVariables</text>
</g>
<!-- Node6&#45;&gt;Node1 -->
<g id="edge5" class="edge"><title>Node6&#45;&gt;Node1</title>
<path fill="none" stroke="#9a32cd" stroke-dasharray="5,2" d="M919.446,-378.983C906.737,-408.038 878.066,-462.626 834,-486 792.043,-508.255 735.978,-505.706 699.201,-500.492"/>
<polygon fill="#9a32cd" stroke="#9a32cd" points="922.767,-380.114 923.405,-369.539 916.311,-377.408 922.767,-380.114"/>
<text text-anchor="middle" x="794" y="-507" font-family="Helvetica,sans-Serif" font-size="10.00"> myView</text>
</g>
<!-- Node7 -->
<g id="node7" class="node"><title>Node7</title>
<g id="a_node7"><a xlink:href="../../df/dd6/classview_1_1panes_1_1_pane_module.html" target="_top" xlink:title="view.panes.PaneModule">
<polygon fill="white" stroke="black" points="595.5,-445.5 595.5,-464.5 724.5,-464.5 724.5,-445.5 595.5,-445.5"/>
<text text-anchor="middle" x="660" y="-452.5" font-family="Helvetica,sans-Serif" font-size="10.00">view.panes.PaneModule</text>
</a>
</g>
</g>
<!-- Node7&#45;&gt;Node6 -->
<g id="edge6" class="edge"><title>Node7&#45;&gt;Node6</title>
<path fill="none" stroke="midnightblue" d="M734.604,-445.062C765.976,-439.358 802.524,-430.724 834,-418 865.225,-405.377 897.73,-382.483 914.818,-369.555"/>
<polygon fill="midnightblue" stroke="midnightblue" points="733.859,-441.639 724.614,-446.813 735.068,-448.534 733.859,-441.639"/>
</g>
<!-- Node8 -->
<g id="node8" class="node"><title>Node8</title>
<polygon fill="white" stroke="#bfbfbf" points="640,-407.5 640,-426.5 680,-426.5 680,-407.5 640,-407.5"/>
<text text-anchor="middle" x="660" y="-414.5" font-family="Helvetica,sans-Serif" font-size="10.00">Pane</text>
</g>
<!-- Node8&#45;&gt;Node6 -->
<g id="edge9" class="edge"><title>Node8&#45;&gt;Node6</title>
<path fill="none" stroke="#9a32cd" stroke-dasharray="5,2" d="M690.434,-413.222C725.04,-408.513 784.091,-399.647 834,-388 856.004,-382.865 880.453,-375.434 898.759,-369.518"/>
<polygon fill="#9a32cd" stroke="#9a32cd" points="689.548,-409.809 680.099,-414.602 690.475,-416.747 689.548,-409.809"/>
<text text-anchor="middle" x="794" y="-406" font-family="Helvetica,sans-Serif" font-size="10.00"> myPane</text>
</g>
<!-- Node9 -->
<g id="node9" class="node"><title>Node9</title>
<polygon fill="white" stroke="#bfbfbf" points="606.5,-369.5 606.5,-388.5 713.5,-388.5 713.5,-369.5 606.5,-369.5"/>
<text text-anchor="middle" x="660" y="-376.5" font-family="Helvetica,sans-Serif" font-size="10.00">List&lt; ImageView &gt;</text>
</g>
<!-- Node9&#45;&gt;Node6 -->
<g id="edge10" class="edge"><title>Node9&#45;&gt;Node6</title>
<path fill="none" stroke="#9a32cd" stroke-dasharray="5,2" d="M723.61,-374.528C762.167,-371.774 811.812,-368.228 852.401,-365.328"/>
<polygon fill="#9a32cd" stroke="#9a32cd" points="723.278,-371.043 713.553,-375.246 723.777,-378.025 723.278,-371.043"/>
<text text-anchor="middle" x="794" y="-376" font-family="Helvetica,sans-Serif" font-size="10.00"> myStamps</text>
</g>
<!-- Node10 -->
<g id="node10" class="node"><title>Node10</title>
<polygon fill="white" stroke="#bfbfbf" points="622.5,-331.5 622.5,-350.5 697.5,-350.5 697.5,-331.5 622.5,-331.5"/>
<text text-anchor="middle" x="660" y="-338.5" font-family="Helvetica,sans-Serif" font-size="10.00">List&lt; Line &gt;</text>
</g>
<!-- Node10&#45;&gt;Node6 -->
<g id="edge11" class="edge"><title>Node10&#45;&gt;Node6</title>
<path fill="none" stroke="#9a32cd" stroke-dasharray="5,2" d="M708.139,-343.713C742.934,-345.784 791.435,-348.816 834,-352 839.979,-352.447 846.173,-352.932 852.394,-353.435"/>
<polygon fill="#9a32cd" stroke="#9a32cd" points="707.991,-340.198 697.802,-343.101 707.578,-347.186 707.991,-340.198"/>
<text text-anchor="middle" x="794" y="-355" font-family="Helvetica,sans-Serif" font-size="10.00"> myGrid</text>
</g>
<!-- Node11 -->
<g id="node11" class="node"><title>Node11</title>
<polygon fill="white" stroke="#bfbfbf" points="633,-293.5 633,-312.5 687,-312.5 687,-293.5 633,-293.5"/>
<text text-anchor="middle" x="660" y="-300.5" font-family="Helvetica,sans-Serif" font-size="10.00">Point2D</text>
</g>
<!-- Node11&#45;&gt;Node6 -->
<g id="edge12" class="edge"><title>Node11&#45;&gt;Node6</title>
<path fill="none" stroke="#9a32cd" stroke-dasharray="5,2" d="M697.559,-307.76C732.757,-312.663 787.369,-321.118 834,-332 856.004,-337.135 880.453,-344.566 898.759,-350.482"/>
<polygon fill="#9a32cd" stroke="#9a32cd" points="697.672,-304.242 687.289,-306.353 696.722,-311.178 697.672,-304.242"/>
<text text-anchor="middle" x="794" y="-335" font-family="Helvetica,sans-Serif" font-size="10.00"> myCurrentPoint</text>
</g>
<!-- Node12 -->
<g id="node12" class="node"><title>Node12</title>
<polygon fill="white" stroke="#bfbfbf" points="584.5,-255.5 584.5,-274.5 735.5,-274.5 735.5,-255.5 584.5,-255.5"/>
<text text-anchor="middle" x="660" y="-262.5" font-family="Helvetica,sans-Serif" font-size="10.00">Map&lt; Integer, ImageView &gt;</text>
</g>
<!-- Node12&#45;&gt;Node6 -->
<g id="edge13" class="edge"><title>Node12&#45;&gt;Node6</title>
<path fill="none" stroke="#9a32cd" stroke-dasharray="5,2" d="M739.204,-276.451C769.49,-282.352 804.018,-290.919 834,-303 864.914,-315.456 897.278,-337.727 914.487,-350.429"/>
<polygon fill="#9a32cd" stroke="#9a32cd" points="739.583,-272.961 729.108,-274.55 738.288,-279.84 739.583,-272.961"/>
<text text-anchor="middle" x="794" y="-306" font-family="Helvetica,sans-Serif" font-size="10.00"> myIcons</text>
</g>
<!-- Node13 -->
<g id="node13" class="node"><title>Node13</title>
<g id="a_node13"><a xlink:href="../../d3/db7/classview_1_1controllers_1_1_image_palette.html" target="_top" xlink:title="view.controllers.ImagePalette">
<polygon fill="white" stroke="black" points="292.5,-57.5 292.5,-76.5 447.5,-76.5 447.5,-57.5 292.5,-57.5"/>
<text text-anchor="middle" x="370" y="-64.5" font-family="Helvetica,sans-Serif" font-size="10.00">view.controllers.ImagePalette</text>
</a>
</g>
</g>
<!-- Node13&#45;&gt;Node6 -->
<g id="edge14" class="edge"><title>Node13&#45;&gt;Node6</title>
<path fill="none" stroke="#9a32cd" stroke-dasharray="5,2" d="M457.658,-59.1406C560.142,-54.7915 729.915,-63.8383 834,-156 896.654,-211.477 919.665,-317.659 925.429,-350.247"/>
<polygon fill="#9a32cd" stroke="#9a32cd" points="457.471,-55.6455 447.649,-59.6171 457.804,-62.6376 457.471,-55.6455"/>
<text text-anchor="middle" x="660" y="-99" font-family="Helvetica,sans-Serif" font-size="10.00"> myImagePalette</text>
</g>
<!-- Node18 -->
<g id="node18" class="node"><title>Node18</title>
<g id="a_node18"><a xlink:href="../../d7/da6/classview_1_1_turtle_draw.html" target="_top" xlink:title="view.TurtleDraw">
<polygon fill="white" stroke="black" points="615.5,-145.5 615.5,-164.5 704.5,-164.5 704.5,-145.5 615.5,-145.5"/>
<text text-anchor="middle" x="660" y="-152.5" font-family="Helvetica,sans-Serif" font-size="10.00">view.TurtleDraw</text>
</a>
</g>
</g>
<!-- Node13&#45;&gt;Node18 -->
<g id="edge21" class="edge"><title>Node13&#45;&gt;Node18</title>
<path fill="none" stroke="#9a32cd" stroke-dasharray="5,2" d="M429.216,-78.6952C468.356,-87.1981 520.847,-99.8473 566,-115 591.994,-123.723 620.842,-136.668 639.413,-145.451"/>
<polygon fill="#9a32cd" stroke="#9a32cd" points="429.824,-75.246 419.312,-76.5701 428.355,-82.0903 429.824,-75.246"/>
<text text-anchor="middle" x="516" y="-118" font-family="Helvetica,sans-Serif" font-size="10.00"> myImagePalette</text>
</g>
<!-- Node14 -->
<g id="node14" class="node"><title>Node14</title>
<polygon fill="white" stroke="#bfbfbf" points="23,-114.5 23,-133.5 141,-133.5 141,-114.5 23,-114.5"/>
<text text-anchor="middle" x="82" y="-121.5" font-family="Helvetica,sans-Serif" font-size="10.00">ChoiceBox&lt; String &gt;</text>
</g>
<!-- Node14&#45;&gt;Node13 -->
<g id="edge15" class="edge"><title>Node14&#45;&gt;Node13</title>
<path fill="none" stroke="#9a32cd" stroke-dasharray="5,2" d="M151.128,-115.944C187.767,-111.038 233.598,-103.978 274,-95 296.492,-90.0022 321.467,-82.5648 340.162,-76.6112"/>
<polygon fill="#9a32cd" stroke="#9a32cd" points="150.508,-112.496 141.05,-117.271 151.421,-119.436 150.508,-112.496"/>
<text text-anchor="middle" x="228" y="-115" font-family="Helvetica,sans-Serif" font-size="10.00"> myChoiceImages</text>
</g>
<!-- Node15 -->
<g id="node15" class="node"><title>Node15</title>
<polygon fill="white" stroke="#bfbfbf" points="40,-76.5 40,-95.5 124,-95.5 124,-76.5 40,-76.5"/>
<text text-anchor="middle" x="82" y="-83.5" font-family="Helvetica,sans-Serif" font-size="10.00">List&lt; String &gt;</text>
</g>
<!-- Node15&#45;&gt;Node13 -->
<g id="edge16" class="edge"><title>Node15&#45;&gt;Node13</title>
<path fill="none" stroke="#9a32cd" stroke-dasharray="5,2" d="M134.466,-82.5809C178.485,-79.6566 242.465,-75.4062 292.485,-72.0831"/>
<polygon fill="#9a32cd" stroke="#9a32cd" points="134.027,-79.1023 124.281,-83.2575 134.491,-86.0869 134.027,-79.1023"/>
<text text-anchor="middle" x="228" y="-83" font-family="Helvetica,sans-Serif" font-size="10.00"> myChoices</text>
</g>
<!-- Node16 -->
<g id="node16" class="node"><title>Node16</title>
<polygon fill="white" stroke="#bfbfbf" points="18,-38.5 18,-57.5 146,-57.5 146,-38.5 18,-38.5"/>
<text text-anchor="middle" x="82" y="-45.5" font-family="Helvetica,sans-Serif" font-size="10.00">Map&lt; Integer, String &gt;</text>
</g>
<!-- Node16&#45;&gt;Node13 -->
<g id="edge17" class="edge"><title>Node16&#45;&gt;Node13</title>
<path fill="none" stroke="#9a32cd" stroke-dasharray="5,2" d="M156.537,-51.7791C192.042,-53.7202 235.251,-56.2531 274,-59 279.944,-59.4213 286.094,-59.8824 292.276,-60.3636"/>
<polygon fill="#9a32cd" stroke="#9a32cd" points="156.434,-48.2685 146.259,-51.2219 156.055,-55.2582 156.434,-48.2685"/>
<text text-anchor="middle" x="228" y="-62" font-family="Helvetica,sans-Serif" font-size="10.00"> myImages</text>
</g>
<!-- Node17 -->
<g id="node17" class="node"><title>Node17</title>
<polygon fill="white" stroke="#bfbfbf" points="13,-0.5 13,-19.5 151,-19.5 151,-0.5 13,-0.5"/>
<text text-anchor="middle" x="82" y="-7.5" font-family="Helvetica,sans-Serif" font-size="10.00">ObservableList&lt; String &gt;</text>
</g>
<!-- Node17&#45;&gt;Node13 -->
<g id="edge18" class="edge"><title>Node17&#45;&gt;Node13</title>
<path fill="none" stroke="#9a32cd" stroke-dasharray="5,2" d="M161.13,-19.4181C195.89,-24.235 237.197,-30.8223 274,-39 296.492,-43.9978 321.467,-51.4352 340.162,-57.3888"/>
<polygon fill="#9a32cd" stroke="#9a32cd" points="161.419,-15.9252 151.038,-18.0435 160.474,-22.8612 161.419,-15.9252"/>
<text text-anchor="middle" x="228" y="-42" font-family="Helvetica,sans-Serif" font-size="10.00"> myObservable</text>
</g>
<!-- Node18&#45;&gt;Node6 -->
<g id="edge19" class="edge"><title>Node18&#45;&gt;Node6</title>
<path fill="none" stroke="#9a32cd" stroke-dasharray="5,2" d="M714.575,-154.401C751.378,-156.543 799.609,-164.665 834,-190 891.421,-232.301 917.517,-321.125 924.791,-350.409"/>
<polygon fill="#9a32cd" stroke="#9a32cd" points="714.667,-150.901 704.519,-153.946 714.35,-157.894 714.667,-150.901"/>
<text text-anchor="middle" x="794" y="-193" font-family="Helvetica,sans-Serif" font-size="10.00"> myDraw</text>
</g>
<!-- Node19 -->
<g id="node19" class="node"><title>Node19</title>
<polygon fill="white" stroke="#bfbfbf" points="352,-147.5 352,-166.5 388,-166.5 388,-147.5 352,-147.5"/>
<text text-anchor="middle" x="370" y="-154.5" font-family="Helvetica,sans-Serif" font-size="10.00">Line</text>
</g>
<!-- Node19&#45;&gt;Node18 -->
<g id="edge20" class="edge"><title>Node19&#45;&gt;Node18</title>
<path fill="none" stroke="#9a32cd" stroke-dasharray="5,2" d="M398.201,-156.675C417.196,-156.458 443.144,-156.18 466,-156 517.265,-155.597 576.19,-155.319 615.308,-155.16"/>
<polygon fill="#9a32cd" stroke="#9a32cd" points="398.12,-153.176 388.162,-156.792 398.202,-160.175 398.12,-153.176"/>
<text text-anchor="middle" x="516" y="-159" font-family="Helvetica,sans-Serif" font-size="10.00"> myPath</text>
</g>
<!-- Node20 -->
<g id="node20" class="node"><title>Node20</title>
<polygon fill="white" stroke="#bfbfbf" points="354,-109.5 354,-128.5 386,-128.5 386,-109.5 354,-109.5"/>
<text text-anchor="middle" x="370" y="-116.5" font-family="Helvetica,sans-Serif" font-size="10.00">File</text>
</g>
<!-- Node20&#45;&gt;Node18 -->
<g id="edge22" class="edge"><title>Node20&#45;&gt;Node18</title>
<path fill="none" stroke="#9a32cd" stroke-dasharray="5,2" d="M396.148,-121.536C433.327,-125.354 505.129,-132.987 566,-141 582.026,-143.11 599.565,-145.681 615.051,-148.042"/>
<polygon fill="#9a32cd" stroke="#9a32cd" points="396.498,-118.054 386.194,-120.52 395.787,-125.018 396.498,-118.054"/>
<text text-anchor="middle" x="516" y="-144" font-family="Helvetica,sans-Serif" font-size="10.00"> myImage</text>
</g>
<!-- Node21 -->
<g id="node21" class="node"><title>Node21</title>
<polygon fill="white" stroke="#bfbfbf" points="349.5,-205.5 349.5,-224.5 390.5,-224.5 390.5,-205.5 349.5,-205.5"/>
<text text-anchor="middle" x="370" y="-212.5" font-family="Helvetica,sans-Serif" font-size="10.00">Color</text>
</g>
<!-- Node21&#45;&gt;Node1 -->
<g id="edge28" class="edge"><title>Node21&#45;&gt;Node1</title>
<path fill="none" stroke="#9a32cd" stroke-dasharray="5,2" d="M398.205,-229.434C441.339,-253.849 524.753,-307.594 566,-378 587.943,-415.456 554.283,-442.356 584,-474 593.471,-484.085 607.462,-489.131 620.802,-491.559"/>
<polygon fill="#9a32cd" stroke="#9a32cd" points="399.834,-226.335 389.393,-224.538 396.435,-232.454 399.834,-226.335"/>
<text text-anchor="middle" x="516" y="-381" font-family="Helvetica,sans-Serif" font-size="10.00"> myBackground</text>
</g>
<!-- Node21&#45;&gt;Node6 -->
<g id="edge24" class="edge"><title>Node21&#45;&gt;Node6</title>
<path fill="none" stroke="#9a32cd" stroke-dasharray="5,2" d="M400.883,-211.181C464.026,-204.094 615.144,-192.335 736,-224 818.3,-245.563 893.525,-322.564 918.372,-350.111"/>
<polygon fill="#9a32cd" stroke="#9a32cd" points="400.357,-207.719 390.831,-212.355 401.169,-214.671 400.357,-207.719"/>
<text text-anchor="middle" x="660" y="-238" font-family="Helvetica,sans-Serif" font-size="10.00"> defColor</text>
<text text-anchor="middle" x="660" y="-227" font-family="Helvetica,sans-Serif" font-size="10.00">myBackColor</text>
</g>
<!-- Node21&#45;&gt;Node18 -->
<g id="edge23" class="edge"><title>Node21&#45;&gt;Node18</title>
<path fill="none" stroke="#9a32cd" stroke-dasharray="5,2" d="M400.251,-206.671C418.963,-201.5 443.804,-194.925 466,-190 517.031,-178.676 576.254,-168.349 615.498,-161.894"/>
<polygon fill="#9a32cd" stroke="#9a32cd" points="399.233,-203.322 390.541,-209.38 401.114,-210.064 399.233,-203.322"/>
<text text-anchor="middle" x="516" y="-193" font-family="Helvetica,sans-Serif" font-size="10.00"> myLineColor</text>
</g>
<!-- Node22&#45;&gt;Node1 -->
<g id="edge25" class="edge"><title>Node22&#45;&gt;Node1</title>
<path fill="none" stroke="#9a32cd" stroke-dasharray="5,2" d="M447.284,-495.941C503.123,-495.165 576.552,-494.145 620.633,-493.533"/>
<polygon fill="#9a32cd" stroke="#9a32cd" points="447.023,-492.444 437.073,-496.082 447.121,-499.443 447.023,-492.444"/>
<text text-anchor="middle" x="516" y="-499" font-family="Helvetica,sans-Serif" font-size="10.00"> myTurtleManager</text>
</g>
<!-- Node23 -->
<g id="node23" class="node"><title>Node23</title>
<polygon fill="white" stroke="#bfbfbf" points="0,-422.5 0,-441.5 164,-441.5 164,-422.5 0,-422.5"/>
<text text-anchor="middle" x="82" y="-429.5" font-family="Helvetica,sans-Serif" font-size="10.00">Stack&lt; Set&lt; model.Turtle &gt; &gt;</text>
</g>
<!-- Node23&#45;&gt;Node22 -->
<g id="edge27" class="edge"><title>Node23&#45;&gt;Node22</title>
<path fill="none" stroke="#9a32cd" stroke-dasharray="5,2" d="M134.803,-443.774C189.893,-456.294 275.967,-475.856 326.995,-487.453"/>
<polygon fill="#9a32cd" stroke="#9a32cd" points="135.42,-440.324 124.893,-441.521 133.869,-447.15 135.42,-440.324"/>
<text text-anchor="middle" x="228" y="-478" font-family="Helvetica,sans-Serif" font-size="10.00"> myStack</text>
</g>
</g>
</svg>
