<?xml version="1.0" encoding="UTF-8" standalone="no"?>
<!DOCTYPE svg PUBLIC "-//W3C//DTD SVG 1.1//EN"
 "http://www.w3.org/Graphics/SVG/1.1/DTD/svg11.dtd">
<!-- Generated by graphviz version 2.36.0 (20140111.2315)
 -->
<!-- Title: commands.SetPenDashCommand.updateTurtle Pages: 1 -->
<!--zoomable 515 -->
<svg id="main" version="1.1" xmlns="http://www.w3.org/2000/svg" xmlns:xlink="http://www.w3.org/1999/xlink" xml:space="preserve" onload="init(evt)">
<style type="text/css"><![CDATA[
.edge:hover path { stroke: red; }
.edge:hover polygon { stroke: red; fill: red; }
]]></style>
<script type="text/javascript"><![CDATA[
var edges = document.getElementsByTagName('g');
if (edges && edges.length) {
  for (var i=0;i<edges.length;i++) {
    if (edges[i].id.substr(0,4)=='edge') {
      edges[i].setAttribute('class','edge');
    }
  }
}
]]></script>
        <defs>
                <circle id="rim" cx="0" cy="0" r="7"/>
                <circle id="rim2" cx="0" cy="0" r="3.5"/>
                <g id="zoomPlus">
                        <use xlink:href="#rim" fill="#404040">
                                <set attributeName="fill" to="#808080" begin="zoomplus.mouseover" end="zoomplus.mouseout"/>
                        </use>
                        <path d="M-4,0h8M0,-4v8" fill="none" stroke="white" stroke-width="1.5" pointer-events="none"/>
                </g>
                <g id="zoomMin">
                        <use xlink:href="#rim" fill="#404040">
                                <set attributeName="fill" to="#808080" begin="zoomminus.mouseover" end="zoomminus.mouseout"/>
                        </use>
                        <path d="M-4,0h8" fill="none" stroke="white" stroke-width="1.5" pointer-events="none"/>
                </g>
                <g id="dirArrow">
                        <path fill="none" stroke="white" stroke-width="1.5" d="M0,-3.0v7 M-2.5,-0.5L0,-3.0L2.5,-0.5"/>
                </g>
               <g id="resetDef">
                       <use xlink:href="#rim2" fill="#404040">
                               <set attributeName="fill" to="#808080" begin="reset.mouseover" end="reset.mouseout"/>
                       </use>
               </g>
        </defs>

<script type="text/javascript">
var viewWidth = 1524;
var viewHeight = 515;
var sectionId = 'dynsection-2';
</script>
<script xlink:href="../../svgpan.js"/>
<svg id="graph" class="graph">
<g id="viewport">
<title>commands.SetPenDashCommand.updateTurtle</title>
<polygon fill="white" stroke="none" points="-4,4 -4,-511 1520,-511 1520,4 -4,4"/>
<!-- Node1 -->
<g id="node1" class="node"><title>Node1</title>
<polygon fill="#bfbfbf" stroke="black" points="0,-376 0,-406 220,-406 220,-376 0,-376"/>
<text text-anchor="start" x="8" y="-394" font-family="Helvetica,sans-Serif" font-size="10.00">commands.SetPenDashCommand.update</text>
<text text-anchor="middle" x="110" y="-383" font-family="Helvetica,sans-Serif" font-size="10.00">Turtle</text>
</g>
<!-- Node2 -->
<g id="node2" class="node"><title>Node2</title>
<g id="a_node2"><a xlink:href="../../dd/dd6/classcommands_1_1_command.html#abafa69601e87c34d4453cf84349d6f9c" target="_top" xlink:title="commands.Command.execute\lCommand">
<polygon fill="white" stroke="black" points="256.5,-406 256.5,-436 421.5,-436 421.5,-406 256.5,-406"/>
<text text-anchor="start" x="264.5" y="-424" font-family="Helvetica,sans-Serif" font-size="10.00">commands.Command.execute</text>
<text text-anchor="middle" x="339" y="-413" font-family="Helvetica,sans-Serif" font-size="10.00">Command</text>
</a>
</g>
</g>
<!-- Node1&#45;&gt;Node2 -->
<g id="edge1" class="edge"><title>Node1&#45;&gt;Node2</title>
<path fill="none" stroke="midnightblue" d="M220.178,-405.429C228.913,-406.583 237.683,-407.742 246.279,-408.878"/>
<polygon fill="midnightblue" stroke="midnightblue" points="245.905,-412.359 256.278,-410.2 246.822,-405.42 245.905,-412.359"/>
</g>
<!-- Node35 -->
<g id="node35" class="node"><title>Node35</title>
<g id="a_node35"><a xlink:href="../../d6/d34/classmodel_1_1_turtle.html#ac921e31900a0f17df37554853aa7680a" target="_top" xlink:title="model.Turtle.setPenDash">
<polygon fill="white" stroke="black" points="271,-351.5 271,-370.5 407,-370.5 407,-351.5 271,-351.5"/>
<text text-anchor="middle" x="339" y="-358.5" font-family="Helvetica,sans-Serif" font-size="10.00">model.Turtle.setPenDash</text>
</a>
</g>
</g>
<!-- Node1&#45;&gt;Node35 -->
<g id="edge41" class="edge"><title>Node1&#45;&gt;Node35</title>
<path fill="none" stroke="midnightblue" d="M220.178,-376.571C233.801,-374.771 247.507,-372.959 260.509,-371.241"/>
<polygon fill="midnightblue" stroke="midnightblue" points="261.316,-374.665 270.771,-369.885 260.398,-367.725 261.316,-374.665"/>
</g>
<!-- Node3 -->
<g id="node3" class="node"><title>Node3</title>
<g id="a_node3"><a xlink:href="../../df/d50/classmodel_1_1_turtle_set_manager.html#a9a65c0be3b9c21abaf0ebaa54e5b8484" target="_top" xlink:title="model.TurtleSetManager.get\lActiveTurtles">
<polygon fill="white" stroke="black" points="944,-450 944,-480 1096,-480 1096,-450 944,-450"/>
<text text-anchor="start" x="952" y="-468" font-family="Helvetica,sans-Serif" font-size="10.00">model.TurtleSetManager.get</text>
<text text-anchor="middle" x="1020" y="-457" font-family="Helvetica,sans-Serif" font-size="10.00">ActiveTurtles</text>
</a>
</g>
</g>
<!-- Node2&#45;&gt;Node3 -->
<g id="edge2" class="edge"><title>Node2&#45;&gt;Node3</title>
<path fill="none" stroke="midnightblue" d="M421.817,-431.401C433.936,-432.74 446.284,-433.993 458,-435 626.209,-449.461 823.429,-458.082 933.525,-462.149"/>
<polygon fill="midnightblue" stroke="midnightblue" points="933.457,-465.649 943.578,-462.516 933.713,-458.653 933.457,-465.649"/>
</g>
<!-- Node4 -->
<g id="node4" class="node"><title>Node4</title>
<g id="a_node4"><a xlink:href="../../d3/d42/classmodel_1_1_model.html#a1a683ba5e58fcb3c8882c8e61df20dc0" target="_top" xlink:title="model.Model.getTurtleManager">
<polygon fill="white" stroke="black" points="938,-411.5 938,-430.5 1102,-430.5 1102,-411.5 938,-411.5"/>
<text text-anchor="middle" x="1020" y="-418.5" font-family="Helvetica,sans-Serif" font-size="10.00">model.Model.getTurtleManager</text>
</a>
</g>
</g>
<!-- Node2&#45;&gt;Node4 -->
<g id="edge3" class="edge"><title>Node2&#45;&gt;Node4</title>
<path fill="none" stroke="midnightblue" d="M421.566,-421C548.974,-421 794.389,-421 927.592,-421"/>
<polygon fill="midnightblue" stroke="midnightblue" points="927.771,-424.5 937.771,-421 927.77,-417.5 927.771,-424.5"/>
</g>
<!-- Node5 -->
<g id="node5" class="node"><title>Node5</title>
<g id="a_node5"><a xlink:href="../../d3/d42/classmodel_1_1_model.html#a76160d002c1e68b566307ac44356f6e5" target="_top" xlink:title="model.Model.notifyView">
<polygon fill="white" stroke="black" points="486.5,-373.5 486.5,-392.5 615.5,-392.5 615.5,-373.5 486.5,-373.5"/>
<text text-anchor="middle" x="551" y="-380.5" font-family="Helvetica,sans-Serif" font-size="10.00">model.Model.notifyView</text>
</a>
</g>
</g>
<!-- Node2&#45;&gt;Node5 -->
<g id="edge4" class="edge"><title>Node2&#45;&gt;Node5</title>
<path fill="none" stroke="midnightblue" d="M421.793,-406.199C443.665,-402.242 466.952,-398.028 487.594,-394.293"/>
<polygon fill="midnightblue" stroke="midnightblue" points="488.28,-397.725 497.497,-392.501 487.034,-390.837 488.28,-397.725"/>
</g>
<!-- Node34 -->
<g id="node34" class="node"><title>Node34</title>
<g id="a_node34"><a xlink:href="../../dd/dd6/classcommands_1_1_command.html#aec3e0f888945b1811fd739ecea212324" target="_top" xlink:title="commands.Command.updateTurtle">
<polygon fill="white" stroke="black" points="458,-487.5 458,-506.5 644,-506.5 644,-487.5 458,-487.5"/>
<text text-anchor="middle" x="551" y="-494.5" font-family="Helvetica,sans-Serif" font-size="10.00">commands.Command.updateTurtle</text>
</a>
</g>
</g>
<!-- Node2&#45;&gt;Node34 -->
<g id="edge40" class="edge"><title>Node2&#45;&gt;Node34</title>
<path fill="none" stroke="midnightblue" d="M370.514,-436.062C394.026,-447.27 427.556,-462.397 458,-473 470.67,-477.413 484.57,-481.443 497.64,-484.888"/>
<polygon fill="midnightblue" stroke="midnightblue" points="496.883,-488.307 507.439,-487.406 498.624,-481.527 496.883,-488.307"/>
</g>
<!-- Node6 -->
<g id="node6" class="node"><title>Node6</title>
<g id="a_node6"><a xlink:href="../../db/db5/classview_1_1panes_1_1_view_pane_module.html#aa2a1bf15bc036ee4237bf63749d85baf" target="_top" xlink:title="view.panes.ViewPaneModule.updateView">
<polygon fill="white" stroke="black" points="680.5,-244.5 680.5,-263.5 889.5,-263.5 889.5,-244.5 680.5,-244.5"/>
<text text-anchor="middle" x="785" y="-251.5" font-family="Helvetica,sans-Serif" font-size="10.00">view.panes.ViewPaneModule.updateView</text>
</a>
</g>
</g>
<!-- Node5&#45;&gt;Node6 -->
<g id="edge5" class="edge"><title>Node5&#45;&gt;Node6</title>
<path fill="none" stroke="midnightblue" d="M615.601,-373.891C625.356,-371.356 635.125,-368.122 644,-364 694.593,-340.501 743.429,-295.468 767.843,-270.94"/>
<polygon fill="midnightblue" stroke="midnightblue" points="770.387,-273.344 774.882,-263.75 765.385,-268.447 770.387,-273.344"/>
</g>
<!-- Node6&#45;&gt;Node3 -->
<g id="edge10" class="edge"><title>Node6&#45;&gt;Node3</title>
<path fill="none" stroke="midnightblue" d="M790.485,-263.902C805.117,-295.048 854.663,-391.812 926,-440 928.929,-441.978 932.008,-443.801 935.193,-445.479"/>
<polygon fill="midnightblue" stroke="midnightblue" points="933.875,-448.727 944.412,-449.838 936.867,-442.399 933.875,-448.727"/>
</g>
<!-- Node6&#45;&gt;Node4 -->
<g id="edge9" class="edge"><title>Node6&#45;&gt;Node4</title>
<path fill="none" stroke="midnightblue" d="M792.175,-263.786C809.598,-290.518 862.052,-365.162 926,-401 930.862,-403.725 936.059,-406.079 941.417,-408.113"/>
<polygon fill="midnightblue" stroke="midnightblue" points="940.605,-411.533 951.2,-411.438 942.858,-404.906 940.605,-411.533"/>
</g>
<!-- Node7 -->
<g id="node7" class="node"><title>Node7</title>
<g id="a_node7"><a xlink:href="../../d3/d42/classmodel_1_1_model.html#a54936407d7df5ab8ef3c0ae54bcdc0ed" target="_top" xlink:title="model.Model.getBackground\lColor">
<polygon fill="white" stroke="black" points="943,-264 943,-294 1097,-294 1097,-264 943,-264"/>
<text text-anchor="start" x="951" y="-282" font-family="Helvetica,sans-Serif" font-size="10.00">model.Model.getBackground</text>
<text text-anchor="middle" x="1020" y="-271" font-family="Helvetica,sans-Serif" font-size="10.00">Color</text>
</a>
</g>
</g>
<!-- Node6&#45;&gt;Node7 -->
<g id="edge6" class="edge"><title>Node6&#45;&gt;Node7</title>
<path fill="none" stroke="midnightblue" d="M874.752,-263.523C893.72,-265.558 913.73,-267.705 932.608,-269.73"/>
<polygon fill="midnightblue" stroke="midnightblue" points="932.348,-273.223 942.664,-270.809 933.095,-266.263 932.348,-273.223"/>
</g>
<!-- Node8 -->
<g id="node8" class="node"><title>Node8</title>
<g id="a_node8"><a xlink:href="../../db/db5/classview_1_1panes_1_1_view_pane_module.html#ac94ee444587349ddad19b8caee500c9c" target="_top" xlink:title="view.panes.ViewPaneModule.update\lBGColor">
<polygon fill="white" stroke="black" points="926,-215 926,-245 1114,-245 1114,-215 926,-215"/>
<text text-anchor="start" x="934" y="-233" font-family="Helvetica,sans-Serif" font-size="10.00">view.panes.ViewPaneModule.update</text>
<text text-anchor="middle" x="1020" y="-222" font-family="Helvetica,sans-Serif" font-size="10.00">BGColor</text>
</a>
</g>
</g>
<!-- Node6&#45;&gt;Node8 -->
<g id="edge7" class="edge"><title>Node6&#45;&gt;Node8</title>
<path fill="none" stroke="midnightblue" d="M878.422,-244.48C890.754,-243.21 903.461,-241.901 915.96,-240.614"/>
<polygon fill="midnightblue" stroke="midnightblue" points="916.338,-244.093 925.927,-239.587 915.621,-237.13 916.338,-244.093"/>
</g>
<!-- Node9 -->
<g id="node9" class="node"><title>Node9</title>
<g id="a_node9"><a xlink:href="../../db/db5/classview_1_1panes_1_1_view_pane_module.html#abe91f8bb732e99d762bdaba51ceae04b" target="_top" xlink:title="view.panes.ViewPaneModule.toRGB">
<polygon fill="white" stroke="black" points="928,-176.5 928,-195.5 1112,-195.5 1112,-176.5 928,-176.5"/>
<text text-anchor="middle" x="1020" y="-183.5" font-family="Helvetica,sans-Serif" font-size="10.00">view.panes.ViewPaneModule.toRGB</text>
</a>
</g>
</g>
<!-- Node6&#45;&gt;Node9 -->
<g id="edge8" class="edge"><title>Node6&#45;&gt;Node9</title>
<path fill="none" stroke="midnightblue" d="M809.966,-244.496C837.597,-233.802 884.543,-216.433 926,-205 935.651,-202.338 945.959,-199.87 956.068,-197.653"/>
<polygon fill="midnightblue" stroke="midnightblue" points="957.027,-201.027 966.079,-195.522 955.57,-194.181 957.027,-201.027"/>
</g>
<!-- Node10 -->
<g id="node10" class="node"><title>Node10</title>
<g id="a_node10"><a xlink:href="../../df/d50/classmodel_1_1_turtle_set_manager.html#a9e215e93eccbed2ab9ebec6119cfe305" target="_top" xlink:title="model.TurtleSetManager.get\lAllTurtles">
<polygon fill="white" stroke="black" points="944,-127 944,-157 1096,-157 1096,-127 944,-127"/>
<text text-anchor="start" x="952" y="-145" font-family="Helvetica,sans-Serif" font-size="10.00">model.TurtleSetManager.get</text>
<text text-anchor="middle" x="1020" y="-134" font-family="Helvetica,sans-Serif" font-size="10.00">AllTurtles</text>
</a>
</g>
</g>
<!-- Node6&#45;&gt;Node10 -->
<g id="edge11" class="edge"><title>Node6&#45;&gt;Node10</title>
<path fill="none" stroke="midnightblue" d="M798.796,-244.229C822.605,-226.475 875.858,-188.753 926,-167 931.637,-164.555 937.572,-162.296 943.603,-160.221"/>
<polygon fill="midnightblue" stroke="midnightblue" points="944.71,-163.542 953.131,-157.112 942.539,-156.887 944.71,-163.542"/>
</g>
<!-- Node11 -->
<g id="node11" class="node"><title>Node11</title>
<g id="a_node11"><a xlink:href="../../d3/d42/classmodel_1_1_model.html#af73e838aed2c068e8f7d31bfa1cc88d7" target="_top" xlink:title="model.Model.getStamp">
<polygon fill="white" stroke="black" points="955.5,-88.5 955.5,-107.5 1084.5,-107.5 1084.5,-88.5 955.5,-88.5"/>
<text text-anchor="middle" x="1020" y="-95.5" font-family="Helvetica,sans-Serif" font-size="10.00">model.Model.getStamp</text>
</a>
</g>
</g>
<!-- Node6&#45;&gt;Node11 -->
<g id="edge12" class="edge"><title>Node6&#45;&gt;Node11</title>
<path fill="none" stroke="midnightblue" d="M792.59,-244.492C810.663,-219.21 863.824,-150.008 926,-117 932.063,-113.781 938.616,-111.107 945.338,-108.885"/>
<polygon fill="midnightblue" stroke="midnightblue" points="946.676,-112.139 955.27,-105.943 944.688,-105.427 946.676,-112.139"/>
</g>
<!-- Node12 -->
<g id="node12" class="node"><title>Node12</title>
<g id="a_node12"><a xlink:href="../../db/db5/classview_1_1panes_1_1_view_pane_module.html#a44db6ae832af3ce470baa9406142b8cb" target="_top" xlink:title="view.panes.ViewPaneModule.make\lStamps">
<polygon fill="white" stroke="black" points="929.5,-39 929.5,-69 1110.5,-69 1110.5,-39 929.5,-39"/>
<text text-anchor="start" x="937.5" y="-57" font-family="Helvetica,sans-Serif" font-size="10.00">view.panes.ViewPaneModule.make</text>
<text text-anchor="middle" x="1020" y="-46" font-family="Helvetica,sans-Serif" font-size="10.00">Stamps</text>
</a>
</g>
</g>
<!-- Node6&#45;&gt;Node12 -->
<g id="edge13" class="edge"><title>Node6&#45;&gt;Node12</title>
<path fill="none" stroke="midnightblue" d="M790.868,-244.27C806.262,-214.536 856.974,-124.158 926,-79 929.122,-76.9577 932.406,-75.0815 935.8,-73.358"/>
<polygon fill="midnightblue" stroke="midnightblue" points="937.372,-76.488 945.007,-69.143 934.458,-70.1233 937.372,-76.488"/>
</g>
<!-- Node19 -->
<g id="node19" class="node"><title>Node19</title>
<g id="a_node19"><a xlink:href="../../d3/d42/classmodel_1_1_model.html#a0a457f31350a460e11dc864463e0d8ff" target="_top" xlink:title="model.Model.setStamp">
<polygon fill="white" stroke="black" points="956,-0.5 956,-19.5 1084,-19.5 1084,-0.5 956,-0.5"/>
<text text-anchor="middle" x="1020" y="-7.5" font-family="Helvetica,sans-Serif" font-size="10.00">model.Model.setStamp</text>
</a>
</g>
</g>
<!-- Node6&#45;&gt;Node19 -->
<g id="edge20" class="edge"><title>Node6&#45;&gt;Node19</title>
<path fill="none" stroke="midnightblue" d="M788.896,-244.385C800.036,-209.166 843.671,-86.28 926,-29 932.045,-24.7942 938.814,-21.4778 945.869,-18.8684"/>
<polygon fill="midnightblue" stroke="midnightblue" points="947.177,-22.1242 955.626,-15.7312 945.034,-15.4602 947.177,-22.1242"/>
</g>
<!-- Node20 -->
<g id="node20" class="node"><title>Node20</title>
<g id="a_node20"><a xlink:href="../../db/db5/classview_1_1panes_1_1_view_pane_module.html#a7ad9ad27137ffdf0ea96753a22da236b" target="_top" xlink:title="view.panes.ViewPaneModule.erase\lStamps">
<polygon fill="white" stroke="black" points="929.5,-362 929.5,-392 1110.5,-392 1110.5,-362 929.5,-362"/>
<text text-anchor="start" x="937.5" y="-380" font-family="Helvetica,sans-Serif" font-size="10.00">view.panes.ViewPaneModule.erase</text>
<text text-anchor="middle" x="1020" y="-369" font-family="Helvetica,sans-Serif" font-size="10.00">Stamps</text>
</a>
</g>
</g>
<!-- Node6&#45;&gt;Node20 -->
<g id="edge21" class="edge"><title>Node6&#45;&gt;Node20</title>
<path fill="none" stroke="midnightblue" d="M796.783,-263.574C819.234,-283.026 873.306,-327.407 926,-352 931.241,-354.446 936.764,-356.688 942.397,-358.735"/>
<polygon fill="midnightblue" stroke="midnightblue" points="941.355,-362.078 951.949,-362 943.619,-355.454 941.355,-362.078"/>
</g>
<!-- Node22 -->
<g id="node22" class="node"><title>Node22</title>
<g id="a_node22"><a xlink:href="../../db/db5/classview_1_1panes_1_1_view_pane_module.html#ab55ce3511929b88a2cd1235eb694868f" target="_top" xlink:title="view.panes.ViewPaneModule.update\lTurtle">
<polygon fill="white" stroke="black" points="926,-313 926,-343 1114,-343 1114,-313 926,-313"/>
<text text-anchor="start" x="934" y="-331" font-family="Helvetica,sans-Serif" font-size="10.00">view.panes.ViewPaneModule.update</text>
<text text-anchor="middle" x="1020" y="-320" font-family="Helvetica,sans-Serif" font-size="10.00">Turtle</text>
</a>
</g>
</g>
<!-- Node6&#45;&gt;Node22 -->
<g id="edge23" class="edge"><title>Node6&#45;&gt;Node22</title>
<path fill="none" stroke="midnightblue" d="M811.359,-263.512C839.261,-273.829 885.527,-290.496 926,-303 933.922,-305.447 942.265,-307.885 950.568,-310.224"/>
<polygon fill="midnightblue" stroke="midnightblue" points="949.698,-313.615 960.27,-312.92 951.572,-306.871 949.698,-313.615"/>
</g>
<!-- Node13 -->
<g id="node13" class="node"><title>Node13</title>
<g id="a_node13"><a xlink:href="../../d7/da6/classview_1_1_turtle_draw.html#a939f4fdbdb66457c9dcee82eb4ae6d9c" target="_top" xlink:title="view.TurtleDraw.drawTurtle">
<polygon fill="white" stroke="black" points="1158.5,-67.5 1158.5,-86.5 1297.5,-86.5 1297.5,-67.5 1158.5,-67.5"/>
<text text-anchor="middle" x="1228" y="-74.5" font-family="Helvetica,sans-Serif" font-size="10.00">view.TurtleDraw.drawTurtle</text>
</a>
</g>
</g>
<!-- Node12&#45;&gt;Node13 -->
<g id="edge14" class="edge"><title>Node12&#45;&gt;Node13</title>
<path fill="none" stroke="midnightblue" d="M1110.76,-64.0212C1123.21,-65.4115 1135.92,-66.831 1148.15,-68.1968"/>
<polygon fill="midnightblue" stroke="midnightblue" points="1147.97,-71.6983 1158.3,-69.3296 1148.75,-64.7415 1147.97,-71.6983"/>
</g>
<!-- Node16 -->
<g id="node16" class="node"><title>Node16</title>
<g id="a_node16"><a xlink:href="../../d7/da6/classview_1_1_turtle_draw.html#a14678068d3fc9d3b6e1067bc372f6030" target="_top" xlink:title="view.TurtleDraw.showTurtle">
<polygon fill="white" stroke="black" points="1158,-29.5 1158,-48.5 1298,-48.5 1298,-29.5 1158,-29.5"/>
<text text-anchor="middle" x="1228" y="-36.5" font-family="Helvetica,sans-Serif" font-size="10.00">view.TurtleDraw.showTurtle</text>
</a>
</g>
</g>
<!-- Node12&#45;&gt;Node16 -->
<g id="edge17" class="edge"><title>Node12&#45;&gt;Node16</title>
<path fill="none" stroke="midnightblue" d="M1110.76,-47.4644C1123.12,-46.5639 1135.75,-45.6445 1147.9,-44.7594"/>
<polygon fill="midnightblue" stroke="midnightblue" points="1148.27,-48.2422 1157.99,-44.0251 1147.76,-41.2607 1148.27,-48.2422"/>
</g>
<!-- Node17 -->
<g id="node17" class="node"><title>Node17</title>
<g id="a_node17"><a xlink:href="../../d7/da6/classview_1_1_turtle_draw.html#a8c2cab38eb294b26aea1ae17595ba2a6" target="_top" xlink:title="view.TurtleDraw.moveTurtle">
<polygon fill="white" stroke="black" points="1156.5,-143.5 1156.5,-162.5 1299.5,-162.5 1299.5,-143.5 1156.5,-143.5"/>
<text text-anchor="middle" x="1228" y="-150.5" font-family="Helvetica,sans-Serif" font-size="10.00">view.TurtleDraw.moveTurtle</text>
</a>
</g>
</g>
<!-- Node12&#45;&gt;Node17 -->
<g id="edge18" class="edge"><title>Node12&#45;&gt;Node17</title>
<path fill="none" stroke="midnightblue" d="M1096.8,-69.1906C1102.89,-71.9348 1108.72,-75.1748 1114,-79 1137.66,-96.1392 1126.16,-117.106 1150,-134 1152.84,-136.012 1155.87,-137.811 1159.02,-139.421"/>
<polygon fill="midnightblue" stroke="midnightblue" points="1157.62,-142.629 1168.18,-143.474 1160.45,-136.227 1157.62,-142.629"/>
</g>
<!-- Node18 -->
<g id="node18" class="node"><title>Node18</title>
<g id="a_node18"><a xlink:href="../../d7/da6/classview_1_1_turtle_draw.html#a5004a16526a67f090d7da45474b5136e" target="_top" xlink:title="view.TurtleDraw.setAngle">
<polygon fill="white" stroke="black" points="1161.5,-105.5 1161.5,-124.5 1294.5,-124.5 1294.5,-105.5 1161.5,-105.5"/>
<text text-anchor="middle" x="1228" y="-112.5" font-family="Helvetica,sans-Serif" font-size="10.00">view.TurtleDraw.setAngle</text>
</a>
</g>
</g>
<!-- Node12&#45;&gt;Node18 -->
<g id="edge19" class="edge"><title>Node12&#45;&gt;Node18</title>
<path fill="none" stroke="midnightblue" d="M1083.02,-69.0126C1093.46,-72.0119 1104.11,-75.3695 1114,-79 1130.61,-85.0988 1133.33,-90.0733 1150,-96 1157.04,-98.5012 1164.55,-100.795 1172.02,-102.858"/>
<polygon fill="midnightblue" stroke="midnightblue" points="1171.2,-106.264 1181.77,-105.434 1172.99,-99.4958 1171.2,-106.264"/>
</g>
<!-- Node14 -->
<g id="node14" class="node"><title>Node14</title>
<g id="a_node14"><a xlink:href="../../d6/d34/classmodel_1_1_turtle.html#a942dbeb1d7e2bc19b6870538c2c3a7d2" target="_top" xlink:title="model.Turtle.getShape">
<polygon fill="white" stroke="black" points="1366.5,-89.5 1366.5,-108.5 1491.5,-108.5 1491.5,-89.5 1366.5,-89.5"/>
<text text-anchor="middle" x="1429" y="-96.5" font-family="Helvetica,sans-Serif" font-size="10.00">model.Turtle.getShape</text>
</a>
</g>
</g>
<!-- Node13&#45;&gt;Node14 -->
<g id="edge15" class="edge"><title>Node13&#45;&gt;Node14</title>
<path fill="none" stroke="midnightblue" d="M1297.76,-84.602C1316.62,-86.6865 1337.11,-88.9515 1356.13,-91.0547"/>
<polygon fill="midnightblue" stroke="midnightblue" points="1355.91,-94.5509 1366.23,-92.1711 1356.67,-87.5933 1355.91,-94.5509"/>
</g>
<!-- Node15 -->
<g id="node15" class="node"><title>Node15</title>
<g id="a_node15"><a xlink:href="../../d3/db7/classview_1_1controllers_1_1_image_palette.html#a8a6620714bc12d5a00b97e99299a7040" target="_top" xlink:title="view.controllers.ImagePalette.get\lImage">
<polygon fill="white" stroke="black" points="1342,-40 1342,-70 1516,-70 1516,-40 1342,-40"/>
<text text-anchor="start" x="1350" y="-58" font-family="Helvetica,sans-Serif" font-size="10.00">view.controllers.ImagePalette.get</text>
<text text-anchor="middle" x="1429" y="-47" font-family="Helvetica,sans-Serif" font-size="10.00">Image</text>
</a>
</g>
</g>
<!-- Node13&#45;&gt;Node15 -->
<g id="edge16" class="edge"><title>Node13&#45;&gt;Node15</title>
<path fill="none" stroke="midnightblue" d="M1297.76,-69.398C1308.71,-68.1877 1320.21,-66.9165 1331.65,-65.6514"/>
<polygon fill="midnightblue" stroke="midnightblue" points="1332.13,-69.1206 1341.68,-64.5429 1331.36,-62.163 1332.13,-69.1206"/>
</g>
<!-- Node21 -->
<g id="node21" class="node"><title>Node21</title>
<g id="a_node21"><a xlink:href="../../d7/da6/classview_1_1_turtle_draw.html#acb97dedda080cb5ed17031d2b31adc2c" target="_top" xlink:title="view.TurtleDraw.hideTurtle">
<polygon fill="white" stroke="black" points="1159.5,-485.5 1159.5,-504.5 1296.5,-504.5 1296.5,-485.5 1159.5,-485.5"/>
<text text-anchor="middle" x="1228" y="-492.5" font-family="Helvetica,sans-Serif" font-size="10.00">view.TurtleDraw.hideTurtle</text>
</a>
</g>
</g>
<!-- Node20&#45;&gt;Node21 -->
<g id="edge22" class="edge"><title>Node20&#45;&gt;Node21</title>
<path fill="none" stroke="midnightblue" d="M1098.72,-392.164C1104.18,-394.918 1109.36,-398.167 1114,-402 1142.2,-425.29 1121.56,-453.003 1150,-476 1152.26,-477.826 1154.67,-479.48 1157.19,-480.979"/>
<polygon fill="midnightblue" stroke="midnightblue" points="1155.62,-484.107 1166.12,-485.495 1158.77,-477.86 1155.62,-484.107"/>
</g>
<!-- Node22&#45;&gt;Node13 -->
<g id="edge25" class="edge"><title>Node22&#45;&gt;Node13</title>
<path fill="none" stroke="midnightblue" d="M1102.14,-312.879C1106.49,-310.093 1110.5,-306.827 1114,-303 1176.98,-234.053 1086.31,-164.292 1150,-96 1151.23,-94.6847 1152.53,-93.4541 1153.9,-92.303"/>
<polygon fill="midnightblue" stroke="midnightblue" points="1156.06,-95.0665 1162.35,-86.544 1152.11,-89.2813 1156.06,-95.0665"/>
</g>
<!-- Node22&#45;&gt;Node16 -->
<g id="edge26" class="edge"><title>Node22&#45;&gt;Node16</title>
<path fill="none" stroke="midnightblue" d="M1102.26,-312.985C1106.58,-310.173 1110.56,-306.872 1114,-303 1187.15,-220.771 1076,-139.468 1150,-58 1151.07,-56.8215 1152.2,-55.7107 1153.38,-54.6639"/>
<polygon fill="midnightblue" stroke="midnightblue" points="1155.74,-57.2816 1161.88,-48.6446 1151.7,-51.5698 1155.74,-57.2816"/>
</g>
<!-- Node22&#45;&gt;Node17 -->
<g id="edge39" class="edge"><title>Node22&#45;&gt;Node17</title>
<path fill="none" stroke="midnightblue" d="M1100.86,-312.995C1105.64,-310.193 1110.09,-306.89 1114,-303 1156.81,-260.424 1106.75,-214.131 1150,-172 1151.48,-170.559 1153.05,-169.221 1154.7,-167.98"/>
<polygon fill="midnightblue" stroke="midnightblue" points="1156.82,-170.784 1163.48,-162.546 1153.13,-164.832 1156.82,-170.784"/>
</g>
<!-- Node22&#45;&gt;Node18 -->
<g id="edge37" class="edge"><title>Node22&#45;&gt;Node18</title>
<path fill="none" stroke="midnightblue" d="M1101.55,-312.99C1106.1,-310.183 1110.32,-306.881 1114,-303 1166.85,-247.284 1096.57,-189.166 1150,-134 1151.25,-132.708 1152.58,-131.498 1153.96,-130.366"/>
<polygon fill="midnightblue" stroke="midnightblue" points="1156.11,-133.14 1162.5,-124.692 1152.24,-127.309 1156.11,-133.14"/>
</g>
<!-- Node22&#45;&gt;Node21 -->
<g id="edge27" class="edge"><title>Node22&#45;&gt;Node21</title>
<path fill="none" stroke="midnightblue" d="M1102.5,-343.202C1106.65,-345.72 1110.53,-348.632 1114,-352 1155.18,-391.965 1108.61,-436.254 1150,-476 1151.49,-477.43 1153.07,-478.759 1154.72,-479.991"/>
<polygon fill="midnightblue" stroke="midnightblue" points="1153.18,-483.152 1163.54,-485.394 1156.84,-477.184 1153.18,-483.152"/>
</g>
<!-- Node23 -->
<g id="node23" class="node"><title>Node23</title>
<g id="a_node23"><a xlink:href="../../d6/d34/classmodel_1_1_turtle.html#ae79a1eae7eed55d121c3b85299ae14ba" target="_top" xlink:title="model.Turtle.getID">
<polygon fill="white" stroke="black" points="1176,-257.5 1176,-276.5 1280,-276.5 1280,-257.5 1176,-257.5"/>
<text text-anchor="middle" x="1228" y="-264.5" font-family="Helvetica,sans-Serif" font-size="10.00">model.Turtle.getID</text>
</a>
</g>
</g>
<!-- Node22&#45;&gt;Node23 -->
<g id="edge24" class="edge"><title>Node22&#45;&gt;Node23</title>
<path fill="none" stroke="midnightblue" d="M1083.02,-312.987C1093.46,-309.988 1104.11,-306.63 1114,-303 1130.61,-296.901 1133.33,-291.927 1150,-286 1157.04,-283.499 1164.55,-281.205 1172.02,-279.142"/>
<polygon fill="midnightblue" stroke="midnightblue" points="1172.99,-282.504 1181.77,-276.566 1171.2,-275.736 1172.99,-282.504"/>
</g>
<!-- Node24 -->
<g id="node24" class="node"><title>Node24</title>
<g id="a_node24"><a xlink:href="../../d6/d34/classmodel_1_1_turtle.html#a279f2bdb3fa955acdd52b7824ec3cd04" target="_top" xlink:title="model.Turtle.getPenStatus">
<polygon fill="white" stroke="black" points="1156.5,-219.5 1156.5,-238.5 1299.5,-238.5 1299.5,-219.5 1156.5,-219.5"/>
<text text-anchor="middle" x="1228" y="-226.5" font-family="Helvetica,sans-Serif" font-size="10.00">model.Turtle.getPenStatus</text>
</a>
</g>
</g>
<!-- Node22&#45;&gt;Node24 -->
<g id="edge28" class="edge"><title>Node22&#45;&gt;Node24</title>
<path fill="none" stroke="midnightblue" d="M1096.8,-312.809C1102.89,-310.065 1108.72,-306.825 1114,-303 1137.66,-285.861 1126.16,-264.894 1150,-248 1152.84,-245.988 1155.87,-244.189 1159.02,-242.579"/>
<polygon fill="midnightblue" stroke="midnightblue" points="1160.45,-245.773 1168.18,-238.526 1157.62,-239.371 1160.45,-245.773"/>
</g>
<!-- Node26 -->
<g id="node26" class="node"><title>Node26</title>
<g id="a_node26"><a xlink:href="../../d7/da6/classview_1_1_turtle_draw.html#a1325ca376115619f15f5014eb4c5ad2a" target="_top" xlink:title="view.TurtleDraw.drawLine">
<polygon fill="white" stroke="black" points="1161.5,-181.5 1161.5,-200.5 1294.5,-200.5 1294.5,-181.5 1161.5,-181.5"/>
<text text-anchor="middle" x="1228" y="-188.5" font-family="Helvetica,sans-Serif" font-size="10.00">view.TurtleDraw.drawLine</text>
</a>
</g>
</g>
<!-- Node22&#45;&gt;Node26 -->
<g id="edge30" class="edge"><title>Node22&#45;&gt;Node26</title>
<path fill="none" stroke="midnightblue" d="M1099.98,-312.777C1105.03,-310.031 1109.77,-306.799 1114,-303 1146.97,-273.376 1116.73,-239.282 1150,-210 1151.76,-208.448 1153.63,-207.018 1155.59,-205.702"/>
<polygon fill="midnightblue" stroke="midnightblue" points="1157.63,-208.57 1164.64,-200.624 1154.2,-202.465 1157.63,-208.57"/>
</g>
<!-- Node27 -->
<g id="node27" class="node"><title>Node27</title>
<g id="a_node27"><a xlink:href="../../d6/d34/classmodel_1_1_turtle.html#a832234461564763f8330181b3c1163ff" target="_top" xlink:title="model.Turtle.getPrevLocation">
<polygon fill="white" stroke="black" points="1150.5,-447.5 1150.5,-466.5 1305.5,-466.5 1305.5,-447.5 1150.5,-447.5"/>
<text text-anchor="middle" x="1228" y="-454.5" font-family="Helvetica,sans-Serif" font-size="10.00">model.Turtle.getPrevLocation</text>
</a>
</g>
</g>
<!-- Node22&#45;&gt;Node27 -->
<g id="edge31" class="edge"><title>Node22&#45;&gt;Node27</title>
<path fill="none" stroke="midnightblue" d="M1101.18,-343.19C1105.77,-345.701 1110.09,-348.617 1114,-352 1145.33,-379.118 1118.53,-411.049 1150,-438 1151.97,-439.685 1154.06,-441.225 1156.25,-442.632"/>
<polygon fill="midnightblue" stroke="midnightblue" points="1154.67,-445.752 1165.13,-447.426 1157.99,-439.593 1154.67,-445.752"/>
</g>
<!-- Node28 -->
<g id="node28" class="node"><title>Node28</title>
<g id="a_node28"><a xlink:href="../../d6/d34/classmodel_1_1_turtle.html#a2470b9b4ef48a261324047de8ebdc242" target="_top" xlink:title="model.Turtle.getNewLocation">
<polygon fill="white" stroke="black" points="1150.5,-409.5 1150.5,-428.5 1305.5,-428.5 1305.5,-409.5 1150.5,-409.5"/>
<text text-anchor="middle" x="1228" y="-416.5" font-family="Helvetica,sans-Serif" font-size="10.00">model.Turtle.getNewLocation</text>
</a>
</g>
</g>
<!-- Node22&#45;&gt;Node28 -->
<g id="edge32" class="edge"><title>Node22&#45;&gt;Node28</title>
<path fill="none" stroke="midnightblue" d="M1097.48,-343.106C1103.29,-345.626 1108.87,-348.568 1114,-352 1136.16,-366.835 1127.76,-385.283 1150,-400 1153.11,-402.059 1156.43,-403.895 1159.87,-405.532"/>
<polygon fill="midnightblue" stroke="midnightblue" points="1158.64,-408.811 1169.22,-409.417 1161.32,-402.347 1158.64,-408.811"/>
</g>
<!-- Node29 -->
<g id="node29" class="node"><title>Node29</title>
<g id="a_node29"><a xlink:href="../../d6/d34/classmodel_1_1_turtle.html#a19c059b1cbfbd4e8f046ec2403de3fb9" target="_top" xlink:title="model.Turtle.getPenDash">
<polygon fill="white" stroke="black" points="1159.5,-371.5 1159.5,-390.5 1296.5,-390.5 1296.5,-371.5 1159.5,-371.5"/>
<text text-anchor="middle" x="1228" y="-378.5" font-family="Helvetica,sans-Serif" font-size="10.00">model.Turtle.getPenDash</text>
</a>
</g>
</g>
<!-- Node22&#45;&gt;Node29 -->
<g id="edge33" class="edge"><title>Node22&#45;&gt;Node29</title>
<path fill="none" stroke="midnightblue" d="M1080.08,-343.072C1091.35,-345.997 1103.05,-349.066 1114,-352 1130.04,-356.297 1133.94,-357.788 1150,-362 1158.9,-364.334 1168.4,-366.744 1177.58,-369.031"/>
<polygon fill="midnightblue" stroke="midnightblue" points="1176.83,-372.45 1187.38,-371.456 1178.51,-365.655 1176.83,-372.45"/>
</g>
<!-- Node31 -->
<g id="node31" class="node"><title>Node31</title>
<g id="a_node31"><a xlink:href="../../d6/d34/classmodel_1_1_turtle.html#a193c156784f783064ae533b619b6be6e" target="_top" xlink:title="model.Turtle.getPenColor">
<polygon fill="white" stroke="black" points="1159.5,-333.5 1159.5,-352.5 1296.5,-352.5 1296.5,-333.5 1159.5,-333.5"/>
<text text-anchor="middle" x="1228" y="-340.5" font-family="Helvetica,sans-Serif" font-size="10.00">model.Turtle.getPenColor</text>
</a>
</g>
</g>
<!-- Node22&#45;&gt;Node31 -->
<g id="edge35" class="edge"><title>Node22&#45;&gt;Node31</title>
<path fill="none" stroke="midnightblue" d="M1114.06,-334.776C1125.85,-335.635 1137.82,-336.506 1149.33,-337.345"/>
<polygon fill="midnightblue" stroke="midnightblue" points="1149.1,-340.837 1159.32,-338.072 1149.61,-333.855 1149.1,-340.837"/>
</g>
<!-- Node33 -->
<g id="node33" class="node"><title>Node33</title>
<g id="a_node33"><a xlink:href="../../d6/d34/classmodel_1_1_turtle.html#a1c5d07962ede5fbfacc59413274d4300" target="_top" xlink:title="model.Turtle.getHeading">
<polygon fill="white" stroke="black" points="1161,-295.5 1161,-314.5 1295,-314.5 1295,-295.5 1161,-295.5"/>
<text text-anchor="middle" x="1228" y="-302.5" font-family="Helvetica,sans-Serif" font-size="10.00">model.Turtle.getHeading</text>
</a>
</g>
</g>
<!-- Node22&#45;&gt;Node33 -->
<g id="edge38" class="edge"><title>Node22&#45;&gt;Node33</title>
<path fill="none" stroke="midnightblue" d="M1114.06,-317.61C1126.38,-316.234 1138.9,-314.836 1150.9,-313.496"/>
<polygon fill="midnightblue" stroke="midnightblue" points="1151.29,-316.975 1160.84,-312.387 1150.51,-310.018 1151.29,-316.975"/>
</g>
<!-- Node25 -->
<g id="node25" class="node"><title>Node25</title>
<g id="a_node25"><a xlink:href="../../de/ded/classmodel_1_1_pen.html#afad4fb3e51847cacab72c036ddaa108f" target="_top" xlink:title="model.Pen.getStatus">
<polygon fill="white" stroke="black" points="1370,-219.5 1370,-238.5 1488,-238.5 1488,-219.5 1370,-219.5"/>
<text text-anchor="middle" x="1429" y="-226.5" font-family="Helvetica,sans-Serif" font-size="10.00">model.Pen.getStatus</text>
</a>
</g>
</g>
<!-- Node24&#45;&gt;Node25 -->
<g id="edge29" class="edge"><title>Node24&#45;&gt;Node25</title>
<path fill="none" stroke="midnightblue" d="M1299.72,-229C1319.23,-229 1340.35,-229 1359.72,-229"/>
<polygon fill="midnightblue" stroke="midnightblue" points="1359.97,-232.5 1369.97,-229 1359.97,-225.5 1359.97,-232.5"/>
</g>
<!-- Node30 -->
<g id="node30" class="node"><title>Node30</title>
<g id="a_node30"><a xlink:href="../../de/ded/classmodel_1_1_pen.html#a6999f4af56377415621f193ef8600e27" target="_top" xlink:title="model.Pen.getDash">
<polygon fill="white" stroke="black" points="1373.5,-371.5 1373.5,-390.5 1484.5,-390.5 1484.5,-371.5 1373.5,-371.5"/>
<text text-anchor="middle" x="1429" y="-378.5" font-family="Helvetica,sans-Serif" font-size="10.00">model.Pen.getDash</text>
</a>
</g>
</g>
<!-- Node29&#45;&gt;Node30 -->
<g id="edge34" class="edge"><title>Node29&#45;&gt;Node30</title>
<path fill="none" stroke="midnightblue" d="M1296.65,-381C1318.15,-381 1341.86,-381 1363.15,-381"/>
<polygon fill="midnightblue" stroke="midnightblue" points="1363.39,-384.5 1373.39,-381 1363.39,-377.5 1363.39,-384.5"/>
</g>
<!-- Node32 -->
<g id="node32" class="node"><title>Node32</title>
<g id="a_node32"><a xlink:href="../../de/ded/classmodel_1_1_pen.html#a704af31474b10d17caf40773b7971826" target="_top" xlink:title="model.Pen.getPenColor">
<polygon fill="white" stroke="black" points="1364.5,-333.5 1364.5,-352.5 1493.5,-352.5 1493.5,-333.5 1364.5,-333.5"/>
<text text-anchor="middle" x="1429" y="-340.5" font-family="Helvetica,sans-Serif" font-size="10.00">model.Pen.getPenColor</text>
</a>
</g>
</g>
<!-- Node31&#45;&gt;Node32 -->
<g id="edge36" class="edge"><title>Node31&#45;&gt;Node32</title>
<path fill="none" stroke="midnightblue" d="M1296.65,-343C1315.18,-343 1335.36,-343 1354.21,-343"/>
<polygon fill="midnightblue" stroke="midnightblue" points="1354.23,-346.5 1364.23,-343 1354.23,-339.5 1354.23,-346.5"/>
</g>
<!-- Node36 -->
<g id="node36" class="node"><title>Node36</title>
<g id="a_node36"><a xlink:href="../../de/ded/classmodel_1_1_pen.html#a3a7f9f4278532cada3c8c34ff4aa021c" target="_top" xlink:title="model.Pen.updateDash">
<polygon fill="white" stroke="black" points="486.5,-335.5 486.5,-354.5 615.5,-354.5 615.5,-335.5 486.5,-335.5"/>
<text text-anchor="middle" x="551" y="-342.5" font-family="Helvetica,sans-Serif" font-size="10.00">model.Pen.updateDash</text>
</a>
</g>
</g>
<!-- Node35&#45;&gt;Node36 -->
<g id="edge42" class="edge"><title>Node35&#45;&gt;Node36</title>
<path fill="none" stroke="midnightblue" d="M407.023,-355.894C429.09,-354.212 453.745,-352.334 476.283,-350.617"/>
<polygon fill="midnightblue" stroke="midnightblue" points="476.767,-354.09 486.472,-349.84 476.235,-347.11 476.767,-354.09"/>
</g>
</g>
</svg>
        <g id="navigator" transform="translate(0 0)" fill="#404254">
                <rect fill="#f2f5e9" fill-opacity="0.5" stroke="#606060" stroke-width=".5" x="0" y="0" width="60" height="60"/>
                <use id="zoomplus" xlink:href="#zoomPlus" x="17" y="9" onmousedown="handleZoom(evt,'in')"/>
                <use id="zoomminus" xlink:href="#zoomMin" x="42" y="9" onmousedown="handleZoom(evt,'out')"/>
                <use id="reset" xlink:href="#resetDef" x="30" y="36" onmousedown="handleReset()"/>
                <g id="arrowUp" xlink:href="#dirArrow" transform="translate(30 24)" onmousedown="handlePan(0,-1)">
                  <use xlink:href="#rim" fill="#404040">
                        <set attributeName="fill" to="#808080" begin="arrowUp.mouseover" end="arrowUp.mouseout"/>
                  </use>
                  <path fill="none" stroke="white" stroke-width="1.5" d="M0,-3.0v7 M-2.5,-0.5L0,-3.0L2.5,-0.5"/>
                </g>
                <g id="arrowRight" xlink:href="#dirArrow" transform="rotate(90) translate(36 -43)" onmousedown="handlePan(1,0)">
                  <use xlink:href="#rim" fill="#404040">
                        <set attributeName="fill" to="#808080" begin="arrowRight.mouseover" end="arrowRight.mouseout"/>
                  </use>
                  <path fill="none" stroke="white" stroke-width="1.5" d="M0,-3.0v7 M-2.5,-0.5L0,-3.0L2.5,-0.5"/>
                </g>
                <g id="arrowDown" xlink:href="#dirArrow" transform="rotate(180) translate(-30 -48)" onmousedown="handlePan(0,1)">
                  <use xlink:href="#rim" fill="#404040">
                        <set attributeName="fill" to="#808080" begin="arrowDown.mouseover" end="arrowDown.mouseout"/>
                  </use>
                  <path fill="none" stroke="white" stroke-width="1.5" d="M0,-3.0v7 M-2.5,-0.5L0,-3.0L2.5,-0.5"/>
                </g>
                <g id="arrowLeft" xlink:href="#dirArrow" transform="rotate(270) translate(-36 17)" onmousedown="handlePan(-1,0)">
                  <use xlink:href="#rim" fill="#404040">
                        <set attributeName="fill" to="#808080" begin="arrowLeft.mouseover" end="arrowLeft.mouseout"/>
                  </use>
                  <path fill="none" stroke="white" stroke-width="1.5" d="M0,-3.0v7 M-2.5,-0.5L0,-3.0L2.5,-0.5"/>
                </g>
        </g>
        <svg viewBox="0 0 15 15" width="100%" height="30px" preserveAspectRatio="xMaxYMin meet">
         <g id="arrow_out" transform="scale(0.3 0.3)">
          <a xlink:href="classcommands_1_1_set_pen_dash_command_a320f3b8248e3e89b2338dfefbe73f8c7_cgraph_org.svg" target="_base">
           <rect id="button" ry="5" rx="5" y="6" x="6" height="38" width="38"
                fill="#f2f5e9" fill-opacity="0.5" stroke="#606060" stroke-width="1.0"/>
           <path id="arrow"
             d="M 11.500037,31.436501 C 11.940474,20.09759 22.043105,11.32322 32.158766,21.979434 L 37.068811,17.246167 C 37.068811,17.246167 37.088388,32 37.088388,32 L 22.160133,31.978069 C 22.160133,31.978069 26.997745,27.140456 26.997745,27.140456 C 18.528582,18.264221 13.291696,25.230495 11.500037,31.436501 z"
             style="fill:#404040;"/>
          </a>
         </g>
        </svg>
</svg>
