<?xml version="1.0" encoding="UTF-8" standalone="no"?>
<!DOCTYPE svg PUBLIC "-//W3C//DTD SVG 1.1//EN"
 "http://www.w3.org/Graphics/SVG/1.1/DTD/svg11.dtd">
<!-- Generated by graphviz version 2.36.0 (20140111.2315)
 -->
<!-- Title: view.controllers.PaneController Pages: 1 -->
<!--zoomable 733 -->
<svg id="main" version="1.1" xmlns="http://www.w3.org/2000/svg" xmlns:xlink="http://www.w3.org/1999/xlink" xml:space="preserve" onload="init(evt)">
<style type="text/css"><![CDATA[
.edge:hover path { stroke: red; }
.edge:hover polygon { stroke: red; fill: red; }
]]></style>
<script type="text/javascript"><![CDATA[
var edges = document.getElementsByTagName('g');
if (edges && edges.length) {
  for (var i=0;i<edges.length;i++) {
    if (edges[i].id.substr(0,4)=='edge') {
      edges[i].setAttribute('class','edge');
    }
  }
}
]]></script>
        <defs>
                <circle id="rim" cx="0" cy="0" r="7"/>
                <circle id="rim2" cx="0" cy="0" r="3.5"/>
                <g id="zoomPlus">
                        <use xlink:href="#rim" fill="#404040">
                                <set attributeName="fill" to="#808080" begin="zoomplus.mouseover" end="zoomplus.mouseout"/>
                        </use>
                        <path d="M-4,0h8M0,-4v8" fill="none" stroke="white" stroke-width="1.5" pointer-events="none"/>
                </g>
                <g id="zoomMin">
                        <use xlink:href="#rim" fill="#404040">
                                <set attributeName="fill" to="#808080" begin="zoomminus.mouseover" end="zoomminus.mouseout"/>
                        </use>
                        <path d="M-4,0h8" fill="none" stroke="white" stroke-width="1.5" pointer-events="none"/>
                </g>
                <g id="dirArrow">
                        <path fill="none" stroke="white" stroke-width="1.5" d="M0,-3.0v7 M-2.5,-0.5L0,-3.0L2.5,-0.5"/>
                </g>
               <g id="resetDef">
                       <use xlink:href="#rim2" fill="#404040">
                               <set attributeName="fill" to="#808080" begin="reset.mouseover" end="reset.mouseout"/>
                       </use>
               </g>
        </defs>

<script type="text/javascript">
var viewWidth = 1612;
var viewHeight = 733;
var sectionId = 'dynsection-1';
</script>
<script xlink:href="../../svgpan.js"/>
<svg id="graph" class="graph">
<g id="viewport">
<title>view.controllers.PaneController</title>
<polygon fill="white" stroke="none" points="-4,4 -4,-729 1608,-729 1608,4 -4,4"/>
<!-- Node1 -->
<g id="node1" class="node"><title>Node1</title>
<polygon fill="#bfbfbf" stroke="black" points="1230,-540.5 1230,-559.5 1392,-559.5 1392,-540.5 1230,-540.5"/>
<text text-anchor="middle" x="1311" y="-547.5" font-family="Helvetica,sans-Serif" font-size="10.00">view.controllers.PaneController</text>
</g>
<!-- Node6 -->
<g id="node6" class="node"><title>Node6</title>
<g id="a_node6"><a xlink:href="../../d9/df7/classcontroller_1_1_controller.html" target="_top" xlink:title="controller.Controller">
<polygon fill="white" stroke="black" points="1494,-396.5 1494,-415.5 1604,-415.5 1604,-396.5 1494,-396.5"/>
<text text-anchor="middle" x="1549" y="-403.5" font-family="Helvetica,sans-Serif" font-size="10.00">controller.Controller</text>
</a>
</g>
</g>
<!-- Node1&#45;&gt;Node6 -->
<g id="edge35" class="edge"><title>Node1&#45;&gt;Node6</title>
<path fill="none" stroke="#9a32cd" stroke-dasharray="5,2" d="M1322.7,-531.826C1338.5,-506.67 1370.5,-461.672 1410,-438 1435.31,-422.829 1467.22,-414.849 1493.97,-410.653"/>
<polygon fill="#9a32cd" stroke="#9a32cd" points="1319.68,-530.051 1317.46,-540.409 1325.66,-533.7 1319.68,-530.051"/>
<text text-anchor="middle" x="1443" y="-441" font-family="Helvetica,sans-Serif" font-size="10.00"> myPane</text>
</g>
<!-- Node2 -->
<g id="node2" class="node"><title>Node2</title>
<polygon fill="white" stroke="#bfbfbf" points="968,-617.5 968,-636.5 1028,-636.5 1028,-617.5 968,-617.5"/>
<text text-anchor="middle" x="998" y="-624.5" font-family="Helvetica,sans-Serif" font-size="10.00">Observer</text>
</g>
<!-- Node2&#45;&gt;Node1 -->
<g id="edge1" class="edge"><title>Node2&#45;&gt;Node1</title>
<path fill="none" stroke="midnightblue" d="M1038.21,-623.764C1081.45,-619.501 1152.75,-610.414 1212,-593 1241.06,-584.459 1272.84,-569.362 1292.1,-559.52"/>
<polygon fill="midnightblue" stroke="midnightblue" points="1037.74,-620.293 1028.11,-624.721 1038.4,-627.262 1037.74,-620.293"/>
</g>
<!-- Node3 -->
<g id="node3" class="node"><title>Node3</title>
<polygon fill="white" stroke="#bfbfbf" points="914,-579.5 914,-598.5 1082,-598.5 1082,-579.5 914,-579.5"/>
<text text-anchor="middle" x="998" y="-586.5" font-family="Helvetica,sans-Serif" font-size="10.00">List&lt; view.panes.PaneModule &gt;</text>
</g>
<!-- Node3&#45;&gt;Node1 -->
<g id="edge2" class="edge"><title>Node3&#45;&gt;Node1</title>
<path fill="none" stroke="#9a32cd" stroke-dasharray="5,2" d="M1092.34,-578.557C1129.59,-574.256 1172.85,-569.093 1212,-564 1222.65,-562.614 1233.94,-561.071 1244.93,-559.529"/>
<polygon fill="#9a32cd" stroke="#9a32cd" points="1091.54,-575.126 1082.01,-579.746 1092.34,-582.08 1091.54,-575.126"/>
<text text-anchor="middle" x="1156" y="-581" font-family="Helvetica,sans-Serif" font-size="10.00"> myPanes</text>
</g>
<!-- Node4 -->
<g id="node4" class="node"><title>Node4</title>
<g id="a_node4"><a xlink:href="../../d8/dd2/classview_1_1_command_string.html" target="_top" xlink:title="view.CommandString">
<polygon fill="white" stroke="black" points="939,-705.5 939,-724.5 1057,-724.5 1057,-705.5 939,-705.5"/>
<text text-anchor="middle" x="998" y="-712.5" font-family="Helvetica,sans-Serif" font-size="10.00">view.CommandString</text>
</a>
</g>
</g>
<!-- Node4&#45;&gt;Node1 -->
<g id="edge3" class="edge"><title>Node4&#45;&gt;Node1</title>
<path fill="none" stroke="#9a32cd" stroke-dasharray="5,2" d="M1067.1,-711.744C1111.16,-706.991 1168.24,-695.665 1212,-669 1258.39,-640.728 1292.83,-582.467 1305.1,-559.554"/>
<polygon fill="#9a32cd" stroke="#9a32cd" points="1066.66,-708.271 1057.06,-712.74 1067.35,-715.237 1066.66,-708.271"/>
<text text-anchor="middle" x="1156" y="-710" font-family="Helvetica,sans-Serif" font-size="10.00"> myCommand</text>
</g>
<!-- Node5 -->
<g id="node5" class="node"><title>Node5</title>
<polygon fill="white" stroke="#bfbfbf" points="668.5,-705.5 668.5,-724.5 739.5,-724.5 739.5,-705.5 668.5,-705.5"/>
<text text-anchor="middle" x="704" y="-712.5" font-family="Helvetica,sans-Serif" font-size="10.00">Observable</text>
</g>
<!-- Node5&#45;&gt;Node4 -->
<g id="edge4" class="edge"><title>Node5&#45;&gt;Node4</title>
<path fill="none" stroke="midnightblue" d="M749.95,-715C800.619,-715 883.157,-715 938.734,-715"/>
<polygon fill="midnightblue" stroke="midnightblue" points="749.643,-711.5 739.643,-715 749.643,-718.5 749.643,-711.5"/>
</g>
<!-- Node6&#45;&gt;Node1 -->
<g id="edge5" class="edge"><title>Node6&#45;&gt;Node1</title>
<path fill="none" stroke="#9a32cd" stroke-dasharray="5,2" d="M1523.63,-420.872C1475.24,-450.397 1368.24,-515.684 1327.85,-540.328"/>
<polygon fill="#9a32cd" stroke="#9a32cd" points="1525.5,-423.826 1532.22,-415.63 1521.86,-417.851 1525.5,-423.826"/>
<text text-anchor="middle" x="1443" y="-490" font-family="Helvetica,sans-Serif" font-size="10.00"> myController</text>
</g>
<!-- Node7 -->
<g id="node7" class="node"><title>Node7</title>
<g id="a_node7"><a xlink:href="../../d3/d42/classmodel_1_1_model.html" target="_top" xlink:title="model.Model">
<polygon fill="white" stroke="black" points="665,-36.5 665,-55.5 743,-55.5 743,-36.5 665,-36.5"/>
<text text-anchor="middle" x="704" y="-43.5" font-family="Helvetica,sans-Serif" font-size="10.00">model.Model</text>
</a>
</g>
</g>
<!-- Node7&#45;&gt;Node6 -->
<g id="edge6" class="edge"><title>Node7&#45;&gt;Node6</title>
<path fill="none" stroke="#9a32cd" stroke-dasharray="5,2" d="M733.705,-32.1215C751.707,-24.2022 775.66,-15.0647 798,-11 840.852,-3.20337 854.05,0.716124 896,-11 1187.9,-92.5248 1479.29,-344.27 1537.51,-396.466"/>
<polygon fill="#9a32cd" stroke="#9a32cd" points="732.028,-29.0391 724.365,-36.3558 734.918,-35.4146 732.028,-29.0391"/>
<text text-anchor="middle" x="1156" y="-156" font-family="Helvetica,sans-Serif" font-size="10.00"> myModel</text>
</g>
<!-- Node12 -->
<g id="node12" class="node"><title>Node12</title>
<g id="a_node12"><a xlink:href="../../db/db5/classview_1_1panes_1_1_view_pane_module.html" target="_top" xlink:title="view.panes.ViewPaneModule">
<polygon fill="white" stroke="black" points="922.5,-245.5 922.5,-264.5 1073.5,-264.5 1073.5,-245.5 922.5,-245.5"/>
<text text-anchor="middle" x="998" y="-252.5" font-family="Helvetica,sans-Serif" font-size="10.00">view.panes.ViewPaneModule</text>
</a>
</g>
</g>
<!-- Node7&#45;&gt;Node12 -->
<g id="edge13" class="edge"><title>Node7&#45;&gt;Node12</title>
<path fill="none" stroke="#9a32cd" stroke-dasharray="5,2" d="M753.054,-47.1153C801.88,-49.1024 873.437,-54.629 896,-70 960.718,-114.089 987.813,-213.743 994.962,-245.255"/>
<polygon fill="#9a32cd" stroke="#9a32cd" points="753.129,-43.6158 743.006,-46.7428 752.869,-50.611 753.129,-43.6158"/>
<text text-anchor="middle" x="847" y="-73" font-family="Helvetica,sans-Serif" font-size="10.00"> myModel</text>
</g>
<!-- Node8 -->
<g id="node8" class="node"><title>Node8</title>
<polygon fill="white" stroke="#bfbfbf" points="32,-137.5 32,-156.5 146,-156.5 146,-137.5 32,-137.5"/>
<text text-anchor="middle" x="89" y="-144.5" font-family="Helvetica,sans-Serif" font-size="10.00">Set&lt; model.Turtle &gt;</text>
</g>
<!-- Node8&#45;&gt;Node7 -->
<g id="edge7" class="edge"><title>Node8&#45;&gt;Node7</title>
<path fill="none" stroke="#9a32cd" stroke-dasharray="5,2" d="M156.306,-145.749C257.001,-142.078 453.326,-127.929 610,-74 618.457,-71.0889 619.616,-68.1163 628,-65 639.709,-60.6476 652.809,-56.95 664.744,-54.0059"/>
<polygon fill="#9a32cd" stroke="#9a32cd" points="156.15,-142.252 146.275,-146.092 156.389,-149.248 156.15,-142.252"/>
<text text-anchor="middle" x="414" y="-135" font-family="Helvetica,sans-Serif" font-size="10.00"> myFullSet</text>
</g>
<!-- Node8&#45;&gt;Node12 -->
<g id="edge14" class="edge"><title>Node8&#45;&gt;Node12</title>
<path fill="none" stroke="#9a32cd" stroke-dasharray="5,2" d="M101.081,-165.209C131.438,-213.092 221.369,-342.068 336,-389 393.596,-412.581 841.121,-406.355 896,-377 945.462,-350.542 980.23,-288.78 992.314,-264.781"/>
<polygon fill="#9a32cd" stroke="#9a32cd" points="103.926,-163.156 95.6665,-156.52 97.9849,-166.858 103.926,-163.156"/>
<text text-anchor="middle" x="560" y="-418" font-family="Helvetica,sans-Serif" font-size="10.00"> myTurtles</text>
<text text-anchor="middle" x="560" y="-407" font-family="Helvetica,sans-Serif" font-size="10.00">myActiveTurtles</text>
</g>
<!-- Node28 -->
<g id="node28" class="node"><title>Node28</title>
<g id="a_node28"><a xlink:href="../../df/d50/classmodel_1_1_turtle_set_manager.html" target="_top" xlink:title="model.TurtleSetManager">
<polygon fill="white" stroke="black" points="347,-17.5 347,-36.5 481,-36.5 481,-17.5 347,-17.5"/>
<text text-anchor="middle" x="414" y="-24.5" font-family="Helvetica,sans-Serif" font-size="10.00">model.TurtleSetManager</text>
</a>
</g>
</g>
<!-- Node8&#45;&gt;Node28 -->
<g id="edge32" class="edge"><title>Node8&#45;&gt;Node28</title>
<path fill="none" stroke="#9a32cd" stroke-dasharray="5,2" d="M139.109,-135.014C156.986,-130.758 177.375,-126.027 196,-122 250.013,-110.322 276.305,-134.268 318,-98 336.453,-81.9493 317.935,-62.486 336,-46 340.17,-42.1945 344.979,-39.1207 350.116,-36.6417"/>
<polygon fill="#9a32cd" stroke="#9a32cd" points="138.096,-131.658 129.186,-137.389 139.726,-138.465 138.096,-131.658"/>
<text text-anchor="middle" x="257" y="-125" font-family="Helvetica,sans-Serif" font-size="10.00"> mySet</text>
</g>
<!-- Node9 -->
<g id="node9" class="node"><title>Node9</title>
<g id="a_node9"><a xlink:href="../../d3/d62/classmodel_1_1_variable_manager.html" target="_top" xlink:title="model.VariableManager">
<polygon fill="white" stroke="black" points="349,-55.5 349,-74.5 479,-74.5 479,-55.5 349,-55.5"/>
<text text-anchor="middle" x="414" y="-62.5" font-family="Helvetica,sans-Serif" font-size="10.00">model.VariableManager</text>
</a>
</g>
</g>
<!-- Node9&#45;&gt;Node7 -->
<g id="edge8" class="edge"><title>Node9&#45;&gt;Node7</title>
<path fill="none" stroke="#9a32cd" stroke-dasharray="5,2" d="M489.538,-60.0826C545.724,-56.3759 620.463,-51.4452 664.965,-48.5093"/>
<polygon fill="#9a32cd" stroke="#9a32cd" points="489.022,-56.6089 479.274,-60.7597 489.483,-63.5937 489.022,-56.6089"/>
<text text-anchor="middle" x="560" y="-62" font-family="Helvetica,sans-Serif" font-size="10.00"> myVariableManager</text>
</g>
<!-- Node10 -->
<g id="node10" class="node"><title>Node10</title>
<polygon fill="white" stroke="#bfbfbf" points="30,-77 30,-107 148,-107 148,-77 30,-77"/>
<text text-anchor="start" x="38" y="-95" font-family="Helvetica,sans-Serif" font-size="10.00">Stack&lt; Map&lt; String,</text>
<text text-anchor="middle" x="89" y="-84" font-family="Helvetica,sans-Serif" font-size="10.00"> Double &gt; &gt;</text>
</g>
<!-- Node10&#45;&gt;Node9 -->
<g id="edge9" class="edge"><title>Node10&#45;&gt;Node9</title>
<path fill="none" stroke="#9a32cd" stroke-dasharray="5,2" d="M158.354,-86.2862C214.655,-81.5799 293.904,-74.9554 348.982,-70.3513"/>
<polygon fill="#9a32cd" stroke="#9a32cd" points="157.793,-82.8208 148.119,-87.1418 158.376,-89.7965 157.793,-82.8208"/>
<text text-anchor="middle" x="257" y="-86" font-family="Helvetica,sans-Serif" font-size="10.00"> myLocalVariables</text>
</g>
<!-- Node11 -->
<g id="node11" class="node"><title>Node11</title>
<polygon fill="white" stroke="#bfbfbf" points="25,-38.5 25,-57.5 153,-57.5 153,-38.5 25,-38.5"/>
<text text-anchor="middle" x="89" y="-45.5" font-family="Helvetica,sans-Serif" font-size="10.00">Map&lt; String, Double &gt;</text>
</g>
<!-- Node11&#45;&gt;Node9 -->
<g id="edge10" class="edge"><title>Node11&#45;&gt;Node9</title>
<path fill="none" stroke="#9a32cd" stroke-dasharray="5,2" d="M163.655,-48.2789C208.351,-48.8606 266.516,-50.3492 318,-54 328.02,-54.7105 338.61,-55.6996 348.94,-56.7958"/>
<polygon fill="#9a32cd" stroke="#9a32cd" points="163.506,-44.777 153.465,-48.1588 163.423,-51.7765 163.506,-44.777"/>
<text text-anchor="middle" x="257" y="-57" font-family="Helvetica,sans-Serif" font-size="10.00"> myGlobalVariables</text>
</g>
<!-- Node12&#45;&gt;Node1 -->
<g id="edge37" class="edge"><title>Node12&#45;&gt;Node1</title>
<path fill="none" stroke="#9a32cd" stroke-dasharray="5,2" d="M1012.69,-272.748C1031.38,-296.543 1066.4,-339.65 1100,-373 1169.72,-442.19 1263.21,-514.639 1297.08,-540.3"/>
<polygon fill="#9a32cd" stroke="#9a32cd" points="1015.28,-270.37 1006.37,-264.635 1009.76,-274.673 1015.28,-270.37"/>
<text text-anchor="middle" x="1156" y="-476" font-family="Helvetica,sans-Serif" font-size="10.00"> myView</text>
</g>
<!-- Node12&#45;&gt;Node6 -->
<g id="edge36" class="edge"><title>Node12&#45;&gt;Node6</title>
<path fill="none" stroke="#9a32cd" stroke-dasharray="5,2" d="M1043.55,-267.254C1150.09,-296.556 1417.79,-370.185 1513.39,-396.482"/>
<polygon fill="#9a32cd" stroke="#9a32cd" points="1044.33,-263.838 1033.76,-264.56 1042.47,-270.587 1044.33,-263.838"/>
<text text-anchor="middle" x="1311" y="-366" font-family="Helvetica,sans-Serif" font-size="10.00"> myView</text>
</g>
<!-- Node12&#45;&gt;Node7 -->
<g id="edge11" class="edge"><title>Node12&#45;&gt;Node7</title>
<path fill="none" stroke="#9a32cd" stroke-dasharray="5,2" d="M995.066,-235.473C989.397,-190.073 968.341,-77.7366 896,-31 843.196,3.1142 764.254,-21.3192 726.55,-36.4453"/>
<polygon fill="#9a32cd" stroke="#9a32cd" points="991.598,-235.948 996.198,-245.492 998.554,-235.162 991.598,-235.948"/>
<text text-anchor="middle" x="847" y="-34" font-family="Helvetica,sans-Serif" font-size="10.00"> myView</text>
</g>
<!-- Node13 -->
<g id="node13" class="node"><title>Node13</title>
<g id="a_node13"><a xlink:href="../../df/dd6/classview_1_1panes_1_1_pane_module.html" target="_top" xlink:title="view.panes.PaneModule">
<polygon fill="white" stroke="black" points="639.5,-264.5 639.5,-283.5 768.5,-283.5 768.5,-264.5 639.5,-264.5"/>
<text text-anchor="middle" x="704" y="-271.5" font-family="Helvetica,sans-Serif" font-size="10.00">view.panes.PaneModule</text>
</a>
</g>
</g>
<!-- Node13&#45;&gt;Node12 -->
<g id="edge12" class="edge"><title>Node13&#45;&gt;Node12</title>
<path fill="none" stroke="midnightblue" d="M778.758,-269.201C822.671,-266.343 878.24,-262.728 922.315,-259.86"/>
<polygon fill="midnightblue" stroke="midnightblue" points="778.471,-265.712 768.72,-269.854 778.926,-272.697 778.471,-265.712"/>
</g>
<!-- Node14 -->
<g id="node14" class="node"><title>Node14</title>
<polygon fill="white" stroke="#bfbfbf" points="684,-226.5 684,-245.5 724,-245.5 724,-226.5 684,-226.5"/>
<text text-anchor="middle" x="704" y="-233.5" font-family="Helvetica,sans-Serif" font-size="10.00">Pane</text>
</g>
<!-- Node14&#45;&gt;Node12 -->
<g id="edge15" class="edge"><title>Node14&#45;&gt;Node12</title>
<path fill="none" stroke="#9a32cd" stroke-dasharray="5,2" d="M734.477,-237.501C772.008,-239.456 838.847,-243.091 896,-247 904.511,-247.582 913.422,-248.231 922.277,-248.9"/>
<polygon fill="#9a32cd" stroke="#9a32cd" points="734.425,-233.993 724.257,-236.972 734.063,-240.984 734.425,-233.993"/>
<text text-anchor="middle" x="847" y="-250" font-family="Helvetica,sans-Serif" font-size="10.00"> myPane</text>
</g>
<!-- Node15 -->
<g id="node15" class="node"><title>Node15</title>
<polygon fill="white" stroke="#bfbfbf" points="650.5,-188.5 650.5,-207.5 757.5,-207.5 757.5,-188.5 650.5,-188.5"/>
<text text-anchor="middle" x="704" y="-195.5" font-family="Helvetica,sans-Serif" font-size="10.00">List&lt; ImageView &gt;</text>
</g>
<!-- Node15&#45;&gt;Node12 -->
<g id="edge16" class="edge"><title>Node15&#45;&gt;Node12</title>
<path fill="none" stroke="#9a32cd" stroke-dasharray="5,2" d="M767.847,-205.614C805.267,-210.626 853.578,-217.933 896,-227 919.844,-232.096 946.399,-239.529 966.294,-245.456"/>
<polygon fill="#9a32cd" stroke="#9a32cd" points="767.967,-202.099 757.595,-204.262 767.051,-209.039 767.967,-202.099"/>
<text text-anchor="middle" x="847" y="-230" font-family="Helvetica,sans-Serif" font-size="10.00"> myStamps</text>
</g>
<!-- Node16 -->
<g id="node16" class="node"><title>Node16</title>
<polygon fill="white" stroke="#bfbfbf" points="666.5,-150.5 666.5,-169.5 741.5,-169.5 741.5,-150.5 666.5,-150.5"/>
<text text-anchor="middle" x="704" y="-157.5" font-family="Helvetica,sans-Serif" font-size="10.00">List&lt; Line &gt;</text>
</g>
<!-- Node16&#45;&gt;Node12 -->
<g id="edge17" class="edge"><title>Node16&#45;&gt;Node12</title>
<path fill="none" stroke="#9a32cd" stroke-dasharray="5,2" d="M751.664,-164.287C791.092,-168.962 848.557,-178.278 896,-196 929.862,-208.649 965.464,-232.232 984.015,-245.429"/>
<polygon fill="#9a32cd" stroke="#9a32cd" points="751.877,-160.789 741.546,-163.142 751.089,-167.744 751.877,-160.789"/>
<text text-anchor="middle" x="847" y="-199" font-family="Helvetica,sans-Serif" font-size="10.00"> myGrid</text>
</g>
<!-- Node17 -->
<g id="node17" class="node"><title>Node17</title>
<polygon fill="white" stroke="#bfbfbf" points="677,-112.5 677,-131.5 731,-131.5 731,-112.5 677,-112.5"/>
<text text-anchor="middle" x="704" y="-119.5" font-family="Helvetica,sans-Serif" font-size="10.00">Point2D</text>
</g>
<!-- Node17&#45;&gt;Node12 -->
<g id="edge18" class="edge"><title>Node17&#45;&gt;Node12</title>
<path fill="none" stroke="#9a32cd" stroke-dasharray="5,2" d="M741.331,-122.457C781.316,-124.327 846.483,-131.486 896,-157 938.786,-179.046 975.532,-225.195 990.197,-245.296"/>
<polygon fill="#9a32cd" stroke="#9a32cd" points="741.37,-118.957 731.244,-122.074 741.103,-125.951 741.37,-118.957"/>
<text text-anchor="middle" x="847" y="-160" font-family="Helvetica,sans-Serif" font-size="10.00"> myCurrentPoint</text>
</g>
<!-- Node18 -->
<g id="node18" class="node"><title>Node18</title>
<polygon fill="white" stroke="#bfbfbf" points="628.5,-74.5 628.5,-93.5 779.5,-93.5 779.5,-74.5 628.5,-74.5"/>
<text text-anchor="middle" x="704" y="-81.5" font-family="Helvetica,sans-Serif" font-size="10.00">Map&lt; Integer, ImageView &gt;</text>
</g>
<!-- Node18&#45;&gt;Node12 -->
<g id="edge19" class="edge"><title>Node18&#45;&gt;Node12</title>
<path fill="none" stroke="#9a32cd" stroke-dasharray="5,2" d="M790.156,-83.2629C825.122,-86.4074 864.664,-94.6797 896,-114 949.313,-146.87 982.668,-219.408 993.302,-245.455"/>
<polygon fill="#9a32cd" stroke="#9a32cd" points="790.187,-79.755 779.947,-82.4759 789.649,-86.7343 790.187,-79.755"/>
<text text-anchor="middle" x="847" y="-117" font-family="Helvetica,sans-Serif" font-size="10.00"> myIcons</text>
</g>
<!-- Node19 -->
<g id="node19" class="node"><title>Node19</title>
<g id="a_node19"><a xlink:href="../../d3/db7/classview_1_1controllers_1_1_image_palette.html" target="_top" xlink:title="view.controllers.ImagePalette">
<polygon fill="white" stroke="black" points="336.5,-469.5 336.5,-488.5 491.5,-488.5 491.5,-469.5 336.5,-469.5"/>
<text text-anchor="middle" x="414" y="-476.5" font-family="Helvetica,sans-Serif" font-size="10.00">view.controllers.ImagePalette</text>
</a>
</g>
</g>
<!-- Node19&#45;&gt;Node1 -->
<g id="edge38" class="edge"><title>Node19&#45;&gt;Node1</title>
<path fill="none" stroke="#9a32cd" stroke-dasharray="5,2" d="M501.799,-489.219C504.564,-489.491 507.303,-489.752 510,-490 821.412,-518.66 900.683,-508.318 1212,-538 1219.68,-538.732 1227.69,-539.578 1235.67,-540.474"/>
<polygon fill="#9a32cd" stroke="#9a32cd" points="502.007,-485.722 491.705,-488.195 501.301,-492.686 502.007,-485.722"/>
<text text-anchor="middle" x="847" y="-519" font-family="Helvetica,sans-Serif" font-size="10.00"> myImagePalette</text>
</g>
<!-- Node19&#45;&gt;Node12 -->
<g id="edge20" class="edge"><title>Node19&#45;&gt;Node12</title>
<path fill="none" stroke="#9a32cd" stroke-dasharray="5,2" d="M501.818,-477.977C622.52,-475.018 833.284,-463.815 896,-422 955.766,-382.152 985.81,-293.775 994.371,-264.573"/>
<polygon fill="#9a32cd" stroke="#9a32cd" points="501.417,-474.485 491.5,-478.215 501.578,-481.483 501.417,-474.485"/>
<text text-anchor="middle" x="704" y="-476" font-family="Helvetica,sans-Serif" font-size="10.00"> myImagePalette</text>
</g>
<!-- Node24 -->
<g id="node24" class="node"><title>Node24</title>
<g id="a_node24"><a xlink:href="../../d7/da6/classview_1_1_turtle_draw.html" target="_top" xlink:title="view.TurtleDraw">
<polygon fill="white" stroke="black" points="659.5,-360.5 659.5,-379.5 748.5,-379.5 748.5,-360.5 659.5,-360.5"/>
<text text-anchor="middle" x="704" y="-367.5" font-family="Helvetica,sans-Serif" font-size="10.00">view.TurtleDraw</text>
</a>
</g>
</g>
<!-- Node19&#45;&gt;Node24 -->
<g id="edge27" class="edge"><title>Node19&#45;&gt;Node24</title>
<path fill="none" stroke="#9a32cd" stroke-dasharray="5,2" d="M460.139,-466.813C475.889,-462.643 493.7,-458.018 510,-454 554.279,-443.084 568.054,-448.898 610,-431 641.79,-417.436 674.592,-393.017 691.449,-379.555"/>
<polygon fill="#9a32cd" stroke="#9a32cd" points="458.888,-463.524 450.123,-469.477 460.687,-470.289 458.888,-463.524"/>
<text text-anchor="middle" x="560" y="-457" font-family="Helvetica,sans-Serif" font-size="10.00"> myImagePalette</text>
</g>
<!-- Node20 -->
<g id="node20" class="node"><title>Node20</title>
<polygon fill="white" stroke="#bfbfbf" points="30,-469.5 30,-488.5 148,-488.5 148,-469.5 30,-469.5"/>
<text text-anchor="middle" x="89" y="-476.5" font-family="Helvetica,sans-Serif" font-size="10.00">ChoiceBox&lt; String &gt;</text>
</g>
<!-- Node20&#45;&gt;Node19 -->
<g id="edge21" class="edge"><title>Node20&#45;&gt;Node19</title>
<path fill="none" stroke="#9a32cd" stroke-dasharray="5,2" d="M158.28,-479C210.46,-479 282.381,-479 336.497,-479"/>
<polygon fill="#9a32cd" stroke="#9a32cd" points="158.119,-475.5 148.119,-479 158.119,-482.5 158.119,-475.5"/>
<text text-anchor="middle" x="257" y="-482" font-family="Helvetica,sans-Serif" font-size="10.00"> myChoiceImages</text>
</g>
<!-- Node21 -->
<g id="node21" class="node"><title>Node21</title>
<polygon fill="white" stroke="#bfbfbf" points="47,-431.5 47,-450.5 131,-450.5 131,-431.5 47,-431.5"/>
<text text-anchor="middle" x="89" y="-438.5" font-family="Helvetica,sans-Serif" font-size="10.00">List&lt; String &gt;</text>
</g>
<!-- Node21&#45;&gt;Node19 -->
<g id="edge22" class="edge"><title>Node21&#45;&gt;Node19</title>
<path fill="none" stroke="#9a32cd" stroke-dasharray="5,2" d="M141.348,-445.351C187.62,-449.47 257.475,-456.175 318,-464 330.337,-465.595 343.539,-467.532 356.058,-469.477"/>
<polygon fill="#9a32cd" stroke="#9a32cd" points="141.537,-441.855 131.268,-444.462 140.922,-448.827 141.537,-441.855"/>
<text text-anchor="middle" x="257" y="-467" font-family="Helvetica,sans-Serif" font-size="10.00"> myChoices</text>
</g>
<!-- Node22 -->
<g id="node22" class="node"><title>Node22</title>
<polygon fill="white" stroke="#bfbfbf" points="25,-545.5 25,-564.5 153,-564.5 153,-545.5 25,-545.5"/>
<text text-anchor="middle" x="89" y="-552.5" font-family="Helvetica,sans-Serif" font-size="10.00">Map&lt; Integer, String &gt;</text>
</g>
<!-- Node22&#45;&gt;Node19 -->
<g id="edge23" class="edge"><title>Node22&#45;&gt;Node19</title>
<path fill="none" stroke="#9a32cd" stroke-dasharray="5,2" d="M163.499,-550.204C208.755,-545.902 267.562,-537.864 318,-523 346.767,-514.522 377.917,-498.694 396.427,-488.513"/>
<polygon fill="#9a32cd" stroke="#9a32cd" points="163.114,-546.724 153.473,-551.117 163.749,-553.695 163.114,-546.724"/>
<text text-anchor="middle" x="257" y="-550" font-family="Helvetica,sans-Serif" font-size="10.00"> myImages</text>
</g>
<!-- Node23 -->
<g id="node23" class="node"><title>Node23</title>
<polygon fill="white" stroke="#bfbfbf" points="20,-507.5 20,-526.5 158,-526.5 158,-507.5 20,-507.5"/>
<text text-anchor="middle" x="89" y="-514.5" font-family="Helvetica,sans-Serif" font-size="10.00">ObservableList&lt; String &gt;</text>
</g>
<!-- Node23&#45;&gt;Node19 -->
<g id="edge24" class="edge"><title>Node23&#45;&gt;Node19</title>
<path fill="none" stroke="#9a32cd" stroke-dasharray="5,2" d="M168.275,-510.197C212.33,-506.094 268.309,-500.424 318,-494 330.337,-492.405 343.539,-490.468 356.058,-488.523"/>
<polygon fill="#9a32cd" stroke="#9a32cd" points="167.841,-506.722 158.205,-511.127 168.485,-513.692 167.841,-506.722"/>
<text text-anchor="middle" x="257" y="-511" font-family="Helvetica,sans-Serif" font-size="10.00"> myObservable</text>
</g>
<!-- Node24&#45;&gt;Node12 -->
<g id="edge25" class="edge"><title>Node24&#45;&gt;Node12</title>
<path fill="none" stroke="#9a32cd" stroke-dasharray="5,2" d="M759.07,-366.681C798.488,-362.652 852.401,-353.734 896,-334 934.533,-316.559 971.504,-281.49 988.006,-264.567"/>
<polygon fill="#9a32cd" stroke="#9a32cd" points="758.493,-363.22 748.868,-367.648 759.154,-370.189 758.493,-363.22"/>
<text text-anchor="middle" x="847" y="-365" font-family="Helvetica,sans-Serif" font-size="10.00"> myDraw</text>
</g>
<!-- Node25 -->
<g id="node25" class="node"><title>Node25</title>
<polygon fill="white" stroke="#bfbfbf" points="396,-322.5 396,-341.5 432,-341.5 432,-322.5 396,-322.5"/>
<text text-anchor="middle" x="414" y="-329.5" font-family="Helvetica,sans-Serif" font-size="10.00">Line</text>
</g>
<!-- Node25&#45;&gt;Node24 -->
<g id="edge26" class="edge"><title>Node25&#45;&gt;Node24</title>
<path fill="none" stroke="#9a32cd" stroke-dasharray="5,2" d="M442.452,-334.866C480.241,-338.896 550.387,-346.681 610,-355 626.036,-357.238 643.577,-359.988 659.061,-362.52"/>
<polygon fill="#9a32cd" stroke="#9a32cd" points="442.561,-331.358 432.248,-333.785 441.823,-338.319 442.561,-331.358"/>
<text text-anchor="middle" x="560" y="-358" font-family="Helvetica,sans-Serif" font-size="10.00"> myPath</text>
</g>
<!-- Node26 -->
<g id="node26" class="node"><title>Node26</title>
<polygon fill="white" stroke="#bfbfbf" points="398,-360.5 398,-379.5 430,-379.5 430,-360.5 398,-360.5"/>
<text text-anchor="middle" x="414" y="-367.5" font-family="Helvetica,sans-Serif" font-size="10.00">File</text>
</g>
<!-- Node26&#45;&gt;Node24 -->
<g id="edge28" class="edge"><title>Node26&#45;&gt;Node24</title>
<path fill="none" stroke="#9a32cd" stroke-dasharray="5,2" d="M440.138,-370C489.217,-370 598.321,-370 659.413,-370"/>
<polygon fill="#9a32cd" stroke="#9a32cd" points="440.079,-366.5 430.079,-370 440.079,-373.5 440.079,-366.5"/>
<text text-anchor="middle" x="560" y="-373" font-family="Helvetica,sans-Serif" font-size="10.00"> myImage</text>
</g>
<!-- Node27 -->
<g id="node27" class="node"><title>Node27</title>
<polygon fill="white" stroke="#bfbfbf" points="393.5,-261.5 393.5,-280.5 434.5,-280.5 434.5,-261.5 393.5,-261.5"/>
<text text-anchor="middle" x="414" y="-268.5" font-family="Helvetica,sans-Serif" font-size="10.00">Color</text>
</g>
<!-- Node27&#45;&gt;Node7 -->
<g id="edge34" class="edge"><title>Node27&#45;&gt;Node7</title>
<path fill="none" stroke="#9a32cd" stroke-dasharray="5,2" d="M444.2,-263.141C487.71,-249.824 568.842,-218.496 610,-161 635.268,-125.701 598.283,-96.6437 628,-65 637.471,-54.9149 651.462,-49.8695 664.802,-47.4409"/>
<polygon fill="#9a32cd" stroke="#9a32cd" points="443.102,-259.815 434.5,-266 445.082,-266.53 443.102,-259.815"/>
<text text-anchor="middle" x="560" y="-241" font-family="Helvetica,sans-Serif" font-size="10.00"> myBackground</text>
</g>
<!-- Node27&#45;&gt;Node12 -->
<g id="edge30" class="edge"><title>Node27&#45;&gt;Node12</title>
<path fill="none" stroke="#9a32cd" stroke-dasharray="5,2" d="M444.691,-270.595C483.272,-270.678 552.502,-272.911 610,-286 618.37,-287.905 619.564,-291.417 628,-293 694.397,-305.456 712.566,-297.055 780,-293 831.836,-289.883 844.879,-288.128 896,-279 917.823,-275.103 941.991,-269.411 961.213,-264.547"/>
<polygon fill="#9a32cd" stroke="#9a32cd" points="444.648,-267.095 434.657,-270.622 444.666,-274.095 444.648,-267.095"/>
<text text-anchor="middle" x="704" y="-314" font-family="Helvetica,sans-Serif" font-size="10.00"> defColor</text>
<text text-anchor="middle" x="704" y="-303" font-family="Helvetica,sans-Serif" font-size="10.00">myBackColor</text>
</g>
<!-- Node27&#45;&gt;Node24 -->
<g id="edge29" class="edge"><title>Node27&#45;&gt;Node24</title>
<path fill="none" stroke="#9a32cd" stroke-dasharray="5,2" d="M444.666,-274.963C484.556,-281.303 556.632,-296.379 610,-328 619.733,-333.767 618.34,-340.11 628,-346 638.038,-352.121 649.796,-356.838 660.986,-360.403"/>
<polygon fill="#9a32cd" stroke="#9a32cd" points="444.956,-271.467 434.545,-273.434 443.91,-278.389 444.956,-271.467"/>
<text text-anchor="middle" x="560" y="-331" font-family="Helvetica,sans-Serif" font-size="10.00"> myLineColor</text>
</g>
<!-- Node28&#45;&gt;Node7 -->
<g id="edge31" class="edge"><title>Node28&#45;&gt;Node7</title>
<path fill="none" stroke="#9a32cd" stroke-dasharray="5,2" d="M491.778,-30.8079C527.702,-32.7237 571.059,-35.2274 610,-38 627.943,-39.2775 647.81,-40.9512 664.56,-42.4374"/>
<polygon fill="#9a32cd" stroke="#9a32cd" points="491.539,-27.2905 481.368,-30.2581 491.17,-34.2808 491.539,-27.2905"/>
<text text-anchor="middle" x="560" y="-41" font-family="Helvetica,sans-Serif" font-size="10.00"> myTurtleManager</text>
</g>
<!-- Node29 -->
<g id="node29" class="node"><title>Node29</title>
<polygon fill="white" stroke="#bfbfbf" points="7,-0.5 7,-19.5 171,-19.5 171,-0.5 7,-0.5"/>
<text text-anchor="middle" x="89" y="-7.5" font-family="Helvetica,sans-Serif" font-size="10.00">Stack&lt; Set&lt; model.Turtle &gt; &gt;</text>
</g>
<!-- Node29&#45;&gt;Node28 -->
<g id="edge33" class="edge"><title>Node29&#45;&gt;Node28</title>
<path fill="none" stroke="#9a32cd" stroke-dasharray="5,2" d="M181.121,-14.7959C233.848,-17.571 299.018,-21.001 346.828,-23.5173"/>
<polygon fill="#9a32cd" stroke="#9a32cd" points="181.26,-11.2984 171.09,-14.2679 180.892,-18.2887 181.26,-11.2984"/>
<text text-anchor="middle" x="257" y="-25" font-family="Helvetica,sans-Serif" font-size="10.00"> myStack</text>
</g>
<!-- Node30 -->
<g id="node30" class="node"><title>Node30</title>
<g id="a_node30"><a xlink:href="../../df/d94/classview_1_1controllers_1_1_language_controller.html" target="_top" xlink:title="view.controllers.Language\lController">
<polygon fill="white" stroke="black" points="928,-656 928,-686 1068,-686 1068,-656 928,-656"/>
<text text-anchor="start" x="936" y="-674" font-family="Helvetica,sans-Serif" font-size="10.00">view.controllers.Language</text>
<text text-anchor="middle" x="998" y="-663" font-family="Helvetica,sans-Serif" font-size="10.00">Controller</text>
</a>
</g>
</g>
<!-- Node30&#45;&gt;Node1 -->
<g id="edge39" class="edge"><title>Node30&#45;&gt;Node1</title>
<path fill="none" stroke="#9a32cd" stroke-dasharray="5,2" d="M1078.29,-658.952C1119.41,-650.908 1169.74,-638.201 1212,-619 1246.86,-603.163 1282.23,-574.446 1299.38,-559.546"/>
<polygon fill="#9a32cd" stroke="#9a32cd" points="1077.48,-655.542 1068.31,-660.847 1078.79,-662.419 1077.48,-655.542"/>
<text text-anchor="middle" x="1156" y="-657" font-family="Helvetica,sans-Serif" font-size="10.00"> myLanguageController</text>
</g>
<!-- Node31 -->
<g id="node31" class="node"><title>Node31</title>
<g id="a_node31"><a xlink:href="../../d8/dce/classcontroller_1_1_master_controller.html" target="_top" xlink:title="controller.MasterController">
<polygon fill="white" stroke="black" points="632.5,-624.5 632.5,-643.5 775.5,-643.5 775.5,-624.5 632.5,-624.5"/>
<text text-anchor="middle" x="704" y="-631.5" font-family="Helvetica,sans-Serif" font-size="10.00">controller.MasterController</text>
</a>
</g>
</g>
<!-- Node31&#45;&gt;Node1 -->
<g id="edge46" class="edge"><title>Node31&#45;&gt;Node1</title>
<path fill="none" stroke="#9a32cd" stroke-dasharray="5,2" d="M734.19,-620.117C773.843,-602.059 847.437,-571.362 914,-559 1022.01,-538.94 1149.42,-540.411 1229.96,-544.353"/>
<polygon fill="#9a32cd" stroke="#9a32cd" points="732.48,-617.051 724.864,-624.417 735.411,-623.408 732.48,-617.051"/>
<text text-anchor="middle" x="998" y="-562" font-family="Helvetica,sans-Serif" font-size="10.00"> myMasterController</text>
</g>
<!-- Node31&#45;&gt;Node30 -->
<g id="edge40" class="edge"><title>Node31&#45;&gt;Node30</title>
<path fill="none" stroke="#9a32cd" stroke-dasharray="5,2" d="M785.636,-644.218C830.318,-649.879 885.291,-656.845 927.973,-662.253"/>
<polygon fill="#9a32cd" stroke="#9a32cd" points="786.046,-640.742 775.685,-642.957 785.166,-647.686 786.046,-640.742"/>
<text text-anchor="middle" x="847" y="-661" font-family="Helvetica,sans-Serif" font-size="10.00"> myMasterController</text>
</g>
<!-- Node32 -->
<g id="node32" class="node"><title>Node32</title>
<g id="a_node32"><a xlink:href="../../d6/d95/classparser_1_1_parser.html" target="_top" xlink:title="parser.Parser">
<polygon fill="white" stroke="black" points="374,-645.5 374,-664.5 454,-664.5 454,-645.5 374,-645.5"/>
<text text-anchor="middle" x="414" y="-652.5" font-family="Helvetica,sans-Serif" font-size="10.00">parser.Parser</text>
</a>
</g>
</g>
<!-- Node32&#45;&gt;Node31 -->
<g id="edge41" class="edge"><title>Node32&#45;&gt;Node31</title>
<path fill="none" stroke="#9a32cd" stroke-dasharray="5,2" d="M464.214,-651.411C510.465,-648.039 580.188,-642.955 632.371,-639.15"/>
<polygon fill="#9a32cd" stroke="#9a32cd" points="463.86,-647.928 454.141,-652.146 464.369,-654.909 463.86,-647.928"/>
<text text-anchor="middle" x="560" y="-651" font-family="Helvetica,sans-Serif" font-size="10.00"> myParser</text>
</g>
<!-- Node33 -->
<g id="node33" class="node"><title>Node33</title>
<polygon fill="white" stroke="#bfbfbf" points="28,-645.5 28,-664.5 150,-664.5 150,-645.5 28,-645.5"/>
<text text-anchor="middle" x="89" y="-652.5" font-family="Helvetica,sans-Serif" font-size="10.00">Map&lt; String, String &gt;</text>
</g>
<!-- Node33&#45;&gt;Node32 -->
<g id="edge42" class="edge"><title>Node33&#45;&gt;Node32</title>
<path fill="none" stroke="#9a32cd" stroke-dasharray="5,2" d="M160.609,-655C226.018,-655 320.924,-655 373.756,-655"/>
<polygon fill="#9a32cd" stroke="#9a32cd" points="160.375,-651.5 150.375,-655 160.375,-658.5 160.375,-651.5"/>
<text text-anchor="middle" x="257" y="-669" font-family="Helvetica,sans-Serif" font-size="10.00"> myRegularExpressions</text>
<text text-anchor="middle" x="257" y="-658" font-family="Helvetica,sans-Serif" font-size="10.00">myCommandMap</text>
</g>
<!-- Node34 -->
<g id="node34" class="node"><title>Node34</title>
<polygon fill="white" stroke="#bfbfbf" points="0.5,-596 0.5,-626 177.5,-626 177.5,-596 0.5,-596"/>
<text text-anchor="start" x="8.5" y="-614" font-family="Helvetica,sans-Serif" font-size="10.00">Map&lt; String, commands.Custom</text>
<text text-anchor="middle" x="89" y="-603" font-family="Helvetica,sans-Serif" font-size="10.00">Command &gt;</text>
</g>
<!-- Node34&#45;&gt;Node32 -->
<g id="edge43" class="edge"><title>Node34&#45;&gt;Node32</title>
<path fill="none" stroke="#9a32cd" stroke-dasharray="5,2" d="M187.623,-622.762C228.013,-627.798 275.301,-633.915 318,-640 336.349,-642.615 356.646,-645.782 373.752,-648.531"/>
<polygon fill="#9a32cd" stroke="#9a32cd" points="187.865,-619.265 177.51,-621.505 187.002,-626.212 187.865,-619.265"/>
<text text-anchor="middle" x="257" y="-643" font-family="Helvetica,sans-Serif" font-size="10.00"> myUserInputCommands</text>
</g>
<!-- Node35 -->
<g id="node35" class="node"><title>Node35</title>
<polygon fill="white" stroke="#bfbfbf" points="41.5,-690.5 41.5,-709.5 136.5,-709.5 136.5,-690.5 41.5,-690.5"/>
<text text-anchor="middle" x="89" y="-697.5" font-family="Helvetica,sans-Serif" font-size="10.00">Stack&lt; String &gt;</text>
</g>
<!-- Node35&#45;&gt;Node32 -->
<g id="edge44" class="edge"><title>Node35&#45;&gt;Node32</title>
<path fill="none" stroke="#9a32cd" stroke-dasharray="5,2" d="M146.679,-696.765C192.989,-693.587 260.033,-687.763 318,-678 338.248,-674.59 360.579,-669.265 378.5,-664.597"/>
<polygon fill="#9a32cd" stroke="#9a32cd" points="146.285,-693.283 136.54,-697.441 146.751,-700.268 146.285,-693.283"/>
<text text-anchor="middle" x="257" y="-696" font-family="Helvetica,sans-Serif" font-size="10.00"> myCommandStack</text>
</g>
<!-- Node36 -->
<g id="node36" class="node"><title>Node36</title>
<polygon fill="white" stroke="#bfbfbf" points="386,-607.5 386,-626.5 442,-626.5 442,-607.5 386,-607.5"/>
<text text-anchor="middle" x="414" y="-614.5" font-family="Helvetica,sans-Serif" font-size="10.00">Random</text>
</g>
<!-- Node36&#45;&gt;Node31 -->
<g id="edge45" class="edge"><title>Node36&#45;&gt;Node31</title>
<path fill="none" stroke="#9a32cd" stroke-dasharray="5,2" d="M452.357,-616.092C491.662,-615.483 555.29,-615.482 610,-620 622.367,-621.021 635.588,-622.67 648.065,-624.484"/>
<polygon fill="#9a32cd" stroke="#9a32cd" points="452.122,-612.595 442.185,-616.272 452.246,-619.594 452.122,-612.595"/>
<text text-anchor="middle" x="560" y="-623" font-family="Helvetica,sans-Serif" font-size="10.00"> myRandom</text>
</g>
</g>
</svg>
        <g id="navigator" transform="translate(0 0)" fill="#404254">
                <rect fill="#f2f5e9" fill-opacity="0.5" stroke="#606060" stroke-width=".5" x="0" y="0" width="60" height="60"/>
                <use id="zoomplus" xlink:href="#zoomPlus" x="17" y="9" onmousedown="handleZoom(evt,'in')"/>
                <use id="zoomminus" xlink:href="#zoomMin" x="42" y="9" onmousedown="handleZoom(evt,'out')"/>
                <use id="reset" xlink:href="#resetDef" x="30" y="36" onmousedown="handleReset()"/>
                <g id="arrowUp" xlink:href="#dirArrow" transform="translate(30 24)" onmousedown="handlePan(0,-1)">
                  <use xlink:href="#rim" fill="#404040">
                        <set attributeName="fill" to="#808080" begin="arrowUp.mouseover" end="arrowUp.mouseout"/>
                  </use>
                  <path fill="none" stroke="white" stroke-width="1.5" d="M0,-3.0v7 M-2.5,-0.5L0,-3.0L2.5,-0.5"/>
                </g>
                <g id="arrowRight" xlink:href="#dirArrow" transform="rotate(90) translate(36 -43)" onmousedown="handlePan(1,0)">
                  <use xlink:href="#rim" fill="#404040">
                        <set attributeName="fill" to="#808080" begin="arrowRight.mouseover" end="arrowRight.mouseout"/>
                  </use>
                  <path fill="none" stroke="white" stroke-width="1.5" d="M0,-3.0v7 M-2.5,-0.5L0,-3.0L2.5,-0.5"/>
                </g>
                <g id="arrowDown" xlink:href="#dirArrow" transform="rotate(180) translate(-30 -48)" onmousedown="handlePan(0,1)">
                  <use xlink:href="#rim" fill="#404040">
                        <set attributeName="fill" to="#808080" begin="arrowDown.mouseover" end="arrowDown.mouseout"/>
                  </use>
                  <path fill="none" stroke="white" stroke-width="1.5" d="M0,-3.0v7 M-2.5,-0.5L0,-3.0L2.5,-0.5"/>
                </g>
                <g id="arrowLeft" xlink:href="#dirArrow" transform="rotate(270) translate(-36 17)" onmousedown="handlePan(-1,0)">
                  <use xlink:href="#rim" fill="#404040">
                        <set attributeName="fill" to="#808080" begin="arrowLeft.mouseover" end="arrowLeft.mouseout"/>
                  </use>
                  <path fill="none" stroke="white" stroke-width="1.5" d="M0,-3.0v7 M-2.5,-0.5L0,-3.0L2.5,-0.5"/>
                </g>
        </g>
        <svg viewBox="0 0 15 15" width="100%" height="30px" preserveAspectRatio="xMaxYMin meet">
         <g id="arrow_out" transform="scale(0.3 0.3)">
          <a xlink:href="classview_1_1controllers_1_1_pane_controller__coll__graph_org.svg" target="_base">
           <rect id="button" ry="5" rx="5" y="6" x="6" height="38" width="38"
                fill="#f2f5e9" fill-opacity="0.5" stroke="#606060" stroke-width="1.0"/>
           <path id="arrow"
             d="M 11.500037,31.436501 C 11.940474,20.09759 22.043105,11.32322 32.158766,21.979434 L 37.068811,17.246167 C 37.068811,17.246167 37.088388,32 37.088388,32 L 22.160133,31.978069 C 22.160133,31.978069 26.997745,27.140456 26.997745,27.140456 C 18.528582,18.264221 13.291696,25.230495 11.500037,31.436501 z"
             style="fill:#404040;"/>
          </a>
         </g>
        </svg>
</svg>
