<?xml version="1.0" encoding="UTF-8" standalone="no"?>
<!DOCTYPE svg PUBLIC "-//W3C//DTD SVG 1.1//EN"
 "http://www.w3.org/Graphics/SVG/1.1/DTD/svg11.dtd">
<!-- Generated by graphviz version 2.36.0 (20140111.2315)
 -->
<!-- Title: controller.Controller Pages: 1 -->
<!--zoomable 798 -->
<svg id="main" version="1.1" xmlns="http://www.w3.org/2000/svg" xmlns:xlink="http://www.w3.org/1999/xlink" xml:space="preserve" onload="init(evt)">
<style type="text/css"><![CDATA[
.edge:hover path { stroke: red; }
.edge:hover polygon { stroke: red; fill: red; }
]]></style>
<script type="text/javascript"><![CDATA[
var edges = document.getElementsByTagName('g');
if (edges && edges.length) {
  for (var i=0;i<edges.length;i++) {
    if (edges[i].id.substr(0,4)=='edge') {
      edges[i].setAttribute('class','edge');
    }
  }
}
]]></script>
        <defs>
                <circle id="rim" cx="0" cy="0" r="7"/>
                <circle id="rim2" cx="0" cy="0" r="3.5"/>
                <g id="zoomPlus">
                        <use xlink:href="#rim" fill="#404040">
                                <set attributeName="fill" to="#808080" begin="zoomplus.mouseover" end="zoomplus.mouseout"/>
                        </use>
                        <path d="M-4,0h8M0,-4v8" fill="none" stroke="white" stroke-width="1.5" pointer-events="none"/>
                </g>
                <g id="zoomMin">
                        <use xlink:href="#rim" fill="#404040">
                                <set attributeName="fill" to="#808080" begin="zoomminus.mouseover" end="zoomminus.mouseout"/>
                        </use>
                        <path d="M-4,0h8" fill="none" stroke="white" stroke-width="1.5" pointer-events="none"/>
                </g>
                <g id="dirArrow">
                        <path fill="none" stroke="white" stroke-width="1.5" d="M0,-3.0v7 M-2.5,-0.5L0,-3.0L2.5,-0.5"/>
                </g>
               <g id="resetDef">
                       <use xlink:href="#rim2" fill="#404040">
                               <set attributeName="fill" to="#808080" begin="reset.mouseover" end="reset.mouseout"/>
                       </use>
               </g>
        </defs>

<script type="text/javascript">
var viewWidth = 1922;
var viewHeight = 798;
var sectionId = 'dynsection-0';
</script>
<script xlink:href="../../svgpan.js"/>
<svg id="graph" class="graph">
<g id="viewport">
<title>controller.Controller</title>
<polygon fill="white" stroke="none" points="-4,4 -4,-793.669 1918,-793.669 1918,4 -4,4"/>
<!-- Node1 -->
<g id="node1" class="node"><title>Node1</title>
<polygon fill="#bfbfbf" stroke="black" points="1465,-309.5 1465,-328.5 1575,-328.5 1575,-309.5 1465,-309.5"/>
<text text-anchor="middle" x="1520" y="-316.5" font-family="Helvetica,sans-Serif" font-size="10.00">controller.Controller</text>
</g>
<!-- Node25 -->
<g id="node25" class="node"><title>Node25</title>
<g id="a_node25"><a xlink:href="../../d3/dc7/classview_1_1controllers_1_1_pane_controller.html" target="_top" xlink:title="view.controllers.PaneController">
<polygon fill="white" stroke="black" points="1752,-192.5 1752,-211.5 1914,-211.5 1914,-192.5 1752,-192.5"/>
<text text-anchor="middle" x="1833" y="-199.5" font-family="Helvetica,sans-Serif" font-size="10.00">view.controllers.PaneController</text>
</a>
</g>
</g>
<!-- Node1&#45;&gt;Node25 -->
<g id="edge35" class="edge"><title>Node1&#45;&gt;Node25</title>
<path fill="none" stroke="#9a32cd" stroke-dasharray="5,2" d="M1585.41,-321.772C1629.2,-321.235 1687.43,-315.659 1734,-294 1775.47,-274.711 1810.89,-231.03 1825.21,-211.614"/>
<polygon fill="#9a32cd" stroke="#9a32cd" points="1585.15,-318.273 1575.16,-321.81 1585.18,-325.273 1585.15,-318.273"/>
<text text-anchor="middle" x="1678" y="-323" font-family="Helvetica,sans-Serif" font-size="10.00"> myController</text>
</g>
<!-- Node2 -->
<g id="node2" class="node"><title>Node2</title>
<g id="a_node2"><a xlink:href="../../d3/d42/classmodel_1_1_model.html" target="_top" xlink:title="model.Model">
<polygon fill="white" stroke="black" points="1191,-348.5 1191,-367.5 1269,-367.5 1269,-348.5 1191,-348.5"/>
<text text-anchor="middle" x="1230" y="-355.5" font-family="Helvetica,sans-Serif" font-size="10.00">model.Model</text>
</a>
</g>
</g>
<!-- Node2&#45;&gt;Node1 -->
<g id="edge1" class="edge"><title>Node2&#45;&gt;Node1</title>
<path fill="none" stroke="#9a32cd" stroke-dasharray="5,2" d="M1279.41,-351.445C1330.69,-344.5 1411.49,-333.558 1464.86,-326.331"/>
<polygon fill="#9a32cd" stroke="#9a32cd" points="1278.68,-348.011 1269.24,-352.821 1279.62,-354.947 1278.68,-348.011"/>
<text text-anchor="middle" x="1369" y="-349" font-family="Helvetica,sans-Serif" font-size="10.00"> myModel</text>
</g>
<!-- Node7 -->
<g id="node7" class="node"><title>Node7</title>
<g id="a_node7"><a xlink:href="../../db/db5/classview_1_1panes_1_1_view_pane_module.html" target="_top" xlink:title="view.panes.ViewPaneModule">
<polygon fill="white" stroke="black" points="870.5,-535.5 870.5,-554.5 1021.5,-554.5 1021.5,-535.5 870.5,-535.5"/>
<text text-anchor="middle" x="946" y="-542.5" font-family="Helvetica,sans-Serif" font-size="10.00">view.panes.ViewPaneModule</text>
</a>
</g>
</g>
<!-- Node2&#45;&gt;Node7 -->
<g id="edge8" class="edge"><title>Node2&#45;&gt;Node7</title>
<path fill="none" stroke="#9a32cd" stroke-dasharray="5,2" d="M1210.28,-374.346C1193.13,-388.486 1166.44,-408.428 1140,-420 1098.31,-438.244 1079.35,-419.134 1040,-442 998.756,-465.97 965.678,-514.477 952.807,-535.226"/>
<polygon fill="#9a32cd" stroke="#9a32cd" points="1212.95,-376.678 1218.34,-367.556 1208.43,-371.327 1212.95,-376.678"/>
<text text-anchor="middle" x="1090" y="-445" font-family="Helvetica,sans-Serif" font-size="10.00"> myModel</text>
</g>
<!-- Node3 -->
<g id="node3" class="node"><title>Node3</title>
<polygon fill="white" stroke="#bfbfbf" points="566,-394.5 566,-413.5 680,-413.5 680,-394.5 566,-394.5"/>
<text text-anchor="middle" x="623" y="-401.5" font-family="Helvetica,sans-Serif" font-size="10.00">Set&lt; model.Turtle &gt;</text>
</g>
<!-- Node3&#45;&gt;Node2 -->
<g id="edge2" class="edge"><title>Node3&#45;&gt;Node2</title>
<path fill="none" stroke="#9a32cd" stroke-dasharray="5,2" d="M690.405,-402.405C788.857,-399.499 979.226,-391.803 1140,-373 1156.65,-371.052 1174.93,-368.112 1190.57,-365.35"/>
<polygon fill="#9a32cd" stroke="#9a32cd" points="690.199,-398.909 680.304,-402.696 690.4,-405.906 690.199,-398.909"/>
<text text-anchor="middle" x="946" y="-398" font-family="Helvetica,sans-Serif" font-size="10.00"> myFullSet</text>
</g>
<!-- Node3&#45;&gt;Node7 -->
<g id="edge9" class="edge"><title>Node3&#45;&gt;Node7</title>
<path fill="none" stroke="#9a32cd" stroke-dasharray="5,2" d="M690.384,-412.163C752.554,-420.183 837.956,-432.304 852,-440 894.711,-463.403 927.449,-514.326 939.728,-535.485"/>
<polygon fill="#9a32cd" stroke="#9a32cd" points="690.597,-408.662 680.233,-410.864 689.708,-415.606 690.597,-408.662"/>
<text text-anchor="middle" x="791" y="-454" font-family="Helvetica,sans-Serif" font-size="10.00"> myTurtles</text>
<text text-anchor="middle" x="791" y="-443" font-family="Helvetica,sans-Serif" font-size="10.00">myActiveTurtles</text>
</g>
<!-- Node23 -->
<g id="node23" class="node"><title>Node23</title>
<g id="a_node23"><a xlink:href="../../df/d50/classmodel_1_1_turtle_set_manager.html" target="_top" xlink:title="model.TurtleSetManager">
<polygon fill="white" stroke="black" points="879,-348.5 879,-367.5 1013,-367.5 1013,-348.5 879,-348.5"/>
<text text-anchor="middle" x="946" y="-355.5" font-family="Helvetica,sans-Serif" font-size="10.00">model.TurtleSetManager</text>
</a>
</g>
</g>
<!-- Node3&#45;&gt;Node23 -->
<g id="edge27" class="edge"><title>Node3&#45;&gt;Node23</title>
<path fill="none" stroke="#9a32cd" stroke-dasharray="5,2" d="M678.369,-392.315C689.497,-389.908 701.129,-387.381 712,-385 720.005,-383.246 721.913,-382.327 730,-381 779.639,-372.856 836.219,-366.936 878.874,-363.143"/>
<polygon fill="#9a32cd" stroke="#9a32cd" points="677.363,-388.951 668.328,-394.484 678.841,-395.793 677.363,-388.951"/>
<text text-anchor="middle" x="791" y="-384" font-family="Helvetica,sans-Serif" font-size="10.00"> mySet</text>
</g>
<!-- Node4 -->
<g id="node4" class="node"><title>Node4</title>
<g id="a_node4"><a xlink:href="../../d3/d62/classmodel_1_1_variable_manager.html" target="_top" xlink:title="model.VariableManager">
<polygon fill="white" stroke="black" points="881,-302.5 881,-321.5 1011,-321.5 1011,-302.5 881,-302.5"/>
<text text-anchor="middle" x="946" y="-309.5" font-family="Helvetica,sans-Serif" font-size="10.00">model.VariableManager</text>
</a>
</g>
</g>
<!-- Node4&#45;&gt;Node2 -->
<g id="edge3" class="edge"><title>Node4&#45;&gt;Node2</title>
<path fill="none" stroke="#9a32cd" stroke-dasharray="5,2" d="M1017.09,-323.125C1053.72,-328.973 1099.29,-336.3 1140,-343 1156.7,-345.748 1175.15,-348.847 1190.9,-351.512"/>
<polygon fill="#9a32cd" stroke="#9a32cd" points="1017.43,-319.635 1007,-321.516 1016.33,-326.548 1017.43,-319.635"/>
<text text-anchor="middle" x="1090" y="-346" font-family="Helvetica,sans-Serif" font-size="10.00"> myVariableManager</text>
</g>
<!-- Node5 -->
<g id="node5" class="node"><title>Node5</title>
<polygon fill="white" stroke="#bfbfbf" points="564,-307 564,-337 682,-337 682,-307 564,-307"/>
<text text-anchor="start" x="572" y="-325" font-family="Helvetica,sans-Serif" font-size="10.00">Stack&lt; Map&lt; String,</text>
<text text-anchor="middle" x="623" y="-314" font-family="Helvetica,sans-Serif" font-size="10.00"> Double &gt; &gt;</text>
</g>
<!-- Node5&#45;&gt;Node4 -->
<g id="edge4" class="edge"><title>Node5&#45;&gt;Node4</title>
<path fill="none" stroke="#9a32cd" stroke-dasharray="5,2" d="M692.276,-319.873C748.067,-318.135 826.362,-315.696 880.969,-313.995"/>
<polygon fill="#9a32cd" stroke="#9a32cd" points="692.017,-316.379 682.131,-320.189 692.235,-323.376 692.017,-316.379"/>
<text text-anchor="middle" x="791" y="-322" font-family="Helvetica,sans-Serif" font-size="10.00"> myLocalVariables</text>
</g>
<!-- Node6 -->
<g id="node6" class="node"><title>Node6</title>
<polygon fill="white" stroke="#bfbfbf" points="559,-268.5 559,-287.5 687,-287.5 687,-268.5 559,-268.5"/>
<text text-anchor="middle" x="623" y="-275.5" font-family="Helvetica,sans-Serif" font-size="10.00">Map&lt; String, Double &gt;</text>
</g>
<!-- Node6&#45;&gt;Node4 -->
<g id="edge5" class="edge"><title>Node6&#45;&gt;Node4</title>
<path fill="none" stroke="#9a32cd" stroke-dasharray="5,2" d="M697.637,-284.501C742.326,-288.596 800.491,-294.193 852,-300 861.383,-301.058 871.288,-302.252 880.997,-303.467"/>
<polygon fill="#9a32cd" stroke="#9a32cd" points="697.725,-280.994 687.449,-283.572 697.09,-287.965 697.725,-280.994"/>
<text text-anchor="middle" x="791" y="-303" font-family="Helvetica,sans-Serif" font-size="10.00"> myGlobalVariables</text>
</g>
<!-- Node7&#45;&gt;Node1 -->
<g id="edge46" class="edge"><title>Node7&#45;&gt;Node1</title>
<path fill="none" stroke="#9a32cd" stroke-dasharray="5,2" d="M999.273,-533.054C1038.51,-523.511 1093.28,-508.956 1140,-492 1283.12,-440.063 1447.12,-356.569 1500.9,-328.53"/>
<polygon fill="#9a32cd" stroke="#9a32cd" points="998.3,-529.688 989.396,-535.431 999.938,-536.494 998.3,-529.688"/>
<text text-anchor="middle" x="1230" y="-487" font-family="Helvetica,sans-Serif" font-size="10.00"> myView</text>
</g>
<!-- Node7&#45;&gt;Node2 -->
<g id="edge6" class="edge"><title>Node7&#45;&gt;Node2</title>
<path fill="none" stroke="#9a32cd" stroke-dasharray="5,2" d="M965.857,-528.902C983.811,-514.365 1012.15,-493.407 1040,-481 1081.75,-462.398 1100.73,-480.383 1140,-457 1179.12,-433.707 1210.74,-387.638 1223.23,-367.64"/>
<polygon fill="#9a32cd" stroke="#9a32cd" points="963.405,-526.388 957.926,-535.457 967.864,-531.784 963.405,-526.388"/>
<text text-anchor="middle" x="1090" y="-484" font-family="Helvetica,sans-Serif" font-size="10.00"> myView</text>
</g>
<!-- Node7&#45;&gt;Node25 -->
<g id="edge36" class="edge"><title>Node7&#45;&gt;Node25</title>
<path fill="none" stroke="#9a32cd" stroke-dasharray="5,2" d="M1032.17,-542.827C1187.13,-534.776 1519.02,-498.192 1734,-335 1780.6,-299.623 1815.16,-236.172 1827.28,-211.854"/>
<polygon fill="#9a32cd" stroke="#9a32cd" points="1031.58,-539.352 1021.77,-543.338 1031.93,-546.343 1031.58,-539.352"/>
<text text-anchor="middle" x="1369" y="-509" font-family="Helvetica,sans-Serif" font-size="10.00"> myView</text>
</g>
<!-- Node8 -->
<g id="node8" class="node"><title>Node8</title>
<g id="a_node8"><a xlink:href="../../df/dd6/classview_1_1panes_1_1_pane_module.html" target="_top" xlink:title="view.panes.PaneModule">
<polygon fill="white" stroke="black" points="558.5,-765.5 558.5,-784.5 687.5,-784.5 687.5,-765.5 558.5,-765.5"/>
<text text-anchor="middle" x="623" y="-772.5" font-family="Helvetica,sans-Serif" font-size="10.00">view.panes.PaneModule</text>
</a>
</g>
</g>
<!-- Node8&#45;&gt;Node7 -->
<g id="edge7" class="edge"><title>Node8&#45;&gt;Node7</title>
<path fill="none" stroke="midnightblue" d="M680.094,-785.906C729.852,-792.328 802.169,-793.333 852,-758 923.427,-707.355 940.585,-589.524 944.156,-554.798"/>
<polygon fill="midnightblue" stroke="midnightblue" points="680.535,-782.434 670.146,-784.512 679.564,-789.366 680.535,-782.434"/>
</g>
<!-- Node9 -->
<g id="node9" class="node"><title>Node9</title>
<polygon fill="white" stroke="#bfbfbf" points="603,-727.5 603,-746.5 643,-746.5 643,-727.5 603,-727.5"/>
<text text-anchor="middle" x="623" y="-734.5" font-family="Helvetica,sans-Serif" font-size="10.00">Pane</text>
</g>
<!-- Node9&#45;&gt;Node7 -->
<g id="edge10" class="edge"><title>Node9&#45;&gt;Node7</title>
<path fill="none" stroke="#9a32cd" stroke-dasharray="5,2" d="M653.01,-741.39C699.269,-746.796 790.758,-750.802 852,-710 910.015,-671.348 935.721,-583.558 942.844,-554.522"/>
<polygon fill="#9a32cd" stroke="#9a32cd" points="653.421,-737.914 643.059,-740.121 652.536,-744.858 653.421,-737.914"/>
<text text-anchor="middle" x="791" y="-746" font-family="Helvetica,sans-Serif" font-size="10.00"> myPane</text>
</g>
<!-- Node10 -->
<g id="node10" class="node"><title>Node10</title>
<polygon fill="white" stroke="#bfbfbf" points="569.5,-689.5 569.5,-708.5 676.5,-708.5 676.5,-689.5 569.5,-689.5"/>
<text text-anchor="middle" x="623" y="-696.5" font-family="Helvetica,sans-Serif" font-size="10.00">List&lt; ImageView &gt;</text>
</g>
<!-- Node10&#45;&gt;Node7 -->
<g id="edge11" class="edge"><title>Node10&#45;&gt;Node7</title>
<path fill="none" stroke="#9a32cd" stroke-dasharray="5,2" d="M686.693,-697.779C744.328,-695.652 824.819,-689.842 852,-674 901.138,-645.362 931.414,-579.283 941.366,-554.563"/>
<polygon fill="#9a32cd" stroke="#9a32cd" points="686.45,-694.285 676.575,-698.123 686.688,-701.281 686.45,-694.285"/>
<text text-anchor="middle" x="791" y="-698" font-family="Helvetica,sans-Serif" font-size="10.00"> myStamps</text>
</g>
<!-- Node11 -->
<g id="node11" class="node"><title>Node11</title>
<polygon fill="white" stroke="#bfbfbf" points="585.5,-651.5 585.5,-670.5 660.5,-670.5 660.5,-651.5 585.5,-651.5"/>
<text text-anchor="middle" x="623" y="-658.5" font-family="Helvetica,sans-Serif" font-size="10.00">List&lt; Line &gt;</text>
</g>
<!-- Node11&#45;&gt;Node7 -->
<g id="edge12" class="edge"><title>Node11&#45;&gt;Node7</title>
<path fill="none" stroke="#9a32cd" stroke-dasharray="5,2" d="M670.648,-662.304C718.385,-661.884 793.631,-656.266 852,-629 890.044,-611.228 923.584,-572.509 937.787,-554.529"/>
<polygon fill="#9a32cd" stroke="#9a32cd" points="670.597,-658.804 660.602,-662.319 670.607,-665.804 670.597,-658.804"/>
<text text-anchor="middle" x="791" y="-662" font-family="Helvetica,sans-Serif" font-size="10.00"> myGrid</text>
</g>
<!-- Node12 -->
<g id="node12" class="node"><title>Node12</title>
<polygon fill="white" stroke="#bfbfbf" points="596,-613.5 596,-632.5 650,-632.5 650,-613.5 596,-613.5"/>
<text text-anchor="middle" x="623" y="-620.5" font-family="Helvetica,sans-Serif" font-size="10.00">Point2D</text>
</g>
<!-- Node12&#45;&gt;Node7 -->
<g id="edge13" class="edge"><title>Node12&#45;&gt;Node7</title>
<path fill="none" stroke="#9a32cd" stroke-dasharray="5,2" d="M660.213,-621.185C705.823,-618.126 786.187,-610.157 852,-590 880.47,-581.281 911.121,-564.948 929.155,-554.542"/>
<polygon fill="#9a32cd" stroke="#9a32cd" points="659.971,-617.693 650.211,-621.814 660.41,-624.679 659.971,-617.693"/>
<text text-anchor="middle" x="791" y="-617" font-family="Helvetica,sans-Serif" font-size="10.00"> myCurrentPoint</text>
</g>
<!-- Node13 -->
<g id="node13" class="node"><title>Node13</title>
<polygon fill="white" stroke="#bfbfbf" points="547.5,-575.5 547.5,-594.5 698.5,-594.5 698.5,-575.5 547.5,-575.5"/>
<text text-anchor="middle" x="623" y="-582.5" font-family="Helvetica,sans-Serif" font-size="10.00">Map&lt; Integer, ImageView &gt;</text>
</g>
<!-- Node13&#45;&gt;Node7 -->
<g id="edge14" class="edge"><title>Node13&#45;&gt;Node7</title>
<path fill="none" stroke="#9a32cd" stroke-dasharray="5,2" d="M708.701,-576.745C751.689,-572.294 804.691,-566.405 852,-560 863.993,-558.376 876.823,-556.438 889.005,-554.503"/>
<polygon fill="#9a32cd" stroke="#9a32cd" points="708.153,-573.283 698.563,-577.787 708.869,-580.246 708.153,-573.283"/>
<text text-anchor="middle" x="791" y="-578" font-family="Helvetica,sans-Serif" font-size="10.00"> myIcons</text>
</g>
<!-- Node14 -->
<g id="node14" class="node"><title>Node14</title>
<g id="a_node14"><a xlink:href="../../d3/db7/classview_1_1controllers_1_1_image_palette.html" target="_top" xlink:title="view.controllers.ImagePalette">
<polygon fill="white" stroke="black" points="260.5,-510.5 260.5,-529.5 415.5,-529.5 415.5,-510.5 260.5,-510.5"/>
<text text-anchor="middle" x="338" y="-517.5" font-family="Helvetica,sans-Serif" font-size="10.00">view.controllers.ImagePalette</text>
</a>
</g>
</g>
<!-- Node14&#45;&gt;Node7 -->
<g id="edge15" class="edge"><title>Node14&#45;&gt;Node7</title>
<path fill="none" stroke="#9a32cd" stroke-dasharray="5,2" d="M425.804,-527.491C428.567,-527.671 431.305,-527.842 434,-528 589.071,-537.103 770.921,-541.705 870.474,-543.705"/>
<polygon fill="#9a32cd" stroke="#9a32cd" points="425.93,-523.991 415.714,-526.796 425.45,-530.975 425.93,-523.991"/>
<text text-anchor="middle" x="623" y="-543" font-family="Helvetica,sans-Serif" font-size="10.00"> myImagePalette</text>
</g>
<!-- Node19 -->
<g id="node19" class="node"><title>Node19</title>
<g id="a_node19"><a xlink:href="../../d7/da6/classview_1_1_turtle_draw.html" target="_top" xlink:title="view.TurtleDraw">
<polygon fill="white" stroke="black" points="578.5,-490.5 578.5,-509.5 667.5,-509.5 667.5,-490.5 578.5,-490.5"/>
<text text-anchor="middle" x="623" y="-497.5" font-family="Helvetica,sans-Serif" font-size="10.00">view.TurtleDraw</text>
</a>
</g>
</g>
<!-- Node14&#45;&gt;Node19 -->
<g id="edge22" class="edge"><title>Node14&#45;&gt;Node19</title>
<path fill="none" stroke="#9a32cd" stroke-dasharray="5,2" d="M425.858,-513.862C476.375,-510.291 537.871,-505.946 578.381,-503.083"/>
<polygon fill="#9a32cd" stroke="#9a32cd" points="425.312,-510.391 415.584,-514.588 425.806,-517.374 425.312,-510.391"/>
<text text-anchor="middle" x="475" y="-516" font-family="Helvetica,sans-Serif" font-size="10.00"> myImagePalette</text>
</g>
<!-- Node14&#45;&gt;Node25 -->
<g id="edge37" class="edge"><title>Node14&#45;&gt;Node25</title>
<path fill="none" stroke="#9a32cd" stroke-dasharray="5,2" d="M395.935,-508.296C444.623,-497.739 508.071,-482.46 516,-473 546.656,-436.425 500.089,-292.579 534,-259 615.07,-178.723 675.909,-240 790,-240 790,-240 790,-240 1521,-240 1614.69,-240 1723.1,-222.796 1784.01,-211.54"/>
<polygon fill="#9a32cd" stroke="#9a32cd" points="395.147,-504.885 386.105,-510.407 396.617,-511.729 395.147,-504.885"/>
<text text-anchor="middle" x="1090" y="-243" font-family="Helvetica,sans-Serif" font-size="10.00"> myImagePalette</text>
</g>
<!-- Node15 -->
<g id="node15" class="node"><title>Node15</title>
<polygon fill="white" stroke="#bfbfbf" points="10,-567.5 10,-586.5 128,-586.5 128,-567.5 10,-567.5"/>
<text text-anchor="middle" x="69" y="-574.5" font-family="Helvetica,sans-Serif" font-size="10.00">ChoiceBox&lt; String &gt;</text>
</g>
<!-- Node15&#45;&gt;Node14 -->
<g id="edge16" class="edge"><title>Node15&#45;&gt;Node14</title>
<path fill="none" stroke="#9a32cd" stroke-dasharray="5,2" d="M138.134,-567.432C169.879,-562.485 208.053,-555.835 242,-548 264.283,-542.857 289.054,-535.5 307.714,-529.618"/>
<polygon fill="#9a32cd" stroke="#9a32cd" points="137.42,-564.001 128.067,-568.978 138.482,-570.92 137.42,-564.001"/>
<text text-anchor="middle" x="199" y="-568" font-family="Helvetica,sans-Serif" font-size="10.00"> myChoiceImages</text>
</g>
<!-- Node16 -->
<g id="node16" class="node"><title>Node16</title>
<polygon fill="white" stroke="#bfbfbf" points="27,-529.5 27,-548.5 111,-548.5 111,-529.5 27,-529.5"/>
<text text-anchor="middle" x="69" y="-536.5" font-family="Helvetica,sans-Serif" font-size="10.00">List&lt; String &gt;</text>
</g>
<!-- Node16&#45;&gt;Node14 -->
<g id="edge17" class="edge"><title>Node16&#45;&gt;Node14</title>
<path fill="none" stroke="#9a32cd" stroke-dasharray="5,2" d="M121.301,-535.349C160.693,-532.546 215.717,-528.631 260.331,-525.456"/>
<polygon fill="#9a32cd" stroke="#9a32cd" points="120.86,-531.872 111.134,-536.073 121.357,-538.854 120.86,-531.872"/>
<text text-anchor="middle" x="199" y="-536" font-family="Helvetica,sans-Serif" font-size="10.00"> myChoices</text>
</g>
<!-- Node17 -->
<g id="node17" class="node"><title>Node17</title>
<polygon fill="white" stroke="#bfbfbf" points="5,-491.5 5,-510.5 133,-510.5 133,-491.5 5,-491.5"/>
<text text-anchor="middle" x="69" y="-498.5" font-family="Helvetica,sans-Serif" font-size="10.00">Map&lt; Integer, String &gt;</text>
</g>
<!-- Node17&#45;&gt;Node14 -->
<g id="edge18" class="edge"><title>Node17&#45;&gt;Node14</title>
<path fill="none" stroke="#9a32cd" stroke-dasharray="5,2" d="M143.439,-506.06C173.931,-508.178 209.676,-510.682 242,-513 247.938,-513.426 254.085,-513.87 260.264,-514.32"/>
<polygon fill="#9a32cd" stroke="#9a32cd" points="143.53,-502.558 133.312,-505.358 143.046,-509.542 143.53,-502.558"/>
<text text-anchor="middle" x="199" y="-516" font-family="Helvetica,sans-Serif" font-size="10.00"> myImages</text>
</g>
<!-- Node18 -->
<g id="node18" class="node"><title>Node18</title>
<polygon fill="white" stroke="#bfbfbf" points="0,-453.5 0,-472.5 138,-472.5 138,-453.5 0,-453.5"/>
<text text-anchor="middle" x="69" y="-460.5" font-family="Helvetica,sans-Serif" font-size="10.00">ObservableList&lt; String &gt;</text>
</g>
<!-- Node18&#45;&gt;Node14 -->
<g id="edge19" class="edge"><title>Node18&#45;&gt;Node14</title>
<path fill="none" stroke="#9a32cd" stroke-dasharray="5,2" d="M144.152,-474.196C174.612,-479.246 210.142,-485.715 242,-493 263.729,-497.969 287.888,-504.854 306.405,-510.427"/>
<polygon fill="#9a32cd" stroke="#9a32cd" points="144.464,-470.701 134.029,-472.539 143.333,-477.609 144.464,-470.701"/>
<text text-anchor="middle" x="199" y="-496" font-family="Helvetica,sans-Serif" font-size="10.00"> myObservable</text>
</g>
<!-- Node19&#45;&gt;Node7 -->
<g id="edge20" class="edge"><title>Node19&#45;&gt;Node7</title>
<path fill="none" stroke="#9a32cd" stroke-dasharray="5,2" d="M677.691,-502.506C724.098,-505.251 792.835,-510.71 852,-521 872.535,-524.572 895.189,-530.377 912.997,-535.384"/>
<polygon fill="#9a32cd" stroke="#9a32cd" points="677.741,-499.003 667.558,-501.928 677.343,-505.992 677.741,-499.003"/>
<text text-anchor="middle" x="791" y="-524" font-family="Helvetica,sans-Serif" font-size="10.00"> myDraw</text>
</g>
<!-- Node20 -->
<g id="node20" class="node"><title>Node20</title>
<polygon fill="white" stroke="#bfbfbf" points="320,-453.5 320,-472.5 356,-472.5 356,-453.5 320,-453.5"/>
<text text-anchor="middle" x="338" y="-460.5" font-family="Helvetica,sans-Serif" font-size="10.00">Line</text>
</g>
<!-- Node20&#45;&gt;Node19 -->
<g id="edge21" class="edge"><title>Node20&#45;&gt;Node19</title>
<path fill="none" stroke="#9a32cd" stroke-dasharray="5,2" d="M366.472,-466.592C415.711,-473.029 519.348,-486.579 578.391,-494.298"/>
<polygon fill="#9a32cd" stroke="#9a32cd" points="366.646,-463.085 356.277,-465.259 365.739,-470.026 366.646,-463.085"/>
<text text-anchor="middle" x="475" y="-489" font-family="Helvetica,sans-Serif" font-size="10.00"> myPath</text>
</g>
<!-- Node21 -->
<g id="node21" class="node"><title>Node21</title>
<polygon fill="white" stroke="#bfbfbf" points="322,-415.5 322,-434.5 354,-434.5 354,-415.5 322,-415.5"/>
<text text-anchor="middle" x="338" y="-422.5" font-family="Helvetica,sans-Serif" font-size="10.00">File</text>
</g>
<!-- Node21&#45;&gt;Node19 -->
<g id="edge23" class="edge"><title>Node21&#45;&gt;Node19</title>
<path fill="none" stroke="#9a32cd" stroke-dasharray="5,2" d="M364.383,-426.693C399.803,-429.843 465.397,-438.574 516,-462 525.197,-466.258 524.935,-471.468 534,-476 547.739,-482.87 563.701,-487.979 578.228,-491.676"/>
<polygon fill="#9a32cd" stroke="#9a32cd" points="364.659,-423.204 354.409,-425.885 364.094,-430.182 364.659,-423.204"/>
<text text-anchor="middle" x="475" y="-465" font-family="Helvetica,sans-Serif" font-size="10.00"> myImage</text>
</g>
<!-- Node22 -->
<g id="node22" class="node"><title>Node22</title>
<polygon fill="white" stroke="#bfbfbf" points="317.5,-350.5 317.5,-369.5 358.5,-369.5 358.5,-350.5 317.5,-350.5"/>
<text text-anchor="middle" x="338" y="-357.5" font-family="Helvetica,sans-Serif" font-size="10.00">Color</text>
</g>
<!-- Node22&#45;&gt;Node2 -->
<g id="edge29" class="edge"><title>Node22&#45;&gt;Node2</title>
<path fill="none" stroke="#9a32cd" stroke-dasharray="5,2" d="M356.463,-342.911C388.488,-312.83 460.134,-251.224 534,-226 788.904,-138.955 904.589,-87.1006 1140,-218 1192.36,-247.113 1218.39,-321.339 1226.31,-348.151"/>
<polygon fill="#9a32cd" stroke="#9a32cd" points="353.672,-340.736 348.853,-350.172 358.505,-345.801 353.672,-340.736"/>
<text text-anchor="middle" x="791" y="-165" font-family="Helvetica,sans-Serif" font-size="10.00"> myBackground</text>
</g>
<!-- Node22&#45;&gt;Node7 -->
<g id="edge25" class="edge"><title>Node22&#45;&gt;Node7</title>
<path fill="none" stroke="#9a32cd" stroke-dasharray="5,2" d="M368.596,-353.672C406.73,-347.32 473.194,-342.575 516,-375 534.162,-388.757 516.659,-408.221 534,-423 595.43,-475.353 633.837,-438.872 712,-459 775.162,-475.265 791.059,-479.758 852,-503 877.988,-512.911 907.079,-526.463 925.692,-535.461"/>
<polygon fill="#9a32cd" stroke="#9a32cd" points="367.851,-350.25 358.635,-355.477 369.099,-357.138 367.851,-350.25"/>
<text text-anchor="middle" x="623" y="-473" font-family="Helvetica,sans-Serif" font-size="10.00"> defColor</text>
<text text-anchor="middle" x="623" y="-462" font-family="Helvetica,sans-Serif" font-size="10.00">myBackColor</text>
</g>
<!-- Node22&#45;&gt;Node19 -->
<g id="edge24" class="edge"><title>Node22&#45;&gt;Node19</title>
<path fill="none" stroke="#9a32cd" stroke-dasharray="5,2" d="M368.884,-362.716C407.899,-367.826 475.923,-382.335 516,-423 533.462,-440.718 515.88,-458.955 534,-476 545.996,-487.284 562.769,-493.361 578.457,-496.599"/>
<polygon fill="#9a32cd" stroke="#9a32cd" points="369.038,-359.21 358.696,-361.51 368.215,-366.162 369.038,-359.21"/>
<text text-anchor="middle" x="475" y="-426" font-family="Helvetica,sans-Serif" font-size="10.00"> myLineColor</text>
</g>
<!-- Node23&#45;&gt;Node2 -->
<g id="edge26" class="edge"><title>Node23&#45;&gt;Node2</title>
<path fill="none" stroke="#9a32cd" stroke-dasharray="5,2" d="M1023.37,-358C1077.48,-358 1147.81,-358 1190.62,-358"/>
<polygon fill="#9a32cd" stroke="#9a32cd" points="1023.12,-354.5 1013.12,-358 1023.12,-361.5 1023.12,-354.5"/>
<text text-anchor="middle" x="1090" y="-361" font-family="Helvetica,sans-Serif" font-size="10.00"> myTurtleManager</text>
</g>
<!-- Node24 -->
<g id="node24" class="node"><title>Node24</title>
<polygon fill="white" stroke="#bfbfbf" points="541,-356.5 541,-375.5 705,-375.5 705,-356.5 541,-356.5"/>
<text text-anchor="middle" x="623" y="-363.5" font-family="Helvetica,sans-Serif" font-size="10.00">Stack&lt; Set&lt; model.Turtle &gt; &gt;</text>
</g>
<!-- Node24&#45;&gt;Node23 -->
<g id="edge28" class="edge"><title>Node24&#45;&gt;Node23</title>
<path fill="none" stroke="#9a32cd" stroke-dasharray="5,2" d="M677.268,-354.548C694.057,-351.453 712.728,-348.536 730,-347 784.009,-342.198 797.872,-343.81 852,-347 860.683,-347.512 869.799,-348.29 878.787,-349.201"/>
<polygon fill="#9a32cd" stroke="#9a32cd" points="676.256,-351.178 667.088,-356.488 677.566,-358.055 676.256,-351.178"/>
<text text-anchor="middle" x="791" y="-350" font-family="Helvetica,sans-Serif" font-size="10.00"> myStack</text>
</g>
<!-- Node25&#45;&gt;Node1 -->
<g id="edge30" class="edge"><title>Node25&#45;&gt;Node1</title>
<path fill="none" stroke="#9a32cd" stroke-dasharray="5,2" d="M1807.42,-216.712C1788.01,-227.851 1759.96,-242.907 1734,-253 1685.97,-271.672 1671.2,-267.67 1622,-283 1595.87,-291.14 1566.45,-301.802 1546.13,-309.406"/>
<polygon fill="#9a32cd" stroke="#9a32cd" points="1809.32,-219.653 1816.21,-211.598 1805.8,-213.603 1809.32,-219.653"/>
<text text-anchor="middle" x="1678" y="-286" font-family="Helvetica,sans-Serif" font-size="10.00"> myPane</text>
</g>
<!-- Node26 -->
<g id="node26" class="node"><title>Node26</title>
<polygon fill="white" stroke="#bfbfbf" points="1490,-192.5 1490,-211.5 1550,-211.5 1550,-192.5 1490,-192.5"/>
<text text-anchor="middle" x="1520" y="-199.5" font-family="Helvetica,sans-Serif" font-size="10.00">Observer</text>
</g>
<!-- Node26&#45;&gt;Node25 -->
<g id="edge31" class="edge"><title>Node26&#45;&gt;Node25</title>
<path fill="none" stroke="midnightblue" d="M1560.52,-202C1608.44,-202 1690.38,-202 1751.74,-202"/>
<polygon fill="midnightblue" stroke="midnightblue" points="1560.26,-198.5 1550.26,-202 1560.26,-205.5 1560.26,-198.5"/>
</g>
<!-- Node27 -->
<g id="node27" class="node"><title>Node27</title>
<polygon fill="white" stroke="#bfbfbf" points="1436,-154.5 1436,-173.5 1604,-173.5 1604,-154.5 1436,-154.5"/>
<text text-anchor="middle" x="1520" y="-161.5" font-family="Helvetica,sans-Serif" font-size="10.00">List&lt; view.panes.PaneModule &gt;</text>
</g>
<!-- Node27&#45;&gt;Node25 -->
<g id="edge32" class="edge"><title>Node27&#45;&gt;Node25</title>
<path fill="none" stroke="#9a32cd" stroke-dasharray="5,2" d="M1614.39,-173.179C1651.64,-177.077 1694.89,-181.898 1734,-187 1746.54,-188.637 1759.96,-190.57 1772.72,-192.495"/>
<polygon fill="#9a32cd" stroke="#9a32cd" points="1614.36,-169.657 1604.05,-172.105 1613.63,-176.62 1614.36,-169.657"/>
<text text-anchor="middle" x="1678" y="-190" font-family="Helvetica,sans-Serif" font-size="10.00"> myPanes</text>
</g>
<!-- Node28 -->
<g id="node28" class="node"><title>Node28</title>
<g id="a_node28"><a xlink:href="../../d8/dd2/classview_1_1_command_string.html" target="_top" xlink:title="view.CommandString">
<polygon fill="white" stroke="black" points="1461,-116.5 1461,-135.5 1579,-135.5 1579,-116.5 1461,-116.5"/>
<text text-anchor="middle" x="1520" y="-123.5" font-family="Helvetica,sans-Serif" font-size="10.00">view.CommandString</text>
</a>
</g>
</g>
<!-- Node28&#45;&gt;Node25 -->
<g id="edge33" class="edge"><title>Node28&#45;&gt;Node25</title>
<path fill="none" stroke="#9a32cd" stroke-dasharray="5,2" d="M1589.43,-132.577C1631.67,-137.7 1686.64,-146.301 1734,-160 1762.63,-168.281 1794.01,-182.758 1813.36,-192.363"/>
<polygon fill="#9a32cd" stroke="#9a32cd" points="1589.59,-129.072 1579.25,-131.379 1588.77,-136.024 1589.59,-129.072"/>
<text text-anchor="middle" x="1678" y="-163" font-family="Helvetica,sans-Serif" font-size="10.00"> myCommand</text>
</g>
<!-- Node29 -->
<g id="node29" class="node"><title>Node29</title>
<polygon fill="white" stroke="#bfbfbf" points="1194.5,-116.5 1194.5,-135.5 1265.5,-135.5 1265.5,-116.5 1194.5,-116.5"/>
<text text-anchor="middle" x="1230" y="-123.5" font-family="Helvetica,sans-Serif" font-size="10.00">Observable</text>
</g>
<!-- Node29&#45;&gt;Node28 -->
<g id="edge34" class="edge"><title>Node29&#45;&gt;Node28</title>
<path fill="none" stroke="midnightblue" d="M1275.89,-126C1325.74,-126 1406.37,-126 1460.97,-126"/>
<polygon fill="midnightblue" stroke="midnightblue" points="1275.74,-122.5 1265.74,-126 1275.74,-129.5 1275.74,-122.5"/>
</g>
<!-- Node30 -->
<g id="node30" class="node"><title>Node30</title>
<g id="a_node30"><a xlink:href="../../df/d94/classview_1_1controllers_1_1_language_controller.html" target="_top" xlink:title="view.controllers.Language\lController">
<polygon fill="white" stroke="black" points="1450,-20 1450,-50 1590,-50 1590,-20 1450,-20"/>
<text text-anchor="start" x="1458" y="-38" font-family="Helvetica,sans-Serif" font-size="10.00">view.controllers.Language</text>
<text text-anchor="middle" x="1520" y="-27" font-family="Helvetica,sans-Serif" font-size="10.00">Controller</text>
</a>
</g>
</g>
<!-- Node30&#45;&gt;Node25 -->
<g id="edge38" class="edge"><title>Node30&#45;&gt;Node25</title>
<path fill="none" stroke="#9a32cd" stroke-dasharray="5,2" d="M1600.4,-30.0694C1642.79,-30.9741 1694.26,-38.0144 1734,-62 1786.83,-93.8906 1818.51,-166.381 1828.53,-192.444"/>
<polygon fill="#9a32cd" stroke="#9a32cd" points="1600.43,-26.5696 1590.39,-29.9646 1600.35,-33.5692 1600.43,-26.5696"/>
<text text-anchor="middle" x="1678" y="-65" font-family="Helvetica,sans-Serif" font-size="10.00"> myLanguageController</text>
</g>
<!-- Node31 -->
<g id="node31" class="node"><title>Node31</title>
<g id="a_node31"><a xlink:href="../../d8/dce/classcontroller_1_1_master_controller.html" target="_top" xlink:title="controller.MasterController">
<polygon fill="white" stroke="black" points="1158.5,-64.5 1158.5,-83.5 1301.5,-83.5 1301.5,-64.5 1158.5,-64.5"/>
<text text-anchor="middle" x="1230" y="-71.5" font-family="Helvetica,sans-Serif" font-size="10.00">controller.MasterController</text>
</a>
</g>
</g>
<!-- Node31&#45;&gt;Node25 -->
<g id="edge45" class="edge"><title>Node31&#45;&gt;Node25</title>
<path fill="none" stroke="#9a32cd" stroke-dasharray="5,2" d="M1312.11,-73.5407C1388.08,-74.3448 1504.5,-78.7506 1604,-96 1663.31,-106.282 1679.68,-108.061 1734,-134 1768.01,-150.241 1803.19,-177.758 1820.69,-192.31"/>
<polygon fill="#9a32cd" stroke="#9a32cd" points="1311.69,-70.037 1301.66,-73.4501 1311.63,-77.0368 1311.69,-70.037"/>
<text text-anchor="middle" x="1520" y="-99" font-family="Helvetica,sans-Serif" font-size="10.00"> myMasterController</text>
</g>
<!-- Node31&#45;&gt;Node30 -->
<g id="edge39" class="edge"><title>Node31&#45;&gt;Node30</title>
<path fill="none" stroke="#9a32cd" stroke-dasharray="5,2" d="M1311.43,-63.108C1354.94,-57.2167 1408.13,-50.0139 1449.77,-44.3746"/>
<polygon fill="#9a32cd" stroke="#9a32cd" points="1310.89,-59.6492 1301.45,-64.4595 1311.83,-66.5859 1310.89,-59.6492"/>
<text text-anchor="middle" x="1369" y="-65" font-family="Helvetica,sans-Serif" font-size="10.00"> myMasterController</text>
</g>
<!-- Node32 -->
<g id="node32" class="node"><title>Node32</title>
<g id="a_node32"><a xlink:href="../../d6/d95/classparser_1_1_parser.html" target="_top" xlink:title="parser.Parser">
<polygon fill="white" stroke="black" points="906,-44.5 906,-63.5 986,-63.5 986,-44.5 906,-44.5"/>
<text text-anchor="middle" x="946" y="-51.5" font-family="Helvetica,sans-Serif" font-size="10.00">parser.Parser</text>
</a>
</g>
</g>
<!-- Node32&#45;&gt;Node31 -->
<g id="edge40" class="edge"><title>Node32&#45;&gt;Node31</title>
<path fill="none" stroke="#9a32cd" stroke-dasharray="5,2" d="M996.257,-56.2112C1035.28,-58.1068 1091.17,-61.1412 1140,-65 1145.88,-65.4649 1151.98,-65.9901 1158.1,-66.5474"/>
<polygon fill="#9a32cd" stroke="#9a32cd" points="996.372,-52.7128 986.216,-55.7305 996.038,-59.7048 996.372,-52.7128"/>
<text text-anchor="middle" x="1090" y="-68" font-family="Helvetica,sans-Serif" font-size="10.00"> myParser</text>
</g>
<!-- Node33 -->
<g id="node33" class="node"><title>Node33</title>
<polygon fill="white" stroke="#bfbfbf" points="562,-88.5 562,-107.5 684,-107.5 684,-88.5 562,-88.5"/>
<text text-anchor="middle" x="623" y="-95.5" font-family="Helvetica,sans-Serif" font-size="10.00">Map&lt; String, String &gt;</text>
</g>
<!-- Node33&#45;&gt;Node32 -->
<g id="edge41" class="edge"><title>Node33&#45;&gt;Node32</title>
<path fill="none" stroke="#9a32cd" stroke-dasharray="5,2" d="M694.059,-89.7029C739.202,-84.2051 799.128,-76.6242 852,-69 869.644,-66.4557 889.123,-63.3587 905.676,-60.6409"/>
<polygon fill="#9a32cd" stroke="#9a32cd" points="693.586,-86.2346 684.08,-90.9137 694.429,-93.1836 693.586,-86.2346"/>
<text text-anchor="middle" x="791" y="-99" font-family="Helvetica,sans-Serif" font-size="10.00"> myRegularExpressions</text>
<text text-anchor="middle" x="791" y="-88" font-family="Helvetica,sans-Serif" font-size="10.00">myCommandMap</text>
</g>
<!-- Node34 -->
<g id="node34" class="node"><title>Node34</title>
<polygon fill="white" stroke="#bfbfbf" points="534.5,-39 534.5,-69 711.5,-69 711.5,-39 534.5,-39"/>
<text text-anchor="start" x="542.5" y="-57" font-family="Helvetica,sans-Serif" font-size="10.00">Map&lt; String, commands.Custom</text>
<text text-anchor="middle" x="623" y="-46" font-family="Helvetica,sans-Serif" font-size="10.00">Command &gt;</text>
</g>
<!-- Node34&#45;&gt;Node32 -->
<g id="edge42" class="edge"><title>Node34&#45;&gt;Node32</title>
<path fill="none" stroke="#9a32cd" stroke-dasharray="5,2" d="M721.911,-54C783.832,-54 860.49,-54 905.92,-54"/>
<polygon fill="#9a32cd" stroke="#9a32cd" points="721.715,-50.5001 711.715,-54 721.715,-57.5001 721.715,-50.5001"/>
<text text-anchor="middle" x="791" y="-57" font-family="Helvetica,sans-Serif" font-size="10.00"> myUserInputCommands</text>
</g>
<!-- Node35 -->
<g id="node35" class="node"><title>Node35</title>
<polygon fill="white" stroke="#bfbfbf" points="575.5,-0.5 575.5,-19.5 670.5,-19.5 670.5,-0.5 575.5,-0.5"/>
<text text-anchor="middle" x="623" y="-7.5" font-family="Helvetica,sans-Serif" font-size="10.00">Stack&lt; String &gt;</text>
</g>
<!-- Node35&#45;&gt;Node32 -->
<g id="edge43" class="edge"><title>Node35&#45;&gt;Node32</title>
<path fill="none" stroke="#9a32cd" stroke-dasharray="5,2" d="M680.894,-16.7018C727.062,-22.2687 793.804,-30.6081 852,-39 869.644,-41.5443 889.123,-44.6413 905.676,-47.3591"/>
<polygon fill="#9a32cd" stroke="#9a32cd" points="681.131,-13.2051 670.785,-15.4874 680.296,-20.1552 681.131,-13.2051"/>
<text text-anchor="middle" x="791" y="-42" font-family="Helvetica,sans-Serif" font-size="10.00"> myCommandStack</text>
</g>
<!-- Node36 -->
<g id="node36" class="node"><title>Node36</title>
<polygon fill="white" stroke="#bfbfbf" points="918,-82.5 918,-101.5 974,-101.5 974,-82.5 918,-82.5"/>
<text text-anchor="middle" x="946" y="-89.5" font-family="Helvetica,sans-Serif" font-size="10.00">Random</text>
</g>
<!-- Node36&#45;&gt;Node31 -->
<g id="edge44" class="edge"><title>Node36&#45;&gt;Node31</title>
<path fill="none" stroke="#9a32cd" stroke-dasharray="5,2" d="M984.043,-89.6356C1028.2,-86.8173 1102.95,-82.0457 1158.29,-78.5133"/>
<polygon fill="#9a32cd" stroke="#9a32cd" points="983.796,-86.1441 974.039,-90.2741 984.242,-93.1299 983.796,-86.1441"/>
<text text-anchor="middle" x="1090" y="-89" font-family="Helvetica,sans-Serif" font-size="10.00"> myRandom</text>
</g>
</g>
</svg>
        <g id="navigator" transform="translate(0 0)" fill="#404254">
                <rect fill="#f2f5e9" fill-opacity="0.5" stroke="#606060" stroke-width=".5" x="0" y="0" width="60" height="60"/>
                <use id="zoomplus" xlink:href="#zoomPlus" x="17" y="9" onmousedown="handleZoom(evt,'in')"/>
                <use id="zoomminus" xlink:href="#zoomMin" x="42" y="9" onmousedown="handleZoom(evt,'out')"/>
                <use id="reset" xlink:href="#resetDef" x="30" y="36" onmousedown="handleReset()"/>
                <g id="arrowUp" xlink:href="#dirArrow" transform="translate(30 24)" onmousedown="handlePan(0,-1)">
                  <use xlink:href="#rim" fill="#404040">
                        <set attributeName="fill" to="#808080" begin="arrowUp.mouseover" end="arrowUp.mouseout"/>
                  </use>
                  <path fill="none" stroke="white" stroke-width="1.5" d="M0,-3.0v7 M-2.5,-0.5L0,-3.0L2.5,-0.5"/>
                </g>
                <g id="arrowRight" xlink:href="#dirArrow" transform="rotate(90) translate(36 -43)" onmousedown="handlePan(1,0)">
                  <use xlink:href="#rim" fill="#404040">
                        <set attributeName="fill" to="#808080" begin="arrowRight.mouseover" end="arrowRight.mouseout"/>
                  </use>
                  <path fill="none" stroke="white" stroke-width="1.5" d="M0,-3.0v7 M-2.5,-0.5L0,-3.0L2.5,-0.5"/>
                </g>
                <g id="arrowDown" xlink:href="#dirArrow" transform="rotate(180) translate(-30 -48)" onmousedown="handlePan(0,1)">
                  <use xlink:href="#rim" fill="#404040">
                        <set attributeName="fill" to="#808080" begin="arrowDown.mouseover" end="arrowDown.mouseout"/>
                  </use>
                  <path fill="none" stroke="white" stroke-width="1.5" d="M0,-3.0v7 M-2.5,-0.5L0,-3.0L2.5,-0.5"/>
                </g>
                <g id="arrowLeft" xlink:href="#dirArrow" transform="rotate(270) translate(-36 17)" onmousedown="handlePan(-1,0)">
                  <use xlink:href="#rim" fill="#404040">
                        <set attributeName="fill" to="#808080" begin="arrowLeft.mouseover" end="arrowLeft.mouseout"/>
                  </use>
                  <path fill="none" stroke="white" stroke-width="1.5" d="M0,-3.0v7 M-2.5,-0.5L0,-3.0L2.5,-0.5"/>
                </g>
        </g>
        <svg viewBox="0 0 15 15" width="100%" height="30px" preserveAspectRatio="xMaxYMin meet">
         <g id="arrow_out" transform="scale(0.3 0.3)">
          <a xlink:href="classcontroller_1_1_controller__coll__graph_org.svg" target="_base">
           <rect id="button" ry="5" rx="5" y="6" x="6" height="38" width="38"
                fill="#f2f5e9" fill-opacity="0.5" stroke="#606060" stroke-width="1.0"/>
           <path id="arrow"
             d="M 11.500037,31.436501 C 11.940474,20.09759 22.043105,11.32322 32.158766,21.979434 L 37.068811,17.246167 C 37.068811,17.246167 37.088388,32 37.088388,32 L 22.160133,31.978069 C 22.160133,31.978069 26.997745,27.140456 26.997745,27.140456 C 18.528582,18.264221 13.291696,25.230495 11.500037,31.436501 z"
             style="fill:#404040;"/>
          </a>
         </g>
        </svg>
</svg>
