<?xml version="1.0" encoding="UTF-8" standalone="no"?>
<!DOCTYPE svg PUBLIC "-//W3C//DTD SVG 1.1//EN"
 "http://www.w3.org/Graphics/SVG/1.1/DTD/svg11.dtd">
<!-- Generated by graphviz version 2.36.0 (20140111.2315)
 -->
<!-- Title: view.Constants Pages: 1 -->
<svg width="265pt" height="106pt"
 viewBox="0.00 0.00 265.00 106.00" xmlns="http://www.w3.org/2000/svg" xmlns:xlink="http://www.w3.org/1999/xlink">
<g id="graph0" class="graph" transform="scale(1 1) rotate(0) translate(4 102)">
<title>view.Constants</title>
<polygon fill="white" stroke="none" points="-4,4 -4,-102 261,-102 261,4 -4,4"/>
<!-- Node1 -->
<g id="node1" class="node"><title>Node1</title>
<polygon fill="#bfbfbf" stroke="black" points="57,-0.5 57,-19.5 145,-19.5 145,-0.5 57,-0.5"/>
<text text-anchor="middle" x="101" y="-7.5" font-family="Helvetica,sans-Serif" font-size="10.00">view.Constants</text>
</g>
<!-- Node2 -->
<g id="node2" class="node"><title>Node2</title>
<polygon fill="white" stroke="#bfbfbf" points="0,-78.5 0,-97.5 68,-97.5 68,-78.5 0,-78.5"/>
<text text-anchor="middle" x="34" y="-85.5" font-family="Helvetica,sans-Serif" font-size="10.00">Dimension</text>
</g>
<!-- Node2&#45;&gt;Node1 -->
<g id="edge1" class="edge"><title>Node2&#45;&gt;Node1</title>
<path fill="none" stroke="#9a32cd" stroke-dasharray="5,2" d="M29.7483,-68.1754C28.6122,-58.3757 29.0533,-46.6654 35,-38 40.8842,-29.4256 50.0129,-23.5712 59.6233,-19.5749"/>
<polygon fill="#9a32cd" stroke="#9a32cd" points="26.3243,-68.9145 31.4917,-78.1637 33.22,-67.7108 26.3243,-68.9145"/>
<text text-anchor="middle" x="91" y="-46.5" font-family="Helvetica,sans-Serif" font-size="10.00"> DEFAULT_DIMENSIONS</text>
</g>
<!-- Node3 -->
<g id="node3" class="node"><title>Node3</title>
<polygon fill="white" stroke="#bfbfbf" points="148.5,-78.5 148.5,-97.5 189.5,-97.5 189.5,-78.5 148.5,-78.5"/>
<text text-anchor="middle" x="169" y="-85.5" font-family="Helvetica,sans-Serif" font-size="10.00">Color</text>
</g>
<!-- Node3&#45;&gt;Node1 -->
<g id="edge2" class="edge"><title>Node3&#45;&gt;Node1</title>
<path fill="none" stroke="#9a32cd" stroke-dasharray="5,2" d="M163.837,-68.767C160.323,-58.8139 154.864,-46.7692 147,-38 140.076,-30.2785 130.406,-24.1454 121.717,-19.6887"/>
<polygon fill="#9a32cd" stroke="#9a32cd" points="160.559,-70.0099 166.907,-78.4922 167.234,-67.9024 160.559,-70.0099"/>
<text text-anchor="middle" x="208.5" y="-52" font-family="Helvetica,sans-Serif" font-size="10.00"> DEFAULT_BGCOLOR</text>
<text text-anchor="middle" x="208.5" y="-41" font-family="Helvetica,sans-Serif" font-size="10.00">DEFAULT_PCCOLOR</text>
</g>
</g>
</svg>
