<?xml version="1.0" encoding="UTF-8" standalone="no"?>
<!DOCTYPE svg PUBLIC "-//W3C//DTD SVG 1.1//EN"
 "http://www.w3.org/Graphics/SVG/1.1/DTD/svg11.dtd">
<!-- Generated by graphviz version 2.36.0 (20140111.2315)
 -->
<!-- Title: view.panes.HistoryPaneModule.addItem Pages: 1 -->
<svg width="438pt" height="104pt"
 viewBox="0.00 0.00 438.00 104.00" xmlns="http://www.w3.org/2000/svg" xmlns:xlink="http://www.w3.org/1999/xlink">
<g id="graph0" class="graph" transform="scale(1 1) rotate(0) translate(4 100)">
<title>view.panes.HistoryPaneModule.addItem</title>
<polygon fill="white" stroke="none" points="-4,4 -4,-100 434,-100 434,4 -4,4"/>
<!-- Node1 -->
<g id="node1" class="node"><title>Node1</title>
<polygon fill="#bfbfbf" stroke="black" points="0,-38.5 0,-57.5 206,-57.5 206,-38.5 0,-38.5"/>
<text text-anchor="middle" x="103" y="-45.5" font-family="Helvetica,sans-Serif" font-size="10.00">view.panes.HistoryPaneModule.addItem</text>
</g>
<!-- Node2 -->
<g id="node2" class="node"><title>Node2</title>
<g id="a_node2"><a xlink:href="../../d8/dd2/classview_1_1_command_string.html#aba64e1e52e571253e8896d06de9fc6fa" target="_top" xlink:title="view.CommandString.getCommand">
<polygon fill="white" stroke="black" points="242.5,-76.5 242.5,-95.5 429.5,-95.5 429.5,-76.5 242.5,-76.5"/>
<text text-anchor="middle" x="336" y="-83.5" font-family="Helvetica,sans-Serif" font-size="10.00">view.CommandString.getCommand</text>
</a>
</g>
</g>
<!-- Node1&#45;&gt;Node2 -->
<g id="edge1" class="edge"><title>Node1&#45;&gt;Node2</title>
<path fill="none" stroke="midnightblue" d="M161.993,-57.54C193.847,-62.7799 233.535,-69.3088 266.861,-74.7909"/>
<polygon fill="midnightblue" stroke="midnightblue" points="266.548,-78.2864 276.983,-76.4561 267.684,-71.3792 266.548,-78.2864"/>
</g>
<!-- Node3 -->
<g id="node3" class="node"><title>Node3</title>
<g id="a_node3"><a xlink:href="../../d8/dd2/classview_1_1_command_string.html#ab6fe1196d560df0bcdf5bc66e235510e" target="_top" xlink:title="view.CommandString.getType">
<polygon fill="white" stroke="black" points="257,-38.5 257,-57.5 415,-57.5 415,-38.5 257,-38.5"/>
<text text-anchor="middle" x="336" y="-45.5" font-family="Helvetica,sans-Serif" font-size="10.00">view.CommandString.getType</text>
</a>
</g>
</g>
<!-- Node1&#45;&gt;Node3 -->
<g id="edge2" class="edge"><title>Node1&#45;&gt;Node3</title>
<path fill="none" stroke="midnightblue" d="M206.329,-48C219.66,-48 233.229,-48 246.312,-48"/>
<polygon fill="midnightblue" stroke="midnightblue" points="246.686,-51.5001 256.686,-48 246.686,-44.5001 246.686,-51.5001"/>
</g>
<!-- Node4 -->
<g id="node4" class="node"><title>Node4</title>
<g id="a_node4"><a xlink:href="../../d8/dd2/classview_1_1_command_string.html#a666bbe4a67f0516444f5ee29cbb5e588" target="_top" xlink:title="view.CommandString.setCommand">
<polygon fill="white" stroke="black" points="243,-0.5 243,-19.5 429,-19.5 429,-0.5 243,-0.5"/>
<text text-anchor="middle" x="336" y="-7.5" font-family="Helvetica,sans-Serif" font-size="10.00">view.CommandString.setCommand</text>
</a>
</g>
</g>
<!-- Node1&#45;&gt;Node4 -->
<g id="edge3" class="edge"><title>Node1&#45;&gt;Node4</title>
<path fill="none" stroke="midnightblue" d="M161.993,-38.46C193.847,-33.2201 233.535,-26.6912 266.861,-21.2091"/>
<polygon fill="midnightblue" stroke="midnightblue" points="267.684,-24.6208 276.983,-19.5439 266.548,-17.7136 267.684,-24.6208"/>
</g>
</g>
</svg>
