<?xml version="1.0" encoding="UTF-8" standalone="no"?>
<!DOCTYPE svg PUBLIC "-//W3C//DTD SVG 1.1//EN"
 "http://www.w3.org/Graphics/SVG/1.1/DTD/svg11.dtd">
<!-- Generated by graphviz version 2.36.0 (20140111.2315)
 -->
<!-- Title: view.panes.HistoryPaneModule.update Pages: 1 -->
<svg width="674pt" height="104pt"
 viewBox="0.00 0.00 674.00 104.00" xmlns="http://www.w3.org/2000/svg" xmlns:xlink="http://www.w3.org/1999/xlink">
<g id="graph0" class="graph" transform="scale(1 1) rotate(0) translate(4 100)">
<title>view.panes.HistoryPaneModule.update</title>
<polygon fill="white" stroke="none" points="-4,4 -4,-100 670,-100 670,4 -4,4"/>
<!-- Node1 -->
<g id="node1" class="node"><title>Node1</title>
<polygon fill="#bfbfbf" stroke="black" points="0,-57.5 0,-76.5 200,-76.5 200,-57.5 0,-57.5"/>
<text text-anchor="middle" x="100" y="-64.5" font-family="Helvetica,sans-Serif" font-size="10.00">view.panes.HistoryPaneModule.update</text>
</g>
<!-- Node2 -->
<g id="node2" class="node"><title>Node2</title>
<g id="a_node2"><a xlink:href="../../d0/d5e/classview_1_1panes_1_1_history_pane_module.html#a09382cefa07872cdea931ba8897757e4" target="_top" xlink:title="view.panes.HistoryPaneModule.addItem">
<polygon fill="white" stroke="black" points="236,-38.5 236,-57.5 442,-57.5 442,-38.5 236,-38.5"/>
<text text-anchor="middle" x="339" y="-45.5" font-family="Helvetica,sans-Serif" font-size="10.00">view.panes.HistoryPaneModule.addItem</text>
</a>
</g>
</g>
<!-- Node1&#45;&gt;Node2 -->
<g id="edge1" class="edge"><title>Node1&#45;&gt;Node2</title>
<path fill="none" stroke="midnightblue" d="M200.136,-59.0524C208.615,-58.3726 217.23,-57.682 225.8,-56.9949"/>
<polygon fill="midnightblue" stroke="midnightblue" points="226.142,-60.4788 235.83,-56.1908 225.582,-53.5012 226.142,-60.4788"/>
</g>
<!-- Node3 -->
<g id="node3" class="node"><title>Node3</title>
<g id="a_node3"><a xlink:href="../../d8/dd2/classview_1_1_command_string.html#aba64e1e52e571253e8896d06de9fc6fa" target="_top" xlink:title="view.CommandString.getCommand">
<polygon fill="white" stroke="black" points="478.5,-76.5 478.5,-95.5 665.5,-95.5 665.5,-76.5 478.5,-76.5"/>
<text text-anchor="middle" x="572" y="-83.5" font-family="Helvetica,sans-Serif" font-size="10.00">view.CommandString.getCommand</text>
</a>
</g>
</g>
<!-- Node1&#45;&gt;Node3 -->
<g id="edge5" class="edge"><title>Node1&#45;&gt;Node3</title>
<path fill="none" stroke="midnightblue" d="M200.101,-71.0062C278.875,-74.1907 388.689,-78.63 468.371,-81.8512"/>
<polygon fill="midnightblue" stroke="midnightblue" points="468.292,-85.3507 478.425,-82.2576 468.574,-78.3564 468.292,-85.3507"/>
</g>
<!-- Node2&#45;&gt;Node3 -->
<g id="edge2" class="edge"><title>Node2&#45;&gt;Node3</title>
<path fill="none" stroke="midnightblue" d="M397.993,-57.54C429.847,-62.7799 469.535,-69.3088 502.861,-74.7909"/>
<polygon fill="midnightblue" stroke="midnightblue" points="502.548,-78.2864 512.983,-76.4561 503.684,-71.3792 502.548,-78.2864"/>
</g>
<!-- Node4 -->
<g id="node4" class="node"><title>Node4</title>
<g id="a_node4"><a xlink:href="../../d8/dd2/classview_1_1_command_string.html#ab6fe1196d560df0bcdf5bc66e235510e" target="_top" xlink:title="view.CommandString.getType">
<polygon fill="white" stroke="black" points="493,-38.5 493,-57.5 651,-57.5 651,-38.5 493,-38.5"/>
<text text-anchor="middle" x="572" y="-45.5" font-family="Helvetica,sans-Serif" font-size="10.00">view.CommandString.getType</text>
</a>
</g>
</g>
<!-- Node2&#45;&gt;Node4 -->
<g id="edge3" class="edge"><title>Node2&#45;&gt;Node4</title>
<path fill="none" stroke="midnightblue" d="M442.329,-48C455.66,-48 469.229,-48 482.312,-48"/>
<polygon fill="midnightblue" stroke="midnightblue" points="482.686,-51.5001 492.686,-48 482.686,-44.5001 482.686,-51.5001"/>
</g>
<!-- Node5 -->
<g id="node5" class="node"><title>Node5</title>
<g id="a_node5"><a xlink:href="../../d8/dd2/classview_1_1_command_string.html#a666bbe4a67f0516444f5ee29cbb5e588" target="_top" xlink:title="view.CommandString.setCommand">
<polygon fill="white" stroke="black" points="479,-0.5 479,-19.5 665,-19.5 665,-0.5 479,-0.5"/>
<text text-anchor="middle" x="572" y="-7.5" font-family="Helvetica,sans-Serif" font-size="10.00">view.CommandString.setCommand</text>
</a>
</g>
</g>
<!-- Node2&#45;&gt;Node5 -->
<g id="edge4" class="edge"><title>Node2&#45;&gt;Node5</title>
<path fill="none" stroke="midnightblue" d="M397.993,-38.46C429.847,-33.2201 469.535,-26.6912 502.861,-21.2091"/>
<polygon fill="midnightblue" stroke="midnightblue" points="503.684,-24.6208 512.983,-19.5439 502.548,-17.7136 503.684,-24.6208"/>
</g>
</g>
</svg>
