<?xml version="1.0" encoding="UTF-8" standalone="no"?>
<!DOCTYPE svg PUBLIC "-//W3C//DTD SVG 1.1//EN"
 "http://www.w3.org/Graphics/SVG/1.1/DTD/svg11.dtd">
<!-- Generated by graphviz version 2.36.0 (20140111.2315)
 -->
<!-- Title: commands.VariableCommand.getVariableName Pages: 1 -->
<svg width="456pt" height="87pt"
 viewBox="0.00 0.00 456.00 87.00" xmlns="http://www.w3.org/2000/svg" xmlns:xlink="http://www.w3.org/1999/xlink">
<g id="graph0" class="graph" transform="scale(1 1) rotate(0) translate(4 83)">
<title>commands.VariableCommand.getVariableName</title>
<polygon fill="white" stroke="none" points="-4,4 -4,-83 452,-83 452,4 -4,4"/>
<!-- Node1 -->
<g id="node1" class="node"><title>Node1</title>
<polygon fill="#bfbfbf" stroke="black" points="0.5,-24 0.5,-54 181.5,-54 181.5,-24 0.5,-24"/>
<text text-anchor="start" x="8.5" y="-42" font-family="Helvetica,sans-Serif" font-size="10.00">commands.VariableCommand.get</text>
<text text-anchor="middle" x="91" y="-31" font-family="Helvetica,sans-Serif" font-size="10.00">VariableName</text>
</g>
<!-- Node2 -->
<g id="node2" class="node"><title>Node2</title>
<g id="a_node2"><a xlink:href="../../dc/d68/classcommands_1_1_make_variable_command.html#ad0e0974744cc969c12c67805c2460ef4" target="_top" xlink:title="commands.MakeVariableCommand.execute\lCommand">
<polygon fill="white" stroke="black" points="218.5,-49 218.5,-79 447.5,-79 447.5,-49 218.5,-49"/>
<text text-anchor="start" x="226.5" y="-67" font-family="Helvetica,sans-Serif" font-size="10.00">commands.MakeVariableCommand.execute</text>
<text text-anchor="middle" x="333" y="-56" font-family="Helvetica,sans-Serif" font-size="10.00">Command</text>
</a>
</g>
</g>
<!-- Node1&#45;&gt;Node2 -->
<g id="edge1" class="edge"><title>Node1&#45;&gt;Node2</title>
<path fill="none" stroke="midnightblue" d="M191.91,-49.4072C200.667,-50.3195 209.571,-51.247 218.428,-52.1696"/>
<polygon fill="midnightblue" stroke="midnightblue" points="192.017,-45.8996 181.708,-48.3446 191.292,-52.8619 192.017,-45.8996"/>
</g>
<!-- Node3 -->
<g id="node3" class="node"><title>Node3</title>
<g id="a_node3"><a xlink:href="../../dc/d1e/classcommands_1_1_make_user_instruction_command.html#a48f002dce2435b1da4d1ce961b8c9499" target="_top" xlink:title="commands.MakeUserInstruction\lCommand.executeCommand">
<polygon fill="white" stroke="black" points="247,-0 247,-30 419,-30 419,-0 247,-0"/>
<text text-anchor="start" x="255" y="-18" font-family="Helvetica,sans-Serif" font-size="10.00">commands.MakeUserInstruction</text>
<text text-anchor="middle" x="333" y="-7" font-family="Helvetica,sans-Serif" font-size="10.00">Command.executeCommand</text>
</a>
</g>
</g>
<!-- Node1&#45;&gt;Node3 -->
<g id="edge2" class="edge"><title>Node1&#45;&gt;Node3</title>
<path fill="none" stroke="midnightblue" d="M191.783,-29.0217C210.056,-27.1944 228.973,-25.3027 246.773,-23.5227"/>
<polygon fill="midnightblue" stroke="midnightblue" points="191.311,-25.5514 181.708,-30.0292 192.007,-32.5167 191.311,-25.5514"/>
</g>
</g>
</svg>
