<?xml version="1.0" encoding="UTF-8" standalone="no"?>
<!DOCTYPE svg PUBLIC "-//W3C//DTD SVG 1.1//EN"
 "http://www.w3.org/Graphics/SVG/1.1/DTD/svg11.dtd">
<!-- Generated by graphviz version 2.36.0 (20140111.2315)
 -->
<!-- Title: commands.VariableCommand.executeCommand Pages: 1 -->
<svg width="426pt" height="175pt"
 viewBox="0.00 0.00 426.00 175.00" xmlns="http://www.w3.org/2000/svg" xmlns:xlink="http://www.w3.org/1999/xlink">
<g id="graph0" class="graph" transform="scale(1 1) rotate(0) translate(4 171)">
<title>commands.VariableCommand.executeCommand</title>
<polygon fill="white" stroke="none" points="-4,4 -4,-171 422,-171 422,4 -4,4"/>
<!-- Node1 -->
<g id="node1" class="node"><title>Node1</title>
<polygon fill="#bfbfbf" stroke="black" points="0.5,-66 0.5,-96 203.5,-96 203.5,-66 0.5,-66"/>
<text text-anchor="start" x="8.5" y="-84" font-family="Helvetica,sans-Serif" font-size="10.00">commands.VariableCommand.execute</text>
<text text-anchor="middle" x="102" y="-73" font-family="Helvetica,sans-Serif" font-size="10.00">Command</text>
</g>
<!-- Node2 -->
<g id="node2" class="node"><title>Node2</title>
<g id="a_node2"><a xlink:href="../../d3/d62/classmodel_1_1_variable_manager.html#aeda8183559a0ded3ccd00b8016aaf812" target="_top" xlink:title="model.VariableManager.get\lGlobalVariables">
<polygon fill="white" stroke="black" points="255,-137 255,-167 403,-167 403,-137 255,-137"/>
<text text-anchor="start" x="263" y="-155" font-family="Helvetica,sans-Serif" font-size="10.00">model.VariableManager.get</text>
<text text-anchor="middle" x="329" y="-144" font-family="Helvetica,sans-Serif" font-size="10.00">GlobalVariables</text>
</a>
</g>
</g>
<!-- Node1&#45;&gt;Node2 -->
<g id="edge1" class="edge"><title>Node1&#45;&gt;Node2</title>
<path fill="none" stroke="midnightblue" d="M146.023,-96.0253C172.929,-105.277 208.364,-117.201 240,-127 247.658,-129.372 255.717,-131.78 263.722,-134.119"/>
<polygon fill="midnightblue" stroke="midnightblue" points="262.849,-137.51 273.428,-136.929 264.796,-130.786 262.849,-137.51"/>
</g>
<!-- Node3 -->
<g id="node3" class="node"><title>Node3</title>
<g id="a_node3"><a xlink:href="../../d3/d62/classmodel_1_1_variable_manager.html#a7486445146684fb4d82032fbb8233a39" target="_top" xlink:title="model.VariableManager.get\lLocalVariables">
<polygon fill="white" stroke="black" points="255,-88 255,-118 403,-118 403,-88 255,-88"/>
<text text-anchor="start" x="263" y="-106" font-family="Helvetica,sans-Serif" font-size="10.00">model.VariableManager.get</text>
<text text-anchor="middle" x="329" y="-95" font-family="Helvetica,sans-Serif" font-size="10.00">LocalVariables</text>
</a>
</g>
</g>
<!-- Node1&#45;&gt;Node3 -->
<g id="edge2" class="edge"><title>Node1&#45;&gt;Node3</title>
<path fill="none" stroke="midnightblue" d="M203.654,-90.8418C217.361,-92.1819 231.304,-93.5453 244.659,-94.8511"/>
<polygon fill="midnightblue" stroke="midnightblue" points="244.449,-98.3472 254.742,-95.837 245.131,-91.3804 244.449,-98.3472"/>
</g>
<!-- Node4 -->
<g id="node4" class="node"><title>Node4</title>
<g id="a_node4"><a xlink:href="../../d3/d42/classmodel_1_1_model.html#ac129cb1cf270db69824b85eb0bc528c3" target="_top" xlink:title="model.Model.getVariableManager">
<polygon fill="white" stroke="black" points="240.5,-49.5 240.5,-68.5 417.5,-68.5 417.5,-49.5 240.5,-49.5"/>
<text text-anchor="middle" x="329" y="-56.5" font-family="Helvetica,sans-Serif" font-size="10.00">model.Model.getVariableManager</text>
</a>
</g>
</g>
<!-- Node1&#45;&gt;Node4 -->
<g id="edge3" class="edge"><title>Node1&#45;&gt;Node4</title>
<path fill="none" stroke="midnightblue" d="M203.654,-71.1582C212.581,-70.2854 221.608,-69.4028 230.507,-68.5327"/>
<polygon fill="midnightblue" stroke="midnightblue" points="230.876,-72.0133 240.488,-67.5567 230.195,-65.0465 230.876,-72.0133"/>
</g>
<!-- Node5 -->
<g id="node5" class="node"><title>Node5</title>
<g id="a_node5"><a xlink:href="../../d3/d62/classmodel_1_1_variable_manager.html#a14986c4be9684ebfbca7adcb5099137b" target="_top" xlink:title="model.VariableManager.get\lVariableScope">
<polygon fill="white" stroke="black" points="255,-0 255,-30 403,-30 403,-0 255,-0"/>
<text text-anchor="start" x="263" y="-18" font-family="Helvetica,sans-Serif" font-size="10.00">model.VariableManager.get</text>
<text text-anchor="middle" x="329" y="-7" font-family="Helvetica,sans-Serif" font-size="10.00">VariableScope</text>
</a>
</g>
</g>
<!-- Node1&#45;&gt;Node5 -->
<g id="edge4" class="edge"><title>Node1&#45;&gt;Node5</title>
<path fill="none" stroke="midnightblue" d="M152.733,-65.9341C178.711,-58.1104 211.042,-48.4461 240,-40 248,-37.6667 256.417,-35.2397 264.745,-32.8554"/>
<polygon fill="midnightblue" stroke="midnightblue" points="265.794,-36.1956 274.449,-30.0842 263.872,-29.4647 265.794,-36.1956"/>
</g>
</g>
</svg>
