<?xml version="1.0" encoding="UTF-8" standalone="no"?>
<!DOCTYPE svg PUBLIC "-//W3C//DTD SVG 1.1//EN"
 "http://www.w3.org/Graphics/SVG/1.1/DTD/svg11.dtd">
<!-- Generated by graphviz version 2.36.0 (20140111.2315)
 -->
<!-- Title: view.controllers.LanguageController Pages: 1 -->
<svg width="475pt" height="266pt"
 viewBox="0.00 0.00 475.00 266.00" xmlns="http://www.w3.org/2000/svg" xmlns:xlink="http://www.w3.org/1999/xlink">
<g id="graph0" class="graph" transform="scale(1 1) rotate(0) translate(4 262)">
<title>view.controllers.LanguageController</title>
<polygon fill="white" stroke="none" points="-4,4 -4,-262 471,-262 471,4 -4,4"/>
<!-- Node1 -->
<g id="node1" class="node"><title>Node1</title>
<polygon fill="#bfbfbf" stroke="black" points="209,-1 209,-31 349,-31 349,-1 209,-1"/>
<text text-anchor="start" x="217" y="-19" font-family="Helvetica,sans-Serif" font-size="10.00">view.controllers.Language</text>
<text text-anchor="middle" x="279" y="-8" font-family="Helvetica,sans-Serif" font-size="10.00">Controller</text>
</g>
<!-- Node2 -->
<g id="node2" class="node"><title>Node2</title>
<g id="a_node2"><a xlink:href="../../d8/dce/classcontroller_1_1_master_controller.html" target="_top" xlink:title="controller.MasterController">
<polygon fill="white" stroke="black" points="207.5,-80.5 207.5,-99.5 350.5,-99.5 350.5,-80.5 207.5,-80.5"/>
<text text-anchor="middle" x="279" y="-87.5" font-family="Helvetica,sans-Serif" font-size="10.00">controller.MasterController</text>
</a>
</g>
</g>
<!-- Node2&#45;&gt;Node1 -->
<g id="edge1" class="edge"><title>Node2&#45;&gt;Node1</title>
<path fill="none" stroke="#9a32cd" stroke-dasharray="5,2" d="M279,-70.0846C279,-57.9148 279,-42.3538 279,-31.2316"/>
<polygon fill="#9a32cd" stroke="#9a32cd" points="275.5,-70.4579 279,-80.4579 282.5,-70.4579 275.5,-70.4579"/>
<text text-anchor="middle" x="328" y="-53.5" font-family="Helvetica,sans-Serif" font-size="10.00"> myMasterController</text>
</g>
<!-- Node3 -->
<g id="node3" class="node"><title>Node3</title>
<g id="a_node3"><a xlink:href="../../d6/d95/classparser_1_1_parser.html" target="_top" xlink:title="parser.Parser">
<polygon fill="white" stroke="black" points="189,-148.5 189,-167.5 269,-167.5 269,-148.5 189,-148.5"/>
<text text-anchor="middle" x="229" y="-155.5" font-family="Helvetica,sans-Serif" font-size="10.00">parser.Parser</text>
</a>
</g>
</g>
<!-- Node3&#45;&gt;Node2 -->
<g id="edge2" class="edge"><title>Node3&#45;&gt;Node2</title>
<path fill="none" stroke="#9a32cd" stroke-dasharray="5,2" d="M232.12,-138.333C233.912,-131.482 236.698,-123.953 241,-118 246.499,-110.391 254.816,-104.134 262.269,-99.566"/>
<polygon fill="#9a32cd" stroke="#9a32cd" points="228.674,-137.713 230.047,-148.218 235.525,-139.15 228.674,-137.713"/>
<text text-anchor="middle" x="265.5" y="-121.5" font-family="Helvetica,sans-Serif" font-size="10.00"> myParser</text>
</g>
<!-- Node4 -->
<g id="node4" class="node"><title>Node4</title>
<polygon fill="white" stroke="#bfbfbf" points="0,-232.5 0,-251.5 122,-251.5 122,-232.5 0,-232.5"/>
<text text-anchor="middle" x="61" y="-239.5" font-family="Helvetica,sans-Serif" font-size="10.00">Map&lt; String, String &gt;</text>
</g>
<!-- Node4&#45;&gt;Node3 -->
<g id="edge3" class="edge"><title>Node4&#45;&gt;Node3</title>
<path fill="none" stroke="#9a32cd" stroke-dasharray="5,2" d="M72.8571,-224.269C82.5359,-211.855 97.3057,-195.498 114,-186 136.905,-172.968 165.791,-166.216 188.882,-162.723"/>
<polygon fill="#9a32cd" stroke="#9a32cd" points="69.9242,-222.347 66.7545,-232.457 75.5368,-226.53 69.9242,-222.347"/>
<text text-anchor="middle" x="169.5" y="-200" font-family="Helvetica,sans-Serif" font-size="10.00"> myRegularExpressions</text>
<text text-anchor="middle" x="169.5" y="-189" font-family="Helvetica,sans-Serif" font-size="10.00">myCommandMap</text>
</g>
<!-- Node5 -->
<g id="node5" class="node"><title>Node5</title>
<polygon fill="white" stroke="#bfbfbf" points="140.5,-227 140.5,-257 317.5,-257 317.5,-227 140.5,-227"/>
<text text-anchor="start" x="148.5" y="-245" font-family="Helvetica,sans-Serif" font-size="10.00">Map&lt; String, commands.Custom</text>
<text text-anchor="middle" x="229" y="-234" font-family="Helvetica,sans-Serif" font-size="10.00">Command &gt;</text>
</g>
<!-- Node5&#45;&gt;Node3 -->
<g id="edge4" class="edge"><title>Node5&#45;&gt;Node3</title>
<path fill="none" stroke="#9a32cd" stroke-dasharray="5,2" d="M229,-216.6C229,-200.031 229,-179.111 229,-167.592"/>
<polygon fill="#9a32cd" stroke="#9a32cd" points="225.5,-216.717 229,-226.717 232.5,-216.717 225.5,-216.717"/>
<text text-anchor="middle" x="289.5" y="-194.5" font-family="Helvetica,sans-Serif" font-size="10.00"> myUserInputCommands</text>
</g>
<!-- Node6 -->
<g id="node6" class="node"><title>Node6</title>
<polygon fill="white" stroke="#bfbfbf" points="335.5,-232.5 335.5,-251.5 430.5,-251.5 430.5,-232.5 335.5,-232.5"/>
<text text-anchor="middle" x="383" y="-239.5" font-family="Helvetica,sans-Serif" font-size="10.00">Stack&lt; String &gt;</text>
</g>
<!-- Node6&#45;&gt;Node3 -->
<g id="edge5" class="edge"><title>Node6&#45;&gt;Node3</title>
<path fill="none" stroke="#9a32cd" stroke-dasharray="5,2" d="M377.875,-222.778C373.499,-210.554 365.971,-195.085 354,-186 350.529,-183.366 304.301,-173.808 269.066,-166.809"/>
<polygon fill="#9a32cd" stroke="#9a32cd" points="374.581,-223.969 380.942,-232.442 381.253,-221.851 374.581,-223.969"/>
<text text-anchor="middle" x="419" y="-194.5" font-family="Helvetica,sans-Serif" font-size="10.00"> myCommandStack</text>
</g>
<!-- Node7 -->
<g id="node7" class="node"><title>Node7</title>
<polygon fill="white" stroke="#bfbfbf" points="287,-148.5 287,-167.5 343,-167.5 343,-148.5 287,-148.5"/>
<text text-anchor="middle" x="315" y="-155.5" font-family="Helvetica,sans-Serif" font-size="10.00">Random</text>
</g>
<!-- Node7&#45;&gt;Node2 -->
<g id="edge6" class="edge"><title>Node7&#45;&gt;Node2</title>
<path fill="none" stroke="#9a32cd" stroke-dasharray="5,2" d="M305.489,-139.563C298.517,-126.781 289.342,-109.96 283.822,-99.8411"/>
<polygon fill="#9a32cd" stroke="#9a32cd" points="302.432,-141.269 310.294,-148.372 308.578,-137.917 302.432,-141.269"/>
<text text-anchor="middle" x="330" y="-121.5" font-family="Helvetica,sans-Serif" font-size="10.00"> myRandom</text>
</g>
</g>
</svg>
