<?xml version="1.0" encoding="UTF-8" standalone="no"?>
<!DOCTYPE svg PUBLIC "-//W3C//DTD SVG 1.1//EN"
 "http://www.w3.org/Graphics/SVG/1.1/DTD/svg11.dtd">
<!-- Generated by graphviz version 2.36.0 (20140111.2315)
 -->
<!-- Title: view.panes.InputPaneModule Pages: 1 -->
<svg width="512pt" height="154pt"
 viewBox="0.00 0.00 512.00 154.00" xmlns="http://www.w3.org/2000/svg" xmlns:xlink="http://www.w3.org/1999/xlink">
<g id="graph0" class="graph" transform="scale(1 1) rotate(0) translate(4 150)">
<title>view.panes.InputPaneModule</title>
<polygon fill="white" stroke="none" points="-4,4 -4,-150 508,-150 508,4 -4,4"/>
<!-- Node1 -->
<g id="node1" class="node"><title>Node1</title>
<polygon fill="#bfbfbf" stroke="black" points="198.5,-0.5 198.5,-19.5 351.5,-19.5 351.5,-0.5 198.5,-0.5"/>
<text text-anchor="middle" x="275" y="-7.5" font-family="Helvetica,sans-Serif" font-size="10.00">view.panes.InputPaneModule</text>
</g>
<!-- Node2 -->
<g id="node2" class="node"><title>Node2</title>
<g id="a_node2"><a xlink:href="../../df/dd6/classview_1_1panes_1_1_pane_module.html" target="_top" xlink:title="view.panes.PaneModule">
<polygon fill="white" stroke="black" points="-0.5,-68.5 -0.5,-87.5 128.5,-87.5 128.5,-68.5 -0.5,-68.5"/>
<text text-anchor="middle" x="64" y="-75.5" font-family="Helvetica,sans-Serif" font-size="10.00">view.panes.PaneModule</text>
</a>
</g>
</g>
<!-- Node2&#45;&gt;Node1 -->
<g id="edge1" class="edge"><title>Node2&#45;&gt;Node1</title>
<path fill="none" stroke="midnightblue" d="M101.158,-65.3771C143.112,-52.2542 210.377,-31.2139 247.743,-19.5259"/>
<polygon fill="midnightblue" stroke="midnightblue" points="100.084,-62.0459 91.5846,-68.3717 102.173,-68.7267 100.084,-62.0459"/>
</g>
<!-- Node3 -->
<g id="node3" class="node"><title>Node3</title>
<polygon fill="white" stroke="#bfbfbf" points="147,-68.5 147,-87.5 213,-87.5 213,-68.5 147,-68.5"/>
<text text-anchor="middle" x="180" y="-75.5" font-family="Helvetica,sans-Serif" font-size="10.00">ScrollPane</text>
</g>
<!-- Node3&#45;&gt;Node1 -->
<g id="edge2" class="edge"><title>Node3&#45;&gt;Node1</title>
<path fill="none" stroke="#9a32cd" stroke-dasharray="5,2" d="M187.308,-59.1119C191.071,-51.7418 196.295,-43.629 203,-38 213.02,-29.5881 225.92,-23.6598 238.026,-19.5464"/>
<polygon fill="#9a32cd" stroke="#9a32cd" points="184.038,-57.847 183.081,-68.3985 190.409,-60.747 184.038,-57.847"/>
<text text-anchor="middle" x="237" y="-41.5" font-family="Helvetica,sans-Serif" font-size="10.00"> myScrollPane</text>
</g>
<!-- Node4 -->
<g id="node4" class="node"><title>Node4</title>
<g id="a_node4"><a xlink:href="../../d8/dd2/classview_1_1_command_string.html" target="_top" xlink:title="view.CommandString">
<polygon fill="white" stroke="black" points="231,-68.5 231,-87.5 349,-87.5 349,-68.5 231,-68.5"/>
<text text-anchor="middle" x="290" y="-75.5" font-family="Helvetica,sans-Serif" font-size="10.00">view.CommandString</text>
</a>
</g>
</g>
<!-- Node4&#45;&gt;Node1 -->
<g id="edge3" class="edge"><title>Node4&#45;&gt;Node1</title>
<path fill="none" stroke="#9a32cd" stroke-dasharray="5,2" d="M279.472,-59.4459C278.058,-56.3887 276.816,-53.1703 276,-50 273.366,-39.7677 273.57,-27.5239 274.133,-19.5197"/>
<polygon fill="#9a32cd" stroke="#9a32cd" points="276.462,-61.2403 284.264,-68.4089 282.636,-57.9399 276.462,-61.2403"/>
<text text-anchor="middle" x="324.5" y="-41.5" font-family="Helvetica,sans-Serif" font-size="10.00"> myCommandString</text>
</g>
<!-- Node5 -->
<g id="node5" class="node"><title>Node5</title>
<polygon fill="white" stroke="#bfbfbf" points="254.5,-126.5 254.5,-145.5 325.5,-145.5 325.5,-126.5 254.5,-126.5"/>
<text text-anchor="middle" x="290" y="-133.5" font-family="Helvetica,sans-Serif" font-size="10.00">Observable</text>
</g>
<!-- Node5&#45;&gt;Node4 -->
<g id="edge4" class="edge"><title>Node5&#45;&gt;Node4</title>
<path fill="none" stroke="midnightblue" d="M290,-115.953C290,-106.287 290,-95.0312 290,-87.5052"/>
<polygon fill="midnightblue" stroke="midnightblue" points="286.5,-116.25 290,-126.25 293.5,-116.25 286.5,-116.25"/>
</g>
<!-- Node6 -->
<g id="node6" class="node"><title>Node6</title>
<polygon fill="white" stroke="#bfbfbf" points="367,-68.5 367,-87.5 423,-87.5 423,-68.5 367,-68.5"/>
<text text-anchor="middle" x="395" y="-75.5" font-family="Helvetica,sans-Serif" font-size="10.00">TextField</text>
</g>
<!-- Node6&#45;&gt;Node1 -->
<g id="edge5" class="edge"><title>Node6&#45;&gt;Node1</title>
<path fill="none" stroke="#9a32cd" stroke-dasharray="5,2" d="M388.403,-58.8247C384.874,-51.4029 379.824,-43.329 373,-38 362.012,-29.4189 348.473,-23.5627 335.004,-19.5669"/>
<polygon fill="#9a32cd" stroke="#9a32cd" points="385.234,-60.3222 392.294,-68.2221 391.702,-57.6438 385.234,-60.3222"/>
<text text-anchor="middle" x="413" y="-41.5" font-family="Helvetica,sans-Serif" font-size="10.00"> myTextField</text>
</g>
<!-- Node7 -->
<g id="node7" class="node"><title>Node7</title>
<polygon fill="white" stroke="#bfbfbf" points="455,-68.5 455,-87.5 497,-87.5 497,-68.5 455,-68.5"/>
<text text-anchor="middle" x="476" y="-75.5" font-family="Helvetica,sans-Serif" font-size="10.00">HBox</text>
</g>
<!-- Node7&#45;&gt;Node1 -->
<g id="edge6" class="edge"><title>Node7&#45;&gt;Node1</title>
<path fill="none" stroke="#9a32cd" stroke-dasharray="5,2" d="M466.619,-59.4243C461.55,-51.6281 454.564,-43.0852 446,-38 429.978,-28.4858 389.357,-21.8538 351.727,-17.544"/>
<polygon fill="#9a32cd" stroke="#9a32cd" points="463.742,-61.4361 471.828,-68.281 469.775,-57.887 463.742,-61.4361"/>
<text text-anchor="middle" x="482" y="-41.5" font-family="Helvetica,sans-Serif" font-size="10.00"> myHBox</text>
</g>
</g>
</svg>
