<?xml version="1.0" encoding="UTF-8" standalone="no"?>
<!DOCTYPE svg PUBLIC "-//W3C//DTD SVG 1.1//EN"
 "http://www.w3.org/Graphics/SVG/1.1/DTD/svg11.dtd">
<!-- Generated by graphviz version 2.36.0 (20140111.2315)
 -->
<!-- Title: view.TurtleDraw.showTurtle Pages: 1 -->
<!--zoomable 1361 -->
<svg id="main" version="1.1" xmlns="http://www.w3.org/2000/svg" xmlns:xlink="http://www.w3.org/1999/xlink" xml:space="preserve" onload="init(evt)">
<style type="text/css"><![CDATA[
.edge:hover path { stroke: red; }
.edge:hover polygon { stroke: red; fill: red; }
]]></style>
<script type="text/javascript"><![CDATA[
var edges = document.getElementsByTagName('g');
if (edges && edges.length) {
  for (var i=0;i<edges.length;i++) {
    if (edges[i].id.substr(0,4)=='edge') {
      edges[i].setAttribute('class','edge');
    }
  }
}
]]></script>
        <defs>
                <circle id="rim" cx="0" cy="0" r="7"/>
                <circle id="rim2" cx="0" cy="0" r="3.5"/>
                <g id="zoomPlus">
                        <use xlink:href="#rim" fill="#404040">
                                <set attributeName="fill" to="#808080" begin="zoomplus.mouseover" end="zoomplus.mouseout"/>
                        </use>
                        <path d="M-4,0h8M0,-4v8" fill="none" stroke="white" stroke-width="1.5" pointer-events="none"/>
                </g>
                <g id="zoomMin">
                        <use xlink:href="#rim" fill="#404040">
                                <set attributeName="fill" to="#808080" begin="zoomminus.mouseover" end="zoomminus.mouseout"/>
                        </use>
                        <path d="M-4,0h8" fill="none" stroke="white" stroke-width="1.5" pointer-events="none"/>
                </g>
                <g id="dirArrow">
                        <path fill="none" stroke="white" stroke-width="1.5" d="M0,-3.0v7 M-2.5,-0.5L0,-3.0L2.5,-0.5"/>
                </g>
               <g id="resetDef">
                       <use xlink:href="#rim2" fill="#404040">
                               <set attributeName="fill" to="#808080" begin="reset.mouseover" end="reset.mouseout"/>
                       </use>
               </g>
        </defs>

<script type="text/javascript">
var viewWidth = 1756;
var viewHeight = 1361;
var sectionId = 'dynsection-7';
</script>
<script xlink:href="../../svgpan.js"/>
<svg id="graph" class="graph">
<g id="viewport">
<title>view.TurtleDraw.showTurtle</title>
<polygon fill="white" stroke="none" points="-4,4 -4,-1357 1752,-1357 1752,4 -4,4"/>
<!-- Node1 -->
<g id="node1" class="node"><title>Node1</title>
<polygon fill="#bfbfbf" stroke="black" points="0,-291.5 0,-310.5 140,-310.5 140,-291.5 0,-291.5"/>
<text text-anchor="middle" x="70" y="-298.5" font-family="Helvetica,sans-Serif" font-size="10.00">view.TurtleDraw.showTurtle</text>
</g>
<!-- Node2 -->
<g id="node2" class="node"><title>Node2</title>
<g id="a_node2"><a xlink:href="../../db/db5/classview_1_1panes_1_1_view_pane_module.html#a44db6ae832af3ce470baa9406142b8cb" target="_top" xlink:title="view.panes.ViewPaneModule.make\lStamps">
<polygon fill="white" stroke="black" points="179.5,-311 179.5,-341 360.5,-341 360.5,-311 179.5,-311"/>
<text text-anchor="start" x="187.5" y="-329" font-family="Helvetica,sans-Serif" font-size="10.00">view.panes.ViewPaneModule.make</text>
<text text-anchor="middle" x="270" y="-318" font-family="Helvetica,sans-Serif" font-size="10.00">Stamps</text>
</a>
</g>
</g>
<!-- Node1&#45;&gt;Node2 -->
<g id="edge1" class="edge"><title>Node1&#45;&gt;Node2</title>
<path fill="none" stroke="midnightblue" d="M150.425,-311.028C159.908,-312.226 169.641,-313.455 179.256,-314.669"/>
<polygon fill="midnightblue" stroke="midnightblue" points="150.61,-307.524 140.251,-309.744 149.734,-314.469 150.61,-307.524"/>
</g>
<!-- Node40 -->
<g id="node40" class="node"><title>Node40</title>
<g id="a_node40"><a xlink:href="../../db/db5/classview_1_1panes_1_1_view_pane_module.html#ab55ce3511929b88a2cd1235eb694868f" target="_top" xlink:title="view.panes.ViewPaneModule.update\lTurtle">
<polygon fill="white" stroke="black" points="176,-262 176,-292 364,-292 364,-262 176,-262"/>
<text text-anchor="start" x="184" y="-280" font-family="Helvetica,sans-Serif" font-size="10.00">view.panes.ViewPaneModule.update</text>
<text text-anchor="middle" x="270" y="-269" font-family="Helvetica,sans-Serif" font-size="10.00">Turtle</text>
</a>
</g>
</g>
<!-- Node1&#45;&gt;Node40 -->
<g id="edge39" class="edge"><title>Node1&#45;&gt;Node40</title>
<path fill="none" stroke="midnightblue" d="M150.342,-291.383C158.709,-290.369 167.271,-289.331 175.775,-288.3"/>
<polygon fill="midnightblue" stroke="midnightblue" points="149.757,-287.928 140.251,-292.606 150.599,-294.877 149.757,-287.928"/>
</g>
<!-- Node3 -->
<g id="node3" class="node"><title>Node3</title>
<g id="a_node3"><a xlink:href="../../db/db5/classview_1_1panes_1_1_view_pane_module.html#aa2a1bf15bc036ee4237bf63749d85baf" target="_top" xlink:title="view.panes.ViewPaneModule.updateView">
<polygon fill="white" stroke="black" points="400.5,-291.5 400.5,-310.5 609.5,-310.5 609.5,-291.5 400.5,-291.5"/>
<text text-anchor="middle" x="505" y="-298.5" font-family="Helvetica,sans-Serif" font-size="10.00">view.panes.ViewPaneModule.updateView</text>
</a>
</g>
</g>
<!-- Node2&#45;&gt;Node3 -->
<g id="edge2" class="edge"><title>Node2&#45;&gt;Node3</title>
<path fill="none" stroke="midnightblue" d="M370.928,-315.278C385.731,-313.69 400.899,-312.062 415.448,-310.501"/>
<polygon fill="midnightblue" stroke="midnightblue" points="370.32,-311.823 360.751,-316.37 371.067,-318.783 370.32,-311.823"/>
</g>
<!-- Node4 -->
<g id="node4" class="node"><title>Node4</title>
<g id="a_node4"><a xlink:href="../../d3/d42/classmodel_1_1_model.html#a76160d002c1e68b566307ac44356f6e5" target="_top" xlink:title="model.Model.notifyView">
<polygon fill="white" stroke="black" points="673.5,-313.5 673.5,-332.5 802.5,-332.5 802.5,-313.5 673.5,-313.5"/>
<text text-anchor="middle" x="738" y="-320.5" font-family="Helvetica,sans-Serif" font-size="10.00">model.Model.notifyView</text>
</a>
</g>
</g>
<!-- Node3&#45;&gt;Node4 -->
<g id="edge3" class="edge"><title>Node3&#45;&gt;Node4</title>
<path fill="none" stroke="midnightblue" d="M616.173,-311.493C635.729,-313.355 655.49,-315.237 673.206,-316.924"/>
<polygon fill="midnightblue" stroke="midnightblue" points="616.263,-307.986 605.976,-310.522 615.6,-314.954 616.263,-307.986"/>
</g>
<!-- Node38 -->
<g id="node38" class="node"><title>Node38</title>
<g id="a_node38"><a xlink:href="../../db/db5/classview_1_1panes_1_1_view_pane_module.html#a200bd9d0cb7f1fb3482afb7f085939cd" target="_top" xlink:title="view.panes.ViewPaneModule.toggle\lActive">
<polygon fill="white" stroke="black" points="646,-264 646,-294 830,-294 830,-264 646,-264"/>
<text text-anchor="start" x="654" y="-282" font-family="Helvetica,sans-Serif" font-size="10.00">view.panes.ViewPaneModule.toggle</text>
<text text-anchor="middle" x="738" y="-271" font-family="Helvetica,sans-Serif" font-size="10.00">Active</text>
</a>
</g>
</g>
<!-- Node3&#45;&gt;Node38 -->
<g id="edge37" class="edge"><title>Node3&#45;&gt;Node38</title>
<path fill="none" stroke="midnightblue" d="M615.986,-290.525C626.025,-289.569 636.12,-288.608 645.966,-287.67"/>
<polygon fill="midnightblue" stroke="midnightblue" points="615.6,-287.046 605.976,-291.478 616.263,-294.014 615.6,-287.046"/>
</g>
<!-- Node5 -->
<g id="node5" class="node"><title>Node5</title>
<g id="a_node5"><a xlink:href="../../dd/dd6/classcommands_1_1_command.html#abafa69601e87c34d4453cf84349d6f9c" target="_top" xlink:title="commands.Command.execute\lCommand">
<polygon fill="white" stroke="black" points="866.5,-661 866.5,-691 1031.5,-691 1031.5,-661 866.5,-661"/>
<text text-anchor="start" x="874.5" y="-679" font-family="Helvetica,sans-Serif" font-size="10.00">commands.Command.execute</text>
<text text-anchor="middle" x="949" y="-668" font-family="Helvetica,sans-Serif" font-size="10.00">Command</text>
</a>
</g>
</g>
<!-- Node4&#45;&gt;Node5 -->
<g id="edge4" class="edge"><title>Node4&#45;&gt;Node5</title>
<path fill="none" stroke="midnightblue" d="M749.99,-341.563C786.815,-403.76 905.416,-604.075 939.039,-660.865"/>
<polygon fill="midnightblue" stroke="midnightblue" points="752.914,-339.631 744.808,-332.81 746.891,-343.198 752.914,-339.631"/>
</g>
<!-- Node34 -->
<g id="node34" class="node"><title>Node34</title>
<g id="a_node34"><a xlink:href="../../d3/d42/classmodel_1_1_model.html#a73435cc7a2b6100031bbdd2cf6d6b4e8" target="_top" xlink:title="model.Model.updateModel">
<polygon fill="white" stroke="black" points="877.5,-313.5 877.5,-332.5 1020.5,-332.5 1020.5,-313.5 877.5,-313.5"/>
<text text-anchor="middle" x="949" y="-320.5" font-family="Helvetica,sans-Serif" font-size="10.00">model.Model.updateModel</text>
</a>
</g>
</g>
<!-- Node4&#45;&gt;Node34 -->
<g id="edge33" class="edge"><title>Node4&#45;&gt;Node34</title>
<path fill="none" stroke="midnightblue" d="M812.72,-323C833.752,-323 856.611,-323 877.45,-323"/>
<polygon fill="midnightblue" stroke="midnightblue" points="812.558,-319.5 802.558,-323 812.558,-326.5 812.558,-319.5"/>
</g>
<!-- Node6 -->
<g id="node6" class="node"><title>Node6</title>
<g id="a_node6"><a xlink:href="../../d1/d79/classcommands_1_1_sum_command.html#a792945436d0c3ff1f58301fcc50f5ae1" target="_top" xlink:title="commands.SumCommand.execute\lCommand">
<polygon fill="white" stroke="black" points="1094,-1323 1094,-1353 1282,-1353 1282,-1323 1094,-1323"/>
<text text-anchor="start" x="1102" y="-1341" font-family="Helvetica,sans-Serif" font-size="10.00">commands.SumCommand.execute</text>
<text text-anchor="middle" x="1188" y="-1330" font-family="Helvetica,sans-Serif" font-size="10.00">Command</text>
</a>
</g>
</g>
<!-- Node5&#45;&gt;Node6 -->
<g id="edge5" class="edge"><title>Node5&#45;&gt;Node6</title>
<path fill="none" stroke="midnightblue" d="M951.051,-701.444C956.011,-808.823 980.634,-1223.52 1068,-1313 1075.3,-1320.48 1084.23,-1326 1093.88,-1330.04"/>
<polygon fill="midnightblue" stroke="midnightblue" points="954.537,-701.061 950.596,-691.226 947.544,-701.372 954.537,-701.061"/>
</g>
<!-- Node7 -->
<g id="node7" class="node"><title>Node7</title>
<g id="a_node7"><a xlink:href="../../d6/dc0/classcommands_1_1_repeat_command.html#a40fb82831e8b2beaa7e31913e46e15eb" target="_top" xlink:title="commands.RepeatCommand.execute\lCommand">
<polygon fill="white" stroke="black" points="1089,-1274 1089,-1304 1287,-1304 1287,-1274 1089,-1274"/>
<text text-anchor="start" x="1097" y="-1292" font-family="Helvetica,sans-Serif" font-size="10.00">commands.RepeatCommand.execute</text>
<text text-anchor="middle" x="1188" y="-1281" font-family="Helvetica,sans-Serif" font-size="10.00">Command</text>
</a>
</g>
</g>
<!-- Node5&#45;&gt;Node7 -->
<g id="edge6" class="edge"><title>Node5&#45;&gt;Node7</title>
<path fill="none" stroke="midnightblue" d="M951.475,-701.431C957.924,-803.56 987.027,-1182.29 1068,-1264 1074.02,-1270.07 1081.11,-1274.85 1088.79,-1278.59"/>
<polygon fill="midnightblue" stroke="midnightblue" points="954.95,-700.909 950.844,-691.142 947.963,-701.338 954.95,-700.909"/>
</g>
<!-- Node8 -->
<g id="node8" class="node"><title>Node8</title>
<g id="a_node8"><a xlink:href="../../dd/d82/classcommands_1_1_remainder_command.html#a99d4baf3f1b4a3c8d0cd69274380a2cf" target="_top" xlink:title="commands.RemainderCommand.execute\lCommand">
<polygon fill="white" stroke="black" points="1080,-1225 1080,-1255 1296,-1255 1296,-1225 1080,-1225"/>
<text text-anchor="start" x="1088" y="-1243" font-family="Helvetica,sans-Serif" font-size="10.00">commands.RemainderCommand.execute</text>
<text text-anchor="middle" x="1188" y="-1232" font-family="Helvetica,sans-Serif" font-size="10.00">Command</text>
</a>
</g>
</g>
<!-- Node5&#45;&gt;Node8 -->
<g id="edge7" class="edge"><title>Node5&#45;&gt;Node8</title>
<path fill="none" stroke="midnightblue" d="M951.955,-701.181C959.95,-797.511 993.333,-1140.96 1068,-1215 1071.82,-1218.79 1076.06,-1222.07 1080.6,-1224.91"/>
<polygon fill="midnightblue" stroke="midnightblue" points="955.441,-700.858 951.143,-691.174 948.464,-701.424 955.441,-700.858"/>
</g>
<!-- Node9 -->
<g id="node9" class="node"><title>Node9</title>
<g id="a_node9"><a xlink:href="../../df/df5/classcommands_1_1_minus_command.html#a82548bbb25a73194469e1ff81b19cf27" target="_top" xlink:title="commands.MinusCommand.execute\lCommand">
<polygon fill="white" stroke="black" points="1091.5,-1176 1091.5,-1206 1284.5,-1206 1284.5,-1176 1091.5,-1176"/>
<text text-anchor="start" x="1099.5" y="-1194" font-family="Helvetica,sans-Serif" font-size="10.00">commands.MinusCommand.execute</text>
<text text-anchor="middle" x="1188" y="-1183" font-family="Helvetica,sans-Serif" font-size="10.00">Command</text>
</a>
</g>
</g>
<!-- Node5&#45;&gt;Node9 -->
<g id="edge8" class="edge"><title>Node5&#45;&gt;Node9</title>
<path fill="none" stroke="midnightblue" d="M952.552,-701.225C962.239,-791.929 999.689,-1099.66 1068,-1166 1074.74,-1172.54 1082.73,-1177.57 1091.34,-1181.41"/>
<polygon fill="midnightblue" stroke="midnightblue" points="956.032,-700.851 951.508,-691.27 949.07,-701.581 956.032,-700.851"/>
</g>
<!-- Node10 -->
<g id="node10" class="node"><title>Node10</title>
<g id="a_node10"><a xlink:href="../../d3/d37/classcommands_1_1_set_background_command.html#a91dc8e21948a301c55af1cef90b77962" target="_top" xlink:title="commands.SetBackgroundCommand.execute\lCommand">
<polygon fill="white" stroke="black" points="1068.5,-1127 1068.5,-1157 1307.5,-1157 1307.5,-1127 1068.5,-1127"/>
<text text-anchor="start" x="1076.5" y="-1145" font-family="Helvetica,sans-Serif" font-size="10.00">commands.SetBackgroundCommand.execute</text>
<text text-anchor="middle" x="1188" y="-1134" font-family="Helvetica,sans-Serif" font-size="10.00">Command</text>
</a>
</g>
</g>
<!-- Node5&#45;&gt;Node10 -->
<g id="edge9" class="edge"><title>Node5&#45;&gt;Node10</title>
<path fill="none" stroke="midnightblue" d="M953.262,-701.15C964.744,-785.787 1005.98,-1058.26 1068,-1117 1071.99,-1120.77 1076.39,-1124.04 1081.08,-1126.86"/>
<polygon fill="midnightblue" stroke="midnightblue" points="956.717,-700.585 951.924,-691.137 949.779,-701.512 956.717,-700.585"/>
</g>
<!-- Node11 -->
<g id="node11" class="node"><title>Node11</title>
<g id="a_node11"><a xlink:href="../../d8/dba/classcommands_1_1_product_command.html#a8bc20bc7c21a944405f599dbcfa57e67" target="_top" xlink:title="commands.ProductCommand.execute\lCommand">
<polygon fill="white" stroke="black" points="1087,-1078 1087,-1108 1289,-1108 1289,-1078 1087,-1078"/>
<text text-anchor="start" x="1095" y="-1096" font-family="Helvetica,sans-Serif" font-size="10.00">commands.ProductCommand.execute</text>
<text text-anchor="middle" x="1188" y="-1085" font-family="Helvetica,sans-Serif" font-size="10.00">Command</text>
</a>
</g>
</g>
<!-- Node5&#45;&gt;Node11 -->
<g id="edge10" class="edge"><title>Node5&#45;&gt;Node11</title>
<path fill="none" stroke="midnightblue" d="M949.405,-701.275C949.233,-771.059 958.921,-967.852 1068,-1068 1073.6,-1073.14 1079.98,-1077.33 1086.8,-1080.73"/>
<polygon fill="midnightblue" stroke="midnightblue" points="952.906,-701.233 949.504,-691.2 945.906,-701.165 952.906,-701.233"/>
</g>
<!-- Node12 -->
<g id="node12" class="node"><title>Node12</title>
<g id="a_node12"><a xlink:href="../../dd/d40/classcommands_1_1_quotient_command.html#a7e23b237cc68512dcbe6a65feb7c39e8" target="_top" xlink:title="commands.QuotientCommand.execute\lCommand">
<polygon fill="white" stroke="black" points="1085,-1029 1085,-1059 1291,-1059 1291,-1029 1085,-1029"/>
<text text-anchor="start" x="1093" y="-1047" font-family="Helvetica,sans-Serif" font-size="10.00">commands.QuotientCommand.execute</text>
<text text-anchor="middle" x="1188" y="-1036" font-family="Helvetica,sans-Serif" font-size="10.00">Command</text>
</a>
</g>
</g>
<!-- Node5&#45;&gt;Node12 -->
<g id="edge11" class="edge"><title>Node5&#45;&gt;Node12</title>
<path fill="none" stroke="midnightblue" d="M950.674,-701.514C953.822,-765.487 971.36,-933.681 1068,-1019 1073.06,-1023.47 1078.72,-1027.21 1084.75,-1030.34"/>
<polygon fill="midnightblue" stroke="midnightblue" points="954.156,-701.007 950.249,-691.159 947.162,-701.294 954.156,-701.007"/>
</g>
<!-- Node13 -->
<g id="node13" class="node"><title>Node13</title>
<g id="a_node13"><a xlink:href="../../dc/d68/classcommands_1_1_make_variable_command.html#ad0e0974744cc969c12c67805c2460ef4" target="_top" xlink:title="commands.MakeVariableCommand.execute\lCommand">
<polygon fill="white" stroke="black" points="1073.5,-980 1073.5,-1010 1302.5,-1010 1302.5,-980 1073.5,-980"/>
<text text-anchor="start" x="1081.5" y="-998" font-family="Helvetica,sans-Serif" font-size="10.00">commands.MakeVariableCommand.execute</text>
<text text-anchor="middle" x="1188" y="-987" font-family="Helvetica,sans-Serif" font-size="10.00">Command</text>
</a>
</g>
</g>
<!-- Node5&#45;&gt;Node13 -->
<g id="edge12" class="edge"><title>Node5&#45;&gt;Node13</title>
<path fill="none" stroke="midnightblue" d="M952.268,-701.004C958.857,-758.166 983.294,-898.929 1068,-970 1072.53,-973.799 1077.49,-977.067 1082.73,-979.873"/>
<polygon fill="midnightblue" stroke="midnightblue" points="955.746,-700.607 951.205,-691.035 948.785,-701.35 955.746,-700.607"/>
</g>
<!-- Node14 -->
<g id="node14" class="node"><title>Node14</title>
<g id="a_node14"><a xlink:href="../../d8/ded/classcommands_1_1_difference_command.html#a0c34c43d3bb266ef3e48ae27be938a0f" target="_top" xlink:title="commands.DifferenceCommand.execute\lCommand">
<polygon fill="white" stroke="black" points="1081,-931 1081,-961 1295,-961 1295,-931 1081,-931"/>
<text text-anchor="start" x="1089" y="-949" font-family="Helvetica,sans-Serif" font-size="10.00">commands.DifferenceCommand.execute</text>
<text text-anchor="middle" x="1188" y="-938" font-family="Helvetica,sans-Serif" font-size="10.00">Command</text>
</a>
</g>
</g>
<!-- Node5&#45;&gt;Node14 -->
<g id="edge13" class="edge"><title>Node5&#45;&gt;Node14</title>
<path fill="none" stroke="midnightblue" d="M954.533,-701.294C964.941,-751.586 995.461,-864.176 1068,-921 1072.9,-924.84 1078.26,-928.128 1083.89,-930.938"/>
<polygon fill="midnightblue" stroke="midnightblue" points="957.927,-700.411 952.559,-691.276 951.059,-701.765 957.927,-700.411"/>
</g>
<!-- Node15 -->
<g id="node15" class="node"><title>Node15</title>
<g id="a_node15"><a xlink:href="../../dd/d29/classcommands_1_1_clear_screen_command.html#a87e5eb0f4c3bb48ec0737da2aa431db3" target="_top" xlink:title="commands.ClearScreenCommand.execute\lCommand">
<polygon fill="white" stroke="black" points="1076,-882 1076,-912 1300,-912 1300,-882 1076,-882"/>
<text text-anchor="start" x="1084" y="-900" font-family="Helvetica,sans-Serif" font-size="10.00">commands.ClearScreenCommand.execute</text>
<text text-anchor="middle" x="1188" y="-889" font-family="Helvetica,sans-Serif" font-size="10.00">Command</text>
</a>
</g>
</g>
<!-- Node5&#45;&gt;Node15 -->
<g id="edge14" class="edge"><title>Node5&#45;&gt;Node15</title>
<path fill="none" stroke="midnightblue" d="M957.566,-700.672C971.857,-742.893 1006.99,-828.631 1068,-872 1073.42,-875.853 1079.31,-879.136 1085.47,-881.931"/>
<polygon fill="midnightblue" stroke="midnightblue" points="960.891,-699.579 954.454,-691.165 954.239,-701.757 960.891,-699.579"/>
</g>
<!-- Node16 -->
<g id="node16" class="node"><title>Node16</title>
<g id="a_node16"><a xlink:href="../../d9/d35/classcommands_1_1_ask_command.html#ae4ba28c73ce0b5112e4032bd21a951f5" target="_top" xlink:title="commands.AskCommand.execute\lCommand">
<polygon fill="white" stroke="black" points="1097,-833 1097,-863 1279,-863 1279,-833 1097,-833"/>
<text text-anchor="start" x="1105" y="-851" font-family="Helvetica,sans-Serif" font-size="10.00">commands.AskCommand.execute</text>
<text text-anchor="middle" x="1188" y="-840" font-family="Helvetica,sans-Serif" font-size="10.00">Command</text>
</a>
</g>
</g>
<!-- Node5&#45;&gt;Node16 -->
<g id="edge15" class="edge"><title>Node5&#45;&gt;Node16</title>
<path fill="none" stroke="midnightblue" d="M962.524,-700.426C980.923,-733.7 1018.51,-792.605 1068,-823 1076.81,-828.413 1086.61,-832.67 1096.7,-836.015"/>
<polygon fill="midnightblue" stroke="midnightblue" points="965.47,-698.514 957.644,-691.373 959.309,-701.836 965.47,-698.514"/>
</g>
<!-- Node17 -->
<g id="node17" class="node"><title>Node17</title>
<g id="a_node17"><a xlink:href="../../d3/d49/classcommands_1_1_if_else_command.html#a3b3d15925117d366a69f8ebd1dbc2dbc" target="_top" xlink:title="commands.IfElseCommand.execute\lCommand">
<polygon fill="white" stroke="black" points="1093,-784 1093,-814 1283,-814 1283,-784 1093,-784"/>
<text text-anchor="start" x="1101" y="-802" font-family="Helvetica,sans-Serif" font-size="10.00">commands.IfElseCommand.execute</text>
<text text-anchor="middle" x="1188" y="-791" font-family="Helvetica,sans-Serif" font-size="10.00">Command</text>
</a>
</g>
</g>
<!-- Node5&#45;&gt;Node17 -->
<g id="edge16" class="edge"><title>Node5&#45;&gt;Node17</title>
<path fill="none" stroke="midnightblue" d="M970.734,-698.758C992.669,-721.389 1029.39,-755.347 1068,-774 1076.08,-777.903 1084.75,-781.199 1093.61,-783.982"/>
<polygon fill="midnightblue" stroke="midnightblue" points="973.04,-696.105 963.613,-691.27 967.967,-700.928 973.04,-696.105"/>
</g>
<!-- Node19 -->
<g id="node19" class="node"><title>Node19</title>
<g id="a_node19"><a xlink:href="../../d8/d57/classcommands_1_1_for_command.html#aeb06a37d7f9845eb546425bae6ea9f58" target="_top" xlink:title="commands.ForCommand.execute\lCommand">
<polygon fill="white" stroke="black" points="1098,-735 1098,-765 1278,-765 1278,-735 1098,-735"/>
<text text-anchor="start" x="1106" y="-753" font-family="Helvetica,sans-Serif" font-size="10.00">commands.ForCommand.execute</text>
<text text-anchor="middle" x="1188" y="-742" font-family="Helvetica,sans-Serif" font-size="10.00">Command</text>
</a>
</g>
</g>
<!-- Node5&#45;&gt;Node19 -->
<g id="edge18" class="edge"><title>Node5&#45;&gt;Node19</title>
<path fill="none" stroke="midnightblue" d="M991.147,-695.308C1013.51,-705.231 1041.86,-716.904 1068,-725 1080,-728.716 1092.85,-732.055 1105.5,-734.992"/>
<polygon fill="midnightblue" stroke="midnightblue" points="992.511,-692.084 981.955,-691.179 989.643,-698.47 992.511,-692.084"/>
</g>
<!-- Node20 -->
<g id="node20" class="node"><title>Node20</title>
<g id="a_node20"><a xlink:href="../../db/d38/classcommands_1_1_ask_with_command.html#a5ee6a090e94729d84ef423a454d446eb" target="_top" xlink:title="commands.AskWithCommand.execute\lCommand">
<polygon fill="white" stroke="black" points="1086.5,-686 1086.5,-716 1289.5,-716 1289.5,-686 1086.5,-686"/>
<text text-anchor="start" x="1094.5" y="-704" font-family="Helvetica,sans-Serif" font-size="10.00">commands.AskWithCommand.execute</text>
<text text-anchor="middle" x="1188" y="-693" font-family="Helvetica,sans-Serif" font-size="10.00">Command</text>
</a>
</g>
</g>
<!-- Node5&#45;&gt;Node20 -->
<g id="edge19" class="edge"><title>Node5&#45;&gt;Node20</title>
<path fill="none" stroke="midnightblue" d="M1041.62,-685.665C1056.3,-687.213 1071.56,-688.823 1086.44,-690.392"/>
<polygon fill="midnightblue" stroke="midnightblue" points="1041.87,-682.172 1031.56,-684.604 1041.14,-689.133 1041.87,-682.172"/>
</g>
<!-- Node21 -->
<g id="node21" class="node"><title>Node21</title>
<g id="a_node21"><a xlink:href="../../d4/d02/classcommands_1_1_do_times_command.html#a1dd20e90975d905a1bce8f018e9f7f0a" target="_top" xlink:title="commands.DoTimesCommand.execute\lCommand">
<polygon fill="white" stroke="black" points="1084.5,-637 1084.5,-667 1291.5,-667 1291.5,-637 1084.5,-637"/>
<text text-anchor="start" x="1092.5" y="-655" font-family="Helvetica,sans-Serif" font-size="10.00">commands.DoTimesCommand.execute</text>
<text text-anchor="middle" x="1188" y="-644" font-family="Helvetica,sans-Serif" font-size="10.00">Command</text>
</a>
</g>
</g>
<!-- Node5&#45;&gt;Node21 -->
<g id="edge20" class="edge"><title>Node5&#45;&gt;Node21</title>
<path fill="none" stroke="midnightblue" d="M1041.64,-666.72C1055.63,-665.303 1070.15,-663.833 1084.35,-662.395"/>
<polygon fill="midnightblue" stroke="midnightblue" points="1041.16,-663.251 1031.56,-667.741 1041.86,-670.215 1041.16,-663.251"/>
</g>
<!-- Node22 -->
<g id="node22" class="node"><title>Node22</title>
<g id="a_node22"><a xlink:href="../../dd/de4/classcommands_1_1_custom_command.html#a5ad25438a49d3e4eeba835fefe8b730a" target="_top" xlink:title="commands.CustomCommand.execute\lCommand">
<polygon fill="white" stroke="black" points="1086.5,-588 1086.5,-618 1289.5,-618 1289.5,-588 1086.5,-588"/>
<text text-anchor="start" x="1094.5" y="-606" font-family="Helvetica,sans-Serif" font-size="10.00">commands.CustomCommand.execute</text>
<text text-anchor="middle" x="1188" y="-595" font-family="Helvetica,sans-Serif" font-size="10.00">Command</text>
</a>
</g>
</g>
<!-- Node5&#45;&gt;Node22 -->
<g id="edge21" class="edge"><title>Node5&#45;&gt;Node22</title>
<path fill="none" stroke="midnightblue" d="M991.663,-656.916C1013.96,-647.252 1042.09,-635.921 1068,-628 1080.11,-624.297 1093.08,-620.956 1105.85,-618.011"/>
<polygon fill="midnightblue" stroke="midnightblue" points="990.24,-653.719 982.489,-660.941 993.052,-660.129 990.24,-653.719"/>
</g>
<!-- Node23 -->
<g id="node23" class="node"><title>Node23</title>
<g id="a_node23"><a xlink:href="../../d6/daf/classcommands_1_1_set_shape_command.html#a59c440316cf9e732b5aa2f46def94e10" target="_top" xlink:title="commands.SetShapeCommand.update\lTurtle">
<polygon fill="white" stroke="black" points="1084,-539 1084,-569 1292,-569 1292,-539 1084,-539"/>
<text text-anchor="start" x="1092" y="-557" font-family="Helvetica,sans-Serif" font-size="10.00">commands.SetShapeCommand.update</text>
<text text-anchor="middle" x="1188" y="-546" font-family="Helvetica,sans-Serif" font-size="10.00">Turtle</text>
</a>
</g>
</g>
<!-- Node5&#45;&gt;Node23 -->
<g id="edge22" class="edge"><title>Node5&#45;&gt;Node23</title>
<path fill="none" stroke="midnightblue" d="M970.781,-653.48C992.754,-631.086 1029.51,-597.479 1068,-579 1076.09,-575.117 1084.77,-571.835 1093.63,-569.06"/>
<polygon fill="midnightblue" stroke="midnightblue" points="968.061,-651.259 963.647,-660.891 973.104,-656.114 968.061,-651.259"/>
</g>
<!-- Node24 -->
<g id="node24" class="node"><title>Node24</title>
<g id="a_node24"><a xlink:href="../../d6/d11/classcommands_1_1_set_pen_dash_command.html#a320f3b8248e3e89b2338dfefbe73f8c7" target="_top" xlink:title="commands.SetPenDashCommand.update\lTurtle">
<polygon fill="white" stroke="black" points="1078,-490 1078,-520 1298,-520 1298,-490 1078,-490"/>
<text text-anchor="start" x="1086" y="-508" font-family="Helvetica,sans-Serif" font-size="10.00">commands.SetPenDashCommand.update</text>
<text text-anchor="middle" x="1188" y="-497" font-family="Helvetica,sans-Serif" font-size="10.00">Turtle</text>
</a>
</g>
</g>
<!-- Node5&#45;&gt;Node24 -->
<g id="edge23" class="edge"><title>Node5&#45;&gt;Node24</title>
<path fill="none" stroke="midnightblue" d="M962.568,-651.74C981.017,-618.692 1018.66,-560.188 1068,-530 1074.3,-526.144 1081.11,-522.875 1088.16,-520.104"/>
<polygon fill="midnightblue" stroke="midnightblue" points="959.381,-650.275 957.673,-660.731 965.528,-653.622 959.381,-650.275"/>
</g>
<!-- Node25 -->
<g id="node25" class="node"><title>Node25</title>
<g id="a_node25"><a xlink:href="../../dc/df3/classcommands_1_1_set_towards_command.html#ad82abd7dcaed57b3bdb3a4b87a91815a" target="_top" xlink:title="commands.SetTowardsCommand.update\lTurtle">
<polygon fill="white" stroke="black" points="1080.5,-441 1080.5,-471 1295.5,-471 1295.5,-441 1080.5,-441"/>
<text text-anchor="start" x="1088.5" y="-459" font-family="Helvetica,sans-Serif" font-size="10.00">commands.SetTowardsCommand.update</text>
<text text-anchor="middle" x="1188" y="-448" font-family="Helvetica,sans-Serif" font-size="10.00">Turtle</text>
</a>
</g>
</g>
<!-- Node5&#45;&gt;Node25 -->
<g id="edge24" class="edge"><title>Node5&#45;&gt;Node25</title>
<path fill="none" stroke="midnightblue" d="M957.695,-651.184C972.101,-609.082 1007.3,-524.047 1068,-481 1073.42,-477.153 1079.32,-473.875 1085.48,-471.083"/>
<polygon fill="midnightblue" stroke="midnightblue" points="954.295,-650.318 954.478,-660.911 960.941,-652.517 954.295,-650.318"/>
</g>
<!-- Node26 -->
<g id="node26" class="node"><title>Node26</title>
<g id="a_node26"><a xlink:href="../../d9/db5/classcommands_1_1_set_position_command.html#aba31c4887974831a6c0d9feac8316ee6" target="_top" xlink:title="commands.SetPositionCommand.update\lTurtle">
<polygon fill="white" stroke="black" points="1080.5,-392 1080.5,-422 1295.5,-422 1295.5,-392 1080.5,-392"/>
<text text-anchor="start" x="1088.5" y="-410" font-family="Helvetica,sans-Serif" font-size="10.00">commands.SetPositionCommand.update</text>
<text text-anchor="middle" x="1188" y="-399" font-family="Helvetica,sans-Serif" font-size="10.00">Turtle</text>
</a>
</g>
</g>
<!-- Node5&#45;&gt;Node26 -->
<g id="edge25" class="edge"><title>Node5&#45;&gt;Node26</title>
<path fill="none" stroke="midnightblue" d="M954.566,-650.807C965.034,-600.716 995.656,-488.578 1068,-432 1072.91,-428.163 1078.26,-424.879 1083.9,-422.071"/>
<polygon fill="midnightblue" stroke="midnightblue" points="951.1,-650.293 952.579,-660.784 957.965,-651.661 951.1,-650.293"/>
</g>
<!-- Node27 -->
<g id="node27" class="node"><title>Node27</title>
<g id="a_node27"><a xlink:href="../../dd/db2/classcommands_1_1_right_command.html#ae16ecb0da3e0a2049a7382d74f315cb6" target="_top" xlink:title="commands.RightCommand.update\lTurtle">
<polygon fill="white" stroke="black" points="1095.5,-343 1095.5,-373 1280.5,-373 1280.5,-343 1095.5,-343"/>
<text text-anchor="start" x="1103.5" y="-361" font-family="Helvetica,sans-Serif" font-size="10.00">commands.RightCommand.update</text>
<text text-anchor="middle" x="1188" y="-350" font-family="Helvetica,sans-Serif" font-size="10.00">Turtle</text>
</a>
</g>
</g>
<!-- Node5&#45;&gt;Node27 -->
<g id="edge26" class="edge"><title>Node5&#45;&gt;Node27</title>
<path fill="none" stroke="midnightblue" d="M952.344,-650.678C959.06,-593.452 983.698,-453.648 1068,-383 1076.01,-376.288 1085.37,-371.237 1095.26,-367.456"/>
<polygon fill="midnightblue" stroke="midnightblue" points="948.858,-650.353 951.257,-660.673 955.817,-651.11 948.858,-650.353"/>
</g>
<!-- Node28 -->
<g id="node28" class="node"><title>Node28</title>
<g id="a_node28"><a xlink:href="../../dc/db3/classcommands_1_1_set_heading_command.html#a064fae1a815349b9efc6bd43f2371339" target="_top" xlink:title="commands.SetHeadingCommand.update\lTurtle">
<polygon fill="white" stroke="black" points="1079.5,-294 1079.5,-324 1296.5,-324 1296.5,-294 1079.5,-294"/>
<text text-anchor="start" x="1087.5" y="-312" font-family="Helvetica,sans-Serif" font-size="10.00">commands.SetHeadingCommand.update</text>
<text text-anchor="middle" x="1188" y="-301" font-family="Helvetica,sans-Serif" font-size="10.00">Turtle</text>
</a>
</g>
</g>
<!-- Node5&#45;&gt;Node28 -->
<g id="edge27" class="edge"><title>Node5&#45;&gt;Node28</title>
<path fill="none" stroke="midnightblue" d="M950.633,-650.439C953.685,-586.357 971.017,-417.929 1068,-333 1071.88,-329.598 1076.12,-326.628 1080.59,-324.037"/>
<polygon fill="midnightblue" stroke="midnightblue" points="947.121,-650.682 950.223,-660.812 954.115,-650.958 947.121,-650.682"/>
</g>
<!-- Node29 -->
<g id="node29" class="node"><title>Node29</title>
<g id="a_node29"><a xlink:href="../../d2/dbb/classcommands_1_1_set_pen_size_command.html#aa8dbbb22c72842b2d6f50aa169a8404e" target="_top" xlink:title="commands.SetPenSizeCommand.update\lTurtle">
<polygon fill="white" stroke="black" points="1080.5,-245 1080.5,-275 1295.5,-275 1295.5,-245 1080.5,-245"/>
<text text-anchor="start" x="1088.5" y="-263" font-family="Helvetica,sans-Serif" font-size="10.00">commands.SetPenSizeCommand.update</text>
<text text-anchor="middle" x="1188" y="-252" font-family="Helvetica,sans-Serif" font-size="10.00">Turtle</text>
</a>
</g>
</g>
<!-- Node5&#45;&gt;Node29 -->
<g id="edge28" class="edge"><title>Node5&#45;&gt;Node29</title>
<path fill="none" stroke="midnightblue" d="M954.136,-650.831C967.519,-572.454 1012.04,-334.962 1068,-284 1071.82,-280.523 1075.99,-277.492 1080.43,-274.853"/>
<polygon fill="midnightblue" stroke="midnightblue" points="950.667,-650.355 952.456,-660.798 957.569,-651.519 950.667,-650.355"/>
</g>
<!-- Node30 -->
<g id="node30" class="node"><title>Node30</title>
<g id="a_node30"><a xlink:href="../../d5/d21/classcommands_1_1_set_pen_color_command.html#a69a9c0161b8910c8fecc5ace219aeeb8" target="_top" xlink:title="commands.SetPenColorCommand.update\lTurtle">
<polygon fill="white" stroke="black" points="1078,-196 1078,-226 1298,-226 1298,-196 1078,-196"/>
<text text-anchor="start" x="1086" y="-214" font-family="Helvetica,sans-Serif" font-size="10.00">commands.SetPenColorCommand.update</text>
<text text-anchor="middle" x="1188" y="-203" font-family="Helvetica,sans-Serif" font-size="10.00">Turtle</text>
</a>
</g>
</g>
<!-- Node5&#45;&gt;Node30 -->
<g id="edge29" class="edge"><title>Node5&#45;&gt;Node30</title>
<path fill="none" stroke="midnightblue" d="M955.882,-651.156C977.516,-560.192 1052.23,-249.811 1068,-235 1071.61,-231.609 1075.56,-228.638 1079.76,-226.039"/>
<polygon fill="midnightblue" stroke="midnightblue" points="952.474,-650.359 953.569,-660.897 959.284,-651.977 952.474,-650.359"/>
</g>
<!-- Node31 -->
<g id="node31" class="node"><title>Node31</title>
<g id="a_node31"><a xlink:href="../../dc/d65/classcommands_1_1_left_command.html#abd466facd4b16e1c04a6578b4bf8e203" target="_top" xlink:title="commands.LeftCommand.update\lTurtle">
<polygon fill="white" stroke="black" points="1098.5,-147 1098.5,-177 1277.5,-177 1277.5,-147 1098.5,-147"/>
<text text-anchor="start" x="1106.5" y="-165" font-family="Helvetica,sans-Serif" font-size="10.00">commands.LeftCommand.update</text>
<text text-anchor="middle" x="1188" y="-154" font-family="Helvetica,sans-Serif" font-size="10.00">Turtle</text>
</a>
</g>
</g>
<!-- Node5&#45;&gt;Node31 -->
<g id="edge30" class="edge"><title>Node5&#45;&gt;Node31</title>
<path fill="none" stroke="midnightblue" d="M956.344,-650.68C970.28,-594.95 1004.51,-457.442 1032,-342 1048.48,-272.78 1016.99,-235.611 1068,-186 1076.54,-177.698 1087.1,-171.891 1098.38,-167.883"/>
<polygon fill="midnightblue" stroke="midnightblue" points="952.868,-650.154 953.836,-660.704 959.659,-651.853 952.868,-650.154"/>
</g>
<!-- Node32 -->
<g id="node32" class="node"><title>Node32</title>
<g id="a_node32"><a xlink:href="../../d6/ddc/classcommands_1_1_backward_command.html#af0c4c6ac04bea1aa34b069a01c53888f" target="_top" xlink:title="commands.BackwardCommand.update\lTurtle">
<polygon fill="white" stroke="black" points="1085,-98 1085,-128 1291,-128 1291,-98 1085,-98"/>
<text text-anchor="start" x="1093" y="-116" font-family="Helvetica,sans-Serif" font-size="10.00">commands.BackwardCommand.update</text>
<text text-anchor="middle" x="1188" y="-105" font-family="Helvetica,sans-Serif" font-size="10.00">Turtle</text>
</a>
</g>
</g>
<!-- Node5&#45;&gt;Node32 -->
<g id="edge31" class="edge"><title>Node5&#45;&gt;Node32</title>
<path fill="none" stroke="midnightblue" d="M956.804,-650.783C971.651,-595.258 1007.58,-458.129 1032,-342 1051.04,-251.475 1003.42,-203.229 1068,-137 1072.93,-131.945 1078.61,-127.802 1084.75,-124.419"/>
<polygon fill="midnightblue" stroke="midnightblue" points="953.336,-650.204 954.126,-660.769 960.097,-652.018 953.336,-650.204"/>
</g>
<!-- Node33 -->
<g id="node33" class="node"><title>Node33</title>
<g id="a_node33"><a xlink:href="../../da/d4f/classcommands_1_1_forward_command.html#afe19b644a8fe0d46f3dbf19aef135364" target="_top" xlink:title="commands.ForwardCommand.update\lTurtle">
<polygon fill="white" stroke="black" points="1089,-49 1089,-79 1287,-79 1287,-49 1089,-49"/>
<text text-anchor="start" x="1097" y="-67" font-family="Helvetica,sans-Serif" font-size="10.00">commands.ForwardCommand.update</text>
<text text-anchor="middle" x="1188" y="-56" font-family="Helvetica,sans-Serif" font-size="10.00">Turtle</text>
</a>
</g>
</g>
<!-- Node5&#45;&gt;Node33 -->
<g id="edge32" class="edge"><title>Node5&#45;&gt;Node33</title>
<path fill="none" stroke="midnightblue" d="M957.093,-650.841C972.511,-595.431 1009.5,-458.517 1032,-342 1042.81,-286.026 1028.88,-129.467 1068,-88 1073.93,-81.7146 1081.01,-76.8269 1088.73,-73.0504"/>
<polygon fill="midnightblue" stroke="midnightblue" points="953.628,-650.233 954.307,-660.806 960.37,-652.117 953.628,-650.233"/>
</g>
<!-- Node18 -->
<g id="node18" class="node"><title>Node18</title>
<g id="a_node18"><a xlink:href="../../d5/dad/classcommands_1_1_if_command.html#a0d92f20941c1e79cfb1e02e77f463e68" target="_top" xlink:title="commands.IfCommand.execute\lCommand">
<polygon fill="white" stroke="black" points="1344,-784 1344,-814 1514,-814 1514,-784 1344,-784"/>
<text text-anchor="start" x="1352" y="-802" font-family="Helvetica,sans-Serif" font-size="10.00">commands.IfCommand.execute</text>
<text text-anchor="middle" x="1429" y="-791" font-family="Helvetica,sans-Serif" font-size="10.00">Command</text>
</a>
</g>
</g>
<!-- Node17&#45;&gt;Node18 -->
<g id="edge17" class="edge"><title>Node17&#45;&gt;Node18</title>
<path fill="none" stroke="midnightblue" d="M1293.5,-799C1310.27,-799 1327.45,-799 1343.68,-799"/>
<polygon fill="midnightblue" stroke="midnightblue" points="1293.12,-795.5 1283.12,-799 1293.12,-802.5 1293.12,-795.5"/>
</g>
<!-- Node35 -->
<g id="node35" class="node"><title>Node35</title>
<g id="a_node35"><a xlink:href="../../d9/df7/classcontroller_1_1_controller.html#a81fea06b52aed0a26625c5b30b490afb" target="_top" xlink:title="controller.Controller.run\lCommand">
<polygon fill="white" stroke="black" points="1124,-0 1124,-30 1252,-30 1252,-0 1124,-0"/>
<text text-anchor="start" x="1132" y="-18" font-family="Helvetica,sans-Serif" font-size="10.00">controller.Controller.run</text>
<text text-anchor="middle" x="1188" y="-7" font-family="Helvetica,sans-Serif" font-size="10.00">Command</text>
</a>
</g>
</g>
<!-- Node34&#45;&gt;Node35 -->
<g id="edge34" class="edge"><title>Node34&#45;&gt;Node35</title>
<path fill="none" stroke="midnightblue" d="M1026.99,-307.773C1028.77,-306.312 1030.45,-304.725 1032,-303 1111.28,-215.038 986.965,-125.35 1068,-39 1082.28,-23.7855 1103.31,-16.7492 1123.74,-13.8411"/>
<polygon fill="midnightblue" stroke="midnightblue" points="1024.97,-304.917 1018.62,-313.401 1028.87,-310.726 1024.97,-304.917"/>
</g>
<!-- Node36 -->
<g id="node36" class="node"><title>Node36</title>
<g id="a_node36"><a xlink:href="../../d9/df7/classcontroller_1_1_controller.html#afdfa7f9e9a3fb5f6b73a6b8e2b2be8b5" target="_top" xlink:title="controller.Controller.get\lInput">
<polygon fill="white" stroke="black" points="1365,-0 1365,-30 1493,-30 1493,-0 1365,-0"/>
<text text-anchor="start" x="1373" y="-18" font-family="Helvetica,sans-Serif" font-size="10.00">controller.Controller.get</text>
<text text-anchor="middle" x="1429" y="-7" font-family="Helvetica,sans-Serif" font-size="10.00">Input</text>
</a>
</g>
</g>
<!-- Node35&#45;&gt;Node36 -->
<g id="edge35" class="edge"><title>Node35&#45;&gt;Node36</title>
<path fill="none" stroke="midnightblue" d="M1262.11,-15C1294.98,-15 1333.38,-15 1364.95,-15"/>
<polygon fill="midnightblue" stroke="midnightblue" points="1262.11,-11.5001 1252.11,-15 1262.11,-18.5001 1262.11,-11.5001"/>
</g>
<!-- Node37 -->
<g id="node37" class="node"><title>Node37</title>
<g id="a_node37"><a xlink:href="../../d3/dc7/classview_1_1controllers_1_1_pane_controller.html#a7e6154aecb60d8f3bcb056a11e842764" target="_top" xlink:title="view.controllers.PaneController.update">
<polygon fill="white" stroke="black" points="1550,-5.5 1550,-24.5 1748,-24.5 1748,-5.5 1550,-5.5"/>
<text text-anchor="middle" x="1649" y="-12.5" font-family="Helvetica,sans-Serif" font-size="10.00">view.controllers.PaneController.update</text>
</a>
</g>
</g>
<!-- Node36&#45;&gt;Node37 -->
<g id="edge36" class="edge"><title>Node36&#45;&gt;Node37</title>
<path fill="none" stroke="midnightblue" d="M1503.22,-15C1518.16,-15 1534.11,-15 1549.76,-15"/>
<polygon fill="midnightblue" stroke="midnightblue" points="1503.05,-11.5001 1493.05,-15 1503.05,-18.5001 1503.05,-11.5001"/>
</g>
<!-- Node39 -->
<g id="node39" class="node"><title>Node39</title>
<g id="a_node39"><a xlink:href="../../d8/daa/classview_1_1panes_1_1_turtle_selector_pane.html#a14e3fbe35c7447dcdf2f0910333cedcc" target="_top" xlink:title="view.panes.TurtleSelector\lPane.TurtleSelectorPane">
<polygon fill="white" stroke="black" points="880.5,-264 880.5,-294 1017.5,-294 1017.5,-264 880.5,-264"/>
<text text-anchor="start" x="888.5" y="-282" font-family="Helvetica,sans-Serif" font-size="10.00">view.panes.TurtleSelector</text>
<text text-anchor="middle" x="949" y="-271" font-family="Helvetica,sans-Serif" font-size="10.00">Pane.TurtleSelectorPane</text>
</a>
</g>
</g>
<!-- Node38&#45;&gt;Node39 -->
<g id="edge38" class="edge"><title>Node38&#45;&gt;Node39</title>
<path fill="none" stroke="midnightblue" d="M840.43,-279C854.024,-279 867.688,-279 880.5,-279"/>
<polygon fill="midnightblue" stroke="midnightblue" points="840.062,-275.5 830.062,-279 840.062,-282.5 840.062,-275.5"/>
</g>
<!-- Node40&#45;&gt;Node3 -->
<g id="edge40" class="edge"><title>Node40&#45;&gt;Node3</title>
<path fill="none" stroke="midnightblue" d="M374.395,-287.65C386.731,-288.921 399.266,-290.212 411.436,-291.465"/>
<polygon fill="midnightblue" stroke="midnightblue" points="374.398,-284.132 364.092,-286.589 373.681,-291.095 374.398,-284.132"/>
</g>
</g>
</svg>
        <g id="navigator" transform="translate(0 0)" fill="#404254">
                <rect fill="#f2f5e9" fill-opacity="0.5" stroke="#606060" stroke-width=".5" x="0" y="0" width="60" height="60"/>
                <use id="zoomplus" xlink:href="#zoomPlus" x="17" y="9" onmousedown="handleZoom(evt,'in')"/>
                <use id="zoomminus" xlink:href="#zoomMin" x="42" y="9" onmousedown="handleZoom(evt,'out')"/>
                <use id="reset" xlink:href="#resetDef" x="30" y="36" onmousedown="handleReset()"/>
                <g id="arrowUp" xlink:href="#dirArrow" transform="translate(30 24)" onmousedown="handlePan(0,-1)">
                  <use xlink:href="#rim" fill="#404040">
                        <set attributeName="fill" to="#808080" begin="arrowUp.mouseover" end="arrowUp.mouseout"/>
                  </use>
                  <path fill="none" stroke="white" stroke-width="1.5" d="M0,-3.0v7 M-2.5,-0.5L0,-3.0L2.5,-0.5"/>
                </g>
                <g id="arrowRight" xlink:href="#dirArrow" transform="rotate(90) translate(36 -43)" onmousedown="handlePan(1,0)">
                  <use xlink:href="#rim" fill="#404040">
                        <set attributeName="fill" to="#808080" begin="arrowRight.mouseover" end="arrowRight.mouseout"/>
                  </use>
                  <path fill="none" stroke="white" stroke-width="1.5" d="M0,-3.0v7 M-2.5,-0.5L0,-3.0L2.5,-0.5"/>
                </g>
                <g id="arrowDown" xlink:href="#dirArrow" transform="rotate(180) translate(-30 -48)" onmousedown="handlePan(0,1)">
                  <use xlink:href="#rim" fill="#404040">
                        <set attributeName="fill" to="#808080" begin="arrowDown.mouseover" end="arrowDown.mouseout"/>
                  </use>
                  <path fill="none" stroke="white" stroke-width="1.5" d="M0,-3.0v7 M-2.5,-0.5L0,-3.0L2.5,-0.5"/>
                </g>
                <g id="arrowLeft" xlink:href="#dirArrow" transform="rotate(270) translate(-36 17)" onmousedown="handlePan(-1,0)">
                  <use xlink:href="#rim" fill="#404040">
                        <set attributeName="fill" to="#808080" begin="arrowLeft.mouseover" end="arrowLeft.mouseout"/>
                  </use>
                  <path fill="none" stroke="white" stroke-width="1.5" d="M0,-3.0v7 M-2.5,-0.5L0,-3.0L2.5,-0.5"/>
                </g>
        </g>
        <svg viewBox="0 0 15 15" width="100%" height="30px" preserveAspectRatio="xMaxYMin meet">
         <g id="arrow_out" transform="scale(0.3 0.3)">
          <a xlink:href="classview_1_1_turtle_draw_a14678068d3fc9d3b6e1067bc372f6030_icgraph_org.svg" target="_base">
           <rect id="button" ry="5" rx="5" y="6" x="6" height="38" width="38"
                fill="#f2f5e9" fill-opacity="0.5" stroke="#606060" stroke-width="1.0"/>
           <path id="arrow"
             d="M 11.500037,31.436501 C 11.940474,20.09759 22.043105,11.32322 32.158766,21.979434 L 37.068811,17.246167 C 37.068811,17.246167 37.088388,32 37.088388,32 L 22.160133,31.978069 C 22.160133,31.978069 26.997745,27.140456 26.997745,27.140456 C 18.528582,18.264221 13.291696,25.230495 11.500037,31.436501 z"
             style="fill:#404040;"/>
          </a>
         </g>
        </svg>
</svg>
