<?xml version="1.0" encoding="UTF-8" standalone="no"?>
<!DOCTYPE svg PUBLIC "-//W3C//DTD SVG 1.1//EN"
 "http://www.w3.org/Graphics/SVG/1.1/DTD/svg11.dtd">
<!-- Generated by graphviz version 2.36.0 (20140111.2315)
 -->
<!-- Title: view.panes.TurtleStatsPane Pages: 1 -->
<svg width="197pt" height="96pt"
 viewBox="0.00 0.00 197.00 96.00" xmlns="http://www.w3.org/2000/svg" xmlns:xlink="http://www.w3.org/1999/xlink">
<g id="graph0" class="graph" transform="scale(1 1) rotate(0) translate(4 92)">
<title>view.panes.TurtleStatsPane</title>
<polygon fill="white" stroke="none" points="-4,4 -4,-92 193,-92 193,4 -4,4"/>
<!-- Node1 -->
<g id="node1" class="node"><title>Node1</title>
<polygon fill="#bfbfbf" stroke="black" points="0,-0.5 0,-19.5 146,-19.5 146,-0.5 0,-0.5"/>
<text text-anchor="middle" x="73" y="-7.5" font-family="Helvetica,sans-Serif" font-size="10.00">view.panes.TurtleStatsPane</text>
</g>
<!-- Node2 -->
<g id="node2" class="node"><title>Node2</title>
<polygon fill="white" stroke="#bfbfbf" points="1.5,-68.5 1.5,-87.5 42.5,-87.5 42.5,-68.5 1.5,-68.5"/>
<text text-anchor="middle" x="22" y="-75.5" font-family="Helvetica,sans-Serif" font-size="10.00">VBox</text>
</g>
<!-- Node2&#45;&gt;Node1 -->
<g id="edge1" class="edge"><title>Node2&#45;&gt;Node1</title>
<path fill="none" stroke="#9a32cd" stroke-dasharray="5,2" d="M34.8967,-60.3101C44.8389,-47.4437 58.1958,-30.1583 66.1682,-19.8411"/>
<polygon fill="#9a32cd" stroke="#9a32cd" points="32.0124,-58.3187 28.6674,-68.3717 37.5514,-62.5989 32.0124,-58.3187"/>
<text text-anchor="middle" x="74.5" y="-41.5" font-family="Helvetica,sans-Serif" font-size="10.00"> myVbox</text>
</g>
<!-- Node3 -->
<g id="node3" class="node"><title>Node3</title>
<polygon fill="white" stroke="#bfbfbf" points="61,-68.5 61,-87.5 189,-87.5 189,-68.5 61,-68.5"/>
<text text-anchor="middle" x="125" y="-75.5" font-family="Helvetica,sans-Serif" font-size="10.00">Map&lt; String, Double &gt;</text>
</g>
<!-- Node3&#45;&gt;Node1 -->
<g id="edge2" class="edge"><title>Node3&#45;&gt;Node1</title>
<path fill="none" stroke="#9a32cd" stroke-dasharray="5,2" d="M114.965,-59.6057C110.673,-52.6538 105.408,-44.7194 100,-38 94.6796,-31.3899 87.9296,-24.6399 82.5097,-19.5424"/>
<polygon fill="#9a32cd" stroke="#9a32cd" points="112.006,-61.4778 120.137,-68.2704 118.017,-57.8899 112.006,-61.4778"/>
<text text-anchor="middle" x="121.5" y="-41.5" font-family="Helvetica,sans-Serif" font-size="10.00"> map</text>
</g>
</g>
</svg>
