<?xml version="1.0" encoding="UTF-8" standalone="no"?>
<!DOCTYPE svg PUBLIC "-//W3C//DTD SVG 1.1//EN"
 "http://www.w3.org/Graphics/SVG/1.1/DTD/svg11.dtd">
<!-- Generated by graphviz version 2.36.0 (20140111.2315)
 -->
<!-- Title: commands.PiCommand Pages: 1 -->
<svg width="178pt" height="140pt"
 viewBox="0.00 0.00 178.00 140.00" xmlns="http://www.w3.org/2000/svg" xmlns:xlink="http://www.w3.org/1999/xlink">
<g id="graph0" class="graph" transform="scale(1 1) rotate(0) translate(4 136)">
<title>commands.PiCommand</title>
<polygon fill="white" stroke="none" points="-4,4 -4,-136 174,-136 174,4 -4,4"/>
<!-- Node1 -->
<g id="node1" class="node"><title>Node1</title>
<polygon fill="#bfbfbf" stroke="black" points="19,-0.5 19,-19.5 151,-19.5 151,-0.5 19,-0.5"/>
<text text-anchor="middle" x="85" y="-7.5" font-family="Helvetica,sans-Serif" font-size="10.00">commands.PiCommand</text>
</g>
<!-- Node2 -->
<g id="node2" class="node"><title>Node2</title>
<g id="a_node2"><a xlink:href="../../db/d5d/classcommands_1_1_zero_input_command.html" target="_top" xlink:title="commands.ZeroInputCommand">
<polygon fill="white" stroke="black" points="-0.5,-56.5 -0.5,-75.5 170.5,-75.5 170.5,-56.5 -0.5,-56.5"/>
<text text-anchor="middle" x="85" y="-63.5" font-family="Helvetica,sans-Serif" font-size="10.00">commands.ZeroInputCommand</text>
</a>
</g>
</g>
<!-- Node2&#45;&gt;Node1 -->
<g id="edge1" class="edge"><title>Node2&#45;&gt;Node1</title>
<path fill="none" stroke="midnightblue" d="M85,-45.8045C85,-36.9102 85,-26.7798 85,-19.7511"/>
<polygon fill="midnightblue" stroke="midnightblue" points="81.5001,-46.083 85,-56.083 88.5001,-46.083 81.5001,-46.083"/>
</g>
<!-- Node3 -->
<g id="node3" class="node"><title>Node3</title>
<g id="a_node3"><a xlink:href="../../dd/dd6/classcommands_1_1_command.html" target="_top" xlink:title="commands.Command">
<polygon fill="white" stroke="black" points="23,-112.5 23,-131.5 147,-131.5 147,-112.5 23,-112.5"/>
<text text-anchor="middle" x="85" y="-119.5" font-family="Helvetica,sans-Serif" font-size="10.00">commands.Command</text>
</a>
</g>
</g>
<!-- Node3&#45;&gt;Node2 -->
<g id="edge2" class="edge"><title>Node3&#45;&gt;Node2</title>
<path fill="none" stroke="midnightblue" d="M85,-101.805C85,-92.9102 85,-82.7798 85,-75.7511"/>
<polygon fill="midnightblue" stroke="midnightblue" points="81.5001,-102.083 85,-112.083 88.5001,-102.083 81.5001,-102.083"/>
</g>
</g>
</svg>
