<?xml version="1.0" encoding="UTF-8" standalone="no"?>
<!DOCTYPE svg PUBLIC "-//W3C//DTD SVG 1.1//EN"
 "http://www.w3.org/Graphics/SVG/1.1/DTD/svg11.dtd">
<!-- Generated by graphviz version 2.36.0 (20140111.2315)
 -->
<!-- Title: controller.MasterController.MasterController Pages: 1 -->
<svg width="626pt" height="66pt"
 viewBox="0.00 0.00 626.00 66.00" xmlns="http://www.w3.org/2000/svg" xmlns:xlink="http://www.w3.org/1999/xlink">
<g id="graph0" class="graph" transform="scale(1 1) rotate(0) translate(4 62)">
<title>controller.MasterController.MasterController</title>
<polygon fill="white" stroke="none" points="-4,4 -4,-62 622,-62 622,4 -4,4"/>
<!-- Node1 -->
<g id="node1" class="node"><title>Node1</title>
<polygon fill="#bfbfbf" stroke="black" points="0,-14 0,-44 146,-44 146,-14 0,-14"/>
<text text-anchor="start" x="8" y="-32" font-family="Helvetica,sans-Serif" font-size="10.00">controller.MasterController.</text>
<text text-anchor="middle" x="73" y="-21" font-family="Helvetica,sans-Serif" font-size="10.00">MasterController</text>
</g>
<!-- Node2 -->
<g id="node2" class="node"><title>Node2</title>
<g id="a_node2"><a xlink:href="../../d8/dce/classcontroller_1_1_master_controller.html#ab5fbb9e4dc0f267847333f3d8c9ba5ea" target="_top" xlink:title="controller.MasterController.construct\lMasterController">
<polygon fill="white" stroke="black" points="182.5,-14 182.5,-44 373.5,-44 373.5,-14 182.5,-14"/>
<text text-anchor="start" x="190.5" y="-32" font-family="Helvetica,sans-Serif" font-size="10.00">controller.MasterController.construct</text>
<text text-anchor="middle" x="278" y="-21" font-family="Helvetica,sans-Serif" font-size="10.00">MasterController</text>
</a>
</g>
</g>
<!-- Node1&#45;&gt;Node2 -->
<g id="edge1" class="edge"><title>Node1&#45;&gt;Node2</title>
<path fill="none" stroke="midnightblue" d="M146.142,-29C154.67,-29 163.501,-29 172.364,-29"/>
<polygon fill="midnightblue" stroke="midnightblue" points="172.37,-32.5001 182.37,-29 172.369,-25.5001 172.37,-32.5001"/>
</g>
<!-- Node3 -->
<g id="node3" class="node"><title>Node3</title>
<g id="a_node3"><a xlink:href="../../d8/dce/classcontroller_1_1_master_controller.html#a6872efed0600910c8ae37491e0f59a0e" target="_top" xlink:title="controller.MasterController.constructSet">
<polygon fill="white" stroke="black" points="410.5,-38.5 410.5,-57.5 617.5,-57.5 617.5,-38.5 410.5,-38.5"/>
<text text-anchor="middle" x="514" y="-45.5" font-family="Helvetica,sans-Serif" font-size="10.00">controller.MasterController.constructSet</text>
</a>
</g>
</g>
<!-- Node2&#45;&gt;Node3 -->
<g id="edge2" class="edge"><title>Node2&#45;&gt;Node3</title>
<path fill="none" stroke="midnightblue" d="M373.502,-36.6733C382.35,-37.3916 391.375,-38.1245 400.366,-38.8545"/>
<polygon fill="midnightblue" stroke="midnightblue" points="400.241,-42.3558 410.492,-39.6767 400.808,-35.3788 400.241,-42.3558"/>
</g>
<!-- Node4 -->
<g id="node4" class="node"><title>Node4</title>
<g id="a_node4"><a xlink:href="../../d6/d95/classparser_1_1_parser.html#a4f1e7ee432eb4d4377de4ce4202b139d" target="_top" xlink:title="parser.Parser.resetParser">
<polygon fill="white" stroke="black" points="445.5,-0.5 445.5,-19.5 582.5,-19.5 582.5,-0.5 445.5,-0.5"/>
<text text-anchor="middle" x="514" y="-7.5" font-family="Helvetica,sans-Serif" font-size="10.00">parser.Parser.resetParser</text>
</a>
</g>
</g>
<!-- Node2&#45;&gt;Node4 -->
<g id="edge3" class="edge"><title>Node2&#45;&gt;Node4</title>
<path fill="none" stroke="midnightblue" d="M373.502,-21.3267C394.025,-19.6604 415.508,-17.9161 435.294,-16.3095"/>
<polygon fill="midnightblue" stroke="midnightblue" points="435.788,-19.7809 445.472,-15.483 435.222,-12.8039 435.788,-19.7809"/>
</g>
</g>
</svg>
