<?xml version="1.0" encoding="UTF-8" standalone="no"?>
<!DOCTYPE svg PUBLIC "-//W3C//DTD SVG 1.1//EN"
 "http://www.w3.org/Graphics/SVG/1.1/DTD/svg11.dtd">
<!-- Generated by graphviz version 2.36.0 (20140111.2315)
 -->
<!-- Title: controller.MasterController.constructSet Pages: 1 -->
<!--zoomable 87 -->
<svg id="main" version="1.1" xmlns="http://www.w3.org/2000/svg" xmlns:xlink="http://www.w3.org/1999/xlink" xml:space="preserve" onload="init(evt)">
<style type="text/css"><![CDATA[
.edge:hover path { stroke: red; }
.edge:hover polygon { stroke: red; fill: red; }
]]></style>
<script type="text/javascript"><![CDATA[
var edges = document.getElementsByTagName('g');
if (edges && edges.length) {
  for (var i=0;i<edges.length;i++) {
    if (edges[i].id.substr(0,4)=='edge') {
      edges[i].setAttribute('class','edge');
    }
  }
}
]]></script>
        <defs>
                <circle id="rim" cx="0" cy="0" r="7"/>
                <circle id="rim2" cx="0" cy="0" r="3.5"/>
                <g id="zoomPlus">
                        <use xlink:href="#rim" fill="#404040">
                                <set attributeName="fill" to="#808080" begin="zoomplus.mouseover" end="zoomplus.mouseout"/>
                        </use>
                        <path d="M-4,0h8M0,-4v8" fill="none" stroke="white" stroke-width="1.5" pointer-events="none"/>
                </g>
                <g id="zoomMin">
                        <use xlink:href="#rim" fill="#404040">
                                <set attributeName="fill" to="#808080" begin="zoomminus.mouseover" end="zoomminus.mouseout"/>
                        </use>
                        <path d="M-4,0h8" fill="none" stroke="white" stroke-width="1.5" pointer-events="none"/>
                </g>
                <g id="dirArrow">
                        <path fill="none" stroke="white" stroke-width="1.5" d="M0,-3.0v7 M-2.5,-0.5L0,-3.0L2.5,-0.5"/>
                </g>
               <g id="resetDef">
                       <use xlink:href="#rim2" fill="#404040">
                               <set attributeName="fill" to="#808080" begin="reset.mouseover" end="reset.mouseout"/>
                       </use>
               </g>
        </defs>

<script type="text/javascript">
var viewWidth = 1234;
var viewHeight = 87;
var sectionId = 'dynsection-4';
</script>
<script xlink:href="../../svgpan.js"/>
<svg id="graph" class="graph">
<g id="viewport">
<title>controller.MasterController.constructSet</title>
<polygon fill="white" stroke="none" points="-4,4 -4,-83 1230,-83 1230,4 -4,4"/>
<!-- Node1 -->
<g id="node1" class="node"><title>Node1</title>
<polygon fill="#bfbfbf" stroke="black" points="0.5,-29.5 0.5,-48.5 207.5,-48.5 207.5,-29.5 0.5,-29.5"/>
<text text-anchor="middle" x="104" y="-36.5" font-family="Helvetica,sans-Serif" font-size="10.00">controller.MasterController.constructSet</text>
</g>
<!-- Node2 -->
<g id="node2" class="node"><title>Node2</title>
<g id="a_node2"><a xlink:href="../../d8/dce/classcontroller_1_1_master_controller.html#ab5fbb9e4dc0f267847333f3d8c9ba5ea" target="_top" xlink:title="controller.MasterController.construct\lMasterController">
<polygon fill="white" stroke="black" points="244.5,-24 244.5,-54 435.5,-54 435.5,-24 244.5,-24"/>
<text text-anchor="start" x="252.5" y="-42" font-family="Helvetica,sans-Serif" font-size="10.00">controller.MasterController.construct</text>
<text text-anchor="middle" x="340" y="-31" font-family="Helvetica,sans-Serif" font-size="10.00">MasterController</text>
</a>
</g>
</g>
<!-- Node1&#45;&gt;Node2 -->
<g id="edge1" class="edge"><title>Node1&#45;&gt;Node2</title>
<path fill="none" stroke="midnightblue" d="M217.645,-39C226.532,-39 235.453,-39 244.201,-39"/>
<polygon fill="midnightblue" stroke="midnightblue" points="217.636,-35.5001 207.636,-39 217.636,-42.5001 217.636,-35.5001"/>
</g>
<!-- Node3 -->
<g id="node3" class="node"><title>Node3</title>
<g id="a_node3"><a xlink:href="../../d8/dce/classcontroller_1_1_master_controller.html#a93087b09fa3b41540967abf7efe056a1" target="_top" xlink:title="controller.MasterController.\lMasterController">
<polygon fill="white" stroke="black" points="472,-49 472,-79 618,-79 618,-49 472,-49"/>
<text text-anchor="start" x="480" y="-67" font-family="Helvetica,sans-Serif" font-size="10.00">controller.MasterController.</text>
<text text-anchor="middle" x="545" y="-56" font-family="Helvetica,sans-Serif" font-size="10.00">MasterController</text>
</a>
</g>
</g>
<!-- Node2&#45;&gt;Node3 -->
<g id="edge2" class="edge"><title>Node2&#45;&gt;Node3</title>
<path fill="none" stroke="midnightblue" d="M445.686,-51.8923C454.562,-52.9854 463.405,-54.0745 471.944,-55.1261"/>
<polygon fill="midnightblue" stroke="midnightblue" points="446.018,-48.4069 435.665,-50.6583 445.162,-55.3544 446.018,-48.4069"/>
</g>
<!-- Node4 -->
<g id="node4" class="node"><title>Node4</title>
<g id="a_node4"><a xlink:href="../../df/d94/classview_1_1controllers_1_1_language_controller.html#a28320ec7a669cf479a5a141b76805b1d" target="_top" xlink:title="view.controllers.Language\lController.setLanguage">
<polygon fill="white" stroke="black" points="475,-0 475,-30 615,-30 615,-0 475,-0"/>
<text text-anchor="start" x="483" y="-18" font-family="Helvetica,sans-Serif" font-size="10.00">view.controllers.Language</text>
<text text-anchor="middle" x="545" y="-7" font-family="Helvetica,sans-Serif" font-size="10.00">Controller.setLanguage</text>
</a>
</g>
</g>
<!-- Node2&#45;&gt;Node4 -->
<g id="edge3" class="edge"><title>Node2&#45;&gt;Node4</title>
<path fill="none" stroke="midnightblue" d="M445.603,-26.6331C455.542,-25.4581 465.441,-24.2877 474.919,-23.1672"/>
<polygon fill="midnightblue" stroke="midnightblue" points="445.185,-23.1581 435.665,-27.808 446.007,-30.1097 445.185,-23.1581"/>
</g>
<!-- Node5 -->
<g id="node5" class="node"><title>Node5</title>
<g id="a_node5"><a xlink:href="../../df/d94/classview_1_1controllers_1_1_language_controller.html#a007ceb59189fb624bb31d77fd1b5ed8f" target="_top" xlink:title="view.controllers.Language\lController.makeMenu">
<polygon fill="white" stroke="black" points="654,-0 654,-30 794,-30 794,-0 654,-0"/>
<text text-anchor="start" x="662" y="-18" font-family="Helvetica,sans-Serif" font-size="10.00">view.controllers.Language</text>
<text text-anchor="middle" x="724" y="-7" font-family="Helvetica,sans-Serif" font-size="10.00">Controller.makeMenu</text>
</a>
</g>
</g>
<!-- Node4&#45;&gt;Node5 -->
<g id="edge4" class="edge"><title>Node4&#45;&gt;Node5</title>
<path fill="none" stroke="midnightblue" d="M625.412,-15C634.9,-15 644.528,-15 653.855,-15"/>
<polygon fill="midnightblue" stroke="midnightblue" points="625.193,-11.5001 615.193,-15 625.193,-18.5001 625.193,-11.5001"/>
</g>
<!-- Node6 -->
<g id="node6" class="node"><title>Node6</title>
<g id="a_node6"><a xlink:href="../../d0/d18/classview_1_1panes_1_1_button_pane_module.html#a5d69a336ac95020bfde0507bb018790d" target="_top" xlink:title="view.panes.ButtonPaneModule.create\lPropertiesMenu">
<polygon fill="white" stroke="black" points="830.5,-0 830.5,-30 1025.5,-30 1025.5,-0 830.5,-0"/>
<text text-anchor="start" x="838.5" y="-18" font-family="Helvetica,sans-Serif" font-size="10.00">view.panes.ButtonPaneModule.create</text>
<text text-anchor="middle" x="928" y="-7" font-family="Helvetica,sans-Serif" font-size="10.00">PropertiesMenu</text>
</a>
</g>
</g>
<!-- Node5&#45;&gt;Node6 -->
<g id="edge5" class="edge"><title>Node5&#45;&gt;Node6</title>
<path fill="none" stroke="midnightblue" d="M804.477,-15C812.974,-15 821.685,-15 830.353,-15"/>
<polygon fill="midnightblue" stroke="midnightblue" points="804.234,-11.5001 794.234,-15 804.234,-18.5001 804.234,-11.5001"/>
</g>
<!-- Node7 -->
<g id="node7" class="node"><title>Node7</title>
<g id="a_node7"><a xlink:href="../../d0/d18/classview_1_1panes_1_1_button_pane_module.html#aa101ed48e3d2a504329a82dc7bea4795" target="_top" xlink:title="view.panes.ButtonPaneModule.\lButtonPaneModule">
<polygon fill="white" stroke="black" points="1062,-0 1062,-30 1226,-30 1226,-0 1062,-0"/>
<text text-anchor="start" x="1070" y="-18" font-family="Helvetica,sans-Serif" font-size="10.00">view.panes.ButtonPaneModule.</text>
<text text-anchor="middle" x="1144" y="-7" font-family="Helvetica,sans-Serif" font-size="10.00">ButtonPaneModule</text>
</a>
</g>
</g>
<!-- Node6&#45;&gt;Node7 -->
<g id="edge6" class="edge"><title>Node6&#45;&gt;Node7</title>
<path fill="none" stroke="midnightblue" d="M1035.88,-15C1044.6,-15 1053.31,-15 1061.8,-15"/>
<polygon fill="midnightblue" stroke="midnightblue" points="1035.67,-11.5001 1025.67,-15 1035.67,-18.5001 1035.67,-11.5001"/>
</g>
</g>
</svg>
        <g id="navigator" transform="translate(0 0)" fill="#404254">
                <rect fill="#f2f5e9" fill-opacity="0.5" stroke="#606060" stroke-width=".5" x="0" y="0" width="60" height="60"/>
                <use id="zoomplus" xlink:href="#zoomPlus" x="17" y="9" onmousedown="handleZoom(evt,'in')"/>
                <use id="zoomminus" xlink:href="#zoomMin" x="42" y="9" onmousedown="handleZoom(evt,'out')"/>
                <use id="reset" xlink:href="#resetDef" x="30" y="36" onmousedown="handleReset()"/>
                <g id="arrowUp" xlink:href="#dirArrow" transform="translate(30 24)" onmousedown="handlePan(0,-1)">
                  <use xlink:href="#rim" fill="#404040">
                        <set attributeName="fill" to="#808080" begin="arrowUp.mouseover" end="arrowUp.mouseout"/>
                  </use>
                  <path fill="none" stroke="white" stroke-width="1.5" d="M0,-3.0v7 M-2.5,-0.5L0,-3.0L2.5,-0.5"/>
                </g>
                <g id="arrowRight" xlink:href="#dirArrow" transform="rotate(90) translate(36 -43)" onmousedown="handlePan(1,0)">
                  <use xlink:href="#rim" fill="#404040">
                        <set attributeName="fill" to="#808080" begin="arrowRight.mouseover" end="arrowRight.mouseout"/>
                  </use>
                  <path fill="none" stroke="white" stroke-width="1.5" d="M0,-3.0v7 M-2.5,-0.5L0,-3.0L2.5,-0.5"/>
                </g>
                <g id="arrowDown" xlink:href="#dirArrow" transform="rotate(180) translate(-30 -48)" onmousedown="handlePan(0,1)">
                  <use xlink:href="#rim" fill="#404040">
                        <set attributeName="fill" to="#808080" begin="arrowDown.mouseover" end="arrowDown.mouseout"/>
                  </use>
                  <path fill="none" stroke="white" stroke-width="1.5" d="M0,-3.0v7 M-2.5,-0.5L0,-3.0L2.5,-0.5"/>
                </g>
                <g id="arrowLeft" xlink:href="#dirArrow" transform="rotate(270) translate(-36 17)" onmousedown="handlePan(-1,0)">
                  <use xlink:href="#rim" fill="#404040">
                        <set attributeName="fill" to="#808080" begin="arrowLeft.mouseover" end="arrowLeft.mouseout"/>
                  </use>
                  <path fill="none" stroke="white" stroke-width="1.5" d="M0,-3.0v7 M-2.5,-0.5L0,-3.0L2.5,-0.5"/>
                </g>
        </g>
        <svg viewBox="0 0 15 15" width="100%" height="30px" preserveAspectRatio="xMaxYMin meet">
         <g id="arrow_out" transform="scale(0.3 0.3)">
          <a xlink:href="classcontroller_1_1_master_controller_a6872efed0600910c8ae37491e0f59a0e_icgraph_org.svg" target="_base">
           <rect id="button" ry="5" rx="5" y="6" x="6" height="38" width="38"
                fill="#f2f5e9" fill-opacity="0.5" stroke="#606060" stroke-width="1.0"/>
           <path id="arrow"
             d="M 11.500037,31.436501 C 11.940474,20.09759 22.043105,11.32322 32.158766,21.979434 L 37.068811,17.246167 C 37.068811,17.246167 37.088388,32 37.088388,32 L 22.160133,31.978069 C 22.160133,31.978069 26.997745,27.140456 26.997745,27.140456 C 18.528582,18.264221 13.291696,25.230495 11.500037,31.436501 z"
             style="fill:#404040;"/>
          </a>
         </g>
        </svg>
</svg>
