<?xml version="1.0" encoding="UTF-8" standalone="no"?>
<!DOCTYPE svg PUBLIC "-//W3C//DTD SVG 1.1//EN"
 "http://www.w3.org/Graphics/SVG/1.1/DTD/svg11.dtd">
<!-- Generated by graphviz version 2.36.0 (20140111.2315)
 -->
<!-- Title: controller.MasterController.constructMasterController Pages: 1 -->
<svg width="990pt" height="87pt"
 viewBox="0.00 0.00 990.00 87.00" xmlns="http://www.w3.org/2000/svg" xmlns:xlink="http://www.w3.org/1999/xlink">
<g id="graph0" class="graph" transform="scale(1 1) rotate(0) translate(4 83)">
<title>controller.MasterController.constructMasterController</title>
<polygon fill="white" stroke="none" points="-4,4 -4,-83 986,-83 986,4 -4,4"/>
<!-- Node1 -->
<g id="node1" class="node"><title>Node1</title>
<polygon fill="#bfbfbf" stroke="black" points="0.5,-24 0.5,-54 191.5,-54 191.5,-24 0.5,-24"/>
<text text-anchor="start" x="8.5" y="-42" font-family="Helvetica,sans-Serif" font-size="10.00">controller.MasterController.construct</text>
<text text-anchor="middle" x="96" y="-31" font-family="Helvetica,sans-Serif" font-size="10.00">MasterController</text>
</g>
<!-- Node2 -->
<g id="node2" class="node"><title>Node2</title>
<g id="a_node2"><a xlink:href="../../d8/dce/classcontroller_1_1_master_controller.html#a93087b09fa3b41540967abf7efe056a1" target="_top" xlink:title="controller.MasterController.\lMasterController">
<polygon fill="white" stroke="black" points="228,-49 228,-79 374,-79 374,-49 228,-49"/>
<text text-anchor="start" x="236" y="-67" font-family="Helvetica,sans-Serif" font-size="10.00">controller.MasterController.</text>
<text text-anchor="middle" x="301" y="-56" font-family="Helvetica,sans-Serif" font-size="10.00">MasterController</text>
</a>
</g>
</g>
<!-- Node1&#45;&gt;Node2 -->
<g id="edge1" class="edge"><title>Node1&#45;&gt;Node2</title>
<path fill="none" stroke="midnightblue" d="M201.686,-51.8923C210.562,-52.9854 219.405,-54.0745 227.944,-55.1261"/>
<polygon fill="midnightblue" stroke="midnightblue" points="202.018,-48.4069 191.665,-50.6583 201.162,-55.3544 202.018,-48.4069"/>
</g>
<!-- Node3 -->
<g id="node3" class="node"><title>Node3</title>
<g id="a_node3"><a xlink:href="../../df/d94/classview_1_1controllers_1_1_language_controller.html#a28320ec7a669cf479a5a141b76805b1d" target="_top" xlink:title="view.controllers.Language\lController.setLanguage">
<polygon fill="white" stroke="black" points="231,-0 231,-30 371,-30 371,-0 231,-0"/>
<text text-anchor="start" x="239" y="-18" font-family="Helvetica,sans-Serif" font-size="10.00">view.controllers.Language</text>
<text text-anchor="middle" x="301" y="-7" font-family="Helvetica,sans-Serif" font-size="10.00">Controller.setLanguage</text>
</a>
</g>
</g>
<!-- Node1&#45;&gt;Node3 -->
<g id="edge2" class="edge"><title>Node1&#45;&gt;Node3</title>
<path fill="none" stroke="midnightblue" d="M201.603,-26.6331C211.542,-25.4581 221.441,-24.2877 230.919,-23.1672"/>
<polygon fill="midnightblue" stroke="midnightblue" points="201.185,-23.1581 191.665,-27.808 202.007,-30.1097 201.185,-23.1581"/>
</g>
<!-- Node4 -->
<g id="node4" class="node"><title>Node4</title>
<g id="a_node4"><a xlink:href="../../df/d94/classview_1_1controllers_1_1_language_controller.html#a007ceb59189fb624bb31d77fd1b5ed8f" target="_top" xlink:title="view.controllers.Language\lController.makeMenu">
<polygon fill="white" stroke="black" points="410,-0 410,-30 550,-30 550,-0 410,-0"/>
<text text-anchor="start" x="418" y="-18" font-family="Helvetica,sans-Serif" font-size="10.00">view.controllers.Language</text>
<text text-anchor="middle" x="480" y="-7" font-family="Helvetica,sans-Serif" font-size="10.00">Controller.makeMenu</text>
</a>
</g>
</g>
<!-- Node3&#45;&gt;Node4 -->
<g id="edge3" class="edge"><title>Node3&#45;&gt;Node4</title>
<path fill="none" stroke="midnightblue" d="M381.412,-15C390.9,-15 400.528,-15 409.855,-15"/>
<polygon fill="midnightblue" stroke="midnightblue" points="381.193,-11.5001 371.193,-15 381.193,-18.5001 381.193,-11.5001"/>
</g>
<!-- Node5 -->
<g id="node5" class="node"><title>Node5</title>
<g id="a_node5"><a xlink:href="../../d0/d18/classview_1_1panes_1_1_button_pane_module.html#a5d69a336ac95020bfde0507bb018790d" target="_top" xlink:title="view.panes.ButtonPaneModule.create\lPropertiesMenu">
<polygon fill="white" stroke="black" points="586.5,-0 586.5,-30 781.5,-30 781.5,-0 586.5,-0"/>
<text text-anchor="start" x="594.5" y="-18" font-family="Helvetica,sans-Serif" font-size="10.00">view.panes.ButtonPaneModule.create</text>
<text text-anchor="middle" x="684" y="-7" font-family="Helvetica,sans-Serif" font-size="10.00">PropertiesMenu</text>
</a>
</g>
</g>
<!-- Node4&#45;&gt;Node5 -->
<g id="edge4" class="edge"><title>Node4&#45;&gt;Node5</title>
<path fill="none" stroke="midnightblue" d="M560.477,-15C568.974,-15 577.685,-15 586.353,-15"/>
<polygon fill="midnightblue" stroke="midnightblue" points="560.234,-11.5001 550.234,-15 560.234,-18.5001 560.234,-11.5001"/>
</g>
<!-- Node6 -->
<g id="node6" class="node"><title>Node6</title>
<g id="a_node6"><a xlink:href="../../d0/d18/classview_1_1panes_1_1_button_pane_module.html#aa101ed48e3d2a504329a82dc7bea4795" target="_top" xlink:title="view.panes.ButtonPaneModule.\lButtonPaneModule">
<polygon fill="white" stroke="black" points="818,-0 818,-30 982,-30 982,-0 818,-0"/>
<text text-anchor="start" x="826" y="-18" font-family="Helvetica,sans-Serif" font-size="10.00">view.panes.ButtonPaneModule.</text>
<text text-anchor="middle" x="900" y="-7" font-family="Helvetica,sans-Serif" font-size="10.00">ButtonPaneModule</text>
</a>
</g>
</g>
<!-- Node5&#45;&gt;Node6 -->
<g id="edge5" class="edge"><title>Node5&#45;&gt;Node6</title>
<path fill="none" stroke="midnightblue" d="M791.885,-15C800.599,-15 809.314,-15 817.798,-15"/>
<polygon fill="midnightblue" stroke="midnightblue" points="791.67,-11.5001 781.67,-15 791.67,-18.5001 791.67,-11.5001"/>
</g>
</g>
</svg>
