<?xml version="1.0" encoding="UTF-8" standalone="no"?>
<!DOCTYPE svg PUBLIC "-//W3C//DTD SVG 1.1//EN"
 "http://www.w3.org/Graphics/SVG/1.1/DTD/svg11.dtd">
<!-- Generated by graphviz version 2.36.0 (20140111.2315)
 -->
<!-- Title: controller.MasterController.constructMasterController Pages: 1 -->
<svg width="444pt" height="66pt"
 viewBox="0.00 0.00 444.00 66.00" xmlns="http://www.w3.org/2000/svg" xmlns:xlink="http://www.w3.org/1999/xlink">
<g id="graph0" class="graph" transform="scale(1 1) rotate(0) translate(4 62)">
<title>controller.MasterController.constructMasterController</title>
<polygon fill="white" stroke="none" points="-4,4 -4,-62 440,-62 440,4 -4,4"/>
<!-- Node1 -->
<g id="node1" class="node"><title>Node1</title>
<polygon fill="#bfbfbf" stroke="black" points="0.5,-14 0.5,-44 191.5,-44 191.5,-14 0.5,-14"/>
<text text-anchor="start" x="8.5" y="-32" font-family="Helvetica,sans-Serif" font-size="10.00">controller.MasterController.construct</text>
<text text-anchor="middle" x="96" y="-21" font-family="Helvetica,sans-Serif" font-size="10.00">MasterController</text>
</g>
<!-- Node2 -->
<g id="node2" class="node"><title>Node2</title>
<g id="a_node2"><a xlink:href="../../d8/dce/classcontroller_1_1_master_controller.html#a6872efed0600910c8ae37491e0f59a0e" target="_top" xlink:title="controller.MasterController.constructSet">
<polygon fill="white" stroke="black" points="228.5,-38.5 228.5,-57.5 435.5,-57.5 435.5,-38.5 228.5,-38.5"/>
<text text-anchor="middle" x="332" y="-45.5" font-family="Helvetica,sans-Serif" font-size="10.00">controller.MasterController.constructSet</text>
</a>
</g>
</g>
<!-- Node1&#45;&gt;Node2 -->
<g id="edge1" class="edge"><title>Node1&#45;&gt;Node2</title>
<path fill="none" stroke="midnightblue" d="M191.502,-36.6733C200.35,-37.3916 209.375,-38.1245 218.366,-38.8545"/>
<polygon fill="midnightblue" stroke="midnightblue" points="218.241,-42.3558 228.492,-39.6767 218.808,-35.3788 218.241,-42.3558"/>
</g>
<!-- Node3 -->
<g id="node3" class="node"><title>Node3</title>
<g id="a_node3"><a xlink:href="../../d6/d95/classparser_1_1_parser.html#a4f1e7ee432eb4d4377de4ce4202b139d" target="_top" xlink:title="parser.Parser.resetParser">
<polygon fill="white" stroke="black" points="263.5,-0.5 263.5,-19.5 400.5,-19.5 400.5,-0.5 263.5,-0.5"/>
<text text-anchor="middle" x="332" y="-7.5" font-family="Helvetica,sans-Serif" font-size="10.00">parser.Parser.resetParser</text>
</a>
</g>
</g>
<!-- Node1&#45;&gt;Node3 -->
<g id="edge2" class="edge"><title>Node1&#45;&gt;Node3</title>
<path fill="none" stroke="midnightblue" d="M191.502,-21.3267C212.025,-19.6604 233.508,-17.9161 253.294,-16.3095"/>
<polygon fill="midnightblue" stroke="midnightblue" points="253.788,-19.7809 263.472,-15.483 253.222,-12.8039 253.788,-19.7809"/>
</g>
</g>
</svg>
