<?xml version="1.0" encoding="UTF-8" standalone="no"?>
<!DOCTYPE svg PUBLIC "-//W3C//DTD SVG 1.1//EN"
 "http://www.w3.org/Graphics/SVG/1.1/DTD/svg11.dtd">
<!-- Generated by graphviz version 2.36.0 (20140111.2315)
 -->
<!-- Title: view.panes.TurtleControllerPaneModule Pages: 1 -->
<!--zoomable 1324 -->
<svg id="main" version="1.1" xmlns="http://www.w3.org/2000/svg" xmlns:xlink="http://www.w3.org/1999/xlink" xml:space="preserve" onload="init(evt)">
<style type="text/css"><![CDATA[
.edge:hover path { stroke: red; }
.edge:hover polygon { stroke: red; fill: red; }
]]></style>
<script type="text/javascript"><![CDATA[
var edges = document.getElementsByTagName('g');
if (edges && edges.length) {
  for (var i=0;i<edges.length;i++) {
    if (edges[i].id.substr(0,4)=='edge') {
      edges[i].setAttribute('class','edge');
    }
  }
}
]]></script>
        <defs>
                <circle id="rim" cx="0" cy="0" r="7"/>
                <circle id="rim2" cx="0" cy="0" r="3.5"/>
                <g id="zoomPlus">
                        <use xlink:href="#rim" fill="#404040">
                                <set attributeName="fill" to="#808080" begin="zoomplus.mouseover" end="zoomplus.mouseout"/>
                        </use>
                        <path d="M-4,0h8M0,-4v8" fill="none" stroke="white" stroke-width="1.5" pointer-events="none"/>
                </g>
                <g id="zoomMin">
                        <use xlink:href="#rim" fill="#404040">
                                <set attributeName="fill" to="#808080" begin="zoomminus.mouseover" end="zoomminus.mouseout"/>
                        </use>
                        <path d="M-4,0h8" fill="none" stroke="white" stroke-width="1.5" pointer-events="none"/>
                </g>
                <g id="dirArrow">
                        <path fill="none" stroke="white" stroke-width="1.5" d="M0,-3.0v7 M-2.5,-0.5L0,-3.0L2.5,-0.5"/>
                </g>
               <g id="resetDef">
                       <use xlink:href="#rim2" fill="#404040">
                               <set attributeName="fill" to="#808080" begin="reset.mouseover" end="reset.mouseout"/>
                       </use>
               </g>
        </defs>

<script type="text/javascript">
var viewWidth = 1530;
var viewHeight = 1324;
var sectionId = 'dynsection-1';
</script>
<script xlink:href="../../svgpan.js"/>
<svg id="graph" class="graph">
<g id="viewport">
<title>view.panes.TurtleControllerPaneModule</title>
<polygon fill="white" stroke="none" points="-4,4 -4,-1320 1526,-1320 1526,4 -4,4"/>
<!-- Node1 -->
<g id="node1" class="node"><title>Node1</title>
<polygon fill="#bfbfbf" stroke="black" points="1378.5,-426 1378.5,-456 1521.5,-456 1521.5,-426 1378.5,-426"/>
<text text-anchor="start" x="1386.5" y="-444" font-family="Helvetica,sans-Serif" font-size="10.00">view.panes.TurtleController</text>
<text text-anchor="middle" x="1450" y="-433" font-family="Helvetica,sans-Serif" font-size="10.00">PaneModule</text>
</g>
<!-- Node2 -->
<g id="node2" class="node"><title>Node2</title>
<g id="a_node2"><a xlink:href="../../df/dd6/classview_1_1panes_1_1_pane_module.html" target="_top" xlink:title="view.panes.PaneModule">
<polygon fill="white" stroke="black" points="551.5,-1187.5 551.5,-1206.5 680.5,-1206.5 680.5,-1187.5 551.5,-1187.5"/>
<text text-anchor="middle" x="616" y="-1194.5" font-family="Helvetica,sans-Serif" font-size="10.00">view.panes.PaneModule</text>
</a>
</g>
</g>
<!-- Node2&#45;&gt;Node1 -->
<g id="edge1" class="edge"><title>Node2&#45;&gt;Node1</title>
<path fill="none" stroke="midnightblue" d="M690.82,-1198.98C727.125,-1197.74 770.933,-1192.87 808,-1179 1049.77,-1088.53 1116.5,-1037.97 1276,-835 1376.63,-706.949 1431.33,-511.272 1445.35,-456.002"/>
<polygon fill="midnightblue" stroke="midnightblue" points="690.698,-1195.48 680.791,-1199.24 690.877,-1202.48 690.698,-1195.48"/>
</g>
<!-- Node16 -->
<g id="node16" class="node"><title>Node16</title>
<g id="a_node16"><a xlink:href="../../db/db5/classview_1_1panes_1_1_view_pane_module.html" target="_top" xlink:title="view.panes.ViewPaneModule">
<polygon fill="white" stroke="black" points="826.5,-950.5 826.5,-969.5 977.5,-969.5 977.5,-950.5 826.5,-950.5"/>
<text text-anchor="middle" x="902" y="-957.5" font-family="Helvetica,sans-Serif" font-size="10.00">view.panes.ViewPaneModule</text>
</a>
</g>
</g>
<!-- Node2&#45;&gt;Node16 -->
<g id="edge22" class="edge"><title>Node2&#45;&gt;Node16</title>
<path fill="none" stroke="midnightblue" d="M680.604,-1185.53C732.16,-1175.76 797.874,-1162.07 808,-1154 870.521,-1104.2 893.502,-1002.09 899.36,-969.931"/>
<polygon fill="midnightblue" stroke="midnightblue" points="679.684,-1182.14 670.502,-1187.42 680.977,-1189.02 679.684,-1182.14"/>
</g>
<!-- Node3 -->
<g id="node3" class="node"><title>Node3</title>
<polygon fill="white" stroke="#bfbfbf" points="881.5,-413.5 881.5,-432.5 922.5,-432.5 922.5,-413.5 881.5,-413.5"/>
<text text-anchor="middle" x="902" y="-420.5" font-family="Helvetica,sans-Serif" font-size="10.00">VBox</text>
</g>
<!-- Node3&#45;&gt;Node1 -->
<g id="edge2" class="edge"><title>Node3&#45;&gt;Node1</title>
<path fill="none" stroke="#9a32cd" stroke-dasharray="5,2" d="M932.891,-423.439C996.19,-424.43 1148.42,-427.143 1276,-432 1309.66,-433.281 1346.98,-435.164 1378.32,-436.877"/>
<polygon fill="#9a32cd" stroke="#9a32cd" points="932.873,-419.938 922.82,-423.284 932.765,-426.937 932.873,-419.938"/>
<text text-anchor="middle" x="1196" y="-435" font-family="Helvetica,sans-Serif" font-size="10.00"> myVbox</text>
</g>
<!-- Node4 -->
<g id="node4" class="node"><title>Node4</title>
<g id="a_node4"><a xlink:href="../../da/d64/classview_1_1panes_1_1_pen_pane.html" target="_top" xlink:title="view.panes.PenPane">
<polygon fill="white" stroke="black" points="1139.5,-452.5 1139.5,-471.5 1252.5,-471.5 1252.5,-452.5 1139.5,-452.5"/>
<text text-anchor="middle" x="1196" y="-459.5" font-family="Helvetica,sans-Serif" font-size="10.00">view.panes.PenPane</text>
</a>
</g>
</g>
<!-- Node3&#45;&gt;Node4 -->
<g id="edge4" class="edge"><title>Node3&#45;&gt;Node4</title>
<path fill="none" stroke="#9a32cd" stroke-dasharray="5,2" d="M932.737,-426.972C981.168,-433.44 1077.84,-446.352 1139.32,-454.563"/>
<polygon fill="#9a32cd" stroke="#9a32cd" points="932.988,-423.474 922.612,-425.619 932.061,-430.413 932.988,-423.474"/>
<text text-anchor="middle" x="1047" y="-452" font-family="Helvetica,sans-Serif" font-size="10.00"> myVbox</text>
</g>
<!-- Node12 -->
<g id="node12" class="node"><title>Node12</title>
<g id="a_node12"><a xlink:href="../../d8/daa/classview_1_1panes_1_1_turtle_selector_pane.html" target="_top" xlink:title="view.panes.TurtleSelectorPane">
<polygon fill="white" stroke="black" points="1116,-226.5 1116,-245.5 1276,-245.5 1276,-226.5 1116,-226.5"/>
<text text-anchor="middle" x="1196" y="-233.5" font-family="Helvetica,sans-Serif" font-size="10.00">view.panes.TurtleSelectorPane</text>
</a>
</g>
</g>
<!-- Node3&#45;&gt;Node12 -->
<g id="edge14" class="edge"><title>Node3&#45;&gt;Node12</title>
<path fill="none" stroke="#9a32cd" stroke-dasharray="5,2" d="M916.897,-405.541C933.813,-385.21 964.095,-351.656 996,-330 1036.85,-302.273 1054.62,-309.567 1098,-286 1106.45,-281.41 1107.65,-278.762 1116,-274 1134.77,-263.296 1157.03,-252.775 1173.12,-245.527"/>
<polygon fill="#9a32cd" stroke="#9a32cd" points="914.116,-403.413 910.5,-413.372 919.537,-407.842 914.116,-403.413"/>
<text text-anchor="middle" x="1047" y="-333" font-family="Helvetica,sans-Serif" font-size="10.00"> myVBox</text>
</g>
<!-- Node4&#45;&gt;Node1 -->
<g id="edge3" class="edge"><title>Node4&#45;&gt;Node1</title>
<path fill="none" stroke="#9a32cd" stroke-dasharray="5,2" d="M1262.85,-456.513C1298.28,-453.56 1342,-449.916 1378.17,-446.903"/>
<polygon fill="#9a32cd" stroke="#9a32cd" points="1262.29,-453.047 1252.61,-457.365 1262.87,-460.023 1262.29,-453.047"/>
<text text-anchor="middle" x="1327" y="-457" font-family="Helvetica,sans-Serif" font-size="10.00"> myPenPane</text>
</g>
<!-- Node5 -->
<g id="node5" class="node"><title>Node5</title>
<polygon fill="white" stroke="#bfbfbf" points="10,-634.5 10,-653.5 128,-653.5 128,-634.5 10,-634.5"/>
<text text-anchor="middle" x="69" y="-641.5" font-family="Helvetica,sans-Serif" font-size="10.00">ChoiceBox&lt; String &gt;</text>
</g>
<!-- Node5&#45;&gt;Node4 -->
<g id="edge5" class="edge"><title>Node5&#45;&gt;Node4</title>
<path fill="none" stroke="#9a32cd" stroke-dasharray="5,2" d="M88.6919,-627.714C130.259,-593.233 234.777,-516 337,-516 337,-516 337,-516 903,-516 999.664,-516 1111.37,-487.032 1164.23,-471.53"/>
<polygon fill="#9a32cd" stroke="#9a32cd" points="86.1816,-625.252 80.8008,-634.379 90.6987,-630.6 86.1816,-625.252"/>
<text text-anchor="middle" x="616" y="-519" font-family="Helvetica,sans-Serif" font-size="10.00"> myPenStyles</text>
</g>
<!-- Node30 -->
<g id="node30" class="node"><title>Node30</title>
<g id="a_node30"><a xlink:href="../../d3/db7/classview_1_1controllers_1_1_image_palette.html" target="_top" xlink:title="view.controllers.ImagePalette">
<polygon fill="white" stroke="black" points="260.5,-1110.5 260.5,-1129.5 415.5,-1129.5 415.5,-1110.5 260.5,-1110.5"/>
<text text-anchor="middle" x="338" y="-1117.5" font-family="Helvetica,sans-Serif" font-size="10.00">view.controllers.ImagePalette</text>
</a>
</g>
</g>
<!-- Node5&#45;&gt;Node30 -->
<g id="edge40" class="edge"><title>Node5&#45;&gt;Node30</title>
<path fill="none" stroke="#9a32cd" stroke-dasharray="5,2" d="M80.2935,-662.351C124.667,-741.46 298.843,-1051.97 331.654,-1110.47"/>
<polygon fill="#9a32cd" stroke="#9a32cd" points="83.2782,-660.518 75.3334,-653.508 77.1731,-663.942 83.2782,-660.518"/>
<text text-anchor="middle" x="199" y="-941" font-family="Helvetica,sans-Serif" font-size="10.00"> myChoiceImages</text>
</g>
<!-- Node6 -->
<g id="node6" class="node"><title>Node6</title>
<polygon fill="white" stroke="#bfbfbf" points="870,-241.5 870,-260.5 934,-260.5 934,-241.5 870,-241.5"/>
<text text-anchor="middle" x="902" y="-248.5" font-family="Helvetica,sans-Serif" font-size="10.00">CheckBox</text>
</g>
<!-- Node6&#45;&gt;Node4 -->
<g id="edge6" class="edge"><title>Node6&#45;&gt;Node4</title>
<path fill="none" stroke="#9a32cd" stroke-dasharray="5,2" d="M943.842,-257.552C956.252,-261.374 968.977,-267.423 978,-277 998.263,-298.506 974.377,-320.862 996,-341 1029.87,-372.544 1064.79,-329.759 1098,-362 1122.9,-386.18 1092.23,-412.701 1116,-438 1122.38,-444.791 1130.61,-449.68 1139.35,-453.196"/>
<polygon fill="#9a32cd" stroke="#9a32cd" points="944.597,-254.131 934.033,-254.94 942.796,-260.895 944.597,-254.131"/>
<text text-anchor="middle" x="1047" y="-365" font-family="Helvetica,sans-Serif" font-size="10.00"> myPenToggle</text>
</g>
<!-- Node6&#45;&gt;Node12 -->
<g id="edge16" class="edge"><title>Node6&#45;&gt;Node12</title>
<path fill="none" stroke="#9a32cd" stroke-dasharray="5,2" d="M944.436,-243.453C960.483,-240.875 979.04,-238.312 996,-237 1035.44,-233.948 1079.41,-233.426 1115.97,-233.782"/>
<polygon fill="#9a32cd" stroke="#9a32cd" points="943.588,-240.046 934.296,-245.137 944.734,-246.951 943.588,-240.046"/>
<text text-anchor="middle" x="1047" y="-240" font-family="Helvetica,sans-Serif" font-size="10.00"> myToggle</text>
</g>
<!-- Node7 -->
<g id="node7" class="node"><title>Node7</title>
<g id="a_node7"><a xlink:href="../../d8/dd2/classview_1_1_command_string.html" target="_top" xlink:title="view.CommandString">
<polygon fill="white" stroke="black" points="843,-286.5 843,-305.5 961,-305.5 961,-286.5 843,-286.5"/>
<text text-anchor="middle" x="902" y="-293.5" font-family="Helvetica,sans-Serif" font-size="10.00">view.CommandString</text>
</a>
</g>
</g>
<!-- Node7&#45;&gt;Node1 -->
<g id="edge12" class="edge"><title>Node7&#45;&gt;Node1</title>
<path fill="none" stroke="#9a32cd" stroke-dasharray="5,2" d="M971.57,-296.161C1009.26,-297.435 1056.62,-300.988 1098,-310 1220.66,-336.714 1357.87,-397.605 1417.98,-425.957"/>
<polygon fill="#9a32cd" stroke="#9a32cd" points="971.308,-292.652 961.21,-295.859 971.104,-299.649 971.308,-292.652"/>
<text text-anchor="middle" x="1196" y="-367" font-family="Helvetica,sans-Serif" font-size="10.00"> myCommandString</text>
</g>
<!-- Node7&#45;&gt;Node4 -->
<g id="edge7" class="edge"><title>Node7&#45;&gt;Node4</title>
<path fill="none" stroke="#9a32cd" stroke-dasharray="5,2" d="M919.622,-312.66C937.397,-329.839 966.965,-356.637 996,-375 1038.03,-401.581 1056.68,-393.322 1098,-421 1107.14,-427.124 1106.48,-432.476 1116,-438 1126.66,-444.188 1139.08,-448.927 1150.86,-452.492"/>
<polygon fill="#9a32cd" stroke="#9a32cd" points="921.92,-310.011 912.329,-305.509 917.019,-315.009 921.92,-310.011"/>
<text text-anchor="middle" x="1047" y="-424" font-family="Helvetica,sans-Serif" font-size="10.00"> myCommandString</text>
</g>
<!-- Node7&#45;&gt;Node12 -->
<g id="edge19" class="edge"><title>Node7&#45;&gt;Node12</title>
<path fill="none" stroke="#9a32cd" stroke-dasharray="5,2" d="M945.53,-283.718C961.306,-279.387 979.397,-274.684 996,-271 1041.38,-260.931 1093.09,-251.909 1132.43,-245.548"/>
<polygon fill="#9a32cd" stroke="#9a32cd" points="944.233,-280.446 935.536,-286.496 946.108,-287.19 944.233,-280.446"/>
<text text-anchor="middle" x="1047" y="-274" font-family="Helvetica,sans-Serif" font-size="10.00"> myCommandString</text>
</g>
<!-- Node8 -->
<g id="node8" class="node"><title>Node8</title>
<polygon fill="white" stroke="#bfbfbf" points="580.5,-286.5 580.5,-305.5 651.5,-305.5 651.5,-286.5 580.5,-286.5"/>
<text text-anchor="middle" x="616" y="-293.5" font-family="Helvetica,sans-Serif" font-size="10.00">Observable</text>
</g>
<!-- Node8&#45;&gt;Node7 -->
<g id="edge8" class="edge"><title>Node8&#45;&gt;Node7</title>
<path fill="none" stroke="midnightblue" d="M661.807,-296C710.717,-296 789.202,-296 842.833,-296"/>
<polygon fill="midnightblue" stroke="midnightblue" points="661.54,-292.5 651.54,-296 661.54,-299.5 661.54,-292.5"/>
</g>
<!-- Node9 -->
<g id="node9" class="node"><title>Node9</title>
<polygon fill="white" stroke="#bfbfbf" points="874,-553.5 874,-572.5 930,-572.5 930,-553.5 874,-553.5"/>
<text text-anchor="middle" x="902" y="-560.5" font-family="Helvetica,sans-Serif" font-size="10.00">TextField</text>
</g>
<!-- Node9&#45;&gt;Node1 -->
<g id="edge50" class="edge"><title>Node9&#45;&gt;Node1</title>
<path fill="none" stroke="#9a32cd" stroke-dasharray="5,2" d="M940.156,-570.248C979.731,-576.688 1043.98,-583.463 1098,-572 1106.56,-570.183 1107.89,-567.296 1116,-564 1218.77,-522.232 1341.65,-478.391 1405.55,-456.042"/>
<polygon fill="#9a32cd" stroke="#9a32cd" points="940.609,-566.774 930.163,-568.542 939.431,-573.675 940.609,-566.774"/>
<text text-anchor="middle" x="1196" y="-589" font-family="Helvetica,sans-Serif" font-size="10.00"> myMoveTextField</text>
<text text-anchor="middle" x="1196" y="-578" font-family="Helvetica,sans-Serif" font-size="10.00">myAngleTextField</text>
<text text-anchor="middle" x="1196" y="-567" font-family="Helvetica,sans-Serif" font-size="10.00">myIDTextField</text>
</g>
<!-- Node9&#45;&gt;Node4 -->
<g id="edge9" class="edge"><title>Node9&#45;&gt;Node4</title>
<path fill="none" stroke="#9a32cd" stroke-dasharray="5,2" d="M940.324,-557.951C988.652,-551.097 1070,-538.394 1098,-527 1132.17,-513.094 1166.78,-486.107 1183.94,-471.668"/>
<polygon fill="#9a32cd" stroke="#9a32cd" points="939.671,-554.508 930.253,-559.362 940.642,-561.44 939.671,-554.508"/>
<text text-anchor="middle" x="1047" y="-563" font-family="Helvetica,sans-Serif" font-size="10.00"> myPenDashTextField</text>
<text text-anchor="middle" x="1047" y="-552" font-family="Helvetica,sans-Serif" font-size="10.00">myPenWidthTextField</text>
</g>
<!-- Node10 -->
<g id="node10" class="node"><title>Node10</title>
<polygon fill="white" stroke="#bfbfbf" points="867,-468.5 867,-487.5 937,-487.5 937,-468.5 867,-468.5"/>
<text text-anchor="middle" x="902" y="-475.5" font-family="Helvetica,sans-Serif" font-size="10.00">ColorPicker</text>
</g>
<!-- Node10&#45;&gt;Node4 -->
<g id="edge10" class="edge"><title>Node10&#45;&gt;Node4</title>
<path fill="none" stroke="#9a32cd" stroke-dasharray="5,2" d="M947.274,-475.863C986.802,-473.923 1046.27,-470.926 1098,-468 1111.39,-467.242 1125.82,-466.377 1139.35,-465.543"/>
<polygon fill="#9a32cd" stroke="#9a32cd" points="946.992,-472.372 937.174,-476.357 947.334,-479.364 946.992,-472.372"/>
<text text-anchor="middle" x="1047" y="-477" font-family="Helvetica,sans-Serif" font-size="10.00"> myColorPicker</text>
</g>
<!-- Node11 -->
<g id="node11" class="node"><title>Node11</title>
<polygon fill="white" stroke="#bfbfbf" points="857.5,-63.5 857.5,-82.5 946.5,-82.5 946.5,-63.5 857.5,-63.5"/>
<text text-anchor="middle" x="902" y="-70.5" font-family="Helvetica,sans-Serif" font-size="10.00">Set&lt; Integer &gt;</text>
</g>
<!-- Node11&#45;&gt;Node1 -->
<g id="edge11" class="edge"><title>Node11&#45;&gt;Node1</title>
<path fill="none" stroke="#9a32cd" stroke-dasharray="5,2" d="M956.617,-65.4626C996.442,-61.7229 1051.66,-60.4938 1098,-74 1230.12,-112.502 1270.1,-134.81 1360,-239 1410.7,-297.755 1436.88,-389.951 1445.61,-425.919"/>
<polygon fill="#9a32cd" stroke="#9a32cd" points="956.175,-61.9894 946.583,-66.4882 956.887,-68.9532 956.175,-61.9894"/>
<text text-anchor="middle" x="1196" y="-156" font-family="Helvetica,sans-Serif" font-size="10.00"> myActiveTurtles</text>
</g>
<!-- Node11&#45;&gt;Node12 -->
<g id="edge17" class="edge"><title>Node11&#45;&gt;Node12</title>
<path fill="none" stroke="#9a32cd" stroke-dasharray="5,2" d="M957.001,-73.443C998.352,-76.0554 1055.35,-84.7533 1098,-111 1145.72,-140.369 1178.98,-202.307 1190.53,-226.258"/>
<polygon fill="#9a32cd" stroke="#9a32cd" points="957.015,-69.9389 946.843,-72.903 956.643,-76.9291 957.015,-69.9389"/>
<text text-anchor="middle" x="1047" y="-125" font-family="Helvetica,sans-Serif" font-size="10.00"> myTurtles</text>
<text text-anchor="middle" x="1047" y="-114" font-family="Helvetica,sans-Serif" font-size="10.00">myActiveTurtles</text>
</g>
<!-- Node12&#45;&gt;Node1 -->
<g id="edge13" class="edge"><title>Node12&#45;&gt;Node1</title>
<path fill="none" stroke="#9a32cd" stroke-dasharray="5,2" d="M1286.41,-240.95C1312.16,-245.956 1338.95,-254.995 1360,-271 1413.04,-311.323 1437.53,-392.401 1445.7,-425.943"/>
<polygon fill="#9a32cd" stroke="#9a32cd" points="1286.68,-237.444 1276.23,-239.163 1285.47,-244.339 1286.68,-237.444"/>
<text text-anchor="middle" x="1327" y="-274" font-family="Helvetica,sans-Serif" font-size="10.00"> myTurtles</text>
</g>
<!-- Node13 -->
<g id="node13" class="node"><title>Node13</title>
<polygon fill="white" stroke="#bfbfbf" points="829,-120.5 829,-139.5 975,-139.5 975,-120.5 829,-120.5"/>
<text text-anchor="middle" x="902" y="-127.5" font-family="Helvetica,sans-Serif" font-size="10.00">Map&lt; CheckBox, Integer &gt;</text>
</g>
<!-- Node13&#45;&gt;Node12 -->
<g id="edge15" class="edge"><title>Node13&#45;&gt;Node12</title>
<path fill="none" stroke="#9a32cd" stroke-dasharray="5,2" d="M985.681,-134.598C1021.36,-138.829 1062.88,-146.852 1098,-162 1134.57,-177.77 1169.74,-210.286 1185.84,-226.448"/>
<polygon fill="#9a32cd" stroke="#9a32cd" points="985.621,-131.07 975.297,-133.453 984.853,-138.028 985.621,-131.07"/>
<text text-anchor="middle" x="1047" y="-165" font-family="Helvetica,sans-Serif" font-size="10.00"> myIDs</text>
</g>
<!-- Node14 -->
<g id="node14" class="node"><title>Node14</title>
<polygon fill="white" stroke="#bfbfbf" points="869,-196.5 869,-215.5 935,-215.5 935,-196.5 869,-196.5"/>
<text text-anchor="middle" x="902" y="-203.5" font-family="Helvetica,sans-Serif" font-size="10.00">ScrollPane</text>
</g>
<!-- Node14&#45;&gt;Node12 -->
<g id="edge18" class="edge"><title>Node14&#45;&gt;Node12</title>
<path fill="none" stroke="#9a32cd" stroke-dasharray="5,2" d="M945.271,-207.513C984.851,-209.239 1045.59,-212.678 1098,-219 1113.79,-220.904 1130.9,-223.668 1146.3,-226.416"/>
<polygon fill="#9a32cd" stroke="#9a32cd" points="945.326,-204.013 935.188,-207.091 945.033,-211.007 945.326,-204.013"/>
<text text-anchor="middle" x="1047" y="-222" font-family="Helvetica,sans-Serif" font-size="10.00"> myTurtleScroll</text>
</g>
<!-- Node15 -->
<g id="node15" class="node"><title>Node15</title>
<polygon fill="white" stroke="#bfbfbf" points="850.5,-158.5 850.5,-177.5 953.5,-177.5 953.5,-158.5 850.5,-158.5"/>
<text text-anchor="middle" x="902" y="-165.5" font-family="Helvetica,sans-Serif" font-size="10.00">Set&lt; CheckBox &gt;</text>
</g>
<!-- Node15&#45;&gt;Node12 -->
<g id="edge20" class="edge"><title>Node15&#45;&gt;Node12</title>
<path fill="none" stroke="#9a32cd" stroke-dasharray="5,2" d="M963.909,-172.821C1002.77,-176.855 1053.94,-183.953 1098,-196 1125.94,-203.638 1156.59,-217.218 1175.81,-226.413"/>
<polygon fill="#9a32cd" stroke="#9a32cd" points="964.098,-169.323 953.799,-171.812 963.402,-176.288 964.098,-169.323"/>
<text text-anchor="middle" x="1047" y="-199" font-family="Helvetica,sans-Serif" font-size="10.00"> myBoxes</text>
</g>
<!-- Node16&#45;&gt;Node12 -->
<g id="edge21" class="edge"><title>Node16&#45;&gt;Node12</title>
<path fill="none" stroke="#9a32cd" stroke-dasharray="5,2" d="M915.395,-941.78C931.779,-918.699 962.51,-878.718 996,-852 1036.1,-820.011 1070.79,-841.483 1098,-798 1128.9,-748.615 1084.15,-322.781 1116,-274 1124.99,-260.237 1140.45,-251.323 1155.33,-245.617"/>
<polygon fill="#9a32cd" stroke="#9a32cd" points="912.318,-940.074 909.471,-950.279 918.061,-944.077 912.318,-940.074"/>
<text text-anchor="middle" x="1047" y="-855" font-family="Helvetica,sans-Serif" font-size="10.00"> myViewPane</text>
</g>
<!-- Node17 -->
<g id="node17" class="node"><title>Node17</title>
<g id="a_node17"><a xlink:href="../../d3/d42/classmodel_1_1_model.html" target="_top" xlink:title="model.Model">
<polygon fill="white" stroke="black" points="1157,-806.5 1157,-825.5 1235,-825.5 1235,-806.5 1157,-806.5"/>
<text text-anchor="middle" x="1196" y="-813.5" font-family="Helvetica,sans-Serif" font-size="10.00">model.Model</text>
</a>
</g>
</g>
<!-- Node16&#45;&gt;Node17 -->
<g id="edge28" class="edge"><title>Node16&#45;&gt;Node17</title>
<path fill="none" stroke="#9a32cd" stroke-dasharray="5,2" d="M987.719,-957.574C1023.59,-953.51 1064.7,-944.644 1098,-926 1142.66,-900.999 1176.99,-847.446 1189.68,-825.588"/>
<polygon fill="#9a32cd" stroke="#9a32cd" points="987.341,-954.094 977.75,-958.597 988.056,-961.058 987.341,-954.094"/>
<text text-anchor="middle" x="1047" y="-959" font-family="Helvetica,sans-Serif" font-size="10.00"> myView</text>
</g>
<!-- Node17&#45;&gt;Node16 -->
<g id="edge23" class="edge"><title>Node17&#45;&gt;Node16</title>
<path fill="none" stroke="#9a32cd" stroke-dasharray="5,2" d="M1166.32,-830.143C1107.18,-859.309 973.002,-925.479 922.612,-950.328"/>
<polygon fill="#9a32cd" stroke="#9a32cd" points="1168.05,-833.192 1175.47,-825.63 1164.96,-826.914 1168.05,-833.192"/>
<text text-anchor="middle" x="1047" y="-916" font-family="Helvetica,sans-Serif" font-size="10.00"> myModel</text>
</g>
<!-- Node18 -->
<g id="node18" class="node"><title>Node18</title>
<polygon fill="white" stroke="#bfbfbf" points="559,-689.5 559,-708.5 673,-708.5 673,-689.5 559,-689.5"/>
<text text-anchor="middle" x="616" y="-696.5" font-family="Helvetica,sans-Serif" font-size="10.00">Set&lt; model.Turtle &gt;</text>
</g>
<!-- Node18&#45;&gt;Node16 -->
<g id="edge33" class="edge"><title>Node18&#45;&gt;Node16</title>
<path fill="none" stroke="#9a32cd" stroke-dasharray="5,2" d="M683.059,-709.932C688.339,-712.149 693.401,-714.809 698,-718 709.849,-726.222 704.042,-736.937 716,-745 750.618,-768.341 775.545,-737.734 808,-764 823.47,-776.52 817.665,-786.929 826,-805 851.543,-860.377 884.003,-925.924 896.135,-950.267"/>
<polygon fill="#9a32cd" stroke="#9a32cd" points="683.966,-706.537 673.372,-706.401 681.569,-713.114 683.966,-706.537"/>
<text text-anchor="middle" x="762" y="-778" font-family="Helvetica,sans-Serif" font-size="10.00"> myTurtles</text>
<text text-anchor="middle" x="762" y="-767" font-family="Helvetica,sans-Serif" font-size="10.00">myActiveTurtles</text>
</g>
<!-- Node18&#45;&gt;Node17 -->
<g id="edge24" class="edge"><title>Node18&#45;&gt;Node17</title>
<path fill="none" stroke="#9a32cd" stroke-dasharray="5,2" d="M678.53,-686.759C685.198,-684.787 691.805,-682.543 698,-680 706.673,-676.44 706.975,-671.539 716,-669 828.092,-637.461 864.406,-643.392 978,-669 1035.6,-681.985 1049.13,-692.87 1098,-726 1134.32,-750.62 1170.44,-788.601 1186.44,-806.302"/>
<polygon fill="#9a32cd" stroke="#9a32cd" points="677.469,-683.421 668.76,-689.455 679.33,-690.169 677.469,-683.421"/>
<text text-anchor="middle" x="902" y="-672" font-family="Helvetica,sans-Serif" font-size="10.00"> myFullSet</text>
</g>
<!-- Node22 -->
<g id="node22" class="node"><title>Node22</title>
<g id="a_node22"><a xlink:href="../../df/d50/classmodel_1_1_turtle_set_manager.html" target="_top" xlink:title="model.TurtleSetManager">
<polygon fill="white" stroke="black" points="835,-689.5 835,-708.5 969,-708.5 969,-689.5 835,-689.5"/>
<text text-anchor="middle" x="902" y="-696.5" font-family="Helvetica,sans-Serif" font-size="10.00">model.TurtleSetManager</text>
</a>
</g>
</g>
<!-- Node18&#45;&gt;Node22 -->
<g id="edge30" class="edge"><title>Node18&#45;&gt;Node22</title>
<path fill="none" stroke="#9a32cd" stroke-dasharray="5,2" d="M683.191,-699C728.801,-699 789.172,-699 834.786,-699"/>
<polygon fill="#9a32cd" stroke="#9a32cd" points="683.109,-695.5 673.109,-699 683.109,-702.5 683.109,-695.5"/>
<text text-anchor="middle" x="762" y="-702" font-family="Helvetica,sans-Serif" font-size="10.00"> mySet</text>
</g>
<!-- Node19 -->
<g id="node19" class="node"><title>Node19</title>
<g id="a_node19"><a xlink:href="../../d3/d62/classmodel_1_1_variable_manager.html" target="_top" xlink:title="model.VariableManager">
<polygon fill="white" stroke="black" points="837,-776.5 837,-795.5 967,-795.5 967,-776.5 837,-776.5"/>
<text text-anchor="middle" x="902" y="-783.5" font-family="Helvetica,sans-Serif" font-size="10.00">model.VariableManager</text>
</a>
</g>
</g>
<!-- Node19&#45;&gt;Node17 -->
<g id="edge25" class="edge"><title>Node19&#45;&gt;Node17</title>
<path fill="none" stroke="#9a32cd" stroke-dasharray="5,2" d="M977.112,-781.439C1013.69,-780.44 1058.36,-781.098 1098,-787 1123.21,-790.754 1150.98,-799.559 1170.32,-806.489"/>
<polygon fill="#9a32cd" stroke="#9a32cd" points="976.904,-777.943 967.021,-781.761 977.128,-784.94 976.904,-777.943"/>
<text text-anchor="middle" x="1047" y="-790" font-family="Helvetica,sans-Serif" font-size="10.00"> myVariableManager</text>
</g>
<!-- Node20 -->
<g id="node20" class="node"><title>Node20</title>
<polygon fill="white" stroke="#bfbfbf" points="557,-728 557,-758 675,-758 675,-728 557,-728"/>
<text text-anchor="start" x="565" y="-746" font-family="Helvetica,sans-Serif" font-size="10.00">Stack&lt; Map&lt; String,</text>
<text text-anchor="middle" x="616" y="-735" font-family="Helvetica,sans-Serif" font-size="10.00"> Double &gt; &gt;</text>
</g>
<!-- Node20&#45;&gt;Node19 -->
<g id="edge26" class="edge"><title>Node20&#45;&gt;Node19</title>
<path fill="none" stroke="#9a32cd" stroke-dasharray="5,2" d="M685.333,-729.994C722.217,-725.403 768.213,-723.632 808,-734 839.505,-742.21 871.648,-763.709 888.66,-776.345"/>
<polygon fill="#9a32cd" stroke="#9a32cd" points="684.63,-726.557 675.184,-731.356 685.561,-733.495 684.63,-726.557"/>
<text text-anchor="middle" x="762" y="-737" font-family="Helvetica,sans-Serif" font-size="10.00"> myLocalVariables</text>
</g>
<!-- Node21 -->
<g id="node21" class="node"><title>Node21</title>
<polygon fill="white" stroke="#bfbfbf" points="552,-778.5 552,-797.5 680,-797.5 680,-778.5 552,-778.5"/>
<text text-anchor="middle" x="616" y="-785.5" font-family="Helvetica,sans-Serif" font-size="10.00">Map&lt; String, Double &gt;</text>
</g>
<!-- Node21&#45;&gt;Node19 -->
<g id="edge27" class="edge"><title>Node21&#45;&gt;Node19</title>
<path fill="none" stroke="#9a32cd" stroke-dasharray="5,2" d="M690.513,-789.867C726.014,-790.488 769.225,-790.833 808,-790 817.371,-789.799 827.27,-789.483 836.976,-789.116"/>
<polygon fill="#9a32cd" stroke="#9a32cd" points="690.301,-786.362 680.238,-789.676 690.171,-793.361 690.301,-786.362"/>
<text text-anchor="middle" x="762" y="-794" font-family="Helvetica,sans-Serif" font-size="10.00"> myGlobalVariables</text>
</g>
<!-- Node22&#45;&gt;Node17 -->
<g id="edge29" class="edge"><title>Node22&#45;&gt;Node17</title>
<path fill="none" stroke="#9a32cd" stroke-dasharray="5,2" d="M944.2,-711.616C984.083,-724.236 1045.98,-744.904 1098,-767 1126.65,-779.17 1158.67,-796.008 1177.81,-806.441"/>
<polygon fill="#9a32cd" stroke="#9a32cd" points="945.143,-708.244 934.554,-708.585 943.045,-714.922 945.143,-708.244"/>
<text text-anchor="middle" x="1047" y="-770" font-family="Helvetica,sans-Serif" font-size="10.00"> myTurtleManager</text>
</g>
<!-- Node23 -->
<g id="node23" class="node"><title>Node23</title>
<polygon fill="white" stroke="#bfbfbf" points="534,-651.5 534,-670.5 698,-670.5 698,-651.5 534,-651.5"/>
<text text-anchor="middle" x="616" y="-658.5" font-family="Helvetica,sans-Serif" font-size="10.00">Stack&lt; Set&lt; model.Turtle &gt; &gt;</text>
</g>
<!-- Node23&#45;&gt;Node22 -->
<g id="edge31" class="edge"><title>Node23&#45;&gt;Node22</title>
<path fill="none" stroke="#9a32cd" stroke-dasharray="5,2" d="M708.513,-671.265C740.071,-675.005 775.62,-679.441 808,-684 819.66,-685.642 832.118,-687.547 844.002,-689.437"/>
<polygon fill="#9a32cd" stroke="#9a32cd" points="708.757,-667.77 698.416,-670.076 707.938,-674.722 708.757,-667.77"/>
<text text-anchor="middle" x="762" y="-687" font-family="Helvetica,sans-Serif" font-size="10.00"> myStack</text>
</g>
<!-- Node24 -->
<g id="node24" class="node"><title>Node24</title>
<polygon fill="white" stroke="#bfbfbf" points="317.5,-862.5 317.5,-881.5 358.5,-881.5 358.5,-862.5 317.5,-862.5"/>
<text text-anchor="middle" x="338" y="-869.5" font-family="Helvetica,sans-Serif" font-size="10.00">Color</text>
</g>
<!-- Node24&#45;&gt;Node16 -->
<g id="edge49" class="edge"><title>Node24&#45;&gt;Node16</title>
<path fill="none" stroke="#9a32cd" stroke-dasharray="5,2" d="M368.966,-869.304C431.073,-864.468 578.058,-856.924 698,-881 769.375,-895.327 848.192,-932.777 882.901,-950.474"/>
<polygon fill="#9a32cd" stroke="#9a32cd" points="368.404,-865.839 358.721,-870.139 368.972,-872.815 368.404,-865.839"/>
<text text-anchor="middle" x="616" y="-895" font-family="Helvetica,sans-Serif" font-size="10.00"> defColor</text>
<text text-anchor="middle" x="616" y="-884" font-family="Helvetica,sans-Serif" font-size="10.00">myBackColor</text>
</g>
<!-- Node24&#45;&gt;Node17 -->
<g id="edge32" class="edge"><title>Node24&#45;&gt;Node17</title>
<path fill="none" stroke="#9a32cd" stroke-dasharray="5,2" d="M368.602,-868.02C387.319,-865.64 412.038,-862.749 434,-861 728.46,-837.552 804.19,-862.537 1098,-832 1117.52,-829.971 1139.08,-826.536 1156.9,-823.368"/>
<polygon fill="#9a32cd" stroke="#9a32cd" points="368.078,-864.558 358.61,-869.314 368.977,-871.5 368.078,-864.558"/>
<text text-anchor="middle" x="762" y="-853" font-family="Helvetica,sans-Serif" font-size="10.00"> myBackground</text>
</g>
<!-- Node34 -->
<g id="node34" class="node"><title>Node34</title>
<g id="a_node34"><a xlink:href="../../d7/da6/classview_1_1_turtle_draw.html" target="_top" xlink:title="view.TurtleDraw">
<polygon fill="white" stroke="black" points="571.5,-1149.5 571.5,-1168.5 660.5,-1168.5 660.5,-1149.5 571.5,-1149.5"/>
<text text-anchor="middle" x="616" y="-1156.5" font-family="Helvetica,sans-Serif" font-size="10.00">view.TurtleDraw</text>
</a>
</g>
</g>
<!-- Node24&#45;&gt;Node34 -->
<g id="edge48" class="edge"><title>Node24&#45;&gt;Node34</title>
<path fill="none" stroke="#9a32cd" stroke-dasharray="5,2" d="M347.622,-890.9C370.632,-939.203 438.321,-1068.07 534,-1135 545.057,-1142.73 558.627,-1148.01 571.477,-1151.59"/>
<polygon fill="#9a32cd" stroke="#9a32cd" points="350.691,-889.201 343.285,-881.625 344.35,-892.166 350.691,-889.201"/>
<text text-anchor="middle" x="475" y="-1122" font-family="Helvetica,sans-Serif" font-size="10.00"> myLineColor</text>
</g>
<!-- Node25 -->
<g id="node25" class="node"><title>Node25</title>
<polygon fill="white" stroke="#bfbfbf" points="596,-988.5 596,-1007.5 636,-1007.5 636,-988.5 596,-988.5"/>
<text text-anchor="middle" x="616" y="-995.5" font-family="Helvetica,sans-Serif" font-size="10.00">Pane</text>
</g>
<!-- Node25&#45;&gt;Node16 -->
<g id="edge34" class="edge"><title>Node25&#45;&gt;Node16</title>
<path fill="none" stroke="#9a32cd" stroke-dasharray="5,2" d="M646.216,-994.85C683.727,-990.721 750.807,-983.053 808,-975 819.66,-973.358 832.118,-971.453 844.002,-969.563"/>
<polygon fill="#9a32cd" stroke="#9a32cd" points="645.57,-991.4 636.01,-995.966 646.331,-998.358 645.57,-991.4"/>
<text text-anchor="middle" x="762" y="-989" font-family="Helvetica,sans-Serif" font-size="10.00"> myPane</text>
</g>
<!-- Node26 -->
<g id="node26" class="node"><title>Node26</title>
<polygon fill="white" stroke="#bfbfbf" points="562.5,-950.5 562.5,-969.5 669.5,-969.5 669.5,-950.5 562.5,-950.5"/>
<text text-anchor="middle" x="616" y="-957.5" font-family="Helvetica,sans-Serif" font-size="10.00">List&lt; ImageView &gt;</text>
</g>
<!-- Node26&#45;&gt;Node16 -->
<g id="edge35" class="edge"><title>Node26&#45;&gt;Node16</title>
<path fill="none" stroke="#9a32cd" stroke-dasharray="5,2" d="M679.861,-960C723.102,-960 780.727,-960 826.312,-960"/>
<polygon fill="#9a32cd" stroke="#9a32cd" points="679.753,-956.5 669.753,-960 679.753,-963.5 679.753,-956.5"/>
<text text-anchor="middle" x="762" y="-963" font-family="Helvetica,sans-Serif" font-size="10.00"> myStamps</text>
</g>
<!-- Node27 -->
<g id="node27" class="node"><title>Node27</title>
<polygon fill="white" stroke="#bfbfbf" points="578.5,-912.5 578.5,-931.5 653.5,-931.5 653.5,-912.5 578.5,-912.5"/>
<text text-anchor="middle" x="616" y="-919.5" font-family="Helvetica,sans-Serif" font-size="10.00">List&lt; Line &gt;</text>
</g>
<!-- Node27&#45;&gt;Node16 -->
<g id="edge36" class="edge"><title>Node27&#45;&gt;Node16</title>
<path fill="none" stroke="#9a32cd" stroke-dasharray="5,2" d="M664.103,-927.14C702.803,-931.491 759.026,-938.105 808,-945 819.66,-946.642 832.118,-948.547 844.002,-950.437"/>
<polygon fill="#9a32cd" stroke="#9a32cd" points="664,-923.607 653.673,-925.974 663.222,-930.563 664,-923.607"/>
<text text-anchor="middle" x="762" y="-948" font-family="Helvetica,sans-Serif" font-size="10.00"> myGrid</text>
</g>
<!-- Node28 -->
<g id="node28" class="node"><title>Node28</title>
<polygon fill="white" stroke="#bfbfbf" points="589,-1064.5 589,-1083.5 643,-1083.5 643,-1064.5 589,-1064.5"/>
<text text-anchor="middle" x="616" y="-1071.5" font-family="Helvetica,sans-Serif" font-size="10.00">Point2D</text>
</g>
<!-- Node28&#45;&gt;Node16 -->
<g id="edge37" class="edge"><title>Node28&#45;&gt;Node16</title>
<path fill="none" stroke="#9a32cd" stroke-dasharray="5,2" d="M653.281,-1072.02C692.961,-1068.68 757.615,-1059.77 808,-1036 843.454,-1019.28 876.99,-986.128 892.305,-969.698"/>
<polygon fill="#9a32cd" stroke="#9a32cd" points="652.973,-1068.53 643.27,-1072.78 653.508,-1075.51 652.973,-1068.53"/>
<text text-anchor="middle" x="762" y="-1066" font-family="Helvetica,sans-Serif" font-size="10.00"> myCurrentPoint</text>
</g>
<!-- Node29 -->
<g id="node29" class="node"><title>Node29</title>
<polygon fill="white" stroke="#bfbfbf" points="540.5,-1026.5 540.5,-1045.5 691.5,-1045.5 691.5,-1026.5 540.5,-1026.5"/>
<text text-anchor="middle" x="616" y="-1033.5" font-family="Helvetica,sans-Serif" font-size="10.00">Map&lt; Integer, ImageView &gt;</text>
</g>
<!-- Node29&#45;&gt;Node16 -->
<g id="edge38" class="edge"><title>Node29&#45;&gt;Node16</title>
<path fill="none" stroke="#9a32cd" stroke-dasharray="5,2" d="M701.668,-1024.85C735.203,-1019.31 773.833,-1011.5 808,-1001 834.817,-992.756 864.198,-978.937 882.613,-969.648"/>
<polygon fill="#9a32cd" stroke="#9a32cd" points="700.751,-1021.45 691.435,-1026.5 701.864,-1028.37 700.751,-1021.45"/>
<text text-anchor="middle" x="762" y="-1024" font-family="Helvetica,sans-Serif" font-size="10.00"> myIcons</text>
</g>
<!-- Node30&#45;&gt;Node1 -->
<g id="edge52" class="edge"><title>Node30&#45;&gt;Node1</title>
<path fill="none" stroke="#9a32cd" stroke-dasharray="5,2" d="M358.155,-1136.04C376.582,-1150.79 405.735,-1172.37 434,-1186 509.068,-1222.2 531.66,-1235 615,-1235 615,-1235 615,-1235 1197,-1235 1366.93,-1235 1437.23,-565.923 1447.62,-456.152"/>
<polygon fill="#9a32cd" stroke="#9a32cd" points="360.218,-1133.21 350.253,-1129.61 355.798,-1138.64 360.218,-1133.21"/>
<text text-anchor="middle" x="902" y="-1238" font-family="Helvetica,sans-Serif" font-size="10.00"> myImagePalette</text>
</g>
<!-- Node30&#45;&gt;Node16 -->
<g id="edge39" class="edge"><title>Node30&#45;&gt;Node16</title>
<path fill="none" stroke="#9a32cd" stroke-dasharray="5,2" d="M425.857,-1120.74C543.184,-1120.3 744.904,-1114.08 808,-1078 853.966,-1051.72 885.511,-992.919 896.603,-969.699"/>
<polygon fill="#9a32cd" stroke="#9a32cd" points="425.811,-1117.24 415.819,-1120.76 425.827,-1124.24 425.811,-1117.24"/>
<text text-anchor="middle" x="616" y="-1121" font-family="Helvetica,sans-Serif" font-size="10.00"> myImagePalette</text>
</g>
<!-- Node30&#45;&gt;Node34 -->
<g id="edge46" class="edge"><title>Node30&#45;&gt;Node34</title>
<path fill="none" stroke="#9a32cd" stroke-dasharray="5,2" d="M362.366,-1134.67C380.973,-1145.45 408.106,-1159.18 434,-1165 480.012,-1175.35 534.245,-1171.51 571.268,-1166.56"/>
<polygon fill="#9a32cd" stroke="#9a32cd" points="364.095,-1131.63 353.712,-1129.52 360.512,-1137.64 364.095,-1131.63"/>
<text text-anchor="middle" x="475" y="-1174" font-family="Helvetica,sans-Serif" font-size="10.00"> myImagePalette</text>
</g>
<!-- Node31 -->
<g id="node31" class="node"><title>Node31</title>
<polygon fill="white" stroke="#bfbfbf" points="27,-1091.5 27,-1110.5 111,-1110.5 111,-1091.5 27,-1091.5"/>
<text text-anchor="middle" x="69" y="-1098.5" font-family="Helvetica,sans-Serif" font-size="10.00">List&lt; String &gt;</text>
</g>
<!-- Node31&#45;&gt;Node30 -->
<g id="edge41" class="edge"><title>Node31&#45;&gt;Node30</title>
<path fill="none" stroke="#9a32cd" stroke-dasharray="5,2" d="M121.317,-1100.92C155.557,-1101.25 201.546,-1102.44 242,-1106 254.289,-1107.08 267.412,-1108.71 279.859,-1110.47"/>
<polygon fill="#9a32cd" stroke="#9a32cd" points="121.113,-1097.42 111.087,-1100.84 121.06,-1104.42 121.113,-1097.42"/>
<text text-anchor="middle" x="199" y="-1109" font-family="Helvetica,sans-Serif" font-size="10.00"> myChoices</text>
</g>
<!-- Node32 -->
<g id="node32" class="node"><title>Node32</title>
<polygon fill="white" stroke="#bfbfbf" points="5,-926.5 5,-945.5 133,-945.5 133,-926.5 5,-926.5"/>
<text text-anchor="middle" x="69" y="-933.5" font-family="Helvetica,sans-Serif" font-size="10.00">Map&lt; Integer, String &gt;</text>
</g>
<!-- Node32&#45;&gt;Node1 -->
<g id="edge51" class="edge"><title>Node32&#45;&gt;Node1</title>
<path fill="none" stroke="#9a32cd" stroke-dasharray="5,2" d="M75.1934,-916.657C95.4509,-846.006 176.108,-606 337,-606 337,-606 337,-606 763,-606 991.035,-606 1063.87,-680.662 1276,-597 1351.06,-567.399 1414.19,-489.194 1438.41,-456.116"/>
<polygon fill="#9a32cd" stroke="#9a32cd" points="71.7691,-915.907 72.4577,-926.48 78.5125,-917.785 71.7691,-915.907"/>
<text text-anchor="middle" x="762" y="-609" font-family="Helvetica,sans-Serif" font-size="10.00"> myImages</text>
</g>
<!-- Node32&#45;&gt;Node30 -->
<g id="edge42" class="edge"><title>Node32&#45;&gt;Node30</title>
<path fill="none" stroke="#9a32cd" stroke-dasharray="5,2" d="M80.9144,-954.34C95.4844,-977.479 123.287,-1017.23 156,-1042 181.575,-1061.36 266.783,-1094.2 310.551,-1110.39"/>
<polygon fill="#9a32cd" stroke="#9a32cd" points="83.8862,-952.491 75.6674,-945.805 77.9229,-956.157 83.8862,-952.491"/>
<text text-anchor="middle" x="199" y="-1085" font-family="Helvetica,sans-Serif" font-size="10.00"> myImages</text>
</g>
<!-- Node33 -->
<g id="node33" class="node"><title>Node33</title>
<polygon fill="white" stroke="#bfbfbf" points="0,-1129.5 0,-1148.5 138,-1148.5 138,-1129.5 0,-1129.5"/>
<text text-anchor="middle" x="69" y="-1136.5" font-family="Helvetica,sans-Serif" font-size="10.00">ObservableList&lt; String &gt;</text>
</g>
<!-- Node33&#45;&gt;Node30 -->
<g id="edge43" class="edge"><title>Node33&#45;&gt;Node30</title>
<path fill="none" stroke="#9a32cd" stroke-dasharray="5,2" d="M148.309,-1133.43C183.551,-1130.92 225.021,-1127.97 260.096,-1125.47"/>
<polygon fill="#9a32cd" stroke="#9a32cd" points="147.793,-1129.96 138.066,-1134.16 148.289,-1136.94 147.793,-1129.96"/>
<text text-anchor="middle" x="199" y="-1135" font-family="Helvetica,sans-Serif" font-size="10.00"> myObservable</text>
</g>
<!-- Node34&#45;&gt;Node16 -->
<g id="edge44" class="edge"><title>Node34&#45;&gt;Node16</title>
<path fill="none" stroke="#9a32cd" stroke-dasharray="5,2" d="M670.787,-1150.33C723.287,-1141.5 796.863,-1128 808,-1120 862.802,-1080.64 890.275,-998.189 898.379,-969.829"/>
<polygon fill="#9a32cd" stroke="#9a32cd" points="670.209,-1146.88 660.921,-1151.98 671.361,-1153.78 670.209,-1146.88"/>
<text text-anchor="middle" x="762" y="-1145" font-family="Helvetica,sans-Serif" font-size="10.00"> myDraw</text>
</g>
<!-- Node35 -->
<g id="node35" class="node"><title>Node35</title>
<polygon fill="white" stroke="#bfbfbf" points="320,-1296.5 320,-1315.5 356,-1315.5 356,-1296.5 320,-1296.5"/>
<text text-anchor="middle" x="338" y="-1303.5" font-family="Helvetica,sans-Serif" font-size="10.00">Line</text>
</g>
<!-- Node35&#45;&gt;Node34 -->
<g id="edge45" class="edge"><title>Node35&#45;&gt;Node34</title>
<path fill="none" stroke="#9a32cd" stroke-dasharray="5,2" d="M366.358,-1303.53C405.684,-1298.46 477.662,-1283.21 516,-1238 534.006,-1216.77 513.722,-1197.08 534,-1178 544.1,-1168.5 558.015,-1163.45 571.465,-1160.85"/>
<polygon fill="#9a32cd" stroke="#9a32cd" points="365.719,-1300.08 356.188,-1304.71 366.524,-1307.04 365.719,-1300.08"/>
<text text-anchor="middle" x="475" y="-1291" font-family="Helvetica,sans-Serif" font-size="10.00"> myPath</text>
</g>
<!-- Node36 -->
<g id="node36" class="node"><title>Node36</title>
<polygon fill="white" stroke="#bfbfbf" points="322,-1258.5 322,-1277.5 354,-1277.5 354,-1258.5 322,-1258.5"/>
<text text-anchor="middle" x="338" y="-1265.5" font-family="Helvetica,sans-Serif" font-size="10.00">File</text>
</g>
<!-- Node36&#45;&gt;Node34 -->
<g id="edge47" class="edge"><title>Node36&#45;&gt;Node34</title>
<path fill="none" stroke="#9a32cd" stroke-dasharray="5,2" d="M363.281,-1256.72C414.57,-1232.89 529.622,-1179.51 534,-1178 545.883,-1173.91 559.044,-1170.41 571.242,-1167.56"/>
<polygon fill="#9a32cd" stroke="#9a32cd" points="361.8,-1253.54 354.206,-1260.93 364.749,-1259.89 361.8,-1253.54"/>
<text text-anchor="middle" x="475" y="-1226" font-family="Helvetica,sans-Serif" font-size="10.00"> myImage</text>
</g>
<!-- Node37 -->
<g id="node37" class="node"><title>Node37</title>
<polygon fill="white" stroke="#bfbfbf" points="1175,-0.5 1175,-19.5 1217,-19.5 1217,-0.5 1175,-0.5"/>
<text text-anchor="middle" x="1196" y="-7.5" font-family="Helvetica,sans-Serif" font-size="10.00">HBox</text>
</g>
<!-- Node37&#45;&gt;Node1 -->
<g id="edge53" class="edge"><title>Node37&#45;&gt;Node1</title>
<path fill="none" stroke="#9a32cd" stroke-dasharray="5,2" d="M1227.02,-4.50564C1263.32,0.276296 1324.03,2.01299 1360,-31 1420.1,-86.1631 1443.17,-358.697 1447.99,-425.969"/>
<polygon fill="#9a32cd" stroke="#9a32cd" points="1226.41,-1.05757 1217.03,-5.98028 1227.43,-7.98255 1226.41,-1.05757"/>
<text text-anchor="middle" x="1327" y="-34" font-family="Helvetica,sans-Serif" font-size="10.00"> myImageBar</text>
</g>
</g>
</svg>
        <g id="navigator" transform="translate(0 0)" fill="#404254">
                <rect fill="#f2f5e9" fill-opacity="0.5" stroke="#606060" stroke-width=".5" x="0" y="0" width="60" height="60"/>
                <use id="zoomplus" xlink:href="#zoomPlus" x="17" y="9" onmousedown="handleZoom(evt,'in')"/>
                <use id="zoomminus" xlink:href="#zoomMin" x="42" y="9" onmousedown="handleZoom(evt,'out')"/>
                <use id="reset" xlink:href="#resetDef" x="30" y="36" onmousedown="handleReset()"/>
                <g id="arrowUp" xlink:href="#dirArrow" transform="translate(30 24)" onmousedown="handlePan(0,-1)">
                  <use xlink:href="#rim" fill="#404040">
                        <set attributeName="fill" to="#808080" begin="arrowUp.mouseover" end="arrowUp.mouseout"/>
                  </use>
                  <path fill="none" stroke="white" stroke-width="1.5" d="M0,-3.0v7 M-2.5,-0.5L0,-3.0L2.5,-0.5"/>
                </g>
                <g id="arrowRight" xlink:href="#dirArrow" transform="rotate(90) translate(36 -43)" onmousedown="handlePan(1,0)">
                  <use xlink:href="#rim" fill="#404040">
                        <set attributeName="fill" to="#808080" begin="arrowRight.mouseover" end="arrowRight.mouseout"/>
                  </use>
                  <path fill="none" stroke="white" stroke-width="1.5" d="M0,-3.0v7 M-2.5,-0.5L0,-3.0L2.5,-0.5"/>
                </g>
                <g id="arrowDown" xlink:href="#dirArrow" transform="rotate(180) translate(-30 -48)" onmousedown="handlePan(0,1)">
                  <use xlink:href="#rim" fill="#404040">
                        <set attributeName="fill" to="#808080" begin="arrowDown.mouseover" end="arrowDown.mouseout"/>
                  </use>
                  <path fill="none" stroke="white" stroke-width="1.5" d="M0,-3.0v7 M-2.5,-0.5L0,-3.0L2.5,-0.5"/>
                </g>
                <g id="arrowLeft" xlink:href="#dirArrow" transform="rotate(270) translate(-36 17)" onmousedown="handlePan(-1,0)">
                  <use xlink:href="#rim" fill="#404040">
                        <set attributeName="fill" to="#808080" begin="arrowLeft.mouseover" end="arrowLeft.mouseout"/>
                  </use>
                  <path fill="none" stroke="white" stroke-width="1.5" d="M0,-3.0v7 M-2.5,-0.5L0,-3.0L2.5,-0.5"/>
                </g>
        </g>
        <svg viewBox="0 0 15 15" width="100%" height="30px" preserveAspectRatio="xMaxYMin meet">
         <g id="arrow_out" transform="scale(0.3 0.3)">
          <a xlink:href="classview_1_1panes_1_1_turtle_controller_pane_module__coll__graph_org.svg" target="_base">
           <rect id="button" ry="5" rx="5" y="6" x="6" height="38" width="38"
                fill="#f2f5e9" fill-opacity="0.5" stroke="#606060" stroke-width="1.0"/>
           <path id="arrow"
             d="M 11.500037,31.436501 C 11.940474,20.09759 22.043105,11.32322 32.158766,21.979434 L 37.068811,17.246167 C 37.068811,17.246167 37.088388,32 37.088388,32 L 22.160133,31.978069 C 22.160133,31.978069 26.997745,27.140456 26.997745,27.140456 C 18.528582,18.264221 13.291696,25.230495 11.500037,31.436501 z"
             style="fill:#404040;"/>
          </a>
         </g>
        </svg>
</svg>
