<?xml version="1.0" encoding="UTF-8" standalone="no"?>
<!DOCTYPE svg PUBLIC "-//W3C//DTD SVG 1.1//EN"
 "http://www.w3.org/Graphics/SVG/1.1/DTD/svg11.dtd">
<!-- Generated by graphviz version 2.36.0 (20140111.2315)
 -->
<!-- Title: view.TurtleDraw Pages: 1 -->
<svg width="530pt" height="164pt"
 viewBox="0.00 0.00 530.00 164.00" xmlns="http://www.w3.org/2000/svg" xmlns:xlink="http://www.w3.org/1999/xlink">
<g id="graph0" class="graph" transform="scale(1 1) rotate(0) translate(4 160)">
<title>view.TurtleDraw</title>
<polygon fill="white" stroke="none" points="-4,4 -4,-160 526,-160 526,4 -4,4"/>
<!-- Node1 -->
<g id="node1" class="node"><title>Node1</title>
<polygon fill="#bfbfbf" stroke="black" points="251.5,-0.5 251.5,-19.5 340.5,-19.5 340.5,-0.5 251.5,-0.5"/>
<text text-anchor="middle" x="296" y="-7.5" font-family="Helvetica,sans-Serif" font-size="10.00">view.TurtleDraw</text>
</g>
<!-- Node2 -->
<g id="node2" class="node"><title>Node2</title>
<polygon fill="white" stroke="#bfbfbf" points="108,-68.5 108,-87.5 144,-87.5 144,-68.5 108,-68.5"/>
<text text-anchor="middle" x="126" y="-75.5" font-family="Helvetica,sans-Serif" font-size="10.00">Line</text>
</g>
<!-- Node2&#45;&gt;Node1 -->
<g id="edge1" class="edge"><title>Node2&#45;&gt;Node1</title>
<path fill="none" stroke="#9a32cd" stroke-dasharray="5,2" d="M148.095,-63.0904C161.781,-54.9284 179.945,-44.8968 197,-38 215.993,-30.3194 237.9,-24.0909 256.27,-19.5597"/>
<polygon fill="#9a32cd" stroke="#9a32cd" points="146.126,-60.1915 139.404,-68.3808 149.765,-66.1708 146.126,-60.1915"/>
<text text-anchor="middle" x="217" y="-41.5" font-family="Helvetica,sans-Serif" font-size="10.00"> myPath</text>
</g>
<!-- Node3 -->
<g id="node3" class="node"><title>Node3</title>
<g id="a_node3"><a xlink:href="../../d3/db7/classview_1_1controllers_1_1_image_palette.html" target="_top" xlink:title="view.controllers.ImagePalette">
<polygon fill="white" stroke="black" points="162.5,-68.5 162.5,-87.5 317.5,-87.5 317.5,-68.5 162.5,-68.5"/>
<text text-anchor="middle" x="240" y="-75.5" font-family="Helvetica,sans-Serif" font-size="10.00">view.controllers.ImagePalette</text>
</a>
</g>
</g>
<!-- Node3&#45;&gt;Node1 -->
<g id="edge2" class="edge"><title>Node3&#45;&gt;Node1</title>
<path fill="none" stroke="#9a32cd" stroke-dasharray="5,2" d="M239.473,-58.4364C240.101,-51.4958 241.855,-43.8786 246,-38 251.856,-29.6956 261.093,-23.7029 270.044,-19.506"/>
<polygon fill="#9a32cd" stroke="#9a32cd" points="235.974,-58.3582 239.234,-68.4392 242.972,-58.526 235.974,-58.3582"/>
<text text-anchor="middle" x="287" y="-41.5" font-family="Helvetica,sans-Serif" font-size="10.00"> myImagePalette</text>
</g>
<!-- Node4 -->
<g id="node4" class="node"><title>Node4</title>
<polygon fill="white" stroke="#bfbfbf" points="0,-136.5 0,-155.5 118,-155.5 118,-136.5 0,-136.5"/>
<text text-anchor="middle" x="59" y="-143.5" font-family="Helvetica,sans-Serif" font-size="10.00">ChoiceBox&lt; String &gt;</text>
</g>
<!-- Node4&#45;&gt;Node3 -->
<g id="edge3" class="edge"><title>Node4&#45;&gt;Node3</title>
<path fill="none" stroke="#9a32cd" stroke-dasharray="5,2" d="M76.5608,-129.742C86.8412,-121.558 100.436,-111.959 114,-106 133.356,-97.4965 155.591,-91.5918 175.942,-87.526"/>
<polygon fill="#9a32cd" stroke="#9a32cd" points="74.258,-127.104 68.7783,-136.172 78.7167,-132.5 74.258,-127.104"/>
<text text-anchor="middle" x="157" y="-109.5" font-family="Helvetica,sans-Serif" font-size="10.00"> myChoiceImages</text>
</g>
<!-- Node5 -->
<g id="node5" class="node"><title>Node5</title>
<polygon fill="white" stroke="#bfbfbf" points="136,-136.5 136,-155.5 220,-155.5 220,-136.5 136,-136.5"/>
<text text-anchor="middle" x="178" y="-143.5" font-family="Helvetica,sans-Serif" font-size="10.00">List&lt; String &gt;</text>
</g>
<!-- Node5&#45;&gt;Node3 -->
<g id="edge4" class="edge"><title>Node5&#45;&gt;Node3</title>
<path fill="none" stroke="#9a32cd" stroke-dasharray="5,2" d="M192.986,-129.047C205.138,-116.111 221.816,-98.3567 231.695,-87.8411"/>
<polygon fill="#9a32cd" stroke="#9a32cd" points="190.401,-126.687 186.105,-136.372 195.503,-131.48 190.401,-126.687"/>
<text text-anchor="middle" x="243" y="-109.5" font-family="Helvetica,sans-Serif" font-size="10.00"> myChoices</text>
</g>
<!-- Node6 -->
<g id="node6" class="node"><title>Node6</title>
<polygon fill="white" stroke="#bfbfbf" points="238,-136.5 238,-155.5 366,-155.5 366,-136.5 238,-136.5"/>
<text text-anchor="middle" x="302" y="-143.5" font-family="Helvetica,sans-Serif" font-size="10.00">Map&lt; Integer, String &gt;</text>
</g>
<!-- Node6&#45;&gt;Node3 -->
<g id="edge5" class="edge"><title>Node6&#45;&gt;Node3</title>
<path fill="none" stroke="#9a32cd" stroke-dasharray="5,2" d="M291.583,-127.555C286.954,-120.49 281.16,-112.486 275,-106 268.447,-99.0999 260.03,-92.5496 253.093,-87.6291"/>
<polygon fill="#9a32cd" stroke="#9a32cd" points="288.83,-129.754 297.099,-136.378 294.765,-126.043 288.83,-129.754"/>
<text text-anchor="middle" x="312" y="-109.5" font-family="Helvetica,sans-Serif" font-size="10.00"> myImages</text>
</g>
<!-- Node7 -->
<g id="node7" class="node"><title>Node7</title>
<polygon fill="white" stroke="#bfbfbf" points="384,-136.5 384,-155.5 522,-155.5 522,-136.5 384,-136.5"/>
<text text-anchor="middle" x="453" y="-143.5" font-family="Helvetica,sans-Serif" font-size="10.00">ObservableList&lt; String &gt;</text>
</g>
<!-- Node7&#45;&gt;Node3 -->
<g id="edge6" class="edge"><title>Node7&#45;&gt;Node3</title>
<path fill="none" stroke="#9a32cd" stroke-dasharray="5,2" d="M420.997,-132.849C399.175,-124.762 369.534,-114.166 343,-106 320.738,-99.149 295.438,-92.5013 275.484,-87.5163"/>
<polygon fill="#9a32cd" stroke="#9a32cd" points="419.841,-136.153 430.434,-136.37 422.288,-129.595 419.841,-136.153"/>
<text text-anchor="middle" x="413.5" y="-109.5" font-family="Helvetica,sans-Serif" font-size="10.00"> myObservable</text>
</g>
<!-- Node8 -->
<g id="node8" class="node"><title>Node8</title>
<polygon fill="white" stroke="#bfbfbf" points="336,-68.5 336,-87.5 368,-87.5 368,-68.5 336,-68.5"/>
<text text-anchor="middle" x="352" y="-75.5" font-family="Helvetica,sans-Serif" font-size="10.00">File</text>
</g>
<!-- Node8&#45;&gt;Node1 -->
<g id="edge7" class="edge"><title>Node8&#45;&gt;Node1</title>
<path fill="none" stroke="#9a32cd" stroke-dasharray="5,2" d="M342.898,-59.6132C338.808,-52.557 333.634,-44.5446 328,-38 322.119,-31.1693 314.428,-24.6211 308.059,-19.6844"/>
<polygon fill="#9a32cd" stroke="#9a32cd" points="339.855,-61.3433 347.745,-68.415 345.987,-57.967 339.855,-61.3433"/>
<text text-anchor="middle" x="361.5" y="-41.5" font-family="Helvetica,sans-Serif" font-size="10.00"> myImage</text>
</g>
<!-- Node9 -->
<g id="node9" class="node"><title>Node9</title>
<polygon fill="white" stroke="#bfbfbf" points="401.5,-68.5 401.5,-87.5 442.5,-87.5 442.5,-68.5 401.5,-68.5"/>
<text text-anchor="middle" x="422" y="-75.5" font-family="Helvetica,sans-Serif" font-size="10.00">Color</text>
</g>
<!-- Node9&#45;&gt;Node1 -->
<g id="edge8" class="edge"><title>Node9&#45;&gt;Node1</title>
<path fill="none" stroke="#9a32cd" stroke-dasharray="5,2" d="M411.435,-59.8608C405.91,-52.1774 398.521,-43.6031 390,-38 375.388,-28.3911 357.317,-22.1436 340.936,-18.1081"/>
<polygon fill="#9a32cd" stroke="#9a32cd" points="408.562,-61.8601 417.02,-68.24 414.386,-57.9778 408.562,-61.8601"/>
<text text-anchor="middle" x="435.5" y="-41.5" font-family="Helvetica,sans-Serif" font-size="10.00"> myLineColor</text>
</g>
</g>
</svg>
