<?xml version="1.0" encoding="UTF-8" standalone="no"?>
<!DOCTYPE svg PUBLIC "-//W3C//DTD SVG 1.1//EN"
 "http://www.w3.org/Graphics/SVG/1.1/DTD/svg11.dtd">
<!-- Generated by graphviz version 2.36.0 (20140111.2315)
 -->
<!-- Title: view.CommandString.setCommand Pages: 1 -->
<svg width="1312pt" height="643pt"
 viewBox="0.00 0.00 1312.00 643.00" xmlns="http://www.w3.org/2000/svg" xmlns:xlink="http://www.w3.org/1999/xlink">
<g id="graph0" class="graph" transform="scale(1 1) rotate(0) translate(4 639)">
<title>view.CommandString.setCommand</title>
<polygon fill="white" stroke="none" points="-4,4 -4,-639 1308,-639 1308,4 -4,4"/>
<!-- Node1 -->
<g id="node1" class="node"><title>Node1</title>
<polygon fill="#bfbfbf" stroke="black" points="0,-289.5 0,-308.5 186,-308.5 186,-289.5 0,-289.5"/>
<text text-anchor="middle" x="93" y="-296.5" font-family="Helvetica,sans-Serif" font-size="10.00">view.CommandString.setCommand</text>
</g>
<!-- Node2 -->
<g id="node2" class="node"><title>Node2</title>
<g id="a_node2"><a xlink:href="../../d0/d5e/classview_1_1panes_1_1_history_pane_module.html#a09382cefa07872cdea931ba8897757e4" target="_top" xlink:title="view.panes.HistoryPaneModule.addItem">
<polygon fill="white" stroke="black" points="230,-615.5 230,-634.5 436,-634.5 436,-615.5 230,-615.5"/>
<text text-anchor="middle" x="333" y="-622.5" font-family="Helvetica,sans-Serif" font-size="10.00">view.panes.HistoryPaneModule.addItem</text>
</a>
</g>
</g>
<!-- Node1&#45;&gt;Node2 -->
<g id="edge1" class="edge"><title>Node1&#45;&gt;Node2</title>
<path fill="none" stroke="midnightblue" d="M96.177,-318.746C103.259,-372.999 130.743,-525.319 222,-601 229.448,-607.176 238.128,-611.862 247.285,-615.401"/>
<polygon fill="midnightblue" stroke="midnightblue" points="99.6396,-318.225 94.9597,-308.72 92.6906,-319.069 99.6396,-318.225"/>
</g>
<!-- Node4 -->
<g id="node4" class="node"><title>Node4</title>
<g id="a_node4"><a xlink:href="../../d0/d06/classview_1_1panes_1_1_turtle_controller_pane_module.html#a17968045f35b256d20da119dff9825db" target="_top" xlink:title="view.panes.TurtleController\lPaneModule.angle">
<polygon fill="white" stroke="black" points="950.5,-550 950.5,-580 1093.5,-580 1093.5,-550 950.5,-550"/>
<text text-anchor="start" x="958.5" y="-568" font-family="Helvetica,sans-Serif" font-size="10.00">view.panes.TurtleController</text>
<text text-anchor="middle" x="1022" y="-557" font-family="Helvetica,sans-Serif" font-size="10.00">PaneModule.angle</text>
</a>
</g>
</g>
<!-- Node1&#45;&gt;Node4 -->
<g id="edge3" class="edge"><title>Node1&#45;&gt;Node4</title>
<path fill="none" stroke="midnightblue" d="M97.3446,-318.564C106.82,-367.279 138.763,-494.034 222,-549 340.165,-627.032 777.884,-590.797 950.428,-572.908"/>
<polygon fill="midnightblue" stroke="midnightblue" points="100.776,-317.873 95.5257,-308.671 93.8918,-319.139 100.776,-317.873"/>
</g>
<!-- Node6 -->
<g id="node6" class="node"><title>Node6</title>
<g id="a_node6"><a xlink:href="../../d0/d18/classview_1_1panes_1_1_button_pane_module.html#a9383ad9a84c4c7db217f61cb1f64203a" target="_top" xlink:title="view.panes.ButtonPaneModule.background\lColor">
<polygon fill="white" stroke="black" points="222.5,-510 222.5,-540 443.5,-540 443.5,-510 222.5,-510"/>
<text text-anchor="start" x="230.5" y="-528" font-family="Helvetica,sans-Serif" font-size="10.00">view.panes.ButtonPaneModule.background</text>
<text text-anchor="middle" x="333" y="-517" font-family="Helvetica,sans-Serif" font-size="10.00">Color</text>
</a>
</g>
</g>
<!-- Node1&#45;&gt;Node6 -->
<g id="edge5" class="edge"><title>Node1&#45;&gt;Node6</title>
<path fill="none" stroke="midnightblue" d="M102.543,-317.943C119.954,-354.564 162.949,-435.548 222,-482 237.552,-494.234 257.009,-503.354 275.218,-509.971"/>
<polygon fill="midnightblue" stroke="midnightblue" points="105.708,-316.449 98.3187,-308.856 99.3605,-319.399 105.708,-316.449"/>
</g>
<!-- Node9 -->
<g id="node9" class="node"><title>Node9</title>
<g id="a_node9"><a xlink:href="../../da/d64/classview_1_1panes_1_1_pen_pane.html#afa93d4769bd752fe33df3be53f584bf8" target="_top" xlink:title="view.panes.PenPane.change\lPenColor">
<polygon fill="white" stroke="black" points="504.5,-235 504.5,-265 655.5,-265 655.5,-235 504.5,-235"/>
<text text-anchor="start" x="512.5" y="-253" font-family="Helvetica,sans-Serif" font-size="10.00">view.panes.PenPane.change</text>
<text text-anchor="middle" x="580" y="-242" font-family="Helvetica,sans-Serif" font-size="10.00">PenColor</text>
</a>
</g>
</g>
<!-- Node1&#45;&gt;Node9 -->
<g id="edge8" class="edge"><title>Node1&#45;&gt;Node9</title>
<path fill="none" stroke="midnightblue" d="M196.27,-288.668C288.463,-279.353 421.853,-265.877 504.356,-257.541"/>
<polygon fill="midnightblue" stroke="midnightblue" points="195.678,-285.209 186.081,-289.697 196.382,-292.174 195.678,-285.209"/>
</g>
<!-- Node10 -->
<g id="node10" class="node"><title>Node10</title>
<g id="a_node10"><a xlink:href="../../da/d64/classview_1_1panes_1_1_pen_pane.html#a093392cc7e9e908e5bd2b6f91a6a2d0f" target="_top" xlink:title="view.panes.PenPane.PenPane">
<polygon fill="white" stroke="black" points="736.5,-284.5 736.5,-303.5 893.5,-303.5 893.5,-284.5 736.5,-284.5"/>
<text text-anchor="middle" x="815" y="-291.5" font-family="Helvetica,sans-Serif" font-size="10.00">view.panes.PenPane.PenPane</text>
</a>
</g>
</g>
<!-- Node1&#45;&gt;Node10 -->
<g id="edge15" class="edge"><title>Node1&#45;&gt;Node10</title>
<path fill="none" stroke="midnightblue" d="M103.03,-280.089C120.521,-245.87 162.598,-174.411 222,-144 312.658,-97.5881 588.172,-82.9476 680,-127 751.388,-161.247 796.747,-254.115 809.971,-284.347"/>
<polygon fill="midnightblue" stroke="midnightblue" points="99.7065,-278.912 98.3987,-289.426 105.978,-282.023 99.7065,-278.912"/>
</g>
<!-- Node11 -->
<g id="node11" class="node"><title>Node11</title>
<g id="a_node11"><a xlink:href="../../d0/d06/classview_1_1panes_1_1_turtle_controller_pane_module.html#a96e94da05841aa7343ac097728f14b06" target="_top" xlink:title="view.panes.TurtleController\lPaneModule.makeTurtle">
<polygon fill="white" stroke="black" points="950.5,-396 950.5,-426 1093.5,-426 1093.5,-396 950.5,-396"/>
<text text-anchor="start" x="958.5" y="-414" font-family="Helvetica,sans-Serif" font-size="10.00">view.panes.TurtleController</text>
<text text-anchor="middle" x="1022" y="-403" font-family="Helvetica,sans-Serif" font-size="10.00">PaneModule.makeTurtle</text>
</a>
</g>
</g>
<!-- Node1&#45;&gt;Node11 -->
<g id="edge10" class="edge"><title>Node1&#45;&gt;Node11</title>
<path fill="none" stroke="midnightblue" d="M109.761,-315.979C132.151,-338.741 175.627,-378.123 222,-394 355.399,-439.674 780.624,-423.539 950.199,-414.95"/>
<polygon fill="midnightblue" stroke="midnightblue" points="112.204,-313.47 102.751,-308.686 107.158,-318.321 112.204,-313.47"/>
</g>
<!-- Node12 -->
<g id="node12" class="node"><title>Node12</title>
<g id="a_node12"><a xlink:href="../../d0/d06/classview_1_1panes_1_1_turtle_controller_pane_module.html#a7bcb51ee51afaa6fd0bac492d024b4ce" target="_top" xlink:title="view.panes.TurtleController\lPaneModule.move">
<polygon fill="white" stroke="black" points="261.5,-443 261.5,-473 404.5,-473 404.5,-443 261.5,-443"/>
<text text-anchor="start" x="269.5" y="-461" font-family="Helvetica,sans-Serif" font-size="10.00">view.panes.TurtleController</text>
<text text-anchor="middle" x="333" y="-450" font-family="Helvetica,sans-Serif" font-size="10.00">PaneModule.move</text>
</a>
</g>
</g>
<!-- Node1&#45;&gt;Node12 -->
<g id="edge12" class="edge"><title>Node1&#45;&gt;Node12</title>
<path fill="none" stroke="midnightblue" d="M106.752,-316.899C127.626,-344.868 171.826,-398.752 222,-428 234.056,-435.028 247.815,-440.46 261.423,-444.643"/>
<polygon fill="midnightblue" stroke="midnightblue" points="109.548,-314.793 100.816,-308.793 103.9,-318.929 109.548,-314.793"/>
</g>
<!-- Node14 -->
<g id="node14" class="node"><title>Node14</title>
<g id="a_node14"><a xlink:href="../../d3/d9f/classview_1_1panes_1_1_input_pane_module.html#a1ab2a8da0203b89619af648aec997423" target="_top" xlink:title="view.panes.InputPaneModule.save">
<polygon fill="white" stroke="black" points="243.5,-191.5 243.5,-210.5 422.5,-210.5 422.5,-191.5 243.5,-191.5"/>
<text text-anchor="middle" x="333" y="-198.5" font-family="Helvetica,sans-Serif" font-size="10.00">view.panes.InputPaneModule.save</text>
</a>
</g>
</g>
<!-- Node1&#45;&gt;Node14 -->
<g id="edge16" class="edge"><title>Node1&#45;&gt;Node14</title>
<path fill="none" stroke="midnightblue" d="M115.758,-283.594C140.416,-266.825 182.348,-240.357 222,-225 237.858,-218.859 255.641,-214.12 272.211,-210.539"/>
<polygon fill="midnightblue" stroke="midnightblue" points="113.736,-280.736 107.491,-289.295 117.71,-286.499 113.736,-280.736"/>
</g>
<!-- Node16 -->
<g id="node16" class="node"><title>Node16</title>
<g id="a_node16"><a xlink:href="../../da/d64/classview_1_1panes_1_1_pen_pane.html#aa1e66639fe9d5a43850c7a076129e0a4" target="_top" xlink:title="view.panes.PenPane.setPenDash">
<polygon fill="white" stroke="black" points="493.5,-284.5 493.5,-303.5 666.5,-303.5 666.5,-284.5 493.5,-284.5"/>
<text text-anchor="middle" x="580" y="-291.5" font-family="Helvetica,sans-Serif" font-size="10.00">view.panes.PenPane.setPenDash</text>
</a>
</g>
</g>
<!-- Node1&#45;&gt;Node16 -->
<g id="edge18" class="edge"><title>Node1&#45;&gt;Node16</title>
<path fill="none" stroke="midnightblue" d="M196.436,-296.437C205.083,-296.27 213.693,-296.121 222,-296 314.651,-294.655 420.839,-294.199 493.155,-294.052"/>
<polygon fill="midnightblue" stroke="midnightblue" points="196.212,-292.941 186.284,-296.641 196.353,-299.939 196.212,-292.941"/>
</g>
<!-- Node17 -->
<g id="node17" class="node"><title>Node17</title>
<g id="a_node17"><a xlink:href="../../da/d64/classview_1_1panes_1_1_pen_pane.html#ab5735f00ef7a3f0569fb667d0fbb385d" target="_top" xlink:title="view.panes.PenPane.setPen\lStyle">
<polygon fill="white" stroke="black" points="258.5,-355 258.5,-385 407.5,-385 407.5,-355 258.5,-355"/>
<text text-anchor="start" x="266.5" y="-373" font-family="Helvetica,sans-Serif" font-size="10.00">view.panes.PenPane.setPen</text>
<text text-anchor="middle" x="333" y="-362" font-family="Helvetica,sans-Serif" font-size="10.00">Style</text>
</a>
</g>
</g>
<!-- Node1&#45;&gt;Node17 -->
<g id="edge20" class="edge"><title>Node1&#45;&gt;Node17</title>
<path fill="none" stroke="midnightblue" d="M127.375,-312.255C152.992,-322.121 189.384,-335.471 222,-345 234.219,-348.57 247.325,-351.938 260.079,-354.978"/>
<polygon fill="midnightblue" stroke="midnightblue" points="128.365,-308.886 117.777,-308.528 125.831,-315.411 128.365,-308.886"/>
</g>
<!-- Node19 -->
<g id="node19" class="node"><title>Node19</title>
<g id="a_node19"><a xlink:href="../../da/d64/classview_1_1panes_1_1_pen_pane.html#ae74fd1dadc881ce65eefcb7bdc0095a9" target="_top" xlink:title="view.panes.PenPane.setPen\lWidth">
<polygon fill="white" stroke="black" points="258.5,-306 258.5,-336 407.5,-336 407.5,-306 258.5,-306"/>
<text text-anchor="start" x="266.5" y="-324" font-family="Helvetica,sans-Serif" font-size="10.00">view.panes.PenPane.setPen</text>
<text text-anchor="middle" x="333" y="-313" font-family="Helvetica,sans-Serif" font-size="10.00">Width</text>
</a>
</g>
</g>
<!-- Node1&#45;&gt;Node19 -->
<g id="edge23" class="edge"><title>Node1&#45;&gt;Node19</title>
<path fill="none" stroke="midnightblue" d="M196.195,-308.447C217.068,-310.376 238.644,-312.37 258.286,-314.186"/>
<polygon fill="midnightblue" stroke="midnightblue" points="196.297,-304.941 186.017,-307.506 195.652,-311.911 196.297,-304.941"/>
</g>
<!-- Node20 -->
<g id="node20" class="node"><title>Node20</title>
<g id="a_node20"><a xlink:href="../../d3/dc7/classview_1_1controllers_1_1_pane_controller.html#a5d1d9a5c7a1635c2c6c26e21862f6d59" target="_top" xlink:title="view.controllers.PaneController.show\lError">
<polygon fill="white" stroke="black" points="239,-49 239,-79 427,-79 427,-49 239,-49"/>
<text text-anchor="start" x="247" y="-67" font-family="Helvetica,sans-Serif" font-size="10.00">view.controllers.PaneController.show</text>
<text text-anchor="middle" x="333" y="-56" font-family="Helvetica,sans-Serif" font-size="10.00">Error</text>
</a>
</g>
</g>
<!-- Node1&#45;&gt;Node20 -->
<g id="edge25" class="edge"><title>Node1&#45;&gt;Node20</title>
<path fill="none" stroke="midnightblue" d="M100.611,-279.439C115.481,-238.483 155.551,-143.417 222,-94 230.26,-87.8575 239.702,-82.9726 249.507,-79.0879"/>
<polygon fill="midnightblue" stroke="midnightblue" points="97.2466,-278.457 97.2278,-289.052 103.849,-280.781 97.2466,-278.457"/>
</g>
<!-- Node23 -->
<g id="node23" class="node"><title>Node23</title>
<g id="a_node23"><a xlink:href="../../d3/d9f/classview_1_1panes_1_1_input_pane_module.html#af466f43b6cde72051115970753703086" target="_top" xlink:title="view.panes.InputPaneModule.submit">
<polygon fill="white" stroke="black" points="238.5,-153.5 238.5,-172.5 427.5,-172.5 427.5,-153.5 238.5,-153.5"/>
<text text-anchor="middle" x="333" y="-160.5" font-family="Helvetica,sans-Serif" font-size="10.00">view.panes.InputPaneModule.submit</text>
</a>
</g>
</g>
<!-- Node1&#45;&gt;Node23 -->
<g id="edge28" class="edge"><title>Node1&#45;&gt;Node23</title>
<path fill="none" stroke="midnightblue" d="M107.435,-281.535C128.676,-255.285 172.696,-206.169 222,-182 229.918,-178.119 238.496,-175.017 247.249,-172.54"/>
<polygon fill="midnightblue" stroke="midnightblue" points="104.598,-279.48 101.131,-289.491 110.085,-283.827 104.598,-279.48"/>
</g>
<!-- Node25 -->
<g id="node25" class="node"><title>Node25</title>
<g id="a_node25"><a xlink:href="../../d8/daa/classview_1_1panes_1_1_turtle_selector_pane.html#ad83809df344e4af1f046629e336662e0" target="_top" xlink:title="view.panes.TurtleSelector\lPane.toggleActiveTurtles">
<polygon fill="white" stroke="black" points="264.5,-0 264.5,-30 401.5,-30 401.5,-0 264.5,-0"/>
<text text-anchor="start" x="272.5" y="-18" font-family="Helvetica,sans-Serif" font-size="10.00">view.panes.TurtleSelector</text>
<text text-anchor="middle" x="333" y="-7" font-family="Helvetica,sans-Serif" font-size="10.00">Pane.toggleActiveTurtles</text>
</a>
</g>
</g>
<!-- Node1&#45;&gt;Node25 -->
<g id="edge31" class="edge"><title>Node1&#45;&gt;Node25</title>
<path fill="none" stroke="midnightblue" d="M97.6094,-279.413C107.699,-230.509 140.95,-102.433 222,-39 234.16,-29.4829 249.291,-23.5541 264.4,-19.9052"/>
<polygon fill="midnightblue" stroke="midnightblue" points="94.1542,-278.845 95.6616,-289.332 101.023,-280.194 94.1542,-278.845"/>
</g>
<!-- Node3 -->
<g id="node3" class="node"><title>Node3</title>
<g id="a_node3"><a xlink:href="../../d0/d5e/classview_1_1panes_1_1_history_pane_module.html#a3e7a421da9fa47db1c0049a830f8aa81" target="_top" xlink:title="view.panes.HistoryPaneModule.update">
<polygon fill="white" stroke="black" points="480,-615.5 480,-634.5 680,-634.5 680,-615.5 480,-615.5"/>
<text text-anchor="middle" x="580" y="-622.5" font-family="Helvetica,sans-Serif" font-size="10.00">view.panes.HistoryPaneModule.update</text>
</a>
</g>
</g>
<!-- Node2&#45;&gt;Node3 -->
<g id="edge2" class="edge"><title>Node2&#45;&gt;Node3</title>
<path fill="none" stroke="midnightblue" d="M446.336,-625C457.499,-625 468.774,-625 479.789,-625"/>
<polygon fill="midnightblue" stroke="midnightblue" points="446.128,-621.5 436.128,-625 446.128,-628.5 446.128,-621.5"/>
</g>
<!-- Node5 -->
<g id="node5" class="node"><title>Node5</title>
<g id="a_node5"><a xlink:href="../../d0/d06/classview_1_1panes_1_1_turtle_controller_pane_module.html#a8b42010a92159b57095b40a80de1dfc7" target="_top" xlink:title="view.panes.TurtleController\lPaneModule.TurtleControllerPane\lModule">
<polygon fill="white" stroke="black" points="1130.5,-478.5 1130.5,-519.5 1303.5,-519.5 1303.5,-478.5 1130.5,-478.5"/>
<text text-anchor="start" x="1138.5" y="-507.5" font-family="Helvetica,sans-Serif" font-size="10.00">view.panes.TurtleController</text>
<text text-anchor="start" x="1138.5" y="-496.5" font-family="Helvetica,sans-Serif" font-size="10.00">PaneModule.TurtleControllerPane</text>
<text text-anchor="middle" x="1217" y="-485.5" font-family="Helvetica,sans-Serif" font-size="10.00">Module</text>
</a>
</g>
</g>
<!-- Node4&#45;&gt;Node5 -->
<g id="edge4" class="edge"><title>Node4&#45;&gt;Node5</title>
<path fill="none" stroke="midnightblue" d="M1076.8,-546.603C1101.36,-538.203 1130.55,-528.221 1155.84,-519.573"/>
<polygon fill="midnightblue" stroke="midnightblue" points="1075.61,-543.311 1067.28,-549.858 1077.87,-549.934 1075.61,-543.311"/>
</g>
<!-- Node7 -->
<g id="node7" class="node"><title>Node7</title>
<g id="a_node7"><a xlink:href="../../d0/d18/classview_1_1panes_1_1_button_pane_module.html#a5d69a336ac95020bfde0507bb018790d" target="_top" xlink:title="view.panes.ButtonPaneModule.create\lPropertiesMenu">
<polygon fill="white" stroke="black" points="482.5,-528 482.5,-558 677.5,-558 677.5,-528 482.5,-528"/>
<text text-anchor="start" x="490.5" y="-546" font-family="Helvetica,sans-Serif" font-size="10.00">view.panes.ButtonPaneModule.create</text>
<text text-anchor="middle" x="580" y="-535" font-family="Helvetica,sans-Serif" font-size="10.00">PropertiesMenu</text>
</a>
</g>
</g>
<!-- Node6&#45;&gt;Node7 -->
<g id="edge6" class="edge"><title>Node6&#45;&gt;Node7</title>
<path fill="none" stroke="midnightblue" d="M453.582,-533.786C463.178,-534.491 472.798,-535.197 482.205,-535.889"/>
<polygon fill="midnightblue" stroke="midnightblue" points="453.831,-530.295 443.601,-533.052 453.318,-537.276 453.831,-530.295"/>
</g>
<!-- Node8 -->
<g id="node8" class="node"><title>Node8</title>
<g id="a_node8"><a xlink:href="../../d0/d18/classview_1_1panes_1_1_button_pane_module.html#aa101ed48e3d2a504329a82dc7bea4795" target="_top" xlink:title="view.panes.ButtonPaneModule.\lButtonPaneModule">
<polygon fill="white" stroke="black" points="733,-528 733,-558 897,-558 897,-528 733,-528"/>
<text text-anchor="start" x="741" y="-546" font-family="Helvetica,sans-Serif" font-size="10.00">view.panes.ButtonPaneModule.</text>
<text text-anchor="middle" x="815" y="-535" font-family="Helvetica,sans-Serif" font-size="10.00">ButtonPaneModule</text>
</a>
</g>
</g>
<!-- Node7&#45;&gt;Node8 -->
<g id="edge7" class="edge"><title>Node7&#45;&gt;Node8</title>
<path fill="none" stroke="midnightblue" d="M688.115,-543C703.096,-543 718.286,-543 732.684,-543"/>
<polygon fill="midnightblue" stroke="midnightblue" points="687.789,-539.5 677.789,-543 687.789,-546.5 687.789,-539.5"/>
</g>
<!-- Node9&#45;&gt;Node10 -->
<g id="edge9" class="edge"><title>Node9&#45;&gt;Node10</title>
<path fill="none" stroke="midnightblue" d="M665.747,-266.004C698.592,-272.206 735.083,-279.097 763.643,-284.49"/>
<polygon fill="midnightblue" stroke="midnightblue" points="666.16,-262.52 655.684,-264.103 664.861,-269.398 666.16,-262.52"/>
</g>
<!-- Node11&#45;&gt;Node5 -->
<g id="edge11" class="edge"><title>Node11&#45;&gt;Node5</title>
<path fill="none" stroke="midnightblue" d="M1065.5,-430.376C1096.75,-444.627 1139.15,-463.96 1170.98,-478.475"/>
<polygon fill="midnightblue" stroke="midnightblue" points="1066.73,-427.092 1056.18,-426.128 1063.82,-433.461 1066.73,-427.092"/>
</g>
<!-- Node12&#45;&gt;Node5 -->
<g id="edge13" class="edge"><title>Node12&#45;&gt;Node5</title>
<path fill="none" stroke="midnightblue" d="M414.661,-471.303C435.861,-474.332 458.744,-477.189 480,-479 714.667,-498.998 992.794,-500.57 1130.26,-499.88"/>
<polygon fill="midnightblue" stroke="midnightblue" points="415.129,-467.834 404.729,-469.854 414.119,-474.761 415.129,-467.834"/>
</g>
<!-- Node13 -->
<g id="node13" class="node"><title>Node13</title>
<g id="a_node13"><a xlink:href="../../df/d2d/classview_1_1panes_1_1_turtle_controller_pane_module_1_1_move_handler.html#af119dbbc22106be7b578c2fd2e5abe09" target="_top" xlink:title="view.panes.TurtleController\lPaneModule.MoveHandler.handle">
<polygon fill="white" stroke="black" points="492.5,-440 492.5,-470 667.5,-470 667.5,-440 492.5,-440"/>
<text text-anchor="start" x="500.5" y="-458" font-family="Helvetica,sans-Serif" font-size="10.00">view.panes.TurtleController</text>
<text text-anchor="middle" x="580" y="-447" font-family="Helvetica,sans-Serif" font-size="10.00">PaneModule.MoveHandler.handle</text>
</a>
</g>
</g>
<!-- Node12&#45;&gt;Node13 -->
<g id="edge14" class="edge"><title>Node12&#45;&gt;Node13</title>
<path fill="none" stroke="midnightblue" d="M414.673,-457.012C439.592,-456.707 467.135,-456.37 492.435,-456.06"/>
<polygon fill="midnightblue" stroke="midnightblue" points="414.492,-453.514 404.535,-457.136 414.578,-460.514 414.492,-453.514"/>
</g>
<!-- Node15 -->
<g id="node15" class="node"><title>Node15</title>
<g id="a_node15"><a xlink:href="../../d3/d9f/classview_1_1panes_1_1_input_pane_module.html#a87801b5117be03d80c2a14b2bf9e5e6d" target="_top" xlink:title="view.panes.InputPaneModule.\lInputPaneModule">
<polygon fill="white" stroke="black" points="502,-186 502,-216 658,-216 658,-186 502,-186"/>
<text text-anchor="start" x="510" y="-204" font-family="Helvetica,sans-Serif" font-size="10.00">view.panes.InputPaneModule.</text>
<text text-anchor="middle" x="580" y="-193" font-family="Helvetica,sans-Serif" font-size="10.00">InputPaneModule</text>
</a>
</g>
</g>
<!-- Node14&#45;&gt;Node15 -->
<g id="edge17" class="edge"><title>Node14&#45;&gt;Node15</title>
<path fill="none" stroke="midnightblue" d="M432.904,-201C455.864,-201 479.974,-201 501.84,-201"/>
<polygon fill="midnightblue" stroke="midnightblue" points="432.797,-197.5 422.797,-201 432.797,-204.5 432.797,-197.5"/>
</g>
<!-- Node16&#45;&gt;Node10 -->
<g id="edge19" class="edge"><title>Node16&#45;&gt;Node10</title>
<path fill="none" stroke="midnightblue" d="M676.978,-294C696.668,-294 717.165,-294 736.124,-294"/>
<polygon fill="midnightblue" stroke="midnightblue" points="676.768,-290.5 666.768,-294 676.768,-297.5 676.768,-290.5"/>
</g>
<!-- Node18 -->
<g id="node18" class="node"><title>Node18</title>
<g id="a_node18"><a xlink:href="../../da/d64/classview_1_1panes_1_1_pen_pane.html#aee0977bc29663b1fb656a34f6e7adb10" target="_top" xlink:title="view.panes.PenPane.makeMenu">
<polygon fill="white" stroke="black" points="495.5,-360.5 495.5,-379.5 664.5,-379.5 664.5,-360.5 495.5,-360.5"/>
<text text-anchor="middle" x="580" y="-367.5" font-family="Helvetica,sans-Serif" font-size="10.00">view.panes.PenPane.makeMenu</text>
</a>
</g>
</g>
<!-- Node17&#45;&gt;Node18 -->
<g id="edge21" class="edge"><title>Node17&#45;&gt;Node18</title>
<path fill="none" stroke="midnightblue" d="M417.707,-370C442.743,-370 470.19,-370 495.231,-370"/>
<polygon fill="midnightblue" stroke="midnightblue" points="417.508,-366.5 407.508,-370 417.508,-373.5 417.508,-366.5"/>
</g>
<!-- Node18&#45;&gt;Node10 -->
<g id="edge22" class="edge"><title>Node18&#45;&gt;Node10</title>
<path fill="none" stroke="midnightblue" d="M635.564,-358.141C650.109,-354.609 665.741,-350.473 680,-346 720.239,-333.376 765.748,-314.758 792.032,-303.561"/>
<polygon fill="midnightblue" stroke="midnightblue" points="634.617,-354.769 625.698,-360.488 636.237,-361.579 634.617,-354.769"/>
</g>
<!-- Node19&#45;&gt;Node10 -->
<g id="edge24" class="edge"><title>Node19&#45;&gt;Node10</title>
<path fill="none" stroke="midnightblue" d="M417.813,-321.818C487.975,-321.842 590.675,-320.34 680,-313 705.525,-310.903 733.607,-307.147 757.441,-303.525"/>
<polygon fill="midnightblue" stroke="midnightblue" points="417.708,-318.318 407.703,-321.804 417.698,-325.318 417.708,-318.318"/>
</g>
<!-- Node21 -->
<g id="node21" class="node"><title>Node21</title>
<g id="a_node21"><a xlink:href="../../d9/df7/classcontroller_1_1_controller.html#afdfa7f9e9a3fb5f6b73a6b8e2b2be8b5" target="_top" xlink:title="controller.Controller.get\lInput">
<polygon fill="white" stroke="black" points="516,-49 516,-79 644,-79 644,-49 516,-49"/>
<text text-anchor="start" x="524" y="-67" font-family="Helvetica,sans-Serif" font-size="10.00">controller.Controller.get</text>
<text text-anchor="middle" x="580" y="-56" font-family="Helvetica,sans-Serif" font-size="10.00">Input</text>
</a>
</g>
</g>
<!-- Node20&#45;&gt;Node21 -->
<g id="edge26" class="edge"><title>Node20&#45;&gt;Node21</title>
<path fill="none" stroke="midnightblue" d="M437.469,-64C464.13,-64 492.023,-64 515.93,-64"/>
<polygon fill="midnightblue" stroke="midnightblue" points="437.323,-60.5001 427.323,-64 437.323,-67.5001 437.323,-60.5001"/>
</g>
<!-- Node22 -->
<g id="node22" class="node"><title>Node22</title>
<g id="a_node22"><a xlink:href="../../d3/dc7/classview_1_1controllers_1_1_pane_controller.html#a7e6154aecb60d8f3bcb056a11e842764" target="_top" xlink:title="view.controllers.PaneController.update">
<polygon fill="white" stroke="black" points="716,-54.5 716,-73.5 914,-73.5 914,-54.5 716,-54.5"/>
<text text-anchor="middle" x="815" y="-61.5" font-family="Helvetica,sans-Serif" font-size="10.00">view.controllers.PaneController.update</text>
</a>
</g>
</g>
<!-- Node21&#45;&gt;Node22 -->
<g id="edge27" class="edge"><title>Node21&#45;&gt;Node22</title>
<path fill="none" stroke="midnightblue" d="M654.098,-64C673.667,-64 695.141,-64 715.825,-64"/>
<polygon fill="midnightblue" stroke="midnightblue" points="654.053,-60.5001 644.053,-64 654.053,-67.5001 654.053,-60.5001"/>
</g>
<!-- Node23&#45;&gt;Node15 -->
<g id="edge29" class="edge"><title>Node23&#45;&gt;Node15</title>
<path fill="none" stroke="midnightblue" d="M405.531,-174.095C435.694,-178.773 470.875,-184.23 501.64,-189.001"/>
<polygon fill="midnightblue" stroke="midnightblue" points="405.926,-170.614 395.508,-172.54 404.853,-177.531 405.926,-170.614"/>
</g>
<!-- Node24 -->
<g id="node24" class="node"><title>Node24</title>
<g id="a_node24"><a xlink:href="../../dd/d35/classview_1_1panes_1_1_input_pane_module_1_1_submit_handler.html#a4d5150ca53334e966f8179c66ca6625b" target="_top" xlink:title="view.panes.InputPaneModule.\lSubmitHandler.handle">
<polygon fill="white" stroke="black" points="502,-137 502,-167 658,-167 658,-137 502,-137"/>
<text text-anchor="start" x="510" y="-155" font-family="Helvetica,sans-Serif" font-size="10.00">view.panes.InputPaneModule.</text>
<text text-anchor="middle" x="580" y="-144" font-family="Helvetica,sans-Serif" font-size="10.00">SubmitHandler.handle</text>
</a>
</g>
</g>
<!-- Node23&#45;&gt;Node24 -->
<g id="edge30" class="edge"><title>Node23&#45;&gt;Node24</title>
<path fill="none" stroke="midnightblue" d="M437.782,-158.34C459.205,-157.379 481.411,-156.382 501.694,-155.471"/>
<polygon fill="midnightblue" stroke="midnightblue" points="437.506,-154.849 427.673,-158.794 437.82,-161.842 437.506,-154.849"/>
</g>
<!-- Node26 -->
<g id="node26" class="node"><title>Node26</title>
<g id="a_node26"><a xlink:href="../../d8/daa/classview_1_1panes_1_1_turtle_selector_pane.html#a41425164edccc3709e2f66ed462f8709" target="_top" xlink:title="view.panes.TurtleSelector\lPane.getActiveTurtles">
<polygon fill="white" stroke="black" points="511.5,-0 511.5,-30 648.5,-30 648.5,-0 511.5,-0"/>
<text text-anchor="start" x="519.5" y="-18" font-family="Helvetica,sans-Serif" font-size="10.00">view.panes.TurtleSelector</text>
<text text-anchor="middle" x="580" y="-7" font-family="Helvetica,sans-Serif" font-size="10.00">Pane.getActiveTurtles</text>
</a>
</g>
</g>
<!-- Node25&#45;&gt;Node26 -->
<g id="edge32" class="edge"><title>Node25&#45;&gt;Node26</title>
<path fill="none" stroke="midnightblue" d="M411.788,-15C443.73,-15 480.373,-15 511.2,-15"/>
<polygon fill="midnightblue" stroke="midnightblue" points="411.596,-11.5001 401.596,-15 411.596,-18.5001 411.596,-11.5001"/>
</g>
<!-- Node27 -->
<g id="node27" class="node"><title>Node27</title>
<g id="a_node27"><a xlink:href="../../d8/daa/classview_1_1panes_1_1_turtle_selector_pane.html#a93a77e509159e4a9684bd8356477a810" target="_top" xlink:title="view.panes.TurtleSelector\lPane.newTurtle">
<polygon fill="white" stroke="black" points="746.5,-3 746.5,-33 883.5,-33 883.5,-3 746.5,-3"/>
<text text-anchor="start" x="754.5" y="-21" font-family="Helvetica,sans-Serif" font-size="10.00">view.panes.TurtleSelector</text>
<text text-anchor="middle" x="815" y="-10" font-family="Helvetica,sans-Serif" font-size="10.00">Pane.newTurtle</text>
</a>
</g>
</g>
<!-- Node26&#45;&gt;Node27 -->
<g id="edge33" class="edge"><title>Node26&#45;&gt;Node27</title>
<path fill="none" stroke="midnightblue" d="M658.941,-16.0035C687.179,-16.3671 718.823,-16.7745 746.125,-17.1261"/>
<polygon fill="midnightblue" stroke="midnightblue" points="658.751,-12.5009 648.706,-15.8718 658.66,-19.5003 658.751,-12.5009"/>
</g>
<!-- Node27&#45;&gt;Node11 -->
<g id="edge34" class="edge"><title>Node27&#45;&gt;Node11</title>
<path fill="none" stroke="midnightblue" d="M892.926,-30.7027C900.699,-34.363 907.944,-39.0376 914,-45 1016.84,-146.251 1022.12,-340.467 1021.42,-395.894"/>
<polygon fill="midnightblue" stroke="midnightblue" points="894.177,-27.4329 883.598,-26.8553 891.508,-33.904 894.177,-27.4329"/>
</g>
</g>
</svg>
