<?xml version="1.0" encoding="UTF-8" standalone="no"?>
<!DOCTYPE svg PUBLIC "-//W3C//DTD SVG 1.1//EN"
 "http://www.w3.org/Graphics/SVG/1.1/DTD/svg11.dtd">
<!-- Generated by graphviz version 2.36.0 (20140111.2315)
 -->
<!-- Title: view.CommandString.getType Pages: 1 -->
<svg width="644pt" height="66pt"
 viewBox="0.00 0.00 644.00 66.00" xmlns="http://www.w3.org/2000/svg" xmlns:xlink="http://www.w3.org/1999/xlink">
<g id="graph0" class="graph" transform="scale(1 1) rotate(0) translate(4 62)">
<title>view.CommandString.getType</title>
<polygon fill="white" stroke="none" points="-4,4 -4,-62 640,-62 640,4 -4,4"/>
<!-- Node1 -->
<g id="node1" class="node"><title>Node1</title>
<polygon fill="#bfbfbf" stroke="black" points="0,-19.5 0,-38.5 158,-38.5 158,-19.5 0,-19.5"/>
<text text-anchor="middle" x="79" y="-26.5" font-family="Helvetica,sans-Serif" font-size="10.00">view.CommandString.getType</text>
</g>
<!-- Node2 -->
<g id="node2" class="node"><title>Node2</title>
<g id="a_node2"><a xlink:href="../../d0/d5e/classview_1_1panes_1_1_history_pane_module.html#a09382cefa07872cdea931ba8897757e4" target="_top" xlink:title="view.panes.HistoryPaneModule.addItem">
<polygon fill="white" stroke="black" points="194,-38.5 194,-57.5 400,-57.5 400,-38.5 194,-38.5"/>
<text text-anchor="middle" x="297" y="-45.5" font-family="Helvetica,sans-Serif" font-size="10.00">view.panes.HistoryPaneModule.addItem</text>
</a>
</g>
</g>
<!-- Node1&#45;&gt;Node2 -->
<g id="edge1" class="edge"><title>Node1&#45;&gt;Node2</title>
<path fill="none" stroke="midnightblue" d="M168.447,-36.7801C176.855,-37.5197 185.427,-38.2737 193.95,-39.0234"/>
<polygon fill="midnightblue" stroke="midnightblue" points="168.555,-33.2761 158.286,-35.8863 167.941,-40.2492 168.555,-33.2761"/>
</g>
<!-- Node4 -->
<g id="node4" class="node"><title>Node4</title>
<g id="a_node4"><a xlink:href="../../d3/dc7/classview_1_1controllers_1_1_pane_controller.html#a7e6154aecb60d8f3bcb056a11e842764" target="_top" xlink:title="view.controllers.PaneController.update">
<polygon fill="white" stroke="black" points="198,-0.5 198,-19.5 396,-19.5 396,-0.5 198,-0.5"/>
<text text-anchor="middle" x="297" y="-7.5" font-family="Helvetica,sans-Serif" font-size="10.00">view.controllers.PaneController.update</text>
</a>
</g>
</g>
<!-- Node1&#45;&gt;Node4 -->
<g id="edge3" class="edge"><title>Node1&#45;&gt;Node4</title>
<path fill="none" stroke="midnightblue" d="M168.291,-21.2336C177.981,-20.3813 187.89,-19.5097 197.692,-18.6475"/>
<polygon fill="midnightblue" stroke="midnightblue" points="167.941,-17.7508 158.286,-22.1137 168.555,-24.7239 167.941,-17.7508"/>
</g>
<!-- Node3 -->
<g id="node3" class="node"><title>Node3</title>
<g id="a_node3"><a xlink:href="../../d0/d5e/classview_1_1panes_1_1_history_pane_module.html#a3e7a421da9fa47db1c0049a830f8aa81" target="_top" xlink:title="view.panes.HistoryPaneModule.update">
<polygon fill="white" stroke="black" points="436,-38.5 436,-57.5 636,-57.5 636,-38.5 436,-38.5"/>
<text text-anchor="middle" x="536" y="-45.5" font-family="Helvetica,sans-Serif" font-size="10.00">view.panes.HistoryPaneModule.update</text>
</a>
</g>
</g>
<!-- Node2&#45;&gt;Node3 -->
<g id="edge2" class="edge"><title>Node2&#45;&gt;Node3</title>
<path fill="none" stroke="midnightblue" d="M410.485,-48C418.918,-48 427.393,-48 435.737,-48"/>
<polygon fill="midnightblue" stroke="midnightblue" points="410.229,-44.5001 400.229,-48 410.229,-51.5001 410.229,-44.5001"/>
</g>
</g>
</svg>
