<?xml version="1.0" encoding="UTF-8" standalone="no"?>
<!DOCTYPE svg PUBLIC "-//W3C//DTD SVG 1.1//EN"
 "http://www.w3.org/Graphics/SVG/1.1/DTD/svg11.dtd">
<!-- Generated by graphviz version 2.36.0 (20140111.2315)
 -->
<!-- Title: view.CommandString.getCommand Pages: 1 -->
<svg width="674pt" height="104pt"
 viewBox="0.00 0.00 674.00 104.00" xmlns="http://www.w3.org/2000/svg" xmlns:xlink="http://www.w3.org/1999/xlink">
<g id="graph0" class="graph" transform="scale(1 1) rotate(0) translate(4 100)">
<title>view.CommandString.getCommand</title>
<polygon fill="white" stroke="none" points="-4,4 -4,-100 670,-100 670,4 -4,4"/>
<!-- Node1 -->
<g id="node1" class="node"><title>Node1</title>
<polygon fill="#bfbfbf" stroke="black" points="0.5,-38.5 0.5,-57.5 187.5,-57.5 187.5,-38.5 0.5,-38.5"/>
<text text-anchor="middle" x="94" y="-45.5" font-family="Helvetica,sans-Serif" font-size="10.00">view.CommandString.getCommand</text>
</g>
<!-- Node2 -->
<g id="node2" class="node"><title>Node2</title>
<g id="a_node2"><a xlink:href="../../d0/d5e/classview_1_1panes_1_1_history_pane_module.html#a09382cefa07872cdea931ba8897757e4" target="_top" xlink:title="view.panes.HistoryPaneModule.addItem">
<polygon fill="white" stroke="black" points="224,-76.5 224,-95.5 430,-95.5 430,-76.5 224,-76.5"/>
<text text-anchor="middle" x="327" y="-83.5" font-family="Helvetica,sans-Serif" font-size="10.00">view.panes.HistoryPaneModule.addItem</text>
</a>
</g>
</g>
<!-- Node1&#45;&gt;Node2 -->
<g id="edge1" class="edge"><title>Node1&#45;&gt;Node2</title>
<path fill="none" stroke="midnightblue" d="M163.114,-59.205C196.437,-64.6866 236.126,-71.2155 267.983,-76.4561"/>
<polygon fill="midnightblue" stroke="midnightblue" points="163.428,-55.7097 152.993,-57.54 162.292,-62.6168 163.428,-55.7097"/>
</g>
<!-- Node3 -->
<g id="node3" class="node"><title>Node3</title>
<g id="a_node3"><a xlink:href="../../d0/d5e/classview_1_1panes_1_1_history_pane_module.html#a3e7a421da9fa47db1c0049a830f8aa81" target="_top" xlink:title="view.panes.HistoryPaneModule.update">
<polygon fill="white" stroke="black" points="466,-57.5 466,-76.5 666,-76.5 666,-57.5 466,-57.5"/>
<text text-anchor="middle" x="566" y="-64.5" font-family="Helvetica,sans-Serif" font-size="10.00">view.panes.HistoryPaneModule.update</text>
</a>
</g>
</g>
<!-- Node1&#45;&gt;Node3 -->
<g id="edge4" class="edge"><title>Node1&#45;&gt;Node3</title>
<path fill="none" stroke="midnightblue" d="M197.623,-52.1486C277.247,-55.3674 386.963,-59.8028 465.727,-62.9868"/>
<polygon fill="midnightblue" stroke="midnightblue" points="197.71,-48.6493 187.576,-51.7424 197.427,-55.6436 197.71,-48.6493"/>
</g>
<!-- Node4 -->
<g id="node4" class="node"><title>Node4</title>
<g id="a_node4"><a xlink:href="../../d3/dc7/classview_1_1controllers_1_1_pane_controller.html#a7e6154aecb60d8f3bcb056a11e842764" target="_top" xlink:title="view.controllers.PaneController.update">
<polygon fill="white" stroke="black" points="228,-0.5 228,-19.5 426,-19.5 426,-0.5 228,-0.5"/>
<text text-anchor="middle" x="327" y="-7.5" font-family="Helvetica,sans-Serif" font-size="10.00">view.controllers.PaneController.update</text>
</a>
</g>
</g>
<!-- Node1&#45;&gt;Node4 -->
<g id="edge3" class="edge"><title>Node1&#45;&gt;Node4</title>
<path fill="none" stroke="midnightblue" d="M163.114,-36.795C196.437,-31.3134 236.126,-24.7845 267.983,-19.5439"/>
<polygon fill="midnightblue" stroke="midnightblue" points="162.292,-33.3832 152.993,-38.46 163.428,-40.2903 162.292,-33.3832"/>
</g>
<!-- Node2&#45;&gt;Node3 -->
<g id="edge2" class="edge"><title>Node2&#45;&gt;Node3</title>
<path fill="none" stroke="midnightblue" d="M440.207,-77.0045C448.732,-76.3211 457.301,-75.6341 465.737,-74.9578"/>
<polygon fill="midnightblue" stroke="midnightblue" points="439.917,-73.5164 430.229,-77.8044 440.477,-80.494 439.917,-73.5164"/>
</g>
</g>
</svg>
