<?xml version="1.0" encoding="UTF-8" standalone="no"?>
<!DOCTYPE svg PUBLIC "-//W3C//DTD SVG 1.1//EN"
 "http://www.w3.org/Graphics/SVG/1.1/DTD/svg11.dtd">
<!-- Generated by graphviz version 2.36.0 (20140111.2315)
 -->
<!-- Title: /tmp/git/duke&#45;compsci308&#45;fall2014/slogo_team14/repository/src Pages: 1 -->
<svg width="496pt" height="111pt"
 viewBox="0.00 0.00 496.00 111.00" xmlns="http://www.w3.org/2000/svg" xmlns:xlink="http://www.w3.org/1999/xlink">
<g id="graph0" class="graph" transform="scale(1 1) rotate(0) translate(4 107)">
<title>/tmp/git/duke&#45;compsci308&#45;fall2014/slogo_team14/repository/src</title>
<polygon fill="white" stroke="none" points="-4,4 -4,-107 492,-107 492,4 -4,4"/>
<g id="clust1" class="cluster"><title>clusterdir_cd4c7410950b7c7b8de9b900a21f80e7</title>
<g id="a_clust1"><a xlink:href="dir_cd4c7410950b7c7b8de9b900a21f80e7.html" target="_top" xlink:title="repository">
<polygon fill="#ddddee" stroke="black" points="8,-8 8,-95 480,-95 480,-8 8,-8"/>
<text text-anchor="middle" x="244" y="-83" font-family="Helvetica,sans-Serif" font-size="10.00">repository</text>
</a>
</g>
</g>
<g id="clust2" class="cluster"><title>clusterdir_ccfa97ed112bf3f9534c61f7d4243827</title>
<g id="a_clust2"><a xlink:href="dir_ccfa97ed112bf3f9534c61f7d4243827.html" target="_top">
<polygon fill="#eeeeff" stroke="black" points="16,-16 16,-68 472,-68 472,-16 16,-16"/>
</a>
</g>
</g>
<!-- dir_ccfa97ed112bf3f9534c61f7d4243827 -->
<g id="node1" class="node"><title>dir_ccfa97ed112bf3f9534c61f7d4243827</title>
<text text-anchor="middle" x="437" y="-39.5" font-family="Helvetica,sans-Serif" font-size="10.00">src</text>
</g>
<!-- dir_032556c543bb954991f2fbbc46171b35 -->
<g id="node2" class="node"><title>dir_032556c543bb954991f2fbbc46171b35</title>
<g id="a_node2"><a xlink:href="dir_032556c543bb954991f2fbbc46171b35.html" target="_top" xlink:title="commands">
<polygon fill="white" stroke="black" points="391.25,-60 320.75,-60 320.75,-24 391.25,-24 391.25,-60"/>
<text text-anchor="middle" x="356" y="-39.5" font-family="Helvetica,sans-Serif" font-size="10.00">commands</text>
</a>
</g>
</g>
<!-- dir_4a22879b24b4c3df5caa217bec96fe17 -->
<g id="node3" class="node"><title>dir_4a22879b24b4c3df5caa217bec96fe17</title>
<g id="a_node3"><a xlink:href="dir_4a22879b24b4c3df5caa217bec96fe17.html" target="_top" xlink:title="controller">
<polygon fill="white" stroke="black" points="301.5,-60 240.5,-60 240.5,-24 301.5,-24 301.5,-60"/>
<text text-anchor="middle" x="271" y="-39.5" font-family="Helvetica,sans-Serif" font-size="10.00">controller</text>
</a>
</g>
</g>
<!-- dir_a25b267f1bae6c9e3e8c861bf3f5066a -->
<g id="node4" class="node"><title>dir_a25b267f1bae6c9e3e8c861bf3f5066a</title>
<g id="a_node4"><a xlink:href="dir_a25b267f1bae6c9e3e8c861bf3f5066a.html" target="_top" xlink:title="model">
<polygon fill="white" stroke="black" points="222,-60 168,-60 168,-24 222,-24 222,-60"/>
<text text-anchor="middle" x="195" y="-39.5" font-family="Helvetica,sans-Serif" font-size="10.00">model</text>
</a>
</g>
</g>
<!-- dir_c2ccc0baaa20cf7b71529e4b5abb4884 -->
<g id="node5" class="node"><title>dir_c2ccc0baaa20cf7b71529e4b5abb4884</title>
<g id="a_node5"><a xlink:href="dir_c2ccc0baaa20cf7b71529e4b5abb4884.html" target="_top" xlink:title="parser">
<polygon fill="white" stroke="black" points="150,-60 96,-60 96,-24 150,-24 150,-60"/>
<text text-anchor="middle" x="123" y="-39.5" font-family="Helvetica,sans-Serif" font-size="10.00">parser</text>
</a>
</g>
</g>
<!-- dir_cdd7df3ea65bca2535a3679dbcf37322 -->
<g id="node6" class="node"><title>dir_cdd7df3ea65bca2535a3679dbcf37322</title>
<g id="a_node6"><a xlink:href="dir_cdd7df3ea65bca2535a3679dbcf37322.html" target="_top" xlink:title="view">
<polygon fill="white" stroke="red" points="78,-60 24,-60 24,-24 78,-24 78,-60"/>
<text text-anchor="middle" x="51" y="-39.5" font-family="Helvetica,sans-Serif" font-size="10.00">view</text>
</a>
</g>
</g>
</g>
</svg>
