<?xml version="1.0" encoding="UTF-8" standalone="no"?>
<!DOCTYPE svg PUBLIC "-//W3C//DTD SVG 1.1//EN"
 "http://www.w3.org/Graphics/SVG/1.1/DTD/svg11.dtd">
<!-- Generated by graphviz version 2.36.0 (20140111.2315)
 -->
<!-- Title: /tmp/git/duke&#45;compsci308&#45;fall2014/slogo_team14/repository/src/view Pages: 1 -->
<svg width="268pt" height="111pt"
 viewBox="0.00 0.00 268.00 111.00" xmlns="http://www.w3.org/2000/svg" xmlns:xlink="http://www.w3.org/1999/xlink">
<g id="graph0" class="graph" transform="scale(1 1) rotate(0) translate(4 107)">
<title>/tmp/git/duke&#45;compsci308&#45;fall2014/slogo_team14/repository/src/view</title>
<polygon fill="white" stroke="none" points="-4,4 -4,-107 264,-107 264,4 -4,4"/>
<g id="clust1" class="cluster"><title>clusterdir_ccfa97ed112bf3f9534c61f7d4243827</title>
<g id="a_clust1"><a xlink:href="dir_ccfa97ed112bf3f9534c61f7d4243827.html" target="_top" xlink:title="src">
<polygon fill="#ddddee" stroke="black" points="8,-8 8,-95 252,-95 252,-8 8,-8"/>
<text text-anchor="middle" x="130" y="-83" font-family="Helvetica,sans-Serif" font-size="10.00">src</text>
</a>
</g>
</g>
<g id="clust2" class="cluster"><title>clusterdir_cdd7df3ea65bca2535a3679dbcf37322</title>
<g id="a_clust2"><a xlink:href="dir_cdd7df3ea65bca2535a3679dbcf37322.html" target="_top">
<polygon fill="#eeeeff" stroke="black" points="16,-16 16,-68 244,-68 244,-16 16,-16"/>
</a>
</g>
</g>
<!-- dir_cdd7df3ea65bca2535a3679dbcf37322 -->
<g id="node1" class="node"><title>dir_cdd7df3ea65bca2535a3679dbcf37322</title>
<text text-anchor="middle" x="209" y="-39.5" font-family="Helvetica,sans-Serif" font-size="10.00">view</text>
</g>
<!-- dir_92aa03351e748dada0a9746d45a88820 -->
<g id="node2" class="node"><title>dir_92aa03351e748dada0a9746d45a88820</title>
<g id="a_node2"><a xlink:href="dir_92aa03351e748dada0a9746d45a88820.html" target="_top" xlink:title="controllers">
<polygon fill="white" stroke="black" points="163.25,-60 96.75,-60 96.75,-24 163.25,-24 163.25,-60"/>
<text text-anchor="middle" x="130" y="-39.5" font-family="Helvetica,sans-Serif" font-size="10.00">controllers</text>
</a>
</g>
</g>
<!-- dir_485486df43f8c1033a2980a2270b4355 -->
<g id="node3" class="node"><title>dir_485486df43f8c1033a2980a2270b4355</title>
<g id="a_node3"><a xlink:href="dir_485486df43f8c1033a2980a2270b4355.html" target="_top" xlink:title="panes">
<polygon fill="white" stroke="black" points="78,-60 24,-60 24,-24 78,-24 78,-60"/>
<text text-anchor="middle" x="51" y="-39.5" font-family="Helvetica,sans-Serif" font-size="10.00">panes</text>
</a>
</g>
</g>
</g>
</svg>
