<?xml version="1.0" encoding="UTF-8" standalone="no"?>
<!DOCTYPE svg PUBLIC "-//W3C//DTD SVG 1.1//EN"
 "http://www.w3.org/Graphics/SVG/1.1/DTD/svg11.dtd">
<!-- Generated by graphviz version 2.36.0 (20140111.2315)
 -->
<!-- Title: Graphical Class Hierarchy Pages: 1 -->
<svg width="282pt" height="87pt"
 viewBox="0.00 0.00 282.00 87.00" xmlns="http://www.w3.org/2000/svg" xmlns:xlink="http://www.w3.org/1999/xlink">
<g id="graph0" class="graph" transform="scale(1 1) rotate(0) translate(4 83)">
<title>Graphical Class Hierarchy</title>
<polygon fill="white" stroke="none" points="-4,4 -4,-83 278,-83 278,4 -4,4"/>
<!-- Node1 -->
<g id="node1" class="node"><title>Node1</title>
<polygon fill="white" stroke="#bfbfbf" points="0.5,-29.5 0.5,-48.5 81.5,-48.5 81.5,-29.5 0.5,-29.5"/>
<text text-anchor="middle" x="41" y="-36.5" font-family="Helvetica,sans-Serif" font-size="10.00">EventHandler</text>
</g>
<!-- Node2 -->
<g id="node2" class="node"><title>Node2</title>
<g id="a_node2"><a xlink:href="dd/d35/classview_1_1panes_1_1_input_pane_module_1_1_submit_handler.html" target="_top" xlink:title="view.panes.InputPaneModule.\lSubmitHandler">
<polygon fill="white" stroke="black" points="118,-49 118,-79 274,-79 274,-49 118,-49"/>
<text text-anchor="start" x="126" y="-67" font-family="Helvetica,sans-Serif" font-size="10.00">view.panes.InputPaneModule.</text>
<text text-anchor="middle" x="196" y="-56" font-family="Helvetica,sans-Serif" font-size="10.00">SubmitHandler</text>
</a>
</g>
</g>
<!-- Node1&#45;&gt;Node2 -->
<g id="edge1" class="edge"><title>Node1&#45;&gt;Node2</title>
<path fill="none" stroke="midnightblue" d="M91.7022,-47.1213C100.045,-48.4844 108.874,-49.927 117.716,-51.372"/>
<polygon fill="midnightblue" stroke="midnightblue" points="92.2331,-43.6617 81.7995,-45.5032 91.1042,-50.5701 92.2331,-43.6617"/>
</g>
<!-- Node3 -->
<g id="node3" class="node"><title>Node3</title>
<g id="a_node3"><a xlink:href="df/d2d/classview_1_1panes_1_1_turtle_controller_pane_module_1_1_move_handler.html" target="_top" xlink:title="view.panes.TurtleController\lPaneModule.MoveHandler">
<polygon fill="white" stroke="black" points="124.5,-0 124.5,-30 267.5,-30 267.5,-0 124.5,-0"/>
<text text-anchor="start" x="132.5" y="-18" font-family="Helvetica,sans-Serif" font-size="10.00">view.panes.TurtleController</text>
<text text-anchor="middle" x="196" y="-7" font-family="Helvetica,sans-Serif" font-size="10.00">PaneModule.MoveHandler</text>
</a>
</g>
</g>
<!-- Node1&#45;&gt;Node3 -->
<g id="edge2" class="edge"><title>Node1&#45;&gt;Node3</title>
<path fill="none" stroke="midnightblue" d="M91.8761,-31.1763C102.234,-29.5515 113.336,-27.81 124.279,-26.0934"/>
<polygon fill="midnightblue" stroke="midnightblue" points="91.1363,-27.7495 81.7995,-32.7569 92.2212,-34.6649 91.1363,-27.7495"/>
</g>
</g>
</svg>
