<?xml version="1.0" encoding="UTF-8" standalone="no"?>
<!DOCTYPE svg PUBLIC "-//W3C//DTD SVG 1.1//EN"
 "http://www.w3.org/Graphics/SVG/1.1/DTD/svg11.dtd">
<!-- Generated by graphviz version 2.36.0 (20140111.2315)
 -->
<!-- Title: model.Model.updateModel Pages: 1 -->
<!--zoomable 704 -->
<svg id="main" version="1.1" xmlns="http://www.w3.org/2000/svg" xmlns:xlink="http://www.w3.org/1999/xlink" xml:space="preserve" onload="init(evt)">
<style type="text/css"><![CDATA[
.edge:hover path { stroke: red; }
.edge:hover polygon { stroke: red; fill: red; }
]]></style>
<script type="text/javascript"><![CDATA[
var edges = document.getElementsByTagName('g');
if (edges && edges.length) {
  for (var i=0;i<edges.length;i++) {
    if (edges[i].id.substr(0,4)=='edge') {
      edges[i].setAttribute('class','edge');
    }
  }
}
]]></script>
        <defs>
                <circle id="rim" cx="0" cy="0" r="7"/>
                <circle id="rim2" cx="0" cy="0" r="3.5"/>
                <g id="zoomPlus">
                        <use xlink:href="#rim" fill="#404040">
                                <set attributeName="fill" to="#808080" begin="zoomplus.mouseover" end="zoomplus.mouseout"/>
                        </use>
                        <path d="M-4,0h8M0,-4v8" fill="none" stroke="white" stroke-width="1.5" pointer-events="none"/>
                </g>
                <g id="zoomMin">
                        <use xlink:href="#rim" fill="#404040">
                                <set attributeName="fill" to="#808080" begin="zoomminus.mouseover" end="zoomminus.mouseout"/>
                        </use>
                        <path d="M-4,0h8" fill="none" stroke="white" stroke-width="1.5" pointer-events="none"/>
                </g>
                <g id="dirArrow">
                        <path fill="none" stroke="white" stroke-width="1.5" d="M0,-3.0v7 M-2.5,-0.5L0,-3.0L2.5,-0.5"/>
                </g>
               <g id="resetDef">
                       <use xlink:href="#rim2" fill="#404040">
                               <set attributeName="fill" to="#808080" begin="reset.mouseover" end="reset.mouseout"/>
                       </use>
               </g>
        </defs>

<script type="text/javascript">
var viewWidth = 1190;
var viewHeight = 704;
var sectionId = 'dynsection-9';
</script>
<script xlink:href="../../svgpan.js"/>
<svg id="graph" class="graph">
<g id="viewport">
<title>model.Model.updateModel</title>
<polygon fill="white" stroke="none" points="-4,4 -4,-700 1186,-700 1186,4 -4,4"/>
<!-- Node1 -->
<g id="node1" class="node"><title>Node1</title>
<polygon fill="#bfbfbf" stroke="black" points="0.5,-447.5 0.5,-466.5 143.5,-466.5 143.5,-447.5 0.5,-447.5"/>
<text text-anchor="middle" x="72" y="-454.5" font-family="Helvetica,sans-Serif" font-size="10.00">model.Model.updateModel</text>
</g>
<!-- Node2 -->
<g id="node2" class="node"><title>Node2</title>
<g id="a_node2"><a xlink:href="../../d3/d42/classmodel_1_1_model.html#a76160d002c1e68b566307ac44356f6e5" target="_top" xlink:title="model.Model.notifyView">
<polygon fill="white" stroke="black" points="180.5,-447.5 180.5,-466.5 309.5,-466.5 309.5,-447.5 180.5,-447.5"/>
<text text-anchor="middle" x="245" y="-454.5" font-family="Helvetica,sans-Serif" font-size="10.00">model.Model.notifyView</text>
</a>
</g>
</g>
<!-- Node1&#45;&gt;Node2 -->
<g id="edge1" class="edge"><title>Node1&#45;&gt;Node2</title>
<path fill="none" stroke="midnightblue" d="M143.54,-457C152.334,-457 161.347,-457 170.189,-457"/>
<polygon fill="midnightblue" stroke="midnightblue" points="170.468,-460.5 180.468,-457 170.468,-453.5 170.468,-460.5"/>
</g>
<!-- Node3 -->
<g id="node3" class="node"><title>Node3</title>
<g id="a_node3"><a xlink:href="../../db/db5/classview_1_1panes_1_1_view_pane_module.html#aa2a1bf15bc036ee4237bf63749d85baf" target="_top" xlink:title="view.panes.ViewPaneModule.updateView">
<polygon fill="white" stroke="black" points="346.5,-447.5 346.5,-466.5 555.5,-466.5 555.5,-447.5 346.5,-447.5"/>
<text text-anchor="middle" x="451" y="-454.5" font-family="Helvetica,sans-Serif" font-size="10.00">view.panes.ViewPaneModule.updateView</text>
</a>
</g>
</g>
<!-- Node2&#45;&gt;Node3 -->
<g id="edge2" class="edge"><title>Node2&#45;&gt;Node3</title>
<path fill="none" stroke="midnightblue" d="M309.708,-457C318.202,-457 327.11,-457 336.144,-457"/>
<polygon fill="midnightblue" stroke="midnightblue" points="336.382,-460.5 346.382,-457 336.382,-453.5 336.382,-460.5"/>
</g>
<!-- Node4 -->
<g id="node4" class="node"><title>Node4</title>
<g id="a_node4"><a xlink:href="../../d3/d42/classmodel_1_1_model.html#a54936407d7df5ab8ef3c0ae54bcdc0ed" target="_top" xlink:title="model.Model.getBackground\lColor">
<polygon fill="white" stroke="black" points="609,-666 609,-696 763,-696 763,-666 609,-666"/>
<text text-anchor="start" x="617" y="-684" font-family="Helvetica,sans-Serif" font-size="10.00">model.Model.getBackground</text>
<text text-anchor="middle" x="686" y="-673" font-family="Helvetica,sans-Serif" font-size="10.00">Color</text>
</a>
</g>
</g>
<!-- Node3&#45;&gt;Node4 -->
<g id="edge3" class="edge"><title>Node3&#45;&gt;Node4</title>
<path fill="none" stroke="midnightblue" d="M455.895,-466.674C469.411,-498.969 517.568,-603.96 592,-656 594.74,-657.916 597.62,-659.685 600.601,-661.319"/>
<polygon fill="midnightblue" stroke="midnightblue" points="599.287,-664.572 609.808,-665.824 602.364,-658.285 599.287,-664.572"/>
</g>
<!-- Node5 -->
<g id="node5" class="node"><title>Node5</title>
<g id="a_node5"><a xlink:href="../../db/db5/classview_1_1panes_1_1_view_pane_module.html#ac94ee444587349ddad19b8caee500c9c" target="_top" xlink:title="view.panes.ViewPaneModule.update\lBGColor">
<polygon fill="white" stroke="black" points="592,-617 592,-647 780,-647 780,-617 592,-617"/>
<text text-anchor="start" x="600" y="-635" font-family="Helvetica,sans-Serif" font-size="10.00">view.panes.ViewPaneModule.update</text>
<text text-anchor="middle" x="686" y="-624" font-family="Helvetica,sans-Serif" font-size="10.00">BGColor</text>
</a>
</g>
</g>
<!-- Node3&#45;&gt;Node5 -->
<g id="edge4" class="edge"><title>Node3&#45;&gt;Node5</title>
<path fill="none" stroke="midnightblue" d="M458.222,-466.817C475.764,-493.662 528.496,-568.827 592,-607 595.627,-609.18 599.446,-611.174 603.384,-612.996"/>
<polygon fill="midnightblue" stroke="midnightblue" points="602.178,-616.286 612.752,-616.945 604.897,-609.836 602.178,-616.286"/>
</g>
<!-- Node6 -->
<g id="node6" class="node"><title>Node6</title>
<g id="a_node6"><a xlink:href="../../db/db5/classview_1_1panes_1_1_view_pane_module.html#abe91f8bb732e99d762bdaba51ceae04b" target="_top" xlink:title="view.panes.ViewPaneModule.toRGB">
<polygon fill="white" stroke="black" points="594,-578.5 594,-597.5 778,-597.5 778,-578.5 594,-578.5"/>
<text text-anchor="middle" x="686" y="-585.5" font-family="Helvetica,sans-Serif" font-size="10.00">view.panes.ViewPaneModule.toRGB</text>
</a>
</g>
</g>
<!-- Node3&#45;&gt;Node6 -->
<g id="edge5" class="edge"><title>Node3&#45;&gt;Node6</title>
<path fill="none" stroke="midnightblue" d="M460.764,-466.612C481.35,-488.55 535.346,-542.457 592,-569 597.354,-571.508 603.033,-573.686 608.842,-575.578"/>
<polygon fill="midnightblue" stroke="midnightblue" points="608.123,-579.015 618.705,-578.499 610.111,-572.303 608.123,-579.015"/>
</g>
<!-- Node7 -->
<g id="node7" class="node"><title>Node7</title>
<g id="a_node7"><a xlink:href="../../d3/d42/classmodel_1_1_model.html#a1a683ba5e58fcb3c8882c8e61df20dc0" target="_top" xlink:title="model.Model.getTurtleManager">
<polygon fill="white" stroke="black" points="604,-540.5 604,-559.5 768,-559.5 768,-540.5 604,-540.5"/>
<text text-anchor="middle" x="686" y="-547.5" font-family="Helvetica,sans-Serif" font-size="10.00">model.Model.getTurtleManager</text>
</a>
</g>
</g>
<!-- Node3&#45;&gt;Node7 -->
<g id="edge6" class="edge"><title>Node3&#45;&gt;Node7</title>
<path fill="none" stroke="midnightblue" d="M466.921,-466.508C491.867,-482.002 544.041,-512.698 592,-530 600.556,-533.087 609.736,-535.771 618.874,-538.083"/>
<polygon fill="midnightblue" stroke="midnightblue" points="618.202,-541.521 628.743,-540.448 619.833,-534.714 618.202,-541.521"/>
</g>
<!-- Node8 -->
<g id="node8" class="node"><title>Node8</title>
<g id="a_node8"><a xlink:href="../../df/d50/classmodel_1_1_turtle_set_manager.html#a9a65c0be3b9c21abaf0ebaa54e5b8484" target="_top" xlink:title="model.TurtleSetManager.get\lActiveTurtles">
<polygon fill="white" stroke="black" points="610,-491 610,-521 762,-521 762,-491 610,-491"/>
<text text-anchor="start" x="618" y="-509" font-family="Helvetica,sans-Serif" font-size="10.00">model.TurtleSetManager.get</text>
<text text-anchor="middle" x="686" y="-498" font-family="Helvetica,sans-Serif" font-size="10.00">ActiveTurtles</text>
</a>
</g>
</g>
<!-- Node3&#45;&gt;Node8 -->
<g id="edge7" class="edge"><title>Node3&#45;&gt;Node8</title>
<path fill="none" stroke="midnightblue" d="M497.201,-466.506C527.322,-472.84 567.774,-481.347 603.42,-488.844"/>
<polygon fill="midnightblue" stroke="midnightblue" points="602.828,-492.296 613.335,-490.929 604.269,-485.446 602.828,-492.296"/>
</g>
<!-- Node9 -->
<g id="node9" class="node"><title>Node9</title>
<g id="a_node9"><a xlink:href="../../df/d50/classmodel_1_1_turtle_set_manager.html#a9e215e93eccbed2ab9ebec6119cfe305" target="_top" xlink:title="model.TurtleSetManager.get\lAllTurtles">
<polygon fill="white" stroke="black" points="610,-442 610,-472 762,-472 762,-442 610,-442"/>
<text text-anchor="start" x="618" y="-460" font-family="Helvetica,sans-Serif" font-size="10.00">model.TurtleSetManager.get</text>
<text text-anchor="middle" x="686" y="-449" font-family="Helvetica,sans-Serif" font-size="10.00">AllTurtles</text>
</a>
</g>
</g>
<!-- Node3&#45;&gt;Node9 -->
<g id="edge8" class="edge"><title>Node3&#45;&gt;Node9</title>
<path fill="none" stroke="midnightblue" d="M555.554,-457C570.224,-457 585.172,-457 599.451,-457"/>
<polygon fill="midnightblue" stroke="midnightblue" points="599.716,-460.5 609.716,-457 599.716,-453.5 599.716,-460.5"/>
</g>
<!-- Node10 -->
<g id="node10" class="node"><title>Node10</title>
<g id="a_node10"><a xlink:href="../../d3/d42/classmodel_1_1_model.html#af73e838aed2c068e8f7d31bfa1cc88d7" target="_top" xlink:title="model.Model.getStamp">
<polygon fill="white" stroke="black" points="621.5,-403.5 621.5,-422.5 750.5,-422.5 750.5,-403.5 621.5,-403.5"/>
<text text-anchor="middle" x="686" y="-410.5" font-family="Helvetica,sans-Serif" font-size="10.00">model.Model.getStamp</text>
</a>
</g>
</g>
<!-- Node3&#45;&gt;Node10 -->
<g id="edge9" class="edge"><title>Node3&#45;&gt;Node10</title>
<path fill="none" stroke="midnightblue" d="M502.558,-447.453C538.433,-440.678 586.75,-431.554 624.647,-424.397"/>
<polygon fill="midnightblue" stroke="midnightblue" points="625.364,-427.824 634.541,-422.529 624.065,-420.945 625.364,-427.824"/>
</g>
<!-- Node11 -->
<g id="node11" class="node"><title>Node11</title>
<g id="a_node11"><a xlink:href="../../db/db5/classview_1_1panes_1_1_view_pane_module.html#a44db6ae832af3ce470baa9406142b8cb" target="_top" xlink:title="view.panes.ViewPaneModule.make\lStamps">
<polygon fill="white" stroke="black" points="595.5,-354 595.5,-384 776.5,-384 776.5,-354 595.5,-354"/>
<text text-anchor="start" x="603.5" y="-372" font-family="Helvetica,sans-Serif" font-size="10.00">view.panes.ViewPaneModule.make</text>
<text text-anchor="middle" x="686" y="-361" font-family="Helvetica,sans-Serif" font-size="10.00">Stamps</text>
</a>
</g>
</g>
<!-- Node3&#45;&gt;Node11 -->
<g id="edge10" class="edge"><title>Node3&#45;&gt;Node11</title>
<path fill="none" stroke="midnightblue" d="M470.626,-447.459C497.087,-434.174 547.317,-409.944 592,-394 598.929,-391.528 606.223,-389.167 613.552,-386.952"/>
<polygon fill="midnightblue" stroke="midnightblue" points="614.926,-390.197 623.538,-384.026 612.957,-383.479 614.926,-390.197"/>
</g>
<!-- Node18 -->
<g id="node18" class="node"><title>Node18</title>
<g id="a_node18"><a xlink:href="../../d3/d42/classmodel_1_1_model.html#a0a457f31350a460e11dc864463e0d8ff" target="_top" xlink:title="model.Model.setStamp">
<polygon fill="white" stroke="black" points="622,-217.5 622,-236.5 750,-236.5 750,-217.5 622,-217.5"/>
<text text-anchor="middle" x="686" y="-224.5" font-family="Helvetica,sans-Serif" font-size="10.00">model.Model.setStamp</text>
</a>
</g>
</g>
<!-- Node3&#45;&gt;Node18 -->
<g id="edge17" class="edge"><title>Node3&#45;&gt;Node18</title>
<path fill="none" stroke="midnightblue" d="M455.419,-447.044C467.728,-412.804 513.268,-299.088 592,-246 598.106,-241.883 604.914,-238.624 611.993,-236.05"/>
<polygon fill="midnightblue" stroke="midnightblue" points="613.3,-239.307 621.773,-232.947 611.183,-232.635 613.3,-239.307"/>
</g>
<!-- Node19 -->
<g id="node19" class="node"><title>Node19</title>
<g id="a_node19"><a xlink:href="../../db/db5/classview_1_1panes_1_1_view_pane_module.html#a7ad9ad27137ffdf0ea96753a22da236b" target="_top" xlink:title="view.panes.ViewPaneModule.erase\lStamps">
<polygon fill="white" stroke="black" points="595.5,-305 595.5,-335 776.5,-335 776.5,-305 595.5,-305"/>
<text text-anchor="start" x="603.5" y="-323" font-family="Helvetica,sans-Serif" font-size="10.00">view.panes.ViewPaneModule.erase</text>
<text text-anchor="middle" x="686" y="-312" font-family="Helvetica,sans-Serif" font-size="10.00">Stamps</text>
</a>
</g>
</g>
<!-- Node3&#45;&gt;Node19 -->
<g id="edge18" class="edge"><title>Node3&#45;&gt;Node19</title>
<path fill="none" stroke="midnightblue" d="M460.842,-447.498C481.592,-425.778 535.907,-372.199 592,-344 595.771,-342.104 599.706,-340.349 603.735,-338.724"/>
<polygon fill="midnightblue" stroke="midnightblue" points="605.127,-341.941 613.274,-335.167 602.681,-335.382 605.127,-341.941"/>
</g>
<!-- Node21 -->
<g id="node21" class="node"><title>Node21</title>
<g id="a_node21"><a xlink:href="../../db/db5/classview_1_1panes_1_1_view_pane_module.html#ab55ce3511929b88a2cd1235eb694868f" target="_top" xlink:title="view.panes.ViewPaneModule.update\lTurtle">
<polygon fill="white" stroke="black" points="592,-256 592,-286 780,-286 780,-256 592,-256"/>
<text text-anchor="start" x="600" y="-274" font-family="Helvetica,sans-Serif" font-size="10.00">view.panes.ViewPaneModule.update</text>
<text text-anchor="middle" x="686" y="-263" font-family="Helvetica,sans-Serif" font-size="10.00">Turtle</text>
</a>
</g>
</g>
<!-- Node3&#45;&gt;Node21 -->
<g id="edge20" class="edge"><title>Node3&#45;&gt;Node21</title>
<path fill="none" stroke="midnightblue" d="M457.511,-447.174C473.955,-418.802 525.669,-336.156 592,-295 594.763,-293.286 597.645,-291.693 600.611,-290.214"/>
<polygon fill="midnightblue" stroke="midnightblue" points="602.048,-293.405 609.729,-286.108 599.174,-287.023 602.048,-293.405"/>
</g>
<!-- Node12 -->
<g id="node12" class="node"><title>Node12</title>
<g id="a_node12"><a xlink:href="../../d7/da6/classview_1_1_turtle_draw.html#a939f4fdbdb66457c9dcee82eb4ae6d9c" target="_top" xlink:title="view.TurtleDraw.drawTurtle">
<polygon fill="white" stroke="black" points="824.5,-418.5 824.5,-437.5 963.5,-437.5 963.5,-418.5 824.5,-418.5"/>
<text text-anchor="middle" x="894" y="-425.5" font-family="Helvetica,sans-Serif" font-size="10.00">view.TurtleDraw.drawTurtle</text>
</a>
</g>
</g>
<!-- Node11&#45;&gt;Node12 -->
<g id="edge11" class="edge"><title>Node11&#45;&gt;Node12</title>
<path fill="none" stroke="midnightblue" d="M747.881,-384.125C758.656,-387.154 769.714,-390.492 780,-394 796.405,-399.595 799.538,-403.575 816,-409 823.624,-411.512 831.768,-413.866 839.801,-416.003"/>
<polygon fill="midnightblue" stroke="midnightblue" points="838.945,-419.396 849.501,-418.497 840.688,-412.617 838.945,-419.396"/>
</g>
<!-- Node15 -->
<g id="node15" class="node"><title>Node15</title>
<g id="a_node15"><a xlink:href="../../d7/da6/classview_1_1_turtle_draw.html#a14678068d3fc9d3b6e1067bc372f6030" target="_top" xlink:title="view.TurtleDraw.showTurtle">
<polygon fill="white" stroke="black" points="824,-380.5 824,-399.5 964,-399.5 964,-380.5 824,-380.5"/>
<text text-anchor="middle" x="894" y="-387.5" font-family="Helvetica,sans-Serif" font-size="10.00">view.TurtleDraw.showTurtle</text>
</a>
</g>
</g>
<!-- Node11&#45;&gt;Node15 -->
<g id="edge14" class="edge"><title>Node11&#45;&gt;Node15</title>
<path fill="none" stroke="midnightblue" d="M776.755,-378.15C789.122,-379.411 801.748,-380.698 813.904,-381.937"/>
<polygon fill="midnightblue" stroke="midnightblue" points="813.685,-385.433 823.989,-382.965 814.395,-378.469 813.685,-385.433"/>
</g>
<!-- Node16 -->
<g id="node16" class="node"><title>Node16</title>
<g id="a_node16"><a xlink:href="../../d7/da6/classview_1_1_turtle_draw.html#a8c2cab38eb294b26aea1ae17595ba2a6" target="_top" xlink:title="view.TurtleDraw.moveTurtle">
<polygon fill="white" stroke="black" points="822.5,-342.5 822.5,-361.5 965.5,-361.5 965.5,-342.5 822.5,-342.5"/>
<text text-anchor="middle" x="894" y="-349.5" font-family="Helvetica,sans-Serif" font-size="10.00">view.TurtleDraw.moveTurtle</text>
</a>
</g>
</g>
<!-- Node11&#45;&gt;Node16 -->
<g id="edge15" class="edge"><title>Node11&#45;&gt;Node16</title>
<path fill="none" stroke="midnightblue" d="M776.755,-361.593C788.579,-360.617 800.64,-359.622 812.301,-358.66"/>
<polygon fill="midnightblue" stroke="midnightblue" points="812.75,-362.135 822.428,-357.824 812.174,-355.158 812.75,-362.135"/>
</g>
<!-- Node17 -->
<g id="node17" class="node"><title>Node17</title>
<g id="a_node17"><a xlink:href="../../d7/da6/classview_1_1_turtle_draw.html#a5004a16526a67f090d7da45474b5136e" target="_top" xlink:title="view.TurtleDraw.setAngle">
<polygon fill="white" stroke="black" points="827.5,-456.5 827.5,-475.5 960.5,-475.5 960.5,-456.5 827.5,-456.5"/>
<text text-anchor="middle" x="894" y="-463.5" font-family="Helvetica,sans-Serif" font-size="10.00">view.TurtleDraw.setAngle</text>
</a>
</g>
</g>
<!-- Node11&#45;&gt;Node17 -->
<g id="edge16" class="edge"><title>Node11&#45;&gt;Node17</title>
<path fill="none" stroke="midnightblue" d="M762.26,-384.08C768.534,-386.847 774.551,-390.123 780,-394 803.203,-410.508 792.628,-430.733 816,-447 818.855,-448.987 821.897,-450.767 825.061,-452.362"/>
<polygon fill="midnightblue" stroke="midnightblue" points="823.681,-455.578 834.245,-456.382 826.487,-449.166 823.681,-455.578"/>
</g>
<!-- Node13 -->
<g id="node13" class="node"><title>Node13</title>
<g id="a_node13"><a xlink:href="../../d6/d34/classmodel_1_1_turtle.html#a942dbeb1d7e2bc19b6870538c2c3a7d2" target="_top" xlink:title="model.Turtle.getShape">
<polygon fill="white" stroke="black" points="1032.5,-396.5 1032.5,-415.5 1157.5,-415.5 1157.5,-396.5 1032.5,-396.5"/>
<text text-anchor="middle" x="1095" y="-403.5" font-family="Helvetica,sans-Serif" font-size="10.00">model.Turtle.getShape</text>
</a>
</g>
</g>
<!-- Node12&#45;&gt;Node13 -->
<g id="edge12" class="edge"><title>Node12&#45;&gt;Node13</title>
<path fill="none" stroke="midnightblue" d="M963.763,-420.398C982.619,-418.314 1003.11,-416.048 1022.13,-413.945"/>
<polygon fill="midnightblue" stroke="midnightblue" points="1022.67,-417.407 1032.23,-412.829 1021.91,-410.449 1022.67,-417.407"/>
</g>
<!-- Node14 -->
<g id="node14" class="node"><title>Node14</title>
<g id="a_node14"><a xlink:href="../../d3/db7/classview_1_1controllers_1_1_image_palette.html#a8a6620714bc12d5a00b97e99299a7040" target="_top" xlink:title="view.controllers.ImagePalette.get\lImage">
<polygon fill="white" stroke="black" points="1008,-435 1008,-465 1182,-465 1182,-435 1008,-435"/>
<text text-anchor="start" x="1016" y="-453" font-family="Helvetica,sans-Serif" font-size="10.00">view.controllers.ImagePalette.get</text>
<text text-anchor="middle" x="1095" y="-442" font-family="Helvetica,sans-Serif" font-size="10.00">Image</text>
</a>
</g>
</g>
<!-- Node12&#45;&gt;Node14 -->
<g id="edge13" class="edge"><title>Node12&#45;&gt;Node14</title>
<path fill="none" stroke="midnightblue" d="M963.763,-435.602C974.711,-436.812 986.21,-438.084 997.653,-439.349"/>
<polygon fill="midnightblue" stroke="midnightblue" points="997.356,-442.837 1007.68,-440.457 998.125,-435.879 997.356,-442.837"/>
</g>
<!-- Node20 -->
<g id="node20" class="node"><title>Node20</title>
<g id="a_node20"><a xlink:href="../../d7/da6/classview_1_1_turtle_draw.html#acb97dedda080cb5ed17031d2b31adc2c" target="_top" xlink:title="view.TurtleDraw.hideTurtle">
<polygon fill="white" stroke="black" points="825.5,-304.5 825.5,-323.5 962.5,-323.5 962.5,-304.5 825.5,-304.5"/>
<text text-anchor="middle" x="894" y="-311.5" font-family="Helvetica,sans-Serif" font-size="10.00">view.TurtleDraw.hideTurtle</text>
</a>
</g>
</g>
<!-- Node19&#45;&gt;Node20 -->
<g id="edge19" class="edge"><title>Node19&#45;&gt;Node20</title>
<path fill="none" stroke="midnightblue" d="M776.755,-317.386C789.461,-317.016 802.44,-316.638 814.902,-316.275"/>
<polygon fill="midnightblue" stroke="midnightblue" points="815.338,-319.764 825.231,-315.974 815.134,-312.767 815.338,-319.764"/>
</g>
<!-- Node21&#45;&gt;Node12 -->
<g id="edge22" class="edge"><title>Node21&#45;&gt;Node12</title>
<path fill="none" stroke="midnightblue" d="M767.98,-286.042C772.313,-288.594 776.37,-291.558 780,-295 818.559,-331.556 777.247,-372.65 816,-409 817.673,-410.569 819.454,-412.014 821.322,-413.345"/>
<polygon fill="midnightblue" stroke="midnightblue" points="819.616,-416.402 830.005,-418.478 823.178,-410.377 819.616,-416.402"/>
</g>
<!-- Node21&#45;&gt;Node15 -->
<g id="edge23" class="edge"><title>Node21&#45;&gt;Node15</title>
<path fill="none" stroke="midnightblue" d="M766.555,-286.163C771.348,-288.678 775.886,-291.601 780,-295 808.814,-318.805 787.06,-347.348 816,-371 818.052,-372.677 820.231,-374.21 822.507,-375.61"/>
<polygon fill="midnightblue" stroke="midnightblue" points="821.205,-378.878 831.693,-380.378 824.43,-372.665 821.205,-378.878"/>
</g>
<!-- Node21&#45;&gt;Node16 -->
<g id="edge36" class="edge"><title>Node21&#45;&gt;Node16</title>
<path fill="none" stroke="midnightblue" d="M761.144,-286.006C767.721,-288.555 774.11,-291.529 780,-295 800.043,-306.811 795.894,-321.296 816,-333 819.853,-335.243 823.962,-337.222 828.202,-338.969"/>
<polygon fill="midnightblue" stroke="midnightblue" points="827.05,-342.274 837.644,-342.433 829.461,-335.702 827.05,-342.274"/>
</g>
<!-- Node21&#45;&gt;Node17 -->
<g id="edge34" class="edge"><title>Node21&#45;&gt;Node17</title>
<path fill="none" stroke="midnightblue" d="M769.128,-286.267C773.066,-288.774 776.732,-291.666 780,-295 828.597,-344.579 767.14,-397.68 816,-447 817.417,-448.431 818.924,-449.76 820.505,-450.994"/>
<polygon fill="midnightblue" stroke="midnightblue" points="818.655,-453.965 828.963,-456.412 822.43,-448.071 818.655,-453.965"/>
</g>
<!-- Node21&#45;&gt;Node20 -->
<g id="edge24" class="edge"><title>Node21&#45;&gt;Node20</title>
<path fill="none" stroke="midnightblue" d="M759.049,-286.039C784.734,-291.401 813.249,-297.353 837.346,-302.383"/>
<polygon fill="midnightblue" stroke="midnightblue" points="836.878,-305.86 847.382,-304.478 838.308,-299.008 836.878,-305.86"/>
</g>
<!-- Node22 -->
<g id="node22" class="node"><title>Node22</title>
<g id="a_node22"><a xlink:href="../../d6/d34/classmodel_1_1_turtle.html#ae79a1eae7eed55d121c3b85299ae14ba" target="_top" xlink:title="model.Turtle.getID">
<polygon fill="white" stroke="black" points="842,-0.5 842,-19.5 946,-19.5 946,-0.5 842,-0.5"/>
<text text-anchor="middle" x="894" y="-7.5" font-family="Helvetica,sans-Serif" font-size="10.00">model.Turtle.getID</text>
</a>
</g>
</g>
<!-- Node21&#45;&gt;Node22 -->
<g id="edge21" class="edge"><title>Node21&#45;&gt;Node22</title>
<path fill="none" stroke="midnightblue" d="M768.173,-255.911C772.518,-253.117 776.519,-249.84 780,-246 845.652,-173.562 749.602,-100.755 816,-29 820.48,-24.1585 825.98,-20.4637 831.961,-17.6559"/>
<polygon fill="midnightblue" stroke="midnightblue" points="833.59,-20.78 841.678,-13.9365 831.088,-14.2425 833.59,-20.78"/>
</g>
<!-- Node23 -->
<g id="node23" class="node"><title>Node23</title>
<g id="a_node23"><a xlink:href="../../d6/d34/classmodel_1_1_turtle.html#a279f2bdb3fa955acdd52b7824ec3cd04" target="_top" xlink:title="model.Turtle.getPenStatus">
<polygon fill="white" stroke="black" points="822.5,-266.5 822.5,-285.5 965.5,-285.5 965.5,-266.5 822.5,-266.5"/>
<text text-anchor="middle" x="894" y="-273.5" font-family="Helvetica,sans-Serif" font-size="10.00">model.Turtle.getPenStatus</text>
</a>
</g>
</g>
<!-- Node21&#45;&gt;Node23 -->
<g id="edge25" class="edge"><title>Node21&#45;&gt;Node23</title>
<path fill="none" stroke="midnightblue" d="M780.056,-273.259C790.802,-273.519 801.695,-273.784 812.259,-274.04"/>
<polygon fill="midnightblue" stroke="midnightblue" points="812.189,-277.54 822.271,-274.283 812.359,-270.542 812.189,-277.54"/>
</g>
<!-- Node25 -->
<g id="node25" class="node"><title>Node25</title>
<g id="a_node25"><a xlink:href="../../d7/da6/classview_1_1_turtle_draw.html#a1325ca376115619f15f5014eb4c5ad2a" target="_top" xlink:title="view.TurtleDraw.drawLine">
<polygon fill="white" stroke="black" points="827.5,-228.5 827.5,-247.5 960.5,-247.5 960.5,-228.5 827.5,-228.5"/>
<text text-anchor="middle" x="894" y="-235.5" font-family="Helvetica,sans-Serif" font-size="10.00">view.TurtleDraw.drawLine</text>
</a>
</g>
</g>
<!-- Node21&#45;&gt;Node25 -->
<g id="edge27" class="edge"><title>Node21&#45;&gt;Node25</title>
<path fill="none" stroke="midnightblue" d="M780.056,-256.093C794.642,-253.756 809.496,-251.377 823.434,-249.144"/>
<polygon fill="midnightblue" stroke="midnightblue" points="824.084,-252.585 833.404,-247.547 822.977,-245.673 824.084,-252.585"/>
</g>
<!-- Node26 -->
<g id="node26" class="node"><title>Node26</title>
<g id="a_node26"><a xlink:href="../../d6/d34/classmodel_1_1_turtle.html#a832234461564763f8330181b3c1163ff" target="_top" xlink:title="model.Turtle.getPrevLocation">
<polygon fill="white" stroke="black" points="816.5,-190.5 816.5,-209.5 971.5,-209.5 971.5,-190.5 816.5,-190.5"/>
<text text-anchor="middle" x="894" y="-197.5" font-family="Helvetica,sans-Serif" font-size="10.00">model.Turtle.getPrevLocation</text>
</a>
</g>
</g>
<!-- Node21&#45;&gt;Node26 -->
<g id="edge28" class="edge"><title>Node21&#45;&gt;Node26</title>
<path fill="none" stroke="midnightblue" d="M755.156,-255.925C763.705,-253.096 772.183,-249.805 780,-246 797.982,-237.246 797.928,-227.568 816,-219 821.054,-216.604 826.444,-214.49 831.934,-212.628"/>
<polygon fill="midnightblue" stroke="midnightblue" points="833.362,-215.85 841.876,-209.545 831.288,-209.164 833.362,-215.85"/>
</g>
<!-- Node27 -->
<g id="node27" class="node"><title>Node27</title>
<g id="a_node27"><a xlink:href="../../d6/d34/classmodel_1_1_turtle.html#a2470b9b4ef48a261324047de8ebdc242" target="_top" xlink:title="model.Turtle.getNewLocation">
<polygon fill="white" stroke="black" points="816.5,-152.5 816.5,-171.5 971.5,-171.5 971.5,-152.5 816.5,-152.5"/>
<text text-anchor="middle" x="894" y="-159.5" font-family="Helvetica,sans-Serif" font-size="10.00">model.Turtle.getNewLocation</text>
</a>
</g>
</g>
<!-- Node21&#45;&gt;Node27 -->
<g id="edge29" class="edge"><title>Node21&#45;&gt;Node27</title>
<path fill="none" stroke="midnightblue" d="M764.036,-255.783C769.721,-253.043 775.128,-249.811 780,-246 806.011,-225.653 789.78,-201.076 816,-181 818.357,-179.195 820.864,-177.559 823.478,-176.077"/>
<polygon fill="midnightblue" stroke="midnightblue" points="825.24,-179.113 832.717,-171.607 822.191,-172.812 825.24,-179.113"/>
</g>
<!-- Node28 -->
<g id="node28" class="node"><title>Node28</title>
<g id="a_node28"><a xlink:href="../../d6/d34/classmodel_1_1_turtle.html#a19c059b1cbfbd4e8f046ec2403de3fb9" target="_top" xlink:title="model.Turtle.getPenDash">
<polygon fill="white" stroke="black" points="825.5,-114.5 825.5,-133.5 962.5,-133.5 962.5,-114.5 825.5,-114.5"/>
<text text-anchor="middle" x="894" y="-121.5" font-family="Helvetica,sans-Serif" font-size="10.00">model.Turtle.getPenDash</text>
</a>
</g>
</g>
<!-- Node21&#45;&gt;Node28 -->
<g id="edge30" class="edge"><title>Node21&#45;&gt;Node28</title>
<path fill="none" stroke="midnightblue" d="M766.119,-255.934C771.136,-253.151 775.835,-249.869 780,-246 815.529,-212.995 780.132,-175.635 816,-143 817.696,-141.457 819.498,-140.034 821.384,-138.722"/>
<polygon fill="midnightblue" stroke="midnightblue" points="823.231,-141.697 830.128,-133.655 819.721,-135.64 823.231,-141.697"/>
</g>
<!-- Node30 -->
<g id="node30" class="node"><title>Node30</title>
<g id="a_node30"><a xlink:href="../../d6/d34/classmodel_1_1_turtle.html#a193c156784f783064ae533b619b6be6e" target="_top" xlink:title="model.Turtle.getPenColor">
<polygon fill="white" stroke="black" points="825.5,-76.5 825.5,-95.5 962.5,-95.5 962.5,-76.5 825.5,-76.5"/>
<text text-anchor="middle" x="894" y="-83.5" font-family="Helvetica,sans-Serif" font-size="10.00">model.Turtle.getPenColor</text>
</a>
</g>
</g>
<!-- Node21&#45;&gt;Node30 -->
<g id="edge32" class="edge"><title>Node21&#45;&gt;Node30</title>
<path fill="none" stroke="midnightblue" d="M767.37,-255.818C771.968,-253.053 776.241,-249.807 780,-246 825.444,-199.979 770.083,-150.549 816,-105 817.43,-103.582 818.947,-102.264 820.538,-101.039"/>
<polygon fill="midnightblue" stroke="midnightblue" points="822.458,-103.966 829.035,-95.6596 818.713,-98.0517 822.458,-103.966"/>
</g>
<!-- Node32 -->
<g id="node32" class="node"><title>Node32</title>
<g id="a_node32"><a xlink:href="../../d6/d34/classmodel_1_1_turtle.html#a1c5d07962ede5fbfacc59413274d4300" target="_top" xlink:title="model.Turtle.getHeading">
<polygon fill="white" stroke="black" points="827,-38.5 827,-57.5 961,-57.5 961,-38.5 827,-38.5"/>
<text text-anchor="middle" x="894" y="-45.5" font-family="Helvetica,sans-Serif" font-size="10.00">model.Turtle.getHeading</text>
</a>
</g>
</g>
<!-- Node21&#45;&gt;Node32 -->
<g id="edge35" class="edge"><title>Node21&#45;&gt;Node32</title>
<path fill="none" stroke="midnightblue" d="M768.023,-255.772C772.404,-253.012 776.455,-249.78 780,-246 835.511,-186.809 759.879,-125.614 816,-67 817.244,-65.7009 818.561,-64.4849 819.941,-63.3469"/>
<polygon fill="midnightblue" stroke="midnightblue" points="822.094,-66.1175 828.458,-57.6467 818.201,-60.3003 822.094,-66.1175"/>
</g>
<!-- Node24 -->
<g id="node24" class="node"><title>Node24</title>
<g id="a_node24"><a xlink:href="../../de/ded/classmodel_1_1_pen.html#afad4fb3e51847cacab72c036ddaa108f" target="_top" xlink:title="model.Pen.getStatus">
<polygon fill="white" stroke="black" points="1036,-266.5 1036,-285.5 1154,-285.5 1154,-266.5 1036,-266.5"/>
<text text-anchor="middle" x="1095" y="-273.5" font-family="Helvetica,sans-Serif" font-size="10.00">model.Pen.getStatus</text>
</a>
</g>
</g>
<!-- Node23&#45;&gt;Node24 -->
<g id="edge26" class="edge"><title>Node23&#45;&gt;Node24</title>
<path fill="none" stroke="midnightblue" d="M965.72,-276C985.228,-276 1006.35,-276 1025.72,-276"/>
<polygon fill="midnightblue" stroke="midnightblue" points="1025.97,-279.5 1035.97,-276 1025.97,-272.5 1025.97,-279.5"/>
</g>
<!-- Node29 -->
<g id="node29" class="node"><title>Node29</title>
<g id="a_node29"><a xlink:href="../../de/ded/classmodel_1_1_pen.html#a6999f4af56377415621f193ef8600e27" target="_top" xlink:title="model.Pen.getDash">
<polygon fill="white" stroke="black" points="1039.5,-114.5 1039.5,-133.5 1150.5,-133.5 1150.5,-114.5 1039.5,-114.5"/>
<text text-anchor="middle" x="1095" y="-121.5" font-family="Helvetica,sans-Serif" font-size="10.00">model.Pen.getDash</text>
</a>
</g>
</g>
<!-- Node28&#45;&gt;Node29 -->
<g id="edge31" class="edge"><title>Node28&#45;&gt;Node29</title>
<path fill="none" stroke="midnightblue" d="M962.65,-124C984.147,-124 1007.86,-124 1029.15,-124"/>
<polygon fill="midnightblue" stroke="midnightblue" points="1029.39,-127.5 1039.39,-124 1029.39,-120.5 1029.39,-127.5"/>
</g>
<!-- Node31 -->
<g id="node31" class="node"><title>Node31</title>
<g id="a_node31"><a xlink:href="../../de/ded/classmodel_1_1_pen.html#a704af31474b10d17caf40773b7971826" target="_top" xlink:title="model.Pen.getPenColor">
<polygon fill="white" stroke="black" points="1030.5,-76.5 1030.5,-95.5 1159.5,-95.5 1159.5,-76.5 1030.5,-76.5"/>
<text text-anchor="middle" x="1095" y="-83.5" font-family="Helvetica,sans-Serif" font-size="10.00">model.Pen.getPenColor</text>
</a>
</g>
</g>
<!-- Node30&#45;&gt;Node31 -->
<g id="edge33" class="edge"><title>Node30&#45;&gt;Node31</title>
<path fill="none" stroke="midnightblue" d="M962.65,-86C981.179,-86 1001.36,-86 1020.21,-86"/>
<polygon fill="midnightblue" stroke="midnightblue" points="1020.23,-89.5001 1030.23,-86 1020.23,-82.5001 1020.23,-89.5001"/>
</g>
</g>
</svg>
        <g id="navigator" transform="translate(0 0)" fill="#404254">
                <rect fill="#f2f5e9" fill-opacity="0.5" stroke="#606060" stroke-width=".5" x="0" y="0" width="60" height="60"/>
                <use id="zoomplus" xlink:href="#zoomPlus" x="17" y="9" onmousedown="handleZoom(evt,'in')"/>
                <use id="zoomminus" xlink:href="#zoomMin" x="42" y="9" onmousedown="handleZoom(evt,'out')"/>
                <use id="reset" xlink:href="#resetDef" x="30" y="36" onmousedown="handleReset()"/>
                <g id="arrowUp" xlink:href="#dirArrow" transform="translate(30 24)" onmousedown="handlePan(0,-1)">
                  <use xlink:href="#rim" fill="#404040">
                        <set attributeName="fill" to="#808080" begin="arrowUp.mouseover" end="arrowUp.mouseout"/>
                  </use>
                  <path fill="none" stroke="white" stroke-width="1.5" d="M0,-3.0v7 M-2.5,-0.5L0,-3.0L2.5,-0.5"/>
                </g>
                <g id="arrowRight" xlink:href="#dirArrow" transform="rotate(90) translate(36 -43)" onmousedown="handlePan(1,0)">
                  <use xlink:href="#rim" fill="#404040">
                        <set attributeName="fill" to="#808080" begin="arrowRight.mouseover" end="arrowRight.mouseout"/>
                  </use>
                  <path fill="none" stroke="white" stroke-width="1.5" d="M0,-3.0v7 M-2.5,-0.5L0,-3.0L2.5,-0.5"/>
                </g>
                <g id="arrowDown" xlink:href="#dirArrow" transform="rotate(180) translate(-30 -48)" onmousedown="handlePan(0,1)">
                  <use xlink:href="#rim" fill="#404040">
                        <set attributeName="fill" to="#808080" begin="arrowDown.mouseover" end="arrowDown.mouseout"/>
                  </use>
                  <path fill="none" stroke="white" stroke-width="1.5" d="M0,-3.0v7 M-2.5,-0.5L0,-3.0L2.5,-0.5"/>
                </g>
                <g id="arrowLeft" xlink:href="#dirArrow" transform="rotate(270) translate(-36 17)" onmousedown="handlePan(-1,0)">
                  <use xlink:href="#rim" fill="#404040">
                        <set attributeName="fill" to="#808080" begin="arrowLeft.mouseover" end="arrowLeft.mouseout"/>
                  </use>
                  <path fill="none" stroke="white" stroke-width="1.5" d="M0,-3.0v7 M-2.5,-0.5L0,-3.0L2.5,-0.5"/>
                </g>
        </g>
        <svg viewBox="0 0 15 15" width="100%" height="30px" preserveAspectRatio="xMaxYMin meet">
         <g id="arrow_out" transform="scale(0.3 0.3)">
          <a xlink:href="classmodel_1_1_model_a73435cc7a2b6100031bbdd2cf6d6b4e8_cgraph_org.svg" target="_base">
           <rect id="button" ry="5" rx="5" y="6" x="6" height="38" width="38"
                fill="#f2f5e9" fill-opacity="0.5" stroke="#606060" stroke-width="1.0"/>
           <path id="arrow"
             d="M 11.500037,31.436501 C 11.940474,20.09759 22.043105,11.32322 32.158766,21.979434 L 37.068811,17.246167 C 37.068811,17.246167 37.088388,32 37.088388,32 L 22.160133,31.978069 C 22.160133,31.978069 26.997745,27.140456 26.997745,27.140456 C 18.528582,18.264221 13.291696,25.230495 11.500037,31.436501 z"
             style="fill:#404040;"/>
          </a>
         </g>
        </svg>
</svg>
