<?xml version="1.0" encoding="UTF-8" standalone="no"?>
<!DOCTYPE svg PUBLIC "-//W3C//DTD SVG 1.1//EN"
 "http://www.w3.org/Graphics/SVG/1.1/DTD/svg11.dtd">
<!-- Generated by graphviz version 2.36.0 (20140111.2315)
 -->
<!-- Title: model.Model.getVariableManager Pages: 1 -->
<svg width="452pt" height="234pt"
 viewBox="0.00 0.00 452.00 234.00" xmlns="http://www.w3.org/2000/svg" xmlns:xlink="http://www.w3.org/1999/xlink">
<g id="graph0" class="graph" transform="scale(1 1) rotate(0) translate(4 230)">
<title>model.Model.getVariableManager</title>
<polygon fill="white" stroke="none" points="-4,4 -4,-230 448,-230 448,4 -4,4"/>
<!-- Node1 -->
<g id="node1" class="node"><title>Node1</title>
<polygon fill="#bfbfbf" stroke="black" points="0.5,-103.5 0.5,-122.5 177.5,-122.5 177.5,-103.5 0.5,-103.5"/>
<text text-anchor="middle" x="89" y="-110.5" font-family="Helvetica,sans-Serif" font-size="10.00">model.Model.getVariableManager</text>
</g>
<!-- Node2 -->
<g id="node2" class="node"><title>Node2</title>
<g id="a_node2"><a xlink:href="../../dc/d68/classcommands_1_1_make_variable_command.html#ad0e0974744cc969c12c67805c2460ef4" target="_top" xlink:title="commands.MakeVariableCommand.execute\lCommand">
<polygon fill="white" stroke="black" points="214.5,-196 214.5,-226 443.5,-226 443.5,-196 214.5,-196"/>
<text text-anchor="start" x="222.5" y="-214" font-family="Helvetica,sans-Serif" font-size="10.00">commands.MakeVariableCommand.execute</text>
<text text-anchor="middle" x="329" y="-203" font-family="Helvetica,sans-Serif" font-size="10.00">Command</text>
</a>
</g>
</g>
<!-- Node1&#45;&gt;Node2 -->
<g id="edge1" class="edge"><title>Node1&#45;&gt;Node2</title>
<path fill="none" stroke="midnightblue" d="M111.351,-128.428C135.244,-144.991 175.646,-170.948 214,-186 223.714,-189.812 234.133,-193.102 244.58,-195.926"/>
<polygon fill="midnightblue" stroke="midnightblue" points="113.234,-125.473 103.042,-122.582 109.207,-131.198 113.234,-125.473"/>
</g>
<!-- Node3 -->
<g id="node3" class="node"><title>Node3</title>
<g id="a_node3"><a xlink:href="../../d4/d02/classcommands_1_1_do_times_command.html#a1dd20e90975d905a1bce8f018e9f7f0a" target="_top" xlink:title="commands.DoTimesCommand.execute\lCommand">
<polygon fill="white" stroke="black" points="225.5,-147 225.5,-177 432.5,-177 432.5,-147 225.5,-147"/>
<text text-anchor="start" x="233.5" y="-165" font-family="Helvetica,sans-Serif" font-size="10.00">commands.DoTimesCommand.execute</text>
<text text-anchor="middle" x="329" y="-154" font-family="Helvetica,sans-Serif" font-size="10.00">Command</text>
</a>
</g>
</g>
<!-- Node1&#45;&gt;Node3 -->
<g id="edge2" class="edge"><title>Node1&#45;&gt;Node3</title>
<path fill="none" stroke="midnightblue" d="M146.375,-124.607C178.799,-131.282 219.898,-139.744 254.797,-146.929"/>
<polygon fill="midnightblue" stroke="midnightblue" points="146.671,-121.094 136.171,-122.506 145.26,-127.95 146.671,-121.094"/>
</g>
<!-- Node4 -->
<g id="node4" class="node"><title>Node4</title>
<g id="a_node4"><a xlink:href="../../d8/d57/classcommands_1_1_for_command.html#aeb06a37d7f9845eb546425bae6ea9f58" target="_top" xlink:title="commands.ForCommand.execute\lCommand">
<polygon fill="white" stroke="black" points="239,-98 239,-128 419,-128 419,-98 239,-98"/>
<text text-anchor="start" x="247" y="-116" font-family="Helvetica,sans-Serif" font-size="10.00">commands.ForCommand.execute</text>
<text text-anchor="middle" x="329" y="-105" font-family="Helvetica,sans-Serif" font-size="10.00">Command</text>
</a>
</g>
</g>
<!-- Node1&#45;&gt;Node4 -->
<g id="edge3" class="edge"><title>Node1&#45;&gt;Node4</title>
<path fill="none" stroke="midnightblue" d="M188.029,-113C204.905,-113 222.362,-113 238.984,-113"/>
<polygon fill="midnightblue" stroke="midnightblue" points="187.609,-109.5 177.608,-113 187.608,-116.5 187.609,-109.5"/>
</g>
<!-- Node5 -->
<g id="node5" class="node"><title>Node5</title>
<g id="a_node5"><a xlink:href="../../dd/de4/classcommands_1_1_custom_command.html#a5ad25438a49d3e4eeba835fefe8b730a" target="_top" xlink:title="commands.CustomCommand.execute\lCommand">
<polygon fill="white" stroke="black" points="227.5,-49 227.5,-79 430.5,-79 430.5,-49 227.5,-49"/>
<text text-anchor="start" x="235.5" y="-67" font-family="Helvetica,sans-Serif" font-size="10.00">commands.CustomCommand.execute</text>
<text text-anchor="middle" x="329" y="-56" font-family="Helvetica,sans-Serif" font-size="10.00">Command</text>
</a>
</g>
</g>
<!-- Node1&#45;&gt;Node5 -->
<g id="edge4" class="edge"><title>Node1&#45;&gt;Node5</title>
<path fill="none" stroke="midnightblue" d="M146.375,-101.393C178.799,-94.7178 219.898,-86.2562 254.797,-79.0713"/>
<polygon fill="midnightblue" stroke="midnightblue" points="145.26,-98.0495 136.171,-103.494 146.671,-104.906 145.26,-98.0495"/>
</g>
<!-- Node6 -->
<g id="node6" class="node"><title>Node6</title>
<g id="a_node6"><a xlink:href="../../d9/de1/classcommands_1_1_variable_command.html#ad55454b0592995d9496a7785121a34c7" target="_top" xlink:title="commands.VariableCommand.execute\lCommand">
<polygon fill="white" stroke="black" points="227.5,-0 227.5,-30 430.5,-30 430.5,-0 227.5,-0"/>
<text text-anchor="start" x="235.5" y="-18" font-family="Helvetica,sans-Serif" font-size="10.00">commands.VariableCommand.execute</text>
<text text-anchor="middle" x="329" y="-7" font-family="Helvetica,sans-Serif" font-size="10.00">Command</text>
</a>
</g>
</g>
<!-- Node1&#45;&gt;Node6 -->
<g id="edge5" class="edge"><title>Node1&#45;&gt;Node6</title>
<path fill="none" stroke="midnightblue" d="M111.351,-97.5724C135.244,-81.009 175.646,-55.0518 214,-40 223.714,-36.1879 234.133,-32.8978 244.58,-30.074"/>
<polygon fill="midnightblue" stroke="midnightblue" points="109.207,-94.8018 103.042,-103.418 113.234,-100.527 109.207,-94.8018"/>
</g>
</g>
</svg>
