<?xml version="1.0" encoding="UTF-8" standalone="no"?>
<!DOCTYPE svg PUBLIC "-//W3C//DTD SVG 1.1//EN"
 "http://www.w3.org/Graphics/SVG/1.1/DTD/svg11.dtd">
<!-- Generated by graphviz version 2.36.0 (20140111.2315)
 -->
<!-- Title: model.Model.notifyView Pages: 1 -->
<svg width="1010pt" height="704pt"
 viewBox="0.00 0.00 1010.00 704.00" xmlns="http://www.w3.org/2000/svg" xmlns:xlink="http://www.w3.org/1999/xlink">
<g id="graph0" class="graph" transform="scale(1 1) rotate(0) translate(4 700)">
<title>model.Model.notifyView</title>
<polygon fill="white" stroke="none" points="-4,4 -4,-700 1006,-700 1006,4 -4,4"/>
<!-- Node1 -->
<g id="node1" class="node"><title>Node1</title>
<polygon fill="#bfbfbf" stroke="black" points="0.5,-447.5 0.5,-466.5 129.5,-466.5 129.5,-447.5 0.5,-447.5"/>
<text text-anchor="middle" x="65" y="-454.5" font-family="Helvetica,sans-Serif" font-size="10.00">model.Model.notifyView</text>
</g>
<!-- Node2 -->
<g id="node2" class="node"><title>Node2</title>
<g id="a_node2"><a xlink:href="../../db/db5/classview_1_1panes_1_1_view_pane_module.html#aa2a1bf15bc036ee4237bf63749d85baf" target="_top" xlink:title="view.panes.ViewPaneModule.updateView">
<polygon fill="white" stroke="black" points="166.5,-447.5 166.5,-466.5 375.5,-466.5 375.5,-447.5 166.5,-447.5"/>
<text text-anchor="middle" x="271" y="-454.5" font-family="Helvetica,sans-Serif" font-size="10.00">view.panes.ViewPaneModule.updateView</text>
</a>
</g>
</g>
<!-- Node1&#45;&gt;Node2 -->
<g id="edge1" class="edge"><title>Node1&#45;&gt;Node2</title>
<path fill="none" stroke="midnightblue" d="M129.708,-457C138.202,-457 147.11,-457 156.144,-457"/>
<polygon fill="midnightblue" stroke="midnightblue" points="156.382,-460.5 166.382,-457 156.382,-453.5 156.382,-460.5"/>
</g>
<!-- Node3 -->
<g id="node3" class="node"><title>Node3</title>
<g id="a_node3"><a xlink:href="../../d3/d42/classmodel_1_1_model.html#a54936407d7df5ab8ef3c0ae54bcdc0ed" target="_top" xlink:title="model.Model.getBackground\lColor">
<polygon fill="white" stroke="black" points="429,-666 429,-696 583,-696 583,-666 429,-666"/>
<text text-anchor="start" x="437" y="-684" font-family="Helvetica,sans-Serif" font-size="10.00">model.Model.getBackground</text>
<text text-anchor="middle" x="506" y="-673" font-family="Helvetica,sans-Serif" font-size="10.00">Color</text>
</a>
</g>
</g>
<!-- Node2&#45;&gt;Node3 -->
<g id="edge2" class="edge"><title>Node2&#45;&gt;Node3</title>
<path fill="none" stroke="midnightblue" d="M275.895,-466.674C289.411,-498.969 337.568,-603.96 412,-656 414.74,-657.916 417.62,-659.685 420.601,-661.319"/>
<polygon fill="midnightblue" stroke="midnightblue" points="419.287,-664.572 429.808,-665.824 422.364,-658.285 419.287,-664.572"/>
</g>
<!-- Node4 -->
<g id="node4" class="node"><title>Node4</title>
<g id="a_node4"><a xlink:href="../../db/db5/classview_1_1panes_1_1_view_pane_module.html#ac94ee444587349ddad19b8caee500c9c" target="_top" xlink:title="view.panes.ViewPaneModule.update\lBGColor">
<polygon fill="white" stroke="black" points="412,-617 412,-647 600,-647 600,-617 412,-617"/>
<text text-anchor="start" x="420" y="-635" font-family="Helvetica,sans-Serif" font-size="10.00">view.panes.ViewPaneModule.update</text>
<text text-anchor="middle" x="506" y="-624" font-family="Helvetica,sans-Serif" font-size="10.00">BGColor</text>
</a>
</g>
</g>
<!-- Node2&#45;&gt;Node4 -->
<g id="edge3" class="edge"><title>Node2&#45;&gt;Node4</title>
<path fill="none" stroke="midnightblue" d="M278.222,-466.817C295.764,-493.662 348.496,-568.827 412,-607 415.627,-609.18 419.446,-611.174 423.384,-612.996"/>
<polygon fill="midnightblue" stroke="midnightblue" points="422.178,-616.286 432.752,-616.945 424.897,-609.836 422.178,-616.286"/>
</g>
<!-- Node5 -->
<g id="node5" class="node"><title>Node5</title>
<g id="a_node5"><a xlink:href="../../db/db5/classview_1_1panes_1_1_view_pane_module.html#abe91f8bb732e99d762bdaba51ceae04b" target="_top" xlink:title="view.panes.ViewPaneModule.toRGB">
<polygon fill="white" stroke="black" points="414,-578.5 414,-597.5 598,-597.5 598,-578.5 414,-578.5"/>
<text text-anchor="middle" x="506" y="-585.5" font-family="Helvetica,sans-Serif" font-size="10.00">view.panes.ViewPaneModule.toRGB</text>
</a>
</g>
</g>
<!-- Node2&#45;&gt;Node5 -->
<g id="edge4" class="edge"><title>Node2&#45;&gt;Node5</title>
<path fill="none" stroke="midnightblue" d="M280.764,-466.612C301.35,-488.55 355.346,-542.457 412,-569 417.354,-571.508 423.033,-573.686 428.842,-575.578"/>
<polygon fill="midnightblue" stroke="midnightblue" points="428.123,-579.015 438.705,-578.499 430.111,-572.303 428.123,-579.015"/>
</g>
<!-- Node6 -->
<g id="node6" class="node"><title>Node6</title>
<g id="a_node6"><a xlink:href="../../d3/d42/classmodel_1_1_model.html#a1a683ba5e58fcb3c8882c8e61df20dc0" target="_top" xlink:title="model.Model.getTurtleManager">
<polygon fill="white" stroke="black" points="424,-540.5 424,-559.5 588,-559.5 588,-540.5 424,-540.5"/>
<text text-anchor="middle" x="506" y="-547.5" font-family="Helvetica,sans-Serif" font-size="10.00">model.Model.getTurtleManager</text>
</a>
</g>
</g>
<!-- Node2&#45;&gt;Node6 -->
<g id="edge5" class="edge"><title>Node2&#45;&gt;Node6</title>
<path fill="none" stroke="midnightblue" d="M286.921,-466.508C311.867,-482.002 364.041,-512.698 412,-530 420.556,-533.087 429.736,-535.771 438.874,-538.083"/>
<polygon fill="midnightblue" stroke="midnightblue" points="438.202,-541.521 448.743,-540.448 439.833,-534.714 438.202,-541.521"/>
</g>
<!-- Node7 -->
<g id="node7" class="node"><title>Node7</title>
<g id="a_node7"><a xlink:href="../../df/d50/classmodel_1_1_turtle_set_manager.html#a9a65c0be3b9c21abaf0ebaa54e5b8484" target="_top" xlink:title="model.TurtleSetManager.get\lActiveTurtles">
<polygon fill="white" stroke="black" points="430,-491 430,-521 582,-521 582,-491 430,-491"/>
<text text-anchor="start" x="438" y="-509" font-family="Helvetica,sans-Serif" font-size="10.00">model.TurtleSetManager.get</text>
<text text-anchor="middle" x="506" y="-498" font-family="Helvetica,sans-Serif" font-size="10.00">ActiveTurtles</text>
</a>
</g>
</g>
<!-- Node2&#45;&gt;Node7 -->
<g id="edge6" class="edge"><title>Node2&#45;&gt;Node7</title>
<path fill="none" stroke="midnightblue" d="M317.201,-466.506C347.322,-472.84 387.774,-481.347 423.42,-488.844"/>
<polygon fill="midnightblue" stroke="midnightblue" points="422.828,-492.296 433.335,-490.929 424.269,-485.446 422.828,-492.296"/>
</g>
<!-- Node8 -->
<g id="node8" class="node"><title>Node8</title>
<g id="a_node8"><a xlink:href="../../df/d50/classmodel_1_1_turtle_set_manager.html#a9e215e93eccbed2ab9ebec6119cfe305" target="_top" xlink:title="model.TurtleSetManager.get\lAllTurtles">
<polygon fill="white" stroke="black" points="430,-442 430,-472 582,-472 582,-442 430,-442"/>
<text text-anchor="start" x="438" y="-460" font-family="Helvetica,sans-Serif" font-size="10.00">model.TurtleSetManager.get</text>
<text text-anchor="middle" x="506" y="-449" font-family="Helvetica,sans-Serif" font-size="10.00">AllTurtles</text>
</a>
</g>
</g>
<!-- Node2&#45;&gt;Node8 -->
<g id="edge7" class="edge"><title>Node2&#45;&gt;Node8</title>
<path fill="none" stroke="midnightblue" d="M375.554,-457C390.224,-457 405.172,-457 419.451,-457"/>
<polygon fill="midnightblue" stroke="midnightblue" points="419.716,-460.5 429.716,-457 419.716,-453.5 419.716,-460.5"/>
</g>
<!-- Node9 -->
<g id="node9" class="node"><title>Node9</title>
<g id="a_node9"><a xlink:href="../../d3/d42/classmodel_1_1_model.html#af73e838aed2c068e8f7d31bfa1cc88d7" target="_top" xlink:title="model.Model.getStamp">
<polygon fill="white" stroke="black" points="441.5,-403.5 441.5,-422.5 570.5,-422.5 570.5,-403.5 441.5,-403.5"/>
<text text-anchor="middle" x="506" y="-410.5" font-family="Helvetica,sans-Serif" font-size="10.00">model.Model.getStamp</text>
</a>
</g>
</g>
<!-- Node2&#45;&gt;Node9 -->
<g id="edge8" class="edge"><title>Node2&#45;&gt;Node9</title>
<path fill="none" stroke="midnightblue" d="M322.558,-447.453C358.433,-440.678 406.75,-431.554 444.647,-424.397"/>
<polygon fill="midnightblue" stroke="midnightblue" points="445.364,-427.824 454.541,-422.529 444.065,-420.945 445.364,-427.824"/>
</g>
<!-- Node10 -->
<g id="node10" class="node"><title>Node10</title>
<g id="a_node10"><a xlink:href="../../db/db5/classview_1_1panes_1_1_view_pane_module.html#a44db6ae832af3ce470baa9406142b8cb" target="_top" xlink:title="view.panes.ViewPaneModule.make\lStamps">
<polygon fill="white" stroke="black" points="415.5,-354 415.5,-384 596.5,-384 596.5,-354 415.5,-354"/>
<text text-anchor="start" x="423.5" y="-372" font-family="Helvetica,sans-Serif" font-size="10.00">view.panes.ViewPaneModule.make</text>
<text text-anchor="middle" x="506" y="-361" font-family="Helvetica,sans-Serif" font-size="10.00">Stamps</text>
</a>
</g>
</g>
<!-- Node2&#45;&gt;Node10 -->
<g id="edge9" class="edge"><title>Node2&#45;&gt;Node10</title>
<path fill="none" stroke="midnightblue" d="M290.626,-447.459C317.087,-434.174 367.317,-409.944 412,-394 418.929,-391.528 426.223,-389.167 433.552,-386.952"/>
<polygon fill="midnightblue" stroke="midnightblue" points="434.926,-390.197 443.538,-384.026 432.957,-383.479 434.926,-390.197"/>
</g>
<!-- Node17 -->
<g id="node17" class="node"><title>Node17</title>
<g id="a_node17"><a xlink:href="../../d3/d42/classmodel_1_1_model.html#a0a457f31350a460e11dc864463e0d8ff" target="_top" xlink:title="model.Model.setStamp">
<polygon fill="white" stroke="black" points="442,-217.5 442,-236.5 570,-236.5 570,-217.5 442,-217.5"/>
<text text-anchor="middle" x="506" y="-224.5" font-family="Helvetica,sans-Serif" font-size="10.00">model.Model.setStamp</text>
</a>
</g>
</g>
<!-- Node2&#45;&gt;Node17 -->
<g id="edge16" class="edge"><title>Node2&#45;&gt;Node17</title>
<path fill="none" stroke="midnightblue" d="M275.419,-447.044C287.728,-412.804 333.268,-299.088 412,-246 418.106,-241.883 424.914,-238.624 431.993,-236.05"/>
<polygon fill="midnightblue" stroke="midnightblue" points="433.3,-239.307 441.773,-232.947 431.183,-232.635 433.3,-239.307"/>
</g>
<!-- Node18 -->
<g id="node18" class="node"><title>Node18</title>
<g id="a_node18"><a xlink:href="../../db/db5/classview_1_1panes_1_1_view_pane_module.html#a7ad9ad27137ffdf0ea96753a22da236b" target="_top" xlink:title="view.panes.ViewPaneModule.erase\lStamps">
<polygon fill="white" stroke="black" points="415.5,-305 415.5,-335 596.5,-335 596.5,-305 415.5,-305"/>
<text text-anchor="start" x="423.5" y="-323" font-family="Helvetica,sans-Serif" font-size="10.00">view.panes.ViewPaneModule.erase</text>
<text text-anchor="middle" x="506" y="-312" font-family="Helvetica,sans-Serif" font-size="10.00">Stamps</text>
</a>
</g>
</g>
<!-- Node2&#45;&gt;Node18 -->
<g id="edge17" class="edge"><title>Node2&#45;&gt;Node18</title>
<path fill="none" stroke="midnightblue" d="M280.842,-447.498C301.592,-425.778 355.907,-372.199 412,-344 415.771,-342.104 419.706,-340.349 423.735,-338.724"/>
<polygon fill="midnightblue" stroke="midnightblue" points="425.127,-341.941 433.274,-335.167 422.681,-335.382 425.127,-341.941"/>
</g>
<!-- Node20 -->
<g id="node20" class="node"><title>Node20</title>
<g id="a_node20"><a xlink:href="../../db/db5/classview_1_1panes_1_1_view_pane_module.html#ab55ce3511929b88a2cd1235eb694868f" target="_top" xlink:title="view.panes.ViewPaneModule.update\lTurtle">
<polygon fill="white" stroke="black" points="412,-256 412,-286 600,-286 600,-256 412,-256"/>
<text text-anchor="start" x="420" y="-274" font-family="Helvetica,sans-Serif" font-size="10.00">view.panes.ViewPaneModule.update</text>
<text text-anchor="middle" x="506" y="-263" font-family="Helvetica,sans-Serif" font-size="10.00">Turtle</text>
</a>
</g>
</g>
<!-- Node2&#45;&gt;Node20 -->
<g id="edge19" class="edge"><title>Node2&#45;&gt;Node20</title>
<path fill="none" stroke="midnightblue" d="M277.511,-447.174C293.955,-418.802 345.669,-336.156 412,-295 414.763,-293.286 417.645,-291.693 420.611,-290.214"/>
<polygon fill="midnightblue" stroke="midnightblue" points="422.048,-293.405 429.729,-286.108 419.174,-287.023 422.048,-293.405"/>
</g>
<!-- Node11 -->
<g id="node11" class="node"><title>Node11</title>
<g id="a_node11"><a xlink:href="../../d7/da6/classview_1_1_turtle_draw.html#a939f4fdbdb66457c9dcee82eb4ae6d9c" target="_top" xlink:title="view.TurtleDraw.drawTurtle">
<polygon fill="white" stroke="black" points="644.5,-418.5 644.5,-437.5 783.5,-437.5 783.5,-418.5 644.5,-418.5"/>
<text text-anchor="middle" x="714" y="-425.5" font-family="Helvetica,sans-Serif" font-size="10.00">view.TurtleDraw.drawTurtle</text>
</a>
</g>
</g>
<!-- Node10&#45;&gt;Node11 -->
<g id="edge10" class="edge"><title>Node10&#45;&gt;Node11</title>
<path fill="none" stroke="midnightblue" d="M567.881,-384.125C578.656,-387.154 589.714,-390.492 600,-394 616.405,-399.595 619.538,-403.575 636,-409 643.624,-411.512 651.768,-413.866 659.801,-416.003"/>
<polygon fill="midnightblue" stroke="midnightblue" points="658.945,-419.396 669.501,-418.497 660.688,-412.617 658.945,-419.396"/>
</g>
<!-- Node14 -->
<g id="node14" class="node"><title>Node14</title>
<g id="a_node14"><a xlink:href="../../d7/da6/classview_1_1_turtle_draw.html#a14678068d3fc9d3b6e1067bc372f6030" target="_top" xlink:title="view.TurtleDraw.showTurtle">
<polygon fill="white" stroke="black" points="644,-380.5 644,-399.5 784,-399.5 784,-380.5 644,-380.5"/>
<text text-anchor="middle" x="714" y="-387.5" font-family="Helvetica,sans-Serif" font-size="10.00">view.TurtleDraw.showTurtle</text>
</a>
</g>
</g>
<!-- Node10&#45;&gt;Node14 -->
<g id="edge13" class="edge"><title>Node10&#45;&gt;Node14</title>
<path fill="none" stroke="midnightblue" d="M596.755,-378.15C609.122,-379.411 621.748,-380.698 633.904,-381.937"/>
<polygon fill="midnightblue" stroke="midnightblue" points="633.685,-385.433 643.989,-382.965 634.395,-378.469 633.685,-385.433"/>
</g>
<!-- Node15 -->
<g id="node15" class="node"><title>Node15</title>
<g id="a_node15"><a xlink:href="../../d7/da6/classview_1_1_turtle_draw.html#a8c2cab38eb294b26aea1ae17595ba2a6" target="_top" xlink:title="view.TurtleDraw.moveTurtle">
<polygon fill="white" stroke="black" points="642.5,-342.5 642.5,-361.5 785.5,-361.5 785.5,-342.5 642.5,-342.5"/>
<text text-anchor="middle" x="714" y="-349.5" font-family="Helvetica,sans-Serif" font-size="10.00">view.TurtleDraw.moveTurtle</text>
</a>
</g>
</g>
<!-- Node10&#45;&gt;Node15 -->
<g id="edge14" class="edge"><title>Node10&#45;&gt;Node15</title>
<path fill="none" stroke="midnightblue" d="M596.755,-361.593C608.579,-360.617 620.64,-359.622 632.301,-358.66"/>
<polygon fill="midnightblue" stroke="midnightblue" points="632.75,-362.135 642.428,-357.824 632.174,-355.158 632.75,-362.135"/>
</g>
<!-- Node16 -->
<g id="node16" class="node"><title>Node16</title>
<g id="a_node16"><a xlink:href="../../d7/da6/classview_1_1_turtle_draw.html#a5004a16526a67f090d7da45474b5136e" target="_top" xlink:title="view.TurtleDraw.setAngle">
<polygon fill="white" stroke="black" points="647.5,-456.5 647.5,-475.5 780.5,-475.5 780.5,-456.5 647.5,-456.5"/>
<text text-anchor="middle" x="714" y="-463.5" font-family="Helvetica,sans-Serif" font-size="10.00">view.TurtleDraw.setAngle</text>
</a>
</g>
</g>
<!-- Node10&#45;&gt;Node16 -->
<g id="edge15" class="edge"><title>Node10&#45;&gt;Node16</title>
<path fill="none" stroke="midnightblue" d="M582.26,-384.08C588.534,-386.847 594.551,-390.123 600,-394 623.203,-410.508 612.628,-430.733 636,-447 638.855,-448.987 641.897,-450.767 645.061,-452.362"/>
<polygon fill="midnightblue" stroke="midnightblue" points="643.681,-455.578 654.245,-456.382 646.487,-449.166 643.681,-455.578"/>
</g>
<!-- Node12 -->
<g id="node12" class="node"><title>Node12</title>
<g id="a_node12"><a xlink:href="../../d6/d34/classmodel_1_1_turtle.html#a942dbeb1d7e2bc19b6870538c2c3a7d2" target="_top" xlink:title="model.Turtle.getShape">
<polygon fill="white" stroke="black" points="852.5,-396.5 852.5,-415.5 977.5,-415.5 977.5,-396.5 852.5,-396.5"/>
<text text-anchor="middle" x="915" y="-403.5" font-family="Helvetica,sans-Serif" font-size="10.00">model.Turtle.getShape</text>
</a>
</g>
</g>
<!-- Node11&#45;&gt;Node12 -->
<g id="edge11" class="edge"><title>Node11&#45;&gt;Node12</title>
<path fill="none" stroke="midnightblue" d="M783.763,-420.398C802.619,-418.314 823.107,-416.048 842.131,-413.945"/>
<polygon fill="midnightblue" stroke="midnightblue" points="842.674,-417.407 852.229,-412.829 841.905,-410.449 842.674,-417.407"/>
</g>
<!-- Node13 -->
<g id="node13" class="node"><title>Node13</title>
<g id="a_node13"><a xlink:href="../../d3/db7/classview_1_1controllers_1_1_image_palette.html#a8a6620714bc12d5a00b97e99299a7040" target="_top" xlink:title="view.controllers.ImagePalette.get\lImage">
<polygon fill="white" stroke="black" points="828,-435 828,-465 1002,-465 1002,-435 828,-435"/>
<text text-anchor="start" x="836" y="-453" font-family="Helvetica,sans-Serif" font-size="10.00">view.controllers.ImagePalette.get</text>
<text text-anchor="middle" x="915" y="-442" font-family="Helvetica,sans-Serif" font-size="10.00">Image</text>
</a>
</g>
</g>
<!-- Node11&#45;&gt;Node13 -->
<g id="edge12" class="edge"><title>Node11&#45;&gt;Node13</title>
<path fill="none" stroke="midnightblue" d="M783.763,-435.602C794.711,-436.812 806.21,-438.084 817.653,-439.349"/>
<polygon fill="midnightblue" stroke="midnightblue" points="817.356,-442.837 827.68,-440.457 818.125,-435.879 817.356,-442.837"/>
</g>
<!-- Node19 -->
<g id="node19" class="node"><title>Node19</title>
<g id="a_node19"><a xlink:href="../../d7/da6/classview_1_1_turtle_draw.html#acb97dedda080cb5ed17031d2b31adc2c" target="_top" xlink:title="view.TurtleDraw.hideTurtle">
<polygon fill="white" stroke="black" points="645.5,-304.5 645.5,-323.5 782.5,-323.5 782.5,-304.5 645.5,-304.5"/>
<text text-anchor="middle" x="714" y="-311.5" font-family="Helvetica,sans-Serif" font-size="10.00">view.TurtleDraw.hideTurtle</text>
</a>
</g>
</g>
<!-- Node18&#45;&gt;Node19 -->
<g id="edge18" class="edge"><title>Node18&#45;&gt;Node19</title>
<path fill="none" stroke="midnightblue" d="M596.755,-317.386C609.461,-317.016 622.44,-316.638 634.902,-316.275"/>
<polygon fill="midnightblue" stroke="midnightblue" points="635.338,-319.764 645.231,-315.974 635.134,-312.767 635.338,-319.764"/>
</g>
<!-- Node20&#45;&gt;Node11 -->
<g id="edge21" class="edge"><title>Node20&#45;&gt;Node11</title>
<path fill="none" stroke="midnightblue" d="M587.98,-286.042C592.313,-288.594 596.37,-291.558 600,-295 638.559,-331.556 597.247,-372.65 636,-409 637.673,-410.569 639.454,-412.014 641.322,-413.345"/>
<polygon fill="midnightblue" stroke="midnightblue" points="639.616,-416.402 650.005,-418.478 643.178,-410.377 639.616,-416.402"/>
</g>
<!-- Node20&#45;&gt;Node14 -->
<g id="edge22" class="edge"><title>Node20&#45;&gt;Node14</title>
<path fill="none" stroke="midnightblue" d="M586.555,-286.163C591.348,-288.678 595.886,-291.601 600,-295 628.814,-318.805 607.06,-347.348 636,-371 638.052,-372.677 640.231,-374.21 642.507,-375.61"/>
<polygon fill="midnightblue" stroke="midnightblue" points="641.205,-378.878 651.693,-380.378 644.43,-372.665 641.205,-378.878"/>
</g>
<!-- Node20&#45;&gt;Node15 -->
<g id="edge35" class="edge"><title>Node20&#45;&gt;Node15</title>
<path fill="none" stroke="midnightblue" d="M581.144,-286.006C587.721,-288.555 594.11,-291.529 600,-295 620.043,-306.811 615.894,-321.296 636,-333 639.853,-335.243 643.962,-337.222 648.202,-338.969"/>
<polygon fill="midnightblue" stroke="midnightblue" points="647.05,-342.274 657.644,-342.433 649.461,-335.702 647.05,-342.274"/>
</g>
<!-- Node20&#45;&gt;Node16 -->
<g id="edge33" class="edge"><title>Node20&#45;&gt;Node16</title>
<path fill="none" stroke="midnightblue" d="M589.128,-286.267C593.066,-288.774 596.732,-291.666 600,-295 648.597,-344.579 587.14,-397.68 636,-447 637.417,-448.431 638.924,-449.76 640.505,-450.994"/>
<polygon fill="midnightblue" stroke="midnightblue" points="638.655,-453.965 648.963,-456.412 642.43,-448.071 638.655,-453.965"/>
</g>
<!-- Node20&#45;&gt;Node19 -->
<g id="edge23" class="edge"><title>Node20&#45;&gt;Node19</title>
<path fill="none" stroke="midnightblue" d="M579.049,-286.039C604.734,-291.401 633.249,-297.353 657.346,-302.383"/>
<polygon fill="midnightblue" stroke="midnightblue" points="656.878,-305.86 667.382,-304.478 658.308,-299.008 656.878,-305.86"/>
</g>
<!-- Node21 -->
<g id="node21" class="node"><title>Node21</title>
<g id="a_node21"><a xlink:href="../../d6/d34/classmodel_1_1_turtle.html#ae79a1eae7eed55d121c3b85299ae14ba" target="_top" xlink:title="model.Turtle.getID">
<polygon fill="white" stroke="black" points="662,-0.5 662,-19.5 766,-19.5 766,-0.5 662,-0.5"/>
<text text-anchor="middle" x="714" y="-7.5" font-family="Helvetica,sans-Serif" font-size="10.00">model.Turtle.getID</text>
</a>
</g>
</g>
<!-- Node20&#45;&gt;Node21 -->
<g id="edge20" class="edge"><title>Node20&#45;&gt;Node21</title>
<path fill="none" stroke="midnightblue" d="M588.173,-255.911C592.518,-253.117 596.519,-249.84 600,-246 665.652,-173.562 569.602,-100.755 636,-29 640.48,-24.1585 645.98,-20.4637 651.961,-17.6559"/>
<polygon fill="midnightblue" stroke="midnightblue" points="653.59,-20.78 661.678,-13.9365 651.088,-14.2425 653.59,-20.78"/>
</g>
<!-- Node22 -->
<g id="node22" class="node"><title>Node22</title>
<g id="a_node22"><a xlink:href="../../d6/d34/classmodel_1_1_turtle.html#a279f2bdb3fa955acdd52b7824ec3cd04" target="_top" xlink:title="model.Turtle.getPenStatus">
<polygon fill="white" stroke="black" points="642.5,-266.5 642.5,-285.5 785.5,-285.5 785.5,-266.5 642.5,-266.5"/>
<text text-anchor="middle" x="714" y="-273.5" font-family="Helvetica,sans-Serif" font-size="10.00">model.Turtle.getPenStatus</text>
</a>
</g>
</g>
<!-- Node20&#45;&gt;Node22 -->
<g id="edge24" class="edge"><title>Node20&#45;&gt;Node22</title>
<path fill="none" stroke="midnightblue" d="M600.056,-273.259C610.802,-273.519 621.695,-273.784 632.259,-274.04"/>
<polygon fill="midnightblue" stroke="midnightblue" points="632.189,-277.54 642.271,-274.283 632.359,-270.542 632.189,-277.54"/>
</g>
<!-- Node24 -->
<g id="node24" class="node"><title>Node24</title>
<g id="a_node24"><a xlink:href="../../d7/da6/classview_1_1_turtle_draw.html#a1325ca376115619f15f5014eb4c5ad2a" target="_top" xlink:title="view.TurtleDraw.drawLine">
<polygon fill="white" stroke="black" points="647.5,-228.5 647.5,-247.5 780.5,-247.5 780.5,-228.5 647.5,-228.5"/>
<text text-anchor="middle" x="714" y="-235.5" font-family="Helvetica,sans-Serif" font-size="10.00">view.TurtleDraw.drawLine</text>
</a>
</g>
</g>
<!-- Node20&#45;&gt;Node24 -->
<g id="edge26" class="edge"><title>Node20&#45;&gt;Node24</title>
<path fill="none" stroke="midnightblue" d="M600.056,-256.093C614.642,-253.756 629.496,-251.377 643.434,-249.144"/>
<polygon fill="midnightblue" stroke="midnightblue" points="644.084,-252.585 653.404,-247.547 642.977,-245.673 644.084,-252.585"/>
</g>
<!-- Node25 -->
<g id="node25" class="node"><title>Node25</title>
<g id="a_node25"><a xlink:href="../../d6/d34/classmodel_1_1_turtle.html#a832234461564763f8330181b3c1163ff" target="_top" xlink:title="model.Turtle.getPrevLocation">
<polygon fill="white" stroke="black" points="636.5,-190.5 636.5,-209.5 791.5,-209.5 791.5,-190.5 636.5,-190.5"/>
<text text-anchor="middle" x="714" y="-197.5" font-family="Helvetica,sans-Serif" font-size="10.00">model.Turtle.getPrevLocation</text>
</a>
</g>
</g>
<!-- Node20&#45;&gt;Node25 -->
<g id="edge27" class="edge"><title>Node20&#45;&gt;Node25</title>
<path fill="none" stroke="midnightblue" d="M575.156,-255.925C583.705,-253.096 592.183,-249.805 600,-246 617.982,-237.246 617.928,-227.568 636,-219 641.054,-216.604 646.444,-214.49 651.934,-212.628"/>
<polygon fill="midnightblue" stroke="midnightblue" points="653.362,-215.85 661.876,-209.545 651.288,-209.164 653.362,-215.85"/>
</g>
<!-- Node26 -->
<g id="node26" class="node"><title>Node26</title>
<g id="a_node26"><a xlink:href="../../d6/d34/classmodel_1_1_turtle.html#a2470b9b4ef48a261324047de8ebdc242" target="_top" xlink:title="model.Turtle.getNewLocation">
<polygon fill="white" stroke="black" points="636.5,-152.5 636.5,-171.5 791.5,-171.5 791.5,-152.5 636.5,-152.5"/>
<text text-anchor="middle" x="714" y="-159.5" font-family="Helvetica,sans-Serif" font-size="10.00">model.Turtle.getNewLocation</text>
</a>
</g>
</g>
<!-- Node20&#45;&gt;Node26 -->
<g id="edge28" class="edge"><title>Node20&#45;&gt;Node26</title>
<path fill="none" stroke="midnightblue" d="M584.036,-255.783C589.721,-253.043 595.128,-249.811 600,-246 626.011,-225.653 609.78,-201.076 636,-181 638.357,-179.195 640.864,-177.559 643.478,-176.077"/>
<polygon fill="midnightblue" stroke="midnightblue" points="645.24,-179.113 652.717,-171.607 642.191,-172.812 645.24,-179.113"/>
</g>
<!-- Node27 -->
<g id="node27" class="node"><title>Node27</title>
<g id="a_node27"><a xlink:href="../../d6/d34/classmodel_1_1_turtle.html#a19c059b1cbfbd4e8f046ec2403de3fb9" target="_top" xlink:title="model.Turtle.getPenDash">
<polygon fill="white" stroke="black" points="645.5,-114.5 645.5,-133.5 782.5,-133.5 782.5,-114.5 645.5,-114.5"/>
<text text-anchor="middle" x="714" y="-121.5" font-family="Helvetica,sans-Serif" font-size="10.00">model.Turtle.getPenDash</text>
</a>
</g>
</g>
<!-- Node20&#45;&gt;Node27 -->
<g id="edge29" class="edge"><title>Node20&#45;&gt;Node27</title>
<path fill="none" stroke="midnightblue" d="M586.119,-255.934C591.136,-253.151 595.835,-249.869 600,-246 635.529,-212.995 600.132,-175.635 636,-143 637.696,-141.457 639.498,-140.034 641.384,-138.722"/>
<polygon fill="midnightblue" stroke="midnightblue" points="643.231,-141.697 650.128,-133.655 639.721,-135.64 643.231,-141.697"/>
</g>
<!-- Node29 -->
<g id="node29" class="node"><title>Node29</title>
<g id="a_node29"><a xlink:href="../../d6/d34/classmodel_1_1_turtle.html#a193c156784f783064ae533b619b6be6e" target="_top" xlink:title="model.Turtle.getPenColor">
<polygon fill="white" stroke="black" points="645.5,-76.5 645.5,-95.5 782.5,-95.5 782.5,-76.5 645.5,-76.5"/>
<text text-anchor="middle" x="714" y="-83.5" font-family="Helvetica,sans-Serif" font-size="10.00">model.Turtle.getPenColor</text>
</a>
</g>
</g>
<!-- Node20&#45;&gt;Node29 -->
<g id="edge31" class="edge"><title>Node20&#45;&gt;Node29</title>
<path fill="none" stroke="midnightblue" d="M587.37,-255.818C591.968,-253.053 596.241,-249.807 600,-246 645.444,-199.979 590.083,-150.549 636,-105 637.43,-103.582 638.947,-102.264 640.538,-101.039"/>
<polygon fill="midnightblue" stroke="midnightblue" points="642.458,-103.966 649.035,-95.6596 638.713,-98.0517 642.458,-103.966"/>
</g>
<!-- Node31 -->
<g id="node31" class="node"><title>Node31</title>
<g id="a_node31"><a xlink:href="../../d6/d34/classmodel_1_1_turtle.html#a1c5d07962ede5fbfacc59413274d4300" target="_top" xlink:title="model.Turtle.getHeading">
<polygon fill="white" stroke="black" points="647,-38.5 647,-57.5 781,-57.5 781,-38.5 647,-38.5"/>
<text text-anchor="middle" x="714" y="-45.5" font-family="Helvetica,sans-Serif" font-size="10.00">model.Turtle.getHeading</text>
</a>
</g>
</g>
<!-- Node20&#45;&gt;Node31 -->
<g id="edge34" class="edge"><title>Node20&#45;&gt;Node31</title>
<path fill="none" stroke="midnightblue" d="M588.023,-255.772C592.404,-253.012 596.455,-249.78 600,-246 655.511,-186.809 579.879,-125.614 636,-67 637.244,-65.7009 638.561,-64.4849 639.941,-63.3469"/>
<polygon fill="midnightblue" stroke="midnightblue" points="642.094,-66.1175 648.458,-57.6467 638.201,-60.3003 642.094,-66.1175"/>
</g>
<!-- Node23 -->
<g id="node23" class="node"><title>Node23</title>
<g id="a_node23"><a xlink:href="../../de/ded/classmodel_1_1_pen.html#afad4fb3e51847cacab72c036ddaa108f" target="_top" xlink:title="model.Pen.getStatus">
<polygon fill="white" stroke="black" points="856,-266.5 856,-285.5 974,-285.5 974,-266.5 856,-266.5"/>
<text text-anchor="middle" x="915" y="-273.5" font-family="Helvetica,sans-Serif" font-size="10.00">model.Pen.getStatus</text>
</a>
</g>
</g>
<!-- Node22&#45;&gt;Node23 -->
<g id="edge25" class="edge"><title>Node22&#45;&gt;Node23</title>
<path fill="none" stroke="midnightblue" d="M785.72,-276C805.228,-276 826.35,-276 845.717,-276"/>
<polygon fill="midnightblue" stroke="midnightblue" points="845.969,-279.5 855.969,-276 845.969,-272.5 845.969,-279.5"/>
</g>
<!-- Node28 -->
<g id="node28" class="node"><title>Node28</title>
<g id="a_node28"><a xlink:href="../../de/ded/classmodel_1_1_pen.html#a6999f4af56377415621f193ef8600e27" target="_top" xlink:title="model.Pen.getDash">
<polygon fill="white" stroke="black" points="859.5,-114.5 859.5,-133.5 970.5,-133.5 970.5,-114.5 859.5,-114.5"/>
<text text-anchor="middle" x="915" y="-121.5" font-family="Helvetica,sans-Serif" font-size="10.00">model.Pen.getDash</text>
</a>
</g>
</g>
<!-- Node27&#45;&gt;Node28 -->
<g id="edge30" class="edge"><title>Node27&#45;&gt;Node28</title>
<path fill="none" stroke="midnightblue" d="M782.65,-124C804.147,-124 827.86,-124 849.154,-124"/>
<polygon fill="midnightblue" stroke="midnightblue" points="849.393,-127.5 859.393,-124 849.393,-120.5 849.393,-127.5"/>
</g>
<!-- Node30 -->
<g id="node30" class="node"><title>Node30</title>
<g id="a_node30"><a xlink:href="../../de/ded/classmodel_1_1_pen.html#a704af31474b10d17caf40773b7971826" target="_top" xlink:title="model.Pen.getPenColor">
<polygon fill="white" stroke="black" points="850.5,-76.5 850.5,-95.5 979.5,-95.5 979.5,-76.5 850.5,-76.5"/>
<text text-anchor="middle" x="915" y="-83.5" font-family="Helvetica,sans-Serif" font-size="10.00">model.Pen.getPenColor</text>
</a>
</g>
</g>
<!-- Node29&#45;&gt;Node30 -->
<g id="edge32" class="edge"><title>Node29&#45;&gt;Node30</title>
<path fill="none" stroke="midnightblue" d="M782.65,-86C801.179,-86 821.356,-86 840.21,-86"/>
<polygon fill="midnightblue" stroke="midnightblue" points="840.23,-89.5001 850.23,-86 840.23,-82.5001 840.23,-89.5001"/>
</g>
</g>
</svg>
