<?xml version="1.0" encoding="UTF-8" standalone="no"?>
<!DOCTYPE svg PUBLIC "-//W3C//DTD SVG 1.1//EN"
 "http://www.w3.org/Graphics/SVG/1.1/DTD/svg11.dtd">
<!-- Generated by graphviz version 2.36.0 (20140111.2315)
 -->
<!-- Title: model.Model.getStamp Pages: 1 -->
<svg width="1522pt" height="1361pt"
 viewBox="0.00 0.00 1522.00 1361.00" xmlns="http://www.w3.org/2000/svg" xmlns:xlink="http://www.w3.org/1999/xlink">
<g id="graph0" class="graph" transform="scale(1 1) rotate(0) translate(4 1357)">
<title>model.Model.getStamp</title>
<polygon fill="white" stroke="none" points="-4,4 -4,-1357 1518,-1357 1518,4 -4,4"/>
<!-- Node1 -->
<g id="node1" class="node"><title>Node1</title>
<polygon fill="#bfbfbf" stroke="black" points="0.5,-291.5 0.5,-310.5 129.5,-310.5 129.5,-291.5 0.5,-291.5"/>
<text text-anchor="middle" x="65" y="-298.5" font-family="Helvetica,sans-Serif" font-size="10.00">model.Model.getStamp</text>
</g>
<!-- Node2 -->
<g id="node2" class="node"><title>Node2</title>
<g id="a_node2"><a xlink:href="../../db/db5/classview_1_1panes_1_1_view_pane_module.html#aa2a1bf15bc036ee4237bf63749d85baf" target="_top" xlink:title="view.panes.ViewPaneModule.updateView">
<polygon fill="white" stroke="black" points="166.5,-291.5 166.5,-310.5 375.5,-310.5 375.5,-291.5 166.5,-291.5"/>
<text text-anchor="middle" x="271" y="-298.5" font-family="Helvetica,sans-Serif" font-size="10.00">view.panes.ViewPaneModule.updateView</text>
</a>
</g>
</g>
<!-- Node1&#45;&gt;Node2 -->
<g id="edge1" class="edge"><title>Node1&#45;&gt;Node2</title>
<path fill="none" stroke="midnightblue" d="M139.741,-301C148.418,-301 157.392,-301 166.382,-301"/>
<polygon fill="midnightblue" stroke="midnightblue" points="139.708,-297.5 129.708,-301 139.708,-304.5 139.708,-297.5"/>
</g>
<!-- Node3 -->
<g id="node3" class="node"><title>Node3</title>
<g id="a_node3"><a xlink:href="../../d3/d42/classmodel_1_1_model.html#a76160d002c1e68b566307ac44356f6e5" target="_top" xlink:title="model.Model.notifyView">
<polygon fill="white" stroke="black" points="439.5,-313.5 439.5,-332.5 568.5,-332.5 568.5,-313.5 439.5,-313.5"/>
<text text-anchor="middle" x="504" y="-320.5" font-family="Helvetica,sans-Serif" font-size="10.00">model.Model.notifyView</text>
</a>
</g>
</g>
<!-- Node2&#45;&gt;Node3 -->
<g id="edge2" class="edge"><title>Node2&#45;&gt;Node3</title>
<path fill="none" stroke="midnightblue" d="M382.173,-311.493C401.729,-313.355 421.49,-315.237 439.206,-316.924"/>
<polygon fill="midnightblue" stroke="midnightblue" points="382.263,-307.986 371.976,-310.522 381.6,-314.954 382.263,-307.986"/>
</g>
<!-- Node37 -->
<g id="node37" class="node"><title>Node37</title>
<g id="a_node37"><a xlink:href="../../db/db5/classview_1_1panes_1_1_view_pane_module.html#a200bd9d0cb7f1fb3482afb7f085939cd" target="_top" xlink:title="view.panes.ViewPaneModule.toggle\lActive">
<polygon fill="white" stroke="black" points="412,-264 412,-294 596,-294 596,-264 412,-264"/>
<text text-anchor="start" x="420" y="-282" font-family="Helvetica,sans-Serif" font-size="10.00">view.panes.ViewPaneModule.toggle</text>
<text text-anchor="middle" x="504" y="-271" font-family="Helvetica,sans-Serif" font-size="10.00">Active</text>
</a>
</g>
</g>
<!-- Node2&#45;&gt;Node37 -->
<g id="edge36" class="edge"><title>Node2&#45;&gt;Node37</title>
<path fill="none" stroke="midnightblue" d="M381.986,-290.525C392.025,-289.569 402.12,-288.608 411.966,-287.67"/>
<polygon fill="midnightblue" stroke="midnightblue" points="381.6,-287.046 371.976,-291.478 382.263,-294.014 381.6,-287.046"/>
</g>
<!-- Node4 -->
<g id="node4" class="node"><title>Node4</title>
<g id="a_node4"><a xlink:href="../../dd/dd6/classcommands_1_1_command.html#abafa69601e87c34d4453cf84349d6f9c" target="_top" xlink:title="commands.Command.execute\lCommand">
<polygon fill="white" stroke="black" points="632.5,-661 632.5,-691 797.5,-691 797.5,-661 632.5,-661"/>
<text text-anchor="start" x="640.5" y="-679" font-family="Helvetica,sans-Serif" font-size="10.00">commands.Command.execute</text>
<text text-anchor="middle" x="715" y="-668" font-family="Helvetica,sans-Serif" font-size="10.00">Command</text>
</a>
</g>
</g>
<!-- Node3&#45;&gt;Node4 -->
<g id="edge3" class="edge"><title>Node3&#45;&gt;Node4</title>
<path fill="none" stroke="midnightblue" d="M515.99,-341.563C552.815,-403.76 671.416,-604.075 705.039,-660.865"/>
<polygon fill="midnightblue" stroke="midnightblue" points="518.914,-339.631 510.808,-332.81 512.891,-343.198 518.914,-339.631"/>
</g>
<!-- Node33 -->
<g id="node33" class="node"><title>Node33</title>
<g id="a_node33"><a xlink:href="../../d3/d42/classmodel_1_1_model.html#a73435cc7a2b6100031bbdd2cf6d6b4e8" target="_top" xlink:title="model.Model.updateModel">
<polygon fill="white" stroke="black" points="643.5,-313.5 643.5,-332.5 786.5,-332.5 786.5,-313.5 643.5,-313.5"/>
<text text-anchor="middle" x="715" y="-320.5" font-family="Helvetica,sans-Serif" font-size="10.00">model.Model.updateModel</text>
</a>
</g>
</g>
<!-- Node3&#45;&gt;Node33 -->
<g id="edge32" class="edge"><title>Node3&#45;&gt;Node33</title>
<path fill="none" stroke="midnightblue" d="M578.72,-323C599.752,-323 622.611,-323 643.45,-323"/>
<polygon fill="midnightblue" stroke="midnightblue" points="578.558,-319.5 568.558,-323 578.558,-326.5 578.558,-319.5"/>
</g>
<!-- Node5 -->
<g id="node5" class="node"><title>Node5</title>
<g id="a_node5"><a xlink:href="../../d1/d79/classcommands_1_1_sum_command.html#a792945436d0c3ff1f58301fcc50f5ae1" target="_top" xlink:title="commands.SumCommand.execute\lCommand">
<polygon fill="white" stroke="black" points="860,-1323 860,-1353 1048,-1353 1048,-1323 860,-1323"/>
<text text-anchor="start" x="868" y="-1341" font-family="Helvetica,sans-Serif" font-size="10.00">commands.SumCommand.execute</text>
<text text-anchor="middle" x="954" y="-1330" font-family="Helvetica,sans-Serif" font-size="10.00">Command</text>
</a>
</g>
</g>
<!-- Node4&#45;&gt;Node5 -->
<g id="edge4" class="edge"><title>Node4&#45;&gt;Node5</title>
<path fill="none" stroke="midnightblue" d="M717.051,-701.444C722.011,-808.823 746.634,-1223.52 834,-1313 841.3,-1320.48 850.227,-1326 859.877,-1330.04"/>
<polygon fill="midnightblue" stroke="midnightblue" points="720.537,-701.061 716.596,-691.226 713.544,-701.372 720.537,-701.061"/>
</g>
<!-- Node6 -->
<g id="node6" class="node"><title>Node6</title>
<g id="a_node6"><a xlink:href="../../d6/dc0/classcommands_1_1_repeat_command.html#a40fb82831e8b2beaa7e31913e46e15eb" target="_top" xlink:title="commands.RepeatCommand.execute\lCommand">
<polygon fill="white" stroke="black" points="855,-1274 855,-1304 1053,-1304 1053,-1274 855,-1274"/>
<text text-anchor="start" x="863" y="-1292" font-family="Helvetica,sans-Serif" font-size="10.00">commands.RepeatCommand.execute</text>
<text text-anchor="middle" x="954" y="-1281" font-family="Helvetica,sans-Serif" font-size="10.00">Command</text>
</a>
</g>
</g>
<!-- Node4&#45;&gt;Node6 -->
<g id="edge5" class="edge"><title>Node4&#45;&gt;Node6</title>
<path fill="none" stroke="midnightblue" d="M717.475,-701.431C723.924,-803.56 753.027,-1182.29 834,-1264 840.018,-1270.07 847.111,-1274.85 854.787,-1278.59"/>
<polygon fill="midnightblue" stroke="midnightblue" points="720.95,-700.909 716.844,-691.142 713.963,-701.338 720.95,-700.909"/>
</g>
<!-- Node7 -->
<g id="node7" class="node"><title>Node7</title>
<g id="a_node7"><a xlink:href="../../dd/d82/classcommands_1_1_remainder_command.html#a99d4baf3f1b4a3c8d0cd69274380a2cf" target="_top" xlink:title="commands.RemainderCommand.execute\lCommand">
<polygon fill="white" stroke="black" points="846,-1225 846,-1255 1062,-1255 1062,-1225 846,-1225"/>
<text text-anchor="start" x="854" y="-1243" font-family="Helvetica,sans-Serif" font-size="10.00">commands.RemainderCommand.execute</text>
<text text-anchor="middle" x="954" y="-1232" font-family="Helvetica,sans-Serif" font-size="10.00">Command</text>
</a>
</g>
</g>
<!-- Node4&#45;&gt;Node7 -->
<g id="edge6" class="edge"><title>Node4&#45;&gt;Node7</title>
<path fill="none" stroke="midnightblue" d="M717.955,-701.181C725.95,-797.511 759.333,-1140.96 834,-1215 837.823,-1218.79 842.064,-1222.07 846.604,-1224.91"/>
<polygon fill="midnightblue" stroke="midnightblue" points="721.441,-700.858 717.143,-691.174 714.464,-701.424 721.441,-700.858"/>
</g>
<!-- Node8 -->
<g id="node8" class="node"><title>Node8</title>
<g id="a_node8"><a xlink:href="../../df/df5/classcommands_1_1_minus_command.html#a82548bbb25a73194469e1ff81b19cf27" target="_top" xlink:title="commands.MinusCommand.execute\lCommand">
<polygon fill="white" stroke="black" points="857.5,-1176 857.5,-1206 1050.5,-1206 1050.5,-1176 857.5,-1176"/>
<text text-anchor="start" x="865.5" y="-1194" font-family="Helvetica,sans-Serif" font-size="10.00">commands.MinusCommand.execute</text>
<text text-anchor="middle" x="954" y="-1183" font-family="Helvetica,sans-Serif" font-size="10.00">Command</text>
</a>
</g>
</g>
<!-- Node4&#45;&gt;Node8 -->
<g id="edge7" class="edge"><title>Node4&#45;&gt;Node8</title>
<path fill="none" stroke="midnightblue" d="M718.552,-701.225C728.239,-791.929 765.689,-1099.66 834,-1166 840.739,-1172.54 848.731,-1177.57 857.337,-1181.41"/>
<polygon fill="midnightblue" stroke="midnightblue" points="722.032,-700.851 717.508,-691.27 715.07,-701.581 722.032,-700.851"/>
</g>
<!-- Node9 -->
<g id="node9" class="node"><title>Node9</title>
<g id="a_node9"><a xlink:href="../../d3/d37/classcommands_1_1_set_background_command.html#a91dc8e21948a301c55af1cef90b77962" target="_top" xlink:title="commands.SetBackgroundCommand.execute\lCommand">
<polygon fill="white" stroke="black" points="834.5,-1127 834.5,-1157 1073.5,-1157 1073.5,-1127 834.5,-1127"/>
<text text-anchor="start" x="842.5" y="-1145" font-family="Helvetica,sans-Serif" font-size="10.00">commands.SetBackgroundCommand.execute</text>
<text text-anchor="middle" x="954" y="-1134" font-family="Helvetica,sans-Serif" font-size="10.00">Command</text>
</a>
</g>
</g>
<!-- Node4&#45;&gt;Node9 -->
<g id="edge8" class="edge"><title>Node4&#45;&gt;Node9</title>
<path fill="none" stroke="midnightblue" d="M719.262,-701.15C730.744,-785.787 771.98,-1058.26 834,-1117 837.985,-1120.77 842.388,-1124.04 847.084,-1126.86"/>
<polygon fill="midnightblue" stroke="midnightblue" points="722.717,-700.585 717.924,-691.137 715.779,-701.512 722.717,-700.585"/>
</g>
<!-- Node10 -->
<g id="node10" class="node"><title>Node10</title>
<g id="a_node10"><a xlink:href="../../d8/dba/classcommands_1_1_product_command.html#a8bc20bc7c21a944405f599dbcfa57e67" target="_top" xlink:title="commands.ProductCommand.execute\lCommand">
<polygon fill="white" stroke="black" points="853,-1078 853,-1108 1055,-1108 1055,-1078 853,-1078"/>
<text text-anchor="start" x="861" y="-1096" font-family="Helvetica,sans-Serif" font-size="10.00">commands.ProductCommand.execute</text>
<text text-anchor="middle" x="954" y="-1085" font-family="Helvetica,sans-Serif" font-size="10.00">Command</text>
</a>
</g>
</g>
<!-- Node4&#45;&gt;Node10 -->
<g id="edge9" class="edge"><title>Node4&#45;&gt;Node10</title>
<path fill="none" stroke="midnightblue" d="M715.405,-701.275C715.233,-771.059 724.921,-967.852 834,-1068 839.598,-1073.14 845.975,-1077.33 852.801,-1080.73"/>
<polygon fill="midnightblue" stroke="midnightblue" points="718.906,-701.233 715.504,-691.2 711.906,-701.165 718.906,-701.233"/>
</g>
<!-- Node11 -->
<g id="node11" class="node"><title>Node11</title>
<g id="a_node11"><a xlink:href="../../dd/d40/classcommands_1_1_quotient_command.html#a7e23b237cc68512dcbe6a65feb7c39e8" target="_top" xlink:title="commands.QuotientCommand.execute\lCommand">
<polygon fill="white" stroke="black" points="851,-1029 851,-1059 1057,-1059 1057,-1029 851,-1029"/>
<text text-anchor="start" x="859" y="-1047" font-family="Helvetica,sans-Serif" font-size="10.00">commands.QuotientCommand.execute</text>
<text text-anchor="middle" x="954" y="-1036" font-family="Helvetica,sans-Serif" font-size="10.00">Command</text>
</a>
</g>
</g>
<!-- Node4&#45;&gt;Node11 -->
<g id="edge10" class="edge"><title>Node4&#45;&gt;Node11</title>
<path fill="none" stroke="midnightblue" d="M716.674,-701.514C719.822,-765.487 737.36,-933.681 834,-1019 839.064,-1023.47 844.722,-1027.21 850.745,-1030.34"/>
<polygon fill="midnightblue" stroke="midnightblue" points="720.156,-701.007 716.249,-691.159 713.162,-701.294 720.156,-701.007"/>
</g>
<!-- Node12 -->
<g id="node12" class="node"><title>Node12</title>
<g id="a_node12"><a xlink:href="../../dc/d68/classcommands_1_1_make_variable_command.html#ad0e0974744cc969c12c67805c2460ef4" target="_top" xlink:title="commands.MakeVariableCommand.execute\lCommand">
<polygon fill="white" stroke="black" points="839.5,-980 839.5,-1010 1068.5,-1010 1068.5,-980 839.5,-980"/>
<text text-anchor="start" x="847.5" y="-998" font-family="Helvetica,sans-Serif" font-size="10.00">commands.MakeVariableCommand.execute</text>
<text text-anchor="middle" x="954" y="-987" font-family="Helvetica,sans-Serif" font-size="10.00">Command</text>
</a>
</g>
</g>
<!-- Node4&#45;&gt;Node12 -->
<g id="edge11" class="edge"><title>Node4&#45;&gt;Node12</title>
<path fill="none" stroke="midnightblue" d="M718.268,-701.004C724.857,-758.166 749.294,-898.929 834,-970 838.528,-973.799 843.489,-977.067 848.735,-979.873"/>
<polygon fill="midnightblue" stroke="midnightblue" points="721.746,-700.607 717.205,-691.035 714.785,-701.35 721.746,-700.607"/>
</g>
<!-- Node13 -->
<g id="node13" class="node"><title>Node13</title>
<g id="a_node13"><a xlink:href="../../d8/ded/classcommands_1_1_difference_command.html#a0c34c43d3bb266ef3e48ae27be938a0f" target="_top" xlink:title="commands.DifferenceCommand.execute\lCommand">
<polygon fill="white" stroke="black" points="847,-931 847,-961 1061,-961 1061,-931 847,-931"/>
<text text-anchor="start" x="855" y="-949" font-family="Helvetica,sans-Serif" font-size="10.00">commands.DifferenceCommand.execute</text>
<text text-anchor="middle" x="954" y="-938" font-family="Helvetica,sans-Serif" font-size="10.00">Command</text>
</a>
</g>
</g>
<!-- Node4&#45;&gt;Node13 -->
<g id="edge12" class="edge"><title>Node4&#45;&gt;Node13</title>
<path fill="none" stroke="midnightblue" d="M720.533,-701.294C730.941,-751.586 761.461,-864.176 834,-921 838.903,-924.84 844.255,-928.128 849.89,-930.938"/>
<polygon fill="midnightblue" stroke="midnightblue" points="723.927,-700.411 718.559,-691.276 717.059,-701.765 723.927,-700.411"/>
</g>
<!-- Node14 -->
<g id="node14" class="node"><title>Node14</title>
<g id="a_node14"><a xlink:href="../../dd/d29/classcommands_1_1_clear_screen_command.html#a87e5eb0f4c3bb48ec0737da2aa431db3" target="_top" xlink:title="commands.ClearScreenCommand.execute\lCommand">
<polygon fill="white" stroke="black" points="842,-882 842,-912 1066,-912 1066,-882 842,-882"/>
<text text-anchor="start" x="850" y="-900" font-family="Helvetica,sans-Serif" font-size="10.00">commands.ClearScreenCommand.execute</text>
<text text-anchor="middle" x="954" y="-889" font-family="Helvetica,sans-Serif" font-size="10.00">Command</text>
</a>
</g>
</g>
<!-- Node4&#45;&gt;Node14 -->
<g id="edge13" class="edge"><title>Node4&#45;&gt;Node14</title>
<path fill="none" stroke="midnightblue" d="M723.566,-700.672C737.857,-742.893 772.99,-828.631 834,-872 839.42,-875.853 845.308,-879.136 851.466,-881.931"/>
<polygon fill="midnightblue" stroke="midnightblue" points="726.891,-699.579 720.454,-691.165 720.239,-701.757 726.891,-699.579"/>
</g>
<!-- Node15 -->
<g id="node15" class="node"><title>Node15</title>
<g id="a_node15"><a xlink:href="../../d9/d35/classcommands_1_1_ask_command.html#ae4ba28c73ce0b5112e4032bd21a951f5" target="_top" xlink:title="commands.AskCommand.execute\lCommand">
<polygon fill="white" stroke="black" points="863,-833 863,-863 1045,-863 1045,-833 863,-833"/>
<text text-anchor="start" x="871" y="-851" font-family="Helvetica,sans-Serif" font-size="10.00">commands.AskCommand.execute</text>
<text text-anchor="middle" x="954" y="-840" font-family="Helvetica,sans-Serif" font-size="10.00">Command</text>
</a>
</g>
</g>
<!-- Node4&#45;&gt;Node15 -->
<g id="edge14" class="edge"><title>Node4&#45;&gt;Node15</title>
<path fill="none" stroke="midnightblue" d="M728.524,-700.426C746.923,-733.7 784.506,-792.605 834,-823 842.815,-828.413 852.615,-832.67 862.7,-836.015"/>
<polygon fill="midnightblue" stroke="midnightblue" points="731.47,-698.514 723.644,-691.373 725.309,-701.836 731.47,-698.514"/>
</g>
<!-- Node16 -->
<g id="node16" class="node"><title>Node16</title>
<g id="a_node16"><a xlink:href="../../d3/d49/classcommands_1_1_if_else_command.html#a3b3d15925117d366a69f8ebd1dbc2dbc" target="_top" xlink:title="commands.IfElseCommand.execute\lCommand">
<polygon fill="white" stroke="black" points="859,-784 859,-814 1049,-814 1049,-784 859,-784"/>
<text text-anchor="start" x="867" y="-802" font-family="Helvetica,sans-Serif" font-size="10.00">commands.IfElseCommand.execute</text>
<text text-anchor="middle" x="954" y="-791" font-family="Helvetica,sans-Serif" font-size="10.00">Command</text>
</a>
</g>
</g>
<!-- Node4&#45;&gt;Node16 -->
<g id="edge15" class="edge"><title>Node4&#45;&gt;Node16</title>
<path fill="none" stroke="midnightblue" d="M736.734,-698.758C758.669,-721.389 795.392,-755.347 834,-774 842.079,-777.903 850.755,-781.199 859.607,-783.982"/>
<polygon fill="midnightblue" stroke="midnightblue" points="739.04,-696.105 729.613,-691.27 733.967,-700.928 739.04,-696.105"/>
</g>
<!-- Node18 -->
<g id="node18" class="node"><title>Node18</title>
<g id="a_node18"><a xlink:href="../../d8/d57/classcommands_1_1_for_command.html#aeb06a37d7f9845eb546425bae6ea9f58" target="_top" xlink:title="commands.ForCommand.execute\lCommand">
<polygon fill="white" stroke="black" points="864,-735 864,-765 1044,-765 1044,-735 864,-735"/>
<text text-anchor="start" x="872" y="-753" font-family="Helvetica,sans-Serif" font-size="10.00">commands.ForCommand.execute</text>
<text text-anchor="middle" x="954" y="-742" font-family="Helvetica,sans-Serif" font-size="10.00">Command</text>
</a>
</g>
</g>
<!-- Node4&#45;&gt;Node18 -->
<g id="edge17" class="edge"><title>Node4&#45;&gt;Node18</title>
<path fill="none" stroke="midnightblue" d="M757.147,-695.308C779.506,-705.231 807.858,-716.904 834,-725 845.999,-728.716 858.848,-732.055 871.505,-734.992"/>
<polygon fill="midnightblue" stroke="midnightblue" points="758.511,-692.084 747.955,-691.179 755.643,-698.47 758.511,-692.084"/>
</g>
<!-- Node19 -->
<g id="node19" class="node"><title>Node19</title>
<g id="a_node19"><a xlink:href="../../db/d38/classcommands_1_1_ask_with_command.html#a5ee6a090e94729d84ef423a454d446eb" target="_top" xlink:title="commands.AskWithCommand.execute\lCommand">
<polygon fill="white" stroke="black" points="852.5,-686 852.5,-716 1055.5,-716 1055.5,-686 852.5,-686"/>
<text text-anchor="start" x="860.5" y="-704" font-family="Helvetica,sans-Serif" font-size="10.00">commands.AskWithCommand.execute</text>
<text text-anchor="middle" x="954" y="-693" font-family="Helvetica,sans-Serif" font-size="10.00">Command</text>
</a>
</g>
</g>
<!-- Node4&#45;&gt;Node19 -->
<g id="edge18" class="edge"><title>Node4&#45;&gt;Node19</title>
<path fill="none" stroke="midnightblue" d="M807.62,-685.665C822.301,-687.213 837.562,-688.823 852.437,-690.392"/>
<polygon fill="midnightblue" stroke="midnightblue" points="807.874,-682.172 797.562,-684.604 807.14,-689.133 807.874,-682.172"/>
</g>
<!-- Node20 -->
<g id="node20" class="node"><title>Node20</title>
<g id="a_node20"><a xlink:href="../../d4/d02/classcommands_1_1_do_times_command.html#a1dd20e90975d905a1bce8f018e9f7f0a" target="_top" xlink:title="commands.DoTimesCommand.execute\lCommand">
<polygon fill="white" stroke="black" points="850.5,-637 850.5,-667 1057.5,-667 1057.5,-637 850.5,-637"/>
<text text-anchor="start" x="858.5" y="-655" font-family="Helvetica,sans-Serif" font-size="10.00">commands.DoTimesCommand.execute</text>
<text text-anchor="middle" x="954" y="-644" font-family="Helvetica,sans-Serif" font-size="10.00">Command</text>
</a>
</g>
</g>
<!-- Node4&#45;&gt;Node20 -->
<g id="edge19" class="edge"><title>Node4&#45;&gt;Node20</title>
<path fill="none" stroke="midnightblue" d="M807.643,-666.72C821.632,-665.303 836.148,-663.833 850.354,-662.395"/>
<polygon fill="midnightblue" stroke="midnightblue" points="807.158,-663.251 797.562,-667.741 807.864,-670.215 807.158,-663.251"/>
</g>
<!-- Node21 -->
<g id="node21" class="node"><title>Node21</title>
<g id="a_node21"><a xlink:href="../../dd/de4/classcommands_1_1_custom_command.html#a5ad25438a49d3e4eeba835fefe8b730a" target="_top" xlink:title="commands.CustomCommand.execute\lCommand">
<polygon fill="white" stroke="black" points="852.5,-588 852.5,-618 1055.5,-618 1055.5,-588 852.5,-588"/>
<text text-anchor="start" x="860.5" y="-606" font-family="Helvetica,sans-Serif" font-size="10.00">commands.CustomCommand.execute</text>
<text text-anchor="middle" x="954" y="-595" font-family="Helvetica,sans-Serif" font-size="10.00">Command</text>
</a>
</g>
</g>
<!-- Node4&#45;&gt;Node21 -->
<g id="edge20" class="edge"><title>Node4&#45;&gt;Node21</title>
<path fill="none" stroke="midnightblue" d="M757.663,-656.916C779.959,-647.252 808.091,-635.921 834,-628 846.113,-624.297 859.085,-620.956 871.848,-618.011"/>
<polygon fill="midnightblue" stroke="midnightblue" points="756.24,-653.719 748.489,-660.941 759.052,-660.129 756.24,-653.719"/>
</g>
<!-- Node22 -->
<g id="node22" class="node"><title>Node22</title>
<g id="a_node22"><a xlink:href="../../d6/daf/classcommands_1_1_set_shape_command.html#a59c440316cf9e732b5aa2f46def94e10" target="_top" xlink:title="commands.SetShapeCommand.update\lTurtle">
<polygon fill="white" stroke="black" points="850,-539 850,-569 1058,-569 1058,-539 850,-539"/>
<text text-anchor="start" x="858" y="-557" font-family="Helvetica,sans-Serif" font-size="10.00">commands.SetShapeCommand.update</text>
<text text-anchor="middle" x="954" y="-546" font-family="Helvetica,sans-Serif" font-size="10.00">Turtle</text>
</a>
</g>
</g>
<!-- Node4&#45;&gt;Node22 -->
<g id="edge21" class="edge"><title>Node4&#45;&gt;Node22</title>
<path fill="none" stroke="midnightblue" d="M736.781,-653.48C758.754,-631.086 795.505,-597.479 834,-579 842.088,-575.117 850.771,-571.835 859.627,-569.06"/>
<polygon fill="midnightblue" stroke="midnightblue" points="734.061,-651.259 729.647,-660.891 739.104,-656.114 734.061,-651.259"/>
</g>
<!-- Node23 -->
<g id="node23" class="node"><title>Node23</title>
<g id="a_node23"><a xlink:href="../../d6/d11/classcommands_1_1_set_pen_dash_command.html#a320f3b8248e3e89b2338dfefbe73f8c7" target="_top" xlink:title="commands.SetPenDashCommand.update\lTurtle">
<polygon fill="white" stroke="black" points="844,-490 844,-520 1064,-520 1064,-490 844,-490"/>
<text text-anchor="start" x="852" y="-508" font-family="Helvetica,sans-Serif" font-size="10.00">commands.SetPenDashCommand.update</text>
<text text-anchor="middle" x="954" y="-497" font-family="Helvetica,sans-Serif" font-size="10.00">Turtle</text>
</a>
</g>
</g>
<!-- Node4&#45;&gt;Node23 -->
<g id="edge22" class="edge"><title>Node4&#45;&gt;Node23</title>
<path fill="none" stroke="midnightblue" d="M728.568,-651.74C747.017,-618.692 784.66,-560.188 834,-530 840.303,-526.144 847.106,-522.875 854.156,-520.104"/>
<polygon fill="midnightblue" stroke="midnightblue" points="725.381,-650.275 723.673,-660.731 731.528,-653.622 725.381,-650.275"/>
</g>
<!-- Node24 -->
<g id="node24" class="node"><title>Node24</title>
<g id="a_node24"><a xlink:href="../../dc/df3/classcommands_1_1_set_towards_command.html#ad82abd7dcaed57b3bdb3a4b87a91815a" target="_top" xlink:title="commands.SetTowardsCommand.update\lTurtle">
<polygon fill="white" stroke="black" points="846.5,-441 846.5,-471 1061.5,-471 1061.5,-441 846.5,-441"/>
<text text-anchor="start" x="854.5" y="-459" font-family="Helvetica,sans-Serif" font-size="10.00">commands.SetTowardsCommand.update</text>
<text text-anchor="middle" x="954" y="-448" font-family="Helvetica,sans-Serif" font-size="10.00">Turtle</text>
</a>
</g>
</g>
<!-- Node4&#45;&gt;Node24 -->
<g id="edge23" class="edge"><title>Node4&#45;&gt;Node24</title>
<path fill="none" stroke="midnightblue" d="M723.695,-651.184C738.101,-609.082 773.298,-524.047 834,-481 839.424,-477.153 845.316,-473.875 851.477,-471.083"/>
<polygon fill="midnightblue" stroke="midnightblue" points="720.295,-650.318 720.478,-660.911 726.941,-652.517 720.295,-650.318"/>
</g>
<!-- Node25 -->
<g id="node25" class="node"><title>Node25</title>
<g id="a_node25"><a xlink:href="../../d9/db5/classcommands_1_1_set_position_command.html#aba31c4887974831a6c0d9feac8316ee6" target="_top" xlink:title="commands.SetPositionCommand.update\lTurtle">
<polygon fill="white" stroke="black" points="846.5,-392 846.5,-422 1061.5,-422 1061.5,-392 846.5,-392"/>
<text text-anchor="start" x="854.5" y="-410" font-family="Helvetica,sans-Serif" font-size="10.00">commands.SetPositionCommand.update</text>
<text text-anchor="middle" x="954" y="-399" font-family="Helvetica,sans-Serif" font-size="10.00">Turtle</text>
</a>
</g>
</g>
<!-- Node4&#45;&gt;Node25 -->
<g id="edge24" class="edge"><title>Node4&#45;&gt;Node25</title>
<path fill="none" stroke="midnightblue" d="M720.566,-650.807C731.034,-600.716 761.656,-488.578 834,-432 838.906,-428.163 844.261,-424.879 849.897,-422.071"/>
<polygon fill="midnightblue" stroke="midnightblue" points="717.1,-650.293 718.579,-660.784 723.965,-651.661 717.1,-650.293"/>
</g>
<!-- Node26 -->
<g id="node26" class="node"><title>Node26</title>
<g id="a_node26"><a xlink:href="../../dd/db2/classcommands_1_1_right_command.html#ae16ecb0da3e0a2049a7382d74f315cb6" target="_top" xlink:title="commands.RightCommand.update\lTurtle">
<polygon fill="white" stroke="black" points="861.5,-343 861.5,-373 1046.5,-373 1046.5,-343 861.5,-343"/>
<text text-anchor="start" x="869.5" y="-361" font-family="Helvetica,sans-Serif" font-size="10.00">commands.RightCommand.update</text>
<text text-anchor="middle" x="954" y="-350" font-family="Helvetica,sans-Serif" font-size="10.00">Turtle</text>
</a>
</g>
</g>
<!-- Node4&#45;&gt;Node26 -->
<g id="edge25" class="edge"><title>Node4&#45;&gt;Node26</title>
<path fill="none" stroke="midnightblue" d="M718.344,-650.678C725.06,-593.452 749.698,-453.648 834,-383 842.009,-376.288 851.37,-371.237 861.261,-367.456"/>
<polygon fill="midnightblue" stroke="midnightblue" points="714.858,-650.353 717.257,-660.673 721.817,-651.11 714.858,-650.353"/>
</g>
<!-- Node27 -->
<g id="node27" class="node"><title>Node27</title>
<g id="a_node27"><a xlink:href="../../dc/db3/classcommands_1_1_set_heading_command.html#a064fae1a815349b9efc6bd43f2371339" target="_top" xlink:title="commands.SetHeadingCommand.update\lTurtle">
<polygon fill="white" stroke="black" points="845.5,-294 845.5,-324 1062.5,-324 1062.5,-294 845.5,-294"/>
<text text-anchor="start" x="853.5" y="-312" font-family="Helvetica,sans-Serif" font-size="10.00">commands.SetHeadingCommand.update</text>
<text text-anchor="middle" x="954" y="-301" font-family="Helvetica,sans-Serif" font-size="10.00">Turtle</text>
</a>
</g>
</g>
<!-- Node4&#45;&gt;Node27 -->
<g id="edge26" class="edge"><title>Node4&#45;&gt;Node27</title>
<path fill="none" stroke="midnightblue" d="M716.633,-650.439C719.685,-586.357 737.017,-417.929 834,-333 837.885,-329.598 842.116,-326.628 846.591,-324.037"/>
<polygon fill="midnightblue" stroke="midnightblue" points="713.121,-650.682 716.223,-660.812 720.115,-650.958 713.121,-650.682"/>
</g>
<!-- Node28 -->
<g id="node28" class="node"><title>Node28</title>
<g id="a_node28"><a xlink:href="../../d2/dbb/classcommands_1_1_set_pen_size_command.html#aa8dbbb22c72842b2d6f50aa169a8404e" target="_top" xlink:title="commands.SetPenSizeCommand.update\lTurtle">
<polygon fill="white" stroke="black" points="846.5,-245 846.5,-275 1061.5,-275 1061.5,-245 846.5,-245"/>
<text text-anchor="start" x="854.5" y="-263" font-family="Helvetica,sans-Serif" font-size="10.00">commands.SetPenSizeCommand.update</text>
<text text-anchor="middle" x="954" y="-252" font-family="Helvetica,sans-Serif" font-size="10.00">Turtle</text>
</a>
</g>
</g>
<!-- Node4&#45;&gt;Node28 -->
<g id="edge27" class="edge"><title>Node4&#45;&gt;Node28</title>
<path fill="none" stroke="midnightblue" d="M720.136,-650.831C733.519,-572.454 778.043,-334.962 834,-284 837.818,-280.523 841.994,-277.492 846.427,-274.853"/>
<polygon fill="midnightblue" stroke="midnightblue" points="716.667,-650.355 718.456,-660.798 723.569,-651.519 716.667,-650.355"/>
</g>
<!-- Node29 -->
<g id="node29" class="node"><title>Node29</title>
<g id="a_node29"><a xlink:href="../../d5/d21/classcommands_1_1_set_pen_color_command.html#a69a9c0161b8910c8fecc5ace219aeeb8" target="_top" xlink:title="commands.SetPenColorCommand.update\lTurtle">
<polygon fill="white" stroke="black" points="844,-196 844,-226 1064,-226 1064,-196 844,-196"/>
<text text-anchor="start" x="852" y="-214" font-family="Helvetica,sans-Serif" font-size="10.00">commands.SetPenColorCommand.update</text>
<text text-anchor="middle" x="954" y="-203" font-family="Helvetica,sans-Serif" font-size="10.00">Turtle</text>
</a>
</g>
</g>
<!-- Node4&#45;&gt;Node29 -->
<g id="edge28" class="edge"><title>Node4&#45;&gt;Node29</title>
<path fill="none" stroke="midnightblue" d="M721.882,-651.156C743.516,-560.192 818.234,-249.811 834,-235 837.61,-231.609 841.56,-228.638 845.757,-226.039"/>
<polygon fill="midnightblue" stroke="midnightblue" points="718.474,-650.359 719.569,-660.897 725.284,-651.977 718.474,-650.359"/>
</g>
<!-- Node30 -->
<g id="node30" class="node"><title>Node30</title>
<g id="a_node30"><a xlink:href="../../dc/d65/classcommands_1_1_left_command.html#abd466facd4b16e1c04a6578b4bf8e203" target="_top" xlink:title="commands.LeftCommand.update\lTurtle">
<polygon fill="white" stroke="black" points="864.5,-147 864.5,-177 1043.5,-177 1043.5,-147 864.5,-147"/>
<text text-anchor="start" x="872.5" y="-165" font-family="Helvetica,sans-Serif" font-size="10.00">commands.LeftCommand.update</text>
<text text-anchor="middle" x="954" y="-154" font-family="Helvetica,sans-Serif" font-size="10.00">Turtle</text>
</a>
</g>
</g>
<!-- Node4&#45;&gt;Node30 -->
<g id="edge29" class="edge"><title>Node4&#45;&gt;Node30</title>
<path fill="none" stroke="midnightblue" d="M722.344,-650.68C736.28,-594.95 770.51,-457.442 798,-342 814.483,-272.78 782.991,-235.611 834,-186 842.536,-177.698 853.101,-171.891 864.383,-167.883"/>
<polygon fill="midnightblue" stroke="midnightblue" points="718.868,-650.154 719.836,-660.704 725.659,-651.853 718.868,-650.154"/>
</g>
<!-- Node31 -->
<g id="node31" class="node"><title>Node31</title>
<g id="a_node31"><a xlink:href="../../d6/ddc/classcommands_1_1_backward_command.html#af0c4c6ac04bea1aa34b069a01c53888f" target="_top" xlink:title="commands.BackwardCommand.update\lTurtle">
<polygon fill="white" stroke="black" points="851,-98 851,-128 1057,-128 1057,-98 851,-98"/>
<text text-anchor="start" x="859" y="-116" font-family="Helvetica,sans-Serif" font-size="10.00">commands.BackwardCommand.update</text>
<text text-anchor="middle" x="954" y="-105" font-family="Helvetica,sans-Serif" font-size="10.00">Turtle</text>
</a>
</g>
</g>
<!-- Node4&#45;&gt;Node31 -->
<g id="edge30" class="edge"><title>Node4&#45;&gt;Node31</title>
<path fill="none" stroke="midnightblue" d="M722.804,-650.783C737.651,-595.258 773.576,-458.129 798,-342 817.039,-251.475 769.417,-203.229 834,-137 838.929,-131.945 844.606,-127.802 850.751,-124.419"/>
<polygon fill="midnightblue" stroke="midnightblue" points="719.336,-650.204 720.126,-660.769 726.097,-652.018 719.336,-650.204"/>
</g>
<!-- Node32 -->
<g id="node32" class="node"><title>Node32</title>
<g id="a_node32"><a xlink:href="../../da/d4f/classcommands_1_1_forward_command.html#afe19b644a8fe0d46f3dbf19aef135364" target="_top" xlink:title="commands.ForwardCommand.update\lTurtle">
<polygon fill="white" stroke="black" points="855,-49 855,-79 1053,-79 1053,-49 855,-49"/>
<text text-anchor="start" x="863" y="-67" font-family="Helvetica,sans-Serif" font-size="10.00">commands.ForwardCommand.update</text>
<text text-anchor="middle" x="954" y="-56" font-family="Helvetica,sans-Serif" font-size="10.00">Turtle</text>
</a>
</g>
</g>
<!-- Node4&#45;&gt;Node32 -->
<g id="edge31" class="edge"><title>Node4&#45;&gt;Node32</title>
<path fill="none" stroke="midnightblue" d="M723.093,-650.841C738.511,-595.431 775.498,-458.517 798,-342 808.81,-286.026 794.879,-129.467 834,-88 839.93,-81.7146 847.012,-76.8269 854.727,-73.0504"/>
<polygon fill="midnightblue" stroke="midnightblue" points="719.628,-650.233 720.307,-660.806 726.37,-652.117 719.628,-650.233"/>
</g>
<!-- Node17 -->
<g id="node17" class="node"><title>Node17</title>
<g id="a_node17"><a xlink:href="../../d5/dad/classcommands_1_1_if_command.html#a0d92f20941c1e79cfb1e02e77f463e68" target="_top" xlink:title="commands.IfCommand.execute\lCommand">
<polygon fill="white" stroke="black" points="1110,-784 1110,-814 1280,-814 1280,-784 1110,-784"/>
<text text-anchor="start" x="1118" y="-802" font-family="Helvetica,sans-Serif" font-size="10.00">commands.IfCommand.execute</text>
<text text-anchor="middle" x="1195" y="-791" font-family="Helvetica,sans-Serif" font-size="10.00">Command</text>
</a>
</g>
</g>
<!-- Node16&#45;&gt;Node17 -->
<g id="edge16" class="edge"><title>Node16&#45;&gt;Node17</title>
<path fill="none" stroke="midnightblue" d="M1059.5,-799C1076.27,-799 1093.45,-799 1109.68,-799"/>
<polygon fill="midnightblue" stroke="midnightblue" points="1059.12,-795.5 1049.12,-799 1059.12,-802.5 1059.12,-795.5"/>
</g>
<!-- Node34 -->
<g id="node34" class="node"><title>Node34</title>
<g id="a_node34"><a xlink:href="../../d9/df7/classcontroller_1_1_controller.html#a81fea06b52aed0a26625c5b30b490afb" target="_top" xlink:title="controller.Controller.run\lCommand">
<polygon fill="white" stroke="black" points="890,-0 890,-30 1018,-30 1018,-0 890,-0"/>
<text text-anchor="start" x="898" y="-18" font-family="Helvetica,sans-Serif" font-size="10.00">controller.Controller.run</text>
<text text-anchor="middle" x="954" y="-7" font-family="Helvetica,sans-Serif" font-size="10.00">Command</text>
</a>
</g>
</g>
<!-- Node33&#45;&gt;Node34 -->
<g id="edge33" class="edge"><title>Node33&#45;&gt;Node34</title>
<path fill="none" stroke="midnightblue" d="M792.993,-307.773C794.77,-306.312 796.446,-304.725 798,-303 877.283,-215.038 752.965,-125.35 834,-39 848.278,-23.7855 869.31,-16.7492 889.736,-13.8411"/>
<polygon fill="midnightblue" stroke="midnightblue" points="790.968,-304.917 784.623,-313.401 794.874,-310.726 790.968,-304.917"/>
</g>
<!-- Node35 -->
<g id="node35" class="node"><title>Node35</title>
<g id="a_node35"><a xlink:href="../../d9/df7/classcontroller_1_1_controller.html#afdfa7f9e9a3fb5f6b73a6b8e2b2be8b5" target="_top" xlink:title="controller.Controller.get\lInput">
<polygon fill="white" stroke="black" points="1131,-0 1131,-30 1259,-30 1259,-0 1131,-0"/>
<text text-anchor="start" x="1139" y="-18" font-family="Helvetica,sans-Serif" font-size="10.00">controller.Controller.get</text>
<text text-anchor="middle" x="1195" y="-7" font-family="Helvetica,sans-Serif" font-size="10.00">Input</text>
</a>
</g>
</g>
<!-- Node34&#45;&gt;Node35 -->
<g id="edge34" class="edge"><title>Node34&#45;&gt;Node35</title>
<path fill="none" stroke="midnightblue" d="M1028.11,-15C1060.98,-15 1099.38,-15 1130.95,-15"/>
<polygon fill="midnightblue" stroke="midnightblue" points="1028.11,-11.5001 1018.11,-15 1028.11,-18.5001 1028.11,-11.5001"/>
</g>
<!-- Node36 -->
<g id="node36" class="node"><title>Node36</title>
<g id="a_node36"><a xlink:href="../../d3/dc7/classview_1_1controllers_1_1_pane_controller.html#a7e6154aecb60d8f3bcb056a11e842764" target="_top" xlink:title="view.controllers.PaneController.update">
<polygon fill="white" stroke="black" points="1316,-5.5 1316,-24.5 1514,-24.5 1514,-5.5 1316,-5.5"/>
<text text-anchor="middle" x="1415" y="-12.5" font-family="Helvetica,sans-Serif" font-size="10.00">view.controllers.PaneController.update</text>
</a>
</g>
</g>
<!-- Node35&#45;&gt;Node36 -->
<g id="edge35" class="edge"><title>Node35&#45;&gt;Node36</title>
<path fill="none" stroke="midnightblue" d="M1269.22,-15C1284.16,-15 1300.11,-15 1315.76,-15"/>
<polygon fill="midnightblue" stroke="midnightblue" points="1269.05,-11.5001 1259.05,-15 1269.05,-18.5001 1269.05,-11.5001"/>
</g>
<!-- Node38 -->
<g id="node38" class="node"><title>Node38</title>
<g id="a_node38"><a xlink:href="../../d8/daa/classview_1_1panes_1_1_turtle_selector_pane.html#a14e3fbe35c7447dcdf2f0910333cedcc" target="_top" xlink:title="view.panes.TurtleSelector\lPane.TurtleSelectorPane">
<polygon fill="white" stroke="black" points="646.5,-264 646.5,-294 783.5,-294 783.5,-264 646.5,-264"/>
<text text-anchor="start" x="654.5" y="-282" font-family="Helvetica,sans-Serif" font-size="10.00">view.panes.TurtleSelector</text>
<text text-anchor="middle" x="715" y="-271" font-family="Helvetica,sans-Serif" font-size="10.00">Pane.TurtleSelectorPane</text>
</a>
</g>
</g>
<!-- Node37&#45;&gt;Node38 -->
<g id="edge37" class="edge"><title>Node37&#45;&gt;Node38</title>
<path fill="none" stroke="midnightblue" d="M606.43,-279C620.024,-279 633.688,-279 646.5,-279"/>
<polygon fill="midnightblue" stroke="midnightblue" points="606.062,-275.5 596.062,-279 606.062,-282.5 606.062,-275.5"/>
</g>
</g>
</svg>
