<?xml version="1.0" encoding="UTF-8" standalone="no"?>
<!DOCTYPE svg PUBLIC "-//W3C//DTD SVG 1.1//EN"
 "http://www.w3.org/Graphics/SVG/1.1/DTD/svg11.dtd">
<!-- Generated by graphviz version 2.36.0 (20140111.2315)
 -->
<!-- Title: model.Model.getTurtleManager Pages: 1 -->
<svg width="1612pt" height="1382pt"
 viewBox="0.00 0.00 1612.00 1382.10" xmlns="http://www.w3.org/2000/svg" xmlns:xlink="http://www.w3.org/1999/xlink">
<g id="graph0" class="graph" transform="scale(1 1) rotate(0) translate(4 1378.1)">
<title>model.Model.getTurtleManager</title>
<polygon fill="white" stroke="none" points="-4,4 -4,-1378.1 1608,-1378.1 1608,4 -4,4"/>
<!-- Node1 -->
<g id="node1" class="node"><title>Node1</title>
<polygon fill="#bfbfbf" stroke="black" points="0,-902.5 0,-921.5 164,-921.5 164,-902.5 0,-902.5"/>
<text text-anchor="middle" x="82" y="-909.5" font-family="Helvetica,sans-Serif" font-size="10.00">model.Model.getTurtleManager</text>
</g>
<!-- Node2 -->
<g id="node2" class="node"><title>Node2</title>
<g id="a_node2"><a xlink:href="../../d9/d35/classcommands_1_1_ask_command.html#ae4ba28c73ce0b5112e4032bd21a951f5" target="_top" xlink:title="commands.AskCommand.execute\lCommand">
<polygon fill="white" stroke="black" points="953,-1323 953,-1353 1135,-1353 1135,-1323 953,-1323"/>
<text text-anchor="start" x="961" y="-1341" font-family="Helvetica,sans-Serif" font-size="10.00">commands.AskCommand.execute</text>
<text text-anchor="middle" x="1044" y="-1330" font-family="Helvetica,sans-Serif" font-size="10.00">Command</text>
</a>
</g>
</g>
<!-- Node1&#45;&gt;Node2 -->
<g id="edge1" class="edge"><title>Node1&#45;&gt;Node2</title>
<path fill="none" stroke="midnightblue" d="M84.7534,-931.774C90.5878,-985.549 114.156,-1135.78 200,-1216 413.394,-1415.4 799.272,-1379.75 964.486,-1353.04"/>
<polygon fill="midnightblue" stroke="midnightblue" points="88.2102,-931.165 83.7379,-921.56 81.2445,-931.857 88.2102,-931.165"/>
</g>
<!-- Node3 -->
<g id="node3" class="node"><title>Node3</title>
<g id="a_node3"><a xlink:href="../../db/d38/classcommands_1_1_ask_with_command.html#a5ee6a090e94729d84ef423a454d446eb" target="_top" xlink:title="commands.AskWithCommand.execute\lCommand">
<polygon fill="white" stroke="black" points="942.5,-1274 942.5,-1304 1145.5,-1304 1145.5,-1274 942.5,-1274"/>
<text text-anchor="start" x="950.5" y="-1292" font-family="Helvetica,sans-Serif" font-size="10.00">commands.AskWithCommand.execute</text>
<text text-anchor="middle" x="1044" y="-1281" font-family="Helvetica,sans-Serif" font-size="10.00">Command</text>
</a>
</g>
</g>
<!-- Node1&#45;&gt;Node3 -->
<g id="edge2" class="edge"><title>Node1&#45;&gt;Node3</title>
<path fill="none" stroke="midnightblue" d="M111.04,-926.052C215.678,-977.986 594.253,-1161.37 924,-1264 935.893,-1267.7 948.624,-1271.02 961.177,-1273.95"/>
<polygon fill="midnightblue" stroke="midnightblue" points="112.563,-922.901 102.051,-921.579 109.445,-929.168 112.563,-922.901"/>
</g>
<!-- Node4 -->
<g id="node4" class="node"><title>Node4</title>
<g id="a_node4"><a xlink:href="../../d1/d53/classcommands_1_1_tell_command.html#a516b9cdfe48014e8b0d8b9275a886b8f" target="_top" xlink:title="commands.TellCommand.execute\lCommand">
<polygon fill="white" stroke="black" points="708.5,-1274 708.5,-1304 887.5,-1304 887.5,-1274 708.5,-1274"/>
<text text-anchor="start" x="716.5" y="-1292" font-family="Helvetica,sans-Serif" font-size="10.00">commands.TellCommand.execute</text>
<text text-anchor="middle" x="798" y="-1281" font-family="Helvetica,sans-Serif" font-size="10.00">Command</text>
</a>
</g>
</g>
<!-- Node1&#45;&gt;Node4 -->
<g id="edge3" class="edge"><title>Node1&#45;&gt;Node4</title>
<path fill="none" stroke="midnightblue" d="M86.5252,-931.712C95.9222,-978.218 126.079,-1095.26 200,-1154 349.131,-1272.5 582.113,-1291.24 708.408,-1291.83"/>
<polygon fill="midnightblue" stroke="midnightblue" points="89.93,-930.883 84.6112,-921.72 83.055,-932.2 89.93,-930.883"/>
</g>
<!-- Node5 -->
<g id="node5" class="node"><title>Node5</title>
<g id="a_node5"><a xlink:href="../../dd/dd6/classcommands_1_1_command.html#abafa69601e87c34d4453cf84349d6f9c" target="_top" xlink:title="commands.Command.execute\lCommand">
<polygon fill="white" stroke="black" points="715.5,-735 715.5,-765 880.5,-765 880.5,-735 715.5,-735"/>
<text text-anchor="start" x="723.5" y="-753" font-family="Helvetica,sans-Serif" font-size="10.00">commands.Command.execute</text>
<text text-anchor="middle" x="798" y="-742" font-family="Helvetica,sans-Serif" font-size="10.00">Command</text>
</a>
</g>
</g>
<!-- Node1&#45;&gt;Node5 -->
<g id="edge6" class="edge"><title>Node1&#45;&gt;Node5</title>
<path fill="none" stroke="midnightblue" d="M134.889,-900.227C262.141,-871.355 589.576,-797.063 730.678,-765.048"/>
<polygon fill="midnightblue" stroke="midnightblue" points="133.976,-896.845 124.998,-902.471 135.525,-903.671 133.976,-896.845"/>
</g>
<!-- Node32 -->
<g id="node32" class="node"><title>Node32</title>
<g id="a_node32"><a xlink:href="../../dd/dd6/classcommands_1_1_command.html#a761bd86c36bd6e2d0c4145647c7a4a17" target="_top" xlink:title="commands.Command.getFirst\lTurtle">
<polygon fill="white" stroke="black" points="224,-495 224,-525 386,-525 386,-495 224,-495"/>
<text text-anchor="start" x="232" y="-513" font-family="Helvetica,sans-Serif" font-size="10.00">commands.Command.getFirst</text>
<text text-anchor="middle" x="305" y="-502" font-family="Helvetica,sans-Serif" font-size="10.00">Turtle</text>
</a>
</g>
</g>
<!-- Node1&#45;&gt;Node32 -->
<g id="edge35" class="edge"><title>Node1&#45;&gt;Node32</title>
<path fill="none" stroke="midnightblue" d="M93.0664,-893.689C130.485,-825.625 261.171,-587.906 295.622,-525.239"/>
<polygon fill="midnightblue" stroke="midnightblue" points="89.9955,-892.01 88.245,-902.459 96.1296,-895.382 89.9955,-892.01"/>
</g>
<!-- Node41 -->
<g id="node41" class="node"><title>Node41</title>
<g id="a_node41"><a xlink:href="../../db/db5/classview_1_1panes_1_1_view_pane_module.html#aa2a1bf15bc036ee4237bf63749d85baf" target="_top" xlink:title="view.panes.ViewPaneModule.updateView">
<polygon fill="white" stroke="black" points="200.5,-740.5 200.5,-759.5 409.5,-759.5 409.5,-740.5 200.5,-740.5"/>
<text text-anchor="middle" x="305" y="-747.5" font-family="Helvetica,sans-Serif" font-size="10.00">view.panes.ViewPaneModule.updateView</text>
</a>
</g>
</g>
<!-- Node1&#45;&gt;Node41 -->
<g id="edge44" class="edge"><title>Node1&#45;&gt;Node41</title>
<path fill="none" stroke="midnightblue" d="M104.397,-896.316C149.696,-863.109 254.14,-786.549 290.906,-759.598"/>
<polygon fill="midnightblue" stroke="midnightblue" points="102.159,-893.616 96.1627,-902.351 106.297,-899.262 102.159,-893.616"/>
</g>
<!-- Node4&#45;&gt;Node2 -->
<g id="edge4" class="edge"><title>Node4&#45;&gt;Node2</title>
<path fill="none" stroke="midnightblue" d="M883.852,-1306.04C911.331,-1311.56 941.588,-1317.63 968.275,-1322.99"/>
<polygon fill="midnightblue" stroke="midnightblue" points="884.36,-1302.57 873.866,-1304.03 882.981,-1309.44 884.36,-1302.57"/>
</g>
<!-- Node4&#45;&gt;Node3 -->
<g id="edge5" class="edge"><title>Node4&#45;&gt;Node3</title>
<path fill="none" stroke="midnightblue" d="M897.84,-1289C912.493,-1289 927.609,-1289 942.3,-1289"/>
<polygon fill="midnightblue" stroke="midnightblue" points="897.78,-1285.5 887.78,-1289 897.78,-1292.5 897.78,-1285.5"/>
</g>
<!-- Node5&#45;&gt;Node2 -->
<g id="edge17" class="edge"><title>Node5&#45;&gt;Node2</title>
<path fill="none" stroke="midnightblue" d="M801.018,-775.02C809.498,-873.844 845.507,-1235.4 924,-1313 932.107,-1321.01 942.088,-1326.76 952.793,-1330.84"/>
<polygon fill="midnightblue" stroke="midnightblue" points="804.505,-774.714 800.179,-765.043 797.529,-775.301 804.505,-774.714"/>
</g>
<!-- Node5&#45;&gt;Node3 -->
<g id="edge21" class="edge"><title>Node5&#45;&gt;Node3</title>
<path fill="none" stroke="midnightblue" d="M804.899,-775.032C829.064,-877.475 919.432,-1259.57 924,-1264 929.458,-1269.29 935.734,-1273.58 942.49,-1277.06"/>
<polygon fill="midnightblue" stroke="midnightblue" points="808.291,-774.165 802.589,-765.236 801.478,-775.772 808.291,-774.165"/>
</g>
<!-- Node6 -->
<g id="node6" class="node"><title>Node6</title>
<g id="a_node6"><a xlink:href="../../d1/d79/classcommands_1_1_sum_command.html#a792945436d0c3ff1f58301fcc50f5ae1" target="_top" xlink:title="commands.SumCommand.execute\lCommand">
<polygon fill="white" stroke="black" points="950,-784 950,-814 1138,-814 1138,-784 950,-784"/>
<text text-anchor="start" x="958" y="-802" font-family="Helvetica,sans-Serif" font-size="10.00">commands.SumCommand.execute</text>
<text text-anchor="middle" x="1044" y="-791" font-family="Helvetica,sans-Serif" font-size="10.00">Command</text>
</a>
</g>
</g>
<!-- Node5&#45;&gt;Node6 -->
<g id="edge7" class="edge"><title>Node5&#45;&gt;Node6</title>
<path fill="none" stroke="midnightblue" d="M883.852,-767.04C911.331,-772.558 941.588,-778.634 968.275,-783.994"/>
<polygon fill="midnightblue" stroke="midnightblue" points="884.36,-763.572 873.866,-765.035 882.981,-770.435 884.36,-763.572"/>
</g>
<!-- Node7 -->
<g id="node7" class="node"><title>Node7</title>
<g id="a_node7"><a xlink:href="../../d6/dc0/classcommands_1_1_repeat_command.html#a40fb82831e8b2beaa7e31913e46e15eb" target="_top" xlink:title="commands.RepeatCommand.execute\lCommand">
<polygon fill="white" stroke="black" points="945,-735 945,-765 1143,-765 1143,-735 945,-735"/>
<text text-anchor="start" x="953" y="-753" font-family="Helvetica,sans-Serif" font-size="10.00">commands.RepeatCommand.execute</text>
<text text-anchor="middle" x="1044" y="-742" font-family="Helvetica,sans-Serif" font-size="10.00">Command</text>
</a>
</g>
</g>
<!-- Node5&#45;&gt;Node7 -->
<g id="edge8" class="edge"><title>Node5&#45;&gt;Node7</title>
<path fill="none" stroke="midnightblue" d="M890.876,-750C908.547,-750 927.117,-750 944.975,-750"/>
<polygon fill="midnightblue" stroke="midnightblue" points="890.588,-746.5 880.588,-750 890.588,-753.5 890.588,-746.5"/>
</g>
<!-- Node8 -->
<g id="node8" class="node"><title>Node8</title>
<g id="a_node8"><a xlink:href="../../dd/d82/classcommands_1_1_remainder_command.html#a99d4baf3f1b4a3c8d0cd69274380a2cf" target="_top" xlink:title="commands.RemainderCommand.execute\lCommand">
<polygon fill="white" stroke="black" points="936,-686 936,-716 1152,-716 1152,-686 936,-686"/>
<text text-anchor="start" x="944" y="-704" font-family="Helvetica,sans-Serif" font-size="10.00">commands.RemainderCommand.execute</text>
<text text-anchor="middle" x="1044" y="-693" font-family="Helvetica,sans-Serif" font-size="10.00">Command</text>
</a>
</g>
</g>
<!-- Node5&#45;&gt;Node8 -->
<g id="edge9" class="edge"><title>Node5&#45;&gt;Node8</title>
<path fill="none" stroke="midnightblue" d="M883.852,-732.96C911.331,-727.442 941.588,-721.366 968.275,-716.006"/>
<polygon fill="midnightblue" stroke="midnightblue" points="882.981,-729.565 873.866,-734.965 884.36,-736.428 882.981,-729.565"/>
</g>
<!-- Node9 -->
<g id="node9" class="node"><title>Node9</title>
<g id="a_node9"><a xlink:href="../../df/df5/classcommands_1_1_minus_command.html#a82548bbb25a73194469e1ff81b19cf27" target="_top" xlink:title="commands.MinusCommand.execute\lCommand">
<polygon fill="white" stroke="black" points="947.5,-637 947.5,-667 1140.5,-667 1140.5,-637 947.5,-637"/>
<text text-anchor="start" x="955.5" y="-655" font-family="Helvetica,sans-Serif" font-size="10.00">commands.MinusCommand.execute</text>
<text text-anchor="middle" x="1044" y="-644" font-family="Helvetica,sans-Serif" font-size="10.00">Command</text>
</a>
</g>
</g>
<!-- Node5&#45;&gt;Node9 -->
<g id="edge10" class="edge"><title>Node5&#45;&gt;Node9</title>
<path fill="none" stroke="midnightblue" d="M879.013,-730.48C882.131,-728.801 885.142,-726.978 888,-725 910.219,-709.619 901.221,-690.539 924,-676 931.195,-671.408 939.092,-667.668 947.288,-664.625"/>
<polygon fill="midnightblue" stroke="midnightblue" points="877.464,-727.341 869.98,-734.841 880.508,-733.645 877.464,-727.341"/>
</g>
<!-- Node10 -->
<g id="node10" class="node"><title>Node10</title>
<g id="a_node10"><a xlink:href="../../d3/d37/classcommands_1_1_set_background_command.html#a91dc8e21948a301c55af1cef90b77962" target="_top" xlink:title="commands.SetBackgroundCommand.execute\lCommand">
<polygon fill="white" stroke="black" points="924.5,-588 924.5,-618 1163.5,-618 1163.5,-588 924.5,-588"/>
<text text-anchor="start" x="932.5" y="-606" font-family="Helvetica,sans-Serif" font-size="10.00">commands.SetBackgroundCommand.execute</text>
<text text-anchor="middle" x="1044" y="-595" font-family="Helvetica,sans-Serif" font-size="10.00">Command</text>
</a>
</g>
</g>
<!-- Node5&#45;&gt;Node10 -->
<g id="edge11" class="edge"><title>Node5&#45;&gt;Node10</title>
<path fill="none" stroke="midnightblue" d="M882.723,-729.369C884.561,-728.004 886.325,-726.549 888,-725 922.068,-693.497 888.777,-657.207 924,-627 927.92,-623.639 932.179,-620.701 936.677,-618.136"/>
<polygon fill="midnightblue" stroke="midnightblue" points="880.776,-726.46 874.243,-734.801 884.552,-732.354 880.776,-726.46"/>
</g>
<!-- Node11 -->
<g id="node11" class="node"><title>Node11</title>
<g id="a_node11"><a xlink:href="../../d8/dba/classcommands_1_1_product_command.html#a8bc20bc7c21a944405f599dbcfa57e67" target="_top" xlink:title="commands.ProductCommand.execute\lCommand">
<polygon fill="white" stroke="black" points="943,-539 943,-569 1145,-569 1145,-539 943,-539"/>
<text text-anchor="start" x="951" y="-557" font-family="Helvetica,sans-Serif" font-size="10.00">commands.ProductCommand.execute</text>
<text text-anchor="middle" x="1044" y="-546" font-family="Helvetica,sans-Serif" font-size="10.00">Command</text>
</a>
</g>
</g>
<!-- Node5&#45;&gt;Node11 -->
<g id="edge12" class="edge"><title>Node5&#45;&gt;Node11</title>
<path fill="none" stroke="midnightblue" d="M884.024,-728.729C885.406,-727.551 886.734,-726.309 888,-725 934.755,-676.643 875.468,-624.574 924,-578 929.55,-572.674 935.937,-568.378 942.809,-564.928"/>
<polygon fill="midnightblue" stroke="midnightblue" points="881.643,-726.13 875.564,-734.807 885.728,-731.815 881.643,-726.13"/>
</g>
<!-- Node12 -->
<g id="node12" class="node"><title>Node12</title>
<g id="a_node12"><a xlink:href="../../dd/d40/classcommands_1_1_quotient_command.html#a7e23b237cc68512dcbe6a65feb7c39e8" target="_top" xlink:title="commands.QuotientCommand.execute\lCommand">
<polygon fill="white" stroke="black" points="941,-490 941,-520 1147,-520 1147,-490 941,-490"/>
<text text-anchor="start" x="949" y="-508" font-family="Helvetica,sans-Serif" font-size="10.00">commands.QuotientCommand.execute</text>
<text text-anchor="middle" x="1044" y="-497" font-family="Helvetica,sans-Serif" font-size="10.00">Command</text>
</a>
</g>
</g>
<!-- Node5&#45;&gt;Node12 -->
<g id="edge13" class="edge"><title>Node5&#45;&gt;Node12</title>
<path fill="none" stroke="midnightblue" d="M884.253,-728.719C885.559,-727.543 886.81,-726.305 888,-725 947.675,-659.553 861.919,-592.169 924,-529 928.949,-523.964 934.64,-519.836 940.795,-516.463"/>
<polygon fill="midnightblue" stroke="midnightblue" points="882.09,-725.966 876.228,-734.791 886.314,-731.548 882.09,-725.966"/>
</g>
<!-- Node13 -->
<g id="node13" class="node"><title>Node13</title>
<g id="a_node13"><a xlink:href="../../dc/d68/classcommands_1_1_make_variable_command.html#ad0e0974744cc969c12c67805c2460ef4" target="_top" xlink:title="commands.MakeVariableCommand.execute\lCommand">
<polygon fill="white" stroke="black" points="929.5,-441 929.5,-471 1158.5,-471 1158.5,-441 929.5,-441"/>
<text text-anchor="start" x="937.5" y="-459" font-family="Helvetica,sans-Serif" font-size="10.00">commands.MakeVariableCommand.execute</text>
<text text-anchor="middle" x="1044" y="-448" font-family="Helvetica,sans-Serif" font-size="10.00">Command</text>
</a>
</g>
</g>
<!-- Node5&#45;&gt;Node13 -->
<g id="edge14" class="edge"><title>Node5&#45;&gt;Node13</title>
<path fill="none" stroke="midnightblue" d="M884.317,-728.777C885.604,-727.583 886.834,-726.326 888,-725 960.688,-642.361 848.271,-559.862 924,-480 927.19,-476.635 930.711,-473.672 934.482,-471.065"/>
<polygon fill="midnightblue" stroke="midnightblue" points="882.14,-726.036 876.385,-734.932 886.431,-731.567 882.14,-726.036"/>
</g>
<!-- Node14 -->
<g id="node14" class="node"><title>Node14</title>
<g id="a_node14"><a xlink:href="../../d8/ded/classcommands_1_1_difference_command.html#a0c34c43d3bb266ef3e48ae27be938a0f" target="_top" xlink:title="commands.DifferenceCommand.execute\lCommand">
<polygon fill="white" stroke="black" points="937,-392 937,-422 1151,-422 1151,-392 937,-392"/>
<text text-anchor="start" x="945" y="-410" font-family="Helvetica,sans-Serif" font-size="10.00">commands.DifferenceCommand.execute</text>
<text text-anchor="middle" x="1044" y="-399" font-family="Helvetica,sans-Serif" font-size="10.00">Command</text>
</a>
</g>
</g>
<!-- Node5&#45;&gt;Node14 -->
<g id="edge15" class="edge"><title>Node5&#45;&gt;Node14</title>
<path fill="none" stroke="midnightblue" d="M884.815,-728.381C885.924,-727.306 886.987,-726.18 888,-725 973.749,-625.116 834.575,-527.607 924,-431 927.866,-426.824 932.239,-423.262 936.971,-420.231"/>
<polygon fill="midnightblue" stroke="midnightblue" points="882.486,-725.763 876.891,-734.759 886.875,-731.215 882.486,-725.763"/>
</g>
<!-- Node15 -->
<g id="node15" class="node"><title>Node15</title>
<g id="a_node15"><a xlink:href="../../dd/d29/classcommands_1_1_clear_screen_command.html#a87e5eb0f4c3bb48ec0737da2aa431db3" target="_top" xlink:title="commands.ClearScreenCommand.execute\lCommand">
<polygon fill="white" stroke="black" points="932,-343 932,-373 1156,-373 1156,-343 932,-343"/>
<text text-anchor="start" x="940" y="-361" font-family="Helvetica,sans-Serif" font-size="10.00">commands.ClearScreenCommand.execute</text>
<text text-anchor="middle" x="1044" y="-350" font-family="Helvetica,sans-Serif" font-size="10.00">Command</text>
</a>
</g>
</g>
<!-- Node5&#45;&gt;Node15 -->
<g id="edge16" class="edge"><title>Node5&#45;&gt;Node15</title>
<path fill="none" stroke="midnightblue" d="M884.843,-728.405C885.943,-727.323 886.997,-726.188 888,-725 986.836,-607.839 820.85,-495.382 924,-382 927.049,-378.648 930.426,-375.69 934.053,-373.083"/>
<polygon fill="midnightblue" stroke="midnightblue" points="882.507,-725.794 876.966,-734.824 886.929,-731.22 882.507,-725.794"/>
</g>
<!-- Node16 -->
<g id="node16" class="node"><title>Node16</title>
<g id="a_node16"><a xlink:href="../../d3/d49/classcommands_1_1_if_else_command.html#a3b3d15925117d366a69f8ebd1dbc2dbc" target="_top" xlink:title="commands.IfElseCommand.execute\lCommand">
<polygon fill="white" stroke="black" points="949,-294 949,-324 1139,-324 1139,-294 949,-294"/>
<text text-anchor="start" x="957" y="-312" font-family="Helvetica,sans-Serif" font-size="10.00">commands.IfElseCommand.execute</text>
<text text-anchor="middle" x="1044" y="-301" font-family="Helvetica,sans-Serif" font-size="10.00">Command</text>
</a>
</g>
</g>
<!-- Node5&#45;&gt;Node16 -->
<g id="edge18" class="edge"><title>Node5&#45;&gt;Node16</title>
<path fill="none" stroke="midnightblue" d="M884.865,-728.423C885.958,-727.335 887.005,-726.195 888,-725 943.97,-657.771 865.554,-398.088 924,-333 930.9,-325.316 939.518,-319.694 948.944,-315.627"/>
<polygon fill="midnightblue" stroke="midnightblue" points="882.524,-725.817 877.024,-734.872 886.97,-731.223 882.524,-725.817"/>
</g>
<!-- Node18 -->
<g id="node18" class="node"><title>Node18</title>
<g id="a_node18"><a xlink:href="../../d8/d57/classcommands_1_1_for_command.html#aeb06a37d7f9845eb546425bae6ea9f58" target="_top" xlink:title="commands.ForCommand.execute\lCommand">
<polygon fill="white" stroke="black" points="954,-245 954,-275 1134,-275 1134,-245 954,-245"/>
<text text-anchor="start" x="962" y="-263" font-family="Helvetica,sans-Serif" font-size="10.00">commands.ForCommand.execute</text>
<text text-anchor="middle" x="1044" y="-252" font-family="Helvetica,sans-Serif" font-size="10.00">Command</text>
</a>
</g>
</g>
<!-- Node5&#45;&gt;Node18 -->
<g id="edge20" class="edge"><title>Node5&#45;&gt;Node18</title>
<path fill="none" stroke="midnightblue" d="M884.881,-728.437C885.97,-727.345 887.011,-726.2 888,-725 950.528,-649.117 858.678,-357.491 924,-284 932.051,-274.942 942.489,-268.743 953.835,-264.574"/>
<polygon fill="midnightblue" stroke="midnightblue" points="882.537,-725.834 877.069,-734.909 887.002,-731.225 882.537,-725.834"/>
</g>
<!-- Node19 -->
<g id="node19" class="node"><title>Node19</title>
<g id="a_node19"><a xlink:href="../../d4/d02/classcommands_1_1_do_times_command.html#a1dd20e90975d905a1bce8f018e9f7f0a" target="_top" xlink:title="commands.DoTimesCommand.execute\lCommand">
<polygon fill="white" stroke="black" points="940.5,-196 940.5,-226 1147.5,-226 1147.5,-196 940.5,-196"/>
<text text-anchor="start" x="948.5" y="-214" font-family="Helvetica,sans-Serif" font-size="10.00">commands.DoTimesCommand.execute</text>
<text text-anchor="middle" x="1044" y="-203" font-family="Helvetica,sans-Serif" font-size="10.00">Command</text>
</a>
</g>
</g>
<!-- Node5&#45;&gt;Node19 -->
<g id="edge22" class="edge"><title>Node5&#45;&gt;Node19</title>
<path fill="none" stroke="midnightblue" d="M884.895,-728.448C885.979,-727.353 887.016,-726.204 888,-725 957.089,-640.457 851.797,-316.899 924,-235 928.739,-229.625 934.318,-225.254 940.43,-221.716"/>
<polygon fill="midnightblue" stroke="midnightblue" points="882.547,-725.849 877.105,-734.939 887.028,-731.227 882.547,-725.849"/>
</g>
<!-- Node20 -->
<g id="node20" class="node"><title>Node20</title>
<g id="a_node20"><a xlink:href="../../dd/de4/classcommands_1_1_custom_command.html#a5ad25438a49d3e4eeba835fefe8b730a" target="_top" xlink:title="commands.CustomCommand.execute\lCommand">
<polygon fill="white" stroke="black" points="942.5,-147 942.5,-177 1145.5,-177 1145.5,-147 942.5,-147"/>
<text text-anchor="start" x="950.5" y="-165" font-family="Helvetica,sans-Serif" font-size="10.00">commands.CustomCommand.execute</text>
<text text-anchor="middle" x="1044" y="-154" font-family="Helvetica,sans-Serif" font-size="10.00">Command</text>
</a>
</g>
</g>
<!-- Node5&#45;&gt;Node20 -->
<g id="edge23" class="edge"><title>Node5&#45;&gt;Node20</title>
<path fill="none" stroke="midnightblue" d="M884.906,-728.457C885.987,-727.359 887.02,-726.207 888,-725 963.653,-631.794 844.913,-276.311 924,-186 929.207,-180.054 935.442,-175.335 942.292,-171.612"/>
<polygon fill="midnightblue" stroke="midnightblue" points="882.556,-725.86 877.135,-734.963 887.049,-731.228 882.556,-725.86"/>
</g>
<!-- Node21 -->
<g id="node21" class="node"><title>Node21</title>
<g id="a_node21"><a xlink:href="../../d6/daf/classcommands_1_1_set_shape_command.html#a59c440316cf9e732b5aa2f46def94e10" target="_top" xlink:title="commands.SetShapeCommand.update\lTurtle">
<polygon fill="white" stroke="black" points="940,-98 940,-128 1148,-128 1148,-98 940,-98"/>
<text text-anchor="start" x="948" y="-116" font-family="Helvetica,sans-Serif" font-size="10.00">commands.SetShapeCommand.update</text>
<text text-anchor="middle" x="1044" y="-105" font-family="Helvetica,sans-Serif" font-size="10.00">Turtle</text>
</a>
</g>
</g>
<!-- Node5&#45;&gt;Node21 -->
<g id="edge24" class="edge"><title>Node5&#45;&gt;Node21</title>
<path fill="none" stroke="midnightblue" d="M884.915,-728.465C885.993,-727.364 887.024,-726.21 888,-725 970.22,-623.129 838.027,-235.724 924,-137 928.568,-131.755 933.935,-127.463 939.82,-123.967"/>
<polygon fill="midnightblue" stroke="midnightblue" points="882.563,-725.87 877.159,-734.983 887.067,-731.229 882.563,-725.87"/>
</g>
<!-- Node22 -->
<g id="node22" class="node"><title>Node22</title>
<g id="a_node22"><a xlink:href="../../d6/d11/classcommands_1_1_set_pen_dash_command.html#a320f3b8248e3e89b2338dfefbe73f8c7" target="_top" xlink:title="commands.SetPenDashCommand.update\lTurtle">
<polygon fill="white" stroke="black" points="934,-49 934,-79 1154,-79 1154,-49 934,-49"/>
<text text-anchor="start" x="942" y="-67" font-family="Helvetica,sans-Serif" font-size="10.00">commands.SetPenDashCommand.update</text>
<text text-anchor="middle" x="1044" y="-56" font-family="Helvetica,sans-Serif" font-size="10.00">Turtle</text>
</a>
</g>
</g>
<!-- Node5&#45;&gt;Node22 -->
<g id="edge25" class="edge"><title>Node5&#45;&gt;Node22</title>
<path fill="none" stroke="midnightblue" d="M885.337,-728.042C886.263,-727.069 887.152,-726.056 888,-725 976.787,-614.461 831.14,-195.14 924,-88 926.899,-84.6555 930.123,-81.6982 933.599,-79.0871"/>
<polygon fill="midnightblue" stroke="midnightblue" points="882.867,-725.55 877.57,-734.726 887.433,-730.856 882.867,-725.55"/>
</g>
<!-- Node23 -->
<g id="node23" class="node"><title>Node23</title>
<g id="a_node23"><a xlink:href="../../dc/df3/classcommands_1_1_set_towards_command.html#ad82abd7dcaed57b3bdb3a4b87a91815a" target="_top" xlink:title="commands.SetTowardsCommand.update\lTurtle">
<polygon fill="white" stroke="black" points="936.5,-1225 936.5,-1255 1151.5,-1255 1151.5,-1225 936.5,-1225"/>
<text text-anchor="start" x="944.5" y="-1243" font-family="Helvetica,sans-Serif" font-size="10.00">commands.SetTowardsCommand.update</text>
<text text-anchor="middle" x="1044" y="-1232" font-family="Helvetica,sans-Serif" font-size="10.00">Turtle</text>
</a>
</g>
</g>
<!-- Node5&#45;&gt;Node23 -->
<g id="edge26" class="edge"><title>Node5&#45;&gt;Node23</title>
<path fill="none" stroke="midnightblue" d="M804.944,-774.961C827.499,-869.257 907.353,-1199.25 924,-1215 927.987,-1218.77 932.392,-1222.04 937.089,-1224.86"/>
<polygon fill="midnightblue" stroke="midnightblue" points="808.326,-774.054 802.599,-765.14 801.518,-775.68 808.326,-774.054"/>
</g>
<!-- Node24 -->
<g id="node24" class="node"><title>Node24</title>
<g id="a_node24"><a xlink:href="../../d9/db5/classcommands_1_1_set_position_command.html#aba31c4887974831a6c0d9feac8316ee6" target="_top" xlink:title="commands.SetPositionCommand.update\lTurtle">
<polygon fill="white" stroke="black" points="936.5,-1176 936.5,-1206 1151.5,-1206 1151.5,-1176 936.5,-1176"/>
<text text-anchor="start" x="944.5" y="-1194" font-family="Helvetica,sans-Serif" font-size="10.00">commands.SetPositionCommand.update</text>
<text text-anchor="middle" x="1044" y="-1183" font-family="Helvetica,sans-Serif" font-size="10.00">Turtle</text>
</a>
</g>
</g>
<!-- Node5&#45;&gt;Node24 -->
<g id="edge27" class="edge"><title>Node5&#45;&gt;Node24</title>
<path fill="none" stroke="midnightblue" d="M798.359,-775.367C797.997,-848.104 807.519,-1059 924,-1166 928.12,-1169.78 932.662,-1173.05 937.495,-1175.87"/>
<polygon fill="midnightblue" stroke="midnightblue" points="801.86,-775.332 798.48,-765.291 794.86,-775.248 801.86,-775.332"/>
</g>
<!-- Node25 -->
<g id="node25" class="node"><title>Node25</title>
<g id="a_node25"><a xlink:href="../../dd/db2/classcommands_1_1_right_command.html#ae16ecb0da3e0a2049a7382d74f315cb6" target="_top" xlink:title="commands.RightCommand.update\lTurtle">
<polygon fill="white" stroke="black" points="951.5,-1127 951.5,-1157 1136.5,-1157 1136.5,-1127 951.5,-1127"/>
<text text-anchor="start" x="959.5" y="-1145" font-family="Helvetica,sans-Serif" font-size="10.00">commands.RightCommand.update</text>
<text text-anchor="middle" x="1044" y="-1134" font-family="Helvetica,sans-Serif" font-size="10.00">Turtle</text>
</a>
</g>
</g>
<!-- Node5&#45;&gt;Node25 -->
<g id="edge28" class="edge"><title>Node5&#45;&gt;Node25</title>
<path fill="none" stroke="midnightblue" d="M799.522,-775.058C802.345,-841.724 819.703,-1024.64 924,-1117 931.981,-1124.07 941.444,-1129.32 951.494,-1133.2"/>
<polygon fill="midnightblue" stroke="midnightblue" points="803.019,-774.913 799.173,-765.041 796.023,-775.157 803.019,-774.913"/>
</g>
<!-- Node26 -->
<g id="node26" class="node"><title>Node26</title>
<g id="a_node26"><a xlink:href="../../dc/db3/classcommands_1_1_set_heading_command.html#a064fae1a815349b9efc6bd43f2371339" target="_top" xlink:title="commands.SetHeadingCommand.update\lTurtle">
<polygon fill="white" stroke="black" points="935.5,-1078 935.5,-1108 1152.5,-1108 1152.5,-1078 935.5,-1078"/>
<text text-anchor="start" x="943.5" y="-1096" font-family="Helvetica,sans-Serif" font-size="10.00">commands.SetHeadingCommand.update</text>
<text text-anchor="middle" x="1044" y="-1085" font-family="Helvetica,sans-Serif" font-size="10.00">Turtle</text>
</a>
</g>
</g>
<!-- Node5&#45;&gt;Node26 -->
<g id="edge29" class="edge"><title>Node5&#45;&gt;Node26</title>
<path fill="none" stroke="midnightblue" d="M801.04,-775.365C807.348,-836.05 832.085,-990.318 924,-1068 928.515,-1071.82 933.465,-1075.1 938.702,-1077.91"/>
<polygon fill="midnightblue" stroke="midnightblue" points="804.501,-774.784 800.065,-765.163 797.532,-775.451 804.501,-774.784"/>
</g>
<!-- Node27 -->
<g id="node27" class="node"><title>Node27</title>
<g id="a_node27"><a xlink:href="../../d2/dbb/classcommands_1_1_set_pen_size_command.html#aa8dbbb22c72842b2d6f50aa169a8404e" target="_top" xlink:title="commands.SetPenSizeCommand.update\lTurtle">
<polygon fill="white" stroke="black" points="936.5,-1029 936.5,-1059 1151.5,-1059 1151.5,-1029 936.5,-1029"/>
<text text-anchor="start" x="944.5" y="-1047" font-family="Helvetica,sans-Serif" font-size="10.00">commands.SetPenSizeCommand.update</text>
<text text-anchor="middle" x="1044" y="-1036" font-family="Helvetica,sans-Serif" font-size="10.00">Turtle</text>
</a>
</g>
</g>
<!-- Node5&#45;&gt;Node27 -->
<g id="edge30" class="edge"><title>Node5&#45;&gt;Node27</title>
<path fill="none" stroke="midnightblue" d="M802.998,-775.125C812.945,-828.911 844.033,-955.459 924,-1019 928.793,-1022.81 934.027,-1026.08 939.541,-1028.87"/>
<polygon fill="midnightblue" stroke="midnightblue" points="806.412,-774.332 801.233,-765.089 799.518,-775.544 806.412,-774.332"/>
</g>
<!-- Node28 -->
<g id="node28" class="node"><title>Node28</title>
<g id="a_node28"><a xlink:href="../../d5/d21/classcommands_1_1_set_pen_color_command.html#a69a9c0161b8910c8fecc5ace219aeeb8" target="_top" xlink:title="commands.SetPenColorCommand.update\lTurtle">
<polygon fill="white" stroke="black" points="934,-980 934,-1010 1154,-1010 1154,-980 934,-980"/>
<text text-anchor="start" x="942" y="-998" font-family="Helvetica,sans-Serif" font-size="10.00">commands.SetPenColorCommand.update</text>
<text text-anchor="middle" x="1044" y="-987" font-family="Helvetica,sans-Serif" font-size="10.00">Turtle</text>
</a>
</g>
</g>
<!-- Node5&#45;&gt;Node28 -->
<g id="edge31" class="edge"><title>Node5&#45;&gt;Node28</title>
<path fill="none" stroke="midnightblue" d="M805.749,-775.021C819.611,-821.342 855.862,-920.259 924,-970 929.286,-973.859 935.036,-977.149 941.062,-979.953"/>
<polygon fill="midnightblue" stroke="midnightblue" points="809.051,-773.838 802.913,-765.202 802.326,-775.78 809.051,-773.838"/>
</g>
<!-- Node29 -->
<g id="node29" class="node"><title>Node29</title>
<g id="a_node29"><a xlink:href="../../dc/d65/classcommands_1_1_left_command.html#abd466facd4b16e1c04a6578b4bf8e203" target="_top" xlink:title="commands.LeftCommand.update\lTurtle">
<polygon fill="white" stroke="black" points="954.5,-931 954.5,-961 1133.5,-961 1133.5,-931 954.5,-931"/>
<text text-anchor="start" x="962.5" y="-949" font-family="Helvetica,sans-Serif" font-size="10.00">commands.LeftCommand.update</text>
<text text-anchor="middle" x="1044" y="-938" font-family="Helvetica,sans-Serif" font-size="10.00">Turtle</text>
</a>
</g>
</g>
<!-- Node5&#45;&gt;Node29 -->
<g id="edge32" class="edge"><title>Node5&#45;&gt;Node29</title>
<path fill="none" stroke="midnightblue" d="M809.73,-774.511C827.625,-812.335 867.281,-884.379 924,-921 933.222,-926.955 943.608,-931.521 954.304,-935.019"/>
<polygon fill="midnightblue" stroke="midnightblue" points="812.822,-772.858 805.458,-765.241 806.465,-775.788 812.822,-772.858"/>
</g>
<!-- Node30 -->
<g id="node30" class="node"><title>Node30</title>
<g id="a_node30"><a xlink:href="../../d6/ddc/classcommands_1_1_backward_command.html#af0c4c6ac04bea1aa34b069a01c53888f" target="_top" xlink:title="commands.BackwardCommand.update\lTurtle">
<polygon fill="white" stroke="black" points="941,-882 941,-912 1147,-912 1147,-882 941,-882"/>
<text text-anchor="start" x="949" y="-900" font-family="Helvetica,sans-Serif" font-size="10.00">commands.BackwardCommand.update</text>
<text text-anchor="middle" x="1044" y="-889" font-family="Helvetica,sans-Serif" font-size="10.00">Turtle</text>
</a>
</g>
</g>
<!-- Node5&#45;&gt;Node30 -->
<g id="edge33" class="edge"><title>Node5&#45;&gt;Node30</title>
<path fill="none" stroke="midnightblue" d="M815.952,-773.206C837.714,-801.203 878.176,-847.548 924,-872 931.264,-875.876 939.076,-879.151 947.102,-881.919"/>
<polygon fill="midnightblue" stroke="midnightblue" points="818.659,-770.983 809.814,-765.151 813.092,-775.226 818.659,-770.983"/>
</g>
<!-- Node31 -->
<g id="node31" class="node"><title>Node31</title>
<g id="a_node31"><a xlink:href="../../da/d4f/classcommands_1_1_forward_command.html#afe19b644a8fe0d46f3dbf19aef135364" target="_top" xlink:title="commands.ForwardCommand.update\lTurtle">
<polygon fill="white" stroke="black" points="945,-833 945,-863 1143,-863 1143,-833 945,-833"/>
<text text-anchor="start" x="953" y="-851" font-family="Helvetica,sans-Serif" font-size="10.00">commands.ForwardCommand.update</text>
<text text-anchor="middle" x="1044" y="-840" font-family="Helvetica,sans-Serif" font-size="10.00">Turtle</text>
</a>
</g>
</g>
<!-- Node5&#45;&gt;Node31 -->
<g id="edge34" class="edge"><title>Node5&#45;&gt;Node31</title>
<path fill="none" stroke="midnightblue" d="M828.518,-770.926C853.015,-787.364 889.33,-809.64 924,-823 933.948,-826.833 944.602,-830.127 955.296,-832.945"/>
<polygon fill="midnightblue" stroke="midnightblue" points="830.288,-767.897 820.052,-765.161 826.348,-773.683 830.288,-767.897"/>
</g>
<!-- Node17 -->
<g id="node17" class="node"><title>Node17</title>
<g id="a_node17"><a xlink:href="../../d5/dad/classcommands_1_1_if_command.html#a0d92f20941c1e79cfb1e02e77f463e68" target="_top" xlink:title="commands.IfCommand.execute\lCommand">
<polygon fill="white" stroke="black" points="1200,-294 1200,-324 1370,-324 1370,-294 1200,-294"/>
<text text-anchor="start" x="1208" y="-312" font-family="Helvetica,sans-Serif" font-size="10.00">commands.IfCommand.execute</text>
<text text-anchor="middle" x="1285" y="-301" font-family="Helvetica,sans-Serif" font-size="10.00">Command</text>
</a>
</g>
</g>
<!-- Node16&#45;&gt;Node17 -->
<g id="edge19" class="edge"><title>Node16&#45;&gt;Node17</title>
<path fill="none" stroke="midnightblue" d="M1149.5,-309C1166.27,-309 1183.45,-309 1199.68,-309"/>
<polygon fill="midnightblue" stroke="midnightblue" points="1149.12,-305.5 1139.12,-309 1149.12,-312.5 1149.12,-305.5"/>
</g>
<!-- Node33 -->
<g id="node33" class="node"><title>Node33</title>
<g id="a_node33"><a xlink:href="../../df/d28/classcommands_1_1_y_coordinate_command.html#a53ce041f5df4b5e51b0bf982067a7f8e" target="_top" xlink:title="commands.YCoordinateCommand.execute\lCommand">
<polygon fill="white" stroke="black" points="448,-544 448,-574 670,-574 670,-544 448,-544"/>
<text text-anchor="start" x="456" y="-562" font-family="Helvetica,sans-Serif" font-size="10.00">commands.YCoordinateCommand.execute</text>
<text text-anchor="middle" x="559" y="-551" font-family="Helvetica,sans-Serif" font-size="10.00">Command</text>
</a>
</g>
</g>
<!-- Node32&#45;&gt;Node33 -->
<g id="edge36" class="edge"><title>Node32&#45;&gt;Node33</title>
<path fill="none" stroke="midnightblue" d="M393.261,-526.967C421.739,-532.505 453.142,-538.611 480.825,-543.994"/>
<polygon fill="midnightblue" stroke="midnightblue" points="393.805,-523.508 383.321,-525.035 392.469,-530.379 393.805,-523.508"/>
</g>
<!-- Node34 -->
<g id="node34" class="node"><title>Node34</title>
<g id="a_node34"><a xlink:href="../../da/dcf/classcommands_1_1_x_coordinate_command.html#a3e3312833c4c9d8ca0c99efd8e373a33" target="_top" xlink:title="commands.XCoordinateCommand.execute\lCommand">
<polygon fill="white" stroke="black" points="447.5,-495 447.5,-525 670.5,-525 670.5,-495 447.5,-495"/>
<text text-anchor="start" x="455.5" y="-513" font-family="Helvetica,sans-Serif" font-size="10.00">commands.XCoordinateCommand.execute</text>
<text text-anchor="middle" x="559" y="-502" font-family="Helvetica,sans-Serif" font-size="10.00">Command</text>
</a>
</g>
</g>
<!-- Node32&#45;&gt;Node34 -->
<g id="edge37" class="edge"><title>Node32&#45;&gt;Node34</title>
<path fill="none" stroke="midnightblue" d="M396.251,-510C412.79,-510 430.225,-510 447.281,-510"/>
<polygon fill="midnightblue" stroke="midnightblue" points="396.081,-506.5 386.081,-510 396.081,-513.5 396.081,-506.5"/>
</g>
<!-- Node35 -->
<g id="node35" class="node"><title>Node35</title>
<g id="a_node35"><a xlink:href="../../d3/d1a/classcommands_1_1_heading_command.html#ac43dc3035aaa877f858022adf192d464" target="_top" xlink:title="commands.HeadingCommand.execute\lCommand">
<polygon fill="white" stroke="black" points="456.5,-446 456.5,-476 661.5,-476 661.5,-446 456.5,-446"/>
<text text-anchor="start" x="464.5" y="-464" font-family="Helvetica,sans-Serif" font-size="10.00">commands.HeadingCommand.execute</text>
<text text-anchor="middle" x="559" y="-453" font-family="Helvetica,sans-Serif" font-size="10.00">Command</text>
</a>
</g>
</g>
<!-- Node32&#45;&gt;Node35 -->
<g id="edge38" class="edge"><title>Node32&#45;&gt;Node35</title>
<path fill="none" stroke="midnightblue" d="M393.261,-493.033C421.739,-487.495 453.142,-481.389 480.825,-476.006"/>
<polygon fill="midnightblue" stroke="midnightblue" points="392.469,-489.621 383.321,-494.965 393.805,-496.492 392.469,-489.621"/>
</g>
<!-- Node36 -->
<g id="node36" class="node"><title>Node36</title>
<g id="a_node36"><a xlink:href="../../de/d65/classcommands_1_1_is_showing_command.html#af2ed66a904379343ee62fe1650f79867" target="_top" xlink:title="commands.IsShowingCommand.execute\lCommand">
<polygon fill="white" stroke="black" points="453,-397 453,-427 665,-427 665,-397 453,-397"/>
<text text-anchor="start" x="461" y="-415" font-family="Helvetica,sans-Serif" font-size="10.00">commands.IsShowingCommand.execute</text>
<text text-anchor="middle" x="559" y="-404" font-family="Helvetica,sans-Serif" font-size="10.00">Command</text>
</a>
</g>
</g>
<!-- Node32&#45;&gt;Node36 -->
<g id="edge39" class="edge"><title>Node32&#45;&gt;Node36</title>
<path fill="none" stroke="midnightblue" d="M338.673,-489.405C366.314,-472.81 407.465,-450.008 446,-436 455.345,-432.603 465.312,-429.617 475.301,-427.012"/>
<polygon fill="midnightblue" stroke="midnightblue" points="336.568,-486.589 329.841,-494.774 340.204,-492.571 336.568,-486.589"/>
</g>
<!-- Node37 -->
<g id="node37" class="node"><title>Node37</title>
<g id="a_node37"><a xlink:href="../../d8/dc0/classcommands_1_1_is_pen_down_command.html#ab3c897909c384a8b9917a2924f058561" target="_top" xlink:title="commands.IsPenDownCommand.execute\lCommand">
<polygon fill="white" stroke="black" points="450.5,-348 450.5,-378 667.5,-378 667.5,-348 450.5,-348"/>
<text text-anchor="start" x="458.5" y="-366" font-family="Helvetica,sans-Serif" font-size="10.00">commands.IsPenDownCommand.execute</text>
<text text-anchor="middle" x="559" y="-355" font-family="Helvetica,sans-Serif" font-size="10.00">Command</text>
</a>
</g>
</g>
<!-- Node32&#45;&gt;Node37 -->
<g id="edge40" class="edge"><title>Node32&#45;&gt;Node37</title>
<path fill="none" stroke="midnightblue" d="M325.261,-487.047C350.166,-458.943 396.279,-412.005 446,-387 452.84,-383.56 460.155,-380.612 467.649,-378.086"/>
<polygon fill="midnightblue" stroke="midnightblue" points="322.454,-484.941 318.523,-494.78 327.732,-489.54 322.454,-484.941"/>
</g>
<!-- Node38 -->
<g id="node38" class="node"><title>Node38</title>
<g id="a_node38"><a xlink:href="../../d9/dce/classcommands_1_1_i_d_command.html#a2a8914f441564332596790a640ebca58" target="_top" xlink:title="commands.IDCommand.execute\lCommand">
<polygon fill="white" stroke="black" points="471.5,-299 471.5,-329 646.5,-329 646.5,-299 471.5,-299"/>
<text text-anchor="start" x="479.5" y="-317" font-family="Helvetica,sans-Serif" font-size="10.00">commands.IDCommand.execute</text>
<text text-anchor="middle" x="559" y="-306" font-family="Helvetica,sans-Serif" font-size="10.00">Command</text>
</a>
</g>
</g>
<!-- Node32&#45;&gt;Node38 -->
<g id="edge41" class="edge"><title>Node32&#45;&gt;Node38</title>
<path fill="none" stroke="midnightblue" d="M318.37,-486.13C339.272,-448.324 385.305,-375.158 446,-338 453.802,-333.224 462.416,-329.389 471.298,-326.312"/>
<polygon fill="midnightblue" stroke="midnightblue" points="315.286,-484.476 313.604,-494.936 321.442,-487.808 315.286,-484.476"/>
</g>
<!-- Node39 -->
<g id="node39" class="node"><title>Node39</title>
<g id="a_node39"><a xlink:href="../../df/d59/classcommands_1_1_get_shape_command.html#a0403bbf22c64cbc96b97787ea28259ce" target="_top" xlink:title="commands.GetShapeCommand.execute\lCommand">
<polygon fill="white" stroke="black" points="452.5,-642 452.5,-672 665.5,-672 665.5,-642 452.5,-642"/>
<text text-anchor="start" x="460.5" y="-660" font-family="Helvetica,sans-Serif" font-size="10.00">commands.GetShapeCommand.execute</text>
<text text-anchor="middle" x="559" y="-649" font-family="Helvetica,sans-Serif" font-size="10.00">Command</text>
</a>
</g>
</g>
<!-- Node32&#45;&gt;Node39 -->
<g id="edge42" class="edge"><title>Node32&#45;&gt;Node39</title>
<path fill="none" stroke="midnightblue" d="M325.336,-532.693C350.317,-560.494 396.511,-606.972 446,-632 453.645,-635.866 461.881,-639.139 470.295,-641.908"/>
<polygon fill="midnightblue" stroke="midnightblue" points="327.821,-530.22 318.576,-525.045 322.576,-534.856 327.821,-530.22"/>
</g>
<!-- Node40 -->
<g id="node40" class="node"><title>Node40</title>
<g id="a_node40"><a xlink:href="../../d7/d4f/classcommands_1_1_get_pen_color_command.html#a323244d5f0b999d912f8c2e0ae86d97a" target="_top" xlink:title="commands.GetPenColorCommand.execute\lCommand">
<polygon fill="white" stroke="black" points="446.5,-593 446.5,-623 671.5,-623 671.5,-593 446.5,-593"/>
<text text-anchor="start" x="454.5" y="-611" font-family="Helvetica,sans-Serif" font-size="10.00">commands.GetPenColorCommand.execute</text>
<text text-anchor="middle" x="559" y="-600" font-family="Helvetica,sans-Serif" font-size="10.00">Command</text>
</a>
</g>
</g>
<!-- Node32&#45;&gt;Node40 -->
<g id="edge43" class="edge"><title>Node32&#45;&gt;Node40</title>
<path fill="none" stroke="midnightblue" d="M339.245,-530.505C366.921,-546.787 407.83,-569.061 446,-583 456.386,-586.793 467.533,-590.116 478.623,-592.995"/>
<polygon fill="midnightblue" stroke="midnightblue" points="340.772,-527.341 330.389,-525.234 337.192,-533.356 340.772,-527.341"/>
</g>
<!-- Node42 -->
<g id="node42" class="node"><title>Node42</title>
<g id="a_node42"><a xlink:href="../../d3/d42/classmodel_1_1_model.html#a76160d002c1e68b566307ac44356f6e5" target="_top" xlink:title="model.Model.notifyView">
<polygon fill="white" stroke="black" points="494.5,-740.5 494.5,-759.5 623.5,-759.5 623.5,-740.5 494.5,-740.5"/>
<text text-anchor="middle" x="559" y="-747.5" font-family="Helvetica,sans-Serif" font-size="10.00">model.Model.notifyView</text>
</a>
</g>
</g>
<!-- Node41&#45;&gt;Node42 -->
<g id="edge45" class="edge"><title>Node41&#45;&gt;Node42</title>
<path fill="none" stroke="midnightblue" d="M419.763,-750C445.427,-750 471.775,-750 494.494,-750"/>
<polygon fill="midnightblue" stroke="midnightblue" points="419.589,-746.5 409.589,-750 419.589,-753.5 419.589,-746.5"/>
</g>
<!-- Node47 -->
<g id="node47" class="node"><title>Node47</title>
<g id="a_node47"><a xlink:href="../../db/db5/classview_1_1panes_1_1_view_pane_module.html#a200bd9d0cb7f1fb3482afb7f085939cd" target="_top" xlink:title="view.panes.ViewPaneModule.toggle\lActive">
<polygon fill="white" stroke="black" points="467,-691 467,-721 651,-721 651,-691 467,-691"/>
<text text-anchor="start" x="475" y="-709" font-family="Helvetica,sans-Serif" font-size="10.00">view.panes.ViewPaneModule.toggle</text>
<text text-anchor="middle" x="559" y="-698" font-family="Helvetica,sans-Serif" font-size="10.00">Active</text>
</a>
</g>
</g>
<!-- Node41&#45;&gt;Node47 -->
<g id="edge51" class="edge"><title>Node41&#45;&gt;Node47</title>
<path fill="none" stroke="midnightblue" d="M370.836,-738.68C401.549,-733.317 438.663,-726.837 471.717,-721.065"/>
<polygon fill="midnightblue" stroke="midnightblue" points="369.929,-735.285 360.68,-740.453 371.133,-742.18 369.929,-735.285"/>
</g>
<!-- Node42&#45;&gt;Node5 -->
<g id="edge46" class="edge"><title>Node42&#45;&gt;Node5</title>
<path fill="none" stroke="midnightblue" d="M633.648,-750C659.584,-750 688.883,-750 715.433,-750"/>
<polygon fill="midnightblue" stroke="midnightblue" points="633.512,-746.5 623.512,-750 633.512,-753.5 633.512,-746.5"/>
</g>
<!-- Node43 -->
<g id="node43" class="node"><title>Node43</title>
<g id="a_node43"><a xlink:href="../../d3/d42/classmodel_1_1_model.html#a73435cc7a2b6100031bbdd2cf6d6b4e8" target="_top" xlink:title="model.Model.updateModel">
<polygon fill="white" stroke="black" points="726.5,-696.5 726.5,-715.5 869.5,-715.5 869.5,-696.5 726.5,-696.5"/>
<text text-anchor="middle" x="798" y="-703.5" font-family="Helvetica,sans-Serif" font-size="10.00">model.Model.updateModel</text>
</a>
</g>
</g>
<!-- Node42&#45;&gt;Node43 -->
<g id="edge47" class="edge"><title>Node42&#45;&gt;Node43</title>
<path fill="none" stroke="midnightblue" d="M624.245,-738.675C639.879,-735.879 656.546,-732.863 672,-730 697.096,-725.35 724.991,-720.011 748.051,-715.551"/>
<polygon fill="midnightblue" stroke="midnightblue" points="623.374,-735.275 614.144,-740.478 624.604,-742.167 623.374,-735.275"/>
</g>
<!-- Node44 -->
<g id="node44" class="node"><title>Node44</title>
<g id="a_node44"><a xlink:href="../../d9/df7/classcontroller_1_1_controller.html#a81fea06b52aed0a26625c5b30b490afb" target="_top" xlink:title="controller.Controller.run\lCommand">
<polygon fill="white" stroke="black" points="980,-0 980,-30 1108,-30 1108,-0 980,-0"/>
<text text-anchor="start" x="988" y="-18" font-family="Helvetica,sans-Serif" font-size="10.00">controller.Controller.run</text>
<text text-anchor="middle" x="1044" y="-7" font-family="Helvetica,sans-Serif" font-size="10.00">Command</text>
</a>
</g>
</g>
<!-- Node43&#45;&gt;Node44 -->
<g id="edge48" class="edge"><title>Node43&#45;&gt;Node44</title>
<path fill="none" stroke="midnightblue" d="M878.389,-694.603C881.934,-692.177 885.179,-689.331 888,-686 981.061,-576.11 829.734,-147.858 924,-39 937.866,-22.9881 959.185,-15.8492 979.968,-13.0843"/>
<polygon fill="midnightblue" stroke="midnightblue" points="876.627,-691.578 869.63,-699.533 880.061,-697.678 876.627,-691.578"/>
</g>
<!-- Node45 -->
<g id="node45" class="node"><title>Node45</title>
<g id="a_node45"><a xlink:href="../../d9/df7/classcontroller_1_1_controller.html#afdfa7f9e9a3fb5f6b73a6b8e2b2be8b5" target="_top" xlink:title="controller.Controller.get\lInput">
<polygon fill="white" stroke="black" points="1221,-0 1221,-30 1349,-30 1349,-0 1221,-0"/>
<text text-anchor="start" x="1229" y="-18" font-family="Helvetica,sans-Serif" font-size="10.00">controller.Controller.get</text>
<text text-anchor="middle" x="1285" y="-7" font-family="Helvetica,sans-Serif" font-size="10.00">Input</text>
</a>
</g>
</g>
<!-- Node44&#45;&gt;Node45 -->
<g id="edge49" class="edge"><title>Node44&#45;&gt;Node45</title>
<path fill="none" stroke="midnightblue" d="M1118.11,-15C1150.98,-15 1189.38,-15 1220.95,-15"/>
<polygon fill="midnightblue" stroke="midnightblue" points="1118.11,-11.5001 1108.11,-15 1118.11,-18.5001 1118.11,-11.5001"/>
</g>
<!-- Node46 -->
<g id="node46" class="node"><title>Node46</title>
<g id="a_node46"><a xlink:href="../../d3/dc7/classview_1_1controllers_1_1_pane_controller.html#a7e6154aecb60d8f3bcb056a11e842764" target="_top" xlink:title="view.controllers.PaneController.update">
<polygon fill="white" stroke="black" points="1406,-5.5 1406,-24.5 1604,-24.5 1604,-5.5 1406,-5.5"/>
<text text-anchor="middle" x="1505" y="-12.5" font-family="Helvetica,sans-Serif" font-size="10.00">view.controllers.PaneController.update</text>
</a>
</g>
</g>
<!-- Node45&#45;&gt;Node46 -->
<g id="edge50" class="edge"><title>Node45&#45;&gt;Node46</title>
<path fill="none" stroke="midnightblue" d="M1359.22,-15C1374.16,-15 1390.11,-15 1405.76,-15"/>
<polygon fill="midnightblue" stroke="midnightblue" points="1359.05,-11.5001 1349.05,-15 1359.05,-18.5001 1359.05,-11.5001"/>
</g>
<!-- Node48 -->
<g id="node48" class="node"><title>Node48</title>
<g id="a_node48"><a xlink:href="../../d8/daa/classview_1_1panes_1_1_turtle_selector_pane.html#a14e3fbe35c7447dcdf2f0910333cedcc" target="_top" xlink:title="view.panes.TurtleSelector\lPane.TurtleSelectorPane">
<polygon fill="white" stroke="black" points="729.5,-647 729.5,-677 866.5,-677 866.5,-647 729.5,-647"/>
<text text-anchor="start" x="737.5" y="-665" font-family="Helvetica,sans-Serif" font-size="10.00">view.panes.TurtleSelector</text>
<text text-anchor="middle" x="798" y="-654" font-family="Helvetica,sans-Serif" font-size="10.00">Pane.TurtleSelectorPane</text>
</a>
</g>
</g>
<!-- Node47&#45;&gt;Node48 -->
<g id="edge52" class="edge"><title>Node47&#45;&gt;Node48</title>
<path fill="none" stroke="midnightblue" d="M650.813,-689.14C676.954,-684.287 704.998,-679.08 729.463,-674.538"/>
<polygon fill="midnightblue" stroke="midnightblue" points="650.092,-685.714 640.899,-690.981 651.37,-692.597 650.092,-685.714"/>
</g>
</g>
</svg>
