<?xml version="1.0" encoding="UTF-8" standalone="no"?>
<!DOCTYPE svg PUBLIC "-//W3C//DTD SVG 1.1//EN"
 "http://www.w3.org/Graphics/SVG/1.1/DTD/svg11.dtd">
<!-- Generated by graphviz version 2.36.0 (20140111.2315)
 -->
<!-- Title: model.Model.setStamp Pages: 1 -->
<svg width="1538pt" height="1361pt"
 viewBox="0.00 0.00 1538.00 1361.00" xmlns="http://www.w3.org/2000/svg" xmlns:xlink="http://www.w3.org/1999/xlink">
<g id="graph0" class="graph" transform="scale(1 1) rotate(0) translate(4 1357)">
<title>model.Model.setStamp</title>
<polygon fill="white" stroke="none" points="-4,4 -4,-1357 1534,-1357 1534,4 -4,4"/>
<!-- Node1 -->
<g id="node1" class="node"><title>Node1</title>
<polygon fill="#bfbfbf" stroke="black" points="0,-335.5 0,-354.5 128,-354.5 128,-335.5 0,-335.5"/>
<text text-anchor="middle" x="64" y="-342.5" font-family="Helvetica,sans-Serif" font-size="10.00">model.Model.setStamp</text>
</g>
<!-- Node2 -->
<g id="node2" class="node"><title>Node2</title>
<g id="a_node2"><a xlink:href="../../dc/dba/classcommands_1_1_stamp_command.html#ab60591f0ee036b88dc9e04496121c46f" target="_top" xlink:title="commands.StampCommand.execute\lCommand">
<polygon fill="white" stroke="black" points="179.5,-379 179.5,-409 376.5,-409 376.5,-379 179.5,-379"/>
<text text-anchor="start" x="187.5" y="-397" font-family="Helvetica,sans-Serif" font-size="10.00">commands.StampCommand.execute</text>
<text text-anchor="middle" x="278" y="-386" font-family="Helvetica,sans-Serif" font-size="10.00">Command</text>
</a>
</g>
</g>
<!-- Node1&#45;&gt;Node2 -->
<g id="edge1" class="edge"><title>Node1&#45;&gt;Node2</title>
<path fill="none" stroke="midnightblue" d="M113.262,-356.906C129.38,-360.827 147.45,-365.164 164,-369 178.191,-372.29 193.407,-375.721 207.929,-378.95"/>
<polygon fill="midnightblue" stroke="midnightblue" points="114.054,-353.496 103.51,-354.526 112.395,-360.297 114.054,-353.496"/>
</g>
<!-- Node3 -->
<g id="node3" class="node"><title>Node3</title>
<g id="a_node3"><a xlink:href="../../de/d54/classcommands_1_1_clear_stamps_command.html#a0943ac08181bb9b3e87ee111536fa125" target="_top" xlink:title="commands.ClearStampsCommand.execute\lCommand">
<polygon fill="white" stroke="black" points="164.5,-330 164.5,-360 391.5,-360 391.5,-330 164.5,-330"/>
<text text-anchor="start" x="172.5" y="-348" font-family="Helvetica,sans-Serif" font-size="10.00">commands.ClearStampsCommand.execute</text>
<text text-anchor="middle" x="278" y="-337" font-family="Helvetica,sans-Serif" font-size="10.00">Command</text>
</a>
</g>
</g>
<!-- Node1&#45;&gt;Node3 -->
<g id="edge2" class="edge"><title>Node1&#45;&gt;Node3</title>
<path fill="none" stroke="midnightblue" d="M138.168,-345C146.617,-345 155.374,-345 164.194,-345"/>
<polygon fill="midnightblue" stroke="midnightblue" points="138.033,-341.5 128.033,-345 138.033,-348.5 138.033,-341.5"/>
</g>
<!-- Node4 -->
<g id="node4" class="node"><title>Node4</title>
<g id="a_node4"><a xlink:href="../../db/db5/classview_1_1panes_1_1_view_pane_module.html#aa2a1bf15bc036ee4237bf63749d85baf" target="_top" xlink:title="view.panes.ViewPaneModule.updateView">
<polygon fill="white" stroke="black" points="173.5,-291.5 173.5,-310.5 382.5,-310.5 382.5,-291.5 173.5,-291.5"/>
<text text-anchor="middle" x="278" y="-298.5" font-family="Helvetica,sans-Serif" font-size="10.00">view.panes.ViewPaneModule.updateView</text>
</a>
</g>
</g>
<!-- Node1&#45;&gt;Node4 -->
<g id="edge3" class="edge"><title>Node1&#45;&gt;Node4</title>
<path fill="none" stroke="midnightblue" d="M110.233,-332.76C127.047,-328.426 146.329,-323.711 164,-320 180.451,-316.546 198.354,-313.302 214.957,-310.505"/>
<polygon fill="midnightblue" stroke="midnightblue" points="108.914,-329.487 100.12,-335.396 110.68,-336.26 108.914,-329.487"/>
</g>
<!-- Node5 -->
<g id="node5" class="node"><title>Node5</title>
<g id="a_node5"><a xlink:href="../../d3/d42/classmodel_1_1_model.html#a76160d002c1e68b566307ac44356f6e5" target="_top" xlink:title="model.Model.notifyView">
<polygon fill="white" stroke="black" points="455.5,-313.5 455.5,-332.5 584.5,-332.5 584.5,-313.5 455.5,-313.5"/>
<text text-anchor="middle" x="520" y="-320.5" font-family="Helvetica,sans-Serif" font-size="10.00">model.Model.notifyView</text>
</a>
</g>
</g>
<!-- Node4&#45;&gt;Node5 -->
<g id="edge4" class="edge"><title>Node4&#45;&gt;Node5</title>
<path fill="none" stroke="midnightblue" d="M392.712,-311.424C414.224,-313.396 436.006,-315.392 455.283,-317.159"/>
<polygon fill="midnightblue" stroke="midnightblue" points="392.801,-307.917 382.523,-310.49 392.162,-314.888 392.801,-307.917"/>
</g>
<!-- Node39 -->
<g id="node39" class="node"><title>Node39</title>
<g id="a_node39"><a xlink:href="../../db/db5/classview_1_1panes_1_1_view_pane_module.html#a200bd9d0cb7f1fb3482afb7f085939cd" target="_top" xlink:title="view.panes.ViewPaneModule.toggle\lActive">
<polygon fill="white" stroke="black" points="428,-264 428,-294 612,-294 612,-264 428,-264"/>
<text text-anchor="start" x="436" y="-282" font-family="Helvetica,sans-Serif" font-size="10.00">view.panes.ViewPaneModule.toggle</text>
<text text-anchor="middle" x="520" y="-271" font-family="Helvetica,sans-Serif" font-size="10.00">Active</text>
</a>
</g>
</g>
<!-- Node4&#45;&gt;Node39 -->
<g id="edge38" class="edge"><title>Node4&#45;&gt;Node39</title>
<path fill="none" stroke="midnightblue" d="M392.828,-290.566C404.59,-289.488 416.431,-288.402 427.898,-287.351"/>
<polygon fill="midnightblue" stroke="midnightblue" points="392.162,-287.112 382.523,-291.51 392.801,-294.083 392.162,-287.112"/>
</g>
<!-- Node6 -->
<g id="node6" class="node"><title>Node6</title>
<g id="a_node6"><a xlink:href="../../dd/dd6/classcommands_1_1_command.html#abafa69601e87c34d4453cf84349d6f9c" target="_top" xlink:title="commands.Command.execute\lCommand">
<polygon fill="white" stroke="black" points="648.5,-661 648.5,-691 813.5,-691 813.5,-661 648.5,-661"/>
<text text-anchor="start" x="656.5" y="-679" font-family="Helvetica,sans-Serif" font-size="10.00">commands.Command.execute</text>
<text text-anchor="middle" x="731" y="-668" font-family="Helvetica,sans-Serif" font-size="10.00">Command</text>
</a>
</g>
</g>
<!-- Node5&#45;&gt;Node6 -->
<g id="edge5" class="edge"><title>Node5&#45;&gt;Node6</title>
<path fill="none" stroke="midnightblue" d="M531.99,-341.563C568.815,-403.76 687.416,-604.075 721.039,-660.865"/>
<polygon fill="midnightblue" stroke="midnightblue" points="534.914,-339.631 526.808,-332.81 528.891,-343.198 534.914,-339.631"/>
</g>
<!-- Node35 -->
<g id="node35" class="node"><title>Node35</title>
<g id="a_node35"><a xlink:href="../../d3/d42/classmodel_1_1_model.html#a73435cc7a2b6100031bbdd2cf6d6b4e8" target="_top" xlink:title="model.Model.updateModel">
<polygon fill="white" stroke="black" points="659.5,-313.5 659.5,-332.5 802.5,-332.5 802.5,-313.5 659.5,-313.5"/>
<text text-anchor="middle" x="731" y="-320.5" font-family="Helvetica,sans-Serif" font-size="10.00">model.Model.updateModel</text>
</a>
</g>
</g>
<!-- Node5&#45;&gt;Node35 -->
<g id="edge34" class="edge"><title>Node5&#45;&gt;Node35</title>
<path fill="none" stroke="midnightblue" d="M594.72,-323C615.752,-323 638.611,-323 659.45,-323"/>
<polygon fill="midnightblue" stroke="midnightblue" points="594.558,-319.5 584.558,-323 594.558,-326.5 594.558,-319.5"/>
</g>
<!-- Node7 -->
<g id="node7" class="node"><title>Node7</title>
<g id="a_node7"><a xlink:href="../../d1/d79/classcommands_1_1_sum_command.html#a792945436d0c3ff1f58301fcc50f5ae1" target="_top" xlink:title="commands.SumCommand.execute\lCommand">
<polygon fill="white" stroke="black" points="876,-1323 876,-1353 1064,-1353 1064,-1323 876,-1323"/>
<text text-anchor="start" x="884" y="-1341" font-family="Helvetica,sans-Serif" font-size="10.00">commands.SumCommand.execute</text>
<text text-anchor="middle" x="970" y="-1330" font-family="Helvetica,sans-Serif" font-size="10.00">Command</text>
</a>
</g>
</g>
<!-- Node6&#45;&gt;Node7 -->
<g id="edge6" class="edge"><title>Node6&#45;&gt;Node7</title>
<path fill="none" stroke="midnightblue" d="M733.051,-701.444C738.011,-808.823 762.634,-1223.52 850,-1313 857.3,-1320.48 866.227,-1326 875.877,-1330.04"/>
<polygon fill="midnightblue" stroke="midnightblue" points="736.537,-701.061 732.596,-691.226 729.544,-701.372 736.537,-701.061"/>
</g>
<!-- Node8 -->
<g id="node8" class="node"><title>Node8</title>
<g id="a_node8"><a xlink:href="../../d6/dc0/classcommands_1_1_repeat_command.html#a40fb82831e8b2beaa7e31913e46e15eb" target="_top" xlink:title="commands.RepeatCommand.execute\lCommand">
<polygon fill="white" stroke="black" points="871,-1274 871,-1304 1069,-1304 1069,-1274 871,-1274"/>
<text text-anchor="start" x="879" y="-1292" font-family="Helvetica,sans-Serif" font-size="10.00">commands.RepeatCommand.execute</text>
<text text-anchor="middle" x="970" y="-1281" font-family="Helvetica,sans-Serif" font-size="10.00">Command</text>
</a>
</g>
</g>
<!-- Node6&#45;&gt;Node8 -->
<g id="edge7" class="edge"><title>Node6&#45;&gt;Node8</title>
<path fill="none" stroke="midnightblue" d="M733.475,-701.431C739.924,-803.56 769.027,-1182.29 850,-1264 856.018,-1270.07 863.111,-1274.85 870.787,-1278.59"/>
<polygon fill="midnightblue" stroke="midnightblue" points="736.95,-700.909 732.844,-691.142 729.963,-701.338 736.95,-700.909"/>
</g>
<!-- Node9 -->
<g id="node9" class="node"><title>Node9</title>
<g id="a_node9"><a xlink:href="../../dd/d82/classcommands_1_1_remainder_command.html#a99d4baf3f1b4a3c8d0cd69274380a2cf" target="_top" xlink:title="commands.RemainderCommand.execute\lCommand">
<polygon fill="white" stroke="black" points="862,-1225 862,-1255 1078,-1255 1078,-1225 862,-1225"/>
<text text-anchor="start" x="870" y="-1243" font-family="Helvetica,sans-Serif" font-size="10.00">commands.RemainderCommand.execute</text>
<text text-anchor="middle" x="970" y="-1232" font-family="Helvetica,sans-Serif" font-size="10.00">Command</text>
</a>
</g>
</g>
<!-- Node6&#45;&gt;Node9 -->
<g id="edge8" class="edge"><title>Node6&#45;&gt;Node9</title>
<path fill="none" stroke="midnightblue" d="M733.955,-701.181C741.95,-797.511 775.333,-1140.96 850,-1215 853.823,-1218.79 858.064,-1222.07 862.604,-1224.91"/>
<polygon fill="midnightblue" stroke="midnightblue" points="737.441,-700.858 733.143,-691.174 730.464,-701.424 737.441,-700.858"/>
</g>
<!-- Node10 -->
<g id="node10" class="node"><title>Node10</title>
<g id="a_node10"><a xlink:href="../../df/df5/classcommands_1_1_minus_command.html#a82548bbb25a73194469e1ff81b19cf27" target="_top" xlink:title="commands.MinusCommand.execute\lCommand">
<polygon fill="white" stroke="black" points="873.5,-1176 873.5,-1206 1066.5,-1206 1066.5,-1176 873.5,-1176"/>
<text text-anchor="start" x="881.5" y="-1194" font-family="Helvetica,sans-Serif" font-size="10.00">commands.MinusCommand.execute</text>
<text text-anchor="middle" x="970" y="-1183" font-family="Helvetica,sans-Serif" font-size="10.00">Command</text>
</a>
</g>
</g>
<!-- Node6&#45;&gt;Node10 -->
<g id="edge9" class="edge"><title>Node6&#45;&gt;Node10</title>
<path fill="none" stroke="midnightblue" d="M734.552,-701.225C744.239,-791.929 781.689,-1099.66 850,-1166 856.739,-1172.54 864.731,-1177.57 873.337,-1181.41"/>
<polygon fill="midnightblue" stroke="midnightblue" points="738.032,-700.851 733.508,-691.27 731.07,-701.581 738.032,-700.851"/>
</g>
<!-- Node11 -->
<g id="node11" class="node"><title>Node11</title>
<g id="a_node11"><a xlink:href="../../d3/d37/classcommands_1_1_set_background_command.html#a91dc8e21948a301c55af1cef90b77962" target="_top" xlink:title="commands.SetBackgroundCommand.execute\lCommand">
<polygon fill="white" stroke="black" points="850.5,-1127 850.5,-1157 1089.5,-1157 1089.5,-1127 850.5,-1127"/>
<text text-anchor="start" x="858.5" y="-1145" font-family="Helvetica,sans-Serif" font-size="10.00">commands.SetBackgroundCommand.execute</text>
<text text-anchor="middle" x="970" y="-1134" font-family="Helvetica,sans-Serif" font-size="10.00">Command</text>
</a>
</g>
</g>
<!-- Node6&#45;&gt;Node11 -->
<g id="edge10" class="edge"><title>Node6&#45;&gt;Node11</title>
<path fill="none" stroke="midnightblue" d="M735.262,-701.15C746.744,-785.787 787.98,-1058.26 850,-1117 853.985,-1120.77 858.388,-1124.04 863.084,-1126.86"/>
<polygon fill="midnightblue" stroke="midnightblue" points="738.717,-700.585 733.924,-691.137 731.779,-701.512 738.717,-700.585"/>
</g>
<!-- Node12 -->
<g id="node12" class="node"><title>Node12</title>
<g id="a_node12"><a xlink:href="../../d8/dba/classcommands_1_1_product_command.html#a8bc20bc7c21a944405f599dbcfa57e67" target="_top" xlink:title="commands.ProductCommand.execute\lCommand">
<polygon fill="white" stroke="black" points="869,-1078 869,-1108 1071,-1108 1071,-1078 869,-1078"/>
<text text-anchor="start" x="877" y="-1096" font-family="Helvetica,sans-Serif" font-size="10.00">commands.ProductCommand.execute</text>
<text text-anchor="middle" x="970" y="-1085" font-family="Helvetica,sans-Serif" font-size="10.00">Command</text>
</a>
</g>
</g>
<!-- Node6&#45;&gt;Node12 -->
<g id="edge11" class="edge"><title>Node6&#45;&gt;Node12</title>
<path fill="none" stroke="midnightblue" d="M731.405,-701.275C731.233,-771.059 740.921,-967.852 850,-1068 855.598,-1073.14 861.975,-1077.33 868.801,-1080.73"/>
<polygon fill="midnightblue" stroke="midnightblue" points="734.906,-701.233 731.504,-691.2 727.906,-701.165 734.906,-701.233"/>
</g>
<!-- Node13 -->
<g id="node13" class="node"><title>Node13</title>
<g id="a_node13"><a xlink:href="../../dd/d40/classcommands_1_1_quotient_command.html#a7e23b237cc68512dcbe6a65feb7c39e8" target="_top" xlink:title="commands.QuotientCommand.execute\lCommand">
<polygon fill="white" stroke="black" points="867,-1029 867,-1059 1073,-1059 1073,-1029 867,-1029"/>
<text text-anchor="start" x="875" y="-1047" font-family="Helvetica,sans-Serif" font-size="10.00">commands.QuotientCommand.execute</text>
<text text-anchor="middle" x="970" y="-1036" font-family="Helvetica,sans-Serif" font-size="10.00">Command</text>
</a>
</g>
</g>
<!-- Node6&#45;&gt;Node13 -->
<g id="edge12" class="edge"><title>Node6&#45;&gt;Node13</title>
<path fill="none" stroke="midnightblue" d="M732.674,-701.514C735.822,-765.487 753.36,-933.681 850,-1019 855.064,-1023.47 860.722,-1027.21 866.745,-1030.34"/>
<polygon fill="midnightblue" stroke="midnightblue" points="736.156,-701.007 732.249,-691.159 729.162,-701.294 736.156,-701.007"/>
</g>
<!-- Node14 -->
<g id="node14" class="node"><title>Node14</title>
<g id="a_node14"><a xlink:href="../../dc/d68/classcommands_1_1_make_variable_command.html#ad0e0974744cc969c12c67805c2460ef4" target="_top" xlink:title="commands.MakeVariableCommand.execute\lCommand">
<polygon fill="white" stroke="black" points="855.5,-980 855.5,-1010 1084.5,-1010 1084.5,-980 855.5,-980"/>
<text text-anchor="start" x="863.5" y="-998" font-family="Helvetica,sans-Serif" font-size="10.00">commands.MakeVariableCommand.execute</text>
<text text-anchor="middle" x="970" y="-987" font-family="Helvetica,sans-Serif" font-size="10.00">Command</text>
</a>
</g>
</g>
<!-- Node6&#45;&gt;Node14 -->
<g id="edge13" class="edge"><title>Node6&#45;&gt;Node14</title>
<path fill="none" stroke="midnightblue" d="M734.268,-701.004C740.857,-758.166 765.294,-898.929 850,-970 854.528,-973.799 859.489,-977.067 864.735,-979.873"/>
<polygon fill="midnightblue" stroke="midnightblue" points="737.746,-700.607 733.205,-691.035 730.785,-701.35 737.746,-700.607"/>
</g>
<!-- Node15 -->
<g id="node15" class="node"><title>Node15</title>
<g id="a_node15"><a xlink:href="../../d8/ded/classcommands_1_1_difference_command.html#a0c34c43d3bb266ef3e48ae27be938a0f" target="_top" xlink:title="commands.DifferenceCommand.execute\lCommand">
<polygon fill="white" stroke="black" points="863,-931 863,-961 1077,-961 1077,-931 863,-931"/>
<text text-anchor="start" x="871" y="-949" font-family="Helvetica,sans-Serif" font-size="10.00">commands.DifferenceCommand.execute</text>
<text text-anchor="middle" x="970" y="-938" font-family="Helvetica,sans-Serif" font-size="10.00">Command</text>
</a>
</g>
</g>
<!-- Node6&#45;&gt;Node15 -->
<g id="edge14" class="edge"><title>Node6&#45;&gt;Node15</title>
<path fill="none" stroke="midnightblue" d="M736.533,-701.294C746.941,-751.586 777.461,-864.176 850,-921 854.903,-924.84 860.255,-928.128 865.89,-930.938"/>
<polygon fill="midnightblue" stroke="midnightblue" points="739.927,-700.411 734.559,-691.276 733.059,-701.765 739.927,-700.411"/>
</g>
<!-- Node16 -->
<g id="node16" class="node"><title>Node16</title>
<g id="a_node16"><a xlink:href="../../dd/d29/classcommands_1_1_clear_screen_command.html#a87e5eb0f4c3bb48ec0737da2aa431db3" target="_top" xlink:title="commands.ClearScreenCommand.execute\lCommand">
<polygon fill="white" stroke="black" points="858,-882 858,-912 1082,-912 1082,-882 858,-882"/>
<text text-anchor="start" x="866" y="-900" font-family="Helvetica,sans-Serif" font-size="10.00">commands.ClearScreenCommand.execute</text>
<text text-anchor="middle" x="970" y="-889" font-family="Helvetica,sans-Serif" font-size="10.00">Command</text>
</a>
</g>
</g>
<!-- Node6&#45;&gt;Node16 -->
<g id="edge15" class="edge"><title>Node6&#45;&gt;Node16</title>
<path fill="none" stroke="midnightblue" d="M739.566,-700.672C753.857,-742.893 788.99,-828.631 850,-872 855.42,-875.853 861.308,-879.136 867.466,-881.931"/>
<polygon fill="midnightblue" stroke="midnightblue" points="742.891,-699.579 736.454,-691.165 736.239,-701.757 742.891,-699.579"/>
</g>
<!-- Node17 -->
<g id="node17" class="node"><title>Node17</title>
<g id="a_node17"><a xlink:href="../../d9/d35/classcommands_1_1_ask_command.html#ae4ba28c73ce0b5112e4032bd21a951f5" target="_top" xlink:title="commands.AskCommand.execute\lCommand">
<polygon fill="white" stroke="black" points="879,-833 879,-863 1061,-863 1061,-833 879,-833"/>
<text text-anchor="start" x="887" y="-851" font-family="Helvetica,sans-Serif" font-size="10.00">commands.AskCommand.execute</text>
<text text-anchor="middle" x="970" y="-840" font-family="Helvetica,sans-Serif" font-size="10.00">Command</text>
</a>
</g>
</g>
<!-- Node6&#45;&gt;Node17 -->
<g id="edge16" class="edge"><title>Node6&#45;&gt;Node17</title>
<path fill="none" stroke="midnightblue" d="M744.524,-700.426C762.923,-733.7 800.506,-792.605 850,-823 858.815,-828.413 868.615,-832.67 878.7,-836.015"/>
<polygon fill="midnightblue" stroke="midnightblue" points="747.47,-698.514 739.644,-691.373 741.309,-701.836 747.47,-698.514"/>
</g>
<!-- Node18 -->
<g id="node18" class="node"><title>Node18</title>
<g id="a_node18"><a xlink:href="../../d3/d49/classcommands_1_1_if_else_command.html#a3b3d15925117d366a69f8ebd1dbc2dbc" target="_top" xlink:title="commands.IfElseCommand.execute\lCommand">
<polygon fill="white" stroke="black" points="875,-784 875,-814 1065,-814 1065,-784 875,-784"/>
<text text-anchor="start" x="883" y="-802" font-family="Helvetica,sans-Serif" font-size="10.00">commands.IfElseCommand.execute</text>
<text text-anchor="middle" x="970" y="-791" font-family="Helvetica,sans-Serif" font-size="10.00">Command</text>
</a>
</g>
</g>
<!-- Node6&#45;&gt;Node18 -->
<g id="edge17" class="edge"><title>Node6&#45;&gt;Node18</title>
<path fill="none" stroke="midnightblue" d="M752.734,-698.758C774.669,-721.389 811.392,-755.347 850,-774 858.079,-777.903 866.755,-781.199 875.607,-783.982"/>
<polygon fill="midnightblue" stroke="midnightblue" points="755.04,-696.105 745.613,-691.27 749.967,-700.928 755.04,-696.105"/>
</g>
<!-- Node20 -->
<g id="node20" class="node"><title>Node20</title>
<g id="a_node20"><a xlink:href="../../d8/d57/classcommands_1_1_for_command.html#aeb06a37d7f9845eb546425bae6ea9f58" target="_top" xlink:title="commands.ForCommand.execute\lCommand">
<polygon fill="white" stroke="black" points="880,-735 880,-765 1060,-765 1060,-735 880,-735"/>
<text text-anchor="start" x="888" y="-753" font-family="Helvetica,sans-Serif" font-size="10.00">commands.ForCommand.execute</text>
<text text-anchor="middle" x="970" y="-742" font-family="Helvetica,sans-Serif" font-size="10.00">Command</text>
</a>
</g>
</g>
<!-- Node6&#45;&gt;Node20 -->
<g id="edge19" class="edge"><title>Node6&#45;&gt;Node20</title>
<path fill="none" stroke="midnightblue" d="M773.147,-695.308C795.506,-705.231 823.858,-716.904 850,-725 861.999,-728.716 874.848,-732.055 887.505,-734.992"/>
<polygon fill="midnightblue" stroke="midnightblue" points="774.511,-692.084 763.955,-691.179 771.643,-698.47 774.511,-692.084"/>
</g>
<!-- Node21 -->
<g id="node21" class="node"><title>Node21</title>
<g id="a_node21"><a xlink:href="../../db/d38/classcommands_1_1_ask_with_command.html#a5ee6a090e94729d84ef423a454d446eb" target="_top" xlink:title="commands.AskWithCommand.execute\lCommand">
<polygon fill="white" stroke="black" points="868.5,-686 868.5,-716 1071.5,-716 1071.5,-686 868.5,-686"/>
<text text-anchor="start" x="876.5" y="-704" font-family="Helvetica,sans-Serif" font-size="10.00">commands.AskWithCommand.execute</text>
<text text-anchor="middle" x="970" y="-693" font-family="Helvetica,sans-Serif" font-size="10.00">Command</text>
</a>
</g>
</g>
<!-- Node6&#45;&gt;Node21 -->
<g id="edge20" class="edge"><title>Node6&#45;&gt;Node21</title>
<path fill="none" stroke="midnightblue" d="M823.62,-685.665C838.301,-687.213 853.562,-688.823 868.437,-690.392"/>
<polygon fill="midnightblue" stroke="midnightblue" points="823.874,-682.172 813.562,-684.604 823.14,-689.133 823.874,-682.172"/>
</g>
<!-- Node22 -->
<g id="node22" class="node"><title>Node22</title>
<g id="a_node22"><a xlink:href="../../d4/d02/classcommands_1_1_do_times_command.html#a1dd20e90975d905a1bce8f018e9f7f0a" target="_top" xlink:title="commands.DoTimesCommand.execute\lCommand">
<polygon fill="white" stroke="black" points="866.5,-637 866.5,-667 1073.5,-667 1073.5,-637 866.5,-637"/>
<text text-anchor="start" x="874.5" y="-655" font-family="Helvetica,sans-Serif" font-size="10.00">commands.DoTimesCommand.execute</text>
<text text-anchor="middle" x="970" y="-644" font-family="Helvetica,sans-Serif" font-size="10.00">Command</text>
</a>
</g>
</g>
<!-- Node6&#45;&gt;Node22 -->
<g id="edge21" class="edge"><title>Node6&#45;&gt;Node22</title>
<path fill="none" stroke="midnightblue" d="M823.643,-666.72C837.632,-665.303 852.148,-663.833 866.354,-662.395"/>
<polygon fill="midnightblue" stroke="midnightblue" points="823.158,-663.251 813.562,-667.741 823.864,-670.215 823.158,-663.251"/>
</g>
<!-- Node23 -->
<g id="node23" class="node"><title>Node23</title>
<g id="a_node23"><a xlink:href="../../dd/de4/classcommands_1_1_custom_command.html#a5ad25438a49d3e4eeba835fefe8b730a" target="_top" xlink:title="commands.CustomCommand.execute\lCommand">
<polygon fill="white" stroke="black" points="868.5,-588 868.5,-618 1071.5,-618 1071.5,-588 868.5,-588"/>
<text text-anchor="start" x="876.5" y="-606" font-family="Helvetica,sans-Serif" font-size="10.00">commands.CustomCommand.execute</text>
<text text-anchor="middle" x="970" y="-595" font-family="Helvetica,sans-Serif" font-size="10.00">Command</text>
</a>
</g>
</g>
<!-- Node6&#45;&gt;Node23 -->
<g id="edge22" class="edge"><title>Node6&#45;&gt;Node23</title>
<path fill="none" stroke="midnightblue" d="M773.663,-656.916C795.959,-647.252 824.091,-635.921 850,-628 862.113,-624.297 875.085,-620.956 887.848,-618.011"/>
<polygon fill="midnightblue" stroke="midnightblue" points="772.24,-653.719 764.489,-660.941 775.052,-660.129 772.24,-653.719"/>
</g>
<!-- Node24 -->
<g id="node24" class="node"><title>Node24</title>
<g id="a_node24"><a xlink:href="../../d6/daf/classcommands_1_1_set_shape_command.html#a59c440316cf9e732b5aa2f46def94e10" target="_top" xlink:title="commands.SetShapeCommand.update\lTurtle">
<polygon fill="white" stroke="black" points="866,-539 866,-569 1074,-569 1074,-539 866,-539"/>
<text text-anchor="start" x="874" y="-557" font-family="Helvetica,sans-Serif" font-size="10.00">commands.SetShapeCommand.update</text>
<text text-anchor="middle" x="970" y="-546" font-family="Helvetica,sans-Serif" font-size="10.00">Turtle</text>
</a>
</g>
</g>
<!-- Node6&#45;&gt;Node24 -->
<g id="edge23" class="edge"><title>Node6&#45;&gt;Node24</title>
<path fill="none" stroke="midnightblue" d="M752.781,-653.48C774.754,-631.086 811.505,-597.479 850,-579 858.088,-575.117 866.771,-571.835 875.627,-569.06"/>
<polygon fill="midnightblue" stroke="midnightblue" points="750.061,-651.259 745.647,-660.891 755.104,-656.114 750.061,-651.259"/>
</g>
<!-- Node25 -->
<g id="node25" class="node"><title>Node25</title>
<g id="a_node25"><a xlink:href="../../d6/d11/classcommands_1_1_set_pen_dash_command.html#a320f3b8248e3e89b2338dfefbe73f8c7" target="_top" xlink:title="commands.SetPenDashCommand.update\lTurtle">
<polygon fill="white" stroke="black" points="860,-490 860,-520 1080,-520 1080,-490 860,-490"/>
<text text-anchor="start" x="868" y="-508" font-family="Helvetica,sans-Serif" font-size="10.00">commands.SetPenDashCommand.update</text>
<text text-anchor="middle" x="970" y="-497" font-family="Helvetica,sans-Serif" font-size="10.00">Turtle</text>
</a>
</g>
</g>
<!-- Node6&#45;&gt;Node25 -->
<g id="edge24" class="edge"><title>Node6&#45;&gt;Node25</title>
<path fill="none" stroke="midnightblue" d="M744.568,-651.74C763.017,-618.692 800.66,-560.188 850,-530 856.303,-526.144 863.106,-522.875 870.156,-520.104"/>
<polygon fill="midnightblue" stroke="midnightblue" points="741.381,-650.275 739.673,-660.731 747.528,-653.622 741.381,-650.275"/>
</g>
<!-- Node26 -->
<g id="node26" class="node"><title>Node26</title>
<g id="a_node26"><a xlink:href="../../dc/df3/classcommands_1_1_set_towards_command.html#ad82abd7dcaed57b3bdb3a4b87a91815a" target="_top" xlink:title="commands.SetTowardsCommand.update\lTurtle">
<polygon fill="white" stroke="black" points="862.5,-441 862.5,-471 1077.5,-471 1077.5,-441 862.5,-441"/>
<text text-anchor="start" x="870.5" y="-459" font-family="Helvetica,sans-Serif" font-size="10.00">commands.SetTowardsCommand.update</text>
<text text-anchor="middle" x="970" y="-448" font-family="Helvetica,sans-Serif" font-size="10.00">Turtle</text>
</a>
</g>
</g>
<!-- Node6&#45;&gt;Node26 -->
<g id="edge25" class="edge"><title>Node6&#45;&gt;Node26</title>
<path fill="none" stroke="midnightblue" d="M739.695,-651.184C754.101,-609.082 789.298,-524.047 850,-481 855.424,-477.153 861.316,-473.875 867.477,-471.083"/>
<polygon fill="midnightblue" stroke="midnightblue" points="736.295,-650.318 736.478,-660.911 742.941,-652.517 736.295,-650.318"/>
</g>
<!-- Node27 -->
<g id="node27" class="node"><title>Node27</title>
<g id="a_node27"><a xlink:href="../../d9/db5/classcommands_1_1_set_position_command.html#aba31c4887974831a6c0d9feac8316ee6" target="_top" xlink:title="commands.SetPositionCommand.update\lTurtle">
<polygon fill="white" stroke="black" points="862.5,-392 862.5,-422 1077.5,-422 1077.5,-392 862.5,-392"/>
<text text-anchor="start" x="870.5" y="-410" font-family="Helvetica,sans-Serif" font-size="10.00">commands.SetPositionCommand.update</text>
<text text-anchor="middle" x="970" y="-399" font-family="Helvetica,sans-Serif" font-size="10.00">Turtle</text>
</a>
</g>
</g>
<!-- Node6&#45;&gt;Node27 -->
<g id="edge26" class="edge"><title>Node6&#45;&gt;Node27</title>
<path fill="none" stroke="midnightblue" d="M736.566,-650.807C747.034,-600.716 777.656,-488.578 850,-432 854.906,-428.163 860.261,-424.879 865.897,-422.071"/>
<polygon fill="midnightblue" stroke="midnightblue" points="733.1,-650.293 734.579,-660.784 739.965,-651.661 733.1,-650.293"/>
</g>
<!-- Node28 -->
<g id="node28" class="node"><title>Node28</title>
<g id="a_node28"><a xlink:href="../../dd/db2/classcommands_1_1_right_command.html#ae16ecb0da3e0a2049a7382d74f315cb6" target="_top" xlink:title="commands.RightCommand.update\lTurtle">
<polygon fill="white" stroke="black" points="877.5,-343 877.5,-373 1062.5,-373 1062.5,-343 877.5,-343"/>
<text text-anchor="start" x="885.5" y="-361" font-family="Helvetica,sans-Serif" font-size="10.00">commands.RightCommand.update</text>
<text text-anchor="middle" x="970" y="-350" font-family="Helvetica,sans-Serif" font-size="10.00">Turtle</text>
</a>
</g>
</g>
<!-- Node6&#45;&gt;Node28 -->
<g id="edge27" class="edge"><title>Node6&#45;&gt;Node28</title>
<path fill="none" stroke="midnightblue" d="M734.344,-650.678C741.06,-593.452 765.698,-453.648 850,-383 858.009,-376.288 867.37,-371.237 877.261,-367.456"/>
<polygon fill="midnightblue" stroke="midnightblue" points="730.858,-650.353 733.257,-660.673 737.817,-651.11 730.858,-650.353"/>
</g>
<!-- Node29 -->
<g id="node29" class="node"><title>Node29</title>
<g id="a_node29"><a xlink:href="../../dc/db3/classcommands_1_1_set_heading_command.html#a064fae1a815349b9efc6bd43f2371339" target="_top" xlink:title="commands.SetHeadingCommand.update\lTurtle">
<polygon fill="white" stroke="black" points="861.5,-294 861.5,-324 1078.5,-324 1078.5,-294 861.5,-294"/>
<text text-anchor="start" x="869.5" y="-312" font-family="Helvetica,sans-Serif" font-size="10.00">commands.SetHeadingCommand.update</text>
<text text-anchor="middle" x="970" y="-301" font-family="Helvetica,sans-Serif" font-size="10.00">Turtle</text>
</a>
</g>
</g>
<!-- Node6&#45;&gt;Node29 -->
<g id="edge28" class="edge"><title>Node6&#45;&gt;Node29</title>
<path fill="none" stroke="midnightblue" d="M732.633,-650.439C735.685,-586.357 753.017,-417.929 850,-333 853.885,-329.598 858.116,-326.628 862.591,-324.037"/>
<polygon fill="midnightblue" stroke="midnightblue" points="729.121,-650.682 732.223,-660.812 736.115,-650.958 729.121,-650.682"/>
</g>
<!-- Node30 -->
<g id="node30" class="node"><title>Node30</title>
<g id="a_node30"><a xlink:href="../../d2/dbb/classcommands_1_1_set_pen_size_command.html#aa8dbbb22c72842b2d6f50aa169a8404e" target="_top" xlink:title="commands.SetPenSizeCommand.update\lTurtle">
<polygon fill="white" stroke="black" points="862.5,-245 862.5,-275 1077.5,-275 1077.5,-245 862.5,-245"/>
<text text-anchor="start" x="870.5" y="-263" font-family="Helvetica,sans-Serif" font-size="10.00">commands.SetPenSizeCommand.update</text>
<text text-anchor="middle" x="970" y="-252" font-family="Helvetica,sans-Serif" font-size="10.00">Turtle</text>
</a>
</g>
</g>
<!-- Node6&#45;&gt;Node30 -->
<g id="edge29" class="edge"><title>Node6&#45;&gt;Node30</title>
<path fill="none" stroke="midnightblue" d="M736.136,-650.831C749.519,-572.454 794.043,-334.962 850,-284 853.818,-280.523 857.994,-277.492 862.427,-274.853"/>
<polygon fill="midnightblue" stroke="midnightblue" points="732.667,-650.355 734.456,-660.798 739.569,-651.519 732.667,-650.355"/>
</g>
<!-- Node31 -->
<g id="node31" class="node"><title>Node31</title>
<g id="a_node31"><a xlink:href="../../d5/d21/classcommands_1_1_set_pen_color_command.html#a69a9c0161b8910c8fecc5ace219aeeb8" target="_top" xlink:title="commands.SetPenColorCommand.update\lTurtle">
<polygon fill="white" stroke="black" points="860,-196 860,-226 1080,-226 1080,-196 860,-196"/>
<text text-anchor="start" x="868" y="-214" font-family="Helvetica,sans-Serif" font-size="10.00">commands.SetPenColorCommand.update</text>
<text text-anchor="middle" x="970" y="-203" font-family="Helvetica,sans-Serif" font-size="10.00">Turtle</text>
</a>
</g>
</g>
<!-- Node6&#45;&gt;Node31 -->
<g id="edge30" class="edge"><title>Node6&#45;&gt;Node31</title>
<path fill="none" stroke="midnightblue" d="M737.882,-651.156C759.516,-560.192 834.234,-249.811 850,-235 853.61,-231.609 857.56,-228.638 861.757,-226.039"/>
<polygon fill="midnightblue" stroke="midnightblue" points="734.474,-650.359 735.569,-660.897 741.284,-651.977 734.474,-650.359"/>
</g>
<!-- Node32 -->
<g id="node32" class="node"><title>Node32</title>
<g id="a_node32"><a xlink:href="../../dc/d65/classcommands_1_1_left_command.html#abd466facd4b16e1c04a6578b4bf8e203" target="_top" xlink:title="commands.LeftCommand.update\lTurtle">
<polygon fill="white" stroke="black" points="880.5,-147 880.5,-177 1059.5,-177 1059.5,-147 880.5,-147"/>
<text text-anchor="start" x="888.5" y="-165" font-family="Helvetica,sans-Serif" font-size="10.00">commands.LeftCommand.update</text>
<text text-anchor="middle" x="970" y="-154" font-family="Helvetica,sans-Serif" font-size="10.00">Turtle</text>
</a>
</g>
</g>
<!-- Node6&#45;&gt;Node32 -->
<g id="edge31" class="edge"><title>Node6&#45;&gt;Node32</title>
<path fill="none" stroke="midnightblue" d="M738.344,-650.68C752.28,-594.95 786.51,-457.442 814,-342 830.483,-272.78 798.991,-235.611 850,-186 858.536,-177.698 869.101,-171.891 880.383,-167.883"/>
<polygon fill="midnightblue" stroke="midnightblue" points="734.868,-650.154 735.836,-660.704 741.659,-651.853 734.868,-650.154"/>
</g>
<!-- Node33 -->
<g id="node33" class="node"><title>Node33</title>
<g id="a_node33"><a xlink:href="../../d6/ddc/classcommands_1_1_backward_command.html#af0c4c6ac04bea1aa34b069a01c53888f" target="_top" xlink:title="commands.BackwardCommand.update\lTurtle">
<polygon fill="white" stroke="black" points="867,-98 867,-128 1073,-128 1073,-98 867,-98"/>
<text text-anchor="start" x="875" y="-116" font-family="Helvetica,sans-Serif" font-size="10.00">commands.BackwardCommand.update</text>
<text text-anchor="middle" x="970" y="-105" font-family="Helvetica,sans-Serif" font-size="10.00">Turtle</text>
</a>
</g>
</g>
<!-- Node6&#45;&gt;Node33 -->
<g id="edge32" class="edge"><title>Node6&#45;&gt;Node33</title>
<path fill="none" stroke="midnightblue" d="M738.804,-650.783C753.651,-595.258 789.576,-458.129 814,-342 833.039,-251.475 785.417,-203.229 850,-137 854.929,-131.945 860.606,-127.802 866.751,-124.419"/>
<polygon fill="midnightblue" stroke="midnightblue" points="735.336,-650.204 736.126,-660.769 742.097,-652.018 735.336,-650.204"/>
</g>
<!-- Node34 -->
<g id="node34" class="node"><title>Node34</title>
<g id="a_node34"><a xlink:href="../../da/d4f/classcommands_1_1_forward_command.html#afe19b644a8fe0d46f3dbf19aef135364" target="_top" xlink:title="commands.ForwardCommand.update\lTurtle">
<polygon fill="white" stroke="black" points="871,-49 871,-79 1069,-79 1069,-49 871,-49"/>
<text text-anchor="start" x="879" y="-67" font-family="Helvetica,sans-Serif" font-size="10.00">commands.ForwardCommand.update</text>
<text text-anchor="middle" x="970" y="-56" font-family="Helvetica,sans-Serif" font-size="10.00">Turtle</text>
</a>
</g>
</g>
<!-- Node6&#45;&gt;Node34 -->
<g id="edge33" class="edge"><title>Node6&#45;&gt;Node34</title>
<path fill="none" stroke="midnightblue" d="M739.093,-650.841C754.511,-595.431 791.498,-458.517 814,-342 824.81,-286.026 810.879,-129.467 850,-88 855.93,-81.7146 863.012,-76.8269 870.727,-73.0504"/>
<polygon fill="midnightblue" stroke="midnightblue" points="735.628,-650.233 736.307,-660.806 742.37,-652.117 735.628,-650.233"/>
</g>
<!-- Node19 -->
<g id="node19" class="node"><title>Node19</title>
<g id="a_node19"><a xlink:href="../../d5/dad/classcommands_1_1_if_command.html#a0d92f20941c1e79cfb1e02e77f463e68" target="_top" xlink:title="commands.IfCommand.execute\lCommand">
<polygon fill="white" stroke="black" points="1126,-784 1126,-814 1296,-814 1296,-784 1126,-784"/>
<text text-anchor="start" x="1134" y="-802" font-family="Helvetica,sans-Serif" font-size="10.00">commands.IfCommand.execute</text>
<text text-anchor="middle" x="1211" y="-791" font-family="Helvetica,sans-Serif" font-size="10.00">Command</text>
</a>
</g>
</g>
<!-- Node18&#45;&gt;Node19 -->
<g id="edge18" class="edge"><title>Node18&#45;&gt;Node19</title>
<path fill="none" stroke="midnightblue" d="M1075.5,-799C1092.27,-799 1109.45,-799 1125.68,-799"/>
<polygon fill="midnightblue" stroke="midnightblue" points="1075.12,-795.5 1065.12,-799 1075.12,-802.5 1075.12,-795.5"/>
</g>
<!-- Node36 -->
<g id="node36" class="node"><title>Node36</title>
<g id="a_node36"><a xlink:href="../../d9/df7/classcontroller_1_1_controller.html#a81fea06b52aed0a26625c5b30b490afb" target="_top" xlink:title="controller.Controller.run\lCommand">
<polygon fill="white" stroke="black" points="906,-0 906,-30 1034,-30 1034,-0 906,-0"/>
<text text-anchor="start" x="914" y="-18" font-family="Helvetica,sans-Serif" font-size="10.00">controller.Controller.run</text>
<text text-anchor="middle" x="970" y="-7" font-family="Helvetica,sans-Serif" font-size="10.00">Command</text>
</a>
</g>
</g>
<!-- Node35&#45;&gt;Node36 -->
<g id="edge35" class="edge"><title>Node35&#45;&gt;Node36</title>
<path fill="none" stroke="midnightblue" d="M808.993,-307.773C810.77,-306.312 812.446,-304.725 814,-303 893.283,-215.038 768.965,-125.35 850,-39 864.278,-23.7855 885.31,-16.7492 905.736,-13.8411"/>
<polygon fill="midnightblue" stroke="midnightblue" points="806.968,-304.917 800.623,-313.401 810.874,-310.726 806.968,-304.917"/>
</g>
<!-- Node37 -->
<g id="node37" class="node"><title>Node37</title>
<g id="a_node37"><a xlink:href="../../d9/df7/classcontroller_1_1_controller.html#afdfa7f9e9a3fb5f6b73a6b8e2b2be8b5" target="_top" xlink:title="controller.Controller.get\lInput">
<polygon fill="white" stroke="black" points="1147,-0 1147,-30 1275,-30 1275,-0 1147,-0"/>
<text text-anchor="start" x="1155" y="-18" font-family="Helvetica,sans-Serif" font-size="10.00">controller.Controller.get</text>
<text text-anchor="middle" x="1211" y="-7" font-family="Helvetica,sans-Serif" font-size="10.00">Input</text>
</a>
</g>
</g>
<!-- Node36&#45;&gt;Node37 -->
<g id="edge36" class="edge"><title>Node36&#45;&gt;Node37</title>
<path fill="none" stroke="midnightblue" d="M1044.11,-15C1076.98,-15 1115.38,-15 1146.95,-15"/>
<polygon fill="midnightblue" stroke="midnightblue" points="1044.11,-11.5001 1034.11,-15 1044.11,-18.5001 1044.11,-11.5001"/>
</g>
<!-- Node38 -->
<g id="node38" class="node"><title>Node38</title>
<g id="a_node38"><a xlink:href="../../d3/dc7/classview_1_1controllers_1_1_pane_controller.html#a7e6154aecb60d8f3bcb056a11e842764" target="_top" xlink:title="view.controllers.PaneController.update">
<polygon fill="white" stroke="black" points="1332,-5.5 1332,-24.5 1530,-24.5 1530,-5.5 1332,-5.5"/>
<text text-anchor="middle" x="1431" y="-12.5" font-family="Helvetica,sans-Serif" font-size="10.00">view.controllers.PaneController.update</text>
</a>
</g>
</g>
<!-- Node37&#45;&gt;Node38 -->
<g id="edge37" class="edge"><title>Node37&#45;&gt;Node38</title>
<path fill="none" stroke="midnightblue" d="M1285.22,-15C1300.16,-15 1316.11,-15 1331.76,-15"/>
<polygon fill="midnightblue" stroke="midnightblue" points="1285.05,-11.5001 1275.05,-15 1285.05,-18.5001 1285.05,-11.5001"/>
</g>
<!-- Node40 -->
<g id="node40" class="node"><title>Node40</title>
<g id="a_node40"><a xlink:href="../../d8/daa/classview_1_1panes_1_1_turtle_selector_pane.html#a14e3fbe35c7447dcdf2f0910333cedcc" target="_top" xlink:title="view.panes.TurtleSelector\lPane.TurtleSelectorPane">
<polygon fill="white" stroke="black" points="662.5,-264 662.5,-294 799.5,-294 799.5,-264 662.5,-264"/>
<text text-anchor="start" x="670.5" y="-282" font-family="Helvetica,sans-Serif" font-size="10.00">view.panes.TurtleSelector</text>
<text text-anchor="middle" x="731" y="-271" font-family="Helvetica,sans-Serif" font-size="10.00">Pane.TurtleSelectorPane</text>
</a>
</g>
</g>
<!-- Node39&#45;&gt;Node40 -->
<g id="edge39" class="edge"><title>Node39&#45;&gt;Node40</title>
<path fill="none" stroke="midnightblue" d="M622.43,-279C636.024,-279 649.688,-279 662.5,-279"/>
<polygon fill="midnightblue" stroke="midnightblue" points="622.062,-275.5 612.062,-279 622.062,-282.5 622.062,-275.5"/>
</g>
</g>
</svg>
