<?xml version="1.0" encoding="UTF-8" standalone="no"?>
<!DOCTYPE svg PUBLIC "-//W3C//DTD SVG 1.1//EN"
 "http://www.w3.org/Graphics/SVG/1.1/DTD/svg11.dtd">
<!-- Generated by graphviz version 2.36.0 (20140111.2315)
 -->
<!-- Title: model.Model.notifyView Pages: 1 -->
<svg width="1056pt" height="1361pt"
 viewBox="0.00 0.00 1056.00 1361.00" xmlns="http://www.w3.org/2000/svg" xmlns:xlink="http://www.w3.org/1999/xlink">
<g id="graph0" class="graph" transform="scale(1 1) rotate(0) translate(4 1357)">
<title>model.Model.notifyView</title>
<polygon fill="white" stroke="none" points="-4,4 -4,-1357 1052,-1357 1052,4 -4,4"/>
<!-- Node1 -->
<g id="node1" class="node"><title>Node1</title>
<polygon fill="#bfbfbf" stroke="black" points="0.5,-496.5 0.5,-515.5 129.5,-515.5 129.5,-496.5 0.5,-496.5"/>
<text text-anchor="middle" x="65" y="-503.5" font-family="Helvetica,sans-Serif" font-size="10.00">model.Model.notifyView</text>
</g>
<!-- Node2 -->
<g id="node2" class="node"><title>Node2</title>
<g id="a_node2"><a xlink:href="../../dd/dd6/classcommands_1_1_command.html#abafa69601e87c34d4453cf84349d6f9c" target="_top" xlink:title="commands.Command.execute\lCommand">
<polygon fill="white" stroke="black" points="166.5,-661 166.5,-691 331.5,-691 331.5,-661 166.5,-661"/>
<text text-anchor="start" x="174.5" y="-679" font-family="Helvetica,sans-Serif" font-size="10.00">commands.Command.execute</text>
<text text-anchor="middle" x="249" y="-668" font-family="Helvetica,sans-Serif" font-size="10.00">Command</text>
</a>
</g>
</g>
<!-- Node1&#45;&gt;Node2 -->
<g id="edge1" class="edge"><title>Node1&#45;&gt;Node2</title>
<path fill="none" stroke="midnightblue" d="M83.9569,-522.773C119.402,-555.881 197.862,-629.168 231.816,-660.883"/>
<polygon fill="midnightblue" stroke="midnightblue" points="86.0036,-519.895 76.3066,-515.627 81.2254,-525.011 86.0036,-519.895"/>
</g>
<!-- Node31 -->
<g id="node31" class="node"><title>Node31</title>
<g id="a_node31"><a xlink:href="../../d3/d42/classmodel_1_1_model.html#a73435cc7a2b6100031bbdd2cf6d6b4e8" target="_top" xlink:title="model.Model.updateModel">
<polygon fill="white" stroke="black" points="177.5,-326.5 177.5,-345.5 320.5,-345.5 320.5,-326.5 177.5,-326.5"/>
<text text-anchor="middle" x="249" y="-333.5" font-family="Helvetica,sans-Serif" font-size="10.00">model.Model.updateModel</text>
</a>
</g>
</g>
<!-- Node1&#45;&gt;Node31 -->
<g id="edge30" class="edge"><title>Node1&#45;&gt;Node31</title>
<path fill="none" stroke="midnightblue" d="M83.9904,-489.196C121.739,-453.936 208.169,-373.205 237.806,-345.521"/>
<polygon fill="midnightblue" stroke="midnightblue" points="81.2254,-486.989 76.3066,-496.373 86.0036,-492.105 81.2254,-486.989"/>
</g>
<!-- Node3 -->
<g id="node3" class="node"><title>Node3</title>
<g id="a_node3"><a xlink:href="../../d1/d79/classcommands_1_1_sum_command.html#a792945436d0c3ff1f58301fcc50f5ae1" target="_top" xlink:title="commands.SumCommand.execute\lCommand">
<polygon fill="white" stroke="black" points="394,-1323 394,-1353 582,-1353 582,-1323 394,-1323"/>
<text text-anchor="start" x="402" y="-1341" font-family="Helvetica,sans-Serif" font-size="10.00">commands.SumCommand.execute</text>
<text text-anchor="middle" x="488" y="-1330" font-family="Helvetica,sans-Serif" font-size="10.00">Command</text>
</a>
</g>
</g>
<!-- Node2&#45;&gt;Node3 -->
<g id="edge2" class="edge"><title>Node2&#45;&gt;Node3</title>
<path fill="none" stroke="midnightblue" d="M251.051,-701.444C256.011,-808.823 280.634,-1223.52 368,-1313 375.3,-1320.48 384.227,-1326 393.877,-1330.04"/>
<polygon fill="midnightblue" stroke="midnightblue" points="254.537,-701.061 250.596,-691.226 247.544,-701.372 254.537,-701.061"/>
</g>
<!-- Node4 -->
<g id="node4" class="node"><title>Node4</title>
<g id="a_node4"><a xlink:href="../../d6/dc0/classcommands_1_1_repeat_command.html#a40fb82831e8b2beaa7e31913e46e15eb" target="_top" xlink:title="commands.RepeatCommand.execute\lCommand">
<polygon fill="white" stroke="black" points="389,-1274 389,-1304 587,-1304 587,-1274 389,-1274"/>
<text text-anchor="start" x="397" y="-1292" font-family="Helvetica,sans-Serif" font-size="10.00">commands.RepeatCommand.execute</text>
<text text-anchor="middle" x="488" y="-1281" font-family="Helvetica,sans-Serif" font-size="10.00">Command</text>
</a>
</g>
</g>
<!-- Node2&#45;&gt;Node4 -->
<g id="edge3" class="edge"><title>Node2&#45;&gt;Node4</title>
<path fill="none" stroke="midnightblue" d="M251.475,-701.431C257.924,-803.56 287.027,-1182.29 368,-1264 374.018,-1270.07 381.111,-1274.85 388.787,-1278.59"/>
<polygon fill="midnightblue" stroke="midnightblue" points="254.95,-700.909 250.844,-691.142 247.963,-701.338 254.95,-700.909"/>
</g>
<!-- Node5 -->
<g id="node5" class="node"><title>Node5</title>
<g id="a_node5"><a xlink:href="../../dd/d82/classcommands_1_1_remainder_command.html#a99d4baf3f1b4a3c8d0cd69274380a2cf" target="_top" xlink:title="commands.RemainderCommand.execute\lCommand">
<polygon fill="white" stroke="black" points="380,-1225 380,-1255 596,-1255 596,-1225 380,-1225"/>
<text text-anchor="start" x="388" y="-1243" font-family="Helvetica,sans-Serif" font-size="10.00">commands.RemainderCommand.execute</text>
<text text-anchor="middle" x="488" y="-1232" font-family="Helvetica,sans-Serif" font-size="10.00">Command</text>
</a>
</g>
</g>
<!-- Node2&#45;&gt;Node5 -->
<g id="edge4" class="edge"><title>Node2&#45;&gt;Node5</title>
<path fill="none" stroke="midnightblue" d="M251.955,-701.181C259.95,-797.511 293.333,-1140.96 368,-1215 371.823,-1218.79 376.064,-1222.07 380.604,-1224.91"/>
<polygon fill="midnightblue" stroke="midnightblue" points="255.441,-700.858 251.143,-691.174 248.464,-701.424 255.441,-700.858"/>
</g>
<!-- Node6 -->
<g id="node6" class="node"><title>Node6</title>
<g id="a_node6"><a xlink:href="../../df/df5/classcommands_1_1_minus_command.html#a82548bbb25a73194469e1ff81b19cf27" target="_top" xlink:title="commands.MinusCommand.execute\lCommand">
<polygon fill="white" stroke="black" points="391.5,-1176 391.5,-1206 584.5,-1206 584.5,-1176 391.5,-1176"/>
<text text-anchor="start" x="399.5" y="-1194" font-family="Helvetica,sans-Serif" font-size="10.00">commands.MinusCommand.execute</text>
<text text-anchor="middle" x="488" y="-1183" font-family="Helvetica,sans-Serif" font-size="10.00">Command</text>
</a>
</g>
</g>
<!-- Node2&#45;&gt;Node6 -->
<g id="edge5" class="edge"><title>Node2&#45;&gt;Node6</title>
<path fill="none" stroke="midnightblue" d="M252.552,-701.225C262.239,-791.929 299.689,-1099.66 368,-1166 374.739,-1172.54 382.731,-1177.57 391.337,-1181.41"/>
<polygon fill="midnightblue" stroke="midnightblue" points="256.032,-700.851 251.508,-691.27 249.07,-701.581 256.032,-700.851"/>
</g>
<!-- Node7 -->
<g id="node7" class="node"><title>Node7</title>
<g id="a_node7"><a xlink:href="../../d3/d37/classcommands_1_1_set_background_command.html#a91dc8e21948a301c55af1cef90b77962" target="_top" xlink:title="commands.SetBackgroundCommand.execute\lCommand">
<polygon fill="white" stroke="black" points="368.5,-1127 368.5,-1157 607.5,-1157 607.5,-1127 368.5,-1127"/>
<text text-anchor="start" x="376.5" y="-1145" font-family="Helvetica,sans-Serif" font-size="10.00">commands.SetBackgroundCommand.execute</text>
<text text-anchor="middle" x="488" y="-1134" font-family="Helvetica,sans-Serif" font-size="10.00">Command</text>
</a>
</g>
</g>
<!-- Node2&#45;&gt;Node7 -->
<g id="edge6" class="edge"><title>Node2&#45;&gt;Node7</title>
<path fill="none" stroke="midnightblue" d="M253.262,-701.15C264.744,-785.787 305.98,-1058.26 368,-1117 371.985,-1120.77 376.388,-1124.04 381.084,-1126.86"/>
<polygon fill="midnightblue" stroke="midnightblue" points="256.717,-700.585 251.924,-691.137 249.779,-701.512 256.717,-700.585"/>
</g>
<!-- Node8 -->
<g id="node8" class="node"><title>Node8</title>
<g id="a_node8"><a xlink:href="../../d8/dba/classcommands_1_1_product_command.html#a8bc20bc7c21a944405f599dbcfa57e67" target="_top" xlink:title="commands.ProductCommand.execute\lCommand">
<polygon fill="white" stroke="black" points="387,-1078 387,-1108 589,-1108 589,-1078 387,-1078"/>
<text text-anchor="start" x="395" y="-1096" font-family="Helvetica,sans-Serif" font-size="10.00">commands.ProductCommand.execute</text>
<text text-anchor="middle" x="488" y="-1085" font-family="Helvetica,sans-Serif" font-size="10.00">Command</text>
</a>
</g>
</g>
<!-- Node2&#45;&gt;Node8 -->
<g id="edge7" class="edge"><title>Node2&#45;&gt;Node8</title>
<path fill="none" stroke="midnightblue" d="M249.405,-701.275C249.233,-771.059 258.921,-967.852 368,-1068 373.598,-1073.14 379.975,-1077.33 386.801,-1080.73"/>
<polygon fill="midnightblue" stroke="midnightblue" points="252.906,-701.233 249.504,-691.2 245.906,-701.165 252.906,-701.233"/>
</g>
<!-- Node9 -->
<g id="node9" class="node"><title>Node9</title>
<g id="a_node9"><a xlink:href="../../dd/d40/classcommands_1_1_quotient_command.html#a7e23b237cc68512dcbe6a65feb7c39e8" target="_top" xlink:title="commands.QuotientCommand.execute\lCommand">
<polygon fill="white" stroke="black" points="385,-1029 385,-1059 591,-1059 591,-1029 385,-1029"/>
<text text-anchor="start" x="393" y="-1047" font-family="Helvetica,sans-Serif" font-size="10.00">commands.QuotientCommand.execute</text>
<text text-anchor="middle" x="488" y="-1036" font-family="Helvetica,sans-Serif" font-size="10.00">Command</text>
</a>
</g>
</g>
<!-- Node2&#45;&gt;Node9 -->
<g id="edge8" class="edge"><title>Node2&#45;&gt;Node9</title>
<path fill="none" stroke="midnightblue" d="M250.674,-701.514C253.822,-765.487 271.36,-933.681 368,-1019 373.064,-1023.47 378.722,-1027.21 384.745,-1030.34"/>
<polygon fill="midnightblue" stroke="midnightblue" points="254.156,-701.007 250.249,-691.159 247.162,-701.294 254.156,-701.007"/>
</g>
<!-- Node10 -->
<g id="node10" class="node"><title>Node10</title>
<g id="a_node10"><a xlink:href="../../dc/d68/classcommands_1_1_make_variable_command.html#ad0e0974744cc969c12c67805c2460ef4" target="_top" xlink:title="commands.MakeVariableCommand.execute\lCommand">
<polygon fill="white" stroke="black" points="373.5,-980 373.5,-1010 602.5,-1010 602.5,-980 373.5,-980"/>
<text text-anchor="start" x="381.5" y="-998" font-family="Helvetica,sans-Serif" font-size="10.00">commands.MakeVariableCommand.execute</text>
<text text-anchor="middle" x="488" y="-987" font-family="Helvetica,sans-Serif" font-size="10.00">Command</text>
</a>
</g>
</g>
<!-- Node2&#45;&gt;Node10 -->
<g id="edge9" class="edge"><title>Node2&#45;&gt;Node10</title>
<path fill="none" stroke="midnightblue" d="M252.268,-701.004C258.857,-758.166 283.294,-898.929 368,-970 372.528,-973.799 377.489,-977.067 382.735,-979.873"/>
<polygon fill="midnightblue" stroke="midnightblue" points="255.746,-700.607 251.205,-691.035 248.785,-701.35 255.746,-700.607"/>
</g>
<!-- Node11 -->
<g id="node11" class="node"><title>Node11</title>
<g id="a_node11"><a xlink:href="../../d8/ded/classcommands_1_1_difference_command.html#a0c34c43d3bb266ef3e48ae27be938a0f" target="_top" xlink:title="commands.DifferenceCommand.execute\lCommand">
<polygon fill="white" stroke="black" points="381,-931 381,-961 595,-961 595,-931 381,-931"/>
<text text-anchor="start" x="389" y="-949" font-family="Helvetica,sans-Serif" font-size="10.00">commands.DifferenceCommand.execute</text>
<text text-anchor="middle" x="488" y="-938" font-family="Helvetica,sans-Serif" font-size="10.00">Command</text>
</a>
</g>
</g>
<!-- Node2&#45;&gt;Node11 -->
<g id="edge10" class="edge"><title>Node2&#45;&gt;Node11</title>
<path fill="none" stroke="midnightblue" d="M254.533,-701.294C264.941,-751.586 295.461,-864.176 368,-921 372.903,-924.84 378.255,-928.128 383.89,-930.938"/>
<polygon fill="midnightblue" stroke="midnightblue" points="257.927,-700.411 252.559,-691.276 251.059,-701.765 257.927,-700.411"/>
</g>
<!-- Node12 -->
<g id="node12" class="node"><title>Node12</title>
<g id="a_node12"><a xlink:href="../../dd/d29/classcommands_1_1_clear_screen_command.html#a87e5eb0f4c3bb48ec0737da2aa431db3" target="_top" xlink:title="commands.ClearScreenCommand.execute\lCommand">
<polygon fill="white" stroke="black" points="376,-882 376,-912 600,-912 600,-882 376,-882"/>
<text text-anchor="start" x="384" y="-900" font-family="Helvetica,sans-Serif" font-size="10.00">commands.ClearScreenCommand.execute</text>
<text text-anchor="middle" x="488" y="-889" font-family="Helvetica,sans-Serif" font-size="10.00">Command</text>
</a>
</g>
</g>
<!-- Node2&#45;&gt;Node12 -->
<g id="edge11" class="edge"><title>Node2&#45;&gt;Node12</title>
<path fill="none" stroke="midnightblue" d="M257.566,-700.672C271.857,-742.893 306.99,-828.631 368,-872 373.42,-875.853 379.308,-879.136 385.466,-881.931"/>
<polygon fill="midnightblue" stroke="midnightblue" points="260.891,-699.579 254.454,-691.165 254.239,-701.757 260.891,-699.579"/>
</g>
<!-- Node13 -->
<g id="node13" class="node"><title>Node13</title>
<g id="a_node13"><a xlink:href="../../d9/d35/classcommands_1_1_ask_command.html#ae4ba28c73ce0b5112e4032bd21a951f5" target="_top" xlink:title="commands.AskCommand.execute\lCommand">
<polygon fill="white" stroke="black" points="397,-833 397,-863 579,-863 579,-833 397,-833"/>
<text text-anchor="start" x="405" y="-851" font-family="Helvetica,sans-Serif" font-size="10.00">commands.AskCommand.execute</text>
<text text-anchor="middle" x="488" y="-840" font-family="Helvetica,sans-Serif" font-size="10.00">Command</text>
</a>
</g>
</g>
<!-- Node2&#45;&gt;Node13 -->
<g id="edge12" class="edge"><title>Node2&#45;&gt;Node13</title>
<path fill="none" stroke="midnightblue" d="M262.524,-700.426C280.923,-733.7 318.506,-792.605 368,-823 376.815,-828.413 386.615,-832.67 396.7,-836.015"/>
<polygon fill="midnightblue" stroke="midnightblue" points="265.47,-698.514 257.644,-691.373 259.309,-701.836 265.47,-698.514"/>
</g>
<!-- Node14 -->
<g id="node14" class="node"><title>Node14</title>
<g id="a_node14"><a xlink:href="../../d3/d49/classcommands_1_1_if_else_command.html#a3b3d15925117d366a69f8ebd1dbc2dbc" target="_top" xlink:title="commands.IfElseCommand.execute\lCommand">
<polygon fill="white" stroke="black" points="393,-784 393,-814 583,-814 583,-784 393,-784"/>
<text text-anchor="start" x="401" y="-802" font-family="Helvetica,sans-Serif" font-size="10.00">commands.IfElseCommand.execute</text>
<text text-anchor="middle" x="488" y="-791" font-family="Helvetica,sans-Serif" font-size="10.00">Command</text>
</a>
</g>
</g>
<!-- Node2&#45;&gt;Node14 -->
<g id="edge13" class="edge"><title>Node2&#45;&gt;Node14</title>
<path fill="none" stroke="midnightblue" d="M270.734,-698.758C292.669,-721.389 329.392,-755.347 368,-774 376.079,-777.903 384.755,-781.199 393.607,-783.982"/>
<polygon fill="midnightblue" stroke="midnightblue" points="273.04,-696.105 263.613,-691.27 267.967,-700.928 273.04,-696.105"/>
</g>
<!-- Node16 -->
<g id="node16" class="node"><title>Node16</title>
<g id="a_node16"><a xlink:href="../../d8/d57/classcommands_1_1_for_command.html#aeb06a37d7f9845eb546425bae6ea9f58" target="_top" xlink:title="commands.ForCommand.execute\lCommand">
<polygon fill="white" stroke="black" points="398,-735 398,-765 578,-765 578,-735 398,-735"/>
<text text-anchor="start" x="406" y="-753" font-family="Helvetica,sans-Serif" font-size="10.00">commands.ForCommand.execute</text>
<text text-anchor="middle" x="488" y="-742" font-family="Helvetica,sans-Serif" font-size="10.00">Command</text>
</a>
</g>
</g>
<!-- Node2&#45;&gt;Node16 -->
<g id="edge15" class="edge"><title>Node2&#45;&gt;Node16</title>
<path fill="none" stroke="midnightblue" d="M291.147,-695.308C313.506,-705.231 341.858,-716.904 368,-725 379.999,-728.716 392.848,-732.055 405.505,-734.992"/>
<polygon fill="midnightblue" stroke="midnightblue" points="292.511,-692.084 281.955,-691.179 289.643,-698.47 292.511,-692.084"/>
</g>
<!-- Node17 -->
<g id="node17" class="node"><title>Node17</title>
<g id="a_node17"><a xlink:href="../../db/d38/classcommands_1_1_ask_with_command.html#a5ee6a090e94729d84ef423a454d446eb" target="_top" xlink:title="commands.AskWithCommand.execute\lCommand">
<polygon fill="white" stroke="black" points="386.5,-686 386.5,-716 589.5,-716 589.5,-686 386.5,-686"/>
<text text-anchor="start" x="394.5" y="-704" font-family="Helvetica,sans-Serif" font-size="10.00">commands.AskWithCommand.execute</text>
<text text-anchor="middle" x="488" y="-693" font-family="Helvetica,sans-Serif" font-size="10.00">Command</text>
</a>
</g>
</g>
<!-- Node2&#45;&gt;Node17 -->
<g id="edge16" class="edge"><title>Node2&#45;&gt;Node17</title>
<path fill="none" stroke="midnightblue" d="M341.62,-685.665C356.301,-687.213 371.562,-688.823 386.437,-690.392"/>
<polygon fill="midnightblue" stroke="midnightblue" points="341.874,-682.172 331.562,-684.604 341.14,-689.133 341.874,-682.172"/>
</g>
<!-- Node18 -->
<g id="node18" class="node"><title>Node18</title>
<g id="a_node18"><a xlink:href="../../d4/d02/classcommands_1_1_do_times_command.html#a1dd20e90975d905a1bce8f018e9f7f0a" target="_top" xlink:title="commands.DoTimesCommand.execute\lCommand">
<polygon fill="white" stroke="black" points="384.5,-637 384.5,-667 591.5,-667 591.5,-637 384.5,-637"/>
<text text-anchor="start" x="392.5" y="-655" font-family="Helvetica,sans-Serif" font-size="10.00">commands.DoTimesCommand.execute</text>
<text text-anchor="middle" x="488" y="-644" font-family="Helvetica,sans-Serif" font-size="10.00">Command</text>
</a>
</g>
</g>
<!-- Node2&#45;&gt;Node18 -->
<g id="edge17" class="edge"><title>Node2&#45;&gt;Node18</title>
<path fill="none" stroke="midnightblue" d="M341.643,-666.72C355.632,-665.303 370.148,-663.833 384.354,-662.395"/>
<polygon fill="midnightblue" stroke="midnightblue" points="341.158,-663.251 331.562,-667.741 341.864,-670.215 341.158,-663.251"/>
</g>
<!-- Node19 -->
<g id="node19" class="node"><title>Node19</title>
<g id="a_node19"><a xlink:href="../../dd/de4/classcommands_1_1_custom_command.html#a5ad25438a49d3e4eeba835fefe8b730a" target="_top" xlink:title="commands.CustomCommand.execute\lCommand">
<polygon fill="white" stroke="black" points="386.5,-588 386.5,-618 589.5,-618 589.5,-588 386.5,-588"/>
<text text-anchor="start" x="394.5" y="-606" font-family="Helvetica,sans-Serif" font-size="10.00">commands.CustomCommand.execute</text>
<text text-anchor="middle" x="488" y="-595" font-family="Helvetica,sans-Serif" font-size="10.00">Command</text>
</a>
</g>
</g>
<!-- Node2&#45;&gt;Node19 -->
<g id="edge18" class="edge"><title>Node2&#45;&gt;Node19</title>
<path fill="none" stroke="midnightblue" d="M291.663,-656.916C313.959,-647.252 342.091,-635.921 368,-628 380.113,-624.297 393.085,-620.956 405.848,-618.011"/>
<polygon fill="midnightblue" stroke="midnightblue" points="290.24,-653.719 282.489,-660.941 293.052,-660.129 290.24,-653.719"/>
</g>
<!-- Node20 -->
<g id="node20" class="node"><title>Node20</title>
<g id="a_node20"><a xlink:href="../../d6/daf/classcommands_1_1_set_shape_command.html#a59c440316cf9e732b5aa2f46def94e10" target="_top" xlink:title="commands.SetShapeCommand.update\lTurtle">
<polygon fill="white" stroke="black" points="384,-539 384,-569 592,-569 592,-539 384,-539"/>
<text text-anchor="start" x="392" y="-557" font-family="Helvetica,sans-Serif" font-size="10.00">commands.SetShapeCommand.update</text>
<text text-anchor="middle" x="488" y="-546" font-family="Helvetica,sans-Serif" font-size="10.00">Turtle</text>
</a>
</g>
</g>
<!-- Node2&#45;&gt;Node20 -->
<g id="edge19" class="edge"><title>Node2&#45;&gt;Node20</title>
<path fill="none" stroke="midnightblue" d="M270.781,-653.48C292.754,-631.086 329.505,-597.479 368,-579 376.088,-575.117 384.771,-571.835 393.627,-569.06"/>
<polygon fill="midnightblue" stroke="midnightblue" points="268.061,-651.259 263.647,-660.891 273.104,-656.114 268.061,-651.259"/>
</g>
<!-- Node21 -->
<g id="node21" class="node"><title>Node21</title>
<g id="a_node21"><a xlink:href="../../d6/d11/classcommands_1_1_set_pen_dash_command.html#a320f3b8248e3e89b2338dfefbe73f8c7" target="_top" xlink:title="commands.SetPenDashCommand.update\lTurtle">
<polygon fill="white" stroke="black" points="378,-490 378,-520 598,-520 598,-490 378,-490"/>
<text text-anchor="start" x="386" y="-508" font-family="Helvetica,sans-Serif" font-size="10.00">commands.SetPenDashCommand.update</text>
<text text-anchor="middle" x="488" y="-497" font-family="Helvetica,sans-Serif" font-size="10.00">Turtle</text>
</a>
</g>
</g>
<!-- Node2&#45;&gt;Node21 -->
<g id="edge20" class="edge"><title>Node2&#45;&gt;Node21</title>
<path fill="none" stroke="midnightblue" d="M262.568,-651.74C281.017,-618.692 318.66,-560.188 368,-530 374.303,-526.144 381.106,-522.875 388.156,-520.104"/>
<polygon fill="midnightblue" stroke="midnightblue" points="259.381,-650.275 257.673,-660.731 265.528,-653.622 259.381,-650.275"/>
</g>
<!-- Node22 -->
<g id="node22" class="node"><title>Node22</title>
<g id="a_node22"><a xlink:href="../../dc/df3/classcommands_1_1_set_towards_command.html#ad82abd7dcaed57b3bdb3a4b87a91815a" target="_top" xlink:title="commands.SetTowardsCommand.update\lTurtle">
<polygon fill="white" stroke="black" points="380.5,-441 380.5,-471 595.5,-471 595.5,-441 380.5,-441"/>
<text text-anchor="start" x="388.5" y="-459" font-family="Helvetica,sans-Serif" font-size="10.00">commands.SetTowardsCommand.update</text>
<text text-anchor="middle" x="488" y="-448" font-family="Helvetica,sans-Serif" font-size="10.00">Turtle</text>
</a>
</g>
</g>
<!-- Node2&#45;&gt;Node22 -->
<g id="edge21" class="edge"><title>Node2&#45;&gt;Node22</title>
<path fill="none" stroke="midnightblue" d="M257.695,-651.184C272.101,-609.082 307.298,-524.047 368,-481 373.424,-477.153 379.316,-473.875 385.477,-471.083"/>
<polygon fill="midnightblue" stroke="midnightblue" points="254.295,-650.318 254.478,-660.911 260.941,-652.517 254.295,-650.318"/>
</g>
<!-- Node23 -->
<g id="node23" class="node"><title>Node23</title>
<g id="a_node23"><a xlink:href="../../d9/db5/classcommands_1_1_set_position_command.html#aba31c4887974831a6c0d9feac8316ee6" target="_top" xlink:title="commands.SetPositionCommand.update\lTurtle">
<polygon fill="white" stroke="black" points="380.5,-392 380.5,-422 595.5,-422 595.5,-392 380.5,-392"/>
<text text-anchor="start" x="388.5" y="-410" font-family="Helvetica,sans-Serif" font-size="10.00">commands.SetPositionCommand.update</text>
<text text-anchor="middle" x="488" y="-399" font-family="Helvetica,sans-Serif" font-size="10.00">Turtle</text>
</a>
</g>
</g>
<!-- Node2&#45;&gt;Node23 -->
<g id="edge22" class="edge"><title>Node2&#45;&gt;Node23</title>
<path fill="none" stroke="midnightblue" d="M254.566,-650.807C265.034,-600.716 295.656,-488.578 368,-432 372.906,-428.163 378.261,-424.879 383.897,-422.071"/>
<polygon fill="midnightblue" stroke="midnightblue" points="251.1,-650.293 252.579,-660.784 257.965,-651.661 251.1,-650.293"/>
</g>
<!-- Node24 -->
<g id="node24" class="node"><title>Node24</title>
<g id="a_node24"><a xlink:href="../../dd/db2/classcommands_1_1_right_command.html#ae16ecb0da3e0a2049a7382d74f315cb6" target="_top" xlink:title="commands.RightCommand.update\lTurtle">
<polygon fill="white" stroke="black" points="395.5,-343 395.5,-373 580.5,-373 580.5,-343 395.5,-343"/>
<text text-anchor="start" x="403.5" y="-361" font-family="Helvetica,sans-Serif" font-size="10.00">commands.RightCommand.update</text>
<text text-anchor="middle" x="488" y="-350" font-family="Helvetica,sans-Serif" font-size="10.00">Turtle</text>
</a>
</g>
</g>
<!-- Node2&#45;&gt;Node24 -->
<g id="edge23" class="edge"><title>Node2&#45;&gt;Node24</title>
<path fill="none" stroke="midnightblue" d="M252.344,-650.678C259.06,-593.452 283.698,-453.648 368,-383 376.009,-376.288 385.37,-371.237 395.261,-367.456"/>
<polygon fill="midnightblue" stroke="midnightblue" points="248.858,-650.353 251.257,-660.673 255.817,-651.11 248.858,-650.353"/>
</g>
<!-- Node25 -->
<g id="node25" class="node"><title>Node25</title>
<g id="a_node25"><a xlink:href="../../dc/db3/classcommands_1_1_set_heading_command.html#a064fae1a815349b9efc6bd43f2371339" target="_top" xlink:title="commands.SetHeadingCommand.update\lTurtle">
<polygon fill="white" stroke="black" points="379.5,-294 379.5,-324 596.5,-324 596.5,-294 379.5,-294"/>
<text text-anchor="start" x="387.5" y="-312" font-family="Helvetica,sans-Serif" font-size="10.00">commands.SetHeadingCommand.update</text>
<text text-anchor="middle" x="488" y="-301" font-family="Helvetica,sans-Serif" font-size="10.00">Turtle</text>
</a>
</g>
</g>
<!-- Node2&#45;&gt;Node25 -->
<g id="edge24" class="edge"><title>Node2&#45;&gt;Node25</title>
<path fill="none" stroke="midnightblue" d="M250.7,-650.558C253.908,-586.767 271.574,-419.054 368,-334 372.354,-330.16 377.145,-326.856 382.23,-324.018"/>
<polygon fill="midnightblue" stroke="midnightblue" points="247.189,-650.745 250.265,-660.884 254.183,-651.04 247.189,-650.745"/>
</g>
<!-- Node26 -->
<g id="node26" class="node"><title>Node26</title>
<g id="a_node26"><a xlink:href="../../d2/dbb/classcommands_1_1_set_pen_size_command.html#aa8dbbb22c72842b2d6f50aa169a8404e" target="_top" xlink:title="commands.SetPenSizeCommand.update\lTurtle">
<polygon fill="white" stroke="black" points="380.5,-245 380.5,-275 595.5,-275 595.5,-245 380.5,-245"/>
<text text-anchor="start" x="388.5" y="-263" font-family="Helvetica,sans-Serif" font-size="10.00">commands.SetPenSizeCommand.update</text>
<text text-anchor="middle" x="488" y="-252" font-family="Helvetica,sans-Serif" font-size="10.00">Turtle</text>
</a>
</g>
</g>
<!-- Node2&#45;&gt;Node26 -->
<g id="edge25" class="edge"><title>Node2&#45;&gt;Node26</title>
<path fill="none" stroke="midnightblue" d="M255.93,-651.191C275.731,-569.215 339.907,-310.774 368,-285 372.122,-281.218 376.666,-277.951 381.5,-275.133"/>
<polygon fill="midnightblue" stroke="midnightblue" points="252.525,-650.378 253.588,-660.919 259.331,-652.016 252.525,-650.378"/>
</g>
<!-- Node27 -->
<g id="node27" class="node"><title>Node27</title>
<g id="a_node27"><a xlink:href="../../d5/d21/classcommands_1_1_set_pen_color_command.html#a69a9c0161b8910c8fecc5ace219aeeb8" target="_top" xlink:title="commands.SetPenColorCommand.update\lTurtle">
<polygon fill="white" stroke="black" points="378,-196 378,-226 598,-226 598,-196 378,-196"/>
<text text-anchor="start" x="386" y="-214" font-family="Helvetica,sans-Serif" font-size="10.00">commands.SetPenColorCommand.update</text>
<text text-anchor="middle" x="488" y="-203" font-family="Helvetica,sans-Serif" font-size="10.00">Turtle</text>
</a>
</g>
</g>
<!-- Node2&#45;&gt;Node27 -->
<g id="edge26" class="edge"><title>Node2&#45;&gt;Node27</title>
<path fill="none" stroke="midnightblue" d="M256.319,-651.04C279.67,-558.984 360.153,-243.428 368,-236 371.986,-232.227 376.39,-228.962 381.086,-226.142"/>
<polygon fill="midnightblue" stroke="midnightblue" points="252.886,-650.337 253.822,-660.89 259.672,-652.057 252.886,-650.337"/>
</g>
<!-- Node28 -->
<g id="node28" class="node"><title>Node28</title>
<g id="a_node28"><a xlink:href="../../dc/d65/classcommands_1_1_left_command.html#abd466facd4b16e1c04a6578b4bf8e203" target="_top" xlink:title="commands.LeftCommand.update\lTurtle">
<polygon fill="white" stroke="black" points="398.5,-147 398.5,-177 577.5,-177 577.5,-147 398.5,-147"/>
<text text-anchor="start" x="406.5" y="-165" font-family="Helvetica,sans-Serif" font-size="10.00">commands.LeftCommand.update</text>
<text text-anchor="middle" x="488" y="-154" font-family="Helvetica,sans-Serif" font-size="10.00">Turtle</text>
</a>
</g>
</g>
<!-- Node2&#45;&gt;Node28 -->
<g id="edge27" class="edge"><title>Node2&#45;&gt;Node28</title>
<path fill="none" stroke="midnightblue" d="M256.753,-650.955C271.218,-597.014 305.995,-465.768 332,-355 349.453,-280.66 313.896,-240.887 368,-187 376.451,-178.583 386.968,-172.663 398.228,-168.549"/>
<polygon fill="midnightblue" stroke="midnightblue" points="253.354,-650.118 254.139,-660.684 260.114,-651.934 253.354,-650.118"/>
</g>
<!-- Node29 -->
<g id="node29" class="node"><title>Node29</title>
<g id="a_node29"><a xlink:href="../../d6/ddc/classcommands_1_1_backward_command.html#af0c4c6ac04bea1aa34b069a01c53888f" target="_top" xlink:title="commands.BackwardCommand.update\lTurtle">
<polygon fill="white" stroke="black" points="385,-98 385,-128 591,-128 591,-98 385,-98"/>
<text text-anchor="start" x="393" y="-116" font-family="Helvetica,sans-Serif" font-size="10.00">commands.BackwardCommand.update</text>
<text text-anchor="middle" x="488" y="-105" font-family="Helvetica,sans-Serif" font-size="10.00">Turtle</text>
</a>
</g>
</g>
<!-- Node2&#45;&gt;Node29 -->
<g id="edge28" class="edge"><title>Node2&#45;&gt;Node29</title>
<path fill="none" stroke="midnightblue" d="M257.155,-651.045C272.397,-597.277 308.587,-466.344 332,-355 342.058,-307.165 334.181,-173.294 368,-138 372.966,-132.818 378.712,-128.571 384.943,-125.102"/>
<polygon fill="midnightblue" stroke="midnightblue" points="253.766,-650.164 254.395,-660.741 260.499,-652.08 253.766,-650.164"/>
</g>
<!-- Node30 -->
<g id="node30" class="node"><title>Node30</title>
<g id="a_node30"><a xlink:href="../../da/d4f/classcommands_1_1_forward_command.html#afe19b644a8fe0d46f3dbf19aef135364" target="_top" xlink:title="commands.ForwardCommand.update\lTurtle">
<polygon fill="white" stroke="black" points="389,-49 389,-79 587,-79 587,-49 389,-49"/>
<text text-anchor="start" x="397" y="-67" font-family="Helvetica,sans-Serif" font-size="10.00">commands.ForwardCommand.update</text>
<text text-anchor="middle" x="488" y="-56" font-family="Helvetica,sans-Serif" font-size="10.00">Turtle</text>
</a>
</g>
</g>
<!-- Node2&#45;&gt;Node30 -->
<g id="edge29" class="edge"><title>Node2&#45;&gt;Node30</title>
<path fill="none" stroke="midnightblue" d="M257.413,-651.097C273.154,-597.43 310.254,-466.682 332,-355 343.401,-296.45 327.379,-132.681 368,-89 373.966,-82.5845 381.125,-77.592 388.934,-73.7298"/>
<polygon fill="midnightblue" stroke="midnightblue" points="254.031,-650.192 254.56,-660.774 260.745,-652.172 254.031,-650.192"/>
</g>
<!-- Node15 -->
<g id="node15" class="node"><title>Node15</title>
<g id="a_node15"><a xlink:href="../../d5/dad/classcommands_1_1_if_command.html#a0d92f20941c1e79cfb1e02e77f463e68" target="_top" xlink:title="commands.IfCommand.execute\lCommand">
<polygon fill="white" stroke="black" points="644,-784 644,-814 814,-814 814,-784 644,-784"/>
<text text-anchor="start" x="652" y="-802" font-family="Helvetica,sans-Serif" font-size="10.00">commands.IfCommand.execute</text>
<text text-anchor="middle" x="729" y="-791" font-family="Helvetica,sans-Serif" font-size="10.00">Command</text>
</a>
</g>
</g>
<!-- Node14&#45;&gt;Node15 -->
<g id="edge14" class="edge"><title>Node14&#45;&gt;Node15</title>
<path fill="none" stroke="midnightblue" d="M593.497,-799C610.273,-799 627.449,-799 643.675,-799"/>
<polygon fill="midnightblue" stroke="midnightblue" points="593.116,-795.5 583.116,-799 593.116,-802.5 593.116,-795.5"/>
</g>
<!-- Node32 -->
<g id="node32" class="node"><title>Node32</title>
<g id="a_node32"><a xlink:href="../../d9/df7/classcontroller_1_1_controller.html#a81fea06b52aed0a26625c5b30b490afb" target="_top" xlink:title="controller.Controller.run\lCommand">
<polygon fill="white" stroke="black" points="424,-0 424,-30 552,-30 552,-0 424,-0"/>
<text text-anchor="start" x="432" y="-18" font-family="Helvetica,sans-Serif" font-size="10.00">controller.Controller.run</text>
<text text-anchor="middle" x="488" y="-7" font-family="Helvetica,sans-Serif" font-size="10.00">Command</text>
</a>
</g>
</g>
<!-- Node31&#45;&gt;Node32 -->
<g id="edge31" class="edge"><title>Node31&#45;&gt;Node32</title>
<path fill="none" stroke="midnightblue" d="M251.566,-316.204C256.938,-262.456 279.527,-112.889 368,-39 383.529,-26.0307 404.146,-19.4133 423.851,-16.2078"/>
<polygon fill="midnightblue" stroke="midnightblue" points="248.058,-316.146 250.643,-326.42 255.029,-316.776 248.058,-316.146"/>
</g>
<!-- Node33 -->
<g id="node33" class="node"><title>Node33</title>
<g id="a_node33"><a xlink:href="../../d9/df7/classcontroller_1_1_controller.html#afdfa7f9e9a3fb5f6b73a6b8e2b2be8b5" target="_top" xlink:title="controller.Controller.get\lInput">
<polygon fill="white" stroke="black" points="665,-0 665,-30 793,-30 793,-0 665,-0"/>
<text text-anchor="start" x="673" y="-18" font-family="Helvetica,sans-Serif" font-size="10.00">controller.Controller.get</text>
<text text-anchor="middle" x="729" y="-7" font-family="Helvetica,sans-Serif" font-size="10.00">Input</text>
</a>
</g>
</g>
<!-- Node32&#45;&gt;Node33 -->
<g id="edge32" class="edge"><title>Node32&#45;&gt;Node33</title>
<path fill="none" stroke="midnightblue" d="M562.114,-15C594.977,-15 633.379,-15 664.954,-15"/>
<polygon fill="midnightblue" stroke="midnightblue" points="562.107,-11.5001 552.107,-15 562.107,-18.5001 562.107,-11.5001"/>
</g>
<!-- Node34 -->
<g id="node34" class="node"><title>Node34</title>
<g id="a_node34"><a xlink:href="../../d3/dc7/classview_1_1controllers_1_1_pane_controller.html#a7e6154aecb60d8f3bcb056a11e842764" target="_top" xlink:title="view.controllers.PaneController.update">
<polygon fill="white" stroke="black" points="850,-5.5 850,-24.5 1048,-24.5 1048,-5.5 850,-5.5"/>
<text text-anchor="middle" x="949" y="-12.5" font-family="Helvetica,sans-Serif" font-size="10.00">view.controllers.PaneController.update</text>
</a>
</g>
</g>
<!-- Node33&#45;&gt;Node34 -->
<g id="edge33" class="edge"><title>Node33&#45;&gt;Node34</title>
<path fill="none" stroke="midnightblue" d="M803.221,-15C818.163,-15 834.113,-15 849.764,-15"/>
<polygon fill="midnightblue" stroke="midnightblue" points="803.055,-11.5001 793.055,-15 803.055,-18.5001 803.055,-11.5001"/>
</g>
</g>
</svg>
