<?xml version="1.0" encoding="UTF-8" standalone="no"?>
<!DOCTYPE svg PUBLIC "-//W3C//DTD SVG 1.1//EN"
 "http://www.w3.org/Graphics/SVG/1.1/DTD/svg11.dtd">
<!-- Generated by graphviz version 2.36.0 (20140111.2315)
 -->
<!-- Title: controller.Controller.runCommand Pages: 1 -->
<!--zoomable 704 -->
<svg id="main" version="1.1" xmlns="http://www.w3.org/2000/svg" xmlns:xlink="http://www.w3.org/1999/xlink" xml:space="preserve" onload="init(evt)">
<style type="text/css"><![CDATA[
.edge:hover path { stroke: red; }
.edge:hover polygon { stroke: red; fill: red; }
]]></style>
<script type="text/javascript"><![CDATA[
var edges = document.getElementsByTagName('g');
if (edges && edges.length) {
  for (var i=0;i<edges.length;i++) {
    if (edges[i].id.substr(0,4)=='edge') {
      edges[i].setAttribute('class','edge');
    }
  }
}
]]></script>
        <defs>
                <circle id="rim" cx="0" cy="0" r="7"/>
                <circle id="rim2" cx="0" cy="0" r="3.5"/>
                <g id="zoomPlus">
                        <use xlink:href="#rim" fill="#404040">
                                <set attributeName="fill" to="#808080" begin="zoomplus.mouseover" end="zoomplus.mouseout"/>
                        </use>
                        <path d="M-4,0h8M0,-4v8" fill="none" stroke="white" stroke-width="1.5" pointer-events="none"/>
                </g>
                <g id="zoomMin">
                        <use xlink:href="#rim" fill="#404040">
                                <set attributeName="fill" to="#808080" begin="zoomminus.mouseover" end="zoomminus.mouseout"/>
                        </use>
                        <path d="M-4,0h8" fill="none" stroke="white" stroke-width="1.5" pointer-events="none"/>
                </g>
                <g id="dirArrow">
                        <path fill="none" stroke="white" stroke-width="1.5" d="M0,-3.0v7 M-2.5,-0.5L0,-3.0L2.5,-0.5"/>
                </g>
               <g id="resetDef">
                       <use xlink:href="#rim2" fill="#404040">
                               <set attributeName="fill" to="#808080" begin="reset.mouseover" end="reset.mouseout"/>
                       </use>
               </g>
        </defs>

<script type="text/javascript">
var viewWidth = 1354;
var viewHeight = 704;
var sectionId = 'dynsection-3';
</script>
<script xlink:href="../../svgpan.js"/>
<svg id="graph" class="graph">
<g id="viewport">
<title>controller.Controller.runCommand</title>
<polygon fill="white" stroke="none" points="-4,4 -4,-700 1350,-700 1350,4 -4,4"/>
<!-- Node1 -->
<g id="node1" class="node"><title>Node1</title>
<polygon fill="#bfbfbf" stroke="black" points="0,-442 0,-472 128,-472 128,-442 0,-442"/>
<text text-anchor="start" x="8" y="-460" font-family="Helvetica,sans-Serif" font-size="10.00">controller.Controller.run</text>
<text text-anchor="middle" x="64" y="-449" font-family="Helvetica,sans-Serif" font-size="10.00">Command</text>
</g>
<!-- Node2 -->
<g id="node2" class="node"><title>Node2</title>
<g id="a_node2"><a xlink:href="../../d3/d42/classmodel_1_1_model.html#a73435cc7a2b6100031bbdd2cf6d6b4e8" target="_top" xlink:title="model.Model.updateModel">
<polygon fill="white" stroke="black" points="164.5,-447.5 164.5,-466.5 307.5,-466.5 307.5,-447.5 164.5,-447.5"/>
<text text-anchor="middle" x="236" y="-454.5" font-family="Helvetica,sans-Serif" font-size="10.00">model.Model.updateModel</text>
</a>
</g>
</g>
<!-- Node1&#45;&gt;Node2 -->
<g id="edge1" class="edge"><title>Node1&#45;&gt;Node2</title>
<path fill="none" stroke="midnightblue" d="M128.302,-457C136.715,-457 145.433,-457 154.093,-457"/>
<polygon fill="midnightblue" stroke="midnightblue" points="154.213,-460.5 164.213,-457 154.213,-453.5 154.213,-460.5"/>
</g>
<!-- Node3 -->
<g id="node3" class="node"><title>Node3</title>
<g id="a_node3"><a xlink:href="../../d3/d42/classmodel_1_1_model.html#a76160d002c1e68b566307ac44356f6e5" target="_top" xlink:title="model.Model.notifyView">
<polygon fill="white" stroke="black" points="344.5,-447.5 344.5,-466.5 473.5,-466.5 473.5,-447.5 344.5,-447.5"/>
<text text-anchor="middle" x="409" y="-454.5" font-family="Helvetica,sans-Serif" font-size="10.00">model.Model.notifyView</text>
</a>
</g>
</g>
<!-- Node2&#45;&gt;Node3 -->
<g id="edge2" class="edge"><title>Node2&#45;&gt;Node3</title>
<path fill="none" stroke="midnightblue" d="M307.54,-457C316.334,-457 325.347,-457 334.189,-457"/>
<polygon fill="midnightblue" stroke="midnightblue" points="334.468,-460.5 344.468,-457 334.468,-453.5 334.468,-460.5"/>
</g>
<!-- Node4 -->
<g id="node4" class="node"><title>Node4</title>
<g id="a_node4"><a xlink:href="../../db/db5/classview_1_1panes_1_1_view_pane_module.html#aa2a1bf15bc036ee4237bf63749d85baf" target="_top" xlink:title="view.panes.ViewPaneModule.updateView">
<polygon fill="white" stroke="black" points="510.5,-447.5 510.5,-466.5 719.5,-466.5 719.5,-447.5 510.5,-447.5"/>
<text text-anchor="middle" x="615" y="-454.5" font-family="Helvetica,sans-Serif" font-size="10.00">view.panes.ViewPaneModule.updateView</text>
</a>
</g>
</g>
<!-- Node3&#45;&gt;Node4 -->
<g id="edge3" class="edge"><title>Node3&#45;&gt;Node4</title>
<path fill="none" stroke="midnightblue" d="M473.708,-457C482.202,-457 491.11,-457 500.144,-457"/>
<polygon fill="midnightblue" stroke="midnightblue" points="500.382,-460.5 510.382,-457 500.382,-453.5 500.382,-460.5"/>
</g>
<!-- Node5 -->
<g id="node5" class="node"><title>Node5</title>
<g id="a_node5"><a xlink:href="../../d3/d42/classmodel_1_1_model.html#a54936407d7df5ab8ef3c0ae54bcdc0ed" target="_top" xlink:title="model.Model.getBackground\lColor">
<polygon fill="white" stroke="black" points="773,-666 773,-696 927,-696 927,-666 773,-666"/>
<text text-anchor="start" x="781" y="-684" font-family="Helvetica,sans-Serif" font-size="10.00">model.Model.getBackground</text>
<text text-anchor="middle" x="850" y="-673" font-family="Helvetica,sans-Serif" font-size="10.00">Color</text>
</a>
</g>
</g>
<!-- Node4&#45;&gt;Node5 -->
<g id="edge4" class="edge"><title>Node4&#45;&gt;Node5</title>
<path fill="none" stroke="midnightblue" d="M619.895,-466.674C633.411,-498.969 681.568,-603.96 756,-656 758.74,-657.916 761.62,-659.685 764.601,-661.319"/>
<polygon fill="midnightblue" stroke="midnightblue" points="763.287,-664.572 773.808,-665.824 766.364,-658.285 763.287,-664.572"/>
</g>
<!-- Node6 -->
<g id="node6" class="node"><title>Node6</title>
<g id="a_node6"><a xlink:href="../../db/db5/classview_1_1panes_1_1_view_pane_module.html#ac94ee444587349ddad19b8caee500c9c" target="_top" xlink:title="view.panes.ViewPaneModule.update\lBGColor">
<polygon fill="white" stroke="black" points="756,-617 756,-647 944,-647 944,-617 756,-617"/>
<text text-anchor="start" x="764" y="-635" font-family="Helvetica,sans-Serif" font-size="10.00">view.panes.ViewPaneModule.update</text>
<text text-anchor="middle" x="850" y="-624" font-family="Helvetica,sans-Serif" font-size="10.00">BGColor</text>
</a>
</g>
</g>
<!-- Node4&#45;&gt;Node6 -->
<g id="edge5" class="edge"><title>Node4&#45;&gt;Node6</title>
<path fill="none" stroke="midnightblue" d="M622.222,-466.817C639.764,-493.662 692.496,-568.827 756,-607 759.627,-609.18 763.446,-611.174 767.384,-612.996"/>
<polygon fill="midnightblue" stroke="midnightblue" points="766.178,-616.286 776.752,-616.945 768.897,-609.836 766.178,-616.286"/>
</g>
<!-- Node7 -->
<g id="node7" class="node"><title>Node7</title>
<g id="a_node7"><a xlink:href="../../db/db5/classview_1_1panes_1_1_view_pane_module.html#abe91f8bb732e99d762bdaba51ceae04b" target="_top" xlink:title="view.panes.ViewPaneModule.toRGB">
<polygon fill="white" stroke="black" points="758,-578.5 758,-597.5 942,-597.5 942,-578.5 758,-578.5"/>
<text text-anchor="middle" x="850" y="-585.5" font-family="Helvetica,sans-Serif" font-size="10.00">view.panes.ViewPaneModule.toRGB</text>
</a>
</g>
</g>
<!-- Node4&#45;&gt;Node7 -->
<g id="edge6" class="edge"><title>Node4&#45;&gt;Node7</title>
<path fill="none" stroke="midnightblue" d="M624.764,-466.612C645.35,-488.55 699.346,-542.457 756,-569 761.354,-571.508 767.033,-573.686 772.842,-575.578"/>
<polygon fill="midnightblue" stroke="midnightblue" points="772.123,-579.015 782.705,-578.499 774.111,-572.303 772.123,-579.015"/>
</g>
<!-- Node8 -->
<g id="node8" class="node"><title>Node8</title>
<g id="a_node8"><a xlink:href="../../d3/d42/classmodel_1_1_model.html#a1a683ba5e58fcb3c8882c8e61df20dc0" target="_top" xlink:title="model.Model.getTurtleManager">
<polygon fill="white" stroke="black" points="768,-540.5 768,-559.5 932,-559.5 932,-540.5 768,-540.5"/>
<text text-anchor="middle" x="850" y="-547.5" font-family="Helvetica,sans-Serif" font-size="10.00">model.Model.getTurtleManager</text>
</a>
</g>
</g>
<!-- Node4&#45;&gt;Node8 -->
<g id="edge7" class="edge"><title>Node4&#45;&gt;Node8</title>
<path fill="none" stroke="midnightblue" d="M630.921,-466.508C655.867,-482.002 708.041,-512.698 756,-530 764.556,-533.087 773.736,-535.771 782.874,-538.083"/>
<polygon fill="midnightblue" stroke="midnightblue" points="782.202,-541.521 792.743,-540.448 783.833,-534.714 782.202,-541.521"/>
</g>
<!-- Node9 -->
<g id="node9" class="node"><title>Node9</title>
<g id="a_node9"><a xlink:href="../../df/d50/classmodel_1_1_turtle_set_manager.html#a9a65c0be3b9c21abaf0ebaa54e5b8484" target="_top" xlink:title="model.TurtleSetManager.get\lActiveTurtles">
<polygon fill="white" stroke="black" points="774,-491 774,-521 926,-521 926,-491 774,-491"/>
<text text-anchor="start" x="782" y="-509" font-family="Helvetica,sans-Serif" font-size="10.00">model.TurtleSetManager.get</text>
<text text-anchor="middle" x="850" y="-498" font-family="Helvetica,sans-Serif" font-size="10.00">ActiveTurtles</text>
</a>
</g>
</g>
<!-- Node4&#45;&gt;Node9 -->
<g id="edge8" class="edge"><title>Node4&#45;&gt;Node9</title>
<path fill="none" stroke="midnightblue" d="M661.201,-466.506C691.322,-472.84 731.774,-481.347 767.42,-488.844"/>
<polygon fill="midnightblue" stroke="midnightblue" points="766.828,-492.296 777.335,-490.929 768.269,-485.446 766.828,-492.296"/>
</g>
<!-- Node10 -->
<g id="node10" class="node"><title>Node10</title>
<g id="a_node10"><a xlink:href="../../df/d50/classmodel_1_1_turtle_set_manager.html#a9e215e93eccbed2ab9ebec6119cfe305" target="_top" xlink:title="model.TurtleSetManager.get\lAllTurtles">
<polygon fill="white" stroke="black" points="774,-442 774,-472 926,-472 926,-442 774,-442"/>
<text text-anchor="start" x="782" y="-460" font-family="Helvetica,sans-Serif" font-size="10.00">model.TurtleSetManager.get</text>
<text text-anchor="middle" x="850" y="-449" font-family="Helvetica,sans-Serif" font-size="10.00">AllTurtles</text>
</a>
</g>
</g>
<!-- Node4&#45;&gt;Node10 -->
<g id="edge9" class="edge"><title>Node4&#45;&gt;Node10</title>
<path fill="none" stroke="midnightblue" d="M719.554,-457C734.224,-457 749.172,-457 763.451,-457"/>
<polygon fill="midnightblue" stroke="midnightblue" points="763.716,-460.5 773.716,-457 763.716,-453.5 763.716,-460.5"/>
</g>
<!-- Node11 -->
<g id="node11" class="node"><title>Node11</title>
<g id="a_node11"><a xlink:href="../../d3/d42/classmodel_1_1_model.html#af73e838aed2c068e8f7d31bfa1cc88d7" target="_top" xlink:title="model.Model.getStamp">
<polygon fill="white" stroke="black" points="785.5,-403.5 785.5,-422.5 914.5,-422.5 914.5,-403.5 785.5,-403.5"/>
<text text-anchor="middle" x="850" y="-410.5" font-family="Helvetica,sans-Serif" font-size="10.00">model.Model.getStamp</text>
</a>
</g>
</g>
<!-- Node4&#45;&gt;Node11 -->
<g id="edge10" class="edge"><title>Node4&#45;&gt;Node11</title>
<path fill="none" stroke="midnightblue" d="M666.558,-447.453C702.433,-440.678 750.75,-431.554 788.647,-424.397"/>
<polygon fill="midnightblue" stroke="midnightblue" points="789.364,-427.824 798.541,-422.529 788.065,-420.945 789.364,-427.824"/>
</g>
<!-- Node12 -->
<g id="node12" class="node"><title>Node12</title>
<g id="a_node12"><a xlink:href="../../db/db5/classview_1_1panes_1_1_view_pane_module.html#a44db6ae832af3ce470baa9406142b8cb" target="_top" xlink:title="view.panes.ViewPaneModule.make\lStamps">
<polygon fill="white" stroke="black" points="759.5,-354 759.5,-384 940.5,-384 940.5,-354 759.5,-354"/>
<text text-anchor="start" x="767.5" y="-372" font-family="Helvetica,sans-Serif" font-size="10.00">view.panes.ViewPaneModule.make</text>
<text text-anchor="middle" x="850" y="-361" font-family="Helvetica,sans-Serif" font-size="10.00">Stamps</text>
</a>
</g>
</g>
<!-- Node4&#45;&gt;Node12 -->
<g id="edge11" class="edge"><title>Node4&#45;&gt;Node12</title>
<path fill="none" stroke="midnightblue" d="M634.626,-447.459C661.087,-434.174 711.317,-409.944 756,-394 762.929,-391.528 770.223,-389.167 777.552,-386.952"/>
<polygon fill="midnightblue" stroke="midnightblue" points="778.926,-390.197 787.538,-384.026 776.957,-383.479 778.926,-390.197"/>
</g>
<!-- Node19 -->
<g id="node19" class="node"><title>Node19</title>
<g id="a_node19"><a xlink:href="../../d3/d42/classmodel_1_1_model.html#a0a457f31350a460e11dc864463e0d8ff" target="_top" xlink:title="model.Model.setStamp">
<polygon fill="white" stroke="black" points="786,-217.5 786,-236.5 914,-236.5 914,-217.5 786,-217.5"/>
<text text-anchor="middle" x="850" y="-224.5" font-family="Helvetica,sans-Serif" font-size="10.00">model.Model.setStamp</text>
</a>
</g>
</g>
<!-- Node4&#45;&gt;Node19 -->
<g id="edge18" class="edge"><title>Node4&#45;&gt;Node19</title>
<path fill="none" stroke="midnightblue" d="M619.419,-447.044C631.728,-412.804 677.268,-299.088 756,-246 762.106,-241.883 768.914,-238.624 775.993,-236.05"/>
<polygon fill="midnightblue" stroke="midnightblue" points="777.3,-239.307 785.773,-232.947 775.183,-232.635 777.3,-239.307"/>
</g>
<!-- Node20 -->
<g id="node20" class="node"><title>Node20</title>
<g id="a_node20"><a xlink:href="../../db/db5/classview_1_1panes_1_1_view_pane_module.html#a7ad9ad27137ffdf0ea96753a22da236b" target="_top" xlink:title="view.panes.ViewPaneModule.erase\lStamps">
<polygon fill="white" stroke="black" points="759.5,-305 759.5,-335 940.5,-335 940.5,-305 759.5,-305"/>
<text text-anchor="start" x="767.5" y="-323" font-family="Helvetica,sans-Serif" font-size="10.00">view.panes.ViewPaneModule.erase</text>
<text text-anchor="middle" x="850" y="-312" font-family="Helvetica,sans-Serif" font-size="10.00">Stamps</text>
</a>
</g>
</g>
<!-- Node4&#45;&gt;Node20 -->
<g id="edge19" class="edge"><title>Node4&#45;&gt;Node20</title>
<path fill="none" stroke="midnightblue" d="M624.842,-447.498C645.592,-425.778 699.907,-372.199 756,-344 759.771,-342.104 763.706,-340.349 767.735,-338.724"/>
<polygon fill="midnightblue" stroke="midnightblue" points="769.127,-341.941 777.274,-335.167 766.681,-335.382 769.127,-341.941"/>
</g>
<!-- Node22 -->
<g id="node22" class="node"><title>Node22</title>
<g id="a_node22"><a xlink:href="../../db/db5/classview_1_1panes_1_1_view_pane_module.html#ab55ce3511929b88a2cd1235eb694868f" target="_top" xlink:title="view.panes.ViewPaneModule.update\lTurtle">
<polygon fill="white" stroke="black" points="756,-256 756,-286 944,-286 944,-256 756,-256"/>
<text text-anchor="start" x="764" y="-274" font-family="Helvetica,sans-Serif" font-size="10.00">view.panes.ViewPaneModule.update</text>
<text text-anchor="middle" x="850" y="-263" font-family="Helvetica,sans-Serif" font-size="10.00">Turtle</text>
</a>
</g>
</g>
<!-- Node4&#45;&gt;Node22 -->
<g id="edge21" class="edge"><title>Node4&#45;&gt;Node22</title>
<path fill="none" stroke="midnightblue" d="M621.511,-447.174C637.955,-418.802 689.669,-336.156 756,-295 758.763,-293.286 761.645,-291.693 764.611,-290.214"/>
<polygon fill="midnightblue" stroke="midnightblue" points="766.048,-293.405 773.729,-286.108 763.174,-287.023 766.048,-293.405"/>
</g>
<!-- Node13 -->
<g id="node13" class="node"><title>Node13</title>
<g id="a_node13"><a xlink:href="../../d7/da6/classview_1_1_turtle_draw.html#a939f4fdbdb66457c9dcee82eb4ae6d9c" target="_top" xlink:title="view.TurtleDraw.drawTurtle">
<polygon fill="white" stroke="black" points="988.5,-418.5 988.5,-437.5 1127.5,-437.5 1127.5,-418.5 988.5,-418.5"/>
<text text-anchor="middle" x="1058" y="-425.5" font-family="Helvetica,sans-Serif" font-size="10.00">view.TurtleDraw.drawTurtle</text>
</a>
</g>
</g>
<!-- Node12&#45;&gt;Node13 -->
<g id="edge12" class="edge"><title>Node12&#45;&gt;Node13</title>
<path fill="none" stroke="midnightblue" d="M911.881,-384.125C922.656,-387.154 933.714,-390.492 944,-394 960.405,-399.595 963.538,-403.575 980,-409 987.624,-411.512 995.768,-413.866 1003.8,-416.003"/>
<polygon fill="midnightblue" stroke="midnightblue" points="1002.94,-419.396 1013.5,-418.497 1004.69,-412.617 1002.94,-419.396"/>
</g>
<!-- Node16 -->
<g id="node16" class="node"><title>Node16</title>
<g id="a_node16"><a xlink:href="../../d7/da6/classview_1_1_turtle_draw.html#a14678068d3fc9d3b6e1067bc372f6030" target="_top" xlink:title="view.TurtleDraw.showTurtle">
<polygon fill="white" stroke="black" points="988,-380.5 988,-399.5 1128,-399.5 1128,-380.5 988,-380.5"/>
<text text-anchor="middle" x="1058" y="-387.5" font-family="Helvetica,sans-Serif" font-size="10.00">view.TurtleDraw.showTurtle</text>
</a>
</g>
</g>
<!-- Node12&#45;&gt;Node16 -->
<g id="edge15" class="edge"><title>Node12&#45;&gt;Node16</title>
<path fill="none" stroke="midnightblue" d="M940.755,-378.15C953.122,-379.411 965.748,-380.698 977.904,-381.937"/>
<polygon fill="midnightblue" stroke="midnightblue" points="977.685,-385.433 987.989,-382.965 978.395,-378.469 977.685,-385.433"/>
</g>
<!-- Node17 -->
<g id="node17" class="node"><title>Node17</title>
<g id="a_node17"><a xlink:href="../../d7/da6/classview_1_1_turtle_draw.html#a8c2cab38eb294b26aea1ae17595ba2a6" target="_top" xlink:title="view.TurtleDraw.moveTurtle">
<polygon fill="white" stroke="black" points="986.5,-342.5 986.5,-361.5 1129.5,-361.5 1129.5,-342.5 986.5,-342.5"/>
<text text-anchor="middle" x="1058" y="-349.5" font-family="Helvetica,sans-Serif" font-size="10.00">view.TurtleDraw.moveTurtle</text>
</a>
</g>
</g>
<!-- Node12&#45;&gt;Node17 -->
<g id="edge16" class="edge"><title>Node12&#45;&gt;Node17</title>
<path fill="none" stroke="midnightblue" d="M940.755,-361.593C952.579,-360.617 964.64,-359.622 976.301,-358.66"/>
<polygon fill="midnightblue" stroke="midnightblue" points="976.75,-362.135 986.428,-357.824 976.174,-355.158 976.75,-362.135"/>
</g>
<!-- Node18 -->
<g id="node18" class="node"><title>Node18</title>
<g id="a_node18"><a xlink:href="../../d7/da6/classview_1_1_turtle_draw.html#a5004a16526a67f090d7da45474b5136e" target="_top" xlink:title="view.TurtleDraw.setAngle">
<polygon fill="white" stroke="black" points="991.5,-456.5 991.5,-475.5 1124.5,-475.5 1124.5,-456.5 991.5,-456.5"/>
<text text-anchor="middle" x="1058" y="-463.5" font-family="Helvetica,sans-Serif" font-size="10.00">view.TurtleDraw.setAngle</text>
</a>
</g>
</g>
<!-- Node12&#45;&gt;Node18 -->
<g id="edge17" class="edge"><title>Node12&#45;&gt;Node18</title>
<path fill="none" stroke="midnightblue" d="M926.26,-384.08C932.534,-386.847 938.551,-390.123 944,-394 967.203,-410.508 956.628,-430.733 980,-447 982.855,-448.987 985.897,-450.767 989.061,-452.362"/>
<polygon fill="midnightblue" stroke="midnightblue" points="987.681,-455.578 998.245,-456.382 990.487,-449.166 987.681,-455.578"/>
</g>
<!-- Node14 -->
<g id="node14" class="node"><title>Node14</title>
<g id="a_node14"><a xlink:href="../../d6/d34/classmodel_1_1_turtle.html#a942dbeb1d7e2bc19b6870538c2c3a7d2" target="_top" xlink:title="model.Turtle.getShape">
<polygon fill="white" stroke="black" points="1196.5,-396.5 1196.5,-415.5 1321.5,-415.5 1321.5,-396.5 1196.5,-396.5"/>
<text text-anchor="middle" x="1259" y="-403.5" font-family="Helvetica,sans-Serif" font-size="10.00">model.Turtle.getShape</text>
</a>
</g>
</g>
<!-- Node13&#45;&gt;Node14 -->
<g id="edge13" class="edge"><title>Node13&#45;&gt;Node14</title>
<path fill="none" stroke="midnightblue" d="M1127.76,-420.398C1146.62,-418.314 1167.11,-416.048 1186.13,-413.945"/>
<polygon fill="midnightblue" stroke="midnightblue" points="1186.67,-417.407 1196.23,-412.829 1185.91,-410.449 1186.67,-417.407"/>
</g>
<!-- Node15 -->
<g id="node15" class="node"><title>Node15</title>
<g id="a_node15"><a xlink:href="../../d3/db7/classview_1_1controllers_1_1_image_palette.html#a8a6620714bc12d5a00b97e99299a7040" target="_top" xlink:title="view.controllers.ImagePalette.get\lImage">
<polygon fill="white" stroke="black" points="1172,-435 1172,-465 1346,-465 1346,-435 1172,-435"/>
<text text-anchor="start" x="1180" y="-453" font-family="Helvetica,sans-Serif" font-size="10.00">view.controllers.ImagePalette.get</text>
<text text-anchor="middle" x="1259" y="-442" font-family="Helvetica,sans-Serif" font-size="10.00">Image</text>
</a>
</g>
</g>
<!-- Node13&#45;&gt;Node15 -->
<g id="edge14" class="edge"><title>Node13&#45;&gt;Node15</title>
<path fill="none" stroke="midnightblue" d="M1127.76,-435.602C1138.71,-436.812 1150.21,-438.084 1161.65,-439.349"/>
<polygon fill="midnightblue" stroke="midnightblue" points="1161.36,-442.837 1171.68,-440.457 1162.13,-435.879 1161.36,-442.837"/>
</g>
<!-- Node21 -->
<g id="node21" class="node"><title>Node21</title>
<g id="a_node21"><a xlink:href="../../d7/da6/classview_1_1_turtle_draw.html#acb97dedda080cb5ed17031d2b31adc2c" target="_top" xlink:title="view.TurtleDraw.hideTurtle">
<polygon fill="white" stroke="black" points="989.5,-304.5 989.5,-323.5 1126.5,-323.5 1126.5,-304.5 989.5,-304.5"/>
<text text-anchor="middle" x="1058" y="-311.5" font-family="Helvetica,sans-Serif" font-size="10.00">view.TurtleDraw.hideTurtle</text>
</a>
</g>
</g>
<!-- Node20&#45;&gt;Node21 -->
<g id="edge20" class="edge"><title>Node20&#45;&gt;Node21</title>
<path fill="none" stroke="midnightblue" d="M940.755,-317.386C953.461,-317.016 966.44,-316.638 978.902,-316.275"/>
<polygon fill="midnightblue" stroke="midnightblue" points="979.338,-319.764 989.231,-315.974 979.134,-312.767 979.338,-319.764"/>
</g>
<!-- Node22&#45;&gt;Node13 -->
<g id="edge23" class="edge"><title>Node22&#45;&gt;Node13</title>
<path fill="none" stroke="midnightblue" d="M931.98,-286.042C936.313,-288.594 940.37,-291.558 944,-295 982.559,-331.556 941.247,-372.65 980,-409 981.673,-410.569 983.454,-412.014 985.322,-413.345"/>
<polygon fill="midnightblue" stroke="midnightblue" points="983.616,-416.402 994.005,-418.478 987.178,-410.377 983.616,-416.402"/>
</g>
<!-- Node22&#45;&gt;Node16 -->
<g id="edge24" class="edge"><title>Node22&#45;&gt;Node16</title>
<path fill="none" stroke="midnightblue" d="M930.555,-286.163C935.348,-288.678 939.886,-291.601 944,-295 972.814,-318.805 951.06,-347.348 980,-371 982.052,-372.677 984.231,-374.21 986.507,-375.61"/>
<polygon fill="midnightblue" stroke="midnightblue" points="985.205,-378.878 995.693,-380.378 988.43,-372.665 985.205,-378.878"/>
</g>
<!-- Node22&#45;&gt;Node17 -->
<g id="edge37" class="edge"><title>Node22&#45;&gt;Node17</title>
<path fill="none" stroke="midnightblue" d="M925.144,-286.006C931.721,-288.555 938.11,-291.529 944,-295 964.043,-306.811 959.894,-321.296 980,-333 983.853,-335.243 987.962,-337.222 992.202,-338.969"/>
<polygon fill="midnightblue" stroke="midnightblue" points="991.05,-342.274 1001.64,-342.433 993.461,-335.702 991.05,-342.274"/>
</g>
<!-- Node22&#45;&gt;Node18 -->
<g id="edge35" class="edge"><title>Node22&#45;&gt;Node18</title>
<path fill="none" stroke="midnightblue" d="M933.128,-286.267C937.066,-288.774 940.732,-291.666 944,-295 992.597,-344.579 931.14,-397.68 980,-447 981.417,-448.431 982.924,-449.76 984.505,-450.994"/>
<polygon fill="midnightblue" stroke="midnightblue" points="982.655,-453.965 992.963,-456.412 986.43,-448.071 982.655,-453.965"/>
</g>
<!-- Node22&#45;&gt;Node21 -->
<g id="edge25" class="edge"><title>Node22&#45;&gt;Node21</title>
<path fill="none" stroke="midnightblue" d="M923.049,-286.039C948.734,-291.401 977.249,-297.353 1001.35,-302.383"/>
<polygon fill="midnightblue" stroke="midnightblue" points="1000.88,-305.86 1011.38,-304.478 1002.31,-299.008 1000.88,-305.86"/>
</g>
<!-- Node23 -->
<g id="node23" class="node"><title>Node23</title>
<g id="a_node23"><a xlink:href="../../d6/d34/classmodel_1_1_turtle.html#ae79a1eae7eed55d121c3b85299ae14ba" target="_top" xlink:title="model.Turtle.getID">
<polygon fill="white" stroke="black" points="1006,-0.5 1006,-19.5 1110,-19.5 1110,-0.5 1006,-0.5"/>
<text text-anchor="middle" x="1058" y="-7.5" font-family="Helvetica,sans-Serif" font-size="10.00">model.Turtle.getID</text>
</a>
</g>
</g>
<!-- Node22&#45;&gt;Node23 -->
<g id="edge22" class="edge"><title>Node22&#45;&gt;Node23</title>
<path fill="none" stroke="midnightblue" d="M932.173,-255.911C936.518,-253.117 940.519,-249.84 944,-246 1009.65,-173.562 913.602,-100.755 980,-29 984.48,-24.1585 989.98,-20.4637 995.961,-17.6559"/>
<polygon fill="midnightblue" stroke="midnightblue" points="997.59,-20.78 1005.68,-13.9365 995.088,-14.2425 997.59,-20.78"/>
</g>
<!-- Node24 -->
<g id="node24" class="node"><title>Node24</title>
<g id="a_node24"><a xlink:href="../../d6/d34/classmodel_1_1_turtle.html#a279f2bdb3fa955acdd52b7824ec3cd04" target="_top" xlink:title="model.Turtle.getPenStatus">
<polygon fill="white" stroke="black" points="986.5,-266.5 986.5,-285.5 1129.5,-285.5 1129.5,-266.5 986.5,-266.5"/>
<text text-anchor="middle" x="1058" y="-273.5" font-family="Helvetica,sans-Serif" font-size="10.00">model.Turtle.getPenStatus</text>
</a>
</g>
</g>
<!-- Node22&#45;&gt;Node24 -->
<g id="edge26" class="edge"><title>Node22&#45;&gt;Node24</title>
<path fill="none" stroke="midnightblue" d="M944.056,-273.259C954.802,-273.519 965.695,-273.784 976.259,-274.04"/>
<polygon fill="midnightblue" stroke="midnightblue" points="976.189,-277.54 986.271,-274.283 976.359,-270.542 976.189,-277.54"/>
</g>
<!-- Node26 -->
<g id="node26" class="node"><title>Node26</title>
<g id="a_node26"><a xlink:href="../../d7/da6/classview_1_1_turtle_draw.html#a1325ca376115619f15f5014eb4c5ad2a" target="_top" xlink:title="view.TurtleDraw.drawLine">
<polygon fill="white" stroke="black" points="991.5,-228.5 991.5,-247.5 1124.5,-247.5 1124.5,-228.5 991.5,-228.5"/>
<text text-anchor="middle" x="1058" y="-235.5" font-family="Helvetica,sans-Serif" font-size="10.00">view.TurtleDraw.drawLine</text>
</a>
</g>
</g>
<!-- Node22&#45;&gt;Node26 -->
<g id="edge28" class="edge"><title>Node22&#45;&gt;Node26</title>
<path fill="none" stroke="midnightblue" d="M944.056,-256.093C958.642,-253.756 973.496,-251.377 987.434,-249.144"/>
<polygon fill="midnightblue" stroke="midnightblue" points="988.084,-252.585 997.404,-247.547 986.977,-245.673 988.084,-252.585"/>
</g>
<!-- Node27 -->
<g id="node27" class="node"><title>Node27</title>
<g id="a_node27"><a xlink:href="../../d6/d34/classmodel_1_1_turtle.html#a832234461564763f8330181b3c1163ff" target="_top" xlink:title="model.Turtle.getPrevLocation">
<polygon fill="white" stroke="black" points="980.5,-190.5 980.5,-209.5 1135.5,-209.5 1135.5,-190.5 980.5,-190.5"/>
<text text-anchor="middle" x="1058" y="-197.5" font-family="Helvetica,sans-Serif" font-size="10.00">model.Turtle.getPrevLocation</text>
</a>
</g>
</g>
<!-- Node22&#45;&gt;Node27 -->
<g id="edge29" class="edge"><title>Node22&#45;&gt;Node27</title>
<path fill="none" stroke="midnightblue" d="M919.156,-255.925C927.705,-253.096 936.183,-249.805 944,-246 961.982,-237.246 961.928,-227.568 980,-219 985.054,-216.604 990.444,-214.49 995.934,-212.628"/>
<polygon fill="midnightblue" stroke="midnightblue" points="997.362,-215.85 1005.88,-209.545 995.288,-209.164 997.362,-215.85"/>
</g>
<!-- Node28 -->
<g id="node28" class="node"><title>Node28</title>
<g id="a_node28"><a xlink:href="../../d6/d34/classmodel_1_1_turtle.html#a2470b9b4ef48a261324047de8ebdc242" target="_top" xlink:title="model.Turtle.getNewLocation">
<polygon fill="white" stroke="black" points="980.5,-152.5 980.5,-171.5 1135.5,-171.5 1135.5,-152.5 980.5,-152.5"/>
<text text-anchor="middle" x="1058" y="-159.5" font-family="Helvetica,sans-Serif" font-size="10.00">model.Turtle.getNewLocation</text>
</a>
</g>
</g>
<!-- Node22&#45;&gt;Node28 -->
<g id="edge30" class="edge"><title>Node22&#45;&gt;Node28</title>
<path fill="none" stroke="midnightblue" d="M928.036,-255.783C933.721,-253.043 939.128,-249.811 944,-246 970.011,-225.653 953.78,-201.076 980,-181 982.357,-179.195 984.864,-177.559 987.478,-176.077"/>
<polygon fill="midnightblue" stroke="midnightblue" points="989.24,-179.113 996.717,-171.607 986.191,-172.812 989.24,-179.113"/>
</g>
<!-- Node29 -->
<g id="node29" class="node"><title>Node29</title>
<g id="a_node29"><a xlink:href="../../d6/d34/classmodel_1_1_turtle.html#a19c059b1cbfbd4e8f046ec2403de3fb9" target="_top" xlink:title="model.Turtle.getPenDash">
<polygon fill="white" stroke="black" points="989.5,-114.5 989.5,-133.5 1126.5,-133.5 1126.5,-114.5 989.5,-114.5"/>
<text text-anchor="middle" x="1058" y="-121.5" font-family="Helvetica,sans-Serif" font-size="10.00">model.Turtle.getPenDash</text>
</a>
</g>
</g>
<!-- Node22&#45;&gt;Node29 -->
<g id="edge31" class="edge"><title>Node22&#45;&gt;Node29</title>
<path fill="none" stroke="midnightblue" d="M930.119,-255.934C935.136,-253.151 939.835,-249.869 944,-246 979.529,-212.995 944.132,-175.635 980,-143 981.696,-141.457 983.498,-140.034 985.384,-138.722"/>
<polygon fill="midnightblue" stroke="midnightblue" points="987.231,-141.697 994.128,-133.655 983.721,-135.64 987.231,-141.697"/>
</g>
<!-- Node31 -->
<g id="node31" class="node"><title>Node31</title>
<g id="a_node31"><a xlink:href="../../d6/d34/classmodel_1_1_turtle.html#a193c156784f783064ae533b619b6be6e" target="_top" xlink:title="model.Turtle.getPenColor">
<polygon fill="white" stroke="black" points="989.5,-76.5 989.5,-95.5 1126.5,-95.5 1126.5,-76.5 989.5,-76.5"/>
<text text-anchor="middle" x="1058" y="-83.5" font-family="Helvetica,sans-Serif" font-size="10.00">model.Turtle.getPenColor</text>
</a>
</g>
</g>
<!-- Node22&#45;&gt;Node31 -->
<g id="edge33" class="edge"><title>Node22&#45;&gt;Node31</title>
<path fill="none" stroke="midnightblue" d="M931.37,-255.818C935.968,-253.053 940.241,-249.807 944,-246 989.444,-199.979 934.083,-150.549 980,-105 981.43,-103.582 982.947,-102.264 984.538,-101.039"/>
<polygon fill="midnightblue" stroke="midnightblue" points="986.458,-103.966 993.035,-95.6596 982.713,-98.0517 986.458,-103.966"/>
</g>
<!-- Node33 -->
<g id="node33" class="node"><title>Node33</title>
<g id="a_node33"><a xlink:href="../../d6/d34/classmodel_1_1_turtle.html#a1c5d07962ede5fbfacc59413274d4300" target="_top" xlink:title="model.Turtle.getHeading">
<polygon fill="white" stroke="black" points="991,-38.5 991,-57.5 1125,-57.5 1125,-38.5 991,-38.5"/>
<text text-anchor="middle" x="1058" y="-45.5" font-family="Helvetica,sans-Serif" font-size="10.00">model.Turtle.getHeading</text>
</a>
</g>
</g>
<!-- Node22&#45;&gt;Node33 -->
<g id="edge36" class="edge"><title>Node22&#45;&gt;Node33</title>
<path fill="none" stroke="midnightblue" d="M932.023,-255.772C936.404,-253.012 940.455,-249.78 944,-246 999.511,-186.809 923.879,-125.614 980,-67 981.244,-65.7009 982.561,-64.4849 983.941,-63.3469"/>
<polygon fill="midnightblue" stroke="midnightblue" points="986.094,-66.1175 992.458,-57.6467 982.201,-60.3003 986.094,-66.1175"/>
</g>
<!-- Node25 -->
<g id="node25" class="node"><title>Node25</title>
<g id="a_node25"><a xlink:href="../../de/ded/classmodel_1_1_pen.html#afad4fb3e51847cacab72c036ddaa108f" target="_top" xlink:title="model.Pen.getStatus">
<polygon fill="white" stroke="black" points="1200,-266.5 1200,-285.5 1318,-285.5 1318,-266.5 1200,-266.5"/>
<text text-anchor="middle" x="1259" y="-273.5" font-family="Helvetica,sans-Serif" font-size="10.00">model.Pen.getStatus</text>
</a>
</g>
</g>
<!-- Node24&#45;&gt;Node25 -->
<g id="edge27" class="edge"><title>Node24&#45;&gt;Node25</title>
<path fill="none" stroke="midnightblue" d="M1129.72,-276C1149.23,-276 1170.35,-276 1189.72,-276"/>
<polygon fill="midnightblue" stroke="midnightblue" points="1189.97,-279.5 1199.97,-276 1189.97,-272.5 1189.97,-279.5"/>
</g>
<!-- Node30 -->
<g id="node30" class="node"><title>Node30</title>
<g id="a_node30"><a xlink:href="../../de/ded/classmodel_1_1_pen.html#a6999f4af56377415621f193ef8600e27" target="_top" xlink:title="model.Pen.getDash">
<polygon fill="white" stroke="black" points="1203.5,-114.5 1203.5,-133.5 1314.5,-133.5 1314.5,-114.5 1203.5,-114.5"/>
<text text-anchor="middle" x="1259" y="-121.5" font-family="Helvetica,sans-Serif" font-size="10.00">model.Pen.getDash</text>
</a>
</g>
</g>
<!-- Node29&#45;&gt;Node30 -->
<g id="edge32" class="edge"><title>Node29&#45;&gt;Node30</title>
<path fill="none" stroke="midnightblue" d="M1126.65,-124C1148.15,-124 1171.86,-124 1193.15,-124"/>
<polygon fill="midnightblue" stroke="midnightblue" points="1193.39,-127.5 1203.39,-124 1193.39,-120.5 1193.39,-127.5"/>
</g>
<!-- Node32 -->
<g id="node32" class="node"><title>Node32</title>
<g id="a_node32"><a xlink:href="../../de/ded/classmodel_1_1_pen.html#a704af31474b10d17caf40773b7971826" target="_top" xlink:title="model.Pen.getPenColor">
<polygon fill="white" stroke="black" points="1194.5,-76.5 1194.5,-95.5 1323.5,-95.5 1323.5,-76.5 1194.5,-76.5"/>
<text text-anchor="middle" x="1259" y="-83.5" font-family="Helvetica,sans-Serif" font-size="10.00">model.Pen.getPenColor</text>
</a>
</g>
</g>
<!-- Node31&#45;&gt;Node32 -->
<g id="edge34" class="edge"><title>Node31&#45;&gt;Node32</title>
<path fill="none" stroke="midnightblue" d="M1126.65,-86C1145.18,-86 1165.36,-86 1184.21,-86"/>
<polygon fill="midnightblue" stroke="midnightblue" points="1184.23,-89.5001 1194.23,-86 1184.23,-82.5001 1184.23,-89.5001"/>
</g>
</g>
</svg>
        <g id="navigator" transform="translate(0 0)" fill="#404254">
                <rect fill="#f2f5e9" fill-opacity="0.5" stroke="#606060" stroke-width=".5" x="0" y="0" width="60" height="60"/>
                <use id="zoomplus" xlink:href="#zoomPlus" x="17" y="9" onmousedown="handleZoom(evt,'in')"/>
                <use id="zoomminus" xlink:href="#zoomMin" x="42" y="9" onmousedown="handleZoom(evt,'out')"/>
                <use id="reset" xlink:href="#resetDef" x="30" y="36" onmousedown="handleReset()"/>
                <g id="arrowUp" xlink:href="#dirArrow" transform="translate(30 24)" onmousedown="handlePan(0,-1)">
                  <use xlink:href="#rim" fill="#404040">
                        <set attributeName="fill" to="#808080" begin="arrowUp.mouseover" end="arrowUp.mouseout"/>
                  </use>
                  <path fill="none" stroke="white" stroke-width="1.5" d="M0,-3.0v7 M-2.5,-0.5L0,-3.0L2.5,-0.5"/>
                </g>
                <g id="arrowRight" xlink:href="#dirArrow" transform="rotate(90) translate(36 -43)" onmousedown="handlePan(1,0)">
                  <use xlink:href="#rim" fill="#404040">
                        <set attributeName="fill" to="#808080" begin="arrowRight.mouseover" end="arrowRight.mouseout"/>
                  </use>
                  <path fill="none" stroke="white" stroke-width="1.5" d="M0,-3.0v7 M-2.5,-0.5L0,-3.0L2.5,-0.5"/>
                </g>
                <g id="arrowDown" xlink:href="#dirArrow" transform="rotate(180) translate(-30 -48)" onmousedown="handlePan(0,1)">
                  <use xlink:href="#rim" fill="#404040">
                        <set attributeName="fill" to="#808080" begin="arrowDown.mouseover" end="arrowDown.mouseout"/>
                  </use>
                  <path fill="none" stroke="white" stroke-width="1.5" d="M0,-3.0v7 M-2.5,-0.5L0,-3.0L2.5,-0.5"/>
                </g>
                <g id="arrowLeft" xlink:href="#dirArrow" transform="rotate(270) translate(-36 17)" onmousedown="handlePan(-1,0)">
                  <use xlink:href="#rim" fill="#404040">
                        <set attributeName="fill" to="#808080" begin="arrowLeft.mouseover" end="arrowLeft.mouseout"/>
                  </use>
                  <path fill="none" stroke="white" stroke-width="1.5" d="M0,-3.0v7 M-2.5,-0.5L0,-3.0L2.5,-0.5"/>
                </g>
        </g>
        <svg viewBox="0 0 15 15" width="100%" height="30px" preserveAspectRatio="xMaxYMin meet">
         <g id="arrow_out" transform="scale(0.3 0.3)">
          <a xlink:href="classcontroller_1_1_controller_a81fea06b52aed0a26625c5b30b490afb_cgraph_org.svg" target="_base">
           <rect id="button" ry="5" rx="5" y="6" x="6" height="38" width="38"
                fill="#f2f5e9" fill-opacity="0.5" stroke="#606060" stroke-width="1.0"/>
           <path id="arrow"
             d="M 11.500037,31.436501 C 11.940474,20.09759 22.043105,11.32322 32.158766,21.979434 L 37.068811,17.246167 C 37.068811,17.246167 37.088388,32 37.088388,32 L 22.160133,31.978069 C 22.160133,31.978069 26.997745,27.140456 26.997745,27.140456 C 18.528582,18.264221 13.291696,25.230495 11.500037,31.436501 z"
             style="fill:#404040;"/>
          </a>
         </g>
        </svg>
</svg>
