<?xml version="1.0" encoding="UTF-8" standalone="no"?>
<!DOCTYPE svg PUBLIC "-//W3C//DTD SVG 1.1//EN"
 "http://www.w3.org/Graphics/SVG/1.1/DTD/svg11.dtd">
<!-- Generated by graphviz version 2.36.0 (20140111.2315)
 -->
<!-- Title: controller.Controller.getInput Pages: 1 -->
<!--zoomable 703 -->
<svg id="main" version="1.1" xmlns="http://www.w3.org/2000/svg" xmlns:xlink="http://www.w3.org/1999/xlink" xml:space="preserve" onload="init(evt)">
<style type="text/css"><![CDATA[
.edge:hover path { stroke: red; }
.edge:hover polygon { stroke: red; fill: red; }
]]></style>
<script type="text/javascript"><![CDATA[
var edges = document.getElementsByTagName('g');
if (edges && edges.length) {
  for (var i=0;i<edges.length;i++) {
    if (edges[i].id.substr(0,4)=='edge') {
      edges[i].setAttribute('class','edge');
    }
  }
}
]]></script>
        <defs>
                <circle id="rim" cx="0" cy="0" r="7"/>
                <circle id="rim2" cx="0" cy="0" r="3.5"/>
                <g id="zoomPlus">
                        <use xlink:href="#rim" fill="#404040">
                                <set attributeName="fill" to="#808080" begin="zoomplus.mouseover" end="zoomplus.mouseout"/>
                        </use>
                        <path d="M-4,0h8M0,-4v8" fill="none" stroke="white" stroke-width="1.5" pointer-events="none"/>
                </g>
                <g id="zoomMin">
                        <use xlink:href="#rim" fill="#404040">
                                <set attributeName="fill" to="#808080" begin="zoomminus.mouseover" end="zoomminus.mouseout"/>
                        </use>
                        <path d="M-4,0h8" fill="none" stroke="white" stroke-width="1.5" pointer-events="none"/>
                </g>
                <g id="dirArrow">
                        <path fill="none" stroke="white" stroke-width="1.5" d="M0,-3.0v7 M-2.5,-0.5L0,-3.0L2.5,-0.5"/>
                </g>
               <g id="resetDef">
                       <use xlink:href="#rim2" fill="#404040">
                               <set attributeName="fill" to="#808080" begin="reset.mouseover" end="reset.mouseout"/>
                       </use>
               </g>
        </defs>

<script type="text/javascript">
var viewWidth = 1724;
var viewHeight = 703;
var sectionId = 'dynsection-1';
</script>
<script xlink:href="../../svgpan.js"/>
<svg id="graph" class="graph">
<g id="viewport">
<title>controller.Controller.getInput</title>
<polygon fill="white" stroke="none" points="-4,4 -4,-699 1720,-699 1720,4 -4,4"/>
<!-- Node1 -->
<g id="node1" class="node"><title>Node1</title>
<polygon fill="#bfbfbf" stroke="black" points="0,-424 0,-454 128,-454 128,-424 0,-424"/>
<text text-anchor="start" x="8" y="-442" font-family="Helvetica,sans-Serif" font-size="10.00">controller.Controller.get</text>
<text text-anchor="middle" x="64" y="-431" font-family="Helvetica,sans-Serif" font-size="10.00">Input</text>
</g>
<!-- Node2 -->
<g id="node2" class="node"><title>Node2</title>
<g id="a_node2"><a xlink:href="../../d6/d95/classparser_1_1_parser.html#aacbac8270cf4817504ddb495ba67863f" target="_top" xlink:title="parser.Parser.parseInput">
<polygon fill="white" stroke="black" points="191.5,-514.5 191.5,-533.5 324.5,-533.5 324.5,-514.5 191.5,-514.5"/>
<text text-anchor="middle" x="258" y="-521.5" font-family="Helvetica,sans-Serif" font-size="10.00">parser.Parser.parseInput</text>
</a>
</g>
</g>
<!-- Node1&#45;&gt;Node2 -->
<g id="edge1" class="edge"><title>Node1&#45;&gt;Node2</title>
<path fill="none" stroke="midnightblue" d="M93.6986,-454.062C113.289,-464.13 139.951,-477.42 164,-488 182.414,-496.101 203.271,-504.265 220.561,-510.765"/>
<polygon fill="midnightblue" stroke="midnightblue" points="219.69,-514.176 230.283,-514.387 222.134,-507.616 219.69,-514.176"/>
</g>
<!-- Node9 -->
<g id="node9" class="node"><title>Node9</title>
<g id="a_node9"><a xlink:href="../../d9/df7/classcontroller_1_1_controller.html#a81fea06b52aed0a26625c5b30b490afb" target="_top" xlink:title="controller.Controller.run\lCommand">
<polygon fill="white" stroke="black" points="194,-449 194,-479 322,-479 322,-449 194,-449"/>
<text text-anchor="start" x="202" y="-467" font-family="Helvetica,sans-Serif" font-size="10.00">controller.Controller.run</text>
<text text-anchor="middle" x="258" y="-456" font-family="Helvetica,sans-Serif" font-size="10.00">Command</text>
</a>
</g>
</g>
<!-- Node1&#45;&gt;Node9 -->
<g id="edge9" class="edge"><title>Node1&#45;&gt;Node9</title>
<path fill="none" stroke="midnightblue" d="M128.134,-447.221C145.932,-449.538 165.445,-452.079 183.781,-454.466"/>
<polygon fill="midnightblue" stroke="midnightblue" points="183.46,-457.954 193.828,-455.774 184.364,-451.013 183.46,-457.954"/>
</g>
<!-- Node42 -->
<g id="node42" class="node"><title>Node42</title>
<g id="a_node42"><a xlink:href="../../de/d95/classcommands_1_1_error_command.html#aa267f7d9885da0e6f1a1fe71d42f5394" target="_top" xlink:title="commands.ErrorCommand.show\lError">
<polygon fill="white" stroke="black" points="171,-400 171,-430 345,-430 345,-400 171,-400"/>
<text text-anchor="start" x="179" y="-418" font-family="Helvetica,sans-Serif" font-size="10.00">commands.ErrorCommand.show</text>
<text text-anchor="middle" x="258" y="-407" font-family="Helvetica,sans-Serif" font-size="10.00">Error</text>
</a>
</g>
</g>
<!-- Node1&#45;&gt;Node42 -->
<g id="edge47" class="edge"><title>Node1&#45;&gt;Node42</title>
<path fill="none" stroke="midnightblue" d="M128.134,-431.108C138.594,-429.801 149.646,-428.419 160.704,-427.037"/>
<polygon fill="midnightblue" stroke="midnightblue" points="161.355,-430.483 170.843,-425.77 160.486,-423.537 161.355,-430.483"/>
</g>
<!-- Node43 -->
<g id="node43" class="node"><title>Node43</title>
<g id="a_node43"><a xlink:href="../../d3/dc7/classview_1_1controllers_1_1_pane_controller.html#a5d1d9a5c7a1635c2c6c26e21862f6d59" target="_top" xlink:title="view.controllers.PaneController.show\lError">
<polygon fill="white" stroke="black" points="164,-351 164,-381 352,-381 352,-351 164,-351"/>
<text text-anchor="start" x="172" y="-369" font-family="Helvetica,sans-Serif" font-size="10.00">view.controllers.PaneController.show</text>
<text text-anchor="middle" x="258" y="-358" font-family="Helvetica,sans-Serif" font-size="10.00">Error</text>
</a>
</g>
</g>
<!-- Node1&#45;&gt;Node43 -->
<g id="edge48" class="edge"><title>Node1&#45;&gt;Node43</title>
<path fill="none" stroke="midnightblue" d="M91.6418,-423.926C111.197,-413.334 138.656,-399.426 164,-390 169.744,-387.864 175.755,-385.846 181.838,-383.957"/>
<polygon fill="midnightblue" stroke="midnightblue" points="182.847,-387.309 191.429,-381.097 180.846,-380.601 182.847,-387.309"/>
</g>
<!-- Node3 -->
<g id="node3" class="node"><title>Node3</title>
<g id="a_node3"><a xlink:href="../../d6/d95/classparser_1_1_parser.html#ad42a143192068d40cf6dbdf26feaa762" target="_top" xlink:title="parser.Parser.throwError">
<polygon fill="white" stroke="black" points="421.5,-560.5 421.5,-579.5 552.5,-579.5 552.5,-560.5 421.5,-560.5"/>
<text text-anchor="middle" x="487" y="-567.5" font-family="Helvetica,sans-Serif" font-size="10.00">parser.Parser.throwError</text>
</a>
</g>
</g>
<!-- Node2&#45;&gt;Node3 -->
<g id="edge2" class="edge"><title>Node2&#45;&gt;Node3</title>
<path fill="none" stroke="midnightblue" d="M303.742,-533.535C328.549,-538.778 359.963,-545.348 388,-551 400.333,-553.486 413.552,-556.09 426.162,-558.545"/>
<polygon fill="midnightblue" stroke="midnightblue" points="425.633,-562.008 436.117,-560.477 426.967,-555.136 425.633,-562.008"/>
</g>
<!-- Node4 -->
<g id="node4" class="node"><title>Node4</title>
<g id="a_node4"><a xlink:href="../../d6/d95/classparser_1_1_parser.html#a62065d5ce26384c5dc62d3bb3242cd6e" target="_top" xlink:title="parser.Parser.getCommand">
<polygon fill="white" stroke="black" points="413,-522.5 413,-541.5 561,-541.5 561,-522.5 413,-522.5"/>
<text text-anchor="middle" x="487" y="-529.5" font-family="Helvetica,sans-Serif" font-size="10.00">parser.Parser.getCommand</text>
</a>
</g>
</g>
<!-- Node2&#45;&gt;Node4 -->
<g id="edge3" class="edge"><title>Node2&#45;&gt;Node4</title>
<path fill="none" stroke="midnightblue" d="M324.658,-526.314C349.049,-527.174 377.047,-528.16 402.801,-529.068"/>
<polygon fill="midnightblue" stroke="midnightblue" points="402.807,-532.57 412.924,-529.425 403.053,-525.574 402.807,-532.57"/>
</g>
<!-- Node8 -->
<g id="node8" class="node"><title>Node8</title>
<g id="a_node8"><a xlink:href="../../dd/dd6/classcommands_1_1_command.html#a344968a97c674aa32a5da584142ce491" target="_top" xlink:title="commands.Command.getClassName">
<polygon fill="white" stroke="black" points="388.5,-484.5 388.5,-503.5 585.5,-503.5 585.5,-484.5 388.5,-484.5"/>
<text text-anchor="middle" x="487" y="-491.5" font-family="Helvetica,sans-Serif" font-size="10.00">commands.Command.getClassName</text>
</a>
</g>
</g>
<!-- Node2&#45;&gt;Node8 -->
<g id="edge8" class="edge"><title>Node2&#45;&gt;Node8</title>
<path fill="none" stroke="midnightblue" d="M324.658,-515.323C349.28,-512.069 377.579,-508.329 403.532,-504.899"/>
<polygon fill="midnightblue" stroke="midnightblue" points="404.275,-508.331 413.73,-503.551 403.357,-501.392 404.275,-508.331"/>
</g>
<!-- Node5 -->
<g id="node5" class="node"><title>Node5</title>
<g id="a_node5"><a xlink:href="../../d6/d95/classparser_1_1_parser.html#a5746ee23ade69654bd86c83981eb1e25" target="_top" xlink:title="parser.Parser.makeListCommand">
<polygon fill="white" stroke="black" points="645,-560.5 645,-579.5 821,-579.5 821,-560.5 645,-560.5"/>
<text text-anchor="middle" x="733" y="-567.5" font-family="Helvetica,sans-Serif" font-size="10.00">parser.Parser.makeListCommand</text>
</a>
</g>
</g>
<!-- Node4&#45;&gt;Node5 -->
<g id="edge4" class="edge"><title>Node4&#45;&gt;Node5</title>
<path fill="none" stroke="midnightblue" d="M561.208,-537.156C603.625,-542.837 655.464,-551.256 690.829,-558.381"/>
<polygon fill="midnightblue" stroke="midnightblue" points="690.292,-561.844 700.795,-560.449 691.715,-554.99 690.292,-561.844"/>
</g>
<!-- Node6 -->
<g id="node6" class="node"><title>Node6</title>
<g id="a_node6"><a xlink:href="../../dd/dd6/classcommands_1_1_command.html#a2166e30ed210d3219b05e104e1aba9f6" target="_top" xlink:title="commands.Command.getNumParameters">
<polygon fill="white" stroke="black" points="622.5,-522.5 622.5,-541.5 843.5,-541.5 843.5,-522.5 622.5,-522.5"/>
<text text-anchor="middle" x="733" y="-529.5" font-family="Helvetica,sans-Serif" font-size="10.00">commands.Command.getNumParameters</text>
</a>
</g>
</g>
<!-- Node4&#45;&gt;Node6 -->
<g id="edge6" class="edge"><title>Node4&#45;&gt;Node6</title>
<path fill="none" stroke="midnightblue" d="M561.208,-532C577.284,-532 594.714,-532 612.087,-532"/>
<polygon fill="midnightblue" stroke="midnightblue" points="612.299,-535.5 622.298,-532 612.298,-528.5 612.299,-535.5"/>
</g>
<!-- Node7 -->
<g id="node7" class="node"><title>Node7</title>
<g id="a_node7"><a xlink:href="../../dd/dd6/classcommands_1_1_command.html#a97daed7994c540f9a74bfbb0d7312c3c" target="_top" xlink:title="commands.Command.setParameters">
<polygon fill="white" stroke="black" points="634.5,-484.5 634.5,-503.5 831.5,-503.5 831.5,-484.5 634.5,-484.5"/>
<text text-anchor="middle" x="733" y="-491.5" font-family="Helvetica,sans-Serif" font-size="10.00">commands.Command.setParameters</text>
</a>
</g>
</g>
<!-- Node4&#45;&gt;Node7 -->
<g id="edge7" class="edge"><title>Node4&#45;&gt;Node7</title>
<path fill="none" stroke="midnightblue" d="M549.257,-522.46C583.048,-517.197 625.186,-510.635 660.481,-505.138"/>
<polygon fill="midnightblue" stroke="midnightblue" points="661.376,-508.541 670.718,-503.544 660.299,-501.624 661.376,-508.541"/>
</g>
<!-- Node5&#45;&gt;Node4 -->
<g id="edge5" class="edge"><title>Node5&#45;&gt;Node4</title>
<path fill="none" stroke="midnightblue" d="M644.846,-562.926C605.609,-557.395 561.123,-550.042 529.576,-543.7"/>
<polygon fill="midnightblue" stroke="midnightblue" points="529.901,-540.193 519.399,-541.592 528.481,-547.048 529.901,-540.193"/>
</g>
<!-- Node10 -->
<g id="node10" class="node"><title>Node10</title>
<g id="a_node10"><a xlink:href="../../d3/d42/classmodel_1_1_model.html#a73435cc7a2b6100031bbdd2cf6d6b4e8" target="_top" xlink:title="model.Model.updateModel">
<polygon fill="white" stroke="black" points="415.5,-446.5 415.5,-465.5 558.5,-465.5 558.5,-446.5 415.5,-446.5"/>
<text text-anchor="middle" x="487" y="-453.5" font-family="Helvetica,sans-Serif" font-size="10.00">model.Model.updateModel</text>
</a>
</g>
</g>
<!-- Node9&#45;&gt;Node10 -->
<g id="edge10" class="edge"><title>Node9&#45;&gt;Node10</title>
<path fill="none" stroke="midnightblue" d="M322.232,-461.772C347.824,-460.87 377.688,-459.817 404.854,-458.86"/>
<polygon fill="midnightblue" stroke="midnightblue" points="405.249,-462.348 415.119,-458.498 405.002,-455.352 405.249,-462.348"/>
</g>
<!-- Node11 -->
<g id="node11" class="node"><title>Node11</title>
<g id="a_node11"><a xlink:href="../../d3/d42/classmodel_1_1_model.html#a76160d002c1e68b566307ac44356f6e5" target="_top" xlink:title="model.Model.notifyView">
<polygon fill="white" stroke="black" points="668.5,-446.5 668.5,-465.5 797.5,-465.5 797.5,-446.5 668.5,-446.5"/>
<text text-anchor="middle" x="733" y="-453.5" font-family="Helvetica,sans-Serif" font-size="10.00">model.Model.notifyView</text>
</a>
</g>
</g>
<!-- Node10&#45;&gt;Node11 -->
<g id="edge11" class="edge"><title>Node10&#45;&gt;Node11</title>
<path fill="none" stroke="midnightblue" d="M558.575,-456C589.817,-456 626.567,-456 658.177,-456"/>
<polygon fill="midnightblue" stroke="midnightblue" points="658.245,-459.5 668.245,-456 658.245,-452.5 658.245,-459.5"/>
</g>
<!-- Node12 -->
<g id="node12" class="node"><title>Node12</title>
<g id="a_node12"><a xlink:href="../../db/db5/classview_1_1panes_1_1_view_pane_module.html#aa2a1bf15bc036ee4237bf63749d85baf" target="_top" xlink:title="view.panes.ViewPaneModule.updateView">
<polygon fill="white" stroke="black" points="880.5,-446.5 880.5,-465.5 1089.5,-465.5 1089.5,-446.5 880.5,-446.5"/>
<text text-anchor="middle" x="985" y="-453.5" font-family="Helvetica,sans-Serif" font-size="10.00">view.panes.ViewPaneModule.updateView</text>
</a>
</g>
</g>
<!-- Node11&#45;&gt;Node12 -->
<g id="edge12" class="edge"><title>Node11&#45;&gt;Node12</title>
<path fill="none" stroke="midnightblue" d="M797.732,-456C819.729,-456 845.088,-456 869.873,-456"/>
<polygon fill="midnightblue" stroke="midnightblue" points="870.075,-459.5 880.075,-456 870.074,-452.5 870.075,-459.5"/>
</g>
<!-- Node13 -->
<g id="node13" class="node"><title>Node13</title>
<g id="a_node13"><a xlink:href="../../d3/d42/classmodel_1_1_model.html#a54936407d7df5ab8ef3c0ae54bcdc0ed" target="_top" xlink:title="model.Model.getBackground\lColor">
<polygon fill="white" stroke="black" points="1143,-665 1143,-695 1297,-695 1297,-665 1143,-665"/>
<text text-anchor="start" x="1151" y="-683" font-family="Helvetica,sans-Serif" font-size="10.00">model.Model.getBackground</text>
<text text-anchor="middle" x="1220" y="-672" font-family="Helvetica,sans-Serif" font-size="10.00">Color</text>
</a>
</g>
</g>
<!-- Node12&#45;&gt;Node13 -->
<g id="edge13" class="edge"><title>Node12&#45;&gt;Node13</title>
<path fill="none" stroke="midnightblue" d="M989.895,-465.674C1003.41,-497.969 1051.57,-602.96 1126,-655 1128.74,-656.916 1131.62,-658.685 1134.6,-660.319"/>
<polygon fill="midnightblue" stroke="midnightblue" points="1133.29,-663.572 1143.81,-664.824 1136.36,-657.285 1133.29,-663.572"/>
</g>
<!-- Node14 -->
<g id="node14" class="node"><title>Node14</title>
<g id="a_node14"><a xlink:href="../../db/db5/classview_1_1panes_1_1_view_pane_module.html#ac94ee444587349ddad19b8caee500c9c" target="_top" xlink:title="view.panes.ViewPaneModule.update\lBGColor">
<polygon fill="white" stroke="black" points="1126,-616 1126,-646 1314,-646 1314,-616 1126,-616"/>
<text text-anchor="start" x="1134" y="-634" font-family="Helvetica,sans-Serif" font-size="10.00">view.panes.ViewPaneModule.update</text>
<text text-anchor="middle" x="1220" y="-623" font-family="Helvetica,sans-Serif" font-size="10.00">BGColor</text>
</a>
</g>
</g>
<!-- Node12&#45;&gt;Node14 -->
<g id="edge14" class="edge"><title>Node12&#45;&gt;Node14</title>
<path fill="none" stroke="midnightblue" d="M992.222,-465.817C1009.76,-492.662 1062.5,-567.827 1126,-606 1129.63,-608.18 1133.45,-610.174 1137.38,-611.996"/>
<polygon fill="midnightblue" stroke="midnightblue" points="1136.18,-615.286 1146.75,-615.945 1138.9,-608.836 1136.18,-615.286"/>
</g>
<!-- Node15 -->
<g id="node15" class="node"><title>Node15</title>
<g id="a_node15"><a xlink:href="../../db/db5/classview_1_1panes_1_1_view_pane_module.html#abe91f8bb732e99d762bdaba51ceae04b" target="_top" xlink:title="view.panes.ViewPaneModule.toRGB">
<polygon fill="white" stroke="black" points="1128,-577.5 1128,-596.5 1312,-596.5 1312,-577.5 1128,-577.5"/>
<text text-anchor="middle" x="1220" y="-584.5" font-family="Helvetica,sans-Serif" font-size="10.00">view.panes.ViewPaneModule.toRGB</text>
</a>
</g>
</g>
<!-- Node12&#45;&gt;Node15 -->
<g id="edge15" class="edge"><title>Node12&#45;&gt;Node15</title>
<path fill="none" stroke="midnightblue" d="M994.764,-465.612C1015.35,-487.55 1069.35,-541.457 1126,-568 1131.35,-570.508 1137.03,-572.686 1142.84,-574.578"/>
<polygon fill="midnightblue" stroke="midnightblue" points="1142.12,-578.015 1152.71,-577.499 1144.11,-571.303 1142.12,-578.015"/>
</g>
<!-- Node16 -->
<g id="node16" class="node"><title>Node16</title>
<g id="a_node16"><a xlink:href="../../d3/d42/classmodel_1_1_model.html#a1a683ba5e58fcb3c8882c8e61df20dc0" target="_top" xlink:title="model.Model.getTurtleManager">
<polygon fill="white" stroke="black" points="1138,-539.5 1138,-558.5 1302,-558.5 1302,-539.5 1138,-539.5"/>
<text text-anchor="middle" x="1220" y="-546.5" font-family="Helvetica,sans-Serif" font-size="10.00">model.Model.getTurtleManager</text>
</a>
</g>
</g>
<!-- Node12&#45;&gt;Node16 -->
<g id="edge16" class="edge"><title>Node12&#45;&gt;Node16</title>
<path fill="none" stroke="midnightblue" d="M1000.92,-465.508C1025.87,-481.002 1078.04,-511.698 1126,-529 1134.56,-532.087 1143.74,-534.771 1152.87,-537.083"/>
<polygon fill="midnightblue" stroke="midnightblue" points="1152.2,-540.521 1162.74,-539.448 1153.83,-533.714 1152.2,-540.521"/>
</g>
<!-- Node17 -->
<g id="node17" class="node"><title>Node17</title>
<g id="a_node17"><a xlink:href="../../df/d50/classmodel_1_1_turtle_set_manager.html#a9a65c0be3b9c21abaf0ebaa54e5b8484" target="_top" xlink:title="model.TurtleSetManager.get\lActiveTurtles">
<polygon fill="white" stroke="black" points="1144,-490 1144,-520 1296,-520 1296,-490 1144,-490"/>
<text text-anchor="start" x="1152" y="-508" font-family="Helvetica,sans-Serif" font-size="10.00">model.TurtleSetManager.get</text>
<text text-anchor="middle" x="1220" y="-497" font-family="Helvetica,sans-Serif" font-size="10.00">ActiveTurtles</text>
</a>
</g>
</g>
<!-- Node12&#45;&gt;Node17 -->
<g id="edge17" class="edge"><title>Node12&#45;&gt;Node17</title>
<path fill="none" stroke="midnightblue" d="M1031.2,-465.506C1061.32,-471.84 1101.77,-480.347 1137.42,-487.844"/>
<polygon fill="midnightblue" stroke="midnightblue" points="1136.83,-491.296 1147.33,-489.929 1138.27,-484.446 1136.83,-491.296"/>
</g>
<!-- Node18 -->
<g id="node18" class="node"><title>Node18</title>
<g id="a_node18"><a xlink:href="../../df/d50/classmodel_1_1_turtle_set_manager.html#a9e215e93eccbed2ab9ebec6119cfe305" target="_top" xlink:title="model.TurtleSetManager.get\lAllTurtles">
<polygon fill="white" stroke="black" points="1144,-441 1144,-471 1296,-471 1296,-441 1144,-441"/>
<text text-anchor="start" x="1152" y="-459" font-family="Helvetica,sans-Serif" font-size="10.00">model.TurtleSetManager.get</text>
<text text-anchor="middle" x="1220" y="-448" font-family="Helvetica,sans-Serif" font-size="10.00">AllTurtles</text>
</a>
</g>
</g>
<!-- Node12&#45;&gt;Node18 -->
<g id="edge18" class="edge"><title>Node12&#45;&gt;Node18</title>
<path fill="none" stroke="midnightblue" d="M1089.55,-456C1104.22,-456 1119.17,-456 1133.45,-456"/>
<polygon fill="midnightblue" stroke="midnightblue" points="1133.72,-459.5 1143.72,-456 1133.72,-452.5 1133.72,-459.5"/>
</g>
<!-- Node19 -->
<g id="node19" class="node"><title>Node19</title>
<g id="a_node19"><a xlink:href="../../d3/d42/classmodel_1_1_model.html#af73e838aed2c068e8f7d31bfa1cc88d7" target="_top" xlink:title="model.Model.getStamp">
<polygon fill="white" stroke="black" points="1155.5,-402.5 1155.5,-421.5 1284.5,-421.5 1284.5,-402.5 1155.5,-402.5"/>
<text text-anchor="middle" x="1220" y="-409.5" font-family="Helvetica,sans-Serif" font-size="10.00">model.Model.getStamp</text>
</a>
</g>
</g>
<!-- Node12&#45;&gt;Node19 -->
<g id="edge19" class="edge"><title>Node12&#45;&gt;Node19</title>
<path fill="none" stroke="midnightblue" d="M1036.56,-446.453C1072.43,-439.678 1120.75,-430.554 1158.65,-423.397"/>
<polygon fill="midnightblue" stroke="midnightblue" points="1159.36,-426.824 1168.54,-421.529 1158.07,-419.945 1159.36,-426.824"/>
</g>
<!-- Node20 -->
<g id="node20" class="node"><title>Node20</title>
<g id="a_node20"><a xlink:href="../../db/db5/classview_1_1panes_1_1_view_pane_module.html#a44db6ae832af3ce470baa9406142b8cb" target="_top" xlink:title="view.panes.ViewPaneModule.make\lStamps">
<polygon fill="white" stroke="black" points="1129.5,-353 1129.5,-383 1310.5,-383 1310.5,-353 1129.5,-353"/>
<text text-anchor="start" x="1137.5" y="-371" font-family="Helvetica,sans-Serif" font-size="10.00">view.panes.ViewPaneModule.make</text>
<text text-anchor="middle" x="1220" y="-360" font-family="Helvetica,sans-Serif" font-size="10.00">Stamps</text>
</a>
</g>
</g>
<!-- Node12&#45;&gt;Node20 -->
<g id="edge20" class="edge"><title>Node12&#45;&gt;Node20</title>
<path fill="none" stroke="midnightblue" d="M1004.63,-446.459C1031.09,-433.174 1081.32,-408.944 1126,-393 1132.93,-390.528 1140.22,-388.167 1147.55,-385.952"/>
<polygon fill="midnightblue" stroke="midnightblue" points="1148.93,-389.197 1157.54,-383.026 1146.96,-382.479 1148.93,-389.197"/>
</g>
<!-- Node27 -->
<g id="node27" class="node"><title>Node27</title>
<g id="a_node27"><a xlink:href="../../d3/d42/classmodel_1_1_model.html#a0a457f31350a460e11dc864463e0d8ff" target="_top" xlink:title="model.Model.setStamp">
<polygon fill="white" stroke="black" points="1156,-216.5 1156,-235.5 1284,-235.5 1284,-216.5 1156,-216.5"/>
<text text-anchor="middle" x="1220" y="-223.5" font-family="Helvetica,sans-Serif" font-size="10.00">model.Model.setStamp</text>
</a>
</g>
</g>
<!-- Node12&#45;&gt;Node27 -->
<g id="edge27" class="edge"><title>Node12&#45;&gt;Node27</title>
<path fill="none" stroke="midnightblue" d="M989.419,-446.044C1001.73,-411.804 1047.27,-298.088 1126,-245 1132.11,-240.883 1138.91,-237.624 1145.99,-235.05"/>
<polygon fill="midnightblue" stroke="midnightblue" points="1147.3,-238.307 1155.77,-231.947 1145.18,-231.635 1147.3,-238.307"/>
</g>
<!-- Node28 -->
<g id="node28" class="node"><title>Node28</title>
<g id="a_node28"><a xlink:href="../../db/db5/classview_1_1panes_1_1_view_pane_module.html#a7ad9ad27137ffdf0ea96753a22da236b" target="_top" xlink:title="view.panes.ViewPaneModule.erase\lStamps">
<polygon fill="white" stroke="black" points="1129.5,-304 1129.5,-334 1310.5,-334 1310.5,-304 1129.5,-304"/>
<text text-anchor="start" x="1137.5" y="-322" font-family="Helvetica,sans-Serif" font-size="10.00">view.panes.ViewPaneModule.erase</text>
<text text-anchor="middle" x="1220" y="-311" font-family="Helvetica,sans-Serif" font-size="10.00">Stamps</text>
</a>
</g>
</g>
<!-- Node12&#45;&gt;Node28 -->
<g id="edge28" class="edge"><title>Node12&#45;&gt;Node28</title>
<path fill="none" stroke="midnightblue" d="M994.842,-446.498C1015.59,-424.778 1069.91,-371.199 1126,-343 1129.77,-341.104 1133.71,-339.349 1137.73,-337.724"/>
<polygon fill="midnightblue" stroke="midnightblue" points="1139.13,-340.941 1147.27,-334.167 1136.68,-334.382 1139.13,-340.941"/>
</g>
<!-- Node30 -->
<g id="node30" class="node"><title>Node30</title>
<g id="a_node30"><a xlink:href="../../db/db5/classview_1_1panes_1_1_view_pane_module.html#ab55ce3511929b88a2cd1235eb694868f" target="_top" xlink:title="view.panes.ViewPaneModule.update\lTurtle">
<polygon fill="white" stroke="black" points="1126,-255 1126,-285 1314,-285 1314,-255 1126,-255"/>
<text text-anchor="start" x="1134" y="-273" font-family="Helvetica,sans-Serif" font-size="10.00">view.panes.ViewPaneModule.update</text>
<text text-anchor="middle" x="1220" y="-262" font-family="Helvetica,sans-Serif" font-size="10.00">Turtle</text>
</a>
</g>
</g>
<!-- Node12&#45;&gt;Node30 -->
<g id="edge30" class="edge"><title>Node12&#45;&gt;Node30</title>
<path fill="none" stroke="midnightblue" d="M991.511,-446.174C1007.95,-417.802 1059.67,-335.156 1126,-294 1128.76,-292.286 1131.64,-290.693 1134.61,-289.214"/>
<polygon fill="midnightblue" stroke="midnightblue" points="1136.05,-292.405 1143.73,-285.108 1133.17,-286.023 1136.05,-292.405"/>
</g>
<!-- Node21 -->
<g id="node21" class="node"><title>Node21</title>
<g id="a_node21"><a xlink:href="../../d7/da6/classview_1_1_turtle_draw.html#a939f4fdbdb66457c9dcee82eb4ae6d9c" target="_top" xlink:title="view.TurtleDraw.drawTurtle">
<polygon fill="white" stroke="black" points="1358.5,-418.5 1358.5,-437.5 1497.5,-437.5 1497.5,-418.5 1358.5,-418.5"/>
<text text-anchor="middle" x="1428" y="-425.5" font-family="Helvetica,sans-Serif" font-size="10.00">view.TurtleDraw.drawTurtle</text>
</a>
</g>
</g>
<!-- Node20&#45;&gt;Node21 -->
<g id="edge21" class="edge"><title>Node20&#45;&gt;Node21</title>
<path fill="none" stroke="midnightblue" d="M1282.45,-383.065C1293.06,-386.079 1303.91,-389.427 1314,-393 1330.5,-398.846 1333.44,-403.325 1350,-409 1357.33,-411.51 1365.15,-413.835 1372.9,-415.934"/>
<polygon fill="midnightblue" stroke="midnightblue" points="1372.08,-419.335 1382.63,-418.469 1373.84,-412.561 1372.08,-419.335"/>
</g>
<!-- Node24 -->
<g id="node24" class="node"><title>Node24</title>
<g id="a_node24"><a xlink:href="../../d7/da6/classview_1_1_turtle_draw.html#a14678068d3fc9d3b6e1067bc372f6030" target="_top" xlink:title="view.TurtleDraw.showTurtle">
<polygon fill="white" stroke="black" points="1358,-380.5 1358,-399.5 1498,-399.5 1498,-380.5 1358,-380.5"/>
<text text-anchor="middle" x="1428" y="-387.5" font-family="Helvetica,sans-Serif" font-size="10.00">view.TurtleDraw.showTurtle</text>
</a>
</g>
</g>
<!-- Node20&#45;&gt;Node24 -->
<g id="edge24" class="edge"><title>Node20&#45;&gt;Node24</title>
<path fill="none" stroke="midnightblue" d="M1310.76,-377.586C1323.12,-378.906 1335.75,-380.255 1347.9,-381.553"/>
<polygon fill="midnightblue" stroke="midnightblue" points="1347.67,-385.048 1357.99,-382.63 1348.42,-378.088 1347.67,-385.048"/>
</g>
<!-- Node25 -->
<g id="node25" class="node"><title>Node25</title>
<g id="a_node25"><a xlink:href="../../d7/da6/classview_1_1_turtle_draw.html#a8c2cab38eb294b26aea1ae17595ba2a6" target="_top" xlink:title="view.TurtleDraw.moveTurtle">
<polygon fill="white" stroke="black" points="1356.5,-342.5 1356.5,-361.5 1499.5,-361.5 1499.5,-342.5 1356.5,-342.5"/>
<text text-anchor="middle" x="1428" y="-349.5" font-family="Helvetica,sans-Serif" font-size="10.00">view.TurtleDraw.moveTurtle</text>
</a>
</g>
</g>
<!-- Node20&#45;&gt;Node25 -->
<g id="edge25" class="edge"><title>Node20&#45;&gt;Node25</title>
<path fill="none" stroke="midnightblue" d="M1310.76,-361.029C1322.58,-360.11 1334.64,-359.174 1346.3,-358.268"/>
<polygon fill="midnightblue" stroke="midnightblue" points="1346.73,-361.745 1356.43,-357.481 1346.19,-354.766 1346.73,-361.745"/>
</g>
<!-- Node26 -->
<g id="node26" class="node"><title>Node26</title>
<g id="a_node26"><a xlink:href="../../d7/da6/classview_1_1_turtle_draw.html#a5004a16526a67f090d7da45474b5136e" target="_top" xlink:title="view.TurtleDraw.setAngle">
<polygon fill="white" stroke="black" points="1361.5,-456.5 1361.5,-475.5 1494.5,-475.5 1494.5,-456.5 1361.5,-456.5"/>
<text text-anchor="middle" x="1428" y="-463.5" font-family="Helvetica,sans-Serif" font-size="10.00">view.TurtleDraw.setAngle</text>
</a>
</g>
</g>
<!-- Node20&#45;&gt;Node26 -->
<g id="edge26" class="edge"><title>Node20&#45;&gt;Node26</title>
<path fill="none" stroke="midnightblue" d="M1296.3,-383.029C1302.56,-385.808 1308.57,-389.1 1314,-393 1337.43,-409.823 1326.4,-430.42 1350,-447 1352.85,-449 1355.88,-450.79 1359.04,-452.392"/>
<polygon fill="midnightblue" stroke="midnightblue" points="1357.65,-455.604 1368.21,-456.428 1360.47,-449.197 1357.65,-455.604"/>
</g>
<!-- Node22 -->
<g id="node22" class="node"><title>Node22</title>
<g id="a_node22"><a xlink:href="../../d6/d34/classmodel_1_1_turtle.html#a942dbeb1d7e2bc19b6870538c2c3a7d2" target="_top" xlink:title="model.Turtle.getShape">
<polygon fill="white" stroke="black" points="1566.5,-396.5 1566.5,-415.5 1691.5,-415.5 1691.5,-396.5 1566.5,-396.5"/>
<text text-anchor="middle" x="1629" y="-403.5" font-family="Helvetica,sans-Serif" font-size="10.00">model.Turtle.getShape</text>
</a>
</g>
</g>
<!-- Node21&#45;&gt;Node22 -->
<g id="edge22" class="edge"><title>Node21&#45;&gt;Node22</title>
<path fill="none" stroke="midnightblue" d="M1497.76,-420.398C1516.62,-418.314 1537.11,-416.048 1556.13,-413.945"/>
<polygon fill="midnightblue" stroke="midnightblue" points="1556.67,-417.407 1566.23,-412.829 1555.91,-410.449 1556.67,-417.407"/>
</g>
<!-- Node23 -->
<g id="node23" class="node"><title>Node23</title>
<g id="a_node23"><a xlink:href="../../d3/db7/classview_1_1controllers_1_1_image_palette.html#a8a6620714bc12d5a00b97e99299a7040" target="_top" xlink:title="view.controllers.ImagePalette.get\lImage">
<polygon fill="white" stroke="black" points="1542,-435 1542,-465 1716,-465 1716,-435 1542,-435"/>
<text text-anchor="start" x="1550" y="-453" font-family="Helvetica,sans-Serif" font-size="10.00">view.controllers.ImagePalette.get</text>
<text text-anchor="middle" x="1629" y="-442" font-family="Helvetica,sans-Serif" font-size="10.00">Image</text>
</a>
</g>
</g>
<!-- Node21&#45;&gt;Node23 -->
<g id="edge23" class="edge"><title>Node21&#45;&gt;Node23</title>
<path fill="none" stroke="midnightblue" d="M1497.76,-435.602C1508.71,-436.812 1520.21,-438.084 1531.65,-439.349"/>
<polygon fill="midnightblue" stroke="midnightblue" points="1531.36,-442.837 1541.68,-440.457 1532.13,-435.879 1531.36,-442.837"/>
</g>
<!-- Node29 -->
<g id="node29" class="node"><title>Node29</title>
<g id="a_node29"><a xlink:href="../../d7/da6/classview_1_1_turtle_draw.html#acb97dedda080cb5ed17031d2b31adc2c" target="_top" xlink:title="view.TurtleDraw.hideTurtle">
<polygon fill="white" stroke="black" points="1359.5,-304.5 1359.5,-323.5 1496.5,-323.5 1496.5,-304.5 1359.5,-304.5"/>
<text text-anchor="middle" x="1428" y="-311.5" font-family="Helvetica,sans-Serif" font-size="10.00">view.TurtleDraw.hideTurtle</text>
</a>
</g>
</g>
<!-- Node28&#45;&gt;Node29 -->
<g id="edge29" class="edge"><title>Node28&#45;&gt;Node29</title>
<path fill="none" stroke="midnightblue" d="M1310.76,-316.821C1323.46,-316.513 1336.44,-316.198 1348.9,-315.896"/>
<polygon fill="midnightblue" stroke="midnightblue" points="1349.32,-319.387 1359.23,-315.645 1349.15,-312.389 1349.32,-319.387"/>
</g>
<!-- Node30&#45;&gt;Node21 -->
<g id="edge32" class="edge"><title>Node30&#45;&gt;Node21</title>
<path fill="none" stroke="midnightblue" d="M1301.99,-285.031C1306.32,-287.586 1310.37,-290.554 1314,-294 1352.82,-330.896 1310.98,-372.311 1350,-409 1351.67,-410.571 1353.45,-412.018 1355.32,-413.351"/>
<polygon fill="midnightblue" stroke="midnightblue" points="1353.61,-416.406 1363.99,-418.489 1357.17,-410.382 1353.61,-416.406"/>
</g>
<!-- Node30&#45;&gt;Node24 -->
<g id="edge33" class="edge"><title>Node30&#45;&gt;Node24</title>
<path fill="none" stroke="midnightblue" d="M1300.58,-285.139C1305.36,-287.659 1309.89,-290.591 1314,-294 1343.06,-318.134 1320.81,-347.02 1350,-371 1352.05,-372.682 1354.22,-374.219 1356.5,-375.623"/>
<polygon fill="midnightblue" stroke="midnightblue" points="1355.19,-378.888 1365.67,-380.403 1358.42,-372.679 1355.19,-378.888"/>
</g>
<!-- Node30&#45;&gt;Node25 -->
<g id="edge46" class="edge"><title>Node30&#45;&gt;Node25</title>
<path fill="none" stroke="midnightblue" d="M1295.67,-285.114C1302.07,-287.637 1308.28,-290.577 1314,-294 1334.25,-306.107 1329.69,-321.001 1350,-333 1353.67,-335.167 1357.57,-337.087 1361.61,-338.79"/>
<polygon fill="midnightblue" stroke="midnightblue" points="1360.6,-342.151 1371.19,-342.378 1363.05,-335.595 1360.6,-342.151"/>
</g>
<!-- Node30&#45;&gt;Node26 -->
<g id="edge44" class="edge"><title>Node30&#45;&gt;Node26</title>
<path fill="none" stroke="midnightblue" d="M1303.13,-285.261C1307.07,-287.769 1310.73,-290.663 1314,-294 1362.86,-343.924 1300.87,-397.337 1350,-447 1351.42,-448.432 1352.92,-449.762 1354.5,-450.997"/>
<polygon fill="midnightblue" stroke="midnightblue" points="1352.65,-453.967 1362.96,-456.418 1356.43,-448.074 1352.65,-453.967"/>
</g>
<!-- Node30&#45;&gt;Node29 -->
<g id="edge34" class="edge"><title>Node30&#45;&gt;Node29</title>
<path fill="none" stroke="midnightblue" d="M1291.32,-285.019C1317.85,-290.686 1347.61,-297.043 1372.48,-302.356"/>
<polygon fill="midnightblue" stroke="midnightblue" points="1371.95,-305.821 1382.46,-304.488 1373.42,-298.976 1371.95,-305.821"/>
</g>
<!-- Node31 -->
<g id="node31" class="node"><title>Node31</title>
<g id="a_node31"><a xlink:href="../../d6/d34/classmodel_1_1_turtle.html#ae79a1eae7eed55d121c3b85299ae14ba" target="_top" xlink:title="model.Turtle.getID">
<polygon fill="white" stroke="black" points="1376,-0.5 1376,-19.5 1480,-19.5 1480,-0.5 1376,-0.5"/>
<text text-anchor="middle" x="1428" y="-7.5" font-family="Helvetica,sans-Serif" font-size="10.00">model.Turtle.getID</text>
</a>
</g>
</g>
<!-- Node30&#45;&gt;Node31 -->
<g id="edge31" class="edge"><title>Node30&#45;&gt;Node31</title>
<path fill="none" stroke="midnightblue" d="M1302.17,-254.908C1306.52,-252.115 1310.52,-248.839 1314,-245 1379.38,-172.911 1283.87,-100.409 1350,-29 1354.48,-24.1602 1359.98,-20.4664 1365.96,-17.6592"/>
<polygon fill="midnightblue" stroke="midnightblue" points="1367.59,-20.7833 1375.68,-13.9404 1365.09,-14.2456 1367.59,-20.7833"/>
</g>
<!-- Node32 -->
<g id="node32" class="node"><title>Node32</title>
<g id="a_node32"><a xlink:href="../../d6/d34/classmodel_1_1_turtle.html#a279f2bdb3fa955acdd52b7824ec3cd04" target="_top" xlink:title="model.Turtle.getPenStatus">
<polygon fill="white" stroke="black" points="1356.5,-266.5 1356.5,-285.5 1499.5,-285.5 1499.5,-266.5 1356.5,-266.5"/>
<text text-anchor="middle" x="1428" y="-273.5" font-family="Helvetica,sans-Serif" font-size="10.00">model.Turtle.getPenStatus</text>
</a>
</g>
</g>
<!-- Node30&#45;&gt;Node32 -->
<g id="edge35" class="edge"><title>Node30&#45;&gt;Node32</title>
<path fill="none" stroke="midnightblue" d="M1314.06,-272.71C1324.8,-273.023 1335.69,-273.341 1346.26,-273.648"/>
<polygon fill="midnightblue" stroke="midnightblue" points="1346.17,-277.147 1356.27,-273.94 1346.38,-270.15 1346.17,-277.147"/>
</g>
<!-- Node34 -->
<g id="node34" class="node"><title>Node34</title>
<g id="a_node34"><a xlink:href="../../d7/da6/classview_1_1_turtle_draw.html#a1325ca376115619f15f5014eb4c5ad2a" target="_top" xlink:title="view.TurtleDraw.drawLine">
<polygon fill="white" stroke="black" points="1361.5,-228.5 1361.5,-247.5 1494.5,-247.5 1494.5,-228.5 1361.5,-228.5"/>
<text text-anchor="middle" x="1428" y="-235.5" font-family="Helvetica,sans-Serif" font-size="10.00">view.TurtleDraw.drawLine</text>
</a>
</g>
</g>
<!-- Node30&#45;&gt;Node34 -->
<g id="edge37" class="edge"><title>Node30&#45;&gt;Node34</title>
<path fill="none" stroke="midnightblue" d="M1314.06,-255.545C1327.99,-253.38 1342.17,-251.178 1355.56,-249.097"/>
<polygon fill="midnightblue" stroke="midnightblue" points="1356.29,-252.527 1365.63,-247.533 1355.21,-245.61 1356.29,-252.527"/>
</g>
<!-- Node35 -->
<g id="node35" class="node"><title>Node35</title>
<g id="a_node35"><a xlink:href="../../d6/d34/classmodel_1_1_turtle.html#a832234461564763f8330181b3c1163ff" target="_top" xlink:title="model.Turtle.getPrevLocation">
<polygon fill="white" stroke="black" points="1350.5,-190.5 1350.5,-209.5 1505.5,-209.5 1505.5,-190.5 1350.5,-190.5"/>
<text text-anchor="middle" x="1428" y="-197.5" font-family="Helvetica,sans-Serif" font-size="10.00">model.Turtle.getPrevLocation</text>
</a>
</g>
</g>
<!-- Node30&#45;&gt;Node35 -->
<g id="edge38" class="edge"><title>Node30&#45;&gt;Node35</title>
<path fill="none" stroke="midnightblue" d="M1288.6,-254.952C1297.32,-252.109 1306,-248.807 1314,-245 1331.82,-236.521 1332.09,-227.294 1350,-219 1355.28,-216.554 1360.92,-214.397 1366.65,-212.501"/>
<polygon fill="midnightblue" stroke="midnightblue" points="1367.79,-215.812 1376.34,-209.552 1365.76,-209.116 1367.79,-215.812"/>
</g>
<!-- Node36 -->
<g id="node36" class="node"><title>Node36</title>
<g id="a_node36"><a xlink:href="../../d6/d34/classmodel_1_1_turtle.html#a2470b9b4ef48a261324047de8ebdc242" target="_top" xlink:title="model.Turtle.getNewLocation">
<polygon fill="white" stroke="black" points="1350.5,-152.5 1350.5,-171.5 1505.5,-171.5 1505.5,-152.5 1350.5,-152.5"/>
<text text-anchor="middle" x="1428" y="-159.5" font-family="Helvetica,sans-Serif" font-size="10.00">model.Turtle.getNewLocation</text>
</a>
</g>
</g>
<!-- Node30&#45;&gt;Node36 -->
<g id="edge39" class="edge"><title>Node30&#45;&gt;Node36</title>
<path fill="none" stroke="midnightblue" d="M1297.55,-254.969C1303.41,-252.189 1308.98,-248.898 1314,-245 1339.77,-224.977 1324.02,-200.755 1350,-181 1352.36,-179.203 1354.87,-177.574 1357.49,-176.097"/>
<polygon fill="midnightblue" stroke="midnightblue" points="1359.25,-179.134 1366.74,-171.64 1356.21,-172.828 1359.25,-179.134"/>
</g>
<!-- Node37 -->
<g id="node37" class="node"><title>Node37</title>
<g id="a_node37"><a xlink:href="../../d6/d34/classmodel_1_1_turtle.html#a19c059b1cbfbd4e8f046ec2403de3fb9" target="_top" xlink:title="model.Turtle.getPenDash">
<polygon fill="white" stroke="black" points="1359.5,-114.5 1359.5,-133.5 1496.5,-133.5 1496.5,-114.5 1359.5,-114.5"/>
<text text-anchor="middle" x="1428" y="-121.5" font-family="Helvetica,sans-Serif" font-size="10.00">model.Turtle.getPenDash</text>
</a>
</g>
</g>
<!-- Node30&#45;&gt;Node37 -->
<g id="edge40" class="edge"><title>Node30&#45;&gt;Node37</title>
<path fill="none" stroke="midnightblue" d="M1300.11,-254.92C1305.13,-252.14 1309.83,-248.862 1314,-245 1349.27,-212.335 1314.39,-175.299 1350,-143 1351.7,-141.459 1353.5,-140.038 1355.39,-138.729"/>
<polygon fill="midnightblue" stroke="midnightblue" points="1357.24,-141.704 1364.14,-133.668 1353.73,-135.645 1357.24,-141.704"/>
</g>
<!-- Node39 -->
<g id="node39" class="node"><title>Node39</title>
<g id="a_node39"><a xlink:href="../../d6/d34/classmodel_1_1_turtle.html#a193c156784f783064ae533b619b6be6e" target="_top" xlink:title="model.Turtle.getPenColor">
<polygon fill="white" stroke="black" points="1359.5,-76.5 1359.5,-95.5 1496.5,-95.5 1496.5,-76.5 1359.5,-76.5"/>
<text text-anchor="middle" x="1428" y="-83.5" font-family="Helvetica,sans-Serif" font-size="10.00">model.Turtle.getPenColor</text>
</a>
</g>
</g>
<!-- Node30&#45;&gt;Node39 -->
<g id="edge42" class="edge"><title>Node30&#45;&gt;Node39</title>
<path fill="none" stroke="midnightblue" d="M1301.36,-254.811C1305.96,-252.047 1310.24,-248.804 1314,-245 1359.18,-199.324 1304.35,-150.207 1350,-105 1351.43,-103.583 1352.95,-102.266 1354.54,-101.042"/>
<polygon fill="midnightblue" stroke="midnightblue" points="1356.46,-103.97 1363.04,-95.6666 1352.72,-98.0534 1356.46,-103.97"/>
</g>
<!-- Node41 -->
<g id="node41" class="node"><title>Node41</title>
<g id="a_node41"><a xlink:href="../../d6/d34/classmodel_1_1_turtle.html#a1c5d07962ede5fbfacc59413274d4300" target="_top" xlink:title="model.Turtle.getHeading">
<polygon fill="white" stroke="black" points="1361,-38.5 1361,-57.5 1495,-57.5 1495,-38.5 1361,-38.5"/>
<text text-anchor="middle" x="1428" y="-45.5" font-family="Helvetica,sans-Serif" font-size="10.00">model.Turtle.getHeading</text>
</a>
</g>
</g>
<!-- Node30&#45;&gt;Node41 -->
<g id="edge45" class="edge"><title>Node30&#45;&gt;Node41</title>
<path fill="none" stroke="midnightblue" d="M1302.02,-254.768C1306.4,-252.009 1310.45,-248.779 1314,-245 1369.25,-186.157 1294.15,-125.269 1350,-67 1351.24,-65.7016 1352.56,-64.4862 1353.94,-63.3487"/>
<polygon fill="midnightblue" stroke="midnightblue" points="1356.1,-66.1197 1362.46,-57.651 1352.2,-60.3011 1356.1,-66.1197"/>
</g>
<!-- Node33 -->
<g id="node33" class="node"><title>Node33</title>
<g id="a_node33"><a xlink:href="../../de/ded/classmodel_1_1_pen.html#afad4fb3e51847cacab72c036ddaa108f" target="_top" xlink:title="model.Pen.getStatus">
<polygon fill="white" stroke="black" points="1570,-266.5 1570,-285.5 1688,-285.5 1688,-266.5 1570,-266.5"/>
<text text-anchor="middle" x="1629" y="-273.5" font-family="Helvetica,sans-Serif" font-size="10.00">model.Pen.getStatus</text>
</a>
</g>
</g>
<!-- Node32&#45;&gt;Node33 -->
<g id="edge36" class="edge"><title>Node32&#45;&gt;Node33</title>
<path fill="none" stroke="midnightblue" d="M1499.72,-276C1519.23,-276 1540.35,-276 1559.72,-276"/>
<polygon fill="midnightblue" stroke="midnightblue" points="1559.97,-279.5 1569.97,-276 1559.97,-272.5 1559.97,-279.5"/>
</g>
<!-- Node38 -->
<g id="node38" class="node"><title>Node38</title>
<g id="a_node38"><a xlink:href="../../de/ded/classmodel_1_1_pen.html#a6999f4af56377415621f193ef8600e27" target="_top" xlink:title="model.Pen.getDash">
<polygon fill="white" stroke="black" points="1573.5,-114.5 1573.5,-133.5 1684.5,-133.5 1684.5,-114.5 1573.5,-114.5"/>
<text text-anchor="middle" x="1629" y="-121.5" font-family="Helvetica,sans-Serif" font-size="10.00">model.Pen.getDash</text>
</a>
</g>
</g>
<!-- Node37&#45;&gt;Node38 -->
<g id="edge41" class="edge"><title>Node37&#45;&gt;Node38</title>
<path fill="none" stroke="midnightblue" d="M1496.65,-124C1518.15,-124 1541.86,-124 1563.15,-124"/>
<polygon fill="midnightblue" stroke="midnightblue" points="1563.39,-127.5 1573.39,-124 1563.39,-120.5 1563.39,-127.5"/>
</g>
<!-- Node40 -->
<g id="node40" class="node"><title>Node40</title>
<g id="a_node40"><a xlink:href="../../de/ded/classmodel_1_1_pen.html#a704af31474b10d17caf40773b7971826" target="_top" xlink:title="model.Pen.getPenColor">
<polygon fill="white" stroke="black" points="1564.5,-76.5 1564.5,-95.5 1693.5,-95.5 1693.5,-76.5 1564.5,-76.5"/>
<text text-anchor="middle" x="1629" y="-83.5" font-family="Helvetica,sans-Serif" font-size="10.00">model.Pen.getPenColor</text>
</a>
</g>
</g>
<!-- Node39&#45;&gt;Node40 -->
<g id="edge43" class="edge"><title>Node39&#45;&gt;Node40</title>
<path fill="none" stroke="midnightblue" d="M1496.65,-86C1515.18,-86 1535.36,-86 1554.21,-86"/>
<polygon fill="midnightblue" stroke="midnightblue" points="1554.23,-89.5001 1564.23,-86 1554.23,-82.5001 1554.23,-89.5001"/>
</g>
<!-- Node44 -->
<g id="node44" class="node"><title>Node44</title>
<g id="a_node44"><a xlink:href="../../d8/dd2/classview_1_1_command_string.html#a666bbe4a67f0516444f5ee29cbb5e588" target="_top" xlink:title="view.CommandString.setCommand">
<polygon fill="white" stroke="black" points="394,-356.5 394,-375.5 580,-375.5 580,-356.5 394,-356.5"/>
<text text-anchor="middle" x="487" y="-363.5" font-family="Helvetica,sans-Serif" font-size="10.00">view.CommandString.setCommand</text>
</a>
</g>
</g>
<!-- Node43&#45;&gt;Node44 -->
<g id="edge49" class="edge"><title>Node43&#45;&gt;Node44</title>
<path fill="none" stroke="midnightblue" d="M352.312,-366C362.584,-366 373.084,-366 383.461,-366"/>
<polygon fill="midnightblue" stroke="midnightblue" points="383.783,-369.5 393.783,-366 383.783,-362.5 383.783,-369.5"/>
</g>
</g>
</svg>
        <g id="navigator" transform="translate(0 0)" fill="#404254">
                <rect fill="#f2f5e9" fill-opacity="0.5" stroke="#606060" stroke-width=".5" x="0" y="0" width="60" height="60"/>
                <use id="zoomplus" xlink:href="#zoomPlus" x="17" y="9" onmousedown="handleZoom(evt,'in')"/>
                <use id="zoomminus" xlink:href="#zoomMin" x="42" y="9" onmousedown="handleZoom(evt,'out')"/>
                <use id="reset" xlink:href="#resetDef" x="30" y="36" onmousedown="handleReset()"/>
                <g id="arrowUp" xlink:href="#dirArrow" transform="translate(30 24)" onmousedown="handlePan(0,-1)">
                  <use xlink:href="#rim" fill="#404040">
                        <set attributeName="fill" to="#808080" begin="arrowUp.mouseover" end="arrowUp.mouseout"/>
                  </use>
                  <path fill="none" stroke="white" stroke-width="1.5" d="M0,-3.0v7 M-2.5,-0.5L0,-3.0L2.5,-0.5"/>
                </g>
                <g id="arrowRight" xlink:href="#dirArrow" transform="rotate(90) translate(36 -43)" onmousedown="handlePan(1,0)">
                  <use xlink:href="#rim" fill="#404040">
                        <set attributeName="fill" to="#808080" begin="arrowRight.mouseover" end="arrowRight.mouseout"/>
                  </use>
                  <path fill="none" stroke="white" stroke-width="1.5" d="M0,-3.0v7 M-2.5,-0.5L0,-3.0L2.5,-0.5"/>
                </g>
                <g id="arrowDown" xlink:href="#dirArrow" transform="rotate(180) translate(-30 -48)" onmousedown="handlePan(0,1)">
                  <use xlink:href="#rim" fill="#404040">
                        <set attributeName="fill" to="#808080" begin="arrowDown.mouseover" end="arrowDown.mouseout"/>
                  </use>
                  <path fill="none" stroke="white" stroke-width="1.5" d="M0,-3.0v7 M-2.5,-0.5L0,-3.0L2.5,-0.5"/>
                </g>
                <g id="arrowLeft" xlink:href="#dirArrow" transform="rotate(270) translate(-36 17)" onmousedown="handlePan(-1,0)">
                  <use xlink:href="#rim" fill="#404040">
                        <set attributeName="fill" to="#808080" begin="arrowLeft.mouseover" end="arrowLeft.mouseout"/>
                  </use>
                  <path fill="none" stroke="white" stroke-width="1.5" d="M0,-3.0v7 M-2.5,-0.5L0,-3.0L2.5,-0.5"/>
                </g>
        </g>
        <svg viewBox="0 0 15 15" width="100%" height="30px" preserveAspectRatio="xMaxYMin meet">
         <g id="arrow_out" transform="scale(0.3 0.3)">
          <a xlink:href="classcontroller_1_1_controller_afdfa7f9e9a3fb5f6b73a6b8e2b2be8b5_cgraph_org.svg" target="_base">
           <rect id="button" ry="5" rx="5" y="6" x="6" height="38" width="38"
                fill="#f2f5e9" fill-opacity="0.5" stroke="#606060" stroke-width="1.0"/>
           <path id="arrow"
             d="M 11.500037,31.436501 C 11.940474,20.09759 22.043105,11.32322 32.158766,21.979434 L 37.068811,17.246167 C 37.068811,17.246167 37.088388,32 37.088388,32 L 22.160133,31.978069 C 22.160133,31.978069 26.997745,27.140456 26.997745,27.140456 C 18.528582,18.264221 13.291696,25.230495 11.500037,31.436501 z"
             style="fill:#404040;"/>
          </a>
         </g>
        </svg>
</svg>
