<?xml version="1.0" encoding="UTF-8" standalone="no"?>
<!DOCTYPE svg PUBLIC "-//W3C//DTD SVG 1.1//EN"
 "http://www.w3.org/Graphics/SVG/1.1/DTD/svg11.dtd">
<!-- Generated by graphviz version 2.36.0 (20140111.2315)
 -->
<!-- Title: commands.MakeUserInstructionCommand Pages: 1 -->
<svg width="182pt" height="152pt"
 viewBox="0.00 0.00 182.00 152.00" xmlns="http://www.w3.org/2000/svg" xmlns:xlink="http://www.w3.org/1999/xlink">
<g id="graph0" class="graph" transform="scale(1 1) rotate(0) translate(4 148)">
<title>commands.MakeUserInstructionCommand</title>
<polygon fill="white" stroke="none" points="-4,4 -4,-148 178,-148 178,4 -4,4"/>
<!-- Node1 -->
<g id="node1" class="node"><title>Node1</title>
<polygon fill="#bfbfbf" stroke="black" points="1,-1 1,-31 173,-31 173,-1 1,-1"/>
<text text-anchor="start" x="9" y="-19" font-family="Helvetica,sans-Serif" font-size="10.00">commands.MakeUserInstruction</text>
<text text-anchor="middle" x="87" y="-8" font-family="Helvetica,sans-Serif" font-size="10.00">Command</text>
</g>
<!-- Node2 -->
<g id="node2" class="node"><title>Node2</title>
<g id="a_node2"><a xlink:href="../../d1/d86/classcommands_1_1_three_input_command.html" target="_top" xlink:title="commands.ThreeInputCommand">
<polygon fill="white" stroke="black" points="-0.5,-68.5 -0.5,-87.5 174.5,-87.5 174.5,-68.5 -0.5,-68.5"/>
<text text-anchor="middle" x="87" y="-75.5" font-family="Helvetica,sans-Serif" font-size="10.00">commands.ThreeInputCommand</text>
</a>
</g>
</g>
<!-- Node2&#45;&gt;Node1 -->
<g id="edge1" class="edge"><title>Node2&#45;&gt;Node1</title>
<path fill="none" stroke="midnightblue" d="M87,-58.3707C87,-49.5849 87,-39.2721 87,-31.1408"/>
<polygon fill="midnightblue" stroke="midnightblue" points="83.5001,-58.4034 87,-68.4035 90.5001,-58.4035 83.5001,-58.4034"/>
</g>
<!-- Node3 -->
<g id="node3" class="node"><title>Node3</title>
<g id="a_node3"><a xlink:href="../../dd/dd6/classcommands_1_1_command.html" target="_top" xlink:title="commands.Command">
<polygon fill="white" stroke="black" points="25,-124.5 25,-143.5 149,-143.5 149,-124.5 25,-124.5"/>
<text text-anchor="middle" x="87" y="-131.5" font-family="Helvetica,sans-Serif" font-size="10.00">commands.Command</text>
</a>
</g>
</g>
<!-- Node3&#45;&gt;Node2 -->
<g id="edge2" class="edge"><title>Node3&#45;&gt;Node2</title>
<path fill="none" stroke="midnightblue" d="M87,-113.805C87,-104.91 87,-94.7798 87,-87.7511"/>
<polygon fill="midnightblue" stroke="midnightblue" points="83.5001,-114.083 87,-124.083 90.5001,-114.083 83.5001,-114.083"/>
</g>
</g>
</svg>
