<?xml version="1.0" encoding="UTF-8" standalone="no"?>
<!DOCTYPE svg PUBLIC "-//W3C//DTD SVG 1.1//EN"
 "http://www.w3.org/Graphics/SVG/1.1/DTD/svg11.dtd">
<!-- Generated by graphviz version 2.36.0 (20140111.2315)
 -->
<!-- Title: commands.ZeroInputCommand Pages: 1 -->
<!--zoomable 826 -->
<svg id="main" version="1.1" xmlns="http://www.w3.org/2000/svg" xmlns:xlink="http://www.w3.org/1999/xlink" xml:space="preserve" onload="init(evt)">
<style type="text/css"><![CDATA[
.edge:hover path { stroke: red; }
.edge:hover polygon { stroke: red; fill: red; }
]]></style>
<script type="text/javascript"><![CDATA[
var edges = document.getElementsByTagName('g');
if (edges && edges.length) {
  for (var i=0;i<edges.length;i++) {
    if (edges[i].id.substr(0,4)=='edge') {
      edges[i].setAttribute('class','edge');
    }
  }
}
]]></script>
        <defs>
                <circle id="rim" cx="0" cy="0" r="7"/>
                <circle id="rim2" cx="0" cy="0" r="3.5"/>
                <g id="zoomPlus">
                        <use xlink:href="#rim" fill="#404040">
                                <set attributeName="fill" to="#808080" begin="zoomplus.mouseover" end="zoomplus.mouseout"/>
                        </use>
                        <path d="M-4,0h8M0,-4v8" fill="none" stroke="white" stroke-width="1.5" pointer-events="none"/>
                </g>
                <g id="zoomMin">
                        <use xlink:href="#rim" fill="#404040">
                                <set attributeName="fill" to="#808080" begin="zoomminus.mouseover" end="zoomminus.mouseout"/>
                        </use>
                        <path d="M-4,0h8" fill="none" stroke="white" stroke-width="1.5" pointer-events="none"/>
                </g>
                <g id="dirArrow">
                        <path fill="none" stroke="white" stroke-width="1.5" d="M0,-3.0v7 M-2.5,-0.5L0,-3.0L2.5,-0.5"/>
                </g>
               <g id="resetDef">
                       <use xlink:href="#rim2" fill="#404040">
                               <set attributeName="fill" to="#808080" begin="reset.mouseover" end="reset.mouseout"/>
                       </use>
               </g>
        </defs>

<script type="text/javascript">
var viewWidth = 562;
var viewHeight = 826;
var sectionId = 'dynsection-0';
</script>
<script xlink:href="../../svgpan.js"/>
<svg id="graph" class="graph">
<g id="viewport">
<title>commands.ZeroInputCommand</title>
<polygon fill="white" stroke="none" points="-4,4 -4,-822 558,-822 558,4 -4,4"/>
<!-- Node1 -->
<g id="node1" class="node"><title>Node1</title>
<polygon fill="#bfbfbf" stroke="black" points="160.5,-399.5 160.5,-418.5 331.5,-418.5 331.5,-399.5 160.5,-399.5"/>
<text text-anchor="middle" x="246" y="-406.5" font-family="Helvetica,sans-Serif" font-size="10.00">commands.ZeroInputCommand</text>
</g>
<!-- Node3 -->
<g id="node3" class="node"><title>Node3</title>
<g id="a_node3"><a xlink:href="../../dd/d29/classcommands_1_1_clear_screen_command.html" target="_top" xlink:title="commands.ClearScreenCommand">
<polygon fill="white" stroke="black" points="370,-798.5 370,-817.5 552,-817.5 552,-798.5 370,-798.5"/>
<text text-anchor="middle" x="461" y="-805.5" font-family="Helvetica,sans-Serif" font-size="10.00">commands.ClearScreenCommand</text>
</a>
</g>
</g>
<!-- Node1&#45;&gt;Node3 -->
<g id="edge2" class="edge"><title>Node1&#45;&gt;Node3</title>
<path fill="none" stroke="midnightblue" d="M246.817,-429.005C247.396,-492.359 258.294,-690.21 368,-789 372.121,-792.711 376.77,-795.771 381.734,-798.288"/>
<polygon fill="midnightblue" stroke="midnightblue" points="250.317,-428.791 246.808,-418.795 243.317,-428.798 250.317,-428.791"/>
</g>
<!-- Node4 -->
<g id="node4" class="node"><title>Node4</title>
<g id="a_node4"><a xlink:href="../../de/d54/classcommands_1_1_clear_stamps_command.html" target="_top" xlink:title="commands.ClearStampsCommand">
<polygon fill="white" stroke="black" points="368,-760.5 368,-779.5 554,-779.5 554,-760.5 368,-760.5"/>
<text text-anchor="middle" x="461" y="-767.5" font-family="Helvetica,sans-Serif" font-size="10.00">commands.ClearStampsCommand</text>
</a>
</g>
</g>
<!-- Node1&#45;&gt;Node4 -->
<g id="edge3" class="edge"><title>Node1&#45;&gt;Node4</title>
<path fill="none" stroke="midnightblue" d="M247.621,-428.943C250.6,-488.063 267.876,-663.68 368,-751 372.302,-754.752 377.147,-757.833 382.307,-760.357"/>
<polygon fill="midnightblue" stroke="midnightblue" points="251.109,-428.578 247.195,-418.733 244.115,-428.87 251.109,-428.578"/>
</g>
<!-- Node5 -->
<g id="node5" class="node"><title>Node5</title>
<g id="a_node5"><a xlink:href="../../dd/dad/classcommands_1_1_comment_command.html" target="_top" xlink:title="commands.CommentCommand">
<polygon fill="white" stroke="black" points="375,-722.5 375,-741.5 547,-741.5 547,-722.5 375,-722.5"/>
<text text-anchor="middle" x="461" y="-729.5" font-family="Helvetica,sans-Serif" font-size="10.00">commands.CommentCommand</text>
</a>
</g>
</g>
<!-- Node1&#45;&gt;Node5 -->
<g id="edge4" class="edge"><title>Node1&#45;&gt;Node5</title>
<path fill="none" stroke="midnightblue" d="M248.566,-428.53C254.024,-482.872 277.179,-636.84 368,-713 372.499,-716.773 377.552,-719.86 382.914,-722.38"/>
<polygon fill="midnightblue" stroke="midnightblue" points="252.046,-428.151 247.652,-418.51 245.075,-428.787 252.046,-428.151"/>
</g>
<!-- Node6 -->
<g id="node6" class="node"><title>Node6</title>
<g id="a_node6"><a xlink:href="../../db/d8d/classcommands_1_1_constant_command.html" target="_top" xlink:title="commands.ConstantCommand">
<polygon fill="white" stroke="black" points="377.5,-684.5 377.5,-703.5 544.5,-703.5 544.5,-684.5 377.5,-684.5"/>
<text text-anchor="middle" x="461" y="-691.5" font-family="Helvetica,sans-Serif" font-size="10.00">commands.ConstantCommand</text>
</a>
</g>
</g>
<!-- Node1&#45;&gt;Node6 -->
<g id="edge5" class="edge"><title>Node1&#45;&gt;Node6</title>
<path fill="none" stroke="midnightblue" d="M249.813,-428.717C258.017,-478.534 286.712,-610.098 368,-675 372.716,-678.765 377.99,-681.839 383.563,-684.342"/>
<polygon fill="midnightblue" stroke="midnightblue" points="253.241,-427.981 248.253,-418.634 246.323,-429.051 253.241,-427.981"/>
</g>
<!-- Node7 -->
<g id="node7" class="node"><title>Node7</title>
<g id="a_node7"><a xlink:href="../../de/d95/classcommands_1_1_error_command.html" target="_top" xlink:title="commands.ErrorCommand">
<polygon fill="white" stroke="black" points="387.5,-646.5 387.5,-665.5 534.5,-665.5 534.5,-646.5 387.5,-646.5"/>
<text text-anchor="middle" x="461" y="-653.5" font-family="Helvetica,sans-Serif" font-size="10.00">commands.ErrorCommand</text>
</a>
</g>
</g>
<!-- Node1&#45;&gt;Node7 -->
<g id="edge6" class="edge"><title>Node1&#45;&gt;Node7</title>
<path fill="none" stroke="midnightblue" d="M251.381,-428.589C262.45,-473.264 295.941,-582.981 368,-637 373.872,-641.402 380.523,-644.844 387.497,-647.527"/>
<polygon fill="midnightblue" stroke="midnightblue" points="254.751,-427.63 249.04,-418.706 247.939,-429.244 254.751,-427.63"/>
</g>
<!-- Node8 -->
<g id="node8" class="node"><title>Node8</title>
<g id="a_node8"><a xlink:href="../../d7/d4f/classcommands_1_1_get_pen_color_command.html" target="_top" xlink:title="commands.GetPenColorCommand">
<polygon fill="white" stroke="black" points="369,-608.5 369,-627.5 553,-627.5 553,-608.5 369,-608.5"/>
<text text-anchor="middle" x="461" y="-615.5" font-family="Helvetica,sans-Serif" font-size="10.00">commands.GetPenColorCommand</text>
</a>
</g>
</g>
<!-- Node1&#45;&gt;Node8 -->
<g id="edge7" class="edge"><title>Node1&#45;&gt;Node8</title>
<path fill="none" stroke="midnightblue" d="M253.51,-428.482C267.642,-467.58 305.024,-555.573 368,-599 373.505,-602.796 379.606,-605.863 385.972,-608.338"/>
<polygon fill="midnightblue" stroke="midnightblue" points="256.74,-427.115 250.139,-418.828 250.132,-429.423 256.74,-427.115"/>
</g>
<!-- Node9 -->
<g id="node9" class="node"><title>Node9</title>
<g id="a_node9"><a xlink:href="../../df/d59/classcommands_1_1_get_shape_command.html" target="_top" xlink:title="commands.GetShapeCommand">
<polygon fill="white" stroke="black" points="375,-570.5 375,-589.5 547,-589.5 547,-570.5 375,-570.5"/>
<text text-anchor="middle" x="461" y="-577.5" font-family="Helvetica,sans-Serif" font-size="10.00">commands.GetShapeCommand</text>
</a>
</g>
</g>
<!-- Node1&#45;&gt;Node9 -->
<g id="edge8" class="edge"><title>Node1&#45;&gt;Node9</title>
<path fill="none" stroke="midnightblue" d="M256.255,-427.715C273.447,-460.392 313.572,-527.55 368,-561 374.253,-564.843 381.15,-567.922 388.272,-570.386"/>
<polygon fill="midnightblue" stroke="midnightblue" points="259.34,-426.061 251.665,-418.757 253.11,-429.252 259.34,-426.061"/>
</g>
<!-- Node10 -->
<g id="node10" class="node"><title>Node10</title>
<g id="a_node10"><a xlink:href="../../d1/de3/classcommands_1_1_hide_turtle_command.html" target="_top" xlink:title="commands.HideTurtleCommand">
<polygon fill="white" stroke="black" points="375.5,-532.5 375.5,-551.5 546.5,-551.5 546.5,-532.5 375.5,-532.5"/>
<text text-anchor="middle" x="461" y="-539.5" font-family="Helvetica,sans-Serif" font-size="10.00">commands.HideTurtleCommand</text>
</a>
</g>
</g>
<!-- Node1&#45;&gt;Node10 -->
<g id="edge9" class="edge"><title>Node1&#45;&gt;Node10</title>
<path fill="none" stroke="midnightblue" d="M260.542,-426.923C280.905,-452.509 321.962,-499.053 368,-523 375.524,-526.914 383.787,-530.021 392.179,-532.489"/>
<polygon fill="midnightblue" stroke="midnightblue" points="263.135,-424.556 254.229,-418.818 257.613,-428.858 263.135,-424.556"/>
</g>
<!-- Node11 -->
<g id="node11" class="node"><title>Node11</title>
<g id="a_node11"><a xlink:href="../../dd/d40/classcommands_1_1_home_command.html" target="_top" xlink:title="commands.HomeCommand">
<polygon fill="white" stroke="black" points="384.5,-494.5 384.5,-513.5 537.5,-513.5 537.5,-494.5 384.5,-494.5"/>
<text text-anchor="middle" x="461" y="-501.5" font-family="Helvetica,sans-Serif" font-size="10.00">commands.HomeCommand</text>
</a>
</g>
</g>
<!-- Node1&#45;&gt;Node11 -->
<g id="edge10" class="edge"><title>Node1&#45;&gt;Node11</title>
<path fill="none" stroke="midnightblue" d="M266.891,-424.66C289.923,-442.012 329.631,-469.575 368,-485 377.533,-488.833 387.946,-491.929 398.228,-494.421"/>
<polygon fill="midnightblue" stroke="midnightblue" points="268.985,-421.855 258.917,-418.556 264.73,-427.414 268.985,-421.855"/>
</g>
<!-- Node12 -->
<g id="node12" class="node"><title>Node12</title>
<g id="a_node12"><a xlink:href="../../d9/dce/classcommands_1_1_i_d_command.html" target="_top" xlink:title="commands.IDCommand">
<polygon fill="white" stroke="black" points="394,-456.5 394,-475.5 528,-475.5 528,-456.5 394,-456.5"/>
<text text-anchor="middle" x="461" y="-463.5" font-family="Helvetica,sans-Serif" font-size="10.00">commands.IDCommand</text>
</a>
</g>
</g>
<!-- Node1&#45;&gt;Node12 -->
<g id="edge11" class="edge"><title>Node1&#45;&gt;Node12</title>
<path fill="none" stroke="midnightblue" d="M284.326,-421.792C308.103,-429.673 339.655,-439.642 368,-447 381.26,-450.442 395.724,-453.671 409.173,-456.456"/>
<polygon fill="midnightblue" stroke="midnightblue" points="285.238,-418.406 274.645,-418.555 283.019,-425.045 285.238,-418.406"/>
</g>
<!-- Node13 -->
<g id="node13" class="node"><title>Node13</title>
<g id="a_node13"><a xlink:href="../../d8/dc0/classcommands_1_1_is_pen_down_command.html" target="_top" xlink:title="commands.IsPenDownCommand">
<polygon fill="white" stroke="black" points="373,-418.5 373,-437.5 549,-437.5 549,-418.5 373,-418.5"/>
<text text-anchor="middle" x="461" y="-425.5" font-family="Helvetica,sans-Serif" font-size="10.00">commands.IsPenDownCommand</text>
</a>
</g>
</g>
<!-- Node1&#45;&gt;Node13 -->
<g id="edge12" class="edge"><title>Node1&#45;&gt;Node13</title>
<path fill="none" stroke="midnightblue" d="M341.965,-417.471C352.196,-418.384 362.572,-419.309 372.707,-420.213"/>
<polygon fill="midnightblue" stroke="midnightblue" points="342.067,-413.966 331.795,-416.564 341.445,-420.939 342.067,-413.966"/>
</g>
<!-- Node14 -->
<g id="node14" class="node"><title>Node14</title>
<g id="a_node14"><a xlink:href="../../de/d65/classcommands_1_1_is_showing_command.html" target="_top" xlink:title="commands.IsShowingCommand">
<polygon fill="white" stroke="black" points="375.5,-380.5 375.5,-399.5 546.5,-399.5 546.5,-380.5 375.5,-380.5"/>
<text text-anchor="middle" x="461" y="-387.5" font-family="Helvetica,sans-Serif" font-size="10.00">commands.IsShowingCommand</text>
</a>
</g>
</g>
<!-- Node1&#45;&gt;Node14 -->
<g id="edge13" class="edge"><title>Node1&#45;&gt;Node14</title>
<path fill="none" stroke="midnightblue" d="M341.987,-400.527C353.152,-399.531 364.488,-398.52 375.496,-397.538"/>
<polygon fill="midnightblue" stroke="midnightblue" points="341.445,-397.061 331.795,-401.436 342.067,-404.034 341.445,-397.061"/>
</g>
<!-- Node15 -->
<g id="node15" class="node"><title>Node15</title>
<g id="a_node15"><a xlink:href="../../da/d64/classcommands_1_1_list_command.html" target="_top" xlink:title="commands.ListCommand">
<polygon fill="white" stroke="black" points="391,-342.5 391,-361.5 531,-361.5 531,-342.5 391,-342.5"/>
<text text-anchor="middle" x="461" y="-349.5" font-family="Helvetica,sans-Serif" font-size="10.00">commands.ListCommand</text>
</a>
</g>
</g>
<!-- Node1&#45;&gt;Node15 -->
<g id="edge14" class="edge"><title>Node1&#45;&gt;Node15</title>
<path fill="none" stroke="midnightblue" d="M284.326,-396.208C308.103,-388.327 339.655,-378.358 368,-371 381.26,-367.558 395.724,-364.329 409.173,-361.544"/>
<polygon fill="midnightblue" stroke="midnightblue" points="283.019,-392.955 274.645,-399.445 285.238,-399.594 283.019,-392.955"/>
</g>
<!-- Node16 -->
<g id="node16" class="node"><title>Node16</title>
<g id="a_node16"><a xlink:href="../../d4/d25/classcommands_1_1_pen_down_command.html" target="_top" xlink:title="commands.PenDownCommand">
<polygon fill="white" stroke="black" points="377,-304.5 377,-323.5 545,-323.5 545,-304.5 377,-304.5"/>
<text text-anchor="middle" x="461" y="-311.5" font-family="Helvetica,sans-Serif" font-size="10.00">commands.PenDownCommand</text>
</a>
</g>
</g>
<!-- Node1&#45;&gt;Node16 -->
<g id="edge15" class="edge"><title>Node1&#45;&gt;Node16</title>
<path fill="none" stroke="midnightblue" d="M266.891,-393.34C289.923,-375.988 329.631,-348.425 368,-333 377.533,-329.167 387.946,-326.071 398.228,-323.579"/>
<polygon fill="midnightblue" stroke="midnightblue" points="264.73,-390.586 258.917,-399.444 268.985,-396.145 264.73,-390.586"/>
</g>
<!-- Node17 -->
<g id="node17" class="node"><title>Node17</title>
<g id="a_node17"><a xlink:href="../../d1/d5d/classcommands_1_1_pen_up_command.html" target="_top" xlink:title="commands.PenUpCommand">
<polygon fill="white" stroke="black" points="383.5,-266.5 383.5,-285.5 538.5,-285.5 538.5,-266.5 383.5,-266.5"/>
<text text-anchor="middle" x="461" y="-273.5" font-family="Helvetica,sans-Serif" font-size="10.00">commands.PenUpCommand</text>
</a>
</g>
</g>
<!-- Node1&#45;&gt;Node17 -->
<g id="edge16" class="edge"><title>Node1&#45;&gt;Node17</title>
<path fill="none" stroke="midnightblue" d="M260.542,-391.077C280.905,-365.491 321.962,-318.947 368,-295 375.524,-291.086 383.787,-287.979 392.179,-285.511"/>
<polygon fill="midnightblue" stroke="midnightblue" points="257.613,-389.142 254.229,-399.182 263.135,-393.444 257.613,-389.142"/>
</g>
<!-- Node18 -->
<g id="node18" class="node"><title>Node18</title>
<g id="a_node18"><a xlink:href="../../d1/d04/classcommands_1_1_pi_command.html" target="_top" xlink:title="commands.PiCommand">
<polygon fill="white" stroke="black" points="395,-228.5 395,-247.5 527,-247.5 527,-228.5 395,-228.5"/>
<text text-anchor="middle" x="461" y="-235.5" font-family="Helvetica,sans-Serif" font-size="10.00">commands.PiCommand</text>
</a>
</g>
</g>
<!-- Node1&#45;&gt;Node18 -->
<g id="edge17" class="edge"><title>Node1&#45;&gt;Node18</title>
<path fill="none" stroke="midnightblue" d="M256.255,-390.285C273.447,-357.608 313.572,-290.45 368,-257 376.198,-251.962 385.504,-248.237 394.972,-245.487"/>
<polygon fill="midnightblue" stroke="midnightblue" points="253.11,-388.748 251.665,-399.243 259.34,-391.939 253.11,-388.748"/>
</g>
<!-- Node19 -->
<g id="node19" class="node"><title>Node19</title>
<g id="a_node19"><a xlink:href="../../dd/d34/classcommands_1_1_set_palette_command.html" target="_top" xlink:title="commands.SetPaletteCommand">
<polygon fill="white" stroke="black" points="374.5,-190.5 374.5,-209.5 547.5,-209.5 547.5,-190.5 374.5,-190.5"/>
<text text-anchor="middle" x="461" y="-197.5" font-family="Helvetica,sans-Serif" font-size="10.00">commands.SetPaletteCommand</text>
</a>
</g>
</g>
<!-- Node1&#45;&gt;Node19 -->
<g id="edge18" class="edge"><title>Node1&#45;&gt;Node19</title>
<path fill="none" stroke="midnightblue" d="M253.51,-389.518C267.642,-350.42 305.024,-262.427 368,-219 373.505,-215.204 379.606,-212.137 385.972,-209.662"/>
<polygon fill="midnightblue" stroke="midnightblue" points="250.132,-388.577 250.139,-399.172 256.74,-390.885 250.132,-388.577"/>
</g>
<!-- Node20 -->
<g id="node20" class="node"><title>Node20</title>
<g id="a_node20"><a xlink:href="../../d6/dc7/classcommands_1_1_show_turtle_command.html" target="_top" xlink:title="commands.ShowTurtleCommand">
<polygon fill="white" stroke="black" points="373.5,-152.5 373.5,-171.5 548.5,-171.5 548.5,-152.5 373.5,-152.5"/>
<text text-anchor="middle" x="461" y="-159.5" font-family="Helvetica,sans-Serif" font-size="10.00">commands.ShowTurtleCommand</text>
</a>
</g>
</g>
<!-- Node1&#45;&gt;Node20 -->
<g id="edge19" class="edge"><title>Node1&#45;&gt;Node20</title>
<path fill="none" stroke="midnightblue" d="M251.381,-389.411C262.45,-344.736 295.941,-235.019 368,-181 373.089,-177.185 378.763,-174.091 384.725,-171.588"/>
<polygon fill="midnightblue" stroke="midnightblue" points="247.939,-388.756 249.04,-399.294 254.751,-390.37 247.939,-388.756"/>
</g>
<!-- Node21 -->
<g id="node21" class="node"><title>Node21</title>
<g id="a_node21"><a xlink:href="../../dc/dba/classcommands_1_1_stamp_command.html" target="_top" xlink:title="commands.StampCommand">
<polygon fill="white" stroke="black" points="383,-114.5 383,-133.5 539,-133.5 539,-114.5 383,-114.5"/>
<text text-anchor="middle" x="461" y="-121.5" font-family="Helvetica,sans-Serif" font-size="10.00">commands.StampCommand</text>
</a>
</g>
</g>
<!-- Node1&#45;&gt;Node21 -->
<g id="edge20" class="edge"><title>Node1&#45;&gt;Node21</title>
<path fill="none" stroke="midnightblue" d="M249.813,-389.283C258.017,-339.466 286.712,-207.902 368,-143 372.716,-139.235 377.99,-136.161 383.563,-133.658"/>
<polygon fill="midnightblue" stroke="midnightblue" points="246.323,-388.949 248.253,-399.366 253.241,-390.019 246.323,-388.949"/>
</g>
<!-- Node22 -->
<g id="node22" class="node"><title>Node22</title>
<g id="a_node22"><a xlink:href="../../d9/de1/classcommands_1_1_variable_command.html" target="_top" xlink:title="commands.VariableCommand">
<polygon fill="white" stroke="black" points="380,-76.5 380,-95.5 542,-95.5 542,-76.5 380,-76.5"/>
<text text-anchor="middle" x="461" y="-83.5" font-family="Helvetica,sans-Serif" font-size="10.00">commands.VariableCommand</text>
</a>
</g>
</g>
<!-- Node1&#45;&gt;Node22 -->
<g id="edge21" class="edge"><title>Node1&#45;&gt;Node22</title>
<path fill="none" stroke="midnightblue" d="M248.566,-389.47C254.024,-335.128 277.179,-181.16 368,-105 372.499,-101.227 377.552,-98.14 382.914,-95.6199"/>
<polygon fill="midnightblue" stroke="midnightblue" points="245.075,-389.213 247.652,-399.49 252.046,-389.849 245.075,-389.213"/>
</g>
<!-- Node23 -->
<g id="node23" class="node"><title>Node23</title>
<g id="a_node23"><a xlink:href="../../da/dcf/classcommands_1_1_x_coordinate_command.html" target="_top" xlink:title="commands.XCoordinateCommand">
<polygon fill="white" stroke="black" points="370,-38.5 370,-57.5 552,-57.5 552,-38.5 370,-38.5"/>
<text text-anchor="middle" x="461" y="-45.5" font-family="Helvetica,sans-Serif" font-size="10.00">commands.XCoordinateCommand</text>
</a>
</g>
</g>
<!-- Node1&#45;&gt;Node23 -->
<g id="edge22" class="edge"><title>Node1&#45;&gt;Node23</title>
<path fill="none" stroke="midnightblue" d="M247.621,-389.057C250.6,-329.937 267.876,-154.32 368,-67 372.302,-63.2481 377.147,-60.167 382.307,-57.6433"/>
<polygon fill="midnightblue" stroke="midnightblue" points="244.115,-389.13 247.195,-399.267 251.109,-389.422 244.115,-389.13"/>
</g>
<!-- Node24 -->
<g id="node24" class="node"><title>Node24</title>
<g id="a_node24"><a xlink:href="../../df/d28/classcommands_1_1_y_coordinate_command.html" target="_top" xlink:title="commands.YCoordinateCommand">
<polygon fill="white" stroke="black" points="370.5,-0.5 370.5,-19.5 551.5,-19.5 551.5,-0.5 370.5,-0.5"/>
<text text-anchor="middle" x="461" y="-7.5" font-family="Helvetica,sans-Serif" font-size="10.00">commands.YCoordinateCommand</text>
</a>
</g>
</g>
<!-- Node1&#45;&gt;Node24 -->
<g id="edge23" class="edge"><title>Node1&#45;&gt;Node24</title>
<path fill="none" stroke="midnightblue" d="M246.817,-388.995C247.396,-325.641 258.294,-127.79 368,-29 372.121,-25.2893 376.77,-22.2292 381.734,-19.7122"/>
<polygon fill="midnightblue" stroke="midnightblue" points="243.317,-389.202 246.808,-399.205 250.317,-389.209 243.317,-389.202"/>
</g>
<!-- Node2 -->
<g id="node2" class="node"><title>Node2</title>
<g id="a_node2"><a xlink:href="../../dd/dd6/classcommands_1_1_command.html" target="_top" xlink:title="commands.Command">
<polygon fill="white" stroke="black" points="0,-399.5 0,-418.5 124,-418.5 124,-399.5 0,-399.5"/>
<text text-anchor="middle" x="62" y="-406.5" font-family="Helvetica,sans-Serif" font-size="10.00">commands.Command</text>
</a>
</g>
</g>
<!-- Node2&#45;&gt;Node1 -->
<g id="edge1" class="edge"><title>Node2&#45;&gt;Node1</title>
<path fill="none" stroke="midnightblue" d="M134.111,-409C142.745,-409 151.631,-409 160.436,-409"/>
<polygon fill="midnightblue" stroke="midnightblue" points="134.11,-405.5 124.11,-409 134.11,-412.5 134.11,-405.5"/>
</g>
</g>
</svg>
        <g id="navigator" transform="translate(0 0)" fill="#404254">
                <rect fill="#f2f5e9" fill-opacity="0.5" stroke="#606060" stroke-width=".5" x="0" y="0" width="60" height="60"/>
                <use id="zoomplus" xlink:href="#zoomPlus" x="17" y="9" onmousedown="handleZoom(evt,'in')"/>
                <use id="zoomminus" xlink:href="#zoomMin" x="42" y="9" onmousedown="handleZoom(evt,'out')"/>
                <use id="reset" xlink:href="#resetDef" x="30" y="36" onmousedown="handleReset()"/>
                <g id="arrowUp" xlink:href="#dirArrow" transform="translate(30 24)" onmousedown="handlePan(0,-1)">
                  <use xlink:href="#rim" fill="#404040">
                        <set attributeName="fill" to="#808080" begin="arrowUp.mouseover" end="arrowUp.mouseout"/>
                  </use>
                  <path fill="none" stroke="white" stroke-width="1.5" d="M0,-3.0v7 M-2.5,-0.5L0,-3.0L2.5,-0.5"/>
                </g>
                <g id="arrowRight" xlink:href="#dirArrow" transform="rotate(90) translate(36 -43)" onmousedown="handlePan(1,0)">
                  <use xlink:href="#rim" fill="#404040">
                        <set attributeName="fill" to="#808080" begin="arrowRight.mouseover" end="arrowRight.mouseout"/>
                  </use>
                  <path fill="none" stroke="white" stroke-width="1.5" d="M0,-3.0v7 M-2.5,-0.5L0,-3.0L2.5,-0.5"/>
                </g>
                <g id="arrowDown" xlink:href="#dirArrow" transform="rotate(180) translate(-30 -48)" onmousedown="handlePan(0,1)">
                  <use xlink:href="#rim" fill="#404040">
                        <set attributeName="fill" to="#808080" begin="arrowDown.mouseover" end="arrowDown.mouseout"/>
                  </use>
                  <path fill="none" stroke="white" stroke-width="1.5" d="M0,-3.0v7 M-2.5,-0.5L0,-3.0L2.5,-0.5"/>
                </g>
                <g id="arrowLeft" xlink:href="#dirArrow" transform="rotate(270) translate(-36 17)" onmousedown="handlePan(-1,0)">
                  <use xlink:href="#rim" fill="#404040">
                        <set attributeName="fill" to="#808080" begin="arrowLeft.mouseover" end="arrowLeft.mouseout"/>
                  </use>
                  <path fill="none" stroke="white" stroke-width="1.5" d="M0,-3.0v7 M-2.5,-0.5L0,-3.0L2.5,-0.5"/>
                </g>
        </g>
        <svg viewBox="0 0 15 15" width="100%" height="30px" preserveAspectRatio="xMaxYMin meet">
         <g id="arrow_out" transform="scale(0.3 0.3)">
          <a xlink:href="classcommands_1_1_zero_input_command__inherit__graph_org.svg" target="_base">
           <rect id="button" ry="5" rx="5" y="6" x="6" height="38" width="38"
                fill="#f2f5e9" fill-opacity="0.5" stroke="#606060" stroke-width="1.0"/>
           <path id="arrow"
             d="M 11.500037,31.436501 C 11.940474,20.09759 22.043105,11.32322 32.158766,21.979434 L 37.068811,17.246167 C 37.068811,17.246167 37.088388,32 37.088388,32 L 22.160133,31.978069 C 22.160133,31.978069 26.997745,27.140456 26.997745,27.140456 C 18.528582,18.264221 13.291696,25.230495 11.500037,31.436501 z"
             style="fill:#404040;"/>
          </a>
         </g>
        </svg>
</svg>
