<?xml version="1.0" encoding="UTF-8" standalone="no"?>
<!DOCTYPE svg PUBLIC "-//W3C//DTD SVG 1.1//EN"
 "http://www.w3.org/Graphics/SVG/1.1/DTD/svg11.dtd">
<!-- Generated by graphviz version 2.36.0 (20140111.2315)
 -->
<!-- Title: view.panes.TurtleSelectorPane.TurtleSelectorPane Pages: 1 -->
<svg width="1238pt" height="704pt"
 viewBox="0.00 0.00 1238.00 704.00" xmlns="http://www.w3.org/2000/svg" xmlns:xlink="http://www.w3.org/1999/xlink">
<g id="graph0" class="graph" transform="scale(1 1) rotate(0) translate(4 700)">
<title>view.panes.TurtleSelectorPane.TurtleSelectorPane</title>
<polygon fill="white" stroke="none" points="-4,4 -4,-700 1234,-700 1234,4 -4,4"/>
<!-- Node1 -->
<g id="node1" class="node"><title>Node1</title>
<polygon fill="#bfbfbf" stroke="black" points="0.5,-442 0.5,-472 137.5,-472 137.5,-442 0.5,-442"/>
<text text-anchor="start" x="8.5" y="-460" font-family="Helvetica,sans-Serif" font-size="10.00">view.panes.TurtleSelector</text>
<text text-anchor="middle" x="69" y="-449" font-family="Helvetica,sans-Serif" font-size="10.00">Pane.TurtleSelectorPane</text>
</g>
<!-- Node2 -->
<g id="node2" class="node"><title>Node2</title>
<g id="a_node2"><a xlink:href="../../db/db5/classview_1_1panes_1_1_view_pane_module.html#a200bd9d0cb7f1fb3482afb7f085939cd" target="_top" xlink:title="view.panes.ViewPaneModule.toggle\lActive">
<polygon fill="white" stroke="black" points="174,-442 174,-472 358,-472 358,-442 174,-442"/>
<text text-anchor="start" x="182" y="-460" font-family="Helvetica,sans-Serif" font-size="10.00">view.panes.ViewPaneModule.toggle</text>
<text text-anchor="middle" x="266" y="-449" font-family="Helvetica,sans-Serif" font-size="10.00">Active</text>
</a>
</g>
</g>
<!-- Node1&#45;&gt;Node2 -->
<g id="edge1" class="edge"><title>Node1&#45;&gt;Node2</title>
<path fill="none" stroke="midnightblue" d="M137.654,-457C146.035,-457 154.741,-457 163.491,-457"/>
<polygon fill="midnightblue" stroke="midnightblue" points="163.765,-460.5 173.765,-457 163.765,-453.5 163.765,-460.5"/>
</g>
<!-- Node3 -->
<g id="node3" class="node"><title>Node3</title>
<g id="a_node3"><a xlink:href="../../db/db5/classview_1_1panes_1_1_view_pane_module.html#aa2a1bf15bc036ee4237bf63749d85baf" target="_top" xlink:title="view.panes.ViewPaneModule.updateView">
<polygon fill="white" stroke="black" points="394.5,-447.5 394.5,-466.5 603.5,-466.5 603.5,-447.5 394.5,-447.5"/>
<text text-anchor="middle" x="499" y="-454.5" font-family="Helvetica,sans-Serif" font-size="10.00">view.panes.ViewPaneModule.updateView</text>
</a>
</g>
</g>
<!-- Node2&#45;&gt;Node3 -->
<g id="edge2" class="edge"><title>Node2&#45;&gt;Node3</title>
<path fill="none" stroke="midnightblue" d="M358.297,-457C366.818,-457 375.522,-457 384.213,-457"/>
<polygon fill="midnightblue" stroke="midnightblue" points="384.399,-460.5 394.398,-457 384.398,-453.5 384.399,-460.5"/>
</g>
<!-- Node4 -->
<g id="node4" class="node"><title>Node4</title>
<g id="a_node4"><a xlink:href="../../d3/d42/classmodel_1_1_model.html#a54936407d7df5ab8ef3c0ae54bcdc0ed" target="_top" xlink:title="model.Model.getBackground\lColor">
<polygon fill="white" stroke="black" points="657,-666 657,-696 811,-696 811,-666 657,-666"/>
<text text-anchor="start" x="665" y="-684" font-family="Helvetica,sans-Serif" font-size="10.00">model.Model.getBackground</text>
<text text-anchor="middle" x="734" y="-673" font-family="Helvetica,sans-Serif" font-size="10.00">Color</text>
</a>
</g>
</g>
<!-- Node3&#45;&gt;Node4 -->
<g id="edge3" class="edge"><title>Node3&#45;&gt;Node4</title>
<path fill="none" stroke="midnightblue" d="M503.895,-466.674C517.411,-498.969 565.568,-603.96 640,-656 642.74,-657.916 645.62,-659.685 648.601,-661.319"/>
<polygon fill="midnightblue" stroke="midnightblue" points="647.287,-664.572 657.808,-665.824 650.364,-658.285 647.287,-664.572"/>
</g>
<!-- Node5 -->
<g id="node5" class="node"><title>Node5</title>
<g id="a_node5"><a xlink:href="../../db/db5/classview_1_1panes_1_1_view_pane_module.html#ac94ee444587349ddad19b8caee500c9c" target="_top" xlink:title="view.panes.ViewPaneModule.update\lBGColor">
<polygon fill="white" stroke="black" points="640,-617 640,-647 828,-647 828,-617 640,-617"/>
<text text-anchor="start" x="648" y="-635" font-family="Helvetica,sans-Serif" font-size="10.00">view.panes.ViewPaneModule.update</text>
<text text-anchor="middle" x="734" y="-624" font-family="Helvetica,sans-Serif" font-size="10.00">BGColor</text>
</a>
</g>
</g>
<!-- Node3&#45;&gt;Node5 -->
<g id="edge4" class="edge"><title>Node3&#45;&gt;Node5</title>
<path fill="none" stroke="midnightblue" d="M506.222,-466.817C523.764,-493.662 576.496,-568.827 640,-607 643.627,-609.18 647.446,-611.174 651.384,-612.996"/>
<polygon fill="midnightblue" stroke="midnightblue" points="650.178,-616.286 660.752,-616.945 652.897,-609.836 650.178,-616.286"/>
</g>
<!-- Node6 -->
<g id="node6" class="node"><title>Node6</title>
<g id="a_node6"><a xlink:href="../../db/db5/classview_1_1panes_1_1_view_pane_module.html#abe91f8bb732e99d762bdaba51ceae04b" target="_top" xlink:title="view.panes.ViewPaneModule.toRGB">
<polygon fill="white" stroke="black" points="642,-578.5 642,-597.5 826,-597.5 826,-578.5 642,-578.5"/>
<text text-anchor="middle" x="734" y="-585.5" font-family="Helvetica,sans-Serif" font-size="10.00">view.panes.ViewPaneModule.toRGB</text>
</a>
</g>
</g>
<!-- Node3&#45;&gt;Node6 -->
<g id="edge5" class="edge"><title>Node3&#45;&gt;Node6</title>
<path fill="none" stroke="midnightblue" d="M508.764,-466.612C529.35,-488.55 583.346,-542.457 640,-569 645.354,-571.508 651.033,-573.686 656.842,-575.578"/>
<polygon fill="midnightblue" stroke="midnightblue" points="656.123,-579.015 666.705,-578.499 658.111,-572.303 656.123,-579.015"/>
</g>
<!-- Node7 -->
<g id="node7" class="node"><title>Node7</title>
<g id="a_node7"><a xlink:href="../../d3/d42/classmodel_1_1_model.html#a1a683ba5e58fcb3c8882c8e61df20dc0" target="_top" xlink:title="model.Model.getTurtleManager">
<polygon fill="white" stroke="black" points="652,-540.5 652,-559.5 816,-559.5 816,-540.5 652,-540.5"/>
<text text-anchor="middle" x="734" y="-547.5" font-family="Helvetica,sans-Serif" font-size="10.00">model.Model.getTurtleManager</text>
</a>
</g>
</g>
<!-- Node3&#45;&gt;Node7 -->
<g id="edge6" class="edge"><title>Node3&#45;&gt;Node7</title>
<path fill="none" stroke="midnightblue" d="M514.921,-466.508C539.867,-482.002 592.041,-512.698 640,-530 648.556,-533.087 657.736,-535.771 666.874,-538.083"/>
<polygon fill="midnightblue" stroke="midnightblue" points="666.202,-541.521 676.743,-540.448 667.833,-534.714 666.202,-541.521"/>
</g>
<!-- Node8 -->
<g id="node8" class="node"><title>Node8</title>
<g id="a_node8"><a xlink:href="../../df/d50/classmodel_1_1_turtle_set_manager.html#a9a65c0be3b9c21abaf0ebaa54e5b8484" target="_top" xlink:title="model.TurtleSetManager.get\lActiveTurtles">
<polygon fill="white" stroke="black" points="658,-491 658,-521 810,-521 810,-491 658,-491"/>
<text text-anchor="start" x="666" y="-509" font-family="Helvetica,sans-Serif" font-size="10.00">model.TurtleSetManager.get</text>
<text text-anchor="middle" x="734" y="-498" font-family="Helvetica,sans-Serif" font-size="10.00">ActiveTurtles</text>
</a>
</g>
</g>
<!-- Node3&#45;&gt;Node8 -->
<g id="edge7" class="edge"><title>Node3&#45;&gt;Node8</title>
<path fill="none" stroke="midnightblue" d="M545.201,-466.506C575.322,-472.84 615.774,-481.347 651.42,-488.844"/>
<polygon fill="midnightblue" stroke="midnightblue" points="650.828,-492.296 661.335,-490.929 652.269,-485.446 650.828,-492.296"/>
</g>
<!-- Node9 -->
<g id="node9" class="node"><title>Node9</title>
<g id="a_node9"><a xlink:href="../../df/d50/classmodel_1_1_turtle_set_manager.html#a9e215e93eccbed2ab9ebec6119cfe305" target="_top" xlink:title="model.TurtleSetManager.get\lAllTurtles">
<polygon fill="white" stroke="black" points="658,-442 658,-472 810,-472 810,-442 658,-442"/>
<text text-anchor="start" x="666" y="-460" font-family="Helvetica,sans-Serif" font-size="10.00">model.TurtleSetManager.get</text>
<text text-anchor="middle" x="734" y="-449" font-family="Helvetica,sans-Serif" font-size="10.00">AllTurtles</text>
</a>
</g>
</g>
<!-- Node3&#45;&gt;Node9 -->
<g id="edge8" class="edge"><title>Node3&#45;&gt;Node9</title>
<path fill="none" stroke="midnightblue" d="M603.554,-457C618.224,-457 633.172,-457 647.451,-457"/>
<polygon fill="midnightblue" stroke="midnightblue" points="647.716,-460.5 657.716,-457 647.716,-453.5 647.716,-460.5"/>
</g>
<!-- Node10 -->
<g id="node10" class="node"><title>Node10</title>
<g id="a_node10"><a xlink:href="../../d3/d42/classmodel_1_1_model.html#af73e838aed2c068e8f7d31bfa1cc88d7" target="_top" xlink:title="model.Model.getStamp">
<polygon fill="white" stroke="black" points="669.5,-403.5 669.5,-422.5 798.5,-422.5 798.5,-403.5 669.5,-403.5"/>
<text text-anchor="middle" x="734" y="-410.5" font-family="Helvetica,sans-Serif" font-size="10.00">model.Model.getStamp</text>
</a>
</g>
</g>
<!-- Node3&#45;&gt;Node10 -->
<g id="edge9" class="edge"><title>Node3&#45;&gt;Node10</title>
<path fill="none" stroke="midnightblue" d="M550.558,-447.453C586.433,-440.678 634.75,-431.554 672.647,-424.397"/>
<polygon fill="midnightblue" stroke="midnightblue" points="673.364,-427.824 682.541,-422.529 672.065,-420.945 673.364,-427.824"/>
</g>
<!-- Node11 -->
<g id="node11" class="node"><title>Node11</title>
<g id="a_node11"><a xlink:href="../../db/db5/classview_1_1panes_1_1_view_pane_module.html#a44db6ae832af3ce470baa9406142b8cb" target="_top" xlink:title="view.panes.ViewPaneModule.make\lStamps">
<polygon fill="white" stroke="black" points="643.5,-354 643.5,-384 824.5,-384 824.5,-354 643.5,-354"/>
<text text-anchor="start" x="651.5" y="-372" font-family="Helvetica,sans-Serif" font-size="10.00">view.panes.ViewPaneModule.make</text>
<text text-anchor="middle" x="734" y="-361" font-family="Helvetica,sans-Serif" font-size="10.00">Stamps</text>
</a>
</g>
</g>
<!-- Node3&#45;&gt;Node11 -->
<g id="edge10" class="edge"><title>Node3&#45;&gt;Node11</title>
<path fill="none" stroke="midnightblue" d="M518.626,-447.459C545.087,-434.174 595.317,-409.944 640,-394 646.929,-391.528 654.223,-389.167 661.552,-386.952"/>
<polygon fill="midnightblue" stroke="midnightblue" points="662.926,-390.197 671.538,-384.026 660.957,-383.479 662.926,-390.197"/>
</g>
<!-- Node18 -->
<g id="node18" class="node"><title>Node18</title>
<g id="a_node18"><a xlink:href="../../d3/d42/classmodel_1_1_model.html#a0a457f31350a460e11dc864463e0d8ff" target="_top" xlink:title="model.Model.setStamp">
<polygon fill="white" stroke="black" points="670,-217.5 670,-236.5 798,-236.5 798,-217.5 670,-217.5"/>
<text text-anchor="middle" x="734" y="-224.5" font-family="Helvetica,sans-Serif" font-size="10.00">model.Model.setStamp</text>
</a>
</g>
</g>
<!-- Node3&#45;&gt;Node18 -->
<g id="edge17" class="edge"><title>Node3&#45;&gt;Node18</title>
<path fill="none" stroke="midnightblue" d="M503.419,-447.044C515.728,-412.804 561.268,-299.088 640,-246 646.106,-241.883 652.914,-238.624 659.993,-236.05"/>
<polygon fill="midnightblue" stroke="midnightblue" points="661.3,-239.307 669.773,-232.947 659.183,-232.635 661.3,-239.307"/>
</g>
<!-- Node19 -->
<g id="node19" class="node"><title>Node19</title>
<g id="a_node19"><a xlink:href="../../db/db5/classview_1_1panes_1_1_view_pane_module.html#a7ad9ad27137ffdf0ea96753a22da236b" target="_top" xlink:title="view.panes.ViewPaneModule.erase\lStamps">
<polygon fill="white" stroke="black" points="643.5,-305 643.5,-335 824.5,-335 824.5,-305 643.5,-305"/>
<text text-anchor="start" x="651.5" y="-323" font-family="Helvetica,sans-Serif" font-size="10.00">view.panes.ViewPaneModule.erase</text>
<text text-anchor="middle" x="734" y="-312" font-family="Helvetica,sans-Serif" font-size="10.00">Stamps</text>
</a>
</g>
</g>
<!-- Node3&#45;&gt;Node19 -->
<g id="edge18" class="edge"><title>Node3&#45;&gt;Node19</title>
<path fill="none" stroke="midnightblue" d="M508.842,-447.498C529.592,-425.778 583.907,-372.199 640,-344 643.771,-342.104 647.706,-340.349 651.735,-338.724"/>
<polygon fill="midnightblue" stroke="midnightblue" points="653.127,-341.941 661.274,-335.167 650.681,-335.382 653.127,-341.941"/>
</g>
<!-- Node21 -->
<g id="node21" class="node"><title>Node21</title>
<g id="a_node21"><a xlink:href="../../db/db5/classview_1_1panes_1_1_view_pane_module.html#ab55ce3511929b88a2cd1235eb694868f" target="_top" xlink:title="view.panes.ViewPaneModule.update\lTurtle">
<polygon fill="white" stroke="black" points="640,-256 640,-286 828,-286 828,-256 640,-256"/>
<text text-anchor="start" x="648" y="-274" font-family="Helvetica,sans-Serif" font-size="10.00">view.panes.ViewPaneModule.update</text>
<text text-anchor="middle" x="734" y="-263" font-family="Helvetica,sans-Serif" font-size="10.00">Turtle</text>
</a>
</g>
</g>
<!-- Node3&#45;&gt;Node21 -->
<g id="edge20" class="edge"><title>Node3&#45;&gt;Node21</title>
<path fill="none" stroke="midnightblue" d="M505.511,-447.174C521.955,-418.802 573.669,-336.156 640,-295 642.763,-293.286 645.645,-291.693 648.611,-290.214"/>
<polygon fill="midnightblue" stroke="midnightblue" points="650.048,-293.405 657.729,-286.108 647.174,-287.023 650.048,-293.405"/>
</g>
<!-- Node12 -->
<g id="node12" class="node"><title>Node12</title>
<g id="a_node12"><a xlink:href="../../d7/da6/classview_1_1_turtle_draw.html#a939f4fdbdb66457c9dcee82eb4ae6d9c" target="_top" xlink:title="view.TurtleDraw.drawTurtle">
<polygon fill="white" stroke="black" points="872.5,-418.5 872.5,-437.5 1011.5,-437.5 1011.5,-418.5 872.5,-418.5"/>
<text text-anchor="middle" x="942" y="-425.5" font-family="Helvetica,sans-Serif" font-size="10.00">view.TurtleDraw.drawTurtle</text>
</a>
</g>
</g>
<!-- Node11&#45;&gt;Node12 -->
<g id="edge11" class="edge"><title>Node11&#45;&gt;Node12</title>
<path fill="none" stroke="midnightblue" d="M795.881,-384.125C806.656,-387.154 817.714,-390.492 828,-394 844.405,-399.595 847.538,-403.575 864,-409 871.624,-411.512 879.768,-413.866 887.801,-416.003"/>
<polygon fill="midnightblue" stroke="midnightblue" points="886.945,-419.396 897.501,-418.497 888.688,-412.617 886.945,-419.396"/>
</g>
<!-- Node15 -->
<g id="node15" class="node"><title>Node15</title>
<g id="a_node15"><a xlink:href="../../d7/da6/classview_1_1_turtle_draw.html#a14678068d3fc9d3b6e1067bc372f6030" target="_top" xlink:title="view.TurtleDraw.showTurtle">
<polygon fill="white" stroke="black" points="872,-380.5 872,-399.5 1012,-399.5 1012,-380.5 872,-380.5"/>
<text text-anchor="middle" x="942" y="-387.5" font-family="Helvetica,sans-Serif" font-size="10.00">view.TurtleDraw.showTurtle</text>
</a>
</g>
</g>
<!-- Node11&#45;&gt;Node15 -->
<g id="edge14" class="edge"><title>Node11&#45;&gt;Node15</title>
<path fill="none" stroke="midnightblue" d="M824.755,-378.15C837.122,-379.411 849.748,-380.698 861.904,-381.937"/>
<polygon fill="midnightblue" stroke="midnightblue" points="861.685,-385.433 871.989,-382.965 862.395,-378.469 861.685,-385.433"/>
</g>
<!-- Node16 -->
<g id="node16" class="node"><title>Node16</title>
<g id="a_node16"><a xlink:href="../../d7/da6/classview_1_1_turtle_draw.html#a8c2cab38eb294b26aea1ae17595ba2a6" target="_top" xlink:title="view.TurtleDraw.moveTurtle">
<polygon fill="white" stroke="black" points="870.5,-342.5 870.5,-361.5 1013.5,-361.5 1013.5,-342.5 870.5,-342.5"/>
<text text-anchor="middle" x="942" y="-349.5" font-family="Helvetica,sans-Serif" font-size="10.00">view.TurtleDraw.moveTurtle</text>
</a>
</g>
</g>
<!-- Node11&#45;&gt;Node16 -->
<g id="edge15" class="edge"><title>Node11&#45;&gt;Node16</title>
<path fill="none" stroke="midnightblue" d="M824.755,-361.593C836.579,-360.617 848.64,-359.622 860.301,-358.66"/>
<polygon fill="midnightblue" stroke="midnightblue" points="860.75,-362.135 870.428,-357.824 860.174,-355.158 860.75,-362.135"/>
</g>
<!-- Node17 -->
<g id="node17" class="node"><title>Node17</title>
<g id="a_node17"><a xlink:href="../../d7/da6/classview_1_1_turtle_draw.html#a5004a16526a67f090d7da45474b5136e" target="_top" xlink:title="view.TurtleDraw.setAngle">
<polygon fill="white" stroke="black" points="875.5,-456.5 875.5,-475.5 1008.5,-475.5 1008.5,-456.5 875.5,-456.5"/>
<text text-anchor="middle" x="942" y="-463.5" font-family="Helvetica,sans-Serif" font-size="10.00">view.TurtleDraw.setAngle</text>
</a>
</g>
</g>
<!-- Node11&#45;&gt;Node17 -->
<g id="edge16" class="edge"><title>Node11&#45;&gt;Node17</title>
<path fill="none" stroke="midnightblue" d="M810.26,-384.08C816.534,-386.847 822.551,-390.123 828,-394 851.203,-410.508 840.628,-430.733 864,-447 866.855,-448.987 869.897,-450.767 873.061,-452.362"/>
<polygon fill="midnightblue" stroke="midnightblue" points="871.681,-455.578 882.245,-456.382 874.487,-449.166 871.681,-455.578"/>
</g>
<!-- Node13 -->
<g id="node13" class="node"><title>Node13</title>
<g id="a_node13"><a xlink:href="../../d3/db7/classview_1_1controllers_1_1_image_palette.html#a8a6620714bc12d5a00b97e99299a7040" target="_top" xlink:title="view.controllers.ImagePalette.get\lImage">
<polygon fill="white" stroke="black" points="1056,-391 1056,-421 1230,-421 1230,-391 1056,-391"/>
<text text-anchor="start" x="1064" y="-409" font-family="Helvetica,sans-Serif" font-size="10.00">view.controllers.ImagePalette.get</text>
<text text-anchor="middle" x="1143" y="-398" font-family="Helvetica,sans-Serif" font-size="10.00">Image</text>
</a>
</g>
</g>
<!-- Node12&#45;&gt;Node13 -->
<g id="edge12" class="edge"><title>Node12&#45;&gt;Node13</title>
<path fill="none" stroke="midnightblue" d="M1011.76,-420.398C1022.71,-419.188 1034.21,-417.916 1045.65,-416.651"/>
<polygon fill="midnightblue" stroke="midnightblue" points="1046.13,-420.121 1055.68,-415.543 1045.36,-413.163 1046.13,-420.121"/>
</g>
<!-- Node14 -->
<g id="node14" class="node"><title>Node14</title>
<g id="a_node14"><a xlink:href="../../d6/d34/classmodel_1_1_turtle.html#a942dbeb1d7e2bc19b6870538c2c3a7d2" target="_top" xlink:title="model.Turtle.getShape">
<polygon fill="white" stroke="black" points="1080.5,-440.5 1080.5,-459.5 1205.5,-459.5 1205.5,-440.5 1080.5,-440.5"/>
<text text-anchor="middle" x="1143" y="-447.5" font-family="Helvetica,sans-Serif" font-size="10.00">model.Turtle.getShape</text>
</a>
</g>
</g>
<!-- Node12&#45;&gt;Node14 -->
<g id="edge13" class="edge"><title>Node12&#45;&gt;Node14</title>
<path fill="none" stroke="midnightblue" d="M1011.76,-435.602C1030.62,-437.686 1051.11,-439.952 1070.13,-442.055"/>
<polygon fill="midnightblue" stroke="midnightblue" points="1069.91,-445.551 1080.23,-443.171 1070.67,-438.593 1069.91,-445.551"/>
</g>
<!-- Node20 -->
<g id="node20" class="node"><title>Node20</title>
<g id="a_node20"><a xlink:href="../../d7/da6/classview_1_1_turtle_draw.html#acb97dedda080cb5ed17031d2b31adc2c" target="_top" xlink:title="view.TurtleDraw.hideTurtle">
<polygon fill="white" stroke="black" points="873.5,-304.5 873.5,-323.5 1010.5,-323.5 1010.5,-304.5 873.5,-304.5"/>
<text text-anchor="middle" x="942" y="-311.5" font-family="Helvetica,sans-Serif" font-size="10.00">view.TurtleDraw.hideTurtle</text>
</a>
</g>
</g>
<!-- Node19&#45;&gt;Node20 -->
<g id="edge19" class="edge"><title>Node19&#45;&gt;Node20</title>
<path fill="none" stroke="midnightblue" d="M824.755,-317.386C837.461,-317.016 850.44,-316.638 862.902,-316.275"/>
<polygon fill="midnightblue" stroke="midnightblue" points="863.338,-319.764 873.231,-315.974 863.134,-312.767 863.338,-319.764"/>
</g>
<!-- Node21&#45;&gt;Node12 -->
<g id="edge22" class="edge"><title>Node21&#45;&gt;Node12</title>
<path fill="none" stroke="midnightblue" d="M815.98,-286.042C820.313,-288.594 824.37,-291.558 828,-295 866.559,-331.556 825.247,-372.65 864,-409 865.673,-410.569 867.454,-412.014 869.322,-413.345"/>
<polygon fill="midnightblue" stroke="midnightblue" points="867.616,-416.402 878.005,-418.478 871.178,-410.377 867.616,-416.402"/>
</g>
<!-- Node21&#45;&gt;Node15 -->
<g id="edge23" class="edge"><title>Node21&#45;&gt;Node15</title>
<path fill="none" stroke="midnightblue" d="M814.555,-286.163C819.348,-288.678 823.886,-291.601 828,-295 856.814,-318.805 835.06,-347.348 864,-371 866.052,-372.677 868.231,-374.21 870.507,-375.61"/>
<polygon fill="midnightblue" stroke="midnightblue" points="869.205,-378.878 879.693,-380.378 872.43,-372.665 869.205,-378.878"/>
</g>
<!-- Node21&#45;&gt;Node16 -->
<g id="edge36" class="edge"><title>Node21&#45;&gt;Node16</title>
<path fill="none" stroke="midnightblue" d="M809.144,-286.006C815.721,-288.555 822.11,-291.529 828,-295 848.043,-306.811 843.894,-321.296 864,-333 867.853,-335.243 871.962,-337.222 876.202,-338.969"/>
<polygon fill="midnightblue" stroke="midnightblue" points="875.05,-342.274 885.644,-342.433 877.461,-335.702 875.05,-342.274"/>
</g>
<!-- Node21&#45;&gt;Node17 -->
<g id="edge34" class="edge"><title>Node21&#45;&gt;Node17</title>
<path fill="none" stroke="midnightblue" d="M817.128,-286.267C821.066,-288.774 824.732,-291.666 828,-295 876.597,-344.579 815.14,-397.68 864,-447 865.417,-448.431 866.924,-449.76 868.505,-450.994"/>
<polygon fill="midnightblue" stroke="midnightblue" points="866.655,-453.965 876.963,-456.412 870.43,-448.071 866.655,-453.965"/>
</g>
<!-- Node21&#45;&gt;Node20 -->
<g id="edge24" class="edge"><title>Node21&#45;&gt;Node20</title>
<path fill="none" stroke="midnightblue" d="M807.049,-286.039C832.734,-291.401 861.249,-297.353 885.346,-302.383"/>
<polygon fill="midnightblue" stroke="midnightblue" points="884.878,-305.86 895.382,-304.478 886.308,-299.008 884.878,-305.86"/>
</g>
<!-- Node22 -->
<g id="node22" class="node"><title>Node22</title>
<g id="a_node22"><a xlink:href="../../d6/d34/classmodel_1_1_turtle.html#ae79a1eae7eed55d121c3b85299ae14ba" target="_top" xlink:title="model.Turtle.getID">
<polygon fill="white" stroke="black" points="890,-0.5 890,-19.5 994,-19.5 994,-0.5 890,-0.5"/>
<text text-anchor="middle" x="942" y="-7.5" font-family="Helvetica,sans-Serif" font-size="10.00">model.Turtle.getID</text>
</a>
</g>
</g>
<!-- Node21&#45;&gt;Node22 -->
<g id="edge21" class="edge"><title>Node21&#45;&gt;Node22</title>
<path fill="none" stroke="midnightblue" d="M816.173,-255.911C820.518,-253.117 824.519,-249.84 828,-246 893.652,-173.562 797.602,-100.755 864,-29 868.48,-24.1585 873.98,-20.4637 879.961,-17.6559"/>
<polygon fill="midnightblue" stroke="midnightblue" points="881.59,-20.78 889.678,-13.9365 879.088,-14.2425 881.59,-20.78"/>
</g>
<!-- Node23 -->
<g id="node23" class="node"><title>Node23</title>
<g id="a_node23"><a xlink:href="../../d6/d34/classmodel_1_1_turtle.html#a279f2bdb3fa955acdd52b7824ec3cd04" target="_top" xlink:title="model.Turtle.getPenStatus">
<polygon fill="white" stroke="black" points="870.5,-266.5 870.5,-285.5 1013.5,-285.5 1013.5,-266.5 870.5,-266.5"/>
<text text-anchor="middle" x="942" y="-273.5" font-family="Helvetica,sans-Serif" font-size="10.00">model.Turtle.getPenStatus</text>
</a>
</g>
</g>
<!-- Node21&#45;&gt;Node23 -->
<g id="edge25" class="edge"><title>Node21&#45;&gt;Node23</title>
<path fill="none" stroke="midnightblue" d="M828.056,-273.259C838.802,-273.519 849.695,-273.784 860.259,-274.04"/>
<polygon fill="midnightblue" stroke="midnightblue" points="860.189,-277.54 870.271,-274.283 860.359,-270.542 860.189,-277.54"/>
</g>
<!-- Node25 -->
<g id="node25" class="node"><title>Node25</title>
<g id="a_node25"><a xlink:href="../../d7/da6/classview_1_1_turtle_draw.html#a1325ca376115619f15f5014eb4c5ad2a" target="_top" xlink:title="view.TurtleDraw.drawLine">
<polygon fill="white" stroke="black" points="875.5,-228.5 875.5,-247.5 1008.5,-247.5 1008.5,-228.5 875.5,-228.5"/>
<text text-anchor="middle" x="942" y="-235.5" font-family="Helvetica,sans-Serif" font-size="10.00">view.TurtleDraw.drawLine</text>
</a>
</g>
</g>
<!-- Node21&#45;&gt;Node25 -->
<g id="edge27" class="edge"><title>Node21&#45;&gt;Node25</title>
<path fill="none" stroke="midnightblue" d="M828.056,-256.093C842.642,-253.756 857.496,-251.377 871.434,-249.144"/>
<polygon fill="midnightblue" stroke="midnightblue" points="872.084,-252.585 881.404,-247.547 870.977,-245.673 872.084,-252.585"/>
</g>
<!-- Node26 -->
<g id="node26" class="node"><title>Node26</title>
<g id="a_node26"><a xlink:href="../../d6/d34/classmodel_1_1_turtle.html#a832234461564763f8330181b3c1163ff" target="_top" xlink:title="model.Turtle.getPrevLocation">
<polygon fill="white" stroke="black" points="864.5,-190.5 864.5,-209.5 1019.5,-209.5 1019.5,-190.5 864.5,-190.5"/>
<text text-anchor="middle" x="942" y="-197.5" font-family="Helvetica,sans-Serif" font-size="10.00">model.Turtle.getPrevLocation</text>
</a>
</g>
</g>
<!-- Node21&#45;&gt;Node26 -->
<g id="edge28" class="edge"><title>Node21&#45;&gt;Node26</title>
<path fill="none" stroke="midnightblue" d="M803.156,-255.925C811.705,-253.096 820.183,-249.805 828,-246 845.982,-237.246 845.928,-227.568 864,-219 869.054,-216.604 874.444,-214.49 879.934,-212.628"/>
<polygon fill="midnightblue" stroke="midnightblue" points="881.362,-215.85 889.876,-209.545 879.288,-209.164 881.362,-215.85"/>
</g>
<!-- Node27 -->
<g id="node27" class="node"><title>Node27</title>
<g id="a_node27"><a xlink:href="../../d6/d34/classmodel_1_1_turtle.html#a2470b9b4ef48a261324047de8ebdc242" target="_top" xlink:title="model.Turtle.getNewLocation">
<polygon fill="white" stroke="black" points="864.5,-152.5 864.5,-171.5 1019.5,-171.5 1019.5,-152.5 864.5,-152.5"/>
<text text-anchor="middle" x="942" y="-159.5" font-family="Helvetica,sans-Serif" font-size="10.00">model.Turtle.getNewLocation</text>
</a>
</g>
</g>
<!-- Node21&#45;&gt;Node27 -->
<g id="edge29" class="edge"><title>Node21&#45;&gt;Node27</title>
<path fill="none" stroke="midnightblue" d="M812.036,-255.783C817.721,-253.043 823.128,-249.811 828,-246 854.011,-225.653 837.78,-201.076 864,-181 866.357,-179.195 868.864,-177.559 871.478,-176.077"/>
<polygon fill="midnightblue" stroke="midnightblue" points="873.24,-179.113 880.717,-171.607 870.191,-172.812 873.24,-179.113"/>
</g>
<!-- Node28 -->
<g id="node28" class="node"><title>Node28</title>
<g id="a_node28"><a xlink:href="../../d6/d34/classmodel_1_1_turtle.html#a19c059b1cbfbd4e8f046ec2403de3fb9" target="_top" xlink:title="model.Turtle.getPenDash">
<polygon fill="white" stroke="black" points="873.5,-114.5 873.5,-133.5 1010.5,-133.5 1010.5,-114.5 873.5,-114.5"/>
<text text-anchor="middle" x="942" y="-121.5" font-family="Helvetica,sans-Serif" font-size="10.00">model.Turtle.getPenDash</text>
</a>
</g>
</g>
<!-- Node21&#45;&gt;Node28 -->
<g id="edge30" class="edge"><title>Node21&#45;&gt;Node28</title>
<path fill="none" stroke="midnightblue" d="M814.119,-255.934C819.136,-253.151 823.835,-249.869 828,-246 863.529,-212.995 828.132,-175.635 864,-143 865.696,-141.457 867.498,-140.034 869.384,-138.722"/>
<polygon fill="midnightblue" stroke="midnightblue" points="871.231,-141.697 878.128,-133.655 867.721,-135.64 871.231,-141.697"/>
</g>
<!-- Node30 -->
<g id="node30" class="node"><title>Node30</title>
<g id="a_node30"><a xlink:href="../../d6/d34/classmodel_1_1_turtle.html#a193c156784f783064ae533b619b6be6e" target="_top" xlink:title="model.Turtle.getPenColor">
<polygon fill="white" stroke="black" points="873.5,-76.5 873.5,-95.5 1010.5,-95.5 1010.5,-76.5 873.5,-76.5"/>
<text text-anchor="middle" x="942" y="-83.5" font-family="Helvetica,sans-Serif" font-size="10.00">model.Turtle.getPenColor</text>
</a>
</g>
</g>
<!-- Node21&#45;&gt;Node30 -->
<g id="edge32" class="edge"><title>Node21&#45;&gt;Node30</title>
<path fill="none" stroke="midnightblue" d="M815.37,-255.818C819.968,-253.053 824.241,-249.807 828,-246 873.444,-199.979 818.083,-150.549 864,-105 865.43,-103.582 866.947,-102.264 868.538,-101.039"/>
<polygon fill="midnightblue" stroke="midnightblue" points="870.458,-103.966 877.035,-95.6596 866.713,-98.0517 870.458,-103.966"/>
</g>
<!-- Node32 -->
<g id="node32" class="node"><title>Node32</title>
<g id="a_node32"><a xlink:href="../../d6/d34/classmodel_1_1_turtle.html#a1c5d07962ede5fbfacc59413274d4300" target="_top" xlink:title="model.Turtle.getHeading">
<polygon fill="white" stroke="black" points="875,-38.5 875,-57.5 1009,-57.5 1009,-38.5 875,-38.5"/>
<text text-anchor="middle" x="942" y="-45.5" font-family="Helvetica,sans-Serif" font-size="10.00">model.Turtle.getHeading</text>
</a>
</g>
</g>
<!-- Node21&#45;&gt;Node32 -->
<g id="edge35" class="edge"><title>Node21&#45;&gt;Node32</title>
<path fill="none" stroke="midnightblue" d="M816.023,-255.772C820.404,-253.012 824.455,-249.78 828,-246 883.511,-186.809 807.879,-125.614 864,-67 865.244,-65.7009 866.561,-64.4849 867.941,-63.3469"/>
<polygon fill="midnightblue" stroke="midnightblue" points="870.094,-66.1175 876.458,-57.6467 866.201,-60.3003 870.094,-66.1175"/>
</g>
<!-- Node24 -->
<g id="node24" class="node"><title>Node24</title>
<g id="a_node24"><a xlink:href="../../de/ded/classmodel_1_1_pen.html#afad4fb3e51847cacab72c036ddaa108f" target="_top" xlink:title="model.Pen.getStatus">
<polygon fill="white" stroke="black" points="1084,-266.5 1084,-285.5 1202,-285.5 1202,-266.5 1084,-266.5"/>
<text text-anchor="middle" x="1143" y="-273.5" font-family="Helvetica,sans-Serif" font-size="10.00">model.Pen.getStatus</text>
</a>
</g>
</g>
<!-- Node23&#45;&gt;Node24 -->
<g id="edge26" class="edge"><title>Node23&#45;&gt;Node24</title>
<path fill="none" stroke="midnightblue" d="M1013.72,-276C1033.23,-276 1054.35,-276 1073.72,-276"/>
<polygon fill="midnightblue" stroke="midnightblue" points="1073.97,-279.5 1083.97,-276 1073.97,-272.5 1073.97,-279.5"/>
</g>
<!-- Node29 -->
<g id="node29" class="node"><title>Node29</title>
<g id="a_node29"><a xlink:href="../../de/ded/classmodel_1_1_pen.html#a6999f4af56377415621f193ef8600e27" target="_top" xlink:title="model.Pen.getDash">
<polygon fill="white" stroke="black" points="1087.5,-114.5 1087.5,-133.5 1198.5,-133.5 1198.5,-114.5 1087.5,-114.5"/>
<text text-anchor="middle" x="1143" y="-121.5" font-family="Helvetica,sans-Serif" font-size="10.00">model.Pen.getDash</text>
</a>
</g>
</g>
<!-- Node28&#45;&gt;Node29 -->
<g id="edge31" class="edge"><title>Node28&#45;&gt;Node29</title>
<path fill="none" stroke="midnightblue" d="M1010.65,-124C1032.15,-124 1055.86,-124 1077.15,-124"/>
<polygon fill="midnightblue" stroke="midnightblue" points="1077.39,-127.5 1087.39,-124 1077.39,-120.5 1077.39,-127.5"/>
</g>
<!-- Node31 -->
<g id="node31" class="node"><title>Node31</title>
<g id="a_node31"><a xlink:href="../../de/ded/classmodel_1_1_pen.html#a704af31474b10d17caf40773b7971826" target="_top" xlink:title="model.Pen.getPenColor">
<polygon fill="white" stroke="black" points="1078.5,-76.5 1078.5,-95.5 1207.5,-95.5 1207.5,-76.5 1078.5,-76.5"/>
<text text-anchor="middle" x="1143" y="-83.5" font-family="Helvetica,sans-Serif" font-size="10.00">model.Pen.getPenColor</text>
</a>
</g>
</g>
<!-- Node30&#45;&gt;Node31 -->
<g id="edge33" class="edge"><title>Node30&#45;&gt;Node31</title>
<path fill="none" stroke="midnightblue" d="M1010.65,-86C1029.18,-86 1049.36,-86 1068.21,-86"/>
<polygon fill="midnightblue" stroke="midnightblue" points="1068.23,-89.5001 1078.23,-86 1068.23,-82.5001 1068.23,-89.5001"/>
</g>
</g>
</svg>
