<?xml version="1.0" encoding="UTF-8" standalone="no"?>
<!DOCTYPE svg PUBLIC "-//W3C//DTD SVG 1.1//EN"
 "http://www.w3.org/Graphics/SVG/1.1/DTD/svg11.dtd">
<!-- Generated by graphviz version 2.36.0 (20140111.2315)
 -->
<!-- Title: view.panes.TurtleSelectorPane.newTurtle Pages: 1 -->
<svg width="536pt" height="48pt"
 viewBox="0.00 0.00 536.00 48.00" xmlns="http://www.w3.org/2000/svg" xmlns:xlink="http://www.w3.org/1999/xlink">
<g id="graph0" class="graph" transform="scale(1 1) rotate(0) translate(4 44)">
<title>view.panes.TurtleSelectorPane.newTurtle</title>
<polygon fill="white" stroke="none" points="-4,4 -4,-44 532,-44 532,4 -4,4"/>
<!-- Node1 -->
<g id="node1" class="node"><title>Node1</title>
<polygon fill="#bfbfbf" stroke="black" points="0.5,-5 0.5,-35 137.5,-35 137.5,-5 0.5,-5"/>
<text text-anchor="start" x="8.5" y="-23" font-family="Helvetica,sans-Serif" font-size="10.00">view.panes.TurtleSelector</text>
<text text-anchor="middle" x="69" y="-12" font-family="Helvetica,sans-Serif" font-size="10.00">Pane.newTurtle</text>
</g>
<!-- Node2 -->
<g id="node2" class="node"><title>Node2</title>
<g id="a_node2"><a xlink:href="../../d0/d06/classview_1_1panes_1_1_turtle_controller_pane_module.html#a96e94da05841aa7343ac097728f14b06" target="_top" xlink:title="view.panes.TurtleController\lPaneModule.makeTurtle">
<polygon fill="white" stroke="black" points="174.5,-5 174.5,-35 317.5,-35 317.5,-5 174.5,-5"/>
<text text-anchor="start" x="182.5" y="-23" font-family="Helvetica,sans-Serif" font-size="10.00">view.panes.TurtleController</text>
<text text-anchor="middle" x="246" y="-12" font-family="Helvetica,sans-Serif" font-size="10.00">PaneModule.makeTurtle</text>
</a>
</g>
</g>
<!-- Node1&#45;&gt;Node2 -->
<g id="edge1" class="edge"><title>Node1&#45;&gt;Node2</title>
<path fill="none" stroke="midnightblue" d="M147.907,-20C156.706,-20 165.637,-20 174.336,-20"/>
<polygon fill="midnightblue" stroke="midnightblue" points="147.66,-16.5001 137.66,-20 147.66,-23.5001 147.66,-16.5001"/>
</g>
<!-- Node3 -->
<g id="node3" class="node"><title>Node3</title>
<g id="a_node3"><a xlink:href="../../d0/d06/classview_1_1panes_1_1_turtle_controller_pane_module.html#a8b42010a92159b57095b40a80de1dfc7" target="_top" xlink:title="view.panes.TurtleController\lPaneModule.TurtleControllerPane\lModule">
<polygon fill="white" stroke="black" points="354.5,0.5 354.5,-40.5 527.5,-40.5 527.5,0.5 354.5,0.5"/>
<text text-anchor="start" x="362.5" y="-28.5" font-family="Helvetica,sans-Serif" font-size="10.00">view.panes.TurtleController</text>
<text text-anchor="start" x="362.5" y="-17.5" font-family="Helvetica,sans-Serif" font-size="10.00">PaneModule.TurtleControllerPane</text>
<text text-anchor="middle" x="441" y="-6.5" font-family="Helvetica,sans-Serif" font-size="10.00">Module</text>
</a>
</g>
</g>
<!-- Node2&#45;&gt;Node3 -->
<g id="edge2" class="edge"><title>Node2&#45;&gt;Node3</title>
<path fill="none" stroke="midnightblue" d="M327.963,-20C336.729,-20 345.671,-20 354.489,-20"/>
<polygon fill="midnightblue" stroke="midnightblue" points="327.77,-16.5001 317.77,-20 327.77,-23.5001 327.77,-16.5001"/>
</g>
</g>
</svg>
