<?xml version="1.0" encoding="UTF-8" standalone="no"?>
<!DOCTYPE svg PUBLIC "-//W3C//DTD SVG 1.1//EN"
 "http://www.w3.org/Graphics/SVG/1.1/DTD/svg11.dtd">
<!-- Generated by graphviz version 2.36.0 (20140111.2315)
 -->
<!-- Title: view.controllers.WorkspacePropertiesController.saveWorkspace Pages: 1 -->
<svg width="398pt" height="48pt"
 viewBox="0.00 0.00 398.00 48.00" xmlns="http://www.w3.org/2000/svg" xmlns:xlink="http://www.w3.org/1999/xlink">
<g id="graph0" class="graph" transform="scale(1 1) rotate(0) translate(4 44)">
<title>view.controllers.WorkspacePropertiesController.saveWorkspace</title>
<polygon fill="white" stroke="none" points="-4,4 -4,-44 394,-44 394,4 -4,4"/>
<!-- Node1 -->
<g id="node1" class="node"><title>Node1</title>
<polygon fill="#bfbfbf" stroke="black" points="0,-5 0,-35 188,-35 188,-5 0,-5"/>
<text text-anchor="start" x="8" y="-23" font-family="Helvetica,sans-Serif" font-size="10.00">view.controllers.Workspace</text>
<text text-anchor="middle" x="94" y="-12" font-family="Helvetica,sans-Serif" font-size="10.00">PropertiesController.saveWorkspace</text>
</g>
<!-- Node2 -->
<g id="node2" class="node"><title>Node2</title>
<g id="a_node2"><a xlink:href="../../d2/d56/classview_1_1controllers_1_1_workspace_properties_controller.html#a85d38cec087334e1b318ae8be5c43f91" target="_top" xlink:title="view.controllers.Workspace\lPropertiesController.Workspace\lPropertiesController">
<polygon fill="white" stroke="black" points="224.5,0.5 224.5,-40.5 389.5,-40.5 389.5,0.5 224.5,0.5"/>
<text text-anchor="start" x="232.5" y="-28.5" font-family="Helvetica,sans-Serif" font-size="10.00">view.controllers.Workspace</text>
<text text-anchor="start" x="232.5" y="-17.5" font-family="Helvetica,sans-Serif" font-size="10.00">PropertiesController.Workspace</text>
<text text-anchor="middle" x="307" y="-6.5" font-family="Helvetica,sans-Serif" font-size="10.00">PropertiesController</text>
</a>
</g>
</g>
<!-- Node1&#45;&gt;Node2 -->
<g id="edge1" class="edge"><title>Node1&#45;&gt;Node2</title>
<path fill="none" stroke="midnightblue" d="M198.352,-20C207.053,-20 215.773,-20 224.276,-20"/>
<polygon fill="midnightblue" stroke="midnightblue" points="198.162,-16.5001 188.162,-20 198.162,-23.5001 198.162,-16.5001"/>
</g>
</g>
</svg>
