<?xml version="1.0" encoding="UTF-8" standalone="no"?>
<!DOCTYPE svg PUBLIC "-//W3C//DTD SVG 1.1//EN"
 "http://www.w3.org/Graphics/SVG/1.1/DTD/svg11.dtd">
<!-- Generated by graphviz version 2.36.0 (20140111.2315)
 -->
<!-- Title: view.controllers.WorkspacePropertiesController.WorkspacePropertiesController Pages: 1 -->
<svg width="398pt" height="87pt"
 viewBox="0.00 0.00 398.00 87.00" xmlns="http://www.w3.org/2000/svg" xmlns:xlink="http://www.w3.org/1999/xlink">
<g id="graph0" class="graph" transform="scale(1 1) rotate(0) translate(4 83)">
<title>view.controllers.WorkspacePropertiesController.WorkspacePropertiesController</title>
<polygon fill="white" stroke="none" points="-4,4 -4,-83 394,-83 394,4 -4,4"/>
<!-- Node1 -->
<g id="node1" class="node"><title>Node1</title>
<polygon fill="#bfbfbf" stroke="black" points="0.5,-18.5 0.5,-59.5 165.5,-59.5 165.5,-18.5 0.5,-18.5"/>
<text text-anchor="start" x="8.5" y="-47.5" font-family="Helvetica,sans-Serif" font-size="10.00">view.controllers.Workspace</text>
<text text-anchor="start" x="8.5" y="-36.5" font-family="Helvetica,sans-Serif" font-size="10.00">PropertiesController.Workspace</text>
<text text-anchor="middle" x="83" y="-25.5" font-family="Helvetica,sans-Serif" font-size="10.00">PropertiesController</text>
</g>
<!-- Node2 -->
<g id="node2" class="node"><title>Node2</title>
<g id="a_node2"><a xlink:href="../../d2/d56/classview_1_1controllers_1_1_workspace_properties_controller.html#a81b1f50a1ea7c2869de9981b715712e6" target="_top" xlink:title="view.controllers.Workspace\lPropertiesController.makeButton">
<polygon fill="white" stroke="black" points="209.5,-49 209.5,-79 382.5,-79 382.5,-49 209.5,-49"/>
<text text-anchor="start" x="217.5" y="-67" font-family="Helvetica,sans-Serif" font-size="10.00">view.controllers.Workspace</text>
<text text-anchor="middle" x="296" y="-56" font-family="Helvetica,sans-Serif" font-size="10.00">PropertiesController.makeButton</text>
</a>
</g>
</g>
<!-- Node1&#45;&gt;Node2 -->
<g id="edge1" class="edge"><title>Node1&#45;&gt;Node2</title>
<path fill="none" stroke="midnightblue" d="M165.578,-48.6657C176.588,-49.9701 187.964,-51.318 199.193,-52.6485"/>
<polygon fill="midnightblue" stroke="midnightblue" points="199.107,-56.1626 209.449,-53.8636 199.93,-49.2113 199.107,-56.1626"/>
</g>
<!-- Node3 -->
<g id="node3" class="node"><title>Node3</title>
<g id="a_node3"><a xlink:href="../../d2/d56/classview_1_1controllers_1_1_workspace_properties_controller.html#a057031c243d7a432aac91d33fbb8acfd" target="_top" xlink:title="view.controllers.Workspace\lPropertiesController.saveWorkspace">
<polygon fill="white" stroke="black" points="202,-0 202,-30 390,-30 390,-0 202,-0"/>
<text text-anchor="start" x="210" y="-18" font-family="Helvetica,sans-Serif" font-size="10.00">view.controllers.Workspace</text>
<text text-anchor="middle" x="296" y="-7" font-family="Helvetica,sans-Serif" font-size="10.00">PropertiesController.saveWorkspace</text>
</a>
</g>
</g>
<!-- Node1&#45;&gt;Node3 -->
<g id="edge2" class="edge"><title>Node1&#45;&gt;Node3</title>
<path fill="none" stroke="midnightblue" d="M165.578,-29.721C174.08,-28.7539 182.801,-27.762 191.503,-26.7722"/>
<polygon fill="midnightblue" stroke="midnightblue" points="192.156,-30.2205 201.697,-25.6127 191.365,-23.2654 192.156,-30.2205"/>
</g>
</g>
</svg>
