<?xml version="1.0" encoding="UTF-8" standalone="no"?>
<!DOCTYPE svg PUBLIC "-//W3C//DTD SVG 1.1//EN"
 "http://www.w3.org/Graphics/SVG/1.1/DTD/svg11.dtd">
<!-- Generated by graphviz version 2.36.0 (20140111.2315)
 -->
<!-- Title: view.panes.TurtleControllerPaneModule.move Pages: 1 -->
<svg width="364pt" height="97pt"
 viewBox="0.00 0.00 364.00 97.00" xmlns="http://www.w3.org/2000/svg" xmlns:xlink="http://www.w3.org/1999/xlink">
<g id="graph0" class="graph" transform="scale(1 1) rotate(0) translate(4 93)">
<title>view.panes.TurtleControllerPaneModule.move</title>
<polygon fill="white" stroke="none" points="-4,4 -4,-93 360,-93 360,4 -4,4"/>
<!-- Node1 -->
<g id="node1" class="node"><title>Node1</title>
<polygon fill="#bfbfbf" stroke="black" points="0.5,-32 0.5,-62 143.5,-62 143.5,-32 0.5,-32"/>
<text text-anchor="start" x="8.5" y="-50" font-family="Helvetica,sans-Serif" font-size="10.00">view.panes.TurtleController</text>
<text text-anchor="middle" x="72" y="-39" font-family="Helvetica,sans-Serif" font-size="10.00">PaneModule.move</text>
</g>
<!-- Node2 -->
<g id="node2" class="node"><title>Node2</title>
<g id="a_node2"><a xlink:href="../../df/d2d/classview_1_1panes_1_1_turtle_controller_pane_module_1_1_move_handler.html#af119dbbc22106be7b578c2fd2e5abe09" target="_top" xlink:title="view.panes.TurtleController\lPaneModule.MoveHandler.handle">
<polygon fill="white" stroke="black" points="180.5,-59 180.5,-89 355.5,-89 355.5,-59 180.5,-59"/>
<text text-anchor="start" x="188.5" y="-77" font-family="Helvetica,sans-Serif" font-size="10.00">view.panes.TurtleController</text>
<text text-anchor="middle" x="268" y="-66" font-family="Helvetica,sans-Serif" font-size="10.00">PaneModule.MoveHandler.handle</text>
</a>
</g>
</g>
<!-- Node1&#45;&gt;Node2 -->
<g id="edge1" class="edge"><title>Node1&#45;&gt;Node2</title>
<path fill="none" stroke="midnightblue" d="M153.761,-58.24C162.514,-59.4582 171.449,-60.7016 180.269,-61.9292"/>
<polygon fill="midnightblue" stroke="midnightblue" points="153.974,-54.736 143.587,-56.824 153.009,-61.6691 153.974,-54.736"/>
</g>
<!-- Node3 -->
<g id="node3" class="node"><title>Node3</title>
<g id="a_node3"><a xlink:href="../../d0/d06/classview_1_1panes_1_1_turtle_controller_pane_module.html#a8b42010a92159b57095b40a80de1dfc7" target="_top" xlink:title="view.panes.TurtleController\lPaneModule.TurtleControllerPane\lModule">
<polygon fill="white" stroke="black" points="181.5,0.5 181.5,-40.5 354.5,-40.5 354.5,0.5 181.5,0.5"/>
<text text-anchor="start" x="189.5" y="-28.5" font-family="Helvetica,sans-Serif" font-size="10.00">view.panes.TurtleController</text>
<text text-anchor="start" x="189.5" y="-17.5" font-family="Helvetica,sans-Serif" font-size="10.00">PaneModule.TurtleControllerPane</text>
<text text-anchor="middle" x="268" y="-6.5" font-family="Helvetica,sans-Serif" font-size="10.00">Module</text>
</a>
</g>
</g>
<!-- Node1&#45;&gt;Node3 -->
<g id="edge2" class="edge"><title>Node1&#45;&gt;Node3</title>
<path fill="none" stroke="midnightblue" d="M153.748,-35.7618C162.838,-34.4968 172.123,-33.2046 181.272,-31.9312"/>
<polygon fill="midnightblue" stroke="midnightblue" points="153.009,-32.3309 143.587,-37.176 153.974,-39.264 153.009,-32.3309"/>
</g>
</g>
</svg>
