<?xml version="1.0" encoding="UTF-8" standalone="no"?>
<!DOCTYPE svg PUBLIC "-//W3C//DTD SVG 1.1//EN"
 "http://www.w3.org/Graphics/SVG/1.1/DTD/svg11.dtd">
<!-- Generated by graphviz version 2.36.0 (20140111.2315)
 -->
<!-- Title: view.panes.TurtleControllerPaneModule.imageSelectorMaker Pages: 1 -->
<svg width="624pt" height="126pt"
 viewBox="0.00 0.00 624.00 126.00" xmlns="http://www.w3.org/2000/svg" xmlns:xlink="http://www.w3.org/1999/xlink">
<g id="graph0" class="graph" transform="scale(1 1) rotate(0) translate(4 122)">
<title>view.panes.TurtleControllerPaneModule.imageSelectorMaker</title>
<polygon fill="white" stroke="none" points="-4,4 -4,-122 620,-122 620,4 -4,4"/>
<!-- Node1 -->
<g id="node1" class="node"><title>Node1</title>
<polygon fill="#bfbfbf" stroke="black" points="0,-44 0,-74 176,-74 176,-44 0,-44"/>
<text text-anchor="start" x="8" y="-62" font-family="Helvetica,sans-Serif" font-size="10.00">view.panes.TurtleController</text>
<text text-anchor="middle" x="88" y="-51" font-family="Helvetica,sans-Serif" font-size="10.00">PaneModule.imageSelectorMaker</text>
</g>
<!-- Node2 -->
<g id="node2" class="node"><title>Node2</title>
<g id="a_node2"><a xlink:href="../../d0/d06/classview_1_1panes_1_1_turtle_controller_pane_module.html#a5d0d2db4864df8e55ce12229fe554e6a" target="_top" xlink:title="view.panes.TurtleController\lPaneModule.doChoose">
<polygon fill="white" stroke="black" points="236.5,-88 236.5,-118 379.5,-118 379.5,-88 236.5,-88"/>
<text text-anchor="start" x="244.5" y="-106" font-family="Helvetica,sans-Serif" font-size="10.00">view.panes.TurtleController</text>
<text text-anchor="middle" x="308" y="-95" font-family="Helvetica,sans-Serif" font-size="10.00">PaneModule.doChoose</text>
</a>
</g>
</g>
<!-- Node1&#45;&gt;Node2 -->
<g id="edge1" class="edge"><title>Node1&#45;&gt;Node2</title>
<path fill="none" stroke="midnightblue" d="M163.414,-74.0192C183.66,-78.1056 205.682,-82.5504 226.26,-86.7039"/>
<polygon fill="midnightblue" stroke="midnightblue" points="225.737,-90.1689 236.232,-88.7166 227.122,-83.3072 225.737,-90.1689"/>
</g>
<!-- Node4 -->
<g id="node4" class="node"><title>Node4</title>
<g id="a_node4"><a xlink:href="../../d3/db7/classview_1_1controllers_1_1_image_palette.html#a0640e10f3afb56125adcdfbabc79bed4" target="_top" xlink:title="view.controllers.ImagePalette.getBox">
<polygon fill="white" stroke="black" points="212,-49.5 212,-68.5 404,-68.5 404,-49.5 212,-49.5"/>
<text text-anchor="middle" x="308" y="-56.5" font-family="Helvetica,sans-Serif" font-size="10.00">view.controllers.ImagePalette.getBox</text>
</a>
</g>
</g>
<!-- Node1&#45;&gt;Node4 -->
<g id="edge3" class="edge"><title>Node1&#45;&gt;Node4</title>
<path fill="none" stroke="midnightblue" d="M176.099,-59C184.538,-59 193.16,-59 201.75,-59"/>
<polygon fill="midnightblue" stroke="midnightblue" points="201.808,-62.5001 211.808,-59 201.807,-55.5001 201.808,-62.5001"/>
</g>
<!-- Node5 -->
<g id="node5" class="node"><title>Node5</title>
<g id="a_node5"><a xlink:href="../../d0/d06/classview_1_1panes_1_1_turtle_controller_pane_module.html#a51cea33522d3febb23e4f793c46fe412" target="_top" xlink:title="view.panes.TurtleController\lPaneModule.makeButton">
<polygon fill="white" stroke="black" points="236.5,-0 236.5,-30 379.5,-30 379.5,-0 236.5,-0"/>
<text text-anchor="start" x="244.5" y="-18" font-family="Helvetica,sans-Serif" font-size="10.00">view.panes.TurtleController</text>
<text text-anchor="middle" x="308" y="-7" font-family="Helvetica,sans-Serif" font-size="10.00">PaneModule.makeButton</text>
</a>
</g>
</g>
<!-- Node1&#45;&gt;Node5 -->
<g id="edge4" class="edge"><title>Node1&#45;&gt;Node5</title>
<path fill="none" stroke="midnightblue" d="M163.414,-43.9808C183.66,-39.8944 205.682,-35.4496 226.26,-31.2961"/>
<polygon fill="midnightblue" stroke="midnightblue" points="227.122,-34.6928 236.232,-29.2834 225.737,-27.8311 227.122,-34.6928"/>
</g>
<!-- Node3 -->
<g id="node3" class="node"><title>Node3</title>
<g id="a_node3"><a xlink:href="../../d3/db7/classview_1_1controllers_1_1_image_palette.html#a1e9f7331f827c8890dcfb4f0e546af8f" target="_top" xlink:title="view.controllers.ImagePalette.add\lImage">
<polygon fill="white" stroke="black" points="440,-88 440,-118 616,-118 616,-88 440,-88"/>
<text text-anchor="start" x="448" y="-106" font-family="Helvetica,sans-Serif" font-size="10.00">view.controllers.ImagePalette.add</text>
<text text-anchor="middle" x="528" y="-95" font-family="Helvetica,sans-Serif" font-size="10.00">Image</text>
</a>
</g>
</g>
<!-- Node2&#45;&gt;Node3 -->
<g id="edge2" class="edge"><title>Node2&#45;&gt;Node3</title>
<path fill="none" stroke="midnightblue" d="M379.778,-103C395.634,-103 412.725,-103 429.452,-103"/>
<polygon fill="midnightblue" stroke="midnightblue" points="429.805,-106.5 439.805,-103 429.805,-99.5001 429.805,-106.5"/>
</g>
</g>
</svg>
