<?xml version="1.0" encoding="UTF-8" standalone="no"?>
<!DOCTYPE svg PUBLIC "-//W3C//DTD SVG 1.1//EN"
 "http://www.w3.org/Graphics/SVG/1.1/DTD/svg11.dtd">
<!-- Generated by graphviz version 2.36.0 (20140111.2315)
 -->
<!-- Title: view.panes.TurtleControllerPaneModule.makeTurtle Pages: 1 -->
<svg width="932pt" height="164pt"
 viewBox="0.00 0.00 932.00 164.00" xmlns="http://www.w3.org/2000/svg" xmlns:xlink="http://www.w3.org/1999/xlink">
<g id="graph0" class="graph" transform="scale(1 1) rotate(0) translate(4 160)">
<title>view.panes.TurtleControllerPaneModule.makeTurtle</title>
<polygon fill="white" stroke="none" points="-4,4 -4,-160 928,-160 928,4 -4,4"/>
<!-- Node1 -->
<g id="node1" class="node"><title>Node1</title>
<polygon fill="#bfbfbf" stroke="black" points="0.5,-55 0.5,-85 143.5,-85 143.5,-55 0.5,-55"/>
<text text-anchor="start" x="8.5" y="-73" font-family="Helvetica,sans-Serif" font-size="10.00">view.panes.TurtleController</text>
<text text-anchor="middle" x="72" y="-62" font-family="Helvetica,sans-Serif" font-size="10.00">PaneModule.makeTurtle</text>
</g>
<!-- Node2 -->
<g id="node2" class="node"><title>Node2</title>
<g id="a_node2"><a xlink:href="../../d3/db7/classview_1_1controllers_1_1_image_palette.html#aac698bdcf6d03266bc67e4b689f5e1c6" target="_top" xlink:title="view.controllers.ImagePalette.get\lCurrentImageID">
<polygon fill="white" stroke="black" points="180,-126 180,-156 354,-156 354,-126 180,-126"/>
<text text-anchor="start" x="188" y="-144" font-family="Helvetica,sans-Serif" font-size="10.00">view.controllers.ImagePalette.get</text>
<text text-anchor="middle" x="267" y="-133" font-family="Helvetica,sans-Serif" font-size="10.00">CurrentImageID</text>
</a>
</g>
</g>
<!-- Node1&#45;&gt;Node2 -->
<g id="edge1" class="edge"><title>Node1&#45;&gt;Node2</title>
<path fill="none" stroke="midnightblue" d="M105.365,-85.15C126.375,-94.6758 154.496,-106.85 180,-116 186.741,-118.419 193.841,-120.776 200.952,-123.016"/>
<polygon fill="midnightblue" stroke="midnightblue" points="200.035,-126.396 210.623,-125.993 202.095,-119.706 200.035,-126.396"/>
</g>
<!-- Node3 -->
<g id="node3" class="node"><title>Node3</title>
<g id="a_node3"><a xlink:href="../../d8/daa/classview_1_1panes_1_1_turtle_selector_pane.html#a93a77e509159e4a9684bd8356477a810" target="_top" xlink:title="view.panes.TurtleSelector\lPane.newTurtle">
<polygon fill="white" stroke="black" points="198.5,-77 198.5,-107 335.5,-107 335.5,-77 198.5,-77"/>
<text text-anchor="start" x="206.5" y="-95" font-family="Helvetica,sans-Serif" font-size="10.00">view.panes.TurtleSelector</text>
<text text-anchor="middle" x="267" y="-84" font-family="Helvetica,sans-Serif" font-size="10.00">Pane.newTurtle</text>
</a>
</g>
</g>
<!-- Node1&#45;&gt;Node3 -->
<g id="edge2" class="edge"><title>Node1&#45;&gt;Node3</title>
<path fill="none" stroke="midnightblue" d="M143.77,-78.0671C158.28,-79.7211 173.628,-81.4705 188.364,-83.1504"/>
<polygon fill="midnightblue" stroke="midnightblue" points="188.119,-86.645 198.451,-84.3002 188.912,-79.69 188.119,-86.645"/>
</g>
<!-- Node6 -->
<g id="node6" class="node"><title>Node6</title>
<g id="a_node6"><a xlink:href="../../d8/dd2/classview_1_1_command_string.html#a666bbe4a67f0516444f5ee29cbb5e588" target="_top" xlink:title="view.CommandString.setCommand">
<polygon fill="white" stroke="black" points="738,-60.5 738,-79.5 924,-79.5 924,-60.5 738,-60.5"/>
<text text-anchor="middle" x="831" y="-67.5" font-family="Helvetica,sans-Serif" font-size="10.00">view.CommandString.setCommand</text>
</a>
</g>
</g>
<!-- Node1&#45;&gt;Node6 -->
<g id="edge7" class="edge"><title>Node1&#45;&gt;Node6</title>
<path fill="none" stroke="midnightblue" d="M143.5,-67.7427C155.671,-67.4333 168.201,-67.1654 180,-67 411.977,-63.7486 470.016,-64.2818 702,-67 710.307,-67.0973 718.917,-67.2302 727.564,-67.3861"/>
<polygon fill="midnightblue" stroke="midnightblue" points="727.652,-70.8883 737.716,-67.579 727.785,-63.8896 727.652,-70.8883"/>
</g>
<!-- Node7 -->
<g id="node7" class="node"><title>Node7</title>
<g id="a_node7"><a xlink:href="../../da/d64/classview_1_1panes_1_1_pen_pane.html#a39943cd3fe8c57472a5381c5a17e2e16" target="_top" xlink:title="view.panes.PenPane.newTurtle">
<polygon fill="white" stroke="black" points="187,-0.5 187,-19.5 347,-19.5 347,-0.5 187,-0.5"/>
<text text-anchor="middle" x="267" y="-7.5" font-family="Helvetica,sans-Serif" font-size="10.00">view.panes.PenPane.newTurtle</text>
</a>
</g>
</g>
<!-- Node1&#45;&gt;Node7 -->
<g id="edge6" class="edge"><title>Node1&#45;&gt;Node7</title>
<path fill="none" stroke="midnightblue" d="M116.045,-54.9444C135.502,-48.2872 158.831,-40.5101 180,-34 193.105,-29.9697 207.422,-25.8593 220.547,-22.2053"/>
<polygon fill="midnightblue" stroke="midnightblue" points="221.605,-25.5443 230.312,-19.5089 219.742,-18.7968 221.605,-25.5443"/>
</g>
<!-- Node4 -->
<g id="node4" class="node"><title>Node4</title>
<g id="a_node4"><a xlink:href="../../d8/daa/classview_1_1panes_1_1_turtle_selector_pane.html#a41425164edccc3709e2f66ed462f8709" target="_top" xlink:title="view.panes.TurtleSelector\lPane.getActiveTurtles">
<polygon fill="white" stroke="black" points="390.5,-77 390.5,-107 527.5,-107 527.5,-77 390.5,-77"/>
<text text-anchor="start" x="398.5" y="-95" font-family="Helvetica,sans-Serif" font-size="10.00">view.panes.TurtleSelector</text>
<text text-anchor="middle" x="459" y="-84" font-family="Helvetica,sans-Serif" font-size="10.00">Pane.getActiveTurtles</text>
</a>
</g>
</g>
<!-- Node3&#45;&gt;Node4 -->
<g id="edge3" class="edge"><title>Node3&#45;&gt;Node4</title>
<path fill="none" stroke="midnightblue" d="M335.522,-92C349.995,-92 365.398,-92 380.223,-92"/>
<polygon fill="midnightblue" stroke="midnightblue" points="380.376,-95.5001 390.376,-92 380.376,-88.5001 380.376,-95.5001"/>
</g>
<!-- Node5 -->
<g id="node5" class="node"><title>Node5</title>
<g id="a_node5"><a xlink:href="../../d8/daa/classview_1_1panes_1_1_turtle_selector_pane.html#ad83809df344e4af1f046629e336662e0" target="_top" xlink:title="view.panes.TurtleSelector\lPane.toggleActiveTurtles">
<polygon fill="white" stroke="black" points="564.5,-77 564.5,-107 701.5,-107 701.5,-77 564.5,-77"/>
<text text-anchor="start" x="572.5" y="-95" font-family="Helvetica,sans-Serif" font-size="10.00">view.panes.TurtleSelector</text>
<text text-anchor="middle" x="633" y="-84" font-family="Helvetica,sans-Serif" font-size="10.00">Pane.toggleActiveTurtles</text>
</a>
</g>
</g>
<!-- Node4&#45;&gt;Node5 -->
<g id="edge4" class="edge"><title>Node4&#45;&gt;Node5</title>
<path fill="none" stroke="midnightblue" d="M527.979,-92C536.55,-92 545.372,-92 554.082,-92"/>
<polygon fill="midnightblue" stroke="midnightblue" points="554.233,-95.5001 564.233,-92 554.233,-88.5001 554.233,-95.5001"/>
</g>
<!-- Node5&#45;&gt;Node6 -->
<g id="edge5" class="edge"><title>Node5&#45;&gt;Node6</title>
<path fill="none" stroke="midnightblue" d="M701.727,-84.398C712.595,-83.1781 724.015,-81.8963 735.374,-80.6213"/>
<polygon fill="midnightblue" stroke="midnightblue" points="735.778,-84.098 745.326,-79.5043 734.998,-77.1416 735.778,-84.098"/>
</g>
</g>
</svg>
