<?xml version="1.0" encoding="UTF-8" standalone="no"?>
<!DOCTYPE svg PUBLIC "-//W3C//DTD SVG 1.1//EN"
 "http://www.w3.org/Graphics/SVG/1.1/DTD/svg11.dtd">
<!-- Generated by graphviz version 2.36.0 (20140111.2315)
 -->
<!-- Title: view.panes.TurtleControllerPaneModule.makeButton Pages: 1 -->
<svg width="574pt" height="66pt"
 viewBox="0.00 0.00 574.00 66.00" xmlns="http://www.w3.org/2000/svg" xmlns:xlink="http://www.w3.org/1999/xlink">
<g id="graph0" class="graph" transform="scale(1 1) rotate(0) translate(4 62)">
<title>view.panes.TurtleControllerPaneModule.makeButton</title>
<polygon fill="white" stroke="none" points="-4,4 -4,-62 570,-62 570,4 -4,4"/>
<!-- Node1 -->
<g id="node1" class="node"><title>Node1</title>
<polygon fill="#bfbfbf" stroke="black" points="0.5,-6 0.5,-36 143.5,-36 143.5,-6 0.5,-6"/>
<text text-anchor="start" x="8.5" y="-24" font-family="Helvetica,sans-Serif" font-size="10.00">view.panes.TurtleController</text>
<text text-anchor="middle" x="72" y="-13" font-family="Helvetica,sans-Serif" font-size="10.00">PaneModule.makeButton</text>
</g>
<!-- Node2 -->
<g id="node2" class="node"><title>Node2</title>
<g id="a_node2"><a xlink:href="../../d0/d06/classview_1_1panes_1_1_turtle_controller_pane_module.html#a714ad68e313bb0c547d8db1ec5f8c755" target="_top" xlink:title="view.panes.TurtleController\lPaneModule.imageSelectorMaker">
<polygon fill="white" stroke="black" points="180,-28 180,-58 356,-58 356,-28 180,-28"/>
<text text-anchor="start" x="188" y="-46" font-family="Helvetica,sans-Serif" font-size="10.00">view.panes.TurtleController</text>
<text text-anchor="middle" x="268" y="-35" font-family="Helvetica,sans-Serif" font-size="10.00">PaneModule.imageSelectorMaker</text>
</a>
</g>
</g>
<!-- Node1&#45;&gt;Node2 -->
<g id="edge1" class="edge"><title>Node1&#45;&gt;Node2</title>
<path fill="none" stroke="midnightblue" d="M153.668,-30.1479C162.34,-31.1313 171.191,-32.1351 179.934,-33.1265"/>
<polygon fill="midnightblue" stroke="midnightblue" points="153.918,-26.6539 143.587,-29.0047 153.129,-33.6093 153.918,-26.6539"/>
</g>
<!-- Node3 -->
<g id="node3" class="node"><title>Node3</title>
<g id="a_node3"><a xlink:href="../../d0/d06/classview_1_1panes_1_1_turtle_controller_pane_module.html#a8b42010a92159b57095b40a80de1dfc7" target="_top" xlink:title="view.panes.TurtleController\lPaneModule.TurtleControllerPane\lModule">
<polygon fill="white" stroke="black" points="392.5,-0.5 392.5,-41.5 565.5,-41.5 565.5,-0.5 392.5,-0.5"/>
<text text-anchor="start" x="400.5" y="-29.5" font-family="Helvetica,sans-Serif" font-size="10.00">view.panes.TurtleController</text>
<text text-anchor="start" x="400.5" y="-18.5" font-family="Helvetica,sans-Serif" font-size="10.00">PaneModule.TurtleControllerPane</text>
<text text-anchor="middle" x="479" y="-7.5" font-family="Helvetica,sans-Serif" font-size="10.00">Module</text>
</a>
</g>
</g>
<!-- Node1&#45;&gt;Node3 -->
<g id="edge3" class="edge"><title>Node1&#45;&gt;Node3</title>
<path fill="none" stroke="midnightblue" d="M153.545,-19.333C162.471,-19.1963 171.428,-19.0801 180,-19 258.219,-18.269 277.78,-18.3589 356,-19 367.756,-19.0964 380.149,-19.2449 392.35,-19.4186"/>
<polygon fill="midnightblue" stroke="midnightblue" points="153.446,-15.834 143.504,-19.4951 153.559,-22.8331 153.446,-15.834"/>
</g>
<!-- Node2&#45;&gt;Node3 -->
<g id="edge2" class="edge"><title>Node2&#45;&gt;Node3</title>
<path fill="none" stroke="midnightblue" d="M366.293,-32.7586C374.997,-31.8424 383.768,-30.9192 392.362,-30.0145"/>
<polygon fill="midnightblue" stroke="midnightblue" points="365.7,-29.3016 356.121,-33.8293 366.433,-36.2632 365.7,-29.3016"/>
</g>
</g>
</svg>
