<?xml version="1.0" encoding="UTF-8" standalone="no"?>
<!DOCTYPE svg PUBLIC "-//W3C//DTD SVG 1.1//EN"
 "http://www.w3.org/Graphics/SVG/1.1/DTD/svg11.dtd">
<!-- Generated by graphviz version 2.36.0 (20140111.2315)
 -->
<!-- Title: view.panes.TurtleControllerPaneModule.TurtleControllerPaneModule Pages: 1 -->
<svg width="1236pt" height="399pt"
 viewBox="0.00 0.00 1236.00 398.99" xmlns="http://www.w3.org/2000/svg" xmlns:xlink="http://www.w3.org/1999/xlink">
<g id="graph0" class="graph" transform="scale(1 1) rotate(0) translate(4 394.987)">
<title>view.panes.TurtleControllerPaneModule.TurtleControllerPaneModule</title>
<polygon fill="white" stroke="none" points="-4,4 -4,-394.987 1232,-394.987 1232,4 -4,4"/>
<!-- Node1 -->
<g id="node1" class="node"><title>Node1</title>
<polygon fill="#bfbfbf" stroke="black" points="0.5,-225.987 0.5,-266.987 173.5,-266.987 173.5,-225.987 0.5,-225.987"/>
<text text-anchor="start" x="8.5" y="-254.987" font-family="Helvetica,sans-Serif" font-size="10.00">view.panes.TurtleController</text>
<text text-anchor="start" x="8.5" y="-243.987" font-family="Helvetica,sans-Serif" font-size="10.00">PaneModule.TurtleControllerPane</text>
<text text-anchor="middle" x="87" y="-232.987" font-family="Helvetica,sans-Serif" font-size="10.00">Module</text>
</g>
<!-- Node2 -->
<g id="node2" class="node"><title>Node2</title>
<g id="a_node2"><a xlink:href="../../d0/d06/classview_1_1panes_1_1_turtle_controller_pane_module.html#a17968045f35b256d20da119dff9825db" target="_top" xlink:title="view.panes.TurtleController\lPaneModule.angle">
<polygon fill="white" stroke="black" points="862.5,-275.487 862.5,-305.487 1005.5,-305.487 1005.5,-275.487 862.5,-275.487"/>
<text text-anchor="start" x="870.5" y="-293.487" font-family="Helvetica,sans-Serif" font-size="10.00">view.panes.TurtleController</text>
<text text-anchor="middle" x="934" y="-282.487" font-family="Helvetica,sans-Serif" font-size="10.00">PaneModule.angle</text>
</a>
</g>
</g>
<!-- Node1&#45;&gt;Node2 -->
<g id="edge1" class="edge"><title>Node1&#45;&gt;Node2</title>
<path fill="none" stroke="midnightblue" d="M103.818,-267.33C124.801,-293.059 164.531,-335.493 210,-352.487 449.321,-441.931 763.191,-350.755 883.311,-308.996"/>
<polygon fill="midnightblue" stroke="midnightblue" points="884.704,-312.216 892.976,-305.596 882.381,-305.612 884.704,-312.216"/>
</g>
<!-- Node4 -->
<g id="node4" class="node"><title>Node4</title>
<g id="a_node4"><a xlink:href="../../d8/daa/classview_1_1panes_1_1_turtle_selector_pane.html#abce6783e462daf08b6b7d4e0bf7c36d5" target="_top" xlink:title="view.panes.TurtleSelector\lPane.getPane">
<polygon fill="white" stroke="black" points="229.5,-313.487 229.5,-343.487 366.5,-343.487 366.5,-313.487 229.5,-313.487"/>
<text text-anchor="start" x="237.5" y="-331.487" font-family="Helvetica,sans-Serif" font-size="10.00">view.panes.TurtleSelector</text>
<text text-anchor="middle" x="298" y="-320.487" font-family="Helvetica,sans-Serif" font-size="10.00">Pane.getPane</text>
</a>
</g>
</g>
<!-- Node1&#45;&gt;Node4 -->
<g id="edge3" class="edge"><title>Node1&#45;&gt;Node4</title>
<path fill="none" stroke="midnightblue" d="M127.983,-267.113C151.478,-278.739 181.978,-292.989 210,-303.487 216.328,-305.857 222.985,-308.137 229.682,-310.289"/>
<polygon fill="midnightblue" stroke="midnightblue" points="228.899,-313.712 239.488,-313.347 230.983,-307.029 228.899,-313.712"/>
</g>
<!-- Node5 -->
<g id="node5" class="node"><title>Node5</title>
<g id="a_node5"><a xlink:href="../../da/d64/classview_1_1panes_1_1_pen_pane.html#a9cb7d40d529b904b253d08c8a575e4de" target="_top" xlink:title="view.panes.PenPane.getPenPane">
<polygon fill="white" stroke="black" points="211.5,-274.987 211.5,-293.987 384.5,-293.987 384.5,-274.987 211.5,-274.987"/>
<text text-anchor="middle" x="298" y="-281.987" font-family="Helvetica,sans-Serif" font-size="10.00">view.panes.PenPane.getPenPane</text>
</a>
</g>
</g>
<!-- Node1&#45;&gt;Node5 -->
<g id="edge4" class="edge"><title>Node1&#45;&gt;Node5</title>
<path fill="none" stroke="midnightblue" d="M173.611,-262.052C193.965,-265.753 215.308,-269.634 234.41,-273.107"/>
<polygon fill="midnightblue" stroke="midnightblue" points="234.01,-276.591 244.474,-274.937 235.262,-269.704 234.01,-276.591"/>
</g>
<!-- Node6 -->
<g id="node6" class="node"><title>Node6</title>
<g id="a_node6"><a xlink:href="../../d0/d06/classview_1_1panes_1_1_turtle_controller_pane_module.html#a714ad68e313bb0c547d8db1ec5f8c755" target="_top" xlink:title="view.panes.TurtleController\lPaneModule.imageSelectorMaker">
<polygon fill="white" stroke="black" points="210,-187.487 210,-217.487 386,-217.487 386,-187.487 210,-187.487"/>
<text text-anchor="start" x="218" y="-205.487" font-family="Helvetica,sans-Serif" font-size="10.00">view.panes.TurtleController</text>
<text text-anchor="middle" x="298" y="-194.487" font-family="Helvetica,sans-Serif" font-size="10.00">PaneModule.imageSelectorMaker</text>
</a>
</g>
</g>
<!-- Node1&#45;&gt;Node6 -->
<g id="edge5" class="edge"><title>Node1&#45;&gt;Node6</title>
<path fill="none" stroke="midnightblue" d="M173.611,-228.463C187.49,-225.541 201.829,-222.523 215.604,-219.623"/>
<polygon fill="midnightblue" stroke="midnightblue" points="216.456,-223.02 225.521,-217.535 215.014,-216.17 216.456,-223.02"/>
</g>
<!-- Node7 -->
<g id="node7" class="node"><title>Node7</title>
<g id="a_node7"><a xlink:href="../../d0/d06/classview_1_1panes_1_1_turtle_controller_pane_module.html#a51cea33522d3febb23e4f793c46fe412" target="_top" xlink:title="view.panes.TurtleController\lPaneModule.makeButton">
<polygon fill="white" stroke="black" points="446.5,-280.487 446.5,-310.487 589.5,-310.487 589.5,-280.487 446.5,-280.487"/>
<text text-anchor="start" x="454.5" y="-298.487" font-family="Helvetica,sans-Serif" font-size="10.00">view.panes.TurtleController</text>
<text text-anchor="middle" x="518" y="-287.487" font-family="Helvetica,sans-Serif" font-size="10.00">PaneModule.makeButton</text>
</a>
</g>
</g>
<!-- Node1&#45;&gt;Node7 -->
<g id="edge10" class="edge"><title>Node1&#45;&gt;Node7</title>
<path fill="none" stroke="midnightblue" d="M173.802,-248.291C233.552,-250.441 314.947,-255.155 386,-265.487 407.231,-268.574 430.112,-273.314 450.717,-278.121"/>
<polygon fill="midnightblue" stroke="midnightblue" points="450.094,-281.57 460.633,-280.479 451.714,-274.76 450.094,-281.57"/>
</g>
<!-- Node11 -->
<g id="node11" class="node"><title>Node11</title>
<g id="a_node11"><a xlink:href="../../d0/d06/classview_1_1panes_1_1_turtle_controller_pane_module.html#a96e94da05841aa7343ac097728f14b06" target="_top" xlink:title="view.panes.TurtleController\lPaneModule.makeTurtle">
<polygon fill="white" stroke="black" points="226.5,-105.487 226.5,-135.487 369.5,-135.487 369.5,-105.487 226.5,-105.487"/>
<text text-anchor="start" x="234.5" y="-123.487" font-family="Helvetica,sans-Serif" font-size="10.00">view.panes.TurtleController</text>
<text text-anchor="middle" x="298" y="-112.487" font-family="Helvetica,sans-Serif" font-size="10.00">PaneModule.makeTurtle</text>
</a>
</g>
</g>
<!-- Node1&#45;&gt;Node11 -->
<g id="edge11" class="edge"><title>Node1&#45;&gt;Node11</title>
<path fill="none" stroke="midnightblue" d="M122.045,-225.962C160.916,-202.528 224.133,-164.416 262.99,-140.99"/>
<polygon fill="midnightblue" stroke="midnightblue" points="265.084,-143.815 271.841,-135.654 261.47,-137.82 265.084,-143.815"/>
</g>
<!-- Node17 -->
<g id="node17" class="node"><title>Node17</title>
<g id="a_node17"><a xlink:href="../../d0/d06/classview_1_1panes_1_1_turtle_controller_pane_module.html#a7bcb51ee51afaa6fd0bac492d024b4ce" target="_top" xlink:title="view.panes.TurtleController\lPaneModule.move">
<polygon fill="white" stroke="black" points="666.5,-15.4868 666.5,-45.4868 809.5,-45.4868 809.5,-15.4868 666.5,-15.4868"/>
<text text-anchor="start" x="674.5" y="-33.4868" font-family="Helvetica,sans-Serif" font-size="10.00">view.panes.TurtleController</text>
<text text-anchor="middle" x="738" y="-22.4868" font-family="Helvetica,sans-Serif" font-size="10.00">PaneModule.move</text>
</a>
</g>
</g>
<!-- Node1&#45;&gt;Node17 -->
<g id="edge19" class="edge"><title>Node1&#45;&gt;Node17</title>
<path fill="none" stroke="midnightblue" d="M99.8798,-225.904C119.227,-193.998 160.407,-132.436 210,-95.4868 291.672,-34.6373 322.077,-28.1925 422,-8.48676 501.644,7.21964 594.544,-2.60487 658.717,-13.6797"/>
<polygon fill="midnightblue" stroke="midnightblue" points="658.306,-17.1612 668.764,-15.4641 659.53,-10.2691 658.306,-17.1612"/>
</g>
<!-- Node3 -->
<g id="node3" class="node"><title>Node3</title>
<g id="a_node3"><a xlink:href="../../d8/dd2/classview_1_1_command_string.html#a666bbe4a67f0516444f5ee29cbb5e588" target="_top" xlink:title="view.CommandString.setCommand">
<polygon fill="white" stroke="black" points="1042,-132.987 1042,-151.987 1228,-151.987 1228,-132.987 1042,-132.987"/>
<text text-anchor="middle" x="1135" y="-139.987" font-family="Helvetica,sans-Serif" font-size="10.00">view.CommandString.setCommand</text>
</a>
</g>
</g>
<!-- Node2&#45;&gt;Node3 -->
<g id="edge2" class="edge"><title>Node2&#45;&gt;Node3</title>
<path fill="none" stroke="midnightblue" d="M955.176,-275.481C992.865,-247.451 1073.64,-187.376 1112.39,-158.556"/>
<polygon fill="midnightblue" stroke="midnightblue" points="1114.92,-161.036 1120.86,-152.26 1110.75,-155.419 1114.92,-161.036"/>
</g>
<!-- Node6&#45;&gt;Node7 -->
<g id="edge6" class="edge"><title>Node6&#45;&gt;Node7</title>
<path fill="none" stroke="midnightblue" d="M355.611,-217.567C366.14,-221.586 376.732,-226.517 386,-232.487 405.558,-245.085 401.985,-258.628 422,-270.487 426.677,-273.258 431.662,-275.726 436.806,-277.925"/>
<polygon fill="midnightblue" stroke="midnightblue" points="435.616,-281.217 446.204,-281.597 438.164,-274.698 435.616,-281.217"/>
</g>
<!-- Node8 -->
<g id="node8" class="node"><title>Node8</title>
<g id="a_node8"><a xlink:href="../../d0/d06/classview_1_1panes_1_1_turtle_controller_pane_module.html#a5d0d2db4864df8e55ce12229fe554e6a" target="_top" xlink:title="view.panes.TurtleController\lPaneModule.doChoose">
<polygon fill="white" stroke="black" points="446.5,-231.487 446.5,-261.487 589.5,-261.487 589.5,-231.487 446.5,-231.487"/>
<text text-anchor="start" x="454.5" y="-249.487" font-family="Helvetica,sans-Serif" font-size="10.00">view.panes.TurtleController</text>
<text text-anchor="middle" x="518" y="-238.487" font-family="Helvetica,sans-Serif" font-size="10.00">PaneModule.doChoose</text>
</a>
</g>
</g>
<!-- Node6&#45;&gt;Node8 -->
<g id="edge7" class="edge"><title>Node6&#45;&gt;Node8</title>
<path fill="none" stroke="midnightblue" d="M373.414,-217.506C393.66,-221.592 415.682,-226.037 436.26,-230.191"/>
<polygon fill="midnightblue" stroke="midnightblue" points="435.737,-233.656 446.232,-232.203 437.122,-226.794 435.737,-233.656"/>
</g>
<!-- Node10 -->
<g id="node10" class="node"><title>Node10</title>
<g id="a_node10"><a xlink:href="../../d3/db7/classview_1_1controllers_1_1_image_palette.html#a0640e10f3afb56125adcdfbabc79bed4" target="_top" xlink:title="view.controllers.ImagePalette.getBox">
<polygon fill="white" stroke="black" points="422,-192.987 422,-211.987 614,-211.987 614,-192.987 422,-192.987"/>
<text text-anchor="middle" x="518" y="-199.987" font-family="Helvetica,sans-Serif" font-size="10.00">view.controllers.ImagePalette.getBox</text>
</a>
</g>
</g>
<!-- Node6&#45;&gt;Node10 -->
<g id="edge9" class="edge"><title>Node6&#45;&gt;Node10</title>
<path fill="none" stroke="midnightblue" d="M386.099,-202.487C394.538,-202.487 403.16,-202.487 411.75,-202.487"/>
<polygon fill="midnightblue" stroke="midnightblue" points="411.808,-205.987 421.808,-202.487 411.807,-198.987 411.808,-205.987"/>
</g>
<!-- Node9 -->
<g id="node9" class="node"><title>Node9</title>
<g id="a_node9"><a xlink:href="../../d3/db7/classview_1_1controllers_1_1_image_palette.html#a1e9f7331f827c8890dcfb4f0e546af8f" target="_top" xlink:title="view.controllers.ImagePalette.add\lImage">
<polygon fill="white" stroke="black" points="650,-231.487 650,-261.487 826,-261.487 826,-231.487 650,-231.487"/>
<text text-anchor="start" x="658" y="-249.487" font-family="Helvetica,sans-Serif" font-size="10.00">view.controllers.ImagePalette.add</text>
<text text-anchor="middle" x="738" y="-238.487" font-family="Helvetica,sans-Serif" font-size="10.00">Image</text>
</a>
</g>
</g>
<!-- Node8&#45;&gt;Node9 -->
<g id="edge8" class="edge"><title>Node8&#45;&gt;Node9</title>
<path fill="none" stroke="midnightblue" d="M589.778,-246.487C605.634,-246.487 622.725,-246.487 639.452,-246.487"/>
<polygon fill="midnightblue" stroke="midnightblue" points="639.805,-249.987 649.805,-246.487 639.805,-242.987 639.805,-249.987"/>
</g>
<!-- Node11&#45;&gt;Node3 -->
<g id="edge16" class="edge"><title>Node11&#45;&gt;Node3</title>
<path fill="none" stroke="midnightblue" d="M363.768,-135.549C382.453,-139.233 402.943,-142.645 422,-144.487 638.212,-165.384 893.083,-156.649 1031.66,-149.117"/>
<polygon fill="midnightblue" stroke="midnightblue" points="1032.05,-152.601 1041.84,-148.555 1031.67,-145.612 1032.05,-152.601"/>
</g>
<!-- Node12 -->
<g id="node12" class="node"><title>Node12</title>
<g id="a_node12"><a xlink:href="../../d8/daa/classview_1_1panes_1_1_turtle_selector_pane.html#a93a77e509159e4a9684bd8356477a810" target="_top" xlink:title="view.panes.TurtleSelector\lPane.newTurtle">
<polygon fill="white" stroke="black" points="449.5,-105.487 449.5,-135.487 586.5,-135.487 586.5,-105.487 449.5,-105.487"/>
<text text-anchor="start" x="457.5" y="-123.487" font-family="Helvetica,sans-Serif" font-size="10.00">view.panes.TurtleSelector</text>
<text text-anchor="middle" x="518" y="-112.487" font-family="Helvetica,sans-Serif" font-size="10.00">Pane.newTurtle</text>
</a>
</g>
</g>
<!-- Node11&#45;&gt;Node12 -->
<g id="edge12" class="edge"><title>Node11&#45;&gt;Node12</title>
<path fill="none" stroke="midnightblue" d="M369.778,-120.487C391.88,-120.487 416.382,-120.487 438.954,-120.487"/>
<polygon fill="midnightblue" stroke="midnightblue" points="439.173,-123.987 449.173,-120.487 439.173,-116.987 439.173,-123.987"/>
</g>
<!-- Node15 -->
<g id="node15" class="node"><title>Node15</title>
<g id="a_node15"><a xlink:href="../../d3/db7/classview_1_1controllers_1_1_image_palette.html#aac698bdcf6d03266bc67e4b689f5e1c6" target="_top" xlink:title="view.controllers.ImagePalette.get\lCurrentImageID">
<polygon fill="white" stroke="black" points="431,-56.4868 431,-86.4868 605,-86.4868 605,-56.4868 431,-56.4868"/>
<text text-anchor="start" x="439" y="-74.4868" font-family="Helvetica,sans-Serif" font-size="10.00">view.controllers.ImagePalette.get</text>
<text text-anchor="middle" x="518" y="-63.4868" font-family="Helvetica,sans-Serif" font-size="10.00">CurrentImageID</text>
</a>
</g>
</g>
<!-- Node11&#45;&gt;Node15 -->
<g id="edge17" class="edge"><title>Node11&#45;&gt;Node15</title>
<path fill="none" stroke="midnightblue" d="M365.889,-105.452C389.43,-100.161 416.067,-94.1735 440.349,-88.7155"/>
<polygon fill="midnightblue" stroke="midnightblue" points="441.249,-92.1008 450.238,-86.4929 439.714,-85.2712 441.249,-92.1008"/>
</g>
<!-- Node16 -->
<g id="node16" class="node"><title>Node16</title>
<g id="a_node16"><a xlink:href="../../da/d64/classview_1_1panes_1_1_pen_pane.html#a39943cd3fe8c57472a5381c5a17e2e16" target="_top" xlink:title="view.panes.PenPane.newTurtle">
<polygon fill="white" stroke="black" points="438,-17.9868 438,-36.9868 598,-36.9868 598,-17.9868 438,-17.9868"/>
<text text-anchor="middle" x="518" y="-24.9868" font-family="Helvetica,sans-Serif" font-size="10.00">view.panes.PenPane.newTurtle</text>
</a>
</g>
</g>
<!-- Node11&#45;&gt;Node16 -->
<g id="edge18" class="edge"><title>Node11&#45;&gt;Node16</title>
<path fill="none" stroke="midnightblue" d="M319.19,-105.324C342.673,-88.4285 383.191,-61.5172 422,-46.4868 428.925,-43.8047 436.287,-41.4827 443.73,-39.4762"/>
<polygon fill="midnightblue" stroke="midnightblue" points="444.683,-42.8456 453.53,-37.0165 442.979,-36.0562 444.683,-42.8456"/>
</g>
<!-- Node13 -->
<g id="node13" class="node"><title>Node13</title>
<g id="a_node13"><a xlink:href="../../d8/daa/classview_1_1panes_1_1_turtle_selector_pane.html#a41425164edccc3709e2f66ed462f8709" target="_top" xlink:title="view.panes.TurtleSelector\lPane.getActiveTurtles">
<polygon fill="white" stroke="black" points="669.5,-105.487 669.5,-135.487 806.5,-135.487 806.5,-105.487 669.5,-105.487"/>
<text text-anchor="start" x="677.5" y="-123.487" font-family="Helvetica,sans-Serif" font-size="10.00">view.panes.TurtleSelector</text>
<text text-anchor="middle" x="738" y="-112.487" font-family="Helvetica,sans-Serif" font-size="10.00">Pane.getActiveTurtles</text>
</a>
</g>
</g>
<!-- Node12&#45;&gt;Node13 -->
<g id="edge13" class="edge"><title>Node12&#45;&gt;Node13</title>
<path fill="none" stroke="midnightblue" d="M586.782,-120.487C609.748,-120.487 635.578,-120.487 659.258,-120.487"/>
<polygon fill="midnightblue" stroke="midnightblue" points="659.26,-123.987 669.26,-120.487 659.26,-116.987 659.26,-123.987"/>
</g>
<!-- Node14 -->
<g id="node14" class="node"><title>Node14</title>
<g id="a_node14"><a xlink:href="../../d8/daa/classview_1_1panes_1_1_turtle_selector_pane.html#ad83809df344e4af1f046629e336662e0" target="_top" xlink:title="view.panes.TurtleSelector\lPane.toggleActiveTurtles">
<polygon fill="white" stroke="black" points="865.5,-105.487 865.5,-135.487 1002.5,-135.487 1002.5,-105.487 865.5,-105.487"/>
<text text-anchor="start" x="873.5" y="-123.487" font-family="Helvetica,sans-Serif" font-size="10.00">view.panes.TurtleSelector</text>
<text text-anchor="middle" x="934" y="-112.487" font-family="Helvetica,sans-Serif" font-size="10.00">Pane.toggleActiveTurtles</text>
</a>
</g>
</g>
<!-- Node13&#45;&gt;Node14 -->
<g id="edge14" class="edge"><title>Node13&#45;&gt;Node14</title>
<path fill="none" stroke="midnightblue" d="M806.579,-120.487C822.188,-120.487 838.919,-120.487 854.933,-120.487"/>
<polygon fill="midnightblue" stroke="midnightblue" points="855.334,-123.987 865.334,-120.487 855.334,-116.987 855.334,-123.987"/>
</g>
<!-- Node14&#45;&gt;Node3 -->
<g id="edge15" class="edge"><title>Node14&#45;&gt;Node3</title>
<path fill="none" stroke="midnightblue" d="M1002.65,-127.966C1014.01,-129.221 1025.98,-130.545 1037.89,-131.861"/>
<polygon fill="midnightblue" stroke="midnightblue" points="1037.54,-135.344 1047.86,-132.964 1038.31,-128.386 1037.54,-135.344"/>
</g>
<!-- Node17&#45;&gt;Node3 -->
<g id="edge20" class="edge"><title>Node17&#45;&gt;Node3</title>
<path fill="none" stroke="midnightblue" d="M809.577,-45.3798C863.745,-57.3604 940.161,-75.4552 1006,-95.4868 1038.59,-105.402 1074.98,-119.021 1100.61,-129.047"/>
<polygon fill="midnightblue" stroke="midnightblue" points="1099.62,-132.42 1110.21,-132.832 1102.19,-125.908 1099.62,-132.42"/>
</g>
</g>
</svg>
