<?xml version="1.0" encoding="UTF-8" standalone="no"?>
<!DOCTYPE svg PUBLIC "-//W3C//DTD SVG 1.1//EN"
 "http://www.w3.org/Graphics/SVG/1.1/DTD/svg11.dtd">
<!-- Generated by graphviz version 2.36.0 (20140111.2315)
 -->
<!-- Title: commands.MakeUserInstructionCommand.executeCommand Pages: 1 -->
<svg width="414pt" height="214pt"
 viewBox="0.00 0.00 414.00 214.00" xmlns="http://www.w3.org/2000/svg" xmlns:xlink="http://www.w3.org/1999/xlink">
<g id="graph0" class="graph" transform="scale(1 1) rotate(0) translate(4 210)">
<title>commands.MakeUserInstructionCommand.executeCommand</title>
<polygon fill="white" stroke="none" points="-4,4 -4,-210 410,-210 410,4 -4,4"/>
<!-- Node1 -->
<g id="node1" class="node"><title>Node1</title>
<polygon fill="#bfbfbf" stroke="black" points="0,-88 0,-118 172,-118 172,-88 0,-88"/>
<text text-anchor="start" x="8" y="-106" font-family="Helvetica,sans-Serif" font-size="10.00">commands.MakeUserInstruction</text>
<text text-anchor="middle" x="86" y="-95" font-family="Helvetica,sans-Serif" font-size="10.00">Command.executeCommand</text>
</g>
<!-- Node2 -->
<g id="node2" class="node"><title>Node2</title>
<g id="a_node2"><a xlink:href="../../d6/d95/classparser_1_1_parser.html#aec913f0d7f710319acdb31bcf705cd3e" target="_top" xlink:title="parser.Parser.addUserInput\lCommand">
<polygon fill="white" stroke="black" points="234,-176 234,-206 380,-206 380,-176 234,-176"/>
<text text-anchor="start" x="242" y="-194" font-family="Helvetica,sans-Serif" font-size="10.00">parser.Parser.addUserInput</text>
<text text-anchor="middle" x="307" y="-183" font-family="Helvetica,sans-Serif" font-size="10.00">Command</text>
</a>
</g>
</g>
<!-- Node1&#45;&gt;Node2 -->
<g id="edge1" class="edge"><title>Node1&#45;&gt;Node2</title>
<path fill="none" stroke="midnightblue" d="M111.707,-118.025C135.625,-132.042 173.265,-152.731 208,-166 214.653,-168.542 221.659,-170.906 228.737,-173.084"/>
<polygon fill="midnightblue" stroke="midnightblue" points="227.827,-176.465 238.409,-175.939 229.809,-169.751 227.827,-176.465"/>
</g>
<!-- Node3 -->
<g id="node3" class="node"><title>Node3</title>
<g id="a_node3"><a xlink:href="../../dd/dd6/classcommands_1_1_command.html#a344968a97c674aa32a5da584142ce491" target="_top" xlink:title="commands.Command.getClassName">
<polygon fill="white" stroke="black" points="208.5,-137.5 208.5,-156.5 405.5,-156.5 405.5,-137.5 208.5,-137.5"/>
<text text-anchor="middle" x="307" y="-144.5" font-family="Helvetica,sans-Serif" font-size="10.00">commands.Command.getClassName</text>
</a>
</g>
</g>
<!-- Node1&#45;&gt;Node3 -->
<g id="edge2" class="edge"><title>Node1&#45;&gt;Node3</title>
<path fill="none" stroke="midnightblue" d="M161.755,-118.019C190.212,-123.737 222.163,-130.156 248.747,-135.497"/>
<polygon fill="midnightblue" stroke="midnightblue" points="248.161,-138.949 258.654,-137.488 249.539,-132.086 248.161,-138.949"/>
</g>
<!-- Node4 -->
<g id="node4" class="node"><title>Node4</title>
<g id="a_node4"><a xlink:href="../../da/d64/classcommands_1_1_list_command.html#a56336e5adb210c39d6f2dded76b86055" target="_top" xlink:title="commands.ListCommand.get\lNumParameters">
<polygon fill="white" stroke="black" points="227.5,-88 227.5,-118 386.5,-118 386.5,-88 227.5,-88"/>
<text text-anchor="start" x="235.5" y="-106" font-family="Helvetica,sans-Serif" font-size="10.00">commands.ListCommand.get</text>
<text text-anchor="middle" x="307" y="-95" font-family="Helvetica,sans-Serif" font-size="10.00">NumParameters</text>
</a>
</g>
</g>
<!-- Node1&#45;&gt;Node4 -->
<g id="edge3" class="edge"><title>Node1&#45;&gt;Node4</title>
<path fill="none" stroke="midnightblue" d="M172.298,-103C187.033,-103 202.383,-103 217.208,-103"/>
<polygon fill="midnightblue" stroke="midnightblue" points="217.373,-106.5 227.373,-103 217.373,-99.5001 217.373,-106.5"/>
</g>
<!-- Node5 -->
<g id="node5" class="node"><title>Node5</title>
<g id="a_node5"><a xlink:href="../../dd/dd6/classcommands_1_1_command.html#a276f12d28173928a0d399a6a8939cd4a" target="_top" xlink:title="commands.Command.getParameter">
<polygon fill="white" stroke="black" points="210.5,-49.5 210.5,-68.5 403.5,-68.5 403.5,-49.5 210.5,-49.5"/>
<text text-anchor="middle" x="307" y="-56.5" font-family="Helvetica,sans-Serif" font-size="10.00">commands.Command.getParameter</text>
</a>
</g>
</g>
<!-- Node1&#45;&gt;Node5 -->
<g id="edge4" class="edge"><title>Node1&#45;&gt;Node5</title>
<path fill="none" stroke="midnightblue" d="M161.755,-87.9808C190.212,-82.2633 222.163,-75.844 248.747,-70.5029"/>
<polygon fill="midnightblue" stroke="midnightblue" points="249.539,-73.9137 258.654,-68.5124 248.161,-67.0508 249.539,-73.9137"/>
</g>
<!-- Node6 -->
<g id="node6" class="node"><title>Node6</title>
<g id="a_node6"><a xlink:href="../../d9/de1/classcommands_1_1_variable_command.html#a9d442d0a8ec50f9b49c3139cf9ddc9b7" target="_top" xlink:title="commands.VariableCommand.get\lVariableName">
<polygon fill="white" stroke="black" points="216.5,-0 216.5,-30 397.5,-30 397.5,-0 216.5,-0"/>
<text text-anchor="start" x="224.5" y="-18" font-family="Helvetica,sans-Serif" font-size="10.00">commands.VariableCommand.get</text>
<text text-anchor="middle" x="307" y="-7" font-family="Helvetica,sans-Serif" font-size="10.00">VariableName</text>
</a>
</g>
</g>
<!-- Node1&#45;&gt;Node6 -->
<g id="edge5" class="edge"><title>Node1&#45;&gt;Node6</title>
<path fill="none" stroke="midnightblue" d="M111.707,-87.9753C135.625,-73.9582 173.265,-53.2694 208,-40 214.653,-37.4583 221.659,-35.0945 228.737,-32.9159"/>
<polygon fill="midnightblue" stroke="midnightblue" points="229.809,-36.2487 238.409,-30.0606 227.827,-29.5352 229.809,-36.2487"/>
</g>
</g>
</svg>
