<?xml version="1.0" encoding="UTF-8" standalone="no"?>
<!DOCTYPE svg PUBLIC "-//W3C//DTD SVG 1.1//EN"
 "http://www.w3.org/Graphics/SVG/1.1/DTD/svg11.dtd">
<!-- Generated by graphviz version 2.36.0 (20140111.2315)
 -->
<!-- Title: parser.Parser.getCommand Pages: 1 -->
<svg width="766pt" height="71pt"
 viewBox="0.00 0.00 766.00 71.00" xmlns="http://www.w3.org/2000/svg" xmlns:xlink="http://www.w3.org/1999/xlink">
<g id="graph0" class="graph" transform="scale(1 1) rotate(0) translate(4 67)">
<title>parser.Parser.getCommand</title>
<polygon fill="white" stroke="none" points="-4,4 -4,-67 762,-67 762,4 -4,4"/>
<!-- Node1 -->
<g id="node1" class="node"><title>Node1</title>
<polygon fill="#bfbfbf" stroke="black" points="0,-43.5 0,-62.5 148,-62.5 148,-43.5 0,-43.5"/>
<text text-anchor="middle" x="74" y="-50.5" font-family="Helvetica,sans-Serif" font-size="10.00">parser.Parser.getCommand</text>
</g>
<!-- Node2 -->
<g id="node2" class="node"><title>Node2</title>
<g id="a_node2"><a xlink:href="../../d6/d95/classparser_1_1_parser.html#a5746ee23ade69654bd86c83981eb1e25" target="_top" xlink:title="parser.Parser.makeListCommand">
<polygon fill="white" stroke="black" points="184,-43.5 184,-62.5 360,-62.5 360,-43.5 184,-43.5"/>
<text text-anchor="middle" x="272" y="-50.5" font-family="Helvetica,sans-Serif" font-size="10.00">parser.Parser.makeListCommand</text>
</a>
</g>
</g>
<!-- Node1&#45;&gt;Node2 -->
<g id="edge1" class="edge"><title>Node1&#45;&gt;Node2</title>
<path fill="none" stroke="midnightblue" d="M158.459,-46.3165C166.892,-46.2389 175.472,-46.2292 183.942,-46.2875"/>
<polygon fill="midnightblue" stroke="midnightblue" points="158.217,-42.8192 148.262,-46.4449 158.305,-49.8186 158.217,-42.8192"/>
</g>
<!-- Node3 -->
<g id="node3" class="node"><title>Node3</title>
<g id="a_node3"><a xlink:href="../../d6/d95/classparser_1_1_parser.html#aacbac8270cf4817504ddb495ba67863f" target="_top" xlink:title="parser.Parser.parseInput">
<polygon fill="white" stroke="black" points="205.5,-5.5 205.5,-24.5 338.5,-24.5 338.5,-5.5 205.5,-5.5"/>
<text text-anchor="middle" x="272" y="-12.5" font-family="Helvetica,sans-Serif" font-size="10.00">parser.Parser.parseInput</text>
</a>
</g>
</g>
<!-- Node1&#45;&gt;Node3 -->
<g id="edge3" class="edge"><title>Node1&#45;&gt;Node3</title>
<path fill="none" stroke="midnightblue" d="M134.261,-41.5106C162.227,-36.0886 195.209,-29.6942 221.774,-24.5439"/>
<polygon fill="midnightblue" stroke="midnightblue" points="133.357,-38.1206 124.206,-43.46 134.689,-44.9927 133.357,-38.1206"/>
</g>
<!-- Node2&#45;&gt;Node1 -->
<g id="edge2" class="edge"><title>Node2&#45;&gt;Node1</title>
<path fill="none" stroke="midnightblue" d="M173.854,-59.7498C165.243,-59.7544 156.624,-59.6895 148.262,-59.5551"/>
<polygon fill="midnightblue" stroke="midnightblue" points="173.955,-63.2495 183.942,-59.7125 173.929,-56.2496 173.955,-63.2495"/>
</g>
<!-- Node4 -->
<g id="node4" class="node"><title>Node4</title>
<g id="a_node4"><a xlink:href="../../d9/df7/classcontroller_1_1_controller.html#afdfa7f9e9a3fb5f6b73a6b8e2b2be8b5" target="_top" xlink:title="controller.Controller.get\lInput">
<polygon fill="white" stroke="black" points="396,-0 396,-30 524,-30 524,-0 396,-0"/>
<text text-anchor="start" x="404" y="-18" font-family="Helvetica,sans-Serif" font-size="10.00">controller.Controller.get</text>
<text text-anchor="middle" x="460" y="-7" font-family="Helvetica,sans-Serif" font-size="10.00">Input</text>
</a>
</g>
</g>
<!-- Node3&#45;&gt;Node4 -->
<g id="edge4" class="edge"><title>Node3&#45;&gt;Node4</title>
<path fill="none" stroke="midnightblue" d="M348.749,-15C364.406,-15 380.74,-15 395.889,-15"/>
<polygon fill="midnightblue" stroke="midnightblue" points="348.577,-11.5001 338.577,-15 348.577,-18.5001 348.577,-11.5001"/>
</g>
<!-- Node5 -->
<g id="node5" class="node"><title>Node5</title>
<g id="a_node5"><a xlink:href="../../d3/dc7/classview_1_1controllers_1_1_pane_controller.html#a7e6154aecb60d8f3bcb056a11e842764" target="_top" xlink:title="view.controllers.PaneController.update">
<polygon fill="white" stroke="black" points="560,-5.5 560,-24.5 758,-24.5 758,-5.5 560,-5.5"/>
<text text-anchor="middle" x="659" y="-12.5" font-family="Helvetica,sans-Serif" font-size="10.00">view.controllers.PaneController.update</text>
</a>
</g>
</g>
<!-- Node4&#45;&gt;Node5 -->
<g id="edge5" class="edge"><title>Node4&#45;&gt;Node5</title>
<path fill="none" stroke="midnightblue" d="M534.166,-15C542.501,-15 551.097,-15 559.69,-15"/>
<polygon fill="midnightblue" stroke="midnightblue" points="534.145,-11.5001 524.145,-15 534.145,-18.5001 534.145,-11.5001"/>
</g>
</g>
</svg>
