<?xml version="1.0" encoding="UTF-8" standalone="no"?>
<!DOCTYPE svg PUBLIC "-//W3C//DTD SVG 1.1//EN"
 "http://www.w3.org/Graphics/SVG/1.1/DTD/svg11.dtd">
<!-- Generated by graphviz version 2.36.0 (20140111.2315)
 -->
<!-- Title: parser.Parser.parseInput Pages: 1 -->
<svg width="634pt" height="104pt"
 viewBox="0.00 0.00 634.00 104.00" xmlns="http://www.w3.org/2000/svg" xmlns:xlink="http://www.w3.org/1999/xlink">
<g id="graph0" class="graph" transform="scale(1 1) rotate(0) translate(4 100)">
<title>parser.Parser.parseInput</title>
<polygon fill="white" stroke="none" points="-4,4 -4,-100 630,-100 630,4 -4,4"/>
<!-- Node1 -->
<g id="node1" class="node"><title>Node1</title>
<polygon fill="#bfbfbf" stroke="black" points="0.5,-38.5 0.5,-57.5 133.5,-57.5 133.5,-38.5 0.5,-38.5"/>
<text text-anchor="middle" x="67" y="-45.5" font-family="Helvetica,sans-Serif" font-size="10.00">parser.Parser.parseInput</text>
</g>
<!-- Node2 -->
<g id="node2" class="node"><title>Node2</title>
<g id="a_node2"><a xlink:href="../../dd/dd6/classcommands_1_1_command.html#a344968a97c674aa32a5da584142ce491" target="_top" xlink:title="commands.Command.getClassName">
<polygon fill="white" stroke="black" points="170.5,-76.5 170.5,-95.5 367.5,-95.5 367.5,-76.5 170.5,-76.5"/>
<text text-anchor="middle" x="269" y="-83.5" font-family="Helvetica,sans-Serif" font-size="10.00">commands.Command.getClassName</text>
</a>
</g>
</g>
<!-- Node1&#45;&gt;Node2 -->
<g id="edge1" class="edge"><title>Node1&#45;&gt;Node2</title>
<path fill="none" stroke="midnightblue" d="M118.21,-57.54C145.433,-62.7122 179.264,-69.1401 207.883,-74.5778"/>
<polygon fill="midnightblue" stroke="midnightblue" points="207.291,-78.0279 217.769,-76.4561 208.598,-71.1509 207.291,-78.0279"/>
</g>
<!-- Node3 -->
<g id="node3" class="node"><title>Node3</title>
<g id="a_node3"><a xlink:href="../../d6/d95/classparser_1_1_parser.html#a62065d5ce26384c5dc62d3bb3242cd6e" target="_top" xlink:title="parser.Parser.getCommand">
<polygon fill="white" stroke="black" points="195,-38.5 195,-57.5 343,-57.5 343,-38.5 195,-38.5"/>
<text text-anchor="middle" x="269" y="-45.5" font-family="Helvetica,sans-Serif" font-size="10.00">parser.Parser.getCommand</text>
</a>
</g>
</g>
<!-- Node1&#45;&gt;Node3 -->
<g id="edge2" class="edge"><title>Node1&#45;&gt;Node3</title>
<path fill="none" stroke="midnightblue" d="M133.764,-48C149.981,-48 167.564,-48 184.498,-48"/>
<polygon fill="midnightblue" stroke="midnightblue" points="184.94,-51.5001 194.94,-48 184.94,-44.5001 184.94,-51.5001"/>
</g>
<!-- Node7 -->
<g id="node7" class="node"><title>Node7</title>
<g id="a_node7"><a xlink:href="../../d6/d95/classparser_1_1_parser.html#ad42a143192068d40cf6dbdf26feaa762" target="_top" xlink:title="parser.Parser.throwError">
<polygon fill="white" stroke="black" points="203.5,-0.5 203.5,-19.5 334.5,-19.5 334.5,-0.5 203.5,-0.5"/>
<text text-anchor="middle" x="269" y="-7.5" font-family="Helvetica,sans-Serif" font-size="10.00">parser.Parser.throwError</text>
</a>
</g>
</g>
<!-- Node1&#45;&gt;Node7 -->
<g id="edge7" class="edge"><title>Node1&#45;&gt;Node7</title>
<path fill="none" stroke="midnightblue" d="M118.21,-38.46C145.433,-33.2878 179.264,-26.8599 207.883,-21.4222"/>
<polygon fill="midnightblue" stroke="midnightblue" points="208.598,-24.8491 217.769,-19.5439 207.291,-17.9721 208.598,-24.8491"/>
</g>
<!-- Node4 -->
<g id="node4" class="node"><title>Node4</title>
<g id="a_node4"><a xlink:href="../../dd/dd6/classcommands_1_1_command.html#a2166e30ed210d3219b05e104e1aba9f6" target="_top" xlink:title="commands.Command.getNumParameters">
<polygon fill="white" stroke="black" points="404.5,-76.5 404.5,-95.5 625.5,-95.5 625.5,-76.5 404.5,-76.5"/>
<text text-anchor="middle" x="515" y="-83.5" font-family="Helvetica,sans-Serif" font-size="10.00">commands.Command.getNumParameters</text>
</a>
</g>
</g>
<!-- Node3&#45;&gt;Node4 -->
<g id="edge3" class="edge"><title>Node3&#45;&gt;Node4</title>
<path fill="none" stroke="midnightblue" d="M331.257,-57.54C365.048,-62.8025 407.186,-69.3651 442.481,-74.8618"/>
<polygon fill="midnightblue" stroke="midnightblue" points="442.299,-78.3755 452.718,-76.4561 443.376,-71.4589 442.299,-78.3755"/>
</g>
<!-- Node5 -->
<g id="node5" class="node"><title>Node5</title>
<g id="a_node5"><a xlink:href="../../d6/d95/classparser_1_1_parser.html#a5746ee23ade69654bd86c83981eb1e25" target="_top" xlink:title="parser.Parser.makeListCommand">
<polygon fill="white" stroke="black" points="427,-38.5 427,-57.5 603,-57.5 603,-38.5 427,-38.5"/>
<text text-anchor="middle" x="515" y="-45.5" font-family="Helvetica,sans-Serif" font-size="10.00">parser.Parser.makeListCommand</text>
</a>
</g>
</g>
<!-- Node3&#45;&gt;Node5 -->
<g id="edge4" class="edge"><title>Node3&#45;&gt;Node5</title>
<path fill="none" stroke="midnightblue" d="M343.208,-41.7547C366.279,-41.2517 392.138,-41.1247 416.617,-41.3736"/>
<polygon fill="midnightblue" stroke="midnightblue" points="416.603,-44.8736 426.645,-41.498 416.69,-37.8742 416.603,-44.8736"/>
</g>
<!-- Node6 -->
<g id="node6" class="node"><title>Node6</title>
<g id="a_node6"><a xlink:href="../../dd/dd6/classcommands_1_1_command.html#a97daed7994c540f9a74bfbb0d7312c3c" target="_top" xlink:title="commands.Command.setParameters">
<polygon fill="white" stroke="black" points="416.5,-0.5 416.5,-19.5 613.5,-19.5 613.5,-0.5 416.5,-0.5"/>
<text text-anchor="middle" x="515" y="-7.5" font-family="Helvetica,sans-Serif" font-size="10.00">commands.Command.setParameters</text>
</a>
</g>
</g>
<!-- Node3&#45;&gt;Node6 -->
<g id="edge6" class="edge"><title>Node3&#45;&gt;Node6</title>
<path fill="none" stroke="midnightblue" d="M331.257,-38.46C365.048,-33.1975 407.186,-26.6349 442.481,-21.1382"/>
<polygon fill="midnightblue" stroke="midnightblue" points="443.376,-24.5411 452.718,-19.5439 442.299,-17.6245 443.376,-24.5411"/>
</g>
<!-- Node5&#45;&gt;Node3 -->
<g id="edge5" class="edge"><title>Node5&#45;&gt;Node3</title>
<path fill="none" stroke="midnightblue" d="M426.645,-54.502C402.732,-54.853 376.883,-54.8314 353.209,-54.4371"/>
<polygon fill="midnightblue" stroke="midnightblue" points="353.273,-50.9378 343.208,-54.2453 353.139,-57.9365 353.273,-50.9378"/>
</g>
</g>
</svg>
