<?xml version="1.0" encoding="UTF-8" standalone="no"?>
<!DOCTYPE svg PUBLIC "-//W3C//DTD SVG 1.1//EN"
 "http://www.w3.org/Graphics/SVG/1.1/DTD/svg11.dtd">
<!-- Generated by graphviz version 2.36.0 (20140111.2315)
 -->
<!-- Title: parser.Parser.getCommand Pages: 1 -->
<svg width="414pt" height="104pt"
 viewBox="0.00 0.00 414.00 104.00" xmlns="http://www.w3.org/2000/svg" xmlns:xlink="http://www.w3.org/1999/xlink">
<g id="graph0" class="graph" transform="scale(1 1) rotate(0) translate(4 100)">
<title>parser.Parser.getCommand</title>
<polygon fill="white" stroke="none" points="-4,4 -4,-100 410,-100 410,4 -4,4"/>
<!-- Node1 -->
<g id="node1" class="node"><title>Node1</title>
<polygon fill="#bfbfbf" stroke="black" points="0,-38.5 0,-57.5 148,-57.5 148,-38.5 0,-38.5"/>
<text text-anchor="middle" x="74" y="-45.5" font-family="Helvetica,sans-Serif" font-size="10.00">parser.Parser.getCommand</text>
</g>
<!-- Node2 -->
<g id="node2" class="node"><title>Node2</title>
<g id="a_node2"><a xlink:href="../../dd/dd6/classcommands_1_1_command.html#a2166e30ed210d3219b05e104e1aba9f6" target="_top" xlink:title="commands.Command.getNumParameters">
<polygon fill="white" stroke="black" points="184.5,-76.5 184.5,-95.5 405.5,-95.5 405.5,-76.5 184.5,-76.5"/>
<text text-anchor="middle" x="295" y="-83.5" font-family="Helvetica,sans-Serif" font-size="10.00">commands.Command.getNumParameters</text>
</a>
</g>
</g>
<!-- Node1&#45;&gt;Node2 -->
<g id="edge1" class="edge"><title>Node1&#45;&gt;Node2</title>
<path fill="none" stroke="midnightblue" d="M129.61,-57.5361C146.994,-60.5673 166.304,-63.9294 184,-67 198.506,-69.5171 214.089,-72.2134 228.833,-74.761"/>
<polygon fill="midnightblue" stroke="midnightblue" points="228.433,-78.2436 238.883,-76.4969 229.625,-71.3458 228.433,-78.2436"/>
</g>
<!-- Node3 -->
<g id="node3" class="node"><title>Node3</title>
<g id="a_node3"><a xlink:href="../../d6/d95/classparser_1_1_parser.html#a5746ee23ade69654bd86c83981eb1e25" target="_top" xlink:title="parser.Parser.makeListCommand">
<polygon fill="white" stroke="black" points="207,-38.5 207,-57.5 383,-57.5 383,-38.5 207,-38.5"/>
<text text-anchor="middle" x="295" y="-45.5" font-family="Helvetica,sans-Serif" font-size="10.00">parser.Parser.makeListCommand</text>
</a>
</g>
</g>
<!-- Node1&#45;&gt;Node3 -->
<g id="edge2" class="edge"><title>Node1&#45;&gt;Node3</title>
<path fill="none" stroke="midnightblue" d="M148.228,-41.5905C163.777,-41.2882 180.426,-41.1872 196.711,-41.2874"/>
<polygon fill="midnightblue" stroke="midnightblue" points="196.759,-44.7879 206.79,-41.3759 196.821,-37.7882 196.759,-44.7879"/>
</g>
<!-- Node4 -->
<g id="node4" class="node"><title>Node4</title>
<g id="a_node4"><a xlink:href="../../dd/dd6/classcommands_1_1_command.html#a97daed7994c540f9a74bfbb0d7312c3c" target="_top" xlink:title="commands.Command.setParameters">
<polygon fill="white" stroke="black" points="196.5,-0.5 196.5,-19.5 393.5,-19.5 393.5,-0.5 196.5,-0.5"/>
<text text-anchor="middle" x="295" y="-7.5" font-family="Helvetica,sans-Serif" font-size="10.00">commands.Command.setParameters</text>
</a>
</g>
</g>
<!-- Node1&#45;&gt;Node4 -->
<g id="edge4" class="edge"><title>Node1&#45;&gt;Node4</title>
<path fill="none" stroke="midnightblue" d="M129.61,-38.4639C146.994,-35.4327 166.304,-32.0706 184,-29 198.506,-26.4829 214.089,-23.7866 228.833,-21.239"/>
<polygon fill="midnightblue" stroke="midnightblue" points="229.625,-24.6542 238.883,-19.5031 228.433,-17.7564 229.625,-24.6542"/>
</g>
<!-- Node3&#45;&gt;Node1 -->
<g id="edge3" class="edge"><title>Node3&#45;&gt;Node1</title>
<path fill="none" stroke="midnightblue" d="M206.79,-54.6241C190.872,-54.8062 174.297,-54.7907 158.49,-54.5778"/>
<polygon fill="midnightblue" stroke="midnightblue" points="158.284,-51.0741 148.228,-54.4095 158.17,-58.0731 158.284,-51.0741"/>
</g>
</g>
</svg>
