<?xml version="1.0" encoding="UTF-8" standalone="no"?>
<!DOCTYPE svg PUBLIC "-//W3C//DTD SVG 1.1//EN"
 "http://www.w3.org/Graphics/SVG/1.1/DTD/svg11.dtd">
<!-- Generated by graphviz version 2.36.0 (20140111.2315)
 -->
<!-- Title: parser.Parser.makeListCommand Pages: 1 -->
<svg width="936pt" height="38pt"
 viewBox="0.00 0.00 936.00 38.00" xmlns="http://www.w3.org/2000/svg" xmlns:xlink="http://www.w3.org/1999/xlink">
<g id="graph0" class="graph" transform="scale(1 1) rotate(0) translate(4 34)">
<title>parser.Parser.makeListCommand</title>
<polygon fill="white" stroke="none" points="-4,4 -4,-34 932,-34 932,4 -4,4"/>
<!-- Node1 -->
<g id="node1" class="node"><title>Node1</title>
<polygon fill="#bfbfbf" stroke="black" points="0,-5.5 0,-24.5 176,-24.5 176,-5.5 0,-5.5"/>
<text text-anchor="middle" x="88" y="-12.5" font-family="Helvetica,sans-Serif" font-size="10.00">parser.Parser.makeListCommand</text>
</g>
<!-- Node2 -->
<g id="node2" class="node"><title>Node2</title>
<g id="a_node2"><a xlink:href="../../d6/d95/classparser_1_1_parser.html#a62065d5ce26384c5dc62d3bb3242cd6e" target="_top" xlink:title="parser.Parser.getCommand">
<polygon fill="white" stroke="black" points="212,-5.5 212,-24.5 360,-24.5 360,-5.5 212,-5.5"/>
<text text-anchor="middle" x="286" y="-12.5" font-family="Helvetica,sans-Serif" font-size="10.00">parser.Parser.getCommand</text>
</a>
</g>
</g>
<!-- Node1&#45;&gt;Node2 -->
<g id="edge1" class="edge"><title>Node1&#45;&gt;Node2</title>
<path fill="none" stroke="midnightblue" d="M186.239,-8.25018C194.884,-8.24607 203.537,-8.312 211.929,-8.44797"/>
<polygon fill="midnightblue" stroke="midnightblue" points="186.097,-4.75058 176.11,-8.28718 186.123,-11.7505 186.097,-4.75058"/>
</g>
<!-- Node2&#45;&gt;Node1 -->
<g id="edge2" class="edge"><title>Node2&#45;&gt;Node1</title>
<path fill="none" stroke="midnightblue" d="M201.695,-21.6821C193.229,-21.7609 184.614,-21.7711 176.11,-21.7128"/>
<polygon fill="midnightblue" stroke="midnightblue" points="201.974,-25.1789 211.929,-21.552 201.885,-18.1795 201.974,-25.1789"/>
</g>
<!-- Node3 -->
<g id="node3" class="node"><title>Node3</title>
<g id="a_node3"><a xlink:href="../../d6/d95/classparser_1_1_parser.html#aacbac8270cf4817504ddb495ba67863f" target="_top" xlink:title="parser.Parser.parseInput">
<polygon fill="white" stroke="black" points="396.5,-5.5 396.5,-24.5 529.5,-24.5 529.5,-5.5 396.5,-5.5"/>
<text text-anchor="middle" x="463" y="-12.5" font-family="Helvetica,sans-Serif" font-size="10.00">parser.Parser.parseInput</text>
</a>
</g>
</g>
<!-- Node2&#45;&gt;Node3 -->
<g id="edge3" class="edge"><title>Node2&#45;&gt;Node3</title>
<path fill="none" stroke="midnightblue" d="M370.384,-15C379.096,-15 387.863,-15 396.339,-15"/>
<polygon fill="midnightblue" stroke="midnightblue" points="370.202,-11.5001 360.202,-15 370.202,-18.5001 370.202,-11.5001"/>
</g>
<!-- Node4 -->
<g id="node4" class="node"><title>Node4</title>
<g id="a_node4"><a xlink:href="../../d9/df7/classcontroller_1_1_controller.html#afdfa7f9e9a3fb5f6b73a6b8e2b2be8b5" target="_top" xlink:title="controller.Controller.get\lInput">
<polygon fill="white" stroke="black" points="566,-0 566,-30 694,-30 694,-0 566,-0"/>
<text text-anchor="start" x="574" y="-18" font-family="Helvetica,sans-Serif" font-size="10.00">controller.Controller.get</text>
<text text-anchor="middle" x="630" y="-7" font-family="Helvetica,sans-Serif" font-size="10.00">Input</text>
</a>
</g>
</g>
<!-- Node3&#45;&gt;Node4 -->
<g id="edge4" class="edge"><title>Node3&#45;&gt;Node4</title>
<path fill="none" stroke="midnightblue" d="M539.865,-15C548.594,-15 557.423,-15 565.958,-15"/>
<polygon fill="midnightblue" stroke="midnightblue" points="539.687,-11.5001 529.686,-15 539.686,-18.5001 539.687,-11.5001"/>
</g>
<!-- Node5 -->
<g id="node5" class="node"><title>Node5</title>
<g id="a_node5"><a xlink:href="../../d3/dc7/classview_1_1controllers_1_1_pane_controller.html#a7e6154aecb60d8f3bcb056a11e842764" target="_top" xlink:title="view.controllers.PaneController.update">
<polygon fill="white" stroke="black" points="730,-5.5 730,-24.5 928,-24.5 928,-5.5 730,-5.5"/>
<text text-anchor="middle" x="829" y="-12.5" font-family="Helvetica,sans-Serif" font-size="10.00">view.controllers.PaneController.update</text>
</a>
</g>
</g>
<!-- Node4&#45;&gt;Node5 -->
<g id="edge5" class="edge"><title>Node4&#45;&gt;Node5</title>
<path fill="none" stroke="midnightblue" d="M704.166,-15C712.501,-15 721.097,-15 729.69,-15"/>
<polygon fill="midnightblue" stroke="midnightblue" points="704.145,-11.5001 694.145,-15 704.145,-18.5001 704.145,-11.5001"/>
</g>
</g>
</svg>
