<?xml version="1.0" encoding="UTF-8" standalone="no"?>
<!DOCTYPE svg PUBLIC "-//W3C//DTD SVG 1.1//EN"
 "http://www.w3.org/Graphics/SVG/1.1/DTD/svg11.dtd">
<!-- Generated by graphviz version 2.36.0 (20140111.2315)
 -->
<!-- Title: parser.Parser.makeListCommand Pages: 1 -->
<svg width="626pt" height="66pt"
 viewBox="0.00 0.00 626.00 66.00" xmlns="http://www.w3.org/2000/svg" xmlns:xlink="http://www.w3.org/1999/xlink">
<g id="graph0" class="graph" transform="scale(1 1) rotate(0) translate(4 62)">
<title>parser.Parser.makeListCommand</title>
<polygon fill="white" stroke="none" points="-4,4 -4,-62 622,-62 622,4 -4,4"/>
<!-- Node1 -->
<g id="node1" class="node"><title>Node1</title>
<polygon fill="#bfbfbf" stroke="black" points="0,-19.5 0,-38.5 176,-38.5 176,-19.5 0,-19.5"/>
<text text-anchor="middle" x="88" y="-26.5" font-family="Helvetica,sans-Serif" font-size="10.00">parser.Parser.makeListCommand</text>
</g>
<!-- Node2 -->
<g id="node2" class="node"><title>Node2</title>
<g id="a_node2"><a xlink:href="../../d6/d95/classparser_1_1_parser.html#a62065d5ce26384c5dc62d3bb3242cd6e" target="_top" xlink:title="parser.Parser.getCommand">
<polygon fill="white" stroke="black" points="212,-19.5 212,-38.5 360,-38.5 360,-19.5 212,-19.5"/>
<text text-anchor="middle" x="286" y="-26.5" font-family="Helvetica,sans-Serif" font-size="10.00">parser.Parser.getCommand</text>
</a>
</g>
</g>
<!-- Node1&#45;&gt;Node2 -->
<g id="edge1" class="edge"><title>Node1&#45;&gt;Node2</title>
<path fill="none" stroke="midnightblue" d="M176.11,-22.2872C184.614,-22.2289 193.229,-22.2391 201.695,-22.3179"/>
<polygon fill="midnightblue" stroke="midnightblue" points="201.885,-25.8205 211.929,-22.448 201.974,-18.8211 201.885,-25.8205"/>
</g>
<!-- Node2&#45;&gt;Node1 -->
<g id="edge3" class="edge"><title>Node2&#45;&gt;Node1</title>
<path fill="none" stroke="midnightblue" d="M211.929,-35.552C203.537,-35.688 194.884,-35.7539 186.239,-35.7498"/>
<polygon fill="midnightblue" stroke="midnightblue" points="186.123,-32.2495 176.11,-35.7128 186.097,-39.2494 186.123,-32.2495"/>
</g>
<!-- Node3 -->
<g id="node3" class="node"><title>Node3</title>
<g id="a_node3"><a xlink:href="../../dd/dd6/classcommands_1_1_command.html#a2166e30ed210d3219b05e104e1aba9f6" target="_top" xlink:title="commands.Command.getNumParameters">
<polygon fill="white" stroke="black" points="396.5,-38.5 396.5,-57.5 617.5,-57.5 617.5,-38.5 396.5,-38.5"/>
<text text-anchor="middle" x="507" y="-45.5" font-family="Helvetica,sans-Serif" font-size="10.00">commands.Command.getNumParameters</text>
</a>
</g>
</g>
<!-- Node2&#45;&gt;Node3 -->
<g id="edge2" class="edge"><title>Node2&#45;&gt;Node3</title>
<path fill="none" stroke="midnightblue" d="M360.228,-35.3531C368.63,-36.0821 377.354,-36.8389 386.167,-37.6035"/>
<polygon fill="midnightblue" stroke="midnightblue" points="385.878,-41.0915 396.143,-38.4691 386.483,-34.1177 385.878,-41.0915"/>
</g>
<!-- Node4 -->
<g id="node4" class="node"><title>Node4</title>
<g id="a_node4"><a xlink:href="../../dd/dd6/classcommands_1_1_command.html#a97daed7994c540f9a74bfbb0d7312c3c" target="_top" xlink:title="commands.Command.setParameters">
<polygon fill="white" stroke="black" points="408.5,-0.5 408.5,-19.5 605.5,-19.5 605.5,-0.5 408.5,-0.5"/>
<text text-anchor="middle" x="507" y="-7.5" font-family="Helvetica,sans-Serif" font-size="10.00">commands.Command.setParameters</text>
</a>
</g>
</g>
<!-- Node2&#45;&gt;Node4 -->
<g id="edge4" class="edge"><title>Node2&#45;&gt;Node4</title>
<path fill="none" stroke="midnightblue" d="M360.228,-22.6469C372.395,-21.5913 385.235,-20.4774 398.046,-19.3658"/>
<polygon fill="midnightblue" stroke="midnightblue" points="398.642,-22.8274 408.302,-18.4761 398.036,-15.8536 398.642,-22.8274"/>
</g>
</g>
</svg>
