<?xml version="1.0" encoding="UTF-8" standalone="no"?>
<!DOCTYPE svg PUBLIC "-//W3C//DTD SVG 1.1//EN"
 "http://www.w3.org/Graphics/SVG/1.1/DTD/svg11.dtd">
<!-- Generated by graphviz version 2.36.0 (20140111.2315)
 -->
<!-- Title: model.Turtle.getmyCurr Pages: 1 -->
<svg width="576pt" height="273pt"
 viewBox="0.00 0.00 576.00 273.00" xmlns="http://www.w3.org/2000/svg" xmlns:xlink="http://www.w3.org/1999/xlink">
<g id="graph0" class="graph" transform="scale(1 1) rotate(0) translate(4 269)">
<title>model.Turtle.getmyCurr</title>
<polygon fill="white" stroke="none" points="-4,4 -4,-269 572,-269 572,4 -4,4"/>
<!-- Node1 -->
<g id="node1" class="node"><title>Node1</title>
<polygon fill="#bfbfbf" stroke="black" points="0.5,-103.5 0.5,-122.5 129.5,-122.5 129.5,-103.5 0.5,-103.5"/>
<text text-anchor="middle" x="65" y="-110.5" font-family="Helvetica,sans-Serif" font-size="10.00">model.Turtle.getmyCurr</text>
</g>
<!-- Node2 -->
<g id="node2" class="node"><title>Node2</title>
<g id="a_node2"><a xlink:href="../../d6/d34/classmodel_1_1_turtle.html#a8594135f6eec9e475e8927ddeb012e25" target="_top" xlink:title="model.Turtle.setXAndY">
<polygon fill="white" stroke="black" points="179.5,-169.5 179.5,-188.5 302.5,-188.5 302.5,-169.5 179.5,-169.5"/>
<text text-anchor="middle" x="241" y="-176.5" font-family="Helvetica,sans-Serif" font-size="10.00">model.Turtle.setXAndY</text>
</a>
</g>
</g>
<!-- Node1&#45;&gt;Node2 -->
<g id="edge1" class="edge"><title>Node1&#45;&gt;Node2</title>
<path fill="none" stroke="midnightblue" d="M100.776,-126.191C134.537,-138.997 184.953,-158.12 214.951,-169.499"/>
<polygon fill="midnightblue" stroke="midnightblue" points="101.892,-122.871 91.3011,-122.597 99.4098,-129.416 101.892,-122.871"/>
</g>
<!-- Node6 -->
<g id="node6" class="node"><title>Node6</title>
<g id="a_node6"><a xlink:href="../../d6/d34/classmodel_1_1_turtle.html#a3c4cab61994050c00f69fe05db97d15d" target="_top" xlink:title="model.Turtle.towards">
<polygon fill="white" stroke="black" points="183,-103.5 183,-122.5 299,-122.5 299,-103.5 183,-103.5"/>
<text text-anchor="middle" x="241" y="-110.5" font-family="Helvetica,sans-Serif" font-size="10.00">model.Turtle.towards</text>
</a>
</g>
</g>
<!-- Node1&#45;&gt;Node6 -->
<g id="edge5" class="edge"><title>Node1&#45;&gt;Node6</title>
<path fill="none" stroke="midnightblue" d="M140.105,-113C154.4,-113 169.17,-113 182.824,-113"/>
<polygon fill="midnightblue" stroke="midnightblue" points="139.803,-109.5 129.803,-113 139.803,-116.5 139.803,-109.5"/>
</g>
<!-- Node8 -->
<g id="node8" class="node"><title>Node8</title>
<g id="a_node8"><a xlink:href="../../d6/d34/classmodel_1_1_turtle.html#ad51e91eacea953766017f2311228ce89" target="_top" xlink:title="model.Turtle.updatePosition">
<polygon fill="white" stroke="black" points="166.5,-54.5 166.5,-73.5 315.5,-73.5 315.5,-54.5 166.5,-54.5"/>
<text text-anchor="middle" x="241" y="-61.5" font-family="Helvetica,sans-Serif" font-size="10.00">model.Turtle.updatePosition</text>
</a>
</g>
</g>
<!-- Node1&#45;&gt;Node8 -->
<g id="edge7" class="edge"><title>Node1&#45;&gt;Node8</title>
<path fill="none" stroke="midnightblue" d="M109.713,-100.69C139.589,-92.2768 178.602,-81.2902 206.124,-73.5399"/>
<polygon fill="midnightblue" stroke="midnightblue" points="108.639,-97.3563 99.962,-103.436 110.536,-104.094 108.639,-97.3563"/>
</g>
<!-- Node3 -->
<g id="node3" class="node"><title>Node3</title>
<g id="a_node3"><a xlink:href="../../dd/d40/classcommands_1_1_home_command.html#a5d6ef1bd5a451adbe74a3fb991aa079f" target="_top" xlink:title="commands.HomeCommand.update\lTurtle">
<polygon fill="white" stroke="black" points="365,-235 365,-265 555,-265 555,-235 365,-235"/>
<text text-anchor="start" x="373" y="-253" font-family="Helvetica,sans-Serif" font-size="10.00">commands.HomeCommand.update</text>
<text text-anchor="middle" x="460" y="-242" font-family="Helvetica,sans-Serif" font-size="10.00">Turtle</text>
</a>
</g>
</g>
<!-- Node2&#45;&gt;Node3 -->
<g id="edge2" class="edge"><title>Node2&#45;&gt;Node3</title>
<path fill="none" stroke="midnightblue" d="M271.273,-192.815C293.152,-202.75 323.99,-215.941 352,-225 363.254,-228.64 375.332,-231.983 387.176,-234.959"/>
<polygon fill="midnightblue" stroke="midnightblue" points="272.442,-189.5 261.894,-188.505 269.519,-195.861 272.442,-189.5"/>
</g>
<!-- Node4 -->
<g id="node4" class="node"><title>Node4</title>
<g id="a_node4"><a xlink:href="../../d9/db5/classcommands_1_1_set_position_command.html#aba31c4887974831a6c0d9feac8316ee6" target="_top" xlink:title="commands.SetPositionCommand.update\lTurtle">
<polygon fill="white" stroke="black" points="352.5,-186 352.5,-216 567.5,-216 567.5,-186 352.5,-186"/>
<text text-anchor="start" x="360.5" y="-204" font-family="Helvetica,sans-Serif" font-size="10.00">commands.SetPositionCommand.update</text>
<text text-anchor="middle" x="460" y="-193" font-family="Helvetica,sans-Serif" font-size="10.00">Turtle</text>
</a>
</g>
</g>
<!-- Node2&#45;&gt;Node4 -->
<g id="edge3" class="edge"><title>Node2&#45;&gt;Node4</title>
<path fill="none" stroke="midnightblue" d="M312.694,-186.167C325.34,-187.449 338.769,-188.811 352.164,-190.169"/>
<polygon fill="midnightblue" stroke="midnightblue" points="313.037,-182.684 302.735,-185.157 312.331,-189.648 313.037,-182.684"/>
</g>
<!-- Node5 -->
<g id="node5" class="node"><title>Node5</title>
<g id="a_node5"><a xlink:href="../../db/db5/classview_1_1panes_1_1_view_pane_module.html#a055bc3d50de01b24c9ca90581abf2918" target="_top" xlink:title="view.panes.ViewPaneModule.wrapping">
<polygon fill="white" stroke="black" points="361.5,-147.5 361.5,-166.5 558.5,-166.5 558.5,-147.5 361.5,-147.5"/>
<text text-anchor="middle" x="460" y="-154.5" font-family="Helvetica,sans-Serif" font-size="10.00">view.panes.ViewPaneModule.wrapping</text>
</a>
</g>
</g>
<!-- Node2&#45;&gt;Node5 -->
<g id="edge4" class="edge"><title>Node2&#45;&gt;Node5</title>
<path fill="none" stroke="midnightblue" d="M312.898,-171.812C329.527,-170.126 347.499,-168.304 364.963,-166.534"/>
<polygon fill="midnightblue" stroke="midnightblue" points="312.331,-168.352 302.735,-172.843 313.037,-175.316 312.331,-168.352"/>
</g>
<!-- Node7 -->
<g id="node7" class="node"><title>Node7</title>
<g id="a_node7"><a xlink:href="../../dc/df3/classcommands_1_1_set_towards_command.html#ad82abd7dcaed57b3bdb3a4b87a91815a" target="_top" xlink:title="commands.SetTowardsCommand.update\lTurtle">
<polygon fill="white" stroke="black" points="352.5,-98 352.5,-128 567.5,-128 567.5,-98 352.5,-98"/>
<text text-anchor="start" x="360.5" y="-116" font-family="Helvetica,sans-Serif" font-size="10.00">commands.SetTowardsCommand.update</text>
<text text-anchor="middle" x="460" y="-105" font-family="Helvetica,sans-Serif" font-size="10.00">Turtle</text>
</a>
</g>
</g>
<!-- Node6&#45;&gt;Node7 -->
<g id="edge6" class="edge"><title>Node6&#45;&gt;Node7</title>
<path fill="none" stroke="midnightblue" d="M309.275,-113C322.979,-113 337.714,-113 352.402,-113"/>
<polygon fill="midnightblue" stroke="midnightblue" points="309.014,-109.5 299.014,-113 309.014,-116.5 309.014,-109.5"/>
</g>
<!-- Node9 -->
<g id="node9" class="node"><title>Node9</title>
<g id="a_node9"><a xlink:href="../../d6/ddc/classcommands_1_1_backward_command.html#af0c4c6ac04bea1aa34b069a01c53888f" target="_top" xlink:title="commands.BackwardCommand.update\lTurtle">
<polygon fill="white" stroke="black" points="357,-49 357,-79 563,-79 563,-49 357,-49"/>
<text text-anchor="start" x="365" y="-67" font-family="Helvetica,sans-Serif" font-size="10.00">commands.BackwardCommand.update</text>
<text text-anchor="middle" x="460" y="-56" font-family="Helvetica,sans-Serif" font-size="10.00">Turtle</text>
</a>
</g>
</g>
<!-- Node8&#45;&gt;Node9 -->
<g id="edge8" class="edge"><title>Node8&#45;&gt;Node9</title>
<path fill="none" stroke="midnightblue" d="M325.852,-64C336.052,-64 346.559,-64 356.986,-64"/>
<polygon fill="midnightblue" stroke="midnightblue" points="325.769,-60.5001 315.769,-64 325.769,-67.5001 325.769,-60.5001"/>
</g>
<!-- Node10 -->
<g id="node10" class="node"><title>Node10</title>
<g id="a_node10"><a xlink:href="../../da/d4f/classcommands_1_1_forward_command.html#afe19b644a8fe0d46f3dbf19aef135364" target="_top" xlink:title="commands.ForwardCommand.update\lTurtle">
<polygon fill="white" stroke="black" points="361,-0 361,-30 559,-30 559,-0 361,-0"/>
<text text-anchor="start" x="369" y="-18" font-family="Helvetica,sans-Serif" font-size="10.00">commands.ForwardCommand.update</text>
<text text-anchor="middle" x="460" y="-7" font-family="Helvetica,sans-Serif" font-size="10.00">Turtle</text>
</a>
</g>
</g>
<!-- Node8&#45;&gt;Node10 -->
<g id="edge9" class="edge"><title>Node8&#45;&gt;Node10</title>
<path fill="none" stroke="midnightblue" d="M293.72,-52.2138C312.117,-48.0299 332.98,-43.2944 352,-39 364.906,-36.0859 378.691,-32.9852 391.927,-30.0139"/>
<polygon fill="midnightblue" stroke="midnightblue" points="292.755,-48.8437 283.781,-54.4751 294.308,-55.6693 292.755,-48.8437"/>
</g>
</g>
</svg>
