<?xml version="1.0" encoding="UTF-8" standalone="no"?>
<!DOCTYPE svg PUBLIC "-//W3C//DTD SVG 1.1//EN"
 "http://www.w3.org/Graphics/SVG/1.1/DTD/svg11.dtd">
<!-- Generated by graphviz version 2.36.0 (20140111.2315)
 -->
<!-- Title: model.Turtle.changeVisibility Pages: 1 -->
<svg width="408pt" height="136pt"
 viewBox="0.00 0.00 408.00 136.00" xmlns="http://www.w3.org/2000/svg" xmlns:xlink="http://www.w3.org/1999/xlink">
<g id="graph0" class="graph" transform="scale(1 1) rotate(0) translate(4 132)">
<title>model.Turtle.changeVisibility</title>
<polygon fill="white" stroke="none" points="-4,4 -4,-132 404,-132 404,4 -4,4"/>
<!-- Node1 -->
<g id="node1" class="node"><title>Node1</title>
<polygon fill="#bfbfbf" stroke="black" points="0,-54.5 0,-73.5 152,-73.5 152,-54.5 0,-54.5"/>
<text text-anchor="middle" x="76" y="-61.5" font-family="Helvetica,sans-Serif" font-size="10.00">model.Turtle.changeVisibility</text>
</g>
<!-- Node2 -->
<g id="node2" class="node"><title>Node2</title>
<g id="a_node2"><a xlink:href="../../de/d65/classcommands_1_1_is_showing_command.html#af2ed66a904379343ee62fe1650f79867" target="_top" xlink:title="commands.IsShowingCommand.execute\lCommand">
<polygon fill="white" stroke="black" points="188,-98 188,-128 400,-128 400,-98 188,-98"/>
<text text-anchor="start" x="196" y="-116" font-family="Helvetica,sans-Serif" font-size="10.00">commands.IsShowingCommand.execute</text>
<text text-anchor="middle" x="294" y="-105" font-family="Helvetica,sans-Serif" font-size="10.00">Command</text>
</a>
</g>
</g>
<!-- Node1&#45;&gt;Node2 -->
<g id="edge1" class="edge"><title>Node1&#45;&gt;Node2</title>
<path fill="none" stroke="midnightblue" d="M128.93,-75.7804C158.236,-82.4286 195.165,-90.806 226.563,-97.9287"/>
<polygon fill="midnightblue" stroke="midnightblue" points="129.43,-72.3049 118.903,-73.5058 127.881,-79.1315 129.43,-72.3049"/>
</g>
<!-- Node3 -->
<g id="node3" class="node"><title>Node3</title>
<g id="a_node3"><a xlink:href="../../d6/dc7/classcommands_1_1_show_turtle_command.html#a9d389b417342f8c9127e5945084ba981" target="_top" xlink:title="commands.ShowTurtleCommand.update\lTurtle">
<polygon fill="white" stroke="black" points="188,-49 188,-79 400,-79 400,-49 188,-49"/>
<text text-anchor="start" x="196" y="-67" font-family="Helvetica,sans-Serif" font-size="10.00">commands.ShowTurtleCommand.update</text>
<text text-anchor="middle" x="294" y="-56" font-family="Helvetica,sans-Serif" font-size="10.00">Turtle</text>
</a>
</g>
</g>
<!-- Node1&#45;&gt;Node3 -->
<g id="edge2" class="edge"><title>Node1&#45;&gt;Node3</title>
<path fill="none" stroke="midnightblue" d="M162.398,-64C170.812,-64 179.419,-64 188,-64"/>
<polygon fill="midnightblue" stroke="midnightblue" points="162.243,-60.5001 152.243,-64 162.243,-67.5001 162.243,-60.5001"/>
</g>
<!-- Node4 -->
<g id="node4" class="node"><title>Node4</title>
<g id="a_node4"><a xlink:href="../../d1/de3/classcommands_1_1_hide_turtle_command.html#aa437cbf73ddf8a957cbd9c05ca034a19" target="_top" xlink:title="commands.HideTurtleCommand.update\lTurtle">
<polygon fill="white" stroke="black" points="190,-0 190,-30 398,-30 398,-0 190,-0"/>
<text text-anchor="start" x="198" y="-18" font-family="Helvetica,sans-Serif" font-size="10.00">commands.HideTurtleCommand.update</text>
<text text-anchor="middle" x="294" y="-7" font-family="Helvetica,sans-Serif" font-size="10.00">Turtle</text>
</a>
</g>
</g>
<!-- Node1&#45;&gt;Node4 -->
<g id="edge3" class="edge"><title>Node1&#45;&gt;Node4</title>
<path fill="none" stroke="midnightblue" d="M128.93,-52.2196C158.236,-45.5714 195.165,-37.194 226.563,-30.0713"/>
<polygon fill="midnightblue" stroke="midnightblue" points="127.881,-48.8685 118.903,-54.4942 129.43,-55.6951 127.881,-48.8685"/>
</g>
</g>
</svg>
