<?xml version="1.0" encoding="UTF-8" standalone="no"?>
<!DOCTYPE svg PUBLIC "-//W3C//DTD SVG 1.1//EN"
 "http://www.w3.org/Graphics/SVG/1.1/DTD/svg11.dtd">
<!-- Generated by graphviz version 2.36.0 (20140111.2315)
 -->
<!-- Title: model.Turtle.getPenDash Pages: 1 -->
<svg width="1754pt" height="1361pt"
 viewBox="0.00 0.00 1754.00 1361.00" xmlns="http://www.w3.org/2000/svg" xmlns:xlink="http://www.w3.org/1999/xlink">
<g id="graph0" class="graph" transform="scale(1 1) rotate(0) translate(4 1357)">
<title>model.Turtle.getPenDash</title>
<polygon fill="white" stroke="none" points="-4,4 -4,-1357 1750,-1357 1750,4 -4,4"/>
<!-- Node1 -->
<g id="node1" class="node"><title>Node1</title>
<polygon fill="#bfbfbf" stroke="black" points="0.5,-291.5 0.5,-310.5 137.5,-310.5 137.5,-291.5 0.5,-291.5"/>
<text text-anchor="middle" x="69" y="-298.5" font-family="Helvetica,sans-Serif" font-size="10.00">model.Turtle.getPenDash</text>
</g>
<!-- Node2 -->
<g id="node2" class="node"><title>Node2</title>
<g id="a_node2"><a xlink:href="../../db/db5/classview_1_1panes_1_1_view_pane_module.html#ab55ce3511929b88a2cd1235eb694868f" target="_top" xlink:title="view.panes.ViewPaneModule.update\lTurtle">
<polygon fill="white" stroke="black" points="174,-286 174,-316 362,-316 362,-286 174,-286"/>
<text text-anchor="start" x="182" y="-304" font-family="Helvetica,sans-Serif" font-size="10.00">view.panes.ViewPaneModule.update</text>
<text text-anchor="middle" x="268" y="-293" font-family="Helvetica,sans-Serif" font-size="10.00">Turtle</text>
</a>
</g>
</g>
<!-- Node1&#45;&gt;Node2 -->
<g id="edge1" class="edge"><title>Node1&#45;&gt;Node2</title>
<path fill="none" stroke="midnightblue" d="M147.525,-301C156.15,-301 165,-301 173.794,-301"/>
<polygon fill="midnightblue" stroke="midnightblue" points="147.521,-297.5 137.521,-301 147.521,-304.5 147.521,-297.5"/>
</g>
<!-- Node3 -->
<g id="node3" class="node"><title>Node3</title>
<g id="a_node3"><a xlink:href="../../db/db5/classview_1_1panes_1_1_view_pane_module.html#aa2a1bf15bc036ee4237bf63749d85baf" target="_top" xlink:title="view.panes.ViewPaneModule.updateView">
<polygon fill="white" stroke="black" points="398.5,-291.5 398.5,-310.5 607.5,-310.5 607.5,-291.5 398.5,-291.5"/>
<text text-anchor="middle" x="503" y="-298.5" font-family="Helvetica,sans-Serif" font-size="10.00">view.panes.ViewPaneModule.updateView</text>
</a>
</g>
</g>
<!-- Node2&#45;&gt;Node3 -->
<g id="edge2" class="edge"><title>Node2&#45;&gt;Node3</title>
<path fill="none" stroke="midnightblue" d="M372.215,-301C380.887,-301 389.658,-301 398.333,-301"/>
<polygon fill="midnightblue" stroke="midnightblue" points="372.092,-297.5 362.092,-301 372.092,-304.5 372.092,-297.5"/>
</g>
<!-- Node4 -->
<g id="node4" class="node"><title>Node4</title>
<g id="a_node4"><a xlink:href="../../d3/d42/classmodel_1_1_model.html#a76160d002c1e68b566307ac44356f6e5" target="_top" xlink:title="model.Model.notifyView">
<polygon fill="white" stroke="black" points="671.5,-313.5 671.5,-332.5 800.5,-332.5 800.5,-313.5 671.5,-313.5"/>
<text text-anchor="middle" x="736" y="-320.5" font-family="Helvetica,sans-Serif" font-size="10.00">model.Model.notifyView</text>
</a>
</g>
</g>
<!-- Node3&#45;&gt;Node4 -->
<g id="edge3" class="edge"><title>Node3&#45;&gt;Node4</title>
<path fill="none" stroke="midnightblue" d="M614.173,-311.493C633.729,-313.355 653.49,-315.237 671.206,-316.924"/>
<polygon fill="midnightblue" stroke="midnightblue" points="614.263,-307.986 603.976,-310.522 613.6,-314.954 614.263,-307.986"/>
</g>
<!-- Node38 -->
<g id="node38" class="node"><title>Node38</title>
<g id="a_node38"><a xlink:href="../../db/db5/classview_1_1panes_1_1_view_pane_module.html#a200bd9d0cb7f1fb3482afb7f085939cd" target="_top" xlink:title="view.panes.ViewPaneModule.toggle\lActive">
<polygon fill="white" stroke="black" points="644,-264 644,-294 828,-294 828,-264 644,-264"/>
<text text-anchor="start" x="652" y="-282" font-family="Helvetica,sans-Serif" font-size="10.00">view.panes.ViewPaneModule.toggle</text>
<text text-anchor="middle" x="736" y="-271" font-family="Helvetica,sans-Serif" font-size="10.00">Active</text>
</a>
</g>
</g>
<!-- Node3&#45;&gt;Node38 -->
<g id="edge37" class="edge"><title>Node3&#45;&gt;Node38</title>
<path fill="none" stroke="midnightblue" d="M613.986,-290.525C624.025,-289.569 634.12,-288.608 643.966,-287.67"/>
<polygon fill="midnightblue" stroke="midnightblue" points="613.6,-287.046 603.976,-291.478 614.263,-294.014 613.6,-287.046"/>
</g>
<!-- Node5 -->
<g id="node5" class="node"><title>Node5</title>
<g id="a_node5"><a xlink:href="../../dd/dd6/classcommands_1_1_command.html#abafa69601e87c34d4453cf84349d6f9c" target="_top" xlink:title="commands.Command.execute\lCommand">
<polygon fill="white" stroke="black" points="864.5,-661 864.5,-691 1029.5,-691 1029.5,-661 864.5,-661"/>
<text text-anchor="start" x="872.5" y="-679" font-family="Helvetica,sans-Serif" font-size="10.00">commands.Command.execute</text>
<text text-anchor="middle" x="947" y="-668" font-family="Helvetica,sans-Serif" font-size="10.00">Command</text>
</a>
</g>
</g>
<!-- Node4&#45;&gt;Node5 -->
<g id="edge4" class="edge"><title>Node4&#45;&gt;Node5</title>
<path fill="none" stroke="midnightblue" d="M747.99,-341.563C784.815,-403.76 903.416,-604.075 937.039,-660.865"/>
<polygon fill="midnightblue" stroke="midnightblue" points="750.914,-339.631 742.808,-332.81 744.891,-343.198 750.914,-339.631"/>
</g>
<!-- Node34 -->
<g id="node34" class="node"><title>Node34</title>
<g id="a_node34"><a xlink:href="../../d3/d42/classmodel_1_1_model.html#a73435cc7a2b6100031bbdd2cf6d6b4e8" target="_top" xlink:title="model.Model.updateModel">
<polygon fill="white" stroke="black" points="875.5,-313.5 875.5,-332.5 1018.5,-332.5 1018.5,-313.5 875.5,-313.5"/>
<text text-anchor="middle" x="947" y="-320.5" font-family="Helvetica,sans-Serif" font-size="10.00">model.Model.updateModel</text>
</a>
</g>
</g>
<!-- Node4&#45;&gt;Node34 -->
<g id="edge33" class="edge"><title>Node4&#45;&gt;Node34</title>
<path fill="none" stroke="midnightblue" d="M810.72,-323C831.752,-323 854.611,-323 875.45,-323"/>
<polygon fill="midnightblue" stroke="midnightblue" points="810.558,-319.5 800.558,-323 810.558,-326.5 810.558,-319.5"/>
</g>
<!-- Node6 -->
<g id="node6" class="node"><title>Node6</title>
<g id="a_node6"><a xlink:href="../../d1/d79/classcommands_1_1_sum_command.html#a792945436d0c3ff1f58301fcc50f5ae1" target="_top" xlink:title="commands.SumCommand.execute\lCommand">
<polygon fill="white" stroke="black" points="1092,-1323 1092,-1353 1280,-1353 1280,-1323 1092,-1323"/>
<text text-anchor="start" x="1100" y="-1341" font-family="Helvetica,sans-Serif" font-size="10.00">commands.SumCommand.execute</text>
<text text-anchor="middle" x="1186" y="-1330" font-family="Helvetica,sans-Serif" font-size="10.00">Command</text>
</a>
</g>
</g>
<!-- Node5&#45;&gt;Node6 -->
<g id="edge5" class="edge"><title>Node5&#45;&gt;Node6</title>
<path fill="none" stroke="midnightblue" d="M949.051,-701.444C954.011,-808.823 978.634,-1223.52 1066,-1313 1073.3,-1320.48 1082.23,-1326 1091.88,-1330.04"/>
<polygon fill="midnightblue" stroke="midnightblue" points="952.537,-701.061 948.596,-691.226 945.544,-701.372 952.537,-701.061"/>
</g>
<!-- Node7 -->
<g id="node7" class="node"><title>Node7</title>
<g id="a_node7"><a xlink:href="../../d6/dc0/classcommands_1_1_repeat_command.html#a40fb82831e8b2beaa7e31913e46e15eb" target="_top" xlink:title="commands.RepeatCommand.execute\lCommand">
<polygon fill="white" stroke="black" points="1087,-1274 1087,-1304 1285,-1304 1285,-1274 1087,-1274"/>
<text text-anchor="start" x="1095" y="-1292" font-family="Helvetica,sans-Serif" font-size="10.00">commands.RepeatCommand.execute</text>
<text text-anchor="middle" x="1186" y="-1281" font-family="Helvetica,sans-Serif" font-size="10.00">Command</text>
</a>
</g>
</g>
<!-- Node5&#45;&gt;Node7 -->
<g id="edge6" class="edge"><title>Node5&#45;&gt;Node7</title>
<path fill="none" stroke="midnightblue" d="M949.475,-701.431C955.924,-803.56 985.027,-1182.29 1066,-1264 1072.02,-1270.07 1079.11,-1274.85 1086.79,-1278.59"/>
<polygon fill="midnightblue" stroke="midnightblue" points="952.95,-700.909 948.844,-691.142 945.963,-701.338 952.95,-700.909"/>
</g>
<!-- Node8 -->
<g id="node8" class="node"><title>Node8</title>
<g id="a_node8"><a xlink:href="../../dd/d82/classcommands_1_1_remainder_command.html#a99d4baf3f1b4a3c8d0cd69274380a2cf" target="_top" xlink:title="commands.RemainderCommand.execute\lCommand">
<polygon fill="white" stroke="black" points="1078,-1225 1078,-1255 1294,-1255 1294,-1225 1078,-1225"/>
<text text-anchor="start" x="1086" y="-1243" font-family="Helvetica,sans-Serif" font-size="10.00">commands.RemainderCommand.execute</text>
<text text-anchor="middle" x="1186" y="-1232" font-family="Helvetica,sans-Serif" font-size="10.00">Command</text>
</a>
</g>
</g>
<!-- Node5&#45;&gt;Node8 -->
<g id="edge7" class="edge"><title>Node5&#45;&gt;Node8</title>
<path fill="none" stroke="midnightblue" d="M949.955,-701.181C957.95,-797.511 991.333,-1140.96 1066,-1215 1069.82,-1218.79 1074.06,-1222.07 1078.6,-1224.91"/>
<polygon fill="midnightblue" stroke="midnightblue" points="953.441,-700.858 949.143,-691.174 946.464,-701.424 953.441,-700.858"/>
</g>
<!-- Node9 -->
<g id="node9" class="node"><title>Node9</title>
<g id="a_node9"><a xlink:href="../../df/df5/classcommands_1_1_minus_command.html#a82548bbb25a73194469e1ff81b19cf27" target="_top" xlink:title="commands.MinusCommand.execute\lCommand">
<polygon fill="white" stroke="black" points="1089.5,-1176 1089.5,-1206 1282.5,-1206 1282.5,-1176 1089.5,-1176"/>
<text text-anchor="start" x="1097.5" y="-1194" font-family="Helvetica,sans-Serif" font-size="10.00">commands.MinusCommand.execute</text>
<text text-anchor="middle" x="1186" y="-1183" font-family="Helvetica,sans-Serif" font-size="10.00">Command</text>
</a>
</g>
</g>
<!-- Node5&#45;&gt;Node9 -->
<g id="edge8" class="edge"><title>Node5&#45;&gt;Node9</title>
<path fill="none" stroke="midnightblue" d="M950.552,-701.225C960.239,-791.929 997.689,-1099.66 1066,-1166 1072.74,-1172.54 1080.73,-1177.57 1089.34,-1181.41"/>
<polygon fill="midnightblue" stroke="midnightblue" points="954.032,-700.851 949.508,-691.27 947.07,-701.581 954.032,-700.851"/>
</g>
<!-- Node10 -->
<g id="node10" class="node"><title>Node10</title>
<g id="a_node10"><a xlink:href="../../d3/d37/classcommands_1_1_set_background_command.html#a91dc8e21948a301c55af1cef90b77962" target="_top" xlink:title="commands.SetBackgroundCommand.execute\lCommand">
<polygon fill="white" stroke="black" points="1066.5,-1127 1066.5,-1157 1305.5,-1157 1305.5,-1127 1066.5,-1127"/>
<text text-anchor="start" x="1074.5" y="-1145" font-family="Helvetica,sans-Serif" font-size="10.00">commands.SetBackgroundCommand.execute</text>
<text text-anchor="middle" x="1186" y="-1134" font-family="Helvetica,sans-Serif" font-size="10.00">Command</text>
</a>
</g>
</g>
<!-- Node5&#45;&gt;Node10 -->
<g id="edge9" class="edge"><title>Node5&#45;&gt;Node10</title>
<path fill="none" stroke="midnightblue" d="M951.262,-701.15C962.744,-785.787 1003.98,-1058.26 1066,-1117 1069.99,-1120.77 1074.39,-1124.04 1079.08,-1126.86"/>
<polygon fill="midnightblue" stroke="midnightblue" points="954.717,-700.585 949.924,-691.137 947.779,-701.512 954.717,-700.585"/>
</g>
<!-- Node11 -->
<g id="node11" class="node"><title>Node11</title>
<g id="a_node11"><a xlink:href="../../d8/dba/classcommands_1_1_product_command.html#a8bc20bc7c21a944405f599dbcfa57e67" target="_top" xlink:title="commands.ProductCommand.execute\lCommand">
<polygon fill="white" stroke="black" points="1085,-1078 1085,-1108 1287,-1108 1287,-1078 1085,-1078"/>
<text text-anchor="start" x="1093" y="-1096" font-family="Helvetica,sans-Serif" font-size="10.00">commands.ProductCommand.execute</text>
<text text-anchor="middle" x="1186" y="-1085" font-family="Helvetica,sans-Serif" font-size="10.00">Command</text>
</a>
</g>
</g>
<!-- Node5&#45;&gt;Node11 -->
<g id="edge10" class="edge"><title>Node5&#45;&gt;Node11</title>
<path fill="none" stroke="midnightblue" d="M947.405,-701.275C947.233,-771.059 956.921,-967.852 1066,-1068 1071.6,-1073.14 1077.98,-1077.33 1084.8,-1080.73"/>
<polygon fill="midnightblue" stroke="midnightblue" points="950.906,-701.233 947.504,-691.2 943.906,-701.165 950.906,-701.233"/>
</g>
<!-- Node12 -->
<g id="node12" class="node"><title>Node12</title>
<g id="a_node12"><a xlink:href="../../dd/d40/classcommands_1_1_quotient_command.html#a7e23b237cc68512dcbe6a65feb7c39e8" target="_top" xlink:title="commands.QuotientCommand.execute\lCommand">
<polygon fill="white" stroke="black" points="1083,-1029 1083,-1059 1289,-1059 1289,-1029 1083,-1029"/>
<text text-anchor="start" x="1091" y="-1047" font-family="Helvetica,sans-Serif" font-size="10.00">commands.QuotientCommand.execute</text>
<text text-anchor="middle" x="1186" y="-1036" font-family="Helvetica,sans-Serif" font-size="10.00">Command</text>
</a>
</g>
</g>
<!-- Node5&#45;&gt;Node12 -->
<g id="edge11" class="edge"><title>Node5&#45;&gt;Node12</title>
<path fill="none" stroke="midnightblue" d="M948.674,-701.514C951.822,-765.487 969.36,-933.681 1066,-1019 1071.06,-1023.47 1076.72,-1027.21 1082.75,-1030.34"/>
<polygon fill="midnightblue" stroke="midnightblue" points="952.156,-701.007 948.249,-691.159 945.162,-701.294 952.156,-701.007"/>
</g>
<!-- Node13 -->
<g id="node13" class="node"><title>Node13</title>
<g id="a_node13"><a xlink:href="../../dc/d68/classcommands_1_1_make_variable_command.html#ad0e0974744cc969c12c67805c2460ef4" target="_top" xlink:title="commands.MakeVariableCommand.execute\lCommand">
<polygon fill="white" stroke="black" points="1071.5,-980 1071.5,-1010 1300.5,-1010 1300.5,-980 1071.5,-980"/>
<text text-anchor="start" x="1079.5" y="-998" font-family="Helvetica,sans-Serif" font-size="10.00">commands.MakeVariableCommand.execute</text>
<text text-anchor="middle" x="1186" y="-987" font-family="Helvetica,sans-Serif" font-size="10.00">Command</text>
</a>
</g>
</g>
<!-- Node5&#45;&gt;Node13 -->
<g id="edge12" class="edge"><title>Node5&#45;&gt;Node13</title>
<path fill="none" stroke="midnightblue" d="M950.268,-701.004C956.857,-758.166 981.294,-898.929 1066,-970 1070.53,-973.799 1075.49,-977.067 1080.73,-979.873"/>
<polygon fill="midnightblue" stroke="midnightblue" points="953.746,-700.607 949.205,-691.035 946.785,-701.35 953.746,-700.607"/>
</g>
<!-- Node14 -->
<g id="node14" class="node"><title>Node14</title>
<g id="a_node14"><a xlink:href="../../d8/ded/classcommands_1_1_difference_command.html#a0c34c43d3bb266ef3e48ae27be938a0f" target="_top" xlink:title="commands.DifferenceCommand.execute\lCommand">
<polygon fill="white" stroke="black" points="1079,-931 1079,-961 1293,-961 1293,-931 1079,-931"/>
<text text-anchor="start" x="1087" y="-949" font-family="Helvetica,sans-Serif" font-size="10.00">commands.DifferenceCommand.execute</text>
<text text-anchor="middle" x="1186" y="-938" font-family="Helvetica,sans-Serif" font-size="10.00">Command</text>
</a>
</g>
</g>
<!-- Node5&#45;&gt;Node14 -->
<g id="edge13" class="edge"><title>Node5&#45;&gt;Node14</title>
<path fill="none" stroke="midnightblue" d="M952.533,-701.294C962.941,-751.586 993.461,-864.176 1066,-921 1070.9,-924.84 1076.26,-928.128 1081.89,-930.938"/>
<polygon fill="midnightblue" stroke="midnightblue" points="955.927,-700.411 950.559,-691.276 949.059,-701.765 955.927,-700.411"/>
</g>
<!-- Node15 -->
<g id="node15" class="node"><title>Node15</title>
<g id="a_node15"><a xlink:href="../../dd/d29/classcommands_1_1_clear_screen_command.html#a87e5eb0f4c3bb48ec0737da2aa431db3" target="_top" xlink:title="commands.ClearScreenCommand.execute\lCommand">
<polygon fill="white" stroke="black" points="1074,-882 1074,-912 1298,-912 1298,-882 1074,-882"/>
<text text-anchor="start" x="1082" y="-900" font-family="Helvetica,sans-Serif" font-size="10.00">commands.ClearScreenCommand.execute</text>
<text text-anchor="middle" x="1186" y="-889" font-family="Helvetica,sans-Serif" font-size="10.00">Command</text>
</a>
</g>
</g>
<!-- Node5&#45;&gt;Node15 -->
<g id="edge14" class="edge"><title>Node5&#45;&gt;Node15</title>
<path fill="none" stroke="midnightblue" d="M955.566,-700.672C969.857,-742.893 1004.99,-828.631 1066,-872 1071.42,-875.853 1077.31,-879.136 1083.47,-881.931"/>
<polygon fill="midnightblue" stroke="midnightblue" points="958.891,-699.579 952.454,-691.165 952.239,-701.757 958.891,-699.579"/>
</g>
<!-- Node16 -->
<g id="node16" class="node"><title>Node16</title>
<g id="a_node16"><a xlink:href="../../d9/d35/classcommands_1_1_ask_command.html#ae4ba28c73ce0b5112e4032bd21a951f5" target="_top" xlink:title="commands.AskCommand.execute\lCommand">
<polygon fill="white" stroke="black" points="1095,-833 1095,-863 1277,-863 1277,-833 1095,-833"/>
<text text-anchor="start" x="1103" y="-851" font-family="Helvetica,sans-Serif" font-size="10.00">commands.AskCommand.execute</text>
<text text-anchor="middle" x="1186" y="-840" font-family="Helvetica,sans-Serif" font-size="10.00">Command</text>
</a>
</g>
</g>
<!-- Node5&#45;&gt;Node16 -->
<g id="edge15" class="edge"><title>Node5&#45;&gt;Node16</title>
<path fill="none" stroke="midnightblue" d="M960.524,-700.426C978.923,-733.7 1016.51,-792.605 1066,-823 1074.81,-828.413 1084.61,-832.67 1094.7,-836.015"/>
<polygon fill="midnightblue" stroke="midnightblue" points="963.47,-698.514 955.644,-691.373 957.309,-701.836 963.47,-698.514"/>
</g>
<!-- Node17 -->
<g id="node17" class="node"><title>Node17</title>
<g id="a_node17"><a xlink:href="../../d3/d49/classcommands_1_1_if_else_command.html#a3b3d15925117d366a69f8ebd1dbc2dbc" target="_top" xlink:title="commands.IfElseCommand.execute\lCommand">
<polygon fill="white" stroke="black" points="1091,-784 1091,-814 1281,-814 1281,-784 1091,-784"/>
<text text-anchor="start" x="1099" y="-802" font-family="Helvetica,sans-Serif" font-size="10.00">commands.IfElseCommand.execute</text>
<text text-anchor="middle" x="1186" y="-791" font-family="Helvetica,sans-Serif" font-size="10.00">Command</text>
</a>
</g>
</g>
<!-- Node5&#45;&gt;Node17 -->
<g id="edge16" class="edge"><title>Node5&#45;&gt;Node17</title>
<path fill="none" stroke="midnightblue" d="M968.734,-698.758C990.669,-721.389 1027.39,-755.347 1066,-774 1074.08,-777.903 1082.75,-781.199 1091.61,-783.982"/>
<polygon fill="midnightblue" stroke="midnightblue" points="971.04,-696.105 961.613,-691.27 965.967,-700.928 971.04,-696.105"/>
</g>
<!-- Node19 -->
<g id="node19" class="node"><title>Node19</title>
<g id="a_node19"><a xlink:href="../../d8/d57/classcommands_1_1_for_command.html#aeb06a37d7f9845eb546425bae6ea9f58" target="_top" xlink:title="commands.ForCommand.execute\lCommand">
<polygon fill="white" stroke="black" points="1096,-735 1096,-765 1276,-765 1276,-735 1096,-735"/>
<text text-anchor="start" x="1104" y="-753" font-family="Helvetica,sans-Serif" font-size="10.00">commands.ForCommand.execute</text>
<text text-anchor="middle" x="1186" y="-742" font-family="Helvetica,sans-Serif" font-size="10.00">Command</text>
</a>
</g>
</g>
<!-- Node5&#45;&gt;Node19 -->
<g id="edge18" class="edge"><title>Node5&#45;&gt;Node19</title>
<path fill="none" stroke="midnightblue" d="M989.147,-695.308C1011.51,-705.231 1039.86,-716.904 1066,-725 1078,-728.716 1090.85,-732.055 1103.5,-734.992"/>
<polygon fill="midnightblue" stroke="midnightblue" points="990.511,-692.084 979.955,-691.179 987.643,-698.47 990.511,-692.084"/>
</g>
<!-- Node20 -->
<g id="node20" class="node"><title>Node20</title>
<g id="a_node20"><a xlink:href="../../db/d38/classcommands_1_1_ask_with_command.html#a5ee6a090e94729d84ef423a454d446eb" target="_top" xlink:title="commands.AskWithCommand.execute\lCommand">
<polygon fill="white" stroke="black" points="1084.5,-686 1084.5,-716 1287.5,-716 1287.5,-686 1084.5,-686"/>
<text text-anchor="start" x="1092.5" y="-704" font-family="Helvetica,sans-Serif" font-size="10.00">commands.AskWithCommand.execute</text>
<text text-anchor="middle" x="1186" y="-693" font-family="Helvetica,sans-Serif" font-size="10.00">Command</text>
</a>
</g>
</g>
<!-- Node5&#45;&gt;Node20 -->
<g id="edge19" class="edge"><title>Node5&#45;&gt;Node20</title>
<path fill="none" stroke="midnightblue" d="M1039.62,-685.665C1054.3,-687.213 1069.56,-688.823 1084.44,-690.392"/>
<polygon fill="midnightblue" stroke="midnightblue" points="1039.87,-682.172 1029.56,-684.604 1039.14,-689.133 1039.87,-682.172"/>
</g>
<!-- Node21 -->
<g id="node21" class="node"><title>Node21</title>
<g id="a_node21"><a xlink:href="../../d4/d02/classcommands_1_1_do_times_command.html#a1dd20e90975d905a1bce8f018e9f7f0a" target="_top" xlink:title="commands.DoTimesCommand.execute\lCommand">
<polygon fill="white" stroke="black" points="1082.5,-637 1082.5,-667 1289.5,-667 1289.5,-637 1082.5,-637"/>
<text text-anchor="start" x="1090.5" y="-655" font-family="Helvetica,sans-Serif" font-size="10.00">commands.DoTimesCommand.execute</text>
<text text-anchor="middle" x="1186" y="-644" font-family="Helvetica,sans-Serif" font-size="10.00">Command</text>
</a>
</g>
</g>
<!-- Node5&#45;&gt;Node21 -->
<g id="edge20" class="edge"><title>Node5&#45;&gt;Node21</title>
<path fill="none" stroke="midnightblue" d="M1039.64,-666.72C1053.63,-665.303 1068.15,-663.833 1082.35,-662.395"/>
<polygon fill="midnightblue" stroke="midnightblue" points="1039.16,-663.251 1029.56,-667.741 1039.86,-670.215 1039.16,-663.251"/>
</g>
<!-- Node22 -->
<g id="node22" class="node"><title>Node22</title>
<g id="a_node22"><a xlink:href="../../dd/de4/classcommands_1_1_custom_command.html#a5ad25438a49d3e4eeba835fefe8b730a" target="_top" xlink:title="commands.CustomCommand.execute\lCommand">
<polygon fill="white" stroke="black" points="1084.5,-588 1084.5,-618 1287.5,-618 1287.5,-588 1084.5,-588"/>
<text text-anchor="start" x="1092.5" y="-606" font-family="Helvetica,sans-Serif" font-size="10.00">commands.CustomCommand.execute</text>
<text text-anchor="middle" x="1186" y="-595" font-family="Helvetica,sans-Serif" font-size="10.00">Command</text>
</a>
</g>
</g>
<!-- Node5&#45;&gt;Node22 -->
<g id="edge21" class="edge"><title>Node5&#45;&gt;Node22</title>
<path fill="none" stroke="midnightblue" d="M989.663,-656.916C1011.96,-647.252 1040.09,-635.921 1066,-628 1078.11,-624.297 1091.08,-620.956 1103.85,-618.011"/>
<polygon fill="midnightblue" stroke="midnightblue" points="988.24,-653.719 980.489,-660.941 991.052,-660.129 988.24,-653.719"/>
</g>
<!-- Node23 -->
<g id="node23" class="node"><title>Node23</title>
<g id="a_node23"><a xlink:href="../../d6/daf/classcommands_1_1_set_shape_command.html#a59c440316cf9e732b5aa2f46def94e10" target="_top" xlink:title="commands.SetShapeCommand.update\lTurtle">
<polygon fill="white" stroke="black" points="1082,-539 1082,-569 1290,-569 1290,-539 1082,-539"/>
<text text-anchor="start" x="1090" y="-557" font-family="Helvetica,sans-Serif" font-size="10.00">commands.SetShapeCommand.update</text>
<text text-anchor="middle" x="1186" y="-546" font-family="Helvetica,sans-Serif" font-size="10.00">Turtle</text>
</a>
</g>
</g>
<!-- Node5&#45;&gt;Node23 -->
<g id="edge22" class="edge"><title>Node5&#45;&gt;Node23</title>
<path fill="none" stroke="midnightblue" d="M968.781,-653.48C990.754,-631.086 1027.51,-597.479 1066,-579 1074.09,-575.117 1082.77,-571.835 1091.63,-569.06"/>
<polygon fill="midnightblue" stroke="midnightblue" points="966.061,-651.259 961.647,-660.891 971.104,-656.114 966.061,-651.259"/>
</g>
<!-- Node24 -->
<g id="node24" class="node"><title>Node24</title>
<g id="a_node24"><a xlink:href="../../d6/d11/classcommands_1_1_set_pen_dash_command.html#a320f3b8248e3e89b2338dfefbe73f8c7" target="_top" xlink:title="commands.SetPenDashCommand.update\lTurtle">
<polygon fill="white" stroke="black" points="1076,-490 1076,-520 1296,-520 1296,-490 1076,-490"/>
<text text-anchor="start" x="1084" y="-508" font-family="Helvetica,sans-Serif" font-size="10.00">commands.SetPenDashCommand.update</text>
<text text-anchor="middle" x="1186" y="-497" font-family="Helvetica,sans-Serif" font-size="10.00">Turtle</text>
</a>
</g>
</g>
<!-- Node5&#45;&gt;Node24 -->
<g id="edge23" class="edge"><title>Node5&#45;&gt;Node24</title>
<path fill="none" stroke="midnightblue" d="M960.568,-651.74C979.017,-618.692 1016.66,-560.188 1066,-530 1072.3,-526.144 1079.11,-522.875 1086.16,-520.104"/>
<polygon fill="midnightblue" stroke="midnightblue" points="957.381,-650.275 955.673,-660.731 963.528,-653.622 957.381,-650.275"/>
</g>
<!-- Node25 -->
<g id="node25" class="node"><title>Node25</title>
<g id="a_node25"><a xlink:href="../../dc/df3/classcommands_1_1_set_towards_command.html#ad82abd7dcaed57b3bdb3a4b87a91815a" target="_top" xlink:title="commands.SetTowardsCommand.update\lTurtle">
<polygon fill="white" stroke="black" points="1078.5,-441 1078.5,-471 1293.5,-471 1293.5,-441 1078.5,-441"/>
<text text-anchor="start" x="1086.5" y="-459" font-family="Helvetica,sans-Serif" font-size="10.00">commands.SetTowardsCommand.update</text>
<text text-anchor="middle" x="1186" y="-448" font-family="Helvetica,sans-Serif" font-size="10.00">Turtle</text>
</a>
</g>
</g>
<!-- Node5&#45;&gt;Node25 -->
<g id="edge24" class="edge"><title>Node5&#45;&gt;Node25</title>
<path fill="none" stroke="midnightblue" d="M955.695,-651.184C970.101,-609.082 1005.3,-524.047 1066,-481 1071.42,-477.153 1077.32,-473.875 1083.48,-471.083"/>
<polygon fill="midnightblue" stroke="midnightblue" points="952.295,-650.318 952.478,-660.911 958.941,-652.517 952.295,-650.318"/>
</g>
<!-- Node26 -->
<g id="node26" class="node"><title>Node26</title>
<g id="a_node26"><a xlink:href="../../d9/db5/classcommands_1_1_set_position_command.html#aba31c4887974831a6c0d9feac8316ee6" target="_top" xlink:title="commands.SetPositionCommand.update\lTurtle">
<polygon fill="white" stroke="black" points="1078.5,-392 1078.5,-422 1293.5,-422 1293.5,-392 1078.5,-392"/>
<text text-anchor="start" x="1086.5" y="-410" font-family="Helvetica,sans-Serif" font-size="10.00">commands.SetPositionCommand.update</text>
<text text-anchor="middle" x="1186" y="-399" font-family="Helvetica,sans-Serif" font-size="10.00">Turtle</text>
</a>
</g>
</g>
<!-- Node5&#45;&gt;Node26 -->
<g id="edge25" class="edge"><title>Node5&#45;&gt;Node26</title>
<path fill="none" stroke="midnightblue" d="M952.566,-650.807C963.034,-600.716 993.656,-488.578 1066,-432 1070.91,-428.163 1076.26,-424.879 1081.9,-422.071"/>
<polygon fill="midnightblue" stroke="midnightblue" points="949.1,-650.293 950.579,-660.784 955.965,-651.661 949.1,-650.293"/>
</g>
<!-- Node27 -->
<g id="node27" class="node"><title>Node27</title>
<g id="a_node27"><a xlink:href="../../dd/db2/classcommands_1_1_right_command.html#ae16ecb0da3e0a2049a7382d74f315cb6" target="_top" xlink:title="commands.RightCommand.update\lTurtle">
<polygon fill="white" stroke="black" points="1093.5,-343 1093.5,-373 1278.5,-373 1278.5,-343 1093.5,-343"/>
<text text-anchor="start" x="1101.5" y="-361" font-family="Helvetica,sans-Serif" font-size="10.00">commands.RightCommand.update</text>
<text text-anchor="middle" x="1186" y="-350" font-family="Helvetica,sans-Serif" font-size="10.00">Turtle</text>
</a>
</g>
</g>
<!-- Node5&#45;&gt;Node27 -->
<g id="edge26" class="edge"><title>Node5&#45;&gt;Node27</title>
<path fill="none" stroke="midnightblue" d="M950.344,-650.678C957.06,-593.452 981.698,-453.648 1066,-383 1074.01,-376.288 1083.37,-371.237 1093.26,-367.456"/>
<polygon fill="midnightblue" stroke="midnightblue" points="946.858,-650.353 949.257,-660.673 953.817,-651.11 946.858,-650.353"/>
</g>
<!-- Node28 -->
<g id="node28" class="node"><title>Node28</title>
<g id="a_node28"><a xlink:href="../../dc/db3/classcommands_1_1_set_heading_command.html#a064fae1a815349b9efc6bd43f2371339" target="_top" xlink:title="commands.SetHeadingCommand.update\lTurtle">
<polygon fill="white" stroke="black" points="1077.5,-294 1077.5,-324 1294.5,-324 1294.5,-294 1077.5,-294"/>
<text text-anchor="start" x="1085.5" y="-312" font-family="Helvetica,sans-Serif" font-size="10.00">commands.SetHeadingCommand.update</text>
<text text-anchor="middle" x="1186" y="-301" font-family="Helvetica,sans-Serif" font-size="10.00">Turtle</text>
</a>
</g>
</g>
<!-- Node5&#45;&gt;Node28 -->
<g id="edge27" class="edge"><title>Node5&#45;&gt;Node28</title>
<path fill="none" stroke="midnightblue" d="M948.633,-650.439C951.685,-586.357 969.017,-417.929 1066,-333 1069.88,-329.598 1074.12,-326.628 1078.59,-324.037"/>
<polygon fill="midnightblue" stroke="midnightblue" points="945.121,-650.682 948.223,-660.812 952.115,-650.958 945.121,-650.682"/>
</g>
<!-- Node29 -->
<g id="node29" class="node"><title>Node29</title>
<g id="a_node29"><a xlink:href="../../d2/dbb/classcommands_1_1_set_pen_size_command.html#aa8dbbb22c72842b2d6f50aa169a8404e" target="_top" xlink:title="commands.SetPenSizeCommand.update\lTurtle">
<polygon fill="white" stroke="black" points="1078.5,-245 1078.5,-275 1293.5,-275 1293.5,-245 1078.5,-245"/>
<text text-anchor="start" x="1086.5" y="-263" font-family="Helvetica,sans-Serif" font-size="10.00">commands.SetPenSizeCommand.update</text>
<text text-anchor="middle" x="1186" y="-252" font-family="Helvetica,sans-Serif" font-size="10.00">Turtle</text>
</a>
</g>
</g>
<!-- Node5&#45;&gt;Node29 -->
<g id="edge28" class="edge"><title>Node5&#45;&gt;Node29</title>
<path fill="none" stroke="midnightblue" d="M952.136,-650.831C965.519,-572.454 1010.04,-334.962 1066,-284 1069.82,-280.523 1073.99,-277.492 1078.43,-274.853"/>
<polygon fill="midnightblue" stroke="midnightblue" points="948.667,-650.355 950.456,-660.798 955.569,-651.519 948.667,-650.355"/>
</g>
<!-- Node30 -->
<g id="node30" class="node"><title>Node30</title>
<g id="a_node30"><a xlink:href="../../d5/d21/classcommands_1_1_set_pen_color_command.html#a69a9c0161b8910c8fecc5ace219aeeb8" target="_top" xlink:title="commands.SetPenColorCommand.update\lTurtle">
<polygon fill="white" stroke="black" points="1076,-196 1076,-226 1296,-226 1296,-196 1076,-196"/>
<text text-anchor="start" x="1084" y="-214" font-family="Helvetica,sans-Serif" font-size="10.00">commands.SetPenColorCommand.update</text>
<text text-anchor="middle" x="1186" y="-203" font-family="Helvetica,sans-Serif" font-size="10.00">Turtle</text>
</a>
</g>
</g>
<!-- Node5&#45;&gt;Node30 -->
<g id="edge29" class="edge"><title>Node5&#45;&gt;Node30</title>
<path fill="none" stroke="midnightblue" d="M953.882,-651.156C975.516,-560.192 1050.23,-249.811 1066,-235 1069.61,-231.609 1073.56,-228.638 1077.76,-226.039"/>
<polygon fill="midnightblue" stroke="midnightblue" points="950.474,-650.359 951.569,-660.897 957.284,-651.977 950.474,-650.359"/>
</g>
<!-- Node31 -->
<g id="node31" class="node"><title>Node31</title>
<g id="a_node31"><a xlink:href="../../dc/d65/classcommands_1_1_left_command.html#abd466facd4b16e1c04a6578b4bf8e203" target="_top" xlink:title="commands.LeftCommand.update\lTurtle">
<polygon fill="white" stroke="black" points="1096.5,-147 1096.5,-177 1275.5,-177 1275.5,-147 1096.5,-147"/>
<text text-anchor="start" x="1104.5" y="-165" font-family="Helvetica,sans-Serif" font-size="10.00">commands.LeftCommand.update</text>
<text text-anchor="middle" x="1186" y="-154" font-family="Helvetica,sans-Serif" font-size="10.00">Turtle</text>
</a>
</g>
</g>
<!-- Node5&#45;&gt;Node31 -->
<g id="edge30" class="edge"><title>Node5&#45;&gt;Node31</title>
<path fill="none" stroke="midnightblue" d="M954.344,-650.68C968.28,-594.95 1002.51,-457.442 1030,-342 1046.48,-272.78 1014.99,-235.611 1066,-186 1074.54,-177.698 1085.1,-171.891 1096.38,-167.883"/>
<polygon fill="midnightblue" stroke="midnightblue" points="950.868,-650.154 951.836,-660.704 957.659,-651.853 950.868,-650.154"/>
</g>
<!-- Node32 -->
<g id="node32" class="node"><title>Node32</title>
<g id="a_node32"><a xlink:href="../../d6/ddc/classcommands_1_1_backward_command.html#af0c4c6ac04bea1aa34b069a01c53888f" target="_top" xlink:title="commands.BackwardCommand.update\lTurtle">
<polygon fill="white" stroke="black" points="1083,-98 1083,-128 1289,-128 1289,-98 1083,-98"/>
<text text-anchor="start" x="1091" y="-116" font-family="Helvetica,sans-Serif" font-size="10.00">commands.BackwardCommand.update</text>
<text text-anchor="middle" x="1186" y="-105" font-family="Helvetica,sans-Serif" font-size="10.00">Turtle</text>
</a>
</g>
</g>
<!-- Node5&#45;&gt;Node32 -->
<g id="edge31" class="edge"><title>Node5&#45;&gt;Node32</title>
<path fill="none" stroke="midnightblue" d="M954.804,-650.783C969.651,-595.258 1005.58,-458.129 1030,-342 1049.04,-251.475 1001.42,-203.229 1066,-137 1070.93,-131.945 1076.61,-127.802 1082.75,-124.419"/>
<polygon fill="midnightblue" stroke="midnightblue" points="951.336,-650.204 952.126,-660.769 958.097,-652.018 951.336,-650.204"/>
</g>
<!-- Node33 -->
<g id="node33" class="node"><title>Node33</title>
<g id="a_node33"><a xlink:href="../../da/d4f/classcommands_1_1_forward_command.html#afe19b644a8fe0d46f3dbf19aef135364" target="_top" xlink:title="commands.ForwardCommand.update\lTurtle">
<polygon fill="white" stroke="black" points="1087,-49 1087,-79 1285,-79 1285,-49 1087,-49"/>
<text text-anchor="start" x="1095" y="-67" font-family="Helvetica,sans-Serif" font-size="10.00">commands.ForwardCommand.update</text>
<text text-anchor="middle" x="1186" y="-56" font-family="Helvetica,sans-Serif" font-size="10.00">Turtle</text>
</a>
</g>
</g>
<!-- Node5&#45;&gt;Node33 -->
<g id="edge32" class="edge"><title>Node5&#45;&gt;Node33</title>
<path fill="none" stroke="midnightblue" d="M955.093,-650.841C970.511,-595.431 1007.5,-458.517 1030,-342 1040.81,-286.026 1026.88,-129.467 1066,-88 1071.93,-81.7146 1079.01,-76.8269 1086.73,-73.0504"/>
<polygon fill="midnightblue" stroke="midnightblue" points="951.628,-650.233 952.307,-660.806 958.37,-652.117 951.628,-650.233"/>
</g>
<!-- Node18 -->
<g id="node18" class="node"><title>Node18</title>
<g id="a_node18"><a xlink:href="../../d5/dad/classcommands_1_1_if_command.html#a0d92f20941c1e79cfb1e02e77f463e68" target="_top" xlink:title="commands.IfCommand.execute\lCommand">
<polygon fill="white" stroke="black" points="1342,-784 1342,-814 1512,-814 1512,-784 1342,-784"/>
<text text-anchor="start" x="1350" y="-802" font-family="Helvetica,sans-Serif" font-size="10.00">commands.IfCommand.execute</text>
<text text-anchor="middle" x="1427" y="-791" font-family="Helvetica,sans-Serif" font-size="10.00">Command</text>
</a>
</g>
</g>
<!-- Node17&#45;&gt;Node18 -->
<g id="edge17" class="edge"><title>Node17&#45;&gt;Node18</title>
<path fill="none" stroke="midnightblue" d="M1291.5,-799C1308.27,-799 1325.45,-799 1341.68,-799"/>
<polygon fill="midnightblue" stroke="midnightblue" points="1291.12,-795.5 1281.12,-799 1291.12,-802.5 1291.12,-795.5"/>
</g>
<!-- Node35 -->
<g id="node35" class="node"><title>Node35</title>
<g id="a_node35"><a xlink:href="../../d9/df7/classcontroller_1_1_controller.html#a81fea06b52aed0a26625c5b30b490afb" target="_top" xlink:title="controller.Controller.run\lCommand">
<polygon fill="white" stroke="black" points="1122,-0 1122,-30 1250,-30 1250,-0 1122,-0"/>
<text text-anchor="start" x="1130" y="-18" font-family="Helvetica,sans-Serif" font-size="10.00">controller.Controller.run</text>
<text text-anchor="middle" x="1186" y="-7" font-family="Helvetica,sans-Serif" font-size="10.00">Command</text>
</a>
</g>
</g>
<!-- Node34&#45;&gt;Node35 -->
<g id="edge34" class="edge"><title>Node34&#45;&gt;Node35</title>
<path fill="none" stroke="midnightblue" d="M1024.99,-307.773C1026.77,-306.312 1028.45,-304.725 1030,-303 1109.28,-215.038 984.965,-125.35 1066,-39 1080.28,-23.7855 1101.31,-16.7492 1121.74,-13.8411"/>
<polygon fill="midnightblue" stroke="midnightblue" points="1022.97,-304.917 1016.62,-313.401 1026.87,-310.726 1022.97,-304.917"/>
</g>
<!-- Node36 -->
<g id="node36" class="node"><title>Node36</title>
<g id="a_node36"><a xlink:href="../../d9/df7/classcontroller_1_1_controller.html#afdfa7f9e9a3fb5f6b73a6b8e2b2be8b5" target="_top" xlink:title="controller.Controller.get\lInput">
<polygon fill="white" stroke="black" points="1363,-0 1363,-30 1491,-30 1491,-0 1363,-0"/>
<text text-anchor="start" x="1371" y="-18" font-family="Helvetica,sans-Serif" font-size="10.00">controller.Controller.get</text>
<text text-anchor="middle" x="1427" y="-7" font-family="Helvetica,sans-Serif" font-size="10.00">Input</text>
</a>
</g>
</g>
<!-- Node35&#45;&gt;Node36 -->
<g id="edge35" class="edge"><title>Node35&#45;&gt;Node36</title>
<path fill="none" stroke="midnightblue" d="M1260.11,-15C1292.98,-15 1331.38,-15 1362.95,-15"/>
<polygon fill="midnightblue" stroke="midnightblue" points="1260.11,-11.5001 1250.11,-15 1260.11,-18.5001 1260.11,-11.5001"/>
</g>
<!-- Node37 -->
<g id="node37" class="node"><title>Node37</title>
<g id="a_node37"><a xlink:href="../../d3/dc7/classview_1_1controllers_1_1_pane_controller.html#a7e6154aecb60d8f3bcb056a11e842764" target="_top" xlink:title="view.controllers.PaneController.update">
<polygon fill="white" stroke="black" points="1548,-5.5 1548,-24.5 1746,-24.5 1746,-5.5 1548,-5.5"/>
<text text-anchor="middle" x="1647" y="-12.5" font-family="Helvetica,sans-Serif" font-size="10.00">view.controllers.PaneController.update</text>
</a>
</g>
</g>
<!-- Node36&#45;&gt;Node37 -->
<g id="edge36" class="edge"><title>Node36&#45;&gt;Node37</title>
<path fill="none" stroke="midnightblue" d="M1501.22,-15C1516.16,-15 1532.11,-15 1547.76,-15"/>
<polygon fill="midnightblue" stroke="midnightblue" points="1501.05,-11.5001 1491.05,-15 1501.05,-18.5001 1501.05,-11.5001"/>
</g>
<!-- Node39 -->
<g id="node39" class="node"><title>Node39</title>
<g id="a_node39"><a xlink:href="../../d8/daa/classview_1_1panes_1_1_turtle_selector_pane.html#a14e3fbe35c7447dcdf2f0910333cedcc" target="_top" xlink:title="view.panes.TurtleSelector\lPane.TurtleSelectorPane">
<polygon fill="white" stroke="black" points="878.5,-264 878.5,-294 1015.5,-294 1015.5,-264 878.5,-264"/>
<text text-anchor="start" x="886.5" y="-282" font-family="Helvetica,sans-Serif" font-size="10.00">view.panes.TurtleSelector</text>
<text text-anchor="middle" x="947" y="-271" font-family="Helvetica,sans-Serif" font-size="10.00">Pane.TurtleSelectorPane</text>
</a>
</g>
</g>
<!-- Node38&#45;&gt;Node39 -->
<g id="edge38" class="edge"><title>Node38&#45;&gt;Node39</title>
<path fill="none" stroke="midnightblue" d="M838.43,-279C852.024,-279 865.688,-279 878.5,-279"/>
<polygon fill="midnightblue" stroke="midnightblue" points="838.062,-275.5 828.062,-279 838.062,-282.5 838.062,-275.5"/>
</g>
</g>
</svg>
