<?xml version="1.0" encoding="UTF-8" standalone="no"?>
<!DOCTYPE svg PUBLIC "-//W3C//DTD SVG 1.1//EN"
 "http://www.w3.org/Graphics/SVG/1.1/DTD/svg11.dtd">
<!-- Generated by graphviz version 2.36.0 (20140111.2315)
 -->
<!-- Title: model.Turtle.changePen Pages: 1 -->
<svg width="382pt" height="87pt"
 viewBox="0.00 0.00 382.00 87.00" xmlns="http://www.w3.org/2000/svg" xmlns:xlink="http://www.w3.org/1999/xlink">
<g id="graph0" class="graph" transform="scale(1 1) rotate(0) translate(4 83)">
<title>model.Turtle.changePen</title>
<polygon fill="white" stroke="none" points="-4,4 -4,-83 378,-83 378,4 -4,4"/>
<!-- Node1 -->
<g id="node1" class="node"><title>Node1</title>
<polygon fill="#bfbfbf" stroke="black" points="0.5,-29.5 0.5,-48.5 131.5,-48.5 131.5,-29.5 0.5,-29.5"/>
<text text-anchor="middle" x="66" y="-36.5" font-family="Helvetica,sans-Serif" font-size="10.00">model.Turtle.changePen</text>
</g>
<!-- Node2 -->
<g id="node2" class="node"><title>Node2</title>
<g id="a_node2"><a xlink:href="../../d4/d25/classcommands_1_1_pen_down_command.html#ab10d4e831bc5960fc78cc22de4596331" target="_top" xlink:title="commands.PenDownCommand.update\lTurtle">
<polygon fill="white" stroke="black" points="168.5,-49 168.5,-79 373.5,-79 373.5,-49 168.5,-49"/>
<text text-anchor="start" x="176.5" y="-67" font-family="Helvetica,sans-Serif" font-size="10.00">commands.PenDownCommand.update</text>
<text text-anchor="middle" x="271" y="-56" font-family="Helvetica,sans-Serif" font-size="10.00">Turtle</text>
</a>
</g>
</g>
<!-- Node1&#45;&gt;Node2 -->
<g id="edge1" class="edge"><title>Node1&#45;&gt;Node2</title>
<path fill="none" stroke="midnightblue" d="M141.567,-48.1832C150.26,-49.2538 159.238,-50.3594 168.218,-51.4653"/>
<polygon fill="midnightblue" stroke="midnightblue" points="141.862,-44.6931 131.509,-46.9445 141.007,-51.6406 141.862,-44.6931"/>
</g>
<!-- Node3 -->
<g id="node3" class="node"><title>Node3</title>
<g id="a_node3"><a xlink:href="../../d1/d5d/classcommands_1_1_pen_up_command.html#ac5c86fc3bba70a2950d077189e09074a" target="_top" xlink:title="commands.PenUpCommand.update\lTurtle">
<polygon fill="white" stroke="black" points="175,-0 175,-30 367,-30 367,-0 175,-0"/>
<text text-anchor="start" x="183" y="-18" font-family="Helvetica,sans-Serif" font-size="10.00">commands.PenUpCommand.update</text>
<text text-anchor="middle" x="271" y="-7" font-family="Helvetica,sans-Serif" font-size="10.00">Turtle</text>
</a>
</g>
</g>
<!-- Node1&#45;&gt;Node3 -->
<g id="edge2" class="edge"><title>Node1&#45;&gt;Node3</title>
<path fill="none" stroke="midnightblue" d="M141.716,-30.1666C152.519,-28.8893 163.759,-27.5606 174.895,-26.244"/>
<polygon fill="midnightblue" stroke="midnightblue" points="141.029,-26.7233 131.509,-31.3733 141.851,-33.6749 141.029,-26.7233"/>
</g>
</g>
</svg>
