<?xml version="1.0" encoding="UTF-8" standalone="no"?>
<!DOCTYPE svg PUBLIC "-//W3C//DTD SVG 1.1//EN"
 "http://www.w3.org/Graphics/SVG/1.1/DTD/svg11.dtd">
<!-- Generated by graphviz version 2.36.0 (20140111.2315)
 -->
<!-- Title: model.Turtle.getPrevLocation Pages: 1 -->
<!--zoomable 1361 -->
<svg id="main" version="1.1" xmlns="http://www.w3.org/2000/svg" xmlns:xlink="http://www.w3.org/1999/xlink" xml:space="preserve" onload="init(evt)">
<style type="text/css"><![CDATA[
.edge:hover path { stroke: red; }
.edge:hover polygon { stroke: red; fill: red; }
]]></style>
<script type="text/javascript"><![CDATA[
var edges = document.getElementsByTagName('g');
if (edges && edges.length) {
  for (var i=0;i<edges.length;i++) {
    if (edges[i].id.substr(0,4)=='edge') {
      edges[i].setAttribute('class','edge');
    }
  }
}
]]></script>
        <defs>
                <circle id="rim" cx="0" cy="0" r="7"/>
                <circle id="rim2" cx="0" cy="0" r="3.5"/>
                <g id="zoomPlus">
                        <use xlink:href="#rim" fill="#404040">
                                <set attributeName="fill" to="#808080" begin="zoomplus.mouseover" end="zoomplus.mouseout"/>
                        </use>
                        <path d="M-4,0h8M0,-4v8" fill="none" stroke="white" stroke-width="1.5" pointer-events="none"/>
                </g>
                <g id="zoomMin">
                        <use xlink:href="#rim" fill="#404040">
                                <set attributeName="fill" to="#808080" begin="zoomminus.mouseover" end="zoomminus.mouseout"/>
                        </use>
                        <path d="M-4,0h8" fill="none" stroke="white" stroke-width="1.5" pointer-events="none"/>
                </g>
                <g id="dirArrow">
                        <path fill="none" stroke="white" stroke-width="1.5" d="M0,-3.0v7 M-2.5,-0.5L0,-3.0L2.5,-0.5"/>
                </g>
               <g id="resetDef">
                       <use xlink:href="#rim2" fill="#404040">
                               <set attributeName="fill" to="#808080" begin="reset.mouseover" end="reset.mouseout"/>
                       </use>
               </g>
        </defs>

<script type="text/javascript">
var viewWidth = 1772;
var viewHeight = 1361;
var sectionId = 'dynsection-18';
</script>
<script xlink:href="../../svgpan.js"/>
<svg id="graph" class="graph">
<g id="viewport">
<title>model.Turtle.getPrevLocation</title>
<polygon fill="white" stroke="none" points="-4,4 -4,-1357 1768,-1357 1768,4 -4,4"/>
<!-- Node1 -->
<g id="node1" class="node"><title>Node1</title>
<polygon fill="#bfbfbf" stroke="black" points="0.5,-291.5 0.5,-310.5 155.5,-310.5 155.5,-291.5 0.5,-291.5"/>
<text text-anchor="middle" x="78" y="-298.5" font-family="Helvetica,sans-Serif" font-size="10.00">model.Turtle.getPrevLocation</text>
</g>
<!-- Node2 -->
<g id="node2" class="node"><title>Node2</title>
<g id="a_node2"><a xlink:href="../../db/db5/classview_1_1panes_1_1_view_pane_module.html#ab55ce3511929b88a2cd1235eb694868f" target="_top" xlink:title="view.panes.ViewPaneModule.update\lTurtle">
<polygon fill="white" stroke="black" points="192,-286 192,-316 380,-316 380,-286 192,-286"/>
<text text-anchor="start" x="200" y="-304" font-family="Helvetica,sans-Serif" font-size="10.00">view.panes.ViewPaneModule.update</text>
<text text-anchor="middle" x="286" y="-293" font-family="Helvetica,sans-Serif" font-size="10.00">Turtle</text>
</a>
</g>
</g>
<!-- Node1&#45;&gt;Node2 -->
<g id="edge1" class="edge"><title>Node1&#45;&gt;Node2</title>
<path fill="none" stroke="midnightblue" d="M165.75,-301C174.379,-301 183.164,-301 191.855,-301"/>
<polygon fill="midnightblue" stroke="midnightblue" points="165.707,-297.5 155.707,-301 165.707,-304.5 165.707,-297.5"/>
</g>
<!-- Node3 -->
<g id="node3" class="node"><title>Node3</title>
<g id="a_node3"><a xlink:href="../../db/db5/classview_1_1panes_1_1_view_pane_module.html#aa2a1bf15bc036ee4237bf63749d85baf" target="_top" xlink:title="view.panes.ViewPaneModule.updateView">
<polygon fill="white" stroke="black" points="416.5,-291.5 416.5,-310.5 625.5,-310.5 625.5,-291.5 416.5,-291.5"/>
<text text-anchor="middle" x="521" y="-298.5" font-family="Helvetica,sans-Serif" font-size="10.00">view.panes.ViewPaneModule.updateView</text>
</a>
</g>
</g>
<!-- Node2&#45;&gt;Node3 -->
<g id="edge2" class="edge"><title>Node2&#45;&gt;Node3</title>
<path fill="none" stroke="midnightblue" d="M390.215,-301C398.887,-301 407.658,-301 416.333,-301"/>
<polygon fill="midnightblue" stroke="midnightblue" points="390.092,-297.5 380.092,-301 390.092,-304.5 390.092,-297.5"/>
</g>
<!-- Node4 -->
<g id="node4" class="node"><title>Node4</title>
<g id="a_node4"><a xlink:href="../../d3/d42/classmodel_1_1_model.html#a76160d002c1e68b566307ac44356f6e5" target="_top" xlink:title="model.Model.notifyView">
<polygon fill="white" stroke="black" points="689.5,-313.5 689.5,-332.5 818.5,-332.5 818.5,-313.5 689.5,-313.5"/>
<text text-anchor="middle" x="754" y="-320.5" font-family="Helvetica,sans-Serif" font-size="10.00">model.Model.notifyView</text>
</a>
</g>
</g>
<!-- Node3&#45;&gt;Node4 -->
<g id="edge3" class="edge"><title>Node3&#45;&gt;Node4</title>
<path fill="none" stroke="midnightblue" d="M632.173,-311.493C651.729,-313.355 671.49,-315.237 689.206,-316.924"/>
<polygon fill="midnightblue" stroke="midnightblue" points="632.263,-307.986 621.976,-310.522 631.6,-314.954 632.263,-307.986"/>
</g>
<!-- Node38 -->
<g id="node38" class="node"><title>Node38</title>
<g id="a_node38"><a xlink:href="../../db/db5/classview_1_1panes_1_1_view_pane_module.html#a200bd9d0cb7f1fb3482afb7f085939cd" target="_top" xlink:title="view.panes.ViewPaneModule.toggle\lActive">
<polygon fill="white" stroke="black" points="662,-264 662,-294 846,-294 846,-264 662,-264"/>
<text text-anchor="start" x="670" y="-282" font-family="Helvetica,sans-Serif" font-size="10.00">view.panes.ViewPaneModule.toggle</text>
<text text-anchor="middle" x="754" y="-271" font-family="Helvetica,sans-Serif" font-size="10.00">Active</text>
</a>
</g>
</g>
<!-- Node3&#45;&gt;Node38 -->
<g id="edge37" class="edge"><title>Node3&#45;&gt;Node38</title>
<path fill="none" stroke="midnightblue" d="M631.986,-290.525C642.025,-289.569 652.12,-288.608 661.966,-287.67"/>
<polygon fill="midnightblue" stroke="midnightblue" points="631.6,-287.046 621.976,-291.478 632.263,-294.014 631.6,-287.046"/>
</g>
<!-- Node5 -->
<g id="node5" class="node"><title>Node5</title>
<g id="a_node5"><a xlink:href="../../dd/dd6/classcommands_1_1_command.html#abafa69601e87c34d4453cf84349d6f9c" target="_top" xlink:title="commands.Command.execute\lCommand">
<polygon fill="white" stroke="black" points="882.5,-661 882.5,-691 1047.5,-691 1047.5,-661 882.5,-661"/>
<text text-anchor="start" x="890.5" y="-679" font-family="Helvetica,sans-Serif" font-size="10.00">commands.Command.execute</text>
<text text-anchor="middle" x="965" y="-668" font-family="Helvetica,sans-Serif" font-size="10.00">Command</text>
</a>
</g>
</g>
<!-- Node4&#45;&gt;Node5 -->
<g id="edge4" class="edge"><title>Node4&#45;&gt;Node5</title>
<path fill="none" stroke="midnightblue" d="M765.99,-341.563C802.815,-403.76 921.416,-604.075 955.039,-660.865"/>
<polygon fill="midnightblue" stroke="midnightblue" points="768.914,-339.631 760.808,-332.81 762.891,-343.198 768.914,-339.631"/>
</g>
<!-- Node34 -->
<g id="node34" class="node"><title>Node34</title>
<g id="a_node34"><a xlink:href="../../d3/d42/classmodel_1_1_model.html#a73435cc7a2b6100031bbdd2cf6d6b4e8" target="_top" xlink:title="model.Model.updateModel">
<polygon fill="white" stroke="black" points="893.5,-313.5 893.5,-332.5 1036.5,-332.5 1036.5,-313.5 893.5,-313.5"/>
<text text-anchor="middle" x="965" y="-320.5" font-family="Helvetica,sans-Serif" font-size="10.00">model.Model.updateModel</text>
</a>
</g>
</g>
<!-- Node4&#45;&gt;Node34 -->
<g id="edge33" class="edge"><title>Node4&#45;&gt;Node34</title>
<path fill="none" stroke="midnightblue" d="M828.72,-323C849.752,-323 872.611,-323 893.45,-323"/>
<polygon fill="midnightblue" stroke="midnightblue" points="828.558,-319.5 818.558,-323 828.558,-326.5 828.558,-319.5"/>
</g>
<!-- Node6 -->
<g id="node6" class="node"><title>Node6</title>
<g id="a_node6"><a xlink:href="../../d1/d79/classcommands_1_1_sum_command.html#a792945436d0c3ff1f58301fcc50f5ae1" target="_top" xlink:title="commands.SumCommand.execute\lCommand">
<polygon fill="white" stroke="black" points="1110,-1323 1110,-1353 1298,-1353 1298,-1323 1110,-1323"/>
<text text-anchor="start" x="1118" y="-1341" font-family="Helvetica,sans-Serif" font-size="10.00">commands.SumCommand.execute</text>
<text text-anchor="middle" x="1204" y="-1330" font-family="Helvetica,sans-Serif" font-size="10.00">Command</text>
</a>
</g>
</g>
<!-- Node5&#45;&gt;Node6 -->
<g id="edge5" class="edge"><title>Node5&#45;&gt;Node6</title>
<path fill="none" stroke="midnightblue" d="M967.051,-701.444C972.011,-808.823 996.634,-1223.52 1084,-1313 1091.3,-1320.48 1100.23,-1326 1109.88,-1330.04"/>
<polygon fill="midnightblue" stroke="midnightblue" points="970.537,-701.061 966.596,-691.226 963.544,-701.372 970.537,-701.061"/>
</g>
<!-- Node7 -->
<g id="node7" class="node"><title>Node7</title>
<g id="a_node7"><a xlink:href="../../d6/dc0/classcommands_1_1_repeat_command.html#a40fb82831e8b2beaa7e31913e46e15eb" target="_top" xlink:title="commands.RepeatCommand.execute\lCommand">
<polygon fill="white" stroke="black" points="1105,-1274 1105,-1304 1303,-1304 1303,-1274 1105,-1274"/>
<text text-anchor="start" x="1113" y="-1292" font-family="Helvetica,sans-Serif" font-size="10.00">commands.RepeatCommand.execute</text>
<text text-anchor="middle" x="1204" y="-1281" font-family="Helvetica,sans-Serif" font-size="10.00">Command</text>
</a>
</g>
</g>
<!-- Node5&#45;&gt;Node7 -->
<g id="edge6" class="edge"><title>Node5&#45;&gt;Node7</title>
<path fill="none" stroke="midnightblue" d="M967.475,-701.431C973.924,-803.56 1003.03,-1182.29 1084,-1264 1090.02,-1270.07 1097.11,-1274.85 1104.79,-1278.59"/>
<polygon fill="midnightblue" stroke="midnightblue" points="970.95,-700.909 966.844,-691.142 963.963,-701.338 970.95,-700.909"/>
</g>
<!-- Node8 -->
<g id="node8" class="node"><title>Node8</title>
<g id="a_node8"><a xlink:href="../../dd/d82/classcommands_1_1_remainder_command.html#a99d4baf3f1b4a3c8d0cd69274380a2cf" target="_top" xlink:title="commands.RemainderCommand.execute\lCommand">
<polygon fill="white" stroke="black" points="1096,-1225 1096,-1255 1312,-1255 1312,-1225 1096,-1225"/>
<text text-anchor="start" x="1104" y="-1243" font-family="Helvetica,sans-Serif" font-size="10.00">commands.RemainderCommand.execute</text>
<text text-anchor="middle" x="1204" y="-1232" font-family="Helvetica,sans-Serif" font-size="10.00">Command</text>
</a>
</g>
</g>
<!-- Node5&#45;&gt;Node8 -->
<g id="edge7" class="edge"><title>Node5&#45;&gt;Node8</title>
<path fill="none" stroke="midnightblue" d="M967.955,-701.181C975.95,-797.511 1009.33,-1140.96 1084,-1215 1087.82,-1218.79 1092.06,-1222.07 1096.6,-1224.91"/>
<polygon fill="midnightblue" stroke="midnightblue" points="971.441,-700.858 967.143,-691.174 964.464,-701.424 971.441,-700.858"/>
</g>
<!-- Node9 -->
<g id="node9" class="node"><title>Node9</title>
<g id="a_node9"><a xlink:href="../../df/df5/classcommands_1_1_minus_command.html#a82548bbb25a73194469e1ff81b19cf27" target="_top" xlink:title="commands.MinusCommand.execute\lCommand">
<polygon fill="white" stroke="black" points="1107.5,-1176 1107.5,-1206 1300.5,-1206 1300.5,-1176 1107.5,-1176"/>
<text text-anchor="start" x="1115.5" y="-1194" font-family="Helvetica,sans-Serif" font-size="10.00">commands.MinusCommand.execute</text>
<text text-anchor="middle" x="1204" y="-1183" font-family="Helvetica,sans-Serif" font-size="10.00">Command</text>
</a>
</g>
</g>
<!-- Node5&#45;&gt;Node9 -->
<g id="edge8" class="edge"><title>Node5&#45;&gt;Node9</title>
<path fill="none" stroke="midnightblue" d="M968.552,-701.225C978.239,-791.929 1015.69,-1099.66 1084,-1166 1090.74,-1172.54 1098.73,-1177.57 1107.34,-1181.41"/>
<polygon fill="midnightblue" stroke="midnightblue" points="972.032,-700.851 967.508,-691.27 965.07,-701.581 972.032,-700.851"/>
</g>
<!-- Node10 -->
<g id="node10" class="node"><title>Node10</title>
<g id="a_node10"><a xlink:href="../../d3/d37/classcommands_1_1_set_background_command.html#a91dc8e21948a301c55af1cef90b77962" target="_top" xlink:title="commands.SetBackgroundCommand.execute\lCommand">
<polygon fill="white" stroke="black" points="1084.5,-1127 1084.5,-1157 1323.5,-1157 1323.5,-1127 1084.5,-1127"/>
<text text-anchor="start" x="1092.5" y="-1145" font-family="Helvetica,sans-Serif" font-size="10.00">commands.SetBackgroundCommand.execute</text>
<text text-anchor="middle" x="1204" y="-1134" font-family="Helvetica,sans-Serif" font-size="10.00">Command</text>
</a>
</g>
</g>
<!-- Node5&#45;&gt;Node10 -->
<g id="edge9" class="edge"><title>Node5&#45;&gt;Node10</title>
<path fill="none" stroke="midnightblue" d="M969.262,-701.15C980.744,-785.787 1021.98,-1058.26 1084,-1117 1087.99,-1120.77 1092.39,-1124.04 1097.08,-1126.86"/>
<polygon fill="midnightblue" stroke="midnightblue" points="972.717,-700.585 967.924,-691.137 965.779,-701.512 972.717,-700.585"/>
</g>
<!-- Node11 -->
<g id="node11" class="node"><title>Node11</title>
<g id="a_node11"><a xlink:href="../../d8/dba/classcommands_1_1_product_command.html#a8bc20bc7c21a944405f599dbcfa57e67" target="_top" xlink:title="commands.ProductCommand.execute\lCommand">
<polygon fill="white" stroke="black" points="1103,-1078 1103,-1108 1305,-1108 1305,-1078 1103,-1078"/>
<text text-anchor="start" x="1111" y="-1096" font-family="Helvetica,sans-Serif" font-size="10.00">commands.ProductCommand.execute</text>
<text text-anchor="middle" x="1204" y="-1085" font-family="Helvetica,sans-Serif" font-size="10.00">Command</text>
</a>
</g>
</g>
<!-- Node5&#45;&gt;Node11 -->
<g id="edge10" class="edge"><title>Node5&#45;&gt;Node11</title>
<path fill="none" stroke="midnightblue" d="M965.405,-701.275C965.233,-771.059 974.921,-967.852 1084,-1068 1089.6,-1073.14 1095.98,-1077.33 1102.8,-1080.73"/>
<polygon fill="midnightblue" stroke="midnightblue" points="968.906,-701.233 965.504,-691.2 961.906,-701.165 968.906,-701.233"/>
</g>
<!-- Node12 -->
<g id="node12" class="node"><title>Node12</title>
<g id="a_node12"><a xlink:href="../../dd/d40/classcommands_1_1_quotient_command.html#a7e23b237cc68512dcbe6a65feb7c39e8" target="_top" xlink:title="commands.QuotientCommand.execute\lCommand">
<polygon fill="white" stroke="black" points="1101,-1029 1101,-1059 1307,-1059 1307,-1029 1101,-1029"/>
<text text-anchor="start" x="1109" y="-1047" font-family="Helvetica,sans-Serif" font-size="10.00">commands.QuotientCommand.execute</text>
<text text-anchor="middle" x="1204" y="-1036" font-family="Helvetica,sans-Serif" font-size="10.00">Command</text>
</a>
</g>
</g>
<!-- Node5&#45;&gt;Node12 -->
<g id="edge11" class="edge"><title>Node5&#45;&gt;Node12</title>
<path fill="none" stroke="midnightblue" d="M966.674,-701.514C969.822,-765.487 987.36,-933.681 1084,-1019 1089.06,-1023.47 1094.72,-1027.21 1100.75,-1030.34"/>
<polygon fill="midnightblue" stroke="midnightblue" points="970.156,-701.007 966.249,-691.159 963.162,-701.294 970.156,-701.007"/>
</g>
<!-- Node13 -->
<g id="node13" class="node"><title>Node13</title>
<g id="a_node13"><a xlink:href="../../dc/d68/classcommands_1_1_make_variable_command.html#ad0e0974744cc969c12c67805c2460ef4" target="_top" xlink:title="commands.MakeVariableCommand.execute\lCommand">
<polygon fill="white" stroke="black" points="1089.5,-980 1089.5,-1010 1318.5,-1010 1318.5,-980 1089.5,-980"/>
<text text-anchor="start" x="1097.5" y="-998" font-family="Helvetica,sans-Serif" font-size="10.00">commands.MakeVariableCommand.execute</text>
<text text-anchor="middle" x="1204" y="-987" font-family="Helvetica,sans-Serif" font-size="10.00">Command</text>
</a>
</g>
</g>
<!-- Node5&#45;&gt;Node13 -->
<g id="edge12" class="edge"><title>Node5&#45;&gt;Node13</title>
<path fill="none" stroke="midnightblue" d="M968.268,-701.004C974.857,-758.166 999.294,-898.929 1084,-970 1088.53,-973.799 1093.49,-977.067 1098.73,-979.873"/>
<polygon fill="midnightblue" stroke="midnightblue" points="971.746,-700.607 967.205,-691.035 964.785,-701.35 971.746,-700.607"/>
</g>
<!-- Node14 -->
<g id="node14" class="node"><title>Node14</title>
<g id="a_node14"><a xlink:href="../../d8/ded/classcommands_1_1_difference_command.html#a0c34c43d3bb266ef3e48ae27be938a0f" target="_top" xlink:title="commands.DifferenceCommand.execute\lCommand">
<polygon fill="white" stroke="black" points="1097,-931 1097,-961 1311,-961 1311,-931 1097,-931"/>
<text text-anchor="start" x="1105" y="-949" font-family="Helvetica,sans-Serif" font-size="10.00">commands.DifferenceCommand.execute</text>
<text text-anchor="middle" x="1204" y="-938" font-family="Helvetica,sans-Serif" font-size="10.00">Command</text>
</a>
</g>
</g>
<!-- Node5&#45;&gt;Node14 -->
<g id="edge13" class="edge"><title>Node5&#45;&gt;Node14</title>
<path fill="none" stroke="midnightblue" d="M970.533,-701.294C980.941,-751.586 1011.46,-864.176 1084,-921 1088.9,-924.84 1094.26,-928.128 1099.89,-930.938"/>
<polygon fill="midnightblue" stroke="midnightblue" points="973.927,-700.411 968.559,-691.276 967.059,-701.765 973.927,-700.411"/>
</g>
<!-- Node15 -->
<g id="node15" class="node"><title>Node15</title>
<g id="a_node15"><a xlink:href="../../dd/d29/classcommands_1_1_clear_screen_command.html#a87e5eb0f4c3bb48ec0737da2aa431db3" target="_top" xlink:title="commands.ClearScreenCommand.execute\lCommand">
<polygon fill="white" stroke="black" points="1092,-882 1092,-912 1316,-912 1316,-882 1092,-882"/>
<text text-anchor="start" x="1100" y="-900" font-family="Helvetica,sans-Serif" font-size="10.00">commands.ClearScreenCommand.execute</text>
<text text-anchor="middle" x="1204" y="-889" font-family="Helvetica,sans-Serif" font-size="10.00">Command</text>
</a>
</g>
</g>
<!-- Node5&#45;&gt;Node15 -->
<g id="edge14" class="edge"><title>Node5&#45;&gt;Node15</title>
<path fill="none" stroke="midnightblue" d="M973.566,-700.672C987.857,-742.893 1022.99,-828.631 1084,-872 1089.42,-875.853 1095.31,-879.136 1101.47,-881.931"/>
<polygon fill="midnightblue" stroke="midnightblue" points="976.891,-699.579 970.454,-691.165 970.239,-701.757 976.891,-699.579"/>
</g>
<!-- Node16 -->
<g id="node16" class="node"><title>Node16</title>
<g id="a_node16"><a xlink:href="../../d9/d35/classcommands_1_1_ask_command.html#ae4ba28c73ce0b5112e4032bd21a951f5" target="_top" xlink:title="commands.AskCommand.execute\lCommand">
<polygon fill="white" stroke="black" points="1113,-833 1113,-863 1295,-863 1295,-833 1113,-833"/>
<text text-anchor="start" x="1121" y="-851" font-family="Helvetica,sans-Serif" font-size="10.00">commands.AskCommand.execute</text>
<text text-anchor="middle" x="1204" y="-840" font-family="Helvetica,sans-Serif" font-size="10.00">Command</text>
</a>
</g>
</g>
<!-- Node5&#45;&gt;Node16 -->
<g id="edge15" class="edge"><title>Node5&#45;&gt;Node16</title>
<path fill="none" stroke="midnightblue" d="M978.524,-700.426C996.923,-733.7 1034.51,-792.605 1084,-823 1092.81,-828.413 1102.61,-832.67 1112.7,-836.015"/>
<polygon fill="midnightblue" stroke="midnightblue" points="981.47,-698.514 973.644,-691.373 975.309,-701.836 981.47,-698.514"/>
</g>
<!-- Node17 -->
<g id="node17" class="node"><title>Node17</title>
<g id="a_node17"><a xlink:href="../../d3/d49/classcommands_1_1_if_else_command.html#a3b3d15925117d366a69f8ebd1dbc2dbc" target="_top" xlink:title="commands.IfElseCommand.execute\lCommand">
<polygon fill="white" stroke="black" points="1109,-784 1109,-814 1299,-814 1299,-784 1109,-784"/>
<text text-anchor="start" x="1117" y="-802" font-family="Helvetica,sans-Serif" font-size="10.00">commands.IfElseCommand.execute</text>
<text text-anchor="middle" x="1204" y="-791" font-family="Helvetica,sans-Serif" font-size="10.00">Command</text>
</a>
</g>
</g>
<!-- Node5&#45;&gt;Node17 -->
<g id="edge16" class="edge"><title>Node5&#45;&gt;Node17</title>
<path fill="none" stroke="midnightblue" d="M986.734,-698.758C1008.67,-721.389 1045.39,-755.347 1084,-774 1092.08,-777.903 1100.75,-781.199 1109.61,-783.982"/>
<polygon fill="midnightblue" stroke="midnightblue" points="989.04,-696.105 979.613,-691.27 983.967,-700.928 989.04,-696.105"/>
</g>
<!-- Node19 -->
<g id="node19" class="node"><title>Node19</title>
<g id="a_node19"><a xlink:href="../../d8/d57/classcommands_1_1_for_command.html#aeb06a37d7f9845eb546425bae6ea9f58" target="_top" xlink:title="commands.ForCommand.execute\lCommand">
<polygon fill="white" stroke="black" points="1114,-735 1114,-765 1294,-765 1294,-735 1114,-735"/>
<text text-anchor="start" x="1122" y="-753" font-family="Helvetica,sans-Serif" font-size="10.00">commands.ForCommand.execute</text>
<text text-anchor="middle" x="1204" y="-742" font-family="Helvetica,sans-Serif" font-size="10.00">Command</text>
</a>
</g>
</g>
<!-- Node5&#45;&gt;Node19 -->
<g id="edge18" class="edge"><title>Node5&#45;&gt;Node19</title>
<path fill="none" stroke="midnightblue" d="M1007.15,-695.308C1029.51,-705.231 1057.86,-716.904 1084,-725 1096,-728.716 1108.85,-732.055 1121.5,-734.992"/>
<polygon fill="midnightblue" stroke="midnightblue" points="1008.51,-692.084 997.955,-691.179 1005.64,-698.47 1008.51,-692.084"/>
</g>
<!-- Node20 -->
<g id="node20" class="node"><title>Node20</title>
<g id="a_node20"><a xlink:href="../../db/d38/classcommands_1_1_ask_with_command.html#a5ee6a090e94729d84ef423a454d446eb" target="_top" xlink:title="commands.AskWithCommand.execute\lCommand">
<polygon fill="white" stroke="black" points="1102.5,-686 1102.5,-716 1305.5,-716 1305.5,-686 1102.5,-686"/>
<text text-anchor="start" x="1110.5" y="-704" font-family="Helvetica,sans-Serif" font-size="10.00">commands.AskWithCommand.execute</text>
<text text-anchor="middle" x="1204" y="-693" font-family="Helvetica,sans-Serif" font-size="10.00">Command</text>
</a>
</g>
</g>
<!-- Node5&#45;&gt;Node20 -->
<g id="edge19" class="edge"><title>Node5&#45;&gt;Node20</title>
<path fill="none" stroke="midnightblue" d="M1057.62,-685.665C1072.3,-687.213 1087.56,-688.823 1102.44,-690.392"/>
<polygon fill="midnightblue" stroke="midnightblue" points="1057.87,-682.172 1047.56,-684.604 1057.14,-689.133 1057.87,-682.172"/>
</g>
<!-- Node21 -->
<g id="node21" class="node"><title>Node21</title>
<g id="a_node21"><a xlink:href="../../d4/d02/classcommands_1_1_do_times_command.html#a1dd20e90975d905a1bce8f018e9f7f0a" target="_top" xlink:title="commands.DoTimesCommand.execute\lCommand">
<polygon fill="white" stroke="black" points="1100.5,-637 1100.5,-667 1307.5,-667 1307.5,-637 1100.5,-637"/>
<text text-anchor="start" x="1108.5" y="-655" font-family="Helvetica,sans-Serif" font-size="10.00">commands.DoTimesCommand.execute</text>
<text text-anchor="middle" x="1204" y="-644" font-family="Helvetica,sans-Serif" font-size="10.00">Command</text>
</a>
</g>
</g>
<!-- Node5&#45;&gt;Node21 -->
<g id="edge20" class="edge"><title>Node5&#45;&gt;Node21</title>
<path fill="none" stroke="midnightblue" d="M1057.64,-666.72C1071.63,-665.303 1086.15,-663.833 1100.35,-662.395"/>
<polygon fill="midnightblue" stroke="midnightblue" points="1057.16,-663.251 1047.56,-667.741 1057.86,-670.215 1057.16,-663.251"/>
</g>
<!-- Node22 -->
<g id="node22" class="node"><title>Node22</title>
<g id="a_node22"><a xlink:href="../../dd/de4/classcommands_1_1_custom_command.html#a5ad25438a49d3e4eeba835fefe8b730a" target="_top" xlink:title="commands.CustomCommand.execute\lCommand">
<polygon fill="white" stroke="black" points="1102.5,-588 1102.5,-618 1305.5,-618 1305.5,-588 1102.5,-588"/>
<text text-anchor="start" x="1110.5" y="-606" font-family="Helvetica,sans-Serif" font-size="10.00">commands.CustomCommand.execute</text>
<text text-anchor="middle" x="1204" y="-595" font-family="Helvetica,sans-Serif" font-size="10.00">Command</text>
</a>
</g>
</g>
<!-- Node5&#45;&gt;Node22 -->
<g id="edge21" class="edge"><title>Node5&#45;&gt;Node22</title>
<path fill="none" stroke="midnightblue" d="M1007.66,-656.916C1029.96,-647.252 1058.09,-635.921 1084,-628 1096.11,-624.297 1109.08,-620.956 1121.85,-618.011"/>
<polygon fill="midnightblue" stroke="midnightblue" points="1006.24,-653.719 998.489,-660.941 1009.05,-660.129 1006.24,-653.719"/>
</g>
<!-- Node23 -->
<g id="node23" class="node"><title>Node23</title>
<g id="a_node23"><a xlink:href="../../d6/daf/classcommands_1_1_set_shape_command.html#a59c440316cf9e732b5aa2f46def94e10" target="_top" xlink:title="commands.SetShapeCommand.update\lTurtle">
<polygon fill="white" stroke="black" points="1100,-539 1100,-569 1308,-569 1308,-539 1100,-539"/>
<text text-anchor="start" x="1108" y="-557" font-family="Helvetica,sans-Serif" font-size="10.00">commands.SetShapeCommand.update</text>
<text text-anchor="middle" x="1204" y="-546" font-family="Helvetica,sans-Serif" font-size="10.00">Turtle</text>
</a>
</g>
</g>
<!-- Node5&#45;&gt;Node23 -->
<g id="edge22" class="edge"><title>Node5&#45;&gt;Node23</title>
<path fill="none" stroke="midnightblue" d="M986.781,-653.48C1008.75,-631.086 1045.51,-597.479 1084,-579 1092.09,-575.117 1100.77,-571.835 1109.63,-569.06"/>
<polygon fill="midnightblue" stroke="midnightblue" points="984.061,-651.259 979.647,-660.891 989.104,-656.114 984.061,-651.259"/>
</g>
<!-- Node24 -->
<g id="node24" class="node"><title>Node24</title>
<g id="a_node24"><a xlink:href="../../d6/d11/classcommands_1_1_set_pen_dash_command.html#a320f3b8248e3e89b2338dfefbe73f8c7" target="_top" xlink:title="commands.SetPenDashCommand.update\lTurtle">
<polygon fill="white" stroke="black" points="1094,-490 1094,-520 1314,-520 1314,-490 1094,-490"/>
<text text-anchor="start" x="1102" y="-508" font-family="Helvetica,sans-Serif" font-size="10.00">commands.SetPenDashCommand.update</text>
<text text-anchor="middle" x="1204" y="-497" font-family="Helvetica,sans-Serif" font-size="10.00">Turtle</text>
</a>
</g>
</g>
<!-- Node5&#45;&gt;Node24 -->
<g id="edge23" class="edge"><title>Node5&#45;&gt;Node24</title>
<path fill="none" stroke="midnightblue" d="M978.568,-651.74C997.017,-618.692 1034.66,-560.188 1084,-530 1090.3,-526.144 1097.11,-522.875 1104.16,-520.104"/>
<polygon fill="midnightblue" stroke="midnightblue" points="975.381,-650.275 973.673,-660.731 981.528,-653.622 975.381,-650.275"/>
</g>
<!-- Node25 -->
<g id="node25" class="node"><title>Node25</title>
<g id="a_node25"><a xlink:href="../../dc/df3/classcommands_1_1_set_towards_command.html#ad82abd7dcaed57b3bdb3a4b87a91815a" target="_top" xlink:title="commands.SetTowardsCommand.update\lTurtle">
<polygon fill="white" stroke="black" points="1096.5,-441 1096.5,-471 1311.5,-471 1311.5,-441 1096.5,-441"/>
<text text-anchor="start" x="1104.5" y="-459" font-family="Helvetica,sans-Serif" font-size="10.00">commands.SetTowardsCommand.update</text>
<text text-anchor="middle" x="1204" y="-448" font-family="Helvetica,sans-Serif" font-size="10.00">Turtle</text>
</a>
</g>
</g>
<!-- Node5&#45;&gt;Node25 -->
<g id="edge24" class="edge"><title>Node5&#45;&gt;Node25</title>
<path fill="none" stroke="midnightblue" d="M973.695,-651.184C988.101,-609.082 1023.3,-524.047 1084,-481 1089.42,-477.153 1095.32,-473.875 1101.48,-471.083"/>
<polygon fill="midnightblue" stroke="midnightblue" points="970.295,-650.318 970.478,-660.911 976.941,-652.517 970.295,-650.318"/>
</g>
<!-- Node26 -->
<g id="node26" class="node"><title>Node26</title>
<g id="a_node26"><a xlink:href="../../d9/db5/classcommands_1_1_set_position_command.html#aba31c4887974831a6c0d9feac8316ee6" target="_top" xlink:title="commands.SetPositionCommand.update\lTurtle">
<polygon fill="white" stroke="black" points="1096.5,-392 1096.5,-422 1311.5,-422 1311.5,-392 1096.5,-392"/>
<text text-anchor="start" x="1104.5" y="-410" font-family="Helvetica,sans-Serif" font-size="10.00">commands.SetPositionCommand.update</text>
<text text-anchor="middle" x="1204" y="-399" font-family="Helvetica,sans-Serif" font-size="10.00">Turtle</text>
</a>
</g>
</g>
<!-- Node5&#45;&gt;Node26 -->
<g id="edge25" class="edge"><title>Node5&#45;&gt;Node26</title>
<path fill="none" stroke="midnightblue" d="M970.566,-650.807C981.034,-600.716 1011.66,-488.578 1084,-432 1088.91,-428.163 1094.26,-424.879 1099.9,-422.071"/>
<polygon fill="midnightblue" stroke="midnightblue" points="967.1,-650.293 968.579,-660.784 973.965,-651.661 967.1,-650.293"/>
</g>
<!-- Node27 -->
<g id="node27" class="node"><title>Node27</title>
<g id="a_node27"><a xlink:href="../../dd/db2/classcommands_1_1_right_command.html#ae16ecb0da3e0a2049a7382d74f315cb6" target="_top" xlink:title="commands.RightCommand.update\lTurtle">
<polygon fill="white" stroke="black" points="1111.5,-343 1111.5,-373 1296.5,-373 1296.5,-343 1111.5,-343"/>
<text text-anchor="start" x="1119.5" y="-361" font-family="Helvetica,sans-Serif" font-size="10.00">commands.RightCommand.update</text>
<text text-anchor="middle" x="1204" y="-350" font-family="Helvetica,sans-Serif" font-size="10.00">Turtle</text>
</a>
</g>
</g>
<!-- Node5&#45;&gt;Node27 -->
<g id="edge26" class="edge"><title>Node5&#45;&gt;Node27</title>
<path fill="none" stroke="midnightblue" d="M968.344,-650.678C975.06,-593.452 999.698,-453.648 1084,-383 1092.01,-376.288 1101.37,-371.237 1111.26,-367.456"/>
<polygon fill="midnightblue" stroke="midnightblue" points="964.858,-650.353 967.257,-660.673 971.817,-651.11 964.858,-650.353"/>
</g>
<!-- Node28 -->
<g id="node28" class="node"><title>Node28</title>
<g id="a_node28"><a xlink:href="../../dc/db3/classcommands_1_1_set_heading_command.html#a064fae1a815349b9efc6bd43f2371339" target="_top" xlink:title="commands.SetHeadingCommand.update\lTurtle">
<polygon fill="white" stroke="black" points="1095.5,-294 1095.5,-324 1312.5,-324 1312.5,-294 1095.5,-294"/>
<text text-anchor="start" x="1103.5" y="-312" font-family="Helvetica,sans-Serif" font-size="10.00">commands.SetHeadingCommand.update</text>
<text text-anchor="middle" x="1204" y="-301" font-family="Helvetica,sans-Serif" font-size="10.00">Turtle</text>
</a>
</g>
</g>
<!-- Node5&#45;&gt;Node28 -->
<g id="edge27" class="edge"><title>Node5&#45;&gt;Node28</title>
<path fill="none" stroke="midnightblue" d="M966.633,-650.439C969.685,-586.357 987.017,-417.929 1084,-333 1087.88,-329.598 1092.12,-326.628 1096.59,-324.037"/>
<polygon fill="midnightblue" stroke="midnightblue" points="963.121,-650.682 966.223,-660.812 970.115,-650.958 963.121,-650.682"/>
</g>
<!-- Node29 -->
<g id="node29" class="node"><title>Node29</title>
<g id="a_node29"><a xlink:href="../../d2/dbb/classcommands_1_1_set_pen_size_command.html#aa8dbbb22c72842b2d6f50aa169a8404e" target="_top" xlink:title="commands.SetPenSizeCommand.update\lTurtle">
<polygon fill="white" stroke="black" points="1096.5,-245 1096.5,-275 1311.5,-275 1311.5,-245 1096.5,-245"/>
<text text-anchor="start" x="1104.5" y="-263" font-family="Helvetica,sans-Serif" font-size="10.00">commands.SetPenSizeCommand.update</text>
<text text-anchor="middle" x="1204" y="-252" font-family="Helvetica,sans-Serif" font-size="10.00">Turtle</text>
</a>
</g>
</g>
<!-- Node5&#45;&gt;Node29 -->
<g id="edge28" class="edge"><title>Node5&#45;&gt;Node29</title>
<path fill="none" stroke="midnightblue" d="M970.136,-650.831C983.519,-572.454 1028.04,-334.962 1084,-284 1087.82,-280.523 1091.99,-277.492 1096.43,-274.853"/>
<polygon fill="midnightblue" stroke="midnightblue" points="966.667,-650.355 968.456,-660.798 973.569,-651.519 966.667,-650.355"/>
</g>
<!-- Node30 -->
<g id="node30" class="node"><title>Node30</title>
<g id="a_node30"><a xlink:href="../../d5/d21/classcommands_1_1_set_pen_color_command.html#a69a9c0161b8910c8fecc5ace219aeeb8" target="_top" xlink:title="commands.SetPenColorCommand.update\lTurtle">
<polygon fill="white" stroke="black" points="1094,-196 1094,-226 1314,-226 1314,-196 1094,-196"/>
<text text-anchor="start" x="1102" y="-214" font-family="Helvetica,sans-Serif" font-size="10.00">commands.SetPenColorCommand.update</text>
<text text-anchor="middle" x="1204" y="-203" font-family="Helvetica,sans-Serif" font-size="10.00">Turtle</text>
</a>
</g>
</g>
<!-- Node5&#45;&gt;Node30 -->
<g id="edge29" class="edge"><title>Node5&#45;&gt;Node30</title>
<path fill="none" stroke="midnightblue" d="M971.882,-651.156C993.516,-560.192 1068.23,-249.811 1084,-235 1087.61,-231.609 1091.56,-228.638 1095.76,-226.039"/>
<polygon fill="midnightblue" stroke="midnightblue" points="968.474,-650.359 969.569,-660.897 975.284,-651.977 968.474,-650.359"/>
</g>
<!-- Node31 -->
<g id="node31" class="node"><title>Node31</title>
<g id="a_node31"><a xlink:href="../../dc/d65/classcommands_1_1_left_command.html#abd466facd4b16e1c04a6578b4bf8e203" target="_top" xlink:title="commands.LeftCommand.update\lTurtle">
<polygon fill="white" stroke="black" points="1114.5,-147 1114.5,-177 1293.5,-177 1293.5,-147 1114.5,-147"/>
<text text-anchor="start" x="1122.5" y="-165" font-family="Helvetica,sans-Serif" font-size="10.00">commands.LeftCommand.update</text>
<text text-anchor="middle" x="1204" y="-154" font-family="Helvetica,sans-Serif" font-size="10.00">Turtle</text>
</a>
</g>
</g>
<!-- Node5&#45;&gt;Node31 -->
<g id="edge30" class="edge"><title>Node5&#45;&gt;Node31</title>
<path fill="none" stroke="midnightblue" d="M972.344,-650.68C986.28,-594.95 1020.51,-457.442 1048,-342 1064.48,-272.78 1032.99,-235.611 1084,-186 1092.54,-177.698 1103.1,-171.891 1114.38,-167.883"/>
<polygon fill="midnightblue" stroke="midnightblue" points="968.868,-650.154 969.836,-660.704 975.659,-651.853 968.868,-650.154"/>
</g>
<!-- Node32 -->
<g id="node32" class="node"><title>Node32</title>
<g id="a_node32"><a xlink:href="../../d6/ddc/classcommands_1_1_backward_command.html#af0c4c6ac04bea1aa34b069a01c53888f" target="_top" xlink:title="commands.BackwardCommand.update\lTurtle">
<polygon fill="white" stroke="black" points="1101,-98 1101,-128 1307,-128 1307,-98 1101,-98"/>
<text text-anchor="start" x="1109" y="-116" font-family="Helvetica,sans-Serif" font-size="10.00">commands.BackwardCommand.update</text>
<text text-anchor="middle" x="1204" y="-105" font-family="Helvetica,sans-Serif" font-size="10.00">Turtle</text>
</a>
</g>
</g>
<!-- Node5&#45;&gt;Node32 -->
<g id="edge31" class="edge"><title>Node5&#45;&gt;Node32</title>
<path fill="none" stroke="midnightblue" d="M972.804,-650.783C987.651,-595.258 1023.58,-458.129 1048,-342 1067.04,-251.475 1019.42,-203.229 1084,-137 1088.93,-131.945 1094.61,-127.802 1100.75,-124.419"/>
<polygon fill="midnightblue" stroke="midnightblue" points="969.336,-650.204 970.126,-660.769 976.097,-652.018 969.336,-650.204"/>
</g>
<!-- Node33 -->
<g id="node33" class="node"><title>Node33</title>
<g id="a_node33"><a xlink:href="../../da/d4f/classcommands_1_1_forward_command.html#afe19b644a8fe0d46f3dbf19aef135364" target="_top" xlink:title="commands.ForwardCommand.update\lTurtle">
<polygon fill="white" stroke="black" points="1105,-49 1105,-79 1303,-79 1303,-49 1105,-49"/>
<text text-anchor="start" x="1113" y="-67" font-family="Helvetica,sans-Serif" font-size="10.00">commands.ForwardCommand.update</text>
<text text-anchor="middle" x="1204" y="-56" font-family="Helvetica,sans-Serif" font-size="10.00">Turtle</text>
</a>
</g>
</g>
<!-- Node5&#45;&gt;Node33 -->
<g id="edge32" class="edge"><title>Node5&#45;&gt;Node33</title>
<path fill="none" stroke="midnightblue" d="M973.093,-650.841C988.511,-595.431 1025.5,-458.517 1048,-342 1058.81,-286.026 1044.88,-129.467 1084,-88 1089.93,-81.7146 1097.01,-76.8269 1104.73,-73.0504"/>
<polygon fill="midnightblue" stroke="midnightblue" points="969.628,-650.233 970.307,-660.806 976.37,-652.117 969.628,-650.233"/>
</g>
<!-- Node18 -->
<g id="node18" class="node"><title>Node18</title>
<g id="a_node18"><a xlink:href="../../d5/dad/classcommands_1_1_if_command.html#a0d92f20941c1e79cfb1e02e77f463e68" target="_top" xlink:title="commands.IfCommand.execute\lCommand">
<polygon fill="white" stroke="black" points="1360,-784 1360,-814 1530,-814 1530,-784 1360,-784"/>
<text text-anchor="start" x="1368" y="-802" font-family="Helvetica,sans-Serif" font-size="10.00">commands.IfCommand.execute</text>
<text text-anchor="middle" x="1445" y="-791" font-family="Helvetica,sans-Serif" font-size="10.00">Command</text>
</a>
</g>
</g>
<!-- Node17&#45;&gt;Node18 -->
<g id="edge17" class="edge"><title>Node17&#45;&gt;Node18</title>
<path fill="none" stroke="midnightblue" d="M1309.5,-799C1326.27,-799 1343.45,-799 1359.68,-799"/>
<polygon fill="midnightblue" stroke="midnightblue" points="1309.12,-795.5 1299.12,-799 1309.12,-802.5 1309.12,-795.5"/>
</g>
<!-- Node35 -->
<g id="node35" class="node"><title>Node35</title>
<g id="a_node35"><a xlink:href="../../d9/df7/classcontroller_1_1_controller.html#a81fea06b52aed0a26625c5b30b490afb" target="_top" xlink:title="controller.Controller.run\lCommand">
<polygon fill="white" stroke="black" points="1140,-0 1140,-30 1268,-30 1268,-0 1140,-0"/>
<text text-anchor="start" x="1148" y="-18" font-family="Helvetica,sans-Serif" font-size="10.00">controller.Controller.run</text>
<text text-anchor="middle" x="1204" y="-7" font-family="Helvetica,sans-Serif" font-size="10.00">Command</text>
</a>
</g>
</g>
<!-- Node34&#45;&gt;Node35 -->
<g id="edge34" class="edge"><title>Node34&#45;&gt;Node35</title>
<path fill="none" stroke="midnightblue" d="M1042.99,-307.773C1044.77,-306.312 1046.45,-304.725 1048,-303 1127.28,-215.038 1002.96,-125.35 1084,-39 1098.28,-23.7855 1119.31,-16.7492 1139.74,-13.8411"/>
<polygon fill="midnightblue" stroke="midnightblue" points="1040.97,-304.917 1034.62,-313.401 1044.87,-310.726 1040.97,-304.917"/>
</g>
<!-- Node36 -->
<g id="node36" class="node"><title>Node36</title>
<g id="a_node36"><a xlink:href="../../d9/df7/classcontroller_1_1_controller.html#afdfa7f9e9a3fb5f6b73a6b8e2b2be8b5" target="_top" xlink:title="controller.Controller.get\lInput">
<polygon fill="white" stroke="black" points="1381,-0 1381,-30 1509,-30 1509,-0 1381,-0"/>
<text text-anchor="start" x="1389" y="-18" font-family="Helvetica,sans-Serif" font-size="10.00">controller.Controller.get</text>
<text text-anchor="middle" x="1445" y="-7" font-family="Helvetica,sans-Serif" font-size="10.00">Input</text>
</a>
</g>
</g>
<!-- Node35&#45;&gt;Node36 -->
<g id="edge35" class="edge"><title>Node35&#45;&gt;Node36</title>
<path fill="none" stroke="midnightblue" d="M1278.11,-15C1310.98,-15 1349.38,-15 1380.95,-15"/>
<polygon fill="midnightblue" stroke="midnightblue" points="1278.11,-11.5001 1268.11,-15 1278.11,-18.5001 1278.11,-11.5001"/>
</g>
<!-- Node37 -->
<g id="node37" class="node"><title>Node37</title>
<g id="a_node37"><a xlink:href="../../d3/dc7/classview_1_1controllers_1_1_pane_controller.html#a7e6154aecb60d8f3bcb056a11e842764" target="_top" xlink:title="view.controllers.PaneController.update">
<polygon fill="white" stroke="black" points="1566,-5.5 1566,-24.5 1764,-24.5 1764,-5.5 1566,-5.5"/>
<text text-anchor="middle" x="1665" y="-12.5" font-family="Helvetica,sans-Serif" font-size="10.00">view.controllers.PaneController.update</text>
</a>
</g>
</g>
<!-- Node36&#45;&gt;Node37 -->
<g id="edge36" class="edge"><title>Node36&#45;&gt;Node37</title>
<path fill="none" stroke="midnightblue" d="M1519.22,-15C1534.16,-15 1550.11,-15 1565.76,-15"/>
<polygon fill="midnightblue" stroke="midnightblue" points="1519.05,-11.5001 1509.05,-15 1519.05,-18.5001 1519.05,-11.5001"/>
</g>
<!-- Node39 -->
<g id="node39" class="node"><title>Node39</title>
<g id="a_node39"><a xlink:href="../../d8/daa/classview_1_1panes_1_1_turtle_selector_pane.html#a14e3fbe35c7447dcdf2f0910333cedcc" target="_top" xlink:title="view.panes.TurtleSelector\lPane.TurtleSelectorPane">
<polygon fill="white" stroke="black" points="896.5,-264 896.5,-294 1033.5,-294 1033.5,-264 896.5,-264"/>
<text text-anchor="start" x="904.5" y="-282" font-family="Helvetica,sans-Serif" font-size="10.00">view.panes.TurtleSelector</text>
<text text-anchor="middle" x="965" y="-271" font-family="Helvetica,sans-Serif" font-size="10.00">Pane.TurtleSelectorPane</text>
</a>
</g>
</g>
<!-- Node38&#45;&gt;Node39 -->
<g id="edge38" class="edge"><title>Node38&#45;&gt;Node39</title>
<path fill="none" stroke="midnightblue" d="M856.43,-279C870.024,-279 883.688,-279 896.5,-279"/>
<polygon fill="midnightblue" stroke="midnightblue" points="856.062,-275.5 846.062,-279 856.062,-282.5 856.062,-275.5"/>
</g>
</g>
</svg>
        <g id="navigator" transform="translate(0 0)" fill="#404254">
                <rect fill="#f2f5e9" fill-opacity="0.5" stroke="#606060" stroke-width=".5" x="0" y="0" width="60" height="60"/>
                <use id="zoomplus" xlink:href="#zoomPlus" x="17" y="9" onmousedown="handleZoom(evt,'in')"/>
                <use id="zoomminus" xlink:href="#zoomMin" x="42" y="9" onmousedown="handleZoom(evt,'out')"/>
                <use id="reset" xlink:href="#resetDef" x="30" y="36" onmousedown="handleReset()"/>
                <g id="arrowUp" xlink:href="#dirArrow" transform="translate(30 24)" onmousedown="handlePan(0,-1)">
                  <use xlink:href="#rim" fill="#404040">
                        <set attributeName="fill" to="#808080" begin="arrowUp.mouseover" end="arrowUp.mouseout"/>
                  </use>
                  <path fill="none" stroke="white" stroke-width="1.5" d="M0,-3.0v7 M-2.5,-0.5L0,-3.0L2.5,-0.5"/>
                </g>
                <g id="arrowRight" xlink:href="#dirArrow" transform="rotate(90) translate(36 -43)" onmousedown="handlePan(1,0)">
                  <use xlink:href="#rim" fill="#404040">
                        <set attributeName="fill" to="#808080" begin="arrowRight.mouseover" end="arrowRight.mouseout"/>
                  </use>
                  <path fill="none" stroke="white" stroke-width="1.5" d="M0,-3.0v7 M-2.5,-0.5L0,-3.0L2.5,-0.5"/>
                </g>
                <g id="arrowDown" xlink:href="#dirArrow" transform="rotate(180) translate(-30 -48)" onmousedown="handlePan(0,1)">
                  <use xlink:href="#rim" fill="#404040">
                        <set attributeName="fill" to="#808080" begin="arrowDown.mouseover" end="arrowDown.mouseout"/>
                  </use>
                  <path fill="none" stroke="white" stroke-width="1.5" d="M0,-3.0v7 M-2.5,-0.5L0,-3.0L2.5,-0.5"/>
                </g>
                <g id="arrowLeft" xlink:href="#dirArrow" transform="rotate(270) translate(-36 17)" onmousedown="handlePan(-1,0)">
                  <use xlink:href="#rim" fill="#404040">
                        <set attributeName="fill" to="#808080" begin="arrowLeft.mouseover" end="arrowLeft.mouseout"/>
                  </use>
                  <path fill="none" stroke="white" stroke-width="1.5" d="M0,-3.0v7 M-2.5,-0.5L0,-3.0L2.5,-0.5"/>
                </g>
        </g>
        <svg viewBox="0 0 15 15" width="100%" height="30px" preserveAspectRatio="xMaxYMin meet">
         <g id="arrow_out" transform="scale(0.3 0.3)">
          <a xlink:href="classmodel_1_1_turtle_a832234461564763f8330181b3c1163ff_icgraph_org.svg" target="_base">
           <rect id="button" ry="5" rx="5" y="6" x="6" height="38" width="38"
                fill="#f2f5e9" fill-opacity="0.5" stroke="#606060" stroke-width="1.0"/>
           <path id="arrow"
             d="M 11.500037,31.436501 C 11.940474,20.09759 22.043105,11.32322 32.158766,21.979434 L 37.068811,17.246167 C 37.068811,17.246167 37.088388,32 37.088388,32 L 22.160133,31.978069 C 22.160133,31.978069 26.997745,27.140456 26.997745,27.140456 C 18.528582,18.264221 13.291696,25.230495 11.500037,31.436501 z"
             style="fill:#404040;"/>
          </a>
         </g>
        </svg>
</svg>
