<?xml version="1.0" encoding="UTF-8" standalone="no"?>
<!DOCTYPE svg PUBLIC "-//W3C//DTD SVG 1.1//EN"
 "http://www.w3.org/Graphics/SVG/1.1/DTD/svg11.dtd">
<!-- Generated by graphviz version 2.36.0 (20140111.2315)
 -->
<!-- Title: model.Turtle.setXAndY Pages: 1 -->
<svg width="384pt" height="126pt"
 viewBox="0.00 0.00 384.00 126.00" xmlns="http://www.w3.org/2000/svg" xmlns:xlink="http://www.w3.org/1999/xlink">
<g id="graph0" class="graph" transform="scale(1 1) rotate(0) translate(4 122)">
<title>model.Turtle.setXAndY</title>
<polygon fill="white" stroke="none" points="-4,4 -4,-122 380,-122 380,4 -4,4"/>
<!-- Node1 -->
<g id="node1" class="node"><title>Node1</title>
<polygon fill="#bfbfbf" stroke="black" points="0.5,-44.5 0.5,-63.5 123.5,-63.5 123.5,-44.5 0.5,-44.5"/>
<text text-anchor="middle" x="62" y="-51.5" font-family="Helvetica,sans-Serif" font-size="10.00">model.Turtle.setXAndY</text>
</g>
<!-- Node2 -->
<g id="node2" class="node"><title>Node2</title>
<g id="a_node2"><a xlink:href="../../d9/db5/classcommands_1_1_set_position_command.html#aba31c4887974831a6c0d9feac8316ee6" target="_top" xlink:title="commands.SetPositionCommand.update\lTurtle">
<polygon fill="white" stroke="black" points="160.5,-88 160.5,-118 375.5,-118 375.5,-88 160.5,-88"/>
<text text-anchor="start" x="168.5" y="-106" font-family="Helvetica,sans-Serif" font-size="10.00">commands.SetPositionCommand.update</text>
<text text-anchor="middle" x="268" y="-95" font-family="Helvetica,sans-Serif" font-size="10.00">Turtle</text>
</a>
</g>
</g>
<!-- Node1&#45;&gt;Node2 -->
<g id="edge1" class="edge"><title>Node1&#45;&gt;Node2</title>
<path fill="none" stroke="midnightblue" d="M111.156,-66.0462C126.732,-69.9073 144.088,-74.1729 160,-78 173.633,-81.2789 188.257,-84.7359 202.181,-87.9983"/>
<polygon fill="midnightblue" stroke="midnightblue" points="111.759,-62.5898 101.21,-63.5759 110.072,-69.3833 111.759,-62.5898"/>
</g>
<!-- Node3 -->
<g id="node3" class="node"><title>Node3</title>
<g id="a_node3"><a xlink:href="../../dd/d40/classcommands_1_1_home_command.html#a5d6ef1bd5a451adbe74a3fb991aa079f" target="_top" xlink:title="commands.HomeCommand.update\lTurtle">
<polygon fill="white" stroke="black" points="173,-39 173,-69 363,-69 363,-39 173,-39"/>
<text text-anchor="start" x="181" y="-57" font-family="Helvetica,sans-Serif" font-size="10.00">commands.HomeCommand.update</text>
<text text-anchor="middle" x="268" y="-46" font-family="Helvetica,sans-Serif" font-size="10.00">Turtle</text>
</a>
</g>
</g>
<!-- Node1&#45;&gt;Node3 -->
<g id="edge2" class="edge"><title>Node1&#45;&gt;Node3</title>
<path fill="none" stroke="midnightblue" d="M134.03,-54C146.598,-54 159.859,-54 172.944,-54"/>
<polygon fill="midnightblue" stroke="midnightblue" points="133.654,-50.5001 123.654,-54 133.654,-57.5001 133.654,-50.5001"/>
</g>
<!-- Node4 -->
<g id="node4" class="node"><title>Node4</title>
<g id="a_node4"><a xlink:href="../../db/db5/classview_1_1panes_1_1_view_pane_module.html#a055bc3d50de01b24c9ca90581abf2918" target="_top" xlink:title="view.panes.ViewPaneModule.wrapping">
<polygon fill="white" stroke="black" points="169.5,-0.5 169.5,-19.5 366.5,-19.5 366.5,-0.5 169.5,-0.5"/>
<text text-anchor="middle" x="268" y="-7.5" font-family="Helvetica,sans-Serif" font-size="10.00">view.panes.ViewPaneModule.wrapping</text>
</a>
</g>
</g>
<!-- Node1&#45;&gt;Node4 -->
<g id="edge3" class="edge"><title>Node1&#45;&gt;Node4</title>
<path fill="none" stroke="midnightblue" d="M108.984,-42.0453C125.074,-38.0157 143.293,-33.6251 160,-30 177.083,-26.2933 195.791,-22.6541 212.719,-19.5176"/>
<polygon fill="midnightblue" stroke="midnightblue" points="108.112,-38.6556 99.2731,-44.4975 109.826,-45.4426 108.112,-38.6556"/>
</g>
</g>
</svg>
