<?xml version="1.0" encoding="UTF-8" standalone="no"?>
<!DOCTYPE svg PUBLIC "-//W3C//DTD SVG 1.1//EN"
 "http://www.w3.org/Graphics/SVG/1.1/DTD/svg11.dtd">
<!-- Generated by graphviz version 2.36.0 (20140111.2315)
 -->
<!-- Title: model.Turtle.getNewLocation Pages: 1 -->
<!--zoomable 1361 -->
<svg id="main" version="1.1" xmlns="http://www.w3.org/2000/svg" xmlns:xlink="http://www.w3.org/1999/xlink" xml:space="preserve" onload="init(evt)">
<style type="text/css"><![CDATA[
.edge:hover path { stroke: red; }
.edge:hover polygon { stroke: red; fill: red; }
]]></style>
<script type="text/javascript"><![CDATA[
var edges = document.getElementsByTagName('g');
if (edges && edges.length) {
  for (var i=0;i<edges.length;i++) {
    if (edges[i].id.substr(0,4)=='edge') {
      edges[i].setAttribute('class','edge');
    }
  }
}
]]></script>
        <defs>
                <circle id="rim" cx="0" cy="0" r="7"/>
                <circle id="rim2" cx="0" cy="0" r="3.5"/>
                <g id="zoomPlus">
                        <use xlink:href="#rim" fill="#404040">
                                <set attributeName="fill" to="#808080" begin="zoomplus.mouseover" end="zoomplus.mouseout"/>
                        </use>
                        <path d="M-4,0h8M0,-4v8" fill="none" stroke="white" stroke-width="1.5" pointer-events="none"/>
                </g>
                <g id="zoomMin">
                        <use xlink:href="#rim" fill="#404040">
                                <set attributeName="fill" to="#808080" begin="zoomminus.mouseover" end="zoomminus.mouseout"/>
                        </use>
                        <path d="M-4,0h8" fill="none" stroke="white" stroke-width="1.5" pointer-events="none"/>
                </g>
                <g id="dirArrow">
                        <path fill="none" stroke="white" stroke-width="1.5" d="M0,-3.0v7 M-2.5,-0.5L0,-3.0L2.5,-0.5"/>
                </g>
               <g id="resetDef">
                       <use xlink:href="#rim2" fill="#404040">
                               <set attributeName="fill" to="#808080" begin="reset.mouseover" end="reset.mouseout"/>
                       </use>
               </g>
        </defs>

<script type="text/javascript">
var viewWidth = 1808;
var viewHeight = 1361;
var sectionId = 'dynsection-10';
</script>
<script xlink:href="../../svgpan.js"/>
<svg id="graph" class="graph">
<g id="viewport">
<title>model.Turtle.getNewLocation</title>
<polygon fill="white" stroke="none" points="-4,4 -4,-1357 1804,-1357 1804,4 -4,4"/>
<!-- Node1 -->
<g id="node1" class="node"><title>Node1</title>
<polygon fill="#bfbfbf" stroke="black" points="0.5,-315.5 0.5,-334.5 155.5,-334.5 155.5,-315.5 0.5,-315.5"/>
<text text-anchor="middle" x="78" y="-322.5" font-family="Helvetica,sans-Serif" font-size="10.00">model.Turtle.getNewLocation</text>
</g>
<!-- Node2 -->
<g id="node2" class="node"><title>Node2</title>
<g id="a_node2"><a xlink:href="../../df/d28/classcommands_1_1_y_coordinate_command.html#a53ce041f5df4b5e51b0bf982067a7f8e" target="_top" xlink:title="commands.YCoordinateCommand.execute\lCommand">
<polygon fill="white" stroke="black" points="193,-384 193,-414 415,-414 415,-384 193,-384"/>
<text text-anchor="start" x="201" y="-402" font-family="Helvetica,sans-Serif" font-size="10.00">commands.YCoordinateCommand.execute</text>
<text text-anchor="middle" x="304" y="-391" font-family="Helvetica,sans-Serif" font-size="10.00">Command</text>
</a>
</g>
</g>
<!-- Node1&#45;&gt;Node2 -->
<g id="edge1" class="edge"><title>Node1&#45;&gt;Node2</title>
<path fill="none" stroke="midnightblue" d="M107.465,-339.12C129.975,-349.847 162.427,-364.353 192,-374 203.268,-377.676 215.351,-381.002 227.249,-383.94"/>
<polygon fill="midnightblue" stroke="midnightblue" points="108.695,-335.827 98.1671,-334.633 105.653,-342.131 108.695,-335.827"/>
</g>
<!-- Node3 -->
<g id="node3" class="node"><title>Node3</title>
<g id="a_node3"><a xlink:href="../../da/dcf/classcommands_1_1_x_coordinate_command.html#a3e3312833c4c9d8ca0c99efd8e373a33" target="_top" xlink:title="commands.XCoordinateCommand.execute\lCommand">
<polygon fill="white" stroke="black" points="192.5,-335 192.5,-365 415.5,-365 415.5,-335 192.5,-335"/>
<text text-anchor="start" x="200.5" y="-353" font-family="Helvetica,sans-Serif" font-size="10.00">commands.XCoordinateCommand.execute</text>
<text text-anchor="middle" x="304" y="-342" font-family="Helvetica,sans-Serif" font-size="10.00">Command</text>
</a>
</g>
</g>
<!-- Node1&#45;&gt;Node3 -->
<g id="edge2" class="edge"><title>Node1&#45;&gt;Node3</title>
<path fill="none" stroke="midnightblue" d="M165.837,-334.692C174.502,-335.659 183.379,-336.649 192.246,-337.639"/>
<polygon fill="midnightblue" stroke="midnightblue" points="166.101,-331.199 155.775,-333.569 165.325,-338.156 166.101,-331.199"/>
</g>
<!-- Node4 -->
<g id="node4" class="node"><title>Node4</title>
<g id="a_node4"><a xlink:href="../../db/db5/classview_1_1panes_1_1_view_pane_module.html#ab55ce3511929b88a2cd1235eb694868f" target="_top" xlink:title="view.panes.ViewPaneModule.update\lTurtle">
<polygon fill="white" stroke="black" points="210,-286 210,-316 398,-316 398,-286 210,-286"/>
<text text-anchor="start" x="218" y="-304" font-family="Helvetica,sans-Serif" font-size="10.00">view.panes.ViewPaneModule.update</text>
<text text-anchor="middle" x="304" y="-293" font-family="Helvetica,sans-Serif" font-size="10.00">Turtle</text>
</a>
</g>
</g>
<!-- Node1&#45;&gt;Node4 -->
<g id="edge3" class="edge"><title>Node1&#45;&gt;Node4</title>
<path fill="none" stroke="midnightblue" d="M166.071,-315.671C180.368,-314.139 195.237,-312.546 209.68,-310.999"/>
<polygon fill="midnightblue" stroke="midnightblue" points="165.345,-312.229 155.775,-316.774 166.091,-319.189 165.345,-312.229"/>
</g>
<!-- Node42 -->
<g id="node42" class="node"><title>Node42</title>
<g id="a_node42"><a xlink:href="../../db/db5/classview_1_1panes_1_1_view_pane_module.html#a055bc3d50de01b24c9ca90581abf2918" target="_top" xlink:title="view.panes.ViewPaneModule.wrapping">
<polygon fill="white" stroke="black" points="205.5,-247.5 205.5,-266.5 402.5,-266.5 402.5,-247.5 205.5,-247.5"/>
<text text-anchor="middle" x="304" y="-254.5" font-family="Helvetica,sans-Serif" font-size="10.00">view.panes.ViewPaneModule.wrapping</text>
</a>
</g>
</g>
<!-- Node1&#45;&gt;Node42 -->
<g id="edge41" class="edge"><title>Node1&#45;&gt;Node42</title>
<path fill="none" stroke="midnightblue" d="M107.387,-310.842C129.855,-300.155 162.288,-285.866 192,-277 206.167,-272.773 221.632,-269.3 236.397,-266.503"/>
<polygon fill="midnightblue" stroke="midnightblue" points="105.594,-307.821 98.1089,-315.32 108.636,-314.125 105.594,-307.821"/>
</g>
<!-- Node5 -->
<g id="node5" class="node"><title>Node5</title>
<g id="a_node5"><a xlink:href="../../db/db5/classview_1_1panes_1_1_view_pane_module.html#aa2a1bf15bc036ee4237bf63749d85baf" target="_top" xlink:title="view.panes.ViewPaneModule.updateView">
<polygon fill="white" stroke="black" points="452.5,-291.5 452.5,-310.5 661.5,-310.5 661.5,-291.5 452.5,-291.5"/>
<text text-anchor="middle" x="557" y="-298.5" font-family="Helvetica,sans-Serif" font-size="10.00">view.panes.ViewPaneModule.updateView</text>
</a>
</g>
</g>
<!-- Node4&#45;&gt;Node5 -->
<g id="edge4" class="edge"><title>Node4&#45;&gt;Node5</title>
<path fill="none" stroke="midnightblue" d="M408.16,-301C422.794,-301 437.847,-301 452.487,-301"/>
<polygon fill="midnightblue" stroke="midnightblue" points="408.106,-297.5 398.106,-301 408.106,-304.5 408.106,-297.5"/>
</g>
<!-- Node6 -->
<g id="node6" class="node"><title>Node6</title>
<g id="a_node6"><a xlink:href="../../d3/d42/classmodel_1_1_model.html#a76160d002c1e68b566307ac44356f6e5" target="_top" xlink:title="model.Model.notifyView">
<polygon fill="white" stroke="black" points="725.5,-313.5 725.5,-332.5 854.5,-332.5 854.5,-313.5 725.5,-313.5"/>
<text text-anchor="middle" x="790" y="-320.5" font-family="Helvetica,sans-Serif" font-size="10.00">model.Model.notifyView</text>
</a>
</g>
</g>
<!-- Node5&#45;&gt;Node6 -->
<g id="edge5" class="edge"><title>Node5&#45;&gt;Node6</title>
<path fill="none" stroke="midnightblue" d="M668.173,-311.493C687.729,-313.355 707.49,-315.237 725.206,-316.924"/>
<polygon fill="midnightblue" stroke="midnightblue" points="668.263,-307.986 657.976,-310.522 667.6,-314.954 668.263,-307.986"/>
</g>
<!-- Node40 -->
<g id="node40" class="node"><title>Node40</title>
<g id="a_node40"><a xlink:href="../../db/db5/classview_1_1panes_1_1_view_pane_module.html#a200bd9d0cb7f1fb3482afb7f085939cd" target="_top" xlink:title="view.panes.ViewPaneModule.toggle\lActive">
<polygon fill="white" stroke="black" points="698,-264 698,-294 882,-294 882,-264 698,-264"/>
<text text-anchor="start" x="706" y="-282" font-family="Helvetica,sans-Serif" font-size="10.00">view.panes.ViewPaneModule.toggle</text>
<text text-anchor="middle" x="790" y="-271" font-family="Helvetica,sans-Serif" font-size="10.00">Active</text>
</a>
</g>
</g>
<!-- Node5&#45;&gt;Node40 -->
<g id="edge39" class="edge"><title>Node5&#45;&gt;Node40</title>
<path fill="none" stroke="midnightblue" d="M667.986,-290.525C678.025,-289.569 688.12,-288.608 697.966,-287.67"/>
<polygon fill="midnightblue" stroke="midnightblue" points="667.6,-287.046 657.976,-291.478 668.263,-294.014 667.6,-287.046"/>
</g>
<!-- Node7 -->
<g id="node7" class="node"><title>Node7</title>
<g id="a_node7"><a xlink:href="../../dd/dd6/classcommands_1_1_command.html#abafa69601e87c34d4453cf84349d6f9c" target="_top" xlink:title="commands.Command.execute\lCommand">
<polygon fill="white" stroke="black" points="918.5,-661 918.5,-691 1083.5,-691 1083.5,-661 918.5,-661"/>
<text text-anchor="start" x="926.5" y="-679" font-family="Helvetica,sans-Serif" font-size="10.00">commands.Command.execute</text>
<text text-anchor="middle" x="1001" y="-668" font-family="Helvetica,sans-Serif" font-size="10.00">Command</text>
</a>
</g>
</g>
<!-- Node6&#45;&gt;Node7 -->
<g id="edge6" class="edge"><title>Node6&#45;&gt;Node7</title>
<path fill="none" stroke="midnightblue" d="M801.99,-341.563C838.815,-403.76 957.416,-604.075 991.039,-660.865"/>
<polygon fill="midnightblue" stroke="midnightblue" points="804.914,-339.631 796.808,-332.81 798.891,-343.198 804.914,-339.631"/>
</g>
<!-- Node36 -->
<g id="node36" class="node"><title>Node36</title>
<g id="a_node36"><a xlink:href="../../d3/d42/classmodel_1_1_model.html#a73435cc7a2b6100031bbdd2cf6d6b4e8" target="_top" xlink:title="model.Model.updateModel">
<polygon fill="white" stroke="black" points="929.5,-313.5 929.5,-332.5 1072.5,-332.5 1072.5,-313.5 929.5,-313.5"/>
<text text-anchor="middle" x="1001" y="-320.5" font-family="Helvetica,sans-Serif" font-size="10.00">model.Model.updateModel</text>
</a>
</g>
</g>
<!-- Node6&#45;&gt;Node36 -->
<g id="edge35" class="edge"><title>Node6&#45;&gt;Node36</title>
<path fill="none" stroke="midnightblue" d="M864.72,-323C885.752,-323 908.611,-323 929.45,-323"/>
<polygon fill="midnightblue" stroke="midnightblue" points="864.558,-319.5 854.558,-323 864.558,-326.5 864.558,-319.5"/>
</g>
<!-- Node8 -->
<g id="node8" class="node"><title>Node8</title>
<g id="a_node8"><a xlink:href="../../d1/d79/classcommands_1_1_sum_command.html#a792945436d0c3ff1f58301fcc50f5ae1" target="_top" xlink:title="commands.SumCommand.execute\lCommand">
<polygon fill="white" stroke="black" points="1146,-1323 1146,-1353 1334,-1353 1334,-1323 1146,-1323"/>
<text text-anchor="start" x="1154" y="-1341" font-family="Helvetica,sans-Serif" font-size="10.00">commands.SumCommand.execute</text>
<text text-anchor="middle" x="1240" y="-1330" font-family="Helvetica,sans-Serif" font-size="10.00">Command</text>
</a>
</g>
</g>
<!-- Node7&#45;&gt;Node8 -->
<g id="edge7" class="edge"><title>Node7&#45;&gt;Node8</title>
<path fill="none" stroke="midnightblue" d="M1003.05,-701.444C1008.01,-808.823 1032.63,-1223.52 1120,-1313 1127.3,-1320.48 1136.23,-1326 1145.88,-1330.04"/>
<polygon fill="midnightblue" stroke="midnightblue" points="1006.54,-701.061 1002.6,-691.226 999.544,-701.372 1006.54,-701.061"/>
</g>
<!-- Node9 -->
<g id="node9" class="node"><title>Node9</title>
<g id="a_node9"><a xlink:href="../../d6/dc0/classcommands_1_1_repeat_command.html#a40fb82831e8b2beaa7e31913e46e15eb" target="_top" xlink:title="commands.RepeatCommand.execute\lCommand">
<polygon fill="white" stroke="black" points="1141,-1274 1141,-1304 1339,-1304 1339,-1274 1141,-1274"/>
<text text-anchor="start" x="1149" y="-1292" font-family="Helvetica,sans-Serif" font-size="10.00">commands.RepeatCommand.execute</text>
<text text-anchor="middle" x="1240" y="-1281" font-family="Helvetica,sans-Serif" font-size="10.00">Command</text>
</a>
</g>
</g>
<!-- Node7&#45;&gt;Node9 -->
<g id="edge8" class="edge"><title>Node7&#45;&gt;Node9</title>
<path fill="none" stroke="midnightblue" d="M1003.48,-701.431C1009.92,-803.56 1039.03,-1182.29 1120,-1264 1126.02,-1270.07 1133.11,-1274.85 1140.79,-1278.59"/>
<polygon fill="midnightblue" stroke="midnightblue" points="1006.95,-700.909 1002.84,-691.142 999.963,-701.338 1006.95,-700.909"/>
</g>
<!-- Node10 -->
<g id="node10" class="node"><title>Node10</title>
<g id="a_node10"><a xlink:href="../../dd/d82/classcommands_1_1_remainder_command.html#a99d4baf3f1b4a3c8d0cd69274380a2cf" target="_top" xlink:title="commands.RemainderCommand.execute\lCommand">
<polygon fill="white" stroke="black" points="1132,-1225 1132,-1255 1348,-1255 1348,-1225 1132,-1225"/>
<text text-anchor="start" x="1140" y="-1243" font-family="Helvetica,sans-Serif" font-size="10.00">commands.RemainderCommand.execute</text>
<text text-anchor="middle" x="1240" y="-1232" font-family="Helvetica,sans-Serif" font-size="10.00">Command</text>
</a>
</g>
</g>
<!-- Node7&#45;&gt;Node10 -->
<g id="edge9" class="edge"><title>Node7&#45;&gt;Node10</title>
<path fill="none" stroke="midnightblue" d="M1003.96,-701.181C1011.95,-797.511 1045.33,-1140.96 1120,-1215 1123.82,-1218.79 1128.06,-1222.07 1132.6,-1224.91"/>
<polygon fill="midnightblue" stroke="midnightblue" points="1007.44,-700.858 1003.14,-691.174 1000.46,-701.424 1007.44,-700.858"/>
</g>
<!-- Node11 -->
<g id="node11" class="node"><title>Node11</title>
<g id="a_node11"><a xlink:href="../../df/df5/classcommands_1_1_minus_command.html#a82548bbb25a73194469e1ff81b19cf27" target="_top" xlink:title="commands.MinusCommand.execute\lCommand">
<polygon fill="white" stroke="black" points="1143.5,-1176 1143.5,-1206 1336.5,-1206 1336.5,-1176 1143.5,-1176"/>
<text text-anchor="start" x="1151.5" y="-1194" font-family="Helvetica,sans-Serif" font-size="10.00">commands.MinusCommand.execute</text>
<text text-anchor="middle" x="1240" y="-1183" font-family="Helvetica,sans-Serif" font-size="10.00">Command</text>
</a>
</g>
</g>
<!-- Node7&#45;&gt;Node11 -->
<g id="edge10" class="edge"><title>Node7&#45;&gt;Node11</title>
<path fill="none" stroke="midnightblue" d="M1004.55,-701.225C1014.24,-791.929 1051.69,-1099.66 1120,-1166 1126.74,-1172.54 1134.73,-1177.57 1143.34,-1181.41"/>
<polygon fill="midnightblue" stroke="midnightblue" points="1008.03,-700.851 1003.51,-691.27 1001.07,-701.581 1008.03,-700.851"/>
</g>
<!-- Node12 -->
<g id="node12" class="node"><title>Node12</title>
<g id="a_node12"><a xlink:href="../../d3/d37/classcommands_1_1_set_background_command.html#a91dc8e21948a301c55af1cef90b77962" target="_top" xlink:title="commands.SetBackgroundCommand.execute\lCommand">
<polygon fill="white" stroke="black" points="1120.5,-1127 1120.5,-1157 1359.5,-1157 1359.5,-1127 1120.5,-1127"/>
<text text-anchor="start" x="1128.5" y="-1145" font-family="Helvetica,sans-Serif" font-size="10.00">commands.SetBackgroundCommand.execute</text>
<text text-anchor="middle" x="1240" y="-1134" font-family="Helvetica,sans-Serif" font-size="10.00">Command</text>
</a>
</g>
</g>
<!-- Node7&#45;&gt;Node12 -->
<g id="edge11" class="edge"><title>Node7&#45;&gt;Node12</title>
<path fill="none" stroke="midnightblue" d="M1005.26,-701.15C1016.74,-785.787 1057.98,-1058.26 1120,-1117 1123.99,-1120.77 1128.39,-1124.04 1133.08,-1126.86"/>
<polygon fill="midnightblue" stroke="midnightblue" points="1008.72,-700.585 1003.92,-691.137 1001.78,-701.512 1008.72,-700.585"/>
</g>
<!-- Node13 -->
<g id="node13" class="node"><title>Node13</title>
<g id="a_node13"><a xlink:href="../../d8/dba/classcommands_1_1_product_command.html#a8bc20bc7c21a944405f599dbcfa57e67" target="_top" xlink:title="commands.ProductCommand.execute\lCommand">
<polygon fill="white" stroke="black" points="1139,-1078 1139,-1108 1341,-1108 1341,-1078 1139,-1078"/>
<text text-anchor="start" x="1147" y="-1096" font-family="Helvetica,sans-Serif" font-size="10.00">commands.ProductCommand.execute</text>
<text text-anchor="middle" x="1240" y="-1085" font-family="Helvetica,sans-Serif" font-size="10.00">Command</text>
</a>
</g>
</g>
<!-- Node7&#45;&gt;Node13 -->
<g id="edge12" class="edge"><title>Node7&#45;&gt;Node13</title>
<path fill="none" stroke="midnightblue" d="M1001.41,-701.275C1001.23,-771.059 1010.92,-967.852 1120,-1068 1125.6,-1073.14 1131.98,-1077.33 1138.8,-1080.73"/>
<polygon fill="midnightblue" stroke="midnightblue" points="1004.91,-701.233 1001.5,-691.2 997.906,-701.165 1004.91,-701.233"/>
</g>
<!-- Node14 -->
<g id="node14" class="node"><title>Node14</title>
<g id="a_node14"><a xlink:href="../../dd/d40/classcommands_1_1_quotient_command.html#a7e23b237cc68512dcbe6a65feb7c39e8" target="_top" xlink:title="commands.QuotientCommand.execute\lCommand">
<polygon fill="white" stroke="black" points="1137,-1029 1137,-1059 1343,-1059 1343,-1029 1137,-1029"/>
<text text-anchor="start" x="1145" y="-1047" font-family="Helvetica,sans-Serif" font-size="10.00">commands.QuotientCommand.execute</text>
<text text-anchor="middle" x="1240" y="-1036" font-family="Helvetica,sans-Serif" font-size="10.00">Command</text>
</a>
</g>
</g>
<!-- Node7&#45;&gt;Node14 -->
<g id="edge13" class="edge"><title>Node7&#45;&gt;Node14</title>
<path fill="none" stroke="midnightblue" d="M1002.67,-701.514C1005.82,-765.487 1023.36,-933.681 1120,-1019 1125.06,-1023.47 1130.72,-1027.21 1136.75,-1030.34"/>
<polygon fill="midnightblue" stroke="midnightblue" points="1006.16,-701.007 1002.25,-691.159 999.162,-701.294 1006.16,-701.007"/>
</g>
<!-- Node15 -->
<g id="node15" class="node"><title>Node15</title>
<g id="a_node15"><a xlink:href="../../dc/d68/classcommands_1_1_make_variable_command.html#ad0e0974744cc969c12c67805c2460ef4" target="_top" xlink:title="commands.MakeVariableCommand.execute\lCommand">
<polygon fill="white" stroke="black" points="1125.5,-980 1125.5,-1010 1354.5,-1010 1354.5,-980 1125.5,-980"/>
<text text-anchor="start" x="1133.5" y="-998" font-family="Helvetica,sans-Serif" font-size="10.00">commands.MakeVariableCommand.execute</text>
<text text-anchor="middle" x="1240" y="-987" font-family="Helvetica,sans-Serif" font-size="10.00">Command</text>
</a>
</g>
</g>
<!-- Node7&#45;&gt;Node15 -->
<g id="edge14" class="edge"><title>Node7&#45;&gt;Node15</title>
<path fill="none" stroke="midnightblue" d="M1004.27,-701.004C1010.86,-758.166 1035.29,-898.929 1120,-970 1124.53,-973.799 1129.49,-977.067 1134.73,-979.873"/>
<polygon fill="midnightblue" stroke="midnightblue" points="1007.75,-700.607 1003.21,-691.035 1000.79,-701.35 1007.75,-700.607"/>
</g>
<!-- Node16 -->
<g id="node16" class="node"><title>Node16</title>
<g id="a_node16"><a xlink:href="../../d8/ded/classcommands_1_1_difference_command.html#a0c34c43d3bb266ef3e48ae27be938a0f" target="_top" xlink:title="commands.DifferenceCommand.execute\lCommand">
<polygon fill="white" stroke="black" points="1133,-931 1133,-961 1347,-961 1347,-931 1133,-931"/>
<text text-anchor="start" x="1141" y="-949" font-family="Helvetica,sans-Serif" font-size="10.00">commands.DifferenceCommand.execute</text>
<text text-anchor="middle" x="1240" y="-938" font-family="Helvetica,sans-Serif" font-size="10.00">Command</text>
</a>
</g>
</g>
<!-- Node7&#45;&gt;Node16 -->
<g id="edge15" class="edge"><title>Node7&#45;&gt;Node16</title>
<path fill="none" stroke="midnightblue" d="M1006.53,-701.294C1016.94,-751.586 1047.46,-864.176 1120,-921 1124.9,-924.84 1130.26,-928.128 1135.89,-930.938"/>
<polygon fill="midnightblue" stroke="midnightblue" points="1009.93,-700.411 1004.56,-691.276 1003.06,-701.765 1009.93,-700.411"/>
</g>
<!-- Node17 -->
<g id="node17" class="node"><title>Node17</title>
<g id="a_node17"><a xlink:href="../../dd/d29/classcommands_1_1_clear_screen_command.html#a87e5eb0f4c3bb48ec0737da2aa431db3" target="_top" xlink:title="commands.ClearScreenCommand.execute\lCommand">
<polygon fill="white" stroke="black" points="1128,-882 1128,-912 1352,-912 1352,-882 1128,-882"/>
<text text-anchor="start" x="1136" y="-900" font-family="Helvetica,sans-Serif" font-size="10.00">commands.ClearScreenCommand.execute</text>
<text text-anchor="middle" x="1240" y="-889" font-family="Helvetica,sans-Serif" font-size="10.00">Command</text>
</a>
</g>
</g>
<!-- Node7&#45;&gt;Node17 -->
<g id="edge16" class="edge"><title>Node7&#45;&gt;Node17</title>
<path fill="none" stroke="midnightblue" d="M1009.57,-700.672C1023.86,-742.893 1058.99,-828.631 1120,-872 1125.42,-875.853 1131.31,-879.136 1137.47,-881.931"/>
<polygon fill="midnightblue" stroke="midnightblue" points="1012.89,-699.579 1006.45,-691.165 1006.24,-701.757 1012.89,-699.579"/>
</g>
<!-- Node18 -->
<g id="node18" class="node"><title>Node18</title>
<g id="a_node18"><a xlink:href="../../d9/d35/classcommands_1_1_ask_command.html#ae4ba28c73ce0b5112e4032bd21a951f5" target="_top" xlink:title="commands.AskCommand.execute\lCommand">
<polygon fill="white" stroke="black" points="1149,-833 1149,-863 1331,-863 1331,-833 1149,-833"/>
<text text-anchor="start" x="1157" y="-851" font-family="Helvetica,sans-Serif" font-size="10.00">commands.AskCommand.execute</text>
<text text-anchor="middle" x="1240" y="-840" font-family="Helvetica,sans-Serif" font-size="10.00">Command</text>
</a>
</g>
</g>
<!-- Node7&#45;&gt;Node18 -->
<g id="edge17" class="edge"><title>Node7&#45;&gt;Node18</title>
<path fill="none" stroke="midnightblue" d="M1014.52,-700.426C1032.92,-733.7 1070.51,-792.605 1120,-823 1128.81,-828.413 1138.61,-832.67 1148.7,-836.015"/>
<polygon fill="midnightblue" stroke="midnightblue" points="1017.47,-698.514 1009.64,-691.373 1011.31,-701.836 1017.47,-698.514"/>
</g>
<!-- Node19 -->
<g id="node19" class="node"><title>Node19</title>
<g id="a_node19"><a xlink:href="../../d3/d49/classcommands_1_1_if_else_command.html#a3b3d15925117d366a69f8ebd1dbc2dbc" target="_top" xlink:title="commands.IfElseCommand.execute\lCommand">
<polygon fill="white" stroke="black" points="1145,-784 1145,-814 1335,-814 1335,-784 1145,-784"/>
<text text-anchor="start" x="1153" y="-802" font-family="Helvetica,sans-Serif" font-size="10.00">commands.IfElseCommand.execute</text>
<text text-anchor="middle" x="1240" y="-791" font-family="Helvetica,sans-Serif" font-size="10.00">Command</text>
</a>
</g>
</g>
<!-- Node7&#45;&gt;Node19 -->
<g id="edge18" class="edge"><title>Node7&#45;&gt;Node19</title>
<path fill="none" stroke="midnightblue" d="M1022.73,-698.758C1044.67,-721.389 1081.39,-755.347 1120,-774 1128.08,-777.903 1136.75,-781.199 1145.61,-783.982"/>
<polygon fill="midnightblue" stroke="midnightblue" points="1025.04,-696.105 1015.61,-691.27 1019.97,-700.928 1025.04,-696.105"/>
</g>
<!-- Node21 -->
<g id="node21" class="node"><title>Node21</title>
<g id="a_node21"><a xlink:href="../../d8/d57/classcommands_1_1_for_command.html#aeb06a37d7f9845eb546425bae6ea9f58" target="_top" xlink:title="commands.ForCommand.execute\lCommand">
<polygon fill="white" stroke="black" points="1150,-735 1150,-765 1330,-765 1330,-735 1150,-735"/>
<text text-anchor="start" x="1158" y="-753" font-family="Helvetica,sans-Serif" font-size="10.00">commands.ForCommand.execute</text>
<text text-anchor="middle" x="1240" y="-742" font-family="Helvetica,sans-Serif" font-size="10.00">Command</text>
</a>
</g>
</g>
<!-- Node7&#45;&gt;Node21 -->
<g id="edge20" class="edge"><title>Node7&#45;&gt;Node21</title>
<path fill="none" stroke="midnightblue" d="M1043.15,-695.308C1065.51,-705.231 1093.86,-716.904 1120,-725 1132,-728.716 1144.85,-732.055 1157.5,-734.992"/>
<polygon fill="midnightblue" stroke="midnightblue" points="1044.51,-692.084 1033.96,-691.179 1041.64,-698.47 1044.51,-692.084"/>
</g>
<!-- Node22 -->
<g id="node22" class="node"><title>Node22</title>
<g id="a_node22"><a xlink:href="../../db/d38/classcommands_1_1_ask_with_command.html#a5ee6a090e94729d84ef423a454d446eb" target="_top" xlink:title="commands.AskWithCommand.execute\lCommand">
<polygon fill="white" stroke="black" points="1138.5,-686 1138.5,-716 1341.5,-716 1341.5,-686 1138.5,-686"/>
<text text-anchor="start" x="1146.5" y="-704" font-family="Helvetica,sans-Serif" font-size="10.00">commands.AskWithCommand.execute</text>
<text text-anchor="middle" x="1240" y="-693" font-family="Helvetica,sans-Serif" font-size="10.00">Command</text>
</a>
</g>
</g>
<!-- Node7&#45;&gt;Node22 -->
<g id="edge21" class="edge"><title>Node7&#45;&gt;Node22</title>
<path fill="none" stroke="midnightblue" d="M1093.62,-685.665C1108.3,-687.213 1123.56,-688.823 1138.44,-690.392"/>
<polygon fill="midnightblue" stroke="midnightblue" points="1093.87,-682.172 1083.56,-684.604 1093.14,-689.133 1093.87,-682.172"/>
</g>
<!-- Node23 -->
<g id="node23" class="node"><title>Node23</title>
<g id="a_node23"><a xlink:href="../../d4/d02/classcommands_1_1_do_times_command.html#a1dd20e90975d905a1bce8f018e9f7f0a" target="_top" xlink:title="commands.DoTimesCommand.execute\lCommand">
<polygon fill="white" stroke="black" points="1136.5,-637 1136.5,-667 1343.5,-667 1343.5,-637 1136.5,-637"/>
<text text-anchor="start" x="1144.5" y="-655" font-family="Helvetica,sans-Serif" font-size="10.00">commands.DoTimesCommand.execute</text>
<text text-anchor="middle" x="1240" y="-644" font-family="Helvetica,sans-Serif" font-size="10.00">Command</text>
</a>
</g>
</g>
<!-- Node7&#45;&gt;Node23 -->
<g id="edge22" class="edge"><title>Node7&#45;&gt;Node23</title>
<path fill="none" stroke="midnightblue" d="M1093.64,-666.72C1107.63,-665.303 1122.15,-663.833 1136.35,-662.395"/>
<polygon fill="midnightblue" stroke="midnightblue" points="1093.16,-663.251 1083.56,-667.741 1093.86,-670.215 1093.16,-663.251"/>
</g>
<!-- Node24 -->
<g id="node24" class="node"><title>Node24</title>
<g id="a_node24"><a xlink:href="../../dd/de4/classcommands_1_1_custom_command.html#a5ad25438a49d3e4eeba835fefe8b730a" target="_top" xlink:title="commands.CustomCommand.execute\lCommand">
<polygon fill="white" stroke="black" points="1138.5,-588 1138.5,-618 1341.5,-618 1341.5,-588 1138.5,-588"/>
<text text-anchor="start" x="1146.5" y="-606" font-family="Helvetica,sans-Serif" font-size="10.00">commands.CustomCommand.execute</text>
<text text-anchor="middle" x="1240" y="-595" font-family="Helvetica,sans-Serif" font-size="10.00">Command</text>
</a>
</g>
</g>
<!-- Node7&#45;&gt;Node24 -->
<g id="edge23" class="edge"><title>Node7&#45;&gt;Node24</title>
<path fill="none" stroke="midnightblue" d="M1043.66,-656.916C1065.96,-647.252 1094.09,-635.921 1120,-628 1132.11,-624.297 1145.08,-620.956 1157.85,-618.011"/>
<polygon fill="midnightblue" stroke="midnightblue" points="1042.24,-653.719 1034.49,-660.941 1045.05,-660.129 1042.24,-653.719"/>
</g>
<!-- Node25 -->
<g id="node25" class="node"><title>Node25</title>
<g id="a_node25"><a xlink:href="../../d6/daf/classcommands_1_1_set_shape_command.html#a59c440316cf9e732b5aa2f46def94e10" target="_top" xlink:title="commands.SetShapeCommand.update\lTurtle">
<polygon fill="white" stroke="black" points="1136,-539 1136,-569 1344,-569 1344,-539 1136,-539"/>
<text text-anchor="start" x="1144" y="-557" font-family="Helvetica,sans-Serif" font-size="10.00">commands.SetShapeCommand.update</text>
<text text-anchor="middle" x="1240" y="-546" font-family="Helvetica,sans-Serif" font-size="10.00">Turtle</text>
</a>
</g>
</g>
<!-- Node7&#45;&gt;Node25 -->
<g id="edge24" class="edge"><title>Node7&#45;&gt;Node25</title>
<path fill="none" stroke="midnightblue" d="M1022.78,-653.48C1044.75,-631.086 1081.51,-597.479 1120,-579 1128.09,-575.117 1136.77,-571.835 1145.63,-569.06"/>
<polygon fill="midnightblue" stroke="midnightblue" points="1020.06,-651.259 1015.65,-660.891 1025.1,-656.114 1020.06,-651.259"/>
</g>
<!-- Node26 -->
<g id="node26" class="node"><title>Node26</title>
<g id="a_node26"><a xlink:href="../../d6/d11/classcommands_1_1_set_pen_dash_command.html#a320f3b8248e3e89b2338dfefbe73f8c7" target="_top" xlink:title="commands.SetPenDashCommand.update\lTurtle">
<polygon fill="white" stroke="black" points="1130,-490 1130,-520 1350,-520 1350,-490 1130,-490"/>
<text text-anchor="start" x="1138" y="-508" font-family="Helvetica,sans-Serif" font-size="10.00">commands.SetPenDashCommand.update</text>
<text text-anchor="middle" x="1240" y="-497" font-family="Helvetica,sans-Serif" font-size="10.00">Turtle</text>
</a>
</g>
</g>
<!-- Node7&#45;&gt;Node26 -->
<g id="edge25" class="edge"><title>Node7&#45;&gt;Node26</title>
<path fill="none" stroke="midnightblue" d="M1014.57,-651.74C1033.02,-618.692 1070.66,-560.188 1120,-530 1126.3,-526.144 1133.11,-522.875 1140.16,-520.104"/>
<polygon fill="midnightblue" stroke="midnightblue" points="1011.38,-650.275 1009.67,-660.731 1017.53,-653.622 1011.38,-650.275"/>
</g>
<!-- Node27 -->
<g id="node27" class="node"><title>Node27</title>
<g id="a_node27"><a xlink:href="../../dc/df3/classcommands_1_1_set_towards_command.html#ad82abd7dcaed57b3bdb3a4b87a91815a" target="_top" xlink:title="commands.SetTowardsCommand.update\lTurtle">
<polygon fill="white" stroke="black" points="1132.5,-441 1132.5,-471 1347.5,-471 1347.5,-441 1132.5,-441"/>
<text text-anchor="start" x="1140.5" y="-459" font-family="Helvetica,sans-Serif" font-size="10.00">commands.SetTowardsCommand.update</text>
<text text-anchor="middle" x="1240" y="-448" font-family="Helvetica,sans-Serif" font-size="10.00">Turtle</text>
</a>
</g>
</g>
<!-- Node7&#45;&gt;Node27 -->
<g id="edge26" class="edge"><title>Node7&#45;&gt;Node27</title>
<path fill="none" stroke="midnightblue" d="M1009.7,-651.184C1024.1,-609.082 1059.3,-524.047 1120,-481 1125.42,-477.153 1131.32,-473.875 1137.48,-471.083"/>
<polygon fill="midnightblue" stroke="midnightblue" points="1006.3,-650.318 1006.48,-660.911 1012.94,-652.517 1006.3,-650.318"/>
</g>
<!-- Node28 -->
<g id="node28" class="node"><title>Node28</title>
<g id="a_node28"><a xlink:href="../../d9/db5/classcommands_1_1_set_position_command.html#aba31c4887974831a6c0d9feac8316ee6" target="_top" xlink:title="commands.SetPositionCommand.update\lTurtle">
<polygon fill="white" stroke="black" points="1132.5,-392 1132.5,-422 1347.5,-422 1347.5,-392 1132.5,-392"/>
<text text-anchor="start" x="1140.5" y="-410" font-family="Helvetica,sans-Serif" font-size="10.00">commands.SetPositionCommand.update</text>
<text text-anchor="middle" x="1240" y="-399" font-family="Helvetica,sans-Serif" font-size="10.00">Turtle</text>
</a>
</g>
</g>
<!-- Node7&#45;&gt;Node28 -->
<g id="edge27" class="edge"><title>Node7&#45;&gt;Node28</title>
<path fill="none" stroke="midnightblue" d="M1006.57,-650.807C1017.03,-600.716 1047.66,-488.578 1120,-432 1124.91,-428.163 1130.26,-424.879 1135.9,-422.071"/>
<polygon fill="midnightblue" stroke="midnightblue" points="1003.1,-650.293 1004.58,-660.784 1009.97,-651.661 1003.1,-650.293"/>
</g>
<!-- Node29 -->
<g id="node29" class="node"><title>Node29</title>
<g id="a_node29"><a xlink:href="../../dd/db2/classcommands_1_1_right_command.html#ae16ecb0da3e0a2049a7382d74f315cb6" target="_top" xlink:title="commands.RightCommand.update\lTurtle">
<polygon fill="white" stroke="black" points="1147.5,-343 1147.5,-373 1332.5,-373 1332.5,-343 1147.5,-343"/>
<text text-anchor="start" x="1155.5" y="-361" font-family="Helvetica,sans-Serif" font-size="10.00">commands.RightCommand.update</text>
<text text-anchor="middle" x="1240" y="-350" font-family="Helvetica,sans-Serif" font-size="10.00">Turtle</text>
</a>
</g>
</g>
<!-- Node7&#45;&gt;Node29 -->
<g id="edge28" class="edge"><title>Node7&#45;&gt;Node29</title>
<path fill="none" stroke="midnightblue" d="M1004.34,-650.678C1011.06,-593.452 1035.7,-453.648 1120,-383 1128.01,-376.288 1137.37,-371.237 1147.26,-367.456"/>
<polygon fill="midnightblue" stroke="midnightblue" points="1000.86,-650.353 1003.26,-660.673 1007.82,-651.11 1000.86,-650.353"/>
</g>
<!-- Node30 -->
<g id="node30" class="node"><title>Node30</title>
<g id="a_node30"><a xlink:href="../../dc/db3/classcommands_1_1_set_heading_command.html#a064fae1a815349b9efc6bd43f2371339" target="_top" xlink:title="commands.SetHeadingCommand.update\lTurtle">
<polygon fill="white" stroke="black" points="1131.5,-294 1131.5,-324 1348.5,-324 1348.5,-294 1131.5,-294"/>
<text text-anchor="start" x="1139.5" y="-312" font-family="Helvetica,sans-Serif" font-size="10.00">commands.SetHeadingCommand.update</text>
<text text-anchor="middle" x="1240" y="-301" font-family="Helvetica,sans-Serif" font-size="10.00">Turtle</text>
</a>
</g>
</g>
<!-- Node7&#45;&gt;Node30 -->
<g id="edge29" class="edge"><title>Node7&#45;&gt;Node30</title>
<path fill="none" stroke="midnightblue" d="M1002.7,-650.558C1005.91,-586.767 1023.57,-419.054 1120,-334 1124.35,-330.16 1129.15,-326.856 1134.23,-324.018"/>
<polygon fill="midnightblue" stroke="midnightblue" points="999.189,-650.745 1002.26,-660.884 1006.18,-651.04 999.189,-650.745"/>
</g>
<!-- Node31 -->
<g id="node31" class="node"><title>Node31</title>
<g id="a_node31"><a xlink:href="../../d2/dbb/classcommands_1_1_set_pen_size_command.html#aa8dbbb22c72842b2d6f50aa169a8404e" target="_top" xlink:title="commands.SetPenSizeCommand.update\lTurtle">
<polygon fill="white" stroke="black" points="1132.5,-245 1132.5,-275 1347.5,-275 1347.5,-245 1132.5,-245"/>
<text text-anchor="start" x="1140.5" y="-263" font-family="Helvetica,sans-Serif" font-size="10.00">commands.SetPenSizeCommand.update</text>
<text text-anchor="middle" x="1240" y="-252" font-family="Helvetica,sans-Serif" font-size="10.00">Turtle</text>
</a>
</g>
</g>
<!-- Node7&#45;&gt;Node31 -->
<g id="edge30" class="edge"><title>Node7&#45;&gt;Node31</title>
<path fill="none" stroke="midnightblue" d="M1006.16,-650.913C1019.63,-572.791 1064.36,-336.047 1120,-285 1124.12,-281.218 1128.67,-277.951 1133.5,-275.133"/>
<polygon fill="midnightblue" stroke="midnightblue" points="1002.7,-650.403 1004.47,-660.848 1009.6,-651.577 1002.7,-650.403"/>
</g>
<!-- Node32 -->
<g id="node32" class="node"><title>Node32</title>
<g id="a_node32"><a xlink:href="../../d5/d21/classcommands_1_1_set_pen_color_command.html#a69a9c0161b8910c8fecc5ace219aeeb8" target="_top" xlink:title="commands.SetPenColorCommand.update\lTurtle">
<polygon fill="white" stroke="black" points="1130,-196 1130,-226 1350,-226 1350,-196 1130,-196"/>
<text text-anchor="start" x="1138" y="-214" font-family="Helvetica,sans-Serif" font-size="10.00">commands.SetPenColorCommand.update</text>
<text text-anchor="middle" x="1240" y="-203" font-family="Helvetica,sans-Serif" font-size="10.00">Turtle</text>
</a>
</g>
</g>
<!-- Node7&#45;&gt;Node32 -->
<g id="edge31" class="edge"><title>Node7&#45;&gt;Node32</title>
<path fill="none" stroke="midnightblue" d="M1007.95,-650.94C1029.69,-559.844 1104.34,-250.824 1120,-236 1123.99,-232.227 1128.39,-228.962 1133.09,-226.142"/>
<polygon fill="midnightblue" stroke="midnightblue" points="1004.49,-650.395 1005.57,-660.934 1011.29,-652.018 1004.49,-650.395"/>
</g>
<!-- Node33 -->
<g id="node33" class="node"><title>Node33</title>
<g id="a_node33"><a xlink:href="../../dc/d65/classcommands_1_1_left_command.html#abd466facd4b16e1c04a6578b4bf8e203" target="_top" xlink:title="commands.LeftCommand.update\lTurtle">
<polygon fill="white" stroke="black" points="1150.5,-147 1150.5,-177 1329.5,-177 1329.5,-147 1150.5,-147"/>
<text text-anchor="start" x="1158.5" y="-165" font-family="Helvetica,sans-Serif" font-size="10.00">commands.LeftCommand.update</text>
<text text-anchor="middle" x="1240" y="-154" font-family="Helvetica,sans-Serif" font-size="10.00">Turtle</text>
</a>
</g>
</g>
<!-- Node7&#45;&gt;Node33 -->
<g id="edge32" class="edge"><title>Node7&#45;&gt;Node33</title>
<path fill="none" stroke="midnightblue" d="M1008.34,-650.68C1022.28,-594.95 1056.51,-457.442 1084,-342 1100.48,-272.78 1068.99,-235.611 1120,-186 1128.54,-177.698 1139.1,-171.891 1150.38,-167.883"/>
<polygon fill="midnightblue" stroke="midnightblue" points="1004.87,-650.154 1005.84,-660.704 1011.66,-651.853 1004.87,-650.154"/>
</g>
<!-- Node34 -->
<g id="node34" class="node"><title>Node34</title>
<g id="a_node34"><a xlink:href="../../d6/ddc/classcommands_1_1_backward_command.html#af0c4c6ac04bea1aa34b069a01c53888f" target="_top" xlink:title="commands.BackwardCommand.update\lTurtle">
<polygon fill="white" stroke="black" points="1137,-98 1137,-128 1343,-128 1343,-98 1137,-98"/>
<text text-anchor="start" x="1145" y="-116" font-family="Helvetica,sans-Serif" font-size="10.00">commands.BackwardCommand.update</text>
<text text-anchor="middle" x="1240" y="-105" font-family="Helvetica,sans-Serif" font-size="10.00">Turtle</text>
</a>
</g>
</g>
<!-- Node7&#45;&gt;Node34 -->
<g id="edge33" class="edge"><title>Node7&#45;&gt;Node34</title>
<path fill="none" stroke="midnightblue" d="M1008.8,-650.783C1023.65,-595.258 1059.58,-458.129 1084,-342 1103.04,-251.475 1055.42,-203.229 1120,-137 1124.93,-131.945 1130.61,-127.802 1136.75,-124.419"/>
<polygon fill="midnightblue" stroke="midnightblue" points="1005.34,-650.204 1006.13,-660.769 1012.1,-652.018 1005.34,-650.204"/>
</g>
<!-- Node35 -->
<g id="node35" class="node"><title>Node35</title>
<g id="a_node35"><a xlink:href="../../da/d4f/classcommands_1_1_forward_command.html#afe19b644a8fe0d46f3dbf19aef135364" target="_top" xlink:title="commands.ForwardCommand.update\lTurtle">
<polygon fill="white" stroke="black" points="1141,-49 1141,-79 1339,-79 1339,-49 1141,-49"/>
<text text-anchor="start" x="1149" y="-67" font-family="Helvetica,sans-Serif" font-size="10.00">commands.ForwardCommand.update</text>
<text text-anchor="middle" x="1240" y="-56" font-family="Helvetica,sans-Serif" font-size="10.00">Turtle</text>
</a>
</g>
</g>
<!-- Node7&#45;&gt;Node35 -->
<g id="edge34" class="edge"><title>Node7&#45;&gt;Node35</title>
<path fill="none" stroke="midnightblue" d="M1009.09,-650.841C1024.51,-595.431 1061.5,-458.517 1084,-342 1094.81,-286.026 1080.88,-129.467 1120,-88 1125.93,-81.7146 1133.01,-76.8269 1140.73,-73.0504"/>
<polygon fill="midnightblue" stroke="midnightblue" points="1005.63,-650.233 1006.31,-660.806 1012.37,-652.117 1005.63,-650.233"/>
</g>
<!-- Node20 -->
<g id="node20" class="node"><title>Node20</title>
<g id="a_node20"><a xlink:href="../../d5/dad/classcommands_1_1_if_command.html#a0d92f20941c1e79cfb1e02e77f463e68" target="_top" xlink:title="commands.IfCommand.execute\lCommand">
<polygon fill="white" stroke="black" points="1396,-784 1396,-814 1566,-814 1566,-784 1396,-784"/>
<text text-anchor="start" x="1404" y="-802" font-family="Helvetica,sans-Serif" font-size="10.00">commands.IfCommand.execute</text>
<text text-anchor="middle" x="1481" y="-791" font-family="Helvetica,sans-Serif" font-size="10.00">Command</text>
</a>
</g>
</g>
<!-- Node19&#45;&gt;Node20 -->
<g id="edge19" class="edge"><title>Node19&#45;&gt;Node20</title>
<path fill="none" stroke="midnightblue" d="M1345.5,-799C1362.27,-799 1379.45,-799 1395.68,-799"/>
<polygon fill="midnightblue" stroke="midnightblue" points="1345.12,-795.5 1335.12,-799 1345.12,-802.5 1345.12,-795.5"/>
</g>
<!-- Node37 -->
<g id="node37" class="node"><title>Node37</title>
<g id="a_node37"><a xlink:href="../../d9/df7/classcontroller_1_1_controller.html#a81fea06b52aed0a26625c5b30b490afb" target="_top" xlink:title="controller.Controller.run\lCommand">
<polygon fill="white" stroke="black" points="1176,-0 1176,-30 1304,-30 1304,-0 1176,-0"/>
<text text-anchor="start" x="1184" y="-18" font-family="Helvetica,sans-Serif" font-size="10.00">controller.Controller.run</text>
<text text-anchor="middle" x="1240" y="-7" font-family="Helvetica,sans-Serif" font-size="10.00">Command</text>
</a>
</g>
</g>
<!-- Node36&#45;&gt;Node37 -->
<g id="edge36" class="edge"><title>Node36&#45;&gt;Node37</title>
<path fill="none" stroke="midnightblue" d="M1078.99,-307.773C1080.77,-306.312 1082.45,-304.725 1084,-303 1163.28,-215.038 1038.96,-125.35 1120,-39 1134.28,-23.7855 1155.31,-16.7492 1175.74,-13.8411"/>
<polygon fill="midnightblue" stroke="midnightblue" points="1076.97,-304.917 1070.62,-313.401 1080.87,-310.726 1076.97,-304.917"/>
</g>
<!-- Node38 -->
<g id="node38" class="node"><title>Node38</title>
<g id="a_node38"><a xlink:href="../../d9/df7/classcontroller_1_1_controller.html#afdfa7f9e9a3fb5f6b73a6b8e2b2be8b5" target="_top" xlink:title="controller.Controller.get\lInput">
<polygon fill="white" stroke="black" points="1417,-0 1417,-30 1545,-30 1545,-0 1417,-0"/>
<text text-anchor="start" x="1425" y="-18" font-family="Helvetica,sans-Serif" font-size="10.00">controller.Controller.get</text>
<text text-anchor="middle" x="1481" y="-7" font-family="Helvetica,sans-Serif" font-size="10.00">Input</text>
</a>
</g>
</g>
<!-- Node37&#45;&gt;Node38 -->
<g id="edge37" class="edge"><title>Node37&#45;&gt;Node38</title>
<path fill="none" stroke="midnightblue" d="M1314.11,-15C1346.98,-15 1385.38,-15 1416.95,-15"/>
<polygon fill="midnightblue" stroke="midnightblue" points="1314.11,-11.5001 1304.11,-15 1314.11,-18.5001 1314.11,-11.5001"/>
</g>
<!-- Node39 -->
<g id="node39" class="node"><title>Node39</title>
<g id="a_node39"><a xlink:href="../../d3/dc7/classview_1_1controllers_1_1_pane_controller.html#a7e6154aecb60d8f3bcb056a11e842764" target="_top" xlink:title="view.controllers.PaneController.update">
<polygon fill="white" stroke="black" points="1602,-5.5 1602,-24.5 1800,-24.5 1800,-5.5 1602,-5.5"/>
<text text-anchor="middle" x="1701" y="-12.5" font-family="Helvetica,sans-Serif" font-size="10.00">view.controllers.PaneController.update</text>
</a>
</g>
</g>
<!-- Node38&#45;&gt;Node39 -->
<g id="edge38" class="edge"><title>Node38&#45;&gt;Node39</title>
<path fill="none" stroke="midnightblue" d="M1555.22,-15C1570.16,-15 1586.11,-15 1601.76,-15"/>
<polygon fill="midnightblue" stroke="midnightblue" points="1555.05,-11.5001 1545.05,-15 1555.05,-18.5001 1555.05,-11.5001"/>
</g>
<!-- Node41 -->
<g id="node41" class="node"><title>Node41</title>
<g id="a_node41"><a xlink:href="../../d8/daa/classview_1_1panes_1_1_turtle_selector_pane.html#a14e3fbe35c7447dcdf2f0910333cedcc" target="_top" xlink:title="view.panes.TurtleSelector\lPane.TurtleSelectorPane">
<polygon fill="white" stroke="black" points="932.5,-264 932.5,-294 1069.5,-294 1069.5,-264 932.5,-264"/>
<text text-anchor="start" x="940.5" y="-282" font-family="Helvetica,sans-Serif" font-size="10.00">view.panes.TurtleSelector</text>
<text text-anchor="middle" x="1001" y="-271" font-family="Helvetica,sans-Serif" font-size="10.00">Pane.TurtleSelectorPane</text>
</a>
</g>
</g>
<!-- Node40&#45;&gt;Node41 -->
<g id="edge40" class="edge"><title>Node40&#45;&gt;Node41</title>
<path fill="none" stroke="midnightblue" d="M892.43,-279C906.024,-279 919.688,-279 932.5,-279"/>
<polygon fill="midnightblue" stroke="midnightblue" points="892.062,-275.5 882.062,-279 892.062,-282.5 892.062,-275.5"/>
</g>
</g>
</svg>
        <g id="navigator" transform="translate(0 0)" fill="#404254">
                <rect fill="#f2f5e9" fill-opacity="0.5" stroke="#606060" stroke-width=".5" x="0" y="0" width="60" height="60"/>
                <use id="zoomplus" xlink:href="#zoomPlus" x="17" y="9" onmousedown="handleZoom(evt,'in')"/>
                <use id="zoomminus" xlink:href="#zoomMin" x="42" y="9" onmousedown="handleZoom(evt,'out')"/>
                <use id="reset" xlink:href="#resetDef" x="30" y="36" onmousedown="handleReset()"/>
                <g id="arrowUp" xlink:href="#dirArrow" transform="translate(30 24)" onmousedown="handlePan(0,-1)">
                  <use xlink:href="#rim" fill="#404040">
                        <set attributeName="fill" to="#808080" begin="arrowUp.mouseover" end="arrowUp.mouseout"/>
                  </use>
                  <path fill="none" stroke="white" stroke-width="1.5" d="M0,-3.0v7 M-2.5,-0.5L0,-3.0L2.5,-0.5"/>
                </g>
                <g id="arrowRight" xlink:href="#dirArrow" transform="rotate(90) translate(36 -43)" onmousedown="handlePan(1,0)">
                  <use xlink:href="#rim" fill="#404040">
                        <set attributeName="fill" to="#808080" begin="arrowRight.mouseover" end="arrowRight.mouseout"/>
                  </use>
                  <path fill="none" stroke="white" stroke-width="1.5" d="M0,-3.0v7 M-2.5,-0.5L0,-3.0L2.5,-0.5"/>
                </g>
                <g id="arrowDown" xlink:href="#dirArrow" transform="rotate(180) translate(-30 -48)" onmousedown="handlePan(0,1)">
                  <use xlink:href="#rim" fill="#404040">
                        <set attributeName="fill" to="#808080" begin="arrowDown.mouseover" end="arrowDown.mouseout"/>
                  </use>
                  <path fill="none" stroke="white" stroke-width="1.5" d="M0,-3.0v7 M-2.5,-0.5L0,-3.0L2.5,-0.5"/>
                </g>
                <g id="arrowLeft" xlink:href="#dirArrow" transform="rotate(270) translate(-36 17)" onmousedown="handlePan(-1,0)">
                  <use xlink:href="#rim" fill="#404040">
                        <set attributeName="fill" to="#808080" begin="arrowLeft.mouseover" end="arrowLeft.mouseout"/>
                  </use>
                  <path fill="none" stroke="white" stroke-width="1.5" d="M0,-3.0v7 M-2.5,-0.5L0,-3.0L2.5,-0.5"/>
                </g>
        </g>
        <svg viewBox="0 0 15 15" width="100%" height="30px" preserveAspectRatio="xMaxYMin meet">
         <g id="arrow_out" transform="scale(0.3 0.3)">
          <a xlink:href="classmodel_1_1_turtle_a2470b9b4ef48a261324047de8ebdc242_icgraph_org.svg" target="_base">
           <rect id="button" ry="5" rx="5" y="6" x="6" height="38" width="38"
                fill="#f2f5e9" fill-opacity="0.5" stroke="#606060" stroke-width="1.0"/>
           <path id="arrow"
             d="M 11.500037,31.436501 C 11.940474,20.09759 22.043105,11.32322 32.158766,21.979434 L 37.068811,17.246167 C 37.068811,17.246167 37.088388,32 37.088388,32 L 22.160133,31.978069 C 22.160133,31.978069 26.997745,27.140456 26.997745,27.140456 C 18.528582,18.264221 13.291696,25.230495 11.500037,31.436501 z"
             style="fill:#404040;"/>
          </a>
         </g>
        </svg>
</svg>
