<?xml version="1.0" encoding="UTF-8" standalone="no"?>
<!DOCTYPE svg PUBLIC "-//W3C//DTD SVG 1.1//EN"
 "http://www.w3.org/Graphics/SVG/1.1/DTD/svg11.dtd">
<!-- Generated by graphviz version 2.36.0 (20140111.2315)
 -->
<!-- Title: model.Turtle.getHeading Pages: 1 -->
<!--zoomable 1361 -->
<svg id="main" version="1.1" xmlns="http://www.w3.org/2000/svg" xmlns:xlink="http://www.w3.org/1999/xlink" xml:space="preserve" onload="init(evt)">
<style type="text/css"><![CDATA[
.edge:hover path { stroke: red; }
.edge:hover polygon { stroke: red; fill: red; }
]]></style>
<script type="text/javascript"><![CDATA[
var edges = document.getElementsByTagName('g');
if (edges && edges.length) {
  for (var i=0;i<edges.length;i++) {
    if (edges[i].id.substr(0,4)=='edge') {
      edges[i].setAttribute('class','edge');
    }
  }
}
]]></script>
        <defs>
                <circle id="rim" cx="0" cy="0" r="7"/>
                <circle id="rim2" cx="0" cy="0" r="3.5"/>
                <g id="zoomPlus">
                        <use xlink:href="#rim" fill="#404040">
                                <set attributeName="fill" to="#808080" begin="zoomplus.mouseover" end="zoomplus.mouseout"/>
                        </use>
                        <path d="M-4,0h8M0,-4v8" fill="none" stroke="white" stroke-width="1.5" pointer-events="none"/>
                </g>
                <g id="zoomMin">
                        <use xlink:href="#rim" fill="#404040">
                                <set attributeName="fill" to="#808080" begin="zoomminus.mouseover" end="zoomminus.mouseout"/>
                        </use>
                        <path d="M-4,0h8" fill="none" stroke="white" stroke-width="1.5" pointer-events="none"/>
                </g>
                <g id="dirArrow">
                        <path fill="none" stroke="white" stroke-width="1.5" d="M0,-3.0v7 M-2.5,-0.5L0,-3.0L2.5,-0.5"/>
                </g>
               <g id="resetDef">
                       <use xlink:href="#rim2" fill="#404040">
                               <set attributeName="fill" to="#808080" begin="reset.mouseover" end="reset.mouseout"/>
                       </use>
               </g>
        </defs>

<script type="text/javascript">
var viewWidth = 1768;
var viewHeight = 1361;
var sectionId = 'dynsection-7';
</script>
<script xlink:href="../../svgpan.js"/>
<svg id="graph" class="graph">
<g id="viewport">
<title>model.Turtle.getHeading</title>
<polygon fill="white" stroke="none" points="-4,4 -4,-1357 1764,-1357 1764,4 -4,4"/>
<!-- Node1 -->
<g id="node1" class="node"><title>Node1</title>
<polygon fill="#bfbfbf" stroke="black" points="0,-315.5 0,-334.5 134,-334.5 134,-315.5 0,-315.5"/>
<text text-anchor="middle" x="67" y="-322.5" font-family="Helvetica,sans-Serif" font-size="10.00">model.Turtle.getHeading</text>
</g>
<!-- Node2 -->
<g id="node2" class="node"><title>Node2</title>
<g id="a_node2"><a xlink:href="../../d3/d1a/classcommands_1_1_heading_command.html#ac43dc3035aaa877f858022adf192d464" target="_top" xlink:title="commands.HeadingCommand.execute\lCommand">
<polygon fill="white" stroke="black" points="170.5,-335 170.5,-365 375.5,-365 375.5,-335 170.5,-335"/>
<text text-anchor="start" x="178.5" y="-353" font-family="Helvetica,sans-Serif" font-size="10.00">commands.HeadingCommand.execute</text>
<text text-anchor="middle" x="273" y="-342" font-family="Helvetica,sans-Serif" font-size="10.00">Command</text>
</a>
</g>
</g>
<!-- Node1&#45;&gt;Node2 -->
<g id="edge1" class="edge"><title>Node1&#45;&gt;Node2</title>
<path fill="none" stroke="midnightblue" d="M144.379,-334.36C152.812,-335.394 161.495,-336.458 170.176,-337.522"/>
<polygon fill="midnightblue" stroke="midnightblue" points="144.584,-330.859 134.233,-333.117 143.733,-337.807 144.584,-330.859"/>
</g>
<!-- Node3 -->
<g id="node3" class="node"><title>Node3</title>
<g id="a_node3"><a xlink:href="../../db/db5/classview_1_1panes_1_1_view_pane_module.html#ab55ce3511929b88a2cd1235eb694868f" target="_top" xlink:title="view.panes.ViewPaneModule.update\lTurtle">
<polygon fill="white" stroke="black" points="179,-286 179,-316 367,-316 367,-286 179,-286"/>
<text text-anchor="start" x="187" y="-304" font-family="Helvetica,sans-Serif" font-size="10.00">view.panes.ViewPaneModule.update</text>
<text text-anchor="middle" x="273" y="-293" font-family="Helvetica,sans-Serif" font-size="10.00">Turtle</text>
</a>
</g>
</g>
<!-- Node1&#45;&gt;Node3 -->
<g id="edge2" class="edge"><title>Node1&#45;&gt;Node3</title>
<path fill="none" stroke="midnightblue" d="M144.37,-316.015C155.562,-314.699 167.194,-313.33 178.678,-311.979"/>
<polygon fill="midnightblue" stroke="midnightblue" points="143.755,-312.563 134.233,-317.208 144.573,-319.515 143.755,-312.563"/>
</g>
<!-- Node4 -->
<g id="node4" class="node"><title>Node4</title>
<g id="a_node4"><a xlink:href="../../db/db5/classview_1_1panes_1_1_view_pane_module.html#aa2a1bf15bc036ee4237bf63749d85baf" target="_top" xlink:title="view.panes.ViewPaneModule.updateView">
<polygon fill="white" stroke="black" points="412.5,-291.5 412.5,-310.5 621.5,-310.5 621.5,-291.5 412.5,-291.5"/>
<text text-anchor="middle" x="517" y="-298.5" font-family="Helvetica,sans-Serif" font-size="10.00">view.panes.ViewPaneModule.updateView</text>
</a>
</g>
</g>
<!-- Node3&#45;&gt;Node4 -->
<g id="edge3" class="edge"><title>Node3&#45;&gt;Node4</title>
<path fill="none" stroke="midnightblue" d="M377.342,-301C388.94,-301 400.76,-301 412.362,-301"/>
<polygon fill="midnightblue" stroke="midnightblue" points="377.217,-297.5 367.217,-301 377.217,-304.5 377.217,-297.5"/>
</g>
<!-- Node5 -->
<g id="node5" class="node"><title>Node5</title>
<g id="a_node5"><a xlink:href="../../d3/d42/classmodel_1_1_model.html#a76160d002c1e68b566307ac44356f6e5" target="_top" xlink:title="model.Model.notifyView">
<polygon fill="white" stroke="black" points="685.5,-313.5 685.5,-332.5 814.5,-332.5 814.5,-313.5 685.5,-313.5"/>
<text text-anchor="middle" x="750" y="-320.5" font-family="Helvetica,sans-Serif" font-size="10.00">model.Model.notifyView</text>
</a>
</g>
</g>
<!-- Node4&#45;&gt;Node5 -->
<g id="edge4" class="edge"><title>Node4&#45;&gt;Node5</title>
<path fill="none" stroke="midnightblue" d="M628.173,-311.493C647.729,-313.355 667.49,-315.237 685.206,-316.924"/>
<polygon fill="midnightblue" stroke="midnightblue" points="628.263,-307.986 617.976,-310.522 627.6,-314.954 628.263,-307.986"/>
</g>
<!-- Node39 -->
<g id="node39" class="node"><title>Node39</title>
<g id="a_node39"><a xlink:href="../../db/db5/classview_1_1panes_1_1_view_pane_module.html#a200bd9d0cb7f1fb3482afb7f085939cd" target="_top" xlink:title="view.panes.ViewPaneModule.toggle\lActive">
<polygon fill="white" stroke="black" points="658,-264 658,-294 842,-294 842,-264 658,-264"/>
<text text-anchor="start" x="666" y="-282" font-family="Helvetica,sans-Serif" font-size="10.00">view.panes.ViewPaneModule.toggle</text>
<text text-anchor="middle" x="750" y="-271" font-family="Helvetica,sans-Serif" font-size="10.00">Active</text>
</a>
</g>
</g>
<!-- Node4&#45;&gt;Node39 -->
<g id="edge38" class="edge"><title>Node4&#45;&gt;Node39</title>
<path fill="none" stroke="midnightblue" d="M627.986,-290.525C638.025,-289.569 648.12,-288.608 657.966,-287.67"/>
<polygon fill="midnightblue" stroke="midnightblue" points="627.6,-287.046 617.976,-291.478 628.263,-294.014 627.6,-287.046"/>
</g>
<!-- Node6 -->
<g id="node6" class="node"><title>Node6</title>
<g id="a_node6"><a xlink:href="../../dd/dd6/classcommands_1_1_command.html#abafa69601e87c34d4453cf84349d6f9c" target="_top" xlink:title="commands.Command.execute\lCommand">
<polygon fill="white" stroke="black" points="878.5,-661 878.5,-691 1043.5,-691 1043.5,-661 878.5,-661"/>
<text text-anchor="start" x="886.5" y="-679" font-family="Helvetica,sans-Serif" font-size="10.00">commands.Command.execute</text>
<text text-anchor="middle" x="961" y="-668" font-family="Helvetica,sans-Serif" font-size="10.00">Command</text>
</a>
</g>
</g>
<!-- Node5&#45;&gt;Node6 -->
<g id="edge5" class="edge"><title>Node5&#45;&gt;Node6</title>
<path fill="none" stroke="midnightblue" d="M761.99,-341.563C798.815,-403.76 917.416,-604.075 951.039,-660.865"/>
<polygon fill="midnightblue" stroke="midnightblue" points="764.914,-339.631 756.808,-332.81 758.891,-343.198 764.914,-339.631"/>
</g>
<!-- Node35 -->
<g id="node35" class="node"><title>Node35</title>
<g id="a_node35"><a xlink:href="../../d3/d42/classmodel_1_1_model.html#a73435cc7a2b6100031bbdd2cf6d6b4e8" target="_top" xlink:title="model.Model.updateModel">
<polygon fill="white" stroke="black" points="889.5,-313.5 889.5,-332.5 1032.5,-332.5 1032.5,-313.5 889.5,-313.5"/>
<text text-anchor="middle" x="961" y="-320.5" font-family="Helvetica,sans-Serif" font-size="10.00">model.Model.updateModel</text>
</a>
</g>
</g>
<!-- Node5&#45;&gt;Node35 -->
<g id="edge34" class="edge"><title>Node5&#45;&gt;Node35</title>
<path fill="none" stroke="midnightblue" d="M824.72,-323C845.752,-323 868.611,-323 889.45,-323"/>
<polygon fill="midnightblue" stroke="midnightblue" points="824.558,-319.5 814.558,-323 824.558,-326.5 824.558,-319.5"/>
</g>
<!-- Node7 -->
<g id="node7" class="node"><title>Node7</title>
<g id="a_node7"><a xlink:href="../../d1/d79/classcommands_1_1_sum_command.html#a792945436d0c3ff1f58301fcc50f5ae1" target="_top" xlink:title="commands.SumCommand.execute\lCommand">
<polygon fill="white" stroke="black" points="1106,-1323 1106,-1353 1294,-1353 1294,-1323 1106,-1323"/>
<text text-anchor="start" x="1114" y="-1341" font-family="Helvetica,sans-Serif" font-size="10.00">commands.SumCommand.execute</text>
<text text-anchor="middle" x="1200" y="-1330" font-family="Helvetica,sans-Serif" font-size="10.00">Command</text>
</a>
</g>
</g>
<!-- Node6&#45;&gt;Node7 -->
<g id="edge6" class="edge"><title>Node6&#45;&gt;Node7</title>
<path fill="none" stroke="midnightblue" d="M963.051,-701.444C968.011,-808.823 992.634,-1223.52 1080,-1313 1087.3,-1320.48 1096.23,-1326 1105.88,-1330.04"/>
<polygon fill="midnightblue" stroke="midnightblue" points="966.537,-701.061 962.596,-691.226 959.544,-701.372 966.537,-701.061"/>
</g>
<!-- Node8 -->
<g id="node8" class="node"><title>Node8</title>
<g id="a_node8"><a xlink:href="../../d6/dc0/classcommands_1_1_repeat_command.html#a40fb82831e8b2beaa7e31913e46e15eb" target="_top" xlink:title="commands.RepeatCommand.execute\lCommand">
<polygon fill="white" stroke="black" points="1101,-1274 1101,-1304 1299,-1304 1299,-1274 1101,-1274"/>
<text text-anchor="start" x="1109" y="-1292" font-family="Helvetica,sans-Serif" font-size="10.00">commands.RepeatCommand.execute</text>
<text text-anchor="middle" x="1200" y="-1281" font-family="Helvetica,sans-Serif" font-size="10.00">Command</text>
</a>
</g>
</g>
<!-- Node6&#45;&gt;Node8 -->
<g id="edge7" class="edge"><title>Node6&#45;&gt;Node8</title>
<path fill="none" stroke="midnightblue" d="M963.475,-701.431C969.924,-803.56 999.027,-1182.29 1080,-1264 1086.02,-1270.07 1093.11,-1274.85 1100.79,-1278.59"/>
<polygon fill="midnightblue" stroke="midnightblue" points="966.95,-700.909 962.844,-691.142 959.963,-701.338 966.95,-700.909"/>
</g>
<!-- Node9 -->
<g id="node9" class="node"><title>Node9</title>
<g id="a_node9"><a xlink:href="../../dd/d82/classcommands_1_1_remainder_command.html#a99d4baf3f1b4a3c8d0cd69274380a2cf" target="_top" xlink:title="commands.RemainderCommand.execute\lCommand">
<polygon fill="white" stroke="black" points="1092,-1225 1092,-1255 1308,-1255 1308,-1225 1092,-1225"/>
<text text-anchor="start" x="1100" y="-1243" font-family="Helvetica,sans-Serif" font-size="10.00">commands.RemainderCommand.execute</text>
<text text-anchor="middle" x="1200" y="-1232" font-family="Helvetica,sans-Serif" font-size="10.00">Command</text>
</a>
</g>
</g>
<!-- Node6&#45;&gt;Node9 -->
<g id="edge8" class="edge"><title>Node6&#45;&gt;Node9</title>
<path fill="none" stroke="midnightblue" d="M963.955,-701.181C971.95,-797.511 1005.33,-1140.96 1080,-1215 1083.82,-1218.79 1088.06,-1222.07 1092.6,-1224.91"/>
<polygon fill="midnightblue" stroke="midnightblue" points="967.441,-700.858 963.143,-691.174 960.464,-701.424 967.441,-700.858"/>
</g>
<!-- Node10 -->
<g id="node10" class="node"><title>Node10</title>
<g id="a_node10"><a xlink:href="../../df/df5/classcommands_1_1_minus_command.html#a82548bbb25a73194469e1ff81b19cf27" target="_top" xlink:title="commands.MinusCommand.execute\lCommand">
<polygon fill="white" stroke="black" points="1103.5,-1176 1103.5,-1206 1296.5,-1206 1296.5,-1176 1103.5,-1176"/>
<text text-anchor="start" x="1111.5" y="-1194" font-family="Helvetica,sans-Serif" font-size="10.00">commands.MinusCommand.execute</text>
<text text-anchor="middle" x="1200" y="-1183" font-family="Helvetica,sans-Serif" font-size="10.00">Command</text>
</a>
</g>
</g>
<!-- Node6&#45;&gt;Node10 -->
<g id="edge9" class="edge"><title>Node6&#45;&gt;Node10</title>
<path fill="none" stroke="midnightblue" d="M964.552,-701.225C974.239,-791.929 1011.69,-1099.66 1080,-1166 1086.74,-1172.54 1094.73,-1177.57 1103.34,-1181.41"/>
<polygon fill="midnightblue" stroke="midnightblue" points="968.032,-700.851 963.508,-691.27 961.07,-701.581 968.032,-700.851"/>
</g>
<!-- Node11 -->
<g id="node11" class="node"><title>Node11</title>
<g id="a_node11"><a xlink:href="../../d3/d37/classcommands_1_1_set_background_command.html#a91dc8e21948a301c55af1cef90b77962" target="_top" xlink:title="commands.SetBackgroundCommand.execute\lCommand">
<polygon fill="white" stroke="black" points="1080.5,-1127 1080.5,-1157 1319.5,-1157 1319.5,-1127 1080.5,-1127"/>
<text text-anchor="start" x="1088.5" y="-1145" font-family="Helvetica,sans-Serif" font-size="10.00">commands.SetBackgroundCommand.execute</text>
<text text-anchor="middle" x="1200" y="-1134" font-family="Helvetica,sans-Serif" font-size="10.00">Command</text>
</a>
</g>
</g>
<!-- Node6&#45;&gt;Node11 -->
<g id="edge10" class="edge"><title>Node6&#45;&gt;Node11</title>
<path fill="none" stroke="midnightblue" d="M965.262,-701.15C976.744,-785.787 1017.98,-1058.26 1080,-1117 1083.99,-1120.77 1088.39,-1124.04 1093.08,-1126.86"/>
<polygon fill="midnightblue" stroke="midnightblue" points="968.717,-700.585 963.924,-691.137 961.779,-701.512 968.717,-700.585"/>
</g>
<!-- Node12 -->
<g id="node12" class="node"><title>Node12</title>
<g id="a_node12"><a xlink:href="../../d8/dba/classcommands_1_1_product_command.html#a8bc20bc7c21a944405f599dbcfa57e67" target="_top" xlink:title="commands.ProductCommand.execute\lCommand">
<polygon fill="white" stroke="black" points="1099,-1078 1099,-1108 1301,-1108 1301,-1078 1099,-1078"/>
<text text-anchor="start" x="1107" y="-1096" font-family="Helvetica,sans-Serif" font-size="10.00">commands.ProductCommand.execute</text>
<text text-anchor="middle" x="1200" y="-1085" font-family="Helvetica,sans-Serif" font-size="10.00">Command</text>
</a>
</g>
</g>
<!-- Node6&#45;&gt;Node12 -->
<g id="edge11" class="edge"><title>Node6&#45;&gt;Node12</title>
<path fill="none" stroke="midnightblue" d="M961.405,-701.275C961.233,-771.059 970.921,-967.852 1080,-1068 1085.6,-1073.14 1091.98,-1077.33 1098.8,-1080.73"/>
<polygon fill="midnightblue" stroke="midnightblue" points="964.906,-701.233 961.504,-691.2 957.906,-701.165 964.906,-701.233"/>
</g>
<!-- Node13 -->
<g id="node13" class="node"><title>Node13</title>
<g id="a_node13"><a xlink:href="../../dd/d40/classcommands_1_1_quotient_command.html#a7e23b237cc68512dcbe6a65feb7c39e8" target="_top" xlink:title="commands.QuotientCommand.execute\lCommand">
<polygon fill="white" stroke="black" points="1097,-1029 1097,-1059 1303,-1059 1303,-1029 1097,-1029"/>
<text text-anchor="start" x="1105" y="-1047" font-family="Helvetica,sans-Serif" font-size="10.00">commands.QuotientCommand.execute</text>
<text text-anchor="middle" x="1200" y="-1036" font-family="Helvetica,sans-Serif" font-size="10.00">Command</text>
</a>
</g>
</g>
<!-- Node6&#45;&gt;Node13 -->
<g id="edge12" class="edge"><title>Node6&#45;&gt;Node13</title>
<path fill="none" stroke="midnightblue" d="M962.674,-701.514C965.822,-765.487 983.36,-933.681 1080,-1019 1085.06,-1023.47 1090.72,-1027.21 1096.75,-1030.34"/>
<polygon fill="midnightblue" stroke="midnightblue" points="966.156,-701.007 962.249,-691.159 959.162,-701.294 966.156,-701.007"/>
</g>
<!-- Node14 -->
<g id="node14" class="node"><title>Node14</title>
<g id="a_node14"><a xlink:href="../../dc/d68/classcommands_1_1_make_variable_command.html#ad0e0974744cc969c12c67805c2460ef4" target="_top" xlink:title="commands.MakeVariableCommand.execute\lCommand">
<polygon fill="white" stroke="black" points="1085.5,-980 1085.5,-1010 1314.5,-1010 1314.5,-980 1085.5,-980"/>
<text text-anchor="start" x="1093.5" y="-998" font-family="Helvetica,sans-Serif" font-size="10.00">commands.MakeVariableCommand.execute</text>
<text text-anchor="middle" x="1200" y="-987" font-family="Helvetica,sans-Serif" font-size="10.00">Command</text>
</a>
</g>
</g>
<!-- Node6&#45;&gt;Node14 -->
<g id="edge13" class="edge"><title>Node6&#45;&gt;Node14</title>
<path fill="none" stroke="midnightblue" d="M964.268,-701.004C970.857,-758.166 995.294,-898.929 1080,-970 1084.53,-973.799 1089.49,-977.067 1094.73,-979.873"/>
<polygon fill="midnightblue" stroke="midnightblue" points="967.746,-700.607 963.205,-691.035 960.785,-701.35 967.746,-700.607"/>
</g>
<!-- Node15 -->
<g id="node15" class="node"><title>Node15</title>
<g id="a_node15"><a xlink:href="../../d8/ded/classcommands_1_1_difference_command.html#a0c34c43d3bb266ef3e48ae27be938a0f" target="_top" xlink:title="commands.DifferenceCommand.execute\lCommand">
<polygon fill="white" stroke="black" points="1093,-931 1093,-961 1307,-961 1307,-931 1093,-931"/>
<text text-anchor="start" x="1101" y="-949" font-family="Helvetica,sans-Serif" font-size="10.00">commands.DifferenceCommand.execute</text>
<text text-anchor="middle" x="1200" y="-938" font-family="Helvetica,sans-Serif" font-size="10.00">Command</text>
</a>
</g>
</g>
<!-- Node6&#45;&gt;Node15 -->
<g id="edge14" class="edge"><title>Node6&#45;&gt;Node15</title>
<path fill="none" stroke="midnightblue" d="M966.533,-701.294C976.941,-751.586 1007.46,-864.176 1080,-921 1084.9,-924.84 1090.26,-928.128 1095.89,-930.938"/>
<polygon fill="midnightblue" stroke="midnightblue" points="969.927,-700.411 964.559,-691.276 963.059,-701.765 969.927,-700.411"/>
</g>
<!-- Node16 -->
<g id="node16" class="node"><title>Node16</title>
<g id="a_node16"><a xlink:href="../../dd/d29/classcommands_1_1_clear_screen_command.html#a87e5eb0f4c3bb48ec0737da2aa431db3" target="_top" xlink:title="commands.ClearScreenCommand.execute\lCommand">
<polygon fill="white" stroke="black" points="1088,-882 1088,-912 1312,-912 1312,-882 1088,-882"/>
<text text-anchor="start" x="1096" y="-900" font-family="Helvetica,sans-Serif" font-size="10.00">commands.ClearScreenCommand.execute</text>
<text text-anchor="middle" x="1200" y="-889" font-family="Helvetica,sans-Serif" font-size="10.00">Command</text>
</a>
</g>
</g>
<!-- Node6&#45;&gt;Node16 -->
<g id="edge15" class="edge"><title>Node6&#45;&gt;Node16</title>
<path fill="none" stroke="midnightblue" d="M969.566,-700.672C983.857,-742.893 1018.99,-828.631 1080,-872 1085.42,-875.853 1091.31,-879.136 1097.47,-881.931"/>
<polygon fill="midnightblue" stroke="midnightblue" points="972.891,-699.579 966.454,-691.165 966.239,-701.757 972.891,-699.579"/>
</g>
<!-- Node17 -->
<g id="node17" class="node"><title>Node17</title>
<g id="a_node17"><a xlink:href="../../d9/d35/classcommands_1_1_ask_command.html#ae4ba28c73ce0b5112e4032bd21a951f5" target="_top" xlink:title="commands.AskCommand.execute\lCommand">
<polygon fill="white" stroke="black" points="1109,-833 1109,-863 1291,-863 1291,-833 1109,-833"/>
<text text-anchor="start" x="1117" y="-851" font-family="Helvetica,sans-Serif" font-size="10.00">commands.AskCommand.execute</text>
<text text-anchor="middle" x="1200" y="-840" font-family="Helvetica,sans-Serif" font-size="10.00">Command</text>
</a>
</g>
</g>
<!-- Node6&#45;&gt;Node17 -->
<g id="edge16" class="edge"><title>Node6&#45;&gt;Node17</title>
<path fill="none" stroke="midnightblue" d="M974.524,-700.426C992.923,-733.7 1030.51,-792.605 1080,-823 1088.81,-828.413 1098.61,-832.67 1108.7,-836.015"/>
<polygon fill="midnightblue" stroke="midnightblue" points="977.47,-698.514 969.644,-691.373 971.309,-701.836 977.47,-698.514"/>
</g>
<!-- Node18 -->
<g id="node18" class="node"><title>Node18</title>
<g id="a_node18"><a xlink:href="../../d3/d49/classcommands_1_1_if_else_command.html#a3b3d15925117d366a69f8ebd1dbc2dbc" target="_top" xlink:title="commands.IfElseCommand.execute\lCommand">
<polygon fill="white" stroke="black" points="1105,-784 1105,-814 1295,-814 1295,-784 1105,-784"/>
<text text-anchor="start" x="1113" y="-802" font-family="Helvetica,sans-Serif" font-size="10.00">commands.IfElseCommand.execute</text>
<text text-anchor="middle" x="1200" y="-791" font-family="Helvetica,sans-Serif" font-size="10.00">Command</text>
</a>
</g>
</g>
<!-- Node6&#45;&gt;Node18 -->
<g id="edge17" class="edge"><title>Node6&#45;&gt;Node18</title>
<path fill="none" stroke="midnightblue" d="M982.734,-698.758C1004.67,-721.389 1041.39,-755.347 1080,-774 1088.08,-777.903 1096.75,-781.199 1105.61,-783.982"/>
<polygon fill="midnightblue" stroke="midnightblue" points="985.04,-696.105 975.613,-691.27 979.967,-700.928 985.04,-696.105"/>
</g>
<!-- Node20 -->
<g id="node20" class="node"><title>Node20</title>
<g id="a_node20"><a xlink:href="../../d8/d57/classcommands_1_1_for_command.html#aeb06a37d7f9845eb546425bae6ea9f58" target="_top" xlink:title="commands.ForCommand.execute\lCommand">
<polygon fill="white" stroke="black" points="1110,-735 1110,-765 1290,-765 1290,-735 1110,-735"/>
<text text-anchor="start" x="1118" y="-753" font-family="Helvetica,sans-Serif" font-size="10.00">commands.ForCommand.execute</text>
<text text-anchor="middle" x="1200" y="-742" font-family="Helvetica,sans-Serif" font-size="10.00">Command</text>
</a>
</g>
</g>
<!-- Node6&#45;&gt;Node20 -->
<g id="edge19" class="edge"><title>Node6&#45;&gt;Node20</title>
<path fill="none" stroke="midnightblue" d="M1003.15,-695.308C1025.51,-705.231 1053.86,-716.904 1080,-725 1092,-728.716 1104.85,-732.055 1117.5,-734.992"/>
<polygon fill="midnightblue" stroke="midnightblue" points="1004.51,-692.084 993.955,-691.179 1001.64,-698.47 1004.51,-692.084"/>
</g>
<!-- Node21 -->
<g id="node21" class="node"><title>Node21</title>
<g id="a_node21"><a xlink:href="../../db/d38/classcommands_1_1_ask_with_command.html#a5ee6a090e94729d84ef423a454d446eb" target="_top" xlink:title="commands.AskWithCommand.execute\lCommand">
<polygon fill="white" stroke="black" points="1098.5,-686 1098.5,-716 1301.5,-716 1301.5,-686 1098.5,-686"/>
<text text-anchor="start" x="1106.5" y="-704" font-family="Helvetica,sans-Serif" font-size="10.00">commands.AskWithCommand.execute</text>
<text text-anchor="middle" x="1200" y="-693" font-family="Helvetica,sans-Serif" font-size="10.00">Command</text>
</a>
</g>
</g>
<!-- Node6&#45;&gt;Node21 -->
<g id="edge20" class="edge"><title>Node6&#45;&gt;Node21</title>
<path fill="none" stroke="midnightblue" d="M1053.62,-685.665C1068.3,-687.213 1083.56,-688.823 1098.44,-690.392"/>
<polygon fill="midnightblue" stroke="midnightblue" points="1053.87,-682.172 1043.56,-684.604 1053.14,-689.133 1053.87,-682.172"/>
</g>
<!-- Node22 -->
<g id="node22" class="node"><title>Node22</title>
<g id="a_node22"><a xlink:href="../../d4/d02/classcommands_1_1_do_times_command.html#a1dd20e90975d905a1bce8f018e9f7f0a" target="_top" xlink:title="commands.DoTimesCommand.execute\lCommand">
<polygon fill="white" stroke="black" points="1096.5,-637 1096.5,-667 1303.5,-667 1303.5,-637 1096.5,-637"/>
<text text-anchor="start" x="1104.5" y="-655" font-family="Helvetica,sans-Serif" font-size="10.00">commands.DoTimesCommand.execute</text>
<text text-anchor="middle" x="1200" y="-644" font-family="Helvetica,sans-Serif" font-size="10.00">Command</text>
</a>
</g>
</g>
<!-- Node6&#45;&gt;Node22 -->
<g id="edge21" class="edge"><title>Node6&#45;&gt;Node22</title>
<path fill="none" stroke="midnightblue" d="M1053.64,-666.72C1067.63,-665.303 1082.15,-663.833 1096.35,-662.395"/>
<polygon fill="midnightblue" stroke="midnightblue" points="1053.16,-663.251 1043.56,-667.741 1053.86,-670.215 1053.16,-663.251"/>
</g>
<!-- Node23 -->
<g id="node23" class="node"><title>Node23</title>
<g id="a_node23"><a xlink:href="../../dd/de4/classcommands_1_1_custom_command.html#a5ad25438a49d3e4eeba835fefe8b730a" target="_top" xlink:title="commands.CustomCommand.execute\lCommand">
<polygon fill="white" stroke="black" points="1098.5,-588 1098.5,-618 1301.5,-618 1301.5,-588 1098.5,-588"/>
<text text-anchor="start" x="1106.5" y="-606" font-family="Helvetica,sans-Serif" font-size="10.00">commands.CustomCommand.execute</text>
<text text-anchor="middle" x="1200" y="-595" font-family="Helvetica,sans-Serif" font-size="10.00">Command</text>
</a>
</g>
</g>
<!-- Node6&#45;&gt;Node23 -->
<g id="edge22" class="edge"><title>Node6&#45;&gt;Node23</title>
<path fill="none" stroke="midnightblue" d="M1003.66,-656.916C1025.96,-647.252 1054.09,-635.921 1080,-628 1092.11,-624.297 1105.08,-620.956 1117.85,-618.011"/>
<polygon fill="midnightblue" stroke="midnightblue" points="1002.24,-653.719 994.489,-660.941 1005.05,-660.129 1002.24,-653.719"/>
</g>
<!-- Node24 -->
<g id="node24" class="node"><title>Node24</title>
<g id="a_node24"><a xlink:href="../../d6/daf/classcommands_1_1_set_shape_command.html#a59c440316cf9e732b5aa2f46def94e10" target="_top" xlink:title="commands.SetShapeCommand.update\lTurtle">
<polygon fill="white" stroke="black" points="1096,-539 1096,-569 1304,-569 1304,-539 1096,-539"/>
<text text-anchor="start" x="1104" y="-557" font-family="Helvetica,sans-Serif" font-size="10.00">commands.SetShapeCommand.update</text>
<text text-anchor="middle" x="1200" y="-546" font-family="Helvetica,sans-Serif" font-size="10.00">Turtle</text>
</a>
</g>
</g>
<!-- Node6&#45;&gt;Node24 -->
<g id="edge23" class="edge"><title>Node6&#45;&gt;Node24</title>
<path fill="none" stroke="midnightblue" d="M982.781,-653.48C1004.75,-631.086 1041.51,-597.479 1080,-579 1088.09,-575.117 1096.77,-571.835 1105.63,-569.06"/>
<polygon fill="midnightblue" stroke="midnightblue" points="980.061,-651.259 975.647,-660.891 985.104,-656.114 980.061,-651.259"/>
</g>
<!-- Node25 -->
<g id="node25" class="node"><title>Node25</title>
<g id="a_node25"><a xlink:href="../../d6/d11/classcommands_1_1_set_pen_dash_command.html#a320f3b8248e3e89b2338dfefbe73f8c7" target="_top" xlink:title="commands.SetPenDashCommand.update\lTurtle">
<polygon fill="white" stroke="black" points="1090,-490 1090,-520 1310,-520 1310,-490 1090,-490"/>
<text text-anchor="start" x="1098" y="-508" font-family="Helvetica,sans-Serif" font-size="10.00">commands.SetPenDashCommand.update</text>
<text text-anchor="middle" x="1200" y="-497" font-family="Helvetica,sans-Serif" font-size="10.00">Turtle</text>
</a>
</g>
</g>
<!-- Node6&#45;&gt;Node25 -->
<g id="edge24" class="edge"><title>Node6&#45;&gt;Node25</title>
<path fill="none" stroke="midnightblue" d="M974.568,-651.74C993.017,-618.692 1030.66,-560.188 1080,-530 1086.3,-526.144 1093.11,-522.875 1100.16,-520.104"/>
<polygon fill="midnightblue" stroke="midnightblue" points="971.381,-650.275 969.673,-660.731 977.528,-653.622 971.381,-650.275"/>
</g>
<!-- Node26 -->
<g id="node26" class="node"><title>Node26</title>
<g id="a_node26"><a xlink:href="../../dc/df3/classcommands_1_1_set_towards_command.html#ad82abd7dcaed57b3bdb3a4b87a91815a" target="_top" xlink:title="commands.SetTowardsCommand.update\lTurtle">
<polygon fill="white" stroke="black" points="1092.5,-441 1092.5,-471 1307.5,-471 1307.5,-441 1092.5,-441"/>
<text text-anchor="start" x="1100.5" y="-459" font-family="Helvetica,sans-Serif" font-size="10.00">commands.SetTowardsCommand.update</text>
<text text-anchor="middle" x="1200" y="-448" font-family="Helvetica,sans-Serif" font-size="10.00">Turtle</text>
</a>
</g>
</g>
<!-- Node6&#45;&gt;Node26 -->
<g id="edge25" class="edge"><title>Node6&#45;&gt;Node26</title>
<path fill="none" stroke="midnightblue" d="M969.695,-651.184C984.101,-609.082 1019.3,-524.047 1080,-481 1085.42,-477.153 1091.32,-473.875 1097.48,-471.083"/>
<polygon fill="midnightblue" stroke="midnightblue" points="966.295,-650.318 966.478,-660.911 972.941,-652.517 966.295,-650.318"/>
</g>
<!-- Node27 -->
<g id="node27" class="node"><title>Node27</title>
<g id="a_node27"><a xlink:href="../../d9/db5/classcommands_1_1_set_position_command.html#aba31c4887974831a6c0d9feac8316ee6" target="_top" xlink:title="commands.SetPositionCommand.update\lTurtle">
<polygon fill="white" stroke="black" points="1092.5,-392 1092.5,-422 1307.5,-422 1307.5,-392 1092.5,-392"/>
<text text-anchor="start" x="1100.5" y="-410" font-family="Helvetica,sans-Serif" font-size="10.00">commands.SetPositionCommand.update</text>
<text text-anchor="middle" x="1200" y="-399" font-family="Helvetica,sans-Serif" font-size="10.00">Turtle</text>
</a>
</g>
</g>
<!-- Node6&#45;&gt;Node27 -->
<g id="edge26" class="edge"><title>Node6&#45;&gt;Node27</title>
<path fill="none" stroke="midnightblue" d="M966.566,-650.807C977.034,-600.716 1007.66,-488.578 1080,-432 1084.91,-428.163 1090.26,-424.879 1095.9,-422.071"/>
<polygon fill="midnightblue" stroke="midnightblue" points="963.1,-650.293 964.579,-660.784 969.965,-651.661 963.1,-650.293"/>
</g>
<!-- Node28 -->
<g id="node28" class="node"><title>Node28</title>
<g id="a_node28"><a xlink:href="../../dd/db2/classcommands_1_1_right_command.html#ae16ecb0da3e0a2049a7382d74f315cb6" target="_top" xlink:title="commands.RightCommand.update\lTurtle">
<polygon fill="white" stroke="black" points="1107.5,-343 1107.5,-373 1292.5,-373 1292.5,-343 1107.5,-343"/>
<text text-anchor="start" x="1115.5" y="-361" font-family="Helvetica,sans-Serif" font-size="10.00">commands.RightCommand.update</text>
<text text-anchor="middle" x="1200" y="-350" font-family="Helvetica,sans-Serif" font-size="10.00">Turtle</text>
</a>
</g>
</g>
<!-- Node6&#45;&gt;Node28 -->
<g id="edge27" class="edge"><title>Node6&#45;&gt;Node28</title>
<path fill="none" stroke="midnightblue" d="M964.344,-650.678C971.06,-593.452 995.698,-453.648 1080,-383 1088.01,-376.288 1097.37,-371.237 1107.26,-367.456"/>
<polygon fill="midnightblue" stroke="midnightblue" points="960.858,-650.353 963.257,-660.673 967.817,-651.11 960.858,-650.353"/>
</g>
<!-- Node29 -->
<g id="node29" class="node"><title>Node29</title>
<g id="a_node29"><a xlink:href="../../dc/db3/classcommands_1_1_set_heading_command.html#a064fae1a815349b9efc6bd43f2371339" target="_top" xlink:title="commands.SetHeadingCommand.update\lTurtle">
<polygon fill="white" stroke="black" points="1091.5,-294 1091.5,-324 1308.5,-324 1308.5,-294 1091.5,-294"/>
<text text-anchor="start" x="1099.5" y="-312" font-family="Helvetica,sans-Serif" font-size="10.00">commands.SetHeadingCommand.update</text>
<text text-anchor="middle" x="1200" y="-301" font-family="Helvetica,sans-Serif" font-size="10.00">Turtle</text>
</a>
</g>
</g>
<!-- Node6&#45;&gt;Node29 -->
<g id="edge28" class="edge"><title>Node6&#45;&gt;Node29</title>
<path fill="none" stroke="midnightblue" d="M962.633,-650.439C965.685,-586.357 983.017,-417.929 1080,-333 1083.88,-329.598 1088.12,-326.628 1092.59,-324.037"/>
<polygon fill="midnightblue" stroke="midnightblue" points="959.121,-650.682 962.223,-660.812 966.115,-650.958 959.121,-650.682"/>
</g>
<!-- Node30 -->
<g id="node30" class="node"><title>Node30</title>
<g id="a_node30"><a xlink:href="../../d2/dbb/classcommands_1_1_set_pen_size_command.html#aa8dbbb22c72842b2d6f50aa169a8404e" target="_top" xlink:title="commands.SetPenSizeCommand.update\lTurtle">
<polygon fill="white" stroke="black" points="1092.5,-245 1092.5,-275 1307.5,-275 1307.5,-245 1092.5,-245"/>
<text text-anchor="start" x="1100.5" y="-263" font-family="Helvetica,sans-Serif" font-size="10.00">commands.SetPenSizeCommand.update</text>
<text text-anchor="middle" x="1200" y="-252" font-family="Helvetica,sans-Serif" font-size="10.00">Turtle</text>
</a>
</g>
</g>
<!-- Node6&#45;&gt;Node30 -->
<g id="edge29" class="edge"><title>Node6&#45;&gt;Node30</title>
<path fill="none" stroke="midnightblue" d="M966.136,-650.831C979.519,-572.454 1024.04,-334.962 1080,-284 1083.82,-280.523 1087.99,-277.492 1092.43,-274.853"/>
<polygon fill="midnightblue" stroke="midnightblue" points="962.667,-650.355 964.456,-660.798 969.569,-651.519 962.667,-650.355"/>
</g>
<!-- Node31 -->
<g id="node31" class="node"><title>Node31</title>
<g id="a_node31"><a xlink:href="../../d5/d21/classcommands_1_1_set_pen_color_command.html#a69a9c0161b8910c8fecc5ace219aeeb8" target="_top" xlink:title="commands.SetPenColorCommand.update\lTurtle">
<polygon fill="white" stroke="black" points="1090,-196 1090,-226 1310,-226 1310,-196 1090,-196"/>
<text text-anchor="start" x="1098" y="-214" font-family="Helvetica,sans-Serif" font-size="10.00">commands.SetPenColorCommand.update</text>
<text text-anchor="middle" x="1200" y="-203" font-family="Helvetica,sans-Serif" font-size="10.00">Turtle</text>
</a>
</g>
</g>
<!-- Node6&#45;&gt;Node31 -->
<g id="edge30" class="edge"><title>Node6&#45;&gt;Node31</title>
<path fill="none" stroke="midnightblue" d="M967.882,-651.156C989.516,-560.192 1064.23,-249.811 1080,-235 1083.61,-231.609 1087.56,-228.638 1091.76,-226.039"/>
<polygon fill="midnightblue" stroke="midnightblue" points="964.474,-650.359 965.569,-660.897 971.284,-651.977 964.474,-650.359"/>
</g>
<!-- Node32 -->
<g id="node32" class="node"><title>Node32</title>
<g id="a_node32"><a xlink:href="../../dc/d65/classcommands_1_1_left_command.html#abd466facd4b16e1c04a6578b4bf8e203" target="_top" xlink:title="commands.LeftCommand.update\lTurtle">
<polygon fill="white" stroke="black" points="1110.5,-147 1110.5,-177 1289.5,-177 1289.5,-147 1110.5,-147"/>
<text text-anchor="start" x="1118.5" y="-165" font-family="Helvetica,sans-Serif" font-size="10.00">commands.LeftCommand.update</text>
<text text-anchor="middle" x="1200" y="-154" font-family="Helvetica,sans-Serif" font-size="10.00">Turtle</text>
</a>
</g>
</g>
<!-- Node6&#45;&gt;Node32 -->
<g id="edge31" class="edge"><title>Node6&#45;&gt;Node32</title>
<path fill="none" stroke="midnightblue" d="M968.344,-650.68C982.28,-594.95 1016.51,-457.442 1044,-342 1060.48,-272.78 1028.99,-235.611 1080,-186 1088.54,-177.698 1099.1,-171.891 1110.38,-167.883"/>
<polygon fill="midnightblue" stroke="midnightblue" points="964.868,-650.154 965.836,-660.704 971.659,-651.853 964.868,-650.154"/>
</g>
<!-- Node33 -->
<g id="node33" class="node"><title>Node33</title>
<g id="a_node33"><a xlink:href="../../d6/ddc/classcommands_1_1_backward_command.html#af0c4c6ac04bea1aa34b069a01c53888f" target="_top" xlink:title="commands.BackwardCommand.update\lTurtle">
<polygon fill="white" stroke="black" points="1097,-98 1097,-128 1303,-128 1303,-98 1097,-98"/>
<text text-anchor="start" x="1105" y="-116" font-family="Helvetica,sans-Serif" font-size="10.00">commands.BackwardCommand.update</text>
<text text-anchor="middle" x="1200" y="-105" font-family="Helvetica,sans-Serif" font-size="10.00">Turtle</text>
</a>
</g>
</g>
<!-- Node6&#45;&gt;Node33 -->
<g id="edge32" class="edge"><title>Node6&#45;&gt;Node33</title>
<path fill="none" stroke="midnightblue" d="M968.804,-650.783C983.651,-595.258 1019.58,-458.129 1044,-342 1063.04,-251.475 1015.42,-203.229 1080,-137 1084.93,-131.945 1090.61,-127.802 1096.75,-124.419"/>
<polygon fill="midnightblue" stroke="midnightblue" points="965.336,-650.204 966.126,-660.769 972.097,-652.018 965.336,-650.204"/>
</g>
<!-- Node34 -->
<g id="node34" class="node"><title>Node34</title>
<g id="a_node34"><a xlink:href="../../da/d4f/classcommands_1_1_forward_command.html#afe19b644a8fe0d46f3dbf19aef135364" target="_top" xlink:title="commands.ForwardCommand.update\lTurtle">
<polygon fill="white" stroke="black" points="1101,-49 1101,-79 1299,-79 1299,-49 1101,-49"/>
<text text-anchor="start" x="1109" y="-67" font-family="Helvetica,sans-Serif" font-size="10.00">commands.ForwardCommand.update</text>
<text text-anchor="middle" x="1200" y="-56" font-family="Helvetica,sans-Serif" font-size="10.00">Turtle</text>
</a>
</g>
</g>
<!-- Node6&#45;&gt;Node34 -->
<g id="edge33" class="edge"><title>Node6&#45;&gt;Node34</title>
<path fill="none" stroke="midnightblue" d="M969.093,-650.841C984.511,-595.431 1021.5,-458.517 1044,-342 1054.81,-286.026 1040.88,-129.467 1080,-88 1085.93,-81.7146 1093.01,-76.8269 1100.73,-73.0504"/>
<polygon fill="midnightblue" stroke="midnightblue" points="965.628,-650.233 966.307,-660.806 972.37,-652.117 965.628,-650.233"/>
</g>
<!-- Node19 -->
<g id="node19" class="node"><title>Node19</title>
<g id="a_node19"><a xlink:href="../../d5/dad/classcommands_1_1_if_command.html#a0d92f20941c1e79cfb1e02e77f463e68" target="_top" xlink:title="commands.IfCommand.execute\lCommand">
<polygon fill="white" stroke="black" points="1356,-784 1356,-814 1526,-814 1526,-784 1356,-784"/>
<text text-anchor="start" x="1364" y="-802" font-family="Helvetica,sans-Serif" font-size="10.00">commands.IfCommand.execute</text>
<text text-anchor="middle" x="1441" y="-791" font-family="Helvetica,sans-Serif" font-size="10.00">Command</text>
</a>
</g>
</g>
<!-- Node18&#45;&gt;Node19 -->
<g id="edge18" class="edge"><title>Node18&#45;&gt;Node19</title>
<path fill="none" stroke="midnightblue" d="M1305.5,-799C1322.27,-799 1339.45,-799 1355.68,-799"/>
<polygon fill="midnightblue" stroke="midnightblue" points="1305.12,-795.5 1295.12,-799 1305.12,-802.5 1305.12,-795.5"/>
</g>
<!-- Node36 -->
<g id="node36" class="node"><title>Node36</title>
<g id="a_node36"><a xlink:href="../../d9/df7/classcontroller_1_1_controller.html#a81fea06b52aed0a26625c5b30b490afb" target="_top" xlink:title="controller.Controller.run\lCommand">
<polygon fill="white" stroke="black" points="1136,-0 1136,-30 1264,-30 1264,-0 1136,-0"/>
<text text-anchor="start" x="1144" y="-18" font-family="Helvetica,sans-Serif" font-size="10.00">controller.Controller.run</text>
<text text-anchor="middle" x="1200" y="-7" font-family="Helvetica,sans-Serif" font-size="10.00">Command</text>
</a>
</g>
</g>
<!-- Node35&#45;&gt;Node36 -->
<g id="edge35" class="edge"><title>Node35&#45;&gt;Node36</title>
<path fill="none" stroke="midnightblue" d="M1038.99,-307.773C1040.77,-306.312 1042.45,-304.725 1044,-303 1123.28,-215.038 998.965,-125.35 1080,-39 1094.28,-23.7855 1115.31,-16.7492 1135.74,-13.8411"/>
<polygon fill="midnightblue" stroke="midnightblue" points="1036.97,-304.917 1030.62,-313.401 1040.87,-310.726 1036.97,-304.917"/>
</g>
<!-- Node37 -->
<g id="node37" class="node"><title>Node37</title>
<g id="a_node37"><a xlink:href="../../d9/df7/classcontroller_1_1_controller.html#afdfa7f9e9a3fb5f6b73a6b8e2b2be8b5" target="_top" xlink:title="controller.Controller.get\lInput">
<polygon fill="white" stroke="black" points="1377,-0 1377,-30 1505,-30 1505,-0 1377,-0"/>
<text text-anchor="start" x="1385" y="-18" font-family="Helvetica,sans-Serif" font-size="10.00">controller.Controller.get</text>
<text text-anchor="middle" x="1441" y="-7" font-family="Helvetica,sans-Serif" font-size="10.00">Input</text>
</a>
</g>
</g>
<!-- Node36&#45;&gt;Node37 -->
<g id="edge36" class="edge"><title>Node36&#45;&gt;Node37</title>
<path fill="none" stroke="midnightblue" d="M1274.11,-15C1306.98,-15 1345.38,-15 1376.95,-15"/>
<polygon fill="midnightblue" stroke="midnightblue" points="1274.11,-11.5001 1264.11,-15 1274.11,-18.5001 1274.11,-11.5001"/>
</g>
<!-- Node38 -->
<g id="node38" class="node"><title>Node38</title>
<g id="a_node38"><a xlink:href="../../d3/dc7/classview_1_1controllers_1_1_pane_controller.html#a7e6154aecb60d8f3bcb056a11e842764" target="_top" xlink:title="view.controllers.PaneController.update">
<polygon fill="white" stroke="black" points="1562,-5.5 1562,-24.5 1760,-24.5 1760,-5.5 1562,-5.5"/>
<text text-anchor="middle" x="1661" y="-12.5" font-family="Helvetica,sans-Serif" font-size="10.00">view.controllers.PaneController.update</text>
</a>
</g>
</g>
<!-- Node37&#45;&gt;Node38 -->
<g id="edge37" class="edge"><title>Node37&#45;&gt;Node38</title>
<path fill="none" stroke="midnightblue" d="M1515.22,-15C1530.16,-15 1546.11,-15 1561.76,-15"/>
<polygon fill="midnightblue" stroke="midnightblue" points="1515.05,-11.5001 1505.05,-15 1515.05,-18.5001 1515.05,-11.5001"/>
</g>
<!-- Node40 -->
<g id="node40" class="node"><title>Node40</title>
<g id="a_node40"><a xlink:href="../../d8/daa/classview_1_1panes_1_1_turtle_selector_pane.html#a14e3fbe35c7447dcdf2f0910333cedcc" target="_top" xlink:title="view.panes.TurtleSelector\lPane.TurtleSelectorPane">
<polygon fill="white" stroke="black" points="892.5,-264 892.5,-294 1029.5,-294 1029.5,-264 892.5,-264"/>
<text text-anchor="start" x="900.5" y="-282" font-family="Helvetica,sans-Serif" font-size="10.00">view.panes.TurtleSelector</text>
<text text-anchor="middle" x="961" y="-271" font-family="Helvetica,sans-Serif" font-size="10.00">Pane.TurtleSelectorPane</text>
</a>
</g>
</g>
<!-- Node39&#45;&gt;Node40 -->
<g id="edge39" class="edge"><title>Node39&#45;&gt;Node40</title>
<path fill="none" stroke="midnightblue" d="M852.43,-279C866.024,-279 879.688,-279 892.5,-279"/>
<polygon fill="midnightblue" stroke="midnightblue" points="852.062,-275.5 842.062,-279 852.062,-282.5 852.062,-275.5"/>
</g>
</g>
</svg>
        <g id="navigator" transform="translate(0 0)" fill="#404254">
                <rect fill="#f2f5e9" fill-opacity="0.5" stroke="#606060" stroke-width=".5" x="0" y="0" width="60" height="60"/>
                <use id="zoomplus" xlink:href="#zoomPlus" x="17" y="9" onmousedown="handleZoom(evt,'in')"/>
                <use id="zoomminus" xlink:href="#zoomMin" x="42" y="9" onmousedown="handleZoom(evt,'out')"/>
                <use id="reset" xlink:href="#resetDef" x="30" y="36" onmousedown="handleReset()"/>
                <g id="arrowUp" xlink:href="#dirArrow" transform="translate(30 24)" onmousedown="handlePan(0,-1)">
                  <use xlink:href="#rim" fill="#404040">
                        <set attributeName="fill" to="#808080" begin="arrowUp.mouseover" end="arrowUp.mouseout"/>
                  </use>
                  <path fill="none" stroke="white" stroke-width="1.5" d="M0,-3.0v7 M-2.5,-0.5L0,-3.0L2.5,-0.5"/>
                </g>
                <g id="arrowRight" xlink:href="#dirArrow" transform="rotate(90) translate(36 -43)" onmousedown="handlePan(1,0)">
                  <use xlink:href="#rim" fill="#404040">
                        <set attributeName="fill" to="#808080" begin="arrowRight.mouseover" end="arrowRight.mouseout"/>
                  </use>
                  <path fill="none" stroke="white" stroke-width="1.5" d="M0,-3.0v7 M-2.5,-0.5L0,-3.0L2.5,-0.5"/>
                </g>
                <g id="arrowDown" xlink:href="#dirArrow" transform="rotate(180) translate(-30 -48)" onmousedown="handlePan(0,1)">
                  <use xlink:href="#rim" fill="#404040">
                        <set attributeName="fill" to="#808080" begin="arrowDown.mouseover" end="arrowDown.mouseout"/>
                  </use>
                  <path fill="none" stroke="white" stroke-width="1.5" d="M0,-3.0v7 M-2.5,-0.5L0,-3.0L2.5,-0.5"/>
                </g>
                <g id="arrowLeft" xlink:href="#dirArrow" transform="rotate(270) translate(-36 17)" onmousedown="handlePan(-1,0)">
                  <use xlink:href="#rim" fill="#404040">
                        <set attributeName="fill" to="#808080" begin="arrowLeft.mouseover" end="arrowLeft.mouseout"/>
                  </use>
                  <path fill="none" stroke="white" stroke-width="1.5" d="M0,-3.0v7 M-2.5,-0.5L0,-3.0L2.5,-0.5"/>
                </g>
        </g>
        <svg viewBox="0 0 15 15" width="100%" height="30px" preserveAspectRatio="xMaxYMin meet">
         <g id="arrow_out" transform="scale(0.3 0.3)">
          <a xlink:href="classmodel_1_1_turtle_a1c5d07962ede5fbfacc59413274d4300_icgraph_org.svg" target="_base">
           <rect id="button" ry="5" rx="5" y="6" x="6" height="38" width="38"
                fill="#f2f5e9" fill-opacity="0.5" stroke="#606060" stroke-width="1.0"/>
           <path id="arrow"
             d="M 11.500037,31.436501 C 11.940474,20.09759 22.043105,11.32322 32.158766,21.979434 L 37.068811,17.246167 C 37.068811,17.246167 37.088388,32 37.088388,32 L 22.160133,31.978069 C 22.160133,31.978069 26.997745,27.140456 26.997745,27.140456 C 18.528582,18.264221 13.291696,25.230495 11.500037,31.436501 z"
             style="fill:#404040;"/>
          </a>
         </g>
        </svg>
</svg>
