<?xml version="1.0" encoding="UTF-8" standalone="no"?>
<!DOCTYPE svg PUBLIC "-//W3C//DTD SVG 1.1//EN"
 "http://www.w3.org/Graphics/SVG/1.1/DTD/svg11.dtd">
<!-- Generated by graphviz version 2.36.0 (20140111.2315)
 -->
<!-- Title: model.Turtle.getPenStatus Pages: 1 -->
<svg width="1790pt" height="1361pt"
 viewBox="0.00 0.00 1790.00 1361.00" xmlns="http://www.w3.org/2000/svg" xmlns:xlink="http://www.w3.org/1999/xlink">
<g id="graph0" class="graph" transform="scale(1 1) rotate(0) translate(4 1357)">
<title>model.Turtle.getPenStatus</title>
<polygon fill="white" stroke="none" points="-4,4 -4,-1357 1786,-1357 1786,4 -4,4"/>
<!-- Node1 -->
<g id="node1" class="node"><title>Node1</title>
<polygon fill="#bfbfbf" stroke="black" points="0.5,-291.5 0.5,-310.5 143.5,-310.5 143.5,-291.5 0.5,-291.5"/>
<text text-anchor="middle" x="72" y="-298.5" font-family="Helvetica,sans-Serif" font-size="10.00">model.Turtle.getPenStatus</text>
</g>
<!-- Node2 -->
<g id="node2" class="node"><title>Node2</title>
<g id="a_node2"><a xlink:href="../../d8/dc0/classcommands_1_1_is_pen_down_command.html#ab3c897909c384a8b9917a2924f058561" target="_top" xlink:title="commands.IsPenDownCommand.execute\lCommand">
<polygon fill="white" stroke="black" points="180.5,-335 180.5,-365 397.5,-365 397.5,-335 180.5,-335"/>
<text text-anchor="start" x="188.5" y="-353" font-family="Helvetica,sans-Serif" font-size="10.00">commands.IsPenDownCommand.execute</text>
<text text-anchor="middle" x="289" y="-342" font-family="Helvetica,sans-Serif" font-size="10.00">Command</text>
</a>
</g>
</g>
<!-- Node1&#45;&gt;Node2 -->
<g id="edge1" class="edge"><title>Node1&#45;&gt;Node2</title>
<path fill="none" stroke="midnightblue" d="M124.689,-312.78C153.86,-319.429 190.618,-327.806 221.871,-334.929"/>
<polygon fill="midnightblue" stroke="midnightblue" points="125.237,-309.315 114.709,-310.506 123.681,-316.14 125.237,-309.315"/>
</g>
<!-- Node3 -->
<g id="node3" class="node"><title>Node3</title>
<g id="a_node3"><a xlink:href="../../db/db5/classview_1_1panes_1_1_view_pane_module.html#ab55ce3511929b88a2cd1235eb694868f" target="_top" xlink:title="view.panes.ViewPaneModule.update\lTurtle">
<polygon fill="white" stroke="black" points="195,-286 195,-316 383,-316 383,-286 195,-286"/>
<text text-anchor="start" x="203" y="-304" font-family="Helvetica,sans-Serif" font-size="10.00">view.panes.ViewPaneModule.update</text>
<text text-anchor="middle" x="289" y="-293" font-family="Helvetica,sans-Serif" font-size="10.00">Turtle</text>
</a>
</g>
</g>
<!-- Node1&#45;&gt;Node3 -->
<g id="edge2" class="edge"><title>Node1&#45;&gt;Node3</title>
<path fill="none" stroke="midnightblue" d="M153.837,-301C167.267,-301 181.29,-301 194.993,-301"/>
<polygon fill="midnightblue" stroke="midnightblue" points="153.697,-297.5 143.697,-301 153.697,-304.5 153.697,-297.5"/>
</g>
<!-- Node41 -->
<g id="node41" class="node"><title>Node41</title>
<g id="a_node41"><a xlink:href="../../db/db5/classview_1_1panes_1_1_view_pane_module.html#a055bc3d50de01b24c9ca90581abf2918" target="_top" xlink:title="view.panes.ViewPaneModule.wrapping">
<polygon fill="white" stroke="black" points="190.5,-247.5 190.5,-266.5 387.5,-266.5 387.5,-247.5 190.5,-247.5"/>
<text text-anchor="middle" x="289" y="-254.5" font-family="Helvetica,sans-Serif" font-size="10.00">view.panes.ViewPaneModule.wrapping</text>
</a>
</g>
</g>
<!-- Node1&#45;&gt;Node41 -->
<g id="edge40" class="edge"><title>Node1&#45;&gt;Node41</title>
<path fill="none" stroke="midnightblue" d="M123.956,-289.161C141.667,-285.155 161.68,-280.749 180,-277 197.654,-273.387 216.991,-269.716 234.363,-266.522"/>
<polygon fill="midnightblue" stroke="midnightblue" points="122.799,-285.834 113.825,-291.465 124.352,-292.66 122.799,-285.834"/>
</g>
<!-- Node4 -->
<g id="node4" class="node"><title>Node4</title>
<g id="a_node4"><a xlink:href="../../db/db5/classview_1_1panes_1_1_view_pane_module.html#aa2a1bf15bc036ee4237bf63749d85baf" target="_top" xlink:title="view.panes.ViewPaneModule.updateView">
<polygon fill="white" stroke="black" points="434.5,-291.5 434.5,-310.5 643.5,-310.5 643.5,-291.5 434.5,-291.5"/>
<text text-anchor="middle" x="539" y="-298.5" font-family="Helvetica,sans-Serif" font-size="10.00">view.panes.ViewPaneModule.updateView</text>
</a>
</g>
</g>
<!-- Node3&#45;&gt;Node4 -->
<g id="edge3" class="edge"><title>Node3&#45;&gt;Node4</title>
<path fill="none" stroke="midnightblue" d="M393.358,-301C406.938,-301 420.857,-301 434.439,-301"/>
<polygon fill="midnightblue" stroke="midnightblue" points="393.052,-297.5 383.052,-301 393.052,-304.5 393.052,-297.5"/>
</g>
<!-- Node5 -->
<g id="node5" class="node"><title>Node5</title>
<g id="a_node5"><a xlink:href="../../d3/d42/classmodel_1_1_model.html#a76160d002c1e68b566307ac44356f6e5" target="_top" xlink:title="model.Model.notifyView">
<polygon fill="white" stroke="black" points="707.5,-313.5 707.5,-332.5 836.5,-332.5 836.5,-313.5 707.5,-313.5"/>
<text text-anchor="middle" x="772" y="-320.5" font-family="Helvetica,sans-Serif" font-size="10.00">model.Model.notifyView</text>
</a>
</g>
</g>
<!-- Node4&#45;&gt;Node5 -->
<g id="edge4" class="edge"><title>Node4&#45;&gt;Node5</title>
<path fill="none" stroke="midnightblue" d="M650.173,-311.493C669.729,-313.355 689.49,-315.237 707.206,-316.924"/>
<polygon fill="midnightblue" stroke="midnightblue" points="650.263,-307.986 639.976,-310.522 649.6,-314.954 650.263,-307.986"/>
</g>
<!-- Node39 -->
<g id="node39" class="node"><title>Node39</title>
<g id="a_node39"><a xlink:href="../../db/db5/classview_1_1panes_1_1_view_pane_module.html#a200bd9d0cb7f1fb3482afb7f085939cd" target="_top" xlink:title="view.panes.ViewPaneModule.toggle\lActive">
<polygon fill="white" stroke="black" points="680,-264 680,-294 864,-294 864,-264 680,-264"/>
<text text-anchor="start" x="688" y="-282" font-family="Helvetica,sans-Serif" font-size="10.00">view.panes.ViewPaneModule.toggle</text>
<text text-anchor="middle" x="772" y="-271" font-family="Helvetica,sans-Serif" font-size="10.00">Active</text>
</a>
</g>
</g>
<!-- Node4&#45;&gt;Node39 -->
<g id="edge38" class="edge"><title>Node4&#45;&gt;Node39</title>
<path fill="none" stroke="midnightblue" d="M649.986,-290.525C660.025,-289.569 670.12,-288.608 679.966,-287.67"/>
<polygon fill="midnightblue" stroke="midnightblue" points="649.6,-287.046 639.976,-291.478 650.263,-294.014 649.6,-287.046"/>
</g>
<!-- Node6 -->
<g id="node6" class="node"><title>Node6</title>
<g id="a_node6"><a xlink:href="../../dd/dd6/classcommands_1_1_command.html#abafa69601e87c34d4453cf84349d6f9c" target="_top" xlink:title="commands.Command.execute\lCommand">
<polygon fill="white" stroke="black" points="900.5,-661 900.5,-691 1065.5,-691 1065.5,-661 900.5,-661"/>
<text text-anchor="start" x="908.5" y="-679" font-family="Helvetica,sans-Serif" font-size="10.00">commands.Command.execute</text>
<text text-anchor="middle" x="983" y="-668" font-family="Helvetica,sans-Serif" font-size="10.00">Command</text>
</a>
</g>
</g>
<!-- Node5&#45;&gt;Node6 -->
<g id="edge5" class="edge"><title>Node5&#45;&gt;Node6</title>
<path fill="none" stroke="midnightblue" d="M783.99,-341.563C820.815,-403.76 939.416,-604.075 973.039,-660.865"/>
<polygon fill="midnightblue" stroke="midnightblue" points="786.914,-339.631 778.808,-332.81 780.891,-343.198 786.914,-339.631"/>
</g>
<!-- Node35 -->
<g id="node35" class="node"><title>Node35</title>
<g id="a_node35"><a xlink:href="../../d3/d42/classmodel_1_1_model.html#a73435cc7a2b6100031bbdd2cf6d6b4e8" target="_top" xlink:title="model.Model.updateModel">
<polygon fill="white" stroke="black" points="911.5,-313.5 911.5,-332.5 1054.5,-332.5 1054.5,-313.5 911.5,-313.5"/>
<text text-anchor="middle" x="983" y="-320.5" font-family="Helvetica,sans-Serif" font-size="10.00">model.Model.updateModel</text>
</a>
</g>
</g>
<!-- Node5&#45;&gt;Node35 -->
<g id="edge34" class="edge"><title>Node5&#45;&gt;Node35</title>
<path fill="none" stroke="midnightblue" d="M846.72,-323C867.752,-323 890.611,-323 911.45,-323"/>
<polygon fill="midnightblue" stroke="midnightblue" points="846.558,-319.5 836.558,-323 846.558,-326.5 846.558,-319.5"/>
</g>
<!-- Node7 -->
<g id="node7" class="node"><title>Node7</title>
<g id="a_node7"><a xlink:href="../../d1/d79/classcommands_1_1_sum_command.html#a792945436d0c3ff1f58301fcc50f5ae1" target="_top" xlink:title="commands.SumCommand.execute\lCommand">
<polygon fill="white" stroke="black" points="1128,-1323 1128,-1353 1316,-1353 1316,-1323 1128,-1323"/>
<text text-anchor="start" x="1136" y="-1341" font-family="Helvetica,sans-Serif" font-size="10.00">commands.SumCommand.execute</text>
<text text-anchor="middle" x="1222" y="-1330" font-family="Helvetica,sans-Serif" font-size="10.00">Command</text>
</a>
</g>
</g>
<!-- Node6&#45;&gt;Node7 -->
<g id="edge6" class="edge"><title>Node6&#45;&gt;Node7</title>
<path fill="none" stroke="midnightblue" d="M985.051,-701.444C990.011,-808.823 1014.63,-1223.52 1102,-1313 1109.3,-1320.48 1118.23,-1326 1127.88,-1330.04"/>
<polygon fill="midnightblue" stroke="midnightblue" points="988.537,-701.061 984.596,-691.226 981.544,-701.372 988.537,-701.061"/>
</g>
<!-- Node8 -->
<g id="node8" class="node"><title>Node8</title>
<g id="a_node8"><a xlink:href="../../d6/dc0/classcommands_1_1_repeat_command.html#a40fb82831e8b2beaa7e31913e46e15eb" target="_top" xlink:title="commands.RepeatCommand.execute\lCommand">
<polygon fill="white" stroke="black" points="1123,-1274 1123,-1304 1321,-1304 1321,-1274 1123,-1274"/>
<text text-anchor="start" x="1131" y="-1292" font-family="Helvetica,sans-Serif" font-size="10.00">commands.RepeatCommand.execute</text>
<text text-anchor="middle" x="1222" y="-1281" font-family="Helvetica,sans-Serif" font-size="10.00">Command</text>
</a>
</g>
</g>
<!-- Node6&#45;&gt;Node8 -->
<g id="edge7" class="edge"><title>Node6&#45;&gt;Node8</title>
<path fill="none" stroke="midnightblue" d="M985.475,-701.431C991.924,-803.56 1021.03,-1182.29 1102,-1264 1108.02,-1270.07 1115.11,-1274.85 1122.79,-1278.59"/>
<polygon fill="midnightblue" stroke="midnightblue" points="988.95,-700.909 984.844,-691.142 981.963,-701.338 988.95,-700.909"/>
</g>
<!-- Node9 -->
<g id="node9" class="node"><title>Node9</title>
<g id="a_node9"><a xlink:href="../../dd/d82/classcommands_1_1_remainder_command.html#a99d4baf3f1b4a3c8d0cd69274380a2cf" target="_top" xlink:title="commands.RemainderCommand.execute\lCommand">
<polygon fill="white" stroke="black" points="1114,-1225 1114,-1255 1330,-1255 1330,-1225 1114,-1225"/>
<text text-anchor="start" x="1122" y="-1243" font-family="Helvetica,sans-Serif" font-size="10.00">commands.RemainderCommand.execute</text>
<text text-anchor="middle" x="1222" y="-1232" font-family="Helvetica,sans-Serif" font-size="10.00">Command</text>
</a>
</g>
</g>
<!-- Node6&#45;&gt;Node9 -->
<g id="edge8" class="edge"><title>Node6&#45;&gt;Node9</title>
<path fill="none" stroke="midnightblue" d="M985.955,-701.181C993.95,-797.511 1027.33,-1140.96 1102,-1215 1105.82,-1218.79 1110.06,-1222.07 1114.6,-1224.91"/>
<polygon fill="midnightblue" stroke="midnightblue" points="989.441,-700.858 985.143,-691.174 982.464,-701.424 989.441,-700.858"/>
</g>
<!-- Node10 -->
<g id="node10" class="node"><title>Node10</title>
<g id="a_node10"><a xlink:href="../../df/df5/classcommands_1_1_minus_command.html#a82548bbb25a73194469e1ff81b19cf27" target="_top" xlink:title="commands.MinusCommand.execute\lCommand">
<polygon fill="white" stroke="black" points="1125.5,-1176 1125.5,-1206 1318.5,-1206 1318.5,-1176 1125.5,-1176"/>
<text text-anchor="start" x="1133.5" y="-1194" font-family="Helvetica,sans-Serif" font-size="10.00">commands.MinusCommand.execute</text>
<text text-anchor="middle" x="1222" y="-1183" font-family="Helvetica,sans-Serif" font-size="10.00">Command</text>
</a>
</g>
</g>
<!-- Node6&#45;&gt;Node10 -->
<g id="edge9" class="edge"><title>Node6&#45;&gt;Node10</title>
<path fill="none" stroke="midnightblue" d="M986.552,-701.225C996.239,-791.929 1033.69,-1099.66 1102,-1166 1108.74,-1172.54 1116.73,-1177.57 1125.34,-1181.41"/>
<polygon fill="midnightblue" stroke="midnightblue" points="990.032,-700.851 985.508,-691.27 983.07,-701.581 990.032,-700.851"/>
</g>
<!-- Node11 -->
<g id="node11" class="node"><title>Node11</title>
<g id="a_node11"><a xlink:href="../../d3/d37/classcommands_1_1_set_background_command.html#a91dc8e21948a301c55af1cef90b77962" target="_top" xlink:title="commands.SetBackgroundCommand.execute\lCommand">
<polygon fill="white" stroke="black" points="1102.5,-1127 1102.5,-1157 1341.5,-1157 1341.5,-1127 1102.5,-1127"/>
<text text-anchor="start" x="1110.5" y="-1145" font-family="Helvetica,sans-Serif" font-size="10.00">commands.SetBackgroundCommand.execute</text>
<text text-anchor="middle" x="1222" y="-1134" font-family="Helvetica,sans-Serif" font-size="10.00">Command</text>
</a>
</g>
</g>
<!-- Node6&#45;&gt;Node11 -->
<g id="edge10" class="edge"><title>Node6&#45;&gt;Node11</title>
<path fill="none" stroke="midnightblue" d="M987.262,-701.15C998.744,-785.787 1039.98,-1058.26 1102,-1117 1105.99,-1120.77 1110.39,-1124.04 1115.08,-1126.86"/>
<polygon fill="midnightblue" stroke="midnightblue" points="990.717,-700.585 985.924,-691.137 983.779,-701.512 990.717,-700.585"/>
</g>
<!-- Node12 -->
<g id="node12" class="node"><title>Node12</title>
<g id="a_node12"><a xlink:href="../../d8/dba/classcommands_1_1_product_command.html#a8bc20bc7c21a944405f599dbcfa57e67" target="_top" xlink:title="commands.ProductCommand.execute\lCommand">
<polygon fill="white" stroke="black" points="1121,-1078 1121,-1108 1323,-1108 1323,-1078 1121,-1078"/>
<text text-anchor="start" x="1129" y="-1096" font-family="Helvetica,sans-Serif" font-size="10.00">commands.ProductCommand.execute</text>
<text text-anchor="middle" x="1222" y="-1085" font-family="Helvetica,sans-Serif" font-size="10.00">Command</text>
</a>
</g>
</g>
<!-- Node6&#45;&gt;Node12 -->
<g id="edge11" class="edge"><title>Node6&#45;&gt;Node12</title>
<path fill="none" stroke="midnightblue" d="M983.405,-701.275C983.233,-771.059 992.921,-967.852 1102,-1068 1107.6,-1073.14 1113.98,-1077.33 1120.8,-1080.73"/>
<polygon fill="midnightblue" stroke="midnightblue" points="986.906,-701.233 983.504,-691.2 979.906,-701.165 986.906,-701.233"/>
</g>
<!-- Node13 -->
<g id="node13" class="node"><title>Node13</title>
<g id="a_node13"><a xlink:href="../../dd/d40/classcommands_1_1_quotient_command.html#a7e23b237cc68512dcbe6a65feb7c39e8" target="_top" xlink:title="commands.QuotientCommand.execute\lCommand">
<polygon fill="white" stroke="black" points="1119,-1029 1119,-1059 1325,-1059 1325,-1029 1119,-1029"/>
<text text-anchor="start" x="1127" y="-1047" font-family="Helvetica,sans-Serif" font-size="10.00">commands.QuotientCommand.execute</text>
<text text-anchor="middle" x="1222" y="-1036" font-family="Helvetica,sans-Serif" font-size="10.00">Command</text>
</a>
</g>
</g>
<!-- Node6&#45;&gt;Node13 -->
<g id="edge12" class="edge"><title>Node6&#45;&gt;Node13</title>
<path fill="none" stroke="midnightblue" d="M984.674,-701.514C987.822,-765.487 1005.36,-933.681 1102,-1019 1107.06,-1023.47 1112.72,-1027.21 1118.75,-1030.34"/>
<polygon fill="midnightblue" stroke="midnightblue" points="988.156,-701.007 984.249,-691.159 981.162,-701.294 988.156,-701.007"/>
</g>
<!-- Node14 -->
<g id="node14" class="node"><title>Node14</title>
<g id="a_node14"><a xlink:href="../../dc/d68/classcommands_1_1_make_variable_command.html#ad0e0974744cc969c12c67805c2460ef4" target="_top" xlink:title="commands.MakeVariableCommand.execute\lCommand">
<polygon fill="white" stroke="black" points="1107.5,-980 1107.5,-1010 1336.5,-1010 1336.5,-980 1107.5,-980"/>
<text text-anchor="start" x="1115.5" y="-998" font-family="Helvetica,sans-Serif" font-size="10.00">commands.MakeVariableCommand.execute</text>
<text text-anchor="middle" x="1222" y="-987" font-family="Helvetica,sans-Serif" font-size="10.00">Command</text>
</a>
</g>
</g>
<!-- Node6&#45;&gt;Node14 -->
<g id="edge13" class="edge"><title>Node6&#45;&gt;Node14</title>
<path fill="none" stroke="midnightblue" d="M986.268,-701.004C992.857,-758.166 1017.29,-898.929 1102,-970 1106.53,-973.799 1111.49,-977.067 1116.73,-979.873"/>
<polygon fill="midnightblue" stroke="midnightblue" points="989.746,-700.607 985.205,-691.035 982.785,-701.35 989.746,-700.607"/>
</g>
<!-- Node15 -->
<g id="node15" class="node"><title>Node15</title>
<g id="a_node15"><a xlink:href="../../d8/ded/classcommands_1_1_difference_command.html#a0c34c43d3bb266ef3e48ae27be938a0f" target="_top" xlink:title="commands.DifferenceCommand.execute\lCommand">
<polygon fill="white" stroke="black" points="1115,-931 1115,-961 1329,-961 1329,-931 1115,-931"/>
<text text-anchor="start" x="1123" y="-949" font-family="Helvetica,sans-Serif" font-size="10.00">commands.DifferenceCommand.execute</text>
<text text-anchor="middle" x="1222" y="-938" font-family="Helvetica,sans-Serif" font-size="10.00">Command</text>
</a>
</g>
</g>
<!-- Node6&#45;&gt;Node15 -->
<g id="edge14" class="edge"><title>Node6&#45;&gt;Node15</title>
<path fill="none" stroke="midnightblue" d="M988.533,-701.294C998.941,-751.586 1029.46,-864.176 1102,-921 1106.9,-924.84 1112.26,-928.128 1117.89,-930.938"/>
<polygon fill="midnightblue" stroke="midnightblue" points="991.927,-700.411 986.559,-691.276 985.059,-701.765 991.927,-700.411"/>
</g>
<!-- Node16 -->
<g id="node16" class="node"><title>Node16</title>
<g id="a_node16"><a xlink:href="../../dd/d29/classcommands_1_1_clear_screen_command.html#a87e5eb0f4c3bb48ec0737da2aa431db3" target="_top" xlink:title="commands.ClearScreenCommand.execute\lCommand">
<polygon fill="white" stroke="black" points="1110,-882 1110,-912 1334,-912 1334,-882 1110,-882"/>
<text text-anchor="start" x="1118" y="-900" font-family="Helvetica,sans-Serif" font-size="10.00">commands.ClearScreenCommand.execute</text>
<text text-anchor="middle" x="1222" y="-889" font-family="Helvetica,sans-Serif" font-size="10.00">Command</text>
</a>
</g>
</g>
<!-- Node6&#45;&gt;Node16 -->
<g id="edge15" class="edge"><title>Node6&#45;&gt;Node16</title>
<path fill="none" stroke="midnightblue" d="M991.566,-700.672C1005.86,-742.893 1040.99,-828.631 1102,-872 1107.42,-875.853 1113.31,-879.136 1119.47,-881.931"/>
<polygon fill="midnightblue" stroke="midnightblue" points="994.891,-699.579 988.454,-691.165 988.239,-701.757 994.891,-699.579"/>
</g>
<!-- Node17 -->
<g id="node17" class="node"><title>Node17</title>
<g id="a_node17"><a xlink:href="../../d9/d35/classcommands_1_1_ask_command.html#ae4ba28c73ce0b5112e4032bd21a951f5" target="_top" xlink:title="commands.AskCommand.execute\lCommand">
<polygon fill="white" stroke="black" points="1131,-833 1131,-863 1313,-863 1313,-833 1131,-833"/>
<text text-anchor="start" x="1139" y="-851" font-family="Helvetica,sans-Serif" font-size="10.00">commands.AskCommand.execute</text>
<text text-anchor="middle" x="1222" y="-840" font-family="Helvetica,sans-Serif" font-size="10.00">Command</text>
</a>
</g>
</g>
<!-- Node6&#45;&gt;Node17 -->
<g id="edge16" class="edge"><title>Node6&#45;&gt;Node17</title>
<path fill="none" stroke="midnightblue" d="M996.524,-700.426C1014.92,-733.7 1052.51,-792.605 1102,-823 1110.81,-828.413 1120.61,-832.67 1130.7,-836.015"/>
<polygon fill="midnightblue" stroke="midnightblue" points="999.47,-698.514 991.644,-691.373 993.309,-701.836 999.47,-698.514"/>
</g>
<!-- Node18 -->
<g id="node18" class="node"><title>Node18</title>
<g id="a_node18"><a xlink:href="../../d3/d49/classcommands_1_1_if_else_command.html#a3b3d15925117d366a69f8ebd1dbc2dbc" target="_top" xlink:title="commands.IfElseCommand.execute\lCommand">
<polygon fill="white" stroke="black" points="1127,-784 1127,-814 1317,-814 1317,-784 1127,-784"/>
<text text-anchor="start" x="1135" y="-802" font-family="Helvetica,sans-Serif" font-size="10.00">commands.IfElseCommand.execute</text>
<text text-anchor="middle" x="1222" y="-791" font-family="Helvetica,sans-Serif" font-size="10.00">Command</text>
</a>
</g>
</g>
<!-- Node6&#45;&gt;Node18 -->
<g id="edge17" class="edge"><title>Node6&#45;&gt;Node18</title>
<path fill="none" stroke="midnightblue" d="M1004.73,-698.758C1026.67,-721.389 1063.39,-755.347 1102,-774 1110.08,-777.903 1118.75,-781.199 1127.61,-783.982"/>
<polygon fill="midnightblue" stroke="midnightblue" points="1007.04,-696.105 997.613,-691.27 1001.97,-700.928 1007.04,-696.105"/>
</g>
<!-- Node20 -->
<g id="node20" class="node"><title>Node20</title>
<g id="a_node20"><a xlink:href="../../d8/d57/classcommands_1_1_for_command.html#aeb06a37d7f9845eb546425bae6ea9f58" target="_top" xlink:title="commands.ForCommand.execute\lCommand">
<polygon fill="white" stroke="black" points="1132,-735 1132,-765 1312,-765 1312,-735 1132,-735"/>
<text text-anchor="start" x="1140" y="-753" font-family="Helvetica,sans-Serif" font-size="10.00">commands.ForCommand.execute</text>
<text text-anchor="middle" x="1222" y="-742" font-family="Helvetica,sans-Serif" font-size="10.00">Command</text>
</a>
</g>
</g>
<!-- Node6&#45;&gt;Node20 -->
<g id="edge19" class="edge"><title>Node6&#45;&gt;Node20</title>
<path fill="none" stroke="midnightblue" d="M1025.15,-695.308C1047.51,-705.231 1075.86,-716.904 1102,-725 1114,-728.716 1126.85,-732.055 1139.5,-734.992"/>
<polygon fill="midnightblue" stroke="midnightblue" points="1026.51,-692.084 1015.96,-691.179 1023.64,-698.47 1026.51,-692.084"/>
</g>
<!-- Node21 -->
<g id="node21" class="node"><title>Node21</title>
<g id="a_node21"><a xlink:href="../../db/d38/classcommands_1_1_ask_with_command.html#a5ee6a090e94729d84ef423a454d446eb" target="_top" xlink:title="commands.AskWithCommand.execute\lCommand">
<polygon fill="white" stroke="black" points="1120.5,-686 1120.5,-716 1323.5,-716 1323.5,-686 1120.5,-686"/>
<text text-anchor="start" x="1128.5" y="-704" font-family="Helvetica,sans-Serif" font-size="10.00">commands.AskWithCommand.execute</text>
<text text-anchor="middle" x="1222" y="-693" font-family="Helvetica,sans-Serif" font-size="10.00">Command</text>
</a>
</g>
</g>
<!-- Node6&#45;&gt;Node21 -->
<g id="edge20" class="edge"><title>Node6&#45;&gt;Node21</title>
<path fill="none" stroke="midnightblue" d="M1075.62,-685.665C1090.3,-687.213 1105.56,-688.823 1120.44,-690.392"/>
<polygon fill="midnightblue" stroke="midnightblue" points="1075.87,-682.172 1065.56,-684.604 1075.14,-689.133 1075.87,-682.172"/>
</g>
<!-- Node22 -->
<g id="node22" class="node"><title>Node22</title>
<g id="a_node22"><a xlink:href="../../d4/d02/classcommands_1_1_do_times_command.html#a1dd20e90975d905a1bce8f018e9f7f0a" target="_top" xlink:title="commands.DoTimesCommand.execute\lCommand">
<polygon fill="white" stroke="black" points="1118.5,-637 1118.5,-667 1325.5,-667 1325.5,-637 1118.5,-637"/>
<text text-anchor="start" x="1126.5" y="-655" font-family="Helvetica,sans-Serif" font-size="10.00">commands.DoTimesCommand.execute</text>
<text text-anchor="middle" x="1222" y="-644" font-family="Helvetica,sans-Serif" font-size="10.00">Command</text>
</a>
</g>
</g>
<!-- Node6&#45;&gt;Node22 -->
<g id="edge21" class="edge"><title>Node6&#45;&gt;Node22</title>
<path fill="none" stroke="midnightblue" d="M1075.64,-666.72C1089.63,-665.303 1104.15,-663.833 1118.35,-662.395"/>
<polygon fill="midnightblue" stroke="midnightblue" points="1075.16,-663.251 1065.56,-667.741 1075.86,-670.215 1075.16,-663.251"/>
</g>
<!-- Node23 -->
<g id="node23" class="node"><title>Node23</title>
<g id="a_node23"><a xlink:href="../../dd/de4/classcommands_1_1_custom_command.html#a5ad25438a49d3e4eeba835fefe8b730a" target="_top" xlink:title="commands.CustomCommand.execute\lCommand">
<polygon fill="white" stroke="black" points="1120.5,-588 1120.5,-618 1323.5,-618 1323.5,-588 1120.5,-588"/>
<text text-anchor="start" x="1128.5" y="-606" font-family="Helvetica,sans-Serif" font-size="10.00">commands.CustomCommand.execute</text>
<text text-anchor="middle" x="1222" y="-595" font-family="Helvetica,sans-Serif" font-size="10.00">Command</text>
</a>
</g>
</g>
<!-- Node6&#45;&gt;Node23 -->
<g id="edge22" class="edge"><title>Node6&#45;&gt;Node23</title>
<path fill="none" stroke="midnightblue" d="M1025.66,-656.916C1047.96,-647.252 1076.09,-635.921 1102,-628 1114.11,-624.297 1127.08,-620.956 1139.85,-618.011"/>
<polygon fill="midnightblue" stroke="midnightblue" points="1024.24,-653.719 1016.49,-660.941 1027.05,-660.129 1024.24,-653.719"/>
</g>
<!-- Node24 -->
<g id="node24" class="node"><title>Node24</title>
<g id="a_node24"><a xlink:href="../../d6/daf/classcommands_1_1_set_shape_command.html#a59c440316cf9e732b5aa2f46def94e10" target="_top" xlink:title="commands.SetShapeCommand.update\lTurtle">
<polygon fill="white" stroke="black" points="1118,-539 1118,-569 1326,-569 1326,-539 1118,-539"/>
<text text-anchor="start" x="1126" y="-557" font-family="Helvetica,sans-Serif" font-size="10.00">commands.SetShapeCommand.update</text>
<text text-anchor="middle" x="1222" y="-546" font-family="Helvetica,sans-Serif" font-size="10.00">Turtle</text>
</a>
</g>
</g>
<!-- Node6&#45;&gt;Node24 -->
<g id="edge23" class="edge"><title>Node6&#45;&gt;Node24</title>
<path fill="none" stroke="midnightblue" d="M1004.78,-653.48C1026.75,-631.086 1063.51,-597.479 1102,-579 1110.09,-575.117 1118.77,-571.835 1127.63,-569.06"/>
<polygon fill="midnightblue" stroke="midnightblue" points="1002.06,-651.259 997.647,-660.891 1007.1,-656.114 1002.06,-651.259"/>
</g>
<!-- Node25 -->
<g id="node25" class="node"><title>Node25</title>
<g id="a_node25"><a xlink:href="../../d6/d11/classcommands_1_1_set_pen_dash_command.html#a320f3b8248e3e89b2338dfefbe73f8c7" target="_top" xlink:title="commands.SetPenDashCommand.update\lTurtle">
<polygon fill="white" stroke="black" points="1112,-490 1112,-520 1332,-520 1332,-490 1112,-490"/>
<text text-anchor="start" x="1120" y="-508" font-family="Helvetica,sans-Serif" font-size="10.00">commands.SetPenDashCommand.update</text>
<text text-anchor="middle" x="1222" y="-497" font-family="Helvetica,sans-Serif" font-size="10.00">Turtle</text>
</a>
</g>
</g>
<!-- Node6&#45;&gt;Node25 -->
<g id="edge24" class="edge"><title>Node6&#45;&gt;Node25</title>
<path fill="none" stroke="midnightblue" d="M996.568,-651.74C1015.02,-618.692 1052.66,-560.188 1102,-530 1108.3,-526.144 1115.11,-522.875 1122.16,-520.104"/>
<polygon fill="midnightblue" stroke="midnightblue" points="993.381,-650.275 991.673,-660.731 999.528,-653.622 993.381,-650.275"/>
</g>
<!-- Node26 -->
<g id="node26" class="node"><title>Node26</title>
<g id="a_node26"><a xlink:href="../../dc/df3/classcommands_1_1_set_towards_command.html#ad82abd7dcaed57b3bdb3a4b87a91815a" target="_top" xlink:title="commands.SetTowardsCommand.update\lTurtle">
<polygon fill="white" stroke="black" points="1114.5,-441 1114.5,-471 1329.5,-471 1329.5,-441 1114.5,-441"/>
<text text-anchor="start" x="1122.5" y="-459" font-family="Helvetica,sans-Serif" font-size="10.00">commands.SetTowardsCommand.update</text>
<text text-anchor="middle" x="1222" y="-448" font-family="Helvetica,sans-Serif" font-size="10.00">Turtle</text>
</a>
</g>
</g>
<!-- Node6&#45;&gt;Node26 -->
<g id="edge25" class="edge"><title>Node6&#45;&gt;Node26</title>
<path fill="none" stroke="midnightblue" d="M991.695,-651.184C1006.1,-609.082 1041.3,-524.047 1102,-481 1107.42,-477.153 1113.32,-473.875 1119.48,-471.083"/>
<polygon fill="midnightblue" stroke="midnightblue" points="988.295,-650.318 988.478,-660.911 994.941,-652.517 988.295,-650.318"/>
</g>
<!-- Node27 -->
<g id="node27" class="node"><title>Node27</title>
<g id="a_node27"><a xlink:href="../../d9/db5/classcommands_1_1_set_position_command.html#aba31c4887974831a6c0d9feac8316ee6" target="_top" xlink:title="commands.SetPositionCommand.update\lTurtle">
<polygon fill="white" stroke="black" points="1114.5,-392 1114.5,-422 1329.5,-422 1329.5,-392 1114.5,-392"/>
<text text-anchor="start" x="1122.5" y="-410" font-family="Helvetica,sans-Serif" font-size="10.00">commands.SetPositionCommand.update</text>
<text text-anchor="middle" x="1222" y="-399" font-family="Helvetica,sans-Serif" font-size="10.00">Turtle</text>
</a>
</g>
</g>
<!-- Node6&#45;&gt;Node27 -->
<g id="edge26" class="edge"><title>Node6&#45;&gt;Node27</title>
<path fill="none" stroke="midnightblue" d="M988.566,-650.807C999.034,-600.716 1029.66,-488.578 1102,-432 1106.91,-428.163 1112.26,-424.879 1117.9,-422.071"/>
<polygon fill="midnightblue" stroke="midnightblue" points="985.1,-650.293 986.579,-660.784 991.965,-651.661 985.1,-650.293"/>
</g>
<!-- Node28 -->
<g id="node28" class="node"><title>Node28</title>
<g id="a_node28"><a xlink:href="../../dd/db2/classcommands_1_1_right_command.html#ae16ecb0da3e0a2049a7382d74f315cb6" target="_top" xlink:title="commands.RightCommand.update\lTurtle">
<polygon fill="white" stroke="black" points="1129.5,-343 1129.5,-373 1314.5,-373 1314.5,-343 1129.5,-343"/>
<text text-anchor="start" x="1137.5" y="-361" font-family="Helvetica,sans-Serif" font-size="10.00">commands.RightCommand.update</text>
<text text-anchor="middle" x="1222" y="-350" font-family="Helvetica,sans-Serif" font-size="10.00">Turtle</text>
</a>
</g>
</g>
<!-- Node6&#45;&gt;Node28 -->
<g id="edge27" class="edge"><title>Node6&#45;&gt;Node28</title>
<path fill="none" stroke="midnightblue" d="M986.344,-650.678C993.06,-593.452 1017.7,-453.648 1102,-383 1110.01,-376.288 1119.37,-371.237 1129.26,-367.456"/>
<polygon fill="midnightblue" stroke="midnightblue" points="982.858,-650.353 985.257,-660.673 989.817,-651.11 982.858,-650.353"/>
</g>
<!-- Node29 -->
<g id="node29" class="node"><title>Node29</title>
<g id="a_node29"><a xlink:href="../../dc/db3/classcommands_1_1_set_heading_command.html#a064fae1a815349b9efc6bd43f2371339" target="_top" xlink:title="commands.SetHeadingCommand.update\lTurtle">
<polygon fill="white" stroke="black" points="1113.5,-294 1113.5,-324 1330.5,-324 1330.5,-294 1113.5,-294"/>
<text text-anchor="start" x="1121.5" y="-312" font-family="Helvetica,sans-Serif" font-size="10.00">commands.SetHeadingCommand.update</text>
<text text-anchor="middle" x="1222" y="-301" font-family="Helvetica,sans-Serif" font-size="10.00">Turtle</text>
</a>
</g>
</g>
<!-- Node6&#45;&gt;Node29 -->
<g id="edge28" class="edge"><title>Node6&#45;&gt;Node29</title>
<path fill="none" stroke="midnightblue" d="M984.7,-650.558C987.908,-586.767 1005.57,-419.054 1102,-334 1106.35,-330.16 1111.15,-326.856 1116.23,-324.018"/>
<polygon fill="midnightblue" stroke="midnightblue" points="981.189,-650.745 984.265,-660.884 988.183,-651.04 981.189,-650.745"/>
</g>
<!-- Node30 -->
<g id="node30" class="node"><title>Node30</title>
<g id="a_node30"><a xlink:href="../../d2/dbb/classcommands_1_1_set_pen_size_command.html#aa8dbbb22c72842b2d6f50aa169a8404e" target="_top" xlink:title="commands.SetPenSizeCommand.update\lTurtle">
<polygon fill="white" stroke="black" points="1114.5,-245 1114.5,-275 1329.5,-275 1329.5,-245 1114.5,-245"/>
<text text-anchor="start" x="1122.5" y="-263" font-family="Helvetica,sans-Serif" font-size="10.00">commands.SetPenSizeCommand.update</text>
<text text-anchor="middle" x="1222" y="-252" font-family="Helvetica,sans-Serif" font-size="10.00">Turtle</text>
</a>
</g>
</g>
<!-- Node6&#45;&gt;Node30 -->
<g id="edge29" class="edge"><title>Node6&#45;&gt;Node30</title>
<path fill="none" stroke="midnightblue" d="M988.163,-650.913C1001.63,-572.791 1046.36,-336.047 1102,-285 1106.12,-281.218 1110.67,-277.951 1115.5,-275.133"/>
<polygon fill="midnightblue" stroke="midnightblue" points="984.699,-650.403 986.473,-660.848 991.6,-651.577 984.699,-650.403"/>
</g>
<!-- Node31 -->
<g id="node31" class="node"><title>Node31</title>
<g id="a_node31"><a xlink:href="../../d5/d21/classcommands_1_1_set_pen_color_command.html#a69a9c0161b8910c8fecc5ace219aeeb8" target="_top" xlink:title="commands.SetPenColorCommand.update\lTurtle">
<polygon fill="white" stroke="black" points="1112,-196 1112,-226 1332,-226 1332,-196 1112,-196"/>
<text text-anchor="start" x="1120" y="-214" font-family="Helvetica,sans-Serif" font-size="10.00">commands.SetPenColorCommand.update</text>
<text text-anchor="middle" x="1222" y="-203" font-family="Helvetica,sans-Serif" font-size="10.00">Turtle</text>
</a>
</g>
</g>
<!-- Node6&#45;&gt;Node31 -->
<g id="edge30" class="edge"><title>Node6&#45;&gt;Node31</title>
<path fill="none" stroke="midnightblue" d="M989.954,-650.94C1011.69,-559.844 1086.34,-250.824 1102,-236 1105.99,-232.227 1110.39,-228.962 1115.09,-226.142"/>
<polygon fill="midnightblue" stroke="midnightblue" points="986.485,-650.395 987.572,-660.934 993.295,-652.018 986.485,-650.395"/>
</g>
<!-- Node32 -->
<g id="node32" class="node"><title>Node32</title>
<g id="a_node32"><a xlink:href="../../dc/d65/classcommands_1_1_left_command.html#abd466facd4b16e1c04a6578b4bf8e203" target="_top" xlink:title="commands.LeftCommand.update\lTurtle">
<polygon fill="white" stroke="black" points="1132.5,-147 1132.5,-177 1311.5,-177 1311.5,-147 1132.5,-147"/>
<text text-anchor="start" x="1140.5" y="-165" font-family="Helvetica,sans-Serif" font-size="10.00">commands.LeftCommand.update</text>
<text text-anchor="middle" x="1222" y="-154" font-family="Helvetica,sans-Serif" font-size="10.00">Turtle</text>
</a>
</g>
</g>
<!-- Node6&#45;&gt;Node32 -->
<g id="edge31" class="edge"><title>Node6&#45;&gt;Node32</title>
<path fill="none" stroke="midnightblue" d="M990.344,-650.68C1004.28,-594.95 1038.51,-457.442 1066,-342 1082.48,-272.78 1050.99,-235.611 1102,-186 1110.54,-177.698 1121.1,-171.891 1132.38,-167.883"/>
<polygon fill="midnightblue" stroke="midnightblue" points="986.868,-650.154 987.836,-660.704 993.659,-651.853 986.868,-650.154"/>
</g>
<!-- Node33 -->
<g id="node33" class="node"><title>Node33</title>
<g id="a_node33"><a xlink:href="../../d6/ddc/classcommands_1_1_backward_command.html#af0c4c6ac04bea1aa34b069a01c53888f" target="_top" xlink:title="commands.BackwardCommand.update\lTurtle">
<polygon fill="white" stroke="black" points="1119,-98 1119,-128 1325,-128 1325,-98 1119,-98"/>
<text text-anchor="start" x="1127" y="-116" font-family="Helvetica,sans-Serif" font-size="10.00">commands.BackwardCommand.update</text>
<text text-anchor="middle" x="1222" y="-105" font-family="Helvetica,sans-Serif" font-size="10.00">Turtle</text>
</a>
</g>
</g>
<!-- Node6&#45;&gt;Node33 -->
<g id="edge32" class="edge"><title>Node6&#45;&gt;Node33</title>
<path fill="none" stroke="midnightblue" d="M990.804,-650.783C1005.65,-595.258 1041.58,-458.129 1066,-342 1085.04,-251.475 1037.42,-203.229 1102,-137 1106.93,-131.945 1112.61,-127.802 1118.75,-124.419"/>
<polygon fill="midnightblue" stroke="midnightblue" points="987.336,-650.204 988.126,-660.769 994.097,-652.018 987.336,-650.204"/>
</g>
<!-- Node34 -->
<g id="node34" class="node"><title>Node34</title>
<g id="a_node34"><a xlink:href="../../da/d4f/classcommands_1_1_forward_command.html#afe19b644a8fe0d46f3dbf19aef135364" target="_top" xlink:title="commands.ForwardCommand.update\lTurtle">
<polygon fill="white" stroke="black" points="1123,-49 1123,-79 1321,-79 1321,-49 1123,-49"/>
<text text-anchor="start" x="1131" y="-67" font-family="Helvetica,sans-Serif" font-size="10.00">commands.ForwardCommand.update</text>
<text text-anchor="middle" x="1222" y="-56" font-family="Helvetica,sans-Serif" font-size="10.00">Turtle</text>
</a>
</g>
</g>
<!-- Node6&#45;&gt;Node34 -->
<g id="edge33" class="edge"><title>Node6&#45;&gt;Node34</title>
<path fill="none" stroke="midnightblue" d="M991.093,-650.841C1006.51,-595.431 1043.5,-458.517 1066,-342 1076.81,-286.026 1062.88,-129.467 1102,-88 1107.93,-81.7146 1115.01,-76.8269 1122.73,-73.0504"/>
<polygon fill="midnightblue" stroke="midnightblue" points="987.628,-650.233 988.307,-660.806 994.37,-652.117 987.628,-650.233"/>
</g>
<!-- Node19 -->
<g id="node19" class="node"><title>Node19</title>
<g id="a_node19"><a xlink:href="../../d5/dad/classcommands_1_1_if_command.html#a0d92f20941c1e79cfb1e02e77f463e68" target="_top" xlink:title="commands.IfCommand.execute\lCommand">
<polygon fill="white" stroke="black" points="1378,-784 1378,-814 1548,-814 1548,-784 1378,-784"/>
<text text-anchor="start" x="1386" y="-802" font-family="Helvetica,sans-Serif" font-size="10.00">commands.IfCommand.execute</text>
<text text-anchor="middle" x="1463" y="-791" font-family="Helvetica,sans-Serif" font-size="10.00">Command</text>
</a>
</g>
</g>
<!-- Node18&#45;&gt;Node19 -->
<g id="edge18" class="edge"><title>Node18&#45;&gt;Node19</title>
<path fill="none" stroke="midnightblue" d="M1327.5,-799C1344.27,-799 1361.45,-799 1377.68,-799"/>
<polygon fill="midnightblue" stroke="midnightblue" points="1327.12,-795.5 1317.12,-799 1327.12,-802.5 1327.12,-795.5"/>
</g>
<!-- Node36 -->
<g id="node36" class="node"><title>Node36</title>
<g id="a_node36"><a xlink:href="../../d9/df7/classcontroller_1_1_controller.html#a81fea06b52aed0a26625c5b30b490afb" target="_top" xlink:title="controller.Controller.run\lCommand">
<polygon fill="white" stroke="black" points="1158,-0 1158,-30 1286,-30 1286,-0 1158,-0"/>
<text text-anchor="start" x="1166" y="-18" font-family="Helvetica,sans-Serif" font-size="10.00">controller.Controller.run</text>
<text text-anchor="middle" x="1222" y="-7" font-family="Helvetica,sans-Serif" font-size="10.00">Command</text>
</a>
</g>
</g>
<!-- Node35&#45;&gt;Node36 -->
<g id="edge35" class="edge"><title>Node35&#45;&gt;Node36</title>
<path fill="none" stroke="midnightblue" d="M1060.99,-307.773C1062.77,-306.312 1064.45,-304.725 1066,-303 1145.28,-215.038 1020.96,-125.35 1102,-39 1116.28,-23.7855 1137.31,-16.7492 1157.74,-13.8411"/>
<polygon fill="midnightblue" stroke="midnightblue" points="1058.97,-304.917 1052.62,-313.401 1062.87,-310.726 1058.97,-304.917"/>
</g>
<!-- Node37 -->
<g id="node37" class="node"><title>Node37</title>
<g id="a_node37"><a xlink:href="../../d9/df7/classcontroller_1_1_controller.html#afdfa7f9e9a3fb5f6b73a6b8e2b2be8b5" target="_top" xlink:title="controller.Controller.get\lInput">
<polygon fill="white" stroke="black" points="1399,-0 1399,-30 1527,-30 1527,-0 1399,-0"/>
<text text-anchor="start" x="1407" y="-18" font-family="Helvetica,sans-Serif" font-size="10.00">controller.Controller.get</text>
<text text-anchor="middle" x="1463" y="-7" font-family="Helvetica,sans-Serif" font-size="10.00">Input</text>
</a>
</g>
</g>
<!-- Node36&#45;&gt;Node37 -->
<g id="edge36" class="edge"><title>Node36&#45;&gt;Node37</title>
<path fill="none" stroke="midnightblue" d="M1296.11,-15C1328.98,-15 1367.38,-15 1398.95,-15"/>
<polygon fill="midnightblue" stroke="midnightblue" points="1296.11,-11.5001 1286.11,-15 1296.11,-18.5001 1296.11,-11.5001"/>
</g>
<!-- Node38 -->
<g id="node38" class="node"><title>Node38</title>
<g id="a_node38"><a xlink:href="../../d3/dc7/classview_1_1controllers_1_1_pane_controller.html#a7e6154aecb60d8f3bcb056a11e842764" target="_top" xlink:title="view.controllers.PaneController.update">
<polygon fill="white" stroke="black" points="1584,-5.5 1584,-24.5 1782,-24.5 1782,-5.5 1584,-5.5"/>
<text text-anchor="middle" x="1683" y="-12.5" font-family="Helvetica,sans-Serif" font-size="10.00">view.controllers.PaneController.update</text>
</a>
</g>
</g>
<!-- Node37&#45;&gt;Node38 -->
<g id="edge37" class="edge"><title>Node37&#45;&gt;Node38</title>
<path fill="none" stroke="midnightblue" d="M1537.22,-15C1552.16,-15 1568.11,-15 1583.76,-15"/>
<polygon fill="midnightblue" stroke="midnightblue" points="1537.05,-11.5001 1527.05,-15 1537.05,-18.5001 1537.05,-11.5001"/>
</g>
<!-- Node40 -->
<g id="node40" class="node"><title>Node40</title>
<g id="a_node40"><a xlink:href="../../d8/daa/classview_1_1panes_1_1_turtle_selector_pane.html#a14e3fbe35c7447dcdf2f0910333cedcc" target="_top" xlink:title="view.panes.TurtleSelector\lPane.TurtleSelectorPane">
<polygon fill="white" stroke="black" points="914.5,-264 914.5,-294 1051.5,-294 1051.5,-264 914.5,-264"/>
<text text-anchor="start" x="922.5" y="-282" font-family="Helvetica,sans-Serif" font-size="10.00">view.panes.TurtleSelector</text>
<text text-anchor="middle" x="983" y="-271" font-family="Helvetica,sans-Serif" font-size="10.00">Pane.TurtleSelectorPane</text>
</a>
</g>
</g>
<!-- Node39&#45;&gt;Node40 -->
<g id="edge39" class="edge"><title>Node39&#45;&gt;Node40</title>
<path fill="none" stroke="midnightblue" d="M874.43,-279C888.024,-279 901.688,-279 914.5,-279"/>
<polygon fill="midnightblue" stroke="midnightblue" points="874.062,-275.5 864.062,-279 874.062,-282.5 874.062,-275.5"/>
</g>
</g>
</svg>
