<?xml version="1.0" encoding="UTF-8" standalone="no"?>
<!DOCTYPE svg PUBLIC "-//W3C//DTD SVG 1.1//EN"
 "http://www.w3.org/Graphics/SVG/1.1/DTD/svg11.dtd">
<!-- Generated by graphviz version 2.36.0 (20140111.2315)
 -->
<!-- Title: model.Turtle.toRadians Pages: 1 -->
<svg width="562pt" height="87pt"
 viewBox="0.00 0.00 562.00 87.00" xmlns="http://www.w3.org/2000/svg" xmlns:xlink="http://www.w3.org/1999/xlink">
<g id="graph0" class="graph" transform="scale(1 1) rotate(0) translate(4 83)">
<title>model.Turtle.toRadians</title>
<polygon fill="white" stroke="none" points="-4,4 -4,-83 558,-83 558,4 -4,4"/>
<!-- Node1 -->
<g id="node1" class="node"><title>Node1</title>
<polygon fill="#bfbfbf" stroke="black" points="0.5,-29.5 0.5,-48.5 125.5,-48.5 125.5,-29.5 0.5,-29.5"/>
<text text-anchor="middle" x="63" y="-36.5" font-family="Helvetica,sans-Serif" font-size="10.00">model.Turtle.toRadians</text>
</g>
<!-- Node2 -->
<g id="node2" class="node"><title>Node2</title>
<g id="a_node2"><a xlink:href="../../d6/d34/classmodel_1_1_turtle.html#ad51e91eacea953766017f2311228ce89" target="_top" xlink:title="model.Turtle.updatePosition">
<polygon fill="white" stroke="black" points="162.5,-29.5 162.5,-48.5 311.5,-48.5 311.5,-29.5 162.5,-29.5"/>
<text text-anchor="middle" x="237" y="-36.5" font-family="Helvetica,sans-Serif" font-size="10.00">model.Turtle.updatePosition</text>
</a>
</g>
</g>
<!-- Node1&#45;&gt;Node2 -->
<g id="edge1" class="edge"><title>Node1&#45;&gt;Node2</title>
<path fill="none" stroke="midnightblue" d="M135.835,-39C144.644,-39 153.658,-39 162.491,-39"/>
<polygon fill="midnightblue" stroke="midnightblue" points="135.61,-35.5001 125.61,-39 135.61,-42.5001 135.61,-35.5001"/>
</g>
<!-- Node3 -->
<g id="node3" class="node"><title>Node3</title>
<g id="a_node3"><a xlink:href="../../d6/ddc/classcommands_1_1_backward_command.html#af0c4c6ac04bea1aa34b069a01c53888f" target="_top" xlink:title="commands.BackwardCommand.update\lTurtle">
<polygon fill="white" stroke="black" points="348,-49 348,-79 554,-79 554,-49 348,-49"/>
<text text-anchor="start" x="356" y="-67" font-family="Helvetica,sans-Serif" font-size="10.00">commands.BackwardCommand.update</text>
<text text-anchor="middle" x="451" y="-56" font-family="Helvetica,sans-Serif" font-size="10.00">Turtle</text>
</a>
</g>
</g>
<!-- Node2&#45;&gt;Node3 -->
<g id="edge2" class="edge"><title>Node2&#45;&gt;Node3</title>
<path fill="none" stroke="midnightblue" d="M321.565,-48.8544C330.189,-49.8713 339.02,-50.9127 347.816,-51.95"/>
<polygon fill="midnightblue" stroke="midnightblue" points="321.893,-45.3689 311.552,-47.6736 321.074,-52.3208 321.893,-45.3689"/>
</g>
<!-- Node4 -->
<g id="node4" class="node"><title>Node4</title>
<g id="a_node4"><a xlink:href="../../da/d4f/classcommands_1_1_forward_command.html#afe19b644a8fe0d46f3dbf19aef135364" target="_top" xlink:title="commands.ForwardCommand.update\lTurtle">
<polygon fill="white" stroke="black" points="352,-0 352,-30 550,-30 550,-0 352,-0"/>
<text text-anchor="start" x="360" y="-18" font-family="Helvetica,sans-Serif" font-size="10.00">commands.ForwardCommand.update</text>
<text text-anchor="middle" x="451" y="-7" font-family="Helvetica,sans-Serif" font-size="10.00">Turtle</text>
</a>
</g>
</g>
<!-- Node2&#45;&gt;Node4 -->
<g id="edge3" class="edge"><title>Node2&#45;&gt;Node4</title>
<path fill="none" stroke="midnightblue" d="M321.763,-29.5173C331.671,-28.3957 341.85,-27.2434 351.933,-26.1019"/>
<polygon fill="midnightblue" stroke="midnightblue" points="321.095,-26.0706 311.552,-30.6733 321.883,-33.0261 321.095,-26.0706"/>
</g>
</g>
</svg>
