<?xml version="1.0" encoding="UTF-8" standalone="no"?>
<!DOCTYPE svg PUBLIC "-//W3C//DTD SVG 1.1//EN"
 "http://www.w3.org/Graphics/SVG/1.1/DTD/svg11.dtd">
<!-- Generated by graphviz version 2.36.0 (20140111.2315)
 -->
<!-- Title: model.Turtle.setHeading Pages: 1 -->
<svg width="396pt" height="87pt"
 viewBox="0.00 0.00 396.00 87.00" xmlns="http://www.w3.org/2000/svg" xmlns:xlink="http://www.w3.org/1999/xlink">
<g id="graph0" class="graph" transform="scale(1 1) rotate(0) translate(4 83)">
<title>model.Turtle.setHeading</title>
<polygon fill="white" stroke="none" points="-4,4 -4,-83 392,-83 392,4 -4,4"/>
<!-- Node1 -->
<g id="node1" class="node"><title>Node1</title>
<polygon fill="#bfbfbf" stroke="black" points="0.5,-29.5 0.5,-48.5 133.5,-48.5 133.5,-29.5 0.5,-29.5"/>
<text text-anchor="middle" x="67" y="-36.5" font-family="Helvetica,sans-Serif" font-size="10.00">model.Turtle.setHeading</text>
</g>
<!-- Node2 -->
<g id="node2" class="node"><title>Node2</title>
<g id="a_node2"><a xlink:href="../../dc/db3/classcommands_1_1_set_heading_command.html#a064fae1a815349b9efc6bd43f2371339" target="_top" xlink:title="commands.SetHeadingCommand.update\lTurtle">
<polygon fill="white" stroke="black" points="170.5,-49 170.5,-79 387.5,-79 387.5,-49 170.5,-49"/>
<text text-anchor="start" x="178.5" y="-67" font-family="Helvetica,sans-Serif" font-size="10.00">commands.SetHeadingCommand.update</text>
<text text-anchor="middle" x="279" y="-56" font-family="Helvetica,sans-Serif" font-size="10.00">Turtle</text>
</a>
</g>
</g>
<!-- Node1&#45;&gt;Node2 -->
<g id="edge1" class="edge"><title>Node1&#45;&gt;Node2</title>
<path fill="none" stroke="midnightblue" d="M143.596,-47.9995C152.253,-49.0301 161.201,-50.0953 170.176,-51.1638"/>
<polygon fill="midnightblue" stroke="midnightblue" points="143.925,-44.5141 133.582,-46.8073 143.098,-51.465 143.925,-44.5141"/>
</g>
<!-- Node3 -->
<g id="node3" class="node"><title>Node3</title>
<g id="a_node3"><a xlink:href="../../dd/d40/classcommands_1_1_home_command.html#a5d6ef1bd5a451adbe74a3fb991aa079f" target="_top" xlink:title="commands.HomeCommand.update\lTurtle">
<polygon fill="white" stroke="black" points="184,-0 184,-30 374,-30 374,-0 184,-0"/>
<text text-anchor="start" x="192" y="-18" font-family="Helvetica,sans-Serif" font-size="10.00">commands.HomeCommand.update</text>
<text text-anchor="middle" x="279" y="-7" font-family="Helvetica,sans-Serif" font-size="10.00">Turtle</text>
</a>
</g>
</g>
<!-- Node1&#45;&gt;Node3 -->
<g id="edge2" class="edge"><title>Node1&#45;&gt;Node3</title>
<path fill="none" stroke="midnightblue" d="M143.805,-30.3365C156.746,-28.8576 170.33,-27.3052 183.68,-25.7794"/>
<polygon fill="midnightblue" stroke="midnightblue" points="143.119,-26.8921 133.582,-31.505 143.914,-33.8468 143.119,-26.8921"/>
</g>
</g>
</svg>
