<?xml version="1.0" encoding="UTF-8" standalone="no"?>
<!DOCTYPE svg PUBLIC "-//W3C//DTD SVG 1.1//EN"
 "http://www.w3.org/Graphics/SVG/1.1/DTD/svg11.dtd">
<!-- Generated by graphviz version 2.36.0 (20140111.2315)
 -->
<!-- Title: model.Turtle.changePen Pages: 1 -->
<svg width="312pt" height="66pt"
 viewBox="0.00 0.00 312.00 66.00" xmlns="http://www.w3.org/2000/svg" xmlns:xlink="http://www.w3.org/1999/xlink">
<g id="graph0" class="graph" transform="scale(1 1) rotate(0) translate(4 62)">
<title>model.Turtle.changePen</title>
<polygon fill="white" stroke="none" points="-4,4 -4,-62 308,-62 308,4 -4,4"/>
<!-- Node1 -->
<g id="node1" class="node"><title>Node1</title>
<polygon fill="#bfbfbf" stroke="black" points="0.5,-19.5 0.5,-38.5 131.5,-38.5 131.5,-19.5 0.5,-19.5"/>
<text text-anchor="middle" x="66" y="-26.5" font-family="Helvetica,sans-Serif" font-size="10.00">model.Turtle.changePen</text>
</g>
<!-- Node2 -->
<g id="node2" class="node"><title>Node2</title>
<g id="a_node2"><a xlink:href="../../de/ded/classmodel_1_1_pen.html#afad4fb3e51847cacab72c036ddaa108f" target="_top" xlink:title="model.Pen.getStatus">
<polygon fill="white" stroke="black" points="177,-38.5 177,-57.5 295,-57.5 295,-38.5 177,-38.5"/>
<text text-anchor="middle" x="236" y="-45.5" font-family="Helvetica,sans-Serif" font-size="10.00">model.Pen.getStatus</text>
</a>
</g>
</g>
<!-- Node1&#45;&gt;Node2 -->
<g id="edge1" class="edge"><title>Node1&#45;&gt;Node2</title>
<path fill="none" stroke="midnightblue" d="M131.953,-36.3459C143.38,-37.6382 155.302,-38.9866 166.814,-40.2885"/>
<polygon fill="midnightblue" stroke="midnightblue" points="166.472,-43.772 176.802,-41.418 167.258,-36.8163 166.472,-43.772"/>
</g>
<!-- Node3 -->
<g id="node3" class="node"><title>Node3</title>
<g id="a_node3"><a xlink:href="../../de/ded/classmodel_1_1_pen.html#a849a2fe88fc37fd44086d94e7d09a4c3" target="_top" xlink:title="model.Pen.setPenStatus">
<polygon fill="white" stroke="black" points="168.5,-0.5 168.5,-19.5 303.5,-19.5 303.5,-0.5 168.5,-0.5"/>
<text text-anchor="middle" x="236" y="-7.5" font-family="Helvetica,sans-Serif" font-size="10.00">model.Pen.setPenStatus</text>
</a>
</g>
</g>
<!-- Node1&#45;&gt;Node3 -->
<g id="edge2" class="edge"><title>Node1&#45;&gt;Node3</title>
<path fill="none" stroke="midnightblue" d="M131.953,-21.6541C140.514,-20.6859 149.354,-19.6861 158.091,-18.6981"/>
<polygon fill="midnightblue" stroke="midnightblue" points="158.733,-22.1478 168.277,-17.5461 157.947,-15.1921 158.733,-22.1478"/>
</g>
</g>
</svg>
