<?xml version="1.0" encoding="UTF-8" standalone="no"?>
<!DOCTYPE svg PUBLIC "-//W3C//DTD SVG 1.1//EN"
 "http://www.w3.org/Graphics/SVG/1.1/DTD/svg11.dtd">
<!-- Generated by graphviz version 2.36.0 (20140111.2315)
 -->
<!-- Title: model.Turtle.getID Pages: 1 -->
<svg width="1720pt" height="1361pt"
 viewBox="0.00 0.00 1720.00 1361.00" xmlns="http://www.w3.org/2000/svg" xmlns:xlink="http://www.w3.org/1999/xlink">
<g id="graph0" class="graph" transform="scale(1 1) rotate(0) translate(4 1357)">
<title>model.Turtle.getID</title>
<polygon fill="white" stroke="none" points="-4,4 -4,-1357 1716,-1357 1716,4 -4,4"/>
<!-- Node1 -->
<g id="node1" class="node"><title>Node1</title>
<polygon fill="#bfbfbf" stroke="black" points="0,-315.5 0,-334.5 104,-334.5 104,-315.5 0,-315.5"/>
<text text-anchor="middle" x="52" y="-322.5" font-family="Helvetica,sans-Serif" font-size="10.00">model.Turtle.getID</text>
</g>
<!-- Node2 -->
<g id="node2" class="node"><title>Node2</title>
<g id="a_node2"><a xlink:href="../../d9/dce/classcommands_1_1_i_d_command.html#a2a8914f441564332596790a640ebca58" target="_top" xlink:title="commands.IDCommand.execute\lCommand">
<polygon fill="white" stroke="black" points="146.5,-335 146.5,-365 321.5,-365 321.5,-335 146.5,-335"/>
<text text-anchor="start" x="154.5" y="-353" font-family="Helvetica,sans-Serif" font-size="10.00">commands.IDCommand.execute</text>
<text text-anchor="middle" x="234" y="-342" font-family="Helvetica,sans-Serif" font-size="10.00">Command</text>
</a>
</g>
</g>
<!-- Node1&#45;&gt;Node2 -->
<g id="edge1" class="edge"><title>Node1&#45;&gt;Node2</title>
<path fill="none" stroke="midnightblue" d="M114.235,-333.505C124.583,-334.942 135.499,-336.458 146.349,-337.965"/>
<polygon fill="midnightblue" stroke="midnightblue" points="114.486,-330.006 104.099,-332.097 113.523,-336.94 114.486,-330.006"/>
</g>
<!-- Node3 -->
<g id="node3" class="node"><title>Node3</title>
<g id="a_node3"><a xlink:href="../../db/db5/classview_1_1panes_1_1_view_pane_module.html#ab55ce3511929b88a2cd1235eb694868f" target="_top" xlink:title="view.panes.ViewPaneModule.update\lTurtle">
<polygon fill="white" stroke="black" points="140,-286 140,-316 328,-316 328,-286 140,-286"/>
<text text-anchor="start" x="148" y="-304" font-family="Helvetica,sans-Serif" font-size="10.00">view.panes.ViewPaneModule.update</text>
<text text-anchor="middle" x="234" y="-293" font-family="Helvetica,sans-Serif" font-size="10.00">Turtle</text>
</a>
</g>
</g>
<!-- Node1&#45;&gt;Node3 -->
<g id="edge2" class="edge"><title>Node1&#45;&gt;Node3</title>
<path fill="none" stroke="midnightblue" d="M114.062,-316.858C122.399,-315.747 131.106,-314.586 139.853,-313.42"/>
<polygon fill="midnightblue" stroke="midnightblue" points="113.549,-313.396 104.099,-318.187 114.474,-320.334 113.549,-313.396"/>
</g>
<!-- Node4 -->
<g id="node4" class="node"><title>Node4</title>
<g id="a_node4"><a xlink:href="../../db/db5/classview_1_1panes_1_1_view_pane_module.html#aa2a1bf15bc036ee4237bf63749d85baf" target="_top" xlink:title="view.panes.ViewPaneModule.updateView">
<polygon fill="white" stroke="black" points="364.5,-291.5 364.5,-310.5 573.5,-310.5 573.5,-291.5 364.5,-291.5"/>
<text text-anchor="middle" x="469" y="-298.5" font-family="Helvetica,sans-Serif" font-size="10.00">view.panes.ViewPaneModule.updateView</text>
</a>
</g>
</g>
<!-- Node3&#45;&gt;Node4 -->
<g id="edge3" class="edge"><title>Node3&#45;&gt;Node4</title>
<path fill="none" stroke="midnightblue" d="M338.215,-301C346.887,-301 355.658,-301 364.333,-301"/>
<polygon fill="midnightblue" stroke="midnightblue" points="338.092,-297.5 328.092,-301 338.092,-304.5 338.092,-297.5"/>
</g>
<!-- Node5 -->
<g id="node5" class="node"><title>Node5</title>
<g id="a_node5"><a xlink:href="../../d3/d42/classmodel_1_1_model.html#a76160d002c1e68b566307ac44356f6e5" target="_top" xlink:title="model.Model.notifyView">
<polygon fill="white" stroke="black" points="637.5,-313.5 637.5,-332.5 766.5,-332.5 766.5,-313.5 637.5,-313.5"/>
<text text-anchor="middle" x="702" y="-320.5" font-family="Helvetica,sans-Serif" font-size="10.00">model.Model.notifyView</text>
</a>
</g>
</g>
<!-- Node4&#45;&gt;Node5 -->
<g id="edge4" class="edge"><title>Node4&#45;&gt;Node5</title>
<path fill="none" stroke="midnightblue" d="M580.173,-311.493C599.729,-313.355 619.49,-315.237 637.206,-316.924"/>
<polygon fill="midnightblue" stroke="midnightblue" points="580.263,-307.986 569.976,-310.522 579.6,-314.954 580.263,-307.986"/>
</g>
<!-- Node39 -->
<g id="node39" class="node"><title>Node39</title>
<g id="a_node39"><a xlink:href="../../db/db5/classview_1_1panes_1_1_view_pane_module.html#a200bd9d0cb7f1fb3482afb7f085939cd" target="_top" xlink:title="view.panes.ViewPaneModule.toggle\lActive">
<polygon fill="white" stroke="black" points="610,-264 610,-294 794,-294 794,-264 610,-264"/>
<text text-anchor="start" x="618" y="-282" font-family="Helvetica,sans-Serif" font-size="10.00">view.panes.ViewPaneModule.toggle</text>
<text text-anchor="middle" x="702" y="-271" font-family="Helvetica,sans-Serif" font-size="10.00">Active</text>
</a>
</g>
</g>
<!-- Node4&#45;&gt;Node39 -->
<g id="edge38" class="edge"><title>Node4&#45;&gt;Node39</title>
<path fill="none" stroke="midnightblue" d="M579.986,-290.525C590.025,-289.569 600.12,-288.608 609.966,-287.67"/>
<polygon fill="midnightblue" stroke="midnightblue" points="579.6,-287.046 569.976,-291.478 580.263,-294.014 579.6,-287.046"/>
</g>
<!-- Node6 -->
<g id="node6" class="node"><title>Node6</title>
<g id="a_node6"><a xlink:href="../../dd/dd6/classcommands_1_1_command.html#abafa69601e87c34d4453cf84349d6f9c" target="_top" xlink:title="commands.Command.execute\lCommand">
<polygon fill="white" stroke="black" points="830.5,-661 830.5,-691 995.5,-691 995.5,-661 830.5,-661"/>
<text text-anchor="start" x="838.5" y="-679" font-family="Helvetica,sans-Serif" font-size="10.00">commands.Command.execute</text>
<text text-anchor="middle" x="913" y="-668" font-family="Helvetica,sans-Serif" font-size="10.00">Command</text>
</a>
</g>
</g>
<!-- Node5&#45;&gt;Node6 -->
<g id="edge5" class="edge"><title>Node5&#45;&gt;Node6</title>
<path fill="none" stroke="midnightblue" d="M713.99,-341.563C750.815,-403.76 869.416,-604.075 903.039,-660.865"/>
<polygon fill="midnightblue" stroke="midnightblue" points="716.914,-339.631 708.808,-332.81 710.891,-343.198 716.914,-339.631"/>
</g>
<!-- Node35 -->
<g id="node35" class="node"><title>Node35</title>
<g id="a_node35"><a xlink:href="../../d3/d42/classmodel_1_1_model.html#a73435cc7a2b6100031bbdd2cf6d6b4e8" target="_top" xlink:title="model.Model.updateModel">
<polygon fill="white" stroke="black" points="841.5,-313.5 841.5,-332.5 984.5,-332.5 984.5,-313.5 841.5,-313.5"/>
<text text-anchor="middle" x="913" y="-320.5" font-family="Helvetica,sans-Serif" font-size="10.00">model.Model.updateModel</text>
</a>
</g>
</g>
<!-- Node5&#45;&gt;Node35 -->
<g id="edge34" class="edge"><title>Node5&#45;&gt;Node35</title>
<path fill="none" stroke="midnightblue" d="M776.72,-323C797.752,-323 820.611,-323 841.45,-323"/>
<polygon fill="midnightblue" stroke="midnightblue" points="776.558,-319.5 766.558,-323 776.558,-326.5 776.558,-319.5"/>
</g>
<!-- Node7 -->
<g id="node7" class="node"><title>Node7</title>
<g id="a_node7"><a xlink:href="../../d1/d79/classcommands_1_1_sum_command.html#a792945436d0c3ff1f58301fcc50f5ae1" target="_top" xlink:title="commands.SumCommand.execute\lCommand">
<polygon fill="white" stroke="black" points="1058,-1323 1058,-1353 1246,-1353 1246,-1323 1058,-1323"/>
<text text-anchor="start" x="1066" y="-1341" font-family="Helvetica,sans-Serif" font-size="10.00">commands.SumCommand.execute</text>
<text text-anchor="middle" x="1152" y="-1330" font-family="Helvetica,sans-Serif" font-size="10.00">Command</text>
</a>
</g>
</g>
<!-- Node6&#45;&gt;Node7 -->
<g id="edge6" class="edge"><title>Node6&#45;&gt;Node7</title>
<path fill="none" stroke="midnightblue" d="M915.051,-701.444C920.011,-808.823 944.634,-1223.52 1032,-1313 1039.3,-1320.48 1048.23,-1326 1057.88,-1330.04"/>
<polygon fill="midnightblue" stroke="midnightblue" points="918.537,-701.061 914.596,-691.226 911.544,-701.372 918.537,-701.061"/>
</g>
<!-- Node8 -->
<g id="node8" class="node"><title>Node8</title>
<g id="a_node8"><a xlink:href="../../d6/dc0/classcommands_1_1_repeat_command.html#a40fb82831e8b2beaa7e31913e46e15eb" target="_top" xlink:title="commands.RepeatCommand.execute\lCommand">
<polygon fill="white" stroke="black" points="1053,-1274 1053,-1304 1251,-1304 1251,-1274 1053,-1274"/>
<text text-anchor="start" x="1061" y="-1292" font-family="Helvetica,sans-Serif" font-size="10.00">commands.RepeatCommand.execute</text>
<text text-anchor="middle" x="1152" y="-1281" font-family="Helvetica,sans-Serif" font-size="10.00">Command</text>
</a>
</g>
</g>
<!-- Node6&#45;&gt;Node8 -->
<g id="edge7" class="edge"><title>Node6&#45;&gt;Node8</title>
<path fill="none" stroke="midnightblue" d="M915.475,-701.431C921.924,-803.56 951.027,-1182.29 1032,-1264 1038.02,-1270.07 1045.11,-1274.85 1052.79,-1278.59"/>
<polygon fill="midnightblue" stroke="midnightblue" points="918.95,-700.909 914.844,-691.142 911.963,-701.338 918.95,-700.909"/>
</g>
<!-- Node9 -->
<g id="node9" class="node"><title>Node9</title>
<g id="a_node9"><a xlink:href="../../dd/d82/classcommands_1_1_remainder_command.html#a99d4baf3f1b4a3c8d0cd69274380a2cf" target="_top" xlink:title="commands.RemainderCommand.execute\lCommand">
<polygon fill="white" stroke="black" points="1044,-1225 1044,-1255 1260,-1255 1260,-1225 1044,-1225"/>
<text text-anchor="start" x="1052" y="-1243" font-family="Helvetica,sans-Serif" font-size="10.00">commands.RemainderCommand.execute</text>
<text text-anchor="middle" x="1152" y="-1232" font-family="Helvetica,sans-Serif" font-size="10.00">Command</text>
</a>
</g>
</g>
<!-- Node6&#45;&gt;Node9 -->
<g id="edge8" class="edge"><title>Node6&#45;&gt;Node9</title>
<path fill="none" stroke="midnightblue" d="M915.955,-701.181C923.95,-797.511 957.333,-1140.96 1032,-1215 1035.82,-1218.79 1040.06,-1222.07 1044.6,-1224.91"/>
<polygon fill="midnightblue" stroke="midnightblue" points="919.441,-700.858 915.143,-691.174 912.464,-701.424 919.441,-700.858"/>
</g>
<!-- Node10 -->
<g id="node10" class="node"><title>Node10</title>
<g id="a_node10"><a xlink:href="../../df/df5/classcommands_1_1_minus_command.html#a82548bbb25a73194469e1ff81b19cf27" target="_top" xlink:title="commands.MinusCommand.execute\lCommand">
<polygon fill="white" stroke="black" points="1055.5,-1176 1055.5,-1206 1248.5,-1206 1248.5,-1176 1055.5,-1176"/>
<text text-anchor="start" x="1063.5" y="-1194" font-family="Helvetica,sans-Serif" font-size="10.00">commands.MinusCommand.execute</text>
<text text-anchor="middle" x="1152" y="-1183" font-family="Helvetica,sans-Serif" font-size="10.00">Command</text>
</a>
</g>
</g>
<!-- Node6&#45;&gt;Node10 -->
<g id="edge9" class="edge"><title>Node6&#45;&gt;Node10</title>
<path fill="none" stroke="midnightblue" d="M916.552,-701.225C926.239,-791.929 963.689,-1099.66 1032,-1166 1038.74,-1172.54 1046.73,-1177.57 1055.34,-1181.41"/>
<polygon fill="midnightblue" stroke="midnightblue" points="920.032,-700.851 915.508,-691.27 913.07,-701.581 920.032,-700.851"/>
</g>
<!-- Node11 -->
<g id="node11" class="node"><title>Node11</title>
<g id="a_node11"><a xlink:href="../../d3/d37/classcommands_1_1_set_background_command.html#a91dc8e21948a301c55af1cef90b77962" target="_top" xlink:title="commands.SetBackgroundCommand.execute\lCommand">
<polygon fill="white" stroke="black" points="1032.5,-1127 1032.5,-1157 1271.5,-1157 1271.5,-1127 1032.5,-1127"/>
<text text-anchor="start" x="1040.5" y="-1145" font-family="Helvetica,sans-Serif" font-size="10.00">commands.SetBackgroundCommand.execute</text>
<text text-anchor="middle" x="1152" y="-1134" font-family="Helvetica,sans-Serif" font-size="10.00">Command</text>
</a>
</g>
</g>
<!-- Node6&#45;&gt;Node11 -->
<g id="edge10" class="edge"><title>Node6&#45;&gt;Node11</title>
<path fill="none" stroke="midnightblue" d="M917.262,-701.15C928.744,-785.787 969.98,-1058.26 1032,-1117 1035.99,-1120.77 1040.39,-1124.04 1045.08,-1126.86"/>
<polygon fill="midnightblue" stroke="midnightblue" points="920.717,-700.585 915.924,-691.137 913.779,-701.512 920.717,-700.585"/>
</g>
<!-- Node12 -->
<g id="node12" class="node"><title>Node12</title>
<g id="a_node12"><a xlink:href="../../d8/dba/classcommands_1_1_product_command.html#a8bc20bc7c21a944405f599dbcfa57e67" target="_top" xlink:title="commands.ProductCommand.execute\lCommand">
<polygon fill="white" stroke="black" points="1051,-1078 1051,-1108 1253,-1108 1253,-1078 1051,-1078"/>
<text text-anchor="start" x="1059" y="-1096" font-family="Helvetica,sans-Serif" font-size="10.00">commands.ProductCommand.execute</text>
<text text-anchor="middle" x="1152" y="-1085" font-family="Helvetica,sans-Serif" font-size="10.00">Command</text>
</a>
</g>
</g>
<!-- Node6&#45;&gt;Node12 -->
<g id="edge11" class="edge"><title>Node6&#45;&gt;Node12</title>
<path fill="none" stroke="midnightblue" d="M913.405,-701.275C913.233,-771.059 922.921,-967.852 1032,-1068 1037.6,-1073.14 1043.98,-1077.33 1050.8,-1080.73"/>
<polygon fill="midnightblue" stroke="midnightblue" points="916.906,-701.233 913.504,-691.2 909.906,-701.165 916.906,-701.233"/>
</g>
<!-- Node13 -->
<g id="node13" class="node"><title>Node13</title>
<g id="a_node13"><a xlink:href="../../dd/d40/classcommands_1_1_quotient_command.html#a7e23b237cc68512dcbe6a65feb7c39e8" target="_top" xlink:title="commands.QuotientCommand.execute\lCommand">
<polygon fill="white" stroke="black" points="1049,-1029 1049,-1059 1255,-1059 1255,-1029 1049,-1029"/>
<text text-anchor="start" x="1057" y="-1047" font-family="Helvetica,sans-Serif" font-size="10.00">commands.QuotientCommand.execute</text>
<text text-anchor="middle" x="1152" y="-1036" font-family="Helvetica,sans-Serif" font-size="10.00">Command</text>
</a>
</g>
</g>
<!-- Node6&#45;&gt;Node13 -->
<g id="edge12" class="edge"><title>Node6&#45;&gt;Node13</title>
<path fill="none" stroke="midnightblue" d="M914.674,-701.514C917.822,-765.487 935.36,-933.681 1032,-1019 1037.06,-1023.47 1042.72,-1027.21 1048.75,-1030.34"/>
<polygon fill="midnightblue" stroke="midnightblue" points="918.156,-701.007 914.249,-691.159 911.162,-701.294 918.156,-701.007"/>
</g>
<!-- Node14 -->
<g id="node14" class="node"><title>Node14</title>
<g id="a_node14"><a xlink:href="../../dc/d68/classcommands_1_1_make_variable_command.html#ad0e0974744cc969c12c67805c2460ef4" target="_top" xlink:title="commands.MakeVariableCommand.execute\lCommand">
<polygon fill="white" stroke="black" points="1037.5,-980 1037.5,-1010 1266.5,-1010 1266.5,-980 1037.5,-980"/>
<text text-anchor="start" x="1045.5" y="-998" font-family="Helvetica,sans-Serif" font-size="10.00">commands.MakeVariableCommand.execute</text>
<text text-anchor="middle" x="1152" y="-987" font-family="Helvetica,sans-Serif" font-size="10.00">Command</text>
</a>
</g>
</g>
<!-- Node6&#45;&gt;Node14 -->
<g id="edge13" class="edge"><title>Node6&#45;&gt;Node14</title>
<path fill="none" stroke="midnightblue" d="M916.268,-701.004C922.857,-758.166 947.294,-898.929 1032,-970 1036.53,-973.799 1041.49,-977.067 1046.73,-979.873"/>
<polygon fill="midnightblue" stroke="midnightblue" points="919.746,-700.607 915.205,-691.035 912.785,-701.35 919.746,-700.607"/>
</g>
<!-- Node15 -->
<g id="node15" class="node"><title>Node15</title>
<g id="a_node15"><a xlink:href="../../d8/ded/classcommands_1_1_difference_command.html#a0c34c43d3bb266ef3e48ae27be938a0f" target="_top" xlink:title="commands.DifferenceCommand.execute\lCommand">
<polygon fill="white" stroke="black" points="1045,-931 1045,-961 1259,-961 1259,-931 1045,-931"/>
<text text-anchor="start" x="1053" y="-949" font-family="Helvetica,sans-Serif" font-size="10.00">commands.DifferenceCommand.execute</text>
<text text-anchor="middle" x="1152" y="-938" font-family="Helvetica,sans-Serif" font-size="10.00">Command</text>
</a>
</g>
</g>
<!-- Node6&#45;&gt;Node15 -->
<g id="edge14" class="edge"><title>Node6&#45;&gt;Node15</title>
<path fill="none" stroke="midnightblue" d="M918.533,-701.294C928.941,-751.586 959.461,-864.176 1032,-921 1036.9,-924.84 1042.26,-928.128 1047.89,-930.938"/>
<polygon fill="midnightblue" stroke="midnightblue" points="921.927,-700.411 916.559,-691.276 915.059,-701.765 921.927,-700.411"/>
</g>
<!-- Node16 -->
<g id="node16" class="node"><title>Node16</title>
<g id="a_node16"><a xlink:href="../../dd/d29/classcommands_1_1_clear_screen_command.html#a87e5eb0f4c3bb48ec0737da2aa431db3" target="_top" xlink:title="commands.ClearScreenCommand.execute\lCommand">
<polygon fill="white" stroke="black" points="1040,-882 1040,-912 1264,-912 1264,-882 1040,-882"/>
<text text-anchor="start" x="1048" y="-900" font-family="Helvetica,sans-Serif" font-size="10.00">commands.ClearScreenCommand.execute</text>
<text text-anchor="middle" x="1152" y="-889" font-family="Helvetica,sans-Serif" font-size="10.00">Command</text>
</a>
</g>
</g>
<!-- Node6&#45;&gt;Node16 -->
<g id="edge15" class="edge"><title>Node6&#45;&gt;Node16</title>
<path fill="none" stroke="midnightblue" d="M921.566,-700.672C935.857,-742.893 970.99,-828.631 1032,-872 1037.42,-875.853 1043.31,-879.136 1049.47,-881.931"/>
<polygon fill="midnightblue" stroke="midnightblue" points="924.891,-699.579 918.454,-691.165 918.239,-701.757 924.891,-699.579"/>
</g>
<!-- Node17 -->
<g id="node17" class="node"><title>Node17</title>
<g id="a_node17"><a xlink:href="../../d9/d35/classcommands_1_1_ask_command.html#ae4ba28c73ce0b5112e4032bd21a951f5" target="_top" xlink:title="commands.AskCommand.execute\lCommand">
<polygon fill="white" stroke="black" points="1061,-833 1061,-863 1243,-863 1243,-833 1061,-833"/>
<text text-anchor="start" x="1069" y="-851" font-family="Helvetica,sans-Serif" font-size="10.00">commands.AskCommand.execute</text>
<text text-anchor="middle" x="1152" y="-840" font-family="Helvetica,sans-Serif" font-size="10.00">Command</text>
</a>
</g>
</g>
<!-- Node6&#45;&gt;Node17 -->
<g id="edge16" class="edge"><title>Node6&#45;&gt;Node17</title>
<path fill="none" stroke="midnightblue" d="M926.524,-700.426C944.923,-733.7 982.506,-792.605 1032,-823 1040.81,-828.413 1050.61,-832.67 1060.7,-836.015"/>
<polygon fill="midnightblue" stroke="midnightblue" points="929.47,-698.514 921.644,-691.373 923.309,-701.836 929.47,-698.514"/>
</g>
<!-- Node18 -->
<g id="node18" class="node"><title>Node18</title>
<g id="a_node18"><a xlink:href="../../d3/d49/classcommands_1_1_if_else_command.html#a3b3d15925117d366a69f8ebd1dbc2dbc" target="_top" xlink:title="commands.IfElseCommand.execute\lCommand">
<polygon fill="white" stroke="black" points="1057,-784 1057,-814 1247,-814 1247,-784 1057,-784"/>
<text text-anchor="start" x="1065" y="-802" font-family="Helvetica,sans-Serif" font-size="10.00">commands.IfElseCommand.execute</text>
<text text-anchor="middle" x="1152" y="-791" font-family="Helvetica,sans-Serif" font-size="10.00">Command</text>
</a>
</g>
</g>
<!-- Node6&#45;&gt;Node18 -->
<g id="edge17" class="edge"><title>Node6&#45;&gt;Node18</title>
<path fill="none" stroke="midnightblue" d="M934.734,-698.758C956.669,-721.389 993.392,-755.347 1032,-774 1040.08,-777.903 1048.75,-781.199 1057.61,-783.982"/>
<polygon fill="midnightblue" stroke="midnightblue" points="937.04,-696.105 927.613,-691.27 931.967,-700.928 937.04,-696.105"/>
</g>
<!-- Node20 -->
<g id="node20" class="node"><title>Node20</title>
<g id="a_node20"><a xlink:href="../../d8/d57/classcommands_1_1_for_command.html#aeb06a37d7f9845eb546425bae6ea9f58" target="_top" xlink:title="commands.ForCommand.execute\lCommand">
<polygon fill="white" stroke="black" points="1062,-735 1062,-765 1242,-765 1242,-735 1062,-735"/>
<text text-anchor="start" x="1070" y="-753" font-family="Helvetica,sans-Serif" font-size="10.00">commands.ForCommand.execute</text>
<text text-anchor="middle" x="1152" y="-742" font-family="Helvetica,sans-Serif" font-size="10.00">Command</text>
</a>
</g>
</g>
<!-- Node6&#45;&gt;Node20 -->
<g id="edge19" class="edge"><title>Node6&#45;&gt;Node20</title>
<path fill="none" stroke="midnightblue" d="M955.147,-695.308C977.506,-705.231 1005.86,-716.904 1032,-725 1044,-728.716 1056.85,-732.055 1069.5,-734.992"/>
<polygon fill="midnightblue" stroke="midnightblue" points="956.511,-692.084 945.955,-691.179 953.643,-698.47 956.511,-692.084"/>
</g>
<!-- Node21 -->
<g id="node21" class="node"><title>Node21</title>
<g id="a_node21"><a xlink:href="../../db/d38/classcommands_1_1_ask_with_command.html#a5ee6a090e94729d84ef423a454d446eb" target="_top" xlink:title="commands.AskWithCommand.execute\lCommand">
<polygon fill="white" stroke="black" points="1050.5,-686 1050.5,-716 1253.5,-716 1253.5,-686 1050.5,-686"/>
<text text-anchor="start" x="1058.5" y="-704" font-family="Helvetica,sans-Serif" font-size="10.00">commands.AskWithCommand.execute</text>
<text text-anchor="middle" x="1152" y="-693" font-family="Helvetica,sans-Serif" font-size="10.00">Command</text>
</a>
</g>
</g>
<!-- Node6&#45;&gt;Node21 -->
<g id="edge20" class="edge"><title>Node6&#45;&gt;Node21</title>
<path fill="none" stroke="midnightblue" d="M1005.62,-685.665C1020.3,-687.213 1035.56,-688.823 1050.44,-690.392"/>
<polygon fill="midnightblue" stroke="midnightblue" points="1005.87,-682.172 995.562,-684.604 1005.14,-689.133 1005.87,-682.172"/>
</g>
<!-- Node22 -->
<g id="node22" class="node"><title>Node22</title>
<g id="a_node22"><a xlink:href="../../d4/d02/classcommands_1_1_do_times_command.html#a1dd20e90975d905a1bce8f018e9f7f0a" target="_top" xlink:title="commands.DoTimesCommand.execute\lCommand">
<polygon fill="white" stroke="black" points="1048.5,-637 1048.5,-667 1255.5,-667 1255.5,-637 1048.5,-637"/>
<text text-anchor="start" x="1056.5" y="-655" font-family="Helvetica,sans-Serif" font-size="10.00">commands.DoTimesCommand.execute</text>
<text text-anchor="middle" x="1152" y="-644" font-family="Helvetica,sans-Serif" font-size="10.00">Command</text>
</a>
</g>
</g>
<!-- Node6&#45;&gt;Node22 -->
<g id="edge21" class="edge"><title>Node6&#45;&gt;Node22</title>
<path fill="none" stroke="midnightblue" d="M1005.64,-666.72C1019.63,-665.303 1034.15,-663.833 1048.35,-662.395"/>
<polygon fill="midnightblue" stroke="midnightblue" points="1005.16,-663.251 995.562,-667.741 1005.86,-670.215 1005.16,-663.251"/>
</g>
<!-- Node23 -->
<g id="node23" class="node"><title>Node23</title>
<g id="a_node23"><a xlink:href="../../dd/de4/classcommands_1_1_custom_command.html#a5ad25438a49d3e4eeba835fefe8b730a" target="_top" xlink:title="commands.CustomCommand.execute\lCommand">
<polygon fill="white" stroke="black" points="1050.5,-588 1050.5,-618 1253.5,-618 1253.5,-588 1050.5,-588"/>
<text text-anchor="start" x="1058.5" y="-606" font-family="Helvetica,sans-Serif" font-size="10.00">commands.CustomCommand.execute</text>
<text text-anchor="middle" x="1152" y="-595" font-family="Helvetica,sans-Serif" font-size="10.00">Command</text>
</a>
</g>
</g>
<!-- Node6&#45;&gt;Node23 -->
<g id="edge22" class="edge"><title>Node6&#45;&gt;Node23</title>
<path fill="none" stroke="midnightblue" d="M955.663,-656.916C977.959,-647.252 1006.09,-635.921 1032,-628 1044.11,-624.297 1057.08,-620.956 1069.85,-618.011"/>
<polygon fill="midnightblue" stroke="midnightblue" points="954.24,-653.719 946.489,-660.941 957.052,-660.129 954.24,-653.719"/>
</g>
<!-- Node24 -->
<g id="node24" class="node"><title>Node24</title>
<g id="a_node24"><a xlink:href="../../d6/daf/classcommands_1_1_set_shape_command.html#a59c440316cf9e732b5aa2f46def94e10" target="_top" xlink:title="commands.SetShapeCommand.update\lTurtle">
<polygon fill="white" stroke="black" points="1048,-539 1048,-569 1256,-569 1256,-539 1048,-539"/>
<text text-anchor="start" x="1056" y="-557" font-family="Helvetica,sans-Serif" font-size="10.00">commands.SetShapeCommand.update</text>
<text text-anchor="middle" x="1152" y="-546" font-family="Helvetica,sans-Serif" font-size="10.00">Turtle</text>
</a>
</g>
</g>
<!-- Node6&#45;&gt;Node24 -->
<g id="edge23" class="edge"><title>Node6&#45;&gt;Node24</title>
<path fill="none" stroke="midnightblue" d="M934.781,-653.48C956.754,-631.086 993.505,-597.479 1032,-579 1040.09,-575.117 1048.77,-571.835 1057.63,-569.06"/>
<polygon fill="midnightblue" stroke="midnightblue" points="932.061,-651.259 927.647,-660.891 937.104,-656.114 932.061,-651.259"/>
</g>
<!-- Node25 -->
<g id="node25" class="node"><title>Node25</title>
<g id="a_node25"><a xlink:href="../../d6/d11/classcommands_1_1_set_pen_dash_command.html#a320f3b8248e3e89b2338dfefbe73f8c7" target="_top" xlink:title="commands.SetPenDashCommand.update\lTurtle">
<polygon fill="white" stroke="black" points="1042,-490 1042,-520 1262,-520 1262,-490 1042,-490"/>
<text text-anchor="start" x="1050" y="-508" font-family="Helvetica,sans-Serif" font-size="10.00">commands.SetPenDashCommand.update</text>
<text text-anchor="middle" x="1152" y="-497" font-family="Helvetica,sans-Serif" font-size="10.00">Turtle</text>
</a>
</g>
</g>
<!-- Node6&#45;&gt;Node25 -->
<g id="edge24" class="edge"><title>Node6&#45;&gt;Node25</title>
<path fill="none" stroke="midnightblue" d="M926.568,-651.74C945.017,-618.692 982.66,-560.188 1032,-530 1038.3,-526.144 1045.11,-522.875 1052.16,-520.104"/>
<polygon fill="midnightblue" stroke="midnightblue" points="923.381,-650.275 921.673,-660.731 929.528,-653.622 923.381,-650.275"/>
</g>
<!-- Node26 -->
<g id="node26" class="node"><title>Node26</title>
<g id="a_node26"><a xlink:href="../../dc/df3/classcommands_1_1_set_towards_command.html#ad82abd7dcaed57b3bdb3a4b87a91815a" target="_top" xlink:title="commands.SetTowardsCommand.update\lTurtle">
<polygon fill="white" stroke="black" points="1044.5,-441 1044.5,-471 1259.5,-471 1259.5,-441 1044.5,-441"/>
<text text-anchor="start" x="1052.5" y="-459" font-family="Helvetica,sans-Serif" font-size="10.00">commands.SetTowardsCommand.update</text>
<text text-anchor="middle" x="1152" y="-448" font-family="Helvetica,sans-Serif" font-size="10.00">Turtle</text>
</a>
</g>
</g>
<!-- Node6&#45;&gt;Node26 -->
<g id="edge25" class="edge"><title>Node6&#45;&gt;Node26</title>
<path fill="none" stroke="midnightblue" d="M921.695,-651.184C936.101,-609.082 971.298,-524.047 1032,-481 1037.42,-477.153 1043.32,-473.875 1049.48,-471.083"/>
<polygon fill="midnightblue" stroke="midnightblue" points="918.295,-650.318 918.478,-660.911 924.941,-652.517 918.295,-650.318"/>
</g>
<!-- Node27 -->
<g id="node27" class="node"><title>Node27</title>
<g id="a_node27"><a xlink:href="../../d9/db5/classcommands_1_1_set_position_command.html#aba31c4887974831a6c0d9feac8316ee6" target="_top" xlink:title="commands.SetPositionCommand.update\lTurtle">
<polygon fill="white" stroke="black" points="1044.5,-392 1044.5,-422 1259.5,-422 1259.5,-392 1044.5,-392"/>
<text text-anchor="start" x="1052.5" y="-410" font-family="Helvetica,sans-Serif" font-size="10.00">commands.SetPositionCommand.update</text>
<text text-anchor="middle" x="1152" y="-399" font-family="Helvetica,sans-Serif" font-size="10.00">Turtle</text>
</a>
</g>
</g>
<!-- Node6&#45;&gt;Node27 -->
<g id="edge26" class="edge"><title>Node6&#45;&gt;Node27</title>
<path fill="none" stroke="midnightblue" d="M918.566,-650.807C929.034,-600.716 959.656,-488.578 1032,-432 1036.91,-428.163 1042.26,-424.879 1047.9,-422.071"/>
<polygon fill="midnightblue" stroke="midnightblue" points="915.1,-650.293 916.579,-660.784 921.965,-651.661 915.1,-650.293"/>
</g>
<!-- Node28 -->
<g id="node28" class="node"><title>Node28</title>
<g id="a_node28"><a xlink:href="../../dd/db2/classcommands_1_1_right_command.html#ae16ecb0da3e0a2049a7382d74f315cb6" target="_top" xlink:title="commands.RightCommand.update\lTurtle">
<polygon fill="white" stroke="black" points="1059.5,-343 1059.5,-373 1244.5,-373 1244.5,-343 1059.5,-343"/>
<text text-anchor="start" x="1067.5" y="-361" font-family="Helvetica,sans-Serif" font-size="10.00">commands.RightCommand.update</text>
<text text-anchor="middle" x="1152" y="-350" font-family="Helvetica,sans-Serif" font-size="10.00">Turtle</text>
</a>
</g>
</g>
<!-- Node6&#45;&gt;Node28 -->
<g id="edge27" class="edge"><title>Node6&#45;&gt;Node28</title>
<path fill="none" stroke="midnightblue" d="M916.344,-650.678C923.06,-593.452 947.698,-453.648 1032,-383 1040.01,-376.288 1049.37,-371.237 1059.26,-367.456"/>
<polygon fill="midnightblue" stroke="midnightblue" points="912.858,-650.353 915.257,-660.673 919.817,-651.11 912.858,-650.353"/>
</g>
<!-- Node29 -->
<g id="node29" class="node"><title>Node29</title>
<g id="a_node29"><a xlink:href="../../dc/db3/classcommands_1_1_set_heading_command.html#a064fae1a815349b9efc6bd43f2371339" target="_top" xlink:title="commands.SetHeadingCommand.update\lTurtle">
<polygon fill="white" stroke="black" points="1043.5,-294 1043.5,-324 1260.5,-324 1260.5,-294 1043.5,-294"/>
<text text-anchor="start" x="1051.5" y="-312" font-family="Helvetica,sans-Serif" font-size="10.00">commands.SetHeadingCommand.update</text>
<text text-anchor="middle" x="1152" y="-301" font-family="Helvetica,sans-Serif" font-size="10.00">Turtle</text>
</a>
</g>
</g>
<!-- Node6&#45;&gt;Node29 -->
<g id="edge28" class="edge"><title>Node6&#45;&gt;Node29</title>
<path fill="none" stroke="midnightblue" d="M914.633,-650.439C917.685,-586.357 935.017,-417.929 1032,-333 1035.88,-329.598 1040.12,-326.628 1044.59,-324.037"/>
<polygon fill="midnightblue" stroke="midnightblue" points="911.121,-650.682 914.223,-660.812 918.115,-650.958 911.121,-650.682"/>
</g>
<!-- Node30 -->
<g id="node30" class="node"><title>Node30</title>
<g id="a_node30"><a xlink:href="../../d2/dbb/classcommands_1_1_set_pen_size_command.html#aa8dbbb22c72842b2d6f50aa169a8404e" target="_top" xlink:title="commands.SetPenSizeCommand.update\lTurtle">
<polygon fill="white" stroke="black" points="1044.5,-245 1044.5,-275 1259.5,-275 1259.5,-245 1044.5,-245"/>
<text text-anchor="start" x="1052.5" y="-263" font-family="Helvetica,sans-Serif" font-size="10.00">commands.SetPenSizeCommand.update</text>
<text text-anchor="middle" x="1152" y="-252" font-family="Helvetica,sans-Serif" font-size="10.00">Turtle</text>
</a>
</g>
</g>
<!-- Node6&#45;&gt;Node30 -->
<g id="edge29" class="edge"><title>Node6&#45;&gt;Node30</title>
<path fill="none" stroke="midnightblue" d="M918.136,-650.831C931.519,-572.454 976.043,-334.962 1032,-284 1035.82,-280.523 1039.99,-277.492 1044.43,-274.853"/>
<polygon fill="midnightblue" stroke="midnightblue" points="914.667,-650.355 916.456,-660.798 921.569,-651.519 914.667,-650.355"/>
</g>
<!-- Node31 -->
<g id="node31" class="node"><title>Node31</title>
<g id="a_node31"><a xlink:href="../../d5/d21/classcommands_1_1_set_pen_color_command.html#a69a9c0161b8910c8fecc5ace219aeeb8" target="_top" xlink:title="commands.SetPenColorCommand.update\lTurtle">
<polygon fill="white" stroke="black" points="1042,-196 1042,-226 1262,-226 1262,-196 1042,-196"/>
<text text-anchor="start" x="1050" y="-214" font-family="Helvetica,sans-Serif" font-size="10.00">commands.SetPenColorCommand.update</text>
<text text-anchor="middle" x="1152" y="-203" font-family="Helvetica,sans-Serif" font-size="10.00">Turtle</text>
</a>
</g>
</g>
<!-- Node6&#45;&gt;Node31 -->
<g id="edge30" class="edge"><title>Node6&#45;&gt;Node31</title>
<path fill="none" stroke="midnightblue" d="M919.882,-651.156C941.516,-560.192 1016.23,-249.811 1032,-235 1035.61,-231.609 1039.56,-228.638 1043.76,-226.039"/>
<polygon fill="midnightblue" stroke="midnightblue" points="916.474,-650.359 917.569,-660.897 923.284,-651.977 916.474,-650.359"/>
</g>
<!-- Node32 -->
<g id="node32" class="node"><title>Node32</title>
<g id="a_node32"><a xlink:href="../../dc/d65/classcommands_1_1_left_command.html#abd466facd4b16e1c04a6578b4bf8e203" target="_top" xlink:title="commands.LeftCommand.update\lTurtle">
<polygon fill="white" stroke="black" points="1062.5,-147 1062.5,-177 1241.5,-177 1241.5,-147 1062.5,-147"/>
<text text-anchor="start" x="1070.5" y="-165" font-family="Helvetica,sans-Serif" font-size="10.00">commands.LeftCommand.update</text>
<text text-anchor="middle" x="1152" y="-154" font-family="Helvetica,sans-Serif" font-size="10.00">Turtle</text>
</a>
</g>
</g>
<!-- Node6&#45;&gt;Node32 -->
<g id="edge31" class="edge"><title>Node6&#45;&gt;Node32</title>
<path fill="none" stroke="midnightblue" d="M920.344,-650.68C934.28,-594.95 968.51,-457.442 996,-342 1012.48,-272.78 980.991,-235.611 1032,-186 1040.54,-177.698 1051.1,-171.891 1062.38,-167.883"/>
<polygon fill="midnightblue" stroke="midnightblue" points="916.868,-650.154 917.836,-660.704 923.659,-651.853 916.868,-650.154"/>
</g>
<!-- Node33 -->
<g id="node33" class="node"><title>Node33</title>
<g id="a_node33"><a xlink:href="../../d6/ddc/classcommands_1_1_backward_command.html#af0c4c6ac04bea1aa34b069a01c53888f" target="_top" xlink:title="commands.BackwardCommand.update\lTurtle">
<polygon fill="white" stroke="black" points="1049,-98 1049,-128 1255,-128 1255,-98 1049,-98"/>
<text text-anchor="start" x="1057" y="-116" font-family="Helvetica,sans-Serif" font-size="10.00">commands.BackwardCommand.update</text>
<text text-anchor="middle" x="1152" y="-105" font-family="Helvetica,sans-Serif" font-size="10.00">Turtle</text>
</a>
</g>
</g>
<!-- Node6&#45;&gt;Node33 -->
<g id="edge32" class="edge"><title>Node6&#45;&gt;Node33</title>
<path fill="none" stroke="midnightblue" d="M920.804,-650.783C935.651,-595.258 971.576,-458.129 996,-342 1015.04,-251.475 967.417,-203.229 1032,-137 1036.93,-131.945 1042.61,-127.802 1048.75,-124.419"/>
<polygon fill="midnightblue" stroke="midnightblue" points="917.336,-650.204 918.126,-660.769 924.097,-652.018 917.336,-650.204"/>
</g>
<!-- Node34 -->
<g id="node34" class="node"><title>Node34</title>
<g id="a_node34"><a xlink:href="../../da/d4f/classcommands_1_1_forward_command.html#afe19b644a8fe0d46f3dbf19aef135364" target="_top" xlink:title="commands.ForwardCommand.update\lTurtle">
<polygon fill="white" stroke="black" points="1053,-49 1053,-79 1251,-79 1251,-49 1053,-49"/>
<text text-anchor="start" x="1061" y="-67" font-family="Helvetica,sans-Serif" font-size="10.00">commands.ForwardCommand.update</text>
<text text-anchor="middle" x="1152" y="-56" font-family="Helvetica,sans-Serif" font-size="10.00">Turtle</text>
</a>
</g>
</g>
<!-- Node6&#45;&gt;Node34 -->
<g id="edge33" class="edge"><title>Node6&#45;&gt;Node34</title>
<path fill="none" stroke="midnightblue" d="M921.093,-650.841C936.511,-595.431 973.498,-458.517 996,-342 1006.81,-286.026 992.879,-129.467 1032,-88 1037.93,-81.7146 1045.01,-76.8269 1052.73,-73.0504"/>
<polygon fill="midnightblue" stroke="midnightblue" points="917.628,-650.233 918.307,-660.806 924.37,-652.117 917.628,-650.233"/>
</g>
<!-- Node19 -->
<g id="node19" class="node"><title>Node19</title>
<g id="a_node19"><a xlink:href="../../d5/dad/classcommands_1_1_if_command.html#a0d92f20941c1e79cfb1e02e77f463e68" target="_top" xlink:title="commands.IfCommand.execute\lCommand">
<polygon fill="white" stroke="black" points="1308,-784 1308,-814 1478,-814 1478,-784 1308,-784"/>
<text text-anchor="start" x="1316" y="-802" font-family="Helvetica,sans-Serif" font-size="10.00">commands.IfCommand.execute</text>
<text text-anchor="middle" x="1393" y="-791" font-family="Helvetica,sans-Serif" font-size="10.00">Command</text>
</a>
</g>
</g>
<!-- Node18&#45;&gt;Node19 -->
<g id="edge18" class="edge"><title>Node18&#45;&gt;Node19</title>
<path fill="none" stroke="midnightblue" d="M1257.5,-799C1274.27,-799 1291.45,-799 1307.68,-799"/>
<polygon fill="midnightblue" stroke="midnightblue" points="1257.12,-795.5 1247.12,-799 1257.12,-802.5 1257.12,-795.5"/>
</g>
<!-- Node36 -->
<g id="node36" class="node"><title>Node36</title>
<g id="a_node36"><a xlink:href="../../d9/df7/classcontroller_1_1_controller.html#a81fea06b52aed0a26625c5b30b490afb" target="_top" xlink:title="controller.Controller.run\lCommand">
<polygon fill="white" stroke="black" points="1088,-0 1088,-30 1216,-30 1216,-0 1088,-0"/>
<text text-anchor="start" x="1096" y="-18" font-family="Helvetica,sans-Serif" font-size="10.00">controller.Controller.run</text>
<text text-anchor="middle" x="1152" y="-7" font-family="Helvetica,sans-Serif" font-size="10.00">Command</text>
</a>
</g>
</g>
<!-- Node35&#45;&gt;Node36 -->
<g id="edge35" class="edge"><title>Node35&#45;&gt;Node36</title>
<path fill="none" stroke="midnightblue" d="M990.993,-307.773C992.77,-306.312 994.446,-304.725 996,-303 1075.28,-215.038 950.965,-125.35 1032,-39 1046.28,-23.7855 1067.31,-16.7492 1087.74,-13.8411"/>
<polygon fill="midnightblue" stroke="midnightblue" points="988.968,-304.917 982.623,-313.401 992.874,-310.726 988.968,-304.917"/>
</g>
<!-- Node37 -->
<g id="node37" class="node"><title>Node37</title>
<g id="a_node37"><a xlink:href="../../d9/df7/classcontroller_1_1_controller.html#afdfa7f9e9a3fb5f6b73a6b8e2b2be8b5" target="_top" xlink:title="controller.Controller.get\lInput">
<polygon fill="white" stroke="black" points="1329,-0 1329,-30 1457,-30 1457,-0 1329,-0"/>
<text text-anchor="start" x="1337" y="-18" font-family="Helvetica,sans-Serif" font-size="10.00">controller.Controller.get</text>
<text text-anchor="middle" x="1393" y="-7" font-family="Helvetica,sans-Serif" font-size="10.00">Input</text>
</a>
</g>
</g>
<!-- Node36&#45;&gt;Node37 -->
<g id="edge36" class="edge"><title>Node36&#45;&gt;Node37</title>
<path fill="none" stroke="midnightblue" d="M1226.11,-15C1258.98,-15 1297.38,-15 1328.95,-15"/>
<polygon fill="midnightblue" stroke="midnightblue" points="1226.11,-11.5001 1216.11,-15 1226.11,-18.5001 1226.11,-11.5001"/>
</g>
<!-- Node38 -->
<g id="node38" class="node"><title>Node38</title>
<g id="a_node38"><a xlink:href="../../d3/dc7/classview_1_1controllers_1_1_pane_controller.html#a7e6154aecb60d8f3bcb056a11e842764" target="_top" xlink:title="view.controllers.PaneController.update">
<polygon fill="white" stroke="black" points="1514,-5.5 1514,-24.5 1712,-24.5 1712,-5.5 1514,-5.5"/>
<text text-anchor="middle" x="1613" y="-12.5" font-family="Helvetica,sans-Serif" font-size="10.00">view.controllers.PaneController.update</text>
</a>
</g>
</g>
<!-- Node37&#45;&gt;Node38 -->
<g id="edge37" class="edge"><title>Node37&#45;&gt;Node38</title>
<path fill="none" stroke="midnightblue" d="M1467.22,-15C1482.16,-15 1498.11,-15 1513.76,-15"/>
<polygon fill="midnightblue" stroke="midnightblue" points="1467.05,-11.5001 1457.05,-15 1467.05,-18.5001 1467.05,-11.5001"/>
</g>
<!-- Node40 -->
<g id="node40" class="node"><title>Node40</title>
<g id="a_node40"><a xlink:href="../../d8/daa/classview_1_1panes_1_1_turtle_selector_pane.html#a14e3fbe35c7447dcdf2f0910333cedcc" target="_top" xlink:title="view.panes.TurtleSelector\lPane.TurtleSelectorPane">
<polygon fill="white" stroke="black" points="844.5,-264 844.5,-294 981.5,-294 981.5,-264 844.5,-264"/>
<text text-anchor="start" x="852.5" y="-282" font-family="Helvetica,sans-Serif" font-size="10.00">view.panes.TurtleSelector</text>
<text text-anchor="middle" x="913" y="-271" font-family="Helvetica,sans-Serif" font-size="10.00">Pane.TurtleSelectorPane</text>
</a>
</g>
</g>
<!-- Node39&#45;&gt;Node40 -->
<g id="edge39" class="edge"><title>Node39&#45;&gt;Node40</title>
<path fill="none" stroke="midnightblue" d="M804.43,-279C818.024,-279 831.688,-279 844.5,-279"/>
<polygon fill="midnightblue" stroke="midnightblue" points="804.062,-275.5 794.062,-279 804.062,-282.5 804.062,-275.5"/>
</g>
</g>
</svg>
