<?xml version="1.0" encoding="UTF-8" standalone="no"?>
<!DOCTYPE svg PUBLIC "-//W3C//DTD SVG 1.1//EN"
 "http://www.w3.org/Graphics/SVG/1.1/DTD/svg11.dtd">
<!-- Generated by graphviz version 2.36.0 (20140111.2315)
 -->
<!-- Title: model.Turtle.getShape Pages: 1 -->
<!--zoomable 1361 -->
<svg id="main" version="1.1" xmlns="http://www.w3.org/2000/svg" xmlns:xlink="http://www.w3.org/1999/xlink" xml:space="preserve" onload="init(evt)">
<style type="text/css"><![CDATA[
.edge:hover path { stroke: red; }
.edge:hover polygon { stroke: red; fill: red; }
]]></style>
<script type="text/javascript"><![CDATA[
var edges = document.getElementsByTagName('g');
if (edges && edges.length) {
  for (var i=0;i<edges.length;i++) {
    if (edges[i].id.substr(0,4)=='edge') {
      edges[i].setAttribute('class','edge');
    }
  }
}
]]></script>
        <defs>
                <circle id="rim" cx="0" cy="0" r="7"/>
                <circle id="rim2" cx="0" cy="0" r="3.5"/>
                <g id="zoomPlus">
                        <use xlink:href="#rim" fill="#404040">
                                <set attributeName="fill" to="#808080" begin="zoomplus.mouseover" end="zoomplus.mouseout"/>
                        </use>
                        <path d="M-4,0h8M0,-4v8" fill="none" stroke="white" stroke-width="1.5" pointer-events="none"/>
                </g>
                <g id="zoomMin">
                        <use xlink:href="#rim" fill="#404040">
                                <set attributeName="fill" to="#808080" begin="zoomminus.mouseover" end="zoomminus.mouseout"/>
                        </use>
                        <path d="M-4,0h8" fill="none" stroke="white" stroke-width="1.5" pointer-events="none"/>
                </g>
                <g id="dirArrow">
                        <path fill="none" stroke="white" stroke-width="1.5" d="M0,-3.0v7 M-2.5,-0.5L0,-3.0L2.5,-0.5"/>
                </g>
               <g id="resetDef">
                       <use xlink:href="#rim2" fill="#404040">
                               <set attributeName="fill" to="#808080" begin="reset.mouseover" end="reset.mouseout"/>
                       </use>
               </g>
        </defs>

<script type="text/javascript">
var viewWidth = 1992;
var viewHeight = 1361;
var sectionId = 'dynsection-19';
</script>
<script xlink:href="../../svgpan.js"/>
<svg id="graph" class="graph">
<g id="viewport">
<title>model.Turtle.getShape</title>
<polygon fill="white" stroke="none" points="-4,4 -4,-1357 1988,-1357 1988,4 -4,4"/>
<!-- Node1 -->
<g id="node1" class="node"><title>Node1</title>
<polygon fill="#bfbfbf" stroke="black" points="0.5,-270.5 0.5,-289.5 125.5,-289.5 125.5,-270.5 0.5,-270.5"/>
<text text-anchor="middle" x="63" y="-277.5" font-family="Helvetica,sans-Serif" font-size="10.00">model.Turtle.getShape</text>
</g>
<!-- Node2 -->
<g id="node2" class="node"><title>Node2</title>
<g id="a_node2"><a xlink:href="../../d7/da6/classview_1_1_turtle_draw.html#a939f4fdbdb66457c9dcee82eb4ae6d9c" target="_top" xlink:title="view.TurtleDraw.drawTurtle">
<polygon fill="white" stroke="black" points="199.5,-292.5 199.5,-311.5 338.5,-311.5 338.5,-292.5 199.5,-292.5"/>
<text text-anchor="middle" x="269" y="-299.5" font-family="Helvetica,sans-Serif" font-size="10.00">view.TurtleDraw.drawTurtle</text>
</a>
</g>
</g>
<!-- Node1&#45;&gt;Node2 -->
<g id="edge1" class="edge"><title>Node1&#45;&gt;Node2</title>
<path fill="none" stroke="midnightblue" d="M135.736,-287.736C156.388,-289.963 178.861,-292.387 199.324,-294.594"/>
<polygon fill="midnightblue" stroke="midnightblue" points="136.078,-284.253 125.76,-286.66 135.327,-291.213 136.078,-284.253"/>
</g>
<!-- Node42 -->
<g id="node42" class="node"><title>Node42</title>
<g id="a_node42"><a xlink:href="../../df/d59/classcommands_1_1_get_shape_command.html#a0403bbf22c64cbc96b97787ea28259ce" target="_top" xlink:title="commands.GetShapeCommand.execute\lCommand">
<polygon fill="white" stroke="black" points="162.5,-243 162.5,-273 375.5,-273 375.5,-243 162.5,-243"/>
<text text-anchor="start" x="170.5" y="-261" font-family="Helvetica,sans-Serif" font-size="10.00">commands.GetShapeCommand.execute</text>
<text text-anchor="middle" x="269" y="-250" font-family="Helvetica,sans-Serif" font-size="10.00">Command</text>
</a>
</g>
</g>
<!-- Node1&#45;&gt;Node42 -->
<g id="edge42" class="edge"><title>Node1&#45;&gt;Node42</title>
<path fill="none" stroke="midnightblue" d="M135.736,-272.264C144.372,-271.332 153.327,-270.367 162.32,-269.397"/>
<polygon fill="midnightblue" stroke="midnightblue" points="135.327,-268.787 125.76,-273.34 136.078,-275.747 135.327,-268.787"/>
</g>
<!-- Node3 -->
<g id="node3" class="node"><title>Node3</title>
<g id="a_node3"><a xlink:href="../../db/db5/classview_1_1panes_1_1_view_pane_module.html#a44db6ae832af3ce470baa9406142b8cb" target="_top" xlink:title="view.panes.ViewPaneModule.make\lStamps">
<polygon fill="white" stroke="black" points="415.5,-311 415.5,-341 596.5,-341 596.5,-311 415.5,-311"/>
<text text-anchor="start" x="423.5" y="-329" font-family="Helvetica,sans-Serif" font-size="10.00">view.panes.ViewPaneModule.make</text>
<text text-anchor="middle" x="506" y="-318" font-family="Helvetica,sans-Serif" font-size="10.00">Stamps</text>
</a>
</g>
</g>
<!-- Node2&#45;&gt;Node3 -->
<g id="edge2" class="edge"><title>Node2&#45;&gt;Node3</title>
<path fill="none" stroke="midnightblue" d="M348.611,-310.028C370.009,-312.214 393.347,-314.597 415.309,-316.84"/>
<polygon fill="midnightblue" stroke="midnightblue" points="348.907,-306.541 338.603,-309.006 348.196,-313.504 348.907,-306.541"/>
</g>
<!-- Node41 -->
<g id="node41" class="node"><title>Node41</title>
<g id="a_node41"><a xlink:href="../../db/db5/classview_1_1panes_1_1_view_pane_module.html#ab55ce3511929b88a2cd1235eb694868f" target="_top" xlink:title="view.panes.ViewPaneModule.update\lTurtle">
<polygon fill="white" stroke="black" points="412,-262 412,-292 600,-292 600,-262 412,-262"/>
<text text-anchor="start" x="420" y="-280" font-family="Helvetica,sans-Serif" font-size="10.00">view.panes.ViewPaneModule.update</text>
<text text-anchor="middle" x="506" y="-269" font-family="Helvetica,sans-Serif" font-size="10.00">Turtle</text>
</a>
</g>
</g>
<!-- Node2&#45;&gt;Node41 -->
<g id="edge40" class="edge"><title>Node2&#45;&gt;Node41</title>
<path fill="none" stroke="midnightblue" d="M348.706,-293.627C368.958,-291.473 390.941,-289.134 411.849,-286.91"/>
<polygon fill="midnightblue" stroke="midnightblue" points="348.177,-290.163 338.603,-294.702 348.918,-297.124 348.177,-290.163"/>
</g>
<!-- Node4 -->
<g id="node4" class="node"><title>Node4</title>
<g id="a_node4"><a xlink:href="../../db/db5/classview_1_1panes_1_1_view_pane_module.html#aa2a1bf15bc036ee4237bf63749d85baf" target="_top" xlink:title="view.panes.ViewPaneModule.updateView">
<polygon fill="white" stroke="black" points="636.5,-291.5 636.5,-310.5 845.5,-310.5 845.5,-291.5 636.5,-291.5"/>
<text text-anchor="middle" x="741" y="-298.5" font-family="Helvetica,sans-Serif" font-size="10.00">view.panes.ViewPaneModule.updateView</text>
</a>
</g>
</g>
<!-- Node3&#45;&gt;Node4 -->
<g id="edge3" class="edge"><title>Node3&#45;&gt;Node4</title>
<path fill="none" stroke="midnightblue" d="M606.928,-315.278C621.731,-313.69 636.899,-312.062 651.448,-310.501"/>
<polygon fill="midnightblue" stroke="midnightblue" points="606.32,-311.823 596.751,-316.37 607.067,-318.783 606.32,-311.823"/>
</g>
<!-- Node5 -->
<g id="node5" class="node"><title>Node5</title>
<g id="a_node5"><a xlink:href="../../d3/d42/classmodel_1_1_model.html#a76160d002c1e68b566307ac44356f6e5" target="_top" xlink:title="model.Model.notifyView">
<polygon fill="white" stroke="black" points="909.5,-313.5 909.5,-332.5 1038.5,-332.5 1038.5,-313.5 909.5,-313.5"/>
<text text-anchor="middle" x="974" y="-320.5" font-family="Helvetica,sans-Serif" font-size="10.00">model.Model.notifyView</text>
</a>
</g>
</g>
<!-- Node4&#45;&gt;Node5 -->
<g id="edge4" class="edge"><title>Node4&#45;&gt;Node5</title>
<path fill="none" stroke="midnightblue" d="M852.173,-311.493C871.729,-313.355 891.49,-315.237 909.206,-316.924"/>
<polygon fill="midnightblue" stroke="midnightblue" points="852.263,-307.986 841.976,-310.522 851.6,-314.954 852.263,-307.986"/>
</g>
<!-- Node39 -->
<g id="node39" class="node"><title>Node39</title>
<g id="a_node39"><a xlink:href="../../db/db5/classview_1_1panes_1_1_view_pane_module.html#a200bd9d0cb7f1fb3482afb7f085939cd" target="_top" xlink:title="view.panes.ViewPaneModule.toggle\lActive">
<polygon fill="white" stroke="black" points="882,-264 882,-294 1066,-294 1066,-264 882,-264"/>
<text text-anchor="start" x="890" y="-282" font-family="Helvetica,sans-Serif" font-size="10.00">view.panes.ViewPaneModule.toggle</text>
<text text-anchor="middle" x="974" y="-271" font-family="Helvetica,sans-Serif" font-size="10.00">Active</text>
</a>
</g>
</g>
<!-- Node4&#45;&gt;Node39 -->
<g id="edge38" class="edge"><title>Node4&#45;&gt;Node39</title>
<path fill="none" stroke="midnightblue" d="M851.986,-290.525C862.025,-289.569 872.12,-288.608 881.966,-287.67"/>
<polygon fill="midnightblue" stroke="midnightblue" points="851.6,-287.046 841.976,-291.478 852.263,-294.014 851.6,-287.046"/>
</g>
<!-- Node6 -->
<g id="node6" class="node"><title>Node6</title>
<g id="a_node6"><a xlink:href="../../dd/dd6/classcommands_1_1_command.html#abafa69601e87c34d4453cf84349d6f9c" target="_top" xlink:title="commands.Command.execute\lCommand">
<polygon fill="white" stroke="black" points="1102.5,-661 1102.5,-691 1267.5,-691 1267.5,-661 1102.5,-661"/>
<text text-anchor="start" x="1110.5" y="-679" font-family="Helvetica,sans-Serif" font-size="10.00">commands.Command.execute</text>
<text text-anchor="middle" x="1185" y="-668" font-family="Helvetica,sans-Serif" font-size="10.00">Command</text>
</a>
</g>
</g>
<!-- Node5&#45;&gt;Node6 -->
<g id="edge5" class="edge"><title>Node5&#45;&gt;Node6</title>
<path fill="none" stroke="midnightblue" d="M985.99,-341.563C1022.82,-403.76 1141.42,-604.075 1175.04,-660.865"/>
<polygon fill="midnightblue" stroke="midnightblue" points="988.914,-339.631 980.808,-332.81 982.891,-343.198 988.914,-339.631"/>
</g>
<!-- Node35 -->
<g id="node35" class="node"><title>Node35</title>
<g id="a_node35"><a xlink:href="../../d3/d42/classmodel_1_1_model.html#a73435cc7a2b6100031bbdd2cf6d6b4e8" target="_top" xlink:title="model.Model.updateModel">
<polygon fill="white" stroke="black" points="1113.5,-313.5 1113.5,-332.5 1256.5,-332.5 1256.5,-313.5 1113.5,-313.5"/>
<text text-anchor="middle" x="1185" y="-320.5" font-family="Helvetica,sans-Serif" font-size="10.00">model.Model.updateModel</text>
</a>
</g>
</g>
<!-- Node5&#45;&gt;Node35 -->
<g id="edge34" class="edge"><title>Node5&#45;&gt;Node35</title>
<path fill="none" stroke="midnightblue" d="M1048.72,-323C1069.75,-323 1092.61,-323 1113.45,-323"/>
<polygon fill="midnightblue" stroke="midnightblue" points="1048.56,-319.5 1038.56,-323 1048.56,-326.5 1048.56,-319.5"/>
</g>
<!-- Node7 -->
<g id="node7" class="node"><title>Node7</title>
<g id="a_node7"><a xlink:href="../../d1/d79/classcommands_1_1_sum_command.html#a792945436d0c3ff1f58301fcc50f5ae1" target="_top" xlink:title="commands.SumCommand.execute\lCommand">
<polygon fill="white" stroke="black" points="1330,-1323 1330,-1353 1518,-1353 1518,-1323 1330,-1323"/>
<text text-anchor="start" x="1338" y="-1341" font-family="Helvetica,sans-Serif" font-size="10.00">commands.SumCommand.execute</text>
<text text-anchor="middle" x="1424" y="-1330" font-family="Helvetica,sans-Serif" font-size="10.00">Command</text>
</a>
</g>
</g>
<!-- Node6&#45;&gt;Node7 -->
<g id="edge6" class="edge"><title>Node6&#45;&gt;Node7</title>
<path fill="none" stroke="midnightblue" d="M1187.05,-701.444C1192.01,-808.823 1216.63,-1223.52 1304,-1313 1311.3,-1320.48 1320.23,-1326 1329.88,-1330.04"/>
<polygon fill="midnightblue" stroke="midnightblue" points="1190.54,-701.061 1186.6,-691.226 1183.54,-701.372 1190.54,-701.061"/>
</g>
<!-- Node8 -->
<g id="node8" class="node"><title>Node8</title>
<g id="a_node8"><a xlink:href="../../d6/dc0/classcommands_1_1_repeat_command.html#a40fb82831e8b2beaa7e31913e46e15eb" target="_top" xlink:title="commands.RepeatCommand.execute\lCommand">
<polygon fill="white" stroke="black" points="1325,-1274 1325,-1304 1523,-1304 1523,-1274 1325,-1274"/>
<text text-anchor="start" x="1333" y="-1292" font-family="Helvetica,sans-Serif" font-size="10.00">commands.RepeatCommand.execute</text>
<text text-anchor="middle" x="1424" y="-1281" font-family="Helvetica,sans-Serif" font-size="10.00">Command</text>
</a>
</g>
</g>
<!-- Node6&#45;&gt;Node8 -->
<g id="edge7" class="edge"><title>Node6&#45;&gt;Node8</title>
<path fill="none" stroke="midnightblue" d="M1187.48,-701.431C1193.92,-803.56 1223.03,-1182.29 1304,-1264 1310.02,-1270.07 1317.11,-1274.85 1324.79,-1278.59"/>
<polygon fill="midnightblue" stroke="midnightblue" points="1190.95,-700.909 1186.84,-691.142 1183.96,-701.338 1190.95,-700.909"/>
</g>
<!-- Node9 -->
<g id="node9" class="node"><title>Node9</title>
<g id="a_node9"><a xlink:href="../../dd/d82/classcommands_1_1_remainder_command.html#a99d4baf3f1b4a3c8d0cd69274380a2cf" target="_top" xlink:title="commands.RemainderCommand.execute\lCommand">
<polygon fill="white" stroke="black" points="1316,-1225 1316,-1255 1532,-1255 1532,-1225 1316,-1225"/>
<text text-anchor="start" x="1324" y="-1243" font-family="Helvetica,sans-Serif" font-size="10.00">commands.RemainderCommand.execute</text>
<text text-anchor="middle" x="1424" y="-1232" font-family="Helvetica,sans-Serif" font-size="10.00">Command</text>
</a>
</g>
</g>
<!-- Node6&#45;&gt;Node9 -->
<g id="edge8" class="edge"><title>Node6&#45;&gt;Node9</title>
<path fill="none" stroke="midnightblue" d="M1187.96,-701.181C1195.95,-797.511 1229.33,-1140.96 1304,-1215 1307.82,-1218.79 1312.06,-1222.07 1316.6,-1224.91"/>
<polygon fill="midnightblue" stroke="midnightblue" points="1191.44,-700.858 1187.14,-691.174 1184.46,-701.424 1191.44,-700.858"/>
</g>
<!-- Node10 -->
<g id="node10" class="node"><title>Node10</title>
<g id="a_node10"><a xlink:href="../../df/df5/classcommands_1_1_minus_command.html#a82548bbb25a73194469e1ff81b19cf27" target="_top" xlink:title="commands.MinusCommand.execute\lCommand">
<polygon fill="white" stroke="black" points="1327.5,-1176 1327.5,-1206 1520.5,-1206 1520.5,-1176 1327.5,-1176"/>
<text text-anchor="start" x="1335.5" y="-1194" font-family="Helvetica,sans-Serif" font-size="10.00">commands.MinusCommand.execute</text>
<text text-anchor="middle" x="1424" y="-1183" font-family="Helvetica,sans-Serif" font-size="10.00">Command</text>
</a>
</g>
</g>
<!-- Node6&#45;&gt;Node10 -->
<g id="edge9" class="edge"><title>Node6&#45;&gt;Node10</title>
<path fill="none" stroke="midnightblue" d="M1188.55,-701.225C1198.24,-791.929 1235.69,-1099.66 1304,-1166 1310.74,-1172.54 1318.73,-1177.57 1327.34,-1181.41"/>
<polygon fill="midnightblue" stroke="midnightblue" points="1192.03,-700.851 1187.51,-691.27 1185.07,-701.581 1192.03,-700.851"/>
</g>
<!-- Node11 -->
<g id="node11" class="node"><title>Node11</title>
<g id="a_node11"><a xlink:href="../../d3/d37/classcommands_1_1_set_background_command.html#a91dc8e21948a301c55af1cef90b77962" target="_top" xlink:title="commands.SetBackgroundCommand.execute\lCommand">
<polygon fill="white" stroke="black" points="1304.5,-1127 1304.5,-1157 1543.5,-1157 1543.5,-1127 1304.5,-1127"/>
<text text-anchor="start" x="1312.5" y="-1145" font-family="Helvetica,sans-Serif" font-size="10.00">commands.SetBackgroundCommand.execute</text>
<text text-anchor="middle" x="1424" y="-1134" font-family="Helvetica,sans-Serif" font-size="10.00">Command</text>
</a>
</g>
</g>
<!-- Node6&#45;&gt;Node11 -->
<g id="edge10" class="edge"><title>Node6&#45;&gt;Node11</title>
<path fill="none" stroke="midnightblue" d="M1189.26,-701.15C1200.74,-785.787 1241.98,-1058.26 1304,-1117 1307.99,-1120.77 1312.39,-1124.04 1317.08,-1126.86"/>
<polygon fill="midnightblue" stroke="midnightblue" points="1192.72,-700.585 1187.92,-691.137 1185.78,-701.512 1192.72,-700.585"/>
</g>
<!-- Node12 -->
<g id="node12" class="node"><title>Node12</title>
<g id="a_node12"><a xlink:href="../../d8/dba/classcommands_1_1_product_command.html#a8bc20bc7c21a944405f599dbcfa57e67" target="_top" xlink:title="commands.ProductCommand.execute\lCommand">
<polygon fill="white" stroke="black" points="1323,-1078 1323,-1108 1525,-1108 1525,-1078 1323,-1078"/>
<text text-anchor="start" x="1331" y="-1096" font-family="Helvetica,sans-Serif" font-size="10.00">commands.ProductCommand.execute</text>
<text text-anchor="middle" x="1424" y="-1085" font-family="Helvetica,sans-Serif" font-size="10.00">Command</text>
</a>
</g>
</g>
<!-- Node6&#45;&gt;Node12 -->
<g id="edge11" class="edge"><title>Node6&#45;&gt;Node12</title>
<path fill="none" stroke="midnightblue" d="M1185.41,-701.275C1185.23,-771.059 1194.92,-967.852 1304,-1068 1309.6,-1073.14 1315.98,-1077.33 1322.8,-1080.73"/>
<polygon fill="midnightblue" stroke="midnightblue" points="1188.91,-701.233 1185.5,-691.2 1181.91,-701.165 1188.91,-701.233"/>
</g>
<!-- Node13 -->
<g id="node13" class="node"><title>Node13</title>
<g id="a_node13"><a xlink:href="../../dd/d40/classcommands_1_1_quotient_command.html#a7e23b237cc68512dcbe6a65feb7c39e8" target="_top" xlink:title="commands.QuotientCommand.execute\lCommand">
<polygon fill="white" stroke="black" points="1321,-1029 1321,-1059 1527,-1059 1527,-1029 1321,-1029"/>
<text text-anchor="start" x="1329" y="-1047" font-family="Helvetica,sans-Serif" font-size="10.00">commands.QuotientCommand.execute</text>
<text text-anchor="middle" x="1424" y="-1036" font-family="Helvetica,sans-Serif" font-size="10.00">Command</text>
</a>
</g>
</g>
<!-- Node6&#45;&gt;Node13 -->
<g id="edge12" class="edge"><title>Node6&#45;&gt;Node13</title>
<path fill="none" stroke="midnightblue" d="M1186.67,-701.514C1189.82,-765.487 1207.36,-933.681 1304,-1019 1309.06,-1023.47 1314.72,-1027.21 1320.75,-1030.34"/>
<polygon fill="midnightblue" stroke="midnightblue" points="1190.16,-701.007 1186.25,-691.159 1183.16,-701.294 1190.16,-701.007"/>
</g>
<!-- Node14 -->
<g id="node14" class="node"><title>Node14</title>
<g id="a_node14"><a xlink:href="../../dc/d68/classcommands_1_1_make_variable_command.html#ad0e0974744cc969c12c67805c2460ef4" target="_top" xlink:title="commands.MakeVariableCommand.execute\lCommand">
<polygon fill="white" stroke="black" points="1309.5,-980 1309.5,-1010 1538.5,-1010 1538.5,-980 1309.5,-980"/>
<text text-anchor="start" x="1317.5" y="-998" font-family="Helvetica,sans-Serif" font-size="10.00">commands.MakeVariableCommand.execute</text>
<text text-anchor="middle" x="1424" y="-987" font-family="Helvetica,sans-Serif" font-size="10.00">Command</text>
</a>
</g>
</g>
<!-- Node6&#45;&gt;Node14 -->
<g id="edge13" class="edge"><title>Node6&#45;&gt;Node14</title>
<path fill="none" stroke="midnightblue" d="M1188.27,-701.004C1194.86,-758.166 1219.29,-898.929 1304,-970 1308.53,-973.799 1313.49,-977.067 1318.73,-979.873"/>
<polygon fill="midnightblue" stroke="midnightblue" points="1191.75,-700.607 1187.21,-691.035 1184.79,-701.35 1191.75,-700.607"/>
</g>
<!-- Node15 -->
<g id="node15" class="node"><title>Node15</title>
<g id="a_node15"><a xlink:href="../../d8/ded/classcommands_1_1_difference_command.html#a0c34c43d3bb266ef3e48ae27be938a0f" target="_top" xlink:title="commands.DifferenceCommand.execute\lCommand">
<polygon fill="white" stroke="black" points="1317,-931 1317,-961 1531,-961 1531,-931 1317,-931"/>
<text text-anchor="start" x="1325" y="-949" font-family="Helvetica,sans-Serif" font-size="10.00">commands.DifferenceCommand.execute</text>
<text text-anchor="middle" x="1424" y="-938" font-family="Helvetica,sans-Serif" font-size="10.00">Command</text>
</a>
</g>
</g>
<!-- Node6&#45;&gt;Node15 -->
<g id="edge14" class="edge"><title>Node6&#45;&gt;Node15</title>
<path fill="none" stroke="midnightblue" d="M1190.53,-701.294C1200.94,-751.586 1231.46,-864.176 1304,-921 1308.9,-924.84 1314.26,-928.128 1319.89,-930.938"/>
<polygon fill="midnightblue" stroke="midnightblue" points="1193.93,-700.411 1188.56,-691.276 1187.06,-701.765 1193.93,-700.411"/>
</g>
<!-- Node16 -->
<g id="node16" class="node"><title>Node16</title>
<g id="a_node16"><a xlink:href="../../dd/d29/classcommands_1_1_clear_screen_command.html#a87e5eb0f4c3bb48ec0737da2aa431db3" target="_top" xlink:title="commands.ClearScreenCommand.execute\lCommand">
<polygon fill="white" stroke="black" points="1312,-882 1312,-912 1536,-912 1536,-882 1312,-882"/>
<text text-anchor="start" x="1320" y="-900" font-family="Helvetica,sans-Serif" font-size="10.00">commands.ClearScreenCommand.execute</text>
<text text-anchor="middle" x="1424" y="-889" font-family="Helvetica,sans-Serif" font-size="10.00">Command</text>
</a>
</g>
</g>
<!-- Node6&#45;&gt;Node16 -->
<g id="edge15" class="edge"><title>Node6&#45;&gt;Node16</title>
<path fill="none" stroke="midnightblue" d="M1193.57,-700.672C1207.86,-742.893 1242.99,-828.631 1304,-872 1309.42,-875.853 1315.31,-879.136 1321.47,-881.931"/>
<polygon fill="midnightblue" stroke="midnightblue" points="1196.89,-699.579 1190.45,-691.165 1190.24,-701.757 1196.89,-699.579"/>
</g>
<!-- Node17 -->
<g id="node17" class="node"><title>Node17</title>
<g id="a_node17"><a xlink:href="../../d9/d35/classcommands_1_1_ask_command.html#ae4ba28c73ce0b5112e4032bd21a951f5" target="_top" xlink:title="commands.AskCommand.execute\lCommand">
<polygon fill="white" stroke="black" points="1333,-833 1333,-863 1515,-863 1515,-833 1333,-833"/>
<text text-anchor="start" x="1341" y="-851" font-family="Helvetica,sans-Serif" font-size="10.00">commands.AskCommand.execute</text>
<text text-anchor="middle" x="1424" y="-840" font-family="Helvetica,sans-Serif" font-size="10.00">Command</text>
</a>
</g>
</g>
<!-- Node6&#45;&gt;Node17 -->
<g id="edge16" class="edge"><title>Node6&#45;&gt;Node17</title>
<path fill="none" stroke="midnightblue" d="M1198.52,-700.426C1216.92,-733.7 1254.51,-792.605 1304,-823 1312.81,-828.413 1322.61,-832.67 1332.7,-836.015"/>
<polygon fill="midnightblue" stroke="midnightblue" points="1201.47,-698.514 1193.64,-691.373 1195.31,-701.836 1201.47,-698.514"/>
</g>
<!-- Node18 -->
<g id="node18" class="node"><title>Node18</title>
<g id="a_node18"><a xlink:href="../../d3/d49/classcommands_1_1_if_else_command.html#a3b3d15925117d366a69f8ebd1dbc2dbc" target="_top" xlink:title="commands.IfElseCommand.execute\lCommand">
<polygon fill="white" stroke="black" points="1329,-784 1329,-814 1519,-814 1519,-784 1329,-784"/>
<text text-anchor="start" x="1337" y="-802" font-family="Helvetica,sans-Serif" font-size="10.00">commands.IfElseCommand.execute</text>
<text text-anchor="middle" x="1424" y="-791" font-family="Helvetica,sans-Serif" font-size="10.00">Command</text>
</a>
</g>
</g>
<!-- Node6&#45;&gt;Node18 -->
<g id="edge17" class="edge"><title>Node6&#45;&gt;Node18</title>
<path fill="none" stroke="midnightblue" d="M1206.73,-698.758C1228.67,-721.389 1265.39,-755.347 1304,-774 1312.08,-777.903 1320.75,-781.199 1329.61,-783.982"/>
<polygon fill="midnightblue" stroke="midnightblue" points="1209.04,-696.105 1199.61,-691.27 1203.97,-700.928 1209.04,-696.105"/>
</g>
<!-- Node20 -->
<g id="node20" class="node"><title>Node20</title>
<g id="a_node20"><a xlink:href="../../d8/d57/classcommands_1_1_for_command.html#aeb06a37d7f9845eb546425bae6ea9f58" target="_top" xlink:title="commands.ForCommand.execute\lCommand">
<polygon fill="white" stroke="black" points="1334,-735 1334,-765 1514,-765 1514,-735 1334,-735"/>
<text text-anchor="start" x="1342" y="-753" font-family="Helvetica,sans-Serif" font-size="10.00">commands.ForCommand.execute</text>
<text text-anchor="middle" x="1424" y="-742" font-family="Helvetica,sans-Serif" font-size="10.00">Command</text>
</a>
</g>
</g>
<!-- Node6&#45;&gt;Node20 -->
<g id="edge19" class="edge"><title>Node6&#45;&gt;Node20</title>
<path fill="none" stroke="midnightblue" d="M1227.15,-695.308C1249.51,-705.231 1277.86,-716.904 1304,-725 1316,-728.716 1328.85,-732.055 1341.5,-734.992"/>
<polygon fill="midnightblue" stroke="midnightblue" points="1228.51,-692.084 1217.96,-691.179 1225.64,-698.47 1228.51,-692.084"/>
</g>
<!-- Node21 -->
<g id="node21" class="node"><title>Node21</title>
<g id="a_node21"><a xlink:href="../../db/d38/classcommands_1_1_ask_with_command.html#a5ee6a090e94729d84ef423a454d446eb" target="_top" xlink:title="commands.AskWithCommand.execute\lCommand">
<polygon fill="white" stroke="black" points="1322.5,-686 1322.5,-716 1525.5,-716 1525.5,-686 1322.5,-686"/>
<text text-anchor="start" x="1330.5" y="-704" font-family="Helvetica,sans-Serif" font-size="10.00">commands.AskWithCommand.execute</text>
<text text-anchor="middle" x="1424" y="-693" font-family="Helvetica,sans-Serif" font-size="10.00">Command</text>
</a>
</g>
</g>
<!-- Node6&#45;&gt;Node21 -->
<g id="edge20" class="edge"><title>Node6&#45;&gt;Node21</title>
<path fill="none" stroke="midnightblue" d="M1277.62,-685.665C1292.3,-687.213 1307.56,-688.823 1322.44,-690.392"/>
<polygon fill="midnightblue" stroke="midnightblue" points="1277.87,-682.172 1267.56,-684.604 1277.14,-689.133 1277.87,-682.172"/>
</g>
<!-- Node22 -->
<g id="node22" class="node"><title>Node22</title>
<g id="a_node22"><a xlink:href="../../d4/d02/classcommands_1_1_do_times_command.html#a1dd20e90975d905a1bce8f018e9f7f0a" target="_top" xlink:title="commands.DoTimesCommand.execute\lCommand">
<polygon fill="white" stroke="black" points="1320.5,-637 1320.5,-667 1527.5,-667 1527.5,-637 1320.5,-637"/>
<text text-anchor="start" x="1328.5" y="-655" font-family="Helvetica,sans-Serif" font-size="10.00">commands.DoTimesCommand.execute</text>
<text text-anchor="middle" x="1424" y="-644" font-family="Helvetica,sans-Serif" font-size="10.00">Command</text>
</a>
</g>
</g>
<!-- Node6&#45;&gt;Node22 -->
<g id="edge21" class="edge"><title>Node6&#45;&gt;Node22</title>
<path fill="none" stroke="midnightblue" d="M1277.64,-666.72C1291.63,-665.303 1306.15,-663.833 1320.35,-662.395"/>
<polygon fill="midnightblue" stroke="midnightblue" points="1277.16,-663.251 1267.56,-667.741 1277.86,-670.215 1277.16,-663.251"/>
</g>
<!-- Node23 -->
<g id="node23" class="node"><title>Node23</title>
<g id="a_node23"><a xlink:href="../../dd/de4/classcommands_1_1_custom_command.html#a5ad25438a49d3e4eeba835fefe8b730a" target="_top" xlink:title="commands.CustomCommand.execute\lCommand">
<polygon fill="white" stroke="black" points="1322.5,-588 1322.5,-618 1525.5,-618 1525.5,-588 1322.5,-588"/>
<text text-anchor="start" x="1330.5" y="-606" font-family="Helvetica,sans-Serif" font-size="10.00">commands.CustomCommand.execute</text>
<text text-anchor="middle" x="1424" y="-595" font-family="Helvetica,sans-Serif" font-size="10.00">Command</text>
</a>
</g>
</g>
<!-- Node6&#45;&gt;Node23 -->
<g id="edge22" class="edge"><title>Node6&#45;&gt;Node23</title>
<path fill="none" stroke="midnightblue" d="M1227.66,-656.916C1249.96,-647.252 1278.09,-635.921 1304,-628 1316.11,-624.297 1329.08,-620.956 1341.85,-618.011"/>
<polygon fill="midnightblue" stroke="midnightblue" points="1226.24,-653.719 1218.49,-660.941 1229.05,-660.129 1226.24,-653.719"/>
</g>
<!-- Node24 -->
<g id="node24" class="node"><title>Node24</title>
<g id="a_node24"><a xlink:href="../../d6/daf/classcommands_1_1_set_shape_command.html#a59c440316cf9e732b5aa2f46def94e10" target="_top" xlink:title="commands.SetShapeCommand.update\lTurtle">
<polygon fill="white" stroke="black" points="1320,-539 1320,-569 1528,-569 1528,-539 1320,-539"/>
<text text-anchor="start" x="1328" y="-557" font-family="Helvetica,sans-Serif" font-size="10.00">commands.SetShapeCommand.update</text>
<text text-anchor="middle" x="1424" y="-546" font-family="Helvetica,sans-Serif" font-size="10.00">Turtle</text>
</a>
</g>
</g>
<!-- Node6&#45;&gt;Node24 -->
<g id="edge23" class="edge"><title>Node6&#45;&gt;Node24</title>
<path fill="none" stroke="midnightblue" d="M1206.78,-653.48C1228.75,-631.086 1265.51,-597.479 1304,-579 1312.09,-575.117 1320.77,-571.835 1329.63,-569.06"/>
<polygon fill="midnightblue" stroke="midnightblue" points="1204.06,-651.259 1199.65,-660.891 1209.1,-656.114 1204.06,-651.259"/>
</g>
<!-- Node25 -->
<g id="node25" class="node"><title>Node25</title>
<g id="a_node25"><a xlink:href="../../d6/d11/classcommands_1_1_set_pen_dash_command.html#a320f3b8248e3e89b2338dfefbe73f8c7" target="_top" xlink:title="commands.SetPenDashCommand.update\lTurtle">
<polygon fill="white" stroke="black" points="1314,-490 1314,-520 1534,-520 1534,-490 1314,-490"/>
<text text-anchor="start" x="1322" y="-508" font-family="Helvetica,sans-Serif" font-size="10.00">commands.SetPenDashCommand.update</text>
<text text-anchor="middle" x="1424" y="-497" font-family="Helvetica,sans-Serif" font-size="10.00">Turtle</text>
</a>
</g>
</g>
<!-- Node6&#45;&gt;Node25 -->
<g id="edge24" class="edge"><title>Node6&#45;&gt;Node25</title>
<path fill="none" stroke="midnightblue" d="M1198.57,-651.74C1217.02,-618.692 1254.66,-560.188 1304,-530 1310.3,-526.144 1317.11,-522.875 1324.16,-520.104"/>
<polygon fill="midnightblue" stroke="midnightblue" points="1195.38,-650.275 1193.67,-660.731 1201.53,-653.622 1195.38,-650.275"/>
</g>
<!-- Node26 -->
<g id="node26" class="node"><title>Node26</title>
<g id="a_node26"><a xlink:href="../../dc/df3/classcommands_1_1_set_towards_command.html#ad82abd7dcaed57b3bdb3a4b87a91815a" target="_top" xlink:title="commands.SetTowardsCommand.update\lTurtle">
<polygon fill="white" stroke="black" points="1316.5,-441 1316.5,-471 1531.5,-471 1531.5,-441 1316.5,-441"/>
<text text-anchor="start" x="1324.5" y="-459" font-family="Helvetica,sans-Serif" font-size="10.00">commands.SetTowardsCommand.update</text>
<text text-anchor="middle" x="1424" y="-448" font-family="Helvetica,sans-Serif" font-size="10.00">Turtle</text>
</a>
</g>
</g>
<!-- Node6&#45;&gt;Node26 -->
<g id="edge25" class="edge"><title>Node6&#45;&gt;Node26</title>
<path fill="none" stroke="midnightblue" d="M1193.7,-651.184C1208.1,-609.082 1243.3,-524.047 1304,-481 1309.42,-477.153 1315.32,-473.875 1321.48,-471.083"/>
<polygon fill="midnightblue" stroke="midnightblue" points="1190.3,-650.318 1190.48,-660.911 1196.94,-652.517 1190.3,-650.318"/>
</g>
<!-- Node27 -->
<g id="node27" class="node"><title>Node27</title>
<g id="a_node27"><a xlink:href="../../d9/db5/classcommands_1_1_set_position_command.html#aba31c4887974831a6c0d9feac8316ee6" target="_top" xlink:title="commands.SetPositionCommand.update\lTurtle">
<polygon fill="white" stroke="black" points="1316.5,-392 1316.5,-422 1531.5,-422 1531.5,-392 1316.5,-392"/>
<text text-anchor="start" x="1324.5" y="-410" font-family="Helvetica,sans-Serif" font-size="10.00">commands.SetPositionCommand.update</text>
<text text-anchor="middle" x="1424" y="-399" font-family="Helvetica,sans-Serif" font-size="10.00">Turtle</text>
</a>
</g>
</g>
<!-- Node6&#45;&gt;Node27 -->
<g id="edge26" class="edge"><title>Node6&#45;&gt;Node27</title>
<path fill="none" stroke="midnightblue" d="M1190.57,-650.807C1201.03,-600.716 1231.66,-488.578 1304,-432 1308.91,-428.163 1314.26,-424.879 1319.9,-422.071"/>
<polygon fill="midnightblue" stroke="midnightblue" points="1187.1,-650.293 1188.58,-660.784 1193.97,-651.661 1187.1,-650.293"/>
</g>
<!-- Node28 -->
<g id="node28" class="node"><title>Node28</title>
<g id="a_node28"><a xlink:href="../../dd/db2/classcommands_1_1_right_command.html#ae16ecb0da3e0a2049a7382d74f315cb6" target="_top" xlink:title="commands.RightCommand.update\lTurtle">
<polygon fill="white" stroke="black" points="1331.5,-343 1331.5,-373 1516.5,-373 1516.5,-343 1331.5,-343"/>
<text text-anchor="start" x="1339.5" y="-361" font-family="Helvetica,sans-Serif" font-size="10.00">commands.RightCommand.update</text>
<text text-anchor="middle" x="1424" y="-350" font-family="Helvetica,sans-Serif" font-size="10.00">Turtle</text>
</a>
</g>
</g>
<!-- Node6&#45;&gt;Node28 -->
<g id="edge27" class="edge"><title>Node6&#45;&gt;Node28</title>
<path fill="none" stroke="midnightblue" d="M1188.34,-650.678C1195.06,-593.452 1219.7,-453.648 1304,-383 1312.01,-376.288 1321.37,-371.237 1331.26,-367.456"/>
<polygon fill="midnightblue" stroke="midnightblue" points="1184.86,-650.353 1187.26,-660.673 1191.82,-651.11 1184.86,-650.353"/>
</g>
<!-- Node29 -->
<g id="node29" class="node"><title>Node29</title>
<g id="a_node29"><a xlink:href="../../dc/db3/classcommands_1_1_set_heading_command.html#a064fae1a815349b9efc6bd43f2371339" target="_top" xlink:title="commands.SetHeadingCommand.update\lTurtle">
<polygon fill="white" stroke="black" points="1315.5,-294 1315.5,-324 1532.5,-324 1532.5,-294 1315.5,-294"/>
<text text-anchor="start" x="1323.5" y="-312" font-family="Helvetica,sans-Serif" font-size="10.00">commands.SetHeadingCommand.update</text>
<text text-anchor="middle" x="1424" y="-301" font-family="Helvetica,sans-Serif" font-size="10.00">Turtle</text>
</a>
</g>
</g>
<!-- Node6&#45;&gt;Node29 -->
<g id="edge28" class="edge"><title>Node6&#45;&gt;Node29</title>
<path fill="none" stroke="midnightblue" d="M1186.7,-650.558C1189.91,-586.767 1207.57,-419.054 1304,-334 1308.35,-330.16 1313.15,-326.856 1318.23,-324.018"/>
<polygon fill="midnightblue" stroke="midnightblue" points="1183.19,-650.745 1186.26,-660.884 1190.18,-651.04 1183.19,-650.745"/>
</g>
<!-- Node30 -->
<g id="node30" class="node"><title>Node30</title>
<g id="a_node30"><a xlink:href="../../d2/dbb/classcommands_1_1_set_pen_size_command.html#aa8dbbb22c72842b2d6f50aa169a8404e" target="_top" xlink:title="commands.SetPenSizeCommand.update\lTurtle">
<polygon fill="white" stroke="black" points="1316.5,-245 1316.5,-275 1531.5,-275 1531.5,-245 1316.5,-245"/>
<text text-anchor="start" x="1324.5" y="-263" font-family="Helvetica,sans-Serif" font-size="10.00">commands.SetPenSizeCommand.update</text>
<text text-anchor="middle" x="1424" y="-252" font-family="Helvetica,sans-Serif" font-size="10.00">Turtle</text>
</a>
</g>
</g>
<!-- Node6&#45;&gt;Node30 -->
<g id="edge29" class="edge"><title>Node6&#45;&gt;Node30</title>
<path fill="none" stroke="midnightblue" d="M1190.16,-650.913C1203.63,-572.791 1248.36,-336.047 1304,-285 1308.12,-281.218 1312.67,-277.951 1317.5,-275.133"/>
<polygon fill="midnightblue" stroke="midnightblue" points="1186.7,-650.403 1188.47,-660.848 1193.6,-651.577 1186.7,-650.403"/>
</g>
<!-- Node31 -->
<g id="node31" class="node"><title>Node31</title>
<g id="a_node31"><a xlink:href="../../d5/d21/classcommands_1_1_set_pen_color_command.html#a69a9c0161b8910c8fecc5ace219aeeb8" target="_top" xlink:title="commands.SetPenColorCommand.update\lTurtle">
<polygon fill="white" stroke="black" points="1314,-196 1314,-226 1534,-226 1534,-196 1314,-196"/>
<text text-anchor="start" x="1322" y="-214" font-family="Helvetica,sans-Serif" font-size="10.00">commands.SetPenColorCommand.update</text>
<text text-anchor="middle" x="1424" y="-203" font-family="Helvetica,sans-Serif" font-size="10.00">Turtle</text>
</a>
</g>
</g>
<!-- Node6&#45;&gt;Node31 -->
<g id="edge30" class="edge"><title>Node6&#45;&gt;Node31</title>
<path fill="none" stroke="midnightblue" d="M1191.88,-651.156C1213.52,-560.192 1288.23,-249.811 1304,-235 1307.61,-231.609 1311.56,-228.638 1315.76,-226.039"/>
<polygon fill="midnightblue" stroke="midnightblue" points="1188.47,-650.359 1189.57,-660.897 1195.28,-651.977 1188.47,-650.359"/>
</g>
<!-- Node32 -->
<g id="node32" class="node"><title>Node32</title>
<g id="a_node32"><a xlink:href="../../dc/d65/classcommands_1_1_left_command.html#abd466facd4b16e1c04a6578b4bf8e203" target="_top" xlink:title="commands.LeftCommand.update\lTurtle">
<polygon fill="white" stroke="black" points="1334.5,-147 1334.5,-177 1513.5,-177 1513.5,-147 1334.5,-147"/>
<text text-anchor="start" x="1342.5" y="-165" font-family="Helvetica,sans-Serif" font-size="10.00">commands.LeftCommand.update</text>
<text text-anchor="middle" x="1424" y="-154" font-family="Helvetica,sans-Serif" font-size="10.00">Turtle</text>
</a>
</g>
</g>
<!-- Node6&#45;&gt;Node32 -->
<g id="edge31" class="edge"><title>Node6&#45;&gt;Node32</title>
<path fill="none" stroke="midnightblue" d="M1192.34,-650.68C1206.28,-594.95 1240.51,-457.442 1268,-342 1284.48,-272.78 1252.99,-235.611 1304,-186 1312.54,-177.698 1323.1,-171.891 1334.38,-167.883"/>
<polygon fill="midnightblue" stroke="midnightblue" points="1188.87,-650.154 1189.84,-660.704 1195.66,-651.853 1188.87,-650.154"/>
</g>
<!-- Node33 -->
<g id="node33" class="node"><title>Node33</title>
<g id="a_node33"><a xlink:href="../../d6/ddc/classcommands_1_1_backward_command.html#af0c4c6ac04bea1aa34b069a01c53888f" target="_top" xlink:title="commands.BackwardCommand.update\lTurtle">
<polygon fill="white" stroke="black" points="1321,-98 1321,-128 1527,-128 1527,-98 1321,-98"/>
<text text-anchor="start" x="1329" y="-116" font-family="Helvetica,sans-Serif" font-size="10.00">commands.BackwardCommand.update</text>
<text text-anchor="middle" x="1424" y="-105" font-family="Helvetica,sans-Serif" font-size="10.00">Turtle</text>
</a>
</g>
</g>
<!-- Node6&#45;&gt;Node33 -->
<g id="edge32" class="edge"><title>Node6&#45;&gt;Node33</title>
<path fill="none" stroke="midnightblue" d="M1192.8,-650.783C1207.65,-595.258 1243.58,-458.129 1268,-342 1287.04,-251.475 1239.42,-203.229 1304,-137 1308.93,-131.945 1314.61,-127.802 1320.75,-124.419"/>
<polygon fill="midnightblue" stroke="midnightblue" points="1189.34,-650.204 1190.13,-660.769 1196.1,-652.018 1189.34,-650.204"/>
</g>
<!-- Node34 -->
<g id="node34" class="node"><title>Node34</title>
<g id="a_node34"><a xlink:href="../../da/d4f/classcommands_1_1_forward_command.html#afe19b644a8fe0d46f3dbf19aef135364" target="_top" xlink:title="commands.ForwardCommand.update\lTurtle">
<polygon fill="white" stroke="black" points="1325,-49 1325,-79 1523,-79 1523,-49 1325,-49"/>
<text text-anchor="start" x="1333" y="-67" font-family="Helvetica,sans-Serif" font-size="10.00">commands.ForwardCommand.update</text>
<text text-anchor="middle" x="1424" y="-56" font-family="Helvetica,sans-Serif" font-size="10.00">Turtle</text>
</a>
</g>
</g>
<!-- Node6&#45;&gt;Node34 -->
<g id="edge33" class="edge"><title>Node6&#45;&gt;Node34</title>
<path fill="none" stroke="midnightblue" d="M1193.09,-650.841C1208.51,-595.431 1245.5,-458.517 1268,-342 1278.81,-286.026 1264.88,-129.467 1304,-88 1309.93,-81.7146 1317.01,-76.8269 1324.73,-73.0504"/>
<polygon fill="midnightblue" stroke="midnightblue" points="1189.63,-650.233 1190.31,-660.806 1196.37,-652.117 1189.63,-650.233"/>
</g>
<!-- Node19 -->
<g id="node19" class="node"><title>Node19</title>
<g id="a_node19"><a xlink:href="../../d5/dad/classcommands_1_1_if_command.html#a0d92f20941c1e79cfb1e02e77f463e68" target="_top" xlink:title="commands.IfCommand.execute\lCommand">
<polygon fill="white" stroke="black" points="1580,-784 1580,-814 1750,-814 1750,-784 1580,-784"/>
<text text-anchor="start" x="1588" y="-802" font-family="Helvetica,sans-Serif" font-size="10.00">commands.IfCommand.execute</text>
<text text-anchor="middle" x="1665" y="-791" font-family="Helvetica,sans-Serif" font-size="10.00">Command</text>
</a>
</g>
</g>
<!-- Node18&#45;&gt;Node19 -->
<g id="edge18" class="edge"><title>Node18&#45;&gt;Node19</title>
<path fill="none" stroke="midnightblue" d="M1529.5,-799C1546.27,-799 1563.45,-799 1579.68,-799"/>
<polygon fill="midnightblue" stroke="midnightblue" points="1529.12,-795.5 1519.12,-799 1529.12,-802.5 1529.12,-795.5"/>
</g>
<!-- Node36 -->
<g id="node36" class="node"><title>Node36</title>
<g id="a_node36"><a xlink:href="../../d9/df7/classcontroller_1_1_controller.html#a81fea06b52aed0a26625c5b30b490afb" target="_top" xlink:title="controller.Controller.run\lCommand">
<polygon fill="white" stroke="black" points="1360,-0 1360,-30 1488,-30 1488,-0 1360,-0"/>
<text text-anchor="start" x="1368" y="-18" font-family="Helvetica,sans-Serif" font-size="10.00">controller.Controller.run</text>
<text text-anchor="middle" x="1424" y="-7" font-family="Helvetica,sans-Serif" font-size="10.00">Command</text>
</a>
</g>
</g>
<!-- Node35&#45;&gt;Node36 -->
<g id="edge35" class="edge"><title>Node35&#45;&gt;Node36</title>
<path fill="none" stroke="midnightblue" d="M1262.99,-307.773C1264.77,-306.312 1266.45,-304.725 1268,-303 1347.28,-215.038 1222.96,-125.35 1304,-39 1318.28,-23.7855 1339.31,-16.7492 1359.74,-13.8411"/>
<polygon fill="midnightblue" stroke="midnightblue" points="1260.97,-304.917 1254.62,-313.401 1264.87,-310.726 1260.97,-304.917"/>
</g>
<!-- Node37 -->
<g id="node37" class="node"><title>Node37</title>
<g id="a_node37"><a xlink:href="../../d9/df7/classcontroller_1_1_controller.html#afdfa7f9e9a3fb5f6b73a6b8e2b2be8b5" target="_top" xlink:title="controller.Controller.get\lInput">
<polygon fill="white" stroke="black" points="1601,-0 1601,-30 1729,-30 1729,-0 1601,-0"/>
<text text-anchor="start" x="1609" y="-18" font-family="Helvetica,sans-Serif" font-size="10.00">controller.Controller.get</text>
<text text-anchor="middle" x="1665" y="-7" font-family="Helvetica,sans-Serif" font-size="10.00">Input</text>
</a>
</g>
</g>
<!-- Node36&#45;&gt;Node37 -->
<g id="edge36" class="edge"><title>Node36&#45;&gt;Node37</title>
<path fill="none" stroke="midnightblue" d="M1498.11,-15C1530.98,-15 1569.38,-15 1600.95,-15"/>
<polygon fill="midnightblue" stroke="midnightblue" points="1498.11,-11.5001 1488.11,-15 1498.11,-18.5001 1498.11,-11.5001"/>
</g>
<!-- Node38 -->
<g id="node38" class="node"><title>Node38</title>
<g id="a_node38"><a xlink:href="../../d3/dc7/classview_1_1controllers_1_1_pane_controller.html#a7e6154aecb60d8f3bcb056a11e842764" target="_top" xlink:title="view.controllers.PaneController.update">
<polygon fill="white" stroke="black" points="1786,-5.5 1786,-24.5 1984,-24.5 1984,-5.5 1786,-5.5"/>
<text text-anchor="middle" x="1885" y="-12.5" font-family="Helvetica,sans-Serif" font-size="10.00">view.controllers.PaneController.update</text>
</a>
</g>
</g>
<!-- Node37&#45;&gt;Node38 -->
<g id="edge37" class="edge"><title>Node37&#45;&gt;Node38</title>
<path fill="none" stroke="midnightblue" d="M1739.22,-15C1754.16,-15 1770.11,-15 1785.76,-15"/>
<polygon fill="midnightblue" stroke="midnightblue" points="1739.05,-11.5001 1729.05,-15 1739.05,-18.5001 1739.05,-11.5001"/>
</g>
<!-- Node40 -->
<g id="node40" class="node"><title>Node40</title>
<g id="a_node40"><a xlink:href="../../d8/daa/classview_1_1panes_1_1_turtle_selector_pane.html#a14e3fbe35c7447dcdf2f0910333cedcc" target="_top" xlink:title="view.panes.TurtleSelector\lPane.TurtleSelectorPane">
<polygon fill="white" stroke="black" points="1116.5,-264 1116.5,-294 1253.5,-294 1253.5,-264 1116.5,-264"/>
<text text-anchor="start" x="1124.5" y="-282" font-family="Helvetica,sans-Serif" font-size="10.00">view.panes.TurtleSelector</text>
<text text-anchor="middle" x="1185" y="-271" font-family="Helvetica,sans-Serif" font-size="10.00">Pane.TurtleSelectorPane</text>
</a>
</g>
</g>
<!-- Node39&#45;&gt;Node40 -->
<g id="edge39" class="edge"><title>Node39&#45;&gt;Node40</title>
<path fill="none" stroke="midnightblue" d="M1076.43,-279C1090.02,-279 1103.69,-279 1116.5,-279"/>
<polygon fill="midnightblue" stroke="midnightblue" points="1076.06,-275.5 1066.06,-279 1076.06,-282.5 1076.06,-275.5"/>
</g>
<!-- Node41&#45;&gt;Node4 -->
<g id="edge41" class="edge"><title>Node41&#45;&gt;Node4</title>
<path fill="none" stroke="midnightblue" d="M610.395,-287.65C622.731,-288.921 635.266,-290.212 647.436,-291.465"/>
<polygon fill="midnightblue" stroke="midnightblue" points="610.398,-284.132 600.092,-286.589 609.681,-291.095 610.398,-284.132"/>
</g>
</g>
</svg>
        <g id="navigator" transform="translate(0 0)" fill="#404254">
                <rect fill="#f2f5e9" fill-opacity="0.5" stroke="#606060" stroke-width=".5" x="0" y="0" width="60" height="60"/>
                <use id="zoomplus" xlink:href="#zoomPlus" x="17" y="9" onmousedown="handleZoom(evt,'in')"/>
                <use id="zoomminus" xlink:href="#zoomMin" x="42" y="9" onmousedown="handleZoom(evt,'out')"/>
                <use id="reset" xlink:href="#resetDef" x="30" y="36" onmousedown="handleReset()"/>
                <g id="arrowUp" xlink:href="#dirArrow" transform="translate(30 24)" onmousedown="handlePan(0,-1)">
                  <use xlink:href="#rim" fill="#404040">
                        <set attributeName="fill" to="#808080" begin="arrowUp.mouseover" end="arrowUp.mouseout"/>
                  </use>
                  <path fill="none" stroke="white" stroke-width="1.5" d="M0,-3.0v7 M-2.5,-0.5L0,-3.0L2.5,-0.5"/>
                </g>
                <g id="arrowRight" xlink:href="#dirArrow" transform="rotate(90) translate(36 -43)" onmousedown="handlePan(1,0)">
                  <use xlink:href="#rim" fill="#404040">
                        <set attributeName="fill" to="#808080" begin="arrowRight.mouseover" end="arrowRight.mouseout"/>
                  </use>
                  <path fill="none" stroke="white" stroke-width="1.5" d="M0,-3.0v7 M-2.5,-0.5L0,-3.0L2.5,-0.5"/>
                </g>
                <g id="arrowDown" xlink:href="#dirArrow" transform="rotate(180) translate(-30 -48)" onmousedown="handlePan(0,1)">
                  <use xlink:href="#rim" fill="#404040">
                        <set attributeName="fill" to="#808080" begin="arrowDown.mouseover" end="arrowDown.mouseout"/>
                  </use>
                  <path fill="none" stroke="white" stroke-width="1.5" d="M0,-3.0v7 M-2.5,-0.5L0,-3.0L2.5,-0.5"/>
                </g>
                <g id="arrowLeft" xlink:href="#dirArrow" transform="rotate(270) translate(-36 17)" onmousedown="handlePan(-1,0)">
                  <use xlink:href="#rim" fill="#404040">
                        <set attributeName="fill" to="#808080" begin="arrowLeft.mouseover" end="arrowLeft.mouseout"/>
                  </use>
                  <path fill="none" stroke="white" stroke-width="1.5" d="M0,-3.0v7 M-2.5,-0.5L0,-3.0L2.5,-0.5"/>
                </g>
        </g>
        <svg viewBox="0 0 15 15" width="100%" height="30px" preserveAspectRatio="xMaxYMin meet">
         <g id="arrow_out" transform="scale(0.3 0.3)">
          <a xlink:href="classmodel_1_1_turtle_a942dbeb1d7e2bc19b6870538c2c3a7d2_icgraph_org.svg" target="_base">
           <rect id="button" ry="5" rx="5" y="6" x="6" height="38" width="38"
                fill="#f2f5e9" fill-opacity="0.5" stroke="#606060" stroke-width="1.0"/>
           <path id="arrow"
             d="M 11.500037,31.436501 C 11.940474,20.09759 22.043105,11.32322 32.158766,21.979434 L 37.068811,17.246167 C 37.068811,17.246167 37.088388,32 37.088388,32 L 22.160133,31.978069 C 22.160133,31.978069 26.997745,27.140456 26.997745,27.140456 C 18.528582,18.264221 13.291696,25.230495 11.500037,31.436501 z"
             style="fill:#404040;"/>
          </a>
         </g>
        </svg>
</svg>
