<?xml version="1.0" encoding="UTF-8" standalone="no"?>
<!DOCTYPE svg PUBLIC "-//W3C//DTD SVG 1.1//EN"
 "http://www.w3.org/Graphics/SVG/1.1/DTD/svg11.dtd">
<!-- Generated by graphviz version 2.36.0 (20140111.2315)
 -->
<!-- Title: model.TurtleSetManager Pages: 1 -->
<svg width="304pt" height="96pt"
 viewBox="0.00 0.00 304.00 96.00" xmlns="http://www.w3.org/2000/svg" xmlns:xlink="http://www.w3.org/1999/xlink">
<g id="graph0" class="graph" transform="scale(1 1) rotate(0) translate(4 92)">
<title>model.TurtleSetManager</title>
<polygon fill="white" stroke="none" points="-4,4 -4,-92 300,-92 300,4 -4,4"/>
<!-- Node1 -->
<g id="node1" class="node"><title>Node1</title>
<polygon fill="#bfbfbf" stroke="black" points="68,-0.5 68,-19.5 202,-19.5 202,-0.5 68,-0.5"/>
<text text-anchor="middle" x="135" y="-7.5" font-family="Helvetica,sans-Serif" font-size="10.00">model.TurtleSetManager</text>
</g>
<!-- Node2 -->
<g id="node2" class="node"><title>Node2</title>
<polygon fill="white" stroke="#bfbfbf" points="0,-68.5 0,-87.5 114,-87.5 114,-68.5 0,-68.5"/>
<text text-anchor="middle" x="57" y="-75.5" font-family="Helvetica,sans-Serif" font-size="10.00">Set&lt; model.Turtle &gt;</text>
</g>
<!-- Node2&#45;&gt;Node1 -->
<g id="edge1" class="edge"><title>Node2&#45;&gt;Node1</title>
<path fill="none" stroke="#9a32cd" stroke-dasharray="5,2" d="M74.9939,-61.7744C90.3466,-48.7837 111.889,-30.5551 124.551,-19.8411"/>
<polygon fill="#9a32cd" stroke="#9a32cd" points="72.5702,-59.2403 67.1971,-68.3717 77.0918,-64.5841 72.5702,-59.2403"/>
<text text-anchor="middle" x="120.5" y="-41.5" font-family="Helvetica,sans-Serif" font-size="10.00"> mySet</text>
</g>
<!-- Node3 -->
<g id="node3" class="node"><title>Node3</title>
<polygon fill="white" stroke="#bfbfbf" points="132,-68.5 132,-87.5 296,-87.5 296,-68.5 132,-68.5"/>
<text text-anchor="middle" x="214" y="-75.5" font-family="Helvetica,sans-Serif" font-size="10.00">Stack&lt; Set&lt; model.Turtle &gt; &gt;</text>
</g>
<!-- Node3&#45;&gt;Node1 -->
<g id="edge2" class="edge"><title>Node3&#45;&gt;Node1</title>
<path fill="none" stroke="#9a32cd" stroke-dasharray="5,2" d="M195.727,-61.7343C180.079,-48.6606 158.106,-30.3039 145.33,-19.6305"/>
<polygon fill="#9a32cd" stroke="#9a32cd" points="193.754,-64.6462 203.672,-68.3717 198.242,-59.2742 193.754,-64.6462"/>
<text text-anchor="middle" x="204" y="-41.5" font-family="Helvetica,sans-Serif" font-size="10.00"> myStack</text>
</g>
</g>
</svg>
