<?xml version="1.0" encoding="UTF-8" standalone="no"?>
<!DOCTYPE svg PUBLIC "-//W3C//DTD SVG 1.1//EN"
 "http://www.w3.org/Graphics/SVG/1.1/DTD/svg11.dtd">
<!-- Generated by graphviz version 2.36.0 (20140111.2315)
 -->
<!-- Title: commands.GetPenColorCommand Pages: 1 -->
<svg width="254pt" height="144pt"
 viewBox="0.00 0.00 254.00 144.00" xmlns="http://www.w3.org/2000/svg" xmlns:xlink="http://www.w3.org/1999/xlink">
<g id="graph0" class="graph" transform="scale(1 1) rotate(0) translate(4 140)">
<title>commands.GetPenColorCommand</title>
<polygon fill="white" stroke="none" points="-4,4 -4,-140 250,-140 250,4 -4,4"/>
<!-- Node1 -->
<g id="node1" class="node"><title>Node1</title>
<polygon fill="#bfbfbf" stroke="black" points="0,-0.5 0,-19.5 184,-19.5 184,-0.5 0,-0.5"/>
<text text-anchor="middle" x="92" y="-7.5" font-family="Helvetica,sans-Serif" font-size="10.00">commands.GetPenColorCommand</text>
</g>
<!-- Node2 -->
<g id="node2" class="node"><title>Node2</title>
<g id="a_node2"><a xlink:href="../../db/d5d/classcommands_1_1_zero_input_command.html" target="_top" xlink:title="commands.ZeroInputCommand">
<polygon fill="white" stroke="black" points="6.5,-58.5 6.5,-77.5 177.5,-77.5 177.5,-58.5 6.5,-58.5"/>
<text text-anchor="middle" x="92" y="-65.5" font-family="Helvetica,sans-Serif" font-size="10.00">commands.ZeroInputCommand</text>
</a>
</g>
</g>
<!-- Node2&#45;&gt;Node1 -->
<g id="edge1" class="edge"><title>Node2&#45;&gt;Node1</title>
<path fill="none" stroke="midnightblue" d="M92,-47.953C92,-38.2875 92,-27.0312 92,-19.5052"/>
<polygon fill="midnightblue" stroke="midnightblue" points="88.5001,-48.25 92,-58.25 95.5001,-48.25 88.5001,-48.25"/>
</g>
<!-- Node3 -->
<g id="node3" class="node"><title>Node3</title>
<g id="a_node3"><a xlink:href="../../dd/dd6/classcommands_1_1_command.html" target="_top" xlink:title="commands.Command">
<polygon fill="white" stroke="black" points="30,-116.5 30,-135.5 154,-135.5 154,-116.5 30,-116.5"/>
<text text-anchor="middle" x="92" y="-123.5" font-family="Helvetica,sans-Serif" font-size="10.00">commands.Command</text>
</a>
</g>
</g>
<!-- Node3&#45;&gt;Node2 -->
<g id="edge2" class="edge"><title>Node3&#45;&gt;Node2</title>
<path fill="none" stroke="midnightblue" d="M92,-105.953C92,-96.2875 92,-85.0312 92,-77.5052"/>
<polygon fill="midnightblue" stroke="midnightblue" points="88.5001,-106.25 92,-116.25 95.5001,-106.25 88.5001,-106.25"/>
</g>
<!-- Node3&#45;&gt;Node3 -->
<g id="edge3" class="edge"><title>Node3&#45;&gt;Node3</title>
<path fill="none" stroke="#9a32cd" stroke-dasharray="5,2" d="M164.252,-129.592C168.474,-128.73 171,-127.533 171,-126 171,-123.484 164.198,-121.873 154.261,-121.165"/>
<polygon fill="#9a32cd" stroke="#9a32cd" points="163.752,-126.127 154.261,-130.835 164.617,-133.073 163.752,-126.127"/>
<text text-anchor="middle" x="208" y="-123.5" font-family="Helvetica,sans-Serif" font-size="10.00"> myParameters</text>
</g>
</g>
</svg>
