<?xml version="1.0" encoding="UTF-8" standalone="no"?>
<!DOCTYPE svg PUBLIC "-//W3C//DTD SVG 1.1//EN"
 "http://www.w3.org/Graphics/SVG/1.1/DTD/svg11.dtd">
<!-- Generated by graphviz version 2.36.0 (20140111.2315)
 -->
<!-- Title: view.panes.PenPane.setPenStyle Pages: 1 -->
<svg width="558pt" height="38pt"
 viewBox="0.00 0.00 558.00 38.00" xmlns="http://www.w3.org/2000/svg" xmlns:xlink="http://www.w3.org/1999/xlink">
<g id="graph0" class="graph" transform="scale(1 1) rotate(0) translate(4 34)">
<title>view.panes.PenPane.setPenStyle</title>
<polygon fill="white" stroke="none" points="-4,4 -4,-34 554,-34 554,4 -4,4"/>
<!-- Node1 -->
<g id="node1" class="node"><title>Node1</title>
<polygon fill="#bfbfbf" stroke="black" points="0.5,-0 0.5,-30 149.5,-30 149.5,-0 0.5,-0"/>
<text text-anchor="start" x="8.5" y="-18" font-family="Helvetica,sans-Serif" font-size="10.00">view.panes.PenPane.setPen</text>
<text text-anchor="middle" x="75" y="-7" font-family="Helvetica,sans-Serif" font-size="10.00">Style</text>
</g>
<!-- Node2 -->
<g id="node2" class="node"><title>Node2</title>
<g id="a_node2"><a xlink:href="../../da/d64/classview_1_1panes_1_1_pen_pane.html#aee0977bc29663b1fb656a34f6e7adb10" target="_top" xlink:title="view.panes.PenPane.makeMenu">
<polygon fill="white" stroke="black" points="186.5,-5.5 186.5,-24.5 355.5,-24.5 355.5,-5.5 186.5,-5.5"/>
<text text-anchor="middle" x="271" y="-12.5" font-family="Helvetica,sans-Serif" font-size="10.00">view.panes.PenPane.makeMenu</text>
</a>
</g>
</g>
<!-- Node1&#45;&gt;Node2 -->
<g id="edge1" class="edge"><title>Node1&#45;&gt;Node2</title>
<path fill="none" stroke="midnightblue" d="M159.852,-15C168.641,-15 177.576,-15 186.363,-15"/>
<polygon fill="midnightblue" stroke="midnightblue" points="159.62,-11.5001 149.62,-15 159.62,-18.5001 159.62,-11.5001"/>
</g>
<!-- Node3 -->
<g id="node3" class="node"><title>Node3</title>
<g id="a_node3"><a xlink:href="../../da/d64/classview_1_1panes_1_1_pen_pane.html#a093392cc7e9e908e5bd2b6f91a6a2d0f" target="_top" xlink:title="view.panes.PenPane.PenPane">
<polygon fill="white" stroke="black" points="392.5,-5.5 392.5,-24.5 549.5,-24.5 549.5,-5.5 392.5,-5.5"/>
<text text-anchor="middle" x="471" y="-12.5" font-family="Helvetica,sans-Serif" font-size="10.00">view.panes.PenPane.PenPane</text>
</a>
</g>
</g>
<!-- Node2&#45;&gt;Node3 -->
<g id="edge2" class="edge"><title>Node2&#45;&gt;Node3</title>
<path fill="none" stroke="midnightblue" d="M365.695,-15C374.598,-15 383.558,-15 392.286,-15"/>
<polygon fill="midnightblue" stroke="midnightblue" points="365.683,-11.5001 355.683,-15 365.683,-18.5001 365.683,-11.5001"/>
</g>
</g>
</svg>
