<?xml version="1.0" encoding="UTF-8" standalone="no"?>
<!DOCTYPE svg PUBLIC "-//W3C//DTD SVG 1.1//EN"
 "http://www.w3.org/Graphics/SVG/1.1/DTD/svg11.dtd">
<!-- Generated by graphviz version 2.36.0 (20140111.2315)
 -->
<!-- Title: view.panes.PenPane.PenPane Pages: 1 -->
<svg width="810pt" height="284pt"
 viewBox="0.00 0.00 810.00 284.00" xmlns="http://www.w3.org/2000/svg" xmlns:xlink="http://www.w3.org/1999/xlink">
<g id="graph0" class="graph" transform="scale(1 1) rotate(0) translate(4 280)">
<title>view.panes.PenPane.PenPane</title>
<polygon fill="white" stroke="none" points="-4,4 -4,-280 806,-280 806,4 -4,4"/>
<!-- Node1 -->
<g id="node1" class="node"><title>Node1</title>
<polygon fill="#bfbfbf" stroke="black" points="0.5,-125.5 0.5,-144.5 157.5,-144.5 157.5,-125.5 0.5,-125.5"/>
<text text-anchor="middle" x="79" y="-132.5" font-family="Helvetica,sans-Serif" font-size="10.00">view.panes.PenPane.PenPane</text>
</g>
<!-- Node2 -->
<g id="node2" class="node"><title>Node2</title>
<g id="a_node2"><a xlink:href="../../da/d64/classview_1_1panes_1_1_pen_pane.html#afa93d4769bd752fe33df3be53f584bf8" target="_top" xlink:title="view.panes.PenPane.change\lPenColor">
<polygon fill="white" stroke="black" points="417.5,-246 417.5,-276 568.5,-276 568.5,-246 417.5,-246"/>
<text text-anchor="start" x="425.5" y="-264" font-family="Helvetica,sans-Serif" font-size="10.00">view.panes.PenPane.change</text>
<text text-anchor="middle" x="493" y="-253" font-family="Helvetica,sans-Serif" font-size="10.00">PenColor</text>
</a>
</g>
</g>
<!-- Node1&#45;&gt;Node2 -->
<g id="edge1" class="edge"><title>Node1&#45;&gt;Node2</title>
<path fill="none" stroke="midnightblue" d="M87.8937,-144.783C104.852,-164.999 147.053,-211.145 194,-231 261.821,-259.683 345.8,-265.813 407.305,-265.563"/>
<polygon fill="midnightblue" stroke="midnightblue" points="407.396,-269.063 417.361,-265.465 407.328,-262.063 407.396,-269.063"/>
</g>
<!-- Node3 -->
<g id="node3" class="node"><title>Node3</title>
<g id="a_node3"><a xlink:href="../../d8/dd2/classview_1_1_command_string.html#a666bbe4a67f0516444f5ee29cbb5e588" target="_top" xlink:title="view.CommandString.setCommand">
<polygon fill="white" stroke="black" points="616,-93.5 616,-112.5 802,-112.5 802,-93.5 616,-93.5"/>
<text text-anchor="middle" x="709" y="-100.5" font-family="Helvetica,sans-Serif" font-size="10.00">view.CommandString.setCommand</text>
</a>
</g>
</g>
<!-- Node1&#45;&gt;Node3 -->
<g id="edge8" class="edge"><title>Node1&#45;&gt;Node3</title>
<path fill="none" stroke="midnightblue" d="M92.4196,-144.681C112.445,-159.609 153.711,-187.608 194,-198 376.439,-245.057 601.038,-153.3 679.414,-116.938"/>
<polygon fill="midnightblue" stroke="midnightblue" points="681.094,-120.016 688.653,-112.592 678.114,-113.682 681.094,-120.016"/>
</g>
<!-- Node4 -->
<g id="node4" class="node"><title>Node4</title>
<g id="a_node4"><a xlink:href="../../da/d64/classview_1_1panes_1_1_pen_pane.html#abc333a7f904415e7c1cc5e09d2505014" target="_top" xlink:title="view.panes.PenPane.makeButton">
<polygon fill="white" stroke="black" points="194.5,-169.5 194.5,-188.5 369.5,-188.5 369.5,-169.5 194.5,-169.5"/>
<text text-anchor="middle" x="282" y="-176.5" font-family="Helvetica,sans-Serif" font-size="10.00">view.panes.PenPane.makeButton</text>
</a>
</g>
</g>
<!-- Node1&#45;&gt;Node4 -->
<g id="edge3" class="edge"><title>Node1&#45;&gt;Node4</title>
<path fill="none" stroke="midnightblue" d="M123.614,-144.547C154.168,-151.236 195.181,-160.214 227.68,-167.328"/>
<polygon fill="midnightblue" stroke="midnightblue" points="226.954,-170.752 237.471,-169.471 228.451,-163.914 226.954,-170.752"/>
</g>
<!-- Node5 -->
<g id="node5" class="node"><title>Node5</title>
<g id="a_node5"><a xlink:href="../../da/d64/classview_1_1panes_1_1_pen_pane.html#a17ad2d4ab4a58ef46fb0ab09068d2e8b" target="_top" xlink:title="view.panes.PenPane.makeColor\lPicker">
<polygon fill="white" stroke="black" points="198.5,-120 198.5,-150 365.5,-150 365.5,-120 198.5,-120"/>
<text text-anchor="start" x="206.5" y="-138" font-family="Helvetica,sans-Serif" font-size="10.00">view.panes.PenPane.makeColor</text>
<text text-anchor="middle" x="282" y="-127" font-family="Helvetica,sans-Serif" font-size="10.00">Picker</text>
</a>
</g>
</g>
<!-- Node1&#45;&gt;Node5 -->
<g id="edge4" class="edge"><title>Node1&#45;&gt;Node5</title>
<path fill="none" stroke="midnightblue" d="M157.712,-135C167.654,-135 177.911,-135 188.064,-135"/>
<polygon fill="midnightblue" stroke="midnightblue" points="188.167,-138.5 198.167,-135 188.167,-131.5 188.167,-138.5"/>
</g>
<!-- Node6 -->
<g id="node6" class="node"><title>Node6</title>
<g id="a_node6"><a xlink:href="../../da/d64/classview_1_1panes_1_1_pen_pane.html#aee0977bc29663b1fb656a34f6e7adb10" target="_top" xlink:title="view.panes.PenPane.makeMenu">
<polygon fill="white" stroke="black" points="197.5,-81.5 197.5,-100.5 366.5,-100.5 366.5,-81.5 197.5,-81.5"/>
<text text-anchor="middle" x="282" y="-88.5" font-family="Helvetica,sans-Serif" font-size="10.00">view.panes.PenPane.makeMenu</text>
</a>
</g>
</g>
<!-- Node1&#45;&gt;Node6 -->
<g id="edge5" class="edge"><title>Node1&#45;&gt;Node6</title>
<path fill="none" stroke="midnightblue" d="M123.305,-125.494C144.598,-120.822 170.644,-115.111 194,-110 204.754,-107.647 216.256,-105.133 227.258,-102.729"/>
<polygon fill="midnightblue" stroke="midnightblue" points="228.163,-106.114 237.186,-100.561 226.669,-99.2753 228.163,-106.114"/>
</g>
<!-- Node8 -->
<g id="node8" class="node"><title>Node8</title>
<g id="a_node8"><a xlink:href="../../da/d64/classview_1_1panes_1_1_pen_pane.html#aa1e66639fe9d5a43850c7a076129e0a4" target="_top" xlink:title="view.panes.PenPane.setPenDash">
<polygon fill="white" stroke="black" points="406.5,-49.5 406.5,-68.5 579.5,-68.5 579.5,-49.5 406.5,-49.5"/>
<text text-anchor="middle" x="493" y="-56.5" font-family="Helvetica,sans-Serif" font-size="10.00">view.panes.PenPane.setPenDash</text>
</a>
</g>
</g>
<!-- Node1&#45;&gt;Node8 -->
<g id="edge9" class="edge"><title>Node1&#45;&gt;Node8</title>
<path fill="none" stroke="midnightblue" d="M92.8052,-125.287C113.027,-110.584 154.165,-83.2063 194,-72 259.738,-53.5068 336.824,-50.6165 396.124,-52.1616"/>
<polygon fill="midnightblue" stroke="midnightblue" points="396.128,-55.6633 406.231,-52.4721 396.343,-48.6666 396.128,-55.6633"/>
</g>
<!-- Node9 -->
<g id="node9" class="node"><title>Node9</title>
<g id="a_node9"><a xlink:href="../../da/d64/classview_1_1panes_1_1_pen_pane.html#ae74fd1dadc881ce65eefcb7bdc0095a9" target="_top" xlink:title="view.panes.PenPane.setPen\lWidth">
<polygon fill="white" stroke="black" points="418.5,-0 418.5,-30 567.5,-30 567.5,-0 418.5,-0"/>
<text text-anchor="start" x="426.5" y="-18" font-family="Helvetica,sans-Serif" font-size="10.00">view.panes.PenPane.setPen</text>
<text text-anchor="middle" x="493" y="-7" font-family="Helvetica,sans-Serif" font-size="10.00">Width</text>
</a>
</g>
</g>
<!-- Node1&#45;&gt;Node9 -->
<g id="edge11" class="edge"><title>Node1&#45;&gt;Node9</title>
<path fill="none" stroke="midnightblue" d="M88.9318,-125.324C106.815,-106.664 149.165,-65.9637 194,-48 262.655,-20.4922 346.902,-13.3539 408.282,-12.4477"/>
<polygon fill="midnightblue" stroke="midnightblue" points="408.348,-15.9474 418.314,-12.3519 408.281,-8.94768 408.348,-15.9474"/>
</g>
<!-- Node2&#45;&gt;Node3 -->
<g id="edge2" class="edge"><title>Node2&#45;&gt;Node3</title>
<path fill="none" stroke="midnightblue" d="M548.926,-245.994C559.641,-241.934 570.491,-236.969 580,-231 628.758,-200.396 673.274,-148.054 694.656,-120.752"/>
<polygon fill="midnightblue" stroke="midnightblue" points="697.431,-122.884 700.761,-112.826 691.885,-118.612 697.431,-122.884"/>
</g>
<!-- Node7 -->
<g id="node7" class="node"><title>Node7</title>
<g id="a_node7"><a xlink:href="../../da/d64/classview_1_1panes_1_1_pen_pane.html#ab5735f00ef7a3f0569fb667d0fbb385d" target="_top" xlink:title="view.panes.PenPane.setPen\lStyle">
<polygon fill="white" stroke="black" points="418.5,-88 418.5,-118 567.5,-118 567.5,-88 418.5,-88"/>
<text text-anchor="start" x="426.5" y="-106" font-family="Helvetica,sans-Serif" font-size="10.00">view.panes.PenPane.setPen</text>
<text text-anchor="middle" x="493" y="-95" font-family="Helvetica,sans-Serif" font-size="10.00">Style</text>
</a>
</g>
</g>
<!-- Node6&#45;&gt;Node7 -->
<g id="edge6" class="edge"><title>Node6&#45;&gt;Node7</title>
<path fill="none" stroke="midnightblue" d="M366.503,-95.7945C380.185,-96.58 394.367,-97.3943 408.059,-98.1804"/>
<polygon fill="midnightblue" stroke="midnightblue" points="408.233,-101.696 418.417,-98.7751 408.634,-94.7076 408.233,-101.696"/>
</g>
<!-- Node7&#45;&gt;Node3 -->
<g id="edge7" class="edge"><title>Node7&#45;&gt;Node3</title>
<path fill="none" stroke="midnightblue" d="M567.647,-103C579.858,-103 592.713,-103 605.483,-103"/>
<polygon fill="midnightblue" stroke="midnightblue" points="605.692,-106.5 615.692,-103 605.692,-99.5001 605.692,-106.5"/>
</g>
<!-- Node8&#45;&gt;Node3 -->
<g id="edge10" class="edge"><title>Node8&#45;&gt;Node3</title>
<path fill="none" stroke="midnightblue" d="M540.435,-68.5473C573.105,-75.2645 617.007,-84.2911 651.678,-91.4198"/>
<polygon fill="midnightblue" stroke="midnightblue" points="651.156,-94.8855 661.656,-93.4713 652.566,-88.029 651.156,-94.8855"/>
</g>
<!-- Node9&#45;&gt;Node3 -->
<g id="edge12" class="edge"><title>Node9&#45;&gt;Node3</title>
<path fill="none" stroke="midnightblue" d="M550.907,-30.0191C560.709,-33.0378 570.723,-36.4002 580,-40 616.445,-54.1417 656.607,-74.7935 682.048,-88.5522"/>
<polygon fill="midnightblue" stroke="midnightblue" points="680.585,-91.741 691.04,-93.4599 683.939,-85.5967 680.585,-91.741"/>
</g>
</g>
</svg>
