<?xml version="1.0" encoding="UTF-8" standalone="no"?>
<!DOCTYPE svg PUBLIC "-//W3C//DTD SVG 1.1//EN"
 "http://www.w3.org/Graphics/SVG/1.1/DTD/svg11.dtd">
<!-- Generated by graphviz version 2.36.0 (20140111.2315)
 -->
<!-- Title: commands.ListCommand.getNumParameters Pages: 1 -->
<svg width="408pt" height="87pt"
 viewBox="0.00 0.00 408.00 87.00" xmlns="http://www.w3.org/2000/svg" xmlns:xlink="http://www.w3.org/1999/xlink">
<g id="graph0" class="graph" transform="scale(1 1) rotate(0) translate(4 83)">
<title>commands.ListCommand.getNumParameters</title>
<polygon fill="white" stroke="none" points="-4,4 -4,-83 404,-83 404,4 -4,4"/>
<!-- Node1 -->
<g id="node1" class="node"><title>Node1</title>
<polygon fill="#bfbfbf" stroke="black" points="0.5,-24 0.5,-54 159.5,-54 159.5,-24 0.5,-24"/>
<text text-anchor="start" x="8.5" y="-42" font-family="Helvetica,sans-Serif" font-size="10.00">commands.ListCommand.get</text>
<text text-anchor="middle" x="80" y="-31" font-family="Helvetica,sans-Serif" font-size="10.00">NumParameters</text>
</g>
<!-- Node2 -->
<g id="node2" class="node"><title>Node2</title>
<g id="a_node2"><a xlink:href="../../dc/d1e/classcommands_1_1_make_user_instruction_command.html#a48f002dce2435b1da4d1ce961b8c9499" target="_top" xlink:title="commands.MakeUserInstruction\lCommand.executeCommand">
<polygon fill="white" stroke="black" points="212,-49 212,-79 384,-79 384,-49 212,-49"/>
<text text-anchor="start" x="220" y="-67" font-family="Helvetica,sans-Serif" font-size="10.00">commands.MakeUserInstruction</text>
<text text-anchor="middle" x="298" y="-56" font-family="Helvetica,sans-Serif" font-size="10.00">Command.executeCommand</text>
</a>
</g>
</g>
<!-- Node1&#45;&gt;Node2 -->
<g id="edge1" class="edge"><title>Node1&#45;&gt;Node2</title>
<path fill="none" stroke="midnightblue" d="M169.664,-49.2621C183.624,-50.8778 198.029,-52.5451 211.906,-54.1512"/>
<polygon fill="midnightblue" stroke="midnightblue" points="169.928,-45.7693 159.592,-48.0963 169.123,-52.7229 169.928,-45.7693"/>
</g>
<!-- Node3 -->
<g id="node3" class="node"><title>Node3</title>
<g id="a_node3"><a xlink:href="../../dd/de4/classcommands_1_1_custom_command.html#a5ad25438a49d3e4eeba835fefe8b730a" target="_top" xlink:title="commands.CustomCommand.execute\lCommand">
<polygon fill="white" stroke="black" points="196.5,-0 196.5,-30 399.5,-30 399.5,-0 196.5,-0"/>
<text text-anchor="start" x="204.5" y="-18" font-family="Helvetica,sans-Serif" font-size="10.00">commands.CustomCommand.execute</text>
<text text-anchor="middle" x="298" y="-7" font-family="Helvetica,sans-Serif" font-size="10.00">Command</text>
</a>
</g>
</g>
<!-- Node1&#45;&gt;Node3 -->
<g id="edge2" class="edge"><title>Node1&#45;&gt;Node3</title>
<path fill="none" stroke="midnightblue" d="M169.777,-29.1359C178.533,-28.163 187.464,-27.1707 196.328,-26.1858"/>
<polygon fill="midnightblue" stroke="midnightblue" points="169.144,-25.6846 159.592,-30.2676 169.917,-32.6417 169.144,-25.6846"/>
</g>
</g>
</svg>
