<?xml version="1.0" encoding="UTF-8" standalone="no"?>
<!DOCTYPE svg PUBLIC "-//W3C//DTD SVG 1.1//EN"
 "http://www.w3.org/Graphics/SVG/1.1/DTD/svg11.dtd">
<!-- Generated by graphviz version 2.36.0 (20140111.2315)
 -->
<!-- Title: view.panes.PenPane.makeMenu Pages: 1 -->
<svg width="586pt" height="38pt"
 viewBox="0.00 0.00 586.00 38.00" xmlns="http://www.w3.org/2000/svg" xmlns:xlink="http://www.w3.org/1999/xlink">
<g id="graph0" class="graph" transform="scale(1 1) rotate(0) translate(4 34)">
<title>view.panes.PenPane.makeMenu</title>
<polygon fill="white" stroke="none" points="-4,4 -4,-34 582,-34 582,4 -4,4"/>
<!-- Node1 -->
<g id="node1" class="node"><title>Node1</title>
<polygon fill="#bfbfbf" stroke="black" points="0.5,-5.5 0.5,-24.5 169.5,-24.5 169.5,-5.5 0.5,-5.5"/>
<text text-anchor="middle" x="85" y="-12.5" font-family="Helvetica,sans-Serif" font-size="10.00">view.panes.PenPane.makeMenu</text>
</g>
<!-- Node2 -->
<g id="node2" class="node"><title>Node2</title>
<g id="a_node2"><a xlink:href="../../da/d64/classview_1_1panes_1_1_pen_pane.html#ab5735f00ef7a3f0569fb667d0fbb385d" target="_top" xlink:title="view.panes.PenPane.setPen\lStyle">
<polygon fill="white" stroke="black" points="206.5,-0 206.5,-30 355.5,-30 355.5,-0 206.5,-0"/>
<text text-anchor="start" x="214.5" y="-18" font-family="Helvetica,sans-Serif" font-size="10.00">view.panes.PenPane.setPen</text>
<text text-anchor="middle" x="281" y="-7" font-family="Helvetica,sans-Serif" font-size="10.00">Style</text>
</a>
</g>
</g>
<!-- Node1&#45;&gt;Node2 -->
<g id="edge1" class="edge"><title>Node1&#45;&gt;Node2</title>
<path fill="none" stroke="midnightblue" d="M169.681,-15C178.452,-15 187.372,-15 196.145,-15"/>
<polygon fill="midnightblue" stroke="midnightblue" points="196.359,-18.5001 206.359,-15 196.359,-11.5001 196.359,-18.5001"/>
</g>
<!-- Node3 -->
<g id="node3" class="node"><title>Node3</title>
<g id="a_node3"><a xlink:href="../../d8/dd2/classview_1_1_command_string.html#a666bbe4a67f0516444f5ee29cbb5e588" target="_top" xlink:title="view.CommandString.setCommand">
<polygon fill="white" stroke="black" points="392,-5.5 392,-24.5 578,-24.5 578,-5.5 392,-5.5"/>
<text text-anchor="middle" x="485" y="-12.5" font-family="Helvetica,sans-Serif" font-size="10.00">view.CommandString.setCommand</text>
</a>
</g>
</g>
<!-- Node2&#45;&gt;Node3 -->
<g id="edge2" class="edge"><title>Node2&#45;&gt;Node3</title>
<path fill="none" stroke="midnightblue" d="M355.784,-15C364.209,-15 372.906,-15 381.617,-15"/>
<polygon fill="midnightblue" stroke="midnightblue" points="381.835,-18.5001 391.835,-15 381.835,-11.5001 381.835,-18.5001"/>
</g>
</g>
</svg>
