<?xml version="1.0" encoding="UTF-8" standalone="no"?>
<!DOCTYPE svg PUBLIC "-//W3C//DTD SVG 1.1//EN"
 "http://www.w3.org/Graphics/SVG/1.1/DTD/svg11.dtd">
<!-- Generated by graphviz version 2.36.0 (20140111.2315)
 -->
<!-- Title: commands.YCoordinateCommand.executeCommand Pages: 1 -->
<svg width="628pt" height="99pt"
 viewBox="0.00 0.00 628.00 99.00" xmlns="http://www.w3.org/2000/svg" xmlns:xlink="http://www.w3.org/1999/xlink">
<g id="graph0" class="graph" transform="scale(1 1) rotate(0) translate(4 95)">
<title>commands.YCoordinateCommand.executeCommand</title>
<polygon fill="white" stroke="none" points="-4,4 -4,-95 624,-95 624,4 -4,4"/>
<!-- Node1 -->
<g id="node1" class="node"><title>Node1</title>
<polygon fill="#bfbfbf" stroke="black" points="0,-17 0,-47 222,-47 222,-17 0,-17"/>
<text text-anchor="start" x="8" y="-35" font-family="Helvetica,sans-Serif" font-size="10.00">commands.YCoordinateCommand.execute</text>
<text text-anchor="middle" x="111" y="-24" font-family="Helvetica,sans-Serif" font-size="10.00">Command</text>
</g>
<!-- Node2 -->
<g id="node2" class="node"><title>Node2</title>
<g id="a_node2"><a xlink:href="../../dd/dd6/classcommands_1_1_command.html#a761bd86c36bd6e2d0c4145647c7a4a17" target="_top" xlink:title="commands.Command.getFirst\lTurtle">
<polygon fill="white" stroke="black" points="258,-39 258,-69 420,-69 420,-39 258,-39"/>
<text text-anchor="start" x="266" y="-57" font-family="Helvetica,sans-Serif" font-size="10.00">commands.Command.getFirst</text>
<text text-anchor="middle" x="339" y="-46" font-family="Helvetica,sans-Serif" font-size="10.00">Turtle</text>
</a>
</g>
</g>
<!-- Node1&#45;&gt;Node2 -->
<g id="edge1" class="edge"><title>Node1&#45;&gt;Node2</title>
<path fill="none" stroke="midnightblue" d="M222.021,-42.71C230.64,-43.549 239.282,-44.3903 247.747,-45.2143"/>
<polygon fill="midnightblue" stroke="midnightblue" points="247.678,-48.7241 257.97,-46.2095 248.357,-41.757 247.678,-48.7241"/>
</g>
<!-- Node5 -->
<g id="node5" class="node"><title>Node5</title>
<g id="a_node5"><a xlink:href="../../d6/d34/classmodel_1_1_turtle.html#a2470b9b4ef48a261324047de8ebdc242" target="_top" xlink:title="model.Turtle.getNewLocation">
<polygon fill="white" stroke="black" points="261.5,-0.5 261.5,-19.5 416.5,-19.5 416.5,-0.5 261.5,-0.5"/>
<text text-anchor="middle" x="339" y="-7.5" font-family="Helvetica,sans-Serif" font-size="10.00">model.Turtle.getNewLocation</text>
</a>
</g>
</g>
<!-- Node1&#45;&gt;Node5 -->
<g id="edge4" class="edge"><title>Node1&#45;&gt;Node5</title>
<path fill="none" stroke="midnightblue" d="M222.021,-21.29C231.749,-20.3431 241.506,-19.3932 251.004,-18.4687"/>
<polygon fill="midnightblue" stroke="midnightblue" points="251.581,-21.9291 261.195,-17.4766 250.903,-14.962 251.581,-21.9291"/>
</g>
<!-- Node3 -->
<g id="node3" class="node"><title>Node3</title>
<g id="a_node3"><a xlink:href="../../df/d50/classmodel_1_1_turtle_set_manager.html#a9a65c0be3b9c21abaf0ebaa54e5b8484" target="_top" xlink:title="model.TurtleSetManager.get\lActiveTurtles">
<polygon fill="white" stroke="black" points="462,-61 462,-91 614,-91 614,-61 462,-61"/>
<text text-anchor="start" x="470" y="-79" font-family="Helvetica,sans-Serif" font-size="10.00">model.TurtleSetManager.get</text>
<text text-anchor="middle" x="538" y="-68" font-family="Helvetica,sans-Serif" font-size="10.00">ActiveTurtles</text>
</a>
</g>
</g>
<!-- Node2&#45;&gt;Node3 -->
<g id="edge2" class="edge"><title>Node2&#45;&gt;Node3</title>
<path fill="none" stroke="midnightblue" d="M420.127,-62.9482C430.541,-64.1112 441.239,-65.3058 451.732,-66.4777"/>
<polygon fill="midnightblue" stroke="midnightblue" points="451.388,-69.9609 461.715,-67.5925 452.165,-63.0042 451.388,-69.9609"/>
</g>
<!-- Node4 -->
<g id="node4" class="node"><title>Node4</title>
<g id="a_node4"><a xlink:href="../../d3/d42/classmodel_1_1_model.html#a1a683ba5e58fcb3c8882c8e61df20dc0" target="_top" xlink:title="model.Model.getTurtleManager">
<polygon fill="white" stroke="black" points="456,-22.5 456,-41.5 620,-41.5 620,-22.5 456,-22.5"/>
<text text-anchor="middle" x="538" y="-29.5" font-family="Helvetica,sans-Serif" font-size="10.00">model.Model.getTurtleManager</text>
</a>
</g>
</g>
<!-- Node2&#45;&gt;Node4 -->
<g id="edge3" class="edge"><title>Node2&#45;&gt;Node4</title>
<path fill="none" stroke="midnightblue" d="M420.127,-45.0518C428.626,-44.1027 437.314,-43.1325 445.926,-42.1707"/>
<polygon fill="midnightblue" stroke="midnightblue" points="446.434,-45.6358 455.984,-41.0475 445.657,-38.679 446.434,-45.6358"/>
</g>
</g>
</svg>
