<?xml version="1.0" encoding="UTF-8" standalone="no"?>
<!DOCTYPE svg PUBLIC "-//W3C//DTD SVG 1.1//EN"
 "http://www.w3.org/Graphics/SVG/1.1/DTD/svg11.dtd">
<!-- Generated by graphviz version 2.36.0 (20140111.2315)
 -->
<!-- Title: view.panes.ViewPaneModule.updateTurtle Pages: 1 -->
<svg width="1580pt" height="1361pt"
 viewBox="0.00 0.00 1580.00 1361.00" xmlns="http://www.w3.org/2000/svg" xmlns:xlink="http://www.w3.org/1999/xlink">
<g id="graph0" class="graph" transform="scale(1 1) rotate(0) translate(4 1357)">
<title>view.panes.ViewPaneModule.updateTurtle</title>
<polygon fill="white" stroke="none" points="-4,4 -4,-1357 1576,-1357 1576,4 -4,4"/>
<!-- Node1 -->
<g id="node1" class="node"><title>Node1</title>
<polygon fill="#bfbfbf" stroke="black" points="0,-286 0,-316 188,-316 188,-286 0,-286"/>
<text text-anchor="start" x="8" y="-304" font-family="Helvetica,sans-Serif" font-size="10.00">view.panes.ViewPaneModule.update</text>
<text text-anchor="middle" x="94" y="-293" font-family="Helvetica,sans-Serif" font-size="10.00">Turtle</text>
</g>
<!-- Node2 -->
<g id="node2" class="node"><title>Node2</title>
<g id="a_node2"><a xlink:href="../../db/db5/classview_1_1panes_1_1_view_pane_module.html#aa2a1bf15bc036ee4237bf63749d85baf" target="_top" xlink:title="view.panes.ViewPaneModule.updateView">
<polygon fill="white" stroke="black" points="224.5,-291.5 224.5,-310.5 433.5,-310.5 433.5,-291.5 224.5,-291.5"/>
<text text-anchor="middle" x="329" y="-298.5" font-family="Helvetica,sans-Serif" font-size="10.00">view.panes.ViewPaneModule.updateView</text>
</a>
</g>
</g>
<!-- Node1&#45;&gt;Node2 -->
<g id="edge1" class="edge"><title>Node1&#45;&gt;Node2</title>
<path fill="none" stroke="midnightblue" d="M198.215,-301C206.887,-301 215.658,-301 224.333,-301"/>
<polygon fill="midnightblue" stroke="midnightblue" points="198.092,-297.5 188.092,-301 198.092,-304.5 198.092,-297.5"/>
</g>
<!-- Node3 -->
<g id="node3" class="node"><title>Node3</title>
<g id="a_node3"><a xlink:href="../../d3/d42/classmodel_1_1_model.html#a76160d002c1e68b566307ac44356f6e5" target="_top" xlink:title="model.Model.notifyView">
<polygon fill="white" stroke="black" points="497.5,-313.5 497.5,-332.5 626.5,-332.5 626.5,-313.5 497.5,-313.5"/>
<text text-anchor="middle" x="562" y="-320.5" font-family="Helvetica,sans-Serif" font-size="10.00">model.Model.notifyView</text>
</a>
</g>
</g>
<!-- Node2&#45;&gt;Node3 -->
<g id="edge2" class="edge"><title>Node2&#45;&gt;Node3</title>
<path fill="none" stroke="midnightblue" d="M440.173,-311.493C459.729,-313.355 479.49,-315.237 497.206,-316.924"/>
<polygon fill="midnightblue" stroke="midnightblue" points="440.263,-307.986 429.976,-310.522 439.6,-314.954 440.263,-307.986"/>
</g>
<!-- Node37 -->
<g id="node37" class="node"><title>Node37</title>
<g id="a_node37"><a xlink:href="../../db/db5/classview_1_1panes_1_1_view_pane_module.html#a200bd9d0cb7f1fb3482afb7f085939cd" target="_top" xlink:title="view.panes.ViewPaneModule.toggle\lActive">
<polygon fill="white" stroke="black" points="470,-264 470,-294 654,-294 654,-264 470,-264"/>
<text text-anchor="start" x="478" y="-282" font-family="Helvetica,sans-Serif" font-size="10.00">view.panes.ViewPaneModule.toggle</text>
<text text-anchor="middle" x="562" y="-271" font-family="Helvetica,sans-Serif" font-size="10.00">Active</text>
</a>
</g>
</g>
<!-- Node2&#45;&gt;Node37 -->
<g id="edge36" class="edge"><title>Node2&#45;&gt;Node37</title>
<path fill="none" stroke="midnightblue" d="M439.986,-290.525C450.025,-289.569 460.12,-288.608 469.966,-287.67"/>
<polygon fill="midnightblue" stroke="midnightblue" points="439.6,-287.046 429.976,-291.478 440.263,-294.014 439.6,-287.046"/>
</g>
<!-- Node4 -->
<g id="node4" class="node"><title>Node4</title>
<g id="a_node4"><a xlink:href="../../dd/dd6/classcommands_1_1_command.html#abafa69601e87c34d4453cf84349d6f9c" target="_top" xlink:title="commands.Command.execute\lCommand">
<polygon fill="white" stroke="black" points="690.5,-661 690.5,-691 855.5,-691 855.5,-661 690.5,-661"/>
<text text-anchor="start" x="698.5" y="-679" font-family="Helvetica,sans-Serif" font-size="10.00">commands.Command.execute</text>
<text text-anchor="middle" x="773" y="-668" font-family="Helvetica,sans-Serif" font-size="10.00">Command</text>
</a>
</g>
</g>
<!-- Node3&#45;&gt;Node4 -->
<g id="edge3" class="edge"><title>Node3&#45;&gt;Node4</title>
<path fill="none" stroke="midnightblue" d="M573.99,-341.563C610.815,-403.76 729.416,-604.075 763.039,-660.865"/>
<polygon fill="midnightblue" stroke="midnightblue" points="576.914,-339.631 568.808,-332.81 570.891,-343.198 576.914,-339.631"/>
</g>
<!-- Node33 -->
<g id="node33" class="node"><title>Node33</title>
<g id="a_node33"><a xlink:href="../../d3/d42/classmodel_1_1_model.html#a73435cc7a2b6100031bbdd2cf6d6b4e8" target="_top" xlink:title="model.Model.updateModel">
<polygon fill="white" stroke="black" points="701.5,-313.5 701.5,-332.5 844.5,-332.5 844.5,-313.5 701.5,-313.5"/>
<text text-anchor="middle" x="773" y="-320.5" font-family="Helvetica,sans-Serif" font-size="10.00">model.Model.updateModel</text>
</a>
</g>
</g>
<!-- Node3&#45;&gt;Node33 -->
<g id="edge32" class="edge"><title>Node3&#45;&gt;Node33</title>
<path fill="none" stroke="midnightblue" d="M636.72,-323C657.752,-323 680.611,-323 701.45,-323"/>
<polygon fill="midnightblue" stroke="midnightblue" points="636.558,-319.5 626.558,-323 636.558,-326.5 636.558,-319.5"/>
</g>
<!-- Node5 -->
<g id="node5" class="node"><title>Node5</title>
<g id="a_node5"><a xlink:href="../../d1/d79/classcommands_1_1_sum_command.html#a792945436d0c3ff1f58301fcc50f5ae1" target="_top" xlink:title="commands.SumCommand.execute\lCommand">
<polygon fill="white" stroke="black" points="918,-1323 918,-1353 1106,-1353 1106,-1323 918,-1323"/>
<text text-anchor="start" x="926" y="-1341" font-family="Helvetica,sans-Serif" font-size="10.00">commands.SumCommand.execute</text>
<text text-anchor="middle" x="1012" y="-1330" font-family="Helvetica,sans-Serif" font-size="10.00">Command</text>
</a>
</g>
</g>
<!-- Node4&#45;&gt;Node5 -->
<g id="edge4" class="edge"><title>Node4&#45;&gt;Node5</title>
<path fill="none" stroke="midnightblue" d="M775.051,-701.444C780.011,-808.823 804.634,-1223.52 892,-1313 899.3,-1320.48 908.227,-1326 917.877,-1330.04"/>
<polygon fill="midnightblue" stroke="midnightblue" points="778.537,-701.061 774.596,-691.226 771.544,-701.372 778.537,-701.061"/>
</g>
<!-- Node6 -->
<g id="node6" class="node"><title>Node6</title>
<g id="a_node6"><a xlink:href="../../d6/dc0/classcommands_1_1_repeat_command.html#a40fb82831e8b2beaa7e31913e46e15eb" target="_top" xlink:title="commands.RepeatCommand.execute\lCommand">
<polygon fill="white" stroke="black" points="913,-1274 913,-1304 1111,-1304 1111,-1274 913,-1274"/>
<text text-anchor="start" x="921" y="-1292" font-family="Helvetica,sans-Serif" font-size="10.00">commands.RepeatCommand.execute</text>
<text text-anchor="middle" x="1012" y="-1281" font-family="Helvetica,sans-Serif" font-size="10.00">Command</text>
</a>
</g>
</g>
<!-- Node4&#45;&gt;Node6 -->
<g id="edge5" class="edge"><title>Node4&#45;&gt;Node6</title>
<path fill="none" stroke="midnightblue" d="M775.475,-701.431C781.924,-803.56 811.027,-1182.29 892,-1264 898.018,-1270.07 905.111,-1274.85 912.787,-1278.59"/>
<polygon fill="midnightblue" stroke="midnightblue" points="778.95,-700.909 774.844,-691.142 771.963,-701.338 778.95,-700.909"/>
</g>
<!-- Node7 -->
<g id="node7" class="node"><title>Node7</title>
<g id="a_node7"><a xlink:href="../../dd/d82/classcommands_1_1_remainder_command.html#a99d4baf3f1b4a3c8d0cd69274380a2cf" target="_top" xlink:title="commands.RemainderCommand.execute\lCommand">
<polygon fill="white" stroke="black" points="904,-1225 904,-1255 1120,-1255 1120,-1225 904,-1225"/>
<text text-anchor="start" x="912" y="-1243" font-family="Helvetica,sans-Serif" font-size="10.00">commands.RemainderCommand.execute</text>
<text text-anchor="middle" x="1012" y="-1232" font-family="Helvetica,sans-Serif" font-size="10.00">Command</text>
</a>
</g>
</g>
<!-- Node4&#45;&gt;Node7 -->
<g id="edge6" class="edge"><title>Node4&#45;&gt;Node7</title>
<path fill="none" stroke="midnightblue" d="M775.955,-701.181C783.95,-797.511 817.333,-1140.96 892,-1215 895.823,-1218.79 900.064,-1222.07 904.604,-1224.91"/>
<polygon fill="midnightblue" stroke="midnightblue" points="779.441,-700.858 775.143,-691.174 772.464,-701.424 779.441,-700.858"/>
</g>
<!-- Node8 -->
<g id="node8" class="node"><title>Node8</title>
<g id="a_node8"><a xlink:href="../../df/df5/classcommands_1_1_minus_command.html#a82548bbb25a73194469e1ff81b19cf27" target="_top" xlink:title="commands.MinusCommand.execute\lCommand">
<polygon fill="white" stroke="black" points="915.5,-1176 915.5,-1206 1108.5,-1206 1108.5,-1176 915.5,-1176"/>
<text text-anchor="start" x="923.5" y="-1194" font-family="Helvetica,sans-Serif" font-size="10.00">commands.MinusCommand.execute</text>
<text text-anchor="middle" x="1012" y="-1183" font-family="Helvetica,sans-Serif" font-size="10.00">Command</text>
</a>
</g>
</g>
<!-- Node4&#45;&gt;Node8 -->
<g id="edge7" class="edge"><title>Node4&#45;&gt;Node8</title>
<path fill="none" stroke="midnightblue" d="M776.552,-701.225C786.239,-791.929 823.689,-1099.66 892,-1166 898.739,-1172.54 906.731,-1177.57 915.337,-1181.41"/>
<polygon fill="midnightblue" stroke="midnightblue" points="780.032,-700.851 775.508,-691.27 773.07,-701.581 780.032,-700.851"/>
</g>
<!-- Node9 -->
<g id="node9" class="node"><title>Node9</title>
<g id="a_node9"><a xlink:href="../../d3/d37/classcommands_1_1_set_background_command.html#a91dc8e21948a301c55af1cef90b77962" target="_top" xlink:title="commands.SetBackgroundCommand.execute\lCommand">
<polygon fill="white" stroke="black" points="892.5,-1127 892.5,-1157 1131.5,-1157 1131.5,-1127 892.5,-1127"/>
<text text-anchor="start" x="900.5" y="-1145" font-family="Helvetica,sans-Serif" font-size="10.00">commands.SetBackgroundCommand.execute</text>
<text text-anchor="middle" x="1012" y="-1134" font-family="Helvetica,sans-Serif" font-size="10.00">Command</text>
</a>
</g>
</g>
<!-- Node4&#45;&gt;Node9 -->
<g id="edge8" class="edge"><title>Node4&#45;&gt;Node9</title>
<path fill="none" stroke="midnightblue" d="M777.262,-701.15C788.744,-785.787 829.98,-1058.26 892,-1117 895.985,-1120.77 900.388,-1124.04 905.084,-1126.86"/>
<polygon fill="midnightblue" stroke="midnightblue" points="780.717,-700.585 775.924,-691.137 773.779,-701.512 780.717,-700.585"/>
</g>
<!-- Node10 -->
<g id="node10" class="node"><title>Node10</title>
<g id="a_node10"><a xlink:href="../../d8/dba/classcommands_1_1_product_command.html#a8bc20bc7c21a944405f599dbcfa57e67" target="_top" xlink:title="commands.ProductCommand.execute\lCommand">
<polygon fill="white" stroke="black" points="911,-1078 911,-1108 1113,-1108 1113,-1078 911,-1078"/>
<text text-anchor="start" x="919" y="-1096" font-family="Helvetica,sans-Serif" font-size="10.00">commands.ProductCommand.execute</text>
<text text-anchor="middle" x="1012" y="-1085" font-family="Helvetica,sans-Serif" font-size="10.00">Command</text>
</a>
</g>
</g>
<!-- Node4&#45;&gt;Node10 -->
<g id="edge9" class="edge"><title>Node4&#45;&gt;Node10</title>
<path fill="none" stroke="midnightblue" d="M773.405,-701.275C773.233,-771.059 782.921,-967.852 892,-1068 897.598,-1073.14 903.975,-1077.33 910.801,-1080.73"/>
<polygon fill="midnightblue" stroke="midnightblue" points="776.906,-701.233 773.504,-691.2 769.906,-701.165 776.906,-701.233"/>
</g>
<!-- Node11 -->
<g id="node11" class="node"><title>Node11</title>
<g id="a_node11"><a xlink:href="../../dd/d40/classcommands_1_1_quotient_command.html#a7e23b237cc68512dcbe6a65feb7c39e8" target="_top" xlink:title="commands.QuotientCommand.execute\lCommand">
<polygon fill="white" stroke="black" points="909,-1029 909,-1059 1115,-1059 1115,-1029 909,-1029"/>
<text text-anchor="start" x="917" y="-1047" font-family="Helvetica,sans-Serif" font-size="10.00">commands.QuotientCommand.execute</text>
<text text-anchor="middle" x="1012" y="-1036" font-family="Helvetica,sans-Serif" font-size="10.00">Command</text>
</a>
</g>
</g>
<!-- Node4&#45;&gt;Node11 -->
<g id="edge10" class="edge"><title>Node4&#45;&gt;Node11</title>
<path fill="none" stroke="midnightblue" d="M774.674,-701.514C777.822,-765.487 795.36,-933.681 892,-1019 897.064,-1023.47 902.722,-1027.21 908.745,-1030.34"/>
<polygon fill="midnightblue" stroke="midnightblue" points="778.156,-701.007 774.249,-691.159 771.162,-701.294 778.156,-701.007"/>
</g>
<!-- Node12 -->
<g id="node12" class="node"><title>Node12</title>
<g id="a_node12"><a xlink:href="../../dc/d68/classcommands_1_1_make_variable_command.html#ad0e0974744cc969c12c67805c2460ef4" target="_top" xlink:title="commands.MakeVariableCommand.execute\lCommand">
<polygon fill="white" stroke="black" points="897.5,-980 897.5,-1010 1126.5,-1010 1126.5,-980 897.5,-980"/>
<text text-anchor="start" x="905.5" y="-998" font-family="Helvetica,sans-Serif" font-size="10.00">commands.MakeVariableCommand.execute</text>
<text text-anchor="middle" x="1012" y="-987" font-family="Helvetica,sans-Serif" font-size="10.00">Command</text>
</a>
</g>
</g>
<!-- Node4&#45;&gt;Node12 -->
<g id="edge11" class="edge"><title>Node4&#45;&gt;Node12</title>
<path fill="none" stroke="midnightblue" d="M776.268,-701.004C782.857,-758.166 807.294,-898.929 892,-970 896.528,-973.799 901.489,-977.067 906.735,-979.873"/>
<polygon fill="midnightblue" stroke="midnightblue" points="779.746,-700.607 775.205,-691.035 772.785,-701.35 779.746,-700.607"/>
</g>
<!-- Node13 -->
<g id="node13" class="node"><title>Node13</title>
<g id="a_node13"><a xlink:href="../../d8/ded/classcommands_1_1_difference_command.html#a0c34c43d3bb266ef3e48ae27be938a0f" target="_top" xlink:title="commands.DifferenceCommand.execute\lCommand">
<polygon fill="white" stroke="black" points="905,-931 905,-961 1119,-961 1119,-931 905,-931"/>
<text text-anchor="start" x="913" y="-949" font-family="Helvetica,sans-Serif" font-size="10.00">commands.DifferenceCommand.execute</text>
<text text-anchor="middle" x="1012" y="-938" font-family="Helvetica,sans-Serif" font-size="10.00">Command</text>
</a>
</g>
</g>
<!-- Node4&#45;&gt;Node13 -->
<g id="edge12" class="edge"><title>Node4&#45;&gt;Node13</title>
<path fill="none" stroke="midnightblue" d="M778.533,-701.294C788.941,-751.586 819.461,-864.176 892,-921 896.903,-924.84 902.255,-928.128 907.89,-930.938"/>
<polygon fill="midnightblue" stroke="midnightblue" points="781.927,-700.411 776.559,-691.276 775.059,-701.765 781.927,-700.411"/>
</g>
<!-- Node14 -->
<g id="node14" class="node"><title>Node14</title>
<g id="a_node14"><a xlink:href="../../dd/d29/classcommands_1_1_clear_screen_command.html#a87e5eb0f4c3bb48ec0737da2aa431db3" target="_top" xlink:title="commands.ClearScreenCommand.execute\lCommand">
<polygon fill="white" stroke="black" points="900,-882 900,-912 1124,-912 1124,-882 900,-882"/>
<text text-anchor="start" x="908" y="-900" font-family="Helvetica,sans-Serif" font-size="10.00">commands.ClearScreenCommand.execute</text>
<text text-anchor="middle" x="1012" y="-889" font-family="Helvetica,sans-Serif" font-size="10.00">Command</text>
</a>
</g>
</g>
<!-- Node4&#45;&gt;Node14 -->
<g id="edge13" class="edge"><title>Node4&#45;&gt;Node14</title>
<path fill="none" stroke="midnightblue" d="M781.566,-700.672C795.857,-742.893 830.99,-828.631 892,-872 897.42,-875.853 903.308,-879.136 909.466,-881.931"/>
<polygon fill="midnightblue" stroke="midnightblue" points="784.891,-699.579 778.454,-691.165 778.239,-701.757 784.891,-699.579"/>
</g>
<!-- Node15 -->
<g id="node15" class="node"><title>Node15</title>
<g id="a_node15"><a xlink:href="../../d9/d35/classcommands_1_1_ask_command.html#ae4ba28c73ce0b5112e4032bd21a951f5" target="_top" xlink:title="commands.AskCommand.execute\lCommand">
<polygon fill="white" stroke="black" points="921,-833 921,-863 1103,-863 1103,-833 921,-833"/>
<text text-anchor="start" x="929" y="-851" font-family="Helvetica,sans-Serif" font-size="10.00">commands.AskCommand.execute</text>
<text text-anchor="middle" x="1012" y="-840" font-family="Helvetica,sans-Serif" font-size="10.00">Command</text>
</a>
</g>
</g>
<!-- Node4&#45;&gt;Node15 -->
<g id="edge14" class="edge"><title>Node4&#45;&gt;Node15</title>
<path fill="none" stroke="midnightblue" d="M786.524,-700.426C804.923,-733.7 842.506,-792.605 892,-823 900.815,-828.413 910.615,-832.67 920.7,-836.015"/>
<polygon fill="midnightblue" stroke="midnightblue" points="789.47,-698.514 781.644,-691.373 783.309,-701.836 789.47,-698.514"/>
</g>
<!-- Node16 -->
<g id="node16" class="node"><title>Node16</title>
<g id="a_node16"><a xlink:href="../../d3/d49/classcommands_1_1_if_else_command.html#a3b3d15925117d366a69f8ebd1dbc2dbc" target="_top" xlink:title="commands.IfElseCommand.execute\lCommand">
<polygon fill="white" stroke="black" points="917,-784 917,-814 1107,-814 1107,-784 917,-784"/>
<text text-anchor="start" x="925" y="-802" font-family="Helvetica,sans-Serif" font-size="10.00">commands.IfElseCommand.execute</text>
<text text-anchor="middle" x="1012" y="-791" font-family="Helvetica,sans-Serif" font-size="10.00">Command</text>
</a>
</g>
</g>
<!-- Node4&#45;&gt;Node16 -->
<g id="edge15" class="edge"><title>Node4&#45;&gt;Node16</title>
<path fill="none" stroke="midnightblue" d="M794.734,-698.758C816.669,-721.389 853.392,-755.347 892,-774 900.079,-777.903 908.755,-781.199 917.607,-783.982"/>
<polygon fill="midnightblue" stroke="midnightblue" points="797.04,-696.105 787.613,-691.27 791.967,-700.928 797.04,-696.105"/>
</g>
<!-- Node18 -->
<g id="node18" class="node"><title>Node18</title>
<g id="a_node18"><a xlink:href="../../d8/d57/classcommands_1_1_for_command.html#aeb06a37d7f9845eb546425bae6ea9f58" target="_top" xlink:title="commands.ForCommand.execute\lCommand">
<polygon fill="white" stroke="black" points="922,-735 922,-765 1102,-765 1102,-735 922,-735"/>
<text text-anchor="start" x="930" y="-753" font-family="Helvetica,sans-Serif" font-size="10.00">commands.ForCommand.execute</text>
<text text-anchor="middle" x="1012" y="-742" font-family="Helvetica,sans-Serif" font-size="10.00">Command</text>
</a>
</g>
</g>
<!-- Node4&#45;&gt;Node18 -->
<g id="edge17" class="edge"><title>Node4&#45;&gt;Node18</title>
<path fill="none" stroke="midnightblue" d="M815.147,-695.308C837.506,-705.231 865.858,-716.904 892,-725 903.999,-728.716 916.848,-732.055 929.505,-734.992"/>
<polygon fill="midnightblue" stroke="midnightblue" points="816.511,-692.084 805.955,-691.179 813.643,-698.47 816.511,-692.084"/>
</g>
<!-- Node19 -->
<g id="node19" class="node"><title>Node19</title>
<g id="a_node19"><a xlink:href="../../db/d38/classcommands_1_1_ask_with_command.html#a5ee6a090e94729d84ef423a454d446eb" target="_top" xlink:title="commands.AskWithCommand.execute\lCommand">
<polygon fill="white" stroke="black" points="910.5,-686 910.5,-716 1113.5,-716 1113.5,-686 910.5,-686"/>
<text text-anchor="start" x="918.5" y="-704" font-family="Helvetica,sans-Serif" font-size="10.00">commands.AskWithCommand.execute</text>
<text text-anchor="middle" x="1012" y="-693" font-family="Helvetica,sans-Serif" font-size="10.00">Command</text>
</a>
</g>
</g>
<!-- Node4&#45;&gt;Node19 -->
<g id="edge18" class="edge"><title>Node4&#45;&gt;Node19</title>
<path fill="none" stroke="midnightblue" d="M865.62,-685.665C880.301,-687.213 895.562,-688.823 910.437,-690.392"/>
<polygon fill="midnightblue" stroke="midnightblue" points="865.874,-682.172 855.562,-684.604 865.14,-689.133 865.874,-682.172"/>
</g>
<!-- Node20 -->
<g id="node20" class="node"><title>Node20</title>
<g id="a_node20"><a xlink:href="../../d4/d02/classcommands_1_1_do_times_command.html#a1dd20e90975d905a1bce8f018e9f7f0a" target="_top" xlink:title="commands.DoTimesCommand.execute\lCommand">
<polygon fill="white" stroke="black" points="908.5,-637 908.5,-667 1115.5,-667 1115.5,-637 908.5,-637"/>
<text text-anchor="start" x="916.5" y="-655" font-family="Helvetica,sans-Serif" font-size="10.00">commands.DoTimesCommand.execute</text>
<text text-anchor="middle" x="1012" y="-644" font-family="Helvetica,sans-Serif" font-size="10.00">Command</text>
</a>
</g>
</g>
<!-- Node4&#45;&gt;Node20 -->
<g id="edge19" class="edge"><title>Node4&#45;&gt;Node20</title>
<path fill="none" stroke="midnightblue" d="M865.643,-666.72C879.632,-665.303 894.148,-663.833 908.354,-662.395"/>
<polygon fill="midnightblue" stroke="midnightblue" points="865.158,-663.251 855.562,-667.741 865.864,-670.215 865.158,-663.251"/>
</g>
<!-- Node21 -->
<g id="node21" class="node"><title>Node21</title>
<g id="a_node21"><a xlink:href="../../dd/de4/classcommands_1_1_custom_command.html#a5ad25438a49d3e4eeba835fefe8b730a" target="_top" xlink:title="commands.CustomCommand.execute\lCommand">
<polygon fill="white" stroke="black" points="910.5,-588 910.5,-618 1113.5,-618 1113.5,-588 910.5,-588"/>
<text text-anchor="start" x="918.5" y="-606" font-family="Helvetica,sans-Serif" font-size="10.00">commands.CustomCommand.execute</text>
<text text-anchor="middle" x="1012" y="-595" font-family="Helvetica,sans-Serif" font-size="10.00">Command</text>
</a>
</g>
</g>
<!-- Node4&#45;&gt;Node21 -->
<g id="edge20" class="edge"><title>Node4&#45;&gt;Node21</title>
<path fill="none" stroke="midnightblue" d="M815.663,-656.916C837.959,-647.252 866.091,-635.921 892,-628 904.113,-624.297 917.085,-620.956 929.848,-618.011"/>
<polygon fill="midnightblue" stroke="midnightblue" points="814.24,-653.719 806.489,-660.941 817.052,-660.129 814.24,-653.719"/>
</g>
<!-- Node22 -->
<g id="node22" class="node"><title>Node22</title>
<g id="a_node22"><a xlink:href="../../d6/daf/classcommands_1_1_set_shape_command.html#a59c440316cf9e732b5aa2f46def94e10" target="_top" xlink:title="commands.SetShapeCommand.update\lTurtle">
<polygon fill="white" stroke="black" points="908,-539 908,-569 1116,-569 1116,-539 908,-539"/>
<text text-anchor="start" x="916" y="-557" font-family="Helvetica,sans-Serif" font-size="10.00">commands.SetShapeCommand.update</text>
<text text-anchor="middle" x="1012" y="-546" font-family="Helvetica,sans-Serif" font-size="10.00">Turtle</text>
</a>
</g>
</g>
<!-- Node4&#45;&gt;Node22 -->
<g id="edge21" class="edge"><title>Node4&#45;&gt;Node22</title>
<path fill="none" stroke="midnightblue" d="M794.781,-653.48C816.754,-631.086 853.505,-597.479 892,-579 900.088,-575.117 908.771,-571.835 917.627,-569.06"/>
<polygon fill="midnightblue" stroke="midnightblue" points="792.061,-651.259 787.647,-660.891 797.104,-656.114 792.061,-651.259"/>
</g>
<!-- Node23 -->
<g id="node23" class="node"><title>Node23</title>
<g id="a_node23"><a xlink:href="../../d6/d11/classcommands_1_1_set_pen_dash_command.html#a320f3b8248e3e89b2338dfefbe73f8c7" target="_top" xlink:title="commands.SetPenDashCommand.update\lTurtle">
<polygon fill="white" stroke="black" points="902,-490 902,-520 1122,-520 1122,-490 902,-490"/>
<text text-anchor="start" x="910" y="-508" font-family="Helvetica,sans-Serif" font-size="10.00">commands.SetPenDashCommand.update</text>
<text text-anchor="middle" x="1012" y="-497" font-family="Helvetica,sans-Serif" font-size="10.00">Turtle</text>
</a>
</g>
</g>
<!-- Node4&#45;&gt;Node23 -->
<g id="edge22" class="edge"><title>Node4&#45;&gt;Node23</title>
<path fill="none" stroke="midnightblue" d="M786.568,-651.74C805.017,-618.692 842.66,-560.188 892,-530 898.303,-526.144 905.106,-522.875 912.156,-520.104"/>
<polygon fill="midnightblue" stroke="midnightblue" points="783.381,-650.275 781.673,-660.731 789.528,-653.622 783.381,-650.275"/>
</g>
<!-- Node24 -->
<g id="node24" class="node"><title>Node24</title>
<g id="a_node24"><a xlink:href="../../dc/df3/classcommands_1_1_set_towards_command.html#ad82abd7dcaed57b3bdb3a4b87a91815a" target="_top" xlink:title="commands.SetTowardsCommand.update\lTurtle">
<polygon fill="white" stroke="black" points="904.5,-441 904.5,-471 1119.5,-471 1119.5,-441 904.5,-441"/>
<text text-anchor="start" x="912.5" y="-459" font-family="Helvetica,sans-Serif" font-size="10.00">commands.SetTowardsCommand.update</text>
<text text-anchor="middle" x="1012" y="-448" font-family="Helvetica,sans-Serif" font-size="10.00">Turtle</text>
</a>
</g>
</g>
<!-- Node4&#45;&gt;Node24 -->
<g id="edge23" class="edge"><title>Node4&#45;&gt;Node24</title>
<path fill="none" stroke="midnightblue" d="M781.695,-651.184C796.101,-609.082 831.298,-524.047 892,-481 897.424,-477.153 903.316,-473.875 909.477,-471.083"/>
<polygon fill="midnightblue" stroke="midnightblue" points="778.295,-650.318 778.478,-660.911 784.941,-652.517 778.295,-650.318"/>
</g>
<!-- Node25 -->
<g id="node25" class="node"><title>Node25</title>
<g id="a_node25"><a xlink:href="../../d9/db5/classcommands_1_1_set_position_command.html#aba31c4887974831a6c0d9feac8316ee6" target="_top" xlink:title="commands.SetPositionCommand.update\lTurtle">
<polygon fill="white" stroke="black" points="904.5,-392 904.5,-422 1119.5,-422 1119.5,-392 904.5,-392"/>
<text text-anchor="start" x="912.5" y="-410" font-family="Helvetica,sans-Serif" font-size="10.00">commands.SetPositionCommand.update</text>
<text text-anchor="middle" x="1012" y="-399" font-family="Helvetica,sans-Serif" font-size="10.00">Turtle</text>
</a>
</g>
</g>
<!-- Node4&#45;&gt;Node25 -->
<g id="edge24" class="edge"><title>Node4&#45;&gt;Node25</title>
<path fill="none" stroke="midnightblue" d="M778.566,-650.807C789.034,-600.716 819.656,-488.578 892,-432 896.906,-428.163 902.261,-424.879 907.897,-422.071"/>
<polygon fill="midnightblue" stroke="midnightblue" points="775.1,-650.293 776.579,-660.784 781.965,-651.661 775.1,-650.293"/>
</g>
<!-- Node26 -->
<g id="node26" class="node"><title>Node26</title>
<g id="a_node26"><a xlink:href="../../dd/db2/classcommands_1_1_right_command.html#ae16ecb0da3e0a2049a7382d74f315cb6" target="_top" xlink:title="commands.RightCommand.update\lTurtle">
<polygon fill="white" stroke="black" points="919.5,-343 919.5,-373 1104.5,-373 1104.5,-343 919.5,-343"/>
<text text-anchor="start" x="927.5" y="-361" font-family="Helvetica,sans-Serif" font-size="10.00">commands.RightCommand.update</text>
<text text-anchor="middle" x="1012" y="-350" font-family="Helvetica,sans-Serif" font-size="10.00">Turtle</text>
</a>
</g>
</g>
<!-- Node4&#45;&gt;Node26 -->
<g id="edge25" class="edge"><title>Node4&#45;&gt;Node26</title>
<path fill="none" stroke="midnightblue" d="M776.344,-650.678C783.06,-593.452 807.698,-453.648 892,-383 900.009,-376.288 909.37,-371.237 919.261,-367.456"/>
<polygon fill="midnightblue" stroke="midnightblue" points="772.858,-650.353 775.257,-660.673 779.817,-651.11 772.858,-650.353"/>
</g>
<!-- Node27 -->
<g id="node27" class="node"><title>Node27</title>
<g id="a_node27"><a xlink:href="../../dc/db3/classcommands_1_1_set_heading_command.html#a064fae1a815349b9efc6bd43f2371339" target="_top" xlink:title="commands.SetHeadingCommand.update\lTurtle">
<polygon fill="white" stroke="black" points="903.5,-294 903.5,-324 1120.5,-324 1120.5,-294 903.5,-294"/>
<text text-anchor="start" x="911.5" y="-312" font-family="Helvetica,sans-Serif" font-size="10.00">commands.SetHeadingCommand.update</text>
<text text-anchor="middle" x="1012" y="-301" font-family="Helvetica,sans-Serif" font-size="10.00">Turtle</text>
</a>
</g>
</g>
<!-- Node4&#45;&gt;Node27 -->
<g id="edge26" class="edge"><title>Node4&#45;&gt;Node27</title>
<path fill="none" stroke="midnightblue" d="M774.633,-650.439C777.685,-586.357 795.017,-417.929 892,-333 895.885,-329.598 900.116,-326.628 904.591,-324.037"/>
<polygon fill="midnightblue" stroke="midnightblue" points="771.121,-650.682 774.223,-660.812 778.115,-650.958 771.121,-650.682"/>
</g>
<!-- Node28 -->
<g id="node28" class="node"><title>Node28</title>
<g id="a_node28"><a xlink:href="../../d2/dbb/classcommands_1_1_set_pen_size_command.html#aa8dbbb22c72842b2d6f50aa169a8404e" target="_top" xlink:title="commands.SetPenSizeCommand.update\lTurtle">
<polygon fill="white" stroke="black" points="904.5,-245 904.5,-275 1119.5,-275 1119.5,-245 904.5,-245"/>
<text text-anchor="start" x="912.5" y="-263" font-family="Helvetica,sans-Serif" font-size="10.00">commands.SetPenSizeCommand.update</text>
<text text-anchor="middle" x="1012" y="-252" font-family="Helvetica,sans-Serif" font-size="10.00">Turtle</text>
</a>
</g>
</g>
<!-- Node4&#45;&gt;Node28 -->
<g id="edge27" class="edge"><title>Node4&#45;&gt;Node28</title>
<path fill="none" stroke="midnightblue" d="M778.136,-650.831C791.519,-572.454 836.043,-334.962 892,-284 895.818,-280.523 899.994,-277.492 904.427,-274.853"/>
<polygon fill="midnightblue" stroke="midnightblue" points="774.667,-650.355 776.456,-660.798 781.569,-651.519 774.667,-650.355"/>
</g>
<!-- Node29 -->
<g id="node29" class="node"><title>Node29</title>
<g id="a_node29"><a xlink:href="../../d5/d21/classcommands_1_1_set_pen_color_command.html#a69a9c0161b8910c8fecc5ace219aeeb8" target="_top" xlink:title="commands.SetPenColorCommand.update\lTurtle">
<polygon fill="white" stroke="black" points="902,-196 902,-226 1122,-226 1122,-196 902,-196"/>
<text text-anchor="start" x="910" y="-214" font-family="Helvetica,sans-Serif" font-size="10.00">commands.SetPenColorCommand.update</text>
<text text-anchor="middle" x="1012" y="-203" font-family="Helvetica,sans-Serif" font-size="10.00">Turtle</text>
</a>
</g>
</g>
<!-- Node4&#45;&gt;Node29 -->
<g id="edge28" class="edge"><title>Node4&#45;&gt;Node29</title>
<path fill="none" stroke="midnightblue" d="M779.882,-651.156C801.516,-560.192 876.234,-249.811 892,-235 895.61,-231.609 899.56,-228.638 903.757,-226.039"/>
<polygon fill="midnightblue" stroke="midnightblue" points="776.474,-650.359 777.569,-660.897 783.284,-651.977 776.474,-650.359"/>
</g>
<!-- Node30 -->
<g id="node30" class="node"><title>Node30</title>
<g id="a_node30"><a xlink:href="../../dc/d65/classcommands_1_1_left_command.html#abd466facd4b16e1c04a6578b4bf8e203" target="_top" xlink:title="commands.LeftCommand.update\lTurtle">
<polygon fill="white" stroke="black" points="922.5,-147 922.5,-177 1101.5,-177 1101.5,-147 922.5,-147"/>
<text text-anchor="start" x="930.5" y="-165" font-family="Helvetica,sans-Serif" font-size="10.00">commands.LeftCommand.update</text>
<text text-anchor="middle" x="1012" y="-154" font-family="Helvetica,sans-Serif" font-size="10.00">Turtle</text>
</a>
</g>
</g>
<!-- Node4&#45;&gt;Node30 -->
<g id="edge29" class="edge"><title>Node4&#45;&gt;Node30</title>
<path fill="none" stroke="midnightblue" d="M780.344,-650.68C794.28,-594.95 828.51,-457.442 856,-342 872.483,-272.78 840.991,-235.611 892,-186 900.536,-177.698 911.101,-171.891 922.383,-167.883"/>
<polygon fill="midnightblue" stroke="midnightblue" points="776.868,-650.154 777.836,-660.704 783.659,-651.853 776.868,-650.154"/>
</g>
<!-- Node31 -->
<g id="node31" class="node"><title>Node31</title>
<g id="a_node31"><a xlink:href="../../d6/ddc/classcommands_1_1_backward_command.html#af0c4c6ac04bea1aa34b069a01c53888f" target="_top" xlink:title="commands.BackwardCommand.update\lTurtle">
<polygon fill="white" stroke="black" points="909,-98 909,-128 1115,-128 1115,-98 909,-98"/>
<text text-anchor="start" x="917" y="-116" font-family="Helvetica,sans-Serif" font-size="10.00">commands.BackwardCommand.update</text>
<text text-anchor="middle" x="1012" y="-105" font-family="Helvetica,sans-Serif" font-size="10.00">Turtle</text>
</a>
</g>
</g>
<!-- Node4&#45;&gt;Node31 -->
<g id="edge30" class="edge"><title>Node4&#45;&gt;Node31</title>
<path fill="none" stroke="midnightblue" d="M780.804,-650.783C795.651,-595.258 831.576,-458.129 856,-342 875.039,-251.475 827.417,-203.229 892,-137 896.929,-131.945 902.606,-127.802 908.751,-124.419"/>
<polygon fill="midnightblue" stroke="midnightblue" points="777.336,-650.204 778.126,-660.769 784.097,-652.018 777.336,-650.204"/>
</g>
<!-- Node32 -->
<g id="node32" class="node"><title>Node32</title>
<g id="a_node32"><a xlink:href="../../da/d4f/classcommands_1_1_forward_command.html#afe19b644a8fe0d46f3dbf19aef135364" target="_top" xlink:title="commands.ForwardCommand.update\lTurtle">
<polygon fill="white" stroke="black" points="913,-49 913,-79 1111,-79 1111,-49 913,-49"/>
<text text-anchor="start" x="921" y="-67" font-family="Helvetica,sans-Serif" font-size="10.00">commands.ForwardCommand.update</text>
<text text-anchor="middle" x="1012" y="-56" font-family="Helvetica,sans-Serif" font-size="10.00">Turtle</text>
</a>
</g>
</g>
<!-- Node4&#45;&gt;Node32 -->
<g id="edge31" class="edge"><title>Node4&#45;&gt;Node32</title>
<path fill="none" stroke="midnightblue" d="M781.093,-650.841C796.511,-595.431 833.498,-458.517 856,-342 866.81,-286.026 852.879,-129.467 892,-88 897.93,-81.7146 905.012,-76.8269 912.727,-73.0504"/>
<polygon fill="midnightblue" stroke="midnightblue" points="777.628,-650.233 778.307,-660.806 784.37,-652.117 777.628,-650.233"/>
</g>
<!-- Node17 -->
<g id="node17" class="node"><title>Node17</title>
<g id="a_node17"><a xlink:href="../../d5/dad/classcommands_1_1_if_command.html#a0d92f20941c1e79cfb1e02e77f463e68" target="_top" xlink:title="commands.IfCommand.execute\lCommand">
<polygon fill="white" stroke="black" points="1168,-784 1168,-814 1338,-814 1338,-784 1168,-784"/>
<text text-anchor="start" x="1176" y="-802" font-family="Helvetica,sans-Serif" font-size="10.00">commands.IfCommand.execute</text>
<text text-anchor="middle" x="1253" y="-791" font-family="Helvetica,sans-Serif" font-size="10.00">Command</text>
</a>
</g>
</g>
<!-- Node16&#45;&gt;Node17 -->
<g id="edge16" class="edge"><title>Node16&#45;&gt;Node17</title>
<path fill="none" stroke="midnightblue" d="M1117.5,-799C1134.27,-799 1151.45,-799 1167.68,-799"/>
<polygon fill="midnightblue" stroke="midnightblue" points="1117.12,-795.5 1107.12,-799 1117.12,-802.5 1117.12,-795.5"/>
</g>
<!-- Node34 -->
<g id="node34" class="node"><title>Node34</title>
<g id="a_node34"><a xlink:href="../../d9/df7/classcontroller_1_1_controller.html#a81fea06b52aed0a26625c5b30b490afb" target="_top" xlink:title="controller.Controller.run\lCommand">
<polygon fill="white" stroke="black" points="948,-0 948,-30 1076,-30 1076,-0 948,-0"/>
<text text-anchor="start" x="956" y="-18" font-family="Helvetica,sans-Serif" font-size="10.00">controller.Controller.run</text>
<text text-anchor="middle" x="1012" y="-7" font-family="Helvetica,sans-Serif" font-size="10.00">Command</text>
</a>
</g>
</g>
<!-- Node33&#45;&gt;Node34 -->
<g id="edge33" class="edge"><title>Node33&#45;&gt;Node34</title>
<path fill="none" stroke="midnightblue" d="M850.993,-307.773C852.77,-306.312 854.446,-304.725 856,-303 935.283,-215.038 810.965,-125.35 892,-39 906.278,-23.7855 927.31,-16.7492 947.736,-13.8411"/>
<polygon fill="midnightblue" stroke="midnightblue" points="848.968,-304.917 842.623,-313.401 852.874,-310.726 848.968,-304.917"/>
</g>
<!-- Node35 -->
<g id="node35" class="node"><title>Node35</title>
<g id="a_node35"><a xlink:href="../../d9/df7/classcontroller_1_1_controller.html#afdfa7f9e9a3fb5f6b73a6b8e2b2be8b5" target="_top" xlink:title="controller.Controller.get\lInput">
<polygon fill="white" stroke="black" points="1189,-0 1189,-30 1317,-30 1317,-0 1189,-0"/>
<text text-anchor="start" x="1197" y="-18" font-family="Helvetica,sans-Serif" font-size="10.00">controller.Controller.get</text>
<text text-anchor="middle" x="1253" y="-7" font-family="Helvetica,sans-Serif" font-size="10.00">Input</text>
</a>
</g>
</g>
<!-- Node34&#45;&gt;Node35 -->
<g id="edge34" class="edge"><title>Node34&#45;&gt;Node35</title>
<path fill="none" stroke="midnightblue" d="M1086.11,-15C1118.98,-15 1157.38,-15 1188.95,-15"/>
<polygon fill="midnightblue" stroke="midnightblue" points="1086.11,-11.5001 1076.11,-15 1086.11,-18.5001 1086.11,-11.5001"/>
</g>
<!-- Node36 -->
<g id="node36" class="node"><title>Node36</title>
<g id="a_node36"><a xlink:href="../../d3/dc7/classview_1_1controllers_1_1_pane_controller.html#a7e6154aecb60d8f3bcb056a11e842764" target="_top" xlink:title="view.controllers.PaneController.update">
<polygon fill="white" stroke="black" points="1374,-5.5 1374,-24.5 1572,-24.5 1572,-5.5 1374,-5.5"/>
<text text-anchor="middle" x="1473" y="-12.5" font-family="Helvetica,sans-Serif" font-size="10.00">view.controllers.PaneController.update</text>
</a>
</g>
</g>
<!-- Node35&#45;&gt;Node36 -->
<g id="edge35" class="edge"><title>Node35&#45;&gt;Node36</title>
<path fill="none" stroke="midnightblue" d="M1327.22,-15C1342.16,-15 1358.11,-15 1373.76,-15"/>
<polygon fill="midnightblue" stroke="midnightblue" points="1327.05,-11.5001 1317.05,-15 1327.05,-18.5001 1327.05,-11.5001"/>
</g>
<!-- Node38 -->
<g id="node38" class="node"><title>Node38</title>
<g id="a_node38"><a xlink:href="../../d8/daa/classview_1_1panes_1_1_turtle_selector_pane.html#a14e3fbe35c7447dcdf2f0910333cedcc" target="_top" xlink:title="view.panes.TurtleSelector\lPane.TurtleSelectorPane">
<polygon fill="white" stroke="black" points="704.5,-264 704.5,-294 841.5,-294 841.5,-264 704.5,-264"/>
<text text-anchor="start" x="712.5" y="-282" font-family="Helvetica,sans-Serif" font-size="10.00">view.panes.TurtleSelector</text>
<text text-anchor="middle" x="773" y="-271" font-family="Helvetica,sans-Serif" font-size="10.00">Pane.TurtleSelectorPane</text>
</a>
</g>
</g>
<!-- Node37&#45;&gt;Node38 -->
<g id="edge37" class="edge"><title>Node37&#45;&gt;Node38</title>
<path fill="none" stroke="midnightblue" d="M664.43,-279C678.024,-279 691.688,-279 704.5,-279"/>
<polygon fill="midnightblue" stroke="midnightblue" points="664.062,-275.5 654.062,-279 664.062,-282.5 664.062,-275.5"/>
</g>
</g>
</svg>
