<?xml version="1.0" encoding="UTF-8" standalone="no"?>
<!DOCTYPE svg PUBLIC "-//W3C//DTD SVG 1.1//EN"
 "http://www.w3.org/Graphics/SVG/1.1/DTD/svg11.dtd">
<!-- Generated by graphviz version 2.36.0 (20140111.2315)
 -->
<!-- Title: view.panes.ViewPaneModule.wrapping Pages: 1 -->
<svg width="564pt" height="142pt"
 viewBox="0.00 0.00 564.00 142.00" xmlns="http://www.w3.org/2000/svg" xmlns:xlink="http://www.w3.org/1999/xlink">
<g id="graph0" class="graph" transform="scale(1 1) rotate(0) translate(4 138)">
<title>view.panes.ViewPaneModule.wrapping</title>
<polygon fill="white" stroke="none" points="-4,4 -4,-138 560,-138 560,4 -4,4"/>
<!-- Node1 -->
<g id="node1" class="node"><title>Node1</title>
<polygon fill="#bfbfbf" stroke="black" points="0.5,-57.5 0.5,-76.5 197.5,-76.5 197.5,-57.5 0.5,-57.5"/>
<text text-anchor="middle" x="99" y="-64.5" font-family="Helvetica,sans-Serif" font-size="10.00">view.panes.ViewPaneModule.wrapping</text>
</g>
<!-- Node2 -->
<g id="node2" class="node"><title>Node2</title>
<g id="a_node2"><a xlink:href="../../d6/d34/classmodel_1_1_turtle.html#a2470b9b4ef48a261324047de8ebdc242" target="_top" xlink:title="model.Turtle.getNewLocation">
<polygon fill="white" stroke="black" points="234.5,-114.5 234.5,-133.5 389.5,-133.5 389.5,-114.5 234.5,-114.5"/>
<text text-anchor="middle" x="312" y="-121.5" font-family="Helvetica,sans-Serif" font-size="10.00">model.Turtle.getNewLocation</text>
</a>
</g>
</g>
<!-- Node1&#45;&gt;Node2 -->
<g id="edge1" class="edge"><title>Node1&#45;&gt;Node2</title>
<path fill="none" stroke="midnightblue" d="M132.407,-76.5277C159.493,-84.4096 199.173,-95.7679 234,-105 242.894,-107.358 252.392,-109.779 261.572,-112.071"/>
<polygon fill="midnightblue" stroke="midnightblue" points="260.817,-115.489 271.366,-114.497 262.501,-108.695 260.817,-115.489"/>
</g>
<!-- Node3 -->
<g id="node3" class="node"><title>Node3</title>
<g id="a_node3"><a xlink:href="../../d6/d34/classmodel_1_1_turtle.html#a279f2bdb3fa955acdd52b7824ec3cd04" target="_top" xlink:title="model.Turtle.getPenStatus">
<polygon fill="white" stroke="black" points="240.5,-76.5 240.5,-95.5 383.5,-95.5 383.5,-76.5 240.5,-76.5"/>
<text text-anchor="middle" x="312" y="-83.5" font-family="Helvetica,sans-Serif" font-size="10.00">model.Turtle.getPenStatus</text>
</a>
</g>
</g>
<!-- Node1&#45;&gt;Node3 -->
<g id="edge2" class="edge"><title>Node1&#45;&gt;Node3</title>
<path fill="none" stroke="midnightblue" d="M197.779,-75.8048C208.644,-76.7831 219.619,-77.7714 230.24,-78.7277"/>
<polygon fill="midnightblue" stroke="midnightblue" points="230.025,-82.2224 240.298,-79.6335 230.652,-75.2507 230.025,-82.2224"/>
</g>
<!-- Node5 -->
<g id="node5" class="node"><title>Node5</title>
<g id="a_node5"><a xlink:href="../../d6/d34/classmodel_1_1_turtle.html#a08ec1722676d9f73587bf8996e20b9ee" target="_top" xlink:title="model.Turtle.setPenStatus">
<polygon fill="white" stroke="black" points="240.5,-38.5 240.5,-57.5 383.5,-57.5 383.5,-38.5 240.5,-38.5"/>
<text text-anchor="middle" x="312" y="-45.5" font-family="Helvetica,sans-Serif" font-size="10.00">model.Turtle.setPenStatus</text>
</a>
</g>
</g>
<!-- Node1&#45;&gt;Node5 -->
<g id="edge4" class="edge"><title>Node1&#45;&gt;Node5</title>
<path fill="none" stroke="midnightblue" d="M197.779,-58.1952C208.644,-57.2169 219.619,-56.2286 230.24,-55.2723"/>
<polygon fill="midnightblue" stroke="midnightblue" points="230.652,-58.7493 240.298,-54.3665 230.025,-51.7776 230.652,-58.7493"/>
</g>
<!-- Node6 -->
<g id="node6" class="node"><title>Node6</title>
<g id="a_node6"><a xlink:href="../../d6/d34/classmodel_1_1_turtle.html#a8594135f6eec9e475e8927ddeb012e25" target="_top" xlink:title="model.Turtle.setXAndY">
<polygon fill="white" stroke="black" points="250.5,-0.5 250.5,-19.5 373.5,-19.5 373.5,-0.5 250.5,-0.5"/>
<text text-anchor="middle" x="312" y="-7.5" font-family="Helvetica,sans-Serif" font-size="10.00">model.Turtle.setXAndY</text>
</a>
</g>
</g>
<!-- Node1&#45;&gt;Node6 -->
<g id="edge5" class="edge"><title>Node1&#45;&gt;Node6</title>
<path fill="none" stroke="midnightblue" d="M132.407,-57.4723C159.493,-49.5904 199.173,-38.2321 234,-29 242.894,-26.6422 252.392,-24.2207 261.572,-21.9293"/>
<polygon fill="midnightblue" stroke="midnightblue" points="262.501,-25.3052 271.366,-19.5032 260.817,-18.5106 262.501,-25.3052"/>
</g>
<!-- Node4 -->
<g id="node4" class="node"><title>Node4</title>
<g id="a_node4"><a xlink:href="../../de/ded/classmodel_1_1_pen.html#afad4fb3e51847cacab72c036ddaa108f" target="_top" xlink:title="model.Pen.getStatus">
<polygon fill="white" stroke="black" points="432,-76.5 432,-95.5 550,-95.5 550,-76.5 432,-76.5"/>
<text text-anchor="middle" x="491" y="-83.5" font-family="Helvetica,sans-Serif" font-size="10.00">model.Pen.getStatus</text>
</a>
</g>
</g>
<!-- Node3&#45;&gt;Node4 -->
<g id="edge3" class="edge"><title>Node3&#45;&gt;Node4</title>
<path fill="none" stroke="midnightblue" d="M383.718,-86C396.206,-86 409.187,-86 421.609,-86"/>
<polygon fill="midnightblue" stroke="midnightblue" points="421.889,-89.5001 431.889,-86 421.889,-82.5001 421.889,-89.5001"/>
</g>
<!-- Node7 -->
<g id="node7" class="node"><title>Node7</title>
<g id="a_node7"><a xlink:href="../../d6/d34/classmodel_1_1_turtle.html#aea80c2c6d24a504728574796d16d350b" target="_top" xlink:title="model.Turtle.getmyCurr">
<polygon fill="white" stroke="black" points="426.5,-0.5 426.5,-19.5 555.5,-19.5 555.5,-0.5 426.5,-0.5"/>
<text text-anchor="middle" x="491" y="-7.5" font-family="Helvetica,sans-Serif" font-size="10.00">model.Turtle.getmyCurr</text>
</a>
</g>
</g>
<!-- Node6&#45;&gt;Node7 -->
<g id="edge6" class="edge"><title>Node6&#45;&gt;Node7</title>
<path fill="none" stroke="midnightblue" d="M373.913,-10C387.513,-10 402.077,-10 416.135,-10"/>
<polygon fill="midnightblue" stroke="midnightblue" points="416.261,-13.5001 426.261,-10 416.261,-6.5001 416.261,-13.5001"/>
</g>
</g>
</svg>
