<?xml version="1.0" encoding="UTF-8" standalone="no"?>
<!DOCTYPE svg PUBLIC "-//W3C//DTD SVG 1.1//EN"
 "http://www.w3.org/Graphics/SVG/1.1/DTD/svg11.dtd">
<!-- Generated by graphviz version 2.36.0 (20140111.2315)
 -->
<!-- Title: view.panes.ViewPaneModule.ViewPaneModule Pages: 1 -->
<svg width="402pt" height="115pt"
 viewBox="0.00 0.00 402.00 115.00" xmlns="http://www.w3.org/2000/svg" xmlns:xlink="http://www.w3.org/1999/xlink">
<g id="graph0" class="graph" transform="scale(1 1) rotate(0) translate(4 111)">
<title>view.panes.ViewPaneModule.ViewPaneModule</title>
<polygon fill="white" stroke="none" points="-4,4 -4,-111 398,-111 398,4 -4,4"/>
<!-- Node1 -->
<g id="node1" class="node"><title>Node1</title>
<polygon fill="#bfbfbf" stroke="black" points="0,-44 0,-74 154,-74 154,-44 0,-44"/>
<text text-anchor="start" x="8" y="-62" font-family="Helvetica,sans-Serif" font-size="10.00">view.panes.ViewPaneModule.</text>
<text text-anchor="middle" x="77" y="-51" font-family="Helvetica,sans-Serif" font-size="10.00">ViewPaneModule</text>
</g>
<!-- Node2 -->
<g id="node2" class="node"><title>Node2</title>
<g id="a_node2"><a xlink:href="../../db/db5/classview_1_1panes_1_1_view_pane_module.html#a3bf241cef6467aba2a21d244dbaebad3" target="_top" xlink:title="view.panes.ViewPaneModule.createGrid">
<polygon fill="white" stroke="black" points="190,-87.5 190,-106.5 394,-106.5 394,-87.5 190,-87.5"/>
<text text-anchor="middle" x="292" y="-94.5" font-family="Helvetica,sans-Serif" font-size="10.00">view.panes.ViewPaneModule.createGrid</text>
</a>
</g>
</g>
<!-- Node1&#45;&gt;Node2 -->
<g id="edge1" class="edge"><title>Node1&#45;&gt;Node2</title>
<path fill="none" stroke="midnightblue" d="M154.296,-72.6115C178.316,-76.8968 204.571,-81.5808 227.594,-85.6882"/>
<polygon fill="midnightblue" stroke="midnightblue" points="227.126,-89.1598 237.585,-87.4706 228.355,-82.2686 227.126,-89.1598"/>
</g>
<!-- Node3 -->
<g id="node3" class="node"><title>Node3</title>
<g id="a_node3"><a xlink:href="../../db/db5/classview_1_1panes_1_1_view_pane_module.html#abe91f8bb732e99d762bdaba51ceae04b" target="_top" xlink:title="view.panes.ViewPaneModule.toRGB">
<polygon fill="white" stroke="black" points="200,-49.5 200,-68.5 384,-68.5 384,-49.5 200,-49.5"/>
<text text-anchor="middle" x="292" y="-56.5" font-family="Helvetica,sans-Serif" font-size="10.00">view.panes.ViewPaneModule.toRGB</text>
</a>
</g>
</g>
<!-- Node1&#45;&gt;Node3 -->
<g id="edge2" class="edge"><title>Node1&#45;&gt;Node3</title>
<path fill="none" stroke="midnightblue" d="M154.296,-59C165.86,-59 177.942,-59 189.932,-59"/>
<polygon fill="midnightblue" stroke="midnightblue" points="189.969,-62.5001 199.969,-59 189.969,-55.5001 189.969,-62.5001"/>
</g>
<!-- Node4 -->
<g id="node4" class="node"><title>Node4</title>
<g id="a_node4"><a xlink:href="../../db/db5/classview_1_1panes_1_1_view_pane_module.html#ac94ee444587349ddad19b8caee500c9c" target="_top" xlink:title="view.panes.ViewPaneModule.update\lBGColor">
<polygon fill="white" stroke="black" points="198,-0 198,-30 386,-30 386,-0 198,-0"/>
<text text-anchor="start" x="206" y="-18" font-family="Helvetica,sans-Serif" font-size="10.00">view.panes.ViewPaneModule.update</text>
<text text-anchor="middle" x="292" y="-7" font-family="Helvetica,sans-Serif" font-size="10.00">BGColor</text>
</a>
</g>
</g>
<!-- Node1&#45;&gt;Node4 -->
<g id="edge3" class="edge"><title>Node1&#45;&gt;Node4</title>
<path fill="none" stroke="midnightblue" d="M150.707,-43.9808C169.282,-40.1436 189.388,-35.9903 208.419,-32.0589"/>
<polygon fill="midnightblue" stroke="midnightblue" points="209.174,-35.4769 218.26,-30.0262 207.758,-28.6217 209.174,-35.4769"/>
</g>
</g>
</svg>
