<?xml version="1.0" encoding="UTF-8" standalone="no"?>
<!DOCTYPE svg PUBLIC "-//W3C//DTD SVG 1.1//EN"
 "http://www.w3.org/Graphics/SVG/1.1/DTD/svg11.dtd">
<!-- Generated by graphviz version 2.36.0 (20140111.2315)
 -->
<!-- Title: view.panes.ViewPaneModule.updateView Pages: 1 -->
<svg width="844pt" height="572pt"
 viewBox="0.00 0.00 844.00 572.00" xmlns="http://www.w3.org/2000/svg" xmlns:xlink="http://www.w3.org/1999/xlink">
<g id="graph0" class="graph" transform="scale(1 1) rotate(0) translate(4 568)">
<title>view.panes.ViewPaneModule.updateView</title>
<polygon fill="white" stroke="none" points="-4,4 -4,-568 840,-568 840,4 -4,4"/>
<!-- Node1 -->
<g id="node1" class="node"><title>Node1</title>
<polygon fill="#bfbfbf" stroke="black" points="0.5,-207.5 0.5,-226.5 209.5,-226.5 209.5,-207.5 0.5,-207.5"/>
<text text-anchor="middle" x="105" y="-214.5" font-family="Helvetica,sans-Serif" font-size="10.00">view.panes.ViewPaneModule.updateView</text>
</g>
<!-- Node2 -->
<g id="node2" class="node"><title>Node2</title>
<g id="a_node2"><a xlink:href="../../db/db5/classview_1_1panes_1_1_view_pane_module.html#a7ad9ad27137ffdf0ea96753a22da236b" target="_top" xlink:title="view.panes.ViewPaneModule.erase\lStamps">
<polygon fill="white" stroke="black" points="249.5,-506 249.5,-536 430.5,-536 430.5,-506 249.5,-506"/>
<text text-anchor="start" x="257.5" y="-524" font-family="Helvetica,sans-Serif" font-size="10.00">view.panes.ViewPaneModule.erase</text>
<text text-anchor="middle" x="340" y="-513" font-family="Helvetica,sans-Serif" font-size="10.00">Stamps</text>
</a>
</g>
</g>
<!-- Node1&#45;&gt;Node2 -->
<g id="edge1" class="edge"><title>Node1&#45;&gt;Node2</title>
<path fill="none" stroke="midnightblue" d="M109.403,-226.604C122.31,-261.946 171.328,-386.73 246,-464 260.323,-478.822 279.279,-491.344 296.338,-500.843"/>
<polygon fill="midnightblue" stroke="midnightblue" points="295.113,-504.157 305.579,-505.804 298.424,-497.99 295.113,-504.157"/>
</g>
<!-- Node4 -->
<g id="node4" class="node"><title>Node4</title>
<g id="a_node4"><a xlink:href="../../df/d50/classmodel_1_1_turtle_set_manager.html#a9a65c0be3b9c21abaf0ebaa54e5b8484" target="_top" xlink:title="model.TurtleSetManager.get\lActiveTurtles">
<polygon fill="white" stroke="black" points="264,-300 264,-330 416,-330 416,-300 264,-300"/>
<text text-anchor="start" x="272" y="-318" font-family="Helvetica,sans-Serif" font-size="10.00">model.TurtleSetManager.get</text>
<text text-anchor="middle" x="340" y="-307" font-family="Helvetica,sans-Serif" font-size="10.00">ActiveTurtles</text>
</a>
</g>
</g>
<!-- Node1&#45;&gt;Node4 -->
<g id="edge3" class="edge"><title>Node1&#45;&gt;Node4</title>
<path fill="none" stroke="midnightblue" d="M121.842,-226.729C147.242,-241.986 199.006,-271.685 246,-290 252.28,-292.447 258.888,-294.744 265.565,-296.877"/>
<polygon fill="midnightblue" stroke="midnightblue" points="264.781,-300.297 275.368,-299.882 266.833,-293.604 264.781,-300.297"/>
</g>
<!-- Node5 -->
<g id="node5" class="node"><title>Node5</title>
<g id="a_node5"><a xlink:href="../../df/d50/classmodel_1_1_turtle_set_manager.html#a9e215e93eccbed2ab9ebec6119cfe305" target="_top" xlink:title="model.TurtleSetManager.get\lAllTurtles">
<polygon fill="white" stroke="black" points="264,-251 264,-281 416,-281 416,-251 264,-251"/>
<text text-anchor="start" x="272" y="-269" font-family="Helvetica,sans-Serif" font-size="10.00">model.TurtleSetManager.get</text>
<text text-anchor="middle" x="340" y="-258" font-family="Helvetica,sans-Serif" font-size="10.00">AllTurtles</text>
</a>
</g>
</g>
<!-- Node1&#45;&gt;Node5 -->
<g id="edge4" class="edge"><title>Node1&#45;&gt;Node5</title>
<path fill="none" stroke="midnightblue" d="M151.201,-226.506C181.322,-232.84 221.774,-241.347 257.42,-248.844"/>
<polygon fill="midnightblue" stroke="midnightblue" points="256.828,-252.296 267.335,-250.929 258.269,-245.446 256.828,-252.296"/>
</g>
<!-- Node6 -->
<g id="node6" class="node"><title>Node6</title>
<g id="a_node6"><a xlink:href="../../d3/d42/classmodel_1_1_model.html#a54936407d7df5ab8ef3c0ae54bcdc0ed" target="_top" xlink:title="model.Model.getBackground\lColor">
<polygon fill="white" stroke="black" points="263,-202 263,-232 417,-232 417,-202 263,-202"/>
<text text-anchor="start" x="271" y="-220" font-family="Helvetica,sans-Serif" font-size="10.00">model.Model.getBackground</text>
<text text-anchor="middle" x="340" y="-209" font-family="Helvetica,sans-Serif" font-size="10.00">Color</text>
</a>
</g>
</g>
<!-- Node1&#45;&gt;Node6 -->
<g id="edge5" class="edge"><title>Node1&#45;&gt;Node6</title>
<path fill="none" stroke="midnightblue" d="M209.554,-217C223.931,-217 238.574,-217 252.593,-217"/>
<polygon fill="midnightblue" stroke="midnightblue" points="252.678,-220.5 262.678,-217 252.678,-213.5 252.678,-220.5"/>
</g>
<!-- Node7 -->
<g id="node7" class="node"><title>Node7</title>
<g id="a_node7"><a xlink:href="../../d3/d42/classmodel_1_1_model.html#af73e838aed2c068e8f7d31bfa1cc88d7" target="_top" xlink:title="model.Model.getStamp">
<polygon fill="white" stroke="black" points="275.5,-163.5 275.5,-182.5 404.5,-182.5 404.5,-163.5 275.5,-163.5"/>
<text text-anchor="middle" x="340" y="-170.5" font-family="Helvetica,sans-Serif" font-size="10.00">model.Model.getStamp</text>
</a>
</g>
</g>
<!-- Node1&#45;&gt;Node7 -->
<g id="edge6" class="edge"><title>Node1&#45;&gt;Node7</title>
<path fill="none" stroke="midnightblue" d="M156.558,-207.453C192.433,-200.678 240.75,-191.554 278.647,-184.397"/>
<polygon fill="midnightblue" stroke="midnightblue" points="279.364,-187.824 288.541,-182.529 278.065,-180.945 279.364,-187.824"/>
</g>
<!-- Node8 -->
<g id="node8" class="node"><title>Node8</title>
<g id="a_node8"><a xlink:href="../../d3/d42/classmodel_1_1_model.html#a1a683ba5e58fcb3c8882c8e61df20dc0" target="_top" xlink:title="model.Model.getTurtleManager">
<polygon fill="white" stroke="black" points="258,-125.5 258,-144.5 422,-144.5 422,-125.5 258,-125.5"/>
<text text-anchor="middle" x="340" y="-132.5" font-family="Helvetica,sans-Serif" font-size="10.00">model.Model.getTurtleManager</text>
</a>
</g>
</g>
<!-- Node1&#45;&gt;Node8 -->
<g id="edge7" class="edge"><title>Node1&#45;&gt;Node8</title>
<path fill="none" stroke="midnightblue" d="M124.055,-207.307C150.24,-193.616 200.597,-168.654 246,-154 254.318,-151.315 263.181,-148.928 272.007,-146.829"/>
<polygon fill="midnightblue" stroke="midnightblue" points="272.945,-150.205 281.924,-144.582 271.398,-143.378 272.945,-150.205"/>
</g>
<!-- Node9 -->
<g id="node9" class="node"><title>Node9</title>
<g id="a_node9"><a xlink:href="../../db/db5/classview_1_1panes_1_1_view_pane_module.html#a44db6ae832af3ce470baa9406142b8cb" target="_top" xlink:title="view.panes.ViewPaneModule.make\lStamps">
<polygon fill="white" stroke="black" points="249.5,-425 249.5,-455 430.5,-455 430.5,-425 249.5,-425"/>
<text text-anchor="start" x="257.5" y="-443" font-family="Helvetica,sans-Serif" font-size="10.00">view.panes.ViewPaneModule.make</text>
<text text-anchor="middle" x="340" y="-432" font-family="Helvetica,sans-Serif" font-size="10.00">Stamps</text>
</a>
</g>
</g>
<!-- Node1&#45;&gt;Node9 -->
<g id="edge8" class="edge"><title>Node1&#45;&gt;Node9</title>
<path fill="none" stroke="midnightblue" d="M111.953,-226.568C129.595,-254.338 184.234,-336.261 246,-388 261.076,-400.628 279.669,-411.736 296.258,-420.408"/>
<polygon fill="midnightblue" stroke="midnightblue" points="294.732,-423.559 305.233,-424.969 297.904,-417.318 294.732,-423.559"/>
</g>
<!-- Node16 -->
<g id="node16" class="node"><title>Node16</title>
<g id="a_node16"><a xlink:href="../../d3/d42/classmodel_1_1_model.html#a0a457f31350a460e11dc864463e0d8ff" target="_top" xlink:title="model.Model.setStamp">
<polygon fill="white" stroke="black" points="276,-87.5 276,-106.5 404,-106.5 404,-87.5 276,-87.5"/>
<text text-anchor="middle" x="340" y="-94.5" font-family="Helvetica,sans-Serif" font-size="10.00">model.Model.setStamp</text>
</a>
</g>
</g>
<!-- Node1&#45;&gt;Node16 -->
<g id="edge15" class="edge"><title>Node1&#45;&gt;Node16</title>
<path fill="none" stroke="midnightblue" d="M115.934,-207.466C137.626,-187.217 191.654,-139.831 246,-116 252.287,-113.243 258.99,-110.881 265.808,-108.857"/>
<polygon fill="midnightblue" stroke="midnightblue" points="267.112,-112.129 275.843,-106.128 265.275,-105.375 267.112,-112.129"/>
</g>
<!-- Node17 -->
<g id="node17" class="node"><title>Node17</title>
<g id="a_node17"><a xlink:href="../../db/db5/classview_1_1panes_1_1_view_pane_module.html#abe91f8bb732e99d762bdaba51ceae04b" target="_top" xlink:title="view.panes.ViewPaneModule.toRGB">
<polygon fill="white" stroke="black" points="248,-49.5 248,-68.5 432,-68.5 432,-49.5 248,-49.5"/>
<text text-anchor="middle" x="340" y="-56.5" font-family="Helvetica,sans-Serif" font-size="10.00">view.panes.ViewPaneModule.toRGB</text>
</a>
</g>
</g>
<!-- Node1&#45;&gt;Node17 -->
<g id="edge16" class="edge"><title>Node1&#45;&gt;Node17</title>
<path fill="none" stroke="midnightblue" d="M112.554,-207.351C130.539,-181.695 183.499,-111.471 246,-78 250.313,-75.6903 254.876,-73.6609 259.574,-71.8776"/>
<polygon fill="midnightblue" stroke="midnightblue" points="261.024,-75.0816 269.367,-68.5523 258.773,-68.4533 261.024,-75.0816"/>
</g>
<!-- Node18 -->
<g id="node18" class="node"><title>Node18</title>
<g id="a_node18"><a xlink:href="../../db/db5/classview_1_1panes_1_1_view_pane_module.html#ac94ee444587349ddad19b8caee500c9c" target="_top" xlink:title="view.panes.ViewPaneModule.update\lBGColor">
<polygon fill="white" stroke="black" points="246,-0 246,-30 434,-30 434,-0 246,-0"/>
<text text-anchor="start" x="254" y="-18" font-family="Helvetica,sans-Serif" font-size="10.00">view.panes.ViewPaneModule.update</text>
<text text-anchor="middle" x="340" y="-7" font-family="Helvetica,sans-Serif" font-size="10.00">BGColor</text>
</a>
</g>
</g>
<!-- Node1&#45;&gt;Node18 -->
<g id="edge17" class="edge"><title>Node1&#45;&gt;Node18</title>
<path fill="none" stroke="midnightblue" d="M110.837,-207.158C126.139,-177.082 176.619,-85.6651 246,-40 249.116,-37.9491 252.395,-36.0658 255.786,-34.3364"/>
<polygon fill="midnightblue" stroke="midnightblue" points="257.36,-37.4651 264.985,-30.1089 254.437,-31.1046 257.36,-37.4651"/>
</g>
<!-- Node19 -->
<g id="node19" class="node"><title>Node19</title>
<g id="a_node19"><a xlink:href="../../db/db5/classview_1_1panes_1_1_view_pane_module.html#ab55ce3511929b88a2cd1235eb694868f" target="_top" xlink:title="view.panes.ViewPaneModule.update\lTurtle">
<polygon fill="white" stroke="black" points="246,-349 246,-379 434,-379 434,-349 246,-349"/>
<text text-anchor="start" x="254" y="-367" font-family="Helvetica,sans-Serif" font-size="10.00">view.panes.ViewPaneModule.update</text>
<text text-anchor="middle" x="340" y="-356" font-family="Helvetica,sans-Serif" font-size="10.00">Turtle</text>
</a>
</g>
</g>
<!-- Node1&#45;&gt;Node19 -->
<g id="edge18" class="edge"><title>Node1&#45;&gt;Node19</title>
<path fill="none" stroke="midnightblue" d="M114.091,-226.564C134.054,-249.54 188.246,-308.216 246,-339 250.293,-341.288 254.811,-343.379 259.447,-345.288"/>
<polygon fill="midnightblue" stroke="midnightblue" points="258.507,-348.674 269.098,-348.955 260.993,-342.131 258.507,-348.674"/>
</g>
<!-- Node3 -->
<g id="node3" class="node"><title>Node3</title>
<g id="a_node3"><a xlink:href="../../d7/da6/classview_1_1_turtle_draw.html#acb97dedda080cb5ed17031d2b31adc2c" target="_top" xlink:title="view.TurtleDraw.hideTurtle">
<polygon fill="white" stroke="black" points="479.5,-544.5 479.5,-563.5 616.5,-563.5 616.5,-544.5 479.5,-544.5"/>
<text text-anchor="middle" x="548" y="-551.5" font-family="Helvetica,sans-Serif" font-size="10.00">view.TurtleDraw.hideTurtle</text>
</a>
</g>
</g>
<!-- Node2&#45;&gt;Node3 -->
<g id="edge2" class="edge"><title>Node2&#45;&gt;Node3</title>
<path fill="none" stroke="midnightblue" d="M430.755,-535.378C446.348,-537.876 462.352,-540.44 477.307,-542.836"/>
<polygon fill="midnightblue" stroke="midnightblue" points="477.047,-546.338 487.475,-544.464 478.154,-539.427 477.047,-546.338"/>
</g>
<!-- Node10 -->
<g id="node10" class="node"><title>Node10</title>
<g id="a_node10"><a xlink:href="../../d7/da6/classview_1_1_turtle_draw.html#a939f4fdbdb66457c9dcee82eb4ae6d9c" target="_top" xlink:title="view.TurtleDraw.drawTurtle">
<polygon fill="white" stroke="black" points="478.5,-468.5 478.5,-487.5 617.5,-487.5 617.5,-468.5 478.5,-468.5"/>
<text text-anchor="middle" x="548" y="-475.5" font-family="Helvetica,sans-Serif" font-size="10.00">view.TurtleDraw.drawTurtle</text>
</a>
</g>
</g>
<!-- Node9&#45;&gt;Node10 -->
<g id="edge9" class="edge"><title>Node9&#45;&gt;Node10</title>
<path fill="none" stroke="midnightblue" d="M422.417,-455.019C443.39,-458.887 465.613,-462.987 485.393,-466.636"/>
<polygon fill="midnightblue" stroke="midnightblue" points="485.026,-470.127 495.495,-468.499 486.296,-463.243 485.026,-470.127"/>
</g>
<!-- Node13 -->
<g id="node13" class="node"><title>Node13</title>
<g id="a_node13"><a xlink:href="../../d7/da6/classview_1_1_turtle_draw.html#a8c2cab38eb294b26aea1ae17595ba2a6" target="_top" xlink:title="view.TurtleDraw.moveTurtle">
<polygon fill="white" stroke="black" points="476.5,-430.5 476.5,-449.5 619.5,-449.5 619.5,-430.5 476.5,-430.5"/>
<text text-anchor="middle" x="548" y="-437.5" font-family="Helvetica,sans-Serif" font-size="10.00">view.TurtleDraw.moveTurtle</text>
</a>
</g>
</g>
<!-- Node9&#45;&gt;Node13 -->
<g id="edge12" class="edge"><title>Node9&#45;&gt;Node13</title>
<path fill="none" stroke="midnightblue" d="M430.755,-440C442.579,-440 454.64,-440 466.301,-440"/>
<polygon fill="midnightblue" stroke="midnightblue" points="466.428,-443.5 476.428,-440 466.428,-436.5 466.428,-443.5"/>
</g>
<!-- Node14 -->
<g id="node14" class="node"><title>Node14</title>
<g id="a_node14"><a xlink:href="../../d7/da6/classview_1_1_turtle_draw.html#a5004a16526a67f090d7da45474b5136e" target="_top" xlink:title="view.TurtleDraw.setAngle">
<polygon fill="white" stroke="black" points="481.5,-392.5 481.5,-411.5 614.5,-411.5 614.5,-392.5 481.5,-392.5"/>
<text text-anchor="middle" x="548" y="-399.5" font-family="Helvetica,sans-Serif" font-size="10.00">view.TurtleDraw.setAngle</text>
</a>
</g>
</g>
<!-- Node9&#45;&gt;Node14 -->
<g id="edge13" class="edge"><title>Node9&#45;&gt;Node14</title>
<path fill="none" stroke="midnightblue" d="M422.417,-424.981C443.39,-421.113 465.613,-417.013 485.393,-413.364"/>
<polygon fill="midnightblue" stroke="midnightblue" points="486.296,-416.757 495.495,-411.501 485.026,-409.873 486.296,-416.757"/>
</g>
<!-- Node15 -->
<g id="node15" class="node"><title>Node15</title>
<g id="a_node15"><a xlink:href="../../d7/da6/classview_1_1_turtle_draw.html#a14678068d3fc9d3b6e1067bc372f6030" target="_top" xlink:title="view.TurtleDraw.showTurtle">
<polygon fill="white" stroke="black" points="478,-506.5 478,-525.5 618,-525.5 618,-506.5 478,-506.5"/>
<text text-anchor="middle" x="548" y="-513.5" font-family="Helvetica,sans-Serif" font-size="10.00">view.TurtleDraw.showTurtle</text>
</a>
</g>
</g>
<!-- Node9&#45;&gt;Node15 -->
<g id="edge14" class="edge"><title>Node9&#45;&gt;Node15</title>
<path fill="none" stroke="midnightblue" d="M371.158,-455.121C396.928,-467.604 435.243,-485.134 470,-497 477.33,-499.502 485.156,-501.822 492.906,-503.919"/>
<polygon fill="midnightblue" stroke="midnightblue" points="492.081,-507.321 502.64,-506.453 493.845,-500.547 492.081,-507.321"/>
</g>
<!-- Node11 -->
<g id="node11" class="node"><title>Node11</title>
<g id="a_node11"><a xlink:href="../../d3/db7/classview_1_1controllers_1_1_image_palette.html#a8a6620714bc12d5a00b97e99299a7040" target="_top" xlink:title="view.controllers.ImagePalette.get\lImage">
<polygon fill="white" stroke="black" points="662,-441 662,-471 836,-471 836,-441 662,-441"/>
<text text-anchor="start" x="670" y="-459" font-family="Helvetica,sans-Serif" font-size="10.00">view.controllers.ImagePalette.get</text>
<text text-anchor="middle" x="749" y="-448" font-family="Helvetica,sans-Serif" font-size="10.00">Image</text>
</a>
</g>
</g>
<!-- Node10&#45;&gt;Node11 -->
<g id="edge10" class="edge"><title>Node10&#45;&gt;Node11</title>
<path fill="none" stroke="midnightblue" d="M617.763,-470.398C628.711,-469.188 640.21,-467.916 651.653,-466.651"/>
<polygon fill="midnightblue" stroke="midnightblue" points="652.125,-470.121 661.68,-465.543 651.356,-463.163 652.125,-470.121"/>
</g>
<!-- Node12 -->
<g id="node12" class="node"><title>Node12</title>
<g id="a_node12"><a xlink:href="../../d6/d34/classmodel_1_1_turtle.html#a942dbeb1d7e2bc19b6870538c2c3a7d2" target="_top" xlink:title="model.Turtle.getShape">
<polygon fill="white" stroke="black" points="686.5,-490.5 686.5,-509.5 811.5,-509.5 811.5,-490.5 686.5,-490.5"/>
<text text-anchor="middle" x="749" y="-497.5" font-family="Helvetica,sans-Serif" font-size="10.00">model.Turtle.getShape</text>
</a>
</g>
</g>
<!-- Node10&#45;&gt;Node12 -->
<g id="edge11" class="edge"><title>Node10&#45;&gt;Node12</title>
<path fill="none" stroke="midnightblue" d="M617.763,-485.602C636.619,-487.686 657.107,-489.952 676.131,-492.055"/>
<polygon fill="midnightblue" stroke="midnightblue" points="675.905,-495.551 686.229,-493.171 676.674,-488.593 675.905,-495.551"/>
</g>
<!-- Node19&#45;&gt;Node3 -->
<g id="edge31" class="edge"><title>Node19&#45;&gt;Node3</title>
<path fill="none" stroke="midnightblue" d="M382.899,-379.081C400.895,-387.459 420.783,-399.568 434,-416 468.631,-459.057 429.928,-496.954 470,-535 471.498,-536.422 473.084,-537.743 474.744,-538.969"/>
<polygon fill="midnightblue" stroke="midnightblue" points="473.22,-542.139 483.583,-544.346 476.858,-536.158 473.22,-542.139"/>
</g>
<!-- Node19&#45;&gt;Node10 -->
<g id="edge20" class="edge"><title>Node19&#45;&gt;Node10</title>
<path fill="none" stroke="midnightblue" d="M374.704,-379.107C393.241,-388.302 416.051,-401.131 434,-416 453.194,-431.9 448.854,-445.806 470,-459 473.386,-461.113 476.992,-462.99 480.725,-464.659"/>
<polygon fill="midnightblue" stroke="midnightblue" points="479.627,-467.988 490.214,-468.393 482.19,-461.474 479.627,-467.988"/>
</g>
<!-- Node19&#45;&gt;Node13 -->
<g id="edge32" class="edge"><title>Node19&#45;&gt;Node13</title>
<path fill="none" stroke="midnightblue" d="M371.158,-379.121C396.928,-391.604 435.243,-409.134 470,-421 477.33,-423.502 485.156,-425.822 492.906,-427.919"/>
<polygon fill="midnightblue" stroke="midnightblue" points="492.081,-431.321 502.64,-430.453 493.845,-424.547 492.081,-431.321"/>
</g>
<!-- Node19&#45;&gt;Node14 -->
<g id="edge33" class="edge"><title>Node19&#45;&gt;Node14</title>
<path fill="none" stroke="midnightblue" d="M422.417,-379.019C443.39,-382.887 465.613,-386.987 485.393,-390.636"/>
<polygon fill="midnightblue" stroke="midnightblue" points="485.026,-394.127 495.495,-392.499 486.296,-387.243 485.026,-394.127"/>
</g>
<!-- Node19&#45;&gt;Node15 -->
<g id="edge34" class="edge"><title>Node19&#45;&gt;Node15</title>
<path fill="none" stroke="midnightblue" d="M380.578,-379.202C398.734,-387.776 419.413,-400.011 434,-416 460.552,-445.103 439.799,-471.704 470,-497 472.032,-498.702 474.194,-500.255 476.454,-501.673"/>
<polygon fill="midnightblue" stroke="midnightblue" points="475.119,-504.926 485.597,-506.494 478.384,-498.734 475.119,-504.926"/>
</g>
<!-- Node20 -->
<g id="node20" class="node"><title>Node20</title>
<g id="a_node20"><a xlink:href="../../d7/da6/classview_1_1_turtle_draw.html#a1325ca376115619f15f5014eb4c5ad2a" target="_top" xlink:title="view.TurtleDraw.drawLine">
<polygon fill="white" stroke="black" points="481.5,-88.5 481.5,-107.5 614.5,-107.5 614.5,-88.5 481.5,-88.5"/>
<text text-anchor="middle" x="548" y="-95.5" font-family="Helvetica,sans-Serif" font-size="10.00">view.TurtleDraw.drawLine</text>
</a>
</g>
</g>
<!-- Node19&#45;&gt;Node20 -->
<g id="edge19" class="edge"><title>Node19&#45;&gt;Node20</title>
<path fill="none" stroke="midnightblue" d="M422.189,-348.925C426.53,-346.128 430.526,-342.847 434,-339 500.99,-264.815 402.246,-190.488 470,-117 471.079,-115.83 472.218,-114.726 473.409,-113.686"/>
<polygon fill="midnightblue" stroke="midnightblue" points="475.765,-116.308 481.942,-107.701 471.745,-110.577 475.765,-116.308"/>
</g>
<!-- Node21 -->
<g id="node21" class="node"><title>Node21</title>
<g id="a_node21"><a xlink:href="../../d6/d34/classmodel_1_1_turtle.html#a1c5d07962ede5fbfacc59413274d4300" target="_top" xlink:title="model.Turtle.getHeading">
<polygon fill="white" stroke="black" points="481,-354.5 481,-373.5 615,-373.5 615,-354.5 481,-354.5"/>
<text text-anchor="middle" x="548" y="-361.5" font-family="Helvetica,sans-Serif" font-size="10.00">model.Turtle.getHeading</text>
</a>
</g>
</g>
<!-- Node19&#45;&gt;Node21 -->
<g id="edge21" class="edge"><title>Node19&#45;&gt;Node21</title>
<path fill="none" stroke="midnightblue" d="M434.056,-364C446.261,-364 458.654,-364 470.541,-364"/>
<polygon fill="midnightblue" stroke="midnightblue" points="470.84,-367.5 480.839,-364 470.839,-360.5 470.84,-367.5"/>
</g>
<!-- Node22 -->
<g id="node22" class="node"><title>Node22</title>
<g id="a_node22"><a xlink:href="../../d6/d34/classmodel_1_1_turtle.html#ae79a1eae7eed55d121c3b85299ae14ba" target="_top" xlink:title="model.Turtle.getID">
<polygon fill="white" stroke="black" points="496,-316.5 496,-335.5 600,-335.5 600,-316.5 496,-316.5"/>
<text text-anchor="middle" x="548" y="-323.5" font-family="Helvetica,sans-Serif" font-size="10.00">model.Turtle.getID</text>
</a>
</g>
</g>
<!-- Node19&#45;&gt;Node22 -->
<g id="edge22" class="edge"><title>Node19&#45;&gt;Node22</title>
<path fill="none" stroke="midnightblue" d="M422.417,-348.981C443.582,-345.077 466.021,-340.938 485.937,-337.264"/>
<polygon fill="midnightblue" stroke="midnightblue" points="486.598,-340.701 495.797,-335.445 485.328,-333.817 486.598,-340.701"/>
</g>
<!-- Node23 -->
<g id="node23" class="node"><title>Node23</title>
<g id="a_node23"><a xlink:href="../../d6/d34/classmodel_1_1_turtle.html#a2470b9b4ef48a261324047de8ebdc242" target="_top" xlink:title="model.Turtle.getNewLocation">
<polygon fill="white" stroke="black" points="470.5,-278.5 470.5,-297.5 625.5,-297.5 625.5,-278.5 470.5,-278.5"/>
<text text-anchor="middle" x="548" y="-285.5" font-family="Helvetica,sans-Serif" font-size="10.00">model.Turtle.getNewLocation</text>
</a>
</g>
</g>
<!-- Node19&#45;&gt;Node23 -->
<g id="edge23" class="edge"><title>Node19&#45;&gt;Node23</title>
<path fill="none" stroke="midnightblue" d="M411.429,-348.852C419.253,-346.069 426.937,-342.81 434,-339 452.842,-328.838 451.054,-316.967 470,-307 474.455,-304.656 479.209,-302.594 484.084,-300.782"/>
<polygon fill="midnightblue" stroke="midnightblue" points="485.201,-304.099 493.564,-297.594 482.97,-297.464 485.201,-304.099"/>
</g>
<!-- Node24 -->
<g id="node24" class="node"><title>Node24</title>
<g id="a_node24"><a xlink:href="../../d6/d34/classmodel_1_1_turtle.html#a193c156784f783064ae533b619b6be6e" target="_top" xlink:title="model.Turtle.getPenColor">
<polygon fill="white" stroke="black" points="479.5,-240.5 479.5,-259.5 616.5,-259.5 616.5,-240.5 479.5,-240.5"/>
<text text-anchor="middle" x="548" y="-247.5" font-family="Helvetica,sans-Serif" font-size="10.00">model.Turtle.getPenColor</text>
</a>
</g>
</g>
<!-- Node19&#45;&gt;Node24 -->
<g id="edge24" class="edge"><title>Node19&#45;&gt;Node24</title>
<path fill="none" stroke="midnightblue" d="M418.166,-348.947C423.822,-346.171 429.187,-342.886 434,-339 461.22,-317.024 442.554,-290.693 470,-269 472.279,-267.199 474.704,-265.566 477.238,-264.085"/>
<polygon fill="midnightblue" stroke="midnightblue" points="478.819,-267.208 486.208,-259.615 475.697,-260.943 478.819,-267.208"/>
</g>
<!-- Node26 -->
<g id="node26" class="node"><title>Node26</title>
<g id="a_node26"><a xlink:href="../../d6/d34/classmodel_1_1_turtle.html#a19c059b1cbfbd4e8f046ec2403de3fb9" target="_top" xlink:title="model.Turtle.getPenDash">
<polygon fill="white" stroke="black" points="479.5,-202.5 479.5,-221.5 616.5,-221.5 616.5,-202.5 479.5,-202.5"/>
<text text-anchor="middle" x="548" y="-209.5" font-family="Helvetica,sans-Serif" font-size="10.00">model.Turtle.getPenDash</text>
</a>
</g>
</g>
<!-- Node19&#45;&gt;Node26 -->
<g id="edge26" class="edge"><title>Node19&#45;&gt;Node26</title>
<path fill="none" stroke="midnightblue" d="M420.623,-348.754C425.46,-346.008 429.985,-342.784 434,-339 470.819,-304.296 432.824,-265.321 470,-231 471.685,-229.444 473.477,-228.011 475.354,-226.69"/>
<polygon fill="midnightblue" stroke="midnightblue" points="477.206,-229.662 484.07,-221.591 473.671,-223.62 477.206,-229.662"/>
</g>
<!-- Node28 -->
<g id="node28" class="node"><title>Node28</title>
<g id="a_node28"><a xlink:href="../../d6/d34/classmodel_1_1_turtle.html#a279f2bdb3fa955acdd52b7824ec3cd04" target="_top" xlink:title="model.Turtle.getPenStatus">
<polygon fill="white" stroke="black" points="476.5,-164.5 476.5,-183.5 619.5,-183.5 619.5,-164.5 476.5,-164.5"/>
<text text-anchor="middle" x="548" y="-171.5" font-family="Helvetica,sans-Serif" font-size="10.00">model.Turtle.getPenStatus</text>
</a>
</g>
</g>
<!-- Node19&#45;&gt;Node28 -->
<g id="edge28" class="edge"><title>Node19&#45;&gt;Node28</title>
<path fill="none" stroke="midnightblue" d="M421.406,-348.854C425.996,-346.08 430.257,-342.822 434,-339 480.762,-291.252 422.746,-240.262 470,-193 471.424,-191.576 472.936,-190.253 474.522,-189.023"/>
<polygon fill="midnightblue" stroke="midnightblue" points="476.445,-191.949 483.001,-183.626 472.686,-186.044 476.445,-191.949"/>
</g>
<!-- Node30 -->
<g id="node30" class="node"><title>Node30</title>
<g id="a_node30"><a xlink:href="../../d6/d34/classmodel_1_1_turtle.html#a832234461564763f8330181b3c1163ff" target="_top" xlink:title="model.Turtle.getPrevLocation">
<polygon fill="white" stroke="black" points="470.5,-126.5 470.5,-145.5 625.5,-145.5 625.5,-126.5 470.5,-126.5"/>
<text text-anchor="middle" x="548" y="-133.5" font-family="Helvetica,sans-Serif" font-size="10.00">model.Turtle.getPrevLocation</text>
</a>
</g>
</g>
<!-- Node19&#45;&gt;Node30 -->
<g id="edge30" class="edge"><title>Node19&#45;&gt;Node30</title>
<path fill="none" stroke="midnightblue" d="M422.046,-348.794C426.422,-346.028 430.464,-342.79 434,-339 490.842,-278.069 412.53,-215.339 470,-155 471.24,-153.698 472.555,-152.479 473.932,-151.338"/>
<polygon fill="midnightblue" stroke="midnightblue" points="476.087,-154.107 482.436,-145.626 472.184,-148.296 476.087,-154.107"/>
</g>
<!-- Node25 -->
<g id="node25" class="node"><title>Node25</title>
<g id="a_node25"><a xlink:href="../../de/ded/classmodel_1_1_pen.html#a704af31474b10d17caf40773b7971826" target="_top" xlink:title="model.Pen.getPenColor">
<polygon fill="white" stroke="black" points="684.5,-240.5 684.5,-259.5 813.5,-259.5 813.5,-240.5 684.5,-240.5"/>
<text text-anchor="middle" x="749" y="-247.5" font-family="Helvetica,sans-Serif" font-size="10.00">model.Pen.getPenColor</text>
</a>
</g>
</g>
<!-- Node24&#45;&gt;Node25 -->
<g id="edge25" class="edge"><title>Node24&#45;&gt;Node25</title>
<path fill="none" stroke="midnightblue" d="M616.65,-250C635.179,-250 655.356,-250 674.21,-250"/>
<polygon fill="midnightblue" stroke="midnightblue" points="674.23,-253.5 684.23,-250 674.23,-246.5 674.23,-253.5"/>
</g>
<!-- Node27 -->
<g id="node27" class="node"><title>Node27</title>
<g id="a_node27"><a xlink:href="../../de/ded/classmodel_1_1_pen.html#a6999f4af56377415621f193ef8600e27" target="_top" xlink:title="model.Pen.getDash">
<polygon fill="white" stroke="black" points="693.5,-202.5 693.5,-221.5 804.5,-221.5 804.5,-202.5 693.5,-202.5"/>
<text text-anchor="middle" x="749" y="-209.5" font-family="Helvetica,sans-Serif" font-size="10.00">model.Pen.getDash</text>
</a>
</g>
</g>
<!-- Node26&#45;&gt;Node27 -->
<g id="edge27" class="edge"><title>Node26&#45;&gt;Node27</title>
<path fill="none" stroke="midnightblue" d="M616.65,-212C638.147,-212 661.86,-212 683.154,-212"/>
<polygon fill="midnightblue" stroke="midnightblue" points="683.393,-215.5 693.393,-212 683.393,-208.5 683.393,-215.5"/>
</g>
<!-- Node29 -->
<g id="node29" class="node"><title>Node29</title>
<g id="a_node29"><a xlink:href="../../de/ded/classmodel_1_1_pen.html#afad4fb3e51847cacab72c036ddaa108f" target="_top" xlink:title="model.Pen.getStatus">
<polygon fill="white" stroke="black" points="690,-164.5 690,-183.5 808,-183.5 808,-164.5 690,-164.5"/>
<text text-anchor="middle" x="749" y="-171.5" font-family="Helvetica,sans-Serif" font-size="10.00">model.Pen.getStatus</text>
</a>
</g>
</g>
<!-- Node28&#45;&gt;Node29 -->
<g id="edge29" class="edge"><title>Node28&#45;&gt;Node29</title>
<path fill="none" stroke="midnightblue" d="M619.72,-174C639.228,-174 660.35,-174 679.717,-174"/>
<polygon fill="midnightblue" stroke="midnightblue" points="679.969,-177.5 689.969,-174 679.969,-170.5 679.969,-177.5"/>
</g>
</g>
</svg>
