<?xml version="1.0" encoding="UTF-8" standalone="no"?>
<!DOCTYPE svg PUBLIC "-//W3C//DTD SVG 1.1//EN"
 "http://www.w3.org/Graphics/SVG/1.1/DTD/svg11.dtd">
<!-- Generated by graphviz version 2.36.0 (20140111.2315)
 -->
<!-- Title: view.panes.ViewPaneModule.toggleActive Pages: 1 -->
<svg width="1064pt" height="704pt"
 viewBox="0.00 0.00 1064.00 704.00" xmlns="http://www.w3.org/2000/svg" xmlns:xlink="http://www.w3.org/1999/xlink">
<g id="graph0" class="graph" transform="scale(1 1) rotate(0) translate(4 700)">
<title>view.panes.ViewPaneModule.toggleActive</title>
<polygon fill="white" stroke="none" points="-4,4 -4,-700 1060,-700 1060,4 -4,4"/>
<!-- Node1 -->
<g id="node1" class="node"><title>Node1</title>
<polygon fill="#bfbfbf" stroke="black" points="0,-442 0,-472 184,-472 184,-442 0,-442"/>
<text text-anchor="start" x="8" y="-460" font-family="Helvetica,sans-Serif" font-size="10.00">view.panes.ViewPaneModule.toggle</text>
<text text-anchor="middle" x="92" y="-449" font-family="Helvetica,sans-Serif" font-size="10.00">Active</text>
</g>
<!-- Node2 -->
<g id="node2" class="node"><title>Node2</title>
<g id="a_node2"><a xlink:href="../../db/db5/classview_1_1panes_1_1_view_pane_module.html#aa2a1bf15bc036ee4237bf63749d85baf" target="_top" xlink:title="view.panes.ViewPaneModule.updateView">
<polygon fill="white" stroke="black" points="220.5,-447.5 220.5,-466.5 429.5,-466.5 429.5,-447.5 220.5,-447.5"/>
<text text-anchor="middle" x="325" y="-454.5" font-family="Helvetica,sans-Serif" font-size="10.00">view.panes.ViewPaneModule.updateView</text>
</a>
</g>
</g>
<!-- Node1&#45;&gt;Node2 -->
<g id="edge1" class="edge"><title>Node1&#45;&gt;Node2</title>
<path fill="none" stroke="midnightblue" d="M184.297,-457C192.818,-457 201.522,-457 210.213,-457"/>
<polygon fill="midnightblue" stroke="midnightblue" points="210.399,-460.5 220.398,-457 210.398,-453.5 210.399,-460.5"/>
</g>
<!-- Node3 -->
<g id="node3" class="node"><title>Node3</title>
<g id="a_node3"><a xlink:href="../../d3/d42/classmodel_1_1_model.html#a54936407d7df5ab8ef3c0ae54bcdc0ed" target="_top" xlink:title="model.Model.getBackground\lColor">
<polygon fill="white" stroke="black" points="483,-666 483,-696 637,-696 637,-666 483,-666"/>
<text text-anchor="start" x="491" y="-684" font-family="Helvetica,sans-Serif" font-size="10.00">model.Model.getBackground</text>
<text text-anchor="middle" x="560" y="-673" font-family="Helvetica,sans-Serif" font-size="10.00">Color</text>
</a>
</g>
</g>
<!-- Node2&#45;&gt;Node3 -->
<g id="edge2" class="edge"><title>Node2&#45;&gt;Node3</title>
<path fill="none" stroke="midnightblue" d="M329.895,-466.674C343.411,-498.969 391.568,-603.96 466,-656 468.74,-657.916 471.62,-659.685 474.601,-661.319"/>
<polygon fill="midnightblue" stroke="midnightblue" points="473.287,-664.572 483.808,-665.824 476.364,-658.285 473.287,-664.572"/>
</g>
<!-- Node4 -->
<g id="node4" class="node"><title>Node4</title>
<g id="a_node4"><a xlink:href="../../db/db5/classview_1_1panes_1_1_view_pane_module.html#ac94ee444587349ddad19b8caee500c9c" target="_top" xlink:title="view.panes.ViewPaneModule.update\lBGColor">
<polygon fill="white" stroke="black" points="466,-617 466,-647 654,-647 654,-617 466,-617"/>
<text text-anchor="start" x="474" y="-635" font-family="Helvetica,sans-Serif" font-size="10.00">view.panes.ViewPaneModule.update</text>
<text text-anchor="middle" x="560" y="-624" font-family="Helvetica,sans-Serif" font-size="10.00">BGColor</text>
</a>
</g>
</g>
<!-- Node2&#45;&gt;Node4 -->
<g id="edge3" class="edge"><title>Node2&#45;&gt;Node4</title>
<path fill="none" stroke="midnightblue" d="M332.222,-466.817C349.764,-493.662 402.496,-568.827 466,-607 469.627,-609.18 473.446,-611.174 477.384,-612.996"/>
<polygon fill="midnightblue" stroke="midnightblue" points="476.178,-616.286 486.752,-616.945 478.897,-609.836 476.178,-616.286"/>
</g>
<!-- Node5 -->
<g id="node5" class="node"><title>Node5</title>
<g id="a_node5"><a xlink:href="../../db/db5/classview_1_1panes_1_1_view_pane_module.html#abe91f8bb732e99d762bdaba51ceae04b" target="_top" xlink:title="view.panes.ViewPaneModule.toRGB">
<polygon fill="white" stroke="black" points="468,-578.5 468,-597.5 652,-597.5 652,-578.5 468,-578.5"/>
<text text-anchor="middle" x="560" y="-585.5" font-family="Helvetica,sans-Serif" font-size="10.00">view.panes.ViewPaneModule.toRGB</text>
</a>
</g>
</g>
<!-- Node2&#45;&gt;Node5 -->
<g id="edge4" class="edge"><title>Node2&#45;&gt;Node5</title>
<path fill="none" stroke="midnightblue" d="M334.764,-466.612C355.35,-488.55 409.346,-542.457 466,-569 471.354,-571.508 477.033,-573.686 482.842,-575.578"/>
<polygon fill="midnightblue" stroke="midnightblue" points="482.123,-579.015 492.705,-578.499 484.111,-572.303 482.123,-579.015"/>
</g>
<!-- Node6 -->
<g id="node6" class="node"><title>Node6</title>
<g id="a_node6"><a xlink:href="../../d3/d42/classmodel_1_1_model.html#a1a683ba5e58fcb3c8882c8e61df20dc0" target="_top" xlink:title="model.Model.getTurtleManager">
<polygon fill="white" stroke="black" points="478,-540.5 478,-559.5 642,-559.5 642,-540.5 478,-540.5"/>
<text text-anchor="middle" x="560" y="-547.5" font-family="Helvetica,sans-Serif" font-size="10.00">model.Model.getTurtleManager</text>
</a>
</g>
</g>
<!-- Node2&#45;&gt;Node6 -->
<g id="edge5" class="edge"><title>Node2&#45;&gt;Node6</title>
<path fill="none" stroke="midnightblue" d="M340.921,-466.508C365.867,-482.002 418.041,-512.698 466,-530 474.556,-533.087 483.736,-535.771 492.874,-538.083"/>
<polygon fill="midnightblue" stroke="midnightblue" points="492.202,-541.521 502.743,-540.448 493.833,-534.714 492.202,-541.521"/>
</g>
<!-- Node7 -->
<g id="node7" class="node"><title>Node7</title>
<g id="a_node7"><a xlink:href="../../df/d50/classmodel_1_1_turtle_set_manager.html#a9a65c0be3b9c21abaf0ebaa54e5b8484" target="_top" xlink:title="model.TurtleSetManager.get\lActiveTurtles">
<polygon fill="white" stroke="black" points="484,-491 484,-521 636,-521 636,-491 484,-491"/>
<text text-anchor="start" x="492" y="-509" font-family="Helvetica,sans-Serif" font-size="10.00">model.TurtleSetManager.get</text>
<text text-anchor="middle" x="560" y="-498" font-family="Helvetica,sans-Serif" font-size="10.00">ActiveTurtles</text>
</a>
</g>
</g>
<!-- Node2&#45;&gt;Node7 -->
<g id="edge6" class="edge"><title>Node2&#45;&gt;Node7</title>
<path fill="none" stroke="midnightblue" d="M371.201,-466.506C401.322,-472.84 441.774,-481.347 477.42,-488.844"/>
<polygon fill="midnightblue" stroke="midnightblue" points="476.828,-492.296 487.335,-490.929 478.269,-485.446 476.828,-492.296"/>
</g>
<!-- Node8 -->
<g id="node8" class="node"><title>Node8</title>
<g id="a_node8"><a xlink:href="../../df/d50/classmodel_1_1_turtle_set_manager.html#a9e215e93eccbed2ab9ebec6119cfe305" target="_top" xlink:title="model.TurtleSetManager.get\lAllTurtles">
<polygon fill="white" stroke="black" points="484,-442 484,-472 636,-472 636,-442 484,-442"/>
<text text-anchor="start" x="492" y="-460" font-family="Helvetica,sans-Serif" font-size="10.00">model.TurtleSetManager.get</text>
<text text-anchor="middle" x="560" y="-449" font-family="Helvetica,sans-Serif" font-size="10.00">AllTurtles</text>
</a>
</g>
</g>
<!-- Node2&#45;&gt;Node8 -->
<g id="edge7" class="edge"><title>Node2&#45;&gt;Node8</title>
<path fill="none" stroke="midnightblue" d="M429.554,-457C444.224,-457 459.172,-457 473.451,-457"/>
<polygon fill="midnightblue" stroke="midnightblue" points="473.716,-460.5 483.716,-457 473.716,-453.5 473.716,-460.5"/>
</g>
<!-- Node9 -->
<g id="node9" class="node"><title>Node9</title>
<g id="a_node9"><a xlink:href="../../d3/d42/classmodel_1_1_model.html#af73e838aed2c068e8f7d31bfa1cc88d7" target="_top" xlink:title="model.Model.getStamp">
<polygon fill="white" stroke="black" points="495.5,-403.5 495.5,-422.5 624.5,-422.5 624.5,-403.5 495.5,-403.5"/>
<text text-anchor="middle" x="560" y="-410.5" font-family="Helvetica,sans-Serif" font-size="10.00">model.Model.getStamp</text>
</a>
</g>
</g>
<!-- Node2&#45;&gt;Node9 -->
<g id="edge8" class="edge"><title>Node2&#45;&gt;Node9</title>
<path fill="none" stroke="midnightblue" d="M376.558,-447.453C412.433,-440.678 460.75,-431.554 498.647,-424.397"/>
<polygon fill="midnightblue" stroke="midnightblue" points="499.364,-427.824 508.541,-422.529 498.065,-420.945 499.364,-427.824"/>
</g>
<!-- Node10 -->
<g id="node10" class="node"><title>Node10</title>
<g id="a_node10"><a xlink:href="../../db/db5/classview_1_1panes_1_1_view_pane_module.html#a44db6ae832af3ce470baa9406142b8cb" target="_top" xlink:title="view.panes.ViewPaneModule.make\lStamps">
<polygon fill="white" stroke="black" points="469.5,-354 469.5,-384 650.5,-384 650.5,-354 469.5,-354"/>
<text text-anchor="start" x="477.5" y="-372" font-family="Helvetica,sans-Serif" font-size="10.00">view.panes.ViewPaneModule.make</text>
<text text-anchor="middle" x="560" y="-361" font-family="Helvetica,sans-Serif" font-size="10.00">Stamps</text>
</a>
</g>
</g>
<!-- Node2&#45;&gt;Node10 -->
<g id="edge9" class="edge"><title>Node2&#45;&gt;Node10</title>
<path fill="none" stroke="midnightblue" d="M344.626,-447.459C371.087,-434.174 421.317,-409.944 466,-394 472.929,-391.528 480.223,-389.167 487.552,-386.952"/>
<polygon fill="midnightblue" stroke="midnightblue" points="488.926,-390.197 497.538,-384.026 486.957,-383.479 488.926,-390.197"/>
</g>
<!-- Node17 -->
<g id="node17" class="node"><title>Node17</title>
<g id="a_node17"><a xlink:href="../../d3/d42/classmodel_1_1_model.html#a0a457f31350a460e11dc864463e0d8ff" target="_top" xlink:title="model.Model.setStamp">
<polygon fill="white" stroke="black" points="496,-217.5 496,-236.5 624,-236.5 624,-217.5 496,-217.5"/>
<text text-anchor="middle" x="560" y="-224.5" font-family="Helvetica,sans-Serif" font-size="10.00">model.Model.setStamp</text>
</a>
</g>
</g>
<!-- Node2&#45;&gt;Node17 -->
<g id="edge16" class="edge"><title>Node2&#45;&gt;Node17</title>
<path fill="none" stroke="midnightblue" d="M329.419,-447.044C341.728,-412.804 387.268,-299.088 466,-246 472.106,-241.883 478.914,-238.624 485.993,-236.05"/>
<polygon fill="midnightblue" stroke="midnightblue" points="487.3,-239.307 495.773,-232.947 485.183,-232.635 487.3,-239.307"/>
</g>
<!-- Node18 -->
<g id="node18" class="node"><title>Node18</title>
<g id="a_node18"><a xlink:href="../../db/db5/classview_1_1panes_1_1_view_pane_module.html#a7ad9ad27137ffdf0ea96753a22da236b" target="_top" xlink:title="view.panes.ViewPaneModule.erase\lStamps">
<polygon fill="white" stroke="black" points="469.5,-305 469.5,-335 650.5,-335 650.5,-305 469.5,-305"/>
<text text-anchor="start" x="477.5" y="-323" font-family="Helvetica,sans-Serif" font-size="10.00">view.panes.ViewPaneModule.erase</text>
<text text-anchor="middle" x="560" y="-312" font-family="Helvetica,sans-Serif" font-size="10.00">Stamps</text>
</a>
</g>
</g>
<!-- Node2&#45;&gt;Node18 -->
<g id="edge17" class="edge"><title>Node2&#45;&gt;Node18</title>
<path fill="none" stroke="midnightblue" d="M334.842,-447.498C355.592,-425.778 409.907,-372.199 466,-344 469.771,-342.104 473.706,-340.349 477.735,-338.724"/>
<polygon fill="midnightblue" stroke="midnightblue" points="479.127,-341.941 487.274,-335.167 476.681,-335.382 479.127,-341.941"/>
</g>
<!-- Node20 -->
<g id="node20" class="node"><title>Node20</title>
<g id="a_node20"><a xlink:href="../../db/db5/classview_1_1panes_1_1_view_pane_module.html#ab55ce3511929b88a2cd1235eb694868f" target="_top" xlink:title="view.panes.ViewPaneModule.update\lTurtle">
<polygon fill="white" stroke="black" points="466,-256 466,-286 654,-286 654,-256 466,-256"/>
<text text-anchor="start" x="474" y="-274" font-family="Helvetica,sans-Serif" font-size="10.00">view.panes.ViewPaneModule.update</text>
<text text-anchor="middle" x="560" y="-263" font-family="Helvetica,sans-Serif" font-size="10.00">Turtle</text>
</a>
</g>
</g>
<!-- Node2&#45;&gt;Node20 -->
<g id="edge19" class="edge"><title>Node2&#45;&gt;Node20</title>
<path fill="none" stroke="midnightblue" d="M331.511,-447.174C347.955,-418.802 399.669,-336.156 466,-295 468.763,-293.286 471.645,-291.693 474.611,-290.214"/>
<polygon fill="midnightblue" stroke="midnightblue" points="476.048,-293.405 483.729,-286.108 473.174,-287.023 476.048,-293.405"/>
</g>
<!-- Node11 -->
<g id="node11" class="node"><title>Node11</title>
<g id="a_node11"><a xlink:href="../../d7/da6/classview_1_1_turtle_draw.html#a939f4fdbdb66457c9dcee82eb4ae6d9c" target="_top" xlink:title="view.TurtleDraw.drawTurtle">
<polygon fill="white" stroke="black" points="698.5,-418.5 698.5,-437.5 837.5,-437.5 837.5,-418.5 698.5,-418.5"/>
<text text-anchor="middle" x="768" y="-425.5" font-family="Helvetica,sans-Serif" font-size="10.00">view.TurtleDraw.drawTurtle</text>
</a>
</g>
</g>
<!-- Node10&#45;&gt;Node11 -->
<g id="edge10" class="edge"><title>Node10&#45;&gt;Node11</title>
<path fill="none" stroke="midnightblue" d="M621.881,-384.125C632.656,-387.154 643.714,-390.492 654,-394 670.405,-399.595 673.538,-403.575 690,-409 697.624,-411.512 705.768,-413.866 713.801,-416.003"/>
<polygon fill="midnightblue" stroke="midnightblue" points="712.945,-419.396 723.501,-418.497 714.688,-412.617 712.945,-419.396"/>
</g>
<!-- Node14 -->
<g id="node14" class="node"><title>Node14</title>
<g id="a_node14"><a xlink:href="../../d7/da6/classview_1_1_turtle_draw.html#a8c2cab38eb294b26aea1ae17595ba2a6" target="_top" xlink:title="view.TurtleDraw.moveTurtle">
<polygon fill="white" stroke="black" points="696.5,-380.5 696.5,-399.5 839.5,-399.5 839.5,-380.5 696.5,-380.5"/>
<text text-anchor="middle" x="768" y="-387.5" font-family="Helvetica,sans-Serif" font-size="10.00">view.TurtleDraw.moveTurtle</text>
</a>
</g>
</g>
<!-- Node10&#45;&gt;Node14 -->
<g id="edge13" class="edge"><title>Node10&#45;&gt;Node14</title>
<path fill="none" stroke="midnightblue" d="M650.755,-378.15C662.579,-379.355 674.64,-380.585 686.301,-381.773"/>
<polygon fill="midnightblue" stroke="midnightblue" points="686.125,-385.274 696.428,-382.806 686.835,-378.31 686.125,-385.274"/>
</g>
<!-- Node15 -->
<g id="node15" class="node"><title>Node15</title>
<g id="a_node15"><a xlink:href="../../d7/da6/classview_1_1_turtle_draw.html#a5004a16526a67f090d7da45474b5136e" target="_top" xlink:title="view.TurtleDraw.setAngle">
<polygon fill="white" stroke="black" points="701.5,-342.5 701.5,-361.5 834.5,-361.5 834.5,-342.5 701.5,-342.5"/>
<text text-anchor="middle" x="768" y="-349.5" font-family="Helvetica,sans-Serif" font-size="10.00">view.TurtleDraw.setAngle</text>
</a>
</g>
</g>
<!-- Node10&#45;&gt;Node15 -->
<g id="edge14" class="edge"><title>Node10&#45;&gt;Node15</title>
<path fill="none" stroke="midnightblue" d="M650.755,-361.593C664.32,-360.474 678.197,-359.328 691.422,-358.237"/>
<polygon fill="midnightblue" stroke="midnightblue" points="691.715,-361.725 701.393,-357.414 691.139,-354.749 691.715,-361.725"/>
</g>
<!-- Node16 -->
<g id="node16" class="node"><title>Node16</title>
<g id="a_node16"><a xlink:href="../../d7/da6/classview_1_1_turtle_draw.html#a14678068d3fc9d3b6e1067bc372f6030" target="_top" xlink:title="view.TurtleDraw.showTurtle">
<polygon fill="white" stroke="black" points="698,-456.5 698,-475.5 838,-475.5 838,-456.5 698,-456.5"/>
<text text-anchor="middle" x="768" y="-463.5" font-family="Helvetica,sans-Serif" font-size="10.00">view.TurtleDraw.showTurtle</text>
</a>
</g>
</g>
<!-- Node10&#45;&gt;Node16 -->
<g id="edge15" class="edge"><title>Node10&#45;&gt;Node16</title>
<path fill="none" stroke="midnightblue" d="M636.26,-384.08C642.534,-386.847 648.551,-390.123 654,-394 677.203,-410.508 666.628,-430.733 690,-447 692.855,-448.987 695.897,-450.767 699.061,-452.362"/>
<polygon fill="midnightblue" stroke="midnightblue" points="697.681,-455.578 708.245,-456.382 700.487,-449.166 697.681,-455.578"/>
</g>
<!-- Node12 -->
<g id="node12" class="node"><title>Node12</title>
<g id="a_node12"><a xlink:href="../../d3/db7/classview_1_1controllers_1_1_image_palette.html#a8a6620714bc12d5a00b97e99299a7040" target="_top" xlink:title="view.controllers.ImagePalette.get\lImage">
<polygon fill="white" stroke="black" points="882,-391 882,-421 1056,-421 1056,-391 882,-391"/>
<text text-anchor="start" x="890" y="-409" font-family="Helvetica,sans-Serif" font-size="10.00">view.controllers.ImagePalette.get</text>
<text text-anchor="middle" x="969" y="-398" font-family="Helvetica,sans-Serif" font-size="10.00">Image</text>
</a>
</g>
</g>
<!-- Node11&#45;&gt;Node12 -->
<g id="edge11" class="edge"><title>Node11&#45;&gt;Node12</title>
<path fill="none" stroke="midnightblue" d="M837.763,-420.398C848.711,-419.188 860.21,-417.916 871.653,-416.651"/>
<polygon fill="midnightblue" stroke="midnightblue" points="872.125,-420.121 881.68,-415.543 871.356,-413.163 872.125,-420.121"/>
</g>
<!-- Node13 -->
<g id="node13" class="node"><title>Node13</title>
<g id="a_node13"><a xlink:href="../../d6/d34/classmodel_1_1_turtle.html#a942dbeb1d7e2bc19b6870538c2c3a7d2" target="_top" xlink:title="model.Turtle.getShape">
<polygon fill="white" stroke="black" points="906.5,-440.5 906.5,-459.5 1031.5,-459.5 1031.5,-440.5 906.5,-440.5"/>
<text text-anchor="middle" x="969" y="-447.5" font-family="Helvetica,sans-Serif" font-size="10.00">model.Turtle.getShape</text>
</a>
</g>
</g>
<!-- Node11&#45;&gt;Node13 -->
<g id="edge12" class="edge"><title>Node11&#45;&gt;Node13</title>
<path fill="none" stroke="midnightblue" d="M837.763,-435.602C856.619,-437.686 877.107,-439.952 896.131,-442.055"/>
<polygon fill="midnightblue" stroke="midnightblue" points="895.905,-445.551 906.229,-443.171 896.674,-438.593 895.905,-445.551"/>
</g>
<!-- Node19 -->
<g id="node19" class="node"><title>Node19</title>
<g id="a_node19"><a xlink:href="../../d7/da6/classview_1_1_turtle_draw.html#acb97dedda080cb5ed17031d2b31adc2c" target="_top" xlink:title="view.TurtleDraw.hideTurtle">
<polygon fill="white" stroke="black" points="699.5,-304.5 699.5,-323.5 836.5,-323.5 836.5,-304.5 699.5,-304.5"/>
<text text-anchor="middle" x="768" y="-311.5" font-family="Helvetica,sans-Serif" font-size="10.00">view.TurtleDraw.hideTurtle</text>
</a>
</g>
</g>
<!-- Node18&#45;&gt;Node19 -->
<g id="edge18" class="edge"><title>Node18&#45;&gt;Node19</title>
<path fill="none" stroke="midnightblue" d="M650.755,-317.386C663.461,-317.016 676.44,-316.638 688.902,-316.275"/>
<polygon fill="midnightblue" stroke="midnightblue" points="689.338,-319.764 699.231,-315.974 689.134,-312.767 689.338,-319.764"/>
</g>
<!-- Node20&#45;&gt;Node11 -->
<g id="edge21" class="edge"><title>Node20&#45;&gt;Node11</title>
<path fill="none" stroke="midnightblue" d="M641.98,-286.042C646.313,-288.594 650.37,-291.558 654,-295 692.559,-331.556 651.247,-372.65 690,-409 691.673,-410.569 693.454,-412.014 695.322,-413.345"/>
<polygon fill="midnightblue" stroke="midnightblue" points="693.616,-416.402 704.005,-418.478 697.178,-410.377 693.616,-416.402"/>
</g>
<!-- Node20&#45;&gt;Node14 -->
<g id="edge35" class="edge"><title>Node20&#45;&gt;Node14</title>
<path fill="none" stroke="midnightblue" d="M640.555,-286.163C645.348,-288.678 649.886,-291.601 654,-295 682.814,-318.805 661.06,-347.348 690,-371 692.052,-372.677 694.231,-374.21 696.507,-375.61"/>
<polygon fill="midnightblue" stroke="midnightblue" points="695.205,-378.878 705.693,-380.378 698.43,-372.665 695.205,-378.878"/>
</g>
<!-- Node20&#45;&gt;Node15 -->
<g id="edge33" class="edge"><title>Node20&#45;&gt;Node15</title>
<path fill="none" stroke="midnightblue" d="M635.144,-286.006C641.721,-288.555 648.11,-291.529 654,-295 674.043,-306.811 669.894,-321.296 690,-333 693.853,-335.243 697.962,-337.222 702.202,-338.969"/>
<polygon fill="midnightblue" stroke="midnightblue" points="701.05,-342.274 711.644,-342.433 703.461,-335.702 701.05,-342.274"/>
</g>
<!-- Node20&#45;&gt;Node16 -->
<g id="edge22" class="edge"><title>Node20&#45;&gt;Node16</title>
<path fill="none" stroke="midnightblue" d="M643.128,-286.267C647.066,-288.774 650.732,-291.666 654,-295 702.597,-344.579 641.14,-397.68 690,-447 691.417,-448.431 692.924,-449.76 694.505,-450.994"/>
<polygon fill="midnightblue" stroke="midnightblue" points="692.655,-453.965 702.963,-456.412 696.43,-448.071 692.655,-453.965"/>
</g>
<!-- Node20&#45;&gt;Node19 -->
<g id="edge23" class="edge"><title>Node20&#45;&gt;Node19</title>
<path fill="none" stroke="midnightblue" d="M633.049,-286.039C658.734,-291.401 687.249,-297.353 711.346,-302.383"/>
<polygon fill="midnightblue" stroke="midnightblue" points="710.878,-305.86 721.382,-304.478 712.308,-299.008 710.878,-305.86"/>
</g>
<!-- Node21 -->
<g id="node21" class="node"><title>Node21</title>
<g id="a_node21"><a xlink:href="../../d6/d34/classmodel_1_1_turtle.html#ae79a1eae7eed55d121c3b85299ae14ba" target="_top" xlink:title="model.Turtle.getID">
<polygon fill="white" stroke="black" points="716,-0.5 716,-19.5 820,-19.5 820,-0.5 716,-0.5"/>
<text text-anchor="middle" x="768" y="-7.5" font-family="Helvetica,sans-Serif" font-size="10.00">model.Turtle.getID</text>
</a>
</g>
</g>
<!-- Node20&#45;&gt;Node21 -->
<g id="edge20" class="edge"><title>Node20&#45;&gt;Node21</title>
<path fill="none" stroke="midnightblue" d="M642.173,-255.911C646.518,-253.117 650.519,-249.84 654,-246 719.652,-173.562 623.602,-100.755 690,-29 694.48,-24.1585 699.98,-20.4637 705.961,-17.6559"/>
<polygon fill="midnightblue" stroke="midnightblue" points="707.59,-20.78 715.678,-13.9365 705.088,-14.2425 707.59,-20.78"/>
</g>
<!-- Node22 -->
<g id="node22" class="node"><title>Node22</title>
<g id="a_node22"><a xlink:href="../../d6/d34/classmodel_1_1_turtle.html#a279f2bdb3fa955acdd52b7824ec3cd04" target="_top" xlink:title="model.Turtle.getPenStatus">
<polygon fill="white" stroke="black" points="696.5,-266.5 696.5,-285.5 839.5,-285.5 839.5,-266.5 696.5,-266.5"/>
<text text-anchor="middle" x="768" y="-273.5" font-family="Helvetica,sans-Serif" font-size="10.00">model.Turtle.getPenStatus</text>
</a>
</g>
</g>
<!-- Node20&#45;&gt;Node22 -->
<g id="edge24" class="edge"><title>Node20&#45;&gt;Node22</title>
<path fill="none" stroke="midnightblue" d="M654.056,-273.259C664.802,-273.519 675.695,-273.784 686.259,-274.04"/>
<polygon fill="midnightblue" stroke="midnightblue" points="686.189,-277.54 696.271,-274.283 686.359,-270.542 686.189,-277.54"/>
</g>
<!-- Node24 -->
<g id="node24" class="node"><title>Node24</title>
<g id="a_node24"><a xlink:href="../../d7/da6/classview_1_1_turtle_draw.html#a1325ca376115619f15f5014eb4c5ad2a" target="_top" xlink:title="view.TurtleDraw.drawLine">
<polygon fill="white" stroke="black" points="701.5,-228.5 701.5,-247.5 834.5,-247.5 834.5,-228.5 701.5,-228.5"/>
<text text-anchor="middle" x="768" y="-235.5" font-family="Helvetica,sans-Serif" font-size="10.00">view.TurtleDraw.drawLine</text>
</a>
</g>
</g>
<!-- Node20&#45;&gt;Node24 -->
<g id="edge26" class="edge"><title>Node20&#45;&gt;Node24</title>
<path fill="none" stroke="midnightblue" d="M654.056,-256.093C668.642,-253.756 683.496,-251.377 697.434,-249.144"/>
<polygon fill="midnightblue" stroke="midnightblue" points="698.084,-252.585 707.404,-247.547 696.977,-245.673 698.084,-252.585"/>
</g>
<!-- Node25 -->
<g id="node25" class="node"><title>Node25</title>
<g id="a_node25"><a xlink:href="../../d6/d34/classmodel_1_1_turtle.html#a832234461564763f8330181b3c1163ff" target="_top" xlink:title="model.Turtle.getPrevLocation">
<polygon fill="white" stroke="black" points="690.5,-190.5 690.5,-209.5 845.5,-209.5 845.5,-190.5 690.5,-190.5"/>
<text text-anchor="middle" x="768" y="-197.5" font-family="Helvetica,sans-Serif" font-size="10.00">model.Turtle.getPrevLocation</text>
</a>
</g>
</g>
<!-- Node20&#45;&gt;Node25 -->
<g id="edge27" class="edge"><title>Node20&#45;&gt;Node25</title>
<path fill="none" stroke="midnightblue" d="M629.156,-255.925C637.705,-253.096 646.183,-249.805 654,-246 671.982,-237.246 671.928,-227.568 690,-219 695.054,-216.604 700.444,-214.49 705.934,-212.628"/>
<polygon fill="midnightblue" stroke="midnightblue" points="707.362,-215.85 715.876,-209.545 705.288,-209.164 707.362,-215.85"/>
</g>
<!-- Node26 -->
<g id="node26" class="node"><title>Node26</title>
<g id="a_node26"><a xlink:href="../../d6/d34/classmodel_1_1_turtle.html#a2470b9b4ef48a261324047de8ebdc242" target="_top" xlink:title="model.Turtle.getNewLocation">
<polygon fill="white" stroke="black" points="690.5,-152.5 690.5,-171.5 845.5,-171.5 845.5,-152.5 690.5,-152.5"/>
<text text-anchor="middle" x="768" y="-159.5" font-family="Helvetica,sans-Serif" font-size="10.00">model.Turtle.getNewLocation</text>
</a>
</g>
</g>
<!-- Node20&#45;&gt;Node26 -->
<g id="edge28" class="edge"><title>Node20&#45;&gt;Node26</title>
<path fill="none" stroke="midnightblue" d="M638.036,-255.783C643.721,-253.043 649.128,-249.811 654,-246 680.011,-225.653 663.78,-201.076 690,-181 692.357,-179.195 694.864,-177.559 697.478,-176.077"/>
<polygon fill="midnightblue" stroke="midnightblue" points="699.24,-179.113 706.717,-171.607 696.191,-172.812 699.24,-179.113"/>
</g>
<!-- Node27 -->
<g id="node27" class="node"><title>Node27</title>
<g id="a_node27"><a xlink:href="../../d6/d34/classmodel_1_1_turtle.html#a19c059b1cbfbd4e8f046ec2403de3fb9" target="_top" xlink:title="model.Turtle.getPenDash">
<polygon fill="white" stroke="black" points="699.5,-114.5 699.5,-133.5 836.5,-133.5 836.5,-114.5 699.5,-114.5"/>
<text text-anchor="middle" x="768" y="-121.5" font-family="Helvetica,sans-Serif" font-size="10.00">model.Turtle.getPenDash</text>
</a>
</g>
</g>
<!-- Node20&#45;&gt;Node27 -->
<g id="edge29" class="edge"><title>Node20&#45;&gt;Node27</title>
<path fill="none" stroke="midnightblue" d="M640.119,-255.934C645.136,-253.151 649.835,-249.869 654,-246 689.529,-212.995 654.132,-175.635 690,-143 691.696,-141.457 693.498,-140.034 695.384,-138.722"/>
<polygon fill="midnightblue" stroke="midnightblue" points="697.231,-141.697 704.128,-133.655 693.721,-135.64 697.231,-141.697"/>
</g>
<!-- Node29 -->
<g id="node29" class="node"><title>Node29</title>
<g id="a_node29"><a xlink:href="../../d6/d34/classmodel_1_1_turtle.html#a193c156784f783064ae533b619b6be6e" target="_top" xlink:title="model.Turtle.getPenColor">
<polygon fill="white" stroke="black" points="699.5,-76.5 699.5,-95.5 836.5,-95.5 836.5,-76.5 699.5,-76.5"/>
<text text-anchor="middle" x="768" y="-83.5" font-family="Helvetica,sans-Serif" font-size="10.00">model.Turtle.getPenColor</text>
</a>
</g>
</g>
<!-- Node20&#45;&gt;Node29 -->
<g id="edge31" class="edge"><title>Node20&#45;&gt;Node29</title>
<path fill="none" stroke="midnightblue" d="M641.37,-255.818C645.968,-253.053 650.241,-249.807 654,-246 699.444,-199.979 644.083,-150.549 690,-105 691.43,-103.582 692.947,-102.264 694.538,-101.039"/>
<polygon fill="midnightblue" stroke="midnightblue" points="696.458,-103.966 703.035,-95.6596 692.713,-98.0517 696.458,-103.966"/>
</g>
<!-- Node31 -->
<g id="node31" class="node"><title>Node31</title>
<g id="a_node31"><a xlink:href="../../d6/d34/classmodel_1_1_turtle.html#a1c5d07962ede5fbfacc59413274d4300" target="_top" xlink:title="model.Turtle.getHeading">
<polygon fill="white" stroke="black" points="701,-38.5 701,-57.5 835,-57.5 835,-38.5 701,-38.5"/>
<text text-anchor="middle" x="768" y="-45.5" font-family="Helvetica,sans-Serif" font-size="10.00">model.Turtle.getHeading</text>
</a>
</g>
</g>
<!-- Node20&#45;&gt;Node31 -->
<g id="edge34" class="edge"><title>Node20&#45;&gt;Node31</title>
<path fill="none" stroke="midnightblue" d="M642.023,-255.772C646.404,-253.012 650.455,-249.78 654,-246 709.511,-186.809 633.879,-125.614 690,-67 691.244,-65.7009 692.561,-64.4849 693.941,-63.3469"/>
<polygon fill="midnightblue" stroke="midnightblue" points="696.094,-66.1175 702.458,-57.6467 692.201,-60.3003 696.094,-66.1175"/>
</g>
<!-- Node23 -->
<g id="node23" class="node"><title>Node23</title>
<g id="a_node23"><a xlink:href="../../de/ded/classmodel_1_1_pen.html#afad4fb3e51847cacab72c036ddaa108f" target="_top" xlink:title="model.Pen.getStatus">
<polygon fill="white" stroke="black" points="910,-266.5 910,-285.5 1028,-285.5 1028,-266.5 910,-266.5"/>
<text text-anchor="middle" x="969" y="-273.5" font-family="Helvetica,sans-Serif" font-size="10.00">model.Pen.getStatus</text>
</a>
</g>
</g>
<!-- Node22&#45;&gt;Node23 -->
<g id="edge25" class="edge"><title>Node22&#45;&gt;Node23</title>
<path fill="none" stroke="midnightblue" d="M839.72,-276C859.228,-276 880.35,-276 899.717,-276"/>
<polygon fill="midnightblue" stroke="midnightblue" points="899.969,-279.5 909.969,-276 899.969,-272.5 899.969,-279.5"/>
</g>
<!-- Node28 -->
<g id="node28" class="node"><title>Node28</title>
<g id="a_node28"><a xlink:href="../../de/ded/classmodel_1_1_pen.html#a6999f4af56377415621f193ef8600e27" target="_top" xlink:title="model.Pen.getDash">
<polygon fill="white" stroke="black" points="913.5,-114.5 913.5,-133.5 1024.5,-133.5 1024.5,-114.5 913.5,-114.5"/>
<text text-anchor="middle" x="969" y="-121.5" font-family="Helvetica,sans-Serif" font-size="10.00">model.Pen.getDash</text>
</a>
</g>
</g>
<!-- Node27&#45;&gt;Node28 -->
<g id="edge30" class="edge"><title>Node27&#45;&gt;Node28</title>
<path fill="none" stroke="midnightblue" d="M836.65,-124C858.147,-124 881.86,-124 903.154,-124"/>
<polygon fill="midnightblue" stroke="midnightblue" points="903.393,-127.5 913.393,-124 903.393,-120.5 903.393,-127.5"/>
</g>
<!-- Node30 -->
<g id="node30" class="node"><title>Node30</title>
<g id="a_node30"><a xlink:href="../../de/ded/classmodel_1_1_pen.html#a704af31474b10d17caf40773b7971826" target="_top" xlink:title="model.Pen.getPenColor">
<polygon fill="white" stroke="black" points="904.5,-76.5 904.5,-95.5 1033.5,-95.5 1033.5,-76.5 904.5,-76.5"/>
<text text-anchor="middle" x="969" y="-83.5" font-family="Helvetica,sans-Serif" font-size="10.00">model.Pen.getPenColor</text>
</a>
</g>
</g>
<!-- Node29&#45;&gt;Node30 -->
<g id="edge32" class="edge"><title>Node29&#45;&gt;Node30</title>
<path fill="none" stroke="midnightblue" d="M836.65,-86C855.179,-86 875.356,-86 894.21,-86"/>
<polygon fill="midnightblue" stroke="midnightblue" points="894.23,-89.5001 904.23,-86 894.23,-82.5001 894.23,-89.5001"/>
</g>
</g>
</svg>
