<?xml version="1.0" encoding="UTF-8" standalone="no"?>
<!DOCTYPE svg PUBLIC "-//W3C//DTD SVG 1.1//EN"
 "http://www.w3.org/Graphics/SVG/1.1/DTD/svg11.dtd">
<!-- Generated by graphviz version 2.36.0 (20140111.2315)
 -->
<!-- Title: view.panes.ViewPaneModule.changeGridVisibility Pages: 1 -->
<svg width="880pt" height="38pt"
 viewBox="0.00 0.00 880.00 38.00" xmlns="http://www.w3.org/2000/svg" xmlns:xlink="http://www.w3.org/1999/xlink">
<g id="graph0" class="graph" transform="scale(1 1) rotate(0) translate(4 34)">
<title>view.panes.ViewPaneModule.changeGridVisibility</title>
<polygon fill="white" stroke="none" points="-4,4 -4,-34 876,-34 876,4 -4,4"/>
<!-- Node1 -->
<g id="node1" class="node"><title>Node1</title>
<polygon fill="#bfbfbf" stroke="black" points="0.5,-0 0.5,-30 189.5,-30 189.5,-0 0.5,-0"/>
<text text-anchor="start" x="8.5" y="-18" font-family="Helvetica,sans-Serif" font-size="10.00">view.panes.ViewPaneModule.change</text>
<text text-anchor="middle" x="95" y="-7" font-family="Helvetica,sans-Serif" font-size="10.00">GridVisibility</text>
</g>
<!-- Node2 -->
<g id="node2" class="node"><title>Node2</title>
<g id="a_node2"><a xlink:href="../../d0/d18/classview_1_1panes_1_1_button_pane_module.html#a586a2a6d5f1fd895ac7c5c8c106b08d0" target="_top" xlink:title="view.panes.ButtonPaneModule.toggleGrid">
<polygon fill="white" stroke="black" points="226,-5.5 226,-24.5 440,-24.5 440,-5.5 226,-5.5"/>
<text text-anchor="middle" x="333" y="-12.5" font-family="Helvetica,sans-Serif" font-size="10.00">view.panes.ButtonPaneModule.toggleGrid</text>
</a>
</g>
</g>
<!-- Node1&#45;&gt;Node2 -->
<g id="edge1" class="edge"><title>Node1&#45;&gt;Node2</title>
<path fill="none" stroke="midnightblue" d="M199.672,-15C208.292,-15 217.014,-15 225.653,-15"/>
<polygon fill="midnightblue" stroke="midnightblue" points="199.612,-11.5001 189.612,-15 199.612,-18.5001 199.612,-11.5001"/>
</g>
<!-- Node3 -->
<g id="node3" class="node"><title>Node3</title>
<g id="a_node3"><a xlink:href="../../d0/d18/classview_1_1panes_1_1_button_pane_module.html#a5d69a336ac95020bfde0507bb018790d" target="_top" xlink:title="view.panes.ButtonPaneModule.create\lPropertiesMenu">
<polygon fill="white" stroke="black" points="476.5,-0 476.5,-30 671.5,-30 671.5,-0 476.5,-0"/>
<text text-anchor="start" x="484.5" y="-18" font-family="Helvetica,sans-Serif" font-size="10.00">view.panes.ButtonPaneModule.create</text>
<text text-anchor="middle" x="574" y="-7" font-family="Helvetica,sans-Serif" font-size="10.00">PropertiesMenu</text>
</a>
</g>
</g>
<!-- Node2&#45;&gt;Node3 -->
<g id="edge2" class="edge"><title>Node2&#45;&gt;Node3</title>
<path fill="none" stroke="midnightblue" d="M450.351,-15C458.998,-15 467.667,-15 476.177,-15"/>
<polygon fill="midnightblue" stroke="midnightblue" points="450.221,-11.5001 440.221,-15 450.221,-18.5001 450.221,-11.5001"/>
</g>
<!-- Node4 -->
<g id="node4" class="node"><title>Node4</title>
<g id="a_node4"><a xlink:href="../../d0/d18/classview_1_1panes_1_1_button_pane_module.html#aa101ed48e3d2a504329a82dc7bea4795" target="_top" xlink:title="view.panes.ButtonPaneModule.\lButtonPaneModule">
<polygon fill="white" stroke="black" points="708,-0 708,-30 872,-30 872,-0 708,-0"/>
<text text-anchor="start" x="716" y="-18" font-family="Helvetica,sans-Serif" font-size="10.00">view.panes.ButtonPaneModule.</text>
<text text-anchor="middle" x="790" y="-7" font-family="Helvetica,sans-Serif" font-size="10.00">ButtonPaneModule</text>
</a>
</g>
</g>
<!-- Node3&#45;&gt;Node4 -->
<g id="edge3" class="edge"><title>Node3&#45;&gt;Node4</title>
<path fill="none" stroke="midnightblue" d="M681.885,-15C690.599,-15 699.314,-15 707.798,-15"/>
<polygon fill="midnightblue" stroke="midnightblue" points="681.67,-11.5001 671.67,-15 681.67,-18.5001 681.67,-11.5001"/>
</g>
</g>
</svg>
