<?xml version="1.0" encoding="UTF-8" standalone="no"?>
<!DOCTYPE svg PUBLIC "-//W3C//DTD SVG 1.1//EN"
 "http://www.w3.org/Graphics/SVG/1.1/DTD/svg11.dtd">
<!-- Generated by graphviz version 2.36.0 (20140111.2315)
 -->
<!-- Title: view.panes.ViewPaneModule Pages: 1 -->
<svg width="1200pt" height="590pt"
 viewBox="0.00 0.00 1200.00 590.00" xmlns="http://www.w3.org/2000/svg" xmlns:xlink="http://www.w3.org/1999/xlink">
<g id="graph0" class="graph" transform="scale(1 1) rotate(0) translate(4 586)">
<title>view.panes.ViewPaneModule</title>
<polygon fill="white" stroke="none" points="-4,4 -4,-586 1196,-586 1196,4 -4,4"/>
<!-- Node1 -->
<g id="node1" class="node"><title>Node1</title>
<polygon fill="#bfbfbf" stroke="black" points="826.5,-303.5 826.5,-322.5 977.5,-322.5 977.5,-303.5 826.5,-303.5"/>
<text text-anchor="middle" x="902" y="-310.5" font-family="Helvetica,sans-Serif" font-size="10.00">view.panes.ViewPaneModule</text>
</g>
<!-- Node3 -->
<g id="node3" class="node"><title>Node3</title>
<g id="a_node3"><a xlink:href="../../d3/d42/classmodel_1_1_model.html" target="_top" xlink:title="model.Model">
<polygon fill="white" stroke="black" points="1114,-173.5 1114,-192.5 1192,-192.5 1192,-173.5 1114,-173.5"/>
<text text-anchor="middle" x="1153" y="-180.5" font-family="Helvetica,sans-Serif" font-size="10.00">model.Model</text>
</a>
</g>
</g>
<!-- Node1&#45;&gt;Node3 -->
<g id="edge7" class="edge"><title>Node1&#45;&gt;Node3</title>
<path fill="none" stroke="#9a32cd" stroke-dasharray="5,2" d="M913.912,-294.452C929.075,-270.488 958.886,-229.428 996,-209 1032.56,-188.876 1080.7,-183.483 1113.78,-182.423"/>
<polygon fill="#9a32cd" stroke="#9a32cd" points="910.74,-292.93 908.498,-303.285 916.708,-296.588 910.74,-292.93"/>
<text text-anchor="middle" x="1046" y="-212" font-family="Helvetica,sans-Serif" font-size="10.00"> myView</text>
</g>
<!-- Node2 -->
<g id="node2" class="node"><title>Node2</title>
<g id="a_node2"><a xlink:href="../../df/dd6/classview_1_1panes_1_1_pane_module.html" target="_top" xlink:title="view.panes.PaneModule">
<polygon fill="white" stroke="black" points="551.5,-531.5 551.5,-550.5 680.5,-550.5 680.5,-531.5 551.5,-531.5"/>
<text text-anchor="middle" x="616" y="-538.5" font-family="Helvetica,sans-Serif" font-size="10.00">view.panes.PaneModule</text>
</a>
</g>
</g>
<!-- Node2&#45;&gt;Node1 -->
<g id="edge1" class="edge"><title>Node2&#45;&gt;Node1</title>
<path fill="none" stroke="midnightblue" d="M690.964,-542.398C729.31,-539.583 774.91,-530.313 808,-505 870.954,-456.843 893.644,-355.03 899.395,-322.919"/>
<polygon fill="midnightblue" stroke="midnightblue" points="690.644,-538.91 680.872,-543.004 691.064,-545.898 690.644,-538.91"/>
</g>
<!-- Node3&#45;&gt;Node1 -->
<g id="edge2" class="edge"><title>Node3&#45;&gt;Node1</title>
<path fill="none" stroke="#9a32cd" stroke-dasharray="5,2" d="M1132.41,-198.836C1121.95,-206.901 1108.66,-216.55 1096,-224 1038.29,-257.973 965.396,-288.51 927.859,-303.406"/>
<polygon fill="#9a32cd" stroke="#9a32cd" points="1134.76,-201.446 1140.46,-192.516 1130.43,-195.942 1134.76,-201.446"/>
<text text-anchor="middle" x="1046" y="-277" font-family="Helvetica,sans-Serif" font-size="10.00"> myModel</text>
</g>
<!-- Node4 -->
<g id="node4" class="node"><title>Node4</title>
<polygon fill="white" stroke="#bfbfbf" points="559,-148.5 559,-167.5 673,-167.5 673,-148.5 559,-148.5"/>
<text text-anchor="middle" x="616" y="-155.5" font-family="Helvetica,sans-Serif" font-size="10.00">Set&lt; model.Turtle &gt;</text>
</g>
<!-- Node4&#45;&gt;Node1 -->
<g id="edge12" class="edge"><title>Node4&#45;&gt;Node1</title>
<path fill="none" stroke="#9a32cd" stroke-dasharray="5,2" d="M683.291,-165.059C729.843,-170.96 787.337,-180.435 808,-193 853.716,-220.801 885.408,-279.967 896.571,-303.274"/>
<polygon fill="#9a32cd" stroke="#9a32cd" points="683.593,-161.57 673.24,-163.818 682.735,-168.517 683.593,-161.57"/>
<text text-anchor="middle" x="762" y="-207" font-family="Helvetica,sans-Serif" font-size="10.00"> myTurtles</text>
<text text-anchor="middle" x="762" y="-196" font-family="Helvetica,sans-Serif" font-size="10.00">myActiveTurtles</text>
</g>
<!-- Node4&#45;&gt;Node3 -->
<g id="edge3" class="edge"><title>Node4&#45;&gt;Node3</title>
<path fill="none" stroke="#9a32cd" stroke-dasharray="5,2" d="M683.098,-160.876C775.503,-164.934 948.542,-172.664 1096,-180 1101.74,-180.285 1107.8,-180.599 1113.74,-180.912"/>
<polygon fill="#9a32cd" stroke="#9a32cd" points="683.196,-157.377 673.052,-160.436 682.889,-164.371 683.196,-157.377"/>
<text text-anchor="middle" x="902" y="-177" font-family="Helvetica,sans-Serif" font-size="10.00"> myFullSet</text>
</g>
<!-- Node8 -->
<g id="node8" class="node"><title>Node8</title>
<g id="a_node8"><a xlink:href="../../df/d50/classmodel_1_1_turtle_set_manager.html" target="_top" xlink:title="model.TurtleSetManager">
<polygon fill="white" stroke="black" points="835,-102.5 835,-121.5 969,-121.5 969,-102.5 835,-102.5"/>
<text text-anchor="middle" x="902" y="-109.5" font-family="Helvetica,sans-Serif" font-size="10.00">model.TurtleSetManager</text>
</a>
</g>
</g>
<!-- Node4&#45;&gt;Node8 -->
<g id="edge9" class="edge"><title>Node4&#45;&gt;Node8</title>
<path fill="none" stroke="#9a32cd" stroke-dasharray="5,2" d="M660.015,-145.799C677.3,-141.248 697.485,-136.373 716,-133 755.115,-125.874 799.35,-120.748 834.756,-117.345"/>
<polygon fill="#9a32cd" stroke="#9a32cd" points="658.961,-142.458 650.208,-148.427 660.773,-149.219 658.961,-142.458"/>
<text text-anchor="middle" x="762" y="-136" font-family="Helvetica,sans-Serif" font-size="10.00"> mySet</text>
</g>
<!-- Node5 -->
<g id="node5" class="node"><title>Node5</title>
<g id="a_node5"><a xlink:href="../../d3/d62/classmodel_1_1_variable_manager.html" target="_top" xlink:title="model.VariableManager">
<polygon fill="white" stroke="black" points="837,-44.5 837,-63.5 967,-63.5 967,-44.5 837,-44.5"/>
<text text-anchor="middle" x="902" y="-51.5" font-family="Helvetica,sans-Serif" font-size="10.00">model.VariableManager</text>
</a>
</g>
</g>
<!-- Node5&#45;&gt;Node3 -->
<g id="edge4" class="edge"><title>Node5&#45;&gt;Node3</title>
<path fill="none" stroke="#9a32cd" stroke-dasharray="5,2" d="M977.513,-56.8109C1015.78,-61.3993 1061.47,-72.0442 1096,-96 1124.48,-115.763 1141.85,-155.176 1148.67,-173.377"/>
<polygon fill="#9a32cd" stroke="#9a32cd" points="977.766,-53.3179 967.447,-55.7208 977.012,-60.2772 977.766,-53.3179"/>
<text text-anchor="middle" x="1046" y="-99" font-family="Helvetica,sans-Serif" font-size="10.00"> myVariableManager</text>
</g>
<!-- Node6 -->
<g id="node6" class="node"><title>Node6</title>
<polygon fill="white" stroke="#bfbfbf" points="557,-39 557,-69 675,-69 675,-39 557,-39"/>
<text text-anchor="start" x="565" y="-57" font-family="Helvetica,sans-Serif" font-size="10.00">Stack&lt; Map&lt; String,</text>
<text text-anchor="middle" x="616" y="-46" font-family="Helvetica,sans-Serif" font-size="10.00"> Double &gt; &gt;</text>
</g>
<!-- Node6&#45;&gt;Node5 -->
<g id="edge5" class="edge"><title>Node6&#45;&gt;Node5</title>
<path fill="none" stroke="#9a32cd" stroke-dasharray="5,2" d="M685.355,-54C731.441,-54 791.837,-54 836.985,-54"/>
<polygon fill="#9a32cd" stroke="#9a32cd" points="685.157,-50.5001 675.157,-54 685.157,-57.5001 685.157,-50.5001"/>
<text text-anchor="middle" x="762" y="-57" font-family="Helvetica,sans-Serif" font-size="10.00"> myLocalVariables</text>
</g>
<!-- Node7 -->
<g id="node7" class="node"><title>Node7</title>
<polygon fill="white" stroke="#bfbfbf" points="552,-0.5 552,-19.5 680,-19.5 680,-0.5 552,-0.5"/>
<text text-anchor="middle" x="616" y="-7.5" font-family="Helvetica,sans-Serif" font-size="10.00">Map&lt; String, Double &gt;</text>
</g>
<!-- Node7&#45;&gt;Node5 -->
<g id="edge6" class="edge"><title>Node7&#45;&gt;Node5</title>
<path fill="none" stroke="#9a32cd" stroke-dasharray="5,2" d="M690.532,-21.0024C726.037,-26.3564 769.246,-32.9327 808,-39 819.149,-40.7454 831.044,-42.6397 842.473,-44.4757"/>
<polygon fill="#9a32cd" stroke="#9a32cd" points="690.664,-17.483 680.254,-19.4544 689.622,-24.4049 690.664,-17.483"/>
<text text-anchor="middle" x="762" y="-42" font-family="Helvetica,sans-Serif" font-size="10.00"> myGlobalVariables</text>
</g>
<!-- Node8&#45;&gt;Node3 -->
<g id="edge8" class="edge"><title>Node8&#45;&gt;Node3</title>
<path fill="none" stroke="#9a32cd" stroke-dasharray="5,2" d="M979.188,-109.637C1015.88,-111.116 1059.69,-116.845 1096,-133 1116.48,-142.113 1134.72,-161.551 1144.48,-173.326"/>
<polygon fill="#9a32cd" stroke="#9a32cd" points="979.141,-106.134 969.039,-109.328 978.928,-113.131 979.141,-106.134"/>
<text text-anchor="middle" x="1046" y="-136" font-family="Helvetica,sans-Serif" font-size="10.00"> myTurtleManager</text>
</g>
<!-- Node9 -->
<g id="node9" class="node"><title>Node9</title>
<polygon fill="white" stroke="#bfbfbf" points="534,-88.5 534,-107.5 698,-107.5 698,-88.5 534,-88.5"/>
<text text-anchor="middle" x="616" y="-95.5" font-family="Helvetica,sans-Serif" font-size="10.00">Stack&lt; Set&lt; model.Turtle &gt; &gt;</text>
</g>
<!-- Node9&#45;&gt;Node8 -->
<g id="edge10" class="edge"><title>Node9&#45;&gt;Node8</title>
<path fill="none" stroke="#9a32cd" stroke-dasharray="5,2" d="M708.512,-95.9987C740.07,-95.9667 775.619,-96.6626 808,-99 818.895,-99.7864 830.457,-101.052 841.591,-102.491"/>
<polygon fill="#9a32cd" stroke="#9a32cd" points="708.403,-92.499 698.415,-96.0335 708.427,-99.4989 708.403,-92.499"/>
<text text-anchor="middle" x="762" y="-102" font-family="Helvetica,sans-Serif" font-size="10.00"> myStack</text>
</g>
<!-- Node10 -->
<g id="node10" class="node"><title>Node10</title>
<polygon fill="white" stroke="#bfbfbf" points="317.5,-481.5 317.5,-500.5 358.5,-500.5 358.5,-481.5 317.5,-481.5"/>
<text text-anchor="middle" x="338" y="-488.5" font-family="Helvetica,sans-Serif" font-size="10.00">Color</text>
</g>
<!-- Node10&#45;&gt;Node1 -->
<g id="edge28" class="edge"><title>Node10&#45;&gt;Node1</title>
<path fill="none" stroke="#9a32cd" stroke-dasharray="5,2" d="M368.743,-492.023C459.88,-494.641 733.577,-498.529 808,-454 860.341,-422.683 889.022,-349.174 897.938,-322.709"/>
<polygon fill="#9a32cd" stroke="#9a32cd" points="368.661,-488.519 358.56,-491.713 368.449,-495.515 368.661,-488.519"/>
<text text-anchor="middle" x="616" y="-507" font-family="Helvetica,sans-Serif" font-size="10.00"> defColor</text>
<text text-anchor="middle" x="616" y="-496" font-family="Helvetica,sans-Serif" font-size="10.00">myBackColor</text>
</g>
<!-- Node10&#45;&gt;Node3 -->
<g id="edge11" class="edge"><title>Node10&#45;&gt;Node3</title>
<path fill="none" stroke="#9a32cd" stroke-dasharray="5,2" d="M367.869,-504.73C405.214,-521.66 472.757,-549.484 534,-560 654.443,-580.681 698.417,-591.091 808,-537 959.47,-462.234 990.714,-421.09 1096,-289 1121.3,-257.263 1140.55,-212.372 1148.29,-192.781"/>
<polygon fill="#9a32cd" stroke="#9a32cd" points="369.155,-501.469 358.607,-500.472 366.231,-507.829 369.155,-501.469"/>
<text text-anchor="middle" x="762" y="-574" font-family="Helvetica,sans-Serif" font-size="10.00"> myBackground</text>
</g>
<!-- Node21 -->
<g id="node21" class="node"><title>Node21</title>
<g id="a_node21"><a xlink:href="../../d7/da6/classview_1_1_turtle_draw.html" target="_top" xlink:title="view.TurtleDraw">
<polygon fill="white" stroke="black" points="571.5,-198.5 571.5,-217.5 660.5,-217.5 660.5,-198.5 571.5,-198.5"/>
<text text-anchor="middle" x="616" y="-205.5" font-family="Helvetica,sans-Serif" font-size="10.00">view.TurtleDraw</text>
</a>
</g>
</g>
<!-- Node10&#45;&gt;Node21 -->
<g id="edge27" class="edge"><title>Node10&#45;&gt;Node21</title>
<path fill="none" stroke="#9a32cd" stroke-dasharray="5,2" d="M347.861,-472.064C371.215,-424.25 439.23,-297.779 534,-232 544.964,-224.39 558.369,-219.157 571.093,-215.574"/>
<polygon fill="#9a32cd" stroke="#9a32cd" points="344.618,-470.734 343.449,-481.264 350.929,-473.761 344.618,-470.734"/>
<text text-anchor="middle" x="475" y="-335" font-family="Helvetica,sans-Serif" font-size="10.00"> myLineColor</text>
</g>
<!-- Node11 -->
<g id="node11" class="node"><title>Node11</title>
<polygon fill="white" stroke="#bfbfbf" points="596,-435.5 596,-454.5 636,-454.5 636,-435.5 596,-435.5"/>
<text text-anchor="middle" x="616" y="-442.5" font-family="Helvetica,sans-Serif" font-size="10.00">Pane</text>
</g>
<!-- Node11&#45;&gt;Node1 -->
<g id="edge13" class="edge"><title>Node11&#45;&gt;Node1</title>
<path fill="none" stroke="#9a32cd" stroke-dasharray="5,2" d="M646.327,-445.113C685.472,-444.087 755.905,-438.045 808,-410 848.468,-388.214 881.726,-342.517 894.906,-322.61"/>
<polygon fill="#9a32cd" stroke="#9a32cd" points="646.097,-441.617 636.158,-445.284 646.215,-448.616 646.097,-441.617"/>
<text text-anchor="middle" x="762" y="-442" font-family="Helvetica,sans-Serif" font-size="10.00"> myPane</text>
</g>
<!-- Node12 -->
<g id="node12" class="node"><title>Node12</title>
<polygon fill="white" stroke="#bfbfbf" points="562.5,-397.5 562.5,-416.5 669.5,-416.5 669.5,-397.5 562.5,-397.5"/>
<text text-anchor="middle" x="616" y="-404.5" font-family="Helvetica,sans-Serif" font-size="10.00">List&lt; ImageView &gt;</text>
</g>
<!-- Node12&#45;&gt;Node1 -->
<g id="edge14" class="edge"><title>Node12&#45;&gt;Node1</title>
<path fill="none" stroke="#9a32cd" stroke-dasharray="5,2" d="M679.453,-401.155C717.568,-396.153 766.734,-387.099 808,-371 839.377,-358.759 871.824,-335.719 888.861,-322.664"/>
<polygon fill="#9a32cd" stroke="#9a32cd" points="679.001,-397.684 669.514,-402.401 679.871,-404.63 679.001,-397.684"/>
<text text-anchor="middle" x="762" y="-398" font-family="Helvetica,sans-Serif" font-size="10.00"> myStamps</text>
</g>
<!-- Node13 -->
<g id="node13" class="node"><title>Node13</title>
<polygon fill="white" stroke="#bfbfbf" points="578.5,-359.5 578.5,-378.5 653.5,-378.5 653.5,-359.5 578.5,-359.5"/>
<text text-anchor="middle" x="616" y="-366.5" font-family="Helvetica,sans-Serif" font-size="10.00">List&lt; Line &gt;</text>
</g>
<!-- Node13&#45;&gt;Node1 -->
<g id="edge15" class="edge"><title>Node13&#45;&gt;Node1</title>
<path fill="none" stroke="#9a32cd" stroke-dasharray="5,2" d="M663.497,-363.682C702.368,-358.821 759.138,-350.753 808,-340 829.674,-335.23 853.722,-328.201 871.934,-322.51"/>
<polygon fill="#9a32cd" stroke="#9a32cd" points="663.021,-360.214 653.523,-364.908 663.876,-367.162 663.021,-360.214"/>
<text text-anchor="middle" x="762" y="-359" font-family="Helvetica,sans-Serif" font-size="10.00"> myGrid</text>
</g>
<!-- Node14 -->
<g id="node14" class="node"><title>Node14</title>
<polygon fill="white" stroke="#bfbfbf" points="589,-321.5 589,-340.5 643,-340.5 643,-321.5 589,-321.5"/>
<text text-anchor="middle" x="616" y="-328.5" font-family="Helvetica,sans-Serif" font-size="10.00">Point2D</text>
</g>
<!-- Node14&#45;&gt;Node1 -->
<g id="edge16" class="edge"><title>Node14&#45;&gt;Node1</title>
<path fill="none" stroke="#9a32cd" stroke-dasharray="5,2" d="M653.314,-328.698C696.785,-325.943 770.701,-321.258 826.498,-317.722"/>
<polygon fill="#9a32cd" stroke="#9a32cd" points="652.968,-325.213 643.209,-329.339 653.41,-332.199 652.968,-325.213"/>
<text text-anchor="middle" x="762" y="-328" font-family="Helvetica,sans-Serif" font-size="10.00"> myCurrentPoint</text>
</g>
<!-- Node15 -->
<g id="node15" class="node"><title>Node15</title>
<polygon fill="white" stroke="#bfbfbf" points="540.5,-283.5 540.5,-302.5 691.5,-302.5 691.5,-283.5 540.5,-283.5"/>
<text text-anchor="middle" x="616" y="-290.5" font-family="Helvetica,sans-Serif" font-size="10.00">Map&lt; Integer, ImageView &gt;</text>
</g>
<!-- Node15&#45;&gt;Node1 -->
<g id="edge17" class="edge"><title>Node15&#45;&gt;Node1</title>
<path fill="none" stroke="#9a32cd" stroke-dasharray="5,2" d="M701.962,-297.917C735.067,-299.943 773.319,-302.419 808,-305 813.979,-305.445 820.173,-305.928 826.394,-306.43"/>
<polygon fill="#9a32cd" stroke="#9a32cd" points="702.057,-294.416 691.863,-297.303 701.633,-301.403 702.057,-294.416"/>
<text text-anchor="middle" x="762" y="-308" font-family="Helvetica,sans-Serif" font-size="10.00"> myIcons</text>
</g>
<!-- Node16 -->
<g id="node16" class="node"><title>Node16</title>
<g id="a_node16"><a xlink:href="../../d3/db7/classview_1_1controllers_1_1_image_palette.html" target="_top" xlink:title="view.controllers.ImagePalette">
<polygon fill="white" stroke="black" points="260.5,-233.5 260.5,-252.5 415.5,-252.5 415.5,-233.5 260.5,-233.5"/>
<text text-anchor="middle" x="338" y="-240.5" font-family="Helvetica,sans-Serif" font-size="10.00">view.controllers.ImagePalette</text>
</a>
</g>
</g>
<!-- Node16&#45;&gt;Node1 -->
<g id="edge18" class="edge"><title>Node16&#45;&gt;Node1</title>
<path fill="none" stroke="#9a32cd" stroke-dasharray="5,2" d="M425.824,-243.332C498.819,-244.687 605.724,-249.188 698,-263 759.921,-272.268 830.565,-291.748 870.061,-303.47"/>
<polygon fill="#9a32cd" stroke="#9a32cd" points="425.812,-239.832 415.754,-243.162 425.694,-246.831 425.812,-239.832"/>
<text text-anchor="middle" x="616" y="-266" font-family="Helvetica,sans-Serif" font-size="10.00"> myImagePalette</text>
</g>
<!-- Node16&#45;&gt;Node21 -->
<g id="edge25" class="edge"><title>Node16&#45;&gt;Node21</title>
<path fill="none" stroke="#9a32cd" stroke-dasharray="5,2" d="M411.938,-232.018C419.385,-230.967 426.841,-229.943 434,-229 480.889,-222.826 534.741,-216.702 571.432,-212.674"/>
<polygon fill="#9a32cd" stroke="#9a32cd" points="411.221,-228.585 401.816,-233.464 412.211,-235.515 411.221,-228.585"/>
<text text-anchor="middle" x="475" y="-232" font-family="Helvetica,sans-Serif" font-size="10.00"> myImagePalette</text>
</g>
<!-- Node17 -->
<g id="node17" class="node"><title>Node17</title>
<polygon fill="white" stroke="#bfbfbf" points="10,-290.5 10,-309.5 128,-309.5 128,-290.5 10,-290.5"/>
<text text-anchor="middle" x="69" y="-297.5" font-family="Helvetica,sans-Serif" font-size="10.00">ChoiceBox&lt; String &gt;</text>
</g>
<!-- Node17&#45;&gt;Node16 -->
<g id="edge19" class="edge"><title>Node17&#45;&gt;Node16</title>
<path fill="none" stroke="#9a32cd" stroke-dasharray="5,2" d="M138.134,-290.432C169.879,-285.485 208.053,-278.835 242,-271 264.283,-265.857 289.054,-258.5 307.714,-252.618"/>
<polygon fill="#9a32cd" stroke="#9a32cd" points="137.42,-287.001 128.067,-291.978 138.482,-293.92 137.42,-287.001"/>
<text text-anchor="middle" x="199" y="-291" font-family="Helvetica,sans-Serif" font-size="10.00"> myChoiceImages</text>
</g>
<!-- Node18 -->
<g id="node18" class="node"><title>Node18</title>
<polygon fill="white" stroke="#bfbfbf" points="27,-252.5 27,-271.5 111,-271.5 111,-252.5 27,-252.5"/>
<text text-anchor="middle" x="69" y="-259.5" font-family="Helvetica,sans-Serif" font-size="10.00">List&lt; String &gt;</text>
</g>
<!-- Node18&#45;&gt;Node16 -->
<g id="edge20" class="edge"><title>Node18&#45;&gt;Node16</title>
<path fill="none" stroke="#9a32cd" stroke-dasharray="5,2" d="M121.301,-258.349C160.693,-255.546 215.717,-251.631 260.331,-248.456"/>
<polygon fill="#9a32cd" stroke="#9a32cd" points="120.86,-254.872 111.134,-259.073 121.357,-261.854 120.86,-254.872"/>
<text text-anchor="middle" x="199" y="-259" font-family="Helvetica,sans-Serif" font-size="10.00"> myChoices</text>
</g>
<!-- Node19 -->
<g id="node19" class="node"><title>Node19</title>
<polygon fill="white" stroke="#bfbfbf" points="5,-214.5 5,-233.5 133,-233.5 133,-214.5 5,-214.5"/>
<text text-anchor="middle" x="69" y="-221.5" font-family="Helvetica,sans-Serif" font-size="10.00">Map&lt; Integer, String &gt;</text>
</g>
<!-- Node19&#45;&gt;Node16 -->
<g id="edge21" class="edge"><title>Node19&#45;&gt;Node16</title>
<path fill="none" stroke="#9a32cd" stroke-dasharray="5,2" d="M143.439,-229.06C173.931,-231.178 209.676,-233.682 242,-236 247.938,-236.426 254.085,-236.87 260.264,-237.32"/>
<polygon fill="#9a32cd" stroke="#9a32cd" points="143.53,-225.558 133.312,-228.358 143.046,-232.542 143.53,-225.558"/>
<text text-anchor="middle" x="199" y="-239" font-family="Helvetica,sans-Serif" font-size="10.00"> myImages</text>
</g>
<!-- Node20 -->
<g id="node20" class="node"><title>Node20</title>
<polygon fill="white" stroke="#bfbfbf" points="0,-176.5 0,-195.5 138,-195.5 138,-176.5 0,-176.5"/>
<text text-anchor="middle" x="69" y="-183.5" font-family="Helvetica,sans-Serif" font-size="10.00">ObservableList&lt; String &gt;</text>
</g>
<!-- Node20&#45;&gt;Node16 -->
<g id="edge22" class="edge"><title>Node20&#45;&gt;Node16</title>
<path fill="none" stroke="#9a32cd" stroke-dasharray="5,2" d="M144.152,-197.196C174.612,-202.246 210.142,-208.715 242,-216 263.729,-220.969 287.888,-227.854 306.405,-233.427"/>
<polygon fill="#9a32cd" stroke="#9a32cd" points="144.464,-193.701 134.029,-195.539 143.333,-200.609 144.464,-193.701"/>
<text text-anchor="middle" x="199" y="-219" font-family="Helvetica,sans-Serif" font-size="10.00"> myObservable</text>
</g>
<!-- Node21&#45;&gt;Node1 -->
<g id="edge23" class="edge"><title>Node21&#45;&gt;Node1</title>
<path fill="none" stroke="#9a32cd" stroke-dasharray="5,2" d="M671.101,-212.998C718.745,-217.981 784.154,-226.411 808,-237 844.018,-252.994 877.543,-286.797 892.625,-303.394"/>
<polygon fill="#9a32cd" stroke="#9a32cd" points="671.228,-209.492 660.923,-211.957 670.515,-216.456 671.228,-209.492"/>
<text text-anchor="middle" x="762" y="-240" font-family="Helvetica,sans-Serif" font-size="10.00"> myDraw</text>
</g>
<!-- Node22 -->
<g id="node22" class="node"><title>Node22</title>
<polygon fill="white" stroke="#bfbfbf" points="320,-146.5 320,-165.5 356,-165.5 356,-146.5 320,-146.5"/>
<text text-anchor="middle" x="338" y="-153.5" font-family="Helvetica,sans-Serif" font-size="10.00">Line</text>
</g>
<!-- Node22&#45;&gt;Node21 -->
<g id="edge24" class="edge"><title>Node22&#45;&gt;Node21</title>
<path fill="none" stroke="#9a32cd" stroke-dasharray="5,2" d="M366.623,-157.966C401.657,-160.794 463.792,-166.93 516,-178 540.772,-183.253 568.289,-191.82 588.012,-198.457"/>
<polygon fill="#9a32cd" stroke="#9a32cd" points="366.489,-154.445 356.248,-157.162 365.948,-161.424 366.489,-154.445"/>
<text text-anchor="middle" x="475" y="-181" font-family="Helvetica,sans-Serif" font-size="10.00"> myPath</text>
</g>
<!-- Node23 -->
<g id="node23" class="node"><title>Node23</title>
<polygon fill="white" stroke="#bfbfbf" points="322,-184.5 322,-203.5 354,-203.5 354,-184.5 322,-184.5"/>
<text text-anchor="middle" x="338" y="-191.5" font-family="Helvetica,sans-Serif" font-size="10.00">File</text>
</g>
<!-- Node23&#45;&gt;Node21 -->
<g id="edge26" class="edge"><title>Node23&#45;&gt;Node21</title>
<path fill="none" stroke="#9a32cd" stroke-dasharray="5,2" d="M364.269,-193.153C398.647,-192.226 462.054,-191.32 516,-195 534.16,-196.239 554.077,-198.648 571.256,-201.06"/>
<polygon fill="#9a32cd" stroke="#9a32cd" points="364.07,-189.657 354.177,-193.449 364.275,-196.654 364.07,-189.657"/>
<text text-anchor="middle" x="475" y="-198" font-family="Helvetica,sans-Serif" font-size="10.00"> myImage</text>
</g>
</g>
</svg>
