<?xml version="1.0" encoding="UTF-8" standalone="no"?>
<!DOCTYPE svg PUBLIC "-//W3C//DTD SVG 1.1//EN"
 "http://www.w3.org/Graphics/SVG/1.1/DTD/svg11.dtd">
<!-- Generated by graphviz version 2.36.0 (20140111.2315)
 -->
<!-- Title: commands.ForCommand.executeCommand Pages: 1 -->
<!--zoomable 523 -->
<svg id="main" version="1.1" xmlns="http://www.w3.org/2000/svg" xmlns:xlink="http://www.w3.org/1999/xlink" xml:space="preserve" onload="init(evt)">
<style type="text/css"><![CDATA[
.edge:hover path { stroke: red; }
.edge:hover polygon { stroke: red; fill: red; }
]]></style>
<script type="text/javascript"><![CDATA[
var edges = document.getElementsByTagName('g');
if (edges && edges.length) {
  for (var i=0;i<edges.length;i++) {
    if (edges[i].id.substr(0,4)=='edge') {
      edges[i].setAttribute('class','edge');
    }
  }
}
]]></script>
        <defs>
                <circle id="rim" cx="0" cy="0" r="7"/>
                <circle id="rim2" cx="0" cy="0" r="3.5"/>
                <g id="zoomPlus">
                        <use xlink:href="#rim" fill="#404040">
                                <set attributeName="fill" to="#808080" begin="zoomplus.mouseover" end="zoomplus.mouseout"/>
                        </use>
                        <path d="M-4,0h8M0,-4v8" fill="none" stroke="white" stroke-width="1.5" pointer-events="none"/>
                </g>
                <g id="zoomMin">
                        <use xlink:href="#rim" fill="#404040">
                                <set attributeName="fill" to="#808080" begin="zoomminus.mouseover" end="zoomminus.mouseout"/>
                        </use>
                        <path d="M-4,0h8" fill="none" stroke="white" stroke-width="1.5" pointer-events="none"/>
                </g>
                <g id="dirArrow">
                        <path fill="none" stroke="white" stroke-width="1.5" d="M0,-3.0v7 M-2.5,-0.5L0,-3.0L2.5,-0.5"/>
                </g>
               <g id="resetDef">
                       <use xlink:href="#rim2" fill="#404040">
                               <set attributeName="fill" to="#808080" begin="reset.mouseover" end="reset.mouseout"/>
                       </use>
               </g>
        </defs>

<script type="text/javascript">
var viewWidth = 1496;
var viewHeight = 523;
var sectionId = 'dynsection-2';
</script>
<script xlink:href="../../svgpan.js"/>
<svg id="graph" class="graph">
<g id="viewport">
<title>commands.ForCommand.executeCommand</title>
<polygon fill="white" stroke="none" points="-4,4 -4,-519 1492,-519 1492,4 -4,4"/>
<!-- Node1 -->
<g id="node1" class="node"><title>Node1</title>
<polygon fill="#bfbfbf" stroke="black" points="0,-362 0,-392 180,-392 180,-362 0,-362"/>
<text text-anchor="start" x="8" y="-380" font-family="Helvetica,sans-Serif" font-size="10.00">commands.ForCommand.execute</text>
<text text-anchor="middle" x="90" y="-369" font-family="Helvetica,sans-Serif" font-size="10.00">Command</text>
</g>
<!-- Node2 -->
<g id="node2" class="node"><title>Node2</title>
<g id="a_node2"><a xlink:href="../../d3/d62/classmodel_1_1_variable_manager.html#a19efdb3af7b3fda114780c2e9275546b" target="_top" xlink:title="model.VariableManager.add\lLocalVariable">
<polygon fill="white" stroke="black" points="230,-485 230,-515 380,-515 380,-485 230,-485"/>
<text text-anchor="start" x="238" y="-503" font-family="Helvetica,sans-Serif" font-size="10.00">model.VariableManager.add</text>
<text text-anchor="middle" x="305" y="-492" font-family="Helvetica,sans-Serif" font-size="10.00">LocalVariable</text>
</a>
</g>
</g>
<!-- Node1&#45;&gt;Node2 -->
<g id="edge1" class="edge"><title>Node1&#45;&gt;Node2</title>
<path fill="none" stroke="midnightblue" d="M106.184,-392.187C128.424,-413.617 172.011,-452.608 216,-475 220.571,-477.327 225.39,-479.465 230.32,-481.424"/>
<polygon fill="midnightblue" stroke="midnightblue" points="229.312,-484.783 239.905,-484.974 231.743,-478.219 229.312,-484.783"/>
</g>
<!-- Node3 -->
<g id="node3" class="node"><title>Node3</title>
<g id="a_node3"><a xlink:href="../../d3/d62/classmodel_1_1_variable_manager.html#ac36ed403ae801b46b19d4e8d9df5a765" target="_top" xlink:title="model.VariableManager.add\lVariableMap">
<polygon fill="white" stroke="black" points="230,-436 230,-466 380,-466 380,-436 230,-436"/>
<text text-anchor="start" x="238" y="-454" font-family="Helvetica,sans-Serif" font-size="10.00">model.VariableManager.add</text>
<text text-anchor="middle" x="305" y="-443" font-family="Helvetica,sans-Serif" font-size="10.00">VariableMap</text>
</a>
</g>
</g>
<!-- Node1&#45;&gt;Node3 -->
<g id="edge2" class="edge"><title>Node1&#45;&gt;Node3</title>
<path fill="none" stroke="midnightblue" d="M126.763,-392.084C151.577,-402.287 185.519,-415.723 216,-426 223.116,-428.399 230.605,-430.765 238.087,-433.028"/>
<polygon fill="midnightblue" stroke="midnightblue" points="237.304,-436.446 247.886,-435.937 239.296,-429.736 237.304,-436.446"/>
</g>
<!-- Node4 -->
<g id="node4" class="node"><title>Node4</title>
<g id="a_node4"><a xlink:href="../../dd/dd6/classcommands_1_1_command.html#abafa69601e87c34d4453cf84349d6f9c" target="_top" xlink:title="commands.Command.execute\lCommand">
<polygon fill="white" stroke="black" points="222.5,-387 222.5,-417 387.5,-417 387.5,-387 222.5,-387"/>
<text text-anchor="start" x="230.5" y="-405" font-family="Helvetica,sans-Serif" font-size="10.00">commands.Command.execute</text>
<text text-anchor="middle" x="305" y="-394" font-family="Helvetica,sans-Serif" font-size="10.00">Command</text>
</a>
</g>
</g>
<!-- Node1&#45;&gt;Node4 -->
<g id="edge3" class="edge"><title>Node1&#45;&gt;Node4</title>
<path fill="none" stroke="midnightblue" d="M180.097,-387.457C190.723,-388.705 201.587,-389.98 212.249,-391.231"/>
<polygon fill="midnightblue" stroke="midnightblue" points="212.056,-394.732 222.396,-392.422 212.872,-387.78 212.056,-394.732"/>
</g>
<!-- Node37 -->
<g id="node37" class="node"><title>Node37</title>
<g id="a_node37"><a xlink:href="../../da/d64/classcommands_1_1_list_command.html#ac28f99906927d1bbc0ffb49624536f0a" target="_top" xlink:title="commands.ListCommand.get\lParameters">
<polygon fill="white" stroke="black" points="225.5,-338 225.5,-368 384.5,-368 384.5,-338 225.5,-338"/>
<text text-anchor="start" x="233.5" y="-356" font-family="Helvetica,sans-Serif" font-size="10.00">commands.ListCommand.get</text>
<text text-anchor="middle" x="305" y="-345" font-family="Helvetica,sans-Serif" font-size="10.00">Parameters</text>
</a>
</g>
</g>
<!-- Node1&#45;&gt;Node37 -->
<g id="edge43" class="edge"><title>Node1&#45;&gt;Node37</title>
<path fill="none" stroke="midnightblue" d="M180.097,-366.961C191.736,-365.65 203.659,-364.306 215.291,-362.995"/>
<polygon fill="midnightblue" stroke="midnightblue" points="215.879,-366.451 225.424,-361.854 215.095,-359.495 215.879,-366.451"/>
</g>
<!-- Node38 -->
<g id="node38" class="node"><title>Node38</title>
<g id="a_node38"><a xlink:href="../../d3/d42/classmodel_1_1_model.html#ac129cb1cf270db69824b85eb0bc528c3" target="_top" xlink:title="model.Model.getVariableManager">
<polygon fill="white" stroke="black" points="216.5,-299.5 216.5,-318.5 393.5,-318.5 393.5,-299.5 216.5,-299.5"/>
<text text-anchor="middle" x="305" y="-306.5" font-family="Helvetica,sans-Serif" font-size="10.00">model.Model.getVariableManager</text>
</a>
</g>
</g>
<!-- Node1&#45;&gt;Node38 -->
<g id="edge44" class="edge"><title>Node1&#45;&gt;Node38</title>
<path fill="none" stroke="midnightblue" d="M126.09,-361.974C150.889,-351.74 185.084,-338.396 216,-329 225.669,-326.061 236.052,-323.334 246.175,-320.898"/>
<polygon fill="midnightblue" stroke="midnightblue" points="247.234,-324.245 256.176,-318.562 245.642,-317.428 247.234,-324.245"/>
</g>
<!-- Node39 -->
<g id="node39" class="node"><title>Node39</title>
<g id="a_node39"><a xlink:href="../../d3/d62/classmodel_1_1_variable_manager.html#a7700aec1336116bd2648dbcf5424d016" target="_top" xlink:title="model.VariableManager.reduce\lVariableScope">
<polygon fill="white" stroke="black" points="222.5,-250 222.5,-280 387.5,-280 387.5,-250 222.5,-250"/>
<text text-anchor="start" x="230.5" y="-268" font-family="Helvetica,sans-Serif" font-size="10.00">model.VariableManager.reduce</text>
<text text-anchor="middle" x="305" y="-257" font-family="Helvetica,sans-Serif" font-size="10.00">VariableScope</text>
</a>
</g>
</g>
<!-- Node1&#45;&gt;Node39 -->
<g id="edge45" class="edge"><title>Node1&#45;&gt;Node39</title>
<path fill="none" stroke="midnightblue" d="M108.863,-361.67C132.11,-342.43 174.662,-309.583 216,-290 220.934,-287.663 226.129,-285.502 231.427,-283.513"/>
<polygon fill="midnightblue" stroke="midnightblue" points="232.777,-286.749 241.04,-280.118 230.445,-280.148 232.777,-286.749"/>
</g>
<!-- Node5 -->
<g id="node5" class="node"><title>Node5</title>
<g id="a_node5"><a xlink:href="../../df/d50/classmodel_1_1_turtle_set_manager.html#a9a65c0be3b9c21abaf0ebaa54e5b8484" target="_top" xlink:title="model.TurtleSetManager.get\lActiveTurtles">
<polygon fill="white" stroke="black" points="916,-450 916,-480 1068,-480 1068,-450 916,-450"/>
<text text-anchor="start" x="924" y="-468" font-family="Helvetica,sans-Serif" font-size="10.00">model.TurtleSetManager.get</text>
<text text-anchor="middle" x="992" y="-457" font-family="Helvetica,sans-Serif" font-size="10.00">ActiveTurtles</text>
</a>
</g>
</g>
<!-- Node4&#45;&gt;Node5 -->
<g id="edge4" class="edge"><title>Node4&#45;&gt;Node5</title>
<path fill="none" stroke="midnightblue" d="M387.593,-415.377C401.71,-417.441 416.262,-419.411 430,-421 598.221,-440.458 795.838,-453.738 905.918,-460.286"/>
<polygon fill="midnightblue" stroke="midnightblue" points="905.779,-463.784 915.968,-460.88 906.191,-456.796 905.779,-463.784"/>
</g>
<!-- Node6 -->
<g id="node6" class="node"><title>Node6</title>
<g id="a_node6"><a xlink:href="../../d3/d42/classmodel_1_1_model.html#a1a683ba5e58fcb3c8882c8e61df20dc0" target="_top" xlink:title="model.Model.getTurtleManager">
<polygon fill="white" stroke="black" points="910,-411.5 910,-430.5 1074,-430.5 1074,-411.5 910,-411.5"/>
<text text-anchor="middle" x="992" y="-418.5" font-family="Helvetica,sans-Serif" font-size="10.00">model.Model.getTurtleManager</text>
</a>
</g>
</g>
<!-- Node4&#45;&gt;Node6 -->
<g id="edge5" class="edge"><title>Node4&#45;&gt;Node6</title>
<path fill="none" stroke="midnightblue" d="M387.607,-404.264C516.226,-407.831 765.248,-414.738 899.662,-418.467"/>
<polygon fill="midnightblue" stroke="midnightblue" points="899.837,-421.973 909.93,-418.751 900.031,-414.975 899.837,-421.973"/>
</g>
<!-- Node7 -->
<g id="node7" class="node"><title>Node7</title>
<g id="a_node7"><a xlink:href="../../d3/d42/classmodel_1_1_model.html#a76160d002c1e68b566307ac44356f6e5" target="_top" xlink:title="model.Model.notifyView">
<polygon fill="white" stroke="black" points="458.5,-373.5 458.5,-392.5 587.5,-392.5 587.5,-373.5 458.5,-373.5"/>
<text text-anchor="middle" x="523" y="-380.5" font-family="Helvetica,sans-Serif" font-size="10.00">model.Model.notifyView</text>
</a>
</g>
</g>
<!-- Node4&#45;&gt;Node7 -->
<g id="edge6" class="edge"><title>Node4&#45;&gt;Node7</title>
<path fill="none" stroke="midnightblue" d="M387.66,-394.817C407.6,-393.063 428.816,-391.197 448.356,-389.478"/>
<polygon fill="midnightblue" stroke="midnightblue" points="448.752,-392.957 458.407,-388.594 448.138,-385.984 448.752,-392.957"/>
</g>
<!-- Node36 -->
<g id="node36" class="node"><title>Node36</title>
<g id="a_node36"><a xlink:href="../../dd/dd6/classcommands_1_1_command.html#aec3e0f888945b1811fd739ecea212324" target="_top" xlink:title="commands.Command.updateTurtle">
<polygon fill="white" stroke="black" points="430,-335.5 430,-354.5 616,-354.5 616,-335.5 430,-335.5"/>
<text text-anchor="middle" x="523" y="-342.5" font-family="Helvetica,sans-Serif" font-size="10.00">commands.Command.updateTurtle</text>
</a>
</g>
</g>
<!-- Node4&#45;&gt;Node36 -->
<g id="edge42" class="edge"><title>Node4&#45;&gt;Node36</title>
<path fill="none" stroke="midnightblue" d="M361.101,-386.984C372.043,-383.823 383.418,-380.409 394,-377 410.192,-371.784 413.628,-368.621 430,-364 439.418,-361.342 449.474,-358.886 459.354,-356.684"/>
<polygon fill="midnightblue" stroke="midnightblue" points="460.108,-360.101 469.143,-354.568 458.629,-353.259 460.108,-360.101"/>
</g>
<!-- Node8 -->
<g id="node8" class="node"><title>Node8</title>
<g id="a_node8"><a xlink:href="../../db/db5/classview_1_1panes_1_1_view_pane_module.html#aa2a1bf15bc036ee4237bf63749d85baf" target="_top" xlink:title="view.panes.ViewPaneModule.updateView">
<polygon fill="white" stroke="black" points="652.5,-244.5 652.5,-263.5 861.5,-263.5 861.5,-244.5 652.5,-244.5"/>
<text text-anchor="middle" x="757" y="-251.5" font-family="Helvetica,sans-Serif" font-size="10.00">view.panes.ViewPaneModule.updateView</text>
</a>
</g>
</g>
<!-- Node7&#45;&gt;Node8 -->
<g id="edge7" class="edge"><title>Node7&#45;&gt;Node8</title>
<path fill="none" stroke="midnightblue" d="M587.601,-373.891C597.356,-371.356 607.125,-368.122 616,-364 666.593,-340.501 715.429,-295.468 739.843,-270.94"/>
<polygon fill="midnightblue" stroke="midnightblue" points="742.387,-273.344 746.882,-263.75 737.385,-268.447 742.387,-273.344"/>
</g>
<!-- Node8&#45;&gt;Node5 -->
<g id="edge12" class="edge"><title>Node8&#45;&gt;Node5</title>
<path fill="none" stroke="midnightblue" d="M762.485,-263.902C777.117,-295.048 826.663,-391.812 898,-440 900.929,-441.978 904.008,-443.801 907.193,-445.479"/>
<polygon fill="midnightblue" stroke="midnightblue" points="905.875,-448.727 916.412,-449.838 908.867,-442.399 905.875,-448.727"/>
</g>
<!-- Node8&#45;&gt;Node6 -->
<g id="edge11" class="edge"><title>Node8&#45;&gt;Node6</title>
<path fill="none" stroke="midnightblue" d="M764.175,-263.786C781.598,-290.518 834.052,-365.162 898,-401 902.862,-403.725 908.059,-406.079 913.417,-408.113"/>
<polygon fill="midnightblue" stroke="midnightblue" points="912.605,-411.533 923.2,-411.438 914.858,-404.906 912.605,-411.533"/>
</g>
<!-- Node9 -->
<g id="node9" class="node"><title>Node9</title>
<g id="a_node9"><a xlink:href="../../d3/d42/classmodel_1_1_model.html#a54936407d7df5ab8ef3c0ae54bcdc0ed" target="_top" xlink:title="model.Model.getBackground\lColor">
<polygon fill="white" stroke="black" points="915,-264 915,-294 1069,-294 1069,-264 915,-264"/>
<text text-anchor="start" x="923" y="-282" font-family="Helvetica,sans-Serif" font-size="10.00">model.Model.getBackground</text>
<text text-anchor="middle" x="992" y="-271" font-family="Helvetica,sans-Serif" font-size="10.00">Color</text>
</a>
</g>
</g>
<!-- Node8&#45;&gt;Node9 -->
<g id="edge8" class="edge"><title>Node8&#45;&gt;Node9</title>
<path fill="none" stroke="midnightblue" d="M846.752,-263.523C865.72,-265.558 885.73,-267.705 904.608,-269.73"/>
<polygon fill="midnightblue" stroke="midnightblue" points="904.348,-273.223 914.664,-270.809 905.095,-266.263 904.348,-273.223"/>
</g>
<!-- Node10 -->
<g id="node10" class="node"><title>Node10</title>
<g id="a_node10"><a xlink:href="../../db/db5/classview_1_1panes_1_1_view_pane_module.html#ac94ee444587349ddad19b8caee500c9c" target="_top" xlink:title="view.panes.ViewPaneModule.update\lBGColor">
<polygon fill="white" stroke="black" points="898,-215 898,-245 1086,-245 1086,-215 898,-215"/>
<text text-anchor="start" x="906" y="-233" font-family="Helvetica,sans-Serif" font-size="10.00">view.panes.ViewPaneModule.update</text>
<text text-anchor="middle" x="992" y="-222" font-family="Helvetica,sans-Serif" font-size="10.00">BGColor</text>
</a>
</g>
</g>
<!-- Node8&#45;&gt;Node10 -->
<g id="edge9" class="edge"><title>Node8&#45;&gt;Node10</title>
<path fill="none" stroke="midnightblue" d="M850.422,-244.48C862.754,-243.21 875.461,-241.901 887.96,-240.614"/>
<polygon fill="midnightblue" stroke="midnightblue" points="888.338,-244.093 897.927,-239.587 887.621,-237.13 888.338,-244.093"/>
</g>
<!-- Node11 -->
<g id="node11" class="node"><title>Node11</title>
<g id="a_node11"><a xlink:href="../../db/db5/classview_1_1panes_1_1_view_pane_module.html#abe91f8bb732e99d762bdaba51ceae04b" target="_top" xlink:title="view.panes.ViewPaneModule.toRGB">
<polygon fill="white" stroke="black" points="900,-176.5 900,-195.5 1084,-195.5 1084,-176.5 900,-176.5"/>
<text text-anchor="middle" x="992" y="-183.5" font-family="Helvetica,sans-Serif" font-size="10.00">view.panes.ViewPaneModule.toRGB</text>
</a>
</g>
</g>
<!-- Node8&#45;&gt;Node11 -->
<g id="edge10" class="edge"><title>Node8&#45;&gt;Node11</title>
<path fill="none" stroke="midnightblue" d="M783.009,-244.42C810.801,-234.011 857.152,-217.352 898,-206 908.721,-203.021 920.24,-200.224 931.395,-197.721"/>
<polygon fill="midnightblue" stroke="midnightblue" points="932.484,-201.065 941.504,-195.507 930.987,-194.227 932.484,-201.065"/>
</g>
<!-- Node12 -->
<g id="node12" class="node"><title>Node12</title>
<g id="a_node12"><a xlink:href="../../df/d50/classmodel_1_1_turtle_set_manager.html#a9e215e93eccbed2ab9ebec6119cfe305" target="_top" xlink:title="model.TurtleSetManager.get\lAllTurtles">
<polygon fill="white" stroke="black" points="916,-127 916,-157 1068,-157 1068,-127 916,-127"/>
<text text-anchor="start" x="924" y="-145" font-family="Helvetica,sans-Serif" font-size="10.00">model.TurtleSetManager.get</text>
<text text-anchor="middle" x="992" y="-134" font-family="Helvetica,sans-Serif" font-size="10.00">AllTurtles</text>
</a>
</g>
</g>
<!-- Node8&#45;&gt;Node12 -->
<g id="edge13" class="edge"><title>Node8&#45;&gt;Node12</title>
<path fill="none" stroke="midnightblue" d="M770.796,-244.229C794.605,-226.475 847.858,-188.753 898,-167 903.637,-164.555 909.572,-162.296 915.603,-160.221"/>
<polygon fill="midnightblue" stroke="midnightblue" points="916.71,-163.542 925.131,-157.112 914.539,-156.887 916.71,-163.542"/>
</g>
<!-- Node13 -->
<g id="node13" class="node"><title>Node13</title>
<g id="a_node13"><a xlink:href="../../d3/d42/classmodel_1_1_model.html#af73e838aed2c068e8f7d31bfa1cc88d7" target="_top" xlink:title="model.Model.getStamp">
<polygon fill="white" stroke="black" points="927.5,-88.5 927.5,-107.5 1056.5,-107.5 1056.5,-88.5 927.5,-88.5"/>
<text text-anchor="middle" x="992" y="-95.5" font-family="Helvetica,sans-Serif" font-size="10.00">model.Model.getStamp</text>
</a>
</g>
</g>
<!-- Node8&#45;&gt;Node13 -->
<g id="edge14" class="edge"><title>Node8&#45;&gt;Node13</title>
<path fill="none" stroke="midnightblue" d="M764.59,-244.492C782.663,-219.21 835.824,-150.008 898,-117 904.063,-113.781 910.616,-111.107 917.338,-108.885"/>
<polygon fill="midnightblue" stroke="midnightblue" points="918.676,-112.139 927.27,-105.943 916.688,-105.427 918.676,-112.139"/>
</g>
<!-- Node14 -->
<g id="node14" class="node"><title>Node14</title>
<g id="a_node14"><a xlink:href="../../db/db5/classview_1_1panes_1_1_view_pane_module.html#a44db6ae832af3ce470baa9406142b8cb" target="_top" xlink:title="view.panes.ViewPaneModule.make\lStamps">
<polygon fill="white" stroke="black" points="901.5,-39 901.5,-69 1082.5,-69 1082.5,-39 901.5,-39"/>
<text text-anchor="start" x="909.5" y="-57" font-family="Helvetica,sans-Serif" font-size="10.00">view.panes.ViewPaneModule.make</text>
<text text-anchor="middle" x="992" y="-46" font-family="Helvetica,sans-Serif" font-size="10.00">Stamps</text>
</a>
</g>
</g>
<!-- Node8&#45;&gt;Node14 -->
<g id="edge15" class="edge"><title>Node8&#45;&gt;Node14</title>
<path fill="none" stroke="midnightblue" d="M762.868,-244.27C778.262,-214.536 828.974,-124.158 898,-79 901.122,-76.9577 904.406,-75.0815 907.8,-73.358"/>
<polygon fill="midnightblue" stroke="midnightblue" points="909.372,-76.488 917.007,-69.143 906.458,-70.1233 909.372,-76.488"/>
</g>
<!-- Node21 -->
<g id="node21" class="node"><title>Node21</title>
<g id="a_node21"><a xlink:href="../../d3/d42/classmodel_1_1_model.html#a0a457f31350a460e11dc864463e0d8ff" target="_top" xlink:title="model.Model.setStamp">
<polygon fill="white" stroke="black" points="928,-0.5 928,-19.5 1056,-19.5 1056,-0.5 928,-0.5"/>
<text text-anchor="middle" x="992" y="-7.5" font-family="Helvetica,sans-Serif" font-size="10.00">model.Model.setStamp</text>
</a>
</g>
</g>
<!-- Node8&#45;&gt;Node21 -->
<g id="edge22" class="edge"><title>Node8&#45;&gt;Node21</title>
<path fill="none" stroke="midnightblue" d="M760.896,-244.385C772.036,-209.166 815.671,-86.28 898,-29 904.045,-24.7942 910.814,-21.4778 917.869,-18.8684"/>
<polygon fill="midnightblue" stroke="midnightblue" points="919.177,-22.1242 927.626,-15.7312 917.034,-15.4602 919.177,-22.1242"/>
</g>
<!-- Node22 -->
<g id="node22" class="node"><title>Node22</title>
<g id="a_node22"><a xlink:href="../../db/db5/classview_1_1panes_1_1_view_pane_module.html#a7ad9ad27137ffdf0ea96753a22da236b" target="_top" xlink:title="view.panes.ViewPaneModule.erase\lStamps">
<polygon fill="white" stroke="black" points="901.5,-362 901.5,-392 1082.5,-392 1082.5,-362 901.5,-362"/>
<text text-anchor="start" x="909.5" y="-380" font-family="Helvetica,sans-Serif" font-size="10.00">view.panes.ViewPaneModule.erase</text>
<text text-anchor="middle" x="992" y="-369" font-family="Helvetica,sans-Serif" font-size="10.00">Stamps</text>
</a>
</g>
</g>
<!-- Node8&#45;&gt;Node22 -->
<g id="edge23" class="edge"><title>Node8&#45;&gt;Node22</title>
<path fill="none" stroke="midnightblue" d="M768.783,-263.574C791.234,-283.026 845.306,-327.407 898,-352 903.241,-354.446 908.764,-356.688 914.397,-358.735"/>
<polygon fill="midnightblue" stroke="midnightblue" points="913.355,-362.078 923.949,-362 915.619,-355.454 913.355,-362.078"/>
</g>
<!-- Node24 -->
<g id="node24" class="node"><title>Node24</title>
<g id="a_node24"><a xlink:href="../../db/db5/classview_1_1panes_1_1_view_pane_module.html#ab55ce3511929b88a2cd1235eb694868f" target="_top" xlink:title="view.panes.ViewPaneModule.update\lTurtle">
<polygon fill="white" stroke="black" points="898,-313 898,-343 1086,-343 1086,-313 898,-313"/>
<text text-anchor="start" x="906" y="-331" font-family="Helvetica,sans-Serif" font-size="10.00">view.panes.ViewPaneModule.update</text>
<text text-anchor="middle" x="992" y="-320" font-family="Helvetica,sans-Serif" font-size="10.00">Turtle</text>
</a>
</g>
</g>
<!-- Node8&#45;&gt;Node24 -->
<g id="edge25" class="edge"><title>Node8&#45;&gt;Node24</title>
<path fill="none" stroke="midnightblue" d="M783.359,-263.512C811.261,-273.829 857.527,-290.496 898,-303 905.922,-305.447 914.265,-307.885 922.568,-310.224"/>
<polygon fill="midnightblue" stroke="midnightblue" points="921.698,-313.615 932.27,-312.92 923.572,-306.871 921.698,-313.615"/>
</g>
<!-- Node15 -->
<g id="node15" class="node"><title>Node15</title>
<g id="a_node15"><a xlink:href="../../d7/da6/classview_1_1_turtle_draw.html#a939f4fdbdb66457c9dcee82eb4ae6d9c" target="_top" xlink:title="view.TurtleDraw.drawTurtle">
<polygon fill="white" stroke="black" points="1130.5,-67.5 1130.5,-86.5 1269.5,-86.5 1269.5,-67.5 1130.5,-67.5"/>
<text text-anchor="middle" x="1200" y="-74.5" font-family="Helvetica,sans-Serif" font-size="10.00">view.TurtleDraw.drawTurtle</text>
</a>
</g>
</g>
<!-- Node14&#45;&gt;Node15 -->
<g id="edge16" class="edge"><title>Node14&#45;&gt;Node15</title>
<path fill="none" stroke="midnightblue" d="M1082.76,-64.0212C1095.21,-65.4115 1107.92,-66.831 1120.15,-68.1968"/>
<polygon fill="midnightblue" stroke="midnightblue" points="1119.97,-71.6983 1130.3,-69.3296 1120.75,-64.7415 1119.97,-71.6983"/>
</g>
<!-- Node18 -->
<g id="node18" class="node"><title>Node18</title>
<g id="a_node18"><a xlink:href="../../d7/da6/classview_1_1_turtle_draw.html#a14678068d3fc9d3b6e1067bc372f6030" target="_top" xlink:title="view.TurtleDraw.showTurtle">
<polygon fill="white" stroke="black" points="1130,-29.5 1130,-48.5 1270,-48.5 1270,-29.5 1130,-29.5"/>
<text text-anchor="middle" x="1200" y="-36.5" font-family="Helvetica,sans-Serif" font-size="10.00">view.TurtleDraw.showTurtle</text>
</a>
</g>
</g>
<!-- Node14&#45;&gt;Node18 -->
<g id="edge19" class="edge"><title>Node14&#45;&gt;Node18</title>
<path fill="none" stroke="midnightblue" d="M1082.76,-47.4644C1095.12,-46.5639 1107.75,-45.6445 1119.9,-44.7594"/>
<polygon fill="midnightblue" stroke="midnightblue" points="1120.27,-48.2422 1129.99,-44.0251 1119.76,-41.2607 1120.27,-48.2422"/>
</g>
<!-- Node19 -->
<g id="node19" class="node"><title>Node19</title>
<g id="a_node19"><a xlink:href="../../d7/da6/classview_1_1_turtle_draw.html#a8c2cab38eb294b26aea1ae17595ba2a6" target="_top" xlink:title="view.TurtleDraw.moveTurtle">
<polygon fill="white" stroke="black" points="1128.5,-143.5 1128.5,-162.5 1271.5,-162.5 1271.5,-143.5 1128.5,-143.5"/>
<text text-anchor="middle" x="1200" y="-150.5" font-family="Helvetica,sans-Serif" font-size="10.00">view.TurtleDraw.moveTurtle</text>
</a>
</g>
</g>
<!-- Node14&#45;&gt;Node19 -->
<g id="edge20" class="edge"><title>Node14&#45;&gt;Node19</title>
<path fill="none" stroke="midnightblue" d="M1068.8,-69.1906C1074.89,-71.9348 1080.72,-75.1748 1086,-79 1109.66,-96.1392 1098.16,-117.106 1122,-134 1124.84,-136.012 1127.87,-137.811 1131.02,-139.421"/>
<polygon fill="midnightblue" stroke="midnightblue" points="1129.62,-142.629 1140.18,-143.474 1132.45,-136.227 1129.62,-142.629"/>
</g>
<!-- Node20 -->
<g id="node20" class="node"><title>Node20</title>
<g id="a_node20"><a xlink:href="../../d7/da6/classview_1_1_turtle_draw.html#a5004a16526a67f090d7da45474b5136e" target="_top" xlink:title="view.TurtleDraw.setAngle">
<polygon fill="white" stroke="black" points="1133.5,-105.5 1133.5,-124.5 1266.5,-124.5 1266.5,-105.5 1133.5,-105.5"/>
<text text-anchor="middle" x="1200" y="-112.5" font-family="Helvetica,sans-Serif" font-size="10.00">view.TurtleDraw.setAngle</text>
</a>
</g>
</g>
<!-- Node14&#45;&gt;Node20 -->
<g id="edge21" class="edge"><title>Node14&#45;&gt;Node20</title>
<path fill="none" stroke="midnightblue" d="M1055.02,-69.0126C1065.46,-72.0119 1076.11,-75.3695 1086,-79 1102.61,-85.0988 1105.33,-90.0733 1122,-96 1129.04,-98.5012 1136.55,-100.795 1144.02,-102.858"/>
<polygon fill="midnightblue" stroke="midnightblue" points="1143.2,-106.264 1153.77,-105.434 1144.99,-99.4958 1143.2,-106.264"/>
</g>
<!-- Node16 -->
<g id="node16" class="node"><title>Node16</title>
<g id="a_node16"><a xlink:href="../../d6/d34/classmodel_1_1_turtle.html#a942dbeb1d7e2bc19b6870538c2c3a7d2" target="_top" xlink:title="model.Turtle.getShape">
<polygon fill="white" stroke="black" points="1338.5,-89.5 1338.5,-108.5 1463.5,-108.5 1463.5,-89.5 1338.5,-89.5"/>
<text text-anchor="middle" x="1401" y="-96.5" font-family="Helvetica,sans-Serif" font-size="10.00">model.Turtle.getShape</text>
</a>
</g>
</g>
<!-- Node15&#45;&gt;Node16 -->
<g id="edge17" class="edge"><title>Node15&#45;&gt;Node16</title>
<path fill="none" stroke="midnightblue" d="M1269.76,-84.602C1288.62,-86.6865 1309.11,-88.9515 1328.13,-91.0547"/>
<polygon fill="midnightblue" stroke="midnightblue" points="1327.91,-94.5509 1338.23,-92.1711 1328.67,-87.5933 1327.91,-94.5509"/>
</g>
<!-- Node17 -->
<g id="node17" class="node"><title>Node17</title>
<g id="a_node17"><a xlink:href="../../d3/db7/classview_1_1controllers_1_1_image_palette.html#a8a6620714bc12d5a00b97e99299a7040" target="_top" xlink:title="view.controllers.ImagePalette.get\lImage">
<polygon fill="white" stroke="black" points="1314,-40 1314,-70 1488,-70 1488,-40 1314,-40"/>
<text text-anchor="start" x="1322" y="-58" font-family="Helvetica,sans-Serif" font-size="10.00">view.controllers.ImagePalette.get</text>
<text text-anchor="middle" x="1401" y="-47" font-family="Helvetica,sans-Serif" font-size="10.00">Image</text>
</a>
</g>
</g>
<!-- Node15&#45;&gt;Node17 -->
<g id="edge18" class="edge"><title>Node15&#45;&gt;Node17</title>
<path fill="none" stroke="midnightblue" d="M1269.76,-69.398C1280.71,-68.1877 1292.21,-66.9165 1303.65,-65.6514"/>
<polygon fill="midnightblue" stroke="midnightblue" points="1304.13,-69.1206 1313.68,-64.5429 1303.36,-62.163 1304.13,-69.1206"/>
</g>
<!-- Node23 -->
<g id="node23" class="node"><title>Node23</title>
<g id="a_node23"><a xlink:href="../../d7/da6/classview_1_1_turtle_draw.html#acb97dedda080cb5ed17031d2b31adc2c" target="_top" xlink:title="view.TurtleDraw.hideTurtle">
<polygon fill="white" stroke="black" points="1131.5,-485.5 1131.5,-504.5 1268.5,-504.5 1268.5,-485.5 1131.5,-485.5"/>
<text text-anchor="middle" x="1200" y="-492.5" font-family="Helvetica,sans-Serif" font-size="10.00">view.TurtleDraw.hideTurtle</text>
</a>
</g>
</g>
<!-- Node22&#45;&gt;Node23 -->
<g id="edge24" class="edge"><title>Node22&#45;&gt;Node23</title>
<path fill="none" stroke="midnightblue" d="M1070.72,-392.164C1076.18,-394.918 1081.36,-398.167 1086,-402 1114.2,-425.29 1093.56,-453.003 1122,-476 1124.26,-477.826 1126.67,-479.48 1129.19,-480.979"/>
<polygon fill="midnightblue" stroke="midnightblue" points="1127.62,-484.107 1138.12,-485.495 1130.77,-477.86 1127.62,-484.107"/>
</g>
<!-- Node24&#45;&gt;Node15 -->
<g id="edge27" class="edge"><title>Node24&#45;&gt;Node15</title>
<path fill="none" stroke="midnightblue" d="M1074.14,-312.879C1078.49,-310.093 1082.5,-306.827 1086,-303 1148.98,-234.053 1058.31,-164.292 1122,-96 1123.23,-94.6847 1124.53,-93.4541 1125.9,-92.303"/>
<polygon fill="midnightblue" stroke="midnightblue" points="1128.06,-95.0665 1134.35,-86.544 1124.11,-89.2813 1128.06,-95.0665"/>
</g>
<!-- Node24&#45;&gt;Node18 -->
<g id="edge28" class="edge"><title>Node24&#45;&gt;Node18</title>
<path fill="none" stroke="midnightblue" d="M1074.26,-312.985C1078.58,-310.173 1082.56,-306.872 1086,-303 1159.15,-220.771 1048,-139.468 1122,-58 1123.07,-56.8215 1124.2,-55.7107 1125.38,-54.6639"/>
<polygon fill="midnightblue" stroke="midnightblue" points="1127.74,-57.2816 1133.88,-48.6446 1123.7,-51.5698 1127.74,-57.2816"/>
</g>
<!-- Node24&#45;&gt;Node19 -->
<g id="edge41" class="edge"><title>Node24&#45;&gt;Node19</title>
<path fill="none" stroke="midnightblue" d="M1072.86,-312.995C1077.64,-310.193 1082.09,-306.89 1086,-303 1128.81,-260.424 1078.75,-214.131 1122,-172 1123.48,-170.559 1125.05,-169.221 1126.7,-167.98"/>
<polygon fill="midnightblue" stroke="midnightblue" points="1128.82,-170.784 1135.48,-162.546 1125.13,-164.832 1128.82,-170.784"/>
</g>
<!-- Node24&#45;&gt;Node20 -->
<g id="edge39" class="edge"><title>Node24&#45;&gt;Node20</title>
<path fill="none" stroke="midnightblue" d="M1073.55,-312.99C1078.1,-310.183 1082.32,-306.881 1086,-303 1138.85,-247.284 1068.57,-189.166 1122,-134 1123.25,-132.708 1124.58,-131.498 1125.96,-130.366"/>
<polygon fill="midnightblue" stroke="midnightblue" points="1128.11,-133.14 1134.5,-124.692 1124.24,-127.309 1128.11,-133.14"/>
</g>
<!-- Node24&#45;&gt;Node23 -->
<g id="edge29" class="edge"><title>Node24&#45;&gt;Node23</title>
<path fill="none" stroke="midnightblue" d="M1072.78,-343.079C1077.58,-345.863 1082.06,-349.142 1086,-353 1126.72,-392.829 1080.87,-436.594 1122,-476 1123.49,-477.429 1125.07,-478.755 1126.73,-479.987"/>
<polygon fill="midnightblue" stroke="midnightblue" points="1125.19,-483.149 1135.55,-485.384 1128.84,-477.179 1125.19,-483.149"/>
</g>
<!-- Node25 -->
<g id="node25" class="node"><title>Node25</title>
<g id="a_node25"><a xlink:href="../../d6/d34/classmodel_1_1_turtle.html#ae79a1eae7eed55d121c3b85299ae14ba" target="_top" xlink:title="model.Turtle.getID">
<polygon fill="white" stroke="black" points="1148,-257.5 1148,-276.5 1252,-276.5 1252,-257.5 1148,-257.5"/>
<text text-anchor="middle" x="1200" y="-264.5" font-family="Helvetica,sans-Serif" font-size="10.00">model.Turtle.getID</text>
</a>
</g>
</g>
<!-- Node24&#45;&gt;Node25 -->
<g id="edge26" class="edge"><title>Node24&#45;&gt;Node25</title>
<path fill="none" stroke="midnightblue" d="M1055.02,-312.987C1065.46,-309.988 1076.11,-306.63 1086,-303 1102.61,-296.901 1105.33,-291.927 1122,-286 1129.04,-283.499 1136.55,-281.205 1144.02,-279.142"/>
<polygon fill="midnightblue" stroke="midnightblue" points="1144.99,-282.504 1153.77,-276.566 1143.2,-275.736 1144.99,-282.504"/>
</g>
<!-- Node26 -->
<g id="node26" class="node"><title>Node26</title>
<g id="a_node26"><a xlink:href="../../d6/d34/classmodel_1_1_turtle.html#a279f2bdb3fa955acdd52b7824ec3cd04" target="_top" xlink:title="model.Turtle.getPenStatus">
<polygon fill="white" stroke="black" points="1128.5,-219.5 1128.5,-238.5 1271.5,-238.5 1271.5,-219.5 1128.5,-219.5"/>
<text text-anchor="middle" x="1200" y="-226.5" font-family="Helvetica,sans-Serif" font-size="10.00">model.Turtle.getPenStatus</text>
</a>
</g>
</g>
<!-- Node24&#45;&gt;Node26 -->
<g id="edge30" class="edge"><title>Node24&#45;&gt;Node26</title>
<path fill="none" stroke="midnightblue" d="M1068.8,-312.809C1074.89,-310.065 1080.72,-306.825 1086,-303 1109.66,-285.861 1098.16,-264.894 1122,-248 1124.84,-245.988 1127.87,-244.189 1131.02,-242.579"/>
<polygon fill="midnightblue" stroke="midnightblue" points="1132.45,-245.773 1140.18,-238.526 1129.62,-239.371 1132.45,-245.773"/>
</g>
<!-- Node28 -->
<g id="node28" class="node"><title>Node28</title>
<g id="a_node28"><a xlink:href="../../d7/da6/classview_1_1_turtle_draw.html#a1325ca376115619f15f5014eb4c5ad2a" target="_top" xlink:title="view.TurtleDraw.drawLine">
<polygon fill="white" stroke="black" points="1133.5,-181.5 1133.5,-200.5 1266.5,-200.5 1266.5,-181.5 1133.5,-181.5"/>
<text text-anchor="middle" x="1200" y="-188.5" font-family="Helvetica,sans-Serif" font-size="10.00">view.TurtleDraw.drawLine</text>
</a>
</g>
</g>
<!-- Node24&#45;&gt;Node28 -->
<g id="edge32" class="edge"><title>Node24&#45;&gt;Node28</title>
<path fill="none" stroke="midnightblue" d="M1071.98,-312.777C1077.03,-310.031 1081.77,-306.799 1086,-303 1118.97,-273.376 1088.73,-239.282 1122,-210 1123.76,-208.448 1125.63,-207.018 1127.59,-205.702"/>
<polygon fill="midnightblue" stroke="midnightblue" points="1129.63,-208.57 1136.64,-200.624 1126.2,-202.465 1129.63,-208.57"/>
</g>
<!-- Node29 -->
<g id="node29" class="node"><title>Node29</title>
<g id="a_node29"><a xlink:href="../../d6/d34/classmodel_1_1_turtle.html#a832234461564763f8330181b3c1163ff" target="_top" xlink:title="model.Turtle.getPrevLocation">
<polygon fill="white" stroke="black" points="1122.5,-447.5 1122.5,-466.5 1277.5,-466.5 1277.5,-447.5 1122.5,-447.5"/>
<text text-anchor="middle" x="1200" y="-454.5" font-family="Helvetica,sans-Serif" font-size="10.00">model.Turtle.getPrevLocation</text>
</a>
</g>
</g>
<!-- Node24&#45;&gt;Node29 -->
<g id="edge33" class="edge"><title>Node24&#45;&gt;Node29</title>
<path fill="none" stroke="midnightblue" d="M1071.39,-343.135C1076.64,-345.898 1081.59,-349.157 1086,-353 1116.94,-379.941 1090.78,-411.381 1122,-438 1123.97,-439.681 1126.07,-441.217 1128.26,-442.621"/>
<polygon fill="midnightblue" stroke="midnightblue" points="1126.68,-445.744 1137.14,-447.406 1130,-439.582 1126.68,-445.744"/>
</g>
<!-- Node30 -->
<g id="node30" class="node"><title>Node30</title>
<g id="a_node30"><a xlink:href="../../d6/d34/classmodel_1_1_turtle.html#a2470b9b4ef48a261324047de8ebdc242" target="_top" xlink:title="model.Turtle.getNewLocation">
<polygon fill="white" stroke="black" points="1122.5,-409.5 1122.5,-428.5 1277.5,-428.5 1277.5,-409.5 1122.5,-409.5"/>
<text text-anchor="middle" x="1200" y="-416.5" font-family="Helvetica,sans-Serif" font-size="10.00">model.Turtle.getNewLocation</text>
</a>
</g>
</g>
<!-- Node24&#45;&gt;Node30 -->
<g id="edge34" class="edge"><title>Node24&#45;&gt;Node30</title>
<path fill="none" stroke="midnightblue" d="M1067.08,-343.013C1073.74,-345.797 1080.16,-349.094 1086,-353 1107.87,-367.637 1099.98,-385.59 1122,-400 1125.12,-402.043 1128.44,-403.866 1131.89,-405.494"/>
<polygon fill="midnightblue" stroke="midnightblue" points="1130.67,-408.778 1141.25,-409.36 1133.35,-402.308 1130.67,-408.778"/>
</g>
<!-- Node31 -->
<g id="node31" class="node"><title>Node31</title>
<g id="a_node31"><a xlink:href="../../d6/d34/classmodel_1_1_turtle.html#a19c059b1cbfbd4e8f046ec2403de3fb9" target="_top" xlink:title="model.Turtle.getPenDash">
<polygon fill="white" stroke="black" points="1131.5,-371.5 1131.5,-390.5 1268.5,-390.5 1268.5,-371.5 1131.5,-371.5"/>
<text text-anchor="middle" x="1200" y="-378.5" font-family="Helvetica,sans-Serif" font-size="10.00">model.Turtle.getPenDash</text>
</a>
</g>
</g>
<!-- Node24&#45;&gt;Node31 -->
<g id="edge35" class="edge"><title>Node24&#45;&gt;Node31</title>
<path fill="none" stroke="midnightblue" d="M1049.15,-343.004C1071.76,-348.993 1098.1,-355.902 1122,-362 1131.01,-364.3 1140.63,-366.709 1149.91,-369.01"/>
<polygon fill="midnightblue" stroke="midnightblue" points="1149.25,-372.452 1159.8,-371.454 1150.93,-365.657 1149.25,-372.452"/>
</g>
<!-- Node33 -->
<g id="node33" class="node"><title>Node33</title>
<g id="a_node33"><a xlink:href="../../d6/d34/classmodel_1_1_turtle.html#a193c156784f783064ae533b619b6be6e" target="_top" xlink:title="model.Turtle.getPenColor">
<polygon fill="white" stroke="black" points="1131.5,-333.5 1131.5,-352.5 1268.5,-352.5 1268.5,-333.5 1131.5,-333.5"/>
<text text-anchor="middle" x="1200" y="-340.5" font-family="Helvetica,sans-Serif" font-size="10.00">model.Turtle.getPenColor</text>
</a>
</g>
</g>
<!-- Node24&#45;&gt;Node33 -->
<g id="edge37" class="edge"><title>Node24&#45;&gt;Node33</title>
<path fill="none" stroke="midnightblue" d="M1086.06,-334.776C1097.85,-335.635 1109.82,-336.506 1121.33,-337.345"/>
<polygon fill="midnightblue" stroke="midnightblue" points="1121.1,-340.837 1131.32,-338.072 1121.61,-333.855 1121.1,-340.837"/>
</g>
<!-- Node35 -->
<g id="node35" class="node"><title>Node35</title>
<g id="a_node35"><a xlink:href="../../d6/d34/classmodel_1_1_turtle.html#a1c5d07962ede5fbfacc59413274d4300" target="_top" xlink:title="model.Turtle.getHeading">
<polygon fill="white" stroke="black" points="1133,-295.5 1133,-314.5 1267,-314.5 1267,-295.5 1133,-295.5"/>
<text text-anchor="middle" x="1200" y="-302.5" font-family="Helvetica,sans-Serif" font-size="10.00">model.Turtle.getHeading</text>
</a>
</g>
</g>
<!-- Node24&#45;&gt;Node35 -->
<g id="edge40" class="edge"><title>Node24&#45;&gt;Node35</title>
<path fill="none" stroke="midnightblue" d="M1086.06,-317.61C1098.38,-316.234 1110.9,-314.836 1122.9,-313.496"/>
<polygon fill="midnightblue" stroke="midnightblue" points="1123.29,-316.975 1132.84,-312.387 1122.51,-310.018 1123.29,-316.975"/>
</g>
<!-- Node27 -->
<g id="node27" class="node"><title>Node27</title>
<g id="a_node27"><a xlink:href="../../de/ded/classmodel_1_1_pen.html#afad4fb3e51847cacab72c036ddaa108f" target="_top" xlink:title="model.Pen.getStatus">
<polygon fill="white" stroke="black" points="1342,-219.5 1342,-238.5 1460,-238.5 1460,-219.5 1342,-219.5"/>
<text text-anchor="middle" x="1401" y="-226.5" font-family="Helvetica,sans-Serif" font-size="10.00">model.Pen.getStatus</text>
</a>
</g>
</g>
<!-- Node26&#45;&gt;Node27 -->
<g id="edge31" class="edge"><title>Node26&#45;&gt;Node27</title>
<path fill="none" stroke="midnightblue" d="M1271.72,-229C1291.23,-229 1312.35,-229 1331.72,-229"/>
<polygon fill="midnightblue" stroke="midnightblue" points="1331.97,-232.5 1341.97,-229 1331.97,-225.5 1331.97,-232.5"/>
</g>
<!-- Node32 -->
<g id="node32" class="node"><title>Node32</title>
<g id="a_node32"><a xlink:href="../../de/ded/classmodel_1_1_pen.html#a6999f4af56377415621f193ef8600e27" target="_top" xlink:title="model.Pen.getDash">
<polygon fill="white" stroke="black" points="1345.5,-371.5 1345.5,-390.5 1456.5,-390.5 1456.5,-371.5 1345.5,-371.5"/>
<text text-anchor="middle" x="1401" y="-378.5" font-family="Helvetica,sans-Serif" font-size="10.00">model.Pen.getDash</text>
</a>
</g>
</g>
<!-- Node31&#45;&gt;Node32 -->
<g id="edge36" class="edge"><title>Node31&#45;&gt;Node32</title>
<path fill="none" stroke="midnightblue" d="M1268.65,-381C1290.15,-381 1313.86,-381 1335.15,-381"/>
<polygon fill="midnightblue" stroke="midnightblue" points="1335.39,-384.5 1345.39,-381 1335.39,-377.5 1335.39,-384.5"/>
</g>
<!-- Node34 -->
<g id="node34" class="node"><title>Node34</title>
<g id="a_node34"><a xlink:href="../../de/ded/classmodel_1_1_pen.html#a704af31474b10d17caf40773b7971826" target="_top" xlink:title="model.Pen.getPenColor">
<polygon fill="white" stroke="black" points="1336.5,-333.5 1336.5,-352.5 1465.5,-352.5 1465.5,-333.5 1336.5,-333.5"/>
<text text-anchor="middle" x="1401" y="-340.5" font-family="Helvetica,sans-Serif" font-size="10.00">model.Pen.getPenColor</text>
</a>
</g>
</g>
<!-- Node33&#45;&gt;Node34 -->
<g id="edge38" class="edge"><title>Node33&#45;&gt;Node34</title>
<path fill="none" stroke="midnightblue" d="M1268.65,-343C1287.18,-343 1307.36,-343 1326.21,-343"/>
<polygon fill="midnightblue" stroke="midnightblue" points="1326.23,-346.5 1336.23,-343 1326.23,-339.5 1326.23,-346.5"/>
</g>
</g>
</svg>
        <g id="navigator" transform="translate(0 0)" fill="#404254">
                <rect fill="#f2f5e9" fill-opacity="0.5" stroke="#606060" stroke-width=".5" x="0" y="0" width="60" height="60"/>
                <use id="zoomplus" xlink:href="#zoomPlus" x="17" y="9" onmousedown="handleZoom(evt,'in')"/>
                <use id="zoomminus" xlink:href="#zoomMin" x="42" y="9" onmousedown="handleZoom(evt,'out')"/>
                <use id="reset" xlink:href="#resetDef" x="30" y="36" onmousedown="handleReset()"/>
                <g id="arrowUp" xlink:href="#dirArrow" transform="translate(30 24)" onmousedown="handlePan(0,-1)">
                  <use xlink:href="#rim" fill="#404040">
                        <set attributeName="fill" to="#808080" begin="arrowUp.mouseover" end="arrowUp.mouseout"/>
                  </use>
                  <path fill="none" stroke="white" stroke-width="1.5" d="M0,-3.0v7 M-2.5,-0.5L0,-3.0L2.5,-0.5"/>
                </g>
                <g id="arrowRight" xlink:href="#dirArrow" transform="rotate(90) translate(36 -43)" onmousedown="handlePan(1,0)">
                  <use xlink:href="#rim" fill="#404040">
                        <set attributeName="fill" to="#808080" begin="arrowRight.mouseover" end="arrowRight.mouseout"/>
                  </use>
                  <path fill="none" stroke="white" stroke-width="1.5" d="M0,-3.0v7 M-2.5,-0.5L0,-3.0L2.5,-0.5"/>
                </g>
                <g id="arrowDown" xlink:href="#dirArrow" transform="rotate(180) translate(-30 -48)" onmousedown="handlePan(0,1)">
                  <use xlink:href="#rim" fill="#404040">
                        <set attributeName="fill" to="#808080" begin="arrowDown.mouseover" end="arrowDown.mouseout"/>
                  </use>
                  <path fill="none" stroke="white" stroke-width="1.5" d="M0,-3.0v7 M-2.5,-0.5L0,-3.0L2.5,-0.5"/>
                </g>
                <g id="arrowLeft" xlink:href="#dirArrow" transform="rotate(270) translate(-36 17)" onmousedown="handlePan(-1,0)">
                  <use xlink:href="#rim" fill="#404040">
                        <set attributeName="fill" to="#808080" begin="arrowLeft.mouseover" end="arrowLeft.mouseout"/>
                  </use>
                  <path fill="none" stroke="white" stroke-width="1.5" d="M0,-3.0v7 M-2.5,-0.5L0,-3.0L2.5,-0.5"/>
                </g>
        </g>
        <svg viewBox="0 0 15 15" width="100%" height="30px" preserveAspectRatio="xMaxYMin meet">
         <g id="arrow_out" transform="scale(0.3 0.3)">
          <a xlink:href="classcommands_1_1_for_command_aeb06a37d7f9845eb546425bae6ea9f58_cgraph_org.svg" target="_base">
           <rect id="button" ry="5" rx="5" y="6" x="6" height="38" width="38"
                fill="#f2f5e9" fill-opacity="0.5" stroke="#606060" stroke-width="1.0"/>
           <path id="arrow"
             d="M 11.500037,31.436501 C 11.940474,20.09759 22.043105,11.32322 32.158766,21.979434 L 37.068811,17.246167 C 37.068811,17.246167 37.088388,32 37.088388,32 L 22.160133,31.978069 C 22.160133,31.978069 26.997745,27.140456 26.997745,27.140456 C 18.528582,18.264221 13.291696,25.230495 11.500037,31.436501 z"
             style="fill:#404040;"/>
          </a>
         </g>
        </svg>
</svg>
