<?xml version="1.0" encoding="UTF-8" standalone="no"?>
<!DOCTYPE svg PUBLIC "-//W3C//DTD SVG 1.1//EN"
 "http://www.w3.org/Graphics/SVG/1.1/DTD/svg11.dtd">
<!-- Generated by graphviz version 2.36.0 (20140111.2315)
 -->
<!-- Title: view.controllers.WorkspaceTabsController Pages: 1 -->
<svg width="445pt" height="120pt"
 viewBox="0.00 0.00 445.00 120.00" xmlns="http://www.w3.org/2000/svg" xmlns:xlink="http://www.w3.org/1999/xlink">
<g id="graph0" class="graph" transform="scale(1 1) rotate(0) translate(4 116)">
<title>view.controllers.WorkspaceTabsController</title>
<polygon fill="white" stroke="none" points="-4,4 -4,-116 441,-116 441,4 -4,4"/>
<!-- Node1 -->
<g id="node1" class="node"><title>Node1</title>
<polygon fill="#bfbfbf" stroke="black" points="133.5,-1 133.5,-31 276.5,-31 276.5,-1 133.5,-1"/>
<text text-anchor="start" x="141.5" y="-19" font-family="Helvetica,sans-Serif" font-size="10.00">view.controllers.Workspace</text>
<text text-anchor="middle" x="205" y="-8" font-family="Helvetica,sans-Serif" font-size="10.00">TabsController</text>
</g>
<!-- Node2 -->
<g id="node2" class="node"><title>Node2</title>
<polygon fill="white" stroke="#bfbfbf" points="-0.5,-86.5 -0.5,-105.5 40.5,-105.5 40.5,-86.5 -0.5,-86.5"/>
<text text-anchor="middle" x="20" y="-93.5" font-family="Helvetica,sans-Serif" font-size="10.00">VBox</text>
</g>
<!-- Node2&#45;&gt;Node1 -->
<g id="edge1" class="edge"><title>Node2&#45;&gt;Node1</title>
<path fill="none" stroke="#9a32cd" stroke-dasharray="5,2" d="M36.8186,-79.578C48.2479,-69.838 64.1231,-57.6852 80,-50 96.5661,-41.9812 115.345,-35.7136 133.218,-30.8981"/>
<polygon fill="#9a32cd" stroke="#9a32cd" points="34.2137,-77.2081 29.0188,-86.4419 38.8381,-82.4631 34.2137,-77.2081"/>
<text text-anchor="middle" x="101.5" y="-53.5" font-family="Helvetica,sans-Serif" font-size="10.00"> myVBox</text>
</g>
<!-- Node3 -->
<g id="node3" class="node"><title>Node3</title>
<polygon fill="white" stroke="#bfbfbf" points="59,-86.5 59,-105.5 115,-105.5 115,-86.5 59,-86.5"/>
<text text-anchor="middle" x="87" y="-93.5" font-family="Helvetica,sans-Serif" font-size="10.00">TabPane</text>
</g>
<!-- Node3&#45;&gt;Node1 -->
<g id="edge2" class="edge"><title>Node3&#45;&gt;Node1</title>
<path fill="none" stroke="#9a32cd" stroke-dasharray="5,2" d="M104.264,-79.7214C115.02,-70.5651 129.362,-58.9941 143,-50 153.383,-43.1526 165.335,-36.5229 175.957,-31.0244"/>
<polygon fill="#9a32cd" stroke="#9a32cd" points="101.759,-77.2605 96.4889,-86.4516 106.34,-82.553 101.759,-77.2605"/>
<text text-anchor="middle" x="172" y="-53.5" font-family="Helvetica,sans-Serif" font-size="10.00"> myTabPane</text>
</g>
<!-- Node4 -->
<g id="node4" class="node"><title>Node4</title>
<polygon fill="white" stroke="#bfbfbf" points="133.5,-81 133.5,-111 276.5,-111 276.5,-81 133.5,-81"/>
<text text-anchor="start" x="141.5" y="-99" font-family="Helvetica,sans-Serif" font-size="10.00">List&lt; view.controllers.Pane</text>
<text text-anchor="middle" x="205" y="-88" font-family="Helvetica,sans-Serif" font-size="10.00">Controller &gt;</text>
</g>
<!-- Node4&#45;&gt;Node1 -->
<g id="edge3" class="edge"><title>Node4&#45;&gt;Node1</title>
<path fill="none" stroke="#9a32cd" stroke-dasharray="5,2" d="M205,-70.5644C205,-57.6243 205,-42.1862 205,-31.2157"/>
<polygon fill="#9a32cd" stroke="#9a32cd" points="201.5,-70.6936 205,-80.6936 208.5,-70.6936 201.5,-70.6936"/>
<text text-anchor="middle" x="242.5" y="-53.5" font-family="Helvetica,sans-Serif" font-size="10.00"> myWorkspaces</text>
</g>
<!-- Node5 -->
<g id="node5" class="node"><title>Node5</title>
<polygon fill="white" stroke="#bfbfbf" points="295,-86.5 295,-105.5 367,-105.5 367,-86.5 295,-86.5"/>
<text text-anchor="middle" x="331" y="-93.5" font-family="Helvetica,sans-Serif" font-size="10.00">BorderPane</text>
</g>
<!-- Node5&#45;&gt;Node1 -->
<g id="edge4" class="edge"><title>Node5&#45;&gt;Node1</title>
<path fill="none" stroke="#9a32cd" stroke-dasharray="5,2" d="M316.967,-78.8599C308.203,-69.5117 296.281,-58.0403 284,-50 272.559,-42.5097 259.139,-36.141 246.639,-31.0553"/>
<polygon fill="#9a32cd" stroke="#9a32cd" points="314.479,-81.326 323.786,-86.3887 319.667,-76.6271 314.479,-81.326"/>
<text text-anchor="middle" x="337" y="-53.5" font-family="Helvetica,sans-Serif" font-size="10.00"> myBorderPane</text>
</g>
<!-- Node6 -->
<g id="node6" class="node"><title>Node6</title>
<polygon fill="white" stroke="#bfbfbf" points="396,-86.5 396,-105.5 438,-105.5 438,-86.5 396,-86.5"/>
<text text-anchor="middle" x="417" y="-93.5" font-family="Helvetica,sans-Serif" font-size="10.00">HBox</text>
</g>
<!-- Node6&#45;&gt;Node1 -->
<g id="edge5" class="edge"><title>Node6&#45;&gt;Node1</title>
<path fill="none" stroke="#9a32cd" stroke-dasharray="5,2" d="M406.233,-77.6398C399.343,-68.0008 389.541,-56.6477 378,-50 347.531,-32.4492 309.525,-24.0074 276.903,-20.0324"/>
<polygon fill="#9a32cd" stroke="#9a32cd" points="403.448,-79.7709 411.909,-86.1467 409.27,-75.8858 403.448,-79.7709"/>
<text text-anchor="middle" x="414.5" y="-53.5" font-family="Helvetica,sans-Serif" font-size="10.00"> myHbox</text>
</g>
</g>
</svg>
