<?xml version="1.0" encoding="UTF-8" standalone="no"?>
<!DOCTYPE svg PUBLIC "-//W3C//DTD SVG 1.1//EN"
 "http://www.w3.org/Graphics/SVG/1.1/DTD/svg11.dtd">
<!-- Generated by graphviz version 2.36.0 (20140111.2315)
 -->
<!-- Title: model.TurtleSetManager.getStackLength Pages: 1 -->
<svg width="612pt" height="97pt"
 viewBox="0.00 0.00 612.00 97.00" xmlns="http://www.w3.org/2000/svg" xmlns:xlink="http://www.w3.org/1999/xlink">
<g id="graph0" class="graph" transform="scale(1 1) rotate(0) translate(4 93)">
<title>model.TurtleSetManager.getStackLength</title>
<polygon fill="white" stroke="none" points="-4,4 -4,-93 608,-93 608,4 -4,4"/>
<!-- Node1 -->
<g id="node1" class="node"><title>Node1</title>
<polygon fill="#bfbfbf" stroke="black" points="0,-25 0,-55 152,-55 152,-25 0,-25"/>
<text text-anchor="start" x="8" y="-43" font-family="Helvetica,sans-Serif" font-size="10.00">model.TurtleSetManager.get</text>
<text text-anchor="middle" x="76" y="-32" font-family="Helvetica,sans-Serif" font-size="10.00">StackLength</text>
</g>
<!-- Node2 -->
<g id="node2" class="node"><title>Node2</title>
<g id="a_node2"><a xlink:href="../../d9/d35/classcommands_1_1_ask_command.html#ae4ba28c73ce0b5112e4032bd21a951f5" target="_top" xlink:title="commands.AskCommand.execute\lCommand">
<polygon fill="white" stroke="black" points="411,-59 411,-89 593,-89 593,-59 411,-59"/>
<text text-anchor="start" x="419" y="-77" font-family="Helvetica,sans-Serif" font-size="10.00">commands.AskCommand.execute</text>
<text text-anchor="middle" x="502" y="-66" font-family="Helvetica,sans-Serif" font-size="10.00">Command</text>
</a>
</g>
</g>
<!-- Node1&#45;&gt;Node2 -->
<g id="edge1" class="edge"><title>Node1&#45;&gt;Node2</title>
<path fill="none" stroke="midnightblue" d="M146.66,-57.0737C160.293,-59.8436 174.537,-62.3433 188,-64 262.736,-73.1965 348.22,-75.3691 410.947,-75.4261"/>
<polygon fill="midnightblue" stroke="midnightblue" points="147.367,-53.6459 136.861,-55.0172 145.929,-60.4966 147.367,-53.6459"/>
</g>
<!-- Node3 -->
<g id="node3" class="node"><title>Node3</title>
<g id="a_node3"><a xlink:href="../../db/d38/classcommands_1_1_ask_with_command.html#a5ee6a090e94729d84ef423a454d446eb" target="_top" xlink:title="commands.AskWithCommand.execute\lCommand">
<polygon fill="white" stroke="black" points="400.5,-0 400.5,-30 603.5,-30 603.5,-0 400.5,-0"/>
<text text-anchor="start" x="408.5" y="-18" font-family="Helvetica,sans-Serif" font-size="10.00">commands.AskWithCommand.execute</text>
<text text-anchor="middle" x="502" y="-7" font-family="Helvetica,sans-Serif" font-size="10.00">Command</text>
</a>
</g>
</g>
<!-- Node1&#45;&gt;Node3 -->
<g id="edge2" class="edge"><title>Node1&#45;&gt;Node3</title>
<path fill="none" stroke="midnightblue" d="M142.588,-22.7074C157.417,-19.5039 173.165,-16.6499 188,-15 258.615,-7.14628 338.746,-7.31501 400.252,-9.36009"/>
<polygon fill="midnightblue" stroke="midnightblue" points="141.483,-19.3682 132.49,-24.9706 143.013,-26.1987 141.483,-19.3682"/>
</g>
<!-- Node4 -->
<g id="node4" class="node"><title>Node4</title>
<g id="a_node4"><a xlink:href="../../df/d50/classmodel_1_1_turtle_set_manager.html#afda0d203a1b72aa246aadb8c2efaef8d" target="_top" xlink:title="model.TurtleSetManager.regulate\lTurtleDepth">
<polygon fill="white" stroke="black" points="188,-25 188,-55 364,-55 364,-25 188,-25"/>
<text text-anchor="start" x="196" y="-43" font-family="Helvetica,sans-Serif" font-size="10.00">model.TurtleSetManager.regulate</text>
<text text-anchor="middle" x="276" y="-32" font-family="Helvetica,sans-Serif" font-size="10.00">TurtleDepth</text>
</a>
</g>
</g>
<!-- Node1&#45;&gt;Node4 -->
<g id="edge3" class="edge"><title>Node1&#45;&gt;Node4</title>
<path fill="none" stroke="midnightblue" d="M162.39,-40C170.865,-40 179.475,-40 187.966,-40"/>
<polygon fill="midnightblue" stroke="midnightblue" points="162.138,-36.5001 152.138,-40 162.138,-43.5001 162.138,-36.5001"/>
</g>
<!-- Node4&#45;&gt;Node2 -->
<g id="edge4" class="edge"><title>Node4&#45;&gt;Node2</title>
<path fill="none" stroke="midnightblue" d="M374.322,-54.772C386.397,-56.6049 398.704,-58.4729 410.667,-60.2888"/>
<polygon fill="midnightblue" stroke="midnightblue" points="374.658,-51.283 364.246,-53.2426 373.607,-58.2038 374.658,-51.283"/>
</g>
<!-- Node4&#45;&gt;Node3 -->
<g id="edge5" class="edge"><title>Node4&#45;&gt;Node3</title>
<path fill="none" stroke="midnightblue" d="M374.275,-29.1434C382.875,-28.1836 391.593,-27.2106 400.222,-26.2476"/>
<polygon fill="midnightblue" stroke="midnightblue" points="373.796,-25.6751 364.246,-30.2628 374.572,-32.6319 373.796,-25.6751"/>
</g>
</g>
</svg>
