<?xml version="1.0" encoding="UTF-8" standalone="no"?>
<!DOCTYPE svg PUBLIC "-//W3C//DTD SVG 1.1//EN"
 "http://www.w3.org/Graphics/SVG/1.1/DTD/svg11.dtd">
<!-- Generated by graphviz version 2.36.0 (20140111.2315)
 -->
<!-- Title: model.TurtleSetManager.getAllTurtles Pages: 1 -->
<!--zoomable 1362 -->
<svg id="main" version="1.1" xmlns="http://www.w3.org/2000/svg" xmlns:xlink="http://www.w3.org/1999/xlink" xml:space="preserve" onload="init(evt)">
<style type="text/css"><![CDATA[
.edge:hover path { stroke: red; }
.edge:hover polygon { stroke: red; fill: red; }
]]></style>
<script type="text/javascript"><![CDATA[
var edges = document.getElementsByTagName('g');
if (edges && edges.length) {
  for (var i=0;i<edges.length;i++) {
    if (edges[i].id.substr(0,4)=='edge') {
      edges[i].setAttribute('class','edge');
    }
  }
}
]]></script>
        <defs>
                <circle id="rim" cx="0" cy="0" r="7"/>
                <circle id="rim2" cx="0" cy="0" r="3.5"/>
                <g id="zoomPlus">
                        <use xlink:href="#rim" fill="#404040">
                                <set attributeName="fill" to="#808080" begin="zoomplus.mouseover" end="zoomplus.mouseout"/>
                        </use>
                        <path d="M-4,0h8M0,-4v8" fill="none" stroke="white" stroke-width="1.5" pointer-events="none"/>
                </g>
                <g id="zoomMin">
                        <use xlink:href="#rim" fill="#404040">
                                <set attributeName="fill" to="#808080" begin="zoomminus.mouseover" end="zoomminus.mouseout"/>
                        </use>
                        <path d="M-4,0h8" fill="none" stroke="white" stroke-width="1.5" pointer-events="none"/>
                </g>
                <g id="dirArrow">
                        <path fill="none" stroke="white" stroke-width="1.5" d="M0,-3.0v7 M-2.5,-0.5L0,-3.0L2.5,-0.5"/>
                </g>
               <g id="resetDef">
                       <use xlink:href="#rim2" fill="#404040">
                               <set attributeName="fill" to="#808080" begin="reset.mouseover" end="reset.mouseout"/>
                       </use>
               </g>
        </defs>

<script type="text/javascript">
var viewWidth = 1558;
var viewHeight = 1362;
var sectionId = 'dynsection-3';
</script>
<script xlink:href="../../svgpan.js"/>
<svg id="graph" class="graph">
<g id="viewport">
<title>model.TurtleSetManager.getAllTurtles</title>
<polygon fill="white" stroke="none" points="-4,4 -4,-1358 1554,-1358 1554,4 -4,4"/>
<!-- Node1 -->
<g id="node1" class="node"><title>Node1</title>
<polygon fill="#bfbfbf" stroke="black" points="0,-1275 0,-1305 152,-1305 152,-1275 0,-1275"/>
<text text-anchor="start" x="8" y="-1293" font-family="Helvetica,sans-Serif" font-size="10.00">model.TurtleSetManager.get</text>
<text text-anchor="middle" x="76" y="-1282" font-family="Helvetica,sans-Serif" font-size="10.00">AllTurtles</text>
</g>
<!-- Node2 -->
<g id="node2" class="node"><title>Node2</title>
<g id="a_node2"><a xlink:href="../../db/d38/classcommands_1_1_ask_with_command.html#a5ee6a090e94729d84ef423a454d446eb" target="_top" xlink:title="commands.AskWithCommand.execute\lCommand">
<polygon fill="white" stroke="black" points="888.5,-1323 888.5,-1353 1091.5,-1353 1091.5,-1323 888.5,-1323"/>
<text text-anchor="start" x="896.5" y="-1341" font-family="Helvetica,sans-Serif" font-size="10.00">commands.AskWithCommand.execute</text>
<text text-anchor="middle" x="990" y="-1330" font-family="Helvetica,sans-Serif" font-size="10.00">Command</text>
</a>
</g>
</g>
<!-- Node1&#45;&gt;Node2 -->
<g id="edge1" class="edge"><title>Node1&#45;&gt;Node2</title>
<path fill="none" stroke="midnightblue" d="M162.297,-1301.49C170.968,-1302.43 179.653,-1303.3 188,-1304 439.389,-1325.15 736.329,-1333.4 888.303,-1336.41"/>
<polygon fill="midnightblue" stroke="midnightblue" points="162.474,-1297.98 152.144,-1300.34 161.686,-1304.94 162.474,-1297.98"/>
</g>
<!-- Node3 -->
<g id="node3" class="node"><title>Node3</title>
<g id="a_node3"><a xlink:href="../../d1/d53/classcommands_1_1_tell_command.html#a516b9cdfe48014e8b0d8b9275a886b8f" target="_top" xlink:title="commands.TellCommand.execute\lCommand">
<polygon fill="white" stroke="black" points="654.5,-1275 654.5,-1305 833.5,-1305 833.5,-1275 654.5,-1275"/>
<text text-anchor="start" x="662.5" y="-1293" font-family="Helvetica,sans-Serif" font-size="10.00">commands.TellCommand.execute</text>
<text text-anchor="middle" x="744" y="-1282" font-family="Helvetica,sans-Serif" font-size="10.00">Command</text>
</a>
</g>
</g>
<!-- Node1&#45;&gt;Node3 -->
<g id="edge2" class="edge"><title>Node1&#45;&gt;Node3</title>
<path fill="none" stroke="midnightblue" d="M162.15,-1290C288.847,-1290 525.833,-1290 654.464,-1290"/>
<polygon fill="midnightblue" stroke="midnightblue" points="162.104,-1286.5 152.104,-1290 162.104,-1293.5 162.104,-1286.5"/>
</g>
<!-- Node5 -->
<g id="node5" class="node"><title>Node5</title>
<g id="a_node5"><a xlink:href="../../db/db5/classview_1_1panes_1_1_view_pane_module.html#aa2a1bf15bc036ee4237bf63749d85baf" target="_top" xlink:title="view.panes.ViewPaneModule.updateView">
<polygon fill="white" stroke="black" points="188.5,-680.5 188.5,-699.5 397.5,-699.5 397.5,-680.5 188.5,-680.5"/>
<text text-anchor="middle" x="293" y="-687.5" font-family="Helvetica,sans-Serif" font-size="10.00">view.panes.ViewPaneModule.updateView</text>
</a>
</g>
</g>
<!-- Node1&#45;&gt;Node5 -->
<g id="edge5" class="edge"><title>Node1&#45;&gt;Node5</title>
<path fill="none" stroke="midnightblue" d="M85.8553,-1265.29C122.85,-1162.05 264.243,-767.46 288.461,-699.877"/>
<polygon fill="midnightblue" stroke="midnightblue" points="82.5007,-1264.27 82.4222,-1274.87 89.0904,-1266.64 82.5007,-1264.27"/>
</g>
<!-- Node3&#45;&gt;Node2 -->
<g id="edge4" class="edge"><title>Node3&#45;&gt;Node2</title>
<path fill="none" stroke="midnightblue" d="M831.556,-1307.03C858.049,-1312.24 886.983,-1317.93 912.738,-1323"/>
<polygon fill="midnightblue" stroke="midnightblue" points="832.021,-1303.55 821.534,-1305.06 830.67,-1310.42 832.021,-1303.55"/>
</g>
<!-- Node4 -->
<g id="node4" class="node"><title>Node4</title>
<g id="a_node4"><a xlink:href="../../d9/d35/classcommands_1_1_ask_command.html#ae4ba28c73ce0b5112e4032bd21a951f5" target="_top" xlink:title="commands.AskCommand.execute\lCommand">
<polygon fill="white" stroke="black" points="899,-1274 899,-1304 1081,-1304 1081,-1274 899,-1274"/>
<text text-anchor="start" x="907" y="-1292" font-family="Helvetica,sans-Serif" font-size="10.00">commands.AskCommand.execute</text>
<text text-anchor="middle" x="990" y="-1281" font-family="Helvetica,sans-Serif" font-size="10.00">Command</text>
</a>
</g>
</g>
<!-- Node3&#45;&gt;Node4 -->
<g id="edge3" class="edge"><title>Node3&#45;&gt;Node4</title>
<path fill="none" stroke="midnightblue" d="M844.027,-1289.59C862.091,-1289.52 880.852,-1289.44 898.649,-1289.37"/>
<polygon fill="midnightblue" stroke="midnightblue" points="843.765,-1286.1 833.78,-1289.64 843.794,-1293.1 843.765,-1286.1"/>
</g>
<!-- Node6 -->
<g id="node6" class="node"><title>Node6</title>
<g id="a_node6"><a xlink:href="../../d3/d42/classmodel_1_1_model.html#a76160d002c1e68b566307ac44356f6e5" target="_top" xlink:title="model.Model.notifyView">
<polygon fill="white" stroke="black" points="461.5,-680.5 461.5,-699.5 590.5,-699.5 590.5,-680.5 461.5,-680.5"/>
<text text-anchor="middle" x="526" y="-687.5" font-family="Helvetica,sans-Serif" font-size="10.00">model.Model.notifyView</text>
</a>
</g>
</g>
<!-- Node5&#45;&gt;Node6 -->
<g id="edge6" class="edge"><title>Node5&#45;&gt;Node6</title>
<path fill="none" stroke="midnightblue" d="M407.881,-690C426.282,-690 444.739,-690 461.381,-690"/>
<polygon fill="midnightblue" stroke="midnightblue" points="407.675,-686.5 397.675,-690 407.675,-693.5 407.675,-686.5"/>
</g>
<!-- Node38 -->
<g id="node38" class="node"><title>Node38</title>
<g id="a_node38"><a xlink:href="../../db/db5/classview_1_1panes_1_1_view_pane_module.html#a200bd9d0cb7f1fb3482afb7f085939cd" target="_top" xlink:title="view.panes.ViewPaneModule.toggle\lActive">
<polygon fill="white" stroke="black" points="434,-609 434,-639 618,-639 618,-609 434,-609"/>
<text text-anchor="start" x="442" y="-627" font-family="Helvetica,sans-Serif" font-size="10.00">view.panes.ViewPaneModule.toggle</text>
<text text-anchor="middle" x="526" y="-616" font-family="Helvetica,sans-Serif" font-size="10.00">Active</text>
</a>
</g>
</g>
<!-- Node5&#45;&gt;Node38 -->
<g id="edge40" class="edge"><title>Node5&#45;&gt;Node38</title>
<path fill="none" stroke="midnightblue" d="M337.387,-677.604C375.586,-666.69 431.327,-650.764 472.125,-639.107"/>
<polygon fill="midnightblue" stroke="midnightblue" points="336.243,-674.29 327.589,-680.403 338.166,-681.021 336.243,-674.29"/>
</g>
<!-- Node7 -->
<g id="node7" class="node"><title>Node7</title>
<g id="a_node7"><a xlink:href="../../dd/dd6/classcommands_1_1_command.html#abafa69601e87c34d4453cf84349d6f9c" target="_top" xlink:title="commands.Command.execute\lCommand">
<polygon fill="white" stroke="black" points="661.5,-686 661.5,-716 826.5,-716 826.5,-686 661.5,-686"/>
<text text-anchor="start" x="669.5" y="-704" font-family="Helvetica,sans-Serif" font-size="10.00">commands.Command.execute</text>
<text text-anchor="middle" x="744" y="-693" font-family="Helvetica,sans-Serif" font-size="10.00">Command</text>
</a>
</g>
</g>
<!-- Node6&#45;&gt;Node7 -->
<g id="edge7" class="edge"><title>Node6&#45;&gt;Node7</title>
<path fill="none" stroke="midnightblue" d="M600.686,-693.753C620.222,-694.747 641.428,-695.827 661.359,-696.842"/>
<polygon fill="midnightblue" stroke="midnightblue" points="600.804,-690.254 590.639,-693.241 600.448,-697.245 600.804,-690.254"/>
</g>
<!-- Node34 -->
<g id="node34" class="node"><title>Node34</title>
<g id="a_node34"><a xlink:href="../../d3/d42/classmodel_1_1_model.html#a73435cc7a2b6100031bbdd2cf6d6b4e8" target="_top" xlink:title="model.Model.updateModel">
<polygon fill="white" stroke="black" points="672.5,-647.5 672.5,-666.5 815.5,-666.5 815.5,-647.5 672.5,-647.5"/>
<text text-anchor="middle" x="744" y="-654.5" font-family="Helvetica,sans-Serif" font-size="10.00">model.Model.updateModel</text>
</a>
</g>
</g>
<!-- Node6&#45;&gt;Node34 -->
<g id="edge36" class="edge"><title>Node6&#45;&gt;Node34</title>
<path fill="none" stroke="midnightblue" d="M599.116,-678.982C625.476,-674.955 655.053,-670.436 680.505,-666.548"/>
<polygon fill="midnightblue" stroke="midnightblue" points="598.543,-675.529 589.186,-680.499 599.6,-682.449 598.543,-675.529"/>
</g>
<!-- Node7&#45;&gt;Node2 -->
<g id="edge22" class="edge"><title>Node7&#45;&gt;Node2</title>
<path fill="none" stroke="midnightblue" d="M746.568,-726.463C753.546,-831.266 785.247,-1227.77 870,-1313 875.359,-1318.39 881.564,-1322.76 888.271,-1326.28"/>
<polygon fill="midnightblue" stroke="midnightblue" points="750.042,-725.951 745.903,-716.198 743.057,-726.404 750.042,-725.951"/>
</g>
<!-- Node7&#45;&gt;Node4 -->
<g id="edge18" class="edge"><title>Node7&#45;&gt;Node4</title>
<path fill="none" stroke="midnightblue" d="M747.018,-726.02C755.498,-824.844 791.507,-1186.4 870,-1264 878.107,-1272.01 888.088,-1277.76 898.793,-1281.84"/>
<polygon fill="midnightblue" stroke="midnightblue" points="750.505,-725.714 746.179,-716.043 743.529,-726.301 750.505,-725.714"/>
</g>
<!-- Node8 -->
<g id="node8" class="node"><title>Node8</title>
<g id="a_node8"><a xlink:href="../../d1/d79/classcommands_1_1_sum_command.html#a792945436d0c3ff1f58301fcc50f5ae1" target="_top" xlink:title="commands.SumCommand.execute\lCommand">
<polygon fill="white" stroke="black" points="896,-980 896,-1010 1084,-1010 1084,-980 896,-980"/>
<text text-anchor="start" x="904" y="-998" font-family="Helvetica,sans-Serif" font-size="10.00">commands.SumCommand.execute</text>
<text text-anchor="middle" x="990" y="-987" font-family="Helvetica,sans-Serif" font-size="10.00">Command</text>
</a>
</g>
</g>
<!-- Node7&#45;&gt;Node8 -->
<g id="edge8" class="edge"><title>Node7&#45;&gt;Node8</title>
<path fill="none" stroke="midnightblue" d="M748.998,-726.125C758.945,-779.911 790.033,-906.459 870,-970 877.686,-976.107 886.505,-980.82 895.794,-984.445"/>
<polygon fill="midnightblue" stroke="midnightblue" points="752.412,-725.332 747.233,-716.089 745.518,-726.544 752.412,-725.332"/>
</g>
<!-- Node9 -->
<g id="node9" class="node"><title>Node9</title>
<g id="a_node9"><a xlink:href="../../d6/dc0/classcommands_1_1_repeat_command.html#a40fb82831e8b2beaa7e31913e46e15eb" target="_top" xlink:title="commands.RepeatCommand.execute\lCommand">
<polygon fill="white" stroke="black" points="891,-931 891,-961 1089,-961 1089,-931 891,-931"/>
<text text-anchor="start" x="899" y="-949" font-family="Helvetica,sans-Serif" font-size="10.00">commands.RepeatCommand.execute</text>
<text text-anchor="middle" x="990" y="-938" font-family="Helvetica,sans-Serif" font-size="10.00">Command</text>
</a>
</g>
</g>
<!-- Node7&#45;&gt;Node9 -->
<g id="edge9" class="edge"><title>Node7&#45;&gt;Node9</title>
<path fill="none" stroke="midnightblue" d="M751.749,-726.021C765.611,-772.342 801.862,-871.259 870,-921 876.394,-925.668 883.468,-929.504 890.886,-932.653"/>
<polygon fill="midnightblue" stroke="midnightblue" points="755.051,-724.838 748.913,-716.202 748.326,-726.78 755.051,-724.838"/>
</g>
<!-- Node10 -->
<g id="node10" class="node"><title>Node10</title>
<g id="a_node10"><a xlink:href="../../dd/d82/classcommands_1_1_remainder_command.html#a99d4baf3f1b4a3c8d0cd69274380a2cf" target="_top" xlink:title="commands.RemainderCommand.execute\lCommand">
<polygon fill="white" stroke="black" points="882,-882 882,-912 1098,-912 1098,-882 882,-882"/>
<text text-anchor="start" x="890" y="-900" font-family="Helvetica,sans-Serif" font-size="10.00">commands.RemainderCommand.execute</text>
<text text-anchor="middle" x="990" y="-889" font-family="Helvetica,sans-Serif" font-size="10.00">Command</text>
</a>
</g>
</g>
<!-- Node7&#45;&gt;Node10 -->
<g id="edge10" class="edge"><title>Node7&#45;&gt;Node10</title>
<path fill="none" stroke="midnightblue" d="M755.73,-725.511C773.625,-763.335 813.281,-835.379 870,-872 876.03,-875.893 882.557,-879.193 889.343,-881.989"/>
<polygon fill="midnightblue" stroke="midnightblue" points="758.822,-723.858 751.458,-716.241 752.465,-726.788 758.822,-723.858"/>
</g>
<!-- Node11 -->
<g id="node11" class="node"><title>Node11</title>
<g id="a_node11"><a xlink:href="../../df/df5/classcommands_1_1_minus_command.html#a82548bbb25a73194469e1ff81b19cf27" target="_top" xlink:title="commands.MinusCommand.execute\lCommand">
<polygon fill="white" stroke="black" points="893.5,-833 893.5,-863 1086.5,-863 1086.5,-833 893.5,-833"/>
<text text-anchor="start" x="901.5" y="-851" font-family="Helvetica,sans-Serif" font-size="10.00">commands.MinusCommand.execute</text>
<text text-anchor="middle" x="990" y="-840" font-family="Helvetica,sans-Serif" font-size="10.00">Command</text>
</a>
</g>
</g>
<!-- Node7&#45;&gt;Node11 -->
<g id="edge11" class="edge"><title>Node7&#45;&gt;Node11</title>
<path fill="none" stroke="midnightblue" d="M761.952,-724.206C783.714,-752.203 824.176,-798.548 870,-823 877.357,-826.926 885.277,-830.235 893.41,-833.025"/>
<polygon fill="midnightblue" stroke="midnightblue" points="764.659,-721.983 755.814,-716.151 759.092,-726.226 764.659,-721.983"/>
</g>
<!-- Node12 -->
<g id="node12" class="node"><title>Node12</title>
<g id="a_node12"><a xlink:href="../../d3/d37/classcommands_1_1_set_background_command.html#a91dc8e21948a301c55af1cef90b77962" target="_top" xlink:title="commands.SetBackgroundCommand.execute\lCommand">
<polygon fill="white" stroke="black" points="870.5,-784 870.5,-814 1109.5,-814 1109.5,-784 870.5,-784"/>
<text text-anchor="start" x="878.5" y="-802" font-family="Helvetica,sans-Serif" font-size="10.00">commands.SetBackgroundCommand.execute</text>
<text text-anchor="middle" x="990" y="-791" font-family="Helvetica,sans-Serif" font-size="10.00">Command</text>
</a>
</g>
</g>
<!-- Node7&#45;&gt;Node12 -->
<g id="edge12" class="edge"><title>Node7&#45;&gt;Node12</title>
<path fill="none" stroke="midnightblue" d="M774.518,-721.926C799.015,-738.364 835.33,-760.64 870,-774 879.948,-777.833 890.602,-781.127 901.296,-783.945"/>
<polygon fill="midnightblue" stroke="midnightblue" points="776.288,-718.897 766.052,-716.161 772.348,-724.683 776.288,-718.897"/>
</g>
<!-- Node13 -->
<g id="node13" class="node"><title>Node13</title>
<g id="a_node13"><a xlink:href="../../d8/dba/classcommands_1_1_product_command.html#a8bc20bc7c21a944405f599dbcfa57e67" target="_top" xlink:title="commands.ProductCommand.execute\lCommand">
<polygon fill="white" stroke="black" points="889,-735 889,-765 1091,-765 1091,-735 889,-735"/>
<text text-anchor="start" x="897" y="-753" font-family="Helvetica,sans-Serif" font-size="10.00">commands.ProductCommand.execute</text>
<text text-anchor="middle" x="990" y="-742" font-family="Helvetica,sans-Serif" font-size="10.00">Command</text>
</a>
</g>
</g>
<!-- Node7&#45;&gt;Node13 -->
<g id="edge13" class="edge"><title>Node7&#45;&gt;Node13</title>
<path fill="none" stroke="midnightblue" d="M829.852,-718.04C857.331,-723.558 887.588,-729.634 914.275,-734.994"/>
<polygon fill="midnightblue" stroke="midnightblue" points="830.36,-714.572 819.866,-716.035 828.981,-721.435 830.36,-714.572"/>
</g>
<!-- Node14 -->
<g id="node14" class="node"><title>Node14</title>
<g id="a_node14"><a xlink:href="../../dd/d40/classcommands_1_1_quotient_command.html#a7e23b237cc68512dcbe6a65feb7c39e8" target="_top" xlink:title="commands.QuotientCommand.execute\lCommand">
<polygon fill="white" stroke="black" points="887,-686 887,-716 1093,-716 1093,-686 887,-686"/>
<text text-anchor="start" x="895" y="-704" font-family="Helvetica,sans-Serif" font-size="10.00">commands.QuotientCommand.execute</text>
<text text-anchor="middle" x="990" y="-693" font-family="Helvetica,sans-Serif" font-size="10.00">Command</text>
</a>
</g>
</g>
<!-- Node7&#45;&gt;Node14 -->
<g id="edge14" class="edge"><title>Node7&#45;&gt;Node14</title>
<path fill="none" stroke="midnightblue" d="M836.64,-701C852.963,-701 870.061,-701 886.661,-701"/>
<polygon fill="midnightblue" stroke="midnightblue" points="836.588,-697.5 826.588,-701 836.588,-704.5 836.588,-697.5"/>
</g>
<!-- Node15 -->
<g id="node15" class="node"><title>Node15</title>
<g id="a_node15"><a xlink:href="../../dc/d68/classcommands_1_1_make_variable_command.html#ad0e0974744cc969c12c67805c2460ef4" target="_top" xlink:title="commands.MakeVariableCommand.execute\lCommand">
<polygon fill="white" stroke="black" points="875.5,-637 875.5,-667 1104.5,-667 1104.5,-637 875.5,-637"/>
<text text-anchor="start" x="883.5" y="-655" font-family="Helvetica,sans-Serif" font-size="10.00">commands.MakeVariableCommand.execute</text>
<text text-anchor="middle" x="990" y="-644" font-family="Helvetica,sans-Serif" font-size="10.00">Command</text>
</a>
</g>
</g>
<!-- Node7&#45;&gt;Node15 -->
<g id="edge15" class="edge"><title>Node7&#45;&gt;Node15</title>
<path fill="none" stroke="midnightblue" d="M829.852,-683.96C857.331,-678.442 887.588,-672.366 914.275,-667.006"/>
<polygon fill="midnightblue" stroke="midnightblue" points="828.981,-680.565 819.866,-685.965 830.36,-687.428 828.981,-680.565"/>
</g>
<!-- Node16 -->
<g id="node16" class="node"><title>Node16</title>
<g id="a_node16"><a xlink:href="../../d8/ded/classcommands_1_1_difference_command.html#a0c34c43d3bb266ef3e48ae27be938a0f" target="_top" xlink:title="commands.DifferenceCommand.execute\lCommand">
<polygon fill="white" stroke="black" points="883,-588 883,-618 1097,-618 1097,-588 883,-588"/>
<text text-anchor="start" x="891" y="-606" font-family="Helvetica,sans-Serif" font-size="10.00">commands.DifferenceCommand.execute</text>
<text text-anchor="middle" x="990" y="-595" font-family="Helvetica,sans-Serif" font-size="10.00">Command</text>
</a>
</g>
</g>
<!-- Node7&#45;&gt;Node16 -->
<g id="edge16" class="edge"><title>Node7&#45;&gt;Node16</title>
<path fill="none" stroke="midnightblue" d="M825.013,-681.48C828.131,-679.801 831.142,-677.978 834,-676 856.219,-660.619 847.221,-641.539 870,-627 875.418,-623.542 881.235,-620.567 887.278,-618.009"/>
<polygon fill="midnightblue" stroke="midnightblue" points="823.464,-678.341 815.98,-685.841 826.508,-684.645 823.464,-678.341"/>
</g>
<!-- Node17 -->
<g id="node17" class="node"><title>Node17</title>
<g id="a_node17"><a xlink:href="../../dd/d29/classcommands_1_1_clear_screen_command.html#a87e5eb0f4c3bb48ec0737da2aa431db3" target="_top" xlink:title="commands.ClearScreenCommand.execute\lCommand">
<polygon fill="white" stroke="black" points="878,-539 878,-569 1102,-569 1102,-539 878,-539"/>
<text text-anchor="start" x="886" y="-557" font-family="Helvetica,sans-Serif" font-size="10.00">commands.ClearScreenCommand.execute</text>
<text text-anchor="middle" x="990" y="-546" font-family="Helvetica,sans-Serif" font-size="10.00">Command</text>
</a>
</g>
</g>
<!-- Node7&#45;&gt;Node17 -->
<g id="edge17" class="edge"><title>Node7&#45;&gt;Node17</title>
<path fill="none" stroke="midnightblue" d="M828.723,-680.369C830.561,-679.004 832.325,-677.549 834,-676 868.068,-644.497 834.777,-608.207 870,-578 873.92,-574.639 878.179,-571.701 882.677,-569.136"/>
<polygon fill="midnightblue" stroke="midnightblue" points="826.776,-677.46 820.243,-685.801 830.552,-683.354 826.776,-677.46"/>
</g>
<!-- Node18 -->
<g id="node18" class="node"><title>Node18</title>
<g id="a_node18"><a xlink:href="../../d3/d49/classcommands_1_1_if_else_command.html#a3b3d15925117d366a69f8ebd1dbc2dbc" target="_top" xlink:title="commands.IfElseCommand.execute\lCommand">
<polygon fill="white" stroke="black" points="895,-490 895,-520 1085,-520 1085,-490 895,-490"/>
<text text-anchor="start" x="903" y="-508" font-family="Helvetica,sans-Serif" font-size="10.00">commands.IfElseCommand.execute</text>
<text text-anchor="middle" x="990" y="-497" font-family="Helvetica,sans-Serif" font-size="10.00">Command</text>
</a>
</g>
</g>
<!-- Node7&#45;&gt;Node18 -->
<g id="edge19" class="edge"><title>Node7&#45;&gt;Node18</title>
<path fill="none" stroke="midnightblue" d="M830.024,-679.729C831.406,-678.551 832.734,-677.309 834,-676 880.755,-627.643 821.468,-575.574 870,-529 877.147,-522.141 885.681,-516.992 894.851,-513.156"/>
<polygon fill="midnightblue" stroke="midnightblue" points="827.643,-677.13 821.564,-685.807 831.728,-682.815 827.643,-677.13"/>
</g>
<!-- Node20 -->
<g id="node20" class="node"><title>Node20</title>
<g id="a_node20"><a xlink:href="../../d8/d57/classcommands_1_1_for_command.html#aeb06a37d7f9845eb546425bae6ea9f58" target="_top" xlink:title="commands.ForCommand.execute\lCommand">
<polygon fill="white" stroke="black" points="900,-441 900,-471 1080,-471 1080,-441 900,-441"/>
<text text-anchor="start" x="908" y="-459" font-family="Helvetica,sans-Serif" font-size="10.00">commands.ForCommand.execute</text>
<text text-anchor="middle" x="990" y="-448" font-family="Helvetica,sans-Serif" font-size="10.00">Command</text>
</a>
</g>
</g>
<!-- Node7&#45;&gt;Node20 -->
<g id="edge21" class="edge"><title>Node7&#45;&gt;Node20</title>
<path fill="none" stroke="midnightblue" d="M830.253,-679.719C831.559,-678.543 832.81,-677.305 834,-676 893.675,-610.553 807.919,-543.169 870,-480 878.273,-471.582 888.621,-465.699 899.74,-461.644"/>
<polygon fill="midnightblue" stroke="midnightblue" points="828.09,-676.966 822.228,-685.791 832.314,-682.548 828.09,-676.966"/>
</g>
<!-- Node21 -->
<g id="node21" class="node"><title>Node21</title>
<g id="a_node21"><a xlink:href="../../d4/d02/classcommands_1_1_do_times_command.html#a1dd20e90975d905a1bce8f018e9f7f0a" target="_top" xlink:title="commands.DoTimesCommand.execute\lCommand">
<polygon fill="white" stroke="black" points="886.5,-392 886.5,-422 1093.5,-422 1093.5,-392 886.5,-392"/>
<text text-anchor="start" x="894.5" y="-410" font-family="Helvetica,sans-Serif" font-size="10.00">commands.DoTimesCommand.execute</text>
<text text-anchor="middle" x="990" y="-399" font-family="Helvetica,sans-Serif" font-size="10.00">Command</text>
</a>
</g>
</g>
<!-- Node7&#45;&gt;Node21 -->
<g id="edge23" class="edge"><title>Node7&#45;&gt;Node21</title>
<path fill="none" stroke="midnightblue" d="M830.317,-679.777C831.604,-678.583 832.834,-677.326 834,-676 906.688,-593.361 794.271,-510.862 870,-431 874.786,-425.953 880.315,-421.809 886.316,-418.418"/>
<polygon fill="midnightblue" stroke="midnightblue" points="828.14,-677.036 822.385,-685.932 832.431,-682.567 828.14,-677.036"/>
</g>
<!-- Node22 -->
<g id="node22" class="node"><title>Node22</title>
<g id="a_node22"><a xlink:href="../../dd/de4/classcommands_1_1_custom_command.html#a5ad25438a49d3e4eeba835fefe8b730a" target="_top" xlink:title="commands.CustomCommand.execute\lCommand">
<polygon fill="white" stroke="black" points="888.5,-343 888.5,-373 1091.5,-373 1091.5,-343 888.5,-343"/>
<text text-anchor="start" x="896.5" y="-361" font-family="Helvetica,sans-Serif" font-size="10.00">commands.CustomCommand.execute</text>
<text text-anchor="middle" x="990" y="-350" font-family="Helvetica,sans-Serif" font-size="10.00">Command</text>
</a>
</g>
</g>
<!-- Node7&#45;&gt;Node22 -->
<g id="edge24" class="edge"><title>Node7&#45;&gt;Node22</title>
<path fill="none" stroke="midnightblue" d="M830.815,-679.381C831.924,-678.306 832.987,-677.18 834,-676 919.749,-576.116 780.575,-478.607 870,-382 875.297,-376.277 881.549,-371.708 888.369,-368.077"/>
<polygon fill="midnightblue" stroke="midnightblue" points="828.486,-676.763 822.891,-685.759 832.875,-682.215 828.486,-676.763"/>
</g>
<!-- Node23 -->
<g id="node23" class="node"><title>Node23</title>
<g id="a_node23"><a xlink:href="../../d6/daf/classcommands_1_1_set_shape_command.html#a59c440316cf9e732b5aa2f46def94e10" target="_top" xlink:title="commands.SetShapeCommand.update\lTurtle">
<polygon fill="white" stroke="black" points="886,-294 886,-324 1094,-324 1094,-294 886,-294"/>
<text text-anchor="start" x="894" y="-312" font-family="Helvetica,sans-Serif" font-size="10.00">commands.SetShapeCommand.update</text>
<text text-anchor="middle" x="990" y="-301" font-family="Helvetica,sans-Serif" font-size="10.00">Turtle</text>
</a>
</g>
</g>
<!-- Node7&#45;&gt;Node23 -->
<g id="edge25" class="edge"><title>Node7&#45;&gt;Node23</title>
<path fill="none" stroke="midnightblue" d="M830.843,-679.405C831.943,-678.323 832.997,-677.188 834,-676 932.836,-558.839 766.85,-446.382 870,-333 874.609,-327.933 879.966,-323.766 885.807,-320.352"/>
<polygon fill="midnightblue" stroke="midnightblue" points="828.507,-676.794 822.966,-685.824 832.929,-682.22 828.507,-676.794"/>
</g>
<!-- Node24 -->
<g id="node24" class="node"><title>Node24</title>
<g id="a_node24"><a xlink:href="../../d6/d11/classcommands_1_1_set_pen_dash_command.html#a320f3b8248e3e89b2338dfefbe73f8c7" target="_top" xlink:title="commands.SetPenDashCommand.update\lTurtle">
<polygon fill="white" stroke="black" points="880,-245 880,-275 1100,-275 1100,-245 880,-245"/>
<text text-anchor="start" x="888" y="-263" font-family="Helvetica,sans-Serif" font-size="10.00">commands.SetPenDashCommand.update</text>
<text text-anchor="middle" x="990" y="-252" font-family="Helvetica,sans-Serif" font-size="10.00">Turtle</text>
</a>
</g>
</g>
<!-- Node7&#45;&gt;Node24 -->
<g id="edge26" class="edge"><title>Node7&#45;&gt;Node24</title>
<path fill="none" stroke="midnightblue" d="M830.865,-679.423C831.958,-678.335 833.005,-677.195 834,-676 889.97,-608.771 811.554,-349.088 870,-284 873.027,-280.628 876.386,-277.654 879.998,-275.034"/>
<polygon fill="midnightblue" stroke="midnightblue" points="828.524,-676.817 823.024,-685.872 832.97,-682.223 828.524,-676.817"/>
</g>
<!-- Node25 -->
<g id="node25" class="node"><title>Node25</title>
<g id="a_node25"><a xlink:href="../../dc/df3/classcommands_1_1_set_towards_command.html#ad82abd7dcaed57b3bdb3a4b87a91815a" target="_top" xlink:title="commands.SetTowardsCommand.update\lTurtle">
<polygon fill="white" stroke="black" points="882.5,-196 882.5,-226 1097.5,-226 1097.5,-196 882.5,-196"/>
<text text-anchor="start" x="890.5" y="-214" font-family="Helvetica,sans-Serif" font-size="10.00">commands.SetTowardsCommand.update</text>
<text text-anchor="middle" x="990" y="-203" font-family="Helvetica,sans-Serif" font-size="10.00">Turtle</text>
</a>
</g>
</g>
<!-- Node7&#45;&gt;Node25 -->
<g id="edge27" class="edge"><title>Node7&#45;&gt;Node25</title>
<path fill="none" stroke="midnightblue" d="M830.881,-679.437C831.97,-678.345 833.011,-677.2 834,-676 896.528,-600.117 804.678,-308.491 870,-235 873.64,-230.904 877.769,-227.393 882.249,-224.39"/>
<polygon fill="midnightblue" stroke="midnightblue" points="828.537,-676.834 823.069,-685.909 833.002,-682.225 828.537,-676.834"/>
</g>
<!-- Node26 -->
<g id="node26" class="node"><title>Node26</title>
<g id="a_node26"><a xlink:href="../../d9/db5/classcommands_1_1_set_position_command.html#aba31c4887974831a6c0d9feac8316ee6" target="_top" xlink:title="commands.SetPositionCommand.update\lTurtle">
<polygon fill="white" stroke="black" points="882.5,-147 882.5,-177 1097.5,-177 1097.5,-147 882.5,-147"/>
<text text-anchor="start" x="890.5" y="-165" font-family="Helvetica,sans-Serif" font-size="10.00">commands.SetPositionCommand.update</text>
<text text-anchor="middle" x="990" y="-154" font-family="Helvetica,sans-Serif" font-size="10.00">Turtle</text>
</a>
</g>
</g>
<!-- Node7&#45;&gt;Node26 -->
<g id="edge28" class="edge"><title>Node7&#45;&gt;Node26</title>
<path fill="none" stroke="midnightblue" d="M830.895,-679.448C831.979,-678.353 833.016,-677.204 834,-676 903.089,-591.457 797.797,-267.899 870,-186 873.693,-181.811 877.897,-178.231 882.467,-175.181"/>
<polygon fill="midnightblue" stroke="midnightblue" points="828.547,-676.849 823.105,-685.939 833.028,-682.227 828.547,-676.849"/>
</g>
<!-- Node27 -->
<g id="node27" class="node"><title>Node27</title>
<g id="a_node27"><a xlink:href="../../dd/db2/classcommands_1_1_right_command.html#ae16ecb0da3e0a2049a7382d74f315cb6" target="_top" xlink:title="commands.RightCommand.update\lTurtle">
<polygon fill="white" stroke="black" points="897.5,-98 897.5,-128 1082.5,-128 1082.5,-98 897.5,-98"/>
<text text-anchor="start" x="905.5" y="-116" font-family="Helvetica,sans-Serif" font-size="10.00">commands.RightCommand.update</text>
<text text-anchor="middle" x="990" y="-105" font-family="Helvetica,sans-Serif" font-size="10.00">Turtle</text>
</a>
</g>
</g>
<!-- Node7&#45;&gt;Node27 -->
<g id="edge29" class="edge"><title>Node7&#45;&gt;Node27</title>
<path fill="none" stroke="midnightblue" d="M830.906,-679.457C831.987,-678.359 833.02,-677.207 834,-676 909.653,-582.794 790.913,-227.311 870,-137 877.428,-128.517 886.949,-122.532 897.364,-118.371"/>
<polygon fill="midnightblue" stroke="midnightblue" points="828.556,-676.86 823.135,-685.963 833.049,-682.228 828.556,-676.86"/>
</g>
<!-- Node28 -->
<g id="node28" class="node"><title>Node28</title>
<g id="a_node28"><a xlink:href="../../dc/db3/classcommands_1_1_set_heading_command.html#a064fae1a815349b9efc6bd43f2371339" target="_top" xlink:title="commands.SetHeadingCommand.update\lTurtle">
<polygon fill="white" stroke="black" points="881.5,-49 881.5,-79 1098.5,-79 1098.5,-49 881.5,-49"/>
<text text-anchor="start" x="889.5" y="-67" font-family="Helvetica,sans-Serif" font-size="10.00">commands.SetHeadingCommand.update</text>
<text text-anchor="middle" x="990" y="-56" font-family="Helvetica,sans-Serif" font-size="10.00">Turtle</text>
</a>
</g>
</g>
<!-- Node7&#45;&gt;Node28 -->
<g id="edge30" class="edge"><title>Node7&#45;&gt;Node28</title>
<path fill="none" stroke="midnightblue" d="M830.915,-679.465C831.993,-678.364 833.024,-677.21 834,-676 916.22,-574.129 784.027,-186.724 870,-88 873.391,-84.106 877.223,-80.7375 881.38,-77.8297"/>
<polygon fill="midnightblue" stroke="midnightblue" points="828.563,-676.87 823.159,-685.983 833.067,-682.229 828.563,-676.87"/>
</g>
<!-- Node29 -->
<g id="node29" class="node"><title>Node29</title>
<g id="a_node29"><a xlink:href="../../d2/dbb/classcommands_1_1_set_pen_size_command.html#aa8dbbb22c72842b2d6f50aa169a8404e" target="_top" xlink:title="commands.SetPenSizeCommand.update\lTurtle">
<polygon fill="white" stroke="black" points="882.5,-1225 882.5,-1255 1097.5,-1255 1097.5,-1225 882.5,-1225"/>
<text text-anchor="start" x="890.5" y="-1243" font-family="Helvetica,sans-Serif" font-size="10.00">commands.SetPenSizeCommand.update</text>
<text text-anchor="middle" x="990" y="-1232" font-family="Helvetica,sans-Serif" font-size="10.00">Turtle</text>
</a>
</g>
</g>
<!-- Node7&#45;&gt;Node29 -->
<g id="edge31" class="edge"><title>Node7&#45;&gt;Node29</title>
<path fill="none" stroke="midnightblue" d="M747.609,-726.24C757.795,-819.819 797.915,-1145.15 870,-1215 873.942,-1218.82 878.31,-1222.12 882.978,-1224.97"/>
<polygon fill="midnightblue" stroke="midnightblue" points="751.084,-725.816 746.54,-716.245 744.124,-726.56 751.084,-725.816"/>
</g>
<!-- Node30 -->
<g id="node30" class="node"><title>Node30</title>
<g id="a_node30"><a xlink:href="../../d5/d21/classcommands_1_1_set_pen_color_command.html#a69a9c0161b8910c8fecc5ace219aeeb8" target="_top" xlink:title="commands.SetPenColorCommand.update\lTurtle">
<polygon fill="white" stroke="black" points="880,-1176 880,-1206 1100,-1206 1100,-1176 880,-1176"/>
<text text-anchor="start" x="888" y="-1194" font-family="Helvetica,sans-Serif" font-size="10.00">commands.SetPenColorCommand.update</text>
<text text-anchor="middle" x="990" y="-1183" font-family="Helvetica,sans-Serif" font-size="10.00">Turtle</text>
</a>
</g>
</g>
<!-- Node7&#45;&gt;Node30 -->
<g id="edge32" class="edge"><title>Node7&#45;&gt;Node30</title>
<path fill="none" stroke="midnightblue" d="M748.319,-726.389C760.323,-814.312 804.27,-1103.82 870,-1166 873.987,-1169.77 878.392,-1173.04 883.089,-1175.86"/>
<polygon fill="midnightblue" stroke="midnightblue" points="751.787,-725.914 746.984,-716.47 744.849,-726.848 751.787,-725.914"/>
</g>
<!-- Node31 -->
<g id="node31" class="node"><title>Node31</title>
<g id="a_node31"><a xlink:href="../../dc/d65/classcommands_1_1_left_command.html#abd466facd4b16e1c04a6578b4bf8e203" target="_top" xlink:title="commands.LeftCommand.update\lTurtle">
<polygon fill="white" stroke="black" points="900.5,-1127 900.5,-1157 1079.5,-1157 1079.5,-1127 900.5,-1127"/>
<text text-anchor="start" x="908.5" y="-1145" font-family="Helvetica,sans-Serif" font-size="10.00">commands.LeftCommand.update</text>
<text text-anchor="middle" x="990" y="-1134" font-family="Helvetica,sans-Serif" font-size="10.00">Turtle</text>
</a>
</g>
</g>
<!-- Node7&#45;&gt;Node31 -->
<g id="edge33" class="edge"><title>Node7&#45;&gt;Node31</title>
<path fill="none" stroke="midnightblue" d="M744.359,-726.367C743.997,-799.104 753.519,-1010 870,-1117 878.629,-1124.93 889.109,-1130.59 900.233,-1134.6"/>
<polygon fill="midnightblue" stroke="midnightblue" points="747.86,-726.332 744.48,-716.291 740.86,-726.248 747.86,-726.332"/>
</g>
<!-- Node32 -->
<g id="node32" class="node"><title>Node32</title>
<g id="a_node32"><a xlink:href="../../d6/ddc/classcommands_1_1_backward_command.html#af0c4c6ac04bea1aa34b069a01c53888f" target="_top" xlink:title="commands.BackwardCommand.update\lTurtle">
<polygon fill="white" stroke="black" points="887,-1078 887,-1108 1093,-1108 1093,-1078 887,-1078"/>
<text text-anchor="start" x="895" y="-1096" font-family="Helvetica,sans-Serif" font-size="10.00">commands.BackwardCommand.update</text>
<text text-anchor="middle" x="990" y="-1085" font-family="Helvetica,sans-Serif" font-size="10.00">Turtle</text>
</a>
</g>
</g>
<!-- Node7&#45;&gt;Node32 -->
<g id="edge34" class="edge"><title>Node7&#45;&gt;Node32</title>
<path fill="none" stroke="midnightblue" d="M745.522,-726.058C748.345,-792.724 765.703,-975.636 870,-1068 875.057,-1072.48 880.71,-1076.23 886.729,-1079.36"/>
<polygon fill="midnightblue" stroke="midnightblue" points="749.019,-725.913 745.173,-716.041 742.023,-726.157 749.019,-725.913"/>
</g>
<!-- Node33 -->
<g id="node33" class="node"><title>Node33</title>
<g id="a_node33"><a xlink:href="../../da/d4f/classcommands_1_1_forward_command.html#afe19b644a8fe0d46f3dbf19aef135364" target="_top" xlink:title="commands.ForwardCommand.update\lTurtle">
<polygon fill="white" stroke="black" points="891,-1029 891,-1059 1089,-1059 1089,-1029 891,-1029"/>
<text text-anchor="start" x="899" y="-1047" font-family="Helvetica,sans-Serif" font-size="10.00">commands.ForwardCommand.update</text>
<text text-anchor="middle" x="990" y="-1036" font-family="Helvetica,sans-Serif" font-size="10.00">Turtle</text>
</a>
</g>
</g>
<!-- Node7&#45;&gt;Node33 -->
<g id="edge35" class="edge"><title>Node7&#45;&gt;Node33</title>
<path fill="none" stroke="midnightblue" d="M747.04,-726.365C753.348,-787.05 778.085,-941.318 870,-1019 876.288,-1024.31 883.422,-1028.59 890.999,-1032.02"/>
<polygon fill="midnightblue" stroke="midnightblue" points="750.501,-725.784 746.065,-716.163 743.532,-726.451 750.501,-725.784"/>
</g>
<!-- Node19 -->
<g id="node19" class="node"><title>Node19</title>
<g id="a_node19"><a xlink:href="../../d5/dad/classcommands_1_1_if_command.html#a0d92f20941c1e79cfb1e02e77f463e68" target="_top" xlink:title="commands.IfCommand.execute\lCommand">
<polygon fill="white" stroke="black" points="1146,-490 1146,-520 1316,-520 1316,-490 1146,-490"/>
<text text-anchor="start" x="1154" y="-508" font-family="Helvetica,sans-Serif" font-size="10.00">commands.IfCommand.execute</text>
<text text-anchor="middle" x="1231" y="-497" font-family="Helvetica,sans-Serif" font-size="10.00">Command</text>
</a>
</g>
</g>
<!-- Node18&#45;&gt;Node19 -->
<g id="edge20" class="edge"><title>Node18&#45;&gt;Node19</title>
<path fill="none" stroke="midnightblue" d="M1095.5,-505C1112.27,-505 1129.45,-505 1145.68,-505"/>
<polygon fill="midnightblue" stroke="midnightblue" points="1095.12,-501.5 1085.12,-505 1095.12,-508.5 1095.12,-501.5"/>
</g>
<!-- Node35 -->
<g id="node35" class="node"><title>Node35</title>
<g id="a_node35"><a xlink:href="../../d9/df7/classcontroller_1_1_controller.html#a81fea06b52aed0a26625c5b30b490afb" target="_top" xlink:title="controller.Controller.run\lCommand">
<polygon fill="white" stroke="black" points="926,-0 926,-30 1054,-30 1054,-0 926,-0"/>
<text text-anchor="start" x="934" y="-18" font-family="Helvetica,sans-Serif" font-size="10.00">controller.Controller.run</text>
<text text-anchor="middle" x="990" y="-7" font-family="Helvetica,sans-Serif" font-size="10.00">Command</text>
</a>
</g>
</g>
<!-- Node34&#45;&gt;Node35 -->
<g id="edge37" class="edge"><title>Node34&#45;&gt;Node35</title>
<path fill="none" stroke="midnightblue" d="M824.371,-645.587C827.92,-643.165 831.172,-640.325 834,-637 920.266,-535.602 782.622,-139.442 870,-39 883.833,-23.0991 905.017,-15.9587 925.698,-13.1609"/>
<polygon fill="midnightblue" stroke="midnightblue" points="822.609,-642.563 815.603,-650.511 826.036,-648.666 822.609,-642.563"/>
</g>
<!-- Node36 -->
<g id="node36" class="node"><title>Node36</title>
<g id="a_node36"><a xlink:href="../../d9/df7/classcontroller_1_1_controller.html#afdfa7f9e9a3fb5f6b73a6b8e2b2be8b5" target="_top" xlink:title="controller.Controller.get\lInput">
<polygon fill="white" stroke="black" points="1167,-0 1167,-30 1295,-30 1295,-0 1167,-0"/>
<text text-anchor="start" x="1175" y="-18" font-family="Helvetica,sans-Serif" font-size="10.00">controller.Controller.get</text>
<text text-anchor="middle" x="1231" y="-7" font-family="Helvetica,sans-Serif" font-size="10.00">Input</text>
</a>
</g>
</g>
<!-- Node35&#45;&gt;Node36 -->
<g id="edge38" class="edge"><title>Node35&#45;&gt;Node36</title>
<path fill="none" stroke="midnightblue" d="M1064.11,-15C1096.98,-15 1135.38,-15 1166.95,-15"/>
<polygon fill="midnightblue" stroke="midnightblue" points="1064.11,-11.5001 1054.11,-15 1064.11,-18.5001 1064.11,-11.5001"/>
</g>
<!-- Node37 -->
<g id="node37" class="node"><title>Node37</title>
<g id="a_node37"><a xlink:href="../../d3/dc7/classview_1_1controllers_1_1_pane_controller.html#a7e6154aecb60d8f3bcb056a11e842764" target="_top" xlink:title="view.controllers.PaneController.update">
<polygon fill="white" stroke="black" points="1352,-5.5 1352,-24.5 1550,-24.5 1550,-5.5 1352,-5.5"/>
<text text-anchor="middle" x="1451" y="-12.5" font-family="Helvetica,sans-Serif" font-size="10.00">view.controllers.PaneController.update</text>
</a>
</g>
</g>
<!-- Node36&#45;&gt;Node37 -->
<g id="edge39" class="edge"><title>Node36&#45;&gt;Node37</title>
<path fill="none" stroke="midnightblue" d="M1305.22,-15C1320.16,-15 1336.11,-15 1351.76,-15"/>
<polygon fill="midnightblue" stroke="midnightblue" points="1305.05,-11.5001 1295.05,-15 1305.05,-18.5001 1305.05,-11.5001"/>
</g>
<!-- Node39 -->
<g id="node39" class="node"><title>Node39</title>
<g id="a_node39"><a xlink:href="../../d8/daa/classview_1_1panes_1_1_turtle_selector_pane.html#a14e3fbe35c7447dcdf2f0910333cedcc" target="_top" xlink:title="view.panes.TurtleSelector\lPane.TurtleSelectorPane">
<polygon fill="white" stroke="black" points="675.5,-598 675.5,-628 812.5,-628 812.5,-598 675.5,-598"/>
<text text-anchor="start" x="683.5" y="-616" font-family="Helvetica,sans-Serif" font-size="10.00">view.panes.TurtleSelector</text>
<text text-anchor="middle" x="744" y="-605" font-family="Helvetica,sans-Serif" font-size="10.00">Pane.TurtleSelectorPane</text>
</a>
</g>
</g>
<!-- Node38&#45;&gt;Node39 -->
<g id="edge41" class="edge"><title>Node38&#45;&gt;Node39</title>
<path fill="none" stroke="midnightblue" d="M628.648,-618.823C644.473,-618.018 660.479,-617.202 675.303,-616.448"/>
<polygon fill="midnightblue" stroke="midnightblue" points="628.099,-615.347 618.29,-619.351 628.455,-622.338 628.099,-615.347"/>
</g>
</g>
</svg>
        <g id="navigator" transform="translate(0 0)" fill="#404254">
                <rect fill="#f2f5e9" fill-opacity="0.5" stroke="#606060" stroke-width=".5" x="0" y="0" width="60" height="60"/>
                <use id="zoomplus" xlink:href="#zoomPlus" x="17" y="9" onmousedown="handleZoom(evt,'in')"/>
                <use id="zoomminus" xlink:href="#zoomMin" x="42" y="9" onmousedown="handleZoom(evt,'out')"/>
                <use id="reset" xlink:href="#resetDef" x="30" y="36" onmousedown="handleReset()"/>
                <g id="arrowUp" xlink:href="#dirArrow" transform="translate(30 24)" onmousedown="handlePan(0,-1)">
                  <use xlink:href="#rim" fill="#404040">
                        <set attributeName="fill" to="#808080" begin="arrowUp.mouseover" end="arrowUp.mouseout"/>
                  </use>
                  <path fill="none" stroke="white" stroke-width="1.5" d="M0,-3.0v7 M-2.5,-0.5L0,-3.0L2.5,-0.5"/>
                </g>
                <g id="arrowRight" xlink:href="#dirArrow" transform="rotate(90) translate(36 -43)" onmousedown="handlePan(1,0)">
                  <use xlink:href="#rim" fill="#404040">
                        <set attributeName="fill" to="#808080" begin="arrowRight.mouseover" end="arrowRight.mouseout"/>
                  </use>
                  <path fill="none" stroke="white" stroke-width="1.5" d="M0,-3.0v7 M-2.5,-0.5L0,-3.0L2.5,-0.5"/>
                </g>
                <g id="arrowDown" xlink:href="#dirArrow" transform="rotate(180) translate(-30 -48)" onmousedown="handlePan(0,1)">
                  <use xlink:href="#rim" fill="#404040">
                        <set attributeName="fill" to="#808080" begin="arrowDown.mouseover" end="arrowDown.mouseout"/>
                  </use>
                  <path fill="none" stroke="white" stroke-width="1.5" d="M0,-3.0v7 M-2.5,-0.5L0,-3.0L2.5,-0.5"/>
                </g>
                <g id="arrowLeft" xlink:href="#dirArrow" transform="rotate(270) translate(-36 17)" onmousedown="handlePan(-1,0)">
                  <use xlink:href="#rim" fill="#404040">
                        <set attributeName="fill" to="#808080" begin="arrowLeft.mouseover" end="arrowLeft.mouseout"/>
                  </use>
                  <path fill="none" stroke="white" stroke-width="1.5" d="M0,-3.0v7 M-2.5,-0.5L0,-3.0L2.5,-0.5"/>
                </g>
        </g>
        <svg viewBox="0 0 15 15" width="100%" height="30px" preserveAspectRatio="xMaxYMin meet">
         <g id="arrow_out" transform="scale(0.3 0.3)">
          <a xlink:href="classmodel_1_1_turtle_set_manager_a9e215e93eccbed2ab9ebec6119cfe305_icgraph_org.svg" target="_base">
           <rect id="button" ry="5" rx="5" y="6" x="6" height="38" width="38"
                fill="#f2f5e9" fill-opacity="0.5" stroke="#606060" stroke-width="1.0"/>
           <path id="arrow"
             d="M 11.500037,31.436501 C 11.940474,20.09759 22.043105,11.32322 32.158766,21.979434 L 37.068811,17.246167 C 37.068811,17.246167 37.088388,32 37.088388,32 L 22.160133,31.978069 C 22.160133,31.978069 26.997745,27.140456 26.997745,27.140456 C 18.528582,18.264221 13.291696,25.230495 11.500037,31.436501 z"
             style="fill:#404040;"/>
          </a>
         </g>
        </svg>
</svg>
