<?xml version="1.0" encoding="UTF-8" standalone="no"?>
<!DOCTYPE svg PUBLIC "-//W3C//DTD SVG 1.1//EN"
 "http://www.w3.org/Graphics/SVG/1.1/DTD/svg11.dtd">
<!-- Generated by graphviz version 2.36.0 (20140111.2315)
 -->
<!-- Title: model.TurtleSetManager.addTurtleCollection Pages: 1 -->
<svg width="618pt" height="87pt"
 viewBox="0.00 0.00 618.00 87.00" xmlns="http://www.w3.org/2000/svg" xmlns:xlink="http://www.w3.org/1999/xlink">
<g id="graph0" class="graph" transform="scale(1 1) rotate(0) translate(4 83)">
<title>model.TurtleSetManager.addTurtleCollection</title>
<polygon fill="white" stroke="none" points="-4,4 -4,-83 614,-83 614,4 -4,4"/>
<!-- Node1 -->
<g id="node1" class="node"><title>Node1</title>
<polygon fill="#bfbfbf" stroke="black" points="0,-24 0,-54 154,-54 154,-24 0,-24"/>
<text text-anchor="start" x="8" y="-42" font-family="Helvetica,sans-Serif" font-size="10.00">model.TurtleSetManager.add</text>
<text text-anchor="middle" x="77" y="-31" font-family="Helvetica,sans-Serif" font-size="10.00">TurtleCollection</text>
</g>
<!-- Node2 -->
<g id="node2" class="node"><title>Node2</title>
<g id="a_node2"><a xlink:href="../../d1/d53/classcommands_1_1_tell_command.html#a516b9cdfe48014e8b0d8b9275a886b8f" target="_top" xlink:title="commands.TellCommand.execute\lCommand">
<polygon fill="white" stroke="black" points="190.5,-24 190.5,-54 369.5,-54 369.5,-24 190.5,-24"/>
<text text-anchor="start" x="198.5" y="-42" font-family="Helvetica,sans-Serif" font-size="10.00">commands.TellCommand.execute</text>
<text text-anchor="middle" x="280" y="-31" font-family="Helvetica,sans-Serif" font-size="10.00">Command</text>
</a>
</g>
</g>
<!-- Node1&#45;&gt;Node2 -->
<g id="edge1" class="edge"><title>Node1&#45;&gt;Node2</title>
<path fill="none" stroke="midnightblue" d="M164.305,-39C172.917,-39 181.671,-39 190.307,-39"/>
<polygon fill="midnightblue" stroke="midnightblue" points="164.276,-35.5001 154.276,-39 164.276,-42.5001 164.276,-35.5001"/>
</g>
<!-- Node3 -->
<g id="node3" class="node"><title>Node3</title>
<g id="a_node3"><a xlink:href="../../d9/d35/classcommands_1_1_ask_command.html#ae4ba28c73ce0b5112e4032bd21a951f5" target="_top" xlink:title="commands.AskCommand.execute\lCommand">
<polygon fill="white" stroke="black" points="417,-49 417,-79 599,-79 599,-49 417,-49"/>
<text text-anchor="start" x="425" y="-67" font-family="Helvetica,sans-Serif" font-size="10.00">commands.AskCommand.execute</text>
<text text-anchor="middle" x="508" y="-56" font-family="Helvetica,sans-Serif" font-size="10.00">Command</text>
</a>
</g>
</g>
<!-- Node2&#45;&gt;Node3 -->
<g id="edge2" class="edge"><title>Node2&#45;&gt;Node3</title>
<path fill="none" stroke="midnightblue" d="M379.895,-49.9398C392.144,-51.2946 404.616,-52.6744 416.726,-54.0139"/>
<polygon fill="midnightblue" stroke="midnightblue" points="379.997,-46.4297 369.673,-48.8089 379.227,-53.3873 379.997,-46.4297"/>
</g>
<!-- Node4 -->
<g id="node4" class="node"><title>Node4</title>
<g id="a_node4"><a xlink:href="../../db/d38/classcommands_1_1_ask_with_command.html#a5ee6a090e94729d84ef423a454d446eb" target="_top" xlink:title="commands.AskWithCommand.execute\lCommand">
<polygon fill="white" stroke="black" points="406.5,-0 406.5,-30 609.5,-30 609.5,-0 406.5,-0"/>
<text text-anchor="start" x="414.5" y="-18" font-family="Helvetica,sans-Serif" font-size="10.00">commands.AskWithCommand.execute</text>
<text text-anchor="middle" x="508" y="-7" font-family="Helvetica,sans-Serif" font-size="10.00">Command</text>
</a>
</g>
</g>
<!-- Node2&#45;&gt;Node4 -->
<g id="edge3" class="edge"><title>Node2&#45;&gt;Node4</title>
<path fill="none" stroke="midnightblue" d="M379.872,-28.5003C388.616,-27.5718 397.475,-26.631 406.234,-25.7008"/>
<polygon fill="midnightblue" stroke="midnightblue" points="379.247,-25.0469 369.673,-29.5834 379.986,-32.0078 379.247,-25.0469"/>
</g>
</g>
</svg>
