<?xml version="1.0" encoding="UTF-8" standalone="no"?>
<!DOCTYPE svg PUBLIC "-//W3C//DTD SVG 1.1//EN"
 "http://www.w3.org/Graphics/SVG/1.1/DTD/svg11.dtd">
<!-- Generated by graphviz version 2.36.0 (20140111.2315)
 -->
<!-- Title: view.panes.InputPaneModule.SubmitHandler.handle Pages: 1 -->
<svg width="612pt" height="38pt"
 viewBox="0.00 0.00 612.00 38.00" xmlns="http://www.w3.org/2000/svg" xmlns:xlink="http://www.w3.org/1999/xlink">
<g id="graph0" class="graph" transform="scale(1 1) rotate(0) translate(4 34)">
<title>view.panes.InputPaneModule.SubmitHandler.handle</title>
<polygon fill="white" stroke="none" points="-4,4 -4,-34 608,-34 608,4 -4,4"/>
<!-- Node1 -->
<g id="node1" class="node"><title>Node1</title>
<polygon fill="#bfbfbf" stroke="black" points="0,-0 0,-30 156,-30 156,-0 0,-0"/>
<text text-anchor="start" x="8" y="-18" font-family="Helvetica,sans-Serif" font-size="10.00">view.panes.InputPaneModule.</text>
<text text-anchor="middle" x="78" y="-7" font-family="Helvetica,sans-Serif" font-size="10.00">SubmitHandler.handle</text>
</g>
<!-- Node2 -->
<g id="node2" class="node"><title>Node2</title>
<g id="a_node2"><a xlink:href="../../d3/d9f/classview_1_1panes_1_1_input_pane_module.html#af466f43b6cde72051115970753703086" target="_top" xlink:title="view.panes.InputPaneModule.submit">
<polygon fill="white" stroke="black" points="192.5,-5.5 192.5,-24.5 381.5,-24.5 381.5,-5.5 192.5,-5.5"/>
<text text-anchor="middle" x="287" y="-12.5" font-family="Helvetica,sans-Serif" font-size="10.00">view.panes.InputPaneModule.submit</text>
</a>
</g>
</g>
<!-- Node1&#45;&gt;Node2 -->
<g id="edge1" class="edge"><title>Node1&#45;&gt;Node2</title>
<path fill="none" stroke="midnightblue" d="M156.079,-15C164.589,-15 173.354,-15 182.123,-15"/>
<polygon fill="midnightblue" stroke="midnightblue" points="182.403,-18.5001 192.403,-15 182.403,-11.5001 182.403,-18.5001"/>
</g>
<!-- Node3 -->
<g id="node3" class="node"><title>Node3</title>
<g id="a_node3"><a xlink:href="../../d8/dd2/classview_1_1_command_string.html#a666bbe4a67f0516444f5ee29cbb5e588" target="_top" xlink:title="view.CommandString.setCommand">
<polygon fill="white" stroke="black" points="418,-5.5 418,-24.5 604,-24.5 604,-5.5 418,-5.5"/>
<text text-anchor="middle" x="511" y="-12.5" font-family="Helvetica,sans-Serif" font-size="10.00">view.CommandString.setCommand</text>
</a>
</g>
</g>
<!-- Node2&#45;&gt;Node3 -->
<g id="edge2" class="edge"><title>Node2&#45;&gt;Node3</title>
<path fill="none" stroke="midnightblue" d="M381.505,-15C390.107,-15 398.853,-15 407.529,-15"/>
<polygon fill="midnightblue" stroke="midnightblue" points="407.669,-18.5001 417.669,-15 407.669,-11.5001 407.669,-18.5001"/>
</g>
</g>
</svg>
