<?xml version="1.0" encoding="UTF-8" standalone="no"?>
<!DOCTYPE svg PUBLIC "-//W3C//DTD SVG 1.1//EN"
 "http://www.w3.org/Graphics/SVG/1.1/DTD/svg11.dtd">
<!-- Generated by graphviz version 2.36.0 (20140111.2315)
 -->
<!-- Title: commands.RepeatCommand.executeCommand Pages: 1 -->
<!--zoomable 513 -->
<svg id="main" version="1.1" xmlns="http://www.w3.org/2000/svg" xmlns:xlink="http://www.w3.org/1999/xlink" xml:space="preserve" onload="init(evt)">
<style type="text/css"><![CDATA[
.edge:hover path { stroke: red; }
.edge:hover polygon { stroke: red; fill: red; }
]]></style>
<script type="text/javascript"><![CDATA[
var edges = document.getElementsByTagName('g');
if (edges && edges.length) {
  for (var i=0;i<edges.length;i++) {
    if (edges[i].id.substr(0,4)=='edge') {
      edges[i].setAttribute('class','edge');
    }
  }
}
]]></script>
        <defs>
                <circle id="rim" cx="0" cy="0" r="7"/>
                <circle id="rim2" cx="0" cy="0" r="3.5"/>
                <g id="zoomPlus">
                        <use xlink:href="#rim" fill="#404040">
                                <set attributeName="fill" to="#808080" begin="zoomplus.mouseover" end="zoomplus.mouseout"/>
                        </use>
                        <path d="M-4,0h8M0,-4v8" fill="none" stroke="white" stroke-width="1.5" pointer-events="none"/>
                </g>
                <g id="zoomMin">
                        <use xlink:href="#rim" fill="#404040">
                                <set attributeName="fill" to="#808080" begin="zoomminus.mouseover" end="zoomminus.mouseout"/>
                        </use>
                        <path d="M-4,0h8" fill="none" stroke="white" stroke-width="1.5" pointer-events="none"/>
                </g>
                <g id="dirArrow">
                        <path fill="none" stroke="white" stroke-width="1.5" d="M0,-3.0v7 M-2.5,-0.5L0,-3.0L2.5,-0.5"/>
                </g>
               <g id="resetDef">
                       <use xlink:href="#rim2" fill="#404040">
                               <set attributeName="fill" to="#808080" begin="reset.mouseover" end="reset.mouseout"/>
                       </use>
               </g>
        </defs>

<script type="text/javascript">
var viewWidth = 1502;
var viewHeight = 513;
var sectionId = 'dynsection-2';
</script>
<script xlink:href="../../svgpan.js"/>
<svg id="graph" class="graph">
<g id="viewport">
<title>commands.RepeatCommand.executeCommand</title>
<polygon fill="white" stroke="none" points="-4,4 -4,-509 1498,-509 1498,4 -4,4"/>
<!-- Node1 -->
<g id="node1" class="node"><title>Node1</title>
<polygon fill="#bfbfbf" stroke="black" points="0,-387 0,-417 198,-417 198,-387 0,-387"/>
<text text-anchor="start" x="8" y="-405" font-family="Helvetica,sans-Serif" font-size="10.00">commands.RepeatCommand.execute</text>
<text text-anchor="middle" x="99" y="-394" font-family="Helvetica,sans-Serif" font-size="10.00">Command</text>
</g>
<!-- Node2 -->
<g id="node2" class="node"><title>Node2</title>
<g id="a_node2"><a xlink:href="../../dd/dd6/classcommands_1_1_command.html#abafa69601e87c34d4453cf84349d6f9c" target="_top" xlink:title="commands.Command.execute\lCommand">
<polygon fill="white" stroke="black" points="234.5,-387 234.5,-417 399.5,-417 399.5,-387 234.5,-387"/>
<text text-anchor="start" x="242.5" y="-405" font-family="Helvetica,sans-Serif" font-size="10.00">commands.Command.execute</text>
<text text-anchor="middle" x="317" y="-394" font-family="Helvetica,sans-Serif" font-size="10.00">Command</text>
</a>
</g>
</g>
<!-- Node1&#45;&gt;Node2 -->
<g id="edge1" class="edge"><title>Node1&#45;&gt;Node2</title>
<path fill="none" stroke="midnightblue" d="M198.203,-402C206.854,-402 215.59,-402 224.185,-402"/>
<polygon fill="midnightblue" stroke="midnightblue" points="224.198,-405.5 234.198,-402 224.198,-398.5 224.198,-405.5"/>
</g>
<!-- Node3 -->
<g id="node3" class="node"><title>Node3</title>
<g id="a_node3"><a xlink:href="../../df/d50/classmodel_1_1_turtle_set_manager.html#a9a65c0be3b9c21abaf0ebaa54e5b8484" target="_top" xlink:title="model.TurtleSetManager.get\lActiveTurtles">
<polygon fill="white" stroke="black" points="922,-450 922,-480 1074,-480 1074,-450 922,-450"/>
<text text-anchor="start" x="930" y="-468" font-family="Helvetica,sans-Serif" font-size="10.00">model.TurtleSetManager.get</text>
<text text-anchor="middle" x="998" y="-457" font-family="Helvetica,sans-Serif" font-size="10.00">ActiveTurtles</text>
</a>
</g>
</g>
<!-- Node2&#45;&gt;Node3 -->
<g id="edge2" class="edge"><title>Node2&#45;&gt;Node3</title>
<path fill="none" stroke="midnightblue" d="M399.745,-416.85C411.874,-418.764 424.245,-420.556 436,-422 604.057,-442.639 801.732,-455.043 911.866,-460.901"/>
<polygon fill="midnightblue" stroke="midnightblue" points="911.751,-464.4 921.921,-461.431 912.119,-457.409 911.751,-464.4"/>
</g>
<!-- Node4 -->
<g id="node4" class="node"><title>Node4</title>
<g id="a_node4"><a xlink:href="../../d3/d42/classmodel_1_1_model.html#a1a683ba5e58fcb3c8882c8e61df20dc0" target="_top" xlink:title="model.Model.getTurtleManager">
<polygon fill="white" stroke="black" points="916,-411.5 916,-430.5 1080,-430.5 1080,-411.5 916,-411.5"/>
<text text-anchor="middle" x="998" y="-418.5" font-family="Helvetica,sans-Serif" font-size="10.00">model.Model.getTurtleManager</text>
</a>
</g>
</g>
<!-- Node2&#45;&gt;Node4 -->
<g id="edge3" class="edge"><title>Node2&#45;&gt;Node4</title>
<path fill="none" stroke="midnightblue" d="M399.566,-404.282C526.974,-407.848 772.389,-414.715 905.592,-418.442"/>
<polygon fill="midnightblue" stroke="midnightblue" points="905.676,-421.946 915.771,-418.727 905.872,-414.949 905.676,-421.946"/>
</g>
<!-- Node5 -->
<g id="node5" class="node"><title>Node5</title>
<g id="a_node5"><a xlink:href="../../d3/d42/classmodel_1_1_model.html#a76160d002c1e68b566307ac44356f6e5" target="_top" xlink:title="model.Model.notifyView">
<polygon fill="white" stroke="black" points="464.5,-373.5 464.5,-392.5 593.5,-392.5 593.5,-373.5 464.5,-373.5"/>
<text text-anchor="middle" x="529" y="-380.5" font-family="Helvetica,sans-Serif" font-size="10.00">model.Model.notifyView</text>
</a>
</g>
</g>
<!-- Node2&#45;&gt;Node5 -->
<g id="edge4" class="edge"><title>Node2&#45;&gt;Node5</title>
<path fill="none" stroke="midnightblue" d="M399.793,-394.6C417.699,-392.98 436.553,-391.274 454.128,-389.684"/>
<polygon fill="midnightblue" stroke="midnightblue" points="454.668,-393.149 464.312,-388.762 454.037,-386.178 454.668,-393.149"/>
</g>
<!-- Node34 -->
<g id="node34" class="node"><title>Node34</title>
<g id="a_node34"><a xlink:href="../../dd/dd6/classcommands_1_1_command.html#aec3e0f888945b1811fd739ecea212324" target="_top" xlink:title="commands.Command.updateTurtle">
<polygon fill="white" stroke="black" points="436,-335.5 436,-354.5 622,-354.5 622,-335.5 436,-335.5"/>
<text text-anchor="middle" x="529" y="-342.5" font-family="Helvetica,sans-Serif" font-size="10.00">commands.Command.updateTurtle</text>
</a>
</g>
</g>
<!-- Node2&#45;&gt;Node34 -->
<g id="edge40" class="edge"><title>Node2&#45;&gt;Node34</title>
<path fill="none" stroke="midnightblue" d="M360.826,-386.978C383.079,-379.487 410.817,-370.634 436,-364 445.92,-361.387 456.519,-358.91 466.865,-356.662"/>
<polygon fill="midnightblue" stroke="midnightblue" points="467.621,-360.079 476.675,-354.579 466.167,-353.232 467.621,-360.079"/>
</g>
<!-- Node6 -->
<g id="node6" class="node"><title>Node6</title>
<g id="a_node6"><a xlink:href="../../db/db5/classview_1_1panes_1_1_view_pane_module.html#aa2a1bf15bc036ee4237bf63749d85baf" target="_top" xlink:title="view.panes.ViewPaneModule.updateView">
<polygon fill="white" stroke="black" points="658.5,-244.5 658.5,-263.5 867.5,-263.5 867.5,-244.5 658.5,-244.5"/>
<text text-anchor="middle" x="763" y="-251.5" font-family="Helvetica,sans-Serif" font-size="10.00">view.panes.ViewPaneModule.updateView</text>
</a>
</g>
</g>
<!-- Node5&#45;&gt;Node6 -->
<g id="edge5" class="edge"><title>Node5&#45;&gt;Node6</title>
<path fill="none" stroke="midnightblue" d="M593.601,-373.891C603.356,-371.356 613.125,-368.122 622,-364 672.593,-340.501 721.429,-295.468 745.843,-270.94"/>
<polygon fill="midnightblue" stroke="midnightblue" points="748.387,-273.344 752.882,-263.75 743.385,-268.447 748.387,-273.344"/>
</g>
<!-- Node6&#45;&gt;Node3 -->
<g id="edge10" class="edge"><title>Node6&#45;&gt;Node3</title>
<path fill="none" stroke="midnightblue" d="M768.485,-263.902C783.117,-295.048 832.663,-391.812 904,-440 906.929,-441.978 910.008,-443.801 913.193,-445.479"/>
<polygon fill="midnightblue" stroke="midnightblue" points="911.875,-448.727 922.412,-449.838 914.867,-442.399 911.875,-448.727"/>
</g>
<!-- Node6&#45;&gt;Node4 -->
<g id="edge9" class="edge"><title>Node6&#45;&gt;Node4</title>
<path fill="none" stroke="midnightblue" d="M770.175,-263.786C787.598,-290.518 840.052,-365.162 904,-401 908.862,-403.725 914.059,-406.079 919.417,-408.113"/>
<polygon fill="midnightblue" stroke="midnightblue" points="918.605,-411.533 929.2,-411.438 920.858,-404.906 918.605,-411.533"/>
</g>
<!-- Node7 -->
<g id="node7" class="node"><title>Node7</title>
<g id="a_node7"><a xlink:href="../../d3/d42/classmodel_1_1_model.html#a54936407d7df5ab8ef3c0ae54bcdc0ed" target="_top" xlink:title="model.Model.getBackground\lColor">
<polygon fill="white" stroke="black" points="921,-264 921,-294 1075,-294 1075,-264 921,-264"/>
<text text-anchor="start" x="929" y="-282" font-family="Helvetica,sans-Serif" font-size="10.00">model.Model.getBackground</text>
<text text-anchor="middle" x="998" y="-271" font-family="Helvetica,sans-Serif" font-size="10.00">Color</text>
</a>
</g>
</g>
<!-- Node6&#45;&gt;Node7 -->
<g id="edge6" class="edge"><title>Node6&#45;&gt;Node7</title>
<path fill="none" stroke="midnightblue" d="M852.752,-263.523C871.72,-265.558 891.73,-267.705 910.608,-269.73"/>
<polygon fill="midnightblue" stroke="midnightblue" points="910.348,-273.223 920.664,-270.809 911.095,-266.263 910.348,-273.223"/>
</g>
<!-- Node8 -->
<g id="node8" class="node"><title>Node8</title>
<g id="a_node8"><a xlink:href="../../db/db5/classview_1_1panes_1_1_view_pane_module.html#ac94ee444587349ddad19b8caee500c9c" target="_top" xlink:title="view.panes.ViewPaneModule.update\lBGColor">
<polygon fill="white" stroke="black" points="904,-215 904,-245 1092,-245 1092,-215 904,-215"/>
<text text-anchor="start" x="912" y="-233" font-family="Helvetica,sans-Serif" font-size="10.00">view.panes.ViewPaneModule.update</text>
<text text-anchor="middle" x="998" y="-222" font-family="Helvetica,sans-Serif" font-size="10.00">BGColor</text>
</a>
</g>
</g>
<!-- Node6&#45;&gt;Node8 -->
<g id="edge7" class="edge"><title>Node6&#45;&gt;Node8</title>
<path fill="none" stroke="midnightblue" d="M856.422,-244.48C868.754,-243.21 881.461,-241.901 893.96,-240.614"/>
<polygon fill="midnightblue" stroke="midnightblue" points="894.338,-244.093 903.927,-239.587 893.621,-237.13 894.338,-244.093"/>
</g>
<!-- Node9 -->
<g id="node9" class="node"><title>Node9</title>
<g id="a_node9"><a xlink:href="../../db/db5/classview_1_1panes_1_1_view_pane_module.html#abe91f8bb732e99d762bdaba51ceae04b" target="_top" xlink:title="view.panes.ViewPaneModule.toRGB">
<polygon fill="white" stroke="black" points="906,-176.5 906,-195.5 1090,-195.5 1090,-176.5 906,-176.5"/>
<text text-anchor="middle" x="998" y="-183.5" font-family="Helvetica,sans-Serif" font-size="10.00">view.panes.ViewPaneModule.toRGB</text>
</a>
</g>
</g>
<!-- Node6&#45;&gt;Node9 -->
<g id="edge8" class="edge"><title>Node6&#45;&gt;Node9</title>
<path fill="none" stroke="midnightblue" d="M787.966,-244.496C815.597,-233.802 862.543,-216.433 904,-205 913.651,-202.338 923.959,-199.87 934.068,-197.653"/>
<polygon fill="midnightblue" stroke="midnightblue" points="935.027,-201.027 944.079,-195.522 933.57,-194.181 935.027,-201.027"/>
</g>
<!-- Node10 -->
<g id="node10" class="node"><title>Node10</title>
<g id="a_node10"><a xlink:href="../../df/d50/classmodel_1_1_turtle_set_manager.html#a9e215e93eccbed2ab9ebec6119cfe305" target="_top" xlink:title="model.TurtleSetManager.get\lAllTurtles">
<polygon fill="white" stroke="black" points="922,-127 922,-157 1074,-157 1074,-127 922,-127"/>
<text text-anchor="start" x="930" y="-145" font-family="Helvetica,sans-Serif" font-size="10.00">model.TurtleSetManager.get</text>
<text text-anchor="middle" x="998" y="-134" font-family="Helvetica,sans-Serif" font-size="10.00">AllTurtles</text>
</a>
</g>
</g>
<!-- Node6&#45;&gt;Node10 -->
<g id="edge11" class="edge"><title>Node6&#45;&gt;Node10</title>
<path fill="none" stroke="midnightblue" d="M776.796,-244.229C800.605,-226.475 853.858,-188.753 904,-167 909.637,-164.555 915.572,-162.296 921.603,-160.221"/>
<polygon fill="midnightblue" stroke="midnightblue" points="922.71,-163.542 931.131,-157.112 920.539,-156.887 922.71,-163.542"/>
</g>
<!-- Node11 -->
<g id="node11" class="node"><title>Node11</title>
<g id="a_node11"><a xlink:href="../../d3/d42/classmodel_1_1_model.html#af73e838aed2c068e8f7d31bfa1cc88d7" target="_top" xlink:title="model.Model.getStamp">
<polygon fill="white" stroke="black" points="933.5,-88.5 933.5,-107.5 1062.5,-107.5 1062.5,-88.5 933.5,-88.5"/>
<text text-anchor="middle" x="998" y="-95.5" font-family="Helvetica,sans-Serif" font-size="10.00">model.Model.getStamp</text>
</a>
</g>
</g>
<!-- Node6&#45;&gt;Node11 -->
<g id="edge12" class="edge"><title>Node6&#45;&gt;Node11</title>
<path fill="none" stroke="midnightblue" d="M770.59,-244.492C788.663,-219.21 841.824,-150.008 904,-117 910.063,-113.781 916.616,-111.107 923.338,-108.885"/>
<polygon fill="midnightblue" stroke="midnightblue" points="924.676,-112.139 933.27,-105.943 922.688,-105.427 924.676,-112.139"/>
</g>
<!-- Node12 -->
<g id="node12" class="node"><title>Node12</title>
<g id="a_node12"><a xlink:href="../../db/db5/classview_1_1panes_1_1_view_pane_module.html#a44db6ae832af3ce470baa9406142b8cb" target="_top" xlink:title="view.panes.ViewPaneModule.make\lStamps">
<polygon fill="white" stroke="black" points="907.5,-39 907.5,-69 1088.5,-69 1088.5,-39 907.5,-39"/>
<text text-anchor="start" x="915.5" y="-57" font-family="Helvetica,sans-Serif" font-size="10.00">view.panes.ViewPaneModule.make</text>
<text text-anchor="middle" x="998" y="-46" font-family="Helvetica,sans-Serif" font-size="10.00">Stamps</text>
</a>
</g>
</g>
<!-- Node6&#45;&gt;Node12 -->
<g id="edge13" class="edge"><title>Node6&#45;&gt;Node12</title>
<path fill="none" stroke="midnightblue" d="M768.868,-244.27C784.262,-214.536 834.974,-124.158 904,-79 907.122,-76.9577 910.406,-75.0815 913.8,-73.358"/>
<polygon fill="midnightblue" stroke="midnightblue" points="915.372,-76.488 923.007,-69.143 912.458,-70.1233 915.372,-76.488"/>
</g>
<!-- Node19 -->
<g id="node19" class="node"><title>Node19</title>
<g id="a_node19"><a xlink:href="../../d3/d42/classmodel_1_1_model.html#a0a457f31350a460e11dc864463e0d8ff" target="_top" xlink:title="model.Model.setStamp">
<polygon fill="white" stroke="black" points="934,-0.5 934,-19.5 1062,-19.5 1062,-0.5 934,-0.5"/>
<text text-anchor="middle" x="998" y="-7.5" font-family="Helvetica,sans-Serif" font-size="10.00">model.Model.setStamp</text>
</a>
</g>
</g>
<!-- Node6&#45;&gt;Node19 -->
<g id="edge20" class="edge"><title>Node6&#45;&gt;Node19</title>
<path fill="none" stroke="midnightblue" d="M766.896,-244.385C778.036,-209.166 821.671,-86.28 904,-29 910.045,-24.7942 916.814,-21.4778 923.869,-18.8684"/>
<polygon fill="midnightblue" stroke="midnightblue" points="925.177,-22.1242 933.626,-15.7312 923.034,-15.4602 925.177,-22.1242"/>
</g>
<!-- Node20 -->
<g id="node20" class="node"><title>Node20</title>
<g id="a_node20"><a xlink:href="../../db/db5/classview_1_1panes_1_1_view_pane_module.html#a7ad9ad27137ffdf0ea96753a22da236b" target="_top" xlink:title="view.panes.ViewPaneModule.erase\lStamps">
<polygon fill="white" stroke="black" points="907.5,-362 907.5,-392 1088.5,-392 1088.5,-362 907.5,-362"/>
<text text-anchor="start" x="915.5" y="-380" font-family="Helvetica,sans-Serif" font-size="10.00">view.panes.ViewPaneModule.erase</text>
<text text-anchor="middle" x="998" y="-369" font-family="Helvetica,sans-Serif" font-size="10.00">Stamps</text>
</a>
</g>
</g>
<!-- Node6&#45;&gt;Node20 -->
<g id="edge21" class="edge"><title>Node6&#45;&gt;Node20</title>
<path fill="none" stroke="midnightblue" d="M774.783,-263.574C797.234,-283.026 851.306,-327.407 904,-352 909.241,-354.446 914.764,-356.688 920.397,-358.735"/>
<polygon fill="midnightblue" stroke="midnightblue" points="919.355,-362.078 929.949,-362 921.619,-355.454 919.355,-362.078"/>
</g>
<!-- Node22 -->
<g id="node22" class="node"><title>Node22</title>
<g id="a_node22"><a xlink:href="../../db/db5/classview_1_1panes_1_1_view_pane_module.html#ab55ce3511929b88a2cd1235eb694868f" target="_top" xlink:title="view.panes.ViewPaneModule.update\lTurtle">
<polygon fill="white" stroke="black" points="904,-313 904,-343 1092,-343 1092,-313 904,-313"/>
<text text-anchor="start" x="912" y="-331" font-family="Helvetica,sans-Serif" font-size="10.00">view.panes.ViewPaneModule.update</text>
<text text-anchor="middle" x="998" y="-320" font-family="Helvetica,sans-Serif" font-size="10.00">Turtle</text>
</a>
</g>
</g>
<!-- Node6&#45;&gt;Node22 -->
<g id="edge23" class="edge"><title>Node6&#45;&gt;Node22</title>
<path fill="none" stroke="midnightblue" d="M789.359,-263.512C817.261,-273.829 863.527,-290.496 904,-303 911.922,-305.447 920.265,-307.885 928.568,-310.224"/>
<polygon fill="midnightblue" stroke="midnightblue" points="927.698,-313.615 938.27,-312.92 929.572,-306.871 927.698,-313.615"/>
</g>
<!-- Node13 -->
<g id="node13" class="node"><title>Node13</title>
<g id="a_node13"><a xlink:href="../../d7/da6/classview_1_1_turtle_draw.html#a939f4fdbdb66457c9dcee82eb4ae6d9c" target="_top" xlink:title="view.TurtleDraw.drawTurtle">
<polygon fill="white" stroke="black" points="1136.5,-67.5 1136.5,-86.5 1275.5,-86.5 1275.5,-67.5 1136.5,-67.5"/>
<text text-anchor="middle" x="1206" y="-74.5" font-family="Helvetica,sans-Serif" font-size="10.00">view.TurtleDraw.drawTurtle</text>
</a>
</g>
</g>
<!-- Node12&#45;&gt;Node13 -->
<g id="edge14" class="edge"><title>Node12&#45;&gt;Node13</title>
<path fill="none" stroke="midnightblue" d="M1088.76,-64.0212C1101.21,-65.4115 1113.92,-66.831 1126.15,-68.1968"/>
<polygon fill="midnightblue" stroke="midnightblue" points="1125.97,-71.6983 1136.3,-69.3296 1126.75,-64.7415 1125.97,-71.6983"/>
</g>
<!-- Node16 -->
<g id="node16" class="node"><title>Node16</title>
<g id="a_node16"><a xlink:href="../../d7/da6/classview_1_1_turtle_draw.html#a14678068d3fc9d3b6e1067bc372f6030" target="_top" xlink:title="view.TurtleDraw.showTurtle">
<polygon fill="white" stroke="black" points="1136,-29.5 1136,-48.5 1276,-48.5 1276,-29.5 1136,-29.5"/>
<text text-anchor="middle" x="1206" y="-36.5" font-family="Helvetica,sans-Serif" font-size="10.00">view.TurtleDraw.showTurtle</text>
</a>
</g>
</g>
<!-- Node12&#45;&gt;Node16 -->
<g id="edge17" class="edge"><title>Node12&#45;&gt;Node16</title>
<path fill="none" stroke="midnightblue" d="M1088.76,-47.4644C1101.12,-46.5639 1113.75,-45.6445 1125.9,-44.7594"/>
<polygon fill="midnightblue" stroke="midnightblue" points="1126.27,-48.2422 1135.99,-44.0251 1125.76,-41.2607 1126.27,-48.2422"/>
</g>
<!-- Node17 -->
<g id="node17" class="node"><title>Node17</title>
<g id="a_node17"><a xlink:href="../../d7/da6/classview_1_1_turtle_draw.html#a8c2cab38eb294b26aea1ae17595ba2a6" target="_top" xlink:title="view.TurtleDraw.moveTurtle">
<polygon fill="white" stroke="black" points="1134.5,-143.5 1134.5,-162.5 1277.5,-162.5 1277.5,-143.5 1134.5,-143.5"/>
<text text-anchor="middle" x="1206" y="-150.5" font-family="Helvetica,sans-Serif" font-size="10.00">view.TurtleDraw.moveTurtle</text>
</a>
</g>
</g>
<!-- Node12&#45;&gt;Node17 -->
<g id="edge18" class="edge"><title>Node12&#45;&gt;Node17</title>
<path fill="none" stroke="midnightblue" d="M1074.8,-69.1906C1080.89,-71.9348 1086.72,-75.1748 1092,-79 1115.66,-96.1392 1104.16,-117.106 1128,-134 1130.84,-136.012 1133.87,-137.811 1137.02,-139.421"/>
<polygon fill="midnightblue" stroke="midnightblue" points="1135.62,-142.629 1146.18,-143.474 1138.45,-136.227 1135.62,-142.629"/>
</g>
<!-- Node18 -->
<g id="node18" class="node"><title>Node18</title>
<g id="a_node18"><a xlink:href="../../d7/da6/classview_1_1_turtle_draw.html#a5004a16526a67f090d7da45474b5136e" target="_top" xlink:title="view.TurtleDraw.setAngle">
<polygon fill="white" stroke="black" points="1139.5,-105.5 1139.5,-124.5 1272.5,-124.5 1272.5,-105.5 1139.5,-105.5"/>
<text text-anchor="middle" x="1206" y="-112.5" font-family="Helvetica,sans-Serif" font-size="10.00">view.TurtleDraw.setAngle</text>
</a>
</g>
</g>
<!-- Node12&#45;&gt;Node18 -->
<g id="edge19" class="edge"><title>Node12&#45;&gt;Node18</title>
<path fill="none" stroke="midnightblue" d="M1061.02,-69.0126C1071.46,-72.0119 1082.11,-75.3695 1092,-79 1108.61,-85.0988 1111.33,-90.0733 1128,-96 1135.04,-98.5012 1142.55,-100.795 1150.02,-102.858"/>
<polygon fill="midnightblue" stroke="midnightblue" points="1149.2,-106.264 1159.77,-105.434 1150.99,-99.4958 1149.2,-106.264"/>
</g>
<!-- Node14 -->
<g id="node14" class="node"><title>Node14</title>
<g id="a_node14"><a xlink:href="../../d6/d34/classmodel_1_1_turtle.html#a942dbeb1d7e2bc19b6870538c2c3a7d2" target="_top" xlink:title="model.Turtle.getShape">
<polygon fill="white" stroke="black" points="1344.5,-89.5 1344.5,-108.5 1469.5,-108.5 1469.5,-89.5 1344.5,-89.5"/>
<text text-anchor="middle" x="1407" y="-96.5" font-family="Helvetica,sans-Serif" font-size="10.00">model.Turtle.getShape</text>
</a>
</g>
</g>
<!-- Node13&#45;&gt;Node14 -->
<g id="edge15" class="edge"><title>Node13&#45;&gt;Node14</title>
<path fill="none" stroke="midnightblue" d="M1275.76,-84.602C1294.62,-86.6865 1315.11,-88.9515 1334.13,-91.0547"/>
<polygon fill="midnightblue" stroke="midnightblue" points="1333.91,-94.5509 1344.23,-92.1711 1334.67,-87.5933 1333.91,-94.5509"/>
</g>
<!-- Node15 -->
<g id="node15" class="node"><title>Node15</title>
<g id="a_node15"><a xlink:href="../../d3/db7/classview_1_1controllers_1_1_image_palette.html#a8a6620714bc12d5a00b97e99299a7040" target="_top" xlink:title="view.controllers.ImagePalette.get\lImage">
<polygon fill="white" stroke="black" points="1320,-40 1320,-70 1494,-70 1494,-40 1320,-40"/>
<text text-anchor="start" x="1328" y="-58" font-family="Helvetica,sans-Serif" font-size="10.00">view.controllers.ImagePalette.get</text>
<text text-anchor="middle" x="1407" y="-47" font-family="Helvetica,sans-Serif" font-size="10.00">Image</text>
</a>
</g>
</g>
<!-- Node13&#45;&gt;Node15 -->
<g id="edge16" class="edge"><title>Node13&#45;&gt;Node15</title>
<path fill="none" stroke="midnightblue" d="M1275.76,-69.398C1286.71,-68.1877 1298.21,-66.9165 1309.65,-65.6514"/>
<polygon fill="midnightblue" stroke="midnightblue" points="1310.13,-69.1206 1319.68,-64.5429 1309.36,-62.163 1310.13,-69.1206"/>
</g>
<!-- Node21 -->
<g id="node21" class="node"><title>Node21</title>
<g id="a_node21"><a xlink:href="../../d7/da6/classview_1_1_turtle_draw.html#acb97dedda080cb5ed17031d2b31adc2c" target="_top" xlink:title="view.TurtleDraw.hideTurtle">
<polygon fill="white" stroke="black" points="1137.5,-485.5 1137.5,-504.5 1274.5,-504.5 1274.5,-485.5 1137.5,-485.5"/>
<text text-anchor="middle" x="1206" y="-492.5" font-family="Helvetica,sans-Serif" font-size="10.00">view.TurtleDraw.hideTurtle</text>
</a>
</g>
</g>
<!-- Node20&#45;&gt;Node21 -->
<g id="edge22" class="edge"><title>Node20&#45;&gt;Node21</title>
<path fill="none" stroke="midnightblue" d="M1076.72,-392.164C1082.18,-394.918 1087.36,-398.167 1092,-402 1120.2,-425.29 1099.56,-453.003 1128,-476 1130.26,-477.826 1132.67,-479.48 1135.19,-480.979"/>
<polygon fill="midnightblue" stroke="midnightblue" points="1133.62,-484.107 1144.12,-485.495 1136.77,-477.86 1133.62,-484.107"/>
</g>
<!-- Node22&#45;&gt;Node13 -->
<g id="edge25" class="edge"><title>Node22&#45;&gt;Node13</title>
<path fill="none" stroke="midnightblue" d="M1080.14,-312.879C1084.49,-310.093 1088.5,-306.827 1092,-303 1154.98,-234.053 1064.31,-164.292 1128,-96 1129.23,-94.6847 1130.53,-93.4541 1131.9,-92.303"/>
<polygon fill="midnightblue" stroke="midnightblue" points="1134.06,-95.0665 1140.35,-86.544 1130.11,-89.2813 1134.06,-95.0665"/>
</g>
<!-- Node22&#45;&gt;Node16 -->
<g id="edge26" class="edge"><title>Node22&#45;&gt;Node16</title>
<path fill="none" stroke="midnightblue" d="M1080.26,-312.985C1084.58,-310.173 1088.56,-306.872 1092,-303 1165.15,-220.771 1054,-139.468 1128,-58 1129.07,-56.8215 1130.2,-55.7107 1131.38,-54.6639"/>
<polygon fill="midnightblue" stroke="midnightblue" points="1133.74,-57.2816 1139.88,-48.6446 1129.7,-51.5698 1133.74,-57.2816"/>
</g>
<!-- Node22&#45;&gt;Node17 -->
<g id="edge39" class="edge"><title>Node22&#45;&gt;Node17</title>
<path fill="none" stroke="midnightblue" d="M1078.86,-312.995C1083.64,-310.193 1088.09,-306.89 1092,-303 1134.81,-260.424 1084.75,-214.131 1128,-172 1129.48,-170.559 1131.05,-169.221 1132.7,-167.98"/>
<polygon fill="midnightblue" stroke="midnightblue" points="1134.82,-170.784 1141.48,-162.546 1131.13,-164.832 1134.82,-170.784"/>
</g>
<!-- Node22&#45;&gt;Node18 -->
<g id="edge37" class="edge"><title>Node22&#45;&gt;Node18</title>
<path fill="none" stroke="midnightblue" d="M1079.55,-312.99C1084.1,-310.183 1088.32,-306.881 1092,-303 1144.85,-247.284 1074.57,-189.166 1128,-134 1129.25,-132.708 1130.58,-131.498 1131.96,-130.366"/>
<polygon fill="midnightblue" stroke="midnightblue" points="1134.11,-133.14 1140.5,-124.692 1130.24,-127.309 1134.11,-133.14"/>
</g>
<!-- Node22&#45;&gt;Node21 -->
<g id="edge27" class="edge"><title>Node22&#45;&gt;Node21</title>
<path fill="none" stroke="midnightblue" d="M1080.5,-343.202C1084.65,-345.72 1088.53,-348.632 1092,-352 1133.18,-391.965 1086.61,-436.254 1128,-476 1129.49,-477.43 1131.07,-478.759 1132.72,-479.991"/>
<polygon fill="midnightblue" stroke="midnightblue" points="1131.18,-483.152 1141.54,-485.394 1134.84,-477.184 1131.18,-483.152"/>
</g>
<!-- Node23 -->
<g id="node23" class="node"><title>Node23</title>
<g id="a_node23"><a xlink:href="../../d6/d34/classmodel_1_1_turtle.html#ae79a1eae7eed55d121c3b85299ae14ba" target="_top" xlink:title="model.Turtle.getID">
<polygon fill="white" stroke="black" points="1154,-257.5 1154,-276.5 1258,-276.5 1258,-257.5 1154,-257.5"/>
<text text-anchor="middle" x="1206" y="-264.5" font-family="Helvetica,sans-Serif" font-size="10.00">model.Turtle.getID</text>
</a>
</g>
</g>
<!-- Node22&#45;&gt;Node23 -->
<g id="edge24" class="edge"><title>Node22&#45;&gt;Node23</title>
<path fill="none" stroke="midnightblue" d="M1061.02,-312.987C1071.46,-309.988 1082.11,-306.63 1092,-303 1108.61,-296.901 1111.33,-291.927 1128,-286 1135.04,-283.499 1142.55,-281.205 1150.02,-279.142"/>
<polygon fill="midnightblue" stroke="midnightblue" points="1150.99,-282.504 1159.77,-276.566 1149.2,-275.736 1150.99,-282.504"/>
</g>
<!-- Node24 -->
<g id="node24" class="node"><title>Node24</title>
<g id="a_node24"><a xlink:href="../../d6/d34/classmodel_1_1_turtle.html#a279f2bdb3fa955acdd52b7824ec3cd04" target="_top" xlink:title="model.Turtle.getPenStatus">
<polygon fill="white" stroke="black" points="1134.5,-219.5 1134.5,-238.5 1277.5,-238.5 1277.5,-219.5 1134.5,-219.5"/>
<text text-anchor="middle" x="1206" y="-226.5" font-family="Helvetica,sans-Serif" font-size="10.00">model.Turtle.getPenStatus</text>
</a>
</g>
</g>
<!-- Node22&#45;&gt;Node24 -->
<g id="edge28" class="edge"><title>Node22&#45;&gt;Node24</title>
<path fill="none" stroke="midnightblue" d="M1074.8,-312.809C1080.89,-310.065 1086.72,-306.825 1092,-303 1115.66,-285.861 1104.16,-264.894 1128,-248 1130.84,-245.988 1133.87,-244.189 1137.02,-242.579"/>
<polygon fill="midnightblue" stroke="midnightblue" points="1138.45,-245.773 1146.18,-238.526 1135.62,-239.371 1138.45,-245.773"/>
</g>
<!-- Node26 -->
<g id="node26" class="node"><title>Node26</title>
<g id="a_node26"><a xlink:href="../../d7/da6/classview_1_1_turtle_draw.html#a1325ca376115619f15f5014eb4c5ad2a" target="_top" xlink:title="view.TurtleDraw.drawLine">
<polygon fill="white" stroke="black" points="1139.5,-181.5 1139.5,-200.5 1272.5,-200.5 1272.5,-181.5 1139.5,-181.5"/>
<text text-anchor="middle" x="1206" y="-188.5" font-family="Helvetica,sans-Serif" font-size="10.00">view.TurtleDraw.drawLine</text>
</a>
</g>
</g>
<!-- Node22&#45;&gt;Node26 -->
<g id="edge30" class="edge"><title>Node22&#45;&gt;Node26</title>
<path fill="none" stroke="midnightblue" d="M1077.98,-312.777C1083.03,-310.031 1087.77,-306.799 1092,-303 1124.97,-273.376 1094.73,-239.282 1128,-210 1129.76,-208.448 1131.63,-207.018 1133.59,-205.702"/>
<polygon fill="midnightblue" stroke="midnightblue" points="1135.63,-208.57 1142.64,-200.624 1132.2,-202.465 1135.63,-208.57"/>
</g>
<!-- Node27 -->
<g id="node27" class="node"><title>Node27</title>
<g id="a_node27"><a xlink:href="../../d6/d34/classmodel_1_1_turtle.html#a832234461564763f8330181b3c1163ff" target="_top" xlink:title="model.Turtle.getPrevLocation">
<polygon fill="white" stroke="black" points="1128.5,-447.5 1128.5,-466.5 1283.5,-466.5 1283.5,-447.5 1128.5,-447.5"/>
<text text-anchor="middle" x="1206" y="-454.5" font-family="Helvetica,sans-Serif" font-size="10.00">model.Turtle.getPrevLocation</text>
</a>
</g>
</g>
<!-- Node22&#45;&gt;Node27 -->
<g id="edge31" class="edge"><title>Node22&#45;&gt;Node27</title>
<path fill="none" stroke="midnightblue" d="M1079.18,-343.19C1083.77,-345.701 1088.09,-348.617 1092,-352 1123.33,-379.118 1096.53,-411.049 1128,-438 1129.97,-439.685 1132.06,-441.225 1134.25,-442.632"/>
<polygon fill="midnightblue" stroke="midnightblue" points="1132.67,-445.752 1143.13,-447.426 1135.99,-439.593 1132.67,-445.752"/>
</g>
<!-- Node28 -->
<g id="node28" class="node"><title>Node28</title>
<g id="a_node28"><a xlink:href="../../d6/d34/classmodel_1_1_turtle.html#a2470b9b4ef48a261324047de8ebdc242" target="_top" xlink:title="model.Turtle.getNewLocation">
<polygon fill="white" stroke="black" points="1128.5,-409.5 1128.5,-428.5 1283.5,-428.5 1283.5,-409.5 1128.5,-409.5"/>
<text text-anchor="middle" x="1206" y="-416.5" font-family="Helvetica,sans-Serif" font-size="10.00">model.Turtle.getNewLocation</text>
</a>
</g>
</g>
<!-- Node22&#45;&gt;Node28 -->
<g id="edge32" class="edge"><title>Node22&#45;&gt;Node28</title>
<path fill="none" stroke="midnightblue" d="M1075.48,-343.106C1081.29,-345.626 1086.87,-348.568 1092,-352 1114.16,-366.835 1105.76,-385.283 1128,-400 1131.11,-402.059 1134.43,-403.895 1137.87,-405.532"/>
<polygon fill="midnightblue" stroke="midnightblue" points="1136.64,-408.811 1147.22,-409.417 1139.32,-402.347 1136.64,-408.811"/>
</g>
<!-- Node29 -->
<g id="node29" class="node"><title>Node29</title>
<g id="a_node29"><a xlink:href="../../d6/d34/classmodel_1_1_turtle.html#a19c059b1cbfbd4e8f046ec2403de3fb9" target="_top" xlink:title="model.Turtle.getPenDash">
<polygon fill="white" stroke="black" points="1137.5,-371.5 1137.5,-390.5 1274.5,-390.5 1274.5,-371.5 1137.5,-371.5"/>
<text text-anchor="middle" x="1206" y="-378.5" font-family="Helvetica,sans-Serif" font-size="10.00">model.Turtle.getPenDash</text>
</a>
</g>
</g>
<!-- Node22&#45;&gt;Node29 -->
<g id="edge33" class="edge"><title>Node22&#45;&gt;Node29</title>
<path fill="none" stroke="midnightblue" d="M1058.08,-343.072C1069.35,-345.997 1081.05,-349.066 1092,-352 1108.04,-356.297 1111.94,-357.788 1128,-362 1136.9,-364.334 1146.4,-366.744 1155.58,-369.031"/>
<polygon fill="midnightblue" stroke="midnightblue" points="1154.83,-372.45 1165.38,-371.456 1156.51,-365.655 1154.83,-372.45"/>
</g>
<!-- Node31 -->
<g id="node31" class="node"><title>Node31</title>
<g id="a_node31"><a xlink:href="../../d6/d34/classmodel_1_1_turtle.html#a193c156784f783064ae533b619b6be6e" target="_top" xlink:title="model.Turtle.getPenColor">
<polygon fill="white" stroke="black" points="1137.5,-333.5 1137.5,-352.5 1274.5,-352.5 1274.5,-333.5 1137.5,-333.5"/>
<text text-anchor="middle" x="1206" y="-340.5" font-family="Helvetica,sans-Serif" font-size="10.00">model.Turtle.getPenColor</text>
</a>
</g>
</g>
<!-- Node22&#45;&gt;Node31 -->
<g id="edge35" class="edge"><title>Node22&#45;&gt;Node31</title>
<path fill="none" stroke="midnightblue" d="M1092.06,-334.776C1103.85,-335.635 1115.82,-336.506 1127.33,-337.345"/>
<polygon fill="midnightblue" stroke="midnightblue" points="1127.1,-340.837 1137.32,-338.072 1127.61,-333.855 1127.1,-340.837"/>
</g>
<!-- Node33 -->
<g id="node33" class="node"><title>Node33</title>
<g id="a_node33"><a xlink:href="../../d6/d34/classmodel_1_1_turtle.html#a1c5d07962ede5fbfacc59413274d4300" target="_top" xlink:title="model.Turtle.getHeading">
<polygon fill="white" stroke="black" points="1139,-295.5 1139,-314.5 1273,-314.5 1273,-295.5 1139,-295.5"/>
<text text-anchor="middle" x="1206" y="-302.5" font-family="Helvetica,sans-Serif" font-size="10.00">model.Turtle.getHeading</text>
</a>
</g>
</g>
<!-- Node22&#45;&gt;Node33 -->
<g id="edge38" class="edge"><title>Node22&#45;&gt;Node33</title>
<path fill="none" stroke="midnightblue" d="M1092.06,-317.61C1104.38,-316.234 1116.9,-314.836 1128.9,-313.496"/>
<polygon fill="midnightblue" stroke="midnightblue" points="1129.29,-316.975 1138.84,-312.387 1128.51,-310.018 1129.29,-316.975"/>
</g>
<!-- Node25 -->
<g id="node25" class="node"><title>Node25</title>
<g id="a_node25"><a xlink:href="../../de/ded/classmodel_1_1_pen.html#afad4fb3e51847cacab72c036ddaa108f" target="_top" xlink:title="model.Pen.getStatus">
<polygon fill="white" stroke="black" points="1348,-219.5 1348,-238.5 1466,-238.5 1466,-219.5 1348,-219.5"/>
<text text-anchor="middle" x="1407" y="-226.5" font-family="Helvetica,sans-Serif" font-size="10.00">model.Pen.getStatus</text>
</a>
</g>
</g>
<!-- Node24&#45;&gt;Node25 -->
<g id="edge29" class="edge"><title>Node24&#45;&gt;Node25</title>
<path fill="none" stroke="midnightblue" d="M1277.72,-229C1297.23,-229 1318.35,-229 1337.72,-229"/>
<polygon fill="midnightblue" stroke="midnightblue" points="1337.97,-232.5 1347.97,-229 1337.97,-225.5 1337.97,-232.5"/>
</g>
<!-- Node30 -->
<g id="node30" class="node"><title>Node30</title>
<g id="a_node30"><a xlink:href="../../de/ded/classmodel_1_1_pen.html#a6999f4af56377415621f193ef8600e27" target="_top" xlink:title="model.Pen.getDash">
<polygon fill="white" stroke="black" points="1351.5,-371.5 1351.5,-390.5 1462.5,-390.5 1462.5,-371.5 1351.5,-371.5"/>
<text text-anchor="middle" x="1407" y="-378.5" font-family="Helvetica,sans-Serif" font-size="10.00">model.Pen.getDash</text>
</a>
</g>
</g>
<!-- Node29&#45;&gt;Node30 -->
<g id="edge34" class="edge"><title>Node29&#45;&gt;Node30</title>
<path fill="none" stroke="midnightblue" d="M1274.65,-381C1296.15,-381 1319.86,-381 1341.15,-381"/>
<polygon fill="midnightblue" stroke="midnightblue" points="1341.39,-384.5 1351.39,-381 1341.39,-377.5 1341.39,-384.5"/>
</g>
<!-- Node32 -->
<g id="node32" class="node"><title>Node32</title>
<g id="a_node32"><a xlink:href="../../de/ded/classmodel_1_1_pen.html#a704af31474b10d17caf40773b7971826" target="_top" xlink:title="model.Pen.getPenColor">
<polygon fill="white" stroke="black" points="1342.5,-333.5 1342.5,-352.5 1471.5,-352.5 1471.5,-333.5 1342.5,-333.5"/>
<text text-anchor="middle" x="1407" y="-340.5" font-family="Helvetica,sans-Serif" font-size="10.00">model.Pen.getPenColor</text>
</a>
</g>
</g>
<!-- Node31&#45;&gt;Node32 -->
<g id="edge36" class="edge"><title>Node31&#45;&gt;Node32</title>
<path fill="none" stroke="midnightblue" d="M1274.65,-343C1293.18,-343 1313.36,-343 1332.21,-343"/>
<polygon fill="midnightblue" stroke="midnightblue" points="1332.23,-346.5 1342.23,-343 1332.23,-339.5 1332.23,-346.5"/>
</g>
</g>
</svg>
        <g id="navigator" transform="translate(0 0)" fill="#404254">
                <rect fill="#f2f5e9" fill-opacity="0.5" stroke="#606060" stroke-width=".5" x="0" y="0" width="60" height="60"/>
                <use id="zoomplus" xlink:href="#zoomPlus" x="17" y="9" onmousedown="handleZoom(evt,'in')"/>
                <use id="zoomminus" xlink:href="#zoomMin" x="42" y="9" onmousedown="handleZoom(evt,'out')"/>
                <use id="reset" xlink:href="#resetDef" x="30" y="36" onmousedown="handleReset()"/>
                <g id="arrowUp" xlink:href="#dirArrow" transform="translate(30 24)" onmousedown="handlePan(0,-1)">
                  <use xlink:href="#rim" fill="#404040">
                        <set attributeName="fill" to="#808080" begin="arrowUp.mouseover" end="arrowUp.mouseout"/>
                  </use>
                  <path fill="none" stroke="white" stroke-width="1.5" d="M0,-3.0v7 M-2.5,-0.5L0,-3.0L2.5,-0.5"/>
                </g>
                <g id="arrowRight" xlink:href="#dirArrow" transform="rotate(90) translate(36 -43)" onmousedown="handlePan(1,0)">
                  <use xlink:href="#rim" fill="#404040">
                        <set attributeName="fill" to="#808080" begin="arrowRight.mouseover" end="arrowRight.mouseout"/>
                  </use>
                  <path fill="none" stroke="white" stroke-width="1.5" d="M0,-3.0v7 M-2.5,-0.5L0,-3.0L2.5,-0.5"/>
                </g>
                <g id="arrowDown" xlink:href="#dirArrow" transform="rotate(180) translate(-30 -48)" onmousedown="handlePan(0,1)">
                  <use xlink:href="#rim" fill="#404040">
                        <set attributeName="fill" to="#808080" begin="arrowDown.mouseover" end="arrowDown.mouseout"/>
                  </use>
                  <path fill="none" stroke="white" stroke-width="1.5" d="M0,-3.0v7 M-2.5,-0.5L0,-3.0L2.5,-0.5"/>
                </g>
                <g id="arrowLeft" xlink:href="#dirArrow" transform="rotate(270) translate(-36 17)" onmousedown="handlePan(-1,0)">
                  <use xlink:href="#rim" fill="#404040">
                        <set attributeName="fill" to="#808080" begin="arrowLeft.mouseover" end="arrowLeft.mouseout"/>
                  </use>
                  <path fill="none" stroke="white" stroke-width="1.5" d="M0,-3.0v7 M-2.5,-0.5L0,-3.0L2.5,-0.5"/>
                </g>
        </g>
        <svg viewBox="0 0 15 15" width="100%" height="30px" preserveAspectRatio="xMaxYMin meet">
         <g id="arrow_out" transform="scale(0.3 0.3)">
          <a xlink:href="classcommands_1_1_repeat_command_a40fb82831e8b2beaa7e31913e46e15eb_cgraph_org.svg" target="_base">
           <rect id="button" ry="5" rx="5" y="6" x="6" height="38" width="38"
                fill="#f2f5e9" fill-opacity="0.5" stroke="#606060" stroke-width="1.0"/>
           <path id="arrow"
             d="M 11.500037,31.436501 C 11.940474,20.09759 22.043105,11.32322 32.158766,21.979434 L 37.068811,17.246167 C 37.068811,17.246167 37.088388,32 37.088388,32 L 22.160133,31.978069 C 22.160133,31.978069 26.997745,27.140456 26.997745,27.140456 C 18.528582,18.264221 13.291696,25.230495 11.500037,31.436501 z"
             style="fill:#404040;"/>
          </a>
         </g>
        </svg>
</svg>
