<?xml version="1.0" encoding="UTF-8" standalone="no"?>
<!DOCTYPE svg PUBLIC "-//W3C//DTD SVG 1.1//EN"
 "http://www.w3.org/Graphics/SVG/1.1/DTD/svg11.dtd">
<!-- Generated by graphviz version 2.36.0 (20140111.2315)
 -->
<!-- Title: commands.HomeCommand.updateTurtle Pages: 1 -->
<svg width="534pt" height="66pt"
 viewBox="0.00 0.00 534.00 66.00" xmlns="http://www.w3.org/2000/svg" xmlns:xlink="http://www.w3.org/1999/xlink">
<g id="graph0" class="graph" transform="scale(1 1) rotate(0) translate(4 62)">
<title>commands.HomeCommand.updateTurtle</title>
<polygon fill="white" stroke="none" points="-4,4 -4,-62 530,-62 530,4 -4,4"/>
<!-- Node1 -->
<g id="node1" class="node"><title>Node1</title>
<polygon fill="#bfbfbf" stroke="black" points="0,-14 0,-44 190,-44 190,-14 0,-14"/>
<text text-anchor="start" x="8" y="-32" font-family="Helvetica,sans-Serif" font-size="10.00">commands.HomeCommand.update</text>
<text text-anchor="middle" x="95" y="-21" font-family="Helvetica,sans-Serif" font-size="10.00">Turtle</text>
</g>
<!-- Node2 -->
<g id="node2" class="node"><title>Node2</title>
<g id="a_node2"><a xlink:href="../../d6/d34/classmodel_1_1_turtle.html#aee8b0206df9c97984b711cf6c50656d0" target="_top" xlink:title="model.Turtle.setHeading">
<polygon fill="white" stroke="black" points="226.5,-38.5 226.5,-57.5 359.5,-57.5 359.5,-38.5 226.5,-38.5"/>
<text text-anchor="middle" x="293" y="-45.5" font-family="Helvetica,sans-Serif" font-size="10.00">model.Turtle.setHeading</text>
</a>
</g>
</g>
<!-- Node1&#45;&gt;Node2 -->
<g id="edge1" class="edge"><title>Node1&#45;&gt;Node2</title>
<path fill="none" stroke="midnightblue" d="M190.268,-38.1383C198.914,-38.9763 207.598,-39.8182 216.051,-40.6376"/>
<polygon fill="midnightblue" stroke="midnightblue" points="215.939,-44.1431 226.23,-41.6243 216.614,-37.1757 215.939,-44.1431"/>
</g>
<!-- Node3 -->
<g id="node3" class="node"><title>Node3</title>
<g id="a_node3"><a xlink:href="../../d6/d34/classmodel_1_1_turtle.html#a8594135f6eec9e475e8927ddeb012e25" target="_top" xlink:title="model.Turtle.setXAndY">
<polygon fill="white" stroke="black" points="231.5,-0.5 231.5,-19.5 354.5,-19.5 354.5,-0.5 231.5,-0.5"/>
<text text-anchor="middle" x="293" y="-7.5" font-family="Helvetica,sans-Serif" font-size="10.00">model.Turtle.setXAndY</text>
</a>
</g>
</g>
<!-- Node1&#45;&gt;Node3 -->
<g id="edge2" class="edge"><title>Node1&#45;&gt;Node3</title>
<path fill="none" stroke="midnightblue" d="M190.268,-19.8617C200.786,-18.8421 211.362,-17.817 221.509,-16.8333"/>
<polygon fill="midnightblue" stroke="midnightblue" points="221.88,-20.3139 231.495,-15.8652 221.204,-13.3465 221.88,-20.3139"/>
</g>
<!-- Node4 -->
<g id="node4" class="node"><title>Node4</title>
<g id="a_node4"><a xlink:href="../../d6/d34/classmodel_1_1_turtle.html#aea80c2c6d24a504728574796d16d350b" target="_top" xlink:title="model.Turtle.getmyCurr">
<polygon fill="white" stroke="black" points="396.5,-0.5 396.5,-19.5 525.5,-19.5 525.5,-0.5 396.5,-0.5"/>
<text text-anchor="middle" x="461" y="-7.5" font-family="Helvetica,sans-Serif" font-size="10.00">model.Turtle.getmyCurr</text>
</a>
</g>
</g>
<!-- Node3&#45;&gt;Node4 -->
<g id="edge3" class="edge"><title>Node3&#45;&gt;Node4</title>
<path fill="none" stroke="midnightblue" d="M354.87,-10C365.107,-10 375.83,-10 386.349,-10"/>
<polygon fill="midnightblue" stroke="midnightblue" points="386.35,-13.5001 396.35,-10 386.35,-6.5001 386.35,-13.5001"/>
</g>
</g>
</svg>
