<?xml version="1.0" encoding="UTF-8" standalone="no"?>
<!DOCTYPE svg PUBLIC "-//W3C//DTD SVG 1.1//EN"
 "http://www.w3.org/Graphics/SVG/1.1/DTD/svg11.dtd">
<!-- Generated by graphviz version 2.36.0 (20140111.2315)
 -->
<!-- Title: commands.QuotientCommand.executeCommand Pages: 1 -->
<svg width="1510pt" height="513pt"
 viewBox="0.00 0.00 1510.00 513.00" xmlns="http://www.w3.org/2000/svg" xmlns:xlink="http://www.w3.org/1999/xlink">
<g id="graph0" class="graph" transform="scale(1 1) rotate(0) translate(4 509)">
<title>commands.QuotientCommand.executeCommand</title>
<polygon fill="white" stroke="none" points="-4,4 -4,-509 1506,-509 1506,4 -4,4"/>
<!-- Node1 -->
<g id="node1" class="node"><title>Node1</title>
<polygon fill="#bfbfbf" stroke="black" points="0,-387 0,-417 206,-417 206,-387 0,-387"/>
<text text-anchor="start" x="8" y="-405" font-family="Helvetica,sans-Serif" font-size="10.00">commands.QuotientCommand.execute</text>
<text text-anchor="middle" x="103" y="-394" font-family="Helvetica,sans-Serif" font-size="10.00">Command</text>
</g>
<!-- Node2 -->
<g id="node2" class="node"><title>Node2</title>
<g id="a_node2"><a xlink:href="../../dd/dd6/classcommands_1_1_command.html#abafa69601e87c34d4453cf84349d6f9c" target="_top" xlink:title="commands.Command.execute\lCommand">
<polygon fill="white" stroke="black" points="242.5,-387 242.5,-417 407.5,-417 407.5,-387 242.5,-387"/>
<text text-anchor="start" x="250.5" y="-405" font-family="Helvetica,sans-Serif" font-size="10.00">commands.Command.execute</text>
<text text-anchor="middle" x="325" y="-394" font-family="Helvetica,sans-Serif" font-size="10.00">Command</text>
</a>
</g>
</g>
<!-- Node1&#45;&gt;Node2 -->
<g id="edge1" class="edge"><title>Node1&#45;&gt;Node2</title>
<path fill="none" stroke="midnightblue" d="M206.271,-402C214.982,-402 223.757,-402 232.377,-402"/>
<polygon fill="midnightblue" stroke="midnightblue" points="232.412,-405.5 242.412,-402 232.412,-398.5 232.412,-405.5"/>
</g>
<!-- Node3 -->
<g id="node3" class="node"><title>Node3</title>
<g id="a_node3"><a xlink:href="../../df/d50/classmodel_1_1_turtle_set_manager.html#a9a65c0be3b9c21abaf0ebaa54e5b8484" target="_top" xlink:title="model.TurtleSetManager.get\lActiveTurtles">
<polygon fill="white" stroke="black" points="930,-450 930,-480 1082,-480 1082,-450 930,-450"/>
<text text-anchor="start" x="938" y="-468" font-family="Helvetica,sans-Serif" font-size="10.00">model.TurtleSetManager.get</text>
<text text-anchor="middle" x="1006" y="-457" font-family="Helvetica,sans-Serif" font-size="10.00">ActiveTurtles</text>
</a>
</g>
</g>
<!-- Node2&#45;&gt;Node3 -->
<g id="edge2" class="edge"><title>Node2&#45;&gt;Node3</title>
<path fill="none" stroke="midnightblue" d="M407.745,-416.85C419.874,-418.764 432.245,-420.556 444,-422 612.057,-442.639 809.732,-455.043 919.866,-460.901"/>
<polygon fill="midnightblue" stroke="midnightblue" points="919.751,-464.4 929.921,-461.431 920.119,-457.409 919.751,-464.4"/>
</g>
<!-- Node4 -->
<g id="node4" class="node"><title>Node4</title>
<g id="a_node4"><a xlink:href="../../d3/d42/classmodel_1_1_model.html#a1a683ba5e58fcb3c8882c8e61df20dc0" target="_top" xlink:title="model.Model.getTurtleManager">
<polygon fill="white" stroke="black" points="924,-411.5 924,-430.5 1088,-430.5 1088,-411.5 924,-411.5"/>
<text text-anchor="middle" x="1006" y="-418.5" font-family="Helvetica,sans-Serif" font-size="10.00">model.Model.getTurtleManager</text>
</a>
</g>
</g>
<!-- Node2&#45;&gt;Node4 -->
<g id="edge3" class="edge"><title>Node2&#45;&gt;Node4</title>
<path fill="none" stroke="midnightblue" d="M407.566,-404.282C534.974,-407.848 780.389,-414.715 913.592,-418.442"/>
<polygon fill="midnightblue" stroke="midnightblue" points="913.676,-421.946 923.771,-418.727 913.872,-414.949 913.676,-421.946"/>
</g>
<!-- Node5 -->
<g id="node5" class="node"><title>Node5</title>
<g id="a_node5"><a xlink:href="../../d3/d42/classmodel_1_1_model.html#a76160d002c1e68b566307ac44356f6e5" target="_top" xlink:title="model.Model.notifyView">
<polygon fill="white" stroke="black" points="472.5,-373.5 472.5,-392.5 601.5,-392.5 601.5,-373.5 472.5,-373.5"/>
<text text-anchor="middle" x="537" y="-380.5" font-family="Helvetica,sans-Serif" font-size="10.00">model.Model.notifyView</text>
</a>
</g>
</g>
<!-- Node2&#45;&gt;Node5 -->
<g id="edge4" class="edge"><title>Node2&#45;&gt;Node5</title>
<path fill="none" stroke="midnightblue" d="M407.793,-394.6C425.699,-392.98 444.553,-391.274 462.128,-389.684"/>
<polygon fill="midnightblue" stroke="midnightblue" points="462.668,-393.149 472.312,-388.762 462.037,-386.178 462.668,-393.149"/>
</g>
<!-- Node34 -->
<g id="node34" class="node"><title>Node34</title>
<g id="a_node34"><a xlink:href="../../dd/dd6/classcommands_1_1_command.html#aec3e0f888945b1811fd739ecea212324" target="_top" xlink:title="commands.Command.updateTurtle">
<polygon fill="white" stroke="black" points="444,-335.5 444,-354.5 630,-354.5 630,-335.5 444,-335.5"/>
<text text-anchor="middle" x="537" y="-342.5" font-family="Helvetica,sans-Serif" font-size="10.00">commands.Command.updateTurtle</text>
</a>
</g>
</g>
<!-- Node2&#45;&gt;Node34 -->
<g id="edge40" class="edge"><title>Node2&#45;&gt;Node34</title>
<path fill="none" stroke="midnightblue" d="M368.826,-386.978C391.079,-379.487 418.817,-370.634 444,-364 453.92,-361.387 464.519,-358.91 474.865,-356.662"/>
<polygon fill="midnightblue" stroke="midnightblue" points="475.621,-360.079 484.675,-354.579 474.167,-353.232 475.621,-360.079"/>
</g>
<!-- Node6 -->
<g id="node6" class="node"><title>Node6</title>
<g id="a_node6"><a xlink:href="../../db/db5/classview_1_1panes_1_1_view_pane_module.html#aa2a1bf15bc036ee4237bf63749d85baf" target="_top" xlink:title="view.panes.ViewPaneModule.updateView">
<polygon fill="white" stroke="black" points="666.5,-244.5 666.5,-263.5 875.5,-263.5 875.5,-244.5 666.5,-244.5"/>
<text text-anchor="middle" x="771" y="-251.5" font-family="Helvetica,sans-Serif" font-size="10.00">view.panes.ViewPaneModule.updateView</text>
</a>
</g>
</g>
<!-- Node5&#45;&gt;Node6 -->
<g id="edge5" class="edge"><title>Node5&#45;&gt;Node6</title>
<path fill="none" stroke="midnightblue" d="M601.601,-373.891C611.356,-371.356 621.125,-368.122 630,-364 680.593,-340.501 729.429,-295.468 753.843,-270.94"/>
<polygon fill="midnightblue" stroke="midnightblue" points="756.387,-273.344 760.882,-263.75 751.385,-268.447 756.387,-273.344"/>
</g>
<!-- Node6&#45;&gt;Node3 -->
<g id="edge10" class="edge"><title>Node6&#45;&gt;Node3</title>
<path fill="none" stroke="midnightblue" d="M776.485,-263.902C791.117,-295.048 840.663,-391.812 912,-440 914.929,-441.978 918.008,-443.801 921.193,-445.479"/>
<polygon fill="midnightblue" stroke="midnightblue" points="919.875,-448.727 930.412,-449.838 922.867,-442.399 919.875,-448.727"/>
</g>
<!-- Node6&#45;&gt;Node4 -->
<g id="edge9" class="edge"><title>Node6&#45;&gt;Node4</title>
<path fill="none" stroke="midnightblue" d="M778.175,-263.786C795.598,-290.518 848.052,-365.162 912,-401 916.862,-403.725 922.059,-406.079 927.417,-408.113"/>
<polygon fill="midnightblue" stroke="midnightblue" points="926.605,-411.533 937.2,-411.438 928.858,-404.906 926.605,-411.533"/>
</g>
<!-- Node7 -->
<g id="node7" class="node"><title>Node7</title>
<g id="a_node7"><a xlink:href="../../d3/d42/classmodel_1_1_model.html#a54936407d7df5ab8ef3c0ae54bcdc0ed" target="_top" xlink:title="model.Model.getBackground\lColor">
<polygon fill="white" stroke="black" points="929,-264 929,-294 1083,-294 1083,-264 929,-264"/>
<text text-anchor="start" x="937" y="-282" font-family="Helvetica,sans-Serif" font-size="10.00">model.Model.getBackground</text>
<text text-anchor="middle" x="1006" y="-271" font-family="Helvetica,sans-Serif" font-size="10.00">Color</text>
</a>
</g>
</g>
<!-- Node6&#45;&gt;Node7 -->
<g id="edge6" class="edge"><title>Node6&#45;&gt;Node7</title>
<path fill="none" stroke="midnightblue" d="M860.752,-263.523C879.72,-265.558 899.73,-267.705 918.608,-269.73"/>
<polygon fill="midnightblue" stroke="midnightblue" points="918.348,-273.223 928.664,-270.809 919.095,-266.263 918.348,-273.223"/>
</g>
<!-- Node8 -->
<g id="node8" class="node"><title>Node8</title>
<g id="a_node8"><a xlink:href="../../db/db5/classview_1_1panes_1_1_view_pane_module.html#ac94ee444587349ddad19b8caee500c9c" target="_top" xlink:title="view.panes.ViewPaneModule.update\lBGColor">
<polygon fill="white" stroke="black" points="912,-215 912,-245 1100,-245 1100,-215 912,-215"/>
<text text-anchor="start" x="920" y="-233" font-family="Helvetica,sans-Serif" font-size="10.00">view.panes.ViewPaneModule.update</text>
<text text-anchor="middle" x="1006" y="-222" font-family="Helvetica,sans-Serif" font-size="10.00">BGColor</text>
</a>
</g>
</g>
<!-- Node6&#45;&gt;Node8 -->
<g id="edge7" class="edge"><title>Node6&#45;&gt;Node8</title>
<path fill="none" stroke="midnightblue" d="M864.422,-244.48C876.754,-243.21 889.461,-241.901 901.96,-240.614"/>
<polygon fill="midnightblue" stroke="midnightblue" points="902.338,-244.093 911.927,-239.587 901.621,-237.13 902.338,-244.093"/>
</g>
<!-- Node9 -->
<g id="node9" class="node"><title>Node9</title>
<g id="a_node9"><a xlink:href="../../db/db5/classview_1_1panes_1_1_view_pane_module.html#abe91f8bb732e99d762bdaba51ceae04b" target="_top" xlink:title="view.panes.ViewPaneModule.toRGB">
<polygon fill="white" stroke="black" points="914,-176.5 914,-195.5 1098,-195.5 1098,-176.5 914,-176.5"/>
<text text-anchor="middle" x="1006" y="-183.5" font-family="Helvetica,sans-Serif" font-size="10.00">view.panes.ViewPaneModule.toRGB</text>
</a>
</g>
</g>
<!-- Node6&#45;&gt;Node9 -->
<g id="edge8" class="edge"><title>Node6&#45;&gt;Node9</title>
<path fill="none" stroke="midnightblue" d="M795.966,-244.496C823.597,-233.802 870.543,-216.433 912,-205 921.651,-202.338 931.959,-199.87 942.068,-197.653"/>
<polygon fill="midnightblue" stroke="midnightblue" points="943.027,-201.027 952.079,-195.522 941.57,-194.181 943.027,-201.027"/>
</g>
<!-- Node10 -->
<g id="node10" class="node"><title>Node10</title>
<g id="a_node10"><a xlink:href="../../df/d50/classmodel_1_1_turtle_set_manager.html#a9e215e93eccbed2ab9ebec6119cfe305" target="_top" xlink:title="model.TurtleSetManager.get\lAllTurtles">
<polygon fill="white" stroke="black" points="930,-127 930,-157 1082,-157 1082,-127 930,-127"/>
<text text-anchor="start" x="938" y="-145" font-family="Helvetica,sans-Serif" font-size="10.00">model.TurtleSetManager.get</text>
<text text-anchor="middle" x="1006" y="-134" font-family="Helvetica,sans-Serif" font-size="10.00">AllTurtles</text>
</a>
</g>
</g>
<!-- Node6&#45;&gt;Node10 -->
<g id="edge11" class="edge"><title>Node6&#45;&gt;Node10</title>
<path fill="none" stroke="midnightblue" d="M784.796,-244.229C808.605,-226.475 861.858,-188.753 912,-167 917.637,-164.555 923.572,-162.296 929.603,-160.221"/>
<polygon fill="midnightblue" stroke="midnightblue" points="930.71,-163.542 939.131,-157.112 928.539,-156.887 930.71,-163.542"/>
</g>
<!-- Node11 -->
<g id="node11" class="node"><title>Node11</title>
<g id="a_node11"><a xlink:href="../../d3/d42/classmodel_1_1_model.html#af73e838aed2c068e8f7d31bfa1cc88d7" target="_top" xlink:title="model.Model.getStamp">
<polygon fill="white" stroke="black" points="941.5,-88.5 941.5,-107.5 1070.5,-107.5 1070.5,-88.5 941.5,-88.5"/>
<text text-anchor="middle" x="1006" y="-95.5" font-family="Helvetica,sans-Serif" font-size="10.00">model.Model.getStamp</text>
</a>
</g>
</g>
<!-- Node6&#45;&gt;Node11 -->
<g id="edge12" class="edge"><title>Node6&#45;&gt;Node11</title>
<path fill="none" stroke="midnightblue" d="M778.59,-244.492C796.663,-219.21 849.824,-150.008 912,-117 918.063,-113.781 924.616,-111.107 931.338,-108.885"/>
<polygon fill="midnightblue" stroke="midnightblue" points="932.676,-112.139 941.27,-105.943 930.688,-105.427 932.676,-112.139"/>
</g>
<!-- Node12 -->
<g id="node12" class="node"><title>Node12</title>
<g id="a_node12"><a xlink:href="../../db/db5/classview_1_1panes_1_1_view_pane_module.html#a44db6ae832af3ce470baa9406142b8cb" target="_top" xlink:title="view.panes.ViewPaneModule.make\lStamps">
<polygon fill="white" stroke="black" points="915.5,-39 915.5,-69 1096.5,-69 1096.5,-39 915.5,-39"/>
<text text-anchor="start" x="923.5" y="-57" font-family="Helvetica,sans-Serif" font-size="10.00">view.panes.ViewPaneModule.make</text>
<text text-anchor="middle" x="1006" y="-46" font-family="Helvetica,sans-Serif" font-size="10.00">Stamps</text>
</a>
</g>
</g>
<!-- Node6&#45;&gt;Node12 -->
<g id="edge13" class="edge"><title>Node6&#45;&gt;Node12</title>
<path fill="none" stroke="midnightblue" d="M776.868,-244.27C792.262,-214.536 842.974,-124.158 912,-79 915.122,-76.9577 918.406,-75.0815 921.8,-73.358"/>
<polygon fill="midnightblue" stroke="midnightblue" points="923.372,-76.488 931.007,-69.143 920.458,-70.1233 923.372,-76.488"/>
</g>
<!-- Node19 -->
<g id="node19" class="node"><title>Node19</title>
<g id="a_node19"><a xlink:href="../../d3/d42/classmodel_1_1_model.html#a0a457f31350a460e11dc864463e0d8ff" target="_top" xlink:title="model.Model.setStamp">
<polygon fill="white" stroke="black" points="942,-0.5 942,-19.5 1070,-19.5 1070,-0.5 942,-0.5"/>
<text text-anchor="middle" x="1006" y="-7.5" font-family="Helvetica,sans-Serif" font-size="10.00">model.Model.setStamp</text>
</a>
</g>
</g>
<!-- Node6&#45;&gt;Node19 -->
<g id="edge20" class="edge"><title>Node6&#45;&gt;Node19</title>
<path fill="none" stroke="midnightblue" d="M774.896,-244.385C786.036,-209.166 829.671,-86.28 912,-29 918.045,-24.7942 924.814,-21.4778 931.869,-18.8684"/>
<polygon fill="midnightblue" stroke="midnightblue" points="933.177,-22.1242 941.626,-15.7312 931.034,-15.4602 933.177,-22.1242"/>
</g>
<!-- Node20 -->
<g id="node20" class="node"><title>Node20</title>
<g id="a_node20"><a xlink:href="../../db/db5/classview_1_1panes_1_1_view_pane_module.html#a7ad9ad27137ffdf0ea96753a22da236b" target="_top" xlink:title="view.panes.ViewPaneModule.erase\lStamps">
<polygon fill="white" stroke="black" points="915.5,-362 915.5,-392 1096.5,-392 1096.5,-362 915.5,-362"/>
<text text-anchor="start" x="923.5" y="-380" font-family="Helvetica,sans-Serif" font-size="10.00">view.panes.ViewPaneModule.erase</text>
<text text-anchor="middle" x="1006" y="-369" font-family="Helvetica,sans-Serif" font-size="10.00">Stamps</text>
</a>
</g>
</g>
<!-- Node6&#45;&gt;Node20 -->
<g id="edge21" class="edge"><title>Node6&#45;&gt;Node20</title>
<path fill="none" stroke="midnightblue" d="M782.783,-263.574C805.234,-283.026 859.306,-327.407 912,-352 917.241,-354.446 922.764,-356.688 928.397,-358.735"/>
<polygon fill="midnightblue" stroke="midnightblue" points="927.355,-362.078 937.949,-362 929.619,-355.454 927.355,-362.078"/>
</g>
<!-- Node22 -->
<g id="node22" class="node"><title>Node22</title>
<g id="a_node22"><a xlink:href="../../db/db5/classview_1_1panes_1_1_view_pane_module.html#ab55ce3511929b88a2cd1235eb694868f" target="_top" xlink:title="view.panes.ViewPaneModule.update\lTurtle">
<polygon fill="white" stroke="black" points="912,-313 912,-343 1100,-343 1100,-313 912,-313"/>
<text text-anchor="start" x="920" y="-331" font-family="Helvetica,sans-Serif" font-size="10.00">view.panes.ViewPaneModule.update</text>
<text text-anchor="middle" x="1006" y="-320" font-family="Helvetica,sans-Serif" font-size="10.00">Turtle</text>
</a>
</g>
</g>
<!-- Node6&#45;&gt;Node22 -->
<g id="edge23" class="edge"><title>Node6&#45;&gt;Node22</title>
<path fill="none" stroke="midnightblue" d="M797.359,-263.512C825.261,-273.829 871.527,-290.496 912,-303 919.922,-305.447 928.265,-307.885 936.568,-310.224"/>
<polygon fill="midnightblue" stroke="midnightblue" points="935.698,-313.615 946.27,-312.92 937.572,-306.871 935.698,-313.615"/>
</g>
<!-- Node13 -->
<g id="node13" class="node"><title>Node13</title>
<g id="a_node13"><a xlink:href="../../d7/da6/classview_1_1_turtle_draw.html#a939f4fdbdb66457c9dcee82eb4ae6d9c" target="_top" xlink:title="view.TurtleDraw.drawTurtle">
<polygon fill="white" stroke="black" points="1144.5,-67.5 1144.5,-86.5 1283.5,-86.5 1283.5,-67.5 1144.5,-67.5"/>
<text text-anchor="middle" x="1214" y="-74.5" font-family="Helvetica,sans-Serif" font-size="10.00">view.TurtleDraw.drawTurtle</text>
</a>
</g>
</g>
<!-- Node12&#45;&gt;Node13 -->
<g id="edge14" class="edge"><title>Node12&#45;&gt;Node13</title>
<path fill="none" stroke="midnightblue" d="M1096.76,-64.0212C1109.21,-65.4115 1121.92,-66.831 1134.15,-68.1968"/>
<polygon fill="midnightblue" stroke="midnightblue" points="1133.97,-71.6983 1144.3,-69.3296 1134.75,-64.7415 1133.97,-71.6983"/>
</g>
<!-- Node16 -->
<g id="node16" class="node"><title>Node16</title>
<g id="a_node16"><a xlink:href="../../d7/da6/classview_1_1_turtle_draw.html#a14678068d3fc9d3b6e1067bc372f6030" target="_top" xlink:title="view.TurtleDraw.showTurtle">
<polygon fill="white" stroke="black" points="1144,-29.5 1144,-48.5 1284,-48.5 1284,-29.5 1144,-29.5"/>
<text text-anchor="middle" x="1214" y="-36.5" font-family="Helvetica,sans-Serif" font-size="10.00">view.TurtleDraw.showTurtle</text>
</a>
</g>
</g>
<!-- Node12&#45;&gt;Node16 -->
<g id="edge17" class="edge"><title>Node12&#45;&gt;Node16</title>
<path fill="none" stroke="midnightblue" d="M1096.76,-47.4644C1109.12,-46.5639 1121.75,-45.6445 1133.9,-44.7594"/>
<polygon fill="midnightblue" stroke="midnightblue" points="1134.27,-48.2422 1143.99,-44.0251 1133.76,-41.2607 1134.27,-48.2422"/>
</g>
<!-- Node17 -->
<g id="node17" class="node"><title>Node17</title>
<g id="a_node17"><a xlink:href="../../d7/da6/classview_1_1_turtle_draw.html#a8c2cab38eb294b26aea1ae17595ba2a6" target="_top" xlink:title="view.TurtleDraw.moveTurtle">
<polygon fill="white" stroke="black" points="1142.5,-143.5 1142.5,-162.5 1285.5,-162.5 1285.5,-143.5 1142.5,-143.5"/>
<text text-anchor="middle" x="1214" y="-150.5" font-family="Helvetica,sans-Serif" font-size="10.00">view.TurtleDraw.moveTurtle</text>
</a>
</g>
</g>
<!-- Node12&#45;&gt;Node17 -->
<g id="edge18" class="edge"><title>Node12&#45;&gt;Node17</title>
<path fill="none" stroke="midnightblue" d="M1082.8,-69.1906C1088.89,-71.9348 1094.72,-75.1748 1100,-79 1123.66,-96.1392 1112.16,-117.106 1136,-134 1138.84,-136.012 1141.87,-137.811 1145.02,-139.421"/>
<polygon fill="midnightblue" stroke="midnightblue" points="1143.62,-142.629 1154.18,-143.474 1146.45,-136.227 1143.62,-142.629"/>
</g>
<!-- Node18 -->
<g id="node18" class="node"><title>Node18</title>
<g id="a_node18"><a xlink:href="../../d7/da6/classview_1_1_turtle_draw.html#a5004a16526a67f090d7da45474b5136e" target="_top" xlink:title="view.TurtleDraw.setAngle">
<polygon fill="white" stroke="black" points="1147.5,-105.5 1147.5,-124.5 1280.5,-124.5 1280.5,-105.5 1147.5,-105.5"/>
<text text-anchor="middle" x="1214" y="-112.5" font-family="Helvetica,sans-Serif" font-size="10.00">view.TurtleDraw.setAngle</text>
</a>
</g>
</g>
<!-- Node12&#45;&gt;Node18 -->
<g id="edge19" class="edge"><title>Node12&#45;&gt;Node18</title>
<path fill="none" stroke="midnightblue" d="M1069.02,-69.0126C1079.46,-72.0119 1090.11,-75.3695 1100,-79 1116.61,-85.0988 1119.33,-90.0733 1136,-96 1143.04,-98.5012 1150.55,-100.795 1158.02,-102.858"/>
<polygon fill="midnightblue" stroke="midnightblue" points="1157.2,-106.264 1167.77,-105.434 1158.99,-99.4958 1157.2,-106.264"/>
</g>
<!-- Node14 -->
<g id="node14" class="node"><title>Node14</title>
<g id="a_node14"><a xlink:href="../../d6/d34/classmodel_1_1_turtle.html#a942dbeb1d7e2bc19b6870538c2c3a7d2" target="_top" xlink:title="model.Turtle.getShape">
<polygon fill="white" stroke="black" points="1352.5,-89.5 1352.5,-108.5 1477.5,-108.5 1477.5,-89.5 1352.5,-89.5"/>
<text text-anchor="middle" x="1415" y="-96.5" font-family="Helvetica,sans-Serif" font-size="10.00">model.Turtle.getShape</text>
</a>
</g>
</g>
<!-- Node13&#45;&gt;Node14 -->
<g id="edge15" class="edge"><title>Node13&#45;&gt;Node14</title>
<path fill="none" stroke="midnightblue" d="M1283.76,-84.602C1302.62,-86.6865 1323.11,-88.9515 1342.13,-91.0547"/>
<polygon fill="midnightblue" stroke="midnightblue" points="1341.91,-94.5509 1352.23,-92.1711 1342.67,-87.5933 1341.91,-94.5509"/>
</g>
<!-- Node15 -->
<g id="node15" class="node"><title>Node15</title>
<g id="a_node15"><a xlink:href="../../d3/db7/classview_1_1controllers_1_1_image_palette.html#a8a6620714bc12d5a00b97e99299a7040" target="_top" xlink:title="view.controllers.ImagePalette.get\lImage">
<polygon fill="white" stroke="black" points="1328,-40 1328,-70 1502,-70 1502,-40 1328,-40"/>
<text text-anchor="start" x="1336" y="-58" font-family="Helvetica,sans-Serif" font-size="10.00">view.controllers.ImagePalette.get</text>
<text text-anchor="middle" x="1415" y="-47" font-family="Helvetica,sans-Serif" font-size="10.00">Image</text>
</a>
</g>
</g>
<!-- Node13&#45;&gt;Node15 -->
<g id="edge16" class="edge"><title>Node13&#45;&gt;Node15</title>
<path fill="none" stroke="midnightblue" d="M1283.76,-69.398C1294.71,-68.1877 1306.21,-66.9165 1317.65,-65.6514"/>
<polygon fill="midnightblue" stroke="midnightblue" points="1318.13,-69.1206 1327.68,-64.5429 1317.36,-62.163 1318.13,-69.1206"/>
</g>
<!-- Node21 -->
<g id="node21" class="node"><title>Node21</title>
<g id="a_node21"><a xlink:href="../../d7/da6/classview_1_1_turtle_draw.html#acb97dedda080cb5ed17031d2b31adc2c" target="_top" xlink:title="view.TurtleDraw.hideTurtle">
<polygon fill="white" stroke="black" points="1145.5,-485.5 1145.5,-504.5 1282.5,-504.5 1282.5,-485.5 1145.5,-485.5"/>
<text text-anchor="middle" x="1214" y="-492.5" font-family="Helvetica,sans-Serif" font-size="10.00">view.TurtleDraw.hideTurtle</text>
</a>
</g>
</g>
<!-- Node20&#45;&gt;Node21 -->
<g id="edge22" class="edge"><title>Node20&#45;&gt;Node21</title>
<path fill="none" stroke="midnightblue" d="M1084.72,-392.164C1090.18,-394.918 1095.36,-398.167 1100,-402 1128.2,-425.29 1107.56,-453.003 1136,-476 1138.26,-477.826 1140.67,-479.48 1143.19,-480.979"/>
<polygon fill="midnightblue" stroke="midnightblue" points="1141.62,-484.107 1152.12,-485.495 1144.77,-477.86 1141.62,-484.107"/>
</g>
<!-- Node22&#45;&gt;Node13 -->
<g id="edge25" class="edge"><title>Node22&#45;&gt;Node13</title>
<path fill="none" stroke="midnightblue" d="M1088.14,-312.879C1092.49,-310.093 1096.5,-306.827 1100,-303 1162.98,-234.053 1072.31,-164.292 1136,-96 1137.23,-94.6847 1138.53,-93.4541 1139.9,-92.303"/>
<polygon fill="midnightblue" stroke="midnightblue" points="1142.06,-95.0665 1148.35,-86.544 1138.11,-89.2813 1142.06,-95.0665"/>
</g>
<!-- Node22&#45;&gt;Node16 -->
<g id="edge26" class="edge"><title>Node22&#45;&gt;Node16</title>
<path fill="none" stroke="midnightblue" d="M1088.26,-312.985C1092.58,-310.173 1096.56,-306.872 1100,-303 1173.15,-220.771 1062,-139.468 1136,-58 1137.07,-56.8215 1138.2,-55.7107 1139.38,-54.6639"/>
<polygon fill="midnightblue" stroke="midnightblue" points="1141.74,-57.2816 1147.88,-48.6446 1137.7,-51.5698 1141.74,-57.2816"/>
</g>
<!-- Node22&#45;&gt;Node17 -->
<g id="edge39" class="edge"><title>Node22&#45;&gt;Node17</title>
<path fill="none" stroke="midnightblue" d="M1086.86,-312.995C1091.64,-310.193 1096.09,-306.89 1100,-303 1142.81,-260.424 1092.75,-214.131 1136,-172 1137.48,-170.559 1139.05,-169.221 1140.7,-167.98"/>
<polygon fill="midnightblue" stroke="midnightblue" points="1142.82,-170.784 1149.48,-162.546 1139.13,-164.832 1142.82,-170.784"/>
</g>
<!-- Node22&#45;&gt;Node18 -->
<g id="edge37" class="edge"><title>Node22&#45;&gt;Node18</title>
<path fill="none" stroke="midnightblue" d="M1087.55,-312.99C1092.1,-310.183 1096.32,-306.881 1100,-303 1152.85,-247.284 1082.57,-189.166 1136,-134 1137.25,-132.708 1138.58,-131.498 1139.96,-130.366"/>
<polygon fill="midnightblue" stroke="midnightblue" points="1142.11,-133.14 1148.5,-124.692 1138.24,-127.309 1142.11,-133.14"/>
</g>
<!-- Node22&#45;&gt;Node21 -->
<g id="edge27" class="edge"><title>Node22&#45;&gt;Node21</title>
<path fill="none" stroke="midnightblue" d="M1088.5,-343.202C1092.65,-345.72 1096.53,-348.632 1100,-352 1141.18,-391.965 1094.61,-436.254 1136,-476 1137.49,-477.43 1139.07,-478.759 1140.72,-479.991"/>
<polygon fill="midnightblue" stroke="midnightblue" points="1139.18,-483.152 1149.54,-485.394 1142.84,-477.184 1139.18,-483.152"/>
</g>
<!-- Node23 -->
<g id="node23" class="node"><title>Node23</title>
<g id="a_node23"><a xlink:href="../../d6/d34/classmodel_1_1_turtle.html#ae79a1eae7eed55d121c3b85299ae14ba" target="_top" xlink:title="model.Turtle.getID">
<polygon fill="white" stroke="black" points="1162,-257.5 1162,-276.5 1266,-276.5 1266,-257.5 1162,-257.5"/>
<text text-anchor="middle" x="1214" y="-264.5" font-family="Helvetica,sans-Serif" font-size="10.00">model.Turtle.getID</text>
</a>
</g>
</g>
<!-- Node22&#45;&gt;Node23 -->
<g id="edge24" class="edge"><title>Node22&#45;&gt;Node23</title>
<path fill="none" stroke="midnightblue" d="M1069.02,-312.987C1079.46,-309.988 1090.11,-306.63 1100,-303 1116.61,-296.901 1119.33,-291.927 1136,-286 1143.04,-283.499 1150.55,-281.205 1158.02,-279.142"/>
<polygon fill="midnightblue" stroke="midnightblue" points="1158.99,-282.504 1167.77,-276.566 1157.2,-275.736 1158.99,-282.504"/>
</g>
<!-- Node24 -->
<g id="node24" class="node"><title>Node24</title>
<g id="a_node24"><a xlink:href="../../d6/d34/classmodel_1_1_turtle.html#a279f2bdb3fa955acdd52b7824ec3cd04" target="_top" xlink:title="model.Turtle.getPenStatus">
<polygon fill="white" stroke="black" points="1142.5,-219.5 1142.5,-238.5 1285.5,-238.5 1285.5,-219.5 1142.5,-219.5"/>
<text text-anchor="middle" x="1214" y="-226.5" font-family="Helvetica,sans-Serif" font-size="10.00">model.Turtle.getPenStatus</text>
</a>
</g>
</g>
<!-- Node22&#45;&gt;Node24 -->
<g id="edge28" class="edge"><title>Node22&#45;&gt;Node24</title>
<path fill="none" stroke="midnightblue" d="M1082.8,-312.809C1088.89,-310.065 1094.72,-306.825 1100,-303 1123.66,-285.861 1112.16,-264.894 1136,-248 1138.84,-245.988 1141.87,-244.189 1145.02,-242.579"/>
<polygon fill="midnightblue" stroke="midnightblue" points="1146.45,-245.773 1154.18,-238.526 1143.62,-239.371 1146.45,-245.773"/>
</g>
<!-- Node26 -->
<g id="node26" class="node"><title>Node26</title>
<g id="a_node26"><a xlink:href="../../d7/da6/classview_1_1_turtle_draw.html#a1325ca376115619f15f5014eb4c5ad2a" target="_top" xlink:title="view.TurtleDraw.drawLine">
<polygon fill="white" stroke="black" points="1147.5,-181.5 1147.5,-200.5 1280.5,-200.5 1280.5,-181.5 1147.5,-181.5"/>
<text text-anchor="middle" x="1214" y="-188.5" font-family="Helvetica,sans-Serif" font-size="10.00">view.TurtleDraw.drawLine</text>
</a>
</g>
</g>
<!-- Node22&#45;&gt;Node26 -->
<g id="edge30" class="edge"><title>Node22&#45;&gt;Node26</title>
<path fill="none" stroke="midnightblue" d="M1085.98,-312.777C1091.03,-310.031 1095.77,-306.799 1100,-303 1132.97,-273.376 1102.73,-239.282 1136,-210 1137.76,-208.448 1139.63,-207.018 1141.59,-205.702"/>
<polygon fill="midnightblue" stroke="midnightblue" points="1143.63,-208.57 1150.64,-200.624 1140.2,-202.465 1143.63,-208.57"/>
</g>
<!-- Node27 -->
<g id="node27" class="node"><title>Node27</title>
<g id="a_node27"><a xlink:href="../../d6/d34/classmodel_1_1_turtle.html#a832234461564763f8330181b3c1163ff" target="_top" xlink:title="model.Turtle.getPrevLocation">
<polygon fill="white" stroke="black" points="1136.5,-447.5 1136.5,-466.5 1291.5,-466.5 1291.5,-447.5 1136.5,-447.5"/>
<text text-anchor="middle" x="1214" y="-454.5" font-family="Helvetica,sans-Serif" font-size="10.00">model.Turtle.getPrevLocation</text>
</a>
</g>
</g>
<!-- Node22&#45;&gt;Node27 -->
<g id="edge31" class="edge"><title>Node22&#45;&gt;Node27</title>
<path fill="none" stroke="midnightblue" d="M1087.18,-343.19C1091.77,-345.701 1096.09,-348.617 1100,-352 1131.33,-379.118 1104.53,-411.049 1136,-438 1137.97,-439.685 1140.06,-441.225 1142.25,-442.632"/>
<polygon fill="midnightblue" stroke="midnightblue" points="1140.67,-445.752 1151.13,-447.426 1143.99,-439.593 1140.67,-445.752"/>
</g>
<!-- Node28 -->
<g id="node28" class="node"><title>Node28</title>
<g id="a_node28"><a xlink:href="../../d6/d34/classmodel_1_1_turtle.html#a2470b9b4ef48a261324047de8ebdc242" target="_top" xlink:title="model.Turtle.getNewLocation">
<polygon fill="white" stroke="black" points="1136.5,-409.5 1136.5,-428.5 1291.5,-428.5 1291.5,-409.5 1136.5,-409.5"/>
<text text-anchor="middle" x="1214" y="-416.5" font-family="Helvetica,sans-Serif" font-size="10.00">model.Turtle.getNewLocation</text>
</a>
</g>
</g>
<!-- Node22&#45;&gt;Node28 -->
<g id="edge32" class="edge"><title>Node22&#45;&gt;Node28</title>
<path fill="none" stroke="midnightblue" d="M1083.48,-343.106C1089.29,-345.626 1094.87,-348.568 1100,-352 1122.16,-366.835 1113.76,-385.283 1136,-400 1139.11,-402.059 1142.43,-403.895 1145.87,-405.532"/>
<polygon fill="midnightblue" stroke="midnightblue" points="1144.64,-408.811 1155.22,-409.417 1147.32,-402.347 1144.64,-408.811"/>
</g>
<!-- Node29 -->
<g id="node29" class="node"><title>Node29</title>
<g id="a_node29"><a xlink:href="../../d6/d34/classmodel_1_1_turtle.html#a19c059b1cbfbd4e8f046ec2403de3fb9" target="_top" xlink:title="model.Turtle.getPenDash">
<polygon fill="white" stroke="black" points="1145.5,-371.5 1145.5,-390.5 1282.5,-390.5 1282.5,-371.5 1145.5,-371.5"/>
<text text-anchor="middle" x="1214" y="-378.5" font-family="Helvetica,sans-Serif" font-size="10.00">model.Turtle.getPenDash</text>
</a>
</g>
</g>
<!-- Node22&#45;&gt;Node29 -->
<g id="edge33" class="edge"><title>Node22&#45;&gt;Node29</title>
<path fill="none" stroke="midnightblue" d="M1066.08,-343.072C1077.35,-345.997 1089.05,-349.066 1100,-352 1116.04,-356.297 1119.94,-357.788 1136,-362 1144.9,-364.334 1154.4,-366.744 1163.58,-369.031"/>
<polygon fill="midnightblue" stroke="midnightblue" points="1162.83,-372.45 1173.38,-371.456 1164.51,-365.655 1162.83,-372.45"/>
</g>
<!-- Node31 -->
<g id="node31" class="node"><title>Node31</title>
<g id="a_node31"><a xlink:href="../../d6/d34/classmodel_1_1_turtle.html#a193c156784f783064ae533b619b6be6e" target="_top" xlink:title="model.Turtle.getPenColor">
<polygon fill="white" stroke="black" points="1145.5,-333.5 1145.5,-352.5 1282.5,-352.5 1282.5,-333.5 1145.5,-333.5"/>
<text text-anchor="middle" x="1214" y="-340.5" font-family="Helvetica,sans-Serif" font-size="10.00">model.Turtle.getPenColor</text>
</a>
</g>
</g>
<!-- Node22&#45;&gt;Node31 -->
<g id="edge35" class="edge"><title>Node22&#45;&gt;Node31</title>
<path fill="none" stroke="midnightblue" d="M1100.06,-334.776C1111.85,-335.635 1123.82,-336.506 1135.33,-337.345"/>
<polygon fill="midnightblue" stroke="midnightblue" points="1135.1,-340.837 1145.32,-338.072 1135.61,-333.855 1135.1,-340.837"/>
</g>
<!-- Node33 -->
<g id="node33" class="node"><title>Node33</title>
<g id="a_node33"><a xlink:href="../../d6/d34/classmodel_1_1_turtle.html#a1c5d07962ede5fbfacc59413274d4300" target="_top" xlink:title="model.Turtle.getHeading">
<polygon fill="white" stroke="black" points="1147,-295.5 1147,-314.5 1281,-314.5 1281,-295.5 1147,-295.5"/>
<text text-anchor="middle" x="1214" y="-302.5" font-family="Helvetica,sans-Serif" font-size="10.00">model.Turtle.getHeading</text>
</a>
</g>
</g>
<!-- Node22&#45;&gt;Node33 -->
<g id="edge38" class="edge"><title>Node22&#45;&gt;Node33</title>
<path fill="none" stroke="midnightblue" d="M1100.06,-317.61C1112.38,-316.234 1124.9,-314.836 1136.9,-313.496"/>
<polygon fill="midnightblue" stroke="midnightblue" points="1137.29,-316.975 1146.84,-312.387 1136.51,-310.018 1137.29,-316.975"/>
</g>
<!-- Node25 -->
<g id="node25" class="node"><title>Node25</title>
<g id="a_node25"><a xlink:href="../../de/ded/classmodel_1_1_pen.html#afad4fb3e51847cacab72c036ddaa108f" target="_top" xlink:title="model.Pen.getStatus">
<polygon fill="white" stroke="black" points="1356,-219.5 1356,-238.5 1474,-238.5 1474,-219.5 1356,-219.5"/>
<text text-anchor="middle" x="1415" y="-226.5" font-family="Helvetica,sans-Serif" font-size="10.00">model.Pen.getStatus</text>
</a>
</g>
</g>
<!-- Node24&#45;&gt;Node25 -->
<g id="edge29" class="edge"><title>Node24&#45;&gt;Node25</title>
<path fill="none" stroke="midnightblue" d="M1285.72,-229C1305.23,-229 1326.35,-229 1345.72,-229"/>
<polygon fill="midnightblue" stroke="midnightblue" points="1345.97,-232.5 1355.97,-229 1345.97,-225.5 1345.97,-232.5"/>
</g>
<!-- Node30 -->
<g id="node30" class="node"><title>Node30</title>
<g id="a_node30"><a xlink:href="../../de/ded/classmodel_1_1_pen.html#a6999f4af56377415621f193ef8600e27" target="_top" xlink:title="model.Pen.getDash">
<polygon fill="white" stroke="black" points="1359.5,-371.5 1359.5,-390.5 1470.5,-390.5 1470.5,-371.5 1359.5,-371.5"/>
<text text-anchor="middle" x="1415" y="-378.5" font-family="Helvetica,sans-Serif" font-size="10.00">model.Pen.getDash</text>
</a>
</g>
</g>
<!-- Node29&#45;&gt;Node30 -->
<g id="edge34" class="edge"><title>Node29&#45;&gt;Node30</title>
<path fill="none" stroke="midnightblue" d="M1282.65,-381C1304.15,-381 1327.86,-381 1349.15,-381"/>
<polygon fill="midnightblue" stroke="midnightblue" points="1349.39,-384.5 1359.39,-381 1349.39,-377.5 1349.39,-384.5"/>
</g>
<!-- Node32 -->
<g id="node32" class="node"><title>Node32</title>
<g id="a_node32"><a xlink:href="../../de/ded/classmodel_1_1_pen.html#a704af31474b10d17caf40773b7971826" target="_top" xlink:title="model.Pen.getPenColor">
<polygon fill="white" stroke="black" points="1350.5,-333.5 1350.5,-352.5 1479.5,-352.5 1479.5,-333.5 1350.5,-333.5"/>
<text text-anchor="middle" x="1415" y="-340.5" font-family="Helvetica,sans-Serif" font-size="10.00">model.Pen.getPenColor</text>
</a>
</g>
</g>
<!-- Node31&#45;&gt;Node32 -->
<g id="edge36" class="edge"><title>Node31&#45;&gt;Node32</title>
<path fill="none" stroke="midnightblue" d="M1282.65,-343C1301.18,-343 1321.36,-343 1340.21,-343"/>
<polygon fill="midnightblue" stroke="midnightblue" points="1340.23,-346.5 1350.23,-343 1340.23,-339.5 1340.23,-346.5"/>
</g>
</g>
</svg>
