<?xml version="1.0" encoding="UTF-8" standalone="no"?>
<!DOCTYPE svg PUBLIC "-//W3C//DTD SVG 1.1//EN"
 "http://www.w3.org/Graphics/SVG/1.1/DTD/svg11.dtd">
<!-- Generated by graphviz version 2.36.0 (20140111.2315)
 -->
<!-- Title: commands.OneInputCommand Pages: 1 -->
<!--zoomable 674 -->
<svg id="main" version="1.1" xmlns="http://www.w3.org/2000/svg" xmlns:xlink="http://www.w3.org/1999/xlink" xml:space="preserve" onload="init(evt)">
<style type="text/css"><![CDATA[
.edge:hover path { stroke: red; }
.edge:hover polygon { stroke: red; fill: red; }
]]></style>
<script type="text/javascript"><![CDATA[
var edges = document.getElementsByTagName('g');
if (edges && edges.length) {
  for (var i=0;i<edges.length;i++) {
    if (edges[i].id.substr(0,4)=='edge') {
      edges[i].setAttribute('class','edge');
    }
  }
}
]]></script>
        <defs>
                <circle id="rim" cx="0" cy="0" r="7"/>
                <circle id="rim2" cx="0" cy="0" r="3.5"/>
                <g id="zoomPlus">
                        <use xlink:href="#rim" fill="#404040">
                                <set attributeName="fill" to="#808080" begin="zoomplus.mouseover" end="zoomplus.mouseout"/>
                        </use>
                        <path d="M-4,0h8M0,-4v8" fill="none" stroke="white" stroke-width="1.5" pointer-events="none"/>
                </g>
                <g id="zoomMin">
                        <use xlink:href="#rim" fill="#404040">
                                <set attributeName="fill" to="#808080" begin="zoomminus.mouseover" end="zoomminus.mouseout"/>
                        </use>
                        <path d="M-4,0h8" fill="none" stroke="white" stroke-width="1.5" pointer-events="none"/>
                </g>
                <g id="dirArrow">
                        <path fill="none" stroke="white" stroke-width="1.5" d="M0,-3.0v7 M-2.5,-0.5L0,-3.0L2.5,-0.5"/>
                </g>
               <g id="resetDef">
                       <use xlink:href="#rim2" fill="#404040">
                               <set attributeName="fill" to="#808080" begin="reset.mouseover" end="reset.mouseout"/>
                       </use>
               </g>
        </defs>

<script type="text/javascript">
var viewWidth = 556;
var viewHeight = 674;
var sectionId = 'dynsection-0';
</script>
<script xlink:href="../../svgpan.js"/>
<svg id="graph" class="graph">
<g id="viewport">
<title>commands.OneInputCommand</title>
<polygon fill="white" stroke="none" points="-4,4 -4,-670 552,-670 552,4 -4,4"/>
<!-- Node1 -->
<g id="node1" class="node"><title>Node1</title>
<polygon fill="#bfbfbf" stroke="black" points="160.5,-323.5 160.5,-342.5 327.5,-342.5 327.5,-323.5 160.5,-323.5"/>
<text text-anchor="middle" x="244" y="-330.5" font-family="Helvetica,sans-Serif" font-size="10.00">commands.OneInputCommand</text>
</g>
<!-- Node3 -->
<g id="node3" class="node"><title>Node3</title>
<g id="a_node3"><a xlink:href="../../de/da1/classcommands_1_1_arc_tangent_command.html" target="_top" xlink:title="commands.ArcTangentCommand">
<polygon fill="white" stroke="black" points="367.5,-646.5 367.5,-665.5 544.5,-665.5 544.5,-646.5 367.5,-646.5"/>
<text text-anchor="middle" x="456" y="-653.5" font-family="Helvetica,sans-Serif" font-size="10.00">commands.ArcTangentCommand</text>
</a>
</g>
</g>
<!-- Node1&#45;&gt;Node3 -->
<g id="edge2" class="edge"><title>Node1&#45;&gt;Node3</title>
<path fill="none" stroke="midnightblue" d="M246.438,-352.511C251.539,-406.803 273.683,-560.655 364,-637 368.437,-640.751 373.426,-643.822 378.724,-646.332"/>
<polygon fill="midnightblue" stroke="midnightblue" points="249.921,-352.17 245.589,-342.501 242.946,-352.761 249.921,-352.17"/>
</g>
<!-- Node4 -->
<g id="node4" class="node"><title>Node4</title>
<g id="a_node4"><a xlink:href="../../d6/ddc/classcommands_1_1_backward_command.html" target="_top" xlink:title="commands.BackwardCommand">
<polygon fill="white" stroke="black" points="371,-608.5 371,-627.5 541,-627.5 541,-608.5 371,-608.5"/>
<text text-anchor="middle" x="456" y="-615.5" font-family="Helvetica,sans-Serif" font-size="10.00">commands.BackwardCommand</text>
</a>
</g>
</g>
<!-- Node1&#45;&gt;Node4 -->
<g id="edge3" class="edge"><title>Node1&#45;&gt;Node4</title>
<path fill="none" stroke="midnightblue" d="M247.666,-352.698C255.5,-402.471 283.214,-533.94 364,-599 368.651,-602.745 373.858,-605.805 379.364,-608.299"/>
<polygon fill="midnightblue" stroke="midnightblue" points="251.102,-352.007 246.182,-342.624 244.177,-353.028 251.102,-352.007"/>
</g>
<!-- Node5 -->
<g id="node5" class="node"><title>Node5</title>
<g id="a_node5"><a xlink:href="../../d8/d39/classcommands_1_1_cosine_command.html" target="_top" xlink:title="commands.CosineCommand">
<polygon fill="white" stroke="black" points="378,-570.5 378,-589.5 534,-589.5 534,-570.5 378,-570.5"/>
<text text-anchor="middle" x="456" y="-577.5" font-family="Helvetica,sans-Serif" font-size="10.00">commands.CosineCommand</text>
</a>
</g>
</g>
<!-- Node1&#45;&gt;Node5 -->
<g id="edge4" class="edge"><title>Node1&#45;&gt;Node5</title>
<path fill="none" stroke="midnightblue" d="M249.213,-352.572C259.899,-397.209 292.445,-506.852 364,-561 369.019,-564.798 374.621,-567.88 380.512,-570.376"/>
<polygon fill="midnightblue" stroke="midnightblue" points="252.597,-351.666 246.957,-342.697 245.772,-353.225 252.597,-351.666"/>
</g>
<!-- Node6 -->
<g id="node6" class="node"><title>Node6</title>
<g id="a_node6"><a xlink:href="../../dd/de4/classcommands_1_1_custom_command.html" target="_top" xlink:title="commands.CustomCommand">
<polygon fill="white" stroke="black" points="375.5,-532.5 375.5,-551.5 536.5,-551.5 536.5,-532.5 375.5,-532.5"/>
<text text-anchor="middle" x="456" y="-539.5" font-family="Helvetica,sans-Serif" font-size="10.00">commands.CustomCommand</text>
</a>
</g>
</g>
<!-- Node1&#45;&gt;Node6 -->
<g id="edge5" class="edge"><title>Node1&#45;&gt;Node6</title>
<path fill="none" stroke="midnightblue" d="M251.314,-352.465C265.05,-391.534 301.533,-479.476 364,-523 369.562,-526.875 375.748,-529.99 382.204,-532.49"/>
<polygon fill="midnightblue" stroke="midnightblue" points="254.568,-351.164 248.04,-342.819 247.939,-353.414 254.568,-351.164"/>
</g>
<!-- Node7 -->
<g id="node7" class="node"><title>Node7</title>
<g id="a_node7"><a xlink:href="../../da/d4f/classcommands_1_1_forward_command.html" target="_top" xlink:title="commands.ForwardCommand">
<polygon fill="white" stroke="black" points="375.5,-494.5 375.5,-513.5 536.5,-513.5 536.5,-494.5 375.5,-494.5"/>
<text text-anchor="middle" x="456" y="-501.5" font-family="Helvetica,sans-Serif" font-size="10.00">commands.ForwardCommand</text>
</a>
</g>
</g>
<!-- Node1&#45;&gt;Node7 -->
<g id="edge6" class="edge"><title>Node1&#45;&gt;Node7</title>
<path fill="none" stroke="midnightblue" d="M254.024,-351.702C270.812,-384.358 310.09,-451.486 364,-485 370.168,-488.834 376.979,-491.908 384.017,-494.369"/>
<polygon fill="midnightblue" stroke="midnightblue" points="257.15,-350.127 249.545,-342.749 250.889,-353.259 257.15,-350.127"/>
</g>
<!-- Node8 -->
<g id="node8" class="node"><title>Node8</title>
<g id="a_node8"><a xlink:href="../../dc/d65/classcommands_1_1_left_command.html" target="_top" xlink:title="commands.LeftCommand">
<polygon fill="white" stroke="black" points="385,-456.5 385,-475.5 527,-475.5 527,-456.5 385,-456.5"/>
<text text-anchor="middle" x="456" y="-463.5" font-family="Helvetica,sans-Serif" font-size="10.00">commands.LeftCommand</text>
</a>
</g>
</g>
<!-- Node1&#45;&gt;Node8 -->
<g id="edge7" class="edge"><title>Node1&#45;&gt;Node8</title>
<path fill="none" stroke="midnightblue" d="M258.256,-350.915C278.205,-376.491 318.489,-423.023 364,-447 371.425,-450.912 379.588,-454.018 387.883,-456.485"/>
<polygon fill="midnightblue" stroke="midnightblue" points="260.922,-348.639 252.073,-342.813 255.358,-352.886 260.922,-348.639"/>
</g>
<!-- Node9 -->
<g id="node9" class="node"><title>Node9</title>
<g id="a_node9"><a xlink:href="../../df/df5/classcommands_1_1_minus_command.html" target="_top" xlink:title="commands.MinusCommand">
<polygon fill="white" stroke="black" points="380,-418.5 380,-437.5 532,-437.5 532,-418.5 380,-418.5"/>
<text text-anchor="middle" x="456" y="-425.5" font-family="Helvetica,sans-Serif" font-size="10.00">commands.MinusCommand</text>
</a>
</g>
</g>
<!-- Node1&#45;&gt;Node9 -->
<g id="edge8" class="edge"><title>Node1&#45;&gt;Node9</title>
<path fill="none" stroke="midnightblue" d="M264.823,-348.889C287.484,-366.253 326.325,-393.641 364,-409 373.415,-412.838 383.708,-415.938 393.875,-418.431"/>
<polygon fill="midnightblue" stroke="midnightblue" points="266.734,-345.941 256.695,-342.556 262.432,-351.463 266.734,-345.941"/>
</g>
<!-- Node10 -->
<g id="node10" class="node"><title>Node10</title>
<g id="a_node10"><a xlink:href="../../d7/d78/classcommands_1_1_natural_log_command.html" target="_top" xlink:title="commands.NaturalLogCommand">
<polygon fill="white" stroke="black" points="368,-380.5 368,-399.5 544,-399.5 544,-380.5 368,-380.5"/>
<text text-anchor="middle" x="456" y="-387.5" font-family="Helvetica,sans-Serif" font-size="10.00">commands.NaturalLogCommand</text>
</a>
</g>
</g>
<!-- Node1&#45;&gt;Node10 -->
<g id="edge9" class="edge"><title>Node1&#45;&gt;Node10</title>
<path fill="none" stroke="midnightblue" d="M281.698,-345.801C305.076,-353.686 336.106,-363.655 364,-371 377.11,-374.452 391.414,-377.684 404.718,-380.469"/>
<polygon fill="midnightblue" stroke="midnightblue" points="282.773,-342.47 272.178,-342.563 280.518,-349.097 282.773,-342.47"/>
</g>
<!-- Node11 -->
<g id="node11" class="node"><title>Node11</title>
<g id="a_node11"><a xlink:href="../../d0/d69/classcommands_1_1_not_command.html" target="_top" xlink:title="commands.NotCommand">
<polygon fill="white" stroke="black" points="385.5,-342.5 385.5,-361.5 526.5,-361.5 526.5,-342.5 385.5,-342.5"/>
<text text-anchor="middle" x="456" y="-349.5" font-family="Helvetica,sans-Serif" font-size="10.00">commands.NotCommand</text>
</a>
</g>
</g>
<!-- Node1&#45;&gt;Node11 -->
<g id="edge10" class="edge"><title>Node1&#45;&gt;Node11</title>
<path fill="none" stroke="midnightblue" d="M338.051,-341.419C353.912,-342.854 370.143,-344.322 385.268,-345.691"/>
<polygon fill="midnightblue" stroke="midnightblue" points="337.971,-337.897 327.696,-340.482 337.34,-344.869 337.971,-337.897"/>
</g>
<!-- Node12 -->
<g id="node12" class="node"><title>Node12</title>
<g id="a_node12"><a xlink:href="../../d0/d5d/classcommands_1_1_random_command.html" target="_top" xlink:title="commands.RandomCommand">
<polygon fill="white" stroke="black" points="374,-304.5 374,-323.5 538,-323.5 538,-304.5 374,-304.5"/>
<text text-anchor="middle" x="456" y="-311.5" font-family="Helvetica,sans-Serif" font-size="10.00">commands.RandomCommand</text>
</a>
</g>
</g>
<!-- Node1&#45;&gt;Node12 -->
<g id="edge11" class="edge"><title>Node1&#45;&gt;Node12</title>
<path fill="none" stroke="midnightblue" d="M337.718,-324.611C349.726,-323.525 361.952,-322.419 373.755,-321.351"/>
<polygon fill="midnightblue" stroke="midnightblue" points="337.34,-321.131 327.696,-325.518 337.971,-328.103 337.34,-321.131"/>
</g>
<!-- Node13 -->
<g id="node13" class="node"><title>Node13</title>
<g id="a_node13"><a xlink:href="../../dd/db2/classcommands_1_1_right_command.html" target="_top" xlink:title="commands.RightCommand">
<polygon fill="white" stroke="black" points="382,-266.5 382,-285.5 530,-285.5 530,-266.5 382,-266.5"/>
<text text-anchor="middle" x="456" y="-273.5" font-family="Helvetica,sans-Serif" font-size="10.00">commands.RightCommand</text>
</a>
</g>
</g>
<!-- Node1&#45;&gt;Node13 -->
<g id="edge12" class="edge"><title>Node1&#45;&gt;Node13</title>
<path fill="none" stroke="midnightblue" d="M281.698,-320.199C305.076,-312.314 336.106,-302.345 364,-295 377.11,-291.548 391.414,-288.316 404.718,-285.531"/>
<polygon fill="midnightblue" stroke="midnightblue" points="280.518,-316.903 272.178,-323.437 282.773,-323.53 280.518,-316.903"/>
</g>
<!-- Node14 -->
<g id="node14" class="node"><title>Node14</title>
<g id="a_node14"><a xlink:href="../../dc/db3/classcommands_1_1_set_heading_command.html" target="_top" xlink:title="commands.SetHeadingCommand">
<polygon fill="white" stroke="black" points="366,-228.5 366,-247.5 546,-247.5 546,-228.5 366,-228.5"/>
<text text-anchor="middle" x="456" y="-235.5" font-family="Helvetica,sans-Serif" font-size="10.00">commands.SetHeadingCommand</text>
</a>
</g>
</g>
<!-- Node1&#45;&gt;Node14 -->
<g id="edge13" class="edge"><title>Node1&#45;&gt;Node14</title>
<path fill="none" stroke="midnightblue" d="M264.823,-317.111C287.484,-299.747 326.325,-272.359 364,-257 373.415,-253.162 383.708,-250.062 393.875,-247.569"/>
<polygon fill="midnightblue" stroke="midnightblue" points="262.432,-314.537 256.695,-323.444 266.734,-320.059 262.432,-314.537"/>
</g>
<!-- Node15 -->
<g id="node15" class="node"><title>Node15</title>
<g id="a_node15"><a xlink:href="../../d6/d11/classcommands_1_1_set_pen_dash_command.html" target="_top" xlink:title="commands.SetPenDashCommand">
<polygon fill="white" stroke="black" points="364.5,-190.5 364.5,-209.5 547.5,-209.5 547.5,-190.5 364.5,-190.5"/>
<text text-anchor="middle" x="456" y="-197.5" font-family="Helvetica,sans-Serif" font-size="10.00">commands.SetPenDashCommand</text>
</a>
</g>
</g>
<!-- Node1&#45;&gt;Node15 -->
<g id="edge14" class="edge"><title>Node1&#45;&gt;Node15</title>
<path fill="none" stroke="midnightblue" d="M258.256,-315.085C278.205,-289.509 318.489,-242.977 364,-219 371.425,-215.088 379.588,-211.982 387.883,-209.515"/>
<polygon fill="midnightblue" stroke="midnightblue" points="255.358,-313.114 252.073,-323.187 260.922,-317.361 255.358,-313.114"/>
</g>
<!-- Node16 -->
<g id="node16" class="node"><title>Node16</title>
<g id="a_node16"><a xlink:href="../../d2/dbb/classcommands_1_1_set_pen_size_command.html" target="_top" xlink:title="commands.SetPenSizeCommand">
<polygon fill="white" stroke="black" points="366.5,-152.5 366.5,-171.5 545.5,-171.5 545.5,-152.5 366.5,-152.5"/>
<text text-anchor="middle" x="456" y="-159.5" font-family="Helvetica,sans-Serif" font-size="10.00">commands.SetPenSizeCommand</text>
</a>
</g>
</g>
<!-- Node1&#45;&gt;Node16 -->
<g id="edge15" class="edge"><title>Node1&#45;&gt;Node16</title>
<path fill="none" stroke="midnightblue" d="M254.024,-314.298C270.812,-281.642 310.09,-214.514 364,-181 370.168,-177.166 376.979,-174.092 384.017,-171.631"/>
<polygon fill="midnightblue" stroke="midnightblue" points="250.889,-312.741 249.545,-323.251 257.15,-315.873 250.889,-312.741"/>
</g>
<!-- Node17 -->
<g id="node17" class="node"><title>Node17</title>
<g id="a_node17"><a xlink:href="../../d6/daf/classcommands_1_1_set_shape_command.html" target="_top" xlink:title="commands.SetShapeCommand">
<polygon fill="white" stroke="black" points="370.5,-114.5 370.5,-133.5 541.5,-133.5 541.5,-114.5 370.5,-114.5"/>
<text text-anchor="middle" x="456" y="-121.5" font-family="Helvetica,sans-Serif" font-size="10.00">commands.SetShapeCommand</text>
</a>
</g>
</g>
<!-- Node1&#45;&gt;Node17 -->
<g id="edge16" class="edge"><title>Node1&#45;&gt;Node17</title>
<path fill="none" stroke="midnightblue" d="M251.314,-313.535C265.05,-274.466 301.533,-186.524 364,-143 369.562,-139.125 375.748,-136.01 382.204,-133.51"/>
<polygon fill="midnightblue" stroke="midnightblue" points="247.939,-312.586 248.04,-323.181 254.568,-314.836 247.939,-312.586"/>
</g>
<!-- Node18 -->
<g id="node18" class="node"><title>Node18</title>
<g id="a_node18"><a xlink:href="../../db/dbd/classcommands_1_1_sine_command.html" target="_top" xlink:title="commands.SineCommand">
<polygon fill="white" stroke="black" points="383.5,-76.5 383.5,-95.5 528.5,-95.5 528.5,-76.5 383.5,-76.5"/>
<text text-anchor="middle" x="456" y="-83.5" font-family="Helvetica,sans-Serif" font-size="10.00">commands.SineCommand</text>
</a>
</g>
</g>
<!-- Node1&#45;&gt;Node18 -->
<g id="edge17" class="edge"><title>Node1&#45;&gt;Node18</title>
<path fill="none" stroke="midnightblue" d="M249.213,-313.428C259.899,-268.791 292.445,-159.148 364,-105 369.791,-100.617 376.359,-97.1886 383.25,-94.5135"/>
<polygon fill="midnightblue" stroke="midnightblue" points="245.772,-312.775 246.957,-323.303 252.597,-314.334 245.772,-312.775"/>
</g>
<!-- Node19 -->
<g id="node19" class="node"><title>Node19</title>
<g id="a_node19"><a xlink:href="../../de/d19/classcommands_1_1_tangent_command.html" target="_top" xlink:title="commands.TangentCommand">
<polygon fill="white" stroke="black" points="375.5,-38.5 375.5,-57.5 536.5,-57.5 536.5,-38.5 375.5,-38.5"/>
<text text-anchor="middle" x="456" y="-45.5" font-family="Helvetica,sans-Serif" font-size="10.00">commands.TangentCommand</text>
</a>
</g>
</g>
<!-- Node1&#45;&gt;Node19 -->
<g id="edge18" class="edge"><title>Node1&#45;&gt;Node19</title>
<path fill="none" stroke="midnightblue" d="M247.666,-313.302C255.5,-263.529 283.214,-132.06 364,-67 368.651,-63.2545 373.858,-60.1948 379.364,-57.7009"/>
<polygon fill="midnightblue" stroke="midnightblue" points="244.177,-312.972 246.182,-323.376 251.102,-313.993 244.177,-312.972"/>
</g>
<!-- Node20 -->
<g id="node20" class="node"><title>Node20</title>
<g id="a_node20"><a xlink:href="../../d1/d53/classcommands_1_1_tell_command.html" target="_top" xlink:title="commands.TellCommand">
<polygon fill="white" stroke="black" points="387,-0.5 387,-19.5 525,-19.5 525,-0.5 387,-0.5"/>
<text text-anchor="middle" x="456" y="-7.5" font-family="Helvetica,sans-Serif" font-size="10.00">commands.TellCommand</text>
</a>
</g>
</g>
<!-- Node1&#45;&gt;Node20 -->
<g id="edge19" class="edge"><title>Node1&#45;&gt;Node20</title>
<path fill="none" stroke="midnightblue" d="M246.438,-313.489C251.539,-259.197 273.683,-105.345 364,-29 370.656,-23.3738 378.553,-19.2757 386.871,-16.3115"/>
<polygon fill="midnightblue" stroke="midnightblue" points="242.946,-313.239 245.589,-323.499 249.921,-313.83 242.946,-313.239"/>
</g>
<!-- Node2 -->
<g id="node2" class="node"><title>Node2</title>
<g id="a_node2"><a xlink:href="../../dd/dd6/classcommands_1_1_command.html" target="_top" xlink:title="commands.Command">
<polygon fill="white" stroke="black" points="0,-323.5 0,-342.5 124,-342.5 124,-323.5 0,-323.5"/>
<text text-anchor="middle" x="62" y="-330.5" font-family="Helvetica,sans-Serif" font-size="10.00">commands.Command</text>
</a>
</g>
</g>
<!-- Node2&#45;&gt;Node1 -->
<g id="edge1" class="edge"><title>Node2&#45;&gt;Node1</title>
<path fill="none" stroke="midnightblue" d="M134.424,-333C142.926,-333 151.658,-333 160.3,-333"/>
<polygon fill="midnightblue" stroke="midnightblue" points="134.191,-329.5 124.191,-333 134.191,-336.5 134.191,-329.5"/>
</g>
</g>
</svg>
        <g id="navigator" transform="translate(0 0)" fill="#404254">
                <rect fill="#f2f5e9" fill-opacity="0.5" stroke="#606060" stroke-width=".5" x="0" y="0" width="60" height="60"/>
                <use id="zoomplus" xlink:href="#zoomPlus" x="17" y="9" onmousedown="handleZoom(evt,'in')"/>
                <use id="zoomminus" xlink:href="#zoomMin" x="42" y="9" onmousedown="handleZoom(evt,'out')"/>
                <use id="reset" xlink:href="#resetDef" x="30" y="36" onmousedown="handleReset()"/>
                <g id="arrowUp" xlink:href="#dirArrow" transform="translate(30 24)" onmousedown="handlePan(0,-1)">
                  <use xlink:href="#rim" fill="#404040">
                        <set attributeName="fill" to="#808080" begin="arrowUp.mouseover" end="arrowUp.mouseout"/>
                  </use>
                  <path fill="none" stroke="white" stroke-width="1.5" d="M0,-3.0v7 M-2.5,-0.5L0,-3.0L2.5,-0.5"/>
                </g>
                <g id="arrowRight" xlink:href="#dirArrow" transform="rotate(90) translate(36 -43)" onmousedown="handlePan(1,0)">
                  <use xlink:href="#rim" fill="#404040">
                        <set attributeName="fill" to="#808080" begin="arrowRight.mouseover" end="arrowRight.mouseout"/>
                  </use>
                  <path fill="none" stroke="white" stroke-width="1.5" d="M0,-3.0v7 M-2.5,-0.5L0,-3.0L2.5,-0.5"/>
                </g>
                <g id="arrowDown" xlink:href="#dirArrow" transform="rotate(180) translate(-30 -48)" onmousedown="handlePan(0,1)">
                  <use xlink:href="#rim" fill="#404040">
                        <set attributeName="fill" to="#808080" begin="arrowDown.mouseover" end="arrowDown.mouseout"/>
                  </use>
                  <path fill="none" stroke="white" stroke-width="1.5" d="M0,-3.0v7 M-2.5,-0.5L0,-3.0L2.5,-0.5"/>
                </g>
                <g id="arrowLeft" xlink:href="#dirArrow" transform="rotate(270) translate(-36 17)" onmousedown="handlePan(-1,0)">
                  <use xlink:href="#rim" fill="#404040">
                        <set attributeName="fill" to="#808080" begin="arrowLeft.mouseover" end="arrowLeft.mouseout"/>
                  </use>
                  <path fill="none" stroke="white" stroke-width="1.5" d="M0,-3.0v7 M-2.5,-0.5L0,-3.0L2.5,-0.5"/>
                </g>
        </g>
        <svg viewBox="0 0 15 15" width="100%" height="30px" preserveAspectRatio="xMaxYMin meet">
         <g id="arrow_out" transform="scale(0.3 0.3)">
          <a xlink:href="classcommands_1_1_one_input_command__inherit__graph_org.svg" target="_base">
           <rect id="button" ry="5" rx="5" y="6" x="6" height="38" width="38"
                fill="#f2f5e9" fill-opacity="0.5" stroke="#606060" stroke-width="1.0"/>
           <path id="arrow"
             d="M 11.500037,31.436501 C 11.940474,20.09759 22.043105,11.32322 32.158766,21.979434 L 37.068811,17.246167 C 37.068811,17.246167 37.088388,32 37.088388,32 L 22.160133,31.978069 C 22.160133,31.978069 26.997745,27.140456 26.997745,27.140456 C 18.528582,18.264221 13.291696,25.230495 11.500037,31.436501 z"
             style="fill:#404040;"/>
          </a>
         </g>
        </svg>
</svg>
