<?xml version="1.0" encoding="UTF-8" standalone="no"?>
<!DOCTYPE svg PUBLIC "-//W3C//DTD SVG 1.1//EN"
 "http://www.w3.org/Graphics/SVG/1.1/DTD/svg11.dtd">
<!-- Generated by graphviz version 2.36.0 (20140111.2315)
 -->
<!-- Title: commands.SetHeadingCommand Pages: 1 -->
<svg width="252pt" height="144pt"
 viewBox="0.00 0.00 252.00 144.00" xmlns="http://www.w3.org/2000/svg" xmlns:xlink="http://www.w3.org/1999/xlink">
<g id="graph0" class="graph" transform="scale(1 1) rotate(0) translate(4 140)">
<title>commands.SetHeadingCommand</title>
<polygon fill="white" stroke="none" points="-4,4 -4,-140 248,-140 248,4 -4,4"/>
<!-- Node1 -->
<g id="node1" class="node"><title>Node1</title>
<polygon fill="#bfbfbf" stroke="black" points="0,-0.5 0,-19.5 180,-19.5 180,-0.5 0,-0.5"/>
<text text-anchor="middle" x="90" y="-7.5" font-family="Helvetica,sans-Serif" font-size="10.00">commands.SetHeadingCommand</text>
</g>
<!-- Node2 -->
<g id="node2" class="node"><title>Node2</title>
<g id="a_node2"><a xlink:href="../../d6/d9f/classcommands_1_1_one_input_command.html" target="_top" xlink:title="commands.OneInputCommand">
<polygon fill="white" stroke="black" points="6.5,-58.5 6.5,-77.5 173.5,-77.5 173.5,-58.5 6.5,-58.5"/>
<text text-anchor="middle" x="90" y="-65.5" font-family="Helvetica,sans-Serif" font-size="10.00">commands.OneInputCommand</text>
</a>
</g>
</g>
<!-- Node2&#45;&gt;Node1 -->
<g id="edge1" class="edge"><title>Node2&#45;&gt;Node1</title>
<path fill="none" stroke="midnightblue" d="M90,-47.953C90,-38.2875 90,-27.0312 90,-19.5052"/>
<polygon fill="midnightblue" stroke="midnightblue" points="86.5001,-48.25 90,-58.25 93.5001,-48.25 86.5001,-48.25"/>
</g>
<!-- Node3 -->
<g id="node3" class="node"><title>Node3</title>
<g id="a_node3"><a xlink:href="../../dd/dd6/classcommands_1_1_command.html" target="_top" xlink:title="commands.Command">
<polygon fill="white" stroke="black" points="28,-116.5 28,-135.5 152,-135.5 152,-116.5 28,-116.5"/>
<text text-anchor="middle" x="90" y="-123.5" font-family="Helvetica,sans-Serif" font-size="10.00">commands.Command</text>
</a>
</g>
</g>
<!-- Node3&#45;&gt;Node2 -->
<g id="edge2" class="edge"><title>Node3&#45;&gt;Node2</title>
<path fill="none" stroke="midnightblue" d="M90,-105.953C90,-96.2875 90,-85.0312 90,-77.5052"/>
<polygon fill="midnightblue" stroke="midnightblue" points="86.5001,-106.25 90,-116.25 93.5001,-106.25 86.5001,-106.25"/>
</g>
<!-- Node3&#45;&gt;Node3 -->
<g id="edge3" class="edge"><title>Node3&#45;&gt;Node3</title>
<path fill="none" stroke="#9a32cd" stroke-dasharray="5,2" d="M162.252,-129.592C166.474,-128.73 169,-127.533 169,-126 169,-123.484 162.198,-121.873 152.261,-121.165"/>
<polygon fill="#9a32cd" stroke="#9a32cd" points="161.752,-126.127 152.261,-130.835 162.617,-133.073 161.752,-126.127"/>
<text text-anchor="middle" x="206" y="-123.5" font-family="Helvetica,sans-Serif" font-size="10.00"> myParameters</text>
</g>
</g>
</svg>
