<?xml version="1.0" encoding="UTF-8" standalone="no"?>
<!DOCTYPE svg PUBLIC "-//W3C//DTD SVG 1.1//EN"
 "http://www.w3.org/Graphics/SVG/1.1/DTD/svg11.dtd">
<!-- Generated by graphviz version 2.36.0 (20140111.2315)
 -->
<!-- Title: commands.ListCommand Pages: 1 -->
<svg width="359pt" height="154pt"
 viewBox="0.00 0.00 359.00 154.00" xmlns="http://www.w3.org/2000/svg" xmlns:xlink="http://www.w3.org/1999/xlink">
<g id="graph0" class="graph" transform="scale(1 1) rotate(0) translate(4 150)">
<title>commands.ListCommand</title>
<polygon fill="white" stroke="none" points="-4,4 -4,-150 355,-150 355,4 -4,4"/>
<!-- Node1 -->
<g id="node1" class="node"><title>Node1</title>
<polygon fill="#bfbfbf" stroke="black" points="153,-0.5 153,-19.5 293,-19.5 293,-0.5 153,-0.5"/>
<text text-anchor="middle" x="223" y="-7.5" font-family="Helvetica,sans-Serif" font-size="10.00">commands.ListCommand</text>
</g>
<!-- Node2 -->
<g id="node2" class="node"><title>Node2</title>
<g id="a_node2"><a xlink:href="../../db/d5d/classcommands_1_1_zero_input_command.html" target="_top" xlink:title="commands.ZeroInputCommand">
<polygon fill="white" stroke="black" points="-0.5,-68.5 -0.5,-87.5 170.5,-87.5 170.5,-68.5 -0.5,-68.5"/>
<text text-anchor="middle" x="85" y="-75.5" font-family="Helvetica,sans-Serif" font-size="10.00">commands.ZeroInputCommand</text>
</a>
</g>
</g>
<!-- Node2&#45;&gt;Node1 -->
<g id="edge1" class="edge"><title>Node2&#45;&gt;Node1</title>
<path fill="none" stroke="midnightblue" d="M112.109,-64.0346C139.577,-50.898 181.294,-30.9463 204.954,-19.6305"/>
<polygon fill="midnightblue" stroke="midnightblue" points="110.552,-60.8996 103.041,-68.3717 113.573,-67.2145 110.552,-60.8996"/>
</g>
<!-- Node3 -->
<g id="node3" class="node"><title>Node3</title>
<g id="a_node3"><a xlink:href="../../dd/dd6/classcommands_1_1_command.html" target="_top" xlink:title="commands.Command">
<polygon fill="white" stroke="black" points="23,-126.5 23,-145.5 147,-145.5 147,-126.5 23,-126.5"/>
<text text-anchor="middle" x="85" y="-133.5" font-family="Helvetica,sans-Serif" font-size="10.00">commands.Command</text>
</a>
</g>
</g>
<!-- Node3&#45;&gt;Node2 -->
<g id="edge2" class="edge"><title>Node3&#45;&gt;Node2</title>
<path fill="none" stroke="midnightblue" d="M85,-115.953C85,-106.287 85,-95.0312 85,-87.5052"/>
<polygon fill="midnightblue" stroke="midnightblue" points="81.5001,-116.25 85,-126.25 88.5001,-116.25 81.5001,-116.25"/>
</g>
<!-- Node3&#45;&gt;Node3 -->
<g id="edge3" class="edge"><title>Node3&#45;&gt;Node3</title>
<path fill="none" stroke="#9a32cd" stroke-dasharray="5,2" d="M157.252,-139.592C161.474,-138.73 164,-137.533 164,-136 164,-133.484 157.198,-131.873 147.261,-131.165"/>
<polygon fill="#9a32cd" stroke="#9a32cd" points="156.752,-136.127 147.261,-140.835 157.617,-143.073 156.752,-136.127"/>
<text text-anchor="middle" x="201" y="-133.5" font-family="Helvetica,sans-Serif" font-size="10.00"> myParameters</text>
</g>
<!-- Node4 -->
<g id="node4" class="node"><title>Node4</title>
<polygon fill="white" stroke="#bfbfbf" points="188.5,-68.5 188.5,-87.5 351.5,-87.5 351.5,-68.5 188.5,-68.5"/>
<text text-anchor="middle" x="270" y="-75.5" font-family="Helvetica,sans-Serif" font-size="10.00">List&lt; commands.Command &gt;</text>
</g>
<!-- Node4&#45;&gt;Node1 -->
<g id="edge4" class="edge"><title>Node4&#45;&gt;Node1</title>
<path fill="none" stroke="#9a32cd" stroke-dasharray="5,2" d="M257.85,-59.9377C248.716,-47.112 236.572,-30.0591 229.296,-19.8411"/>
<polygon fill="#9a32cd" stroke="#9a32cd" points="255.204,-62.2562 263.856,-68.3717 260.906,-58.1957 255.204,-62.2562"/>
<text text-anchor="middle" x="292.5" y="-41.5" font-family="Helvetica,sans-Serif" font-size="10.00"> myCommandList</text>
</g>
</g>
</svg>
