<?xml version="1.0" encoding="UTF-8" standalone="no"?>
<!DOCTYPE svg PUBLIC "-//W3C//DTD SVG 1.1//EN"
 "http://www.w3.org/Graphics/SVG/1.1/DTD/svg11.dtd">
<!-- Generated by graphviz version 2.36.0 (20140111.2315)
 -->
<!-- Title: model.Turtle Pages: 1 -->
<svg width="414pt" height="186pt"
 viewBox="0.00 0.00 414.00 186.00" xmlns="http://www.w3.org/2000/svg" xmlns:xlink="http://www.w3.org/1999/xlink">
<g id="graph0" class="graph" transform="scale(1 1) rotate(0) translate(4 182)">
<title>model.Turtle</title>
<polygon fill="white" stroke="none" points="-4,4 -4,-182 410,-182 410,4 -4,4"/>
<!-- Node1 -->
<g id="node1" class="node"><title>Node1</title>
<polygon fill="#bfbfbf" stroke="black" points="179.5,-0.5 179.5,-19.5 254.5,-19.5 254.5,-0.5 179.5,-0.5"/>
<text text-anchor="middle" x="217" y="-7.5" font-family="Helvetica,sans-Serif" font-size="10.00">model.Turtle</text>
</g>
<!-- Node2 -->
<g id="node2" class="node"><title>Node2</title>
<polygon fill="white" stroke="#bfbfbf" points="0,-90.5 0,-109.5 128,-109.5 128,-90.5 0,-90.5"/>
<text text-anchor="middle" x="64" y="-97.5" font-family="Helvetica,sans-Serif" font-size="10.00">Comparable&lt; Object &gt;</text>
</g>
<!-- Node2&#45;&gt;Node1 -->
<g id="edge1" class="edge"><title>Node2&#45;&gt;Node1</title>
<path fill="none" stroke="midnightblue" d="M84.9601,-84.8599C104.333,-72.0231 134.101,-52.8812 161,-38 172.994,-31.3644 186.87,-24.6677 197.809,-19.6035"/>
<polygon fill="midnightblue" stroke="midnightblue" points="82.9678,-81.9816 76.5908,-90.4424 86.8521,-87.805 82.9678,-81.9816"/>
</g>
<!-- Node3 -->
<g id="node3" class="node"><title>Node3</title>
<polygon fill="white" stroke="#bfbfbf" points="146,-90.5 146,-109.5 200,-109.5 200,-90.5 146,-90.5"/>
<text text-anchor="middle" x="173" y="-97.5" font-family="Helvetica,sans-Serif" font-size="10.00">Point2D</text>
</g>
<!-- Node3&#45;&gt;Node1 -->
<g id="edge2" class="edge"><title>Node3&#45;&gt;Node1</title>
<path fill="none" stroke="#9a32cd" stroke-dasharray="5,2" d="M167.08,-80.4754C164.141,-67.6964 162.605,-50.7758 170,-38 174.808,-29.6926 183.246,-23.7189 191.658,-19.538"/>
<polygon fill="#9a32cd" stroke="#9a32cd" points="163.795,-81.727 169.836,-90.431 170.541,-79.8596 163.795,-81.727"/>
<text text-anchor="middle" x="202.5" y="-63.5" font-family="Helvetica,sans-Serif" font-size="10.00"> myNextPoint</text>
<text text-anchor="middle" x="202.5" y="-52.5" font-family="Helvetica,sans-Serif" font-size="10.00">myCurrPoint</text>
<text text-anchor="middle" x="202.5" y="-41.5" font-family="Helvetica,sans-Serif" font-size="10.00">myFirstPoint</text>
</g>
<!-- Node4 -->
<g id="node4" class="node"><title>Node4</title>
<g id="a_node4"><a xlink:href="../../de/ded/classmodel_1_1_pen.html" target="_top" xlink:title="model.Pen">
<polygon fill="white" stroke="black" points="223,-90.5 223,-109.5 291,-109.5 291,-90.5 223,-90.5"/>
<text text-anchor="middle" x="257" y="-97.5" font-family="Helvetica,sans-Serif" font-size="10.00">model.Pen</text>
</a>
</g>
</g>
<!-- Node4&#45;&gt;Node1 -->
<g id="edge3" class="edge"><title>Node4&#45;&gt;Node1</title>
<path fill="none" stroke="#9a32cd" stroke-dasharray="5,2" d="M253.478,-80.1885C250.667,-67.7361 246.02,-51.3101 239,-38 235.502,-31.3681 230.231,-24.8261 225.726,-19.8429"/>
<polygon fill="#9a32cd" stroke="#9a32cd" points="250.115,-81.2142 255.559,-90.3038 256.972,-79.8036 250.115,-81.2142"/>
<text text-anchor="middle" x="270.5" y="-52.5" font-family="Helvetica,sans-Serif" font-size="10.00"> myPen</text>
</g>
<!-- Node5 -->
<g id="node5" class="node"><title>Node5</title>
<polygon fill="white" stroke="#bfbfbf" points="236.5,-158.5 236.5,-177.5 277.5,-177.5 277.5,-158.5 236.5,-158.5"/>
<text text-anchor="middle" x="257" y="-165.5" font-family="Helvetica,sans-Serif" font-size="10.00">Color</text>
</g>
<!-- Node5&#45;&gt;Node4 -->
<g id="edge4" class="edge"><title>Node5&#45;&gt;Node4</title>
<path fill="none" stroke="#9a32cd" stroke-dasharray="5,2" d="M257,-148.041C257,-135.472 257,-119.563 257,-109.841"/>
<polygon fill="#9a32cd" stroke="#9a32cd" points="253.5,-148.372 257,-158.372 260.5,-148.372 253.5,-148.372"/>
<text text-anchor="middle" x="278.5" y="-131.5" font-family="Helvetica,sans-Serif" font-size="10.00"> myColor</text>
</g>
<!-- Node6 -->
<g id="node6" class="node"><title>Node6</title>
<polygon fill="white" stroke="#bfbfbf" points="309.5,-90.5 309.5,-109.5 402.5,-109.5 402.5,-90.5 309.5,-90.5"/>
<text text-anchor="middle" x="356" y="-97.5" font-family="Helvetica,sans-Serif" font-size="10.00">List&lt; Point2D &gt;</text>
</g>
<!-- Node6&#45;&gt;Node1 -->
<g id="edge5" class="edge"><title>Node6&#45;&gt;Node1</title>
<path fill="none" stroke="#9a32cd" stroke-dasharray="5,2" d="M342.692,-82.673C330.874,-69.0941 312.498,-50.0974 293,-38 280.031,-29.9534 264.328,-23.8642 250.57,-19.5243"/>
<polygon fill="#9a32cd" stroke="#9a32cd" points="340.025,-84.9397 349.153,-90.3176 345.371,-80.4209 340.025,-84.9397"/>
<text text-anchor="middle" x="369.5" y="-52.5" font-family="Helvetica,sans-Serif" font-size="10.00"> myTurtlePoints</text>
</g>
</g>
</svg>
