<?xml version="1.0" encoding="UTF-8" standalone="no"?>
<!DOCTYPE svg PUBLIC "-//W3C//DTD SVG 1.1//EN"
 "http://www.w3.org/Graphics/SVG/1.1/DTD/svg11.dtd">
<!-- Generated by graphviz version 2.36.0 (20140111.2315)
 -->
<!-- Title: commands.SetPaletteCommand Pages: 1 -->
<svg width="248pt" height="144pt"
 viewBox="0.00 0.00 248.00 144.00" xmlns="http://www.w3.org/2000/svg" xmlns:xlink="http://www.w3.org/1999/xlink">
<g id="graph0" class="graph" transform="scale(1 1) rotate(0) translate(4 140)">
<title>commands.SetPaletteCommand</title>
<polygon fill="white" stroke="none" points="-4,4 -4,-140 244,-140 244,4 -4,4"/>
<!-- Node1 -->
<g id="node1" class="node"><title>Node1</title>
<polygon fill="#bfbfbf" stroke="black" points="-0.5,-0.5 -0.5,-19.5 172.5,-19.5 172.5,-0.5 -0.5,-0.5"/>
<text text-anchor="middle" x="86" y="-7.5" font-family="Helvetica,sans-Serif" font-size="10.00">commands.SetPaletteCommand</text>
</g>
<!-- Node2 -->
<g id="node2" class="node"><title>Node2</title>
<g id="a_node2"><a xlink:href="../../db/d5d/classcommands_1_1_zero_input_command.html" target="_top" xlink:title="commands.ZeroInputCommand">
<polygon fill="white" stroke="black" points="0.5,-58.5 0.5,-77.5 171.5,-77.5 171.5,-58.5 0.5,-58.5"/>
<text text-anchor="middle" x="86" y="-65.5" font-family="Helvetica,sans-Serif" font-size="10.00">commands.ZeroInputCommand</text>
</a>
</g>
</g>
<!-- Node2&#45;&gt;Node1 -->
<g id="edge1" class="edge"><title>Node2&#45;&gt;Node1</title>
<path fill="none" stroke="midnightblue" d="M86,-47.953C86,-38.2875 86,-27.0312 86,-19.5052"/>
<polygon fill="midnightblue" stroke="midnightblue" points="82.5001,-48.25 86,-58.25 89.5001,-48.25 82.5001,-48.25"/>
</g>
<!-- Node3 -->
<g id="node3" class="node"><title>Node3</title>
<g id="a_node3"><a xlink:href="../../dd/dd6/classcommands_1_1_command.html" target="_top" xlink:title="commands.Command">
<polygon fill="white" stroke="black" points="24,-116.5 24,-135.5 148,-135.5 148,-116.5 24,-116.5"/>
<text text-anchor="middle" x="86" y="-123.5" font-family="Helvetica,sans-Serif" font-size="10.00">commands.Command</text>
</a>
</g>
</g>
<!-- Node3&#45;&gt;Node2 -->
<g id="edge2" class="edge"><title>Node3&#45;&gt;Node2</title>
<path fill="none" stroke="midnightblue" d="M86,-105.953C86,-96.2875 86,-85.0312 86,-77.5052"/>
<polygon fill="midnightblue" stroke="midnightblue" points="82.5001,-106.25 86,-116.25 89.5001,-106.25 82.5001,-106.25"/>
</g>
<!-- Node3&#45;&gt;Node3 -->
<g id="edge3" class="edge"><title>Node3&#45;&gt;Node3</title>
<path fill="none" stroke="#9a32cd" stroke-dasharray="5,2" d="M158.252,-129.592C162.474,-128.73 165,-127.533 165,-126 165,-123.484 158.198,-121.873 148.261,-121.165"/>
<polygon fill="#9a32cd" stroke="#9a32cd" points="157.752,-126.127 148.261,-130.835 158.617,-133.073 157.752,-126.127"/>
<text text-anchor="middle" x="202" y="-123.5" font-family="Helvetica,sans-Serif" font-size="10.00"> myParameters</text>
</g>
</g>
</svg>
