<?xml version="1.0" encoding="UTF-8" standalone="no"?>
<!DOCTYPE svg PUBLIC "-//W3C//DTD SVG 1.1//EN"
 "http://www.w3.org/Graphics/SVG/1.1/DTD/svg11.dtd">
<!-- Generated by graphviz version 2.36.0 (20140111.2315)
 -->
<!-- Title: commands.GetPenColorCommand.executeCommand Pages: 1 -->
<svg width="632pt" height="118pt"
 viewBox="0.00 0.00 632.00 118.00" xmlns="http://www.w3.org/2000/svg" xmlns:xlink="http://www.w3.org/1999/xlink">
<g id="graph0" class="graph" transform="scale(1 1) rotate(0) translate(4 114)">
<title>commands.GetPenColorCommand.executeCommand</title>
<polygon fill="white" stroke="none" points="-4,4 -4,-114 628,-114 628,4 -4,4"/>
<!-- Node1 -->
<g id="node1" class="node"><title>Node1</title>
<polygon fill="#bfbfbf" stroke="black" points="0.5,-17 0.5,-47 225.5,-47 225.5,-17 0.5,-17"/>
<text text-anchor="start" x="8.5" y="-35" font-family="Helvetica,sans-Serif" font-size="10.00">commands.GetPenColorCommand.execute</text>
<text text-anchor="middle" x="113" y="-24" font-family="Helvetica,sans-Serif" font-size="10.00">Command</text>
</g>
<!-- Node2 -->
<g id="node2" class="node"><title>Node2</title>
<g id="a_node2"><a xlink:href="../../dd/dd6/classcommands_1_1_command.html#a761bd86c36bd6e2d0c4145647c7a4a17" target="_top" xlink:title="commands.Command.getFirst\lTurtle">
<polygon fill="white" stroke="black" points="262,-39 262,-69 424,-69 424,-39 262,-39"/>
<text text-anchor="start" x="270" y="-57" font-family="Helvetica,sans-Serif" font-size="10.00">commands.Command.getFirst</text>
<text text-anchor="middle" x="343" y="-46" font-family="Helvetica,sans-Serif" font-size="10.00">Turtle</text>
</a>
</g>
</g>
<!-- Node1&#45;&gt;Node2 -->
<g id="edge1" class="edge"><title>Node1&#45;&gt;Node2</title>
<path fill="none" stroke="midnightblue" d="M225.662,-42.7744C234.421,-43.6195 243.197,-44.4664 251.786,-45.2951"/>
<polygon fill="midnightblue" stroke="midnightblue" points="251.479,-48.7816 261.769,-46.2584 252.151,-41.814 251.479,-48.7816"/>
</g>
<!-- Node5 -->
<g id="node5" class="node"><title>Node5</title>
<g id="a_node5"><a xlink:href="../../d6/d34/classmodel_1_1_turtle.html#a193c156784f783064ae533b619b6be6e" target="_top" xlink:title="model.Turtle.getPenColor">
<polygon fill="white" stroke="black" points="274.5,-0.5 274.5,-19.5 411.5,-19.5 411.5,-0.5 274.5,-0.5"/>
<text text-anchor="middle" x="343" y="-7.5" font-family="Helvetica,sans-Serif" font-size="10.00">model.Turtle.getPenColor</text>
</a>
</g>
</g>
<!-- Node1&#45;&gt;Node5 -->
<g id="edge4" class="edge"><title>Node1&#45;&gt;Node5</title>
<path fill="none" stroke="midnightblue" d="M225.662,-21.2256C238.62,-19.9753 251.618,-18.7211 263.986,-17.5276"/>
<polygon fill="midnightblue" stroke="midnightblue" points="264.595,-20.9852 274.213,-16.5409 263.923,-14.0176 264.595,-20.9852"/>
</g>
<!-- Node3 -->
<g id="node3" class="node"><title>Node3</title>
<g id="a_node3"><a xlink:href="../../df/d50/classmodel_1_1_turtle_set_manager.html#a9a65c0be3b9c21abaf0ebaa54e5b8484" target="_top" xlink:title="model.TurtleSetManager.get\lActiveTurtles">
<polygon fill="white" stroke="black" points="466,-80 466,-110 618,-110 618,-80 466,-80"/>
<text text-anchor="start" x="474" y="-98" font-family="Helvetica,sans-Serif" font-size="10.00">model.TurtleSetManager.get</text>
<text text-anchor="middle" x="542" y="-87" font-family="Helvetica,sans-Serif" font-size="10.00">ActiveTurtles</text>
</a>
</g>
</g>
<!-- Node2&#45;&gt;Node3 -->
<g id="edge2" class="edge"><title>Node2&#45;&gt;Node3</title>
<path fill="none" stroke="midnightblue" d="M416.237,-69.0341C430.022,-71.903 444.547,-74.926 458.621,-77.8551"/>
<polygon fill="midnightblue" stroke="midnightblue" points="458.268,-81.3567 468.772,-79.9677 459.695,-74.5035 458.268,-81.3567"/>
</g>
<!-- Node4 -->
<g id="node4" class="node"><title>Node4</title>
<g id="a_node4"><a xlink:href="../../d3/d42/classmodel_1_1_model.html#a1a683ba5e58fcb3c8882c8e61df20dc0" target="_top" xlink:title="model.Model.getTurtleManager">
<polygon fill="white" stroke="black" points="460,-41.5 460,-60.5 624,-60.5 624,-41.5 460,-41.5"/>
<text text-anchor="middle" x="542" y="-48.5" font-family="Helvetica,sans-Serif" font-size="10.00">model.Model.getTurtleManager</text>
</a>
</g>
</g>
<!-- Node2&#45;&gt;Node4 -->
<g id="edge3" class="edge"><title>Node2&#45;&gt;Node4</title>
<path fill="none" stroke="midnightblue" d="M424.127,-52.7798C432.626,-52.6504 441.314,-52.5181 449.926,-52.3869"/>
<polygon fill="midnightblue" stroke="midnightblue" points="450.039,-55.8857 459.984,-52.2337 449.932,-48.8865 450.039,-55.8857"/>
</g>
<!-- Node6 -->
<g id="node6" class="node"><title>Node6</title>
<g id="a_node6"><a xlink:href="../../de/ded/classmodel_1_1_pen.html#a704af31474b10d17caf40773b7971826" target="_top" xlink:title="model.Pen.getPenColor">
<polygon fill="white" stroke="black" points="477.5,-0.5 477.5,-19.5 606.5,-19.5 606.5,-0.5 477.5,-0.5"/>
<text text-anchor="middle" x="542" y="-7.5" font-family="Helvetica,sans-Serif" font-size="10.00">model.Pen.getPenColor</text>
</a>
</g>
</g>
<!-- Node5&#45;&gt;Node6 -->
<g id="edge5" class="edge"><title>Node5&#45;&gt;Node6</title>
<path fill="none" stroke="midnightblue" d="M411.521,-10C429.47,-10 448.949,-10 467.214,-10"/>
<polygon fill="midnightblue" stroke="midnightblue" points="467.22,-13.5001 477.22,-10 467.22,-6.5001 467.22,-13.5001"/>
</g>
</g>
</svg>
