<?xml version="1.0" encoding="UTF-8" standalone="no"?>
<!DOCTYPE svg PUBLIC "-//W3C//DTD SVG 1.1//EN"
 "http://www.w3.org/Graphics/SVG/1.1/DTD/svg11.dtd">
<!-- Generated by graphviz version 2.36.0 (20140111.2315)
 -->
<!-- Title: commands.XCoordinateCommand Pages: 1 -->
<svg width="253pt" height="144pt"
 viewBox="0.00 0.00 253.00 144.00" xmlns="http://www.w3.org/2000/svg" xmlns:xlink="http://www.w3.org/1999/xlink">
<g id="graph0" class="graph" transform="scale(1 1) rotate(0) translate(4 140)">
<title>commands.XCoordinateCommand</title>
<polygon fill="white" stroke="none" points="-4,4 -4,-140 249,-140 249,4 -4,4"/>
<!-- Node1 -->
<g id="node1" class="node"><title>Node1</title>
<polygon fill="#bfbfbf" stroke="black" points="0,-0.5 0,-19.5 182,-19.5 182,-0.5 0,-0.5"/>
<text text-anchor="middle" x="91" y="-7.5" font-family="Helvetica,sans-Serif" font-size="10.00">commands.XCoordinateCommand</text>
</g>
<!-- Node2 -->
<g id="node2" class="node"><title>Node2</title>
<g id="a_node2"><a xlink:href="../../db/d5d/classcommands_1_1_zero_input_command.html" target="_top" xlink:title="commands.ZeroInputCommand">
<polygon fill="white" stroke="black" points="5.5,-58.5 5.5,-77.5 176.5,-77.5 176.5,-58.5 5.5,-58.5"/>
<text text-anchor="middle" x="91" y="-65.5" font-family="Helvetica,sans-Serif" font-size="10.00">commands.ZeroInputCommand</text>
</a>
</g>
</g>
<!-- Node2&#45;&gt;Node1 -->
<g id="edge1" class="edge"><title>Node2&#45;&gt;Node1</title>
<path fill="none" stroke="midnightblue" d="M91,-47.953C91,-38.2875 91,-27.0312 91,-19.5052"/>
<polygon fill="midnightblue" stroke="midnightblue" points="87.5001,-48.25 91,-58.25 94.5001,-48.25 87.5001,-48.25"/>
</g>
<!-- Node3 -->
<g id="node3" class="node"><title>Node3</title>
<g id="a_node3"><a xlink:href="../../dd/dd6/classcommands_1_1_command.html" target="_top" xlink:title="commands.Command">
<polygon fill="white" stroke="black" points="29,-116.5 29,-135.5 153,-135.5 153,-116.5 29,-116.5"/>
<text text-anchor="middle" x="91" y="-123.5" font-family="Helvetica,sans-Serif" font-size="10.00">commands.Command</text>
</a>
</g>
</g>
<!-- Node3&#45;&gt;Node2 -->
<g id="edge2" class="edge"><title>Node3&#45;&gt;Node2</title>
<path fill="none" stroke="midnightblue" d="M91,-105.953C91,-96.2875 91,-85.0312 91,-77.5052"/>
<polygon fill="midnightblue" stroke="midnightblue" points="87.5001,-106.25 91,-116.25 94.5001,-106.25 87.5001,-106.25"/>
</g>
<!-- Node3&#45;&gt;Node3 -->
<g id="edge3" class="edge"><title>Node3&#45;&gt;Node3</title>
<path fill="none" stroke="#9a32cd" stroke-dasharray="5,2" d="M163.252,-129.592C167.474,-128.73 170,-127.533 170,-126 170,-123.484 163.198,-121.873 153.261,-121.165"/>
<polygon fill="#9a32cd" stroke="#9a32cd" points="162.752,-126.127 153.261,-130.835 163.617,-133.073 162.752,-126.127"/>
<text text-anchor="middle" x="207" y="-123.5" font-family="Helvetica,sans-Serif" font-size="10.00"> myParameters</text>
</g>
</g>
</svg>
