<?xml version="1.0" encoding="UTF-8" standalone="no"?>
<!DOCTYPE svg PUBLIC "-//W3C//DTD SVG 1.1//EN"
 "http://www.w3.org/Graphics/SVG/1.1/DTD/svg11.dtd">
<!-- Generated by graphviz version 2.36.0 (20140111.2315)
 -->
<!-- Title: commands.AskCommand.executeCommand Pages: 1 -->
<!--zoomable 587 -->
<svg id="main" version="1.1" xmlns="http://www.w3.org/2000/svg" xmlns:xlink="http://www.w3.org/1999/xlink" xml:space="preserve" onload="init(evt)">
<style type="text/css"><![CDATA[
.edge:hover path { stroke: red; }
.edge:hover polygon { stroke: red; fill: red; }
]]></style>
<script type="text/javascript"><![CDATA[
var edges = document.getElementsByTagName('g');
if (edges && edges.length) {
  for (var i=0;i<edges.length;i++) {
    if (edges[i].id.substr(0,4)=='edge') {
      edges[i].setAttribute('class','edge');
    }
  }
}
]]></script>
        <defs>
                <circle id="rim" cx="0" cy="0" r="7"/>
                <circle id="rim2" cx="0" cy="0" r="3.5"/>
                <g id="zoomPlus">
                        <use xlink:href="#rim" fill="#404040">
                                <set attributeName="fill" to="#808080" begin="zoomplus.mouseover" end="zoomplus.mouseout"/>
                        </use>
                        <path d="M-4,0h8M0,-4v8" fill="none" stroke="white" stroke-width="1.5" pointer-events="none"/>
                </g>
                <g id="zoomMin">
                        <use xlink:href="#rim" fill="#404040">
                                <set attributeName="fill" to="#808080" begin="zoomminus.mouseover" end="zoomminus.mouseout"/>
                        </use>
                        <path d="M-4,0h8" fill="none" stroke="white" stroke-width="1.5" pointer-events="none"/>
                </g>
                <g id="dirArrow">
                        <path fill="none" stroke="white" stroke-width="1.5" d="M0,-3.0v7 M-2.5,-0.5L0,-3.0L2.5,-0.5"/>
                </g>
               <g id="resetDef">
                       <use xlink:href="#rim2" fill="#404040">
                               <set attributeName="fill" to="#808080" begin="reset.mouseover" end="reset.mouseout"/>
                       </use>
               </g>
        </defs>

<script type="text/javascript">
var viewWidth = 1518;
var viewHeight = 587;
var sectionId = 'dynsection-2';
</script>
<script xlink:href="../../svgpan.js"/>
<svg id="graph" class="graph">
<g id="viewport">
<title>commands.AskCommand.executeCommand</title>
<polygon fill="white" stroke="none" points="-4,4 -4,-582.867 1514,-582.867 1514,4 -4,4"/>
<!-- Node1 -->
<g id="node1" class="node"><title>Node1</title>
<polygon fill="#bfbfbf" stroke="black" points="0,-381 0,-411 182,-411 182,-381 0,-381"/>
<text text-anchor="start" x="8" y="-399" font-family="Helvetica,sans-Serif" font-size="10.00">commands.AskCommand.execute</text>
<text text-anchor="middle" x="91" y="-388" font-family="Helvetica,sans-Serif" font-size="10.00">Command</text>
</g>
<!-- Node2 -->
<g id="node2" class="node"><title>Node2</title>
<g id="a_node2"><a xlink:href="../../d1/d53/classcommands_1_1_tell_command.html#a516b9cdfe48014e8b0d8b9275a886b8f" target="_top" xlink:title="commands.TellCommand.execute\lCommand">
<polygon fill="white" stroke="black" points="689.5,-539 689.5,-569 868.5,-569 868.5,-539 689.5,-539"/>
<text text-anchor="start" x="697.5" y="-557" font-family="Helvetica,sans-Serif" font-size="10.00">commands.TellCommand.execute</text>
<text text-anchor="middle" x="779" y="-546" font-family="Helvetica,sans-Serif" font-size="10.00">Command</text>
</a>
</g>
</g>
<!-- Node1&#45;&gt;Node2 -->
<g id="edge1" class="edge"><title>Node1&#45;&gt;Node2</title>
<path fill="none" stroke="midnightblue" d="M101.453,-411.388C119.833,-439.701 163.416,-499.402 218,-524 367.861,-591.535 563.617,-583.041 679.555,-569.425"/>
<polygon fill="midnightblue" stroke="midnightblue" points="679.979,-572.899 689.486,-568.223 679.138,-565.95 679.979,-572.899"/>
</g>
<!-- Node3 -->
<g id="node3" class="node"><title>Node3</title>
<g id="a_node3"><a xlink:href="../../d3/d42/classmodel_1_1_model.html#a1a683ba5e58fcb3c8882c8e61df20dc0" target="_top" xlink:title="model.Model.getTurtleManager">
<polygon fill="white" stroke="black" points="932,-500.5 932,-519.5 1096,-519.5 1096,-500.5 932,-500.5"/>
<text text-anchor="middle" x="1014" y="-507.5" font-family="Helvetica,sans-Serif" font-size="10.00">model.Model.getTurtleManager</text>
</a>
</g>
</g>
<!-- Node1&#45;&gt;Node3 -->
<g id="edge46" class="edge"><title>Node1&#45;&gt;Node3</title>
<path fill="none" stroke="midnightblue" d="M127.543,-411.024C152.474,-421.053 186.794,-433.848 218,-442 466.605,-506.942 772.318,-513.474 921.867,-512.146"/>
<polygon fill="midnightblue" stroke="midnightblue" points="921.962,-515.645 931.926,-512.043 921.89,-508.646 921.962,-515.645"/>
</g>
<!-- Node6 -->
<g id="node6" class="node"><title>Node6</title>
<g id="a_node6"><a xlink:href="../../dd/dd6/classcommands_1_1_command.html#abafa69601e87c34d4453cf84349d6f9c" target="_top" xlink:title="commands.Command.execute\lCommand">
<polygon fill="white" stroke="black" points="234.5,-403 234.5,-433 399.5,-433 399.5,-403 234.5,-403"/>
<text text-anchor="start" x="242.5" y="-421" font-family="Helvetica,sans-Serif" font-size="10.00">commands.Command.execute</text>
<text text-anchor="middle" x="317" y="-410" font-family="Helvetica,sans-Serif" font-size="10.00">Command</text>
</a>
</g>
</g>
<!-- Node1&#45;&gt;Node6 -->
<g id="edge5" class="edge"><title>Node1&#45;&gt;Node6</title>
<path fill="none" stroke="midnightblue" d="M182.141,-404.853C196.032,-406.217 210.39,-407.628 224.315,-408.995"/>
<polygon fill="midnightblue" stroke="midnightblue" points="224.07,-412.488 234.365,-409.982 224.755,-405.521 224.07,-412.488"/>
</g>
<!-- Node37 -->
<g id="node37" class="node"><title>Node37</title>
<g id="a_node37"><a xlink:href="../../df/d50/classmodel_1_1_turtle_set_manager.html#a4ad0ac2e4d298151e399d379309fd520" target="_top" xlink:title="model.TurtleSetManager.get\lStackLength">
<polygon fill="white" stroke="black" points="469,-299 469,-329 621,-329 621,-299 469,-299"/>
<text text-anchor="start" x="477" y="-317" font-family="Helvetica,sans-Serif" font-size="10.00">model.TurtleSetManager.get</text>
<text text-anchor="middle" x="545" y="-306" font-family="Helvetica,sans-Serif" font-size="10.00">StackLength</text>
</a>
</g>
</g>
<!-- Node1&#45;&gt;Node37 -->
<g id="edge45" class="edge"><title>Node1&#45;&gt;Node37</title>
<path fill="none" stroke="midnightblue" d="M182.29,-390.75C247.986,-385.379 338.613,-374.74 416,-354 432.742,-349.513 435.602,-344.618 452,-339 459.266,-336.511 466.921,-334.102 474.585,-331.827"/>
<polygon fill="midnightblue" stroke="midnightblue" points="475.639,-335.166 484.27,-329.021 473.691,-328.443 475.639,-335.166"/>
</g>
<!-- Node38 -->
<g id="node38" class="node"><title>Node38</title>
<g id="a_node38"><a xlink:href="../../df/d50/classmodel_1_1_turtle_set_manager.html#afda0d203a1b72aa246aadb8c2efaef8d" target="_top" xlink:title="model.TurtleSetManager.regulate\lTurtleDepth">
<polygon fill="white" stroke="black" points="229,-315 229,-345 405,-345 405,-315 229,-315"/>
<text text-anchor="start" x="237" y="-333" font-family="Helvetica,sans-Serif" font-size="10.00">model.TurtleSetManager.regulate</text>
<text text-anchor="middle" x="317" y="-322" font-family="Helvetica,sans-Serif" font-size="10.00">TurtleDepth</text>
</a>
</g>
</g>
<!-- Node1&#45;&gt;Node38 -->
<g id="edge47" class="edge"><title>Node1&#45;&gt;Node38</title>
<path fill="none" stroke="midnightblue" d="M143.109,-380.941C176.393,-371.134 219.984,-358.29 255.069,-347.953"/>
<polygon fill="midnightblue" stroke="midnightblue" points="256.12,-351.292 264.723,-345.108 254.141,-344.577 256.12,-351.292"/>
</g>
<!-- Node39 -->
<g id="node39" class="node"><title>Node39</title>
<g id="a_node39"><a xlink:href="../../dd/dd6/classcommands_1_1_command.html#a97daed7994c540f9a74bfbb0d7312c3c" target="_top" xlink:title="commands.Command.setParameters">
<polygon fill="white" stroke="black" points="218.5,-276.5 218.5,-295.5 415.5,-295.5 415.5,-276.5 218.5,-276.5"/>
<text text-anchor="middle" x="317" y="-283.5" font-family="Helvetica,sans-Serif" font-size="10.00">commands.Command.setParameters</text>
</a>
</g>
</g>
<!-- Node1&#45;&gt;Node39 -->
<g id="edge49" class="edge"><title>Node1&#45;&gt;Node39</title>
<path fill="none" stroke="midnightblue" d="M108.069,-380.771C130.715,-360.211 174.169,-323.972 218,-305 223.897,-302.447 230.142,-300.236 236.51,-298.32"/>
<polygon fill="midnightblue" stroke="midnightblue" points="237.873,-301.575 246.586,-295.546 236.015,-294.826 237.873,-301.575"/>
</g>
<!-- Node2&#45;&gt;Node3 -->
<g id="edge2" class="edge"><title>Node2&#45;&gt;Node3</title>
<path fill="none" stroke="midnightblue" d="M859.534,-538.981C889.944,-533.238 924.103,-526.787 952.46,-521.432"/>
<polygon fill="midnightblue" stroke="midnightblue" points="953.451,-524.807 962.627,-519.512 952.152,-517.929 953.451,-524.807"/>
</g>
<!-- Node4 -->
<g id="node4" class="node"><title>Node4</title>
<g id="a_node4"><a xlink:href="../../df/d50/classmodel_1_1_turtle_set_manager.html#a9e215e93eccbed2ab9ebec6119cfe305" target="_top" xlink:title="model.TurtleSetManager.get\lAllTurtles">
<polygon fill="white" stroke="black" points="938,-451 938,-481 1090,-481 1090,-451 938,-451"/>
<text text-anchor="start" x="946" y="-469" font-family="Helvetica,sans-Serif" font-size="10.00">model.TurtleSetManager.get</text>
<text text-anchor="middle" x="1014" y="-458" font-family="Helvetica,sans-Serif" font-size="10.00">AllTurtles</text>
</a>
</g>
</g>
<!-- Node2&#45;&gt;Node4 -->
<g id="edge3" class="edge"><title>Node2&#45;&gt;Node4</title>
<path fill="none" stroke="midnightblue" d="M809.74,-538.935C837.697,-525.18 880.965,-504.928 920,-491 926.929,-488.528 934.223,-486.167 941.552,-483.952"/>
<polygon fill="midnightblue" stroke="midnightblue" points="942.926,-487.197 951.538,-481.026 940.957,-480.479 942.926,-487.197"/>
</g>
<!-- Node5 -->
<g id="node5" class="node"><title>Node5</title>
<g id="a_node5"><a xlink:href="../../df/d50/classmodel_1_1_turtle_set_manager.html#a6bbf5e2e01b397d36664d44a90b3ae55" target="_top" xlink:title="model.TurtleSetManager.add\lTurtleCollection">
<polygon fill="white" stroke="black" points="937,-539 937,-569 1091,-569 1091,-539 937,-539"/>
<text text-anchor="start" x="945" y="-557" font-family="Helvetica,sans-Serif" font-size="10.00">model.TurtleSetManager.add</text>
<text text-anchor="middle" x="1014" y="-546" font-family="Helvetica,sans-Serif" font-size="10.00">TurtleCollection</text>
</a>
</g>
</g>
<!-- Node2&#45;&gt;Node5 -->
<g id="edge4" class="edge"><title>Node2&#45;&gt;Node5</title>
<path fill="none" stroke="midnightblue" d="M868.752,-554C887.72,-554 907.73,-554 926.608,-554"/>
<polygon fill="midnightblue" stroke="midnightblue" points="926.664,-557.5 936.664,-554 926.664,-550.5 926.664,-557.5"/>
</g>
<!-- Node6&#45;&gt;Node3 -->
<g id="edge6" class="edge"><title>Node6&#45;&gt;Node3</title>
<path fill="none" stroke="midnightblue" d="M367.857,-433.006C392.901,-440.034 423.836,-447.952 452,-453 641.922,-487.04 692.087,-476.035 884,-496 896.199,-497.269 909.044,-498.632 921.709,-499.99"/>
<polygon fill="midnightblue" stroke="midnightblue" points="921.494,-503.487 931.811,-501.077 922.243,-496.528 921.494,-503.487"/>
</g>
<!-- Node7 -->
<g id="node7" class="node"><title>Node7</title>
<g id="a_node7"><a xlink:href="../../df/d50/classmodel_1_1_turtle_set_manager.html#a9a65c0be3b9c21abaf0ebaa54e5b8484" target="_top" xlink:title="model.TurtleSetManager.get\lActiveTurtles">
<polygon fill="white" stroke="black" points="938,-402 938,-432 1090,-432 1090,-402 938,-402"/>
<text text-anchor="start" x="946" y="-420" font-family="Helvetica,sans-Serif" font-size="10.00">model.TurtleSetManager.get</text>
<text text-anchor="middle" x="1014" y="-409" font-family="Helvetica,sans-Serif" font-size="10.00">ActiveTurtles</text>
</a>
</g>
</g>
<!-- Node6&#45;&gt;Node7 -->
<g id="edge7" class="edge"><title>Node6&#45;&gt;Node7</title>
<path fill="none" stroke="midnightblue" d="M399.843,-415.877C417.069,-415.511 435.131,-415.189 452,-415 620.579,-413.113 817.669,-414.692 927.642,-415.913"/>
<polygon fill="midnightblue" stroke="midnightblue" points="927.644,-419.413 937.683,-416.026 927.723,-412.414 927.644,-419.413"/>
</g>
<!-- Node8 -->
<g id="node8" class="node"><title>Node8</title>
<g id="a_node8"><a xlink:href="../../dd/dd6/classcommands_1_1_command.html#aec3e0f888945b1811fd739ecea212324" target="_top" xlink:title="commands.Command.updateTurtle">
<polygon fill="white" stroke="black" points="452,-424.5 452,-443.5 638,-443.5 638,-424.5 452,-424.5"/>
<text text-anchor="middle" x="545" y="-431.5" font-family="Helvetica,sans-Serif" font-size="10.00">commands.Command.updateTurtle</text>
</a>
</g>
</g>
<!-- Node6&#45;&gt;Node8 -->
<g id="edge8" class="edge"><title>Node6&#45;&gt;Node8</title>
<path fill="none" stroke="midnightblue" d="M399.591,-423.776C413.224,-424.742 427.52,-425.754 441.595,-426.75"/>
<polygon fill="midnightblue" stroke="midnightblue" points="441.57,-430.257 451.792,-427.472 442.064,-423.274 441.57,-430.257"/>
</g>
<!-- Node9 -->
<g id="node9" class="node"><title>Node9</title>
<g id="a_node9"><a xlink:href="../../d3/d42/classmodel_1_1_model.html#a76160d002c1e68b566307ac44356f6e5" target="_top" xlink:title="model.Model.notifyView">
<polygon fill="white" stroke="black" points="480.5,-348.5 480.5,-367.5 609.5,-367.5 609.5,-348.5 480.5,-348.5"/>
<text text-anchor="middle" x="545" y="-355.5" font-family="Helvetica,sans-Serif" font-size="10.00">model.Model.notifyView</text>
</a>
</g>
</g>
<!-- Node6&#45;&gt;Node9 -->
<g id="edge9" class="edge"><title>Node6&#45;&gt;Node9</title>
<path fill="none" stroke="midnightblue" d="M373.718,-402.934C397.784,-396.451 426.268,-388.813 452,-382 466.78,-378.087 482.909,-373.863 497.475,-370.067"/>
<polygon fill="midnightblue" stroke="midnightblue" points="498.479,-373.422 507.274,-367.515 496.715,-366.648 498.479,-373.422"/>
</g>
<!-- Node10 -->
<g id="node10" class="node"><title>Node10</title>
<g id="a_node10"><a xlink:href="../../db/db5/classview_1_1panes_1_1_view_pane_module.html#aa2a1bf15bc036ee4237bf63749d85baf" target="_top" xlink:title="view.panes.ViewPaneModule.updateView">
<polygon fill="white" stroke="black" points="674.5,-284.5 674.5,-303.5 883.5,-303.5 883.5,-284.5 674.5,-284.5"/>
<text text-anchor="middle" x="779" y="-291.5" font-family="Helvetica,sans-Serif" font-size="10.00">view.panes.ViewPaneModule.updateView</text>
</a>
</g>
</g>
<!-- Node9&#45;&gt;Node10 -->
<g id="edge10" class="edge"><title>Node9&#45;&gt;Node10</title>
<path fill="none" stroke="midnightblue" d="M593.947,-348.435C608.189,-345.363 623.781,-341.772 638,-338 673.092,-328.692 712.496,-316.113 740.538,-306.789"/>
<polygon fill="midnightblue" stroke="midnightblue" points="741.954,-310.005 750.326,-303.513 739.732,-303.367 741.954,-310.005"/>
</g>
<!-- Node10&#45;&gt;Node3 -->
<g id="edge14" class="edge"><title>Node10&#45;&gt;Node3</title>
<path fill="none" stroke="midnightblue" d="M785.53,-303.524C806.481,-339.295 881.729,-464.861 920,-490 923.83,-492.516 927.923,-494.722 932.176,-496.655"/>
<polygon fill="midnightblue" stroke="midnightblue" points="931.12,-500.001 941.704,-500.465 933.719,-493.502 931.12,-500.001"/>
</g>
<!-- Node10&#45;&gt;Node4 -->
<g id="edge16" class="edge"><title>Node10&#45;&gt;Node4</title>
<path fill="none" stroke="midnightblue" d="M786.274,-303.616C803.946,-329.913 856.982,-403.55 920,-441 923.638,-443.162 927.466,-445.141 931.41,-446.952"/>
<polygon fill="midnightblue" stroke="midnightblue" points="930.216,-450.246 940.792,-450.879 932.919,-443.789 930.216,-450.246"/>
</g>
<!-- Node10&#45;&gt;Node7 -->
<g id="edge15" class="edge"><title>Node10&#45;&gt;Node7</title>
<path fill="none" stroke="midnightblue" d="M790.783,-303.574C813.234,-323.026 867.306,-367.407 920,-392 925.241,-394.446 930.764,-396.688 936.397,-398.735"/>
<polygon fill="midnightblue" stroke="midnightblue" points="935.355,-402.078 945.949,-402 937.619,-395.454 935.355,-402.078"/>
</g>
<!-- Node11 -->
<g id="node11" class="node"><title>Node11</title>
<g id="a_node11"><a xlink:href="../../d3/d42/classmodel_1_1_model.html#a54936407d7df5ab8ef3c0ae54bcdc0ed" target="_top" xlink:title="model.Model.getBackground\lColor">
<polygon fill="white" stroke="black" points="937,-167 937,-197 1091,-197 1091,-167 937,-167"/>
<text text-anchor="start" x="945" y="-185" font-family="Helvetica,sans-Serif" font-size="10.00">model.Model.getBackground</text>
<text text-anchor="middle" x="1014" y="-174" font-family="Helvetica,sans-Serif" font-size="10.00">Color</text>
</a>
</g>
</g>
<!-- Node10&#45;&gt;Node11 -->
<g id="edge11" class="edge"><title>Node10&#45;&gt;Node11</title>
<path fill="none" stroke="midnightblue" d="M792.796,-284.229C816.605,-266.475 869.858,-228.753 920,-207 925.637,-204.555 931.572,-202.296 937.603,-200.221"/>
<polygon fill="midnightblue" stroke="midnightblue" points="938.71,-203.542 947.131,-197.112 936.539,-196.887 938.71,-203.542"/>
</g>
<!-- Node12 -->
<g id="node12" class="node"><title>Node12</title>
<g id="a_node12"><a xlink:href="../../db/db5/classview_1_1panes_1_1_view_pane_module.html#ac94ee444587349ddad19b8caee500c9c" target="_top" xlink:title="view.panes.ViewPaneModule.update\lBGColor">
<polygon fill="white" stroke="black" points="920,-118 920,-148 1108,-148 1108,-118 920,-118"/>
<text text-anchor="start" x="928" y="-136" font-family="Helvetica,sans-Serif" font-size="10.00">view.panes.ViewPaneModule.update</text>
<text text-anchor="middle" x="1014" y="-125" font-family="Helvetica,sans-Serif" font-size="10.00">BGColor</text>
</a>
</g>
</g>
<!-- Node10&#45;&gt;Node12 -->
<g id="edge12" class="edge"><title>Node10&#45;&gt;Node12</title>
<path fill="none" stroke="midnightblue" d="M786.953,-284.302C805.512,-259.154 858.983,-191.416 920,-157 923.241,-155.172 926.623,-153.481 930.097,-151.916"/>
<polygon fill="midnightblue" stroke="midnightblue" points="931.557,-155.1 939.476,-148.061 928.896,-148.625 931.557,-155.1"/>
</g>
<!-- Node13 -->
<g id="node13" class="node"><title>Node13</title>
<g id="a_node13"><a xlink:href="../../db/db5/classview_1_1panes_1_1_view_pane_module.html#abe91f8bb732e99d762bdaba51ceae04b" target="_top" xlink:title="view.panes.ViewPaneModule.toRGB">
<polygon fill="white" stroke="black" points="922,-79.5 922,-98.5 1106,-98.5 1106,-79.5 922,-79.5"/>
<text text-anchor="middle" x="1014" y="-86.5" font-family="Helvetica,sans-Serif" font-size="10.00">view.panes.ViewPaneModule.toRGB</text>
</a>
</g>
</g>
<!-- Node10&#45;&gt;Node13 -->
<g id="edge13" class="edge"><title>Node10&#45;&gt;Node13</title>
<path fill="none" stroke="midnightblue" d="M784.164,-284.354C798.178,-253.136 846.883,-154.203 920,-108 923.352,-105.882 926.896,-103.994 930.565,-102.312"/>
<polygon fill="midnightblue" stroke="midnightblue" points="931.946,-105.529 939.909,-98.5401 929.325,-99.0378 931.946,-105.529"/>
</g>
<!-- Node14 -->
<g id="node14" class="node"><title>Node14</title>
<g id="a_node14"><a xlink:href="../../d3/d42/classmodel_1_1_model.html#af73e838aed2c068e8f7d31bfa1cc88d7" target="_top" xlink:title="model.Model.getStamp">
<polygon fill="white" stroke="black" points="949.5,-41.5 949.5,-60.5 1078.5,-60.5 1078.5,-41.5 949.5,-41.5"/>
<text text-anchor="middle" x="1014" y="-48.5" font-family="Helvetica,sans-Serif" font-size="10.00">model.Model.getStamp</text>
</a>
</g>
</g>
<!-- Node10&#45;&gt;Node14 -->
<g id="edge17" class="edge"><title>Node10&#45;&gt;Node14</title>
<path fill="none" stroke="midnightblue" d="M782.91,-284.427C794.098,-249.362 837.877,-127.014 920,-70 925.956,-65.8649 932.612,-62.5899 939.552,-60.0016"/>
<polygon fill="midnightblue" stroke="midnightblue" points="940.723,-63.3012 949.151,-56.8814 938.559,-56.6441 940.723,-63.3012"/>
</g>
<!-- Node15 -->
<g id="node15" class="node"><title>Node15</title>
<g id="a_node15"><a xlink:href="../../db/db5/classview_1_1panes_1_1_view_pane_module.html#a44db6ae832af3ce470baa9406142b8cb" target="_top" xlink:title="view.panes.ViewPaneModule.make\lStamps">
<polygon fill="white" stroke="black" points="923.5,-353 923.5,-383 1104.5,-383 1104.5,-353 923.5,-353"/>
<text text-anchor="start" x="931.5" y="-371" font-family="Helvetica,sans-Serif" font-size="10.00">view.panes.ViewPaneModule.make</text>
<text text-anchor="middle" x="1014" y="-360" font-family="Helvetica,sans-Serif" font-size="10.00">Stamps</text>
</a>
</g>
</g>
<!-- Node10&#45;&gt;Node15 -->
<g id="edge18" class="edge"><title>Node10&#45;&gt;Node15</title>
<path fill="none" stroke="midnightblue" d="M805.359,-303.512C833.261,-313.829 879.527,-330.496 920,-343 927.922,-345.447 936.265,-347.885 944.568,-350.224"/>
<polygon fill="midnightblue" stroke="midnightblue" points="943.698,-353.615 954.27,-352.92 945.572,-346.871 943.698,-353.615"/>
</g>
<!-- Node22 -->
<g id="node22" class="node"><title>Node22</title>
<g id="a_node22"><a xlink:href="../../d3/d42/classmodel_1_1_model.html#a0a457f31350a460e11dc864463e0d8ff" target="_top" xlink:title="model.Model.setStamp">
<polygon fill="white" stroke="black" points="950,-216.5 950,-235.5 1078,-235.5 1078,-216.5 950,-216.5"/>
<text text-anchor="middle" x="1014" y="-223.5" font-family="Helvetica,sans-Serif" font-size="10.00">model.Model.setStamp</text>
</a>
</g>
</g>
<!-- Node10&#45;&gt;Node22 -->
<g id="edge25" class="edge"><title>Node10&#45;&gt;Node22</title>
<path fill="none" stroke="midnightblue" d="M803.966,-284.496C831.597,-273.802 878.543,-256.433 920,-245 929.651,-242.338 939.959,-239.87 950.068,-237.653"/>
<polygon fill="midnightblue" stroke="midnightblue" points="951.027,-241.027 960.079,-235.522 949.57,-234.181 951.027,-241.027"/>
</g>
<!-- Node23 -->
<g id="node23" class="node"><title>Node23</title>
<g id="a_node23"><a xlink:href="../../db/db5/classview_1_1panes_1_1_view_pane_module.html#a7ad9ad27137ffdf0ea96753a22da236b" target="_top" xlink:title="view.panes.ViewPaneModule.erase\lStamps">
<polygon fill="white" stroke="black" points="923.5,-304 923.5,-334 1104.5,-334 1104.5,-304 923.5,-304"/>
<text text-anchor="start" x="931.5" y="-322" font-family="Helvetica,sans-Serif" font-size="10.00">view.panes.ViewPaneModule.erase</text>
<text text-anchor="middle" x="1014" y="-311" font-family="Helvetica,sans-Serif" font-size="10.00">Stamps</text>
</a>
</g>
</g>
<!-- Node10&#45;&gt;Node23 -->
<g id="edge26" class="edge"><title>Node10&#45;&gt;Node23</title>
<path fill="none" stroke="midnightblue" d="M868.752,-303.523C883.276,-305.081 898.412,-306.705 913.182,-308.29"/>
<polygon fill="midnightblue" stroke="midnightblue" points="913.02,-311.793 923.337,-309.379 913.767,-304.833 913.02,-311.793"/>
</g>
<!-- Node25 -->
<g id="node25" class="node"><title>Node25</title>
<g id="a_node25"><a xlink:href="../../db/db5/classview_1_1panes_1_1_view_pane_module.html#ab55ce3511929b88a2cd1235eb694868f" target="_top" xlink:title="view.panes.ViewPaneModule.update\lTurtle">
<polygon fill="white" stroke="black" points="920,-255 920,-285 1108,-285 1108,-255 920,-255"/>
<text text-anchor="start" x="928" y="-273" font-family="Helvetica,sans-Serif" font-size="10.00">view.panes.ViewPaneModule.update</text>
<text text-anchor="middle" x="1014" y="-262" font-family="Helvetica,sans-Serif" font-size="10.00">Turtle</text>
</a>
</g>
</g>
<!-- Node10&#45;&gt;Node25 -->
<g id="edge28" class="edge"><title>Node10&#45;&gt;Node25</title>
<path fill="none" stroke="midnightblue" d="M872.422,-284.48C884.754,-283.21 897.461,-281.901 909.96,-280.614"/>
<polygon fill="midnightblue" stroke="midnightblue" points="910.338,-284.093 919.927,-279.587 909.621,-277.13 910.338,-284.093"/>
</g>
<!-- Node16 -->
<g id="node16" class="node"><title>Node16</title>
<g id="a_node16"><a xlink:href="../../d7/da6/classview_1_1_turtle_draw.html#a939f4fdbdb66457c9dcee82eb4ae6d9c" target="_top" xlink:title="view.TurtleDraw.drawTurtle">
<polygon fill="white" stroke="black" points="1152.5,-418.5 1152.5,-437.5 1291.5,-437.5 1291.5,-418.5 1152.5,-418.5"/>
<text text-anchor="middle" x="1222" y="-425.5" font-family="Helvetica,sans-Serif" font-size="10.00">view.TurtleDraw.drawTurtle</text>
</a>
</g>
</g>
<!-- Node15&#45;&gt;Node16 -->
<g id="edge19" class="edge"><title>Node15&#45;&gt;Node16</title>
<path fill="none" stroke="midnightblue" d="M1080.02,-383.103C1089.49,-385.787 1099.06,-388.769 1108,-392 1124.64,-398.015 1127.33,-403.073 1144,-409 1151.04,-411.501 1158.55,-413.795 1166.02,-415.858"/>
<polygon fill="midnightblue" stroke="midnightblue" points="1165.2,-419.264 1175.77,-418.434 1166.99,-412.496 1165.2,-419.264"/>
</g>
<!-- Node19 -->
<g id="node19" class="node"><title>Node19</title>
<g id="a_node19"><a xlink:href="../../d7/da6/classview_1_1_turtle_draw.html#a14678068d3fc9d3b6e1067bc372f6030" target="_top" xlink:title="view.TurtleDraw.showTurtle">
<polygon fill="white" stroke="black" points="1152,-380.5 1152,-399.5 1292,-399.5 1292,-380.5 1152,-380.5"/>
<text text-anchor="middle" x="1222" y="-387.5" font-family="Helvetica,sans-Serif" font-size="10.00">view.TurtleDraw.showTurtle</text>
</a>
</g>
</g>
<!-- Node15&#45;&gt;Node19 -->
<g id="edge22" class="edge"><title>Node15&#45;&gt;Node19</title>
<path fill="none" stroke="midnightblue" d="M1104.76,-377.586C1117.12,-378.906 1129.75,-380.255 1141.9,-381.553"/>
<polygon fill="midnightblue" stroke="midnightblue" points="1141.67,-385.048 1151.99,-382.63 1142.42,-378.088 1141.67,-385.048"/>
</g>
<!-- Node20 -->
<g id="node20" class="node"><title>Node20</title>
<g id="a_node20"><a xlink:href="../../d7/da6/classview_1_1_turtle_draw.html#a8c2cab38eb294b26aea1ae17595ba2a6" target="_top" xlink:title="view.TurtleDraw.moveTurtle">
<polygon fill="white" stroke="black" points="1150.5,-342.5 1150.5,-361.5 1293.5,-361.5 1293.5,-342.5 1150.5,-342.5"/>
<text text-anchor="middle" x="1222" y="-349.5" font-family="Helvetica,sans-Serif" font-size="10.00">view.TurtleDraw.moveTurtle</text>
</a>
</g>
</g>
<!-- Node15&#45;&gt;Node20 -->
<g id="edge23" class="edge"><title>Node15&#45;&gt;Node20</title>
<path fill="none" stroke="midnightblue" d="M1104.76,-361.029C1116.58,-360.11 1128.64,-359.174 1140.3,-358.268"/>
<polygon fill="midnightblue" stroke="midnightblue" points="1140.73,-361.745 1150.43,-357.481 1140.19,-354.766 1140.73,-361.745"/>
</g>
<!-- Node21 -->
<g id="node21" class="node"><title>Node21</title>
<g id="a_node21"><a xlink:href="../../d7/da6/classview_1_1_turtle_draw.html#a5004a16526a67f090d7da45474b5136e" target="_top" xlink:title="view.TurtleDraw.setAngle">
<polygon fill="white" stroke="black" points="1155.5,-456.5 1155.5,-475.5 1288.5,-475.5 1288.5,-456.5 1155.5,-456.5"/>
<text text-anchor="middle" x="1222" y="-463.5" font-family="Helvetica,sans-Serif" font-size="10.00">view.TurtleDraw.setAngle</text>
</a>
</g>
</g>
<!-- Node15&#45;&gt;Node21 -->
<g id="edge24" class="edge"><title>Node15&#45;&gt;Node21</title>
<path fill="none" stroke="midnightblue" d="M1092.65,-383.175C1098.07,-385.681 1103.26,-388.6 1108,-392 1131.75,-409.02 1120.16,-430.106 1144,-447 1146.84,-449.012 1149.87,-450.811 1153.02,-452.421"/>
<polygon fill="midnightblue" stroke="midnightblue" points="1151.62,-455.629 1162.18,-456.474 1154.45,-449.227 1151.62,-455.629"/>
</g>
<!-- Node17 -->
<g id="node17" class="node"><title>Node17</title>
<g id="a_node17"><a xlink:href="../../d6/d34/classmodel_1_1_turtle.html#a942dbeb1d7e2bc19b6870538c2c3a7d2" target="_top" xlink:title="model.Turtle.getShape">
<polygon fill="white" stroke="black" points="1360.5,-396.5 1360.5,-415.5 1485.5,-415.5 1485.5,-396.5 1360.5,-396.5"/>
<text text-anchor="middle" x="1423" y="-403.5" font-family="Helvetica,sans-Serif" font-size="10.00">model.Turtle.getShape</text>
</a>
</g>
</g>
<!-- Node16&#45;&gt;Node17 -->
<g id="edge20" class="edge"><title>Node16&#45;&gt;Node17</title>
<path fill="none" stroke="midnightblue" d="M1291.76,-420.398C1310.62,-418.314 1331.11,-416.048 1350.13,-413.945"/>
<polygon fill="midnightblue" stroke="midnightblue" points="1350.67,-417.407 1360.23,-412.829 1349.91,-410.449 1350.67,-417.407"/>
</g>
<!-- Node18 -->
<g id="node18" class="node"><title>Node18</title>
<g id="a_node18"><a xlink:href="../../d3/db7/classview_1_1controllers_1_1_image_palette.html#a8a6620714bc12d5a00b97e99299a7040" target="_top" xlink:title="view.controllers.ImagePalette.get\lImage">
<polygon fill="white" stroke="black" points="1336,-435 1336,-465 1510,-465 1510,-435 1336,-435"/>
<text text-anchor="start" x="1344" y="-453" font-family="Helvetica,sans-Serif" font-size="10.00">view.controllers.ImagePalette.get</text>
<text text-anchor="middle" x="1423" y="-442" font-family="Helvetica,sans-Serif" font-size="10.00">Image</text>
</a>
</g>
</g>
<!-- Node16&#45;&gt;Node18 -->
<g id="edge21" class="edge"><title>Node16&#45;&gt;Node18</title>
<path fill="none" stroke="midnightblue" d="M1291.76,-435.602C1302.71,-436.812 1314.21,-438.084 1325.65,-439.349"/>
<polygon fill="midnightblue" stroke="midnightblue" points="1325.36,-442.837 1335.68,-440.457 1326.13,-435.879 1325.36,-442.837"/>
</g>
<!-- Node24 -->
<g id="node24" class="node"><title>Node24</title>
<g id="a_node24"><a xlink:href="../../d7/da6/classview_1_1_turtle_draw.html#acb97dedda080cb5ed17031d2b31adc2c" target="_top" xlink:title="view.TurtleDraw.hideTurtle">
<polygon fill="white" stroke="black" points="1153.5,-304.5 1153.5,-323.5 1290.5,-323.5 1290.5,-304.5 1153.5,-304.5"/>
<text text-anchor="middle" x="1222" y="-311.5" font-family="Helvetica,sans-Serif" font-size="10.00">view.TurtleDraw.hideTurtle</text>
</a>
</g>
</g>
<!-- Node23&#45;&gt;Node24 -->
<g id="edge27" class="edge"><title>Node23&#45;&gt;Node24</title>
<path fill="none" stroke="midnightblue" d="M1104.76,-316.821C1117.46,-316.513 1130.44,-316.198 1142.9,-315.896"/>
<polygon fill="midnightblue" stroke="midnightblue" points="1143.32,-319.387 1153.23,-315.645 1143.15,-312.389 1143.32,-319.387"/>
</g>
<!-- Node25&#45;&gt;Node16 -->
<g id="edge30" class="edge"><title>Node25&#45;&gt;Node16</title>
<path fill="none" stroke="midnightblue" d="M1095.99,-285.031C1100.32,-287.586 1104.37,-290.554 1108,-294 1146.82,-330.896 1104.98,-372.311 1144,-409 1145.67,-410.571 1147.45,-412.018 1149.32,-413.351"/>
<polygon fill="midnightblue" stroke="midnightblue" points="1147.61,-416.406 1157.99,-418.489 1151.17,-410.382 1147.61,-416.406"/>
</g>
<!-- Node25&#45;&gt;Node19 -->
<g id="edge31" class="edge"><title>Node25&#45;&gt;Node19</title>
<path fill="none" stroke="midnightblue" d="M1094.58,-285.139C1099.36,-287.659 1103.89,-290.591 1108,-294 1137.06,-318.134 1114.81,-347.02 1144,-371 1146.05,-372.682 1148.22,-374.219 1150.5,-375.623"/>
<polygon fill="midnightblue" stroke="midnightblue" points="1149.19,-378.888 1159.67,-380.403 1152.42,-372.679 1149.19,-378.888"/>
</g>
<!-- Node25&#45;&gt;Node20 -->
<g id="edge44" class="edge"><title>Node25&#45;&gt;Node20</title>
<path fill="none" stroke="midnightblue" d="M1089.67,-285.114C1096.07,-287.637 1102.28,-290.577 1108,-294 1128.25,-306.107 1123.69,-321.001 1144,-333 1147.67,-335.167 1151.57,-337.087 1155.61,-338.79"/>
<polygon fill="midnightblue" stroke="midnightblue" points="1154.6,-342.151 1165.19,-342.378 1157.05,-335.595 1154.6,-342.151"/>
</g>
<!-- Node25&#45;&gt;Node21 -->
<g id="edge42" class="edge"><title>Node25&#45;&gt;Node21</title>
<path fill="none" stroke="midnightblue" d="M1097.13,-285.261C1101.07,-287.769 1104.73,-290.663 1108,-294 1156.86,-343.924 1094.87,-397.337 1144,-447 1145.42,-448.432 1146.92,-449.762 1148.5,-450.997"/>
<polygon fill="midnightblue" stroke="midnightblue" points="1146.65,-453.967 1156.96,-456.418 1150.43,-448.074 1146.65,-453.967"/>
</g>
<!-- Node25&#45;&gt;Node24 -->
<g id="edge32" class="edge"><title>Node25&#45;&gt;Node24</title>
<path fill="none" stroke="midnightblue" d="M1085.32,-285.019C1111.85,-290.686 1141.61,-297.043 1166.48,-302.356"/>
<polygon fill="midnightblue" stroke="midnightblue" points="1165.95,-305.821 1176.46,-304.488 1167.42,-298.976 1165.95,-305.821"/>
</g>
<!-- Node26 -->
<g id="node26" class="node"><title>Node26</title>
<g id="a_node26"><a xlink:href="../../d6/d34/classmodel_1_1_turtle.html#ae79a1eae7eed55d121c3b85299ae14ba" target="_top" xlink:title="model.Turtle.getID">
<polygon fill="white" stroke="black" points="1170,-0.5 1170,-19.5 1274,-19.5 1274,-0.5 1170,-0.5"/>
<text text-anchor="middle" x="1222" y="-7.5" font-family="Helvetica,sans-Serif" font-size="10.00">model.Turtle.getID</text>
</a>
</g>
</g>
<!-- Node25&#45;&gt;Node26 -->
<g id="edge29" class="edge"><title>Node25&#45;&gt;Node26</title>
<path fill="none" stroke="midnightblue" d="M1096.17,-254.908C1100.52,-252.115 1104.52,-248.839 1108,-245 1173.38,-172.911 1077.87,-100.409 1144,-29 1148.48,-24.1602 1153.98,-20.4664 1159.96,-17.6592"/>
<polygon fill="midnightblue" stroke="midnightblue" points="1161.59,-20.7833 1169.68,-13.9404 1159.09,-14.2456 1161.59,-20.7833"/>
</g>
<!-- Node27 -->
<g id="node27" class="node"><title>Node27</title>
<g id="a_node27"><a xlink:href="../../d6/d34/classmodel_1_1_turtle.html#a279f2bdb3fa955acdd52b7824ec3cd04" target="_top" xlink:title="model.Turtle.getPenStatus">
<polygon fill="white" stroke="black" points="1150.5,-266.5 1150.5,-285.5 1293.5,-285.5 1293.5,-266.5 1150.5,-266.5"/>
<text text-anchor="middle" x="1222" y="-273.5" font-family="Helvetica,sans-Serif" font-size="10.00">model.Turtle.getPenStatus</text>
</a>
</g>
</g>
<!-- Node25&#45;&gt;Node27 -->
<g id="edge33" class="edge"><title>Node25&#45;&gt;Node27</title>
<path fill="none" stroke="midnightblue" d="M1108.06,-272.71C1118.8,-273.023 1129.69,-273.341 1140.26,-273.648"/>
<polygon fill="midnightblue" stroke="midnightblue" points="1140.17,-277.147 1150.27,-273.94 1140.38,-270.15 1140.17,-277.147"/>
</g>
<!-- Node29 -->
<g id="node29" class="node"><title>Node29</title>
<g id="a_node29"><a xlink:href="../../d7/da6/classview_1_1_turtle_draw.html#a1325ca376115619f15f5014eb4c5ad2a" target="_top" xlink:title="view.TurtleDraw.drawLine">
<polygon fill="white" stroke="black" points="1155.5,-228.5 1155.5,-247.5 1288.5,-247.5 1288.5,-228.5 1155.5,-228.5"/>
<text text-anchor="middle" x="1222" y="-235.5" font-family="Helvetica,sans-Serif" font-size="10.00">view.TurtleDraw.drawLine</text>
</a>
</g>
</g>
<!-- Node25&#45;&gt;Node29 -->
<g id="edge35" class="edge"><title>Node25&#45;&gt;Node29</title>
<path fill="none" stroke="midnightblue" d="M1108.06,-255.545C1121.99,-253.38 1136.17,-251.178 1149.56,-249.097"/>
<polygon fill="midnightblue" stroke="midnightblue" points="1150.29,-252.527 1159.63,-247.533 1149.21,-245.61 1150.29,-252.527"/>
</g>
<!-- Node30 -->
<g id="node30" class="node"><title>Node30</title>
<g id="a_node30"><a xlink:href="../../d6/d34/classmodel_1_1_turtle.html#a832234461564763f8330181b3c1163ff" target="_top" xlink:title="model.Turtle.getPrevLocation">
<polygon fill="white" stroke="black" points="1144.5,-190.5 1144.5,-209.5 1299.5,-209.5 1299.5,-190.5 1144.5,-190.5"/>
<text text-anchor="middle" x="1222" y="-197.5" font-family="Helvetica,sans-Serif" font-size="10.00">model.Turtle.getPrevLocation</text>
</a>
</g>
</g>
<!-- Node25&#45;&gt;Node30 -->
<g id="edge36" class="edge"><title>Node25&#45;&gt;Node30</title>
<path fill="none" stroke="midnightblue" d="M1082.6,-254.952C1091.32,-252.109 1100,-248.807 1108,-245 1125.82,-236.521 1126.09,-227.294 1144,-219 1149.28,-216.554 1154.92,-214.397 1160.65,-212.501"/>
<polygon fill="midnightblue" stroke="midnightblue" points="1161.79,-215.812 1170.34,-209.552 1159.76,-209.116 1161.79,-215.812"/>
</g>
<!-- Node31 -->
<g id="node31" class="node"><title>Node31</title>
<g id="a_node31"><a xlink:href="../../d6/d34/classmodel_1_1_turtle.html#a2470b9b4ef48a261324047de8ebdc242" target="_top" xlink:title="model.Turtle.getNewLocation">
<polygon fill="white" stroke="black" points="1144.5,-152.5 1144.5,-171.5 1299.5,-171.5 1299.5,-152.5 1144.5,-152.5"/>
<text text-anchor="middle" x="1222" y="-159.5" font-family="Helvetica,sans-Serif" font-size="10.00">model.Turtle.getNewLocation</text>
</a>
</g>
</g>
<!-- Node25&#45;&gt;Node31 -->
<g id="edge37" class="edge"><title>Node25&#45;&gt;Node31</title>
<path fill="none" stroke="midnightblue" d="M1091.55,-254.969C1097.41,-252.189 1102.98,-248.898 1108,-245 1133.77,-224.977 1118.02,-200.755 1144,-181 1146.36,-179.203 1148.87,-177.574 1151.49,-176.097"/>
<polygon fill="midnightblue" stroke="midnightblue" points="1153.25,-179.134 1160.74,-171.64 1150.21,-172.828 1153.25,-179.134"/>
</g>
<!-- Node32 -->
<g id="node32" class="node"><title>Node32</title>
<g id="a_node32"><a xlink:href="../../d6/d34/classmodel_1_1_turtle.html#a19c059b1cbfbd4e8f046ec2403de3fb9" target="_top" xlink:title="model.Turtle.getPenDash">
<polygon fill="white" stroke="black" points="1153.5,-114.5 1153.5,-133.5 1290.5,-133.5 1290.5,-114.5 1153.5,-114.5"/>
<text text-anchor="middle" x="1222" y="-121.5" font-family="Helvetica,sans-Serif" font-size="10.00">model.Turtle.getPenDash</text>
</a>
</g>
</g>
<!-- Node25&#45;&gt;Node32 -->
<g id="edge38" class="edge"><title>Node25&#45;&gt;Node32</title>
<path fill="none" stroke="midnightblue" d="M1094.11,-254.92C1099.13,-252.14 1103.83,-248.862 1108,-245 1143.27,-212.335 1108.39,-175.299 1144,-143 1145.7,-141.459 1147.5,-140.038 1149.39,-138.729"/>
<polygon fill="midnightblue" stroke="midnightblue" points="1151.24,-141.704 1158.14,-133.668 1147.73,-135.645 1151.24,-141.704"/>
</g>
<!-- Node34 -->
<g id="node34" class="node"><title>Node34</title>
<g id="a_node34"><a xlink:href="../../d6/d34/classmodel_1_1_turtle.html#a193c156784f783064ae533b619b6be6e" target="_top" xlink:title="model.Turtle.getPenColor">
<polygon fill="white" stroke="black" points="1153.5,-76.5 1153.5,-95.5 1290.5,-95.5 1290.5,-76.5 1153.5,-76.5"/>
<text text-anchor="middle" x="1222" y="-83.5" font-family="Helvetica,sans-Serif" font-size="10.00">model.Turtle.getPenColor</text>
</a>
</g>
</g>
<!-- Node25&#45;&gt;Node34 -->
<g id="edge40" class="edge"><title>Node25&#45;&gt;Node34</title>
<path fill="none" stroke="midnightblue" d="M1095.36,-254.811C1099.96,-252.047 1104.24,-248.804 1108,-245 1153.18,-199.324 1098.35,-150.207 1144,-105 1145.43,-103.583 1146.95,-102.266 1148.54,-101.042"/>
<polygon fill="midnightblue" stroke="midnightblue" points="1150.46,-103.97 1157.04,-95.6666 1146.72,-98.0534 1150.46,-103.97"/>
</g>
<!-- Node36 -->
<g id="node36" class="node"><title>Node36</title>
<g id="a_node36"><a xlink:href="../../d6/d34/classmodel_1_1_turtle.html#a1c5d07962ede5fbfacc59413274d4300" target="_top" xlink:title="model.Turtle.getHeading">
<polygon fill="white" stroke="black" points="1155,-38.5 1155,-57.5 1289,-57.5 1289,-38.5 1155,-38.5"/>
<text text-anchor="middle" x="1222" y="-45.5" font-family="Helvetica,sans-Serif" font-size="10.00">model.Turtle.getHeading</text>
</a>
</g>
</g>
<!-- Node25&#45;&gt;Node36 -->
<g id="edge43" class="edge"><title>Node25&#45;&gt;Node36</title>
<path fill="none" stroke="midnightblue" d="M1096.02,-254.768C1100.4,-252.009 1104.45,-248.779 1108,-245 1163.25,-186.157 1088.15,-125.269 1144,-67 1145.24,-65.7016 1146.56,-64.4862 1147.94,-63.3487"/>
<polygon fill="midnightblue" stroke="midnightblue" points="1150.1,-66.1197 1156.46,-57.651 1146.2,-60.3011 1150.1,-66.1197"/>
</g>
<!-- Node28 -->
<g id="node28" class="node"><title>Node28</title>
<g id="a_node28"><a xlink:href="../../de/ded/classmodel_1_1_pen.html#afad4fb3e51847cacab72c036ddaa108f" target="_top" xlink:title="model.Pen.getStatus">
<polygon fill="white" stroke="black" points="1364,-266.5 1364,-285.5 1482,-285.5 1482,-266.5 1364,-266.5"/>
<text text-anchor="middle" x="1423" y="-273.5" font-family="Helvetica,sans-Serif" font-size="10.00">model.Pen.getStatus</text>
</a>
</g>
</g>
<!-- Node27&#45;&gt;Node28 -->
<g id="edge34" class="edge"><title>Node27&#45;&gt;Node28</title>
<path fill="none" stroke="midnightblue" d="M1293.72,-276C1313.23,-276 1334.35,-276 1353.72,-276"/>
<polygon fill="midnightblue" stroke="midnightblue" points="1353.97,-279.5 1363.97,-276 1353.97,-272.5 1353.97,-279.5"/>
</g>
<!-- Node33 -->
<g id="node33" class="node"><title>Node33</title>
<g id="a_node33"><a xlink:href="../../de/ded/classmodel_1_1_pen.html#a6999f4af56377415621f193ef8600e27" target="_top" xlink:title="model.Pen.getDash">
<polygon fill="white" stroke="black" points="1367.5,-114.5 1367.5,-133.5 1478.5,-133.5 1478.5,-114.5 1367.5,-114.5"/>
<text text-anchor="middle" x="1423" y="-121.5" font-family="Helvetica,sans-Serif" font-size="10.00">model.Pen.getDash</text>
</a>
</g>
</g>
<!-- Node32&#45;&gt;Node33 -->
<g id="edge39" class="edge"><title>Node32&#45;&gt;Node33</title>
<path fill="none" stroke="midnightblue" d="M1290.65,-124C1312.15,-124 1335.86,-124 1357.15,-124"/>
<polygon fill="midnightblue" stroke="midnightblue" points="1357.39,-127.5 1367.39,-124 1357.39,-120.5 1357.39,-127.5"/>
</g>
<!-- Node35 -->
<g id="node35" class="node"><title>Node35</title>
<g id="a_node35"><a xlink:href="../../de/ded/classmodel_1_1_pen.html#a704af31474b10d17caf40773b7971826" target="_top" xlink:title="model.Pen.getPenColor">
<polygon fill="white" stroke="black" points="1358.5,-76.5 1358.5,-95.5 1487.5,-95.5 1487.5,-76.5 1358.5,-76.5"/>
<text text-anchor="middle" x="1423" y="-83.5" font-family="Helvetica,sans-Serif" font-size="10.00">model.Pen.getPenColor</text>
</a>
</g>
</g>
<!-- Node34&#45;&gt;Node35 -->
<g id="edge41" class="edge"><title>Node34&#45;&gt;Node35</title>
<path fill="none" stroke="midnightblue" d="M1290.65,-86C1309.18,-86 1329.36,-86 1348.21,-86"/>
<polygon fill="midnightblue" stroke="midnightblue" points="1348.23,-89.5001 1358.23,-86 1348.23,-82.5001 1348.23,-89.5001"/>
</g>
<!-- Node38&#45;&gt;Node37 -->
<g id="edge48" class="edge"><title>Node38&#45;&gt;Node37</title>
<path fill="none" stroke="midnightblue" d="M405.054,-323.837C422.621,-322.593 441.072,-321.287 458.582,-320.047"/>
<polygon fill="midnightblue" stroke="midnightblue" points="459.041,-323.524 468.769,-319.326 458.547,-316.541 459.041,-323.524"/>
</g>
</g>
</svg>
        <g id="navigator" transform="translate(0 0)" fill="#404254">
                <rect fill="#f2f5e9" fill-opacity="0.5" stroke="#606060" stroke-width=".5" x="0" y="0" width="60" height="60"/>
                <use id="zoomplus" xlink:href="#zoomPlus" x="17" y="9" onmousedown="handleZoom(evt,'in')"/>
                <use id="zoomminus" xlink:href="#zoomMin" x="42" y="9" onmousedown="handleZoom(evt,'out')"/>
                <use id="reset" xlink:href="#resetDef" x="30" y="36" onmousedown="handleReset()"/>
                <g id="arrowUp" xlink:href="#dirArrow" transform="translate(30 24)" onmousedown="handlePan(0,-1)">
                  <use xlink:href="#rim" fill="#404040">
                        <set attributeName="fill" to="#808080" begin="arrowUp.mouseover" end="arrowUp.mouseout"/>
                  </use>
                  <path fill="none" stroke="white" stroke-width="1.5" d="M0,-3.0v7 M-2.5,-0.5L0,-3.0L2.5,-0.5"/>
                </g>
                <g id="arrowRight" xlink:href="#dirArrow" transform="rotate(90) translate(36 -43)" onmousedown="handlePan(1,0)">
                  <use xlink:href="#rim" fill="#404040">
                        <set attributeName="fill" to="#808080" begin="arrowRight.mouseover" end="arrowRight.mouseout"/>
                  </use>
                  <path fill="none" stroke="white" stroke-width="1.5" d="M0,-3.0v7 M-2.5,-0.5L0,-3.0L2.5,-0.5"/>
                </g>
                <g id="arrowDown" xlink:href="#dirArrow" transform="rotate(180) translate(-30 -48)" onmousedown="handlePan(0,1)">
                  <use xlink:href="#rim" fill="#404040">
                        <set attributeName="fill" to="#808080" begin="arrowDown.mouseover" end="arrowDown.mouseout"/>
                  </use>
                  <path fill="none" stroke="white" stroke-width="1.5" d="M0,-3.0v7 M-2.5,-0.5L0,-3.0L2.5,-0.5"/>
                </g>
                <g id="arrowLeft" xlink:href="#dirArrow" transform="rotate(270) translate(-36 17)" onmousedown="handlePan(-1,0)">
                  <use xlink:href="#rim" fill="#404040">
                        <set attributeName="fill" to="#808080" begin="arrowLeft.mouseover" end="arrowLeft.mouseout"/>
                  </use>
                  <path fill="none" stroke="white" stroke-width="1.5" d="M0,-3.0v7 M-2.5,-0.5L0,-3.0L2.5,-0.5"/>
                </g>
        </g>
        <svg viewBox="0 0 15 15" width="100%" height="30px" preserveAspectRatio="xMaxYMin meet">
         <g id="arrow_out" transform="scale(0.3 0.3)">
          <a xlink:href="classcommands_1_1_ask_command_ae4ba28c73ce0b5112e4032bd21a951f5_cgraph_org.svg" target="_base">
           <rect id="button" ry="5" rx="5" y="6" x="6" height="38" width="38"
                fill="#f2f5e9" fill-opacity="0.5" stroke="#606060" stroke-width="1.0"/>
           <path id="arrow"
             d="M 11.500037,31.436501 C 11.940474,20.09759 22.043105,11.32322 32.158766,21.979434 L 37.068811,17.246167 C 37.068811,17.246167 37.088388,32 37.088388,32 L 22.160133,31.978069 C 22.160133,31.978069 26.997745,27.140456 26.997745,27.140456 C 18.528582,18.264221 13.291696,25.230495 11.500037,31.436501 z"
             style="fill:#404040;"/>
          </a>
         </g>
        </svg>
</svg>
