<?xml version="1.0" encoding="UTF-8" standalone="no"?>
<!DOCTYPE svg PUBLIC "-//W3C//DTD SVG 1.1//EN"
 "http://www.w3.org/Graphics/SVG/1.1/DTD/svg11.dtd">
<!-- Generated by graphviz version 2.36.0 (20140111.2315)
 -->
<!-- Title: commands.ThreeInputCommand Pages: 1 -->
<svg width="578pt" height="154pt"
 viewBox="0.00 0.00 578.00 154.00" xmlns="http://www.w3.org/2000/svg" xmlns:xlink="http://www.w3.org/1999/xlink">
<g id="graph0" class="graph" transform="scale(1 1) rotate(0) translate(4 150)">
<title>commands.ThreeInputCommand</title>
<polygon fill="white" stroke="none" points="-4,4 -4,-150 574,-150 574,4 -4,4"/>
<!-- Node1 -->
<g id="node1" class="node"><title>Node1</title>
<polygon fill="#bfbfbf" stroke="black" points="160.5,-60.5 160.5,-79.5 335.5,-79.5 335.5,-60.5 160.5,-60.5"/>
<text text-anchor="middle" x="248" y="-67.5" font-family="Helvetica,sans-Serif" font-size="10.00">commands.ThreeInputCommand</text>
</g>
<!-- Node3 -->
<g id="node3" class="node"><title>Node3</title>
<g id="a_node3"><a xlink:href="../../d3/d49/classcommands_1_1_if_else_command.html" target="_top" xlink:title="commands.IfElseCommand">
<polygon fill="white" stroke="black" points="396.5,-126.5 396.5,-145.5 545.5,-145.5 545.5,-126.5 396.5,-126.5"/>
<text text-anchor="middle" x="471" y="-133.5" font-family="Helvetica,sans-Serif" font-size="10.00">commands.IfElseCommand</text>
</a>
</g>
</g>
<!-- Node1&#45;&gt;Node3 -->
<g id="edge2" class="edge"><title>Node1&#45;&gt;Node3</title>
<path fill="none" stroke="midnightblue" d="M280.837,-83.4782C305.403,-93.4915 340.414,-106.931 372,-116 386.02,-120.025 401.39,-123.562 415.716,-126.498"/>
<polygon fill="midnightblue" stroke="midnightblue" points="281.894,-80.1281 271.315,-79.5548 279.227,-86.6004 281.894,-80.1281"/>
</g>
<!-- Node4 -->
<g id="node4" class="node"><title>Node4</title>
<g id="a_node4"><a xlink:href="../../dc/d1e/classcommands_1_1_make_user_instruction_command.html" target="_top" xlink:title="commands.MakeUserInstruction\lCommand">
<polygon fill="white" stroke="black" points="385,-77 385,-107 557,-107 557,-77 385,-77"/>
<text text-anchor="start" x="393" y="-95" font-family="Helvetica,sans-Serif" font-size="10.00">commands.MakeUserInstruction</text>
<text text-anchor="middle" x="471" y="-84" font-family="Helvetica,sans-Serif" font-size="10.00">Command</text>
</a>
</g>
</g>
<!-- Node1&#45;&gt;Node4 -->
<g id="edge3" class="edge"><title>Node1&#45;&gt;Node4</title>
<path fill="none" stroke="midnightblue" d="M346.047,-79.6608C359.019,-80.9521 372.243,-82.2685 384.988,-83.5372"/>
<polygon fill="midnightblue" stroke="midnightblue" points="346.008,-76.1397 335.711,-78.6318 345.315,-83.1053 346.008,-76.1397"/>
</g>
<!-- Node5 -->
<g id="node5" class="node"><title>Node5</title>
<g id="a_node5"><a xlink:href="../../d3/d37/classcommands_1_1_set_background_command.html" target="_top" xlink:title="commands.SetBackgroundCommand">
<polygon fill="white" stroke="black" points="372.5,-38.5 372.5,-57.5 569.5,-57.5 569.5,-38.5 372.5,-38.5"/>
<text text-anchor="middle" x="471" y="-45.5" font-family="Helvetica,sans-Serif" font-size="10.00">commands.SetBackgroundCommand</text>
</a>
</g>
</g>
<!-- Node1&#45;&gt;Node5 -->
<g id="edge4" class="edge"><title>Node1&#45;&gt;Node5</title>
<path fill="none" stroke="midnightblue" d="M345.909,-60.353C355.368,-59.4113 364.962,-58.4563 374.408,-57.5159"/>
<polygon fill="midnightblue" stroke="midnightblue" points="345.315,-56.8947 335.711,-61.3682 346.008,-63.8603 345.315,-56.8947"/>
</g>
<!-- Node6 -->
<g id="node6" class="node"><title>Node6</title>
<g id="a_node6"><a xlink:href="../../d5/d21/classcommands_1_1_set_pen_color_command.html" target="_top" xlink:title="commands.SetPenColorCommand">
<polygon fill="white" stroke="black" points="379.5,-0.5 379.5,-19.5 562.5,-19.5 562.5,-0.5 379.5,-0.5"/>
<text text-anchor="middle" x="471" y="-7.5" font-family="Helvetica,sans-Serif" font-size="10.00">commands.SetPenColorCommand</text>
</a>
</g>
</g>
<!-- Node1&#45;&gt;Node6 -->
<g id="edge5" class="edge"><title>Node1&#45;&gt;Node6</title>
<path fill="none" stroke="midnightblue" d="M284.163,-56.9206C308.565,-48.1806 341.957,-36.8836 372,-29 385.578,-25.4369 400.375,-22.2265 414.26,-19.5022"/>
<polygon fill="midnightblue" stroke="midnightblue" points="282.834,-53.6792 274.621,-60.3719 285.215,-60.2618 282.834,-53.6792"/>
</g>
<!-- Node2 -->
<g id="node2" class="node"><title>Node2</title>
<g id="a_node2"><a xlink:href="../../dd/dd6/classcommands_1_1_command.html" target="_top" xlink:title="commands.Command">
<polygon fill="white" stroke="black" points="0,-60.5 0,-79.5 124,-79.5 124,-60.5 0,-60.5"/>
<text text-anchor="middle" x="62" y="-67.5" font-family="Helvetica,sans-Serif" font-size="10.00">commands.Command</text>
</a>
</g>
</g>
<!-- Node2&#45;&gt;Node1 -->
<g id="edge1" class="edge"><title>Node2&#45;&gt;Node1</title>
<path fill="none" stroke="midnightblue" d="M134.249,-70C142.759,-70 151.519,-70 160.217,-70"/>
<polygon fill="midnightblue" stroke="midnightblue" points="134.014,-66.5001 124.014,-70 134.014,-73.5001 134.014,-66.5001"/>
</g>
</g>
</svg>
