<?xml version="1.0" encoding="UTF-8" standalone="no"?>
<!DOCTYPE svg PUBLIC "-//W3C//DTD SVG 1.1//EN"
 "http://www.w3.org/Graphics/SVG/1.1/DTD/svg11.dtd">
<!-- Generated by graphviz version 2.36.0 (20140111.2315)
 -->
<!-- Title: commands.CustomCommand Pages: 1 -->
<svg width="467pt" height="230pt"
 viewBox="0.00 0.00 467.00 230.00" xmlns="http://www.w3.org/2000/svg" xmlns:xlink="http://www.w3.org/1999/xlink">
<g id="graph0" class="graph" transform="scale(1 1) rotate(0) translate(4 226)">
<title>commands.CustomCommand</title>
<polygon fill="white" stroke="none" points="-4,4 -4,-226 463,-226 463,4 -4,4"/>
<!-- Node1 -->
<g id="node1" class="node"><title>Node1</title>
<polygon fill="#bfbfbf" stroke="black" points="112.5,-0.5 112.5,-19.5 273.5,-19.5 273.5,-0.5 112.5,-0.5"/>
<text text-anchor="middle" x="193" y="-7.5" font-family="Helvetica,sans-Serif" font-size="10.00">commands.CustomCommand</text>
</g>
<!-- Node2 -->
<g id="node2" class="node"><title>Node2</title>
<g id="a_node2"><a xlink:href="../../d6/d9f/classcommands_1_1_one_input_command.html" target="_top" xlink:title="commands.OneInputCommand">
<polygon fill="white" stroke="black" points="-0.5,-106.5 -0.5,-125.5 166.5,-125.5 166.5,-106.5 -0.5,-106.5"/>
<text text-anchor="middle" x="83" y="-113.5" font-family="Helvetica,sans-Serif" font-size="10.00">commands.OneInputCommand</text>
</a>
</g>
</g>
<!-- Node2&#45;&gt;Node1 -->
<g id="edge1" class="edge"><title>Node2&#45;&gt;Node1</title>
<path fill="none" stroke="midnightblue" d="M92.4432,-97.5316C97.9921,-88.1744 105.564,-76.797 114,-68 133.431,-47.7361 160.88,-29.7851 177.778,-19.6678"/>
<polygon fill="midnightblue" stroke="midnightblue" points="89.3263,-95.9329 87.4418,-106.359 95.4167,-99.3837 89.3263,-95.9329"/>
</g>
<!-- Node3 -->
<g id="node3" class="node"><title>Node3</title>
<g id="a_node3"><a xlink:href="../../dd/dd6/classcommands_1_1_command.html" target="_top" xlink:title="commands.Command">
<polygon fill="white" stroke="black" points="51,-202.5 51,-221.5 175,-221.5 175,-202.5 51,-202.5"/>
<text text-anchor="middle" x="113" y="-209.5" font-family="Helvetica,sans-Serif" font-size="10.00">commands.Command</text>
</a>
</g>
</g>
<!-- Node3&#45;&gt;Node2 -->
<g id="edge2" class="edge"><title>Node3&#45;&gt;Node2</title>
<path fill="none" stroke="midnightblue" d="M107.161,-192.704C100.712,-172.497 90.6015,-140.818 85.7619,-125.654"/>
<polygon fill="midnightblue" stroke="midnightblue" points="103.857,-193.863 110.231,-202.325 110.525,-191.734 103.857,-193.863"/>
</g>
<!-- Node3&#45;&gt;Node3 -->
<g id="edge3" class="edge"><title>Node3&#45;&gt;Node3</title>
<path fill="none" stroke="#9a32cd" stroke-dasharray="5,2" d="M185.252,-215.592C189.474,-214.73 192,-213.533 192,-212 192,-209.484 185.198,-207.873 175.261,-207.165"/>
<polygon fill="#9a32cd" stroke="#9a32cd" points="184.752,-212.127 175.261,-216.835 185.617,-219.073 184.752,-212.127"/>
<text text-anchor="middle" x="229" y="-209.5" font-family="Helvetica,sans-Serif" font-size="10.00"> myParameters</text>
</g>
<!-- Node5 -->
<g id="node5" class="node"><title>Node5</title>
<g id="a_node5"><a xlink:href="../../db/d5d/classcommands_1_1_zero_input_command.html" target="_top" xlink:title="commands.ZeroInputCommand">
<polygon fill="white" stroke="black" points="107.5,-144.5 107.5,-163.5 278.5,-163.5 278.5,-144.5 107.5,-144.5"/>
<text text-anchor="middle" x="193" y="-151.5" font-family="Helvetica,sans-Serif" font-size="10.00">commands.ZeroInputCommand</text>
</a>
</g>
</g>
<!-- Node3&#45;&gt;Node5 -->
<g id="edge6" class="edge"><title>Node3&#45;&gt;Node5</title>
<path fill="none" stroke="midnightblue" d="M133.722,-196.495C148.632,-186.058 168.24,-172.332 180.735,-163.585"/>
<polygon fill="midnightblue" stroke="midnightblue" points="131.335,-193.893 125.15,-202.495 135.35,-199.627 131.335,-193.893"/>
</g>
<!-- Node4 -->
<g id="node4" class="node"><title>Node4</title>
<g id="a_node4"><a xlink:href="../../da/d64/classcommands_1_1_list_command.html" target="_top" xlink:title="commands.ListCommand">
<polygon fill="white" stroke="black" points="123,-68.5 123,-87.5 263,-87.5 263,-68.5 123,-68.5"/>
<text text-anchor="middle" x="193" y="-75.5" font-family="Helvetica,sans-Serif" font-size="10.00">commands.ListCommand</text>
</a>
</g>
</g>
<!-- Node4&#45;&gt;Node1 -->
<g id="edge4" class="edge"><title>Node4&#45;&gt;Node1</title>
<path fill="none" stroke="#9a32cd" stroke-dasharray="5,2" d="M193,-58.0413C193,-45.4724 193,-29.5631 193,-19.8411"/>
<polygon fill="#9a32cd" stroke="#9a32cd" points="189.5,-58.3716 193,-68.3717 196.5,-58.3717 189.5,-58.3716"/>
<text text-anchor="middle" x="230" y="-41.5" font-family="Helvetica,sans-Serif" font-size="10.00"> myCommands</text>
</g>
<!-- Node5&#45;&gt;Node4 -->
<g id="edge5" class="edge"><title>Node5&#45;&gt;Node4</title>
<path fill="none" stroke="midnightblue" d="M193,-134.072C193,-119.18 193,-99.1111 193,-87.7679"/>
<polygon fill="midnightblue" stroke="midnightblue" points="189.5,-134.221 193,-144.221 196.5,-134.221 189.5,-134.221"/>
</g>
<!-- Node6 -->
<g id="node6" class="node"><title>Node6</title>
<polygon fill="white" stroke="#bfbfbf" points="296.5,-144.5 296.5,-163.5 459.5,-163.5 459.5,-144.5 296.5,-144.5"/>
<text text-anchor="middle" x="378" y="-151.5" font-family="Helvetica,sans-Serif" font-size="10.00">List&lt; commands.Command &gt;</text>
</g>
<!-- Node6&#45;&gt;Node4 -->
<g id="edge7" class="edge"><title>Node6&#45;&gt;Node4</title>
<path fill="none" stroke="#9a32cd" stroke-dasharray="5,2" d="M346.973,-140.589C309.396,-125.558 247.087,-100.635 214.446,-87.5786"/>
<polygon fill="#9a32cd" stroke="#9a32cd" points="345.831,-143.902 356.416,-144.366 348.431,-137.403 345.831,-143.902"/>
<text text-anchor="middle" x="350.5" y="-113.5" font-family="Helvetica,sans-Serif" font-size="10.00"> myCommandList</text>
</g>
<!-- Node7 -->
<g id="node7" class="node"><title>Node7</title>
<polygon fill="white" stroke="#bfbfbf" points="281,-68.5 281,-87.5 365,-87.5 365,-68.5 281,-68.5"/>
<text text-anchor="middle" x="323" y="-75.5" font-family="Helvetica,sans-Serif" font-size="10.00">List&lt; String &gt;</text>
</g>
<!-- Node7&#45;&gt;Node1 -->
<g id="edge8" class="edge"><title>Node7&#45;&gt;Node1</title>
<path fill="none" stroke="#9a32cd" stroke-dasharray="5,2" d="M305.579,-61.775C295.893,-53.883 283.332,-44.5522 271,-38 256.447,-30.268 239.229,-24.0342 224.677,-19.5128"/>
<polygon fill="#9a32cd" stroke="#9a32cd" points="303.364,-64.4853 313.274,-68.2341 307.865,-59.1239 303.364,-64.4853"/>
<text text-anchor="middle" x="321" y="-41.5" font-family="Helvetica,sans-Serif" font-size="10.00"> myVariables</text>
</g>
</g>
</svg>
