<?xml version="1.0" encoding="UTF-8" standalone="no"?>
<!DOCTYPE svg PUBLIC "-//W3C//DTD SVG 1.1//EN"
 "http://www.w3.org/Graphics/SVG/1.1/DTD/svg11.dtd">
<!-- Generated by graphviz version 2.36.0 (20140111.2315)
 -->
<!-- Title: commands.MakeVariableCommand.executeCommand Pages: 1 -->
<!--zoomable 513 -->
<svg id="main" version="1.1" xmlns="http://www.w3.org/2000/svg" xmlns:xlink="http://www.w3.org/1999/xlink" xml:space="preserve" onload="init(evt)">
<style type="text/css"><![CDATA[
.edge:hover path { stroke: red; }
.edge:hover polygon { stroke: red; fill: red; }
]]></style>
<script type="text/javascript"><![CDATA[
var edges = document.getElementsByTagName('g');
if (edges && edges.length) {
  for (var i=0;i<edges.length;i++) {
    if (edges[i].id.substr(0,4)=='edge') {
      edges[i].setAttribute('class','edge');
    }
  }
}
]]></script>
        <defs>
                <circle id="rim" cx="0" cy="0" r="7"/>
                <circle id="rim2" cx="0" cy="0" r="3.5"/>
                <g id="zoomPlus">
                        <use xlink:href="#rim" fill="#404040">
                                <set attributeName="fill" to="#808080" begin="zoomplus.mouseover" end="zoomplus.mouseout"/>
                        </use>
                        <path d="M-4,0h8M0,-4v8" fill="none" stroke="white" stroke-width="1.5" pointer-events="none"/>
                </g>
                <g id="zoomMin">
                        <use xlink:href="#rim" fill="#404040">
                                <set attributeName="fill" to="#808080" begin="zoomminus.mouseover" end="zoomminus.mouseout"/>
                        </use>
                        <path d="M-4,0h8" fill="none" stroke="white" stroke-width="1.5" pointer-events="none"/>
                </g>
                <g id="dirArrow">
                        <path fill="none" stroke="white" stroke-width="1.5" d="M0,-3.0v7 M-2.5,-0.5L0,-3.0L2.5,-0.5"/>
                </g>
               <g id="resetDef">
                       <use xlink:href="#rim2" fill="#404040">
                               <set attributeName="fill" to="#808080" begin="reset.mouseover" end="reset.mouseout"/>
                       </use>
               </g>
        </defs>

<script type="text/javascript">
var viewWidth = 1550;
var viewHeight = 513;
var sectionId = 'dynsection-2';
</script>
<script xlink:href="../../svgpan.js"/>
<svg id="graph" class="graph">
<g id="viewport">
<title>commands.MakeVariableCommand.executeCommand</title>
<polygon fill="white" stroke="none" points="-4,4 -4,-509 1546,-509 1546,4 -4,4"/>
<!-- Node1 -->
<g id="node1" class="node"><title>Node1</title>
<polygon fill="#bfbfbf" stroke="black" points="0.5,-365 0.5,-395 229.5,-395 229.5,-365 0.5,-365"/>
<text text-anchor="start" x="8.5" y="-383" font-family="Helvetica,sans-Serif" font-size="10.00">commands.MakeVariableCommand.execute</text>
<text text-anchor="middle" x="115" y="-372" font-family="Helvetica,sans-Serif" font-size="10.00">Command</text>
</g>
<!-- Node2 -->
<g id="node2" class="node"><title>Node2</title>
<g id="a_node2"><a xlink:href="../../d3/d62/classmodel_1_1_variable_manager.html#a874fb8ae03e55bb4f333a403e1e939bd" target="_top" xlink:title="model.VariableManager.add\lGlobalVariable">
<polygon fill="white" stroke="black" points="282,-436 282,-466 432,-466 432,-436 282,-436"/>
<text text-anchor="start" x="290" y="-454" font-family="Helvetica,sans-Serif" font-size="10.00">model.VariableManager.add</text>
<text text-anchor="middle" x="357" y="-443" font-family="Helvetica,sans-Serif" font-size="10.00">GlobalVariable</text>
</a>
</g>
</g>
<!-- Node1&#45;&gt;Node2 -->
<g id="edge1" class="edge"><title>Node1&#45;&gt;Node2</title>
<path fill="none" stroke="midnightblue" d="M163.866,-395.034C193.274,-404.182 231.749,-415.993 266,-426 274.055,-428.353 282.532,-430.777 290.93,-433.146"/>
<polygon fill="midnightblue" stroke="midnightblue" points="290.148,-436.562 300.722,-435.895 292.04,-429.823 290.148,-436.562"/>
</g>
<!-- Node3 -->
<g id="node3" class="node"><title>Node3</title>
<g id="a_node3"><a xlink:href="../../dd/dd6/classcommands_1_1_command.html#abafa69601e87c34d4453cf84349d6f9c" target="_top" xlink:title="commands.Command.execute\lCommand">
<polygon fill="white" stroke="black" points="274.5,-387 274.5,-417 439.5,-417 439.5,-387 274.5,-387"/>
<text text-anchor="start" x="282.5" y="-405" font-family="Helvetica,sans-Serif" font-size="10.00">commands.Command.execute</text>
<text text-anchor="middle" x="357" y="-394" font-family="Helvetica,sans-Serif" font-size="10.00">Command</text>
</a>
</g>
</g>
<!-- Node1&#45;&gt;Node3 -->
<g id="edge2" class="edge"><title>Node1&#45;&gt;Node3</title>
<path fill="none" stroke="midnightblue" d="M229.674,-390.42C241.177,-391.475 252.757,-392.536 263.99,-393.566"/>
<polygon fill="midnightblue" stroke="midnightblue" points="263.92,-397.074 274.197,-394.501 264.559,-390.103 263.92,-397.074"/>
</g>
<!-- Node36 -->
<g id="node36" class="node"><title>Node36</title>
<g id="a_node36"><a xlink:href="../../d3/d42/classmodel_1_1_model.html#ac129cb1cf270db69824b85eb0bc528c3" target="_top" xlink:title="model.Model.getVariableManager">
<polygon fill="white" stroke="black" points="268.5,-348.5 268.5,-367.5 445.5,-367.5 445.5,-348.5 268.5,-348.5"/>
<text text-anchor="middle" x="357" y="-355.5" font-family="Helvetica,sans-Serif" font-size="10.00">model.Model.getVariableManager</text>
</a>
</g>
</g>
<!-- Node1&#45;&gt;Node36 -->
<g id="edge42" class="edge"><title>Node1&#45;&gt;Node36</title>
<path fill="none" stroke="midnightblue" d="M229.674,-369.58C239.195,-368.707 248.768,-367.83 258.155,-366.969"/>
<polygon fill="midnightblue" stroke="midnightblue" points="258.616,-370.442 268.255,-366.043 257.977,-363.471 258.616,-370.442"/>
</g>
<!-- Node37 -->
<g id="node37" class="node"><title>Node37</title>
<g id="a_node37"><a xlink:href="../../d9/de1/classcommands_1_1_variable_command.html#a9d442d0a8ec50f9b49c3139cf9ddc9b7" target="_top" xlink:title="commands.VariableCommand.get\lVariableName">
<polygon fill="white" stroke="black" points="266.5,-299 266.5,-329 447.5,-329 447.5,-299 266.5,-299"/>
<text text-anchor="start" x="274.5" y="-317" font-family="Helvetica,sans-Serif" font-size="10.00">commands.VariableCommand.get</text>
<text text-anchor="middle" x="357" y="-306" font-family="Helvetica,sans-Serif" font-size="10.00">VariableName</text>
</a>
</g>
</g>
<!-- Node1&#45;&gt;Node37 -->
<g id="edge43" class="edge"><title>Node1&#45;&gt;Node37</title>
<path fill="none" stroke="midnightblue" d="M170.76,-364.941C206.573,-355.092 253.526,-342.18 291.198,-331.821"/>
<polygon fill="midnightblue" stroke="midnightblue" points="292.346,-335.135 301.06,-329.108 290.49,-328.385 292.346,-335.135"/>
</g>
<!-- Node4 -->
<g id="node4" class="node"><title>Node4</title>
<g id="a_node4"><a xlink:href="../../df/d50/classmodel_1_1_turtle_set_manager.html#a9a65c0be3b9c21abaf0ebaa54e5b8484" target="_top" xlink:title="model.TurtleSetManager.get\lActiveTurtles">
<polygon fill="white" stroke="black" points="970,-450 970,-480 1122,-480 1122,-450 970,-450"/>
<text text-anchor="start" x="978" y="-468" font-family="Helvetica,sans-Serif" font-size="10.00">model.TurtleSetManager.get</text>
<text text-anchor="middle" x="1046" y="-457" font-family="Helvetica,sans-Serif" font-size="10.00">ActiveTurtles</text>
</a>
</g>
</g>
<!-- Node3&#45;&gt;Node4 -->
<g id="edge3" class="edge"><title>Node3&#45;&gt;Node4</title>
<path fill="none" stroke="midnightblue" d="M439.54,-415.93C454.308,-418.171 469.592,-420.307 484,-422 652.163,-441.758 849.8,-454.474 959.899,-460.626"/>
<polygon fill="midnightblue" stroke="midnightblue" points="959.773,-464.124 969.951,-461.183 960.16,-457.135 959.773,-464.124"/>
</g>
<!-- Node5 -->
<g id="node5" class="node"><title>Node5</title>
<g id="a_node5"><a xlink:href="../../d3/d42/classmodel_1_1_model.html#a1a683ba5e58fcb3c8882c8e61df20dc0" target="_top" xlink:title="model.Model.getTurtleManager">
<polygon fill="white" stroke="black" points="964,-411.5 964,-430.5 1128,-430.5 1128,-411.5 964,-411.5"/>
<text text-anchor="middle" x="1046" y="-418.5" font-family="Helvetica,sans-Serif" font-size="10.00">model.Model.getTurtleManager</text>
</a>
</g>
</g>
<!-- Node3&#45;&gt;Node5 -->
<g id="edge4" class="edge"><title>Node3&#45;&gt;Node5</title>
<path fill="none" stroke="midnightblue" d="M439.506,-404.254C568.454,-407.82 818.678,-414.741 953.564,-418.471"/>
<polygon fill="midnightblue" stroke="midnightblue" points="953.774,-421.978 963.867,-418.756 953.967,-414.981 953.774,-421.978"/>
</g>
<!-- Node6 -->
<g id="node6" class="node"><title>Node6</title>
<g id="a_node6"><a xlink:href="../../d3/d42/classmodel_1_1_model.html#a76160d002c1e68b566307ac44356f6e5" target="_top" xlink:title="model.Model.notifyView">
<polygon fill="white" stroke="black" points="512.5,-373.5 512.5,-392.5 641.5,-392.5 641.5,-373.5 512.5,-373.5"/>
<text text-anchor="middle" x="577" y="-380.5" font-family="Helvetica,sans-Serif" font-size="10.00">model.Model.notifyView</text>
</a>
</g>
</g>
<!-- Node3&#45;&gt;Node6 -->
<g id="edge5" class="edge"><title>Node3&#45;&gt;Node6</title>
<path fill="none" stroke="midnightblue" d="M439.795,-394.871C460.363,-393.078 482.311,-391.166 502.448,-389.41"/>
<polygon fill="midnightblue" stroke="midnightblue" points="502.826,-392.891 512.484,-388.536 502.218,-385.917 502.826,-392.891"/>
</g>
<!-- Node35 -->
<g id="node35" class="node"><title>Node35</title>
<g id="a_node35"><a xlink:href="../../dd/dd6/classcommands_1_1_command.html#aec3e0f888945b1811fd739ecea212324" target="_top" xlink:title="commands.Command.updateTurtle">
<polygon fill="white" stroke="black" points="484,-335.5 484,-354.5 670,-354.5 670,-335.5 484,-335.5"/>
<text text-anchor="middle" x="577" y="-342.5" font-family="Helvetica,sans-Serif" font-size="10.00">commands.Command.updateTurtle</text>
</a>
</g>
</g>
<!-- Node3&#45;&gt;Node35 -->
<g id="edge41" class="edge"><title>Node3&#45;&gt;Node35</title>
<path fill="none" stroke="midnightblue" d="M414.845,-386.912C425.888,-383.783 437.34,-380.4 448,-377 464.207,-371.831 467.628,-368.621 484,-364 493.418,-361.342 503.474,-358.886 513.354,-356.684"/>
<polygon fill="midnightblue" stroke="midnightblue" points="514.108,-360.101 523.143,-354.568 512.629,-353.259 514.108,-360.101"/>
</g>
<!-- Node7 -->
<g id="node7" class="node"><title>Node7</title>
<g id="a_node7"><a xlink:href="../../db/db5/classview_1_1panes_1_1_view_pane_module.html#aa2a1bf15bc036ee4237bf63749d85baf" target="_top" xlink:title="view.panes.ViewPaneModule.updateView">
<polygon fill="white" stroke="black" points="706.5,-244.5 706.5,-263.5 915.5,-263.5 915.5,-244.5 706.5,-244.5"/>
<text text-anchor="middle" x="811" y="-251.5" font-family="Helvetica,sans-Serif" font-size="10.00">view.panes.ViewPaneModule.updateView</text>
</a>
</g>
</g>
<!-- Node6&#45;&gt;Node7 -->
<g id="edge6" class="edge"><title>Node6&#45;&gt;Node7</title>
<path fill="none" stroke="midnightblue" d="M641.601,-373.891C651.356,-371.356 661.125,-368.122 670,-364 720.593,-340.501 769.429,-295.468 793.843,-270.94"/>
<polygon fill="midnightblue" stroke="midnightblue" points="796.387,-273.344 800.882,-263.75 791.385,-268.447 796.387,-273.344"/>
</g>
<!-- Node7&#45;&gt;Node4 -->
<g id="edge11" class="edge"><title>Node7&#45;&gt;Node4</title>
<path fill="none" stroke="midnightblue" d="M816.485,-263.902C831.117,-295.048 880.663,-391.812 952,-440 954.929,-441.978 958.008,-443.801 961.193,-445.479"/>
<polygon fill="midnightblue" stroke="midnightblue" points="959.875,-448.727 970.412,-449.838 962.867,-442.399 959.875,-448.727"/>
</g>
<!-- Node7&#45;&gt;Node5 -->
<g id="edge10" class="edge"><title>Node7&#45;&gt;Node5</title>
<path fill="none" stroke="midnightblue" d="M818.175,-263.786C835.598,-290.518 888.052,-365.162 952,-401 956.862,-403.725 962.059,-406.079 967.417,-408.113"/>
<polygon fill="midnightblue" stroke="midnightblue" points="966.605,-411.533 977.2,-411.438 968.858,-404.906 966.605,-411.533"/>
</g>
<!-- Node8 -->
<g id="node8" class="node"><title>Node8</title>
<g id="a_node8"><a xlink:href="../../d3/d42/classmodel_1_1_model.html#a54936407d7df5ab8ef3c0ae54bcdc0ed" target="_top" xlink:title="model.Model.getBackground\lColor">
<polygon fill="white" stroke="black" points="969,-264 969,-294 1123,-294 1123,-264 969,-264"/>
<text text-anchor="start" x="977" y="-282" font-family="Helvetica,sans-Serif" font-size="10.00">model.Model.getBackground</text>
<text text-anchor="middle" x="1046" y="-271" font-family="Helvetica,sans-Serif" font-size="10.00">Color</text>
</a>
</g>
</g>
<!-- Node7&#45;&gt;Node8 -->
<g id="edge7" class="edge"><title>Node7&#45;&gt;Node8</title>
<path fill="none" stroke="midnightblue" d="M900.752,-263.523C919.72,-265.558 939.73,-267.705 958.608,-269.73"/>
<polygon fill="midnightblue" stroke="midnightblue" points="958.348,-273.223 968.664,-270.809 959.095,-266.263 958.348,-273.223"/>
</g>
<!-- Node9 -->
<g id="node9" class="node"><title>Node9</title>
<g id="a_node9"><a xlink:href="../../db/db5/classview_1_1panes_1_1_view_pane_module.html#ac94ee444587349ddad19b8caee500c9c" target="_top" xlink:title="view.panes.ViewPaneModule.update\lBGColor">
<polygon fill="white" stroke="black" points="952,-215 952,-245 1140,-245 1140,-215 952,-215"/>
<text text-anchor="start" x="960" y="-233" font-family="Helvetica,sans-Serif" font-size="10.00">view.panes.ViewPaneModule.update</text>
<text text-anchor="middle" x="1046" y="-222" font-family="Helvetica,sans-Serif" font-size="10.00">BGColor</text>
</a>
</g>
</g>
<!-- Node7&#45;&gt;Node9 -->
<g id="edge8" class="edge"><title>Node7&#45;&gt;Node9</title>
<path fill="none" stroke="midnightblue" d="M904.422,-244.48C916.754,-243.21 929.461,-241.901 941.96,-240.614"/>
<polygon fill="midnightblue" stroke="midnightblue" points="942.338,-244.093 951.927,-239.587 941.621,-237.13 942.338,-244.093"/>
</g>
<!-- Node10 -->
<g id="node10" class="node"><title>Node10</title>
<g id="a_node10"><a xlink:href="../../db/db5/classview_1_1panes_1_1_view_pane_module.html#abe91f8bb732e99d762bdaba51ceae04b" target="_top" xlink:title="view.panes.ViewPaneModule.toRGB">
<polygon fill="white" stroke="black" points="954,-176.5 954,-195.5 1138,-195.5 1138,-176.5 954,-176.5"/>
<text text-anchor="middle" x="1046" y="-183.5" font-family="Helvetica,sans-Serif" font-size="10.00">view.panes.ViewPaneModule.toRGB</text>
</a>
</g>
</g>
<!-- Node7&#45;&gt;Node10 -->
<g id="edge9" class="edge"><title>Node7&#45;&gt;Node10</title>
<path fill="none" stroke="midnightblue" d="M835.966,-244.496C863.597,-233.802 910.543,-216.433 952,-205 961.651,-202.338 971.959,-199.87 982.068,-197.653"/>
<polygon fill="midnightblue" stroke="midnightblue" points="983.027,-201.027 992.079,-195.522 981.57,-194.181 983.027,-201.027"/>
</g>
<!-- Node11 -->
<g id="node11" class="node"><title>Node11</title>
<g id="a_node11"><a xlink:href="../../df/d50/classmodel_1_1_turtle_set_manager.html#a9e215e93eccbed2ab9ebec6119cfe305" target="_top" xlink:title="model.TurtleSetManager.get\lAllTurtles">
<polygon fill="white" stroke="black" points="970,-127 970,-157 1122,-157 1122,-127 970,-127"/>
<text text-anchor="start" x="978" y="-145" font-family="Helvetica,sans-Serif" font-size="10.00">model.TurtleSetManager.get</text>
<text text-anchor="middle" x="1046" y="-134" font-family="Helvetica,sans-Serif" font-size="10.00">AllTurtles</text>
</a>
</g>
</g>
<!-- Node7&#45;&gt;Node11 -->
<g id="edge12" class="edge"><title>Node7&#45;&gt;Node11</title>
<path fill="none" stroke="midnightblue" d="M824.796,-244.229C848.605,-226.475 901.858,-188.753 952,-167 957.637,-164.555 963.572,-162.296 969.603,-160.221"/>
<polygon fill="midnightblue" stroke="midnightblue" points="970.71,-163.542 979.131,-157.112 968.539,-156.887 970.71,-163.542"/>
</g>
<!-- Node12 -->
<g id="node12" class="node"><title>Node12</title>
<g id="a_node12"><a xlink:href="../../d3/d42/classmodel_1_1_model.html#af73e838aed2c068e8f7d31bfa1cc88d7" target="_top" xlink:title="model.Model.getStamp">
<polygon fill="white" stroke="black" points="981.5,-88.5 981.5,-107.5 1110.5,-107.5 1110.5,-88.5 981.5,-88.5"/>
<text text-anchor="middle" x="1046" y="-95.5" font-family="Helvetica,sans-Serif" font-size="10.00">model.Model.getStamp</text>
</a>
</g>
</g>
<!-- Node7&#45;&gt;Node12 -->
<g id="edge13" class="edge"><title>Node7&#45;&gt;Node12</title>
<path fill="none" stroke="midnightblue" d="M818.59,-244.492C836.663,-219.21 889.824,-150.008 952,-117 958.063,-113.781 964.616,-111.107 971.338,-108.885"/>
<polygon fill="midnightblue" stroke="midnightblue" points="972.676,-112.139 981.27,-105.943 970.688,-105.427 972.676,-112.139"/>
</g>
<!-- Node13 -->
<g id="node13" class="node"><title>Node13</title>
<g id="a_node13"><a xlink:href="../../db/db5/classview_1_1panes_1_1_view_pane_module.html#a44db6ae832af3ce470baa9406142b8cb" target="_top" xlink:title="view.panes.ViewPaneModule.make\lStamps">
<polygon fill="white" stroke="black" points="955.5,-39 955.5,-69 1136.5,-69 1136.5,-39 955.5,-39"/>
<text text-anchor="start" x="963.5" y="-57" font-family="Helvetica,sans-Serif" font-size="10.00">view.panes.ViewPaneModule.make</text>
<text text-anchor="middle" x="1046" y="-46" font-family="Helvetica,sans-Serif" font-size="10.00">Stamps</text>
</a>
</g>
</g>
<!-- Node7&#45;&gt;Node13 -->
<g id="edge14" class="edge"><title>Node7&#45;&gt;Node13</title>
<path fill="none" stroke="midnightblue" d="M816.868,-244.27C832.262,-214.536 882.974,-124.158 952,-79 955.122,-76.9577 958.406,-75.0815 961.8,-73.358"/>
<polygon fill="midnightblue" stroke="midnightblue" points="963.372,-76.488 971.007,-69.143 960.458,-70.1233 963.372,-76.488"/>
</g>
<!-- Node20 -->
<g id="node20" class="node"><title>Node20</title>
<g id="a_node20"><a xlink:href="../../d3/d42/classmodel_1_1_model.html#a0a457f31350a460e11dc864463e0d8ff" target="_top" xlink:title="model.Model.setStamp">
<polygon fill="white" stroke="black" points="982,-0.5 982,-19.5 1110,-19.5 1110,-0.5 982,-0.5"/>
<text text-anchor="middle" x="1046" y="-7.5" font-family="Helvetica,sans-Serif" font-size="10.00">model.Model.setStamp</text>
</a>
</g>
</g>
<!-- Node7&#45;&gt;Node20 -->
<g id="edge21" class="edge"><title>Node7&#45;&gt;Node20</title>
<path fill="none" stroke="midnightblue" d="M814.896,-244.385C826.036,-209.166 869.671,-86.28 952,-29 958.045,-24.7942 964.814,-21.4778 971.869,-18.8684"/>
<polygon fill="midnightblue" stroke="midnightblue" points="973.177,-22.1242 981.626,-15.7312 971.034,-15.4602 973.177,-22.1242"/>
</g>
<!-- Node21 -->
<g id="node21" class="node"><title>Node21</title>
<g id="a_node21"><a xlink:href="../../db/db5/classview_1_1panes_1_1_view_pane_module.html#a7ad9ad27137ffdf0ea96753a22da236b" target="_top" xlink:title="view.panes.ViewPaneModule.erase\lStamps">
<polygon fill="white" stroke="black" points="955.5,-362 955.5,-392 1136.5,-392 1136.5,-362 955.5,-362"/>
<text text-anchor="start" x="963.5" y="-380" font-family="Helvetica,sans-Serif" font-size="10.00">view.panes.ViewPaneModule.erase</text>
<text text-anchor="middle" x="1046" y="-369" font-family="Helvetica,sans-Serif" font-size="10.00">Stamps</text>
</a>
</g>
</g>
<!-- Node7&#45;&gt;Node21 -->
<g id="edge22" class="edge"><title>Node7&#45;&gt;Node21</title>
<path fill="none" stroke="midnightblue" d="M822.783,-263.574C845.234,-283.026 899.306,-327.407 952,-352 957.241,-354.446 962.764,-356.688 968.397,-358.735"/>
<polygon fill="midnightblue" stroke="midnightblue" points="967.355,-362.078 977.949,-362 969.619,-355.454 967.355,-362.078"/>
</g>
<!-- Node23 -->
<g id="node23" class="node"><title>Node23</title>
<g id="a_node23"><a xlink:href="../../db/db5/classview_1_1panes_1_1_view_pane_module.html#ab55ce3511929b88a2cd1235eb694868f" target="_top" xlink:title="view.panes.ViewPaneModule.update\lTurtle">
<polygon fill="white" stroke="black" points="952,-313 952,-343 1140,-343 1140,-313 952,-313"/>
<text text-anchor="start" x="960" y="-331" font-family="Helvetica,sans-Serif" font-size="10.00">view.panes.ViewPaneModule.update</text>
<text text-anchor="middle" x="1046" y="-320" font-family="Helvetica,sans-Serif" font-size="10.00">Turtle</text>
</a>
</g>
</g>
<!-- Node7&#45;&gt;Node23 -->
<g id="edge24" class="edge"><title>Node7&#45;&gt;Node23</title>
<path fill="none" stroke="midnightblue" d="M837.359,-263.512C865.261,-273.829 911.527,-290.496 952,-303 959.922,-305.447 968.265,-307.885 976.568,-310.224"/>
<polygon fill="midnightblue" stroke="midnightblue" points="975.698,-313.615 986.27,-312.92 977.572,-306.871 975.698,-313.615"/>
</g>
<!-- Node14 -->
<g id="node14" class="node"><title>Node14</title>
<g id="a_node14"><a xlink:href="../../d7/da6/classview_1_1_turtle_draw.html#a939f4fdbdb66457c9dcee82eb4ae6d9c" target="_top" xlink:title="view.TurtleDraw.drawTurtle">
<polygon fill="white" stroke="black" points="1184.5,-67.5 1184.5,-86.5 1323.5,-86.5 1323.5,-67.5 1184.5,-67.5"/>
<text text-anchor="middle" x="1254" y="-74.5" font-family="Helvetica,sans-Serif" font-size="10.00">view.TurtleDraw.drawTurtle</text>
</a>
</g>
</g>
<!-- Node13&#45;&gt;Node14 -->
<g id="edge15" class="edge"><title>Node13&#45;&gt;Node14</title>
<path fill="none" stroke="midnightblue" d="M1136.76,-64.0212C1149.21,-65.4115 1161.92,-66.831 1174.15,-68.1968"/>
<polygon fill="midnightblue" stroke="midnightblue" points="1173.97,-71.6983 1184.3,-69.3296 1174.75,-64.7415 1173.97,-71.6983"/>
</g>
<!-- Node17 -->
<g id="node17" class="node"><title>Node17</title>
<g id="a_node17"><a xlink:href="../../d7/da6/classview_1_1_turtle_draw.html#a14678068d3fc9d3b6e1067bc372f6030" target="_top" xlink:title="view.TurtleDraw.showTurtle">
<polygon fill="white" stroke="black" points="1184,-29.5 1184,-48.5 1324,-48.5 1324,-29.5 1184,-29.5"/>
<text text-anchor="middle" x="1254" y="-36.5" font-family="Helvetica,sans-Serif" font-size="10.00">view.TurtleDraw.showTurtle</text>
</a>
</g>
</g>
<!-- Node13&#45;&gt;Node17 -->
<g id="edge18" class="edge"><title>Node13&#45;&gt;Node17</title>
<path fill="none" stroke="midnightblue" d="M1136.76,-47.4644C1149.12,-46.5639 1161.75,-45.6445 1173.9,-44.7594"/>
<polygon fill="midnightblue" stroke="midnightblue" points="1174.27,-48.2422 1183.99,-44.0251 1173.76,-41.2607 1174.27,-48.2422"/>
</g>
<!-- Node18 -->
<g id="node18" class="node"><title>Node18</title>
<g id="a_node18"><a xlink:href="../../d7/da6/classview_1_1_turtle_draw.html#a8c2cab38eb294b26aea1ae17595ba2a6" target="_top" xlink:title="view.TurtleDraw.moveTurtle">
<polygon fill="white" stroke="black" points="1182.5,-143.5 1182.5,-162.5 1325.5,-162.5 1325.5,-143.5 1182.5,-143.5"/>
<text text-anchor="middle" x="1254" y="-150.5" font-family="Helvetica,sans-Serif" font-size="10.00">view.TurtleDraw.moveTurtle</text>
</a>
</g>
</g>
<!-- Node13&#45;&gt;Node18 -->
<g id="edge19" class="edge"><title>Node13&#45;&gt;Node18</title>
<path fill="none" stroke="midnightblue" d="M1122.8,-69.1906C1128.89,-71.9348 1134.72,-75.1748 1140,-79 1163.66,-96.1392 1152.16,-117.106 1176,-134 1178.84,-136.012 1181.87,-137.811 1185.02,-139.421"/>
<polygon fill="midnightblue" stroke="midnightblue" points="1183.62,-142.629 1194.18,-143.474 1186.45,-136.227 1183.62,-142.629"/>
</g>
<!-- Node19 -->
<g id="node19" class="node"><title>Node19</title>
<g id="a_node19"><a xlink:href="../../d7/da6/classview_1_1_turtle_draw.html#a5004a16526a67f090d7da45474b5136e" target="_top" xlink:title="view.TurtleDraw.setAngle">
<polygon fill="white" stroke="black" points="1187.5,-105.5 1187.5,-124.5 1320.5,-124.5 1320.5,-105.5 1187.5,-105.5"/>
<text text-anchor="middle" x="1254" y="-112.5" font-family="Helvetica,sans-Serif" font-size="10.00">view.TurtleDraw.setAngle</text>
</a>
</g>
</g>
<!-- Node13&#45;&gt;Node19 -->
<g id="edge20" class="edge"><title>Node13&#45;&gt;Node19</title>
<path fill="none" stroke="midnightblue" d="M1109.02,-69.0126C1119.46,-72.0119 1130.11,-75.3695 1140,-79 1156.61,-85.0988 1159.33,-90.0733 1176,-96 1183.04,-98.5012 1190.55,-100.795 1198.02,-102.858"/>
<polygon fill="midnightblue" stroke="midnightblue" points="1197.2,-106.264 1207.77,-105.434 1198.99,-99.4958 1197.2,-106.264"/>
</g>
<!-- Node15 -->
<g id="node15" class="node"><title>Node15</title>
<g id="a_node15"><a xlink:href="../../d6/d34/classmodel_1_1_turtle.html#a942dbeb1d7e2bc19b6870538c2c3a7d2" target="_top" xlink:title="model.Turtle.getShape">
<polygon fill="white" stroke="black" points="1392.5,-89.5 1392.5,-108.5 1517.5,-108.5 1517.5,-89.5 1392.5,-89.5"/>
<text text-anchor="middle" x="1455" y="-96.5" font-family="Helvetica,sans-Serif" font-size="10.00">model.Turtle.getShape</text>
</a>
</g>
</g>
<!-- Node14&#45;&gt;Node15 -->
<g id="edge16" class="edge"><title>Node14&#45;&gt;Node15</title>
<path fill="none" stroke="midnightblue" d="M1323.76,-84.602C1342.62,-86.6865 1363.11,-88.9515 1382.13,-91.0547"/>
<polygon fill="midnightblue" stroke="midnightblue" points="1381.91,-94.5509 1392.23,-92.1711 1382.67,-87.5933 1381.91,-94.5509"/>
</g>
<!-- Node16 -->
<g id="node16" class="node"><title>Node16</title>
<g id="a_node16"><a xlink:href="../../d3/db7/classview_1_1controllers_1_1_image_palette.html#a8a6620714bc12d5a00b97e99299a7040" target="_top" xlink:title="view.controllers.ImagePalette.get\lImage">
<polygon fill="white" stroke="black" points="1368,-40 1368,-70 1542,-70 1542,-40 1368,-40"/>
<text text-anchor="start" x="1376" y="-58" font-family="Helvetica,sans-Serif" font-size="10.00">view.controllers.ImagePalette.get</text>
<text text-anchor="middle" x="1455" y="-47" font-family="Helvetica,sans-Serif" font-size="10.00">Image</text>
</a>
</g>
</g>
<!-- Node14&#45;&gt;Node16 -->
<g id="edge17" class="edge"><title>Node14&#45;&gt;Node16</title>
<path fill="none" stroke="midnightblue" d="M1323.76,-69.398C1334.71,-68.1877 1346.21,-66.9165 1357.65,-65.6514"/>
<polygon fill="midnightblue" stroke="midnightblue" points="1358.13,-69.1206 1367.68,-64.5429 1357.36,-62.163 1358.13,-69.1206"/>
</g>
<!-- Node22 -->
<g id="node22" class="node"><title>Node22</title>
<g id="a_node22"><a xlink:href="../../d7/da6/classview_1_1_turtle_draw.html#acb97dedda080cb5ed17031d2b31adc2c" target="_top" xlink:title="view.TurtleDraw.hideTurtle">
<polygon fill="white" stroke="black" points="1185.5,-485.5 1185.5,-504.5 1322.5,-504.5 1322.5,-485.5 1185.5,-485.5"/>
<text text-anchor="middle" x="1254" y="-492.5" font-family="Helvetica,sans-Serif" font-size="10.00">view.TurtleDraw.hideTurtle</text>
</a>
</g>
</g>
<!-- Node21&#45;&gt;Node22 -->
<g id="edge23" class="edge"><title>Node21&#45;&gt;Node22</title>
<path fill="none" stroke="midnightblue" d="M1124.72,-392.164C1130.18,-394.918 1135.36,-398.167 1140,-402 1168.2,-425.29 1147.56,-453.003 1176,-476 1178.26,-477.826 1180.67,-479.48 1183.19,-480.979"/>
<polygon fill="midnightblue" stroke="midnightblue" points="1181.62,-484.107 1192.12,-485.495 1184.77,-477.86 1181.62,-484.107"/>
</g>
<!-- Node23&#45;&gt;Node14 -->
<g id="edge26" class="edge"><title>Node23&#45;&gt;Node14</title>
<path fill="none" stroke="midnightblue" d="M1128.14,-312.879C1132.49,-310.093 1136.5,-306.827 1140,-303 1202.98,-234.053 1112.31,-164.292 1176,-96 1177.23,-94.6847 1178.53,-93.4541 1179.9,-92.303"/>
<polygon fill="midnightblue" stroke="midnightblue" points="1182.06,-95.0665 1188.35,-86.544 1178.11,-89.2813 1182.06,-95.0665"/>
</g>
<!-- Node23&#45;&gt;Node17 -->
<g id="edge27" class="edge"><title>Node23&#45;&gt;Node17</title>
<path fill="none" stroke="midnightblue" d="M1128.26,-312.985C1132.58,-310.173 1136.56,-306.872 1140,-303 1213.15,-220.771 1102,-139.468 1176,-58 1177.07,-56.8215 1178.2,-55.7107 1179.38,-54.6639"/>
<polygon fill="midnightblue" stroke="midnightblue" points="1181.74,-57.2816 1187.88,-48.6446 1177.7,-51.5698 1181.74,-57.2816"/>
</g>
<!-- Node23&#45;&gt;Node18 -->
<g id="edge40" class="edge"><title>Node23&#45;&gt;Node18</title>
<path fill="none" stroke="midnightblue" d="M1126.86,-312.995C1131.64,-310.193 1136.09,-306.89 1140,-303 1182.81,-260.424 1132.75,-214.131 1176,-172 1177.48,-170.559 1179.05,-169.221 1180.7,-167.98"/>
<polygon fill="midnightblue" stroke="midnightblue" points="1182.82,-170.784 1189.48,-162.546 1179.13,-164.832 1182.82,-170.784"/>
</g>
<!-- Node23&#45;&gt;Node19 -->
<g id="edge38" class="edge"><title>Node23&#45;&gt;Node19</title>
<path fill="none" stroke="midnightblue" d="M1127.55,-312.99C1132.1,-310.183 1136.32,-306.881 1140,-303 1192.85,-247.284 1122.57,-189.166 1176,-134 1177.25,-132.708 1178.58,-131.498 1179.96,-130.366"/>
<polygon fill="midnightblue" stroke="midnightblue" points="1182.11,-133.14 1188.5,-124.692 1178.24,-127.309 1182.11,-133.14"/>
</g>
<!-- Node23&#45;&gt;Node22 -->
<g id="edge28" class="edge"><title>Node23&#45;&gt;Node22</title>
<path fill="none" stroke="midnightblue" d="M1126.78,-343.079C1131.58,-345.863 1136.06,-349.142 1140,-353 1180.72,-392.829 1134.87,-436.594 1176,-476 1177.49,-477.429 1179.07,-478.755 1180.73,-479.987"/>
<polygon fill="midnightblue" stroke="midnightblue" points="1179.19,-483.149 1189.55,-485.384 1182.84,-477.179 1179.19,-483.149"/>
</g>
<!-- Node24 -->
<g id="node24" class="node"><title>Node24</title>
<g id="a_node24"><a xlink:href="../../d6/d34/classmodel_1_1_turtle.html#ae79a1eae7eed55d121c3b85299ae14ba" target="_top" xlink:title="model.Turtle.getID">
<polygon fill="white" stroke="black" points="1202,-257.5 1202,-276.5 1306,-276.5 1306,-257.5 1202,-257.5"/>
<text text-anchor="middle" x="1254" y="-264.5" font-family="Helvetica,sans-Serif" font-size="10.00">model.Turtle.getID</text>
</a>
</g>
</g>
<!-- Node23&#45;&gt;Node24 -->
<g id="edge25" class="edge"><title>Node23&#45;&gt;Node24</title>
<path fill="none" stroke="midnightblue" d="M1109.02,-312.987C1119.46,-309.988 1130.11,-306.63 1140,-303 1156.61,-296.901 1159.33,-291.927 1176,-286 1183.04,-283.499 1190.55,-281.205 1198.02,-279.142"/>
<polygon fill="midnightblue" stroke="midnightblue" points="1198.99,-282.504 1207.77,-276.566 1197.2,-275.736 1198.99,-282.504"/>
</g>
<!-- Node25 -->
<g id="node25" class="node"><title>Node25</title>
<g id="a_node25"><a xlink:href="../../d6/d34/classmodel_1_1_turtle.html#a279f2bdb3fa955acdd52b7824ec3cd04" target="_top" xlink:title="model.Turtle.getPenStatus">
<polygon fill="white" stroke="black" points="1182.5,-219.5 1182.5,-238.5 1325.5,-238.5 1325.5,-219.5 1182.5,-219.5"/>
<text text-anchor="middle" x="1254" y="-226.5" font-family="Helvetica,sans-Serif" font-size="10.00">model.Turtle.getPenStatus</text>
</a>
</g>
</g>
<!-- Node23&#45;&gt;Node25 -->
<g id="edge29" class="edge"><title>Node23&#45;&gt;Node25</title>
<path fill="none" stroke="midnightblue" d="M1122.8,-312.809C1128.89,-310.065 1134.72,-306.825 1140,-303 1163.66,-285.861 1152.16,-264.894 1176,-248 1178.84,-245.988 1181.87,-244.189 1185.02,-242.579"/>
<polygon fill="midnightblue" stroke="midnightblue" points="1186.45,-245.773 1194.18,-238.526 1183.62,-239.371 1186.45,-245.773"/>
</g>
<!-- Node27 -->
<g id="node27" class="node"><title>Node27</title>
<g id="a_node27"><a xlink:href="../../d7/da6/classview_1_1_turtle_draw.html#a1325ca376115619f15f5014eb4c5ad2a" target="_top" xlink:title="view.TurtleDraw.drawLine">
<polygon fill="white" stroke="black" points="1187.5,-181.5 1187.5,-200.5 1320.5,-200.5 1320.5,-181.5 1187.5,-181.5"/>
<text text-anchor="middle" x="1254" y="-188.5" font-family="Helvetica,sans-Serif" font-size="10.00">view.TurtleDraw.drawLine</text>
</a>
</g>
</g>
<!-- Node23&#45;&gt;Node27 -->
<g id="edge31" class="edge"><title>Node23&#45;&gt;Node27</title>
<path fill="none" stroke="midnightblue" d="M1125.98,-312.777C1131.03,-310.031 1135.77,-306.799 1140,-303 1172.97,-273.376 1142.73,-239.282 1176,-210 1177.76,-208.448 1179.63,-207.018 1181.59,-205.702"/>
<polygon fill="midnightblue" stroke="midnightblue" points="1183.63,-208.57 1190.64,-200.624 1180.2,-202.465 1183.63,-208.57"/>
</g>
<!-- Node28 -->
<g id="node28" class="node"><title>Node28</title>
<g id="a_node28"><a xlink:href="../../d6/d34/classmodel_1_1_turtle.html#a832234461564763f8330181b3c1163ff" target="_top" xlink:title="model.Turtle.getPrevLocation">
<polygon fill="white" stroke="black" points="1176.5,-447.5 1176.5,-466.5 1331.5,-466.5 1331.5,-447.5 1176.5,-447.5"/>
<text text-anchor="middle" x="1254" y="-454.5" font-family="Helvetica,sans-Serif" font-size="10.00">model.Turtle.getPrevLocation</text>
</a>
</g>
</g>
<!-- Node23&#45;&gt;Node28 -->
<g id="edge32" class="edge"><title>Node23&#45;&gt;Node28</title>
<path fill="none" stroke="midnightblue" d="M1125.39,-343.135C1130.64,-345.898 1135.59,-349.157 1140,-353 1170.94,-379.941 1144.78,-411.381 1176,-438 1177.97,-439.681 1180.07,-441.217 1182.26,-442.621"/>
<polygon fill="midnightblue" stroke="midnightblue" points="1180.68,-445.744 1191.14,-447.406 1184,-439.582 1180.68,-445.744"/>
</g>
<!-- Node29 -->
<g id="node29" class="node"><title>Node29</title>
<g id="a_node29"><a xlink:href="../../d6/d34/classmodel_1_1_turtle.html#a2470b9b4ef48a261324047de8ebdc242" target="_top" xlink:title="model.Turtle.getNewLocation">
<polygon fill="white" stroke="black" points="1176.5,-409.5 1176.5,-428.5 1331.5,-428.5 1331.5,-409.5 1176.5,-409.5"/>
<text text-anchor="middle" x="1254" y="-416.5" font-family="Helvetica,sans-Serif" font-size="10.00">model.Turtle.getNewLocation</text>
</a>
</g>
</g>
<!-- Node23&#45;&gt;Node29 -->
<g id="edge33" class="edge"><title>Node23&#45;&gt;Node29</title>
<path fill="none" stroke="midnightblue" d="M1121.08,-343.013C1127.74,-345.797 1134.16,-349.094 1140,-353 1161.87,-367.637 1153.98,-385.59 1176,-400 1179.12,-402.043 1182.44,-403.866 1185.89,-405.494"/>
<polygon fill="midnightblue" stroke="midnightblue" points="1184.67,-408.778 1195.25,-409.36 1187.35,-402.308 1184.67,-408.778"/>
</g>
<!-- Node30 -->
<g id="node30" class="node"><title>Node30</title>
<g id="a_node30"><a xlink:href="../../d6/d34/classmodel_1_1_turtle.html#a19c059b1cbfbd4e8f046ec2403de3fb9" target="_top" xlink:title="model.Turtle.getPenDash">
<polygon fill="white" stroke="black" points="1185.5,-371.5 1185.5,-390.5 1322.5,-390.5 1322.5,-371.5 1185.5,-371.5"/>
<text text-anchor="middle" x="1254" y="-378.5" font-family="Helvetica,sans-Serif" font-size="10.00">model.Turtle.getPenDash</text>
</a>
</g>
</g>
<!-- Node23&#45;&gt;Node30 -->
<g id="edge34" class="edge"><title>Node23&#45;&gt;Node30</title>
<path fill="none" stroke="midnightblue" d="M1103.15,-343.004C1125.76,-348.993 1152.1,-355.902 1176,-362 1185.01,-364.3 1194.63,-366.709 1203.91,-369.01"/>
<polygon fill="midnightblue" stroke="midnightblue" points="1203.25,-372.452 1213.8,-371.454 1204.93,-365.657 1203.25,-372.452"/>
</g>
<!-- Node32 -->
<g id="node32" class="node"><title>Node32</title>
<g id="a_node32"><a xlink:href="../../d6/d34/classmodel_1_1_turtle.html#a193c156784f783064ae533b619b6be6e" target="_top" xlink:title="model.Turtle.getPenColor">
<polygon fill="white" stroke="black" points="1185.5,-333.5 1185.5,-352.5 1322.5,-352.5 1322.5,-333.5 1185.5,-333.5"/>
<text text-anchor="middle" x="1254" y="-340.5" font-family="Helvetica,sans-Serif" font-size="10.00">model.Turtle.getPenColor</text>
</a>
</g>
</g>
<!-- Node23&#45;&gt;Node32 -->
<g id="edge36" class="edge"><title>Node23&#45;&gt;Node32</title>
<path fill="none" stroke="midnightblue" d="M1140.06,-334.776C1151.85,-335.635 1163.82,-336.506 1175.33,-337.345"/>
<polygon fill="midnightblue" stroke="midnightblue" points="1175.1,-340.837 1185.32,-338.072 1175.61,-333.855 1175.1,-340.837"/>
</g>
<!-- Node34 -->
<g id="node34" class="node"><title>Node34</title>
<g id="a_node34"><a xlink:href="../../d6/d34/classmodel_1_1_turtle.html#a1c5d07962ede5fbfacc59413274d4300" target="_top" xlink:title="model.Turtle.getHeading">
<polygon fill="white" stroke="black" points="1187,-295.5 1187,-314.5 1321,-314.5 1321,-295.5 1187,-295.5"/>
<text text-anchor="middle" x="1254" y="-302.5" font-family="Helvetica,sans-Serif" font-size="10.00">model.Turtle.getHeading</text>
</a>
</g>
</g>
<!-- Node23&#45;&gt;Node34 -->
<g id="edge39" class="edge"><title>Node23&#45;&gt;Node34</title>
<path fill="none" stroke="midnightblue" d="M1140.06,-317.61C1152.38,-316.234 1164.9,-314.836 1176.9,-313.496"/>
<polygon fill="midnightblue" stroke="midnightblue" points="1177.29,-316.975 1186.84,-312.387 1176.51,-310.018 1177.29,-316.975"/>
</g>
<!-- Node26 -->
<g id="node26" class="node"><title>Node26</title>
<g id="a_node26"><a xlink:href="../../de/ded/classmodel_1_1_pen.html#afad4fb3e51847cacab72c036ddaa108f" target="_top" xlink:title="model.Pen.getStatus">
<polygon fill="white" stroke="black" points="1396,-219.5 1396,-238.5 1514,-238.5 1514,-219.5 1396,-219.5"/>
<text text-anchor="middle" x="1455" y="-226.5" font-family="Helvetica,sans-Serif" font-size="10.00">model.Pen.getStatus</text>
</a>
</g>
</g>
<!-- Node25&#45;&gt;Node26 -->
<g id="edge30" class="edge"><title>Node25&#45;&gt;Node26</title>
<path fill="none" stroke="midnightblue" d="M1325.72,-229C1345.23,-229 1366.35,-229 1385.72,-229"/>
<polygon fill="midnightblue" stroke="midnightblue" points="1385.97,-232.5 1395.97,-229 1385.97,-225.5 1385.97,-232.5"/>
</g>
<!-- Node31 -->
<g id="node31" class="node"><title>Node31</title>
<g id="a_node31"><a xlink:href="../../de/ded/classmodel_1_1_pen.html#a6999f4af56377415621f193ef8600e27" target="_top" xlink:title="model.Pen.getDash">
<polygon fill="white" stroke="black" points="1399.5,-371.5 1399.5,-390.5 1510.5,-390.5 1510.5,-371.5 1399.5,-371.5"/>
<text text-anchor="middle" x="1455" y="-378.5" font-family="Helvetica,sans-Serif" font-size="10.00">model.Pen.getDash</text>
</a>
</g>
</g>
<!-- Node30&#45;&gt;Node31 -->
<g id="edge35" class="edge"><title>Node30&#45;&gt;Node31</title>
<path fill="none" stroke="midnightblue" d="M1322.65,-381C1344.15,-381 1367.86,-381 1389.15,-381"/>
<polygon fill="midnightblue" stroke="midnightblue" points="1389.39,-384.5 1399.39,-381 1389.39,-377.5 1389.39,-384.5"/>
</g>
<!-- Node33 -->
<g id="node33" class="node"><title>Node33</title>
<g id="a_node33"><a xlink:href="../../de/ded/classmodel_1_1_pen.html#a704af31474b10d17caf40773b7971826" target="_top" xlink:title="model.Pen.getPenColor">
<polygon fill="white" stroke="black" points="1390.5,-333.5 1390.5,-352.5 1519.5,-352.5 1519.5,-333.5 1390.5,-333.5"/>
<text text-anchor="middle" x="1455" y="-340.5" font-family="Helvetica,sans-Serif" font-size="10.00">model.Pen.getPenColor</text>
</a>
</g>
</g>
<!-- Node32&#45;&gt;Node33 -->
<g id="edge37" class="edge"><title>Node32&#45;&gt;Node33</title>
<path fill="none" stroke="midnightblue" d="M1322.65,-343C1341.18,-343 1361.36,-343 1380.21,-343"/>
<polygon fill="midnightblue" stroke="midnightblue" points="1380.23,-346.5 1390.23,-343 1380.23,-339.5 1380.23,-346.5"/>
</g>
</g>
</svg>
        <g id="navigator" transform="translate(0 0)" fill="#404254">
                <rect fill="#f2f5e9" fill-opacity="0.5" stroke="#606060" stroke-width=".5" x="0" y="0" width="60" height="60"/>
                <use id="zoomplus" xlink:href="#zoomPlus" x="17" y="9" onmousedown="handleZoom(evt,'in')"/>
                <use id="zoomminus" xlink:href="#zoomMin" x="42" y="9" onmousedown="handleZoom(evt,'out')"/>
                <use id="reset" xlink:href="#resetDef" x="30" y="36" onmousedown="handleReset()"/>
                <g id="arrowUp" xlink:href="#dirArrow" transform="translate(30 24)" onmousedown="handlePan(0,-1)">
                  <use xlink:href="#rim" fill="#404040">
                        <set attributeName="fill" to="#808080" begin="arrowUp.mouseover" end="arrowUp.mouseout"/>
                  </use>
                  <path fill="none" stroke="white" stroke-width="1.5" d="M0,-3.0v7 M-2.5,-0.5L0,-3.0L2.5,-0.5"/>
                </g>
                <g id="arrowRight" xlink:href="#dirArrow" transform="rotate(90) translate(36 -43)" onmousedown="handlePan(1,0)">
                  <use xlink:href="#rim" fill="#404040">
                        <set attributeName="fill" to="#808080" begin="arrowRight.mouseover" end="arrowRight.mouseout"/>
                  </use>
                  <path fill="none" stroke="white" stroke-width="1.5" d="M0,-3.0v7 M-2.5,-0.5L0,-3.0L2.5,-0.5"/>
                </g>
                <g id="arrowDown" xlink:href="#dirArrow" transform="rotate(180) translate(-30 -48)" onmousedown="handlePan(0,1)">
                  <use xlink:href="#rim" fill="#404040">
                        <set attributeName="fill" to="#808080" begin="arrowDown.mouseover" end="arrowDown.mouseout"/>
                  </use>
                  <path fill="none" stroke="white" stroke-width="1.5" d="M0,-3.0v7 M-2.5,-0.5L0,-3.0L2.5,-0.5"/>
                </g>
                <g id="arrowLeft" xlink:href="#dirArrow" transform="rotate(270) translate(-36 17)" onmousedown="handlePan(-1,0)">
                  <use xlink:href="#rim" fill="#404040">
                        <set attributeName="fill" to="#808080" begin="arrowLeft.mouseover" end="arrowLeft.mouseout"/>
                  </use>
                  <path fill="none" stroke="white" stroke-width="1.5" d="M0,-3.0v7 M-2.5,-0.5L0,-3.0L2.5,-0.5"/>
                </g>
        </g>
        <svg viewBox="0 0 15 15" width="100%" height="30px" preserveAspectRatio="xMaxYMin meet">
         <g id="arrow_out" transform="scale(0.3 0.3)">
          <a xlink:href="classcommands_1_1_make_variable_command_ad0e0974744cc969c12c67805c2460ef4_cgraph_org.svg" target="_base">
           <rect id="button" ry="5" rx="5" y="6" x="6" height="38" width="38"
                fill="#f2f5e9" fill-opacity="0.5" stroke="#606060" stroke-width="1.0"/>
           <path id="arrow"
             d="M 11.500037,31.436501 C 11.940474,20.09759 22.043105,11.32322 32.158766,21.979434 L 37.068811,17.246167 C 37.068811,17.246167 37.088388,32 37.088388,32 L 22.160133,31.978069 C 22.160133,31.978069 26.997745,27.140456 26.997745,27.140456 C 18.528582,18.264221 13.291696,25.230495 11.500037,31.436501 z"
             style="fill:#404040;"/>
          </a>
         </g>
        </svg>
</svg>
