<?xml version="1.0" encoding="UTF-8" standalone="no"?>
<!DOCTYPE svg PUBLIC "-//W3C//DTD SVG 1.1//EN"
 "http://www.w3.org/Graphics/SVG/1.1/DTD/svg11.dtd">
<!-- Generated by graphviz version 2.36.0 (20140111.2315)
 -->
<!-- Title: commands.SetPenSizeCommand Pages: 1 -->
<svg width="251pt" height="144pt"
 viewBox="0.00 0.00 251.00 144.00" xmlns="http://www.w3.org/2000/svg" xmlns:xlink="http://www.w3.org/1999/xlink">
<g id="graph0" class="graph" transform="scale(1 1) rotate(0) translate(4 140)">
<title>commands.SetPenSizeCommand</title>
<polygon fill="white" stroke="none" points="-4,4 -4,-140 247,-140 247,4 -4,4"/>
<!-- Node1 -->
<g id="node1" class="node"><title>Node1</title>
<polygon fill="#bfbfbf" stroke="black" points="-0.5,-0.5 -0.5,-19.5 178.5,-19.5 178.5,-0.5 -0.5,-0.5"/>
<text text-anchor="middle" x="89" y="-7.5" font-family="Helvetica,sans-Serif" font-size="10.00">commands.SetPenSizeCommand</text>
</g>
<!-- Node2 -->
<g id="node2" class="node"><title>Node2</title>
<g id="a_node2"><a xlink:href="../../d6/d9f/classcommands_1_1_one_input_command.html" target="_top" xlink:title="commands.OneInputCommand">
<polygon fill="white" stroke="black" points="5.5,-58.5 5.5,-77.5 172.5,-77.5 172.5,-58.5 5.5,-58.5"/>
<text text-anchor="middle" x="89" y="-65.5" font-family="Helvetica,sans-Serif" font-size="10.00">commands.OneInputCommand</text>
</a>
</g>
</g>
<!-- Node2&#45;&gt;Node1 -->
<g id="edge1" class="edge"><title>Node2&#45;&gt;Node1</title>
<path fill="none" stroke="midnightblue" d="M89,-47.953C89,-38.2875 89,-27.0312 89,-19.5052"/>
<polygon fill="midnightblue" stroke="midnightblue" points="85.5001,-48.25 89,-58.25 92.5001,-48.25 85.5001,-48.25"/>
</g>
<!-- Node3 -->
<g id="node3" class="node"><title>Node3</title>
<g id="a_node3"><a xlink:href="../../dd/dd6/classcommands_1_1_command.html" target="_top" xlink:title="commands.Command">
<polygon fill="white" stroke="black" points="27,-116.5 27,-135.5 151,-135.5 151,-116.5 27,-116.5"/>
<text text-anchor="middle" x="89" y="-123.5" font-family="Helvetica,sans-Serif" font-size="10.00">commands.Command</text>
</a>
</g>
</g>
<!-- Node3&#45;&gt;Node2 -->
<g id="edge2" class="edge"><title>Node3&#45;&gt;Node2</title>
<path fill="none" stroke="midnightblue" d="M89,-105.953C89,-96.2875 89,-85.0312 89,-77.5052"/>
<polygon fill="midnightblue" stroke="midnightblue" points="85.5001,-106.25 89,-116.25 92.5001,-106.25 85.5001,-106.25"/>
</g>
<!-- Node3&#45;&gt;Node3 -->
<g id="edge3" class="edge"><title>Node3&#45;&gt;Node3</title>
<path fill="none" stroke="#9a32cd" stroke-dasharray="5,2" d="M161.252,-129.592C165.474,-128.73 168,-127.533 168,-126 168,-123.484 161.198,-121.873 151.261,-121.165"/>
<polygon fill="#9a32cd" stroke="#9a32cd" points="160.752,-126.127 151.261,-130.835 161.617,-133.073 160.752,-126.127"/>
<text text-anchor="middle" x="205" y="-123.5" font-family="Helvetica,sans-Serif" font-size="10.00"> myParameters</text>
</g>
</g>
</svg>
